999
dxfrw 0.6.3
  0
SECTION
  2
HEADER
  9
$ACADVER
  1
AC1021
  9
$DWGCODEPAGE
  3
ANSI_1252
  9
$INSBASE
 10
0
 20
0
 30
0
  9
$EXTMIN
 10
-22.72458535607824
 20
-54.61000000000026
 30
0
  9
$EXTMAX
 10
49.53000000000031
 20
6.659999999999972
 30
0
  9
$LIMMIN
 10
0
 20
0
  9
$LIMMAX
 10
420
 20
297
  9
$ORTHOMODE
 70
    0
  9
$REGENMODE
 70
    1
  9
$FILLMODE
 70
    1
  9
$QTEXTMODE
 70
    0
  9
$MIRRTEXT
 70
    0
  9
$LTSCALE
 40
1
  9
$ATTMODE
 70
    0
  9
$TEXTSIZE
 40
2.5
  9
$TRACEWID
 40
15.68
  9
$TEXTSTYLE
  7
STANDARD
  9
$CLAYER
  8
condenser
  9
$CELTYPE
  6
BYLAYER
  9
$CECOLOR
 62
  256
  9
$CELTSCALE
 40
1
  9
$DISPSILH
 70
    0
  9
$DIMSCALE
 40
1
  9
$DIMASZ
 40
2.5
  9
$DIMEXO
 40
0.625
  9
$DIMDLI
 40
3.75
  9
$DIMRND
 40
0
  9
$DIMDLE
 40
0
  9
$DIMEXE
 40
1.25
  9
$DIMTP
 40
0
  9
$DIMTM
 40
0
  9
$DIMTXT
 40
2.5
  9
$DIMCEN
 40
2.5
  9
$DIMTSZ
 40
0
  9
$DIMTOL
 70
    0
  9
$DIMLIM
 70
    0
  9
$DIMTIH
 70
    0
  9
$DIMTOH
 70
    0
  9
$DIMSE1
 70
    0
  9
$DIMSE2
 70
    0
  9
$DIMTAD
 70
    1
  9
$DIMZIN
 70
    8
  9
$DIMBLK
  1

  9
$DIMASO
 70
    1
  9
$DIMSHO
 70
    1
  9
$DIMPOST
  1

  9
$DIMAPOST
  1

  9
$DIMALT
 70
    0
  9
$DIMALTD
 70
    3
  9
$DIMALTF
 40
0.03937
  9
$DIMLFAC
 40
1
  9
$DIMTOFL
 70
    1
  9
$DIMTVP
 40
0
  9
$DIMTIX
 70
    0
  9
$DIMSOXD
 70
    0
  9
$DIMSAH
 70
    0
  9
$DIMBLK1
  1

  9
$DIMBLK2
  1

  9
$DIMSTYLE
  2
STANDARD
  9
$DIMCLRD
 70
    0
  9
$DIMCLRE
 70
    0
  9
$DIMCLRT
 70
    0
  9
$DIMTFAC
 40
1
  9
$DIMGAP
 40
0.625
  9
$DIMJUST
 70
    0
  9
$DIMSD1
 70
    0
  9
$DIMSD2
 70
    0
  9
$DIMTOLJ
 70
    0
  9
$DIMTZIN
 70
    8
  9
$DIMALTZ
 70
    0
  9
$DIMALTTZ
 70
    0
  9
$DIMUPT
 70
    0
  9
$DIMDEC
 70
    2
  9
$DIMTDEC
 70
    2
  9
$DIMALTU
 70
    2
  9
$DIMALTTD
 70
    3
  9
$DIMTXSTY
  7
standard
  9
$DIMAUNIT
 70
    0
  9
$DIMADEC
 70
    0
  9
$DIMALTRND
 40
0
  9
$DIMAZIN
 70
    0
  9
$DIMDSEP
 70
   44
  9
$DIMATFIT
 70
    3
  9
$DIMFRAC
 70
    0
  9
$DIMLDRBLK
  1
STANDARD
  9
$DIMLUNIT
 70
    2
  9
$DIMLWD
 70
   -2
  9
$DIMLWE
 70
   -2
  9
$DIMTMOVE
 70
    0
  9
$DIMFXL
 40
1
  9
$DIMFXLON
 70
    0
  9
$DIMJOGANG
 40
0.7854
  9
$DIMTFILL
 70
    0
  9
$DIMTFILLCLR
 70
    0
  9
$DIMARCSYM
 70
    0
  9
$DIMLTYPE
  6

  9
$DIMLTEX1
  6

  9
$DIMLTEX2
  6

  9
$LUNITS
 70
    2
  9
$LUPREC
 70
    4
  9
$SKETCHINC
 40
1
  9
$FILLETRAD
 40
0
  9
$AUNITS
 70
    0
  9
$AUPREC
 70
    2
  9
$MENU
  1
.
  9
$ELEVATION
 40
0
  9
$PELEVATION
 40
0
  9
$THICKNESS
 40
0
  9
$LIMCHECK
 70
    0
  9
$CHAMFERA
 40
0
  9
$CHAMFERB
 40
0
  9
$CHAMFERC
 40
0
  9
$CHAMFERD
 40
0
  9
$SKPOLY
 70
    0
  9
$USRTIMER
 70
    1
  9
$ANGBASE
 50
0
  9
$ANGDIR
 70
    0
  9
$PDMODE
 70
   34
  9
$PDSIZE
 40
0
  9
$PLINEWID
 40
0
  9
$SPLFRAME
 70
    0
  9
$SPLINETYPE
 70
    2
  9
$SPLINESEGS
 70
    8
  9
$HANDSEED
  5
20000
  9
$SURFTAB1
 70
    6
  9
$SURFTAB2
 70
    6
  9
$SURFTYPE
 70
    6
  9
$SURFU
 70
    6
  9
$SURFV
 70
    6
  9
$UCSBASE
  2

  9
$UCSNAME
  2

  9
$UCSORG
 10
0
 20
0
 30
0
  9
$UCSXDIR
 10
1
 20
0
 30
0
  9
$UCSYDIR
 10
0
 20
1
 30
0
  9
$UCSORTHOREF
  2

  9
$UCSORTHOVIEW
 70
    0
  9
$UCSORGTOP
 10
0
 20
0
 30
0
  9
$UCSORGBOTTOM
 10
0
 20
0
 30
0
  9
$UCSORGLEFT
 10
0
 20
0
 30
0
  9
$UCSORGRIGHT
 10
0
 20
0
 30
0
  9
$UCSORGFRONT
 10
0
 20
0
 30
0
  9
$UCSORGBACK
 10
0
 20
0
 30
0
  9
$PUCSBASE
  2

  9
$PUCSNAME
  2

  9
$PUCSORG
 10
0
 20
0
 30
0
  9
$PUCSXDIR
 10
1
 20
0
 30
0
  9
$PUCSYDIR
 10
0
 20
1
 30
0
  9
$PUCSORTHOREF
  2

  9
$PUCSORTHOVIEW
 70
    0
  9
$PUCSORGTOP
 10
0
 20
0
 30
0
  9
$PUCSORGBOTTOM
 10
0
 20
0
 30
0
  9
$PUCSORGLEFT
 10
0
 20
0
 30
0
  9
$PUCSORGRIGHT
 10
0
 20
0
 30
0
  9
$PUCSORGFRONT
 10
0
 20
0
 30
0
  9
$PUCSORGBACK
 10
0
 20
0
 30
0
  9
$USERI1
 70
    0
  9
$USERI2
 70
    0
  9
$USERI3
 70
    0
  9
$USERI4
 70
    0
  9
$USERI5
 70
    0
  9
$USERR1
 40
0
  9
$USERR2
 40
0
  9
$USERR3
 40
0
  9
$USERR4
 40
0
  9
$USERR5
 40
0
  9
$WORLDVIEW
 70
    1
  9
$SHADEDGE
 70
    3
  9
$SHADEDIF
 70
   70
  9
$TILEMODE
 70
    1
  9
$MAXACTVP
 70
   64
  9
$PINSBASE
 10
104.7503433263882
 20
183.2601599477723
 30
0
  9
$PLIMCHECK
 70
    0
  9
$PEXTMIN
 10
0
 20
0
 30
0
  9
$PEXTMAX
 10
0
 20
0
 30
0
  9
$GRIDMODE
 70
    0
  9
$SNAPSTYLE
 70
    0
  9
$GRIDUNIT
 10
0
 20
0
  9
$PLIMMIN
 10
0
 20
0
  9
$PLIMMAX
 10
297
 20
210
  9
$UNITMODE
 70
    0
  9
$VISRETAIN
 70
    1
  9
$PLINEGEN
 70
    0
  9
$PSLTSCALE
 70
    1
  9
$TREEDEPTH
 70
 3020
  9
$CMLSTYLE
  2
Standard
  9
$CMLJUST
 70
    0
  9
$CMLSCALE
 40
20
  9
$PROXYGRAPHICS
 70
    1
  9
$MEASUREMENT
 70
    1
  9
$CELWEIGHT
370
   -1
  9
$ENDCAPS
280
    0
  9
$JOINSTYLE
280
    0
  9
$LWDISPLAY
290
    0
  9
$INSUNITS
 70
    0
  9
$HYPERLINKBASE
  1

  9
$STYLESHEET
  1

  9
$XEDIT
290
    1
  9
$CEPSNTYPE
380
    0
  9
$PSTYLEMODE
290
    1
  9
$EXTNAMES
290
    1
  9
$PSVPSCALE
 40
3.264240248082247
  9
$OLESTARTUP
290
    0
  9
$SORTENTS
280
  127
  9
$INDEXCTL
280
    0
  9
$HIDETEXT
280
    1
  9
$XCLIPFRAME
290
    0
  9
$HALOGAP
280
    0
  9
$OBSCOLOR
 70
  257
  9
$OBSLTYPE
280
    0
  9
$INTERSECTIONDISPLAY
280
    0
  9
$INTERSECTIONCOLOR
 70
  257
  9
$DIMASSOC
280
    1
  9
$PROJECTNAME
  1

  9
$CAMERADISPLAY
290
    0
  9
$LENSLENGTH
 40
50
  9
$CAMERAHEIGHT
 40
0
  9
$STEPSPERSEC
 40
2
  9
$STEPSIZE
 40
50
  9
$3DDWFPREC
 40
2
  9
$PSOLWIDTH
 40
5
  9
$PSOLHEIGHT
 40
80
  9
$LOFTANG1
 40
1.570796326794897
  9
$LOFTANG2
 40
1.570796326794897
  9
$LOFTMAG1
 40
0
  9
$LOFTMAG2
 40
0
  9
$LOFTPARAM
 70
    7
  9
$LOFTNORMALS
280
    1
  9
$LATITUDE
 40
1
  9
$LONGITUDE
 40
1
  9
$NORTHDIRECTION
 40
0
  9
$TIMEZONE
 70
-8000
  9
$LIGHTGLYPHDISPLAY
280
    1
  9
$TILEMODELIGHTSYNCH
280
    1
  9
$SOLIDHIST
280
    1
  9
$SHOWHIST
280
    1
  9
$DWFFRAME
280
    2
  9
$DGNFRAME
280
    0
  9
$REALWORLDSCALE
290
    1
  9
$INTERFERECOLOR
 62
    1
  9
$CSHADOW
280
    0
  9
$SHADOWPLANELOCATION
 40
0
  0
ENDSEC
  0
SECTION
  2
CLASSES
  0
ENDSEC
  0
SECTION
  2
TABLES
  0
TABLE
  2
VPORT
  5
8
330
0
100
AcDbSymbolTable
 70
    1
  0
VPORT
  5
31
330
2
100
AcDbSymbolTableRecord
100
AcDbViewportTableRecord
  2
*ACTIVE
 70
    0
 10
0
 20
0
 11
1
 21
1
 12
39.79984289902993
 22
6.28625356746771
 13
0
 23
0
 14
10
 24
10
 15
10
 25
10
 16
0
 26
0
 36
1
 17
0
 27
0
 37
0
 40
75.43504280961251
 41
1.626041666666667
 42
50
 43
0
 44
0
 50
0
 51
0
 71
    0
 72
  100
 73
    1
 74
    3
 75
    0
 76
    0
 77
    0
 78
    0
281
    0
 65
    1
110
0
120
0
130
0
111
1
121
0
131
0
112
0
122
1
132
0
 79
    0
146
0
348
10020
 60
    7
 61
    5
292
1
282
    1
141
0
142
0
 63
  250
421
3358443
  0
ENDTAB
  0
TABLE
  2
LTYPE
  5
5
330
0
100
AcDbSymbolTable
 70
    4
  0
LTYPE
  5
14
330
5
100
AcDbSymbolTableRecord
100
AcDbLinetypeTableRecord
  2
ByBlock
 70
    0
  3

 72
   65
 73
    0
 40
0
  0
LTYPE
  5
15
330
5
100
AcDbSymbolTableRecord
100
AcDbLinetypeTableRecord
  2
ByLayer
 70
    0
  3

 72
   65
 73
    0
 40
0
  0
LTYPE
  5
16
330
5
100
AcDbSymbolTableRecord
100
AcDbLinetypeTableRecord
  2
Continuous
 70
    0
  3
Solid line
 72
   65
 73
    0
 40
0
  0
LTYPE
  5
32
330
5
100
AcDbSymbolTableRecord
100
AcDbLinetypeTableRecord
  2
DOT
 70
    0
  3
Dot . . . . . . . . . . . . . . . . . . . . . .
 72
   65
 73
    2
 40
6.35
 49
0
 74
    0
 49
-6.35
 74
    0
  0
LTYPE
  5
33
330
5
100
AcDbSymbolTableRecord
100
AcDbLinetypeTableRecord
  2
DOTTINY
 70
    0
  3
Dot (.15x) .....................................
 72
   65
 73
    2
 40
0.9525
 49
0
 74
    0
 49
-0.9525
 74
    0
  0
LTYPE
  5
34
330
5
100
AcDbSymbolTableRecord
100
AcDbLinetypeTableRecord
  2
DOT2
 70
    0
  3
Dot (.5x) .....................................
 72
   65
 73
    2
 40
3.175
 49
0
 74
    0
 49
-3.175
 74
    0
  0
LTYPE
  5
35
330
5
100
AcDbSymbolTableRecord
100
AcDbLinetypeTableRecord
  2
DOTX2
 70
    0
  3
Dot (2x) .  .  .  .  .  .  .  .  .  .  .  .  .
 72
   65
 73
    2
 40
12.7
 49
0
 74
    0
 49
-12.7
 74
    0
  0
LTYPE
  5
36
330
5
100
AcDbSymbolTableRecord
100
AcDbLinetypeTableRecord
  2
DASHED
 70
    0
  3
Dashed _ _ _ _ _ _ _ _ _ _ _ _ _ _ _ _ _
 72
   65
 73
    2
 40
19.05
 49
12.7
 74
    0
 49
-6.35
 74
    0
  0
LTYPE
  5
37
330
5
100
AcDbSymbolTableRecord
100
AcDbLinetypeTableRecord
  2
DASHEDTINY
 70
    0
  3
Dashed (.15x) _ _ _ _ _ _ _ _ _ _ _ _ _ _ _ _ _
 72
   65
 73
    2
 40
2.8575
 49
1.905
 74
    0
 49
-0.9525
 74
    0
  0
LTYPE
  5
38
330
5
100
AcDbSymbolTableRecord
100
AcDbLinetypeTableRecord
  2
DASHED2
 70
    0
  3
Dashed (.5x) _ _ _ _ _ _ _ _ _ _ _ _ _ _ _ _ _
 72
   65
 73
    2
 40
9.524999999999999
 49
6.35
 74
    0
 49
-3.175
 74
    0
  0
LTYPE
  5
39
330
5
100
AcDbSymbolTableRecord
100
AcDbLinetypeTableRecord
  2
DASHEDX2
 70
    0
  3
Dashed (2x) ____  ____  ____  ____  ____  ___
 72
   65
 73
    2
 40
38.09999999999999
 49
25.4
 74
    0
 49
-12.7
 74
    0
  0
LTYPE
  5
3A
330
5
100
AcDbSymbolTableRecord
100
AcDbLinetypeTableRecord
  2
DASHDOT
 70
    0
  3
Dash dot __ . __ . __ . __ . __ . __ . __ . __
 72
   65
 73
    4
 40
25.4
 49
12.7
 74
    0
 49
-6.35
 74
    0
 49
0
 74
    0
 49
-6.35
 74
    0
  0
LTYPE
  5
3B
330
5
100
AcDbSymbolTableRecord
100
AcDbLinetypeTableRecord
  2
DASHDOTTINY
 70
    0
  3
Dash dot (.15x) _._._._._._._._._._._._._._._.
 72
   65
 73
    4
 40
3.81
 49
1.905
 74
    0
 49
-0.9525
 74
    0
 49
0
 74
    0
 49
-0.9525
 74
    0
  0
LTYPE
  5
3C
330
5
100
AcDbSymbolTableRecord
100
AcDbLinetypeTableRecord
  2
DASHDOT2
 70
    0
  3
Dash dot (.5x) _._._._._._._._._._._._._._._.
 72
   65
 73
    4
 40
12.7
 49
6.35
 74
    0
 49
-3.175
 74
    0
 49
0
 74
    0
 49
-3.175
 74
    0
  0
LTYPE
  5
3D
330
5
100
AcDbSymbolTableRecord
100
AcDbLinetypeTableRecord
  2
DASHDOTX2
 70
    0
  3
Dash dot (2x) ____  .  ____  .  ____  .  ___
 72
   65
 73
    4
 40
50.8
 49
25.4
 74
    0
 49
-12.7
 74
    0
 49
0
 74
    0
 49
-12.7
 74
    0
  0
LTYPE
  5
3E
330
5
100
AcDbSymbolTableRecord
100
AcDbLinetypeTableRecord
  2
DIVIDE
 70
    0
  3
Divide ____ . . ____ . . ____ . . ____ . . ____
 72
   65
 73
    6
 40
31.75
 49
12.7
 74
    0
 49
-6.35
 74
    0
 49
0
 74
    0
 49
-6.35
 74
    0
 49
0
 74
    0
 49
-6.35
 74
    0
  0
LTYPE
  5
3F
330
5
100
AcDbSymbolTableRecord
100
AcDbLinetypeTableRecord
  2
DIVIDETINY
 70
    0
  3
Divide (.15x) __..__..__..__..__..__..__..__.._
 72
   65
 73
    6
 40
4.7625
 49
1.905
 74
    0
 49
-0.9525
 74
    0
 49
0
 74
    0
 49
-0.9525
 74
    0
 49
0
 74
    0
 49
-0.9525
 74
    0
  0
LTYPE
  5
40
330
5
100
AcDbSymbolTableRecord
100
AcDbLinetypeTableRecord
  2
DIVIDE2
 70
    0
  3
Divide (.5x) __..__..__..__..__..__..__..__.._
 72
   65
 73
    6
 40
15.875
 49
6.35
 74
    0
 49
-3.175
 74
    0
 49
0
 74
    0
 49
-3.175
 74
    0
 49
0
 74
    0
 49
-3.175
 74
    0
  0
LTYPE
  5
41
330
5
100
AcDbSymbolTableRecord
100
AcDbLinetypeTableRecord
  2
DIVIDEX2
 70
    0
  3
Divide (2x) ________  .  .  ________  .  .  _
 72
   65
 73
    6
 40
63.5
 49
25.4
 74
    0
 49
-12.7
 74
    0
 49
0
 74
    0
 49
-12.7
 74
    0
 49
0
 74
    0
 49
-12.7
 74
    0
  0
LTYPE
  5
42
330
5
100
AcDbSymbolTableRecord
100
AcDbLinetypeTableRecord
  2
BORDER
 70
    0
  3
Border __ __ . __ __ . __ __ . __ __ . __ __ .
 72
   65
 73
    6
 40
44.45
 49
12.7
 74
    0
 49
-6.35
 74
    0
 49
12.7
 74
    0
 49
-6.35
 74
    0
 49
0
 74
    0
 49
-6.35
 74
    0
  0
LTYPE
  5
43
330
5
100
AcDbSymbolTableRecord
100
AcDbLinetypeTableRecord
  2
BORDERTINY
 70
    0
  3
Border (.15x) __.__.__.__.__.__.__.__.__.__.__.
 72
   65
 73
    6
 40
6.6675
 49
1.905
 74
    0
 49
-0.9525
 74
    0
 49
1.905
 74
    0
 49
-0.9525
 74
    0
 49
0
 74
    0
 49
-0.9525
 74
    0
  0
LTYPE
  5
44
330
5
100
AcDbSymbolTableRecord
100
AcDbLinetypeTableRecord
  2
BORDER2
 70
    0
  3
Border (.5x) __.__.__.__.__.__.__.__.__.__.__.
 72
   65
 73
    6
 40
22.225
 49
6.35
 74
    0
 49
-3.175
 74
    0
 49
6.35
 74
    0
 49
-3.175
 74
    0
 49
0
 74
    0
 49
-3.175
 74
    0
  0
LTYPE
  5
45
330
5
100
AcDbSymbolTableRecord
100
AcDbLinetypeTableRecord
  2
BORDERX2
 70
    0
  3
Border (2x) ____  ____  .  ____  ____  .  ___
 72
   65
 73
    6
 40
88.89999999999999
 49
25.4
 74
    0
 49
-12.7
 74
    0
 49
25.4
 74
    0
 49
-12.7
 74
    0
 49
0
 74
    0
 49
-12.7
 74
    0
  0
LTYPE
  5
46
330
5
100
AcDbSymbolTableRecord
100
AcDbLinetypeTableRecord
  2
CENTER
 70
    0
  3
Center ____ _ ____ _ ____ _ ____ _ ____ _ ____
 72
   65
 73
    4
 40
50.8
 49
31.75
 74
    0
 49
-6.35
 74
    0
 49
6.35
 74
    0
 49
-6.35
 74
    0
  0
LTYPE
  5
47
330
5
100
AcDbSymbolTableRecord
100
AcDbLinetypeTableRecord
  2
CENTERTINY
 70
    0
  3
Center (.15x) ___ _ ___ _ ___ _ ___ _ ___ _ ___
 72
   65
 73
    4
 40
7.619999999999999
 49
4.7625
 74
    0
 49
-0.9525
 74
    0
 49
0.9525
 74
    0
 49
-0.9525
 74
    0
  0
LTYPE
  5
48
330
5
100
AcDbSymbolTableRecord
100
AcDbLinetypeTableRecord
  2
CENTER2
 70
    0
  3
Center (.5x) ___ _ ___ _ ___ _ ___ _ ___ _ ___
 72
   65
 73
    4
 40
28.575
 49
19.05
 74
    0
 49
-3.175
 74
    0
 49
3.175
 74
    0
 49
-3.175
 74
    0
  0
LTYPE
  5
49
330
5
100
AcDbSymbolTableRecord
100
AcDbLinetypeTableRecord
  2
CENTERX2
 70
    0
  3
Center (2x) ________  __  ________  __  _____
 72
   65
 73
    4
 40
101.6
 49
63.5
 74
    0
 49
-12.7
 74
    0
 49
12.7
 74
    0
 49
-12.7
 74
    0
  0
ENDTAB
  0
TABLE
  2
LAYER
  5
2
330
0
100
AcDbSymbolTable
 70
    1
  0
LAYER
  5
10
330
2
100
AcDbSymbolTableRecord
100
AcDbLayerTableRecord
  2
0
 70
    0
 62
    7
  6
CONTINUOUS
370
    9
390
F
  0
LAYER
  5
4A
330
2
100
AcDbSymbolTableRecord
100
AcDbLayerTableRecord
  2
0_GND
 70
    0
 62
    7
  6
CONTINUOUS
370
   15
390
F
  0
LAYER
  5
4B
330
2
100
AcDbSymbolTableRecord
100
AcDbLayerTableRecord
  2
0_draft
 70
    0
 62
    7
  6
DOTTINY
370
   -3
390
F
1001
LibreCad
1070
    1
  0
LAYER
  5
4C
330
2
100
AcDbSymbolTableRecord
100
AcDbLayerTableRecord
  2
0_wire
 70
    0
 62
   92
420
51200
  6
CONTINUOUS
370
   15
390
F
  0
LAYER
  5
4D
330
2
100
AcDbSymbolTableRecord
100
AcDbLayerTableRecord
  2
1_wire
 70
    0
 62
    2
  6
CONTINUOUS
370
   15
390
F
  0
LAYER
  5
4E
330
2
100
AcDbSymbolTableRecord
100
AcDbLayerTableRecord
  2
3.3V line
 70
    0
 62
   40
420
16755200
  6
CONTINUOUS
370
   15
390
F
  0
LAYER
  5
4F
330
2
100
AcDbSymbolTableRecord
100
AcDbLayerTableRecord
  2
5V line
 70
    0
 62
    1
  6
CONTINUOUS
370
   15
390
F
  0
LAYER
  5
50
330
2
100
AcDbSymbolTableRecord
100
AcDbLayerTableRecord
  2
condenser
 70
    0
 62
    5
  6
CONTINUOUS
370
   15
390
F
  0
LAYER
  5
51
330
2
100
AcDbSymbolTableRecord
100
AcDbLayerTableRecord
  2
crystal
 70
    0
 62
   96
420
32768
  6
CONTINUOUS
370
   15
390
F
  0
LAYER
  5
52
330
2
100
AcDbSymbolTableRecord
100
AcDbLayerTableRecord
  2
diode
 70
    0
 62
  212
420
14549214
  6
CONTINUOUS
370
   15
390
F
  0
LAYER
  5
53
330
2
100
AcDbSymbolTableRecord
100
AcDbLayerTableRecord
  2
kakou
 70
    0
 62
  176
420
  128
  6
CONTINUOUS
370
   15
390
F
  0
LAYER
  5
54
330
2
100
AcDbSymbolTableRecord
100
AcDbLayerTableRecord
  2
micon
 70
    0
 62
  216
420
8388736
  6
CONTINUOUS
370
   15
390
F
  0
LAYER
  5
55
330
2
100
AcDbSymbolTableRecord
100
AcDbLayerTableRecord
  2
resister
 70
    0
 62
  134
420
45489
  6
CONTINUOUS
370
   15
390
F
  0
LAYER
  5
56
330
2
100
AcDbSymbolTableRecord
100
AcDbLayerTableRecord
  2
socket_header
 70
    0
 62
   56
420
8421376
  6
CONTINUOUS
370
   15
390
F
  0
LAYER
  5
57
330
2
100
AcDbSymbolTableRecord
100
AcDbLayerTableRecord
  2
switch
 70
    0
 62
  136
420
32896
  6
CONTINUOUS
370
   15
390
F
  0
LAYER
  5
58
330
2
100
AcDbSymbolTableRecord
100
AcDbLayerTableRecord
  2
terminal
 70
    0
 62
   16
420
8388608
  6
CONTINUOUS
370
   15
390
F
  0
LAYER
  5
59
330
2
100
AcDbSymbolTableRecord
100
AcDbLayerTableRecord
  2
universal_board
 70
    4
 62
  253
420
10526884
  6
CONTINUOUS
370
   15
390
F
  0
ENDTAB
  0
TABLE
  2
STYLE
  5
3
330
0
100
AcDbSymbolTable
 70
    3
  0
STYLE
  5
5A
330
2
100
AcDbSymbolTableRecord
100
AcDbTextStyleTableRecord
  2
kst32b
 70
    0
 40
0
 41
1
 50
0
 71
    0
 42
1
  3
kst32b
  4

  0
STYLE
  5
5B
330
2
100
AcDbSymbolTableRecord
100
AcDbTextStyleTableRecord
  2
unicode
 70
    0
 40
0
 41
1
 50
0
 71
    0
 42
1
  3
unicode
  4

  0
STYLE
  5
5C
330
2
100
AcDbSymbolTableRecord
100
AcDbTextStyleTableRecord
  2
STANDARD
 70
    0
 40
0
 41
1
 50
0
 71
    0
 42
1
  3
STANDARD
  4

  0
ENDTAB
  0
TABLE
  2
VIEW
  5
6
330
0
100
AcDbSymbolTable
 70
    0
  0
ENDTAB
  0
TABLE
  2
UCS
  5
7
330
0
100
AcDbSymbolTable
 70
    0
  0
ENDTAB
  0
TABLE
  2
APPID
  5
9
330
0
100
AcDbSymbolTable
 70
    1
  0
APPID
  5
12
330
9
100
AcDbSymbolTableRecord
100
AcDbRegAppTableRecord
  2
ACAD
 70
    0
  0
APPID
  5
5D
330
9
100
AcDbSymbolTableRecord
100
AcDbRegAppTableRecord
  2
LibreCad
 70
    0
  0
ENDTAB
  0
TABLE
  2
DIMSTYLE
  5
A
330
0
100
AcDbSymbolTable
 70
    1
100
AcDbDimStyleTable
 71
    1
  0
DIMSTYLE
105
5E
330
A
100
AcDbSymbolTableRecord
100
AcDbDimStyleTableRecord
  2
Standard
 70
    0
 40
1
 41
2.5
 42
0.625
 43
0.38
 44
1.25
 45
0
 46
0
 47
0
 48
0
 49
1
140
2.5
141
0.09
142
0
143
25.4
144
1
145
0
146
1
147
0.625
148
0
 71
    0
 72
    0
 73
    0
 74
    1
 75
    0
 76
    0
 77
    0
 78
    8
 79
    0
170
    0
171
    2
172
    0
173
    0
174
    0
175
    0
176
    0
177
    0
178
    0
179
    0
271
    2
272
    4
273
    2
274
    2
275
    0
276
    0
277
    2
278
   44
279
    0
280
    0
281
    0
282
    0
283
    1
284
    0
285
    0
286
    0
288
    0
289
    3
340
5C
  0
ENDTAB
  0
TABLE
  2
BLOCK_RECORD
  5
1
330
0
100
AcDbSymbolTable
 70
    2
  0
BLOCK_RECORD
  5
1F
330
1
100
AcDbSymbolTableRecord
100
AcDbBlockTableRecord
  2
*Model_Space
 70
    0
280
    1
281
    0
  0
BLOCK_RECORD
  5
1E
330
1
100
AcDbSymbolTableRecord
100
AcDbBlockTableRecord
  2
*Paper_Space
 70
    0
280
    1
281
    0
  0
BLOCK_RECORD
  5
5F
330
1
100
AcDbSymbolTableRecord
100
AcDbBlockTableRecord
  2
2227MC-08-03
 70
    0
280
    1
281
    0
  0
BLOCK_RECORD
  5
62
330
1
100
AcDbSymbolTableRecord
100
AcDbBlockTableRecord
  2
PIC16F15325
 70
    0
280
    1
281
    0
  0
BLOCK_RECORD
  5
65
330
1
100
AcDbSymbolTableRecord
100
AcDbBlockTableRecord
  2
2227MC-28-03
 70
    0
280
    1
281
    0
  0
BLOCK_RECORD
  5
68
330
1
100
AcDbSymbolTableRecord
100
AcDbBlockTableRecord
  2
HUSG-16.000-20
 70
    0
280
    1
281
    0
  0
BLOCK_RECORD
  5
6B
330
1
100
AcDbSymbolTableRecord
100
AcDbBlockTableRecord
  2
ATmega328P
 70
    0
280
    1
281
    0
  0
BLOCK_RECORD
  5
6E
330
1
100
AcDbSymbolTableRecord
100
AcDbBlockTableRecord
  2
DTS-63-N-V-BLK
 70
    0
280
    1
281
    0
  0
BLOCK_RECORD
  5
71
330
1
100
AcDbSymbolTableRecord
100
AcDbBlockTableRecord
  2
2227MC-14-03
 70
    0
280
    1
281
    0
  0
BLOCK_RECORD
  5
74
330
1
100
AcDbSymbolTableRecord
100
AcDbBlockTableRecord
  2
C_0.01uF
 70
    0
280
    1
281
    0
  0
BLOCK_RECORD
  5
77
330
1
100
AcDbSymbolTableRecord
100
AcDbBlockTableRecord
  2
R300
 70
    0
280
    1
281
    0
  0
BLOCK_RECORD
  5
7A
330
1
100
AcDbSymbolTableRecord
100
AcDbBlockTableRecord
  2
R10k
 70
    0
280
    1
281
    0
  0
BLOCK_RECORD
  5
7D
330
1
100
AcDbSymbolTableRecord
100
AcDbBlockTableRecord
  2
R0
 70
    0
280
    1
281
    0
  0
ENDTAB
  0
ENDSEC
  0
SECTION
  2
BLOCKS
  0
BLOCK
  5
20
330
1F
100
AcDbEntity
  8
0
100
AcDbBlockBegin
  2
*Model_Space
 70
    0
 10
0
 20
0
 30
0
  3
*Model_Space
  1

  0
ENDBLK
  5
21
330
1F
100
AcDbEntity
  8
0
100
AcDbBlockEnd
  0
BLOCK
  5
1C
330
1B
100
AcDbEntity
  8
0
100
AcDbBlockBegin
  2
*Paper_Space
 70
    0
 10
0
 20
0
 30
0
  3
*Paper_Space
  1

  0
ENDBLK
  5
1D
330
1F
100
AcDbEntity
  8
0
100
AcDbBlockEnd
  0
BLOCK
  5
60
330
5F
100
AcDbEntity
  8
0
100
AcDbBlockBegin
  2
2227MC-08-03
 70
    0
 10
0
 20
0
  3
2227MC-08-03
  1

  0
LINE
  5
80
100
AcDbEntity
  8
socket_header
  6
ByLayer
 62
  256
370
   -1
100
AcDbLine
 10
-1.270000000000131
 20
-8.890000110779171
 11
-1.270000000000131
 21
1.269999889220831
  0
LINE
  5
81
100
AcDbEntity
  8
socket_header
  6
ByLayer
 62
  256
370
   -1
100
AcDbLine
 10
-1.270000000000131
 20
1.269999889220831
 11
8.890000394687402
 21
1.269999889220831
  0
LINE
  5
82
100
AcDbEntity
  8
socket_header
  6
ByLayer
 62
  256
370
   -1
100
AcDbLine
 10
8.890000394687402
 20
1.269999889220831
 11
8.88999999999989
 21
-8.890000110779171
  0
LINE
  5
83
100
AcDbEntity
  8
socket_header
  6
ByLayer
 62
  256
370
   -1
100
AcDbLine
 10
8.88999999999989
 20
-8.890000110779171
 11
-1.270000000000131
 21
-8.890000110779171
  0
CIRCLE
  5
84
100
AcDbEntity
  8
socket_header
  6
ByLayer
 62
  256
370
   -1
100
AcDbCircle
 10
2.539999999999878
 20
1.06581410364015e-14
 40
0.6
  0
CIRCLE
  5
85
100
AcDbEntity
  8
socket_header
  6
ByLayer
 62
  256
370
   -1
100
AcDbCircle
 10
2.539999999999893
 20
-7.620000000000061
 40
0.6
  0
CIRCLE
  5
86
100
AcDbEntity
  8
socket_header
  6
ByLayer
 62
  256
370
   -1
100
AcDbCircle
 10
0
 20
0
 40
0.6
  0
CIRCLE
  5
87
100
AcDbEntity
  8
socket_header
  6
ByLayer
 62
  256
370
   -1
100
AcDbCircle
 10
7.105427357601002e-15
 20
-7.620000000000072
 40
0.6
  0
CIRCLE
  5
88
100
AcDbEntity
  8
socket_header
  6
ByLayer
 62
  256
370
   -1
100
AcDbCircle
 10
5.079999999999757
 20
2.842170943040401e-14
 40
0.6
  0
CIRCLE
  5
89
100
AcDbEntity
  8
socket_header
  6
ByLayer
 62
  256
370
   -1
100
AcDbCircle
 10
5.079999999999771
 20
-7.620000000000051
 40
0.6
  0
CIRCLE
  5
8A
100
AcDbEntity
  8
socket_header
  6
ByLayer
 62
  256
370
   -1
100
AcDbCircle
 10
7.619999999999639
 20
3.907985046680551e-14
 40
0.6
  0
CIRCLE
  5
8B
100
AcDbEntity
  8
socket_header
  6
ByLayer
 62
  256
370
   -1
100
AcDbCircle
 10
7.61999999999966
 20
-7.62000000000004
 40
0.6
  0
MTEXT
  5
8C
100
AcDbEntity
  8
socket_header
  6
ByLayer
 62
  256
370
   -1
100
AcDbMText
 10
3.950796119092651
 20
-1.713679173150673
 30
0
 40
1
 41
9.222222222222346
 71
    5
 72
    1
  1
2227MC-08-03
  7
STANDARD
210
0
220
0
230
1
 50
0
 73
    2
 44
1
  0
ENDBLK
  5
61
330
5F
100
AcDbEntity
  8
0
100
AcDbBlockEnd
  0
BLOCK
  5
63
330
62
100
AcDbEntity
  8
0
100
AcDbBlockBegin
  2
PIC16F15325
 70
    0
 10
0
 20
0
  3
PIC16F15325
  1

  0
ENDBLK
  5
64
330
62
100
AcDbEntity
  8
0
100
AcDbBlockEnd
  0
BLOCK
  5
66
330
65
100
AcDbEntity
  8
0
100
AcDbBlockBegin
  2
2227MC-28-03
 70
    0
 10
0
 20
0
  3
2227MC-28-03
  1

  0
ENDBLK
  5
67
330
65
100
AcDbEntity
  8
0
100
AcDbBlockEnd
  0
BLOCK
  5
69
330
68
100
AcDbEntity
  8
0
100
AcDbBlockBegin
  2
HUSG-16.000-20
 70
    0
 10
0
 20
0
  3
HUSG-16.000-20
  1

  0
ENDBLK
  5
6A
330
68
100
AcDbEntity
  8
0
100
AcDbBlockEnd
  0
BLOCK
  5
6C
330
6B
100
AcDbEntity
  8
0
100
AcDbBlockBegin
  2
ATmega328P
 70
    0
 10
0
 20
0
  3
ATmega328P
  1

  0
ENDBLK
  5
6D
330
6B
100
AcDbEntity
  8
0
100
AcDbBlockEnd
  0
BLOCK
  5
6F
330
6E
100
AcDbEntity
  8
0
100
AcDbBlockBegin
  2
DTS-63-N-V-BLK
 70
    0
 10
0
 20
0
  3
DTS-63-N-V-BLK
  1

  0
ENDBLK
  5
70
330
6E
100
AcDbEntity
  8
0
100
AcDbBlockEnd
  0
BLOCK
  5
72
330
71
100
AcDbEntity
  8
0
100
AcDbBlockBegin
  2
2227MC-14-03
 70
    0
 10
0
 20
0
  3
2227MC-14-03
  1

  0
ENDBLK
  5
73
330
71
100
AcDbEntity
  8
0
100
AcDbBlockEnd
  0
BLOCK
  5
75
330
74
100
AcDbEntity
  8
0
100
AcDbBlockBegin
  2
C_0.01uF
 70
    0
 10
0
 20
0
  3
C_0.01uF
  1

  0
LWPOLYLINE
  5
8D
100
AcDbEntity
  8
condenser
  6
ByLayer
 62
  256
370
   -1
100
AcDbPolyline
 90
    4
 70
    1
 43
0
 10
1.499999999999972
 20
5.039999999999822
 10
1.499999999999972
 20
0.03999999999992099
 10
-1.50000000000005
 20
0.03999999999992099
 10
-1.50000000000005
 20
5.039999999999822
  0
MTEXT
  5
8E
100
AcDbEntity
  8
condenser
  6
ByLayer
 62
  256
370
   -1
100
AcDbMText
 10
2.336701583810211
 20
2.491803864245341
 30
0
 40
1
 41
3.666666666666713
 71
    5
 72
    1
  1
0.01uF
  7
STANDARD
210
0
220
0
230
1
 50
270
 73
    2
 44
1
  0
CIRCLE
  5
8F
100
AcDbEntity
  8
condenser
  6
ByLayer
 62
  256
370
   -1
100
AcDbCircle
 10
0
 20
0
 40
0.4
  0
CIRCLE
  5
90
100
AcDbEntity
  8
condenser
  6
ByLayer
 62
  256
370
   -1
100
AcDbCircle
 10
-6.927791673660977e-14
 20
5.080000000000041
 40
0.4
  0
ENDBLK
  5
76
330
74
100
AcDbEntity
  8
0
100
AcDbBlockEnd
  0
BLOCK
  5
78
330
77
100
AcDbEntity
  8
0
100
AcDbBlockBegin
  2
R300
 70
    0
 10
0
 20
0
  3
R300
  1

  0
LWPOLYLINE
  5
91
100
AcDbEntity
  8
resister
  6
ByLayer
 62
  256
370
   -1
100
AcDbPolyline
 90
    4
 70
    1
 43
0
 10
-1.150000000000091
 20
0.6599999999995898
 10
-1.15000000000008
 20
6.959999999999511
 10
1.150000000000126
 20
6.959999999999511
 10
1.150000000000119
 20
0.6599999999995898
  0
CIRCLE
  5
92
100
AcDbEntity
  8
resister
  6
ByLayer
 62
  256
370
   -1
100
AcDbCircle
 10
1.953992523340276e-14
 20
7.619999999999639
 40
0.3
  0
LINE
  5
93
100
AcDbEntity
  8
resister
  6
ByLayer
 62
  256
370
   -1
100
AcDbLine
 10
1.953992523340276e-14
 20
0.2999999999998604
 11
1.031014139840636e-06
 21
0.6599999999995898
  0
LINE
  5
94
100
AcDbEntity
  8
resister
  6
ByLayer
 62
  256
370
   -1
100
AcDbLine
 10
3.907985046680551e-14
 20
6.959999999999511
 11
3.907985046680551e-14
 21
7.320000000000348
  0
MTEXT
  5
95
100
AcDbEntity
  8
resister
  6
ByLayer
 62
  256
370
   -1
100
AcDbMText
 10
-0.02409769535478112
 20
3.951579464078229
 30
0
 40
1
 41
2.888888888888951
 71
    5
 72
    1
  1
R300
  7
STANDARD
210
0
220
0
230
1
 50
90
 73
    2
 44
1
  0
CIRCLE
  5
96
100
AcDbEntity
  8
resister
  6
ByLayer
 62
  256
370
   -1
100
AcDbCircle
 10
0
 20
0
 40
0.25
  0
ENDBLK
  5
79
330
77
100
AcDbEntity
  8
0
100
AcDbBlockEnd
  0
BLOCK
  5
7B
330
7A
100
AcDbEntity
  8
0
100
AcDbBlockBegin
  2
R10k
 70
    0
 10
0
 20
0
  3
R10k
  1

  0
CIRCLE
  5
97
100
AcDbEntity
  8
resister
  6
ByLayer
 62
  256
370
   -1
100
AcDbCircle
 10
0
 20
0
 40
0.3
  0
LINE
  5
98
100
AcDbEntity
  8
resister
  6
ByLayer
 62
  256
370
   -1
100
AcDbLine
 10
-0.659999999999485
 20
1.150000000000098
 11
-0.659999999999485
 21
-1.150000000000059
  0
LINE
  5
99
100
AcDbEntity
  8
resister
  6
ByLayer
 62
  256
370
   -1
100
AcDbLine
 10
-6.959999999999557
 20
-1.150000000000041
 11
-0.659999999999485
 21
-1.150000000000059
  0
LINE
  5
9A
100
AcDbEntity
  8
resister
  6
ByLayer
 62
  256
370
   -1
100
AcDbLine
 10
-0.659999999999485
 20
1.150000000000098
 11
-6.959999999999557
 21
1.150000000000098
  0
LINE
  5
9B
100
AcDbEntity
  8
resister
  6
ByLayer
 62
  256
370
   -1
100
AcDbLine
 10
-6.959999999999557
 20
1.150000000000098
 11
-6.959999999999557
 21
-1.150000000000041
  0
CIRCLE
  5
9C
100
AcDbEntity
  8
resister
  6
ByLayer
 62
  256
370
   -1
100
AcDbCircle
 10
-7.619999999999408
 20
2.131628207280301e-14
 40
0.25
  0
MTEXT
  5
9D
100
AcDbEntity
  8
resister
  6
ByLayer
 62
  256
370
   -1
100
AcDbMText
 10
-3.991855261194459
 20
0.08749576228997924
 30
0
 40
1
 41
2.666666666666667
 71
    5
 72
    1
  1
R10k
  7
unicode
210
0
220
0
230
1
 50
0
 73
    2
 44
1
  0
LINE
  5
9E
100
AcDbEntity
  8
resister
  6
ByLayer
 62
  256
370
   -1
100
AcDbLine
 10
-0.2499999999985789
 20
2.131628207280301e-14
 11
-0.659999999999485
 21
2.131628207280301e-14
  0
LINE
  5
9F
100
AcDbEntity
  8
resister
  6
ByLayer
 62
  256
370
   -1
100
AcDbLine
 10
-7.369999999999898
 20
1.06581410364015e-14
 11
-6.959999999999557
 21
1.06581410364015e-14
  0
ENDBLK
  5
7C
330
7A
100
AcDbEntity
  8
0
100
AcDbBlockEnd
  0
BLOCK
  5
7E
330
7D
100
AcDbEntity
  8
0
100
AcDbBlockBegin
  2
R0
 70
    0
 10
0
 20
0
  3
R0
  1

  0
LINE
  5
A0
100
AcDbEntity
  8
resister
  6
ByLayer
 62
  256
370
   -1
100
AcDbLine
 10
-0.6599999999999611
 20
1.149999999999959
 11
-0.6599999999999611
 21
-1.14999999999997
  0
LINE
  5
A1
100
AcDbEntity
  8
resister
  6
ByLayer
 62
  256
370
   -1
100
AcDbLine
 10
-0.6599999999999611
 20
-1.14999999999997
 11
-6.959999999999834
 21
-1.14999999999997
  0
LINE
  5
A2
100
AcDbEntity
  8
resister
  6
ByLayer
 62
  256
370
   -1
100
AcDbLine
 10
-6.959999999999834
 20
-1.14999999999997
 11
-6.95999999999982
 21
1.149999999999959
  0
LINE
  5
A3
100
AcDbEntity
  8
resister
  6
ByLayer
 62
  256
370
   -1
100
AcDbLine
 10
-6.95999999999982
 20
1.149999999999959
 11
-0.6599999999999611
 21
1.149999999999959
  0
LINE
  5
A4
100
AcDbEntity
  8
resister
  6
ByLayer
 62
  256
370
   -1
100
AcDbLine
 10
-6.95999999999982
 20
0
 11
-7.61999999999966
 21
0
  0
LINE
  5
A5
100
AcDbEntity
  8
resister
  6
ByLayer
 62
  256
370
   -1
100
AcDbLine
 10
3.694822225952521e-13
 20
0
 11
-0.6599999999999611
 21
0
  0
MTEXT
  5
A6
100
AcDbEntity
  8
resister
  6
ByLayer
 62
  256
370
   -1
100
AcDbMText
 10
-4.132042899777453
 20
0.05377778633712005
 30
0
 40
1
 41
1.333333333333333
 71
    5
 72
    1
  1
R0
  7
STANDARD
210
0
220
0
230
1
 50
270
 73
    2
 44
1
  0
ENDBLK
  5
7F
330
7D
100
AcDbEntity
  8
0
100
AcDbBlockEnd
  0
ENDSEC
  0
SECTION
  2
ENTITIES
  0
CIRCLE
  5
A7
100
AcDbEntity
  8
universal_board
  6
ByLayer
 62
  256
370
   -1
100
AcDbCircle
 10
0
 20
0
 40
0.5
  0
CIRCLE
  5
A8
100
AcDbEntity
  8
universal_board
  6
ByLayer
 62
  256
370
   -1
100
AcDbCircle
 10
0
 20
-2.540000000000028
 40
0.5
  0
CIRCLE
  5
A9
100
AcDbEntity
  8
universal_board
  6
ByLayer
 62
  256
370
   -1
100
AcDbCircle
 10
8.881784197001252e-14
 20
-5.080000000000048
 40
0.5
  0
CIRCLE
  5
AA
100
AcDbEntity
  8
universal_board
  6
ByLayer
 62
  256
370
   -1
100
AcDbCircle
 10
8.881784197001252e-14
 20
-7.620000000000068
 40
0.5
  0
CIRCLE
  5
AB
100
AcDbEntity
  8
universal_board
  6
ByLayer
 62
  256
370
   -1
100
AcDbCircle
 10
8.881784197001252e-14
 20
-10.16000000000009
 40
0.5
  0
CIRCLE
  5
AC
100
AcDbEntity
  8
universal_board
  6
ByLayer
 62
  256
370
   -1
100
AcDbCircle
 10
8.881784197001252e-14
 20
-12.70000000000011
 40
0.5
  0
CIRCLE
  5
AD
100
AcDbEntity
  8
universal_board
  6
ByLayer
 62
  256
370
   -1
100
AcDbCircle
 10
8.881784197001252e-14
 20
-15.24000000000013
 40
0.5
  0
CIRCLE
  5
AE
100
AcDbEntity
  8
universal_board
  6
ByLayer
 62
  256
370
   -1
100
AcDbCircle
 10
8.881784197001252e-14
 20
-17.78000000000015
 40
0.5
  0
CIRCLE
  5
AF
100
AcDbEntity
  8
universal_board
  6
ByLayer
 62
  256
370
   -1
100
AcDbCircle
 10
8.881784197001252e-14
 20
-20.32000000000017
 40
0.5
  0
CIRCLE
  5
B0
100
AcDbEntity
  8
universal_board
  6
ByLayer
 62
  256
370
   -1
100
AcDbCircle
 10
8.881784197001252e-14
 20
-22.86000000000019
 40
0.5
  0
CIRCLE
  5
B1
100
AcDbEntity
  8
universal_board
  6
ByLayer
 62
  256
370
   -1
100
AcDbCircle
 10
8.881784197001252e-14
 20
-25.40000000000021
 40
0.5
  0
CIRCLE
  5
B2
100
AcDbEntity
  8
universal_board
  6
ByLayer
 62
  256
370
   -1
100
AcDbCircle
 10
8.881784197001252e-14
 20
-27.94000000000023
 40
0.5
  0
CIRCLE
  5
B3
100
AcDbEntity
  8
universal_board
  6
ByLayer
 62
  256
370
   -1
100
AcDbCircle
 10
2.54000000000001
 20
0
 40
0.5
  0
CIRCLE
  5
B4
100
AcDbEntity
  8
universal_board
  6
ByLayer
 62
  256
370
   -1
100
AcDbCircle
 10
2.54000000000001
 20
-2.540000000000028
 40
0.5
  0
CIRCLE
  5
B5
100
AcDbEntity
  8
universal_board
  6
ByLayer
 62
  256
370
   -1
100
AcDbCircle
 10
2.540000000000088
 20
-5.080000000000048
 40
0.5
  0
CIRCLE
  5
B6
100
AcDbEntity
  8
universal_board
  6
ByLayer
 62
  256
370
   -1
100
AcDbCircle
 10
2.540000000000088
 20
-7.620000000000068
 40
0.5
  0
CIRCLE
  5
B7
100
AcDbEntity
  8
universal_board
  6
ByLayer
 62
  256
370
   -1
100
AcDbCircle
 10
2.540000000000088
 20
-10.16000000000009
 40
0.5
  0
CIRCLE
  5
B8
100
AcDbEntity
  8
universal_board
  6
ByLayer
 62
  256
370
   -1
100
AcDbCircle
 10
2.540000000000088
 20
-12.70000000000011
 40
0.5
  0
CIRCLE
  5
B9
100
AcDbEntity
  8
universal_board
  6
ByLayer
 62
  256
370
   -1
100
AcDbCircle
 10
2.540000000000088
 20
-15.24000000000013
 40
0.5
  0
CIRCLE
  5
BA
100
AcDbEntity
  8
universal_board
  6
ByLayer
 62
  256
370
   -1
100
AcDbCircle
 10
2.540000000000088
 20
-17.78000000000015
 40
0.5
  0
CIRCLE
  5
BB
100
AcDbEntity
  8
universal_board
  6
ByLayer
 62
  256
370
   -1
100
AcDbCircle
 10
2.540000000000088
 20
-20.32000000000017
 40
0.5
  0
CIRCLE
  5
BC
100
AcDbEntity
  8
universal_board
  6
ByLayer
 62
  256
370
   -1
100
AcDbCircle
 10
2.540000000000088
 20
-22.86000000000019
 40
0.5
  0
CIRCLE
  5
BD
100
AcDbEntity
  8
universal_board
  6
ByLayer
 62
  256
370
   -1
100
AcDbCircle
 10
2.540000000000088
 20
-25.40000000000021
 40
0.5
  0
CIRCLE
  5
BE
100
AcDbEntity
  8
universal_board
  6
ByLayer
 62
  256
370
   -1
100
AcDbCircle
 10
2.540000000000088
 20
-27.94000000000023
 40
0.5
  0
CIRCLE
  5
BF
100
AcDbEntity
  8
universal_board
  6
ByLayer
 62
  256
370
   -1
100
AcDbCircle
 10
5.080000000000009
 20
0
 40
0.5
  0
CIRCLE
  5
C0
100
AcDbEntity
  8
universal_board
  6
ByLayer
 62
  256
370
   -1
100
AcDbCircle
 10
5.080000000000009
 20
-2.540000000000028
 40
0.5
  0
CIRCLE
  5
C1
100
AcDbEntity
  8
universal_board
  6
ByLayer
 62
  256
370
   -1
100
AcDbCircle
 10
5.08000000000008
 20
-5.080000000000048
 40
0.5
  0
CIRCLE
  5
C2
100
AcDbEntity
  8
universal_board
  6
ByLayer
 62
  256
370
   -1
100
AcDbCircle
 10
5.08000000000008
 20
-7.620000000000068
 40
0.5
  0
CIRCLE
  5
C3
100
AcDbEntity
  8
universal_board
  6
ByLayer
 62
  256
370
   -1
100
AcDbCircle
 10
5.08000000000008
 20
-10.16000000000009
 40
0.5
  0
CIRCLE
  5
C4
100
AcDbEntity
  8
universal_board
  6
ByLayer
 62
  256
370
   -1
100
AcDbCircle
 10
5.08000000000008
 20
-12.70000000000011
 40
0.5
  0
CIRCLE
  5
C5
100
AcDbEntity
  8
universal_board
  6
ByLayer
 62
  256
370
   -1
100
AcDbCircle
 10
5.08000000000008
 20
-15.24000000000013
 40
0.5
  0
CIRCLE
  5
C6
100
AcDbEntity
  8
universal_board
  6
ByLayer
 62
  256
370
   -1
100
AcDbCircle
 10
5.08000000000008
 20
-17.78000000000015
 40
0.5
  0
CIRCLE
  5
C7
100
AcDbEntity
  8
universal_board
  6
ByLayer
 62
  256
370
   -1
100
AcDbCircle
 10
5.08000000000008
 20
-20.32000000000017
 40
0.5
  0
CIRCLE
  5
C8
100
AcDbEntity
  8
universal_board
  6
ByLayer
 62
  256
370
   -1
100
AcDbCircle
 10
5.08000000000008
 20
-22.86000000000019
 40
0.5
  0
CIRCLE
  5
C9
100
AcDbEntity
  8
universal_board
  6
ByLayer
 62
  256
370
   -1
100
AcDbCircle
 10
5.08000000000008
 20
-25.40000000000021
 40
0.5
  0
CIRCLE
  5
CA
100
AcDbEntity
  8
universal_board
  6
ByLayer
 62
  256
370
   -1
100
AcDbCircle
 10
5.08000000000008
 20
-27.94000000000023
 40
0.5
  0
CIRCLE
  5
CB
100
AcDbEntity
  8
universal_board
  6
ByLayer
 62
  256
370
   -1
100
AcDbCircle
 10
7.620000000000012
 20
0
 40
0.5
  0
CIRCLE
  5
CC
100
AcDbEntity
  8
universal_board
  6
ByLayer
 62
  256
370
   -1
100
AcDbCircle
 10
7.620000000000012
 20
-2.540000000000028
 40
0.5
  0
CIRCLE
  5
CD
100
AcDbEntity
  8
universal_board
  6
ByLayer
 62
  256
370
   -1
100
AcDbCircle
 10
7.62000000000009
 20
-5.080000000000048
 40
0.5
  0
CIRCLE
  5
CE
100
AcDbEntity
  8
universal_board
  6
ByLayer
 62
  256
370
   -1
100
AcDbCircle
 10
7.62000000000009
 20
-7.620000000000068
 40
0.5
  0
CIRCLE
  5
CF
100
AcDbEntity
  8
universal_board
  6
ByLayer
 62
  256
370
   -1
100
AcDbCircle
 10
7.62000000000009
 20
-10.16000000000009
 40
0.5
  0
CIRCLE
  5
D0
100
AcDbEntity
  8
universal_board
  6
ByLayer
 62
  256
370
   -1
100
AcDbCircle
 10
7.62000000000009
 20
-12.70000000000011
 40
0.5
  0
CIRCLE
  5
D1
100
AcDbEntity
  8
universal_board
  6
ByLayer
 62
  256
370
   -1
100
AcDbCircle
 10
7.62000000000009
 20
-15.24000000000013
 40
0.5
  0
CIRCLE
  5
D2
100
AcDbEntity
  8
universal_board
  6
ByLayer
 62
  256
370
   -1
100
AcDbCircle
 10
7.62000000000009
 20
-17.78000000000015
 40
0.5
  0
CIRCLE
  5
D3
100
AcDbEntity
  8
universal_board
  6
ByLayer
 62
  256
370
   -1
100
AcDbCircle
 10
7.62000000000009
 20
-20.32000000000017
 40
0.5
  0
CIRCLE
  5
D4
100
AcDbEntity
  8
universal_board
  6
ByLayer
 62
  256
370
   -1
100
AcDbCircle
 10
7.62000000000009
 20
-22.86000000000019
 40
0.5
  0
CIRCLE
  5
D5
100
AcDbEntity
  8
universal_board
  6
ByLayer
 62
  256
370
   -1
100
AcDbCircle
 10
7.62000000000009
 20
-25.40000000000021
 40
0.5
  0
CIRCLE
  5
D6
100
AcDbEntity
  8
universal_board
  6
ByLayer
 62
  256
370
   -1
100
AcDbCircle
 10
7.62000000000009
 20
-27.94000000000023
 40
0.5
  0
CIRCLE
  5
D7
100
AcDbEntity
  8
universal_board
  6
ByLayer
 62
  256
370
   -1
100
AcDbCircle
 10
10.16
 20
0
 40
0.5
  0
CIRCLE
  5
D8
100
AcDbEntity
  8
universal_board
  6
ByLayer
 62
  256
370
   -1
100
AcDbCircle
 10
10.16
 20
-2.540000000000028
 40
0.5
  0
CIRCLE
  5
D9
100
AcDbEntity
  8
universal_board
  6
ByLayer
 62
  256
370
   -1
100
AcDbCircle
 10
10.16000000000009
 20
-5.080000000000048
 40
0.5
  0
CIRCLE
  5
DA
100
AcDbEntity
  8
universal_board
  6
ByLayer
 62
  256
370
   -1
100
AcDbCircle
 10
10.16000000000009
 20
-7.620000000000068
 40
0.5
  0
CIRCLE
  5
DB
100
AcDbEntity
  8
universal_board
  6
ByLayer
 62
  256
370
   -1
100
AcDbCircle
 10
10.16000000000009
 20
-10.16000000000009
 40
0.5
  0
CIRCLE
  5
DC
100
AcDbEntity
  8
universal_board
  6
ByLayer
 62
  256
370
   -1
100
AcDbCircle
 10
10.16000000000009
 20
-12.70000000000011
 40
0.5
  0
CIRCLE
  5
DD
100
AcDbEntity
  8
universal_board
  6
ByLayer
 62
  256
370
   -1
100
AcDbCircle
 10
10.16000000000009
 20
-15.24000000000013
 40
0.5
  0
CIRCLE
  5
DE
100
AcDbEntity
  8
universal_board
  6
ByLayer
 62
  256
370
   -1
100
AcDbCircle
 10
10.16000000000009
 20
-17.78000000000015
 40
0.5
  0
CIRCLE
  5
DF
100
AcDbEntity
  8
universal_board
  6
ByLayer
 62
  256
370
   -1
100
AcDbCircle
 10
10.16000000000009
 20
-20.32000000000017
 40
0.5
  0
CIRCLE
  5
E0
100
AcDbEntity
  8
universal_board
  6
ByLayer
 62
  256
370
   -1
100
AcDbCircle
 10
10.16000000000009
 20
-22.86000000000019
 40
0.5
  0
CIRCLE
  5
E1
100
AcDbEntity
  8
universal_board
  6
ByLayer
 62
  256
370
   -1
100
AcDbCircle
 10
10.16000000000009
 20
-25.40000000000021
 40
0.5
  0
CIRCLE
  5
E2
100
AcDbEntity
  8
universal_board
  6
ByLayer
 62
  256
370
   -1
100
AcDbCircle
 10
10.16000000000009
 20
-27.94000000000023
 40
0.5
  0
CIRCLE
  5
E3
100
AcDbEntity
  8
universal_board
  6
ByLayer
 62
  256
370
   -1
100
AcDbCircle
 10
12.70000000000001
 20
0
 40
0.5
  0
CIRCLE
  5
E4
100
AcDbEntity
  8
universal_board
  6
ByLayer
 62
  256
370
   -1
100
AcDbCircle
 10
12.70000000000001
 20
-2.540000000000028
 40
0.5
  0
CIRCLE
  5
E5
100
AcDbEntity
  8
universal_board
  6
ByLayer
 62
  256
370
   -1
100
AcDbCircle
 10
12.70000000000009
 20
-5.080000000000048
 40
0.5
  0
CIRCLE
  5
E6
100
AcDbEntity
  8
universal_board
  6
ByLayer
 62
  256
370
   -1
100
AcDbCircle
 10
12.70000000000009
 20
-7.620000000000068
 40
0.5
  0
CIRCLE
  5
E7
100
AcDbEntity
  8
universal_board
  6
ByLayer
 62
  256
370
   -1
100
AcDbCircle
 10
12.70000000000009
 20
-10.16000000000009
 40
0.5
  0
CIRCLE
  5
E8
100
AcDbEntity
  8
universal_board
  6
ByLayer
 62
  256
370
   -1
100
AcDbCircle
 10
12.70000000000009
 20
-12.70000000000011
 40
0.5
  0
CIRCLE
  5
E9
100
AcDbEntity
  8
universal_board
  6
ByLayer
 62
  256
370
   -1
100
AcDbCircle
 10
12.70000000000009
 20
-15.24000000000013
 40
0.5
  0
CIRCLE
  5
EA
100
AcDbEntity
  8
universal_board
  6
ByLayer
 62
  256
370
   -1
100
AcDbCircle
 10
12.70000000000009
 20
-17.78000000000015
 40
0.5
  0
CIRCLE
  5
EB
100
AcDbEntity
  8
universal_board
  6
ByLayer
 62
  256
370
   -1
100
AcDbCircle
 10
12.70000000000009
 20
-20.32000000000017
 40
0.5
  0
CIRCLE
  5
EC
100
AcDbEntity
  8
universal_board
  6
ByLayer
 62
  256
370
   -1
100
AcDbCircle
 10
12.70000000000009
 20
-22.86000000000019
 40
0.5
  0
CIRCLE
  5
ED
100
AcDbEntity
  8
universal_board
  6
ByLayer
 62
  256
370
   -1
100
AcDbCircle
 10
12.70000000000009
 20
-25.40000000000021
 40
0.5
  0
CIRCLE
  5
EE
100
AcDbEntity
  8
universal_board
  6
ByLayer
 62
  256
370
   -1
100
AcDbCircle
 10
12.70000000000009
 20
-27.94000000000023
 40
0.5
  0
CIRCLE
  5
EF
100
AcDbEntity
  8
universal_board
  6
ByLayer
 62
  256
370
   -1
100
AcDbCircle
 10
15.24000000000001
 20
0
 40
0.5
  0
CIRCLE
  5
F0
100
AcDbEntity
  8
universal_board
  6
ByLayer
 62
  256
370
   -1
100
AcDbCircle
 10
15.24000000000001
 20
-2.540000000000028
 40
0.5
  0
CIRCLE
  5
F1
100
AcDbEntity
  8
universal_board
  6
ByLayer
 62
  256
370
   -1
100
AcDbCircle
 10
15.24000000000009
 20
-5.080000000000048
 40
0.5
  0
CIRCLE
  5
F2
100
AcDbEntity
  8
universal_board
  6
ByLayer
 62
  256
370
   -1
100
AcDbCircle
 10
15.24000000000009
 20
-7.620000000000068
 40
0.5
  0
CIRCLE
  5
F3
100
AcDbEntity
  8
universal_board
  6
ByLayer
 62
  256
370
   -1
100
AcDbCircle
 10
15.24000000000009
 20
-10.16000000000009
 40
0.5
  0
CIRCLE
  5
F4
100
AcDbEntity
  8
universal_board
  6
ByLayer
 62
  256
370
   -1
100
AcDbCircle
 10
15.24000000000009
 20
-12.70000000000011
 40
0.5
  0
CIRCLE
  5
F5
100
AcDbEntity
  8
universal_board
  6
ByLayer
 62
  256
370
   -1
100
AcDbCircle
 10
15.24000000000009
 20
-15.24000000000013
 40
0.5
  0
CIRCLE
  5
F6
100
AcDbEntity
  8
universal_board
  6
ByLayer
 62
  256
370
   -1
100
AcDbCircle
 10
15.24000000000009
 20
-17.78000000000015
 40
0.5
  0
CIRCLE
  5
F7
100
AcDbEntity
  8
universal_board
  6
ByLayer
 62
  256
370
   -1
100
AcDbCircle
 10
15.24000000000009
 20
-20.32000000000017
 40
0.5
  0
CIRCLE
  5
F8
100
AcDbEntity
  8
universal_board
  6
ByLayer
 62
  256
370
   -1
100
AcDbCircle
 10
15.24000000000009
 20
-22.86000000000019
 40
0.5
  0
CIRCLE
  5
F9
100
AcDbEntity
  8
universal_board
  6
ByLayer
 62
  256
370
   -1
100
AcDbCircle
 10
15.24000000000009
 20
-25.40000000000021
 40
0.5
  0
CIRCLE
  5
FA
100
AcDbEntity
  8
universal_board
  6
ByLayer
 62
  256
370
   -1
100
AcDbCircle
 10
15.24000000000009
 20
-27.94000000000023
 40
0.5
  0
CIRCLE
  5
FB
100
AcDbEntity
  8
universal_board
  6
ByLayer
 62
  256
370
   -1
100
AcDbCircle
 10
17.78000000000001
 20
0
 40
0.5
  0
CIRCLE
  5
FC
100
AcDbEntity
  8
universal_board
  6
ByLayer
 62
  256
370
   -1
100
AcDbCircle
 10
17.78000000000001
 20
-2.540000000000028
 40
0.5
  0
CIRCLE
  5
FD
100
AcDbEntity
  8
universal_board
  6
ByLayer
 62
  256
370
   -1
100
AcDbCircle
 10
17.78000000000009
 20
-5.080000000000048
 40
0.5
  0
CIRCLE
  5
FE
100
AcDbEntity
  8
universal_board
  6
ByLayer
 62
  256
370
   -1
100
AcDbCircle
 10
17.78000000000009
 20
-7.620000000000068
 40
0.5
  0
CIRCLE
  5
FF
100
AcDbEntity
  8
universal_board
  6
ByLayer
 62
  256
370
   -1
100
AcDbCircle
 10
17.78000000000009
 20
-10.16000000000009
 40
0.5
  0
CIRCLE
  5
100
100
AcDbEntity
  8
universal_board
  6
ByLayer
 62
  256
370
   -1
100
AcDbCircle
 10
17.78000000000009
 20
-12.70000000000011
 40
0.5
  0
CIRCLE
  5
101
100
AcDbEntity
  8
universal_board
  6
ByLayer
 62
  256
370
   -1
100
AcDbCircle
 10
17.78000000000009
 20
-15.24000000000013
 40
0.5
  0
CIRCLE
  5
102
100
AcDbEntity
  8
universal_board
  6
ByLayer
 62
  256
370
   -1
100
AcDbCircle
 10
17.78000000000009
 20
-17.78000000000015
 40
0.5
  0
CIRCLE
  5
103
100
AcDbEntity
  8
universal_board
  6
ByLayer
 62
  256
370
   -1
100
AcDbCircle
 10
17.78000000000009
 20
-20.32000000000017
 40
0.5
  0
CIRCLE
  5
104
100
AcDbEntity
  8
universal_board
  6
ByLayer
 62
  256
370
   -1
100
AcDbCircle
 10
17.78000000000009
 20
-22.86000000000019
 40
0.5
  0
CIRCLE
  5
105
100
AcDbEntity
  8
universal_board
  6
ByLayer
 62
  256
370
   -1
100
AcDbCircle
 10
17.78000000000009
 20
-25.40000000000021
 40
0.5
  0
CIRCLE
  5
106
100
AcDbEntity
  8
universal_board
  6
ByLayer
 62
  256
370
   -1
100
AcDbCircle
 10
17.78000000000009
 20
-27.94000000000023
 40
0.5
  0
CIRCLE
  5
107
100
AcDbEntity
  8
universal_board
  6
ByLayer
 62
  256
370
   -1
100
AcDbCircle
 10
8.881784197001252e-14
 20
-30.48000000000025
 40
0.5
  0
CIRCLE
  5
108
100
AcDbEntity
  8
universal_board
  6
ByLayer
 62
  256
370
   -1
100
AcDbCircle
 10
2.540000000000088
 20
-30.48000000000025
 40
0.5
  0
CIRCLE
  5
109
100
AcDbEntity
  8
universal_board
  6
ByLayer
 62
  256
370
   -1
100
AcDbCircle
 10
5.08000000000008
 20
-30.48000000000025
 40
0.5
  0
CIRCLE
  5
10A
100
AcDbEntity
  8
universal_board
  6
ByLayer
 62
  256
370
   -1
100
AcDbCircle
 10
7.62000000000009
 20
-30.48000000000025
 40
0.5
  0
CIRCLE
  5
10B
100
AcDbEntity
  8
universal_board
  6
ByLayer
 62
  256
370
   -1
100
AcDbCircle
 10
10.16000000000009
 20
-30.48000000000025
 40
0.5
  0
CIRCLE
  5
10C
100
AcDbEntity
  8
universal_board
  6
ByLayer
 62
  256
370
   -1
100
AcDbCircle
 10
12.70000000000009
 20
-30.48000000000025
 40
0.5
  0
CIRCLE
  5
10D
100
AcDbEntity
  8
universal_board
  6
ByLayer
 62
  256
370
   -1
100
AcDbCircle
 10
15.24000000000009
 20
-30.48000000000025
 40
0.5
  0
CIRCLE
  5
10E
100
AcDbEntity
  8
universal_board
  6
ByLayer
 62
  256
370
   -1
100
AcDbCircle
 10
17.78000000000009
 20
-30.48000000000025
 40
0.5
  0
CIRCLE
  5
10F
100
AcDbEntity
  8
universal_board
  6
ByLayer
 62
  256
370
   -1
100
AcDbCircle
 10
8.881784197001252e-14
 20
-33.02000000000027
 40
0.5
  0
CIRCLE
  5
110
100
AcDbEntity
  8
universal_board
  6
ByLayer
 62
  256
370
   -1
100
AcDbCircle
 10
2.540000000000088
 20
-33.02000000000027
 40
0.5
  0
CIRCLE
  5
111
100
AcDbEntity
  8
universal_board
  6
ByLayer
 62
  256
370
   -1
100
AcDbCircle
 10
5.08000000000008
 20
-33.02000000000027
 40
0.5
  0
CIRCLE
  5
112
100
AcDbEntity
  8
universal_board
  6
ByLayer
 62
  256
370
   -1
100
AcDbCircle
 10
7.62000000000009
 20
-33.02000000000027
 40
0.5
  0
CIRCLE
  5
113
100
AcDbEntity
  8
universal_board
  6
ByLayer
 62
  256
370
   -1
100
AcDbCircle
 10
10.16000000000009
 20
-33.02000000000027
 40
0.5
  0
CIRCLE
  5
114
100
AcDbEntity
  8
universal_board
  6
ByLayer
 62
  256
370
   -1
100
AcDbCircle
 10
12.70000000000009
 20
-33.02000000000027
 40
0.5
  0
CIRCLE
  5
115
100
AcDbEntity
  8
universal_board
  6
ByLayer
 62
  256
370
   -1
100
AcDbCircle
 10
15.24000000000009
 20
-33.02000000000027
 40
0.5
  0
CIRCLE
  5
116
100
AcDbEntity
  8
universal_board
  6
ByLayer
 62
  256
370
   -1
100
AcDbCircle
 10
17.78000000000009
 20
-33.02000000000027
 40
0.5
  0
CIRCLE
  5
117
100
AcDbEntity
  8
universal_board
  6
ByLayer
 62
  256
370
   -1
100
AcDbCircle
 10
8.881784197001252e-14
 20
-35.56000000000029
 40
0.5
  0
CIRCLE
  5
118
100
AcDbEntity
  8
universal_board
  6
ByLayer
 62
  256
370
   -1
100
AcDbCircle
 10
2.540000000000088
 20
-35.56000000000029
 40
0.5
  0
CIRCLE
  5
119
100
AcDbEntity
  8
universal_board
  6
ByLayer
 62
  256
370
   -1
100
AcDbCircle
 10
5.08000000000008
 20
-35.56000000000029
 40
0.5
  0
CIRCLE
  5
11A
100
AcDbEntity
  8
universal_board
  6
ByLayer
 62
  256
370
   -1
100
AcDbCircle
 10
7.62000000000009
 20
-35.56000000000029
 40
0.5
  0
CIRCLE
  5
11B
100
AcDbEntity
  8
universal_board
  6
ByLayer
 62
  256
370
   -1
100
AcDbCircle
 10
10.16000000000009
 20
-35.56000000000029
 40
0.5
  0
CIRCLE
  5
11C
100
AcDbEntity
  8
universal_board
  6
ByLayer
 62
  256
370
   -1
100
AcDbCircle
 10
12.70000000000009
 20
-35.56000000000029
 40
0.5
  0
CIRCLE
  5
11D
100
AcDbEntity
  8
universal_board
  6
ByLayer
 62
  256
370
   -1
100
AcDbCircle
 10
15.24000000000009
 20
-35.56000000000029
 40
0.5
  0
CIRCLE
  5
11E
100
AcDbEntity
  8
universal_board
  6
ByLayer
 62
  256
370
   -1
100
AcDbCircle
 10
17.78000000000009
 20
-35.56000000000029
 40
0.5
  0
CIRCLE
  5
11F
100
AcDbEntity
  8
universal_board
  6
ByLayer
 62
  256
370
   -1
100
AcDbCircle
 10
8.881784197001252e-14
 20
-38.10000000000031
 40
0.5
  0
CIRCLE
  5
120
100
AcDbEntity
  8
universal_board
  6
ByLayer
 62
  256
370
   -1
100
AcDbCircle
 10
2.540000000000088
 20
-38.10000000000031
 40
0.5
  0
CIRCLE
  5
121
100
AcDbEntity
  8
universal_board
  6
ByLayer
 62
  256
370
   -1
100
AcDbCircle
 10
5.08000000000008
 20
-38.10000000000031
 40
0.5
  0
CIRCLE
  5
122
100
AcDbEntity
  8
universal_board
  6
ByLayer
 62
  256
370
   -1
100
AcDbCircle
 10
7.62000000000009
 20
-38.10000000000031
 40
0.5
  0
CIRCLE
  5
123
100
AcDbEntity
  8
universal_board
  6
ByLayer
 62
  256
370
   -1
100
AcDbCircle
 10
10.16000000000009
 20
-38.10000000000031
 40
0.5
  0
CIRCLE
  5
124
100
AcDbEntity
  8
universal_board
  6
ByLayer
 62
  256
370
   -1
100
AcDbCircle
 10
12.70000000000009
 20
-38.10000000000031
 40
0.5
  0
CIRCLE
  5
125
100
AcDbEntity
  8
universal_board
  6
ByLayer
 62
  256
370
   -1
100
AcDbCircle
 10
15.24000000000009
 20
-38.10000000000031
 40
0.5
  0
CIRCLE
  5
126
100
AcDbEntity
  8
universal_board
  6
ByLayer
 62
  256
370
   -1
100
AcDbCircle
 10
17.78000000000009
 20
-38.10000000000031
 40
0.5
  0
CIRCLE
  5
127
100
AcDbEntity
  8
universal_board
  6
ByLayer
 62
  256
370
   -1
100
AcDbCircle
 10
8.881784197001252e-14
 20
-40.64000000000033
 40
0.5
  0
CIRCLE
  5
128
100
AcDbEntity
  8
universal_board
  6
ByLayer
 62
  256
370
   -1
100
AcDbCircle
 10
2.540000000000088
 20
-40.64000000000033
 40
0.5
  0
CIRCLE
  5
129
100
AcDbEntity
  8
universal_board
  6
ByLayer
 62
  256
370
   -1
100
AcDbCircle
 10
5.08000000000008
 20
-40.64000000000033
 40
0.5
  0
CIRCLE
  5
12A
100
AcDbEntity
  8
universal_board
  6
ByLayer
 62
  256
370
   -1
100
AcDbCircle
 10
7.62000000000009
 20
-40.64000000000033
 40
0.5
  0
CIRCLE
  5
12B
100
AcDbEntity
  8
universal_board
  6
ByLayer
 62
  256
370
   -1
100
AcDbCircle
 10
10.16000000000009
 20
-40.64000000000033
 40
0.5
  0
CIRCLE
  5
12C
100
AcDbEntity
  8
universal_board
  6
ByLayer
 62
  256
370
   -1
100
AcDbCircle
 10
12.70000000000009
 20
-40.64000000000033
 40
0.5
  0
CIRCLE
  5
12D
100
AcDbEntity
  8
universal_board
  6
ByLayer
 62
  256
370
   -1
100
AcDbCircle
 10
15.24000000000009
 20
-40.64000000000033
 40
0.5
  0
CIRCLE
  5
12E
100
AcDbEntity
  8
universal_board
  6
ByLayer
 62
  256
370
   -1
100
AcDbCircle
 10
17.78000000000009
 20
-40.64000000000033
 40
0.5
  0
CIRCLE
  5
12F
100
AcDbEntity
  8
universal_board
  6
ByLayer
 62
  256
370
   -1
100
AcDbCircle
 10
8.881784197001252e-14
 20
-43.18000000000035
 40
0.5
  0
CIRCLE
  5
130
100
AcDbEntity
  8
universal_board
  6
ByLayer
 62
  256
370
   -1
100
AcDbCircle
 10
2.540000000000088
 20
-43.18000000000035
 40
0.5
  0
CIRCLE
  5
131
100
AcDbEntity
  8
universal_board
  6
ByLayer
 62
  256
370
   -1
100
AcDbCircle
 10
5.08000000000008
 20
-43.18000000000035
 40
0.5
  0
CIRCLE
  5
132
100
AcDbEntity
  8
universal_board
  6
ByLayer
 62
  256
370
   -1
100
AcDbCircle
 10
7.62000000000009
 20
-43.18000000000035
 40
0.5
  0
CIRCLE
  5
133
100
AcDbEntity
  8
universal_board
  6
ByLayer
 62
  256
370
   -1
100
AcDbCircle
 10
10.16000000000009
 20
-43.18000000000035
 40
0.5
  0
CIRCLE
  5
134
100
AcDbEntity
  8
universal_board
  6
ByLayer
 62
  256
370
   -1
100
AcDbCircle
 10
12.70000000000009
 20
-43.18000000000035
 40
0.5
  0
CIRCLE
  5
135
100
AcDbEntity
  8
universal_board
  6
ByLayer
 62
  256
370
   -1
100
AcDbCircle
 10
15.24000000000009
 20
-43.18000000000035
 40
0.5
  0
CIRCLE
  5
136
100
AcDbEntity
  8
universal_board
  6
ByLayer
 62
  256
370
   -1
100
AcDbCircle
 10
17.78000000000009
 20
-43.18000000000035
 40
0.5
  0
CIRCLE
  5
137
100
AcDbEntity
  8
universal_board
  6
ByLayer
 62
  256
370
   -1
100
AcDbCircle
 10
8.881784197001252e-14
 20
-45.72000000000037
 40
0.5
  0
CIRCLE
  5
138
100
AcDbEntity
  8
universal_board
  6
ByLayer
 62
  256
370
   -1
100
AcDbCircle
 10
2.540000000000088
 20
-45.72000000000037
 40
0.5
  0
CIRCLE
  5
139
100
AcDbEntity
  8
universal_board
  6
ByLayer
 62
  256
370
   -1
100
AcDbCircle
 10
5.08000000000008
 20
-45.72000000000037
 40
0.5
  0
CIRCLE
  5
13A
100
AcDbEntity
  8
universal_board
  6
ByLayer
 62
  256
370
   -1
100
AcDbCircle
 10
7.62000000000009
 20
-45.72000000000037
 40
0.5
  0
CIRCLE
  5
13B
100
AcDbEntity
  8
universal_board
  6
ByLayer
 62
  256
370
   -1
100
AcDbCircle
 10
10.16000000000009
 20
-45.72000000000037
 40
0.5
  0
CIRCLE
  5
13C
100
AcDbEntity
  8
universal_board
  6
ByLayer
 62
  256
370
   -1
100
AcDbCircle
 10
12.70000000000009
 20
-45.72000000000037
 40
0.5
  0
CIRCLE
  5
13D
100
AcDbEntity
  8
universal_board
  6
ByLayer
 62
  256
370
   -1
100
AcDbCircle
 10
15.24000000000009
 20
-45.72000000000037
 40
0.5
  0
CIRCLE
  5
13E
100
AcDbEntity
  8
universal_board
  6
ByLayer
 62
  256
370
   -1
100
AcDbCircle
 10
17.78000000000009
 20
-45.72000000000037
 40
0.5
  0
CIRCLE
  5
13F
100
AcDbEntity
  8
universal_board
  6
ByLayer
 62
  256
370
   -1
100
AcDbCircle
 10
8.881784197001252e-14
 20
-48.26000000000039
 40
0.5
  0
CIRCLE
  5
140
100
AcDbEntity
  8
universal_board
  6
ByLayer
 62
  256
370
   -1
100
AcDbCircle
 10
2.540000000000088
 20
-48.26000000000039
 40
0.5
  0
CIRCLE
  5
141
100
AcDbEntity
  8
universal_board
  6
ByLayer
 62
  256
370
   -1
100
AcDbCircle
 10
5.08000000000008
 20
-48.26000000000039
 40
0.5
  0
CIRCLE
  5
142
100
AcDbEntity
  8
universal_board
  6
ByLayer
 62
  256
370
   -1
100
AcDbCircle
 10
7.62000000000009
 20
-48.26000000000039
 40
0.5
  0
CIRCLE
  5
143
100
AcDbEntity
  8
universal_board
  6
ByLayer
 62
  256
370
   -1
100
AcDbCircle
 10
10.16000000000009
 20
-48.26000000000039
 40
0.5
  0
CIRCLE
  5
144
100
AcDbEntity
  8
universal_board
  6
ByLayer
 62
  256
370
   -1
100
AcDbCircle
 10
12.70000000000009
 20
-48.26000000000039
 40
0.5
  0
CIRCLE
  5
145
100
AcDbEntity
  8
universal_board
  6
ByLayer
 62
  256
370
   -1
100
AcDbCircle
 10
15.24000000000009
 20
-48.26000000000039
 40
0.5
  0
CIRCLE
  5
146
100
AcDbEntity
  8
universal_board
  6
ByLayer
 62
  256
370
   -1
100
AcDbCircle
 10
17.78000000000009
 20
-48.26000000000039
 40
0.5
  0
LINE
  5
147
100
AcDbEntity
  8
micon
  6
ByLayer
 62
  256
370
   -1
100
AcDbLine
 10
-1.359999999999985
 20
-26.78000000000009
 11
19.14000000000002
 21
-26.78000000000009
  0
LINE
  5
148
100
AcDbEntity
  8
micon
  6
ByLayer
 62
  256
370
   -1
100
AcDbLine
 10
19.14000000000002
 20
-26.78000000000009
 11
19.14000000000002
 21
-8.780000000000079
  0
LINE
  5
149
100
AcDbEntity
  8
micon
  6
ByLayer
 62
  256
370
   -1
100
AcDbLine
 10
19.14000000000002
 20
-8.780000000000079
 11
-1.359999999999985
 21
-8.780000000000079
  0
LINE
  5
14A
100
AcDbEntity
  8
micon
  6
ByLayer
 62
  256
370
   -1
100
AcDbLine
 10
-1.359999999999985
 20
-8.780000000000079
 11
-1.359999999999985
 21
-26.78000000000009
  0
CIRCLE
  5
14B
100
AcDbEntity
  8
micon
  6
ByLayer
 62
  256
370
   -1
100
AcDbCircle
 10
-4.973799150320701e-14
 20
-25.40000000000009
 40
1
  0
CIRCLE
  5
14C
100
AcDbEntity
  8
micon
  6
ByLayer
 62
  256
370
   -1
100
AcDbCircle
 10
2.539999999999971
 20
-25.40000000000009
 40
1
  0
CIRCLE
  5
14D
100
AcDbEntity
  8
micon
  6
ByLayer
 62
  256
370
   -1
100
AcDbCircle
 10
5.079999999999991
 20
-25.40000000000009
 40
1
  0
CIRCLE
  5
14E
100
AcDbEntity
  8
micon
  6
ByLayer
 62
  256
370
   -1
100
AcDbCircle
 10
7.620000000000012
 20
-25.40000000000009
 40
1
  0
CIRCLE
  5
14F
100
AcDbEntity
  8
micon
  6
ByLayer
 62
  256
370
   -1
100
AcDbCircle
 10
10.16000000000003
 20
-25.40000000000009
 40
1
  0
CIRCLE
  5
150
100
AcDbEntity
  8
micon
  6
ByLayer
 62
  256
370
   -1
100
AcDbCircle
 10
12.70000000000005
 20
-25.40000000000009
 40
1
  0
CIRCLE
  5
151
100
AcDbEntity
  8
micon
  6
ByLayer
 62
  256
370
   -1
100
AcDbCircle
 10
15.24000000000007
 20
-25.40000000000009
 40
1
  0
CIRCLE
  5
152
100
AcDbEntity
  8
micon
  6
ByLayer
 62
  256
370
   -1
100
AcDbCircle
 10
17.78000000000009
 20
-25.40000000000009
 40
1
  0
CIRCLE
  5
153
100
AcDbEntity
  8
micon
  6
ByLayer
 62
  256
370
   -1
100
AcDbCircle
 10
17.78000000000009
 20
-10.16000000000009
 40
1
  0
CIRCLE
  5
154
100
AcDbEntity
  8
micon
  6
ByLayer
 62
  256
370
   -1
100
AcDbCircle
 10
15.24000000000007
 20
-10.16000000000009
 40
1
  0
CIRCLE
  5
155
100
AcDbEntity
  8
micon
  6
ByLayer
 62
  256
370
   -1
100
AcDbCircle
 10
12.70000000000005
 20
-10.16000000000009
 40
1
  0
CIRCLE
  5
156
100
AcDbEntity
  8
micon
  6
ByLayer
 62
  256
370
   -1
100
AcDbCircle
 10
10.16000000000003
 20
-10.16000000000009
 40
1
  0
CIRCLE
  5
157
100
AcDbEntity
  8
micon
  6
ByLayer
 62
  256
370
   -1
100
AcDbCircle
 10
7.620000000000012
 20
-10.16000000000009
 40
1
  0
CIRCLE
  5
158
100
AcDbEntity
  8
micon
  6
ByLayer
 62
  256
370
   -1
100
AcDbCircle
 10
5.079999999999991
 20
-10.16000000000009
 40
1
  0
CIRCLE
  5
159
100
AcDbEntity
  8
micon
  6
ByLayer
 62
  256
370
   -1
100
AcDbCircle
 10
2.539999999999971
 20
-10.16000000000009
 40
1
  0
CIRCLE
  5
15A
100
AcDbEntity
  8
micon
  6
ByLayer
 62
  256
370
   -1
100
AcDbCircle
 10
-4.973799150320701e-14
 20
-10.16000000000009
 40
1
  0
MTEXT
  5
15B
100
AcDbEntity
  8
micon
  6
ByLayer
 62
  256
370
   -1
100
AcDbMText
 10
8.735493671281091
 20
-13.63111402822653
 30
0
 40
1
 41
2.875555555555556
 71
    4
 72
    1
  1
DM\PDP\PVSS\PVDDA\PLED\PGPIO\P5V\PVDD
  7
kst32b
210
0
220
0
230
1
 50
90
 73
    2
 44
1.54
  0
LINE
  5
15C
100
AcDbEntity
  8
0_GND
  6
ByLayer
 62
  256
370
   -1
100
AcDbLine
 10
12.7000000000001
 20
-15.24000000000013
 11
12.7000000000001
 21
-10.16000000000009
  0
CIRCLE
  5
15D
100
AcDbEntity
  8
0_wire
  6
ByLayer
 62
  256
370
   -1
100
AcDbCircle
 10
10.16000000000009
 20
-10.16000000000009
 40
0.4
  0
LINE
  5
15E
100
AcDbEntity
  8
3.3V line
  6
ByLayer
 62
  256
370
   -1
100
AcDbLine
 10
17.78000000000009
 20
-10.16000000000009
 11
17.78000000000009
 21
-12.70000000000011
  0
LINE
  5
15F
100
AcDbEntity
  8
3.3V line
  6
ByLayer
 62
  256
370
   -1
100
AcDbLine
 10
7.62000000000009
 20
-10.16000000000009
 11
7.62000000000009
 21
-12.70000000000011
  0
MTEXT
  5
160
100
AcDbEntity
  8
micon
  6
ByLayer
 62
  256
370
   -1
100
AcDbMText
 10
8.782320707613749
 20
-23.92882768692093
 30
0
 40
1
 41
2.875555555555555
 71
    4
 72
    1
  1
VSS\PD1\PD0\PCLK\PCMD\PD3\PD2\PPMOS
  7
kst32b
210
0
220
0
230
1
 50
90
 73
    2
 44
1.54
  0
LWPOLYLINE
  5
161
100
AcDbEntity
  8
resister
  6
ByLayer
 62
  256
370
   -1
100
AcDbPolyline
 90
    2
 70
    0
 43
0
 10
20.32000000000009
 20
-25.40000000000021
 10
20.32000000000009
 20
-25.40000000000021
  0
LINE
  5
162
100
AcDbEntity
  8
condenser
  6
ByLayer
 62
  256
370
   -1
100
AcDbLine
 10
13.4899999999997
 20
-11.80000000000011
 11
13.4899999999997
 21
-13.6000000000009
  0
LINE
  5
163
100
AcDbEntity
  8
condenser
  6
ByLayer
 62
  256
370
   -1
100
AcDbLine
 10
13.4899999999997
 20
-13.6000000000009
 11
16.9900000000001
 21
-13.6000000000009
  0
LINE
  5
164
100
AcDbEntity
  8
condenser
  6
ByLayer
 62
  256
370
   -1
100
AcDbLine
 10
16.9900000000001
 20
-13.6000000000009
 11
16.9900000000001
 21
-11.80000000000011
  0
LINE
  5
165
100
AcDbEntity
  8
condenser
  6
ByLayer
 62
  256
370
   -1
100
AcDbLine
 10
16.9900000000001
 20
-11.80000000000011
 11
13.4899999999997
 21
-11.80000000000011
  0
LINE
  5
166
100
AcDbEntity
  8
condenser
  6
ByLayer
 62
  256
370
   -1
100
AcDbLine
 10
12.70000000000007
 20
-12.70000000000021
 11
13.4899999999997
 21
-12.70000000000021
  0
LINE
  5
167
100
AcDbEntity
  8
condenser
  6
ByLayer
 62
  256
370
   -1
100
AcDbLine
 10
17.78000000000011
 20
-12.70000000000021
 11
16.99000000000049
 21
-12.70000000000021
  0
LINE
  5
168
100
AcDbEntity
  8
0_GND
  6
ByLayer
 62
  256
370
   -1
100
AcDbLine
 10
8.526512829121202e-14
 20
-22.86000000000019
 11
-4.973799150320701e-14
 21
-25.40000000000009
  0
LINE
  5
169
100
AcDbEntity
  8
0_GND
  6
ByLayer
 62
  256
370
   -1
100
AcDbLine
 10
5.080000000000091
 20
-10.16000000000009
 11
5.080000000000091
 21
-12.70000000000021
  0
LINE
  5
16A
100
AcDbEntity
  8
0_GND
  6
ByLayer
 62
  256
370
   -1
100
AcDbLine
 10
5.080000000000091
 20
-12.70000000000011
 11
5.080000000000091
 21
-15.24000000000013
  0
LINE
  5
16B
100
AcDbEntity
  8
0_GND
  6
ByLayer
 62
  256
370
   -1
100
AcDbLine
 10
5.080000000000091
 20
-15.24000000000013
 11
7.62000000000009
 21
-15.24000000000013
  0
LINE
  5
16C
100
AcDbEntity
  8
0_GND
  6
ByLayer
 62
  256
370
   -1
100
AcDbLine
 10
7.62000000000009
 20
-15.24000000000013
 11
12.7000000000001
 21
-15.24000000000013
  0
LWPOLYLINE
  5
16D
100
AcDbEntity
  8
resister
  6
ByLayer
 62
  256
370
   -1
100
AcDbPolyline
 90
    6
 70
    0
 43
0
 10
5.080000000000091
 20
-12.70000000000011
 10
4.713303463199345
 20
-12.1114072242637
 10
0.4259941744871512
 20
-12.07312767704306
 10
-0.5884138268599273
 20
-12.72387997979401
 10
-0.5692740532496074
 20
-22.25548723773451
 10
8.526512829121202e-14
 20
-22.86000000000019
  0
LINE
  5
16E
100
AcDbEntity
  8
terminal
  6
ByLayer
 62
  256
370
   -1
100
AcDbLine
 10
20.95500000000008
 20
-30.48000000000025
 11
20.9550000000001
 21
-54.61000000000026
  0
LINE
  5
16F
100
AcDbEntity
  8
terminal
  6
ByLayer
 62
  256
370
   -1
100
AcDbLine
 10
20.9550000000001
 20
-54.61000000000026
 11
-1.904999999999916
 21
-54.61000000000026
  0
LINE
  5
170
100
AcDbEntity
  8
terminal
  6
ByLayer
 62
  256
370
   -1
100
AcDbLine
 10
-1.904999999999916
 20
-54.61000000000026
 11
-1.904999999999916
 21
-30.48000000000025
  0
LINE
  5
171
100
AcDbEntity
  8
terminal
  6
ByLayer
 62
  256
370
   -1
100
AcDbLine
 10
-1.904999999999916
 20
-30.48000000000025
 11
20.95500000000008
 21
-30.48000000000025
  0
CIRCLE
  5
172
100
AcDbEntity
  8
terminal
  6
ByLayer
 62
  256
370
   -1
100
AcDbCircle
 10
8.526512829121202e-14
 20
-33.02000000000027
 40
1
  0
CIRCLE
  5
173
100
AcDbEntity
  8
terminal
  6
ByLayer
 62
  256
370
   -1
100
AcDbCircle
 10
2.540000000000084
 20
-33.02000000000027
 40
1
  0
CIRCLE
  5
174
100
AcDbEntity
  8
terminal
  6
ByLayer
 62
  256
370
   -1
100
AcDbCircle
 10
5.080000000000084
 20
-33.02000000000027
 40
1
  0
CIRCLE
  5
175
100
AcDbEntity
  8
terminal
  6
ByLayer
 62
  256
370
   -1
100
AcDbCircle
 10
7.62000000000009
 20
-33.02000000000027
 40
1
  0
CIRCLE
  5
176
100
AcDbEntity
  8
terminal
  6
ByLayer
 62
  256
370
   -1
100
AcDbCircle
 10
10.16000000000009
 20
-33.02000000000027
 40
1
  0
CIRCLE
  5
177
100
AcDbEntity
  8
terminal
  6
ByLayer
 62
  256
370
   -1
100
AcDbCircle
 10
12.70000000000009
 20
-33.02000000000027
 40
1
  0
CIRCLE
  5
178
100
AcDbEntity
  8
terminal
  6
ByLayer
 62
  256
370
   -1
100
AcDbCircle
 10
15.24000000000009
 20
-33.02000000000027
 40
1
  0
CIRCLE
  5
179
100
AcDbEntity
  8
terminal
  6
ByLayer
 62
  256
370
   -1
100
AcDbCircle
 10
17.78000000000009
 20
-33.02000000000027
 40
1
  0
CIRCLE
  5
17A
100
AcDbEntity
  8
terminal
  6
ByLayer
 62
  256
370
   -1
100
AcDbCircle
 10
17.78000000000009
 20
-40.64000000000033
 40
1
  0
CIRCLE
  5
17B
100
AcDbEntity
  8
terminal
  6
ByLayer
 62
  256
370
   -1
100
AcDbCircle
 10
17.78000000000009
 20
-43.18000000000035
 40
1
  0
CIRCLE
  5
17C
100
AcDbEntity
  8
terminal
  6
ByLayer
 62
  256
370
   -1
100
AcDbCircle
 10
17.78000000000009
 20
-45.72000000000037
 40
1
  0
CIRCLE
  5
17D
100
AcDbEntity
  8
terminal
  6
ByLayer
 62
  256
370
   -1
100
AcDbCircle
 10
17.78000000000009
 20
-48.2600000000004
 40
1
  0
CIRCLE
  5
17E
100
AcDbEntity
  8
terminal
  6
ByLayer
 62
  256
370
   -1
100
AcDbCircle
 10
8.526512829121202e-14
 20
-40.64000000000033
 40
1
  0
CIRCLE
  5
17F
100
AcDbEntity
  8
terminal
  6
ByLayer
 62
  256
370
   -1
100
AcDbCircle
 10
8.526512829121202e-14
 20
-43.18000000000035
 40
1
  0
CIRCLE
  5
180
100
AcDbEntity
  8
terminal
  6
ByLayer
 62
  256
370
   -1
100
AcDbCircle
 10
8.526512829121202e-14
 20
-45.72000000000037
 40
1
  0
CIRCLE
  5
181
100
AcDbEntity
  8
terminal
  6
ByLayer
 62
  256
370
   -1
100
AcDbCircle
 10
8.526512829121202e-14
 20
-48.2600000000004
 40
1
  0
MTEXT
  5
182
100
AcDbEntity
  8
terminal
  6
ByLayer
 62
  256
370
   -1
100
AcDbMText
 10
8.891827867374438
 20
-34.43648950323481
 30
0
 40
1
 41
2.911111111111111
 71
    4
 72
    1
  1
DAT2\PDAT3\PCMD\PVDD\PCLK\PVSS\PDAT0\PDAT1
  7
kst32b
210
0
220
0
230
1
 50
-90
 73
    2
 44
1.54
  0
LINE
  5
183
100
AcDbEntity
  8
0_GND
  6
ByLayer
 62
  256
370
   -1
100
AcDbLine
 10
8.526512829121202e-14
 20
-25.40000000000021
 11
8.526512829121202e-14
 21
-27.94000000000023
  0
LINE
  5
184
100
AcDbEntity
  8
0_GND
  6
ByLayer
 62
  256
370
   -1
100
AcDbLine
 10
5.080000000000091
 20
-33.02000000000027
 11
5.080000000000091
 21
-30.48000000000025
  0
LINE
  5
185
100
AcDbEntity
  8
0_wire
  6
ByLayer
 62
  256
370
   -1
100
AcDbLine
 10
8.526512829121202e-14
 20
-33.02000000000027
 11
8.526512829121202e-14
 21
-30.48000000000025
  0
LINE
  5
186
100
AcDbEntity
  8
0_wire
  6
ByLayer
 62
  256
370
   -1
100
AcDbLine
 10
2.540000000000084
 20
-33.02000000000027
 11
2.540000000000084
 21
-30.48000000000025
  0
LINE
  5
187
100
AcDbEntity
  8
0_wire
  6
ByLayer
 62
  256
370
   -1
100
AcDbLine
 10
2.540000000000084
 20
-25.40000000000021
 11
2.540000000000084
 21
-27.94000000000023
  0
LINE
  5
188
100
AcDbEntity
  8
0_wire
  6
ByLayer
 62
  256
370
   -1
100
AcDbLine
 10
5.080000000000091
 20
-25.40000000000021
 11
5.080000000000091
 21
-27.94000000000023
  0
LINE
  5
189
100
AcDbEntity
  8
resister
  6
ByLayer
 62
  256
370
   -1
100
AcDbLine
 10
2.540000000000084
 20
-27.94000000000023
 11
8.526512829121202e-14
 21
-30.48000000000025
  0
LINE
  5
18A
100
AcDbEntity
  8
resister
  6
ByLayer
 62
  256
370
   -1
100
AcDbLine
 10
5.080000000000091
 20
-27.94000000000023
 11
2.540000000000084
 21
-30.48000000000025
  0
LWPOLYLINE
  5
18B
100
AcDbEntity
  8
resister
  6
ByLayer
 62
  256
370
   -1
100
AcDbPolyline
 90
    4
 70
    0
 43
0
 10
8.526512829121202e-14
 20
-27.94000000000023
 10
1.53264365537369
 20
-27.04666643835635
 10
4.071591672677343
 20
-27.56385955299228
 10
5.080000000000091
 20
-30.48000000000025
  0
LINE
  5
18C
100
AcDbEntity
  8
0_wire
  6
ByLayer
 62
  256
370
   -1
100
AcDbLine
 10
7.620000000000012
 20
-25.40000000000009
 11
7.62000000000009
 21
-33.02000000000027
  0
LINE
  5
18D
100
AcDbEntity
  8
0_wire
  6
ByLayer
 62
  256
370
   -1
100
AcDbLine
 10
10.16000000000003
 20
-25.40000000000009
 11
10.16000000000009
 21
-27.94000000000023
  0
LINE
  5
18E
100
AcDbEntity
  8
0_wire
  6
ByLayer
 62
  256
370
   -1
100
AcDbLine
 10
12.7000000000001
 20
-33.02000000000027
 11
12.7000000000001
 21
-30.48000000000025
  0
LINE
  5
18F
100
AcDbEntity
  8
0_wire
  6
ByLayer
 62
  256
370
   -1
100
AcDbLine
 10
12.7000000000001
 20
-25.40000000000021
 11
12.7000000000001
 21
-27.94000000000023
  0
LINE
  5
190
100
AcDbEntity
  8
0_wire
  6
ByLayer
 62
  256
370
   -1
100
AcDbLine
 10
15.24000000000009
 20
-33.02000000000027
 11
15.24000000000009
 21
-30.48000000000025
  0
LINE
  5
191
100
AcDbEntity
  8
0_wire
  6
ByLayer
 62
  256
370
   -1
100
AcDbLine
 10
15.24000000000007
 20
-25.40000000000009
 11
15.24000000000009
 21
-27.94000000000023
  0
LINE
  5
192
100
AcDbEntity
  8
0_wire
  6
ByLayer
 62
  256
370
   -1
100
AcDbLine
 10
17.78000000000009
 20
-33.02000000000027
 11
17.78000000000009
 21
-30.48000000000025
  0
LINE
  5
193
100
AcDbEntity
  8
5V line
  6
ByLayer
 62
  256
370
   -1
100
AcDbLine
 10
10.16000000000009
 20
-33.02000000000027
 11
10.16000000000009
 21
-30.48000000000025
  0
LINE
  5
194
100
AcDbEntity
  8
resister
  6
ByLayer
 62
  256
370
   -1
100
AcDbLine
 10
10.16000000000009
 20
-27.94000000000023
 11
12.7000000000001
 21
-30.48000000000025
  0
LINE
  5
195
100
AcDbEntity
  8
resister
  6
ByLayer
 62
  256
370
   -1
100
AcDbLine
 10
12.7000000000001
 20
-27.94000000000023
 11
15.24000000000009
 21
-30.48000000000025
  0
LINE
  5
196
100
AcDbEntity
  8
resister
  6
ByLayer
 62
  256
370
   -1
100
AcDbLine
 10
15.24000000000009
 20
-27.94000000000023
 11
17.78000000000009
 21
-30.48000000000025
  0
LWPOLYLINE
  5
197
100
AcDbEntity
  8
resister
  6
ByLayer
 62
  256
370
   -1
100
AcDbPolyline
 90
    4
 70
    0
 43
0
 10
17.78000000000009
 20
-27.94000000000023
 10
16.71931420331963
 20
-26.62350843547241
 10
11.26527772170436
 20
-27.23473666186032
 10
10.16000000000009
 20
-30.48000000000025
  0
LINE
  5
198
100
AcDbEntity
  8
5V line
  6
ByLayer
 62
  256
370
   -1
100
AcDbLine
 10
17.78000000000009
 20
-25.40000000000009
 11
17.78000000000009
 21
-27.94000000000023
  0
LINE
  5
199
100
AcDbEntity
  8
terminal
  6
ByLayer
 62
  256
370
   -1
100
AcDbLine
 10
5.079999999999913
 20
-2.540000000000049
 11
5.079999999999913
 21
-1.079999999999878
  0
LINE
  5
19A
100
AcDbEntity
  8
terminal
  6
ByLayer
 62
  256
370
   -1
100
AcDbLine
 10
2.54000000000002
 20
-2.540000000000049
 11
2.54000000000002
 21
-1.079999999999878
  0
MTEXT
  5
19B
100
AcDbEntity
  8
terminal
  6
ByLayer
 62
  256
370
   -1
100
AcDbMText
 10
3.563444907539015
 20
5.192151559060353
 30
0
 40
1
 41
1.222222222222222
 71
    4
 72
    1
  1
X1
  7
unicode
210
0
220
0
230
1
 50
0
 73
    2
 44
1.54
  0
LINE
  5
19C
100
AcDbEntity
  8
terminal
  6
ByLayer
 62
  256
370
   -1
100
AcDbLine
 10
7.619999999999905
 20
-2.540000000000049
 11
7.619999999999905
 21
-1.079999999999878
  0
LINE
  5
19D
100
AcDbEntity
  8
terminal
  6
ByLayer
 62
  256
370
   -1
100
AcDbLine
 10
10.15999999999989
 20
-2.540000000000049
 11
10.15999999999989
 21
-1.079999999999878
  0
LINE
  5
19E
100
AcDbEntity
  8
terminal
  6
ByLayer
 62
  256
370
   -1
100
AcDbLine
 10
12.58999999999779
 20
-1.079999999999878
 11
0.1100000000004044
 21
-1.079999999999878
  0
LINE
  5
19F
100
AcDbEntity
  8
terminal
  6
ByLayer
 62
  256
370
   -1
100
AcDbLine
 10
0.1100000000004044
 20
6.659999999999972
 11
12.58999999999779
 21
6.659999999999972
  0
LINE
  5
1A0
100
AcDbEntity
  8
terminal
  6
ByLayer
 62
  256
370
   -1
100
AcDbLine
 10
0.1100000000004044
 20
-4.840000000000028
 11
0.1100000000004044
 21
6.659999999999972
  0
LINE
  5
1A1
100
AcDbEntity
  8
terminal
  6
ByLayer
 62
  256
370
   -1
100
AcDbLine
 10
12.58999999999779
 20
6.659999999999972
 11
12.58999999999779
 21
-4.840000000000028
  0
LINE
  5
1A2
100
AcDbEntity
  8
0_wire
  6
ByLayer
 62
  256
370
   -1
100
AcDbLine
 10
2.539999999999999
 20
-2.540000000000028
 11
1.4210854715202e-14
 21
-2.540000000000028
  0
LINE
  5
1A3
100
AcDbEntity
  8
0_wire
  6
ByLayer
 62
  256
370
   -1
100
AcDbLine
 10
1.4210854715202e-14
 20
-2.540000000000028
 11
-4.973799150320701e-14
 21
-10.16000000000009
  0
LINE
  5
1A4
100
AcDbEntity
  8
0_wire
  6
ByLayer
 62
  256
370
   -1
100
AcDbLine
 10
5.080000000000005
 20
-2.540000000000028
 11
5.080000000000091
 21
-5.080000000000048
  0
LINE
  5
1A5
100
AcDbEntity
  8
0_wire
  6
ByLayer
 62
  256
370
   -1
100
AcDbLine
 10
5.080000000000091
 20
-5.080000000000048
 11
2.540000000000084
 21
-5.080000000000048
  0
LINE
  5
1A6
100
AcDbEntity
  8
0_wire
  6
ByLayer
 62
  256
370
   -1
100
AcDbLine
 10
2.540000000000084
 20
-5.080000000000048
 11
2.539999999999971
 21
-10.16000000000009
  0
LINE
  5
1A7
100
AcDbEntity
  8
0_GND
  6
ByLayer
 62
  256
370
   -1
100
AcDbLine
 10
5.080000000000091
 20
-7.620000000000068
 11
5.079999999999991
 21
-10.16000000000009
  0
LINE
  5
1A8
100
AcDbEntity
  8
5V line
  6
ByLayer
 62
  256
370
   -1
100
AcDbLine
 10
15.24000000000009
 20
-7.620000000000068
 11
15.24000000000009
 21
-10.16000000000009
  0
LINE
  5
1A9
100
AcDbEntity
  8
5V line
  6
ByLayer
 62
  256
370
   -1
100
AcDbLine
 10
17.78000000000009
 20
-22.86000000000019
 11
17.78000000000009
 21
-25.40000000000009
  0
LINE
  5
1AA
100
AcDbEntity
  8
0_GND
  6
ByLayer
 62
  256
370
   -1
100
AcDbLine
 10
12.70000000000009
 20
-15.24000000000013
 11
17.78000000000009
 21
-15.24000000000013
  0
LWPOLYLINE
  5
1AB
100
AcDbEntity
  8
0_GND
  6
DOTTINY
 62
  256
370
   -1
100
AcDbPolyline
 90
    7
 70
    0
 43
0
 10
7.637637917161577
 20
-1.745109094807496
 10
6.728835579634477
 20
-2.172780783055543
 10
6.782294540665482
 20
-5.326859483884871
 10
7.53071999509956
 20
-5.861449094194928
 10
8.492981293657664
 20
-5.647613250070904
 10
8.492981293657664
 20
-2.279698705117553
 10
7.637637917161577
 20
-1.745109094807496
  0
LWPOLYLINE
  5
1AC
100
AcDbEntity
  8
0_GND
  6
DOTTINY
 62
  256
370
   -1
100
AcDbPolyline
 90
    7
 70
    0
 43
0
 10
5.159343704802087
 20
-6.974388013079263
 10
4.208240991391474
 20
-7.429263223840863
 10
4.249593283278891
 20
-12.72235658543038
 10
4.993934537252414
 20
-13.34264096374165
 10
5.779628083113359
 20
-12.88776575298005
 10
5.820980375000776
 20
-7.594672391390535
 10
5.159343704802087
 20
-6.933035721191846
  0
LINE
  5
1AD
100
AcDbEntity
  8
0_GND
  6
ByLayer
 62
  256
370
   -1
100
AcDbLine
 10
7.620000000000012
 20
-2.540000000000028
 11
7.620000000000054
 21
-5.080000000000048
  0
LWPOLYLINE
  5
1AE
100
AcDbEntity
  8
resister
  6
ByLayer
 62
  256
370
   -1
100
AcDbPolyline
 90
    6
 70
    0
 43
0
 10
7.62000000000009
 20
-5.080000000000048
 10
8.219413304471026
 20
-6.147342175330902
 10
8.219413304471026
 20
-7.636024683277952
 10
7.723185801822005
 20
-8.090899894039552
 10
5.614218915563686
 20
-8.132252185926969
 10
5.08000000000008
 20
-7.620000000000068
  0
LWPOLYLINE
  5
1AF
100
AcDbEntity
  8
0_GND
  6
DOTTINY
 62
  256
370
   -1
100
AcDbPolyline
 90
    7
 70
    0
 43
0
 10
-0.03811135979536928
 20
-22.2242963162078
 10
-0.8793837634704467
 20
-22.64493251804534
 10
-0.7804105395086722
 20
-27.94000000000023
 10
-0.01336805380492478
 20
-28.50909603778043
 10
0.5557279839752738
 20
-28.26166297787599
 10
0.6299579019466037
 20
-22.76864904799756
 10
0.01137525218551616
 20
-22.2242963162078
  0
LWPOLYLINE
  5
1B0
100
AcDbEntity
  8
0_GND
  6
DOTTINY
 62
  256
370
   -1
100
AcDbPolyline
 90
    7
 70
    0
 43
0
 10
5.097637917161567
 20
-29.68510909480772
 10
4.188835579634468
 20
-30.11278078305576
 10
4.242294540665473
 20
-33.26685948388509
 10
4.99071999509955
 20
-33.80144909419515
 10
5.952981293657654
 20
-33.58761325007113
 10
5.952981293657654
 20
-30.21969870511778
 10
5.097637917161567
 20
-29.68510909480772
  0
LWPOLYLINE
  5
1B1
100
AcDbEntity
  8
5V line
  6
DOTTINY
 62
  256
370
   -1
100
AcDbPolyline
 90
    7
 70
    0
 43
0
 10
10.17763791716156
 20
-1.745109094807496
 10
9.268835579634462
 20
-2.172780783055543
 10
9.322294540665467
 20
-5.326859483884871
 10
10.07071999509954
 20
-5.861449094194928
 10
11.03298129365765
 20
-5.647613250070904
 10
11.03298129365765
 20
-2.279698705117553
 10
10.17763791716156
 20
-1.745109094807496
  0
LWPOLYLINE
  5
1B2
100
AcDbEntity
  8
5V line
  6
DOTTINY
 62
  256
370
   -1
100
AcDbPolyline
 90
    7
 70
    0
 43
0
 10
15.25763791716165
 20
-6.825109094807537
 10
14.34883557963455
 20
-7.252780783055584
 10
14.40229454066556
 20
-10.40685948388491
 10
15.15071999509964
 20
-10.94144909419497
 10
16.11298129365774
 20
-10.72761325007095
 10
16.11298129365774
 20
-7.359698705117594
 10
15.25763791716165
 20
-6.825109094807537
  0
LINE
  5
1B3
100
AcDbEntity
  8
5V line
  6
ByLayer
 62
  256
370
   -1
100
AcDbLine
 10
10.16
 20
-2.540000000000028
 11
10.16000000000005
 21
-5.080000000000048
  0
LWPOLYLINE
  5
1B4
100
AcDbEntity
  8
resister
  6
ByLayer
 62
  256
370
   -1
100
AcDbPolyline
 90
    6
 70
    0
 43
0
 10
10.16000000000009
 20
-5.080000000000048
 10
9.405754913156819
 20
-5.427186738512255
 10
9.478494212870835
 20
-7.863953278931795
 10
10.35136580943902
 20
-8.409498026786913
 10
14.53387554299495
 20
-8.336758727072898
 10
15.24000000000009
 20
-7.620000000000068
  0
LWPOLYLINE
  5
1B5
100
AcDbEntity
  8
5V line
  6
DOTTINY
 62
  256
370
   -1
100
AcDbPolyline
 90
    7
 70
    0
 43
0
 10
17.85934370480209
 20
-22.21438801307938
 10
16.90824099139148
 20
-22.66926322384098
 10
16.94959328327889
 20
-27.96235658543049
 10
17.69393453725242
 20
-28.58264096374177
 10
18.47962808311336
 20
-28.12776575298017
 10
18.52098037500078
 20
-22.83467239139065
 10
17.85934370480209
 20
-22.17303572119197
  0
LWPOLYLINE
  5
1B6
100
AcDbEntity
  8
5V line
  6
DOTTINY
 62
  256
370
   -1
100
AcDbPolyline
 90
    7
 70
    0
 43
0
 10
10.17763791716165
 20
-29.68510909480771
 10
9.268835579634555
 20
-30.11278078305576
 10
9.32229454066556
 20
-33.26685948388509
 10
10.07071999509964
 20
-33.80144909419515
 10
11.03298129365774
 20
-33.58761325007112
 10
11.03298129365774
 20
-30.21969870511777
 10
10.17763791716165
 20
-29.68510909480771
  0
LINE
  5
1B7
100
AcDbEntity
  8
condenser
  6
ByLayer
 62
  256
370
   -1
100
AcDbLine
 10
8.520000000000088
 20
-13.48999999999972
 11
6.719999999999303
 21
-13.48999999999972
  0
LINE
  5
1B8
100
AcDbEntity
  8
condenser
  6
ByLayer
 62
  256
370
   -1
100
AcDbLine
 10
6.719999999999303
 20
-13.48999999999972
 11
6.719999999999303
 21
-16.99000000000012
  0
LINE
  5
1B9
100
AcDbEntity
  8
condenser
  6
ByLayer
 62
  256
370
   -1
100
AcDbLine
 10
6.719999999999303
 20
-16.99000000000012
 11
8.520000000000088
 21
-16.99000000000012
  0
LINE
  5
1BA
100
AcDbEntity
  8
condenser
  6
ByLayer
 62
  256
370
   -1
100
AcDbLine
 10
8.520000000000088
 20
-16.99000000000012
 11
8.520000000000088
 21
-13.48999999999972
  0
LINE
  5
1BB
100
AcDbEntity
  8
condenser
  6
ByLayer
 62
  256
370
   -1
100
AcDbLine
 10
7.61999999999999
 20
-12.7000000000001
 11
7.61999999999999
 21
-13.48999999999972
  0
LINE
  5
1BC
100
AcDbEntity
  8
condenser
  6
ByLayer
 62
  256
370
   -1
100
AcDbLine
 10
7.61999999999999
 20
-17.78000000000014
 11
7.61999999999999
 21
-16.99000000000051
  0
LINE
  5
1BD
100
AcDbEntity
  8
0_GND
  6
ByLayer
 62
  256
370
   -1
100
AcDbLine
 10
7.62000000000009
 20
-17.78000000000015
 11
5.08000000000008
 21
-17.78000000000015
  0
LINE
  5
1BE
100
AcDbEntity
  8
0_GND
  6
ByLayer
 62
  256
370
   -1
100
AcDbLine
 10
5.08000000000008
 20
-17.78000000000015
 11
5.08000000000008
 21
-15.24000000000013
  0
LINE
  5
1BF
100
AcDbEntity
  8
condenser
  6
ByLayer
 62
  256
370
   -1
100
AcDbLine
 10
16.62999999999874
 20
-18.47000000000027
 11
16.62999999999874
 21
-22.17000000000005
  0
LINE
  5
1C0
100
AcDbEntity
  8
condenser
  6
ByLayer
 62
  256
370
   -1
100
AcDbLine
 10
16.62999999999874
 20
-22.17000000000005
 11
18.93000000000134
 21
-22.17000000000005
  0
LINE
  5
1C1
100
AcDbEntity
  8
condenser
  6
ByLayer
 62
  256
370
   -1
100
AcDbLine
 10
18.93000000000134
 20
-22.17000000000005
 11
18.93000000000134
 21
-18.47000000000027
  0
LINE
  5
1C2
100
AcDbEntity
  8
condenser
  6
ByLayer
 62
  256
370
   -1
100
AcDbLine
 10
18.93000000000134
 20
-18.47000000000027
 11
16.62999999999874
 21
-18.47000000000027
  0
LINE
  5
1C3
100
AcDbEntity
  8
0_GND
  6
ByLayer
 62
  256
370
   -1
100
AcDbLine
 10
17.78000000000009
 20
-15.24000000000013
 11
17.78000000000009
 21
-17.78000000000015
  0
LINE
  5
1C4
100
AcDbEntity
  8
condenser
  6
ByLayer
 62
  256
370
   -1
100
AcDbLine
 10
17.78000000000004
 20
-18.47000000000027
 11
17.78000000000004
 21
-17.78000000000015
  0
LINE
  5
1C5
100
AcDbEntity
  8
condenser
  6
ByLayer
 62
  256
370
   -1
100
AcDbLine
 10
17.78000000000004
 20
-22.17000000000005
 11
17.78000000000004
 21
-22.86000000000019
  0
MTEXT
  5
1C6
100
AcDbEntity
  8
terminal
  6
ByLayer
 62
  256
370
   -1
100
AcDbMText
 10
6.350704325168298
 20
-0.6263929573870612
 30
0
 40
1
 41
2.021111111111111
 71
    4
 72
    1
  1
DM\PDP\PGND\P5V
  7
kst32b
210
0
220
0
230
1
 50
90
 73
    2
 44
1.54
  0
LINE
  5
1C7
100
AcDbEntity
  8
socket_header
  6
ByLayer
 62
  256
370
   -1
100
AcDbLine
 10
-1.269999999999893
 20
-11.4300000000002
 11
-1.269999999999893
 21
-8.889999999999702
  0
LINE
  5
1C8
100
AcDbEntity
  8
socket_header
  6
ByLayer
 62
  256
370
   -1
100
AcDbLine
 10
1.270000000000184
 20
-8.889999999999702
 11
-1.270000000000405
 21
-8.889999999999702
  0
LINE
  5
1C9
100
AcDbEntity
  8
socket_header
  6
ByLayer
 62
  256
370
   -1
100
AcDbLine
 10
1.270000000000184
 20
-11.42999999999971
 11
-1.270000000000319
 21
-11.42999999999971
  0
LINE
  5
1CA
100
AcDbEntity
  8
socket_header
  6
ByLayer
 62
  256
370
   -1
100
AcDbLine
 10
1.270000000000099
 20
-11.4300000000002
 11
1.270000000000099
 21
-8.889999999999702
  0
LINE
  5
1CB
100
AcDbEntity
  8
socket_header
  6
ByLayer
 62
  256
370
   -1
100
AcDbLine
 10
1.269999999999989
 20
-11.4300000000002
 11
1.269999999999989
 21
-8.889999999999702
  0
LINE
  5
1CC
100
AcDbEntity
  8
socket_header
  6
ByLayer
 62
  256
370
   -1
100
AcDbLine
 10
3.810000000000066
 20
-8.889999999999702
 11
1.269999999999477
 21
-8.889999999999702
  0
LINE
  5
1CD
100
AcDbEntity
  8
socket_header
  6
ByLayer
 62
  256
370
   -1
100
AcDbLine
 10
3.810000000000066
 20
-11.42999999999971
 11
1.269999999999563
 21
-11.42999999999971
  0
LINE
  5
1CE
100
AcDbEntity
  8
socket_header
  6
ByLayer
 62
  256
370
   -1
100
AcDbLine
 10
3.809999999999981
 20
-11.4300000000002
 11
3.809999999999981
 21
-8.889999999999702
  0
LINE
  5
1CF
100
AcDbEntity
  8
socket_header
  6
ByLayer
 62
  256
370
   -1
100
AcDbLine
 10
3.809999999999871
 20
-11.4300000000002
 11
3.809999999999871
 21
-8.889999999999702
  0
LINE
  5
1D0
100
AcDbEntity
  8
socket_header
  6
ByLayer
 62
  256
370
   -1
100
AcDbLine
 10
6.349999999999948
 20
-8.889999999999702
 11
3.809999999999359
 21
-8.889999999999702
  0
LINE
  5
1D1
100
AcDbEntity
  8
socket_header
  6
ByLayer
 62
  256
370
   -1
100
AcDbLine
 10
6.349999999999948
 20
-11.42999999999971
 11
3.809999999999444
 21
-11.42999999999971
  0
LINE
  5
1D2
100
AcDbEntity
  8
socket_header
  6
ByLayer
 62
  256
370
   -1
100
AcDbLine
 10
6.349999999999863
 20
-11.4300000000002
 11
6.349999999999863
 21
-8.889999999999702
  0
LINE
  5
1D3
100
AcDbEntity
  8
socket_header
  6
ByLayer
 62
  256
370
   -1
100
AcDbLine
 10
6.349999999999753
 20
-11.4300000000002
 11
6.349999999999753
 21
-8.889999999999702
  0
LINE
  5
1D4
100
AcDbEntity
  8
socket_header
  6
ByLayer
 62
  256
370
   -1
100
AcDbLine
 10
8.88999999999983
 20
-8.889999999999702
 11
6.349999999999241
 21
-8.889999999999702
  0
LINE
  5
1D5
100
AcDbEntity
  8
socket_header
  6
ByLayer
 62
  256
370
   -1
100
AcDbLine
 10
8.88999999999983
 20
-11.42999999999971
 11
6.349999999999326
 21
-11.42999999999971
  0
LINE
  5
1D6
100
AcDbEntity
  8
socket_header
  6
ByLayer
 62
  256
370
   -1
100
AcDbLine
 10
8.889999999999745
 20
-11.4300000000002
 11
8.889999999999745
 21
-8.889999999999702
  0
LINE
  5
1D7
100
AcDbEntity
  8
socket_header
  6
ByLayer
 62
  256
370
   -1
100
AcDbLine
 10
8.889999999999638
 20
-11.4300000000002
 11
8.889999999999638
 21
-8.889999999999702
  0
LINE
  5
1D8
100
AcDbEntity
  8
socket_header
  6
ByLayer
 62
  256
370
   -1
100
AcDbLine
 10
11.42999999999972
 20
-8.889999999999702
 11
8.889999999999127
 21
-8.889999999999702
  0
LINE
  5
1D9
100
AcDbEntity
  8
socket_header
  6
ByLayer
 62
  256
370
   -1
100
AcDbLine
 10
11.42999999999972
 20
-11.42999999999971
 11
8.889999999999212
 21
-11.42999999999971
  0
LINE
  5
1DA
100
AcDbEntity
  8
socket_header
  6
ByLayer
 62
  256
370
   -1
100
AcDbLine
 10
11.42999999999963
 20
-11.4300000000002
 11
11.42999999999963
 21
-8.889999999999702
  0
LINE
  5
1DB
100
AcDbEntity
  8
socket_header
  6
ByLayer
 62
  256
370
   -1
100
AcDbLine
 10
11.42999999999952
 20
-11.4300000000002
 11
11.42999999999952
 21
-8.889999999999702
  0
LINE
  5
1DC
100
AcDbEntity
  8
socket_header
  6
ByLayer
 62
  256
370
   -1
100
AcDbLine
 10
13.96999999999959
 20
-8.889999999999702
 11
11.429999999999
 21
-8.889999999999702
  0
LINE
  5
1DD
100
AcDbEntity
  8
socket_header
  6
ByLayer
 62
  256
370
   -1
100
AcDbLine
 10
13.96999999999959
 20
-11.42999999999971
 11
11.42999999999909
 21
-11.42999999999971
  0
LINE
  5
1DE
100
AcDbEntity
  8
socket_header
  6
ByLayer
 62
  256
370
   -1
100
AcDbLine
 10
13.96999999999951
 20
-11.4300000000002
 11
13.96999999999951
 21
-8.889999999999702
  0
LINE
  5
1DF
100
AcDbEntity
  8
socket_header
  6
ByLayer
 62
  256
370
   -1
100
AcDbLine
 10
13.96999999999939
 20
-11.4300000000002
 11
13.96999999999939
 21
-8.889999999999702
  0
LINE
  5
1E0
100
AcDbEntity
  8
socket_header
  6
ByLayer
 62
  256
370
   -1
100
AcDbLine
 10
16.50999999999947
 20
-8.889999999999702
 11
13.96999999999888
 21
-8.889999999999702
  0
LINE
  5
1E1
100
AcDbEntity
  8
socket_header
  6
ByLayer
 62
  256
370
   -1
100
AcDbLine
 10
16.50999999999947
 20
-11.42999999999971
 11
13.96999999999897
 21
-11.42999999999971
  0
LINE
  5
1E2
100
AcDbEntity
  8
socket_header
  6
ByLayer
 62
  256
370
   -1
100
AcDbLine
 10
16.50999999999939
 20
-11.4300000000002
 11
16.50999999999939
 21
-8.889999999999702
  0
LINE
  5
1E3
100
AcDbEntity
  8
socket_header
  6
ByLayer
 62
  256
370
   -1
100
AcDbLine
 10
16.50999999999928
 20
-11.4300000000002
 11
16.50999999999928
 21
-8.889999999999702
  0
LINE
  5
1E4
100
AcDbEntity
  8
socket_header
  6
ByLayer
 62
  256
370
   -1
100
AcDbLine
 10
19.04999999999936
 20
-8.889999999999702
 11
16.50999999999877
 21
-8.889999999999702
  0
LINE
  5
1E5
100
AcDbEntity
  8
socket_header
  6
ByLayer
 62
  256
370
   -1
100
AcDbLine
 10
19.04999999999936
 20
-11.42999999999971
 11
16.50999999999885
 21
-11.42999999999971
  0
LINE
  5
1E6
100
AcDbEntity
  8
socket_header
  6
ByLayer
 62
  256
370
   -1
100
AcDbLine
 10
19.04999999999927
 20
-11.4300000000002
 11
19.04999999999927
 21
-8.889999999999702
  0
LINE
  5
1E7
100
AcDbEntity
  8
socket_header
  6
ByLayer
 62
  256
370
   -1
100
AcDbLine
 10
-1.269999999999754
 20
-26.67000000000032
 11
-1.269999999999754
 21
-24.12999999999982
  0
LINE
  5
1E8
100
AcDbEntity
  8
socket_header
  6
ByLayer
 62
  256
370
   -1
100
AcDbLine
 10
1.270000000000323
 20
-24.12999999999982
 11
-1.270000000000266
 21
-24.12999999999982
  0
LINE
  5
1E9
100
AcDbEntity
  8
socket_header
  6
ByLayer
 62
  256
370
   -1
100
AcDbLine
 10
1.270000000000323
 20
-26.66999999999983
 11
-1.270000000000181
 21
-26.66999999999983
  0
LINE
  5
1EA
100
AcDbEntity
  8
socket_header
  6
ByLayer
 62
  256
370
   -1
100
AcDbLine
 10
1.270000000000238
 20
-26.67000000000032
 11
1.270000000000238
 21
-24.12999999999982
  0
LINE
  5
1EB
100
AcDbEntity
  8
socket_header
  6
ByLayer
 62
  256
370
   -1
100
AcDbLine
 10
1.270000000000127
 20
-26.67000000000032
 11
1.270000000000127
 21
-24.12999999999982
  0
LINE
  5
1EC
100
AcDbEntity
  8
socket_header
  6
ByLayer
 62
  256
370
   -1
100
AcDbLine
 10
3.810000000000205
 20
-24.12999999999982
 11
1.269999999999616
 21
-24.12999999999982
  0
LINE
  5
1ED
100
AcDbEntity
  8
socket_header
  6
ByLayer
 62
  256
370
   -1
100
AcDbLine
 10
3.810000000000205
 20
-26.66999999999983
 11
1.269999999999701
 21
-26.66999999999983
  0
LINE
  5
1EE
100
AcDbEntity
  8
socket_header
  6
ByLayer
 62
  256
370
   -1
100
AcDbLine
 10
3.81000000000012
 20
-26.67000000000032
 11
3.81000000000012
 21
-24.12999999999982
  0
LINE
  5
1EF
100
AcDbEntity
  8
socket_header
  6
ByLayer
 62
  256
370
   -1
100
AcDbLine
 10
3.810000000000009
 20
-26.67000000000032
 11
3.810000000000009
 21
-24.12999999999982
  0
LINE
  5
1F0
100
AcDbEntity
  8
socket_header
  6
ByLayer
 62
  256
370
   -1
100
AcDbLine
 10
6.350000000000087
 20
-24.12999999999982
 11
3.809999999999498
 21
-24.12999999999982
  0
LINE
  5
1F1
100
AcDbEntity
  8
socket_header
  6
ByLayer
 62
  256
370
   -1
100
AcDbLine
 10
6.350000000000087
 20
-26.66999999999983
 11
3.809999999999583
 21
-26.66999999999983
  0
LINE
  5
1F2
100
AcDbEntity
  8
socket_header
  6
ByLayer
 62
  256
370
   -1
100
AcDbLine
 10
6.350000000000001
 20
-26.67000000000032
 11
6.350000000000001
 21
-24.12999999999982
  0
LINE
  5
1F3
100
AcDbEntity
  8
socket_header
  6
ByLayer
 62
  256
370
   -1
100
AcDbLine
 10
6.349999999999891
 20
-26.67000000000032
 11
6.349999999999891
 21
-24.12999999999982
  0
LINE
  5
1F4
100
AcDbEntity
  8
socket_header
  6
ByLayer
 62
  256
370
   -1
100
AcDbLine
 10
8.889999999999965
 20
-24.12999999999982
 11
6.34999999999938
 21
-24.12999999999982
  0
LINE
  5
1F5
100
AcDbEntity
  8
socket_header
  6
ByLayer
 62
  256
370
   -1
100
AcDbLine
 10
8.889999999999965
 20
-26.66999999999983
 11
6.349999999999465
 21
-26.66999999999983
  0
LINE
  5
1F6
100
AcDbEntity
  8
socket_header
  6
ByLayer
 62
  256
370
   -1
100
AcDbLine
 10
8.88999999999988
 20
-26.67000000000032
 11
8.88999999999988
 21
-24.12999999999982
  0
LINE
  5
1F7
100
AcDbEntity
  8
socket_header
  6
ByLayer
 62
  256
370
   -1
100
AcDbLine
 10
8.88999999999978
 20
-26.67000000000032
 11
8.88999999999978
 21
-24.12999999999982
  0
LINE
  5
1F8
100
AcDbEntity
  8
socket_header
  6
ByLayer
 62
  256
370
   -1
100
AcDbLine
 10
11.42999999999986
 20
-24.12999999999982
 11
8.889999999999269
 21
-24.12999999999982
  0
LINE
  5
1F9
100
AcDbEntity
  8
socket_header
  6
ByLayer
 62
  256
370
   -1
100
AcDbLine
 10
11.42999999999986
 20
-26.66999999999983
 11
8.889999999999354
 21
-26.66999999999983
  0
LINE
  5
1FA
100
AcDbEntity
  8
socket_header
  6
ByLayer
 62
  256
370
   -1
100
AcDbLine
 10
11.42999999999977
 20
-26.67000000000032
 11
11.42999999999977
 21
-24.12999999999982
  0
LINE
  5
1FB
100
AcDbEntity
  8
socket_header
  6
ByLayer
 62
  256
370
   -1
100
AcDbLine
 10
11.42999999999966
 20
-26.67000000000032
 11
11.42999999999966
 21
-24.12999999999982
  0
LINE
  5
1FC
100
AcDbEntity
  8
socket_header
  6
ByLayer
 62
  256
370
   -1
100
AcDbLine
 10
13.96999999999974
 20
-24.12999999999982
 11
11.42999999999915
 21
-24.12999999999982
  0
LINE
  5
1FD
100
AcDbEntity
  8
socket_header
  6
ByLayer
 62
  256
370
   -1
100
AcDbLine
 10
13.96999999999974
 20
-26.66999999999983
 11
11.42999999999923
 21
-26.66999999999983
  0
LINE
  5
1FE
100
AcDbEntity
  8
socket_header
  6
ByLayer
 62
  256
370
   -1
100
AcDbLine
 10
13.96999999999965
 20
-26.67000000000032
 11
13.96999999999965
 21
-24.12999999999982
  0
LINE
  5
1FF
100
AcDbEntity
  8
socket_header
  6
ByLayer
 62
  256
370
   -1
100
AcDbLine
 10
13.96999999999954
 20
-26.67000000000032
 11
13.96999999999954
 21
-24.12999999999982
  0
LINE
  5
200
100
AcDbEntity
  8
socket_header
  6
ByLayer
 62
  256
370
   -1
100
AcDbLine
 10
16.50999999999961
 20
-24.12999999999982
 11
13.96999999999903
 21
-24.12999999999982
  0
LINE
  5
201
100
AcDbEntity
  8
socket_header
  6
ByLayer
 62
  256
370
   -1
100
AcDbLine
 10
16.50999999999961
 20
-26.66999999999983
 11
13.96999999999911
 21
-26.66999999999983
  0
LINE
  5
202
100
AcDbEntity
  8
socket_header
  6
ByLayer
 62
  256
370
   -1
100
AcDbLine
 10
16.50999999999953
 20
-26.67000000000032
 11
16.50999999999953
 21
-24.12999999999982
  0
LINE
  5
203
100
AcDbEntity
  8
socket_header
  6
ByLayer
 62
  256
370
   -1
100
AcDbLine
 10
16.50999999999942
 20
-26.67000000000032
 11
16.50999999999942
 21
-24.12999999999982
  0
LINE
  5
204
100
AcDbEntity
  8
socket_header
  6
ByLayer
 62
  256
370
   -1
100
AcDbLine
 10
19.04999999999949
 20
-24.12999999999982
 11
16.5099999999989
 21
-24.12999999999982
  0
LINE
  5
205
100
AcDbEntity
  8
socket_header
  6
ByLayer
 62
  256
370
   -1
100
AcDbLine
 10
19.04999999999949
 20
-26.66999999999983
 11
16.50999999999899
 21
-26.66999999999983
  0
LINE
  5
206
100
AcDbEntity
  8
socket_header
  6
ByLayer
 62
  256
370
   -1
100
AcDbLine
 10
19.04999999999941
 20
-26.67000000000032
 11
19.04999999999941
 21
-24.12999999999982
  0
LINE
  5
207
100
AcDbEntity
  8
socket_header
  6
ByLayer
 62
  256
370
   -1
100
AcDbLine
 10
-1.269999999999754
 20
-34.29000000000038
 11
-1.269999999999754
 21
-31.74999999999988
  0
LINE
  5
208
100
AcDbEntity
  8
socket_header
  6
ByLayer
 62
  256
370
   -1
100
AcDbLine
 10
1.270000000000323
 20
-31.74999999999988
 11
-1.270000000000266
 21
-31.74999999999988
  0
LINE
  5
209
100
AcDbEntity
  8
socket_header
  6
ByLayer
 62
  256
370
   -1
100
AcDbLine
 10
1.270000000000323
 20
-34.28999999999989
 11
-1.270000000000181
 21
-34.28999999999989
  0
LINE
  5
20A
100
AcDbEntity
  8
socket_header
  6
ByLayer
 62
  256
370
   -1
100
AcDbLine
 10
1.270000000000238
 20
-34.29000000000038
 11
1.270000000000238
 21
-31.74999999999988
  0
LINE
  5
20B
100
AcDbEntity
  8
socket_header
  6
ByLayer
 62
  256
370
   -1
100
AcDbLine
 10
1.270000000000127
 20
-34.29000000000038
 11
1.270000000000127
 21
-31.74999999999988
  0
LINE
  5
20C
100
AcDbEntity
  8
socket_header
  6
ByLayer
 62
  256
370
   -1
100
AcDbLine
 10
3.810000000000205
 20
-31.74999999999988
 11
1.269999999999616
 21
-31.74999999999988
  0
LINE
  5
20D
100
AcDbEntity
  8
socket_header
  6
ByLayer
 62
  256
370
   -1
100
AcDbLine
 10
3.810000000000205
 20
-34.28999999999989
 11
1.269999999999701
 21
-34.28999999999989
  0
LINE
  5
20E
100
AcDbEntity
  8
socket_header
  6
ByLayer
 62
  256
370
   -1
100
AcDbLine
 10
3.81000000000012
 20
-34.29000000000038
 11
3.81000000000012
 21
-31.74999999999988
  0
LINE
  5
20F
100
AcDbEntity
  8
socket_header
  6
ByLayer
 62
  256
370
   -1
100
AcDbLine
 10
3.810000000000009
 20
-34.29000000000038
 11
3.810000000000009
 21
-31.74999999999988
  0
LINE
  5
210
100
AcDbEntity
  8
socket_header
  6
ByLayer
 62
  256
370
   -1
100
AcDbLine
 10
6.350000000000087
 20
-31.74999999999988
 11
3.809999999999498
 21
-31.74999999999988
  0
LINE
  5
211
100
AcDbEntity
  8
socket_header
  6
ByLayer
 62
  256
370
   -1
100
AcDbLine
 10
6.350000000000087
 20
-34.28999999999989
 11
3.809999999999583
 21
-34.28999999999989
  0
LINE
  5
212
100
AcDbEntity
  8
socket_header
  6
ByLayer
 62
  256
370
   -1
100
AcDbLine
 10
6.350000000000001
 20
-34.29000000000038
 11
6.350000000000001
 21
-31.74999999999988
  0
LINE
  5
213
100
AcDbEntity
  8
socket_header
  6
ByLayer
 62
  256
370
   -1
100
AcDbLine
 10
6.349999999999891
 20
-34.29000000000038
 11
6.349999999999891
 21
-31.74999999999988
  0
LINE
  5
214
100
AcDbEntity
  8
socket_header
  6
ByLayer
 62
  256
370
   -1
100
AcDbLine
 10
8.889999999999965
 20
-31.74999999999988
 11
6.34999999999938
 21
-31.74999999999988
  0
LINE
  5
215
100
AcDbEntity
  8
socket_header
  6
ByLayer
 62
  256
370
   -1
100
AcDbLine
 10
8.889999999999965
 20
-34.28999999999989
 11
6.349999999999465
 21
-34.28999999999989
  0
LINE
  5
216
100
AcDbEntity
  8
socket_header
  6
ByLayer
 62
  256
370
   -1
100
AcDbLine
 10
8.88999999999988
 20
-34.29000000000038
 11
8.88999999999988
 21
-31.74999999999988
  0
LINE
  5
217
100
AcDbEntity
  8
socket_header
  6
ByLayer
 62
  256
370
   -1
100
AcDbLine
 10
8.88999999999978
 20
-34.29000000000038
 11
8.88999999999978
 21
-31.74999999999988
  0
LINE
  5
218
100
AcDbEntity
  8
socket_header
  6
ByLayer
 62
  256
370
   -1
100
AcDbLine
 10
11.42999999999986
 20
-31.74999999999988
 11
8.889999999999269
 21
-31.74999999999988
  0
LINE
  5
219
100
AcDbEntity
  8
socket_header
  6
ByLayer
 62
  256
370
   -1
100
AcDbLine
 10
11.42999999999986
 20
-34.28999999999989
 11
8.889999999999354
 21
-34.28999999999989
  0
LINE
  5
21A
100
AcDbEntity
  8
socket_header
  6
ByLayer
 62
  256
370
   -1
100
AcDbLine
 10
11.42999999999977
 20
-34.29000000000038
 11
11.42999999999977
 21
-31.74999999999988
  0
LINE
  5
21B
100
AcDbEntity
  8
socket_header
  6
ByLayer
 62
  256
370
   -1
100
AcDbLine
 10
11.42999999999966
 20
-34.29000000000038
 11
11.42999999999966
 21
-31.74999999999988
  0
LINE
  5
21C
100
AcDbEntity
  8
socket_header
  6
ByLayer
 62
  256
370
   -1
100
AcDbLine
 10
13.96999999999974
 20
-31.74999999999988
 11
11.42999999999915
 21
-31.74999999999988
  0
LINE
  5
21D
100
AcDbEntity
  8
socket_header
  6
ByLayer
 62
  256
370
   -1
100
AcDbLine
 10
13.96999999999974
 20
-34.28999999999989
 11
11.42999999999923
 21
-34.28999999999989
  0
LINE
  5
21E
100
AcDbEntity
  8
socket_header
  6
ByLayer
 62
  256
370
   -1
100
AcDbLine
 10
13.96999999999965
 20
-34.29000000000038
 11
13.96999999999965
 21
-31.74999999999988
  0
LINE
  5
21F
100
AcDbEntity
  8
socket_header
  6
ByLayer
 62
  256
370
   -1
100
AcDbLine
 10
13.96999999999954
 20
-34.29000000000038
 11
13.96999999999954
 21
-31.74999999999988
  0
LINE
  5
220
100
AcDbEntity
  8
socket_header
  6
ByLayer
 62
  256
370
   -1
100
AcDbLine
 10
16.50999999999961
 20
-31.74999999999988
 11
13.96999999999903
 21
-31.74999999999988
  0
LINE
  5
221
100
AcDbEntity
  8
socket_header
  6
ByLayer
 62
  256
370
   -1
100
AcDbLine
 10
16.50999999999961
 20
-34.28999999999989
 11
13.96999999999911
 21
-34.28999999999989
  0
LINE
  5
222
100
AcDbEntity
  8
socket_header
  6
ByLayer
 62
  256
370
   -1
100
AcDbLine
 10
16.50999999999953
 20
-34.29000000000038
 11
16.50999999999953
 21
-31.74999999999988
  0
LINE
  5
223
100
AcDbEntity
  8
socket_header
  6
ByLayer
 62
  256
370
   -1
100
AcDbLine
 10
16.50999999999942
 20
-34.29000000000038
 11
16.50999999999942
 21
-31.74999999999988
  0
LINE
  5
224
100
AcDbEntity
  8
socket_header
  6
ByLayer
 62
  256
370
   -1
100
AcDbLine
 10
19.04999999999949
 20
-31.74999999999988
 11
16.5099999999989
 21
-31.74999999999988
  0
LINE
  5
225
100
AcDbEntity
  8
socket_header
  6
ByLayer
 62
  256
370
   -1
100
AcDbLine
 10
19.04999999999949
 20
-34.28999999999989
 11
16.50999999999899
 21
-34.28999999999989
  0
LINE
  5
226
100
AcDbEntity
  8
socket_header
  6
ByLayer
 62
  256
370
   -1
100
AcDbLine
 10
19.04999999999941
 20
-34.29000000000038
 11
19.04999999999941
 21
-31.74999999999988
  0
LINE
  5
227
100
AcDbEntity
  8
socket_header
  6
ByLayer
 62
  256
370
   -1
100
AcDbLine
 10
-1.269999999999754
 20
-41.91000000000044
 11
-1.269999999999754
 21
-39.36999999999994
  0
LINE
  5
228
100
AcDbEntity
  8
socket_header
  6
ByLayer
 62
  256
370
   -1
100
AcDbLine
 10
1.270000000000323
 20
-39.36999999999994
 11
-1.270000000000266
 21
-39.36999999999994
  0
LINE
  5
229
100
AcDbEntity
  8
socket_header
  6
ByLayer
 62
  256
370
   -1
100
AcDbLine
 10
1.270000000000323
 20
-41.90999999999995
 11
-1.270000000000181
 21
-41.90999999999995
  0
LINE
  5
22A
100
AcDbEntity
  8
socket_header
  6
ByLayer
 62
  256
370
   -1
100
AcDbLine
 10
1.270000000000127
 20
-41.91000000000044
 11
1.270000000000127
 21
-39.36999999999994
  0
LINE
  5
22B
100
AcDbEntity
  8
socket_header
  6
ByLayer
 62
  256
370
   -1
100
AcDbLine
 10
-1.269999999999754
 20
-44.45000000000046
 11
-1.269999999999754
 21
-41.90999999999996
  0
LINE
  5
22C
100
AcDbEntity
  8
socket_header
  6
ByLayer
 62
  256
370
   -1
100
AcDbLine
 10
1.270000000000323
 20
-41.90999999999996
 11
-1.270000000000266
 21
-41.90999999999996
  0
LINE
  5
22D
100
AcDbEntity
  8
socket_header
  6
ByLayer
 62
  256
370
   -1
100
AcDbLine
 10
1.270000000000323
 20
-44.44999999999997
 11
-1.270000000000181
 21
-44.44999999999997
  0
LINE
  5
22E
100
AcDbEntity
  8
socket_header
  6
ByLayer
 62
  256
370
   -1
100
AcDbLine
 10
1.270000000000127
 20
-44.45000000000046
 11
1.270000000000127
 21
-41.90999999999996
  0
LINE
  5
22F
100
AcDbEntity
  8
socket_header
  6
ByLayer
 62
  256
370
   -1
100
AcDbLine
 10
-1.269999999999754
 20
-46.99000000000048
 11
-1.269999999999754
 21
-44.44999999999997
  0
LINE
  5
230
100
AcDbEntity
  8
socket_header
  6
ByLayer
 62
  256
370
   -1
100
AcDbLine
 10
1.270000000000323
 20
-44.44999999999997
 11
-1.270000000000266
 21
-44.44999999999997
  0
LINE
  5
231
100
AcDbEntity
  8
socket_header
  6
ByLayer
 62
  256
370
   -1
100
AcDbLine
 10
1.270000000000323
 20
-46.98999999999999
 11
-1.270000000000181
 21
-46.98999999999999
  0
LINE
  5
232
100
AcDbEntity
  8
socket_header
  6
ByLayer
 62
  256
370
   -1
100
AcDbLine
 10
1.270000000000127
 20
-46.99000000000048
 11
1.270000000000127
 21
-44.44999999999997
  0
LINE
  5
233
100
AcDbEntity
  8
socket_header
  6
ByLayer
 62
  256
370
   -1
100
AcDbLine
 10
-1.269999999999754
 20
-49.5300000000005
 11
-1.269999999999754
 21
-46.98999999999999
  0
LINE
  5
234
100
AcDbEntity
  8
socket_header
  6
ByLayer
 62
  256
370
   -1
100
AcDbLine
 10
1.270000000000323
 20
-46.98999999999999
 11
-1.270000000000266
 21
-46.98999999999999
  0
LINE
  5
235
100
AcDbEntity
  8
socket_header
  6
ByLayer
 62
  256
370
   -1
100
AcDbLine
 10
1.270000000000323
 20
-49.53
 11
-1.270000000000181
 21
-49.53
  0
LINE
  5
236
100
AcDbEntity
  8
socket_header
  6
ByLayer
 62
  256
370
   -1
100
AcDbLine
 10
1.270000000000127
 20
-49.5300000000005
 11
1.270000000000127
 21
-46.98999999999999
  0
CIRCLE
  5
237
100
AcDbEntity
  8
terminal
  6
ByLayer
 62
  256
370
   -1
100
AcDbCircle
 10
17.78000000000008
 20
-40.64000000000033
 40
1
  0
CIRCLE
  5
238
100
AcDbEntity
  8
terminal
  6
ByLayer
 62
  256
370
   -1
100
AcDbCircle
 10
17.78000000000008
 20
-43.18000000000035
 40
1
  0
CIRCLE
  5
239
100
AcDbEntity
  8
terminal
  6
ByLayer
 62
  256
370
   -1
100
AcDbCircle
 10
17.78000000000008
 20
-45.72000000000037
 40
1
  0
LINE
  5
23A
100
AcDbEntity
  8
socket_header
  6
ByLayer
 62
  256
370
   -1
100
AcDbLine
 10
16.51000000000024
 20
-41.91000000000044
 11
16.51000000000024
 21
-39.36999999999994
  0
LINE
  5
23B
100
AcDbEntity
  8
socket_header
  6
ByLayer
 62
  256
370
   -1
100
AcDbLine
 10
19.05000000000032
 20
-39.36999999999994
 11
16.50999999999973
 21
-39.36999999999994
  0
LINE
  5
23C
100
AcDbEntity
  8
socket_header
  6
ByLayer
 62
  256
370
   -1
100
AcDbLine
 10
19.05000000000032
 20
-41.90999999999995
 11
16.50999999999981
 21
-41.90999999999995
  0
LINE
  5
23D
100
AcDbEntity
  8
socket_header
  6
ByLayer
 62
  256
370
   -1
100
AcDbLine
 10
19.05000000000013
 20
-41.91000000000044
 11
19.05000000000013
 21
-39.36999999999994
  0
LINE
  5
23E
100
AcDbEntity
  8
socket_header
  6
ByLayer
 62
  256
370
   -1
100
AcDbLine
 10
16.51000000000024
 20
-44.45000000000046
 11
16.51000000000024
 21
-41.90999999999996
  0
LINE
  5
23F
100
AcDbEntity
  8
socket_header
  6
ByLayer
 62
  256
370
   -1
100
AcDbLine
 10
19.05000000000032
 20
-41.90999999999996
 11
16.50999999999973
 21
-41.90999999999996
  0
LINE
  5
240
100
AcDbEntity
  8
socket_header
  6
ByLayer
 62
  256
370
   -1
100
AcDbLine
 10
19.05000000000032
 20
-44.44999999999997
 11
16.50999999999981
 21
-44.44999999999997
  0
LINE
  5
241
100
AcDbEntity
  8
socket_header
  6
ByLayer
 62
  256
370
   -1
100
AcDbLine
 10
19.05000000000013
 20
-44.45000000000046
 11
19.05000000000013
 21
-41.90999999999996
  0
LINE
  5
242
100
AcDbEntity
  8
socket_header
  6
ByLayer
 62
  256
370
   -1
100
AcDbLine
 10
16.51000000000024
 20
-46.99000000000048
 11
16.51000000000024
 21
-44.44999999999997
  0
LINE
  5
243
100
AcDbEntity
  8
socket_header
  6
ByLayer
 62
  256
370
   -1
100
AcDbLine
 10
19.05000000000032
 20
-44.44999999999997
 11
16.50999999999973
 21
-44.44999999999997
  0
LINE
  5
244
100
AcDbEntity
  8
socket_header
  6
ByLayer
 62
  256
370
   -1
100
AcDbLine
 10
19.05000000000032
 20
-46.98999999999999
 11
16.50999999999981
 21
-46.98999999999999
  0
LINE
  5
245
100
AcDbEntity
  8
socket_header
  6
ByLayer
 62
  256
370
   -1
100
AcDbLine
 10
19.05000000000013
 20
-46.99000000000048
 11
19.05000000000013
 21
-44.44999999999997
  0
LINE
  5
246
100
AcDbEntity
  8
socket_header
  6
ByLayer
 62
  256
370
   -1
100
AcDbLine
 10
16.51000000000024
 20
-49.5300000000005
 11
16.51000000000024
 21
-46.98999999999999
  0
LINE
  5
247
100
AcDbEntity
  8
socket_header
  6
ByLayer
 62
  256
370
   -1
100
AcDbLine
 10
19.05000000000032
 20
-46.98999999999999
 11
16.50999999999973
 21
-46.98999999999999
  0
LINE
  5
248
100
AcDbEntity
  8
socket_header
  6
ByLayer
 62
  256
370
   -1
100
AcDbLine
 10
19.05000000000032
 20
-49.53
 11
16.50999999999981
 21
-49.53
  0
LINE
  5
249
100
AcDbEntity
  8
socket_header
  6
ByLayer
 62
  256
370
   -1
100
AcDbLine
 10
19.05000000000013
 20
-49.5300000000005
 11
19.05000000000013
 21
-46.98999999999999
  0
LINE
  5
24A
100
AcDbEntity
  8
universal_board
  6
ByLayer
 62
  256
370
   -1
100
AcDbLine
 10
-1.270000000000095
 20
1.269999999999804
 11
-1.270000000000095
 21
-49.53000000000061
  0
LINE
  5
24B
100
AcDbEntity
  8
universal_board
  6
ByLayer
 62
  256
370
   -1
100
AcDbLine
 10
19.04999999999991
 20
1.269999999999804
 11
19.04999999999991
 21
-49.5300000000006
  0
LINE
  5
24C
100
AcDbEntity
  8
universal_board
  6
ByLayer
 62
  256
370
   -1
100
AcDbLine
 10
-1.270000000000184
 20
1.269999999999804
 11
19.04999999999991
 21
1.269999999999804
  0
LINE
  5
24D
100
AcDbEntity
  8
universal_board
  6
ByLayer
 62
  256
370
   -1
100
AcDbLine
 10
-1.270000000000095
 20
-49.53000000000061
 11
19.04999999999991
 21
-49.53000000000061
  0
MTEXT
  5
24E
100
AcDbEntity
  8
universal_board
  6
ByLayer
 62
  256
370
   -1
100
AcDbMText
 10
17.48482183726478
 20
1.900688528429757
 30
0
 40
1
 41
1.202222222222222
 71
    4
 72
    1
  1
B1
  7
kst32b
210
0
220
0
230
1
 50
0
 73
    2
 44
1.54
  0
MTEXT
  5
24F
100
AcDbEntity
  8
socket_header
  6
ByLayer
 62
  256
370
   -1
100
AcDbMText
 10
20.36786415281328
 20
-11.49367662166628
 30
0
 40
1
 41
1.166666666666667
 71
    4
 72
    1
  1
S1
  7
kst32b
210
0
220
0
230
1
 50
0
 73
    2
 44
1.54
  0
MTEXT
  5
250
100
AcDbEntity
  8
socket_header
  6
ByLayer
 62
  256
370
   -1
100
AcDbMText
 10
19.7263566204412
 20
-24.32382726910772
 30
0
 40
1
 41
1.271111111111111
 71
    4
 72
    1
  1
S2
  7
kst32b
210
0
220
0
230
1
 50
0
 73
    2
 44
1.54
  0
MTEXT
  5
251
100
AcDbEntity
  8
socket_header
  6
ByLayer
 62
  256
370
   -1
100
AcDbMText
 10
19.61943869837919
 20
-32.55650726788264
 30
0
 40
1
 41
1.235555555555556
 71
    4
 72
    1
  1
S3
  7
kst32b
210
0
220
0
230
1
 50
0
 73
    2
 44
1.54
  0
MTEXT
  5
252
100
AcDbEntity
  8
socket_header
  6
ByLayer
 62
  256
370
   -1
100
AcDbMText
 10
1.496850908868167
 20
-38.97158259160335
 30
0
 40
1
 41
1.271111111111111
 71
    4
 72
    1
  1
S4
  7
kst32b
210
0
220
0
230
1
 50
0
 73
    2
 44
1.54
  0
MTEXT
  5
253
100
AcDbEntity
  8
socket_header
  6
ByLayer
 62
  256
370
   -1
100
AcDbMText
 10
15.87731142620877
 20
-38.91812363057235
 30
0
 40
1
 41
1.235555555555556
 71
    4
 72
    1
  1
S5
  7
kst32b
210
0
220
0
230
1
 50
0
 73
    2
 44
1.54
  0
MTEXT
  5
254
100
AcDbEntity
  8
micon
  6
ByLayer
 62
  256
370
   -1
100
AcDbMText
 10
1.745131197436636
 20
-16.55340856889091
 30
0
 40
1
 41
1.097777777777778
 71
    4
 72
    1
  1
U1
  7
kst32b
210
0
220
0
230
1
 50
0
 73
    2
 44
1.54
  0
MTEXT
  5
255
100
AcDbEntity
  8
terminal
  6
ByLayer
 62
  256
370
   -1
100
AcDbMText
 10
5.132060258976573
 20
-40.84264622768856
 30
0
 40
1
 41
1.202222222222222
 71
    4
 72
    1
  1
U2
  7
kst32b
210
0
220
0
230
1
 50
0
 73
    2
 44
1.54
  0
MTEXT
  5
256
100
AcDbEntity
  8
condenser
  6
ByLayer
 62
  256
370
   -1
100
AcDbMText
 10
7.216959739185806
 20
-16.1446062313638
 30
0
 40
1
 41
1.202222222222222
 71
    4
 72
    1
  1
C1
  7
kst32b
210
0
220
0
230
1
 50
0
 73
    2
 44
1.54
  0
MTEXT
  5
257
100
AcDbEntity
  8
condenser
  6
ByLayer
 62
  256
370
   -1
100
AcDbMText
 10
15.87731142620877
 20
-14.38046051734061
 30
0
 40
1
 41
1.306666666666667
 71
    4
 72
    1
  1
C2
  7
kst32b
210
0
220
0
230
1
 50
0
 73
    2
 44
1.54
  0
MTEXT
  5
258
100
AcDbEntity
  8
condenser
  6
ByLayer
 62
  256
370
   -1
100
AcDbMText
 10
17.32070337404593
 20
-19.7263566204412
 30
0
 40
1
 41
1.271111111111111
 71
    4
 72
    1
  1
C3
  7
kst32b
210
0
220
0
230
1
 50
0
 73
    2
 44
1.54
  0
MTEXT
  5
259
100
AcDbEntity
  8
0
  6
ByLayer
 62
  256
370
   -1
100
AcDbMText
 10
-22.72458535607824
 20
-7.865805471565498
 30
0
 40
1
 41
18.39777777777778
 71
    4
 72
    1
  1
B1: ユニバーサル基板 8x20P\PC1,2: セラコン 0.22uF\PC3: セラコン 1.5uF\PS1-3: ピンソケット 8P\PS4,5: ピンソケット 4P\PU1: GL823K DIP\PU2: Sunhayato CK-40\PX1: XH ヘッダ 4P サイド\P\P
  7
kst32b
210
0
220
0
230
1
 50
0
 73
    2
 44
1
  0
CIRCLE
  5
25A
100
AcDbEntity
  8
universal_board
  6
ByLayer
 62
  256
370
   -1
100
AcDbCircle
 10
48.26000000000002
 20
4.188462442375291e-14
 40
0.5
  0
CIRCLE
  5
25B
100
AcDbEntity
  8
universal_board
  6
ByLayer
 62
  256
370
   -1
100
AcDbCircle
 10
48.26000000000003
 20
-2.539999999999985
 40
0.5
  0
CIRCLE
  5
25C
100
AcDbEntity
  8
universal_board
  6
ByLayer
 62
  256
370
   -1
100
AcDbCircle
 10
48.25999999999994
 20
-5.080000000000005
 40
0.5
  0
CIRCLE
  5
25D
100
AcDbEntity
  8
universal_board
  6
ByLayer
 62
  256
370
   -1
100
AcDbCircle
 10
48.25999999999996
 20
-7.620000000000024
 40
0.5
  0
CIRCLE
  5
25E
100
AcDbEntity
  8
universal_board
  6
ByLayer
 62
  256
370
   -1
100
AcDbCircle
 10
48.25999999999997
 20
-10.16000000000005
 40
0.5
  0
CIRCLE
  5
25F
100
AcDbEntity
  8
universal_board
  6
ByLayer
 62
  256
370
   -1
100
AcDbCircle
 10
48.25999999999998
 20
-12.70000000000007
 40
0.5
  0
CIRCLE
  5
260
100
AcDbEntity
  8
universal_board
  6
ByLayer
 62
  256
370
   -1
100
AcDbCircle
 10
48.25999999999998
 20
-15.24000000000008
 40
0.5
  0
CIRCLE
  5
261
100
AcDbEntity
  8
universal_board
  6
ByLayer
 62
  256
370
   -1
100
AcDbCircle
 10
48.26
 20
-17.78000000000011
 40
0.5
  0
CIRCLE
  5
262
100
AcDbEntity
  8
universal_board
  6
ByLayer
 62
  256
370
   -1
100
AcDbCircle
 10
48.26000000000001
 20
-20.32000000000012
 40
0.5
  0
CIRCLE
  5
263
100
AcDbEntity
  8
universal_board
  6
ByLayer
 62
  256
370
   -1
100
AcDbCircle
 10
48.26000000000003
 20
-22.86000000000015
 40
0.5
  0
CIRCLE
  5
264
100
AcDbEntity
  8
universal_board
  6
ByLayer
 62
  256
370
   -1
100
AcDbCircle
 10
48.26000000000003
 20
-25.40000000000017
 40
0.5
  0
CIRCLE
  5
265
100
AcDbEntity
  8
universal_board
  6
ByLayer
 62
  256
370
   -1
100
AcDbCircle
 10
48.26000000000004
 20
-27.94000000000019
 40
0.5
  0
CIRCLE
  5
266
100
AcDbEntity
  8
universal_board
  6
ByLayer
 62
  256
370
   -1
100
AcDbCircle
 10
45.72000000000001
 20
3.141346831781463e-14
 40
0.5
  0
CIRCLE
  5
267
100
AcDbEntity
  8
universal_board
  6
ByLayer
 62
  256
370
   -1
100
AcDbCircle
 10
45.72000000000002
 20
-2.539999999999996
 40
0.5
  0
CIRCLE
  5
268
100
AcDbEntity
  8
universal_board
  6
ByLayer
 62
  256
370
   -1
100
AcDbCircle
 10
45.71999999999994
 20
-5.080000000000016
 40
0.5
  0
CIRCLE
  5
269
100
AcDbEntity
  8
universal_board
  6
ByLayer
 62
  256
370
   -1
100
AcDbCircle
 10
45.71999999999996
 20
-7.620000000000037
 40
0.5
  0
CIRCLE
  5
26A
100
AcDbEntity
  8
universal_board
  6
ByLayer
 62
  256
370
   -1
100
AcDbCircle
 10
45.71999999999997
 20
-10.16000000000006
 40
0.5
  0
CIRCLE
  5
26B
100
AcDbEntity
  8
universal_board
  6
ByLayer
 62
  256
370
   -1
100
AcDbCircle
 10
45.71999999999998
 20
-12.70000000000008
 40
0.5
  0
CIRCLE
  5
26C
100
AcDbEntity
  8
universal_board
  6
ByLayer
 62
  256
370
   -1
100
AcDbCircle
 10
45.71999999999998
 20
-15.2400000000001
 40
0.5
  0
CIRCLE
  5
26D
100
AcDbEntity
  8
universal_board
  6
ByLayer
 62
  256
370
   -1
100
AcDbCircle
 10
45.72
 20
-17.78000000000011
 40
0.5
  0
CIRCLE
  5
26E
100
AcDbEntity
  8
universal_board
  6
ByLayer
 62
  256
370
   -1
100
AcDbCircle
 10
45.72000000000001
 20
-20.32000000000013
 40
0.5
  0
CIRCLE
  5
26F
100
AcDbEntity
  8
universal_board
  6
ByLayer
 62
  256
370
   -1
100
AcDbCircle
 10
45.72000000000003
 20
-22.86000000000016
 40
0.5
  0
CIRCLE
  5
270
100
AcDbEntity
  8
universal_board
  6
ByLayer
 62
  256
370
   -1
100
AcDbCircle
 10
45.72000000000003
 20
-25.40000000000017
 40
0.5
  0
CIRCLE
  5
271
100
AcDbEntity
  8
universal_board
  6
ByLayer
 62
  256
370
   -1
100
AcDbCircle
 10
45.72000000000004
 20
-27.9400000000002
 40
0.5
  0
CIRCLE
  5
272
100
AcDbEntity
  8
universal_board
  6
ByLayer
 62
  256
370
   -1
100
AcDbCircle
 10
43.18000000000001
 20
2.09423122118764e-14
 40
0.5
  0
CIRCLE
  5
273
100
AcDbEntity
  8
universal_board
  6
ByLayer
 62
  256
370
   -1
100
AcDbCircle
 10
43.18000000000002
 20
-2.540000000000006
 40
0.5
  0
CIRCLE
  5
274
100
AcDbEntity
  8
universal_board
  6
ByLayer
 62
  256
370
   -1
100
AcDbCircle
 10
43.17999999999995
 20
-5.080000000000025
 40
0.5
  0
CIRCLE
  5
275
100
AcDbEntity
  8
universal_board
  6
ByLayer
 62
  256
370
   -1
100
AcDbCircle
 10
43.17999999999996
 20
-7.620000000000047
 40
0.5
  0
CIRCLE
  5
276
100
AcDbEntity
  8
universal_board
  6
ByLayer
 62
  256
370
   -1
100
AcDbCircle
 10
43.17999999999998
 20
-10.16000000000007
 40
0.5
  0
CIRCLE
  5
277
100
AcDbEntity
  8
universal_board
  6
ByLayer
 62
  256
370
   -1
100
AcDbCircle
 10
43.17999999999999
 20
-12.70000000000009
 40
0.5
  0
CIRCLE
  5
278
100
AcDbEntity
  8
universal_board
  6
ByLayer
 62
  256
370
   -1
100
AcDbCircle
 10
43.17999999999999
 20
-15.24000000000011
 40
0.5
  0
CIRCLE
  5
279
100
AcDbEntity
  8
universal_board
  6
ByLayer
 62
  256
370
   -1
100
AcDbCircle
 10
43.18000000000001
 20
-17.78000000000013
 40
0.5
  0
CIRCLE
  5
27A
100
AcDbEntity
  8
universal_board
  6
ByLayer
 62
  256
370
   -1
100
AcDbCircle
 10
43.18000000000002
 20
-20.32000000000015
 40
0.5
  0
CIRCLE
  5
27B
100
AcDbEntity
  8
universal_board
  6
ByLayer
 62
  256
370
   -1
100
AcDbCircle
 10
43.18000000000004
 20
-22.86000000000017
 40
0.5
  0
CIRCLE
  5
27C
100
AcDbEntity
  8
universal_board
  6
ByLayer
 62
  256
370
   -1
100
AcDbCircle
 10
43.18000000000004
 20
-25.40000000000018
 40
0.5
  0
CIRCLE
  5
27D
100
AcDbEntity
  8
universal_board
  6
ByLayer
 62
  256
370
   -1
100
AcDbCircle
 10
43.18000000000005
 20
-27.94000000000021
 40
0.5
  0
CIRCLE
  5
27E
100
AcDbEntity
  8
universal_board
  6
ByLayer
 62
  256
370
   -1
100
AcDbCircle
 10
40.64
 20
1.047115610593814e-14
 40
0.5
  0
CIRCLE
  5
27F
100
AcDbEntity
  8
universal_board
  6
ByLayer
 62
  256
370
   -1
100
AcDbCircle
 10
40.64000000000001
 20
-2.540000000000016
 40
0.5
  0
CIRCLE
  5
280
100
AcDbEntity
  8
universal_board
  6
ByLayer
 62
  256
370
   -1
100
AcDbCircle
 10
40.63999999999994
 20
-5.080000000000037
 40
0.5
  0
CIRCLE
  5
281
100
AcDbEntity
  8
universal_board
  6
ByLayer
 62
  256
370
   -1
100
AcDbCircle
 10
40.63999999999996
 20
-7.620000000000056
 40
0.5
  0
CIRCLE
  5
282
100
AcDbEntity
  8
universal_board
  6
ByLayer
 62
  256
370
   -1
100
AcDbCircle
 10
40.63999999999997
 20
-10.16000000000008
 40
0.5
  0
CIRCLE
  5
283
100
AcDbEntity
  8
universal_board
  6
ByLayer
 62
  256
370
   -1
100
AcDbCircle
 10
40.63999999999999
 20
-12.7000000000001
 40
0.5
  0
CIRCLE
  5
284
100
AcDbEntity
  8
universal_board
  6
ByLayer
 62
  256
370
   -1
100
AcDbCircle
 10
40.63999999999999
 20
-15.24000000000012
 40
0.5
  0
CIRCLE
  5
285
100
AcDbEntity
  8
universal_board
  6
ByLayer
 62
  256
370
   -1
100
AcDbCircle
 10
40.64
 20
-17.78000000000014
 40
0.5
  0
CIRCLE
  5
286
100
AcDbEntity
  8
universal_board
  6
ByLayer
 62
  256
370
   -1
100
AcDbCircle
 10
40.64000000000001
 20
-20.32000000000016
 40
0.5
  0
CIRCLE
  5
287
100
AcDbEntity
  8
universal_board
  6
ByLayer
 62
  256
370
   -1
100
AcDbCircle
 10
40.64000000000003
 20
-22.86000000000017
 40
0.5
  0
CIRCLE
  5
288
100
AcDbEntity
  8
universal_board
  6
ByLayer
 62
  256
370
   -1
100
AcDbCircle
 10
40.64000000000003
 20
-25.40000000000019
 40
0.5
  0
CIRCLE
  5
289
100
AcDbEntity
  8
universal_board
  6
ByLayer
 62
  256
370
   -1
100
AcDbCircle
 10
40.64000000000004
 20
-27.94000000000022
 40
0.5
  0
CIRCLE
  5
28A
100
AcDbEntity
  8
universal_board
  6
ByLayer
 62
  256
370
   -1
100
AcDbCircle
 10
38.10000000000002
 20
0
 40
0.5
  0
CIRCLE
  5
28B
100
AcDbEntity
  8
universal_board
  6
ByLayer
 62
  256
370
   -1
100
AcDbCircle
 10
38.10000000000004
 20
-2.540000000000028
 40
0.5
  0
CIRCLE
  5
28C
100
AcDbEntity
  8
universal_board
  6
ByLayer
 62
  256
370
   -1
100
AcDbCircle
 10
38.09999999999994
 20
-5.080000000000048
 40
0.5
  0
CIRCLE
  5
28D
100
AcDbEntity
  8
universal_board
  6
ByLayer
 62
  256
370
   -1
100
AcDbCircle
 10
38.09999999999995
 20
-7.620000000000065
 40
0.5
  0
CIRCLE
  5
28E
100
AcDbEntity
  8
universal_board
  6
ByLayer
 62
  256
370
   -1
100
AcDbCircle
 10
38.09999999999997
 20
-10.16000000000009
 40
0.5
  0
CIRCLE
  5
28F
100
AcDbEntity
  8
universal_board
  6
ByLayer
 62
  256
370
   -1
100
AcDbCircle
 10
38.09999999999998
 20
-12.70000000000011
 40
0.5
  0
CIRCLE
  5
290
100
AcDbEntity
  8
universal_board
  6
ByLayer
 62
  256
370
   -1
100
AcDbCircle
 10
38.09999999999998
 20
-15.24000000000013
 40
0.5
  0
CIRCLE
  5
291
100
AcDbEntity
  8
universal_board
  6
ByLayer
 62
  256
370
   -1
100
AcDbCircle
 10
38.09999999999999
 20
-17.78000000000015
 40
0.5
  0
CIRCLE
  5
292
100
AcDbEntity
  8
universal_board
  6
ByLayer
 62
  256
370
   -1
100
AcDbCircle
 10
38.10000000000001
 20
-20.32000000000017
 40
0.5
  0
CIRCLE
  5
293
100
AcDbEntity
  8
universal_board
  6
ByLayer
 62
  256
370
   -1
100
AcDbCircle
 10
38.10000000000002
 20
-22.86000000000019
 40
0.5
  0
CIRCLE
  5
294
100
AcDbEntity
  8
universal_board
  6
ByLayer
 62
  256
370
   -1
100
AcDbCircle
 10
38.10000000000002
 20
-25.40000000000021
 40
0.5
  0
CIRCLE
  5
295
100
AcDbEntity
  8
universal_board
  6
ByLayer
 62
  256
370
   -1
100
AcDbCircle
 10
38.10000000000004
 20
-27.94000000000023
 40
0.5
  0
CIRCLE
  5
296
100
AcDbEntity
  8
universal_board
  6
ByLayer
 62
  256
370
   -1
100
AcDbCircle
 10
35.56
 20
-1.047115610593832e-14
 40
0.5
  0
CIRCLE
  5
297
100
AcDbEntity
  8
universal_board
  6
ByLayer
 62
  256
370
   -1
100
AcDbCircle
 10
35.56000000000002
 20
-2.540000000000038
 40
0.5
  0
CIRCLE
  5
298
100
AcDbEntity
  8
universal_board
  6
ByLayer
 62
  256
370
   -1
100
AcDbCircle
 10
35.55999999999995
 20
-5.080000000000059
 40
0.5
  0
CIRCLE
  5
299
100
AcDbEntity
  8
universal_board
  6
ByLayer
 62
  256
370
   -1
100
AcDbCircle
 10
35.55999999999996
 20
-7.620000000000074
 40
0.5
  0
CIRCLE
  5
29A
100
AcDbEntity
  8
universal_board
  6
ByLayer
 62
  256
370
   -1
100
AcDbCircle
 10
35.55999999999997
 20
-10.1600000000001
 40
0.5
  0
CIRCLE
  5
29B
100
AcDbEntity
  8
universal_board
  6
ByLayer
 62
  256
370
   -1
100
AcDbCircle
 10
35.55999999999999
 20
-12.70000000000012
 40
0.5
  0
CIRCLE
  5
29C
100
AcDbEntity
  8
universal_board
  6
ByLayer
 62
  256
370
   -1
100
AcDbCircle
 10
35.55999999999999
 20
-15.24000000000014
 40
0.5
  0
CIRCLE
  5
29D
100
AcDbEntity
  8
universal_board
  6
ByLayer
 62
  256
370
   -1
100
AcDbCircle
 10
35.56
 20
-17.78000000000016
 40
0.5
  0
CIRCLE
  5
29E
100
AcDbEntity
  8
universal_board
  6
ByLayer
 62
  256
370
   -1
100
AcDbCircle
 10
35.56000000000002
 20
-20.32000000000017
 40
0.5
  0
CIRCLE
  5
29F
100
AcDbEntity
  8
universal_board
  6
ByLayer
 62
  256
370
   -1
100
AcDbCircle
 10
35.56000000000003
 20
-22.86000000000019
 40
0.5
  0
CIRCLE
  5
2A0
100
AcDbEntity
  8
universal_board
  6
ByLayer
 62
  256
370
   -1
100
AcDbCircle
 10
35.56000000000003
 20
-25.40000000000022
 40
0.5
  0
CIRCLE
  5
2A1
100
AcDbEntity
  8
universal_board
  6
ByLayer
 62
  256
370
   -1
100
AcDbCircle
 10
35.56000000000004
 20
-27.94000000000024
 40
0.5
  0
CIRCLE
  5
2A2
100
AcDbEntity
  8
universal_board
  6
ByLayer
 62
  256
370
   -1
100
AcDbCircle
 10
33.02000000000001
 20
-2.094231221187652e-14
 40
0.5
  0
CIRCLE
  5
2A3
100
AcDbEntity
  8
universal_board
  6
ByLayer
 62
  256
370
   -1
100
AcDbCircle
 10
33.02000000000002
 20
-2.540000000000048
 40
0.5
  0
CIRCLE
  5
2A4
100
AcDbEntity
  8
universal_board
  6
ByLayer
 62
  256
370
   -1
100
AcDbCircle
 10
33.01999999999994
 20
-5.080000000000068
 40
0.5
  0
CIRCLE
  5
2A5
100
AcDbEntity
  8
universal_board
  6
ByLayer
 62
  256
370
   -1
100
AcDbCircle
 10
33.01999999999995
 20
-7.620000000000088
 40
0.5
  0
CIRCLE
  5
2A6
100
AcDbEntity
  8
universal_board
  6
ByLayer
 62
  256
370
   -1
100
AcDbCircle
 10
33.01999999999997
 20
-10.16000000000011
 40
0.5
  0
CIRCLE
  5
2A7
100
AcDbEntity
  8
universal_board
  6
ByLayer
 62
  256
370
   -1
100
AcDbCircle
 10
33.01999999999998
 20
-12.70000000000013
 40
0.5
  0
CIRCLE
  5
2A8
100
AcDbEntity
  8
universal_board
  6
ByLayer
 62
  256
370
   -1
100
AcDbCircle
 10
33.01999999999998
 20
-15.24000000000015
 40
0.5
  0
CIRCLE
  5
2A9
100
AcDbEntity
  8
universal_board
  6
ByLayer
 62
  256
370
   -1
100
AcDbCircle
 10
33.02
 20
-17.78000000000017
 40
0.5
  0
CIRCLE
  5
2AA
100
AcDbEntity
  8
universal_board
  6
ByLayer
 62
  256
370
   -1
100
AcDbCircle
 10
33.02000000000001
 20
-20.32000000000018
 40
0.5
  0
CIRCLE
  5
2AB
100
AcDbEntity
  8
universal_board
  6
ByLayer
 62
  256
370
   -1
100
AcDbCircle
 10
33.02000000000002
 20
-22.86000000000021
 40
0.5
  0
CIRCLE
  5
2AC
100
AcDbEntity
  8
universal_board
  6
ByLayer
 62
  256
370
   -1
100
AcDbCircle
 10
33.02000000000002
 20
-25.40000000000022
 40
0.5
  0
CIRCLE
  5
2AD
100
AcDbEntity
  8
universal_board
  6
ByLayer
 62
  256
370
   -1
100
AcDbCircle
 10
33.02000000000004
 20
-27.94000000000025
 40
0.5
  0
CIRCLE
  5
2AE
100
AcDbEntity
  8
universal_board
  6
ByLayer
 62
  256
370
   -1
100
AcDbCircle
 10
30.48
 20
-3.141346831781478e-14
 40
0.5
  0
CIRCLE
  5
2AF
100
AcDbEntity
  8
universal_board
  6
ByLayer
 62
  256
370
   -1
100
AcDbCircle
 10
30.48000000000002
 20
-2.540000000000059
 40
0.5
  0
CIRCLE
  5
2B0
100
AcDbEntity
  8
universal_board
  6
ByLayer
 62
  256
370
   -1
100
AcDbCircle
 10
30.47999999999995
 20
-5.080000000000078
 40
0.5
  0
CIRCLE
  5
2B1
100
AcDbEntity
  8
universal_board
  6
ByLayer
 62
  256
370
   -1
100
AcDbCircle
 10
30.47999999999996
 20
-7.620000000000097
 40
0.5
  0
CIRCLE
  5
2B2
100
AcDbEntity
  8
universal_board
  6
ByLayer
 62
  256
370
   -1
100
AcDbCircle
 10
30.47999999999998
 20
-10.16000000000012
 40
0.5
  0
CIRCLE
  5
2B3
100
AcDbEntity
  8
universal_board
  6
ByLayer
 62
  256
370
   -1
100
AcDbCircle
 10
30.47999999999999
 20
-12.70000000000014
 40
0.5
  0
CIRCLE
  5
2B4
100
AcDbEntity
  8
universal_board
  6
ByLayer
 62
  256
370
   -1
100
AcDbCircle
 10
30.47999999999999
 20
-15.24000000000016
 40
0.5
  0
CIRCLE
  5
2B5
100
AcDbEntity
  8
universal_board
  6
ByLayer
 62
  256
370
   -1
100
AcDbCircle
 10
30.48
 20
-17.78000000000018
 40
0.5
  0
CIRCLE
  5
2B6
100
AcDbEntity
  8
universal_board
  6
ByLayer
 62
  256
370
   -1
100
AcDbCircle
 10
30.48000000000002
 20
-20.3200000000002
 40
0.5
  0
CIRCLE
  5
2B7
100
AcDbEntity
  8
universal_board
  6
ByLayer
 62
  256
370
   -1
100
AcDbCircle
 10
30.48000000000003
 20
-22.86000000000022
 40
0.5
  0
CIRCLE
  5
2B8
100
AcDbEntity
  8
universal_board
  6
ByLayer
 62
  256
370
   -1
100
AcDbCircle
 10
30.48000000000003
 20
-25.40000000000023
 40
0.5
  0
CIRCLE
  5
2B9
100
AcDbEntity
  8
universal_board
  6
ByLayer
 62
  256
370
   -1
100
AcDbCircle
 10
30.48000000000005
 20
-27.94000000000026
 40
0.5
  0
CIRCLE
  5
2BA
100
AcDbEntity
  8
universal_board
  6
ByLayer
 62
  256
370
   -1
100
AcDbCircle
 10
48.26000000000005
 20
-30.48000000000021
 40
0.5
  0
CIRCLE
  5
2BB
100
AcDbEntity
  8
universal_board
  6
ByLayer
 62
  256
370
   -1
100
AcDbCircle
 10
45.72000000000006
 20
-30.48000000000021
 40
0.5
  0
CIRCLE
  5
2BC
100
AcDbEntity
  8
universal_board
  6
ByLayer
 62
  256
370
   -1
100
AcDbCircle
 10
43.18000000000006
 20
-30.48000000000022
 40
0.5
  0
CIRCLE
  5
2BD
100
AcDbEntity
  8
universal_board
  6
ByLayer
 62
  256
370
   -1
100
AcDbCircle
 10
40.64000000000006
 20
-30.48000000000023
 40
0.5
  0
CIRCLE
  5
2BE
100
AcDbEntity
  8
universal_board
  6
ByLayer
 62
  256
370
   -1
100
AcDbCircle
 10
38.10000000000005
 20
-30.48000000000025
 40
0.5
  0
CIRCLE
  5
2BF
100
AcDbEntity
  8
universal_board
  6
ByLayer
 62
  256
370
   -1
100
AcDbCircle
 10
35.56000000000006
 20
-30.48000000000025
 40
0.5
  0
CIRCLE
  5
2C0
100
AcDbEntity
  8
universal_board
  6
ByLayer
 62
  256
370
   -1
100
AcDbCircle
 10
33.02000000000005
 20
-30.48000000000026
 40
0.5
  0
CIRCLE
  5
2C1
100
AcDbEntity
  8
universal_board
  6
ByLayer
 62
  256
370
   -1
100
AcDbCircle
 10
30.48000000000006
 20
-30.48000000000027
 40
0.5
  0
CIRCLE
  5
2C2
100
AcDbEntity
  8
universal_board
  6
ByLayer
 62
  256
370
   -1
100
AcDbCircle
 10
48.26000000000007
 20
-33.02000000000022
 40
0.5
  0
CIRCLE
  5
2C3
100
AcDbEntity
  8
universal_board
  6
ByLayer
 62
  256
370
   -1
100
AcDbCircle
 10
45.72000000000007
 20
-33.02000000000024
 40
0.5
  0
CIRCLE
  5
2C4
100
AcDbEntity
  8
universal_board
  6
ByLayer
 62
  256
370
   -1
100
AcDbCircle
 10
43.18000000000008
 20
-33.02000000000025
 40
0.5
  0
CIRCLE
  5
2C5
100
AcDbEntity
  8
universal_board
  6
ByLayer
 62
  256
370
   -1
100
AcDbCircle
 10
40.64000000000007
 20
-33.02000000000025
 40
0.5
  0
CIRCLE
  5
2C6
100
AcDbEntity
  8
universal_board
  6
ByLayer
 62
  256
370
   -1
100
AcDbCircle
 10
38.10000000000007
 20
-33.02000000000027
 40
0.5
  0
CIRCLE
  5
2C7
100
AcDbEntity
  8
universal_board
  6
ByLayer
 62
  256
370
   -1
100
AcDbCircle
 10
35.56000000000007
 20
-33.02000000000028
 40
0.5
  0
CIRCLE
  5
2C8
100
AcDbEntity
  8
universal_board
  6
ByLayer
 62
  256
370
   -1
100
AcDbCircle
 10
33.02000000000007
 20
-33.02000000000029
 40
0.5
  0
CIRCLE
  5
2C9
100
AcDbEntity
  8
universal_board
  6
ByLayer
 62
  256
370
   -1
100
AcDbCircle
 10
30.48000000000008
 20
-33.02000000000029
 40
0.5
  0
CIRCLE
  5
2CA
100
AcDbEntity
  8
universal_board
  6
ByLayer
 62
  256
370
   -1
100
AcDbCircle
 10
48.26000000000007
 20
-35.56000000000024
 40
0.5
  0
CIRCLE
  5
2CB
100
AcDbEntity
  8
universal_board
  6
ByLayer
 62
  256
370
   -1
100
AcDbCircle
 10
45.72000000000007
 20
-35.56000000000024
 40
0.5
  0
CIRCLE
  5
2CC
100
AcDbEntity
  8
universal_board
  6
ByLayer
 62
  256
370
   -1
100
AcDbCircle
 10
43.18000000000008
 20
-35.56000000000026
 40
0.5
  0
CIRCLE
  5
2CD
100
AcDbEntity
  8
universal_board
  6
ByLayer
 62
  256
370
   -1
100
AcDbCircle
 10
40.64000000000007
 20
-35.56000000000027
 40
0.5
  0
CIRCLE
  5
2CE
100
AcDbEntity
  8
universal_board
  6
ByLayer
 62
  256
370
   -1
100
AcDbCircle
 10
38.10000000000007
 20
-35.56000000000027
 40
0.5
  0
CIRCLE
  5
2CF
100
AcDbEntity
  8
universal_board
  6
ByLayer
 62
  256
370
   -1
100
AcDbCircle
 10
35.56000000000007
 20
-35.56000000000029
 40
0.5
  0
CIRCLE
  5
2D0
100
AcDbEntity
  8
universal_board
  6
ByLayer
 62
  256
370
   -1
100
AcDbCircle
 10
33.02000000000007
 20
-35.5600000000003
 40
0.5
  0
CIRCLE
  5
2D1
100
AcDbEntity
  8
universal_board
  6
ByLayer
 62
  256
370
   -1
100
AcDbCircle
 10
30.48000000000008
 20
-35.56000000000031
 40
0.5
  0
CIRCLE
  5
2D2
100
AcDbEntity
  8
universal_board
  6
ByLayer
 62
  256
370
   -1
100
AcDbCircle
 10
48.26000000000008
 20
-38.10000000000026
 40
0.5
  0
CIRCLE
  5
2D3
100
AcDbEntity
  8
universal_board
  6
ByLayer
 62
  256
370
   -1
100
AcDbCircle
 10
45.72000000000008
 20
-38.10000000000028
 40
0.5
  0
CIRCLE
  5
2D4
100
AcDbEntity
  8
universal_board
  6
ByLayer
 62
  256
370
   -1
100
AcDbCircle
 10
43.18000000000009
 20
-38.10000000000029
 40
0.5
  0
CIRCLE
  5
2D5
100
AcDbEntity
  8
universal_board
  6
ByLayer
 62
  256
370
   -1
100
AcDbCircle
 10
40.64000000000009
 20
-38.10000000000029
 40
0.5
  0
CIRCLE
  5
2D6
100
AcDbEntity
  8
universal_board
  6
ByLayer
 62
  256
370
   -1
100
AcDbCircle
 10
38.10000000000008
 20
-38.10000000000029
 40
0.5
  0
CIRCLE
  5
2D7
100
AcDbEntity
  8
universal_board
  6
ByLayer
 62
  256
370
   -1
100
AcDbCircle
 10
35.56000000000009
 20
-38.10000000000031
 40
0.5
  0
CIRCLE
  5
2D8
100
AcDbEntity
  8
universal_board
  6
ByLayer
 62
  256
370
   -1
100
AcDbCircle
 10
33.02000000000008
 20
-38.10000000000032
 40
0.5
  0
CIRCLE
  5
2D9
100
AcDbEntity
  8
universal_board
  6
ByLayer
 62
  256
370
   -1
100
AcDbCircle
 10
30.48000000000009
 20
-38.10000000000034
 40
0.5
  0
CIRCLE
  5
2DA
100
AcDbEntity
  8
universal_board
  6
ByLayer
 62
  256
370
   -1
100
AcDbCircle
 10
48.2600000000001
 20
-40.64000000000028
 40
0.5
  0
CIRCLE
  5
2DB
100
AcDbEntity
  8
universal_board
  6
ByLayer
 62
  256
370
   -1
100
AcDbCircle
 10
45.7200000000001
 20
-40.6400000000003
 40
0.5
  0
CIRCLE
  5
2DC
100
AcDbEntity
  8
universal_board
  6
ByLayer
 62
  256
370
   -1
100
AcDbCircle
 10
43.18000000000011
 20
-40.6400000000003
 40
0.5
  0
CIRCLE
  5
2DD
100
AcDbEntity
  8
universal_board
  6
ByLayer
 62
  256
370
   -1
100
AcDbCircle
 10
40.6400000000001
 20
-40.64000000000031
 40
0.5
  0
CIRCLE
  5
2DE
100
AcDbEntity
  8
universal_board
  6
ByLayer
 62
  256
370
   -1
100
AcDbCircle
 10
38.10000000000009
 20
-40.64000000000033
 40
0.5
  0
CIRCLE
  5
2DF
100
AcDbEntity
  8
universal_board
  6
ByLayer
 62
  256
370
   -1
100
AcDbCircle
 10
35.5600000000001
 20
-40.64000000000034
 40
0.5
  0
CIRCLE
  5
2E0
100
AcDbEntity
  8
universal_board
  6
ByLayer
 62
  256
370
   -1
100
AcDbCircle
 10
33.0200000000001
 20
-40.64000000000034
 40
0.5
  0
CIRCLE
  5
2E1
100
AcDbEntity
  8
universal_board
  6
ByLayer
 62
  256
370
   -1
100
AcDbCircle
 10
30.4800000000001
 20
-40.64000000000036
 40
0.5
  0
CIRCLE
  5
2E2
100
AcDbEntity
  8
universal_board
  6
ByLayer
 62
  256
370
   -1
100
AcDbCircle
 10
48.26000000000011
 20
-43.18000000000029
 40
0.5
  0
CIRCLE
  5
2E3
100
AcDbEntity
  8
universal_board
  6
ByLayer
 62
  256
370
   -1
100
AcDbCircle
 10
45.72000000000011
 20
-43.18000000000029
 40
0.5
  0
CIRCLE
  5
2E4
100
AcDbEntity
  8
universal_board
  6
ByLayer
 62
  256
370
   -1
100
AcDbCircle
 10
43.18000000000012
 20
-43.18000000000032
 40
0.5
  0
CIRCLE
  5
2E5
100
AcDbEntity
  8
universal_board
  6
ByLayer
 62
  256
370
   -1
100
AcDbCircle
 10
40.64000000000011
 20
-43.18000000000032
 40
0.5
  0
CIRCLE
  5
2E6
100
AcDbEntity
  8
universal_board
  6
ByLayer
 62
  256
370
   -1
100
AcDbCircle
 10
38.10000000000011
 20
-43.18000000000033
 40
0.5
  0
CIRCLE
  5
2E7
100
AcDbEntity
  8
universal_board
  6
ByLayer
 62
  256
370
   -1
100
AcDbCircle
 10
35.56000000000012
 20
-43.18000000000036
 40
0.5
  0
CIRCLE
  5
2E8
100
AcDbEntity
  8
universal_board
  6
ByLayer
 62
  256
370
   -1
100
AcDbCircle
 10
33.02000000000011
 20
-43.18000000000036
 40
0.5
  0
CIRCLE
  5
2E9
100
AcDbEntity
  8
universal_board
  6
ByLayer
 62
  256
370
   -1
100
AcDbCircle
 10
30.48000000000012
 20
-43.18000000000038
 40
0.5
  0
CIRCLE
  5
2EA
100
AcDbEntity
  8
universal_board
  6
ByLayer
 62
  256
370
   -1
100
AcDbCircle
 10
48.26000000000011
 20
-45.72000000000033
 40
0.5
  0
CIRCLE
  5
2EB
100
AcDbEntity
  8
universal_board
  6
ByLayer
 62
  256
370
   -1
100
AcDbCircle
 10
45.72000000000011
 20
-45.72000000000033
 40
0.5
  0
CIRCLE
  5
2EC
100
AcDbEntity
  8
universal_board
  6
ByLayer
 62
  256
370
   -1
100
AcDbCircle
 10
43.18000000000012
 20
-45.72000000000035
 40
0.5
  0
CIRCLE
  5
2ED
100
AcDbEntity
  8
universal_board
  6
ByLayer
 62
  256
370
   -1
100
AcDbCircle
 10
40.64000000000011
 20
-45.72000000000035
 40
0.5
  0
CIRCLE
  5
2EE
100
AcDbEntity
  8
universal_board
  6
ByLayer
 62
  256
370
   -1
100
AcDbCircle
 10
38.10000000000011
 20
-45.72000000000035
 40
0.5
  0
CIRCLE
  5
2EF
100
AcDbEntity
  8
universal_board
  6
ByLayer
 62
  256
370
   -1
100
AcDbCircle
 10
35.56000000000012
 20
-45.72000000000038
 40
0.5
  0
CIRCLE
  5
2F0
100
AcDbEntity
  8
universal_board
  6
ByLayer
 62
  256
370
   -1
100
AcDbCircle
 10
33.02000000000011
 20
-45.72000000000038
 40
0.5
  0
CIRCLE
  5
2F1
100
AcDbEntity
  8
universal_board
  6
ByLayer
 62
  256
370
   -1
100
AcDbCircle
 10
30.48000000000012
 20
-45.7200000000004
 40
0.5
  0
CIRCLE
  5
2F2
100
AcDbEntity
  8
universal_board
  6
ByLayer
 62
  256
370
   -1
100
AcDbCircle
 10
48.26000000000013
 20
-48.26000000000035
 40
0.5
  0
CIRCLE
  5
2F3
100
AcDbEntity
  8
universal_board
  6
ByLayer
 62
  256
370
   -1
100
AcDbCircle
 10
45.72000000000013
 20
-48.26000000000035
 40
0.5
  0
CIRCLE
  5
2F4
100
AcDbEntity
  8
universal_board
  6
ByLayer
 62
  256
370
   -1
100
AcDbCircle
 10
43.18000000000013
 20
-48.26000000000037
 40
0.5
  0
CIRCLE
  5
2F5
100
AcDbEntity
  8
universal_board
  6
ByLayer
 62
  256
370
   -1
100
AcDbCircle
 10
40.64000000000013
 20
-48.26000000000037
 40
0.5
  0
CIRCLE
  5
2F6
100
AcDbEntity
  8
universal_board
  6
ByLayer
 62
  256
370
   -1
100
AcDbCircle
 10
38.10000000000012
 20
-48.26000000000039
 40
0.5
  0
CIRCLE
  5
2F7
100
AcDbEntity
  8
universal_board
  6
ByLayer
 62
  256
370
   -1
100
AcDbCircle
 10
35.56000000000013
 20
-48.2600000000004
 40
0.5
  0
CIRCLE
  5
2F8
100
AcDbEntity
  8
universal_board
  6
ByLayer
 62
  256
370
   -1
100
AcDbCircle
 10
33.02000000000012
 20
-48.2600000000004
 40
0.5
  0
CIRCLE
  5
2F9
100
AcDbEntity
  8
universal_board
  6
ByLayer
 62
  256
370
   -1
100
AcDbCircle
 10
30.48000000000013
 20
-48.26000000000042
 40
0.5
  0
LINE
  5
2FA
100
AcDbEntity
  8
universal_board
  6
ByLayer
 62
  256
370
   -1
100
AcDbLine
 10
49.53000000000011
 20
1.269999999999851
 11
49.53000000000031
 21
-49.53000000000055
  0
LINE
  5
2FB
100
AcDbEntity
  8
universal_board
  6
ByLayer
 62
  256
370
   -1
100
AcDbLine
 10
29.21000000000011
 20
1.269999999999767
 11
29.21000000000031
 21
-49.53000000000063
  0
LINE
  5
2FC
100
AcDbEntity
  8
universal_board
  6
ByLayer
 62
  256
370
   -1
100
AcDbLine
 10
49.5300000000002
 20
1.269999999999851
 11
29.21000000000011
 21
1.269999999999767
  0
LINE
  5
2FD
100
AcDbEntity
  8
universal_board
  6
ByLayer
 62
  256
370
   -1
100
AcDbLine
 10
49.53000000000031
 20
-49.53000000000055
 11
29.21000000000031
 21
-49.53000000000065
  0
LINE
  5
2FE
100
AcDbEntity
  8
0_GND
  6
ByLayer
 62
  256
370
  200
100
AcDbLine
 10
35.55999999999997
 20
-15.24000000000014
 11
35.55999999999996
 21
-10.1600000000001
  0
CIRCLE
  5
2FF
100
AcDbEntity
  8
0_wire
  6
ByLayer
 62
  256
370
  200
100
AcDbCircle
 10
38.09999999999997
 20
-10.16000000000009
 40
0.4
  0
LINE
  5
300
100
AcDbEntity
  8
3.3V line
  6
ByLayer
 62
  256
370
  200
100
AcDbLine
 10
30.47999999999996
 20
-10.16000000000012
 11
30.47999999999998
 21
-12.70000000000014
  0
LINE
  5
301
100
AcDbEntity
  8
3.3V line
  6
ByLayer
 62
  256
370
  200
100
AcDbLine
 10
40.63999999999997
 20
-10.16000000000008
 11
40.63999999999999
 21
-12.7000000000001
  0
LINE
  5
302
100
AcDbEntity
  8
0_GND
  6
ByLayer
 62
  256
370
  200
100
AcDbLine
 10
48.26000000000003
 20
-22.86000000000015
 11
48.26000000000016
 21
-25.40000000000005
  0
LINE
  5
303
100
AcDbEntity
  8
0_GND
  6
ByLayer
 62
  256
370
  200
100
AcDbLine
 10
43.17999999999996
 20
-10.16000000000007
 11
43.17999999999998
 21
-12.70000000000019
  0
LINE
  5
304
100
AcDbEntity
  8
0_GND
  6
ByLayer
 62
  256
370
  200
100
AcDbLine
 10
43.17999999999998
 20
-12.70000000000009
 11
43.17999999999998
 21
-15.24000000000011
  0
LINE
  5
305
100
AcDbEntity
  8
0_GND
  6
ByLayer
 62
  256
370
  200
100
AcDbLine
 10
43.17999999999998
 20
-15.24000000000011
 11
40.63999999999999
 21
-15.24000000000012
  0
LINE
  5
306
100
AcDbEntity
  8
0_GND
  6
ByLayer
 62
  256
370
  200
100
AcDbLine
 10
40.63999999999999
 20
-15.24000000000012
 11
35.55999999999997
 21
-15.24000000000014
  0
LINE
  5
307
100
AcDbEntity
  8
0_GND
  6
ByLayer
 62
  256
370
  200
100
AcDbLine
 10
48.26000000000003
 20
-25.40000000000017
 11
48.26000000000005
 21
-27.94000000000019
  0
LINE
  5
308
100
AcDbEntity
  8
0_GND
  6
ByLayer
 62
  256
370
  200
100
AcDbLine
 10
43.18000000000006
 20
-33.02000000000025
 11
43.18000000000005
 21
-30.48000000000022
  0
LINE
  5
309
100
AcDbEntity
  8
0_wire
  6
ByLayer
 62
  256
370
  200
100
AcDbLine
 10
48.26000000000008
 20
-33.02000000000022
 11
48.26000000000006
 21
-30.48000000000021
  0
LINE
  5
30A
100
AcDbEntity
  8
0_wire
  6
ByLayer
 62
  256
370
  200
100
AcDbLine
 10
45.72000000000007
 20
-33.02000000000024
 11
45.72000000000006
 21
-30.48000000000021
  0
LINE
  5
30B
100
AcDbEntity
  8
0_wire
  6
ByLayer
 62
  256
370
  200
100
AcDbLine
 10
45.72000000000003
 20
-25.40000000000017
 11
45.72000000000004
 21
-27.9400000000002
  0
LINE
  5
30C
100
AcDbEntity
  8
0_wire
  6
ByLayer
 62
  256
370
  200
100
AcDbLine
 10
43.18000000000002
 20
-25.40000000000018
 11
43.18000000000004
 21
-27.94000000000021
  0
LINE
  5
30D
100
AcDbEntity
  8
0_wire
  6
ByLayer
 62
  256
370
  200
100
AcDbLine
 10
40.6400000000001
 20
-25.40000000000008
 11
40.64000000000007
 21
-33.02000000000025
  0
LINE
  5
30E
100
AcDbEntity
  8
0_wire
  6
ByLayer
 62
  256
370
  200
100
AcDbLine
 10
38.10000000000008
 20
-25.40000000000008
 11
38.10000000000004
 21
-27.94000000000023
  0
LINE
  5
30F
100
AcDbEntity
  8
0_wire
  6
ByLayer
 62
  256
370
  200
100
AcDbLine
 10
35.56000000000006
 20
-33.02000000000028
 11
35.56000000000004
 21
-30.48000000000025
  0
LINE
  5
310
100
AcDbEntity
  8
0_wire
  6
ByLayer
 62
  256
370
  200
100
AcDbLine
 10
35.56000000000002
 20
-25.40000000000022
 11
35.56000000000003
 21
-27.94000000000024
  0
LINE
  5
311
100
AcDbEntity
  8
0_wire
  6
ByLayer
 62
  256
370
  200
100
AcDbLine
 10
33.02000000000007
 20
-33.02000000000029
 11
33.02000000000005
 21
-30.48000000000026
  0
LINE
  5
312
100
AcDbEntity
  8
0_wire
  6
ByLayer
 62
  256
370
  200
100
AcDbLine
 10
33.02000000000004
 20
-25.40000000000011
 11
33.02000000000004
 21
-27.94000000000025
  0
LINE
  5
313
100
AcDbEntity
  8
0_wire
  6
ByLayer
 62
  256
370
  200
100
AcDbLine
 10
30.48000000000006
 20
-33.02000000000029
 11
30.48000000000005
 21
-30.48000000000027
  0
LINE
  5
314
100
AcDbEntity
  8
5V line
  6
ByLayer
 62
  256
370
  200
100
AcDbLine
 10
38.10000000000007
 20
-33.02000000000027
 11
38.10000000000005
 21
-30.48000000000025
  0
LINE
  5
315
100
AcDbEntity
  8
5V line
  6
ByLayer
 62
  256
370
  200
100
AcDbLine
 10
30.48000000000002
 20
-25.40000000000011
 11
30.48000000000003
 21
-27.94000000000026
  0
LINE
  5
316
100
AcDbEntity
  8
0_wire
  6
ByLayer
 62
  256
370
  200
100
AcDbLine
 10
45.72000000000003
 20
-2.539999999999996
 11
48.26000000000002
 21
-2.539999999999985
  0
LINE
  5
317
100
AcDbEntity
  8
0_wire
  6
ByLayer
 62
  256
370
  200
100
AcDbLine
 10
48.26000000000002
 20
-2.539999999999985
 11
48.2600000000001
 21
-10.16000000000005
  0
LINE
  5
318
100
AcDbEntity
  8
0_wire
  6
ByLayer
 62
  256
370
  200
100
AcDbLine
 10
43.18000000000002
 20
-2.540000000000006
 11
43.17999999999994
 21
-5.080000000000025
  0
LINE
  5
319
100
AcDbEntity
  8
0_wire
  6
ByLayer
 62
  256
370
  200
100
AcDbLine
 10
43.17999999999994
 20
-5.080000000000025
 11
45.71999999999994
 21
-5.080000000000016
  0
LINE
  5
31A
100
AcDbEntity
  8
0_wire
  6
ByLayer
 62
  256
370
  200
100
AcDbLine
 10
45.71999999999994
 20
-5.080000000000016
 11
45.72000000000008
 21
-10.16000000000006
  0
LINE
  5
31B
100
AcDbEntity
  8
0_GND
  6
ByLayer
 62
  256
370
  200
100
AcDbLine
 10
43.17999999999995
 20
-7.620000000000047
 11
43.18000000000006
 21
-10.16000000000007
  0
LINE
  5
31C
100
AcDbEntity
  8
5V line
  6
ByLayer
 62
  256
370
  200
100
AcDbLine
 10
33.01999999999995
 20
-7.620000000000088
 11
33.01999999999997
 21
-10.16000000000011
  0
LINE
  5
31D
100
AcDbEntity
  8
5V line
  6
ByLayer
 62
  256
370
  200
100
AcDbLine
 10
30.48000000000003
 20
-22.86000000000022
 11
30.48000000000002
 21
-25.40000000000011
  0
LINE
  5
31E
100
AcDbEntity
  8
0_GND
  6
ByLayer
 62
  256
370
  200
100
AcDbLine
 10
35.55999999999999
 20
-15.24000000000014
 11
30.47999999999999
 21
-15.24000000000016
  0
LINE
  5
31F
100
AcDbEntity
  8
0_GND
  6
ByLayer
 62
  256
370
  200
100
AcDbLine
 10
40.64000000000001
 20
-2.540000000000016
 11
40.63999999999997
 21
-5.080000000000037
  0
LINE
  5
320
100
AcDbEntity
  8
5V line
  6
ByLayer
 62
  256
370
  200
100
AcDbLine
 10
38.10000000000002
 20
-2.540000000000028
 11
38.09999999999998
 21
-5.080000000000048
  0
LINE
  5
321
100
AcDbEntity
  8
0_GND
  6
ByLayer
 62
  256
370
  200
100
AcDbLine
 10
40.64
 20
-17.78000000000014
 11
43.18000000000001
 21
-17.78000000000013
  0
LINE
  5
322
100
AcDbEntity
  8
0_GND
  6
ByLayer
 62
  256
370
  200
100
AcDbLine
 10
43.18000000000001
 20
-17.78000000000013
 11
43.17999999999999
 21
-15.24000000000011
  0
LINE
  5
323
100
AcDbEntity
  8
0_GND
  6
ByLayer
 62
  256
370
  200
100
AcDbLine
 10
30.47999999999999
 20
-15.24000000000016
 11
30.48
 21
-17.78000000000018
  0
LINE
  5
324
100
AcDbEntity
  8
universal_board
  6
ByLayer
 62
  256
370
   -1
100
AcDbLine
 10
49.5300000000003
 20
-46.99000000000053
 11
29.21000000000029
 21
-46.99000000000063
  0
LINE
  5
325
100
AcDbEntity
  8
universal_board
  6
ByLayer
 62
  256
370
   -1
100
AcDbLine
 10
49.53000000000029
 20
-44.45000000000051
 11
29.21000000000028
 21
-44.45000000000061
  0
LINE
  5
326
100
AcDbEntity
  8
universal_board
  6
ByLayer
 62
  256
370
   -1
100
AcDbLine
 10
49.53000000000027
 20
-41.91000000000049
 11
29.21000000000026
 21
-41.91000000000059
  0
LINE
  5
327
100
AcDbEntity
  8
universal_board
  6
ByLayer
 62
  256
370
   -1
100
AcDbLine
 10
49.53000000000026
 20
-39.37000000000047
 11
29.21000000000025
 21
-39.37000000000057
  0
LINE
  5
328
100
AcDbEntity
  8
universal_board
  6
ByLayer
 62
  256
370
   -1
100
AcDbLine
 10
49.53000000000024
 20
-36.83000000000045
 11
29.21000000000024
 21
-36.83000000000055
  0
LINE
  5
329
100
AcDbEntity
  8
universal_board
  6
ByLayer
 62
  256
370
   -1
100
AcDbLine
 10
49.53000000000023
 20
-34.29000000000043
 11
29.21000000000022
 21
-34.29000000000053
  0
LINE
  5
32A
100
AcDbEntity
  8
universal_board
  6
ByLayer
 62
  256
370
   -1
100
AcDbLine
 10
49.53000000000021
 20
-31.75000000000041
 11
29.21000000000021
 21
-31.75000000000051
  0
LINE
  5
32B
100
AcDbEntity
  8
universal_board
  6
ByLayer
 62
  256
370
   -1
100
AcDbLine
 10
49.5300000000002
 20
-29.21000000000038
 11
29.21000000000019
 21
-29.21000000000049
  0
LINE
  5
32C
100
AcDbEntity
  8
universal_board
  6
ByLayer
 62
  256
370
   -1
100
AcDbLine
 10
49.53000000000019
 20
-26.67000000000036
 11
29.21000000000018
 21
-26.67000000000047
  0
LINE
  5
32D
100
AcDbEntity
  8
universal_board
  6
ByLayer
 62
  256
370
   -1
100
AcDbLine
 10
49.53000000000017
 20
-24.13000000000034
 11
29.21000000000016
 21
-24.13000000000045
  0
LINE
  5
32E
100
AcDbEntity
  8
universal_board
  6
ByLayer
 62
  256
370
   -1
100
AcDbLine
 10
49.53000000000016
 20
-21.59000000000032
 11
29.21000000000015
 21
-21.59000000000043
  0
LINE
  5
32F
100
AcDbEntity
  8
universal_board
  6
ByLayer
 62
  256
370
   -1
100
AcDbLine
 10
49.53000000000014
 20
-19.0500000000003
 11
29.21000000000014
 21
-19.05000000000041
  0
LINE
  5
330
100
AcDbEntity
  8
universal_board
  6
ByLayer
 62
  256
370
   -1
100
AcDbLine
 10
49.53000000000013
 20
-16.51000000000028
 11
29.21000000000012
 21
-16.51000000000039
  0
LINE
  5
331
100
AcDbEntity
  8
universal_board
  6
ByLayer
 62
  256
370
   -1
100
AcDbLine
 10
49.53000000000011
 20
-13.97000000000026
 11
29.21000000000011
 21
-13.97000000000037
  0
LINE
  5
332
100
AcDbEntity
  8
universal_board
  6
ByLayer
 62
  256
370
   -1
100
AcDbLine
 10
49.5300000000001
 20
-11.43000000000024
 11
29.21000000000009
 21
-11.43000000000035
  0
LINE
  5
333
100
AcDbEntity
  8
universal_board
  6
ByLayer
 62
  256
370
   -1
100
AcDbLine
 10
49.53000000000009
 20
-8.890000000000221
 11
29.21000000000008
 21
-8.890000000000327
  0
LINE
  5
334
100
AcDbEntity
  8
universal_board
  6
ByLayer
 62
  256
370
   -1
100
AcDbLine
 10
49.53000000000007
 20
-6.3500000000002
 11
29.21000000000006
 21
-6.350000000000307
  0
LINE
  5
335
100
AcDbEntity
  8
universal_board
  6
ByLayer
 62
  256
370
   -1
100
AcDbLine
 10
49.53000000000006
 20
-3.81000000000018
 11
29.21000000000005
 21
-3.810000000000286
  0
LINE
  5
336
100
AcDbEntity
  8
universal_board
  6
ByLayer
 62
  256
370
   -1
100
AcDbLine
 10
49.53000000000004
 20
-1.270000000000159
 11
29.21000000000004
 21
-1.270000000000266
  0
LINE
  5
337
100
AcDbEntity
  8
universal_board
  6
ByLayer
 62
  256
370
   -1
100
AcDbLine
 10
31.7500000000001
 20
1.269999999999782
 11
31.7500000000003
 21
-49.53000000000061
  0
LINE
  5
338
100
AcDbEntity
  8
universal_board
  6
ByLayer
 62
  256
370
   -1
100
AcDbLine
 10
34.29000000000009
 20
1.269999999999796
 11
34.29000000000029
 21
-49.5300000000006
  0
LINE
  5
339
100
AcDbEntity
  8
universal_board
  6
ByLayer
 62
  256
370
   -1
100
AcDbLine
 10
36.83000000000008
 20
1.26999999999981
 11
36.83000000000028
 21
-49.53000000000058
  0
LINE
  5
33A
100
AcDbEntity
  8
universal_board
  6
ByLayer
 62
  256
370
   -1
100
AcDbLine
 10
39.37000000000008
 20
1.269999999999824
 11
39.37000000000027
 21
-49.53000000000057
  0
LINE
  5
33B
100
AcDbEntity
  8
universal_board
  6
ByLayer
 62
  256
370
   -1
100
AcDbLine
 10
41.91000000000007
 20
1.269999999999838
 11
41.91000000000027
 21
-49.53000000000056
  0
LINE
  5
33C
100
AcDbEntity
  8
universal_board
  6
ByLayer
 62
  256
370
   -1
100
AcDbLine
 10
44.45000000000006
 20
1.269999999999853
 11
44.45000000000026
 21
-49.53000000000054
  0
LINE
  5
33D
100
AcDbEntity
  8
universal_board
  6
ByLayer
 62
  256
370
   -1
100
AcDbLine
 10
46.99000000000005
 20
1.269999999999867
 11
46.99000000000025
 21
-49.53000000000053
  0
ENDSEC
  0
SECTION
  2
OBJECTS
  0
DICTIONARY
  5
C
330
0
100
AcDbDictionary
281
    1
  3
ACAD_GROUP
350
D
  0
DICTIONARY
  5
D
330
C
100
AcDbDictionary
281
    1
  0
PLOTSETTINGS
  5
33E
100
AcDbPlotSettings
  6
1x1
 40
5
 41
5
 42
5
 43
5
  0
ENDSEC
  0
EOF
