999
dxfrw 0.6.3
  0
SECTION
  2
HEADER
  9
$ACADVER
  1
AC1021
  9
$DWGCODEPAGE
  3
ANSI_1252
  9
$INSBASE
 10
0
 20
0
 30
0
  9
$EXTMIN
 10
-71.65400055239155
 20
0
 30
0
  9
$EXTMAX
 10
28.29254926957251
 20
66.9800000000003
 30
0
  9
$LIMMIN
 10
0
 20
0
  9
$LIMMAX
 10
420
 20
297
  9
$ORTHOMODE
 70
    0
  9
$REGENMODE
 70
    1
  9
$FILLMODE
 70
    1
  9
$QTEXTMODE
 70
    0
  9
$MIRRTEXT
 70
    0
  9
$LTSCALE
 40
1
  9
$ATTMODE
 70
    0
  9
$TEXTSIZE
 40
2.5
  9
$TRACEWID
 40
15.68
  9
$TEXTSTYLE
  7
STANDARD
  9
$CLAYER
  8
0_wire
  9
$CELTYPE
  6
BYLAYER
  9
$CECOLOR
 62
  256
  9
$CELTSCALE
 40
1
  9
$DISPSILH
 70
    0
  9
$DIMSCALE
 40
1
  9
$DIMASZ
 40
2.5
  9
$DIMEXO
 40
0.625
  9
$DIMDLI
 40
3.75
  9
$DIMRND
 40
0
  9
$DIMDLE
 40
0
  9
$DIMEXE
 40
1.25
  9
$DIMTP
 40
0
  9
$DIMTM
 40
0
  9
$DIMTXT
 40
2.5
  9
$DIMCEN
 40
2.5
  9
$DIMTSZ
 40
0
  9
$DIMTOL
 70
    0
  9
$DIMLIM
 70
    0
  9
$DIMTIH
 70
    0
  9
$DIMTOH
 70
    0
  9
$DIMSE1
 70
    0
  9
$DIMSE2
 70
    0
  9
$DIMTAD
 70
    1
  9
$DIMZIN
 70
    8
  9
$DIMBLK
  1

  9
$DIMASO
 70
    1
  9
$DIMSHO
 70
    1
  9
$DIMPOST
  1

  9
$DIMAPOST
  1

  9
$DIMALT
 70
    0
  9
$DIMALTD
 70
    3
  9
$DIMALTF
 40
0.03937
  9
$DIMLFAC
 40
1
  9
$DIMTOFL
 70
    1
  9
$DIMTVP
 40
0
  9
$DIMTIX
 70
    0
  9
$DIMSOXD
 70
    0
  9
$DIMSAH
 70
    0
  9
$DIMBLK1
  1

  9
$DIMBLK2
  1

  9
$DIMSTYLE
  2
STANDARD
  9
$DIMCLRD
 70
    0
  9
$DIMCLRE
 70
    0
  9
$DIMCLRT
 70
    0
  9
$DIMTFAC
 40
1
  9
$DIMGAP
 40
0.625
  9
$DIMJUST
 70
    0
  9
$DIMSD1
 70
    0
  9
$DIMSD2
 70
    0
  9
$DIMTOLJ
 70
    0
  9
$DIMTZIN
 70
    8
  9
$DIMALTZ
 70
    0
  9
$DIMALTTZ
 70
    0
  9
$DIMUPT
 70
    0
  9
$DIMDEC
 70
    2
  9
$DIMTDEC
 70
    2
  9
$DIMALTU
 70
    2
  9
$DIMALTTD
 70
    3
  9
$DIMTXSTY
  7
STANDARD
  9
$DIMAUNIT
 70
    0
  9
$DIMADEC
 70
    0
  9
$DIMALTRND
 40
0
  9
$DIMAZIN
 70
    0
  9
$DIMDSEP
 70
   44
  9
$DIMATFIT
 70
    3
  9
$DIMFRAC
 70
    0
  9
$DIMLDRBLK
  1
STANDARD
  9
$DIMLUNIT
 70
    2
  9
$DIMLWD
 70
   -2
  9
$DIMLWE
 70
   -2
  9
$DIMTMOVE
 70
    0
  9
$DIMFXL
 40
1
  9
$DIMFXLON
 70
    0
  9
$DIMJOGANG
 40
0.7854
  9
$DIMTFILL
 70
    0
  9
$DIMTFILLCLR
 70
    0
  9
$DIMARCSYM
 70
    0
  9
$DIMLTYPE
  6

  9
$DIMLTEX1
  6

  9
$DIMLTEX2
  6

  9
$LUNITS
 70
    2
  9
$LUPREC
 70
    4
  9
$SKETCHINC
 40
1
  9
$FILLETRAD
 40
0
  9
$AUNITS
 70
    0
  9
$AUPREC
 70
    2
  9
$MENU
  1
.
  9
$ELEVATION
 40
0
  9
$PELEVATION
 40
0
  9
$THICKNESS
 40
0
  9
$LIMCHECK
 70
    0
  9
$CHAMFERA
 40
0
  9
$CHAMFERB
 40
0
  9
$CHAMFERC
 40
0
  9
$CHAMFERD
 40
0
  9
$SKPOLY
 70
    0
  9
$USRTIMER
 70
    1
  9
$ANGBASE
 50
0
  9
$ANGDIR
 70
    0
  9
$PDMODE
 70
   34
  9
$PDSIZE
 40
0
  9
$PLINEWID
 40
0
  9
$SPLFRAME
 70
    0
  9
$SPLINETYPE
 70
    2
  9
$SPLINESEGS
 70
    8
  9
$HANDSEED
  5
20000
  9
$SURFTAB1
 70
    6
  9
$SURFTAB2
 70
    6
  9
$SURFTYPE
 70
    6
  9
$SURFU
 70
    6
  9
$SURFV
 70
    6
  9
$UCSBASE
  2

  9
$UCSNAME
  2

  9
$UCSORG
 10
0
 20
0
 30
0
  9
$UCSXDIR
 10
1
 20
0
 30
0
  9
$UCSYDIR
 10
0
 20
1
 30
0
  9
$UCSORTHOREF
  2

  9
$UCSORTHOVIEW
 70
    0
  9
$UCSORGTOP
 10
0
 20
0
 30
0
  9
$UCSORGBOTTOM
 10
0
 20
0
 30
0
  9
$UCSORGLEFT
 10
0
 20
0
 30
0
  9
$UCSORGRIGHT
 10
0
 20
0
 30
0
  9
$UCSORGFRONT
 10
0
 20
0
 30
0
  9
$UCSORGBACK
 10
0
 20
0
 30
0
  9
$PUCSBASE
  2

  9
$PUCSNAME
  2

  9
$PUCSORG
 10
0
 20
0
 30
0
  9
$PUCSXDIR
 10
1
 20
0
 30
0
  9
$PUCSYDIR
 10
0
 20
1
 30
0
  9
$PUCSORTHOREF
  2

  9
$PUCSORTHOVIEW
 70
    0
  9
$PUCSORGTOP
 10
0
 20
0
 30
0
  9
$PUCSORGBOTTOM
 10
0
 20
0
 30
0
  9
$PUCSORGLEFT
 10
0
 20
0
 30
0
  9
$PUCSORGRIGHT
 10
0
 20
0
 30
0
  9
$PUCSORGFRONT
 10
0
 20
0
 30
0
  9
$PUCSORGBACK
 10
0
 20
0
 30
0
  9
$USERI1
 70
    0
  9
$USERI2
 70
    0
  9
$USERI3
 70
    0
  9
$USERI4
 70
    0
  9
$USERI5
 70
    0
  9
$USERR1
 40
0
  9
$USERR2
 40
0
  9
$USERR3
 40
0
  9
$USERR4
 40
0
  9
$USERR5
 40
0
  9
$WORLDVIEW
 70
    1
  9
$SHADEDGE
 70
    3
  9
$SHADEDIF
 70
   70
  9
$TILEMODE
 70
    1
  9
$MAXACTVP
 70
   64
  9
$PINSBASE
 10
201.9375
 20
0
 30
0
  9
$PLIMCHECK
 70
    0
  9
$PEXTMIN
 10
0
 20
0
 30
0
  9
$PEXTMAX
 10
0
 20
0
 30
0
  9
$GRIDMODE
 70
    0
  9
$SNAPSTYLE
 70
    0
  9
$PLIMMIN
 10
0
 20
0
  9
$PLIMMAX
 10
210
 20
297
  9
$UNITMODE
 70
    0
  9
$VISRETAIN
 70
    1
  9
$PLINEGEN
 70
    0
  9
$PSLTSCALE
 70
    1
  9
$TREEDEPTH
 70
 3020
  9
$CMLSTYLE
  2
Standard
  9
$CMLJUST
 70
    0
  9
$CMLSCALE
 40
20
  9
$PROXYGRAPHICS
 70
    1
  9
$MEASUREMENT
 70
    1
  9
$CELWEIGHT
370
   -1
  9
$ENDCAPS
280
    0
  9
$JOINSTYLE
280
    0
  9
$LWDISPLAY
290
    0
  9
$INSUNITS
 70
    0
  9
$HYPERLINKBASE
  1

  9
$STYLESHEET
  1

  9
$XEDIT
290
    1
  9
$CEPSNTYPE
380
    0
  9
$PSTYLEMODE
290
    1
  9
$EXTNAMES
290
    1
  9
$PSVPSCALE
 40
4.125
  9
$OLESTARTUP
290
    0
  9
$SORTENTS
280
  127
  9
$INDEXCTL
280
    0
  9
$HIDETEXT
280
    1
  9
$XCLIPFRAME
290
    0
  9
$HALOGAP
280
    0
  9
$OBSCOLOR
 70
  257
  9
$OBSLTYPE
280
    0
  9
$INTERSECTIONDISPLAY
280
    0
  9
$INTERSECTIONCOLOR
 70
  257
  9
$DIMASSOC
280
    1
  9
$PROJECTNAME
  1

  9
$CAMERADISPLAY
290
    0
  9
$LENSLENGTH
 40
50
  9
$CAMERAHEIGHT
 40
0
  9
$STEPSPERSEC
 40
2
  9
$STEPSIZE
 40
50
  9
$3DDWFPREC
 40
2
  9
$PSOLWIDTH
 40
5
  9
$PSOLHEIGHT
 40
80
  9
$LOFTANG1
 40
1.570796326794897
  9
$LOFTANG2
 40
1.570796326794897
  9
$LOFTMAG1
 40
0
  9
$LOFTMAG2
 40
0
  9
$LOFTPARAM
 70
    7
  9
$LOFTNORMALS
280
    1
  9
$LATITUDE
 40
1
  9
$LONGITUDE
 40
1
  9
$NORTHDIRECTION
 40
0
  9
$TIMEZONE
 70
-8000
  9
$LIGHTGLYPHDISPLAY
280
    1
  9
$TILEMODELIGHTSYNCH
280
    1
  9
$SOLIDHIST
280
    1
  9
$SHOWHIST
280
    1
  9
$DWFFRAME
280
    2
  9
$DGNFRAME
280
    0
  9
$REALWORLDSCALE
290
    1
  9
$INTERFERECOLOR
 62
    1
  9
$CSHADOW
280
    0
  9
$SHADOWPLANELOCATION
 40
0
  0
ENDSEC
  0
SECTION
  2
CLASSES
  0
ENDSEC
  0
SECTION
  2
TABLES
  0
TABLE
  2
VPORT
  5
8
330
0
100
AcDbSymbolTable
 70
    1
  0
VPORT
  5
31
330
2
100
AcDbSymbolTableRecord
100
AcDbViewportTableRecord
  2
*ACTIVE
 70
    0
 10
0
 20
0
 11
1
 21
1
 12
10.08172596053236
 22
21.27268827369052
 13
0
 23
0
 14
10
 24
10
 15
10
 25
10
 16
0
 26
0
 36
1
 17
0
 27
0
 37
0
 40
48.85569890898566
 41
1.487386478304743
 42
50
 43
0
 44
0
 50
0
 51
0
 71
    0
 72
  100
 73
    1
 74
    3
 75
    0
 76
    0
 77
    0
 78
    0
281
    0
 65
    1
110
0
120
0
130
0
111
1
121
0
131
0
112
0
122
1
132
0
 79
    0
146
0
348
10020
 60
    7
 61
    5
292
1
282
    1
141
0
142
0
 63
  250
421
3358443
  0
ENDTAB
  0
TABLE
  2
LTYPE
  5
5
330
0
100
AcDbSymbolTable
 70
    4
  0
LTYPE
  5
14
330
5
100
AcDbSymbolTableRecord
100
AcDbLinetypeTableRecord
  2
ByBlock
 70
    0
  3

 72
   65
 73
    0
 40
0
  0
LTYPE
  5
15
330
5
100
AcDbSymbolTableRecord
100
AcDbLinetypeTableRecord
  2
ByLayer
 70
    0
  3

 72
   65
 73
    0
 40
0
  0
LTYPE
  5
16
330
5
100
AcDbSymbolTableRecord
100
AcDbLinetypeTableRecord
  2
Continuous
 70
    0
  3
Solid line
 72
   65
 73
    0
 40
0
  0
LTYPE
  5
32
330
5
100
AcDbSymbolTableRecord
100
AcDbLinetypeTableRecord
  2
DOT
 70
    0
  3
Dot . . . . . . . . . . . . . . . . . . . . . .
 72
   65
 73
    2
 40
6.35
 49
0
 74
    0
 49
-6.35
 74
    0
  0
LTYPE
  5
33
330
5
100
AcDbSymbolTableRecord
100
AcDbLinetypeTableRecord
  2
DOTTINY
 70
    0
  3
Dot (.15x) .....................................
 72
   65
 73
    2
 40
0.9525
 49
0
 74
    0
 49
-0.9525
 74
    0
  0
LTYPE
  5
34
330
5
100
AcDbSymbolTableRecord
100
AcDbLinetypeTableRecord
  2
DOT2
 70
    0
  3
Dot (.5x) .....................................
 72
   65
 73
    2
 40
3.175
 49
0
 74
    0
 49
-3.175
 74
    0
  0
LTYPE
  5
35
330
5
100
AcDbSymbolTableRecord
100
AcDbLinetypeTableRecord
  2
DOTX2
 70
    0
  3
Dot (2x) .  .  .  .  .  .  .  .  .  .  .  .  .
 72
   65
 73
    2
 40
12.7
 49
0
 74
    0
 49
-12.7
 74
    0
  0
LTYPE
  5
36
330
5
100
AcDbSymbolTableRecord
100
AcDbLinetypeTableRecord
  2
DASHED
 70
    0
  3
Dashed _ _ _ _ _ _ _ _ _ _ _ _ _ _ _ _ _
 72
   65
 73
    2
 40
19.05
 49
12.7
 74
    0
 49
-6.35
 74
    0
  0
LTYPE
  5
37
330
5
100
AcDbSymbolTableRecord
100
AcDbLinetypeTableRecord
  2
DASHEDTINY
 70
    0
  3
Dashed (.15x) _ _ _ _ _ _ _ _ _ _ _ _ _ _ _ _ _
 72
   65
 73
    2
 40
2.8575
 49
1.905
 74
    0
 49
-0.9525
 74
    0
  0
LTYPE
  5
38
330
5
100
AcDbSymbolTableRecord
100
AcDbLinetypeTableRecord
  2
DASHED2
 70
    0
  3
Dashed (.5x) _ _ _ _ _ _ _ _ _ _ _ _ _ _ _ _ _
 72
   65
 73
    2
 40
9.524999999999999
 49
6.35
 74
    0
 49
-3.175
 74
    0
  0
LTYPE
  5
39
330
5
100
AcDbSymbolTableRecord
100
AcDbLinetypeTableRecord
  2
DASHEDX2
 70
    0
  3
Dashed (2x) ____  ____  ____  ____  ____  ___
 72
   65
 73
    2
 40
38.09999999999999
 49
25.4
 74
    0
 49
-12.7
 74
    0
  0
LTYPE
  5
3A
330
5
100
AcDbSymbolTableRecord
100
AcDbLinetypeTableRecord
  2
DASHDOT
 70
    0
  3
Dash dot __ . __ . __ . __ . __ . __ . __ . __
 72
   65
 73
    4
 40
25.4
 49
12.7
 74
    0
 49
-6.35
 74
    0
 49
0
 74
    0
 49
-6.35
 74
    0
  0
LTYPE
  5
3B
330
5
100
AcDbSymbolTableRecord
100
AcDbLinetypeTableRecord
  2
DASHDOTTINY
 70
    0
  3
Dash dot (.15x) _._._._._._._._._._._._._._._.
 72
   65
 73
    4
 40
3.81
 49
1.905
 74
    0
 49
-0.9525
 74
    0
 49
0
 74
    0
 49
-0.9525
 74
    0
  0
LTYPE
  5
3C
330
5
100
AcDbSymbolTableRecord
100
AcDbLinetypeTableRecord
  2
DASHDOT2
 70
    0
  3
Dash dot (.5x) _._._._._._._._._._._._._._._.
 72
   65
 73
    4
 40
12.7
 49
6.35
 74
    0
 49
-3.175
 74
    0
 49
0
 74
    0
 49
-3.175
 74
    0
  0
LTYPE
  5
3D
330
5
100
AcDbSymbolTableRecord
100
AcDbLinetypeTableRecord
  2
DASHDOTX2
 70
    0
  3
Dash dot (2x) ____  .  ____  .  ____  .  ___
 72
   65
 73
    4
 40
50.8
 49
25.4
 74
    0
 49
-12.7
 74
    0
 49
0
 74
    0
 49
-12.7
 74
    0
  0
LTYPE
  5
3E
330
5
100
AcDbSymbolTableRecord
100
AcDbLinetypeTableRecord
  2
DIVIDE
 70
    0
  3
Divide ____ . . ____ . . ____ . . ____ . . ____
 72
   65
 73
    6
 40
31.75
 49
12.7
 74
    0
 49
-6.35
 74
    0
 49
0
 74
    0
 49
-6.35
 74
    0
 49
0
 74
    0
 49
-6.35
 74
    0
  0
LTYPE
  5
3F
330
5
100
AcDbSymbolTableRecord
100
AcDbLinetypeTableRecord
  2
DIVIDETINY
 70
    0
  3
Divide (.15x) __..__..__..__..__..__..__..__.._
 72
   65
 73
    6
 40
4.7625
 49
1.905
 74
    0
 49
-0.9525
 74
    0
 49
0
 74
    0
 49
-0.9525
 74
    0
 49
0
 74
    0
 49
-0.9525
 74
    0
  0
LTYPE
  5
40
330
5
100
AcDbSymbolTableRecord
100
AcDbLinetypeTableRecord
  2
DIVIDE2
 70
    0
  3
Divide (.5x) __..__..__..__..__..__..__..__.._
 72
   65
 73
    6
 40
15.875
 49
6.35
 74
    0
 49
-3.175
 74
    0
 49
0
 74
    0
 49
-3.175
 74
    0
 49
0
 74
    0
 49
-3.175
 74
    0
  0
LTYPE
  5
41
330
5
100
AcDbSymbolTableRecord
100
AcDbLinetypeTableRecord
  2
DIVIDEX2
 70
    0
  3
Divide (2x) ________  .  .  ________  .  .  _
 72
   65
 73
    6
 40
63.5
 49
25.4
 74
    0
 49
-12.7
 74
    0
 49
0
 74
    0
 49
-12.7
 74
    0
 49
0
 74
    0
 49
-12.7
 74
    0
  0
LTYPE
  5
42
330
5
100
AcDbSymbolTableRecord
100
AcDbLinetypeTableRecord
  2
BORDER
 70
    0
  3
Border __ __ . __ __ . __ __ . __ __ . __ __ .
 72
   65
 73
    6
 40
44.45
 49
12.7
 74
    0
 49
-6.35
 74
    0
 49
12.7
 74
    0
 49
-6.35
 74
    0
 49
0
 74
    0
 49
-6.35
 74
    0
  0
LTYPE
  5
43
330
5
100
AcDbSymbolTableRecord
100
AcDbLinetypeTableRecord
  2
BORDERTINY
 70
    0
  3
Border (.15x) __.__.__.__.__.__.__.__.__.__.__.
 72
   65
 73
    6
 40
6.6675
 49
1.905
 74
    0
 49
-0.9525
 74
    0
 49
1.905
 74
    0
 49
-0.9525
 74
    0
 49
0
 74
    0
 49
-0.9525
 74
    0
  0
LTYPE
  5
44
330
5
100
AcDbSymbolTableRecord
100
AcDbLinetypeTableRecord
  2
BORDER2
 70
    0
  3
Border (.5x) __.__.__.__.__.__.__.__.__.__.__.
 72
   65
 73
    6
 40
22.225
 49
6.35
 74
    0
 49
-3.175
 74
    0
 49
6.35
 74
    0
 49
-3.175
 74
    0
 49
0
 74
    0
 49
-3.175
 74
    0
  0
LTYPE
  5
45
330
5
100
AcDbSymbolTableRecord
100
AcDbLinetypeTableRecord
  2
BORDERX2
 70
    0
  3
Border (2x) ____  ____  .  ____  ____  .  ___
 72
   65
 73
    6
 40
88.89999999999999
 49
25.4
 74
    0
 49
-12.7
 74
    0
 49
25.4
 74
    0
 49
-12.7
 74
    0
 49
0
 74
    0
 49
-12.7
 74
    0
  0
LTYPE
  5
46
330
5
100
AcDbSymbolTableRecord
100
AcDbLinetypeTableRecord
  2
CENTER
 70
    0
  3
Center ____ _ ____ _ ____ _ ____ _ ____ _ ____
 72
   65
 73
    4
 40
50.8
 49
31.75
 74
    0
 49
-6.35
 74
    0
 49
6.35
 74
    0
 49
-6.35
 74
    0
  0
LTYPE
  5
47
330
5
100
AcDbSymbolTableRecord
100
AcDbLinetypeTableRecord
  2
CENTERTINY
 70
    0
  3
Center (.15x) ___ _ ___ _ ___ _ ___ _ ___ _ ___
 72
   65
 73
    4
 40
7.619999999999999
 49
4.7625
 74
    0
 49
-0.9525
 74
    0
 49
0.9525
 74
    0
 49
-0.9525
 74
    0
  0
LTYPE
  5
48
330
5
100
AcDbSymbolTableRecord
100
AcDbLinetypeTableRecord
  2
CENTER2
 70
    0
  3
Center (.5x) ___ _ ___ _ ___ _ ___ _ ___ _ ___
 72
   65
 73
    4
 40
28.575
 49
19.05
 74
    0
 49
-3.175
 74
    0
 49
3.175
 74
    0
 49
-3.175
 74
    0
  0
LTYPE
  5
49
330
5
100
AcDbSymbolTableRecord
100
AcDbLinetypeTableRecord
  2
CENTERX2
 70
    0
  3
Center (2x) ________  __  ________  __  _____
 72
   65
 73
    4
 40
101.6
 49
63.5
 74
    0
 49
-12.7
 74
    0
 49
12.7
 74
    0
 49
-12.7
 74
    0
  0
ENDTAB
  0
TABLE
  2
LAYER
  5
2
330
0
100
AcDbSymbolTable
 70
    1
  0
LAYER
  5
10
330
2
100
AcDbSymbolTableRecord
100
AcDbLayerTableRecord
  2
0
 70
    0
 62
    7
  6
CONTINUOUS
370
    0
390
F
  0
LAYER
  5
4A
330
2
100
AcDbSymbolTableRecord
100
AcDbLayerTableRecord
  2
0_GND
 70
    0
 62
    7
  6
CONTINUOUS
370
   15
390
F
  0
LAYER
  5
4B
330
2
100
AcDbSymbolTableRecord
100
AcDbLayerTableRecord
  2
0_wire
 70
    0
 62
    3
  6
CONTINUOUS
370
   15
390
F
  0
LAYER
  5
4C
330
2
100
AcDbSymbolTableRecord
100
AcDbLayerTableRecord
  2
12V line
 70
    0
 62
    2
  6
CONTINUOUS
370
   15
390
F
  0
LAYER
  5
4D
330
2
100
AcDbSymbolTableRecord
100
AcDbLayerTableRecord
  2
3.3V line
 70
    0
 62
   40
420
16755200
  6
CONTINUOUS
370
   15
390
F
  0
LAYER
  5
4E
330
2
100
AcDbSymbolTableRecord
100
AcDbLayerTableRecord
  2
5V line
 70
    0
 62
    1
  6
CONTINUOUS
370
   15
390
F
  0
LAYER
  5
4F
330
2
100
AcDbSymbolTableRecord
100
AcDbLayerTableRecord
  2
Regulator
 70
    0
 62
  162
420
18906
  6
CONTINUOUS
370
   15
390
F
  0
LAYER
  5
50
330
2
100
AcDbSymbolTableRecord
100
AcDbLayerTableRecord
  2
UB P-03231
 70
    4
 62
  253
420
10526884
  6
CONTINUOUS
370
   15
390
F
  0
LAYER
  5
51
330
2
100
AcDbSymbolTableRecord
100
AcDbLayerTableRecord
  2
condenser
 70
    0
 62
    5
  6
CONTINUOUS
370
   15
390
F
  0
LAYER
  5
52
330
2
100
AcDbSymbolTableRecord
100
AcDbLayerTableRecord
  2
draft
 70
    0
 62
    7
  6
DOTTINY
370
   -3
390
F
1001
LibreCad
1070
    1
  0
LAYER
  5
53
330
2
100
AcDbSymbolTableRecord
100
AcDbLayerTableRecord
  2
micon
 70
    0
 62
  216
420
8388736
  6
CONTINUOUS
370
   15
390
F
  0
LAYER
  5
54
330
2
100
AcDbSymbolTableRecord
100
AcDbLayerTableRecord
  2
pin socket
 70
    0
 62
   56
420
8421376
  6
CONTINUOUS
370
   15
390
F
  0
LAYER
  5
55
330
2
100
AcDbSymbolTableRecord
100
AcDbLayerTableRecord
  2
resister
 70
    0
 62
    4
  6
CONTINUOUS
370
   18
390
F
  0
LAYER
  5
56
330
2
100
AcDbSymbolTableRecord
100
AcDbLayerTableRecord
  2
switch
 70
    0
 62
  136
420
32896
  6
CONTINUOUS
370
   15
390
F
  0
LAYER
  5
57
330
2
100
AcDbSymbolTableRecord
100
AcDbLayerTableRecord
  2
terminal
 70
    0
 62
   16
420
8388608
  6
CONTINUOUS
370
   15
390
F
  0
LAYER
  5
58
330
2
100
AcDbSymbolTableRecord
100
AcDbLayerTableRecord
  2
z_orelib
 70
    1
 62
    7
  6
CONTINUOUS
370
   15
390
F
  0
ENDTAB
  0
TABLE
  2
STYLE
  5
3
330
0
100
AcDbSymbolTable
 70
    3
  0
STYLE
  5
59
330
2
100
AcDbSymbolTableRecord
100
AcDbTextStyleTableRecord
  2
STANDARD
 70
    0
 40
0
 41
1
 50
0
 71
    0
 42
1
  3
STANDARD
  4

  0
STYLE
  5
5A
330
2
100
AcDbSymbolTableRecord
100
AcDbTextStyleTableRecord
  2
unicode
 70
    0
 40
0
 41
1
 50
0
 71
    0
 42
1
  3
unicode
  4

  0
ENDTAB
  0
TABLE
  2
VIEW
  5
6
330
0
100
AcDbSymbolTable
 70
    0
  0
ENDTAB
  0
TABLE
  2
UCS
  5
7
330
0
100
AcDbSymbolTable
 70
    0
  0
ENDTAB
  0
TABLE
  2
APPID
  5
9
330
0
100
AcDbSymbolTable
 70
    1
  0
APPID
  5
12
330
9
100
AcDbSymbolTableRecord
100
AcDbRegAppTableRecord
  2
ACAD
 70
    0
  0
APPID
  5
5B
330
9
100
AcDbSymbolTableRecord
100
AcDbRegAppTableRecord
  2
LibreCad
 70
    0
  0
ENDTAB
  0
TABLE
  2
DIMSTYLE
  5
A
330
0
100
AcDbSymbolTable
 70
    1
100
AcDbDimStyleTable
 71
    1
  0
DIMSTYLE
105
5C
330
A
100
AcDbSymbolTableRecord
100
AcDbDimStyleTableRecord
  2
Standard
 70
    0
 40
1
 41
2.5
 42
0.625
 43
0.38
 44
1.25
 45
0
 46
0
 47
0
 48
0
 49
1
140
2.5
141
0.09
142
0
143
25.4
144
1
145
0
146
1
147
0.625
148
0
 71
    0
 72
    0
 73
    0
 74
    1
 75
    0
 76
    0
 77
    0
 78
    8
 79
    0
170
    0
171
    2
172
    0
173
    0
174
    0
175
    0
176
    0
177
    0
178
    0
179
    0
271
    2
272
    4
273
    2
274
    2
275
    0
276
    0
277
    2
278
   44
279
    0
280
    0
281
    0
282
    0
283
    1
284
    0
285
    0
286
    0
288
    0
289
    3
340
STANDARD
341

371
   -2
372
   -2
  0
ENDTAB
  0
TABLE
  2
BLOCK_RECORD
  5
1
330
0
100
AcDbSymbolTable
 70
    2
  0
BLOCK_RECORD
  5
1F
330
1
100
AcDbSymbolTableRecord
100
AcDbBlockTableRecord
  2
*Model_Space
 70
    0
280
    1
281
    0
  0
BLOCK_RECORD
  5
1E
330
1
100
AcDbSymbolTableRecord
100
AcDbBlockTableRecord
  2
*Paper_Space
 70
    0
280
    1
281
    0
  0
BLOCK_RECORD
  5
5D
330
1
100
AcDbSymbolTableRecord
100
AcDbBlockTableRecord
  2
2227MC-08-03
 70
    0
280
    1
281
    0
  0
BLOCK_RECORD
  5
60
330
1
100
AcDbSymbolTableRecord
100
AcDbBlockTableRecord
  2
PIC16F15325
 70
    0
280
    1
281
    0
  0
BLOCK_RECORD
  5
63
330
1
100
AcDbSymbolTableRecord
100
AcDbBlockTableRecord
  2
2227MC-28-03
 70
    0
280
    1
281
    0
  0
BLOCK_RECORD
  5
66
330
1
100
AcDbSymbolTableRecord
100
AcDbBlockTableRecord
  2
HUSG-16.000-20
 70
    0
280
    1
281
    0
  0
BLOCK_RECORD
  5
69
330
1
100
AcDbSymbolTableRecord
100
AcDbBlockTableRecord
  2
ATmega328P
 70
    0
280
    1
281
    0
  0
BLOCK_RECORD
  5
6C
330
1
100
AcDbSymbolTableRecord
100
AcDbBlockTableRecord
  2
DTS-63-N-V-BLK
 70
    0
280
    1
281
    0
  0
BLOCK_RECORD
  5
6F
330
1
100
AcDbSymbolTableRecord
100
AcDbBlockTableRecord
  2
2227MC-14-03
 70
    0
280
    1
281
    0
  0
BLOCK_RECORD
  5
72
330
1
100
AcDbSymbolTableRecord
100
AcDbBlockTableRecord
  2
C_0.01uF
 70
    0
280
    1
281
    0
  0
BLOCK_RECORD
  5
75
330
1
100
AcDbSymbolTableRecord
100
AcDbBlockTableRecord
  2
R300
 70
    0
280
    1
281
    0
  0
BLOCK_RECORD
  5
78
330
1
100
AcDbSymbolTableRecord
100
AcDbBlockTableRecord
  2
R10k
 70
    0
280
    1
281
    0
  0
BLOCK_RECORD
  5
7B
330
1
100
AcDbSymbolTableRecord
100
AcDbBlockTableRecord
  2
R0
 70
    0
280
    1
281
    0
  0
ENDTAB
  0
ENDSEC
  0
SECTION
  2
BLOCKS
  0
BLOCK
  5
20
330
1F
100
AcDbEntity
  8
0
100
AcDbBlockBegin
  2
*Model_Space
 70
    0
 10
0
 20
0
 30
0
  3
*Model_Space
  1

  0
ENDBLK
  5
21
330
1F
100
AcDbEntity
  8
0
100
AcDbBlockEnd
  0
BLOCK
  5
1C
330
1B
100
AcDbEntity
  8
0
100
AcDbBlockBegin
  2
*Paper_Space
 70
    0
 10
0
 20
0
 30
0
  3
*Paper_Space
  1

  0
ENDBLK
  5
1D
330
1F
100
AcDbEntity
  8
0
100
AcDbBlockEnd
  0
BLOCK
  5
5E
330
5D
100
AcDbEntity
  8
0
100
AcDbBlockBegin
  2
2227MC-08-03
 70
    0
 10
0
 20
0
  3
2227MC-08-03
  1

  0
LINE
  5
7E
100
AcDbEntity
  8
pin socket
  6
ByLayer
 62
  256
370
   -1
100
AcDbLine
 10
-1.270000000000131
 20
-8.890000110779171
 11
-1.270000000000131
 21
1.269999889220831
  0
LINE
  5
7F
100
AcDbEntity
  8
pin socket
  6
ByLayer
 62
  256
370
   -1
100
AcDbLine
 10
-1.270000000000131
 20
1.269999889220831
 11
8.890000394687402
 21
1.269999889220831
  0
LINE
  5
80
100
AcDbEntity
  8
pin socket
  6
ByLayer
 62
  256
370
   -1
100
AcDbLine
 10
8.890000394687402
 20
1.269999889220831
 11
8.88999999999989
 21
-8.890000110779171
  0
LINE
  5
81
100
AcDbEntity
  8
pin socket
  6
ByLayer
 62
  256
370
   -1
100
AcDbLine
 10
8.88999999999989
 20
-8.890000110779171
 11
-1.270000000000131
 21
-8.890000110779171
  0
CIRCLE
  5
82
100
AcDbEntity
  8
pin socket
  6
ByLayer
 62
  256
370
   -1
100
AcDbCircle
 10
2.539999999999878
 20
1.06581410364015e-14
 40
0.6
  0
CIRCLE
  5
83
100
AcDbEntity
  8
pin socket
  6
ByLayer
 62
  256
370
   -1
100
AcDbCircle
 10
2.539999999999893
 20
-7.620000000000061
 40
0.6
  0
CIRCLE
  5
84
100
AcDbEntity
  8
pin socket
  6
ByLayer
 62
  256
370
   -1
100
AcDbCircle
 10
0
 20
0
 40
0.6
  0
CIRCLE
  5
85
100
AcDbEntity
  8
pin socket
  6
ByLayer
 62
  256
370
   -1
100
AcDbCircle
 10
7.105427357601002e-15
 20
-7.620000000000072
 40
0.6
  0
CIRCLE
  5
86
100
AcDbEntity
  8
pin socket
  6
ByLayer
 62
  256
370
   -1
100
AcDbCircle
 10
5.079999999999757
 20
2.842170943040401e-14
 40
0.6
  0
CIRCLE
  5
87
100
AcDbEntity
  8
pin socket
  6
ByLayer
 62
  256
370
   -1
100
AcDbCircle
 10
5.079999999999771
 20
-7.620000000000051
 40
0.6
  0
CIRCLE
  5
88
100
AcDbEntity
  8
pin socket
  6
ByLayer
 62
  256
370
   -1
100
AcDbCircle
 10
7.619999999999639
 20
3.907985046680551e-14
 40
0.6
  0
CIRCLE
  5
89
100
AcDbEntity
  8
pin socket
  6
ByLayer
 62
  256
370
   -1
100
AcDbCircle
 10
7.61999999999966
 20
-7.62000000000004
 40
0.6
  0
MTEXT
  5
8A
100
AcDbEntity
  8
pin socket
  6
ByLayer
 62
  256
370
   -1
100
AcDbMText
 10
3.950796119092651
 20
-1.713679173150673
 30
0
 40
1
 41
9.222222222222284
 71
    5
 72
    1
  1
2227MC-08-03
  7
STANDARD
210
0
220
0
230
1
 50
0
 73
    2
 44
1
  0
ENDBLK
  5
5F
330
5D
100
AcDbEntity
  8
0
100
AcDbBlockEnd
  0
BLOCK
  5
61
330
60
100
AcDbEntity
  8
0
100
AcDbBlockBegin
  2
PIC16F15325
 70
    0
 10
0
 20
0
  3
PIC16F15325
  1

  0
LINE
  5
8B
100
AcDbEntity
  8
z_orelib
  6
ByLayer
 62
  256
370
   -1
100
AcDbLine
 10
-1.904999999999802
 20
-0.1269999999999207
 11
-1.904999620049757
 21
7.747000000000078
  0
LINE
  5
8C
100
AcDbEntity
  8
z_orelib
  6
ByLayer
 62
  256
370
   -1
100
AcDbLine
 10
17.14500000000019
 20
7.74700000000006
 11
17.14500000000019
 21
-0.1269999999999207
  0
LINE
  5
8D
100
AcDbEntity
  8
z_orelib
  6
ByLayer
 62
  256
370
   -1
100
AcDbLine
 10
17.14500000000019
 20
-0.1269999999999207
 11
-1.904999999999802
 21
-0.1269999999999207
  0
LINE
  5
8E
100
AcDbEntity
  8
z_orelib
  6
ByLayer
 62
  256
370
   -1
100
AcDbLine
 10
17.14500000000019
 20
7.74700000000006
 11
-1.904999620049757
 21
7.747000000000078
  0
CIRCLE
  5
8F
100
AcDbEntity
  8
z_orelib
  6
ByLayer
 62
  256
370
   -1
100
AcDbCircle
 10
7.620000000000189
 20
7.62000000000015
 40
0.45
  0
CIRCLE
  5
90
100
AcDbEntity
  8
z_orelib
  6
ByLayer
 62
  256
370
   -1
100
AcDbCircle
 10
7.620000000000189
 20
0
 40
0.45
  0
CIRCLE
  5
91
100
AcDbEntity
  8
z_orelib
  6
ByLayer
 62
  256
370
   -1
100
AcDbCircle
 10
10.16000000000026
 20
7.62000000000015
 40
0.45
  0
CIRCLE
  5
92
100
AcDbEntity
  8
z_orelib
  6
ByLayer
 62
  256
370
   -1
100
AcDbCircle
 10
10.16000000000026
 20
0
 40
0.45
  0
CIRCLE
  5
93
100
AcDbEntity
  8
z_orelib
  6
ByLayer
 62
  256
370
   -1
100
AcDbCircle
 10
12.70000000000033
 20
7.62000000000015
 40
0.45
  0
CIRCLE
  5
94
100
AcDbEntity
  8
z_orelib
  6
ByLayer
 62
  256
370
   -1
100
AcDbCircle
 10
12.70000000000033
 20
-1.06581410364015e-14
 40
0.45
  0
CIRCLE
  5
95
100
AcDbEntity
  8
z_orelib
  6
ByLayer
 62
  256
370
   -1
100
AcDbCircle
 10
15.24000000000039
 20
7.62000000000015
 40
0.45
  0
CIRCLE
  5
96
100
AcDbEntity
  8
z_orelib
  6
ByLayer
 62
  256
370
   -1
100
AcDbCircle
 10
15.24000000000039
 20
-1.06581410364015e-14
 40
0.45
  0
CIRCLE
  5
97
100
AcDbEntity
  8
z_orelib
  6
ByLayer
 62
  256
370
   -1
100
AcDbCircle
 10
5.080000000000133
 20
7.62000000000015
 40
0.45
  0
CIRCLE
  5
98
100
AcDbEntity
  8
z_orelib
  6
ByLayer
 62
  256
370
   -1
100
AcDbCircle
 10
5.080000000000133
 20
0
 40
0.45
  0
CIRCLE
  5
99
100
AcDbEntity
  8
z_orelib
  6
ByLayer
 62
  256
370
   -1
100
AcDbCircle
 10
2.540000000000084
 20
7.620000000000168
 40
0.45
  0
CIRCLE
  5
9A
100
AcDbEntity
  8
z_orelib
  6
ByLayer
 62
  256
370
   -1
100
AcDbCircle
 10
2.540000000000084
 20
0
 40
0.45
  0
CIRCLE
  5
9B
100
AcDbEntity
  8
z_orelib
  6
ByLayer
 62
  256
370
   -1
100
AcDbCircle
 10
1.4210854715202e-14
 20
7.620000000000168
 40
0.45
  0
CIRCLE
  5
9C
100
AcDbEntity
  8
z_orelib
  6
ByLayer
 62
  256
370
   -1
100
AcDbCircle
 10
0
 20
0
 40
0.45
  0
MTEXT
  5
9D
100
AcDbEntity
  8
z_orelib
  6
ByLayer
 62
  256
370
   -1
100
AcDbMText
 10
-3.479065156702696
 20
3.868976242683559
 30
0
 40
1
 41
7.444444444444692
 71
    5
 72
    1
  1
PIC16F15325
  7
STANDARD
210
0
220
0
230
1
 50
270
 73
    2
 44
1
  0
ENDBLK
  5
62
330
60
100
AcDbEntity
  8
0
100
AcDbBlockEnd
  0
BLOCK
  5
64
330
63
100
AcDbEntity
  8
0
100
AcDbBlockBegin
  2
2227MC-28-03
 70
    0
 10
0
 20
0
  3
2227MC-28-03
  1

  0
LWPOLYLINE
  5
9E
100
AcDbEntity
  8
z_orelib
  6
ByLayer
 62
  256
370
   -1
100
AcDbPolyline
 90
    4
 70
    1
 43
0
 10
-1.270000000000223
 20
26.67712581213492
 10
8.88999999999978
 20
26.67712581213492
 10
8.88999999999978
 20
-8.882874187865092
 10
-1.270000000000223
 20
-8.882874187865092
  0
CIRCLE
  5
9F
100
AcDbEntity
  8
z_orelib
  6
ByLayer
 62
  256
370
   -1
100
AcDbCircle
 10
7.105427357601002e-15
 20
25.39999999999444
 40
0.5
  0
CIRCLE
  5
A0
100
AcDbEntity
  8
z_orelib
  6
ByLayer
 62
  256
370
   -1
100
AcDbCircle
 10
0
 20
22.859999999995
 40
0.5
  0
CIRCLE
  5
A1
100
AcDbEntity
  8
z_orelib
  6
ByLayer
 62
  256
370
   -1
100
AcDbCircle
 10
2.842170943040401e-14
 20
20.3199999999944
 40
0.5
  0
CIRCLE
  5
A2
100
AcDbEntity
  8
z_orelib
  6
ByLayer
 62
  256
370
   -1
100
AcDbCircle
 10
7.619999999999578
 20
25.39999999999445
 40
0.5
  0
CIRCLE
  5
A3
100
AcDbEntity
  8
z_orelib
  6
ByLayer
 62
  256
370
   -1
100
AcDbCircle
 10
7.619999999999671
 20
22.85999999999443
 40
0.5
  0
CIRCLE
  5
A4
100
AcDbEntity
  8
z_orelib
  6
ByLayer
 62
  256
370
   -1
100
AcDbCircle
 10
7.619999999999678
 20
20.31999999999441
 40
0.5
  0
CIRCLE
  5
A5
100
AcDbEntity
  8
z_orelib
  6
ByLayer
 62
  256
370
   -1
100
AcDbCircle
 10
4.263256414560601e-14
 20
17.77999999999438
 40
0.5
  0
CIRCLE
  5
A6
100
AcDbEntity
  8
z_orelib
  6
ByLayer
 62
  256
370
   -1
100
AcDbCircle
 10
4.263256414560601e-14
 20
15.23999999999436
 40
0.5
  0
CIRCLE
  5
A7
100
AcDbEntity
  8
z_orelib
  6
ByLayer
 62
  256
370
   -1
100
AcDbCircle
 10
4.973799150320701e-14
 20
12.69999999999434
 40
0.5
  0
CIRCLE
  5
A8
100
AcDbEntity
  8
z_orelib
  6
ByLayer
 62
  256
370
   -1
100
AcDbCircle
 10
7.619999999999699
 20
12.69999999999435
 40
0.5
  0
CIRCLE
  5
A9
100
AcDbEntity
  8
z_orelib
  6
ByLayer
 62
  256
370
   -1
100
AcDbCircle
 10
7.619999999999688
 20
15.23999999999437
 40
0.5
  0
CIRCLE
  5
AA
100
AcDbEntity
  8
z_orelib
  6
ByLayer
 62
  256
370
   -1
100
AcDbCircle
 10
7.619999999999688
 20
17.77999999999439
 40
0.5
  0
CIRCLE
  5
AB
100
AcDbEntity
  8
z_orelib
  6
ByLayer
 62
  256
370
   -1
100
AcDbCircle
 10
0
 20
10.15999999999778
 40
0.5
  0
CIRCLE
  5
AC
100
AcDbEntity
  8
z_orelib
  6
ByLayer
 62
  256
370
   -1
100
AcDbCircle
 10
5.684341886080801e-14
 20
7.619999999994299
 40
0.5
  0
CIRCLE
  5
AD
100
AcDbEntity
  8
z_orelib
  6
ByLayer
 62
  256
370
   -1
100
AcDbCircle
 10
0
 20
5.07999999999889
 40
0.5
  0
CIRCLE
  5
AE
100
AcDbEntity
  8
z_orelib
  6
ByLayer
 62
  256
370
   -1
100
AcDbCircle
 10
0
 20
2.539999999999448
 40
0.5
  0
CIRCLE
  5
AF
100
AcDbEntity
  8
z_orelib
  6
ByLayer
 62
  256
370
   -1
100
AcDbCircle
 10
0
 20
0
 40
0.5
  0
CIRCLE
  5
B0
100
AcDbEntity
  8
z_orelib
  6
ByLayer
 62
  256
370
   -1
100
AcDbCircle
 10
0
 20
-2.539999999999441
 40
0.5
  0
CIRCLE
  5
B1
100
AcDbEntity
  8
z_orelib
  6
ByLayer
 62
  256
370
   -1
100
AcDbCircle
 10
5.684341886080801e-14
 20
-5.080000000005761
 40
0.5
  0
CIRCLE
  5
B2
100
AcDbEntity
  8
z_orelib
  6
ByLayer
 62
  256
370
   -1
100
AcDbCircle
 10
5.684341886080801e-14
 20
-7.620000000005781
 40
0.5
  0
CIRCLE
  5
B3
100
AcDbEntity
  8
z_orelib
  6
ByLayer
 62
  256
370
   -1
100
AcDbCircle
 10
7.61999999999971
 20
-7.620000000005762
 40
0.5
  0
CIRCLE
  5
B4
100
AcDbEntity
  8
z_orelib
  6
ByLayer
 62
  256
370
   -1
100
AcDbCircle
 10
7.619999999999578
 20
-5.07999999999889
 40
0.5
  0
CIRCLE
  5
B5
100
AcDbEntity
  8
z_orelib
  6
ByLayer
 62
  256
370
   -1
100
AcDbCircle
 10
7.61999999999971
 20
-2.54000000000574
 40
0.5
  0
CIRCLE
  5
B6
100
AcDbEntity
  8
z_orelib
  6
ByLayer
 62
  256
370
   -1
100
AcDbCircle
 10
7.619999999999578
 20
0
 40
0.5
  0
CIRCLE
  5
B7
100
AcDbEntity
  8
z_orelib
  6
ByLayer
 62
  256
370
   -1
100
AcDbCircle
 10
7.619999999999578
 20
2.539999999999448
 40
0.5
  0
CIRCLE
  5
B8
100
AcDbEntity
  8
z_orelib
  6
ByLayer
 62
  256
370
   -1
100
AcDbCircle
 10
7.619999999999578
 20
5.07999999999889
 40
0.5
  0
CIRCLE
  5
B9
100
AcDbEntity
  8
z_orelib
  6
ByLayer
 62
  256
370
   -1
100
AcDbCircle
 10
7.619999999999578
 20
7.619999999998338
 40
0.5
  0
CIRCLE
  5
BA
100
AcDbEntity
  8
z_orelib
  6
ByLayer
 62
  256
370
   -1
100
AcDbCircle
 10
7.61999999999971
 20
10.15999999999433
 40
0.5
  0
MTEXT
  5
BB
100
AcDbEntity
  8
z_orelib
  6
ByLayer
 62
  256
370
   13
100
AcDbMText
 10
3.284425295725967
 20
27.48208053912358
 30
0
 40
1
 41
9.222222222222284
 71
    5
 72
    1
  1
2227MC-28-03
  7
STANDARD
210
0
220
0
230
1
 50
0
 73
    2
 44
1
  0
MTEXT
  5
BC
100
AcDbEntity
  8
z_orelib
  6
ByLayer
 62
  256
370
   -1
100
AcDbMText
 10
3.66387638384963
 20
29.83626974443595
 30
0
 40
1
 41
6.222222010220118
 71
    5
 72
    1
  1
PinSocket
  7
STANDARD
210
0
220
0
230
1
 50
0
 73
    2
 44
1
  0
ENDBLK
  5
65
330
63
100
AcDbEntity
  8
0
100
AcDbBlockEnd
  0
BLOCK
  5
67
330
66
100
AcDbEntity
  8
0
100
AcDbBlockBegin
  2
HUSG-16.000-20
 70
    0
 10
0
 20
0
  3
HUSG-16.000-20
  1

  0
LWPOLYLINE
  5
BD
100
AcDbEntity
  8
z_orelib
  6
ByLayer
 62
  256
370
   -1
100
AcDbPolyline
 90
    4
 70
    1
 43
0
 10
-2.150000000000006
 20
2.81000000000007
 10
2.149999999999984
 20
2.81000000000007
 10
2.149999999999984
 20
-7.88999999999989
 10
-2.150000000000006
 20
-7.88999999999989
  0
CIRCLE
  5
BE
100
AcDbEntity
  8
z_orelib
  6
ByLayer
 62
  256
370
   -1
100
AcDbCircle
 10
0
 20
0
 40
0.25
  0
CIRCLE
  5
BF
100
AcDbEntity
  8
z_orelib
  6
ByLayer
 62
  256
370
   -1
100
AcDbCircle
 10
0
 20
-5.189999999999589
 40
0.25
  0
MTEXT
  5
C0
100
AcDbEntity
  8
z_orelib
  6
ByLayer
 62
  256
370
   13
100
AcDbMText
 10
0.645500044631568
 20
-9.022663110084029
 30
0
 40
1
 41
10.33333312133125
 71
    5
 72
    1
  1
HUSG-16.000-20
  7
STANDARD
210
0
220
0
230
1
 50
0
 73
    2
 44
1
  0
ENDBLK
  5
68
330
66
100
AcDbEntity
  8
0
100
AcDbBlockEnd
  0
BLOCK
  5
6A
330
69
100
AcDbEntity
  8
0
100
AcDbBlockBegin
  2
ATmega328P
 70
    0
 10
0
 20
0
  3
ATmega328P
  1

  0
CIRCLE
  5
C1
100
AcDbEntity
  8
z_orelib
  6
ByLayer
 62
  256
370
   -1
100
AcDbCircle
 10
-7.619999999999578
 20
7.619999999998328
 40
0.25
  0
CIRCLE
  5
C2
100
AcDbEntity
  8
z_orelib
  6
ByLayer
 62
  256
370
   -1
100
AcDbCircle
 10
0
 20
7.619999999998328
 40
0.25
  0
CIRCLE
  5
C3
100
AcDbEntity
  8
z_orelib
  6
ByLayer
 62
  256
370
   -1
100
AcDbCircle
 10
-7.619999999999578
 20
10.15999999999778
 40
0.25
  0
CIRCLE
  5
C4
100
AcDbEntity
  8
z_orelib
  6
ByLayer
 62
  256
370
   -1
100
AcDbCircle
 10
0
 20
10.15999999999778
 40
0.25
  0
CIRCLE
  5
C5
100
AcDbEntity
  8
z_orelib
  6
ByLayer
 62
  256
370
   -1
100
AcDbCircle
 10
-7.619999999999578
 20
12.69999999999722
 40
0.25
  0
CIRCLE
  5
C6
100
AcDbEntity
  8
z_orelib
  6
ByLayer
 62
  256
370
   -1
100
AcDbCircle
 10
0
 20
12.69999999999722
 40
0.25
  0
CIRCLE
  5
C7
100
AcDbEntity
  8
z_orelib
  6
ByLayer
 62
  256
370
   -1
100
AcDbCircle
 10
-7.619999999999578
 20
15.23999999999668
 40
0.25
  0
CIRCLE
  5
C8
100
AcDbEntity
  8
z_orelib
  6
ByLayer
 62
  256
370
   -1
100
AcDbCircle
 10
0
 20
15.23999999999668
 40
0.25
  0
CIRCLE
  5
C9
100
AcDbEntity
  8
z_orelib
  6
ByLayer
 62
  256
370
   -1
100
AcDbCircle
 10
-7.619999999999578
 20
17.77999999999611
 40
0.25
  0
CIRCLE
  5
CA
100
AcDbEntity
  8
z_orelib
  6
ByLayer
 62
  256
370
   -1
100
AcDbCircle
 10
0
 20
17.77999999999611
 40
0.25
  0
CIRCLE
  5
CB
100
AcDbEntity
  8
z_orelib
  6
ByLayer
 62
  256
370
   -1
100
AcDbCircle
 10
-7.619999999999578
 20
20.31999999999555
 40
0.25
  0
CIRCLE
  5
CC
100
AcDbEntity
  8
z_orelib
  6
ByLayer
 62
  256
370
   -1
100
AcDbCircle
 10
0
 20
20.31999999999555
 40
0.25
  0
CIRCLE
  5
CD
100
AcDbEntity
  8
z_orelib
  6
ByLayer
 62
  256
370
   -1
100
AcDbCircle
 10
-7.619999999999578
 20
22.859999999995
 40
0.25
  0
CIRCLE
  5
CE
100
AcDbEntity
  8
z_orelib
  6
ByLayer
 62
  256
370
   -1
100
AcDbCircle
 10
0
 20
22.859999999995
 40
0.25
  0
CIRCLE
  5
CF
100
AcDbEntity
  8
z_orelib
  6
ByLayer
 62
  256
370
   -1
100
AcDbCircle
 10
-7.619999999999578
 20
5.07999999999889
 40
0.25
  0
CIRCLE
  5
D0
100
AcDbEntity
  8
z_orelib
  6
ByLayer
 62
  256
370
   -1
100
AcDbCircle
 10
0
 20
5.07999999999889
 40
0.25
  0
CIRCLE
  5
D1
100
AcDbEntity
  8
z_orelib
  6
ByLayer
 62
  256
370
   -1
100
AcDbCircle
 10
-7.619999999999578
 20
2.539999999999441
 40
0.25
  0
CIRCLE
  5
D2
100
AcDbEntity
  8
z_orelib
  6
ByLayer
 62
  256
370
   -1
100
AcDbCircle
 10
0
 20
2.539999999999441
 40
0.25
  0
CIRCLE
  5
D3
100
AcDbEntity
  8
z_orelib
  6
ByLayer
 62
  256
370
   -1
100
AcDbCircle
 10
-7.619999999999578
 20
0
 40
0.25
  0
CIRCLE
  5
D4
100
AcDbEntity
  8
z_orelib
  6
ByLayer
 62
  256
370
   -1
100
AcDbCircle
 10
0
 20
0
 40
0.25
  0
CIRCLE
  5
D5
100
AcDbEntity
  8
z_orelib
  6
ByLayer
 62
  256
370
   -1
100
AcDbCircle
 10
-7.619999999999578
 20
-2.539999999999448
 40
0.25
  0
CIRCLE
  5
D6
100
AcDbEntity
  8
z_orelib
  6
ByLayer
 62
  256
370
   -1
100
AcDbCircle
 10
0
 20
-2.539999999999448
 40
0.25
  0
CIRCLE
  5
D7
100
AcDbEntity
  8
z_orelib
  6
ByLayer
 62
  256
370
   -1
100
AcDbCircle
 10
-7.619999999999578
 20
-5.07999999999889
 40
0.25
  0
CIRCLE
  5
D8
100
AcDbEntity
  8
z_orelib
  6
ByLayer
 62
  256
370
   -1
100
AcDbCircle
 10
0
 20
-5.07999999999889
 40
0.25
  0
CIRCLE
  5
D9
100
AcDbEntity
  8
z_orelib
  6
ByLayer
 62
  256
370
   -1
100
AcDbCircle
 10
-7.619999999999578
 20
-7.619999999998338
 40
0.25
  0
CIRCLE
  5
DA
100
AcDbEntity
  8
z_orelib
  6
ByLayer
 62
  256
370
   -1
100
AcDbCircle
 10
0
 20
-7.619999999998338
 40
0.25
  0
CIRCLE
  5
DB
100
AcDbEntity
  8
z_orelib
  6
ByLayer
 62
  256
370
   -1
100
AcDbCircle
 10
-7.619999999999571
 20
-10.15999999999836
 40
0.25
  0
CIRCLE
  5
DC
100
AcDbEntity
  8
z_orelib
  6
ByLayer
 62
  256
370
   -1
100
AcDbCircle
 10
1.06581410364015e-14
 20
-10.15999999999836
 40
0.25
  0
MTEXT
  5
DD
100
AcDbEntity
  8
z_orelib
  6
ByLayer
 62
  256
370
   13
100
AcDbMText
 10
-9.409038138529041
 20
23.78999951115692
 30
0
 40
1
 41
2.333333121331184
 71
    5
 72
    1
  1
RST
  7
STANDARD
210
0
220
0
230
1
 50
0
 73
    2
 44
1
  0
MTEXT
  5
DE
100
AcDbEntity
  8
z_orelib
  6
ByLayer
 62
  256
370
   13
100
AcDbMText
 10
1.93594040182245
 20
6.234230434559649
 30
0
 40
1
 41
3.111111111111111
 71
    5
 72
    1
  1
AREF
  7
STANDARD
210
0
220
0
230
1
 50
0
 73
    2
 44
1
  0
MTEXT
  5
DF
100
AcDbEntity
  8
z_orelib
  6
ByLayer
 62
  256
370
   13
100
AcDbMText
 10
1.90341903505314
 20
3.54788430365128
 30
0
 40
1
 41
3.222222222222222
 71
    5
 72
    1
  1
AVCC
  7
STANDARD
210
0
220
0
230
1
 50
0
 73
    2
 44
1
  0
MTEXT
  5
E0
100
AcDbEntity
  8
z_orelib
  6
ByLayer
 62
  256
370
   13
100
AcDbMText
 10
1.746239546369601
 20
8.524230415006137
 30
0
 40
1
 41
2.333333333333457
 71
    5
 72
    1
  1
GND
  7
STANDARD
210
0
220
0
230
1
 50
0
 73
    2
 44
1
  0
MTEXT
  5
E1
100
AcDbEntity
  8
z_orelib
  6
ByLayer
 62
  256
370
   13
100
AcDbMText
 10
1.26364712091744
 20
18.70239796855165
 30
0
 40
1
 41
1.444444444444506
 71
    5
 72
    1
  1
A3
  7
STANDARD
210
0
220
0
230
1
 50
0
 73
    2
 44
1
  0
MTEXT
  5
E2
100
AcDbEntity
  8
z_orelib
  6
ByLayer
 62
  256
370
   13
100
AcDbMText
 10
-9.496417227398446
 20
6.06359222608538
 30
0
 40
1
 41
2.333333333333457
 71
    5
 72
    1
  1
GND
  7
STANDARD
210
0
220
0
230
1
 50
0
 73
    2
 44
1
  0
MTEXT
  5
E3
100
AcDbEntity
  8
z_orelib
  6
ByLayer
 62
  256
370
   13
100
AcDbMText
 10
-9.385306116287332
 20
8.783922964626754
 30
0
 40
1
 41
2.222222222222222
 71
    5
 72
    1
  1
VCC
  7
STANDARD
210
0
220
0
230
1
 50
0
 73
    2
 44
1
  0
MTEXT
  5
E4
100
AcDbEntity
  8
z_orelib
  6
ByLayer
 62
  256
370
   13
100
AcDbMText
 10
-9.133797756264272
 20
3.465620497307281
 30
0
 40
1
 41
2.111111111111111
 71
    5
 72
    1
  1
XT1
  7
STANDARD
210
0
220
0
230
1
 50
0
 73
    2
 44
1
  0
MTEXT
  5
E5
100
AcDbEntity
  8
z_orelib
  6
ByLayer
 62
  256
370
   13
100
AcDbMText
 10
-9.18386948660595
 20
1.012105710564651
 30
0
 40
1
 41
2.333333333333333
 71
    5
 72
    1
  1
XT2
  7
STANDARD
210
0
220
0
230
1
 50
0
 73
    2
 44
1
  0
MTEXT
  5
E6
100
AcDbEntity
  8
z_orelib
  6
ByLayer
 62
  256
370
   13
100
AcDbMText
 10
1.307490929018961
 20
-4.32733123846306
 30
0
 40
1
 41
1.666666666666728
 71
    5
 72
    1
  1
D11
  7
STANDARD
210
0
220
0
230
1
 50
0
 73
    2
 44
1
  0
LWPOLYLINE
  5
E7
100
AcDbEntity
  8
z_orelib
  6
ByLayer
 62
  256
370
   -1
100
AcDbPolyline
 90
    4
 70
    1
 43
0
 10
-7.556499999999787
 20
23.8571258121355
 10
-0.06349999999978806
 20
23.8571258121355
 10
-0.06349999999978806
 20
-11.14287418786454
 10
-7.556499999999787
 20
-11.14287418786454
  0
MTEXT
  5
E8
100
AcDbEntity
  8
z_orelib
  6
ByLayer
 62
  256
370
   13
100
AcDbMText
 10
-3.950749948831707
 20
-11.85321536570624
 30
0
 40
1
 41
8.111111111111311
 71
    5
 72
    1
  1
ATmega328P
  7
STANDARD
210
0
220
0
230
1
 50
0
 73
    2
 44
1
  0
ENDBLK
  5
6B
330
69
100
AcDbEntity
  8
0
100
AcDbBlockEnd
  0
BLOCK
  5
6D
330
6C
100
AcDbEntity
  8
0
100
AcDbBlockBegin
  2
DTS-63-N-V-BLK
 70
    0
 10
0
 20
0
  3
DTS-63-N-V-BLK
  1

  0
LINE
  5
E9
100
AcDbEntity
  8
z_orelib
  6
ByLayer
 62
  256
370
   -1
100
AcDbLine
 10
-3.09999999999998
 20
-3.099999999999859
 11
-3.09999999999998
 21
3.099999999999866
  0
LINE
  5
EA
100
AcDbEntity
  8
z_orelib
  6
ByLayer
 62
  256
370
   -1
100
AcDbLine
 10
-3.09999999999998
 20
3.099999999999866
 11
3.099999999999959
 21
3.099999999999866
  0
LINE
  5
EB
100
AcDbEntity
  8
z_orelib
  6
ByLayer
 62
  256
370
   -1
100
AcDbLine
 10
3.099999999999959
 20
3.099999999999866
 11
3.099999999999959
 21
-3.099999999999859
  0
LINE
  5
EC
100
AcDbEntity
  8
z_orelib
  6
ByLayer
 62
  256
370
   -1
100
AcDbLine
 10
3.099999999999959
 20
-3.099999999999859
 11
-3.09999999999998
 21
-3.099999999999859
  0
CIRCLE
  5
ED
100
AcDbEntity
  8
z_orelib
  6
ByLayer
 62
  256
370
   -1
100
AcDbCircle
 10
-2.249999999999936
 20
-3.250000000000007
 40
0.35
  0
CIRCLE
  5
EE
100
AcDbEntity
  8
z_orelib
  6
ByLayer
 62
  256
370
   -1
100
AcDbCircle
 10
-2.249999999999936
 20
3.250000000000014
 40
0.35
  0
CIRCLE
  5
EF
100
AcDbEntity
  8
z_orelib
  6
ByLayer
 62
  256
370
   -1
100
AcDbCircle
 10
2.249999999999964
 20
-3.250000000000007
 40
0.35
  0
CIRCLE
  5
F0
100
AcDbEntity
  8
z_orelib
  6
ByLayer
 62
  256
370
   -1
100
AcDbCircle
 10
2.249999999999964
 20
3.250000000000014
 40
0.35
  0
LINE
  5
F1
100
AcDbEntity
  8
z_orelib
  6
ByLayer
 62
  256
370
   -1
100
AcDbLine
 10
-2.249999999999936
 20
-3.24653661614969
 11
-2.249999999999936
 21
-3.95000000000001
  0
LINE
  5
F2
100
AcDbEntity
  8
z_orelib
  6
ByLayer
 62
  256
370
   -1
100
AcDbLine
 10
-2.249999999999936
 20
3.24653661614969
 11
-2.249999999999936
 21
3.95000000000001
  0
LINE
  5
F3
100
AcDbEntity
  8
z_orelib
  6
ByLayer
 62
  256
370
   -1
100
AcDbLine
 10
2.249999999999964
 20
3.246536616149641
 11
2.249999999999964
 21
3.95000000000001
  0
LINE
  5
F4
100
AcDbEntity
  8
z_orelib
  6
ByLayer
 62
  256
370
   -1
100
AcDbLine
 10
2.249999999999964
 20
-3.246536616149641
 11
2.249999999999964
 21
-3.95000000000001
  0
CIRCLE
  5
F5
100
AcDbEntity
  8
z_orelib
  6
ByLayer
 62
  256
370
   -1
100
AcDbCircle
 10
0
 20
0
 40
2.54
  0
CIRCLE
  5
F6
100
AcDbEntity
  8
z_orelib
  6
ByLayer
 62
  256
370
   -1
100
AcDbCircle
 10
-2.540000000000006
 20
-2.540000000000077
 40
0.25
  0
CIRCLE
  5
F7
100
AcDbEntity
  8
z_orelib
  6
ByLayer
 62
  256
370
   -1
100
AcDbCircle
 10
-2.540000000000006
 20
2.540000000000084
 40
0.25
  0
CIRCLE
  5
F8
100
AcDbEntity
  8
z_orelib
  6
ByLayer
 62
  256
370
   -1
100
AcDbCircle
 10
2.54000000000002
 20
-2.540000000000077
 40
0.25
  0
CIRCLE
  5
F9
100
AcDbEntity
  8
z_orelib
  6
ByLayer
 62
  256
370
   -1
100
AcDbCircle
 10
2.54000000000002
 20
2.540000000000084
 40
0.25
  0
LINE
  5
FA
100
AcDbEntity
  8
z_orelib
  6
ByLayer
 62
  256
370
   -1
100
AcDbLine
 10
-2.540000000000006
 20
-2.540000000000077
 11
-2.540000000000006
 21
2.540000000000084
  0
LINE
  5
FB
100
AcDbEntity
  8
z_orelib
  6
ByLayer
 62
  256
370
   -1
100
AcDbLine
 10
2.54000000000002
 20
-2.540000000000077
 11
2.54000000000002
 21
2.540000000000084
  0
MTEXT
  5
FC
100
AcDbEntity
  8
z_orelib
  6
ByLayer
 62
  256
370
   -1
100
AcDbMText
 10
0.02850694981085411
 20
-5.28314178787236
 30
0
 40
1
 41
3.999999787997897
 71
    5
 72
    1
  1
Switch
  7
STANDARD
210
0
220
0
230
1
 50
0
 73
    2
 44
1
  0
ENDBLK
  5
6E
330
6C
100
AcDbEntity
  8
0
100
AcDbBlockEnd
  0
BLOCK
  5
70
330
6F
100
AcDbEntity
  8
0
100
AcDbBlockBegin
  2
2227MC-14-03
 70
    0
 10
0
 20
0
  3
2227MC-14-03
  1

  0
LINE
  5
FD
100
AcDbEntity
  8
z_orelib
  6
ByLayer
 62
  256
370
   -1
100
AcDbLine
 10
16.50999999999837
 20
1.26999999999709
 11
16.50999999999837
 21
-8.890000000002761
  0
LINE
  5
FE
100
AcDbEntity
  8
z_orelib
  6
ByLayer
 62
  256
370
   -1
100
AcDbLine
 10
16.50999999999837
 20
-8.890000000002761
 11
-1.270000000001595
 21
-8.890000000002761
  0
LINE
  5
FF
100
AcDbEntity
  8
z_orelib
  6
ByLayer
 62
  256
370
   -1
100
AcDbLine
 10
-1.270000000001595
 20
-8.890000000002761
 11
-1.270000000001595
 21
1.26999999999709
  0
LINE
  5
100
100
AcDbEntity
  8
z_orelib
  6
ByLayer
 62
  256
370
   -1
100
AcDbLine
 10
-1.270000000001595
 20
1.26999999999709
 11
16.50999999999837
 21
1.26999999999709
  0
CIRCLE
  5
101
100
AcDbEntity
  8
z_orelib
  6
ByLayer
 62
  256
370
   -1
100
AcDbCircle
 10
15.23999999999842
 20
-3.030464768016827e-12
 40
0.9
  0
CIRCLE
  5
102
100
AcDbEntity
  8
z_orelib
  6
ByLayer
 62
  256
370
   -1
100
AcDbCircle
 10
12.69999999999868
 20
-2.529532139305957e-12
 40
0.9
  0
CIRCLE
  5
103
100
AcDbEntity
  8
z_orelib
  6
ByLayer
 62
  256
370
   -1
100
AcDbCircle
 10
10.15999999999895
 20
-2.021494083237485e-12
 40
0.9
  0
CIRCLE
  5
104
100
AcDbEntity
  8
z_orelib
  6
ByLayer
 62
  256
370
   -1
100
AcDbCircle
 10
7.619999999999216
 20
-1.520561454526614e-12
 40
0.9
  0
CIRCLE
  5
105
100
AcDbEntity
  8
z_orelib
  6
ByLayer
 62
  256
370
   -1
100
AcDbCircle
 10
5.079999999999472
 20
-1.008970684779342e-12
 40
0.9
  0
CIRCLE
  5
106
100
AcDbEntity
  8
z_orelib
  6
ByLayer
 62
  256
370
   -1
100
AcDbCircle
 10
2.539999999999743
 20
-5.009326287108706e-13
 40
0.9
  0
CIRCLE
  5
107
100
AcDbEntity
  8
z_orelib
  6
ByLayer
 62
  256
370
   -1
100
AcDbCircle
 10
0
 20
0
 40
0.9
  0
CIRCLE
  5
108
100
AcDbEntity
  8
z_orelib
  6
ByLayer
 62
  256
370
   -1
100
AcDbCircle
 10
15.23999999999843
 20
-7.62000000000269
 40
0.9
  0
CIRCLE
  5
109
100
AcDbEntity
  8
z_orelib
  6
ByLayer
 62
  256
370
   -1
100
AcDbCircle
 10
12.69999999999811
 20
-7.62000000000269
 40
0.9
  0
CIRCLE
  5
10A
100
AcDbEntity
  8
z_orelib
  6
ByLayer
 62
  256
370
   -1
100
AcDbCircle
 10
10.15999999999779
 20
-7.62000000000268
 40
0.9
  0
CIRCLE
  5
10B
100
AcDbEntity
  8
z_orelib
  6
ByLayer
 62
  256
370
   -1
100
AcDbCircle
 10
7.619999999997475
 20
-7.62000000000268
 40
0.9
  0
CIRCLE
  5
10C
100
AcDbEntity
  8
z_orelib
  6
ByLayer
 62
  256
370
   -1
100
AcDbCircle
 10
5.079999999997156
 20
-7.62000000000268
 40
0.9
  0
CIRCLE
  5
10D
100
AcDbEntity
  8
z_orelib
  6
ByLayer
 62
  256
370
   -1
100
AcDbCircle
 10
2.53999999999683
 20
-7.62000000000268
 40
0.9
  0
CIRCLE
  5
10E
100
AcDbEntity
  8
z_orelib
  6
ByLayer
 62
  256
370
   -1
100
AcDbCircle
 10
-3.47455397786689e-12
 20
-7.62000000000268
 40
0.9
  0
MTEXT
  5
10F
100
AcDbEntity
  8
z_orelib
  6
ByLayer
 62
  256
370
   -1
100
AcDbMText
 10
15.29164584601927
 20
-2.237020759991811
 30
0
 40
1
 41
2.222222222222222
 71
    5
 72
    1
  1
Vdd
  7
STANDARD
210
0
220
0
230
1
 50
270
 73
    2
 44
1
  0
MTEXT
  5
110
100
AcDbEntity
  8
z_orelib
  6
ByLayer
 62
  256
370
   -1
100
AcDbMText
 10
8.281603598181782
 20
-3.088240175800621
 30
0
 40
1
 41
3.888888888888935
 71
    5
 72
    1
  1
nMCLR
  7
STANDARD
210
0
220
0
230
1
 50
270
 73
    2
 44
1
  0
MTEXT
  5
111
100
AcDbEntity
  8
z_orelib
  6
ByLayer
 62
  256
370
   -1
100
AcDbMText
 10
15.64214795841114
 20
-5.241324580493579
 30
0
 40
1
 41
2.222223250796618
 71
    5
 72
    1
  1
Vss
  7
STANDARD
210
0
220
0
230
1
 50
270
 73
    2
 44
1
  0
MTEXT
  5
112
100
AcDbEntity
  8
z_orelib
  6
ByLayer
 62
  256
370
   -1
100
AcDbMText
 10
7.029810339639376
 20
-5.141181119810181
 30
0
 40
1
 41
2.111111111111158
 71
    5
 72
    1
  1
Ra2
  7
STANDARD
210
0
220
0
230
1
 50
270
 73
    2
 44
1
  0
MTEXT
  5
113
100
AcDbEntity
  8
z_orelib
  6
ByLayer
 62
  256
370
   -1
100
AcDbMText
 10
5.27729977768
 20
-5.091109389468492
 30
0
 40
1
 41
2.111111111111111
 71
    5
 72
    1
  1
RC0
  7
STANDARD
210
0
220
0
230
1
 50
270
 73
    2
 44
1
  0
MTEXT
  5
114
100
AcDbEntity
  8
z_orelib
  6
ByLayer
 62
  256
370
   -1
100
AcDbMText
 10
17.35898184499345
 20
-4.39341006792036
 30
0
 40
1
 41
9.111111111111173
 71
    5
 72
    1
  1
2227MC-14-03
  7
STANDARD
210
0
220
0
230
1
 50
270
 73
    2
 44
1
  0
ENDBLK
  5
71
330
6F
100
AcDbEntity
  8
0
100
AcDbBlockEnd
  0
BLOCK
  5
73
330
72
100
AcDbEntity
  8
0
100
AcDbBlockBegin
  2
C_0.01uF
 70
    0
 10
0
 20
0
  3
C_0.01uF
  1

  0
LWPOLYLINE
  5
115
100
AcDbEntity
  8
condenser
  6
ByLayer
 62
  256
370
   -1
100
AcDbPolyline
 90
    4
 70
    1
 43
0
 10
1.499999999999972
 20
5.039999999999822
 10
1.499999999999972
 20
0.03999999999992099
 10
-1.50000000000005
 20
0.03999999999992099
 10
-1.50000000000005
 20
5.039999999999822
  0
MTEXT
  5
116
100
AcDbEntity
  8
condenser
  6
ByLayer
 62
  256
370
   -1
100
AcDbMText
 10
2.336701583810211
 20
2.491803864245341
 30
0
 40
1
 41
3.666666666666667
 71
    5
 72
    1
  1
0.01uF
  7
STANDARD
210
0
220
0
230
1
 50
270
 73
    2
 44
1
  0
CIRCLE
  5
117
100
AcDbEntity
  8
condenser
  6
ByLayer
 62
  256
370
   -1
100
AcDbCircle
 10
0
 20
0
 40
0.4
  0
CIRCLE
  5
118
100
AcDbEntity
  8
condenser
  6
ByLayer
 62
  256
370
   -1
100
AcDbCircle
 10
-6.927791673660977e-14
 20
5.080000000000041
 40
0.4
  0
ENDBLK
  5
74
330
72
100
AcDbEntity
  8
0
100
AcDbBlockEnd
  0
BLOCK
  5
76
330
75
100
AcDbEntity
  8
0
100
AcDbBlockBegin
  2
R300
 70
    0
 10
0
 20
0
  3
R300
  1

  0
LWPOLYLINE
  5
119
100
AcDbEntity
  8
resister
  6
ByLayer
 62
  256
370
   -1
100
AcDbPolyline
 90
    4
 70
    1
 43
0
 10
-1.150000000000091
 20
0.6599999999995898
 10
-1.15000000000008
 20
6.959999999999511
 10
1.150000000000126
 20
6.959999999999511
 10
1.150000000000119
 20
0.6599999999995898
  0
CIRCLE
  5
11A
100
AcDbEntity
  8
resister
  6
ByLayer
 62
  256
370
   -1
100
AcDbCircle
 10
1.953992523340276e-14
 20
7.619999999999639
 40
0.3
  0
LINE
  5
11B
100
AcDbEntity
  8
resister
  6
ByLayer
 62
  256
370
   -1
100
AcDbLine
 10
1.953992523340276e-14
 20
0.2999999999998604
 11
1.031014139840636e-06
 21
0.6599999999995898
  0
LINE
  5
11C
100
AcDbEntity
  8
resister
  6
ByLayer
 62
  256
370
   -1
100
AcDbLine
 10
3.907985046680551e-14
 20
6.959999999999511
 11
3.907985046680551e-14
 21
7.320000000000348
  0
MTEXT
  5
11D
100
AcDbEntity
  8
resister
  6
ByLayer
 62
  256
370
   -1
100
AcDbMText
 10
-0.02409769535478112
 20
3.951579464078229
 30
0
 40
1
 41
2.888888888888951
 71
    5
 72
    1
  1
R300
  7
STANDARD
210
0
220
0
230
1
 50
90
 73
    2
 44
1
  0
CIRCLE
  5
11E
100
AcDbEntity
  8
resister
  6
ByLayer
 62
  256
370
   -1
100
AcDbCircle
 10
0
 20
0
 40
0.25
  0
ENDBLK
  5
77
330
75
100
AcDbEntity
  8
0
100
AcDbBlockEnd
  0
BLOCK
  5
79
330
78
100
AcDbEntity
  8
0
100
AcDbBlockBegin
  2
R10k
 70
    0
 10
0
 20
0
  3
R10k
  1

  0
CIRCLE
  5
11F
100
AcDbEntity
  8
resister
  6
ByLayer
 62
  256
370
   -1
100
AcDbCircle
 10
0
 20
0
 40
0.3
  0
LINE
  5
120
100
AcDbEntity
  8
resister
  6
ByLayer
 62
  256
370
   -1
100
AcDbLine
 10
-0.659999999999485
 20
1.150000000000098
 11
-0.659999999999485
 21
-1.150000000000059
  0
LINE
  5
121
100
AcDbEntity
  8
resister
  6
ByLayer
 62
  256
370
   -1
100
AcDbLine
 10
-6.959999999999557
 20
-1.150000000000041
 11
-0.659999999999485
 21
-1.150000000000059
  0
LINE
  5
122
100
AcDbEntity
  8
resister
  6
ByLayer
 62
  256
370
   -1
100
AcDbLine
 10
-0.659999999999485
 20
1.150000000000098
 11
-6.959999999999557
 21
1.150000000000098
  0
LINE
  5
123
100
AcDbEntity
  8
resister
  6
ByLayer
 62
  256
370
   -1
100
AcDbLine
 10
-6.959999999999557
 20
1.150000000000098
 11
-6.959999999999557
 21
-1.150000000000041
  0
CIRCLE
  5
124
100
AcDbEntity
  8
resister
  6
ByLayer
 62
  256
370
   -1
100
AcDbCircle
 10
-7.619999999999408
 20
2.131628207280301e-14
 40
0.25
  0
MTEXT
  5
125
100
AcDbEntity
  8
resister
  6
ByLayer
 62
  256
370
   -1
100
AcDbMText
 10
-3.991855261194459
 20
0.08749576228997924
 30
0
 40
1
 41
2.666666666666667
 71
    5
 72
    1
  1
R10k
  7
unicode
210
0
220
0
230
1
 50
0
 73
    2
 44
1
  0
LINE
  5
126
100
AcDbEntity
  8
resister
  6
ByLayer
 62
  256
370
   -1
100
AcDbLine
 10
-0.2499999999985789
 20
2.131628207280301e-14
 11
-0.659999999999485
 21
2.131628207280301e-14
  0
LINE
  5
127
100
AcDbEntity
  8
resister
  6
ByLayer
 62
  256
370
   -1
100
AcDbLine
 10
-7.369999999999898
 20
1.06581410364015e-14
 11
-6.959999999999557
 21
1.06581410364015e-14
  0
ENDBLK
  5
7A
330
78
100
AcDbEntity
  8
0
100
AcDbBlockEnd
  0
BLOCK
  5
7C
330
7B
100
AcDbEntity
  8
0
100
AcDbBlockBegin
  2
R0
 70
    0
 10
0
 20
0
  3
R0
  1

  0
LINE
  5
128
100
AcDbEntity
  8
resister
  6
ByLayer
 62
  256
370
   -1
100
AcDbLine
 10
-0.6599999999999611
 20
1.149999999999959
 11
-0.6599999999999611
 21
-1.14999999999997
  0
LINE
  5
129
100
AcDbEntity
  8
resister
  6
ByLayer
 62
  256
370
   -1
100
AcDbLine
 10
-0.6599999999999611
 20
-1.14999999999997
 11
-6.959999999999834
 21
-1.14999999999997
  0
LINE
  5
12A
100
AcDbEntity
  8
resister
  6
ByLayer
 62
  256
370
   -1
100
AcDbLine
 10
-6.959999999999834
 20
-1.14999999999997
 11
-6.95999999999982
 21
1.149999999999959
  0
LINE
  5
12B
100
AcDbEntity
  8
resister
  6
ByLayer
 62
  256
370
   -1
100
AcDbLine
 10
-6.95999999999982
 20
1.149999999999959
 11
-0.6599999999999611
 21
1.149999999999959
  0
LINE
  5
12C
100
AcDbEntity
  8
resister
  6
ByLayer
 62
  256
370
   -1
100
AcDbLine
 10
-6.95999999999982
 20
0
 11
-7.61999999999966
 21
0
  0
LINE
  5
12D
100
AcDbEntity
  8
resister
  6
ByLayer
 62
  256
370
   -1
100
AcDbLine
 10
3.694822225952521e-13
 20
0
 11
-0.6599999999999611
 21
0
  0
MTEXT
  5
12E
100
AcDbEntity
  8
resister
  6
ByLayer
 62
  256
370
   -1
100
AcDbMText
 10
-4.132042899777453
 20
0.05377778633712005
 30
0
 40
1
 41
1.333333333333333
 71
    5
 72
    1
  1
R0
  7
STANDARD
210
0
220
0
230
1
 50
270
 73
    2
 44
1
  0
ENDBLK
  5
7D
330
7B
100
AcDbEntity
  8
0
100
AcDbBlockEnd
  0
ENDSEC
  0
SECTION
  2
ENTITIES
  0
INSERT
  5
12F
100
AcDbEntity
  8
z_orelib
  6
ByLayer
 62
  256
370
   -1
100
AcDbBlockReference
  2
PIC16F15325
 10
-38.55931302096359
 20
4.194486264906684
 30
0
 41
1
 42
1
 43
0
 50
0
 70
    1
 71
    1
 44
1
 45
1
  0
INSERT
  5
130
100
AcDbEntity
  8
z_orelib
  6
ByLayer
 62
  256
370
   -1
100
AcDbBlockReference
  2
2227MC-28-03
 10
-7.039999999999949
 20
23.30000000000567
 30
0
 41
1
 42
1
 43
0
 50
0
 70
    1
 71
    1
 44
0
 45
0
  0
ARC
  5
131
100
AcDbEntity
  8
z_orelib
  6
ByLayer
 62
  256
370
   -1
100
AcDbCircle
 10
17.15645256695673
 20
15.38771787084885
 40
1.800000252141547
100
AcDbArc
 50
4.024303061603626e-05
 51
90.00002889270411
  0
ARC
  5
132
100
AcDbEntity
  8
z_orelib
  6
ByLayer
 62
  256
370
   -1
100
AcDbCircle
 10
17.15645165926418
 20
14.28771913512131
 40
1.80000000000151
100
AcDbArc
 50
270.000000000043
 51
2.929087998216984e-05
  0
LINE
  5
133
100
AcDbEntity
  8
z_orelib
  6
ByLayer
 62
  256
370
   -1
100
AcDbLine
 10
18.95645281909783
 20
15.38771913512113
 11
18.95645165926546
 21
14.28772005532144
  0
LINE
  5
134
100
AcDbEntity
  8
z_orelib
  6
ByLayer
 62
  256
370
   -1
100
AcDbLine
 10
17.15645064713467
 20
17.18771913512106
 11
15.35645165926519
 21
17.18771913512106
  0
LINE
  5
135
100
AcDbEntity
  8
z_orelib
  6
ByLayer
 62
  256
370
   -1
100
AcDbLine
 10
15.35645165926519
 20
17.18771913512106
 11
15.35645165926519
 21
12.48771913512105
  0
LINE
  5
136
100
AcDbEntity
  8
z_orelib
  6
ByLayer
 62
  256
370
   -1
100
AcDbLine
 10
15.35645165926519
 20
12.48771913512105
 11
17.15645165926545
 21
12.4877191351198
  0
CIRCLE
  5
137
100
AcDbEntity
  8
z_orelib
  6
ByLayer
 62
  256
370
   -1
100
AcDbCircle
 10
16.25645165926536
 20
14.83771913512082
 40
0.25
  0
CIRCLE
  5
138
100
AcDbEntity
  8
z_orelib
  6
ByLayer
 62
  256
370
   -1
100
AcDbCircle
 10
16.25645165926536
 20
17.37771913512083
 40
0.25
  0
CIRCLE
  5
139
100
AcDbEntity
  8
z_orelib
  6
ByLayer
 62
  256
370
   -1
100
AcDbCircle
 10
16.25645165926536
 20
12.29771913512082
 40
0.25
  0
MTEXT
  5
13A
100
AcDbEntity
  8
z_orelib
  6
ByLayer
 62
  256
370
   15
100
AcDbMText
 10
15.60056950651209
 20
19.12548822052029
 30
0
 40
1
 41
3.333333333333333
 71
    5
 72
    1
  1
VOUT
  7
STANDARD
210
0
220
0
230
1
 50
90
 73
    2
 44
1
  0
MTEXT
  5
13B
100
AcDbEntity
  8
z_orelib
  6
ByLayer
 62
  256
370
   15
100
AcDbMText
 10
14.07257808143948
 20
14.9310019556151
 30
0
 40
1
 41
2.333333333333457
 71
    5
 72
    1
  1
GND
  7
STANDARD
210
0
220
0
230
1
 50
90
 73
    2
 44
1
  0
MTEXT
  5
13C
100
AcDbEntity
  8
z_orelib
  6
ByLayer
 62
  256
370
   15
100
AcDbMText
 10
15.60056950651209
 20
10.07738213479625
 30
0
 40
1
 41
1.888888888888889
 71
    5
 72
    1
  1
VIN
  7
STANDARD
210
0
220
0
230
1
 50
90
 73
    2
 44
1
  0
MTEXT
  5
13D
100
AcDbEntity
  8
z_orelib
  6
ByLayer
 62
  256
370
   15
100
AcDbMText
 10
20.14361392027881
 20
16.86895584430579
 30
0
 40
1
 41
14.00000000000006
 71
    5
 72
    1
  1
UT7500L-18-T92-B-K
  7
STANDARD
210
0
220
0
230
1
 50
90
 73
    2
 44
1
  0
MTEXT
  5
13E
100
AcDbEntity
  8
z_orelib
  6
ByLayer
 62
  256
370
   -1
100
AcDbMText
 10
21.65366012353993
 20
6.90417036429524
 30
0
 40
1
 41
13.27777829206518
 71
    5
 72
    1
  1
5V const. regulator\P
  7
STANDARD
210
0
220
0
230
1
 50
0
 73
    2
 44
1
  0
INSERT
  5
13F
100
AcDbEntity
  8
z_orelib
  6
ByLayer
 62
  256
370
   -1
100
AcDbBlockReference
  2
HUSG-16.000-20
 10
-52.62017459449902
 20
28.66465778699252
 30
0
 41
1
 42
1
 43
0
 50
0
 70
    1
 71
    1
 44
0
 45
0
  0
INSERT
  5
140
100
AcDbEntity
  8
z_orelib
  6
ByLayer
 62
  256
370
   -1
100
AcDbBlockReference
  2
ATmega328P
 10
-28.42000000000037
 20
25.84000000000512
 30
0
 41
1
 42
1
 43
0
 50
0
 70
    1
 71
    1
 44
0
 45
0
  0
INSERT
  5
141
100
AcDbEntity
  8
z_orelib
  6
ByLayer
 62
  256
370
   -1
100
AcDbBlockReference
  2
DTS-63-N-V-BLK
 10
-46.19999999999949
 20
46.1599999999999
 30
0
 41
1
 42
1
 43
0
 50
0
 70
    1
 71
    1
 44
0
 45
0
  0
INSERT
  5
142
100
AcDbEntity
  8
z_orelib
  6
ByLayer
 62
  256
370
   -1
100
AcDbBlockReference
  2
2227MC-14-03
 10
-13.11626870149478
 20
6.998565753213253
 30
0
 41
1
 42
1
 43
0
 50
0
 70
    1
 71
    1
 44
0
 45
0
  0
CIRCLE
  5
143
100
AcDbEntity
  8
UB P-03231
  6
ByLayer
 62
  256
370
   -1
100
AcDbCircle
 10
-23.5
 20
36
 40
0.5
  0
CIRCLE
  5
144
100
AcDbEntity
  8
UB P-03231
  6
ByLayer
 62
  256
370
   -1
100
AcDbCircle
 10
-26.03999999999989
 20
36
 40
0.5
  0
CIRCLE
  5
145
100
AcDbEntity
  8
UB P-03231
  6
ByLayer
 62
  256
370
   -1
100
AcDbCircle
 10
-28.57999999999979
 20
36
 40
0.5
  0
CIRCLE
  5
146
100
AcDbEntity
  8
UB P-03231
  6
ByLayer
 62
  256
370
   -1
100
AcDbCircle
 10
-31.11999999999968
 20
36
 40
0.5
  0
CIRCLE
  5
147
100
AcDbEntity
  8
UB P-03231
  6
ByLayer
 62
  256
370
   -1
100
AcDbCircle
 10
-33.65999999999957
 20
36
 40
0.5
  0
CIRCLE
  5
148
100
AcDbEntity
  8
UB P-03231
  6
ByLayer
 62
  256
370
   -1
100
AcDbCircle
 10
-36.19999999999946
 20
36
 40
0.5
  0
CIRCLE
  5
149
100
AcDbEntity
  8
UB P-03231
  6
ByLayer
 62
  256
370
   -1
100
AcDbCircle
 10
-38.73999999999936
 20
36
 40
0.5
  0
CIRCLE
  5
14A
100
AcDbEntity
  8
UB P-03231
  6
ByLayer
 62
  256
370
   -1
100
AcDbCircle
 10
-41.27999999999925
 20
36
 40
0.5
  0
CIRCLE
  5
14B
100
AcDbEntity
  8
UB P-03231
  6
ByLayer
 62
  256
370
   -1
100
AcDbCircle
 10
-20.96000000000012
 20
36.00000000000001
 40
0.5
  0
CIRCLE
  5
14C
100
AcDbEntity
  8
UB P-03231
  6
ByLayer
 62
  256
370
   -1
100
AcDbCircle
 10
-18.42000000000024
 20
36.00000000000001
 40
0.5
  0
CIRCLE
  5
14D
100
AcDbEntity
  8
UB P-03231
  6
ByLayer
 62
  256
370
   -1
100
AcDbCircle
 10
-15.88000000000036
 20
36.00000000000002
 40
0.5
  0
CIRCLE
  5
14E
100
AcDbEntity
  8
UB P-03231
  6
ByLayer
 62
  256
370
   -1
100
AcDbCircle
 10
-13.34000000000049
 20
36.00000000000003
 40
0.5
  0
CIRCLE
  5
14F
100
AcDbEntity
  8
UB P-03231
  6
ByLayer
 62
  256
370
   -1
100
AcDbCircle
 10
-10.80000000000061
 20
36.00000000000004
 40
0.5
  0
CIRCLE
  5
150
100
AcDbEntity
  8
UB P-03231
  6
ByLayer
 62
  256
370
   -1
100
AcDbCircle
 10
-8.26000000000073
 20
36.00000000000004
 40
0.5
  0
CIRCLE
  5
151
100
AcDbEntity
  8
UB P-03231
  6
ByLayer
 62
  256
370
   -1
100
AcDbCircle
 10
-5.72000000000085
 20
36.00000000000005
 40
0.5
  0
CIRCLE
  5
152
100
AcDbEntity
  8
UB P-03231
  6
ByLayer
 62
  256
370
   -1
100
AcDbCircle
 10
-23.50000000000001
 20
38.54000000000002
 40
0.5
  0
CIRCLE
  5
153
100
AcDbEntity
  8
UB P-03231
  6
ByLayer
 62
  256
370
   -1
100
AcDbCircle
 10
-26.0399999999999
 20
38.54000000000002
 40
0.5
  0
CIRCLE
  5
154
100
AcDbEntity
  8
UB P-03231
  6
ByLayer
 62
  256
370
   -1
100
AcDbCircle
 10
-28.57999999999979
 20
38.54000000000002
 40
0.5
  0
CIRCLE
  5
155
100
AcDbEntity
  8
UB P-03231
  6
ByLayer
 62
  256
370
   -1
100
AcDbCircle
 10
-31.11999999999968
 20
38.54000000000002
 40
0.5
  0
CIRCLE
  5
156
100
AcDbEntity
  8
UB P-03231
  6
ByLayer
 62
  256
370
   -1
100
AcDbCircle
 10
-33.65999999999958
 20
38.54000000000002
 40
0.5
  0
CIRCLE
  5
157
100
AcDbEntity
  8
UB P-03231
  6
ByLayer
 62
  256
370
   -1
100
AcDbCircle
 10
-36.19999999999947
 20
38.54000000000002
 40
0.5
  0
CIRCLE
  5
158
100
AcDbEntity
  8
UB P-03231
  6
ByLayer
 62
  256
370
   -1
100
AcDbCircle
 10
-38.73999999999936
 20
38.54000000000002
 40
0.5
  0
CIRCLE
  5
159
100
AcDbEntity
  8
UB P-03231
  6
ByLayer
 62
  256
370
   -1
100
AcDbCircle
 10
-41.27999999999926
 20
38.54000000000002
 40
0.5
  0
CIRCLE
  5
15A
100
AcDbEntity
  8
UB P-03231
  6
ByLayer
 62
  256
370
   -1
100
AcDbCircle
 10
-20.96000000000013
 20
38.54000000000003
 40
0.5
  0
CIRCLE
  5
15B
100
AcDbEntity
  8
UB P-03231
  6
ByLayer
 62
  256
370
   -1
100
AcDbCircle
 10
-18.42000000000025
 20
38.54000000000003
 40
0.5
  0
CIRCLE
  5
15C
100
AcDbEntity
  8
UB P-03231
  6
ByLayer
 62
  256
370
   -1
100
AcDbCircle
 10
-15.88000000000037
 20
38.54000000000004
 40
0.5
  0
CIRCLE
  5
15D
100
AcDbEntity
  8
UB P-03231
  6
ByLayer
 62
  256
370
   -1
100
AcDbCircle
 10
-13.34000000000049
 20
38.54000000000005
 40
0.5
  0
CIRCLE
  5
15E
100
AcDbEntity
  8
UB P-03231
  6
ByLayer
 62
  256
370
   -1
100
AcDbCircle
 10
-10.80000000000062
 20
38.54000000000006
 40
0.5
  0
CIRCLE
  5
15F
100
AcDbEntity
  8
UB P-03231
  6
ByLayer
 62
  256
370
   -1
100
AcDbCircle
 10
-8.260000000000741
 20
38.54000000000006
 40
0.5
  0
CIRCLE
  5
160
100
AcDbEntity
  8
UB P-03231
  6
ByLayer
 62
  256
370
   -1
100
AcDbCircle
 10
-5.72000000000086
 20
38.54000000000007
 40
0.5
  0
CIRCLE
  5
161
100
AcDbEntity
  8
UB P-03231
  6
ByLayer
 62
  256
370
   -1
100
AcDbCircle
 10
-23.50000000000001
 20
41.08000000000004
 40
0.5
  0
CIRCLE
  5
162
100
AcDbEntity
  8
UB P-03231
  6
ByLayer
 62
  256
370
   -1
100
AcDbCircle
 10
-26.03999999999991
 20
41.08000000000004
 40
0.5
  0
CIRCLE
  5
163
100
AcDbEntity
  8
UB P-03231
  6
ByLayer
 62
  256
370
   -1
100
AcDbCircle
 10
-28.5799999999998
 20
41.08000000000004
 40
0.5
  0
CIRCLE
  5
164
100
AcDbEntity
  8
UB P-03231
  6
ByLayer
 62
  256
370
   -1
100
AcDbCircle
 10
-31.11999999999969
 20
41.08000000000004
 40
0.5
  0
CIRCLE
  5
165
100
AcDbEntity
  8
UB P-03231
  6
ByLayer
 62
  256
370
   -1
100
AcDbCircle
 10
-33.65999999999958
 20
41.08000000000004
 40
0.5
  0
CIRCLE
  5
166
100
AcDbEntity
  8
UB P-03231
  6
ByLayer
 62
  256
370
   -1
100
AcDbCircle
 10
-36.19999999999948
 20
41.08000000000004
 40
0.5
  0
CIRCLE
  5
167
100
AcDbEntity
  8
UB P-03231
  6
ByLayer
 62
  256
370
   -1
100
AcDbCircle
 10
-38.73999999999937
 20
41.08000000000004
 40
0.5
  0
CIRCLE
  5
168
100
AcDbEntity
  8
UB P-03231
  6
ByLayer
 62
  256
370
   -1
100
AcDbCircle
 10
-41.27999999999926
 20
41.08000000000004
 40
0.5
  0
CIRCLE
  5
169
100
AcDbEntity
  8
UB P-03231
  6
ByLayer
 62
  256
370
   -1
100
AcDbCircle
 10
-20.96000000000014
 20
41.08000000000005
 40
0.5
  0
CIRCLE
  5
16A
100
AcDbEntity
  8
UB P-03231
  6
ByLayer
 62
  256
370
   -1
100
AcDbCircle
 10
-18.42000000000026
 20
41.08000000000006
 40
0.5
  0
CIRCLE
  5
16B
100
AcDbEntity
  8
UB P-03231
  6
ByLayer
 62
  256
370
   -1
100
AcDbCircle
 10
-15.88000000000038
 20
41.08000000000006
 40
0.5
  0
CIRCLE
  5
16C
100
AcDbEntity
  8
UB P-03231
  6
ByLayer
 62
  256
370
   -1
100
AcDbCircle
 10
-13.3400000000005
 20
41.08000000000007
 40
0.5
  0
CIRCLE
  5
16D
100
AcDbEntity
  8
UB P-03231
  6
ByLayer
 62
  256
370
   -1
100
AcDbCircle
 10
-10.80000000000062
 20
41.08000000000008
 40
0.5
  0
CIRCLE
  5
16E
100
AcDbEntity
  8
UB P-03231
  6
ByLayer
 62
  256
370
   -1
100
AcDbCircle
 10
-8.260000000000741
 20
41.08000000000008
 40
0.5
  0
CIRCLE
  5
16F
100
AcDbEntity
  8
UB P-03231
  6
ByLayer
 62
  256
370
   -1
100
AcDbCircle
 10
-5.720000000000869
 20
41.08000000000009
 40
0.5
  0
CIRCLE
  5
170
100
AcDbEntity
  8
UB P-03231
  6
ByLayer
 62
  256
370
   -1
100
AcDbCircle
 10
-23.50000000000002
 20
43.62000000000006
 40
0.5
  0
CIRCLE
  5
171
100
AcDbEntity
  8
UB P-03231
  6
ByLayer
 62
  256
370
   -1
100
AcDbCircle
 10
-26.03999999999991
 20
43.62000000000006
 40
0.5
  0
CIRCLE
  5
172
100
AcDbEntity
  8
UB P-03231
  6
ByLayer
 62
  256
370
   -1
100
AcDbCircle
 10
-28.57999999999981
 20
43.62000000000006
 40
0.5
  0
CIRCLE
  5
173
100
AcDbEntity
  8
UB P-03231
  6
ByLayer
 62
  256
370
   -1
100
AcDbCircle
 10
-31.1199999999997
 20
43.62000000000006
 40
0.5
  0
CIRCLE
  5
174
100
AcDbEntity
  8
UB P-03231
  6
ByLayer
 62
  256
370
   -1
100
AcDbCircle
 10
-33.65999999999959
 20
43.62000000000006
 40
0.5
  0
CIRCLE
  5
175
100
AcDbEntity
  8
UB P-03231
  6
ByLayer
 62
  256
370
   -1
100
AcDbCircle
 10
-36.19999999999948
 20
43.62000000000006
 40
0.5
  0
CIRCLE
  5
176
100
AcDbEntity
  8
UB P-03231
  6
ByLayer
 62
  256
370
   -1
100
AcDbCircle
 10
-38.73999999999938
 20
43.62000000000006
 40
0.5
  0
CIRCLE
  5
177
100
AcDbEntity
  8
UB P-03231
  6
ByLayer
 62
  256
370
   -1
100
AcDbCircle
 10
-41.27999999999927
 20
43.62000000000006
 40
0.5
  0
CIRCLE
  5
178
100
AcDbEntity
  8
UB P-03231
  6
ByLayer
 62
  256
370
   -1
100
AcDbCircle
 10
-20.96000000000014
 20
43.62000000000007
 40
0.5
  0
CIRCLE
  5
179
100
AcDbEntity
  8
UB P-03231
  6
ByLayer
 62
  256
370
   -1
100
AcDbCircle
 10
-18.42000000000026
 20
43.62000000000008
 40
0.5
  0
CIRCLE
  5
17A
100
AcDbEntity
  8
UB P-03231
  6
ByLayer
 62
  256
370
   -1
100
AcDbCircle
 10
-15.88000000000039
 20
43.62000000000008
 40
0.5
  0
CIRCLE
  5
17B
100
AcDbEntity
  8
UB P-03231
  6
ByLayer
 62
  256
370
   -1
100
AcDbCircle
 10
-13.34000000000051
 20
43.62000000000009
 40
0.5
  0
CIRCLE
  5
17C
100
AcDbEntity
  8
UB P-03231
  6
ByLayer
 62
  256
370
   -1
100
AcDbCircle
 10
-10.80000000000063
 20
43.6200000000001
 40
0.5
  0
CIRCLE
  5
17D
100
AcDbEntity
  8
UB P-03231
  6
ByLayer
 62
  256
370
   -1
100
AcDbCircle
 10
-8.260000000000751
 20
43.6200000000001
 40
0.5
  0
CIRCLE
  5
17E
100
AcDbEntity
  8
UB P-03231
  6
ByLayer
 62
  256
370
   -1
100
AcDbCircle
 10
-5.720000000000869
 20
43.62000000000011
 40
0.5
  0
CIRCLE
  5
17F
100
AcDbEntity
  8
UB P-03231
  6
ByLayer
 62
  256
370
   -1
100
AcDbCircle
 10
-23.50000000000003
 20
46.16000000000008
 40
0.5
  0
CIRCLE
  5
180
100
AcDbEntity
  8
UB P-03231
  6
ByLayer
 62
  256
370
   -1
100
AcDbCircle
 10
-26.03999999999992
 20
46.16000000000008
 40
0.5
  0
CIRCLE
  5
181
100
AcDbEntity
  8
UB P-03231
  6
ByLayer
 62
  256
370
   -1
100
AcDbCircle
 10
-28.57999999999981
 20
46.16000000000008
 40
0.5
  0
CIRCLE
  5
182
100
AcDbEntity
  8
UB P-03231
  6
ByLayer
 62
  256
370
   -1
100
AcDbCircle
 10
-31.11999999999971
 20
46.16000000000008
 40
0.5
  0
CIRCLE
  5
183
100
AcDbEntity
  8
UB P-03231
  6
ByLayer
 62
  256
370
   -1
100
AcDbCircle
 10
-33.6599999999996
 20
46.16000000000008
 40
0.5
  0
CIRCLE
  5
184
100
AcDbEntity
  8
UB P-03231
  6
ByLayer
 62
  256
370
   -1
100
AcDbCircle
 10
-36.19999999999949
 20
46.16000000000008
 40
0.5
  0
CIRCLE
  5
185
100
AcDbEntity
  8
UB P-03231
  6
ByLayer
 62
  256
370
   -1
100
AcDbCircle
 10
-38.73999999999938
 20
46.16000000000008
 40
0.5
  0
CIRCLE
  5
186
100
AcDbEntity
  8
UB P-03231
  6
ByLayer
 62
  256
370
   -1
100
AcDbCircle
 10
-41.27999999999928
 20
46.16000000000008
 40
0.5
  0
CIRCLE
  5
187
100
AcDbEntity
  8
UB P-03231
  6
ByLayer
 62
  256
370
   -1
100
AcDbCircle
 10
-20.96000000000015
 20
46.16000000000009
 40
0.5
  0
CIRCLE
  5
188
100
AcDbEntity
  8
UB P-03231
  6
ByLayer
 62
  256
370
   -1
100
AcDbCircle
 10
-18.42000000000027
 20
46.1600000000001
 40
0.5
  0
CIRCLE
  5
189
100
AcDbEntity
  8
UB P-03231
  6
ByLayer
 62
  256
370
   -1
100
AcDbCircle
 10
-15.88000000000039
 20
46.1600000000001
 40
0.5
  0
CIRCLE
  5
18A
100
AcDbEntity
  8
UB P-03231
  6
ByLayer
 62
  256
370
   -1
100
AcDbCircle
 10
-13.34000000000052
 20
46.16000000000011
 40
0.5
  0
CIRCLE
  5
18B
100
AcDbEntity
  8
UB P-03231
  6
ByLayer
 62
  256
370
   -1
100
AcDbCircle
 10
-10.80000000000064
 20
46.16000000000012
 40
0.5
  0
CIRCLE
  5
18C
100
AcDbEntity
  8
UB P-03231
  6
ByLayer
 62
  256
370
   -1
100
AcDbCircle
 10
-8.260000000000758
 20
46.16000000000012
 40
0.5
  0
CIRCLE
  5
18D
100
AcDbEntity
  8
UB P-03231
  6
ByLayer
 62
  256
370
   -1
100
AcDbCircle
 10
-5.72000000000088
 20
46.16000000000013
 40
0.5
  0
CIRCLE
  5
18E
100
AcDbEntity
  8
UB P-03231
  6
ByLayer
 62
  256
370
   -1
100
AcDbCircle
 10
-23.50000000000004
 20
48.7000000000001
 40
0.5
  0
CIRCLE
  5
18F
100
AcDbEntity
  8
UB P-03231
  6
ByLayer
 62
  256
370
   -1
100
AcDbCircle
 10
-26.03999999999993
 20
48.7000000000001
 40
0.5
  0
CIRCLE
  5
190
100
AcDbEntity
  8
UB P-03231
  6
ByLayer
 62
  256
370
   -1
100
AcDbCircle
 10
-28.57999999999982
 20
48.7000000000001
 40
0.5
  0
CIRCLE
  5
191
100
AcDbEntity
  8
UB P-03231
  6
ByLayer
 62
  256
370
   -1
100
AcDbCircle
 10
-31.11999999999971
 20
48.7000000000001
 40
0.5
  0
CIRCLE
  5
192
100
AcDbEntity
  8
UB P-03231
  6
ByLayer
 62
  256
370
   -1
100
AcDbCircle
 10
-33.65999999999961
 20
48.7000000000001
 40
0.5
  0
CIRCLE
  5
193
100
AcDbEntity
  8
UB P-03231
  6
ByLayer
 62
  256
370
   -1
100
AcDbCircle
 10
-36.1999999999995
 20
48.7000000000001
 40
0.5
  0
CIRCLE
  5
194
100
AcDbEntity
  8
UB P-03231
  6
ByLayer
 62
  256
370
   -1
100
AcDbCircle
 10
-38.73999999999939
 20
48.7000000000001
 40
0.5
  0
CIRCLE
  5
195
100
AcDbEntity
  8
UB P-03231
  6
ByLayer
 62
  256
370
   -1
100
AcDbCircle
 10
-41.27999999999928
 20
48.7000000000001
 40
0.5
  0
CIRCLE
  5
196
100
AcDbEntity
  8
UB P-03231
  6
ByLayer
 62
  256
370
   -1
100
AcDbCircle
 10
-20.96000000000016
 20
48.70000000000011
 40
0.5
  0
CIRCLE
  5
197
100
AcDbEntity
  8
UB P-03231
  6
ByLayer
 62
  256
370
   -1
100
AcDbCircle
 10
-18.42000000000028
 20
48.70000000000012
 40
0.5
  0
CIRCLE
  5
198
100
AcDbEntity
  8
UB P-03231
  6
ByLayer
 62
  256
370
   -1
100
AcDbCircle
 10
-15.8800000000004
 20
48.70000000000012
 40
0.5
  0
CIRCLE
  5
199
100
AcDbEntity
  8
UB P-03231
  6
ByLayer
 62
  256
370
   -1
100
AcDbCircle
 10
-13.34000000000052
 20
48.70000000000013
 40
0.5
  0
CIRCLE
  5
19A
100
AcDbEntity
  8
UB P-03231
  6
ByLayer
 62
  256
370
   -1
100
AcDbCircle
 10
-10.80000000000064
 20
48.70000000000014
 40
0.5
  0
CIRCLE
  5
19B
100
AcDbEntity
  8
UB P-03231
  6
ByLayer
 62
  256
370
   -1
100
AcDbCircle
 10
-8.260000000000769
 20
48.70000000000014
 40
0.5
  0
CIRCLE
  5
19C
100
AcDbEntity
  8
UB P-03231
  6
ByLayer
 62
  256
370
   -1
100
AcDbCircle
 10
-5.720000000000891
 20
48.70000000000015
 40
0.5
  0
CIRCLE
  5
19D
100
AcDbEntity
  8
UB P-03231
  6
ByLayer
 62
  256
370
   -1
100
AcDbCircle
 10
-23.50000000000004
 20
51.24000000000012
 40
0.5
  0
CIRCLE
  5
19E
100
AcDbEntity
  8
UB P-03231
  6
ByLayer
 62
  256
370
   -1
100
AcDbCircle
 10
-26.03999999999994
 20
51.24000000000012
 40
0.5
  0
CIRCLE
  5
19F
100
AcDbEntity
  8
UB P-03231
  6
ByLayer
 62
  256
370
   -1
100
AcDbCircle
 10
-28.57999999999983
 20
51.24000000000012
 40
0.5
  0
CIRCLE
  5
1A0
100
AcDbEntity
  8
UB P-03231
  6
ByLayer
 62
  256
370
   -1
100
AcDbCircle
 10
-31.11999999999972
 20
51.24000000000012
 40
0.5
  0
CIRCLE
  5
1A1
100
AcDbEntity
  8
UB P-03231
  6
ByLayer
 62
  256
370
   -1
100
AcDbCircle
 10
-33.65999999999961
 20
51.24000000000012
 40
0.5
  0
CIRCLE
  5
1A2
100
AcDbEntity
  8
UB P-03231
  6
ByLayer
 62
  256
370
   -1
100
AcDbCircle
 10
-36.19999999999951
 20
51.24000000000012
 40
0.5
  0
CIRCLE
  5
1A3
100
AcDbEntity
  8
UB P-03231
  6
ByLayer
 62
  256
370
   -1
100
AcDbCircle
 10
-38.7399999999994
 20
51.24000000000012
 40
0.5
  0
CIRCLE
  5
1A4
100
AcDbEntity
  8
UB P-03231
  6
ByLayer
 62
  256
370
   -1
100
AcDbCircle
 10
-41.27999999999929
 20
51.24000000000012
 40
0.5
  0
CIRCLE
  5
1A5
100
AcDbEntity
  8
UB P-03231
  6
ByLayer
 62
  256
370
   -1
100
AcDbCircle
 10
-20.96000000000016
 20
51.24000000000013
 40
0.5
  0
CIRCLE
  5
1A6
100
AcDbEntity
  8
UB P-03231
  6
ByLayer
 62
  256
370
   -1
100
AcDbCircle
 10
-18.42000000000029
 20
51.24000000000014
 40
0.5
  0
CIRCLE
  5
1A7
100
AcDbEntity
  8
UB P-03231
  6
ByLayer
 62
  256
370
   -1
100
AcDbCircle
 10
-15.88000000000041
 20
51.24000000000014
 40
0.5
  0
CIRCLE
  5
1A8
100
AcDbEntity
  8
UB P-03231
  6
ByLayer
 62
  256
370
   -1
100
AcDbCircle
 10
-13.34000000000053
 20
51.24000000000015
 40
0.5
  0
CIRCLE
  5
1A9
100
AcDbEntity
  8
UB P-03231
  6
ByLayer
 62
  256
370
   -1
100
AcDbCircle
 10
-10.80000000000065
 20
51.24000000000016
 40
0.5
  0
CIRCLE
  5
1AA
100
AcDbEntity
  8
UB P-03231
  6
ByLayer
 62
  256
370
   -1
100
AcDbCircle
 10
-8.260000000000769
 20
51.24000000000017
 40
0.5
  0
CIRCLE
  5
1AB
100
AcDbEntity
  8
UB P-03231
  6
ByLayer
 62
  256
370
   -1
100
AcDbCircle
 10
-5.720000000000891
 20
51.24000000000017
 40
0.5
  0
CIRCLE
  5
1AC
100
AcDbEntity
  8
UB P-03231
  6
ByLayer
 62
  256
370
   -1
100
AcDbCircle
 10
-23.50000000000005
 20
53.78000000000014
 40
0.5
  0
CIRCLE
  5
1AD
100
AcDbEntity
  8
UB P-03231
  6
ByLayer
 62
  256
370
   -1
100
AcDbCircle
 10
-26.03999999999994
 20
53.78000000000014
 40
0.5
  0
CIRCLE
  5
1AE
100
AcDbEntity
  8
UB P-03231
  6
ByLayer
 62
  256
370
   -1
100
AcDbCircle
 10
-28.57999999999983
 20
53.78000000000014
 40
0.5
  0
CIRCLE
  5
1AF
100
AcDbEntity
  8
UB P-03231
  6
ByLayer
 62
  256
370
   -1
100
AcDbCircle
 10
-31.11999999999973
 20
53.78000000000014
 40
0.5
  0
CIRCLE
  5
1B0
100
AcDbEntity
  8
UB P-03231
  6
ByLayer
 62
  256
370
   -1
100
AcDbCircle
 10
-33.65999999999962
 20
53.78000000000014
 40
0.5
  0
CIRCLE
  5
1B1
100
AcDbEntity
  8
UB P-03231
  6
ByLayer
 62
  256
370
   -1
100
AcDbCircle
 10
-36.19999999999951
 20
53.78000000000014
 40
0.5
  0
CIRCLE
  5
1B2
100
AcDbEntity
  8
UB P-03231
  6
ByLayer
 62
  256
370
   -1
100
AcDbCircle
 10
-38.73999999999941
 20
53.78000000000014
 40
0.5
  0
CIRCLE
  5
1B3
100
AcDbEntity
  8
UB P-03231
  6
ByLayer
 62
  256
370
   -1
100
AcDbCircle
 10
-41.2799999999993
 20
53.78000000000014
 40
0.5
  0
CIRCLE
  5
1B4
100
AcDbEntity
  8
UB P-03231
  6
ByLayer
 62
  256
370
   -1
100
AcDbCircle
 10
-20.96000000000017
 20
53.78000000000015
 40
0.5
  0
CIRCLE
  5
1B5
100
AcDbEntity
  8
UB P-03231
  6
ByLayer
 62
  256
370
   -1
100
AcDbCircle
 10
-18.42000000000029
 20
53.78000000000016
 40
0.5
  0
CIRCLE
  5
1B6
100
AcDbEntity
  8
UB P-03231
  6
ByLayer
 62
  256
370
   -1
100
AcDbCircle
 10
-15.88000000000041
 20
53.78000000000016
 40
0.5
  0
CIRCLE
  5
1B7
100
AcDbEntity
  8
UB P-03231
  6
ByLayer
 62
  256
370
   -1
100
AcDbCircle
 10
-13.34000000000054
 20
53.78000000000017
 40
0.5
  0
CIRCLE
  5
1B8
100
AcDbEntity
  8
UB P-03231
  6
ByLayer
 62
  256
370
   -1
100
AcDbCircle
 10
-10.80000000000066
 20
53.78000000000018
 40
0.5
  0
CIRCLE
  5
1B9
100
AcDbEntity
  8
UB P-03231
  6
ByLayer
 62
  256
370
   -1
100
AcDbCircle
 10
-8.26000000000078
 20
53.78000000000019
 40
0.5
  0
CIRCLE
  5
1BA
100
AcDbEntity
  8
UB P-03231
  6
ByLayer
 62
  256
370
   -1
100
AcDbCircle
 10
-5.720000000000899
 20
53.78000000000019
 40
0.5
  0
CIRCLE
  5
1BB
100
AcDbEntity
  8
UB P-03231
  6
ByLayer
 62
  256
370
   -1
100
AcDbCircle
 10
-23.50000000000006
 20
56.32000000000016
 40
0.5
  0
CIRCLE
  5
1BC
100
AcDbEntity
  8
UB P-03231
  6
ByLayer
 62
  256
370
   -1
100
AcDbCircle
 10
-26.03999999999995
 20
56.32000000000016
 40
0.5
  0
CIRCLE
  5
1BD
100
AcDbEntity
  8
UB P-03231
  6
ByLayer
 62
  256
370
   -1
100
AcDbCircle
 10
-28.57999999999984
 20
56.32000000000016
 40
0.5
  0
CIRCLE
  5
1BE
100
AcDbEntity
  8
UB P-03231
  6
ByLayer
 62
  256
370
   -1
100
AcDbCircle
 10
-31.11999999999973
 20
56.32000000000016
 40
0.5
  0
CIRCLE
  5
1BF
100
AcDbEntity
  8
UB P-03231
  6
ByLayer
 62
  256
370
   -1
100
AcDbCircle
 10
-33.65999999999963
 20
56.32000000000016
 40
0.5
  0
CIRCLE
  5
1C0
100
AcDbEntity
  8
UB P-03231
  6
ByLayer
 62
  256
370
   -1
100
AcDbCircle
 10
-36.19999999999952
 20
56.32000000000016
 40
0.5
  0
CIRCLE
  5
1C1
100
AcDbEntity
  8
UB P-03231
  6
ByLayer
 62
  256
370
   -1
100
AcDbCircle
 10
-38.73999999999941
 20
56.32000000000016
 40
0.5
  0
CIRCLE
  5
1C2
100
AcDbEntity
  8
UB P-03231
  6
ByLayer
 62
  256
370
   -1
100
AcDbCircle
 10
-41.2799999999993
 20
56.32000000000016
 40
0.5
  0
CIRCLE
  5
1C3
100
AcDbEntity
  8
UB P-03231
  6
ByLayer
 62
  256
370
   -1
100
AcDbCircle
 10
-20.96000000000018
 20
56.32000000000017
 40
0.5
  0
CIRCLE
  5
1C4
100
AcDbEntity
  8
UB P-03231
  6
ByLayer
 62
  256
370
   -1
100
AcDbCircle
 10
-18.4200000000003
 20
56.32000000000018
 40
0.5
  0
CIRCLE
  5
1C5
100
AcDbEntity
  8
UB P-03231
  6
ByLayer
 62
  256
370
   -1
100
AcDbCircle
 10
-15.88000000000042
 20
56.32000000000019
 40
0.5
  0
CIRCLE
  5
1C6
100
AcDbEntity
  8
UB P-03231
  6
ByLayer
 62
  256
370
   -1
100
AcDbCircle
 10
-13.34000000000054
 20
56.32000000000019
 40
0.5
  0
CIRCLE
  5
1C7
100
AcDbEntity
  8
UB P-03231
  6
ByLayer
 62
  256
370
   -1
100
AcDbCircle
 10
-10.80000000000067
 20
56.3200000000002
 40
0.5
  0
CIRCLE
  5
1C8
100
AcDbEntity
  8
UB P-03231
  6
ByLayer
 62
  256
370
   -1
100
AcDbCircle
 10
-8.26000000000079
 20
56.32000000000021
 40
0.5
  0
CIRCLE
  5
1C9
100
AcDbEntity
  8
UB P-03231
  6
ByLayer
 62
  256
370
   -1
100
AcDbCircle
 10
-5.72000000000091
 20
56.32000000000021
 40
0.5
  0
CIRCLE
  5
1CA
100
AcDbEntity
  8
UB P-03231
  6
ByLayer
 62
  256
370
   -1
100
AcDbCircle
 10
-23.50000000000006
 20
58.86000000000018
 40
0.5
  0
CIRCLE
  5
1CB
100
AcDbEntity
  8
UB P-03231
  6
ByLayer
 62
  256
370
   -1
100
AcDbCircle
 10
-26.03999999999996
 20
58.86000000000018
 40
0.5
  0
CIRCLE
  5
1CC
100
AcDbEntity
  8
UB P-03231
  6
ByLayer
 62
  256
370
   -1
100
AcDbCircle
 10
-28.57999999999985
 20
58.86000000000018
 40
0.5
  0
CIRCLE
  5
1CD
100
AcDbEntity
  8
UB P-03231
  6
ByLayer
 62
  256
370
   -1
100
AcDbCircle
 10
-31.11999999999974
 20
58.86000000000018
 40
0.5
  0
CIRCLE
  5
1CE
100
AcDbEntity
  8
UB P-03231
  6
ByLayer
 62
  256
370
   -1
100
AcDbCircle
 10
-33.65999999999963
 20
58.86000000000018
 40
0.5
  0
CIRCLE
  5
1CF
100
AcDbEntity
  8
UB P-03231
  6
ByLayer
 62
  256
370
   -1
100
AcDbCircle
 10
-36.19999999999953
 20
58.86000000000018
 40
0.5
  0
CIRCLE
  5
1D0
100
AcDbEntity
  8
UB P-03231
  6
ByLayer
 62
  256
370
   -1
100
AcDbCircle
 10
-38.73999999999942
 20
58.86000000000018
 40
0.5
  0
CIRCLE
  5
1D1
100
AcDbEntity
  8
UB P-03231
  6
ByLayer
 62
  256
370
   -1
100
AcDbCircle
 10
-41.27999999999931
 20
58.86000000000018
 40
0.5
  0
CIRCLE
  5
1D2
100
AcDbEntity
  8
UB P-03231
  6
ByLayer
 62
  256
370
   -1
100
AcDbCircle
 10
-20.96000000000019
 20
58.86000000000019
 40
0.5
  0
CIRCLE
  5
1D3
100
AcDbEntity
  8
UB P-03231
  6
ByLayer
 62
  256
370
   -1
100
AcDbCircle
 10
-18.42000000000031
 20
58.8600000000002
 40
0.5
  0
CIRCLE
  5
1D4
100
AcDbEntity
  8
UB P-03231
  6
ByLayer
 62
  256
370
   -1
100
AcDbCircle
 10
-15.88000000000043
 20
58.86000000000021
 40
0.5
  0
CIRCLE
  5
1D5
100
AcDbEntity
  8
UB P-03231
  6
ByLayer
 62
  256
370
   -1
100
AcDbCircle
 10
-13.34000000000055
 20
58.86000000000021
 40
0.5
  0
CIRCLE
  5
1D6
100
AcDbEntity
  8
UB P-03231
  6
ByLayer
 62
  256
370
   -1
100
AcDbCircle
 10
-10.80000000000067
 20
58.86000000000022
 40
0.5
  0
CIRCLE
  5
1D7
100
AcDbEntity
  8
UB P-03231
  6
ByLayer
 62
  256
370
   -1
100
AcDbCircle
 10
-8.26000000000079
 20
58.86000000000023
 40
0.5
  0
CIRCLE
  5
1D8
100
AcDbEntity
  8
UB P-03231
  6
ByLayer
 62
  256
370
   -1
100
AcDbCircle
 10
-5.720000000000921
 20
58.86000000000023
 40
0.5
  0
CIRCLE
  5
1D9
100
AcDbEntity
  8
UB P-03231
  6
ByLayer
 62
  256
370
   -1
100
AcDbCircle
 10
-23.50000000000007
 20
61.4000000000002
 40
0.5
  0
CIRCLE
  5
1DA
100
AcDbEntity
  8
UB P-03231
  6
ByLayer
 62
  256
370
   -1
100
AcDbCircle
 10
-26.03999999999996
 20
61.4000000000002
 40
0.5
  0
CIRCLE
  5
1DB
100
AcDbEntity
  8
UB P-03231
  6
ByLayer
 62
  256
370
   -1
100
AcDbCircle
 10
-28.57999999999986
 20
61.4000000000002
 40
0.5
  0
CIRCLE
  5
1DC
100
AcDbEntity
  8
UB P-03231
  6
ByLayer
 62
  256
370
   -1
100
AcDbCircle
 10
-31.11999999999975
 20
61.4000000000002
 40
0.5
  0
CIRCLE
  5
1DD
100
AcDbEntity
  8
UB P-03231
  6
ByLayer
 62
  256
370
   -1
100
AcDbCircle
 10
-33.65999999999964
 20
61.4000000000002
 40
0.5
  0
CIRCLE
  5
1DE
100
AcDbEntity
  8
UB P-03231
  6
ByLayer
 62
  256
370
   -1
100
AcDbCircle
 10
-36.19999999999953
 20
61.4000000000002
 40
0.5
  0
CIRCLE
  5
1DF
100
AcDbEntity
  8
UB P-03231
  6
ByLayer
 62
  256
370
   -1
100
AcDbCircle
 10
-38.73999999999943
 20
61.4000000000002
 40
0.5
  0
CIRCLE
  5
1E0
100
AcDbEntity
  8
UB P-03231
  6
ByLayer
 62
  256
370
   -1
100
AcDbCircle
 10
-41.27999999999932
 20
61.4000000000002
 40
0.5
  0
CIRCLE
  5
1E1
100
AcDbEntity
  8
UB P-03231
  6
ByLayer
 62
  256
370
   -1
100
AcDbCircle
 10
-20.96000000000019
 20
61.40000000000021
 40
0.5
  0
CIRCLE
  5
1E2
100
AcDbEntity
  8
UB P-03231
  6
ByLayer
 62
  256
370
   -1
100
AcDbCircle
 10
-18.42000000000031
 20
61.40000000000022
 40
0.5
  0
CIRCLE
  5
1E3
100
AcDbEntity
  8
UB P-03231
  6
ByLayer
 62
  256
370
   -1
100
AcDbCircle
 10
-15.88000000000044
 20
61.40000000000023
 40
0.5
  0
CIRCLE
  5
1E4
100
AcDbEntity
  8
UB P-03231
  6
ByLayer
 62
  256
370
   -1
100
AcDbCircle
 10
-13.34000000000056
 20
61.40000000000023
 40
0.5
  0
CIRCLE
  5
1E5
100
AcDbEntity
  8
UB P-03231
  6
ByLayer
 62
  256
370
   -1
100
AcDbCircle
 10
-10.80000000000068
 20
61.40000000000024
 40
0.5
  0
CIRCLE
  5
1E6
100
AcDbEntity
  8
UB P-03231
  6
ByLayer
 62
  256
370
   -1
100
AcDbCircle
 10
-8.260000000000801
 20
61.40000000000025
 40
0.5
  0
CIRCLE
  5
1E7
100
AcDbEntity
  8
UB P-03231
  6
ByLayer
 62
  256
370
   -1
100
AcDbCircle
 10
-5.720000000000921
 20
61.40000000000025
 40
0.5
  0
CIRCLE
  5
1E8
100
AcDbEntity
  8
UB P-03231
  6
ByLayer
 62
  256
370
   -1
100
AcDbCircle
 10
-23.50000000000008
 20
63.94000000000023
 40
0.5
  0
CIRCLE
  5
1E9
100
AcDbEntity
  8
UB P-03231
  6
ByLayer
 62
  256
370
   -1
100
AcDbCircle
 10
-26.03999999999997
 20
63.94000000000023
 40
0.5
  0
CIRCLE
  5
1EA
100
AcDbEntity
  8
UB P-03231
  6
ByLayer
 62
  256
370
   -1
100
AcDbCircle
 10
-28.57999999999986
 20
63.94000000000023
 40
0.5
  0
CIRCLE
  5
1EB
100
AcDbEntity
  8
UB P-03231
  6
ByLayer
 62
  256
370
   -1
100
AcDbCircle
 10
-31.11999999999976
 20
63.94000000000023
 40
0.5
  0
CIRCLE
  5
1EC
100
AcDbEntity
  8
UB P-03231
  6
ByLayer
 62
  256
370
   -1
100
AcDbCircle
 10
-33.65999999999965
 20
63.94000000000023
 40
0.5
  0
CIRCLE
  5
1ED
100
AcDbEntity
  8
UB P-03231
  6
ByLayer
 62
  256
370
   -1
100
AcDbCircle
 10
-36.19999999999954
 20
63.94000000000023
 40
0.5
  0
CIRCLE
  5
1EE
100
AcDbEntity
  8
UB P-03231
  6
ByLayer
 62
  256
370
   -1
100
AcDbCircle
 10
-38.73999999999943
 20
63.94000000000023
 40
0.5
  0
CIRCLE
  5
1EF
100
AcDbEntity
  8
UB P-03231
  6
ByLayer
 62
  256
370
   -1
100
AcDbCircle
 10
-41.27999999999933
 20
63.94000000000023
 40
0.5
  0
CIRCLE
  5
1F0
100
AcDbEntity
  8
UB P-03231
  6
ByLayer
 62
  256
370
   -1
100
AcDbCircle
 10
-20.9600000000002
 20
63.94000000000023
 40
0.5
  0
CIRCLE
  5
1F1
100
AcDbEntity
  8
UB P-03231
  6
ByLayer
 62
  256
370
   -1
100
AcDbCircle
 10
-18.42000000000032
 20
63.94000000000024
 40
0.5
  0
CIRCLE
  5
1F2
100
AcDbEntity
  8
UB P-03231
  6
ByLayer
 62
  256
370
   -1
100
AcDbCircle
 10
-15.88000000000044
 20
63.94000000000025
 40
0.5
  0
CIRCLE
  5
1F3
100
AcDbEntity
  8
UB P-03231
  6
ByLayer
 62
  256
370
   -1
100
AcDbCircle
 10
-13.34000000000056
 20
63.94000000000025
 40
0.5
  0
CIRCLE
  5
1F4
100
AcDbEntity
  8
UB P-03231
  6
ByLayer
 62
  256
370
   -1
100
AcDbCircle
 10
-10.80000000000069
 20
63.94000000000026
 40
0.5
  0
CIRCLE
  5
1F5
100
AcDbEntity
  8
UB P-03231
  6
ByLayer
 62
  256
370
   -1
100
AcDbCircle
 10
-8.260000000000812
 20
63.94000000000027
 40
0.5
  0
CIRCLE
  5
1F6
100
AcDbEntity
  8
UB P-03231
  6
ByLayer
 62
  256
370
   -1
100
AcDbCircle
 10
-5.72000000000093
 20
63.94000000000027
 40
0.5
  0
CIRCLE
  5
1F7
100
AcDbEntity
  8
UB P-03231
  6
ByLayer
 62
  256
370
   -1
100
AcDbCircle
 10
-23.50000000000009
 20
66.48000000000025
 40
0.5
  0
CIRCLE
  5
1F8
100
AcDbEntity
  8
UB P-03231
  6
ByLayer
 62
  256
370
   -1
100
AcDbCircle
 10
-26.03999999999998
 20
66.48000000000025
 40
0.5
  0
CIRCLE
  5
1F9
100
AcDbEntity
  8
UB P-03231
  6
ByLayer
 62
  256
370
   -1
100
AcDbCircle
 10
-28.57999999999987
 20
66.48000000000025
 40
0.5
  0
CIRCLE
  5
1FA
100
AcDbEntity
  8
UB P-03231
  6
ByLayer
 62
  256
370
   -1
100
AcDbCircle
 10
-31.11999999999976
 20
66.48000000000025
 40
0.5
  0
CIRCLE
  5
1FB
100
AcDbEntity
  8
UB P-03231
  6
ByLayer
 62
  256
370
   -1
100
AcDbCircle
 10
-33.65999999999966
 20
66.48000000000025
 40
0.5
  0
CIRCLE
  5
1FC
100
AcDbEntity
  8
UB P-03231
  6
ByLayer
 62
  256
370
   -1
100
AcDbCircle
 10
-36.19999999999955
 20
66.48000000000025
 40
0.5
  0
CIRCLE
  5
1FD
100
AcDbEntity
  8
UB P-03231
  6
ByLayer
 62
  256
370
   -1
100
AcDbCircle
 10
-38.73999999999944
 20
66.48000000000025
 40
0.5
  0
CIRCLE
  5
1FE
100
AcDbEntity
  8
UB P-03231
  6
ByLayer
 62
  256
370
   -1
100
AcDbCircle
 10
-41.27999999999933
 20
66.48000000000025
 40
0.5
  0
CIRCLE
  5
1FF
100
AcDbEntity
  8
UB P-03231
  6
ByLayer
 62
  256
370
   -1
100
AcDbCircle
 10
-20.96000000000021
 20
66.48000000000025
 40
0.5
  0
CIRCLE
  5
200
100
AcDbEntity
  8
UB P-03231
  6
ByLayer
 62
  256
370
   -1
100
AcDbCircle
 10
-18.42000000000033
 20
66.48000000000026
 40
0.5
  0
CIRCLE
  5
201
100
AcDbEntity
  8
UB P-03231
  6
ByLayer
 62
  256
370
   -1
100
AcDbCircle
 10
-15.88000000000045
 20
66.48000000000027
 40
0.5
  0
CIRCLE
  5
202
100
AcDbEntity
  8
UB P-03231
  6
ByLayer
 62
  256
370
   -1
100
AcDbCircle
 10
-13.34000000000057
 20
66.48000000000027
 40
0.5
  0
CIRCLE
  5
203
100
AcDbEntity
  8
UB P-03231
  6
ByLayer
 62
  256
370
   -1
100
AcDbCircle
 10
-10.80000000000069
 20
66.48000000000027
 40
0.5
  0
CIRCLE
  5
204
100
AcDbEntity
  8
UB P-03231
  6
ByLayer
 62
  256
370
   -1
100
AcDbCircle
 10
-8.260000000000819
 20
66.48000000000029
 40
0.5
  0
CIRCLE
  5
205
100
AcDbEntity
  8
UB P-03231
  6
ByLayer
 62
  256
370
   -1
100
AcDbCircle
 10
-5.72000000000094
 20
66.4800000000003
 40
0.5
  0
CIRCLE
  5
206
100
AcDbEntity
  8
UB P-03231
  6
ByLayer
 62
  256
370
   -1
100
AcDbCircle
 10
-23.5
 20
33.45999999999999
 40
0.5
  0
CIRCLE
  5
207
100
AcDbEntity
  8
UB P-03231
  6
ByLayer
 62
  256
370
   -1
100
AcDbCircle
 10
-26.03999999999989
 20
33.45999999999999
 40
0.5
  0
CIRCLE
  5
208
100
AcDbEntity
  8
UB P-03231
  6
ByLayer
 62
  256
370
   -1
100
AcDbCircle
 10
-28.57999999999979
 20
33.45999999999999
 40
0.5
  0
CIRCLE
  5
209
100
AcDbEntity
  8
UB P-03231
  6
ByLayer
 62
  256
370
   -1
100
AcDbCircle
 10
-31.11999999999968
 20
33.45999999999999
 40
0.5
  0
CIRCLE
  5
20A
100
AcDbEntity
  8
UB P-03231
  6
ByLayer
 62
  256
370
   -1
100
AcDbCircle
 10
-33.65999999999957
 20
33.45999999999999
 40
0.5
  0
CIRCLE
  5
20B
100
AcDbEntity
  8
UB P-03231
  6
ByLayer
 62
  256
370
   -1
100
AcDbCircle
 10
-36.19999999999946
 20
33.45999999999999
 40
0.5
  0
CIRCLE
  5
20C
100
AcDbEntity
  8
UB P-03231
  6
ByLayer
 62
  256
370
   -1
100
AcDbCircle
 10
-38.73999999999936
 20
33.45999999999999
 40
0.5
  0
CIRCLE
  5
20D
100
AcDbEntity
  8
UB P-03231
  6
ByLayer
 62
  256
370
   -1
100
AcDbCircle
 10
-41.27999999999925
 20
33.45999999999999
 40
0.5
  0
CIRCLE
  5
20E
100
AcDbEntity
  8
UB P-03231
  6
ByLayer
 62
  256
370
   -1
100
AcDbCircle
 10
-20.96000000000012
 20
33.45999999999999
 40
0.5
  0
CIRCLE
  5
20F
100
AcDbEntity
  8
UB P-03231
  6
ByLayer
 62
  256
370
   -1
100
AcDbCircle
 10
-18.42000000000024
 20
33.46
 40
0.5
  0
CIRCLE
  5
210
100
AcDbEntity
  8
UB P-03231
  6
ByLayer
 62
  256
370
   -1
100
AcDbCircle
 10
-15.88000000000036
 20
33.46000000000001
 40
0.5
  0
CIRCLE
  5
211
100
AcDbEntity
  8
UB P-03231
  6
ByLayer
 62
  256
370
   -1
100
AcDbCircle
 10
-13.34000000000049
 20
33.46000000000002
 40
0.5
  0
CIRCLE
  5
212
100
AcDbEntity
  8
UB P-03231
  6
ByLayer
 62
  256
370
   -1
100
AcDbCircle
 10
-10.80000000000061
 20
33.46000000000002
 40
0.5
  0
CIRCLE
  5
213
100
AcDbEntity
  8
UB P-03231
  6
ByLayer
 62
  256
370
   -1
100
AcDbCircle
 10
-8.26000000000073
 20
33.46000000000003
 40
0.5
  0
CIRCLE
  5
214
100
AcDbEntity
  8
UB P-03231
  6
ByLayer
 62
  256
370
   -1
100
AcDbCircle
 10
-5.72000000000085
 20
33.46000000000004
 40
0.5
  0
CIRCLE
  5
215
100
AcDbEntity
  8
UB P-03231
  6
ByLayer
 62
  256
370
   -1
100
AcDbCircle
 10
-23.5
 20
30.91999999999997
 40
0.5
  0
CIRCLE
  5
216
100
AcDbEntity
  8
UB P-03231
  6
ByLayer
 62
  256
370
   -1
100
AcDbCircle
 10
-26.03999999999989
 20
30.91999999999997
 40
0.5
  0
CIRCLE
  5
217
100
AcDbEntity
  8
UB P-03231
  6
ByLayer
 62
  256
370
   -1
100
AcDbCircle
 10
-28.57999999999979
 20
30.91999999999997
 40
0.5
  0
CIRCLE
  5
218
100
AcDbEntity
  8
UB P-03231
  6
ByLayer
 62
  256
370
   -1
100
AcDbCircle
 10
-31.11999999999968
 20
30.91999999999997
 40
0.5
  0
CIRCLE
  5
219
100
AcDbEntity
  8
UB P-03231
  6
ByLayer
 62
  256
370
   -1
100
AcDbCircle
 10
-33.65999999999957
 20
30.91999999999997
 40
0.5
  0
CIRCLE
  5
21A
100
AcDbEntity
  8
UB P-03231
  6
ByLayer
 62
  256
370
   -1
100
AcDbCircle
 10
-36.19999999999946
 20
30.91999999999997
 40
0.5
  0
CIRCLE
  5
21B
100
AcDbEntity
  8
UB P-03231
  6
ByLayer
 62
  256
370
   -1
100
AcDbCircle
 10
-38.73999999999936
 20
30.91999999999997
 40
0.5
  0
CIRCLE
  5
21C
100
AcDbEntity
  8
UB P-03231
  6
ByLayer
 62
  256
370
   -1
100
AcDbCircle
 10
-41.27999999999925
 20
30.91999999999997
 40
0.5
  0
CIRCLE
  5
21D
100
AcDbEntity
  8
UB P-03231
  6
ByLayer
 62
  256
370
   -1
100
AcDbCircle
 10
-20.96000000000012
 20
30.91999999999998
 40
0.5
  0
CIRCLE
  5
21E
100
AcDbEntity
  8
UB P-03231
  6
ByLayer
 62
  256
370
   -1
100
AcDbCircle
 10
-18.42000000000024
 20
30.91999999999999
 40
0.5
  0
CIRCLE
  5
21F
100
AcDbEntity
  8
UB P-03231
  6
ByLayer
 62
  256
370
   -1
100
AcDbCircle
 10
-15.88000000000036
 20
30.91999999999999
 40
0.5
  0
CIRCLE
  5
220
100
AcDbEntity
  8
UB P-03231
  6
ByLayer
 62
  256
370
   -1
100
AcDbCircle
 10
-13.34000000000049
 20
30.92
 40
0.5
  0
CIRCLE
  5
221
100
AcDbEntity
  8
UB P-03231
  6
ByLayer
 62
  256
370
   -1
100
AcDbCircle
 10
-10.80000000000061
 20
30.92000000000001
 40
0.5
  0
CIRCLE
  5
222
100
AcDbEntity
  8
UB P-03231
  6
ByLayer
 62
  256
370
   -1
100
AcDbCircle
 10
-8.26000000000073
 20
30.92000000000002
 40
0.5
  0
CIRCLE
  5
223
100
AcDbEntity
  8
UB P-03231
  6
ByLayer
 62
  256
370
   -1
100
AcDbCircle
 10
-5.72000000000085
 20
30.92000000000002
 40
0.5
  0
CIRCLE
  5
224
100
AcDbEntity
  8
UB P-03231
  6
ByLayer
 62
  256
370
   -1
100
AcDbCircle
 10
-23.5
 20
28.37999999999996
 40
0.5
  0
CIRCLE
  5
225
100
AcDbEntity
  8
UB P-03231
  6
ByLayer
 62
  256
370
   -1
100
AcDbCircle
 10
-26.03999999999989
 20
28.37999999999996
 40
0.5
  0
CIRCLE
  5
226
100
AcDbEntity
  8
UB P-03231
  6
ByLayer
 62
  256
370
   -1
100
AcDbCircle
 10
-28.57999999999979
 20
28.37999999999996
 40
0.5
  0
CIRCLE
  5
227
100
AcDbEntity
  8
UB P-03231
  6
ByLayer
 62
  256
370
   -1
100
AcDbCircle
 10
-31.11999999999968
 20
28.37999999999996
 40
0.5
  0
CIRCLE
  5
228
100
AcDbEntity
  8
UB P-03231
  6
ByLayer
 62
  256
370
   -1
100
AcDbCircle
 10
-33.65999999999957
 20
28.37999999999996
 40
0.5
  0
CIRCLE
  5
229
100
AcDbEntity
  8
UB P-03231
  6
ByLayer
 62
  256
370
   -1
100
AcDbCircle
 10
-36.19999999999946
 20
28.37999999999996
 40
0.5
  0
CIRCLE
  5
22A
100
AcDbEntity
  8
UB P-03231
  6
ByLayer
 62
  256
370
   -1
100
AcDbCircle
 10
-38.73999999999936
 20
28.37999999999996
 40
0.5
  0
CIRCLE
  5
22B
100
AcDbEntity
  8
UB P-03231
  6
ByLayer
 62
  256
370
   -1
100
AcDbCircle
 10
-41.27999999999925
 20
28.37999999999996
 40
0.5
  0
CIRCLE
  5
22C
100
AcDbEntity
  8
UB P-03231
  6
ByLayer
 62
  256
370
   -1
100
AcDbCircle
 10
-20.96000000000012
 20
28.37999999999997
 40
0.5
  0
CIRCLE
  5
22D
100
AcDbEntity
  8
UB P-03231
  6
ByLayer
 62
  256
370
   -1
100
AcDbCircle
 10
-18.42000000000024
 20
28.37999999999997
 40
0.5
  0
CIRCLE
  5
22E
100
AcDbEntity
  8
UB P-03231
  6
ByLayer
 62
  256
370
   -1
100
AcDbCircle
 10
-15.88000000000036
 20
28.37999999999998
 40
0.5
  0
CIRCLE
  5
22F
100
AcDbEntity
  8
UB P-03231
  6
ByLayer
 62
  256
370
   -1
100
AcDbCircle
 10
-13.34000000000049
 20
28.37999999999999
 40
0.5
  0
CIRCLE
  5
230
100
AcDbEntity
  8
UB P-03231
  6
ByLayer
 62
  256
370
   -1
100
AcDbCircle
 10
-10.80000000000061
 20
28.38
 40
0.5
  0
CIRCLE
  5
231
100
AcDbEntity
  8
UB P-03231
  6
ByLayer
 62
  256
370
   -1
100
AcDbCircle
 10
-8.26000000000073
 20
28.38
 40
0.5
  0
CIRCLE
  5
232
100
AcDbEntity
  8
UB P-03231
  6
ByLayer
 62
  256
370
   -1
100
AcDbCircle
 10
-5.72000000000085
 20
28.38000000000001
 40
0.5
  0
CIRCLE
  5
233
100
AcDbEntity
  8
UB P-03231
  6
ByLayer
 62
  256
370
   -1
100
AcDbCircle
 10
-23.5
 20
25.83999999999995
 40
0.5
  0
CIRCLE
  5
234
100
AcDbEntity
  8
UB P-03231
  6
ByLayer
 62
  256
370
   -1
100
AcDbCircle
 10
-26.03999999999989
 20
25.83999999999995
 40
0.5
  0
CIRCLE
  5
235
100
AcDbEntity
  8
UB P-03231
  6
ByLayer
 62
  256
370
   -1
100
AcDbCircle
 10
-28.57999999999979
 20
25.83999999999995
 40
0.5
  0
CIRCLE
  5
236
100
AcDbEntity
  8
UB P-03231
  6
ByLayer
 62
  256
370
   -1
100
AcDbCircle
 10
-31.11999999999968
 20
25.83999999999995
 40
0.5
  0
CIRCLE
  5
237
100
AcDbEntity
  8
UB P-03231
  6
ByLayer
 62
  256
370
   -1
100
AcDbCircle
 10
-33.65999999999957
 20
25.83999999999995
 40
0.5
  0
CIRCLE
  5
238
100
AcDbEntity
  8
UB P-03231
  6
ByLayer
 62
  256
370
   -1
100
AcDbCircle
 10
-36.19999999999946
 20
25.83999999999995
 40
0.5
  0
CIRCLE
  5
239
100
AcDbEntity
  8
UB P-03231
  6
ByLayer
 62
  256
370
   -1
100
AcDbCircle
 10
-38.73999999999936
 20
25.83999999999995
 40
0.5
  0
CIRCLE
  5
23A
100
AcDbEntity
  8
UB P-03231
  6
ByLayer
 62
  256
370
   -1
100
AcDbCircle
 10
-41.27999999999925
 20
25.83999999999995
 40
0.5
  0
CIRCLE
  5
23B
100
AcDbEntity
  8
UB P-03231
  6
ByLayer
 62
  256
370
   -1
100
AcDbCircle
 10
-20.96000000000012
 20
25.83999999999995
 40
0.5
  0
CIRCLE
  5
23C
100
AcDbEntity
  8
UB P-03231
  6
ByLayer
 62
  256
370
   -1
100
AcDbCircle
 10
-18.42000000000024
 20
25.83999999999996
 40
0.5
  0
CIRCLE
  5
23D
100
AcDbEntity
  8
UB P-03231
  6
ByLayer
 62
  256
370
   -1
100
AcDbCircle
 10
-15.88000000000036
 20
25.83999999999997
 40
0.5
  0
CIRCLE
  5
23E
100
AcDbEntity
  8
UB P-03231
  6
ByLayer
 62
  256
370
   -1
100
AcDbCircle
 10
-13.34000000000049
 20
25.83999999999997
 40
0.5
  0
CIRCLE
  5
23F
100
AcDbEntity
  8
UB P-03231
  6
ByLayer
 62
  256
370
   -1
100
AcDbCircle
 10
-10.80000000000061
 20
25.83999999999998
 40
0.5
  0
CIRCLE
  5
240
100
AcDbEntity
  8
UB P-03231
  6
ByLayer
 62
  256
370
   -1
100
AcDbCircle
 10
-8.26000000000073
 20
25.83999999999999
 40
0.5
  0
CIRCLE
  5
241
100
AcDbEntity
  8
UB P-03231
  6
ByLayer
 62
  256
370
   -1
100
AcDbCircle
 10
-5.72000000000085
 20
25.84
 40
0.5
  0
CIRCLE
  5
242
100
AcDbEntity
  8
UB P-03231
  6
ByLayer
 62
  256
370
   -1
100
AcDbCircle
 10
-23.5
 20
23.29999999999993
 40
0.5
  0
CIRCLE
  5
243
100
AcDbEntity
  8
UB P-03231
  6
ByLayer
 62
  256
370
   -1
100
AcDbCircle
 10
-26.03999999999989
 20
23.29999999999993
 40
0.5
  0
CIRCLE
  5
244
100
AcDbEntity
  8
UB P-03231
  6
ByLayer
 62
  256
370
   -1
100
AcDbCircle
 10
-28.57999999999979
 20
23.29999999999993
 40
0.5
  0
CIRCLE
  5
245
100
AcDbEntity
  8
UB P-03231
  6
ByLayer
 62
  256
370
   -1
100
AcDbCircle
 10
-31.11999999999968
 20
23.29999999999993
 40
0.5
  0
CIRCLE
  5
246
100
AcDbEntity
  8
UB P-03231
  6
ByLayer
 62
  256
370
   -1
100
AcDbCircle
 10
-33.65999999999957
 20
23.29999999999993
 40
0.5
  0
CIRCLE
  5
247
100
AcDbEntity
  8
UB P-03231
  6
ByLayer
 62
  256
370
   -1
100
AcDbCircle
 10
-36.19999999999946
 20
23.29999999999993
 40
0.5
  0
CIRCLE
  5
248
100
AcDbEntity
  8
UB P-03231
  6
ByLayer
 62
  256
370
   -1
100
AcDbCircle
 10
-38.73999999999936
 20
23.29999999999993
 40
0.5
  0
CIRCLE
  5
249
100
AcDbEntity
  8
UB P-03231
  6
ByLayer
 62
  256
370
   -1
100
AcDbCircle
 10
-41.27999999999925
 20
23.29999999999993
 40
0.5
  0
CIRCLE
  5
24A
100
AcDbEntity
  8
UB P-03231
  6
ByLayer
 62
  256
370
   -1
100
AcDbCircle
 10
-20.96000000000012
 20
23.29999999999994
 40
0.5
  0
CIRCLE
  5
24B
100
AcDbEntity
  8
UB P-03231
  6
ByLayer
 62
  256
370
   -1
100
AcDbCircle
 10
-18.42000000000024
 20
23.29999999999995
 40
0.5
  0
CIRCLE
  5
24C
100
AcDbEntity
  8
UB P-03231
  6
ByLayer
 62
  256
370
   -1
100
AcDbCircle
 10
-15.88000000000036
 20
23.29999999999995
 40
0.5
  0
CIRCLE
  5
24D
100
AcDbEntity
  8
UB P-03231
  6
ByLayer
 62
  256
370
   -1
100
AcDbCircle
 10
-13.34000000000049
 20
23.29999999999996
 40
0.5
  0
CIRCLE
  5
24E
100
AcDbEntity
  8
UB P-03231
  6
ByLayer
 62
  256
370
   -1
100
AcDbCircle
 10
-10.80000000000061
 20
23.29999999999997
 40
0.5
  0
CIRCLE
  5
24F
100
AcDbEntity
  8
UB P-03231
  6
ByLayer
 62
  256
370
   -1
100
AcDbCircle
 10
-8.26000000000073
 20
23.29999999999998
 40
0.5
  0
CIRCLE
  5
250
100
AcDbEntity
  8
UB P-03231
  6
ByLayer
 62
  256
370
   -1
100
AcDbCircle
 10
-5.72000000000085
 20
23.29999999999998
 40
0.5
  0
CIRCLE
  5
251
100
AcDbEntity
  8
UB P-03231
  6
ByLayer
 62
  256
370
   -1
100
AcDbCircle
 10
-23.5
 20
20.75999999999992
 40
0.5
  0
CIRCLE
  5
252
100
AcDbEntity
  8
UB P-03231
  6
ByLayer
 62
  256
370
   -1
100
AcDbCircle
 10
-26.03999999999989
 20
20.75999999999992
 40
0.5
  0
CIRCLE
  5
253
100
AcDbEntity
  8
UB P-03231
  6
ByLayer
 62
  256
370
   -1
100
AcDbCircle
 10
-28.57999999999979
 20
20.75999999999992
 40
0.5
  0
CIRCLE
  5
254
100
AcDbEntity
  8
UB P-03231
  6
ByLayer
 62
  256
370
   -1
100
AcDbCircle
 10
-31.11999999999968
 20
20.75999999999992
 40
0.5
  0
CIRCLE
  5
255
100
AcDbEntity
  8
UB P-03231
  6
ByLayer
 62
  256
370
   -1
100
AcDbCircle
 10
-33.65999999999957
 20
20.75999999999992
 40
0.5
  0
CIRCLE
  5
256
100
AcDbEntity
  8
UB P-03231
  6
ByLayer
 62
  256
370
   -1
100
AcDbCircle
 10
-36.19999999999946
 20
20.75999999999992
 40
0.5
  0
CIRCLE
  5
257
100
AcDbEntity
  8
UB P-03231
  6
ByLayer
 62
  256
370
   -1
100
AcDbCircle
 10
-38.73999999999936
 20
20.75999999999992
 40
0.5
  0
CIRCLE
  5
258
100
AcDbEntity
  8
UB P-03231
  6
ByLayer
 62
  256
370
   -1
100
AcDbCircle
 10
-41.27999999999925
 20
20.75999999999992
 40
0.5
  0
CIRCLE
  5
259
100
AcDbEntity
  8
UB P-03231
  6
ByLayer
 62
  256
370
   -1
100
AcDbCircle
 10
-20.96000000000012
 20
20.75999999999993
 40
0.5
  0
CIRCLE
  5
25A
100
AcDbEntity
  8
UB P-03231
  6
ByLayer
 62
  256
370
   -1
100
AcDbCircle
 10
-18.42000000000024
 20
20.75999999999993
 40
0.5
  0
CIRCLE
  5
25B
100
AcDbEntity
  8
UB P-03231
  6
ByLayer
 62
  256
370
   -1
100
AcDbCircle
 10
-15.88000000000036
 20
20.75999999999994
 40
0.5
  0
CIRCLE
  5
25C
100
AcDbEntity
  8
UB P-03231
  6
ByLayer
 62
  256
370
   -1
100
AcDbCircle
 10
-13.34000000000049
 20
20.75999999999995
 40
0.5
  0
CIRCLE
  5
25D
100
AcDbEntity
  8
UB P-03231
  6
ByLayer
 62
  256
370
   -1
100
AcDbCircle
 10
-10.80000000000061
 20
20.75999999999996
 40
0.5
  0
CIRCLE
  5
25E
100
AcDbEntity
  8
UB P-03231
  6
ByLayer
 62
  256
370
   -1
100
AcDbCircle
 10
-8.26000000000073
 20
20.75999999999996
 40
0.5
  0
CIRCLE
  5
25F
100
AcDbEntity
  8
UB P-03231
  6
ByLayer
 62
  256
370
   -1
100
AcDbCircle
 10
-5.72000000000085
 20
20.75999999999997
 40
0.5
  0
CIRCLE
  5
260
100
AcDbEntity
  8
UB P-03231
  6
ByLayer
 62
  256
370
   -1
100
AcDbCircle
 10
-23.5
 20
18.21999999999991
 40
0.5
  0
CIRCLE
  5
261
100
AcDbEntity
  8
UB P-03231
  6
ByLayer
 62
  256
370
   -1
100
AcDbCircle
 10
-26.03999999999989
 20
18.21999999999991
 40
0.5
  0
CIRCLE
  5
262
100
AcDbEntity
  8
UB P-03231
  6
ByLayer
 62
  256
370
   -1
100
AcDbCircle
 10
-28.57999999999979
 20
18.21999999999991
 40
0.5
  0
CIRCLE
  5
263
100
AcDbEntity
  8
UB P-03231
  6
ByLayer
 62
  256
370
   -1
100
AcDbCircle
 10
-31.11999999999968
 20
18.21999999999991
 40
0.5
  0
CIRCLE
  5
264
100
AcDbEntity
  8
UB P-03231
  6
ByLayer
 62
  256
370
   -1
100
AcDbCircle
 10
-33.65999999999957
 20
18.21999999999991
 40
0.5
  0
CIRCLE
  5
265
100
AcDbEntity
  8
UB P-03231
  6
ByLayer
 62
  256
370
   -1
100
AcDbCircle
 10
-36.19999999999946
 20
18.21999999999991
 40
0.5
  0
CIRCLE
  5
266
100
AcDbEntity
  8
UB P-03231
  6
ByLayer
 62
  256
370
   -1
100
AcDbCircle
 10
-38.73999999999936
 20
18.21999999999991
 40
0.5
  0
CIRCLE
  5
267
100
AcDbEntity
  8
UB P-03231
  6
ByLayer
 62
  256
370
   -1
100
AcDbCircle
 10
-41.27999999999925
 20
18.21999999999991
 40
0.5
  0
CIRCLE
  5
268
100
AcDbEntity
  8
UB P-03231
  6
ByLayer
 62
  256
370
   -1
100
AcDbCircle
 10
-20.96000000000012
 20
18.21999999999991
 40
0.5
  0
CIRCLE
  5
269
100
AcDbEntity
  8
UB P-03231
  6
ByLayer
 62
  256
370
   -1
100
AcDbCircle
 10
-18.42000000000024
 20
18.21999999999992
 40
0.5
  0
CIRCLE
  5
26A
100
AcDbEntity
  8
UB P-03231
  6
ByLayer
 62
  256
370
   -1
100
AcDbCircle
 10
-15.88000000000036
 20
18.21999999999993
 40
0.5
  0
CIRCLE
  5
26B
100
AcDbEntity
  8
UB P-03231
  6
ByLayer
 62
  256
370
   -1
100
AcDbCircle
 10
-13.34000000000049
 20
18.21999999999993
 40
0.5
  0
CIRCLE
  5
26C
100
AcDbEntity
  8
UB P-03231
  6
ByLayer
 62
  256
370
   -1
100
AcDbCircle
 10
-10.80000000000061
 20
18.21999999999994
 40
0.5
  0
CIRCLE
  5
26D
100
AcDbEntity
  8
UB P-03231
  6
ByLayer
 62
  256
370
   -1
100
AcDbCircle
 10
-8.26000000000073
 20
18.21999999999995
 40
0.5
  0
CIRCLE
  5
26E
100
AcDbEntity
  8
UB P-03231
  6
ByLayer
 62
  256
370
   -1
100
AcDbCircle
 10
-5.72000000000085
 20
18.21999999999996
 40
0.5
  0
CIRCLE
  5
26F
100
AcDbEntity
  8
UB P-03231
  6
ByLayer
 62
  256
370
   -1
100
AcDbCircle
 10
-23.5
 20
15.67999999999989
 40
0.5
  0
CIRCLE
  5
270
100
AcDbEntity
  8
UB P-03231
  6
ByLayer
 62
  256
370
   -1
100
AcDbCircle
 10
-26.03999999999989
 20
15.67999999999989
 40
0.5
  0
CIRCLE
  5
271
100
AcDbEntity
  8
UB P-03231
  6
ByLayer
 62
  256
370
   -1
100
AcDbCircle
 10
-28.57999999999979
 20
15.67999999999989
 40
0.5
  0
CIRCLE
  5
272
100
AcDbEntity
  8
UB P-03231
  6
ByLayer
 62
  256
370
   -1
100
AcDbCircle
 10
-31.11999999999968
 20
15.67999999999989
 40
0.5
  0
CIRCLE
  5
273
100
AcDbEntity
  8
UB P-03231
  6
ByLayer
 62
  256
370
   -1
100
AcDbCircle
 10
-33.65999999999957
 20
15.67999999999989
 40
0.5
  0
CIRCLE
  5
274
100
AcDbEntity
  8
UB P-03231
  6
ByLayer
 62
  256
370
   -1
100
AcDbCircle
 10
-36.19999999999946
 20
15.67999999999989
 40
0.5
  0
CIRCLE
  5
275
100
AcDbEntity
  8
UB P-03231
  6
ByLayer
 62
  256
370
   -1
100
AcDbCircle
 10
-38.73999999999936
 20
15.67999999999989
 40
0.5
  0
CIRCLE
  5
276
100
AcDbEntity
  8
UB P-03231
  6
ByLayer
 62
  256
370
   -1
100
AcDbCircle
 10
-41.27999999999925
 20
15.67999999999989
 40
0.5
  0
CIRCLE
  5
277
100
AcDbEntity
  8
UB P-03231
  6
ByLayer
 62
  256
370
   -1
100
AcDbCircle
 10
-20.96000000000012
 20
15.6799999999999
 40
0.5
  0
CIRCLE
  5
278
100
AcDbEntity
  8
UB P-03231
  6
ByLayer
 62
  256
370
   -1
100
AcDbCircle
 10
-18.42000000000024
 20
15.67999999999991
 40
0.5
  0
CIRCLE
  5
279
100
AcDbEntity
  8
UB P-03231
  6
ByLayer
 62
  256
370
   -1
100
AcDbCircle
 10
-15.88000000000036
 20
15.67999999999991
 40
0.5
  0
CIRCLE
  5
27A
100
AcDbEntity
  8
UB P-03231
  6
ByLayer
 62
  256
370
   -1
100
AcDbCircle
 10
-13.34000000000049
 20
15.67999999999992
 40
0.5
  0
CIRCLE
  5
27B
100
AcDbEntity
  8
UB P-03231
  6
ByLayer
 62
  256
370
   -1
100
AcDbCircle
 10
-10.80000000000061
 20
15.67999999999993
 40
0.5
  0
CIRCLE
  5
27C
100
AcDbEntity
  8
UB P-03231
  6
ByLayer
 62
  256
370
   -1
100
AcDbCircle
 10
-8.26000000000073
 20
15.67999999999994
 40
0.5
  0
CIRCLE
  5
27D
100
AcDbEntity
  8
UB P-03231
  6
ByLayer
 62
  256
370
   -1
100
AcDbCircle
 10
-5.72000000000085
 20
15.67999999999994
 40
0.5
  0
CIRCLE
  5
27E
100
AcDbEntity
  8
UB P-03231
  6
ByLayer
 62
  256
370
   -1
100
AcDbCircle
 10
-23.5
 20
13.13999999999988
 40
0.5
  0
CIRCLE
  5
27F
100
AcDbEntity
  8
UB P-03231
  6
ByLayer
 62
  256
370
   -1
100
AcDbCircle
 10
-26.03999999999989
 20
13.13999999999988
 40
0.5
  0
CIRCLE
  5
280
100
AcDbEntity
  8
UB P-03231
  6
ByLayer
 62
  256
370
   -1
100
AcDbCircle
 10
-28.57999999999979
 20
13.13999999999988
 40
0.5
  0
CIRCLE
  5
281
100
AcDbEntity
  8
UB P-03231
  6
ByLayer
 62
  256
370
   -1
100
AcDbCircle
 10
-31.11999999999968
 20
13.13999999999988
 40
0.5
  0
CIRCLE
  5
282
100
AcDbEntity
  8
UB P-03231
  6
ByLayer
 62
  256
370
   -1
100
AcDbCircle
 10
-33.65999999999957
 20
13.13999999999988
 40
0.5
  0
CIRCLE
  5
283
100
AcDbEntity
  8
UB P-03231
  6
ByLayer
 62
  256
370
   -1
100
AcDbCircle
 10
-36.19999999999946
 20
13.13999999999988
 40
0.5
  0
CIRCLE
  5
284
100
AcDbEntity
  8
UB P-03231
  6
ByLayer
 62
  256
370
   -1
100
AcDbCircle
 10
-38.73999999999936
 20
13.13999999999988
 40
0.5
  0
CIRCLE
  5
285
100
AcDbEntity
  8
UB P-03231
  6
ByLayer
 62
  256
370
   -1
100
AcDbCircle
 10
-41.27999999999925
 20
13.13999999999988
 40
0.5
  0
CIRCLE
  5
286
100
AcDbEntity
  8
UB P-03231
  6
ByLayer
 62
  256
370
   -1
100
AcDbCircle
 10
-20.96000000000012
 20
13.13999999999989
 40
0.5
  0
CIRCLE
  5
287
100
AcDbEntity
  8
UB P-03231
  6
ByLayer
 62
  256
370
   -1
100
AcDbCircle
 10
-18.42000000000024
 20
13.13999999999989
 40
0.5
  0
CIRCLE
  5
288
100
AcDbEntity
  8
UB P-03231
  6
ByLayer
 62
  256
370
   -1
100
AcDbCircle
 10
-15.88000000000036
 20
13.1399999999999
 40
0.5
  0
CIRCLE
  5
289
100
AcDbEntity
  8
UB P-03231
  6
ByLayer
 62
  256
370
   -1
100
AcDbCircle
 10
-13.34000000000049
 20
13.13999999999991
 40
0.5
  0
CIRCLE
  5
28A
100
AcDbEntity
  8
UB P-03231
  6
ByLayer
 62
  256
370
   -1
100
AcDbCircle
 10
-10.80000000000061
 20
13.13999999999992
 40
0.5
  0
CIRCLE
  5
28B
100
AcDbEntity
  8
UB P-03231
  6
ByLayer
 62
  256
370
   -1
100
AcDbCircle
 10
-8.26000000000073
 20
13.13999999999992
 40
0.5
  0
CIRCLE
  5
28C
100
AcDbEntity
  8
UB P-03231
  6
ByLayer
 62
  256
370
   -1
100
AcDbCircle
 10
-5.72000000000085
 20
13.13999999999993
 40
0.5
  0
CIRCLE
  5
28D
100
AcDbEntity
  8
UB P-03231
  6
ByLayer
 62
  256
370
   -1
100
AcDbCircle
 10
-23.5
 20
10.59999999999987
 40
0.5
  0
CIRCLE
  5
28E
100
AcDbEntity
  8
UB P-03231
  6
ByLayer
 62
  256
370
   -1
100
AcDbCircle
 10
-26.03999999999989
 20
10.59999999999987
 40
0.5
  0
CIRCLE
  5
28F
100
AcDbEntity
  8
UB P-03231
  6
ByLayer
 62
  256
370
   -1
100
AcDbCircle
 10
-28.57999999999979
 20
10.59999999999987
 40
0.5
  0
CIRCLE
  5
290
100
AcDbEntity
  8
UB P-03231
  6
ByLayer
 62
  256
370
   -1
100
AcDbCircle
 10
-31.11999999999968
 20
10.59999999999987
 40
0.5
  0
CIRCLE
  5
291
100
AcDbEntity
  8
UB P-03231
  6
ByLayer
 62
  256
370
   -1
100
AcDbCircle
 10
-33.65999999999957
 20
10.59999999999987
 40
0.5
  0
CIRCLE
  5
292
100
AcDbEntity
  8
UB P-03231
  6
ByLayer
 62
  256
370
   -1
100
AcDbCircle
 10
-36.19999999999946
 20
10.59999999999987
 40
0.5
  0
CIRCLE
  5
293
100
AcDbEntity
  8
UB P-03231
  6
ByLayer
 62
  256
370
   -1
100
AcDbCircle
 10
-38.73999999999936
 20
10.59999999999987
 40
0.5
  0
CIRCLE
  5
294
100
AcDbEntity
  8
UB P-03231
  6
ByLayer
 62
  256
370
   -1
100
AcDbCircle
 10
-41.27999999999925
 20
10.59999999999987
 40
0.5
  0
CIRCLE
  5
295
100
AcDbEntity
  8
UB P-03231
  6
ByLayer
 62
  256
370
   -1
100
AcDbCircle
 10
-20.96000000000012
 20
10.59999999999987
 40
0.5
  0
CIRCLE
  5
296
100
AcDbEntity
  8
UB P-03231
  6
ByLayer
 62
  256
370
   -1
100
AcDbCircle
 10
-18.42000000000024
 20
10.59999999999988
 40
0.5
  0
CIRCLE
  5
297
100
AcDbEntity
  8
UB P-03231
  6
ByLayer
 62
  256
370
   -1
100
AcDbCircle
 10
-15.88000000000036
 20
10.59999999999989
 40
0.5
  0
CIRCLE
  5
298
100
AcDbEntity
  8
UB P-03231
  6
ByLayer
 62
  256
370
   -1
100
AcDbCircle
 10
-13.34000000000049
 20
10.59999999999989
 40
0.5
  0
CIRCLE
  5
299
100
AcDbEntity
  8
UB P-03231
  6
ByLayer
 62
  256
370
   -1
100
AcDbCircle
 10
-10.80000000000061
 20
10.5999999999999
 40
0.5
  0
CIRCLE
  5
29A
100
AcDbEntity
  8
UB P-03231
  6
ByLayer
 62
  256
370
   -1
100
AcDbCircle
 10
-8.26000000000073
 20
10.59999999999991
 40
0.5
  0
CIRCLE
  5
29B
100
AcDbEntity
  8
UB P-03231
  6
ByLayer
 62
  256
370
   -1
100
AcDbCircle
 10
-5.72000000000085
 20
10.59999999999992
 40
0.5
  0
CIRCLE
  5
29C
100
AcDbEntity
  8
UB P-03231
  6
ByLayer
 62
  256
370
   -1
100
AcDbCircle
 10
-23.5
 20
8.059999999999853
 40
0.5
  0
CIRCLE
  5
29D
100
AcDbEntity
  8
UB P-03231
  6
ByLayer
 62
  256
370
   -1
100
AcDbCircle
 10
-26.03999999999989
 20
8.059999999999853
 40
0.5
  0
CIRCLE
  5
29E
100
AcDbEntity
  8
UB P-03231
  6
ByLayer
 62
  256
370
   -1
100
AcDbCircle
 10
-28.57999999999979
 20
8.059999999999853
 40
0.5
  0
CIRCLE
  5
29F
100
AcDbEntity
  8
UB P-03231
  6
ByLayer
 62
  256
370
   -1
100
AcDbCircle
 10
-31.11999999999968
 20
8.059999999999853
 40
0.5
  0
CIRCLE
  5
2A0
100
AcDbEntity
  8
UB P-03231
  6
ByLayer
 62
  256
370
   -1
100
AcDbCircle
 10
-33.65999999999957
 20
8.059999999999853
 40
0.5
  0
CIRCLE
  5
2A1
100
AcDbEntity
  8
UB P-03231
  6
ByLayer
 62
  256
370
   -1
100
AcDbCircle
 10
-36.19999999999946
 20
8.059999999999853
 40
0.5
  0
CIRCLE
  5
2A2
100
AcDbEntity
  8
UB P-03231
  6
ByLayer
 62
  256
370
   -1
100
AcDbCircle
 10
-38.73999999999936
 20
8.059999999999853
 40
0.5
  0
CIRCLE
  5
2A3
100
AcDbEntity
  8
UB P-03231
  6
ByLayer
 62
  256
370
   -1
100
AcDbCircle
 10
-20.96000000000012
 20
8.05999999999986
 40
0.5
  0
CIRCLE
  5
2A4
100
AcDbEntity
  8
UB P-03231
  6
ByLayer
 62
  256
370
   -1
100
AcDbCircle
 10
-18.42000000000024
 20
8.059999999999867
 40
0.5
  0
CIRCLE
  5
2A5
100
AcDbEntity
  8
UB P-03231
  6
ByLayer
 62
  256
370
   -1
100
AcDbCircle
 10
-15.88000000000036
 20
8.059999999999874
 40
0.5
  0
CIRCLE
  5
2A6
100
AcDbEntity
  8
UB P-03231
  6
ByLayer
 62
  256
370
   -1
100
AcDbCircle
 10
-13.34000000000049
 20
8.059999999999881
 40
0.5
  0
CIRCLE
  5
2A7
100
AcDbEntity
  8
UB P-03231
  6
ByLayer
 62
  256
370
   -1
100
AcDbCircle
 10
-10.80000000000061
 20
8.059999999999889
 40
0.5
  0
CIRCLE
  5
2A8
100
AcDbEntity
  8
UB P-03231
  6
ByLayer
 62
  256
370
   -1
100
AcDbCircle
 10
-8.26000000000073
 20
8.059999999999896
 40
0.5
  0
CIRCLE
  5
2A9
100
AcDbEntity
  8
UB P-03231
  6
ByLayer
 62
  256
370
   -1
100
AcDbCircle
 10
-5.72000000000085
 20
8.059999999999903
 40
0.5
  0
CIRCLE
  5
2AA
100
AcDbEntity
  8
UB P-03231
  6
ByLayer
 62
  256
370
   -1
100
AcDbCircle
 10
-23.5
 20
5.51999999999984
 40
0.5
  0
CIRCLE
  5
2AB
100
AcDbEntity
  8
UB P-03231
  6
ByLayer
 62
  256
370
   -1
100
AcDbCircle
 10
-26.03999999999989
 20
5.51999999999984
 40
0.5
  0
CIRCLE
  5
2AC
100
AcDbEntity
  8
UB P-03231
  6
ByLayer
 62
  256
370
   -1
100
AcDbCircle
 10
-28.57999999999979
 20
5.51999999999984
 40
0.5
  0
CIRCLE
  5
2AD
100
AcDbEntity
  8
UB P-03231
  6
ByLayer
 62
  256
370
   -1
100
AcDbCircle
 10
-31.11999999999968
 20
5.51999999999984
 40
0.5
  0
CIRCLE
  5
2AE
100
AcDbEntity
  8
UB P-03231
  6
ByLayer
 62
  256
370
   -1
100
AcDbCircle
 10
-33.65999999999957
 20
5.51999999999984
 40
0.5
  0
CIRCLE
  5
2AF
100
AcDbEntity
  8
UB P-03231
  6
ByLayer
 62
  256
370
   -1
100
AcDbCircle
 10
-36.19999999999946
 20
5.51999999999984
 40
0.5
  0
CIRCLE
  5
2B0
100
AcDbEntity
  8
UB P-03231
  6
ByLayer
 62
  256
370
   -1
100
AcDbCircle
 10
-20.96000000000012
 20
5.519999999999847
 40
0.5
  0
CIRCLE
  5
2B1
100
AcDbEntity
  8
UB P-03231
  6
ByLayer
 62
  256
370
   -1
100
AcDbCircle
 10
-18.42000000000024
 20
5.519999999999854
 40
0.5
  0
CIRCLE
  5
2B2
100
AcDbEntity
  8
UB P-03231
  6
ByLayer
 62
  256
370
   -1
100
AcDbCircle
 10
-15.88000000000036
 20
5.519999999999861
 40
0.5
  0
CIRCLE
  5
2B3
100
AcDbEntity
  8
UB P-03231
  6
ByLayer
 62
  256
370
   -1
100
AcDbCircle
 10
-13.34000000000049
 20
5.519999999999868
 40
0.5
  0
CIRCLE
  5
2B4
100
AcDbEntity
  8
UB P-03231
  6
ByLayer
 62
  256
370
   -1
100
AcDbCircle
 10
-10.80000000000061
 20
5.519999999999875
 40
0.5
  0
CIRCLE
  5
2B5
100
AcDbEntity
  8
UB P-03231
  6
ByLayer
 62
  256
370
   -1
100
AcDbCircle
 10
-8.26000000000073
 20
5.519999999999882
 40
0.5
  0
CIRCLE
  5
2B6
100
AcDbEntity
  8
UB P-03231
  6
ByLayer
 62
  256
370
   -1
100
AcDbCircle
 10
-5.72000000000085
 20
5.519999999999889
 40
0.5
  0
INSERT
  5
2B7
100
AcDbEntity
  8
z_orelib
  6
ByLayer
 62
  256
370
   -1
100
AcDbBlockReference
  2
C_0.01uF
 10
-5.720000000000841
 20
15.68000000000021
 30
0
 41
1
 42
1
 43
0
 50
0
 70
    1
 71
    1
 44
0
 45
0
  0
INSERT
  5
2B8
100
AcDbEntity
  8
z_orelib
  6
ByLayer
 62
  256
370
   -1
100
AcDbBlockReference
  2
R300
 10
-10.80000000000063
 20
13.14000000000032
 30
0
 41
1
 42
1
 43
0
 50
0
 70
    1
 71
    1
 44
0
 45
0
  0
INSERT
  5
2B9
100
AcDbEntity
  8
z_orelib
  6
ByLayer
 62
  256
370
   -1
100
AcDbBlockReference
  2
R10k
 10
-5.720000000001082
 20
23.29999999999994
 30
0
 41
1
 42
1
 43
0
 50
0
 70
    1
 71
    1
 44
0
 45
0
  0
INSERT
  5
2BA
100
AcDbEntity
  8
z_orelib
  6
ByLayer
 62
  256
370
   -1
100
AcDbBlockReference
  2
R0
 10
-26.03999999999989
 20
15.67999999999989
 30
0
 41
1
 42
1
 43
0
 50
0
 70
    1
 71
    1
 44
0
 45
0
  0
CIRCLE
  5
2BB
100
AcDbEntity
  8
z_orelib
  6
ByLayer
 62
  256
370
   -1
100
AcDbCircle
 10
-26.03999999999994
 20
55.05000000000038
 40
3.15
  0
CIRCLE
  5
2BC
100
AcDbEntity
  8
z_orelib
  6
ByLayer
 62
  256
370
   -1
100
AcDbCircle
 10
-26.03999999999994
 20
56.32000000000065
 40
0.225
  0
CIRCLE
  5
2BD
100
AcDbEntity
  8
z_orelib
  6
ByLayer
 62
  256
370
   -1
100
AcDbCircle
 10
-26.03999999999994
 20
53.78000000000014
 40
0.225
  0
MTEXT
  5
2BE
100
AcDbEntity
  8
z_orelib
  6
ByLayer
 62
  256
370
   -1
100
AcDbMText
 10
-24.83069843636248
 20
54.94116755141663
 30
0
 40
1
 41
1.000000000000062
 71
    5
 72
    1
  1
C1
  7
STANDARD
210
0
220
0
230
1
 50
0
 73
    2
 44
1
  0
CIRCLE
  5
2BF
100
AcDbEntity
  8
z_orelib
  6
ByLayer
 62
  256
370
   -1
100
AcDbCircle
 10
-38.7399999999994
 20
55.05000000000038
 40
3.15
  0
CIRCLE
  5
2C0
100
AcDbEntity
  8
z_orelib
  6
ByLayer
 62
  256
370
   -1
100
AcDbCircle
 10
-38.7399999999994
 20
56.32000000000065
 40
0.225
  0
CIRCLE
  5
2C1
100
AcDbEntity
  8
z_orelib
  6
ByLayer
 62
  256
370
   -1
100
AcDbCircle
 10
-38.7399999999994
 20
53.78000000000014
 40
0.225
  0
MTEXT
  5
2C2
100
AcDbEntity
  8
z_orelib
  6
ByLayer
 62
  256
370
   -1
100
AcDbMText
 10
-37.53069843636194
 20
54.94116755141663
 30
0
 40
1
 41
1.222222222222284
 71
    5
 72
    1
  1
C2
  7
STANDARD
210
0
220
0
230
1
 50
0
 73
    2
 44
1
  0
LWPOLYLINE
  5
2C3
100
AcDbEntity
  8
z_orelib
  6
ByLayer
 62
  256
370
   -1
100
AcDbPolyline
 90
    4
 70
    1
 43
0
 10
-24.74999999999999
 20
46.08000000000006
 10
-24.75000000000001
 20
36.08000000000006
 10
-19.74999999999997
 20
36.08000000000006
 10
-19.74999999999997
 20
46.08000000000006
  0
CIRCLE
  5
2C4
100
AcDbEntity
  8
z_orelib
  6
ByLayer
 62
  256
370
   -1
100
AcDbCircle
 10
-23.50000000000002
 20
43.62000000000006
 40
0.25
  0
CIRCLE
  5
2C5
100
AcDbEntity
  8
z_orelib
  6
ByLayer
 62
  256
370
   -1
100
AcDbCircle
 10
-23.50000000000002
 20
41.08000000000006
 40
0.25
  0
CIRCLE
  5
2C6
100
AcDbEntity
  8
z_orelib
  6
ByLayer
 62
  256
370
   -1
100
AcDbCircle
 10
-23.50000000000002
 20
38.54000000000004
 40
0.25
  0
LINE
  5
2C7
100
AcDbEntity
  8
z_orelib
  6
ByLayer
 62
  256
370
   -1
100
AcDbLine
 10
-22.25
 20
46.08000000000006
 11
-22.25
 21
36.08000000000006
  0
CIRCLE
  5
2C8
100
AcDbEntity
  8
z_orelib
  6
ByLayer
 62
  256
370
   -1
100
AcDbCircle
 10
-23.50000000000002
 20
38.54000000000004
 40
0.255
  0
MTEXT
  5
2C9
100
AcDbEntity
  8
z_orelib
  6
ByLayer
 62
  256
370
   -1
100
AcDbMText
 10
-21.48051915872351
 20
43.82735660647288
 30
0
 40
1
 41
0.8888888888888888
 71
    5
 72
    1
  1
IN
  7
STANDARD
210
0
220
0
230
1
 50
90
 73
    2
 44
1
  0
MTEXT
  5
2CA
100
AcDbEntity
  8
z_orelib
  6
ByLayer
 62
  256
370
   -1
100
AcDbMText
 10
-21.46587023515518
 20
41.0802664535313
 30
0
 40
1
 41
2.333333333333457
 71
    5
 72
    1
  1
GND
  7
STANDARD
210
0
220
0
230
1
 50
90
 73
    2
 44
1
  0
MTEXT
  5
2CB
100
AcDbEntity
  8
z_orelib
  6
ByLayer
 62
  256
370
   -1
100
AcDbMText
 10
-21.50825350594818
 20
38.40529172405053
 30
0
 40
1
 41
2.333333333333333
 71
    5
 72
    1
  1
OUT
  7
STANDARD
210
0
220
0
230
1
 50
90
 73
    2
 44
1
  0
MTEXT
  5
2CC
100
AcDbEntity
  8
z_orelib
  6
ByLayer
 62
  256
370
   -1
100
AcDbMText
 10
-23.81328315919236
 20
35.22102404847618
 30
0
 40
1
 41
2
 71
    5
 72
    1
  1
RG1
  7
STANDARD
210
0
220
0
230
1
 50
0
 73
    2
 44
1
  0
LINE
  5
2CD
100
AcDbEntity
  8
z_orelib
  6
ByLayer
 62
  256
370
   -1
100
AcDbLine
 10
-13.43499999999978
 20
23.09999999999953
 11
-20.82499999999965
 21
23.09999999999953
  0
LINE
  5
2CE
100
AcDbEntity
  8
z_orelib
  6
ByLayer
 62
  256
370
   -1
100
AcDbLine
 10
-20.82499999999965
 20
23.09999999999953
 11
-20.82499999999965
 21
17.35999999999959
  0
LINE
  5
2CF
100
AcDbEntity
  8
z_orelib
  6
ByLayer
 62
  256
370
   -1
100
AcDbLine
 10
-20.82499999999965
 20
17.35999999999959
 11
-13.43499999999978
 21
17.35999999999959
  0
LINE
  5
2D0
100
AcDbEntity
  8
z_orelib
  6
ByLayer
 62
  256
370
   -1
100
AcDbLine
 10
-13.43499999999978
 20
17.35999999999959
 11
-13.43499999999978
 21
23.09999999999953
  0
CIRCLE
  5
2D1
100
AcDbEntity
  8
z_orelib
  6
ByLayer
 62
  256
370
   -1
100
AcDbCircle
 10
-15.88000000000036
 20
20.7599999999998
 40
0.25
  0
CIRCLE
  5
2D2
100
AcDbEntity
  8
z_orelib
  6
ByLayer
 62
  256
370
   -1
100
AcDbCircle
 10
-18.37999999999903
 20
20.7599999999998
 40
0.25
  0
MTEXT
  5
2D3
100
AcDbEntity
  8
z_orelib
  6
ByLayer
 62
  256
370
   -1
100
AcDbMText
 10
-18.6460968989134
 20
19.15961969624999
 30
0
 40
1
 41
2.777777777777778
 71
    5
 72
    1
  1
+12V
  7
STANDARD
210
0
220
0
230
1
 50
0
 73
    2
 44
1
  0
MTEXT
  5
2D4
100
AcDbEntity
  8
z_orelib
  6
ByLayer
 62
  256
370
   -1
100
AcDbMText
 10
-15.42203177711816
 20
18.93888202668884
 30
0
 40
1
 41
2.333333333333457
 71
    5
 72
    1
  1
GND
  7
STANDARD
210
0
220
0
230
1
 50
0
 73
    2
 44
1
  0
MTEXT
  5
2D5
100
AcDbEntity
  8
z_orelib
  6
ByLayer
 62
  256
370
   -1
100
AcDbMText
 10
-12.09842506123602
 20
22.05087747097284
 30
0
 40
1
 41
1.999999787997851
 71
    5
 72
    1
  1
HS1
  7
STANDARD
210
0
220
0
230
1
 50
0
 73
    2
 44
1
  0
MTEXT
  5
2D6
100
AcDbEntity
  8
z_orelib
  6
ByLayer
 62
  256
370
   -1
100
AcDbMText
 10
-67.12623445031066
 20
13.52881677928151
 30
0
 40
1
 41
24.91666666666709
 71
    4
 72
    1
  1
C1,2:  35ZLH100MEFC6.3X11, 100uF35V\PHS1:   B2B-XH-A\PRG1:   NJM7805FA\PSW1:   2MS1-T1-B4-M2-Q-E\P
  7
STANDARD
210
0
220
0
230
1
 50
0
 73
    2
 44
1
  0
LINE
  5
2D7
100
AcDbEntity
  8
terminal
  6
ByLayer
 62
  256
370
   -1
100
AcDbLine
 10
-43.81999999999918
 20
52.90000000000011
 11
-43.81999999999918
 21
45.30000000000011
  0
LINE
  5
2D8
100
AcDbEntity
  8
terminal
  6
ByLayer
 62
  256
370
   -1
100
AcDbLine
 10
-43.81999999999918
 20
45.30000000000011
 11
-33.65999999999961
 21
45.30000000000011
  0
LINE
  5
2D9
100
AcDbEntity
  8
terminal
  6
ByLayer
 62
  256
370
   -1
100
AcDbLine
 10
-33.65999999999961
 20
45.30000000000011
 11
-33.65999999999961
 21
52.90000000000011
  0
LINE
  5
2DA
100
AcDbEntity
  8
terminal
  6
ByLayer
 62
  256
370
   -1
100
AcDbLine
 10
-33.65999999999961
 20
52.90000000000011
 11
-43.81999999999918
 21
52.90000000000011
  0
CIRCLE
  5
2DB
100
AcDbEntity
  8
terminal
  6
ByLayer
 62
  256
370
   -1
100
AcDbCircle
 10
-41.27999999999928
 20
48.7000000000001
 40
0.45
  0
CIRCLE
  5
2DC
100
AcDbEntity
  8
terminal
  6
ByLayer
 62
  256
370
   -1
100
AcDbCircle
 10
-36.1999999999995
 20
48.7000000000001
 40
0.45
  0
MTEXT
  5
2DD
100
AcDbEntity
  8
terminal
  6
ByLayer
 62
  256
370
   -1
100
AcDbMText
 10
-42.86129924333079
 20
51.79934031059111
 30
0
 40
1
 41
1.333333333333395
 71
    5
 72
    1
  1
T3
  7
STANDARD
210
0
220
0
230
1
 50
0
 73
    2
 44
1
  0
LINE
  5
2DE
100
AcDbEntity
  8
terminal
  6
ByLayer
 62
  256
370
   -1
100
AcDbLine
 10
-33.6599999999996
 20
52.90000000000011
 11
-33.6599999999996
 21
45.30000000000011
  0
LINE
  5
2DF
100
AcDbEntity
  8
terminal
  6
ByLayer
 62
  256
370
   -1
100
AcDbLine
 10
-33.6599999999996
 20
45.30000000000011
 11
-23.50000000000004
 21
45.30000000000011
  0
LINE
  5
2E0
100
AcDbEntity
  8
terminal
  6
ByLayer
 62
  256
370
   -1
100
AcDbLine
 10
-23.50000000000004
 20
45.30000000000011
 11
-23.50000000000004
 21
52.90000000000011
  0
LINE
  5
2E1
100
AcDbEntity
  8
terminal
  6
ByLayer
 62
  256
370
   -1
100
AcDbLine
 10
-23.50000000000004
 20
52.90000000000011
 11
-33.6599999999996
 21
52.90000000000011
  0
CIRCLE
  5
2E2
100
AcDbEntity
  8
terminal
  6
ByLayer
 62
  256
370
   -1
100
AcDbCircle
 10
-31.11999999999971
 20
48.7000000000001
 40
0.45
  0
CIRCLE
  5
2E3
100
AcDbEntity
  8
terminal
  6
ByLayer
 62
  256
370
   -1
100
AcDbCircle
 10
-26.03999999999992
 20
48.7000000000001
 40
0.45
  0
LINE
  5
2E4
100
AcDbEntity
  8
terminal
  6
ByLayer
 62
  256
370
   -1
100
AcDbLine
 10
-23.50000000000003
 20
52.90000000000011
 11
-23.50000000000003
 21
45.30000000000011
  0
LINE
  5
2E5
100
AcDbEntity
  8
terminal
  6
ByLayer
 62
  256
370
   -1
100
AcDbLine
 10
-23.50000000000003
 20
45.30000000000011
 11
-13.34000000000047
 21
45.30000000000011
  0
LINE
  5
2E6
100
AcDbEntity
  8
terminal
  6
ByLayer
 62
  256
370
   -1
100
AcDbLine
 10
-13.34000000000047
 20
45.30000000000011
 11
-13.34000000000047
 21
52.90000000000011
  0
LINE
  5
2E7
100
AcDbEntity
  8
terminal
  6
ByLayer
 62
  256
370
   -1
100
AcDbLine
 10
-13.34000000000047
 20
52.90000000000011
 11
-23.50000000000003
 21
52.90000000000011
  0
CIRCLE
  5
2E8
100
AcDbEntity
  8
terminal
  6
ByLayer
 62
  256
370
   -1
100
AcDbCircle
 10
-20.96000000000014
 20
48.7000000000001
 40
0.45
  0
CIRCLE
  5
2E9
100
AcDbEntity
  8
terminal
  6
ByLayer
 62
  256
370
   -1
100
AcDbCircle
 10
-15.88000000000035
 20
48.7000000000001
 40
0.45
  0
LINE
  5
2EA
100
AcDbEntity
  8
terminal
  6
ByLayer
 62
  256
370
   -1
100
AcDbLine
 10
-13.34000000000045
 20
52.90000000000011
 11
-13.34000000000045
 21
45.30000000000011
  0
LINE
  5
2EB
100
AcDbEntity
  8
terminal
  6
ByLayer
 62
  256
370
   -1
100
AcDbLine
 10
-13.34000000000045
 20
45.30000000000011
 11
-3.180000000000891
 21
45.30000000000011
  0
LINE
  5
2EC
100
AcDbEntity
  8
terminal
  6
ByLayer
 62
  256
370
   -1
100
AcDbLine
 10
-3.180000000000891
 20
45.30000000000011
 11
-3.180000000000891
 21
52.90000000000011
  0
LINE
  5
2ED
100
AcDbEntity
  8
terminal
  6
ByLayer
 62
  256
370
   -1
100
AcDbLine
 10
-3.180000000000891
 20
52.90000000000011
 11
-13.34000000000045
 21
52.90000000000011
  0
CIRCLE
  5
2EE
100
AcDbEntity
  8
terminal
  6
ByLayer
 62
  256
370
   -1
100
AcDbCircle
 10
-10.80000000000056
 20
48.7000000000001
 40
0.45
  0
CIRCLE
  5
2EF
100
AcDbEntity
  8
terminal
  6
ByLayer
 62
  256
370
   -1
100
AcDbCircle
 10
-5.720000000000777
 20
48.7000000000001
 40
0.45
  0
MTEXT
  5
2F0
100
AcDbEntity
  8
terminal
  6
ByLayer
 62
  256
370
   -1
100
AcDbMText
 10
-32.70129924333122
 20
51.79934031059111
 30
0
 40
1
 41
1.444444444444444
 71
    5
 72
    1
  1
T4
  7
STANDARD
210
0
220
0
230
1
 50
0
 73
    2
 44
1
  0
MTEXT
  5
2F1
100
AcDbEntity
  8
terminal
  6
ByLayer
 62
  256
370
   -1
100
AcDbMText
 10
-22.54129924333164
 20
51.79934031059111
 30
0
 40
1
 41
1.333333333333395
 71
    5
 72
    1
  1
T5
  7
STANDARD
210
0
220
0
230
1
 50
0
 73
    2
 44
1
  0
MTEXT
  5
2F2
100
AcDbEntity
  8
terminal
  6
ByLayer
 62
  256
370
   -1
100
AcDbMText
 10
-12.38129924333207
 20
51.79934031059111
 30
0
 40
1
 41
1.333333333333395
 71
    5
 72
    1
  1
T6
  7
STANDARD
210
0
220
0
230
1
 50
0
 73
    2
 44
1
  0
LINE
  5
2F3
100
AcDbEntity
  8
terminal
  6
ByLayer
 62
  256
370
   -1
100
AcDbLine
 10
-33.66000000000008
 20
62.91000000000019
 11
-33.66000000000008
 21
54.81000000000018
  0
LINE
  5
2F4
100
AcDbEntity
  8
terminal
  6
ByLayer
 62
  256
370
   -1
100
AcDbLine
 10
-33.66000000000008
 20
54.81000000000018
 11
-23.49999999999944
 21
54.81000000000018
  0
LINE
  5
2F5
100
AcDbEntity
  8
terminal
  6
ByLayer
 62
  256
370
   -1
100
AcDbLine
 10
-23.49999999999944
 20
54.81000000000018
 11
-23.49999999999944
 21
62.91000000000019
  0
CIRCLE
  5
2F6
100
AcDbEntity
  8
terminal
  6
ByLayer
 62
  256
370
   -1
100
AcDbCircle
 10
-31.11999999999974
 20
58.86000000000018
 40
0.45
  0
CIRCLE
  5
2F7
100
AcDbEntity
  8
terminal
  6
ByLayer
 62
  256
370
   -1
100
AcDbCircle
 10
-26.03999999999996
 20
58.86000000000018
 40
0.45
  0
MTEXT
  5
2F8
100
AcDbEntity
  8
terminal
  6
ByLayer
 62
  256
370
   -1
100
AcDbMText
 10
-32.82907108843118
 20
62.08934233834983
 30
0
 40
1
 41
1.111111111111111
 71
    5
 72
    1
  1
T1
  7
STANDARD
210
0
220
0
230
1
 50
0
 73
    2
 44
1
  0
LINE
  5
2F9
100
AcDbEntity
  8
terminal
  6
ByLayer
 62
  256
370
   -1
100
AcDbLine
 10
-23.49999999999944
 20
62.91000000000019
 11
-8.26000000000073
 21
62.91000000000019
  0
LINE
  5
2FA
100
AcDbEntity
  8
terminal
  6
ByLayer
 62
  256
370
   -1
100
AcDbLine
 10
-8.26000000000073
 20
62.91000000000019
 11
-8.26000000000073
 21
54.81000000000018
  0
LINE
  5
2FB
100
AcDbEntity
  8
terminal
  6
ByLayer
 62
  256
370
   -1
100
AcDbLine
 10
-8.26000000000073
 20
54.81000000000018
 11
-23.49999999999944
 21
54.81000000000018
  0
LINE
  5
2FC
100
AcDbEntity
  8
terminal
  6
ByLayer
 62
  256
370
   -1
100
AcDbLine
 10
-23.49999999999944
 20
54.81000000000018
 11
-23.49999999999944
 21
62.91000000000019
  0
MTEXT
  5
2FD
100
AcDbEntity
  8
terminal
  6
ByLayer
 62
  256
370
   -1
100
AcDbMText
 10
-22.23887118385532
 20
61.83017542698304
 30
0
 40
1
 41
1.333333333333333
 71
    5
 72
    1
  1
T2
  7
STANDARD
210
0
220
0
230
1
 50
0
 73
    2
 44
1
  0
CIRCLE
  5
2FE
100
AcDbEntity
  8
terminal
  6
ByLayer
 62
  256
370
   -1
100
AcDbCircle
 10
-20.96000000000017
 20
58.86000000000018
 40
0.45
  0
CIRCLE
  5
2FF
100
AcDbEntity
  8
terminal
  6
ByLayer
 62
  256
370
   -1
100
AcDbCircle
 10
-15.88000000000039
 20
58.86000000000018
 40
0.45
  0
CIRCLE
  5
300
100
AcDbEntity
  8
terminal
  6
ByLayer
 62
  256
370
   -1
100
AcDbCircle
 10
-10.80000000000062
 20
58.86000000000018
 40
0.45
  0
LINE
  5
301
100
AcDbEntity
  8
switch
  6
ByLayer
 62
  256
370
   -1
100
AcDbLine
 10
-42.80499999999943
 20
61.86000000000013
 11
-34.67499999999944
 21
61.86000000000013
  0
LINE
  5
302
100
AcDbEntity
  8
switch
  6
ByLayer
 62
  256
370
   -1
100
AcDbLine
 10
-34.67499999999944
 20
61.86000000000013
 11
-34.67499999999944
 21
55.86000000000024
  0
LINE
  5
303
100
AcDbEntity
  8
switch
  6
ByLayer
 62
  256
370
   -1
100
AcDbLine
 10
-34.67499999999944
 20
55.86000000000024
 11
-42.80499999999943
 21
55.86000000000024
  0
LINE
  5
304
100
AcDbEntity
  8
switch
  6
ByLayer
 62
  256
370
   -1
100
AcDbLine
 10
-42.80499999999943
 20
55.86000000000024
 11
-42.80499999999943
 21
61.86000000000013
  0
CIRCLE
  5
305
100
AcDbEntity
  8
switch
  6
ByLayer
 62
  256
370
   -1
100
AcDbCircle
 10
-36.19999999999956
 20
58.86000000000018
 40
0.255
  0
CIRCLE
  5
306
100
AcDbEntity
  8
switch
  6
ByLayer
 62
  256
370
   -1
100
AcDbCircle
 10
-38.73999999999943
 20
58.86000000000018
 40
0.255
  0
CIRCLE
  5
307
100
AcDbEntity
  8
switch
  6
ByLayer
 62
  256
370
   -1
100
AcDbCircle
 10
-41.27999999999931
 20
58.86000000000018
 40
0.255
  0
LINE
  5
308
100
AcDbEntity
  8
0_GND
  6
ByLayer
 62
  256
370
   -1
100
AcDbLine
 10
-41.27999999999931
 20
58.86000000000018
 11
-41.2799999999993
 21
56.32000000000016
  0
LINE
  5
309
100
AcDbEntity
  8
0_GND
  6
ByLayer
 62
  256
370
   -1
100
AcDbLine
 10
-41.2799999999993
 20
56.32000000000016
 11
-38.73999999999941
 21
56.32000000000016
  0
LINE
  5
30A
100
AcDbEntity
  8
0_GND
  6
ByLayer
 62
  256
370
   -1
100
AcDbLine
 10
-38.73999999999941
 20
56.32000000000016
 11
-36.19999999999952
 21
56.32000000000016
  0
LINE
  5
30B
100
AcDbEntity
  8
0_GND
  6
ByLayer
 62
  256
370
   -1
100
AcDbLine
 10
-36.19999999999952
 20
56.32000000000016
 11
-33.65999999999963
 21
56.32000000000016
  0
LINE
  5
30C
100
AcDbEntity
  8
0_GND
  6
ByLayer
 62
  256
370
   -1
100
AcDbLine
 10
-33.65999999999963
 20
56.32000000000016
 11
-31.11999999999973
 21
56.32000000000016
  0
LINE
  5
30D
100
AcDbEntity
  8
0_GND
  6
ByLayer
 62
  256
370
   -1
100
AcDbLine
 10
-31.11999999999973
 20
56.32000000000016
 11
-28.57999999999984
 21
56.32000000000016
  0
LINE
  5
30E
100
AcDbEntity
  8
0_GND
  6
ByLayer
 62
  256
370
   -1
100
AcDbLine
 10
-28.57999999999984
 20
56.32000000000016
 11
-26.03999999999995
 21
56.32000000000016
  0
LINE
  5
30F
100
AcDbEntity
  8
0_GND
  6
ByLayer
 62
  256
370
   -1
100
AcDbLine
 10
-26.03999999999995
 20
56.32000000000016
 11
-26.03999999999996
 21
58.86000000000018
  0
LINE
  5
310
100
AcDbEntity
  8
0_GND
  6
ByLayer
 62
  256
370
   -1
100
AcDbLine
 10
-41.2799999999993
 20
56.32000000000016
 11
-41.2799999999993
 21
53.78000000000014
  0
LINE
  5
311
100
AcDbEntity
  8
0_GND
  6
ByLayer
 62
  256
370
   -1
100
AcDbLine
 10
-41.2799999999993
 20
53.78000000000014
 11
-41.27999999999929
 21
51.24000000000012
  0
LINE
  5
312
100
AcDbEntity
  8
0_GND
  6
ByLayer
 62
  256
370
   -1
100
AcDbLine
 10
-41.27999999999929
 20
51.24000000000012
 11
-41.27999999999928
 21
48.7000000000001
  0
LINE
  5
313
100
AcDbEntity
  8
0_wire
  6
ByLayer
 62
  256
370
   -1
100
AcDbLine
 10
-31.11999999999974
 20
58.86000000000018
 11
-33.65999999999963
 21
58.86000000000018
  0
LINE
  5
314
100
AcDbEntity
  8
0_wire
  6
ByLayer
 62
  256
370
   -1
100
AcDbLine
 10
-33.65999999999963
 20
58.86000000000018
 11
-36.19999999999956
 21
58.86000000000018
  0
LINE
  5
315
100
AcDbEntity
  8
0_wire
  6
ByLayer
 62
  256
370
   -1
100
AcDbLine
 10
-36.19999999999956
 20
58.86000000000018
 11
-38.73999999999942
 21
58.86000000000018
  0
LINE
  5
316
100
AcDbEntity
  8
0_GND
  6
ByLayer
 62
  256
370
   -1
100
AcDbLine
 10
-36.1999999999995
 20
48.7000000000001
 11
-38.73999999999939
 21
48.7000000000001
  0
LINE
  5
317
100
AcDbEntity
  8
0_GND
  6
ByLayer
 62
  256
370
   -1
100
AcDbLine
 10
-38.73999999999939
 20
48.7000000000001
 11
-41.27999999999928
 21
48.7000000000001
  0
LINE
  5
318
100
AcDbEntity
  8
12V line
  6
ByLayer
 62
  256
370
   -1
100
AcDbLine
 10
-20.96000000000017
 20
58.86000000000018
 11
-20.96000000000018
 21
56.32000000000017
  0
LINE
  5
319
100
AcDbEntity
  8
12V line
  6
ByLayer
 62
  256
370
   -1
100
AcDbLine
 10
-20.96000000000018
 20
56.32000000000017
 11
-20.96000000000017
 21
53.78000000000015
  0
LINE
  5
31A
100
AcDbEntity
  8
12V line
  6
ByLayer
 62
  256
370
   -1
100
AcDbLine
 10
-20.96000000000017
 20
53.78000000000015
 11
-23.50000000000005
 21
53.78000000000014
  0
LINE
  5
31B
100
AcDbEntity
  8
12V line
  6
ByLayer
 62
  256
370
   -1
100
AcDbLine
 10
-23.50000000000005
 20
53.78000000000014
 11
-26.03999999999994
 21
53.78000000000014
  0
LINE
  5
31C
100
AcDbEntity
  8
12V line
  6
ByLayer
 62
  256
370
   -1
100
AcDbLine
 10
-26.03999999999994
 20
53.78000000000014
 11
-26.03999999999994
 21
51.24000000000012
  0
LINE
  5
31D
100
AcDbEntity
  8
12V line
  6
ByLayer
 62
  256
370
   -1
100
AcDbLine
 10
-26.03999999999994
 20
51.24000000000012
 11
-26.03999999999993
 21
48.7000000000001
  0
LINE
  5
31E
100
AcDbEntity
  8
12V line
  6
ByLayer
 62
  256
370
   -1
100
AcDbLine
 10
-26.03999999999993
 20
48.7000000000001
 11
-28.57999999999982
 21
48.7000000000001
  0
LINE
  5
31F
100
AcDbEntity
  8
12V line
  6
ByLayer
 62
  256
370
   -1
100
AcDbLine
 10
-28.57999999999982
 20
48.7000000000001
 11
-31.11999999999971
 21
48.7000000000001
  0
LINE
  5
320
100
AcDbEntity
  8
5V line
  6
ByLayer
 62
  256
370
   -1
100
AcDbLine
 10
-15.88000000000039
 20
58.86000000000018
 11
-15.88000000000042
 21
56.32000000000019
  0
LINE
  5
321
100
AcDbEntity
  8
5V line
  6
ByLayer
 62
  256
370
   -1
100
AcDbLine
 10
-15.88000000000042
 20
56.32000000000019
 11
-15.88000000000041
 21
53.78000000000016
  0
LINE
  5
322
100
AcDbEntity
  8
5V line
  6
ByLayer
 62
  256
370
   -1
100
AcDbLine
 10
-15.88000000000041
 20
53.78000000000016
 11
-15.88000000000041
 21
51.24000000000014
  0
LINE
  5
323
100
AcDbEntity
  8
5V line
  6
ByLayer
 62
  256
370
   -1
100
AcDbLine
 10
-15.88000000000041
 20
51.24000000000014
 11
-15.8800000000004
 21
48.70000000000012
  0
LINE
  5
324
100
AcDbEntity
  8
5V line
  6
ByLayer
 62
  256
370
   -1
100
AcDbLine
 10
-15.8800000000004
 20
48.70000000000012
 11
-18.42000000000028
 21
48.70000000000012
  0
LINE
  5
325
100
AcDbEntity
  8
5V line
  6
ByLayer
 62
  256
370
   -1
100
AcDbLine
 10
-18.42000000000028
 20
48.70000000000012
 11
-20.96000000000014
 21
48.7000000000001
  0
LINE
  5
326
100
AcDbEntity
  8
3.3V line
  6
ByLayer
 62
  256
370
   -1
100
AcDbLine
 10
-10.80000000000062
 20
58.86000000000018
 11
-10.80000000000067
 21
56.3200000000002
  0
LINE
  5
327
100
AcDbEntity
  8
3.3V line
  6
ByLayer
 62
  256
370
   -1
100
AcDbLine
 10
-10.80000000000067
 20
56.3200000000002
 11
-10.80000000000066
 21
53.78000000000018
  0
LINE
  5
328
100
AcDbEntity
  8
3.3V line
  6
ByLayer
 62
  256
370
   -1
100
AcDbLine
 10
-10.80000000000066
 20
53.78000000000018
 11
-10.80000000000065
 21
51.24000000000016
  0
LINE
  5
329
100
AcDbEntity
  8
3.3V line
  6
ByLayer
 62
  256
370
   -1
100
AcDbLine
 10
-10.80000000000065
 20
51.24000000000016
 11
-10.80000000000064
 21
48.70000000000014
  0
LINE
  5
32A
100
AcDbEntity
  8
3.3V line
  6
ByLayer
 62
  256
370
   -1
100
AcDbLine
 10
-10.80000000000064
 20
48.70000000000014
 11
-8.260000000000769
 21
48.70000000000014
  0
LINE
  5
32B
100
AcDbEntity
  8
3.3V line
  6
ByLayer
 62
  256
370
   -1
100
AcDbLine
 10
-8.260000000000769
 20
48.70000000000014
 11
-5.720000000000891
 21
48.70000000000015
  0
MTEXT
  5
32C
100
AcDbEntity
  8
switch
  6
ByLayer
 62
  256
370
   -1
100
AcDbMText
 10
-41.15979543574992
 20
60.59996209946129
 30
0
 40
1
 41
2.333333121331184
 71
    5
 72
    1
  1
SW1
  7
STANDARD
210
0
220
0
230
1
 50
0
 73
    2
 44
1
  0
MTEXT
  5
32D
100
AcDbEntity
  8
0_GND
  6
ByLayer
 62
  256
370
   -1
100
AcDbMText
 10
-39.76922200430949
 20
55.19254207649362
 30
0
 40
1
 41
2.333333333333457
 71
    5
 72
    1
  1
GND
  7
STANDARD
210
0
220
0
230
1
 50
0
 73
    2
 44
1
  0
MTEXT
  5
32E
100
AcDbEntity
  8
0_wire
  6
ByLayer
 62
  256
370
   -1
100
AcDbMText
 10
-36.03520713621787
 20
60.28129846160625
 30
0
 40
1
 41
4.777777565775629
 71
    5
 72
    1
  1
PS_ON
  7
STANDARD
210
0
220
0
230
1
 50
0
 73
    2
 44
1
  0
MTEXT
  5
32F
100
AcDbEntity
  8
12V line
  6
ByLayer
 62
  256
370
   -1
100
AcDbMText
 10
-19.63136474042333
 20
60.21756573403524
 30
0
 40
1
 41
2
 71
    5
 72
    1
  1
12V
  7
STANDARD
210
0
220
0
230
1
 50
0
 73
    2
 44
1
  0
MTEXT
  5
330
100
AcDbEntity
  8
5V line
  6
ByLayer
 62
  256
370
   -1
100
AcDbMText
 10
-16.06064734789422
 20
60.99222028545542
 30
0
 40
1
 41
1.444444444444506
 71
    5
 72
    1
  1
5V
  7
STANDARD
210
0
220
0
230
1
 50
0
 73
    2
 44
1
  0
MTEXT
  5
331
100
AcDbEntity
  8
3.3V line
  6
ByLayer
 62
  256
370
   -1
100
AcDbMText
 10
-11.34442550763957
 20
61.31088392331046
 30
0
 40
1
 41
2.555555555555679
 71
    5
 72
    1
  1
3.3V
  7
STANDARD
210
0
220
0
230
1
 50
0
 73
    2
 44
1
  0
CIRCLE
  5
332
100
AcDbEntity
  8
UB P-03231
  6
ByLayer
 62
  256
370
   -1
100
AcDbCircle
 10
-3.1800000000009
 20
36.00000000000002
 40
0.5
  0
CIRCLE
  5
333
100
AcDbEntity
  8
UB P-03231
  6
ByLayer
 62
  256
370
   -1
100
AcDbCircle
 10
-0.6400000000010309
 20
36.00000000000003
 40
0.5
  0
CIRCLE
  5
334
100
AcDbEntity
  8
UB P-03231
  6
ByLayer
 62
  256
370
   -1
100
AcDbCircle
 10
1.899999999998849
 20
36.00000000000004
 40
0.5
  0
CIRCLE
  5
335
100
AcDbEntity
  8
UB P-03231
  6
ByLayer
 62
  256
370
   -1
100
AcDbCircle
 10
4.439999999998729
 20
36.00000000000004
 40
0.5
  0
CIRCLE
  5
336
100
AcDbEntity
  8
UB P-03231
  6
ByLayer
 62
  256
370
   -1
100
AcDbCircle
 10
6.97999999999861
 20
36.00000000000005
 40
0.5
  0
CIRCLE
  5
337
100
AcDbEntity
  8
UB P-03231
  6
ByLayer
 62
  256
370
   -1
100
AcDbCircle
 10
-3.180000000000911
 20
38.54000000000004
 40
0.5
  0
CIRCLE
  5
338
100
AcDbEntity
  8
UB P-03231
  6
ByLayer
 62
  256
370
   -1
100
AcDbCircle
 10
-0.6400000000010309
 20
38.54000000000005
 40
0.5
  0
CIRCLE
  5
339
100
AcDbEntity
  8
UB P-03231
  6
ByLayer
 62
  256
370
   -1
100
AcDbCircle
 10
1.899999999998839
 20
38.54000000000006
 40
0.5
  0
CIRCLE
  5
33A
100
AcDbEntity
  8
UB P-03231
  6
ByLayer
 62
  256
370
   -1
100
AcDbCircle
 10
4.439999999998719
 20
38.54000000000006
 40
0.5
  0
CIRCLE
  5
33B
100
AcDbEntity
  8
UB P-03231
  6
ByLayer
 62
  256
370
   -1
100
AcDbCircle
 10
6.979999999998599
 20
38.54000000000007
 40
0.5
  0
CIRCLE
  5
33C
100
AcDbEntity
  8
UB P-03231
  6
ByLayer
 62
  256
370
   -1
100
AcDbCircle
 10
-3.18000000000092
 20
41.08000000000006
 40
0.5
  0
CIRCLE
  5
33D
100
AcDbEntity
  8
UB P-03231
  6
ByLayer
 62
  256
370
   -1
100
AcDbCircle
 10
-0.6400000000010415
 20
41.08000000000007
 40
0.5
  0
CIRCLE
  5
33E
100
AcDbEntity
  8
UB P-03231
  6
ByLayer
 62
  256
370
   -1
100
AcDbCircle
 10
1.899999999998839
 20
41.08000000000008
 40
0.5
  0
CIRCLE
  5
33F
100
AcDbEntity
  8
UB P-03231
  6
ByLayer
 62
  256
370
   -1
100
AcDbCircle
 10
4.439999999998719
 20
41.08000000000008
 40
0.5
  0
CIRCLE
  5
340
100
AcDbEntity
  8
UB P-03231
  6
ByLayer
 62
  256
370
   -1
100
AcDbCircle
 10
6.97999999999859
 20
41.08000000000009
 40
0.5
  0
CIRCLE
  5
341
100
AcDbEntity
  8
UB P-03231
  6
ByLayer
 62
  256
370
   -1
100
AcDbCircle
 10
-3.180000000000931
 20
43.62000000000008
 40
0.5
  0
CIRCLE
  5
342
100
AcDbEntity
  8
UB P-03231
  6
ByLayer
 62
  256
370
   -1
100
AcDbCircle
 10
-0.6400000000010504
 20
43.62000000000009
 40
0.5
  0
CIRCLE
  5
343
100
AcDbEntity
  8
UB P-03231
  6
ByLayer
 62
  256
370
   -1
100
AcDbCircle
 10
1.89999999999883
 20
43.6200000000001
 40
0.5
  0
CIRCLE
  5
344
100
AcDbEntity
  8
UB P-03231
  6
ByLayer
 62
  256
370
   -1
100
AcDbCircle
 10
4.439999999998708
 20
43.6200000000001
 40
0.5
  0
CIRCLE
  5
345
100
AcDbEntity
  8
UB P-03231
  6
ByLayer
 62
  256
370
   -1
100
AcDbCircle
 10
6.97999999999859
 20
43.62000000000011
 40
0.5
  0
CIRCLE
  5
346
100
AcDbEntity
  8
UB P-03231
  6
ByLayer
 62
  256
370
   -1
100
AcDbCircle
 10
-3.180000000000931
 20
46.1600000000001
 40
0.5
  0
CIRCLE
  5
347
100
AcDbEntity
  8
UB P-03231
  6
ByLayer
 62
  256
370
   -1
100
AcDbCircle
 10
-0.6400000000010611
 20
46.16000000000011
 40
0.5
  0
CIRCLE
  5
348
100
AcDbEntity
  8
UB P-03231
  6
ByLayer
 62
  256
370
   -1
100
AcDbCircle
 10
1.899999999998819
 20
46.16000000000012
 40
0.5
  0
CIRCLE
  5
349
100
AcDbEntity
  8
UB P-03231
  6
ByLayer
 62
  256
370
   -1
100
AcDbCircle
 10
4.439999999998701
 20
46.16000000000012
 40
0.5
  0
CIRCLE
  5
34A
100
AcDbEntity
  8
UB P-03231
  6
ByLayer
 62
  256
370
   -1
100
AcDbCircle
 10
6.979999999998579
 20
46.16000000000013
 40
0.5
  0
CIRCLE
  5
34B
100
AcDbEntity
  8
UB P-03231
  6
ByLayer
 62
  256
370
   -1
100
AcDbCircle
 10
-3.180000000000941
 20
48.70000000000012
 40
0.5
  0
CIRCLE
  5
34C
100
AcDbEntity
  8
UB P-03231
  6
ByLayer
 62
  256
370
   -1
100
AcDbCircle
 10
-0.6400000000010611
 20
48.70000000000013
 40
0.5
  0
CIRCLE
  5
34D
100
AcDbEntity
  8
UB P-03231
  6
ByLayer
 62
  256
370
   -1
100
AcDbCircle
 10
1.899999999998819
 20
48.70000000000014
 40
0.5
  0
CIRCLE
  5
34E
100
AcDbEntity
  8
UB P-03231
  6
ByLayer
 62
  256
370
   -1
100
AcDbCircle
 10
4.43999999999869
 20
48.70000000000014
 40
0.5
  0
CIRCLE
  5
34F
100
AcDbEntity
  8
UB P-03231
  6
ByLayer
 62
  256
370
   -1
100
AcDbCircle
 10
6.979999999998569
 20
48.70000000000015
 40
0.5
  0
CIRCLE
  5
350
100
AcDbEntity
  8
UB P-03231
  6
ByLayer
 62
  256
370
   -1
100
AcDbCircle
 10
-3.18000000000095
 20
51.24000000000014
 40
0.5
  0
CIRCLE
  5
351
100
AcDbEntity
  8
UB P-03231
  6
ByLayer
 62
  256
370
   -1
100
AcDbCircle
 10
-0.6400000000010699
 20
51.24000000000015
 40
0.5
  0
CIRCLE
  5
352
100
AcDbEntity
  8
UB P-03231
  6
ByLayer
 62
  256
370
   -1
100
AcDbCircle
 10
1.899999999998808
 20
51.24000000000016
 40
0.5
  0
CIRCLE
  5
353
100
AcDbEntity
  8
UB P-03231
  6
ByLayer
 62
  256
370
   -1
100
AcDbCircle
 10
4.43999999999869
 20
51.24000000000017
 40
0.5
  0
CIRCLE
  5
354
100
AcDbEntity
  8
UB P-03231
  6
ByLayer
 62
  256
370
   -1
100
AcDbCircle
 10
6.979999999998569
 20
51.24000000000017
 40
0.5
  0
CIRCLE
  5
355
100
AcDbEntity
  8
UB P-03231
  6
ByLayer
 62
  256
370
   -1
100
AcDbCircle
 10
-3.18000000000095
 20
53.78000000000016
 40
0.5
  0
CIRCLE
  5
356
100
AcDbEntity
  8
UB P-03231
  6
ByLayer
 62
  256
370
   -1
100
AcDbCircle
 10
-0.6400000000010806
 20
53.78000000000017
 40
0.5
  0
CIRCLE
  5
357
100
AcDbEntity
  8
UB P-03231
  6
ByLayer
 62
  256
370
   -1
100
AcDbCircle
 10
1.8999999999988
 20
53.78000000000018
 40
0.5
  0
CIRCLE
  5
358
100
AcDbEntity
  8
UB P-03231
  6
ByLayer
 62
  256
370
   -1
100
AcDbCircle
 10
4.43999999999868
 20
53.78000000000019
 40
0.5
  0
CIRCLE
  5
359
100
AcDbEntity
  8
UB P-03231
  6
ByLayer
 62
  256
370
   -1
100
AcDbCircle
 10
6.979999999998561
 20
53.78000000000019
 40
0.5
  0
CIRCLE
  5
35A
100
AcDbEntity
  8
UB P-03231
  6
ByLayer
 62
  256
370
   -1
100
AcDbCircle
 10
-3.180000000000961
 20
56.32000000000019
 40
0.5
  0
CIRCLE
  5
35B
100
AcDbEntity
  8
UB P-03231
  6
ByLayer
 62
  256
370
   -1
100
AcDbCircle
 10
-0.6400000000010806
 20
56.32000000000019
 40
0.5
  0
CIRCLE
  5
35C
100
AcDbEntity
  8
UB P-03231
  6
ByLayer
 62
  256
370
   -1
100
AcDbCircle
 10
1.899999999998789
 20
56.3200000000002
 40
0.5
  0
CIRCLE
  5
35D
100
AcDbEntity
  8
UB P-03231
  6
ByLayer
 62
  256
370
   -1
100
AcDbCircle
 10
4.439999999998669
 20
56.32000000000021
 40
0.5
  0
CIRCLE
  5
35E
100
AcDbEntity
  8
UB P-03231
  6
ByLayer
 62
  256
370
   -1
100
AcDbCircle
 10
6.979999999998549
 20
56.32000000000021
 40
0.5
  0
CIRCLE
  5
35F
100
AcDbEntity
  8
UB P-03231
  6
ByLayer
 62
  256
370
   -1
100
AcDbCircle
 10
-3.180000000000971
 20
58.86000000000021
 40
0.5
  0
CIRCLE
  5
360
100
AcDbEntity
  8
UB P-03231
  6
ByLayer
 62
  256
370
   -1
100
AcDbCircle
 10
-0.6400000000010913
 20
58.86000000000021
 40
0.5
  0
CIRCLE
  5
361
100
AcDbEntity
  8
UB P-03231
  6
ByLayer
 62
  256
370
   -1
100
AcDbCircle
 10
1.899999999998789
 20
58.86000000000022
 40
0.5
  0
CIRCLE
  5
362
100
AcDbEntity
  8
UB P-03231
  6
ByLayer
 62
  256
370
   -1
100
AcDbCircle
 10
4.439999999998669
 20
58.86000000000023
 40
0.5
  0
CIRCLE
  5
363
100
AcDbEntity
  8
UB P-03231
  6
ByLayer
 62
  256
370
   -1
100
AcDbCircle
 10
6.979999999998538
 20
58.86000000000023
 40
0.5
  0
CIRCLE
  5
364
100
AcDbEntity
  8
UB P-03231
  6
ByLayer
 62
  256
370
   -1
100
AcDbCircle
 10
-3.18000000000098
 20
61.40000000000023
 40
0.5
  0
CIRCLE
  5
365
100
AcDbEntity
  8
UB P-03231
  6
ByLayer
 62
  256
370
   -1
100
AcDbCircle
 10
-0.6400000000011001
 20
61.40000000000023
 40
0.5
  0
CIRCLE
  5
366
100
AcDbEntity
  8
UB P-03231
  6
ByLayer
 62
  256
370
   -1
100
AcDbCircle
 10
1.89999999999878
 20
61.40000000000024
 40
0.5
  0
CIRCLE
  5
367
100
AcDbEntity
  8
UB P-03231
  6
ByLayer
 62
  256
370
   -1
100
AcDbCircle
 10
4.439999999998658
 20
61.40000000000025
 40
0.5
  0
CIRCLE
  5
368
100
AcDbEntity
  8
UB P-03231
  6
ByLayer
 62
  256
370
   -1
100
AcDbCircle
 10
6.979999999998538
 20
61.40000000000025
 40
0.5
  0
CIRCLE
  5
369
100
AcDbEntity
  8
UB P-03231
  6
ByLayer
 62
  256
370
   -1
100
AcDbCircle
 10
-3.18000000000098
 20
63.94000000000025
 40
0.5
  0
CIRCLE
  5
36A
100
AcDbEntity
  8
UB P-03231
  6
ByLayer
 62
  256
370
   -1
100
AcDbCircle
 10
-0.6400000000011001
 20
63.94000000000025
 40
0.5
  0
CIRCLE
  5
36B
100
AcDbEntity
  8
UB P-03231
  6
ByLayer
 62
  256
370
   -1
100
AcDbCircle
 10
1.899999999998769
 20
63.94000000000026
 40
0.5
  0
CIRCLE
  5
36C
100
AcDbEntity
  8
UB P-03231
  6
ByLayer
 62
  256
370
   -1
100
AcDbCircle
 10
4.439999999998648
 20
63.94000000000027
 40
0.5
  0
CIRCLE
  5
36D
100
AcDbEntity
  8
UB P-03231
  6
ByLayer
 62
  256
370
   -1
100
AcDbCircle
 10
6.97999999999853
 20
63.94000000000027
 40
0.5
  0
CIRCLE
  5
36E
100
AcDbEntity
  8
UB P-03231
  6
ByLayer
 62
  256
370
   -1
100
AcDbCircle
 10
-3.180000000000991
 20
66.48000000000027
 40
0.5
  0
CIRCLE
  5
36F
100
AcDbEntity
  8
UB P-03231
  6
ByLayer
 62
  256
370
   -1
100
AcDbCircle
 10
-0.6400000000011108
 20
66.48000000000027
 40
0.5
  0
CIRCLE
  5
370
100
AcDbEntity
  8
UB P-03231
  6
ByLayer
 62
  256
370
   -1
100
AcDbCircle
 10
1.899999999998769
 20
66.48000000000027
 40
0.5
  0
CIRCLE
  5
371
100
AcDbEntity
  8
UB P-03231
  6
ByLayer
 62
  256
370
   -1
100
AcDbCircle
 10
4.439999999998641
 20
66.48000000000029
 40
0.5
  0
CIRCLE
  5
372
100
AcDbEntity
  8
UB P-03231
  6
ByLayer
 62
  256
370
   -1
100
AcDbCircle
 10
6.979999999998519
 20
66.4800000000003
 40
0.5
  0
CIRCLE
  5
373
100
AcDbEntity
  8
UB P-03231
  6
ByLayer
 62
  256
370
   -1
100
AcDbCircle
 10
-3.1800000000009
 20
33.46000000000001
 40
0.5
  0
CIRCLE
  5
374
100
AcDbEntity
  8
UB P-03231
  6
ByLayer
 62
  256
370
   -1
100
AcDbCircle
 10
-0.6400000000010309
 20
33.46000000000002
 40
0.5
  0
CIRCLE
  5
375
100
AcDbEntity
  8
UB P-03231
  6
ByLayer
 62
  256
370
   -1
100
AcDbCircle
 10
1.899999999998849
 20
33.46000000000002
 40
0.5
  0
CIRCLE
  5
376
100
AcDbEntity
  8
UB P-03231
  6
ByLayer
 62
  256
370
   -1
100
AcDbCircle
 10
4.439999999998729
 20
33.46000000000003
 40
0.5
  0
CIRCLE
  5
377
100
AcDbEntity
  8
UB P-03231
  6
ByLayer
 62
  256
370
   -1
100
AcDbCircle
 10
6.97999999999861
 20
33.46000000000004
 40
0.5
  0
CIRCLE
  5
378
100
AcDbEntity
  8
UB P-03231
  6
ByLayer
 62
  256
370
   -1
100
AcDbCircle
 10
-3.1800000000009
 20
30.91999999999999
 40
0.5
  0
CIRCLE
  5
379
100
AcDbEntity
  8
UB P-03231
  6
ByLayer
 62
  256
370
   -1
100
AcDbCircle
 10
-0.6400000000010309
 20
30.92
 40
0.5
  0
CIRCLE
  5
37A
100
AcDbEntity
  8
UB P-03231
  6
ByLayer
 62
  256
370
   -1
100
AcDbCircle
 10
1.899999999998849
 20
30.92000000000001
 40
0.5
  0
CIRCLE
  5
37B
100
AcDbEntity
  8
UB P-03231
  6
ByLayer
 62
  256
370
   -1
100
AcDbCircle
 10
4.439999999998729
 20
30.92000000000002
 40
0.5
  0
CIRCLE
  5
37C
100
AcDbEntity
  8
UB P-03231
  6
ByLayer
 62
  256
370
   -1
100
AcDbCircle
 10
6.97999999999861
 20
30.92000000000002
 40
0.5
  0
CIRCLE
  5
37D
100
AcDbEntity
  8
UB P-03231
  6
ByLayer
 62
  256
370
   -1
100
AcDbCircle
 10
-3.1800000000009
 20
28.37999999999998
 40
0.5
  0
CIRCLE
  5
37E
100
AcDbEntity
  8
UB P-03231
  6
ByLayer
 62
  256
370
   -1
100
AcDbCircle
 10
-0.6400000000010309
 20
28.37999999999999
 40
0.5
  0
CIRCLE
  5
37F
100
AcDbEntity
  8
UB P-03231
  6
ByLayer
 62
  256
370
   -1
100
AcDbCircle
 10
1.899999999998849
 20
28.38
 40
0.5
  0
CIRCLE
  5
380
100
AcDbEntity
  8
UB P-03231
  6
ByLayer
 62
  256
370
   -1
100
AcDbCircle
 10
4.439999999998729
 20
28.38
 40
0.5
  0
CIRCLE
  5
381
100
AcDbEntity
  8
UB P-03231
  6
ByLayer
 62
  256
370
   -1
100
AcDbCircle
 10
6.97999999999861
 20
28.38000000000001
 40
0.5
  0
CIRCLE
  5
382
100
AcDbEntity
  8
UB P-03231
  6
ByLayer
 62
  256
370
   -1
100
AcDbCircle
 10
-3.1800000000009
 20
25.83999999999997
 40
0.5
  0
CIRCLE
  5
383
100
AcDbEntity
  8
UB P-03231
  6
ByLayer
 62
  256
370
   -1
100
AcDbCircle
 10
-0.6400000000010309
 20
25.83999999999997
 40
0.5
  0
CIRCLE
  5
384
100
AcDbEntity
  8
UB P-03231
  6
ByLayer
 62
  256
370
   -1
100
AcDbCircle
 10
1.899999999998849
 20
25.83999999999998
 40
0.5
  0
CIRCLE
  5
385
100
AcDbEntity
  8
UB P-03231
  6
ByLayer
 62
  256
370
   -1
100
AcDbCircle
 10
4.439999999998729
 20
25.83999999999999
 40
0.5
  0
CIRCLE
  5
386
100
AcDbEntity
  8
UB P-03231
  6
ByLayer
 62
  256
370
   -1
100
AcDbCircle
 10
6.97999999999861
 20
25.84
 40
0.5
  0
CIRCLE
  5
387
100
AcDbEntity
  8
UB P-03231
  6
ByLayer
 62
  256
370
   -1
100
AcDbCircle
 10
-3.1800000000009
 20
23.29999999999995
 40
0.5
  0
CIRCLE
  5
388
100
AcDbEntity
  8
UB P-03231
  6
ByLayer
 62
  256
370
   -1
100
AcDbCircle
 10
-0.6400000000010309
 20
23.29999999999996
 40
0.5
  0
CIRCLE
  5
389
100
AcDbEntity
  8
UB P-03231
  6
ByLayer
 62
  256
370
   -1
100
AcDbCircle
 10
1.899999999998849
 20
23.29999999999997
 40
0.5
  0
CIRCLE
  5
38A
100
AcDbEntity
  8
UB P-03231
  6
ByLayer
 62
  256
370
   -1
100
AcDbCircle
 10
4.439999999998729
 20
23.29999999999998
 40
0.5
  0
CIRCLE
  5
38B
100
AcDbEntity
  8
UB P-03231
  6
ByLayer
 62
  256
370
   -1
100
AcDbCircle
 10
6.97999999999861
 20
23.29999999999998
 40
0.5
  0
CIRCLE
  5
38C
100
AcDbEntity
  8
UB P-03231
  6
ByLayer
 62
  256
370
   -1
100
AcDbCircle
 10
-3.1800000000009
 20
20.75999999999994
 40
0.5
  0
CIRCLE
  5
38D
100
AcDbEntity
  8
UB P-03231
  6
ByLayer
 62
  256
370
   -1
100
AcDbCircle
 10
-0.6400000000010309
 20
20.75999999999995
 40
0.5
  0
CIRCLE
  5
38E
100
AcDbEntity
  8
UB P-03231
  6
ByLayer
 62
  256
370
   -1
100
AcDbCircle
 10
1.899999999998849
 20
20.75999999999996
 40
0.5
  0
CIRCLE
  5
38F
100
AcDbEntity
  8
UB P-03231
  6
ByLayer
 62
  256
370
   -1
100
AcDbCircle
 10
4.439999999998729
 20
20.75999999999996
 40
0.5
  0
CIRCLE
  5
390
100
AcDbEntity
  8
UB P-03231
  6
ByLayer
 62
  256
370
   -1
100
AcDbCircle
 10
6.97999999999861
 20
20.75999999999997
 40
0.5
  0
CIRCLE
  5
391
100
AcDbEntity
  8
UB P-03231
  6
ByLayer
 62
  256
370
   -1
100
AcDbCircle
 10
-3.1800000000009
 20
18.21999999999993
 40
0.5
  0
CIRCLE
  5
392
100
AcDbEntity
  8
UB P-03231
  6
ByLayer
 62
  256
370
   -1
100
AcDbCircle
 10
-0.6400000000010309
 20
18.21999999999993
 40
0.5
  0
CIRCLE
  5
393
100
AcDbEntity
  8
UB P-03231
  6
ByLayer
 62
  256
370
   -1
100
AcDbCircle
 10
1.899999999998849
 20
18.21999999999994
 40
0.5
  0
CIRCLE
  5
394
100
AcDbEntity
  8
UB P-03231
  6
ByLayer
 62
  256
370
   -1
100
AcDbCircle
 10
4.439999999998729
 20
18.21999999999995
 40
0.5
  0
CIRCLE
  5
395
100
AcDbEntity
  8
UB P-03231
  6
ByLayer
 62
  256
370
   -1
100
AcDbCircle
 10
6.97999999999861
 20
18.21999999999996
 40
0.5
  0
CIRCLE
  5
396
100
AcDbEntity
  8
UB P-03231
  6
ByLayer
 62
  256
370
   -1
100
AcDbCircle
 10
-3.1800000000009
 20
15.67999999999991
 40
0.5
  0
CIRCLE
  5
397
100
AcDbEntity
  8
UB P-03231
  6
ByLayer
 62
  256
370
   -1
100
AcDbCircle
 10
-0.6400000000010309
 20
15.67999999999992
 40
0.5
  0
CIRCLE
  5
398
100
AcDbEntity
  8
UB P-03231
  6
ByLayer
 62
  256
370
   -1
100
AcDbCircle
 10
1.899999999998849
 20
15.67999999999993
 40
0.5
  0
CIRCLE
  5
399
100
AcDbEntity
  8
UB P-03231
  6
ByLayer
 62
  256
370
   -1
100
AcDbCircle
 10
4.439999999998729
 20
15.67999999999994
 40
0.5
  0
CIRCLE
  5
39A
100
AcDbEntity
  8
UB P-03231
  6
ByLayer
 62
  256
370
   -1
100
AcDbCircle
 10
6.97999999999861
 20
15.67999999999994
 40
0.5
  0
CIRCLE
  5
39B
100
AcDbEntity
  8
UB P-03231
  6
ByLayer
 62
  256
370
   -1
100
AcDbCircle
 10
-3.1800000000009
 20
13.1399999999999
 40
0.5
  0
CIRCLE
  5
39C
100
AcDbEntity
  8
UB P-03231
  6
ByLayer
 62
  256
370
   -1
100
AcDbCircle
 10
-0.6400000000010309
 20
13.13999999999991
 40
0.5
  0
CIRCLE
  5
39D
100
AcDbEntity
  8
UB P-03231
  6
ByLayer
 62
  256
370
   -1
100
AcDbCircle
 10
1.899999999998849
 20
13.13999999999992
 40
0.5
  0
CIRCLE
  5
39E
100
AcDbEntity
  8
UB P-03231
  6
ByLayer
 62
  256
370
   -1
100
AcDbCircle
 10
4.439999999998729
 20
13.13999999999992
 40
0.5
  0
CIRCLE
  5
39F
100
AcDbEntity
  8
UB P-03231
  6
ByLayer
 62
  256
370
   -1
100
AcDbCircle
 10
6.97999999999861
 20
13.13999999999993
 40
0.5
  0
CIRCLE
  5
3A0
100
AcDbEntity
  8
UB P-03231
  6
ByLayer
 62
  256
370
   -1
100
AcDbCircle
 10
-3.1800000000009
 20
10.59999999999989
 40
0.5
  0
CIRCLE
  5
3A1
100
AcDbEntity
  8
UB P-03231
  6
ByLayer
 62
  256
370
   -1
100
AcDbCircle
 10
-0.6400000000010309
 20
10.59999999999989
 40
0.5
  0
CIRCLE
  5
3A2
100
AcDbEntity
  8
UB P-03231
  6
ByLayer
 62
  256
370
   -1
100
AcDbCircle
 10
1.899999999998849
 20
10.5999999999999
 40
0.5
  0
CIRCLE
  5
3A3
100
AcDbEntity
  8
UB P-03231
  6
ByLayer
 62
  256
370
   -1
100
AcDbCircle
 10
4.439999999998729
 20
10.59999999999991
 40
0.5
  0
CIRCLE
  5
3A4
100
AcDbEntity
  8
UB P-03231
  6
ByLayer
 62
  256
370
   -1
100
AcDbCircle
 10
6.97999999999861
 20
10.59999999999992
 40
0.5
  0
CIRCLE
  5
3A5
100
AcDbEntity
  8
UB P-03231
  6
ByLayer
 62
  256
370
   -1
100
AcDbCircle
 10
-3.1800000000009
 20
8.059999999999874
 40
0.5
  0
CIRCLE
  5
3A6
100
AcDbEntity
  8
UB P-03231
  6
ByLayer
 62
  256
370
   -1
100
AcDbCircle
 10
-0.6400000000010309
 20
8.059999999999881
 40
0.5
  0
CIRCLE
  5
3A7
100
AcDbEntity
  8
UB P-03231
  6
ByLayer
 62
  256
370
   -1
100
AcDbCircle
 10
1.899999999998849
 20
8.059999999999889
 40
0.5
  0
CIRCLE
  5
3A8
100
AcDbEntity
  8
UB P-03231
  6
ByLayer
 62
  256
370
   -1
100
AcDbCircle
 10
4.439999999998729
 20
8.059999999999896
 40
0.5
  0
CIRCLE
  5
3A9
100
AcDbEntity
  8
UB P-03231
  6
ByLayer
 62
  256
370
   -1
100
AcDbCircle
 10
-3.1800000000009
 20
5.519999999999861
 40
0.5
  0
CIRCLE
  5
3AA
100
AcDbEntity
  8
UB P-03231
  6
ByLayer
 62
  256
370
   -1
100
AcDbCircle
 10
-0.6400000000010309
 20
5.519999999999868
 40
0.5
  0
CIRCLE
  5
3AB
100
AcDbEntity
  8
UB P-03231
  6
ByLayer
 62
  256
370
   -1
100
AcDbCircle
 10
1.899999999998849
 20
5.519999999999875
 40
0.5
  0
MTEXT
  5
3AC
100
AcDbEntity
  8
pin socket
  6
ByLayer
 62
  256
370
   -1
100
AcDbMText
 10
-44.75753160885628
 20
28.29323764421527
 30
0
 40
1
 41
3.77777777777784
 71
    5
 72
    1
  1
toGND
  7
STANDARD
210
0
220
0
230
1
 50
0
 73
    2
 44
1
  0
CIRCLE
  5
3AD
100
AcDbEntity
  8
UB P-03231
  6
ByLayer
 62
  256
370
   -1
100
AcDbCircle
 10
-41.27999999999926
 20
8.059999999999853
 40
0.5
  0
CIRCLE
  5
3AE
100
AcDbEntity
  8
UB P-03231
  6
ByLayer
 62
  256
370
   -1
100
AcDbCircle
 10
-38.73999999999936
 20
5.51999999999984
 40
0.5
  0
CIRCLE
  5
3AF
100
AcDbEntity
  8
UB P-03231
  6
ByLayer
 62
  256
370
   -1
100
AcDbCircle
 10
-41.27999999999926
 20
5.51999999999984
 40
0.5
  0
LINE
  5
3B0
100
AcDbEntity
  8
pin socket
  6
ByLayer
 62
  256
370
   -1
100
AcDbLine
 10
5.709999999998516
 20
11.86999999999968
 11
5.709999999998516
 21
9.330000000000153
  0
LINE
  5
3B1
100
AcDbEntity
  8
pin socket
  6
ByLayer
 62
  256
370
   -1
100
AcDbLine
 10
5.709999999998516
 20
9.330000000000153
 11
8.249999999998707
 21
9.330000000000153
  0
LINE
  5
3B2
100
AcDbEntity
  8
pin socket
  6
ByLayer
 62
  256
370
   -1
100
AcDbLine
 10
8.249999999998707
 20
9.330000000000153
 11
8.249999999998707
 21
11.86999999999968
  0
LINE
  5
3B3
100
AcDbEntity
  8
pin socket
  6
ByLayer
 62
  256
370
   -1
100
AcDbLine
 10
8.249999999998707
 20
11.86999999999968
 11
5.709999999998516
 21
11.86999999999968
  0
CIRCLE
  5
3B4
100
AcDbEntity
  8
pin socket
  6
ByLayer
 62
  256
370
   -1
100
AcDbCircle
 10
6.979999999998611
 20
10.59999999999992
 40
0.45
  0
LINE
  5
3B5
100
AcDbEntity
  8
pin socket
  6
ByLayer
 62
  256
370
   -1
100
AcDbLine
 10
5.709999999998516
 20
14.40999999999969
 11
5.709999999998516
 21
11.87000000000016
  0
LINE
  5
3B6
100
AcDbEntity
  8
pin socket
  6
ByLayer
 62
  256
370
   -1
100
AcDbLine
 10
5.709999999998516
 20
11.87000000000016
 11
8.249999999998707
 21
11.87000000000016
  0
LINE
  5
3B7
100
AcDbEntity
  8
pin socket
  6
ByLayer
 62
  256
370
   -1
100
AcDbLine
 10
8.249999999998707
 20
11.87000000000016
 11
8.249999999998707
 21
14.40999999999969
  0
LINE
  5
3B8
100
AcDbEntity
  8
pin socket
  6
ByLayer
 62
  256
370
   -1
100
AcDbLine
 10
8.249999999998707
 20
14.40999999999969
 11
5.709999999998516
 21
14.40999999999969
  0
CIRCLE
  5
3B9
100
AcDbEntity
  8
pin socket
  6
ByLayer
 62
  256
370
   -1
100
AcDbCircle
 10
6.979999999998611
 20
13.13999999999993
 40
0.45
  0
MTEXT
  5
3BA
100
AcDbEntity
  8
pin socket
  6
ByLayer
 62
  256
370
   -1
100
AcDbMText
 10
9.468641239088734
 20
14.92035813839921
 30
0
 40
1
 41
1.333333333333395
 71
    5
 72
    1
  1
U3
  7
STANDARD
210
0
220
0
230
1
 50
0
 73
    2
 44
1
  0
MTEXT
  5
3BB
100
AcDbEntity
  8
pin socket
  6
ByLayer
 62
  256
370
   -1
100
AcDbMText
 10
10.00004735225674
 20
10.5072961309944
 30
0
 40
1
 41
2.77777777777784
 71
    5
 72
    1
  1
toD2
  7
STANDARD
210
0
220
0
230
1
 50
0
 73
    2
 44
1
  0
MTEXT
  5
3BC
100
AcDbEntity
  8
pin socket
  6
ByLayer
 62
  256
370
   -1
100
AcDbMText
 10
9.925172242791138
 20
13.18121946844151
 30
0
 40
1
 41
2.777777777777902
 71
    5
 72
    1
  1
toD3
  7
STANDARD
210
0
220
0
230
1
 50
0
 73
    2
 44
1
  0
LINE
  5
3BD
100
AcDbEntity
  8
pin socket
  6
ByLayer
 62
  256
370
   -1
100
AcDbLine
 10
-42.54999999999934
 20
27.10999999999971
 11
-42.54999999999934
 21
24.57000000000019
  0
LINE
  5
3BE
100
AcDbEntity
  8
pin socket
  6
ByLayer
 62
  256
370
   -1
100
AcDbLine
 10
-42.54999999999934
 20
24.57000000000019
 11
-40.00999999999915
 21
24.57000000000019
  0
LINE
  5
3BF
100
AcDbEntity
  8
pin socket
  6
ByLayer
 62
  256
370
   -1
100
AcDbLine
 10
-40.00999999999915
 20
24.57000000000019
 11
-40.00999999999915
 21
27.10999999999971
  0
LINE
  5
3C0
100
AcDbEntity
  8
pin socket
  6
ByLayer
 62
  256
370
   -1
100
AcDbLine
 10
-40.00999999999915
 20
27.10999999999971
 11
-42.54999999999934
 21
27.10999999999971
  0
CIRCLE
  5
3C1
100
AcDbEntity
  8
pin socket
  6
ByLayer
 62
  256
370
   -1
100
AcDbCircle
 10
-41.27999999999925
 20
25.83999999999995
 40
0.45
  0
LINE
  5
3C2
100
AcDbEntity
  8
pin socket
  6
ByLayer
 62
  256
370
   -1
100
AcDbLine
 10
-42.54999999999934
 20
29.64999999999973
 11
-42.54999999999934
 21
27.11000000000019
  0
LINE
  5
3C3
100
AcDbEntity
  8
pin socket
  6
ByLayer
 62
  256
370
   -1
100
AcDbLine
 10
-42.54999999999934
 20
27.11000000000019
 11
-40.00999999999915
 21
27.11000000000019
  0
LINE
  5
3C4
100
AcDbEntity
  8
pin socket
  6
ByLayer
 62
  256
370
   -1
100
AcDbLine
 10
-40.00999999999915
 20
27.11000000000019
 11
-40.00999999999915
 21
29.64999999999973
  0
LINE
  5
3C5
100
AcDbEntity
  8
pin socket
  6
ByLayer
 62
  256
370
   -1
100
AcDbLine
 10
-40.00999999999915
 20
29.64999999999973
 11
-42.54999999999934
 21
29.64999999999973
  0
CIRCLE
  5
3C6
100
AcDbEntity
  8
pin socket
  6
ByLayer
 62
  256
370
   -1
100
AcDbCircle
 10
-41.27999999999925
 20
28.37999999999996
 40
0.45
  0
MTEXT
  5
3C7
100
AcDbEntity
  8
pin socket
  6
ByLayer
 62
  256
370
   -1
100
AcDbMText
 10
-42.77923679589762
 20
30.47938881928463
 30
0
 40
1
 41
1.333333333333333
 71
    5
 72
    1
  1
U2
  7
STANDARD
210
0
220
0
230
1
 50
0
 73
    2
 44
1
  0
MTEXT
  5
3C8
100
AcDbEntity
  8
pin socket
  6
ByLayer
 62
  256
370
   -1
100
AcDbMText
 10
-44.75753160885628
 20
25.75323764421526
 30
0
 40
1
 41
3.77777777777784
 71
    5
 72
    1
  1
toGND
  7
STANDARD
210
0
220
0
230
1
 50
0
 73
    2
 44
1
  0
LINE
  5
3C9
100
AcDbEntity
  8
0_GND
  6
ByLayer
 62
  256
370
   -1
100
AcDbLine
 10
-41.27999999999925
 20
28.37999999999996
 11
-41.27999999999925
 21
25.83999999999995
  0
LINE
  5
3CA
100
AcDbEntity
  8
pin socket
  6
ByLayer
 62
  256
370
   -1
100
AcDbLine
 10
-42.54999999999936
 20
6.789999999999605
 11
-42.54999999999936
 21
4.250000000000082
  0
LINE
  5
3CB
100
AcDbEntity
  8
pin socket
  6
ByLayer
 62
  256
370
   -1
100
AcDbLine
 10
-42.54999999999936
 20
4.250000000000082
 11
-40.00999999999917
 21
4.250000000000082
  0
LINE
  5
3CC
100
AcDbEntity
  8
pin socket
  6
ByLayer
 62
  256
370
   -1
100
AcDbLine
 10
-40.00999999999917
 20
4.250000000000082
 11
-40.00999999999917
 21
6.789999999999605
  0
LINE
  5
3CD
100
AcDbEntity
  8
pin socket
  6
ByLayer
 62
  256
370
   -1
100
AcDbLine
 10
-40.00999999999917
 20
6.789999999999605
 11
-42.54999999999936
 21
6.789999999999605
  0
CIRCLE
  5
3CE
100
AcDbEntity
  8
pin socket
  6
ByLayer
 62
  256
370
   -1
100
AcDbCircle
 10
-41.27999999999926
 20
5.519999999999843
 40
0.45
  0
LINE
  5
3CF
100
AcDbEntity
  8
pin socket
  6
ByLayer
 62
  256
370
   -1
100
AcDbLine
 10
-42.54999999999936
 20
9.329999999999622
 11
-42.54999999999936
 21
6.790000000000084
  0
LINE
  5
3D0
100
AcDbEntity
  8
pin socket
  6
ByLayer
 62
  256
370
   -1
100
AcDbLine
 10
-42.54999999999936
 20
6.790000000000084
 11
-40.00999999999917
 21
6.790000000000084
  0
LINE
  5
3D1
100
AcDbEntity
  8
pin socket
  6
ByLayer
 62
  256
370
   -1
100
AcDbLine
 10
-40.00999999999917
 20
6.790000000000084
 11
-40.00999999999917
 21
9.329999999999622
  0
LINE
  5
3D2
100
AcDbEntity
  8
pin socket
  6
ByLayer
 62
  256
370
   -1
100
AcDbLine
 10
-40.00999999999917
 20
9.329999999999622
 11
-42.54999999999936
 21
9.329999999999622
  0
CIRCLE
  5
3D3
100
AcDbEntity
  8
pin socket
  6
ByLayer
 62
  256
370
   -1
100
AcDbCircle
 10
-41.27999999999926
 20
8.059999999999853
 40
0.45
  0
MTEXT
  5
3D4
100
AcDbEntity
  8
pin socket
  6
ByLayer
 62
  256
370
   -1
100
AcDbMText
 10
-42.77923679589763
 20
10.15938881928452
 30
0
 40
1
 41
1.111111111111111
 71
    5
 72
    1
  1
U1
  7
STANDARD
210
0
220
0
230
1
 50
0
 73
    2
 44
1
  0
MTEXT
  5
3D5
100
AcDbEntity
  8
pin socket
  6
ByLayer
 62
  256
370
   -1
100
AcDbMText
 10
-44.7575316088563
 20
5.433237644215154
 30
0
 40
1
 41
2.888888888888951
 71
    5
 72
    1
  1
toA5
  7
STANDARD
210
0
220
0
230
1
 50
0
 73
    2
 44
1
  0
LINE
  5
3D6
100
AcDbEntity
  8
terminal
  6
ByLayer
 62
  256
370
   -1
100
AcDbLine
 10
-23.49999999999944
 20
62.91000000000019
 11
-13.49999999999944
 21
62.91000000000019
  0
LINE
  5
3D7
100
AcDbEntity
  8
draft
  6
ByLayer
 62
  256
370
   -1
100
AcDbLine
 10
-23.49999999999944
 20
62.91000000000018
 11
-13.49999999999944
 21
62.91000000000018
  0
LINE
  5
3D8
100
AcDbEntity
  8
terminal
  6
ByLayer
 62
  256
370
   -1
100
AcDbLine
 10
-23.49999999999944
 20
62.91000000000018
 11
-33.66000000000008
 21
62.91000000000018
  0
MTEXT
  5
3D9
100
AcDbEntity
  8
0
  6
ByLayer
 62
  256
370
   -1
100
AcDbMText
 10
-71.65400055239155
 20
17.80371780808883
 30
0
 40
1
 41
17.97222222222252
 71
    4
 72
    1
  1
U1-3: Pin Header, unknown\PU4-6: Terminal, APF-102
  7
STANDARD
210
0
220
0
230
1
 50
0
 73
    2
 44
1
  0
LINE
  5
3DA
100
AcDbEntity
  8
UB P-03231
  6
ByLayer
 62
  256
370
   -1
100
AcDbLine
 10
-41.27999999999925
 20
32.18999999999962
 11
6.97999999999861
 21
32.18999999999967
  0
LINE
  5
3DB
100
AcDbEntity
  8
0_GND
  6
ByLayer
 62
  256
370
   -1
100
AcDbLine
 10
-33.65999999999957
 20
25.83999999999995
 11
-41.27999999999925
 21
25.83999999999995
  0
LINE
  5
3DC
100
AcDbEntity
  8
0_wire
  6
ByLayer
 62
  256
370
   -1
100
AcDbLine
 10
-28.57999999999979
 20
13.13999999999988
 11
-28.57999999999979
 21
10.59999999999987
  0
LINE
  5
3DD
100
AcDbEntity
  8
0_wire
  6
ByLayer
 62
  256
370
   -1
100
AcDbLine
 10
-28.57999999999979
 20
10.59999999999987
 11
-28.57999999999979
 21
8.059999999999853
  0
LINE
  5
3DE
100
AcDbEntity
  8
0_wire
  6
ByLayer
 62
  256
370
   -1
100
AcDbLine
 10
-28.57999999999979
 20
8.059999999999853
 11
-28.57999999999979
 21
5.51999999999984
  0
LINE
  5
3DF
100
AcDbEntity
  8
0_wire
  6
ByLayer
 62
  256
370
   -1
100
AcDbLine
 10
-28.57999999999979
 20
5.51999999999984
 11
-31.11999999999968
 21
5.51999999999984
  0
LINE
  5
3E0
100
AcDbEntity
  8
0_wire
  6
ByLayer
 62
  256
370
   -1
100
AcDbLine
 10
-31.11999999999968
 20
5.51999999999984
 11
-33.65999999999957
 21
5.51999999999984
  0
LINE
  5
3E1
100
AcDbEntity
  8
0_wire
  6
ByLayer
 62
  256
370
   -1
100
AcDbLine
 10
-33.65999999999957
 20
5.51999999999984
 11
-36.19999999999946
 21
5.51999999999984
  0
LINE
  5
3E2
100
AcDbEntity
  8
0_wire
  6
ByLayer
 62
  256
370
   -1
100
AcDbLine
 10
-36.19999999999946
 20
5.51999999999984
 11
-38.73999999999936
 21
5.51999999999984
  0
LINE
  5
3E3
100
AcDbEntity
  8
0_wire
  6
ByLayer
 62
  256
370
   -1
100
AcDbLine
 10
-38.73999999999936
 20
5.51999999999984
 11
-41.27999999999926
 21
5.51999999999984
  0
LINE
  5
3E4
100
AcDbEntity
  8
0_wire
  6
ByLayer
 62
  256
370
   -1
100
AcDbLine
 10
-15.88000000000035
 20
13.1399999999999
 11
-15.88000000000036
 21
10.59999999999989
  0
LINE
  5
3E5
100
AcDbEntity
  8
0_wire
  6
ByLayer
 62
  256
370
   -1
100
AcDbLine
 10
-15.88000000000036
 20
10.59999999999989
 11
-13.34000000000049
 21
10.59999999999989
  0
LINE
  5
3E6
100
AcDbEntity
  8
0_wire
  6
ByLayer
 62
  256
370
   -1
100
AcDbLine
 10
-13.34000000000049
 20
10.59999999999989
 11
-10.80000000000061
 21
10.5999999999999
  0
LINE
  5
3E7
100
AcDbEntity
  8
0_wire
  6
ByLayer
 62
  256
370
   -1
100
AcDbLine
 10
-10.80000000000061
 20
10.5999999999999
 11
-8.26000000000073
 21
10.59999999999991
  0
LINE
  5
3E8
100
AcDbEntity
  8
0_wire
  6
ByLayer
 62
  256
370
   -1
100
AcDbLine
 10
-8.26000000000073
 20
10.59999999999991
 11
-5.72000000000085
 21
10.59999999999992
  0
LINE
  5
3E9
100
AcDbEntity
  8
0_wire
  6
ByLayer
 62
  256
370
   -1
100
AcDbLine
 10
-5.72000000000085
 20
10.59999999999992
 11
-3.1800000000009
 21
10.59999999999989
  0
LINE
  5
3EA
100
AcDbEntity
  8
0_wire
  6
ByLayer
 62
  256
370
   -1
100
AcDbLine
 10
-3.1800000000009
 20
10.59999999999989
 11
-0.6400000000010309
 21
10.59999999999989
  0
LINE
  5
3EB
100
AcDbEntity
  8
0_wire
  6
ByLayer
 62
  256
370
   -1
100
AcDbLine
 10
-0.6400000000010309
 20
10.59999999999989
 11
1.899999999998849
 21
10.5999999999999
  0
LINE
  5
3EC
100
AcDbEntity
  8
0_wire
  6
ByLayer
 62
  256
370
   -1
100
AcDbLine
 10
1.899999999998849
 20
10.5999999999999
 11
4.439999999998729
 21
10.59999999999991
  0
LINE
  5
3ED
100
AcDbEntity
  8
0_wire
  6
ByLayer
 62
  256
370
   -1
100
AcDbLine
 10
4.439999999998729
 20
10.59999999999991
 11
6.97999999999861
 21
10.59999999999992
  0
LINE
  5
3EE
100
AcDbEntity
  8
terminal
  6
ByLayer
 62
  256
370
   -1
100
AcDbLine
 10
-36.19999999999992
 20
19.7299999999999
 11
-36.19999999999992
 21
11.62999999999989
  0
LINE
  5
3EF
100
AcDbEntity
  8
terminal
  6
ByLayer
 62
  256
370
   -1
100
AcDbLine
 10
-36.19999999999992
 20
11.62999999999989
 11
-26.03999999999927
 21
11.62999999999989
  0
LINE
  5
3F0
100
AcDbEntity
  8
terminal
  6
ByLayer
 62
  256
370
   -1
100
AcDbLine
 10
-26.03999999999927
 20
11.62999999999989
 11
-26.03999999999927
 21
19.7299999999999
  0
CIRCLE
  5
3F1
100
AcDbEntity
  8
terminal
  6
ByLayer
 62
  256
370
   -1
100
AcDbCircle
 10
-33.65999999999957
 20
15.67999999999989
 40
0.45
  0
CIRCLE
  5
3F2
100
AcDbEntity
  8
terminal
  6
ByLayer
 62
  256
370
   -1
100
AcDbCircle
 10
-28.57999999999979
 20
15.67999999999989
 40
0.45
  0
LINE
  5
3F3
100
AcDbEntity
  8
terminal
  6
ByLayer
 62
  256
370
   -1
100
AcDbLine
 10
-26.03999999999927
 20
11.62999999999989
 11
-26.03999999999927
 21
19.7299999999999
  0
LINE
  5
3F4
100
AcDbEntity
  8
terminal
  6
ByLayer
 62
  256
370
   -1
100
AcDbLine
 10
-26.03999999999927
 20
19.72999999999989
 11
-36.19999999999992
 21
19.72999999999989
  0
MTEXT
  5
3F5
100
AcDbEntity
  8
terminal
  6
ByLayer
 62
  256
370
   -1
100
AcDbMText
 10
-35.36907108843101
 20
18.90934233834954
 30
0
 40
1
 41
1.444444444444444
 71
    5
 72
    1
  1
U4
  7
STANDARD
210
0
220
0
230
1
 50
0
 73
    2
 44
1
  0
LINE
  5
3F6
100
AcDbEntity
  8
terminal
  6
ByLayer
 62
  256
370
   -1
100
AcDbLine
 10
-23.50000000000048
 20
19.72999999999992
 11
-23.50000000000048
 21
11.62999999999991
  0
LINE
  5
3F7
100
AcDbEntity
  8
terminal
  6
ByLayer
 62
  256
370
   -1
100
AcDbLine
 10
-23.50000000000048
 20
11.62999999999991
 11
-13.33999999999983
 21
11.62999999999991
  0
LINE
  5
3F8
100
AcDbEntity
  8
terminal
  6
ByLayer
 62
  256
370
   -1
100
AcDbLine
 10
-13.33999999999983
 20
11.62999999999991
 11
-13.33999999999983
 21
19.72999999999992
  0
CIRCLE
  5
3F9
100
AcDbEntity
  8
terminal
  6
ByLayer
 62
  256
370
   -1
100
AcDbCircle
 10
-20.96000000000013
 20
15.67999999999991
 40
0.45
  0
CIRCLE
  5
3FA
100
AcDbEntity
  8
terminal
  6
ByLayer
 62
  256
370
   -1
100
AcDbCircle
 10
-15.88000000000035
 20
15.67999999999991
 40
0.45
  0
LINE
  5
3FB
100
AcDbEntity
  8
terminal
  6
ByLayer
 62
  256
370
   -1
100
AcDbLine
 10
-13.33999999999983
 20
11.62999999999991
 11
-13.33999999999983
 21
19.72999999999992
  0
LINE
  5
3FC
100
AcDbEntity
  8
terminal
  6
ByLayer
 62
  256
370
   -1
100
AcDbLine
 10
-13.33999999999983
 20
19.72999999999992
 11
-23.50000000000048
 21
19.72999999999992
  0
LINE
  5
3FD
100
AcDbEntity
  8
terminal
  6
ByLayer
 62
  256
370
   -1
100
AcDbLine
 10
-10.80000000000109
 20
19.72999999999995
 11
-10.80000000000109
 21
11.62999999999994
  0
LINE
  5
3FE
100
AcDbEntity
  8
terminal
  6
ByLayer
 62
  256
370
   -1
100
AcDbLine
 10
-10.80000000000109
 20
11.62999999999994
 11
-0.6400000000004393
 21
11.62999999999994
  0
LINE
  5
3FF
100
AcDbEntity
  8
terminal
  6
ByLayer
 62
  256
370
   -1
100
AcDbLine
 10
-0.6400000000004393
 20
11.62999999999994
 11
-0.6400000000004393
 21
19.72999999999995
  0
CIRCLE
  5
400
100
AcDbEntity
  8
terminal
  6
ByLayer
 62
  256
370
   -1
100
AcDbCircle
 10
-8.260000000000739
 20
15.67999999999994
 40
0.45
  0
CIRCLE
  5
401
100
AcDbEntity
  8
terminal
  6
ByLayer
 62
  256
370
   -1
100
AcDbCircle
 10
-3.180000000000961
 20
15.67999999999994
 40
0.45
  0
LINE
  5
402
100
AcDbEntity
  8
terminal
  6
ByLayer
 62
  256
370
   -1
100
AcDbLine
 10
-0.6400000000004393
 20
11.62999999999994
 11
-0.6400000000004393
 21
19.72999999999995
  0
LINE
  5
403
100
AcDbEntity
  8
terminal
  6
ByLayer
 62
  256
370
   -1
100
AcDbLine
 10
-0.6400000000004393
 20
19.72999999999994
 11
-10.80000000000109
 21
19.72999999999994
  0
MTEXT
  5
404
100
AcDbEntity
  8
terminal
  6
ByLayer
 62
  256
370
   -1
100
AcDbMText
 10
-22.66907108843157
 20
18.90934233834956
 30
0
 40
1
 41
1.333333333333395
 71
    5
 72
    1
  1
U5
  7
STANDARD
210
0
220
0
230
1
 50
0
 73
    2
 44
1
  0
MTEXT
  5
405
100
AcDbEntity
  8
terminal
  6
ByLayer
 62
  256
370
   -1
100
AcDbMText
 10
-9.969071088432182
 20
18.90934233834959
 30
0
 40
1
 41
1.333333333333395
 71
    5
 72
    1
  1
U6
  7
STANDARD
210
0
220
0
230
1
 50
0
 73
    2
 44
1
  0
MTEXT
  5
406
100
AcDbEntity
  8
terminal
  6
ByLayer
 62
  256
370
   -1
100
AcDbMText
 10
-31.04517652614403
 20
21.22780877481576
 30
0
 40
1
 41
4.055555555555555
 71
    5
 72
    1
  1
- C1 +
  7
STANDARD
210
0
220
0
230
1
 50
0
 73
    2
 44
1
  0
MTEXT
  5
407
100
AcDbEntity
  8
terminal
  6
ByLayer
 62
  256
370
   -1
100
AcDbMText
 10
-18.25421692389195
 20
20.9242944791691
 30
0
 40
1
 41
1.111111111111111
 71
    5
 72
    1
  1
R1
  7
STANDARD
210
0
220
0
230
1
 50
0
 73
    2
 44
1
  0
MTEXT
  5
408
100
AcDbEntity
  8
terminal
  6
ByLayer
 62
  256
370
   -1
100
AcDbMText
 10
-5.289820581270351
 20
21.01101284935386
 30
0
 40
1
 41
1.333333333333333
 71
    5
 72
    1
  1
R2
  7
STANDARD
210
0
220
0
230
1
 50
0
 73
    2
 44
1
  0
LINE
  5
409
100
AcDbEntity
  8
0_GND
  6
ByLayer
 62
  256
370
   -1
100
AcDbLine
 10
-33.65999999999957
 20
25.83999999999995
 11
-33.65999999999957
 21
23.29999999999993
  0
LINE
  5
40A
100
AcDbEntity
  8
0_GND
  6
ByLayer
 62
  256
370
   -1
100
AcDbLine
 10
-33.65999999999957
 20
23.29999999999993
 11
-33.65999999999957
 21
20.75999999999992
  0
LINE
  5
40B
100
AcDbEntity
  8
0_GND
  6
ByLayer
 62
  256
370
   -1
100
AcDbLine
 10
-33.65999999999957
 20
20.75999999999992
 11
-33.65999999999957
 21
18.21999999999991
  0
LINE
  5
40C
100
AcDbEntity
  8
0_GND
  6
ByLayer
 62
  256
370
   -1
100
AcDbLine
 10
-33.65999999999957
 20
18.21999999999991
 11
-33.65999999999957
 21
15.67999999999989
  0
LINE
  5
40D
100
AcDbEntity
  8
0_wire
  6
ByLayer
 62
  256
370
   -1
100
AcDbLine
 10
-28.57999999999979
 20
13.13999999999988
 11
-28.57999999999979
 21
15.67999999999989
  0
LINE
  5
40E
100
AcDbEntity
  8
0_wire
  6
ByLayer
 62
  256
370
   -1
100
AcDbLine
 10
-28.57999999999979
 20
15.67999999999989
 11
-26.03999999999989
 21
15.67999999999989
  0
LINE
  5
40F
100
AcDbEntity
  8
0_wire
  6
ByLayer
 62
  256
370
   -1
100
AcDbLine
 10
-26.03999999999989
 20
15.67999999999989
 11
-23.5
 21
15.67999999999989
  0
LINE
  5
410
100
AcDbEntity
  8
0_wire
  6
ByLayer
 62
  256
370
   -1
100
AcDbLine
 10
-23.5
 20
15.67999999999989
 11
-20.96000000000012
 21
15.6799999999999
  0
LINE
  5
411
100
AcDbEntity
  8
0_wire
  6
ByLayer
 62
  256
370
   -1
100
AcDbLine
 10
-15.88000000000036
 20
15.67999999999991
 11
-15.88000000000036
 21
13.1399999999999
  0
LINE
  5
412
100
AcDbEntity
  8
0_wire
  6
ByLayer
 62
  256
370
   -1
100
AcDbLine
 10
-8.26000000000073
 20
15.67999999999994
 11
-8.26000000000073
 21
18.21999999999995
  0
LINE
  5
413
100
AcDbEntity
  8
0_wire
  6
ByLayer
 62
  256
370
   -1
100
AcDbLine
 10
-8.26000000000073
 20
18.21999999999995
 11
-13.34000000000049
 21
18.21999999999993
  0
LINE
  5
414
100
AcDbEntity
  8
0_wire
  6
ByLayer
 62
  256
370
   -1
100
AcDbLine
 10
-13.34000000000049
 20
18.21999999999993
 11
-15.88000000000036
 21
18.21999999999993
  0
LINE
  5
415
100
AcDbEntity
  8
0_wire
  6
ByLayer
 62
  256
370
   -1
100
AcDbLine
 10
-15.88000000000036
 20
18.21999999999993
 11
-18.42000000000024
 21
18.21999999999992
  0
LINE
  5
416
100
AcDbEntity
  8
0_wire
  6
ByLayer
 62
  256
370
   -1
100
AcDbLine
 10
-18.42000000000024
 20
18.21999999999992
 11
-20.96000000000012
 21
18.21999999999991
  0
LINE
  5
417
100
AcDbEntity
  8
0_wire
  6
ByLayer
 62
  256
370
   -1
100
AcDbLine
 10
-20.96000000000012
 20
18.21999999999991
 11
-20.96000000000013
 21
15.67999999999991
  0
LINE
  5
418
100
AcDbEntity
  8
0_wire
  6
ByLayer
 62
  256
370
   -1
100
AcDbLine
 10
-3.180000000000961
 20
15.67999999999994
 11
-3.1800000000009
 21
13.1399999999999
  0
LINE
  5
419
100
AcDbEntity
  8
0_wire
  6
ByLayer
 62
  256
370
   -1
100
AcDbLine
 10
-3.1800000000009
 20
13.1399999999999
 11
-0.6400000000010309
 21
13.13999999999991
  0
LINE
  5
41A
100
AcDbEntity
  8
0_wire
  6
ByLayer
 62
  256
370
   -1
100
AcDbLine
 10
-0.6400000000010309
 20
13.13999999999991
 11
1.899999999998849
 21
13.13999999999992
  0
LINE
  5
41B
100
AcDbEntity
  8
0_wire
  6
ByLayer
 62
  256
370
   -1
100
AcDbLine
 10
1.899999999998849
 20
13.13999999999992
 11
4.439999999998729
 21
13.13999999999992
  0
LINE
  5
41C
100
AcDbEntity
  8
0_wire
  6
ByLayer
 62
  256
370
   -1
100
AcDbLine
 10
4.439999999998729
 20
13.13999999999992
 11
6.97999999999861
 21
13.13999999999993
  0
ENDSEC
  0
SECTION
  2
OBJECTS
  0
DICTIONARY
  5
C
330
0
100
AcDbDictionary
281
    1
  3
ACAD_GROUP
350
D
  0
DICTIONARY
  5
D
330
C
100
AcDbDictionary
281
    1
  0
PLOTSETTINGS
  5
41D
100
AcDbPlotSettings
  6
1x1
 40
0
 41
0
 42
0
 43
0
  0
ENDSEC
  0
EOF
