999
dxfrw 0.6.3
  0
SECTION
  2
HEADER
  9
$ACADVER
  1
AC1021
  9
$DWGCODEPAGE
  3
ANSI_1252
  9
$INSBASE
 10
0
 20
0
 30
0
  9
$EXTMIN
 10
-61.97061818121788
 20
11.07010991332895
 30
0
  9
$EXTMAX
 10
32.87999999999745
 20
103.1218476370855
 30
0
  9
$LIMMIN
 10
0
 20
0
  9
$LIMMAX
 10
420
 20
297
  9
$ORTHOMODE
 70
    0
  9
$REGENMODE
 70
    1
  9
$FILLMODE
 70
    1
  9
$QTEXTMODE
 70
    0
  9
$MIRRTEXT
 70
    0
  9
$LTSCALE
 40
1
  9
$ATTMODE
 70
    0
  9
$TEXTSIZE
 40
2.5
  9
$TRACEWID
 40
15.68
  9
$TEXTSTYLE
  7
STANDARD
  9
$CLAYER
  8
0
  9
$CELTYPE
  6
BYLAYER
  9
$CECOLOR
 62
  256
  9
$CELTSCALE
 40
1
  9
$DISPSILH
 70
    0
  9
$DIMSCALE
 40
1
  9
$DIMASZ
 40
2.5
  9
$DIMEXO
 40
0.625
  9
$DIMDLI
 40
3.75
  9
$DIMRND
 40
0
  9
$DIMDLE
 40
0
  9
$DIMEXE
 40
1.25
  9
$DIMTP
 40
0
  9
$DIMTM
 40
0
  9
$DIMTXT
 40
2.5
  9
$DIMCEN
 40
2.5
  9
$DIMTSZ
 40
0
  9
$DIMTOL
 70
    0
  9
$DIMLIM
 70
    0
  9
$DIMTIH
 70
    0
  9
$DIMTOH
 70
    0
  9
$DIMSE1
 70
    0
  9
$DIMSE2
 70
    0
  9
$DIMTAD
 70
    1
  9
$DIMZIN
 70
    8
  9
$DIMBLK
  1

  9
$DIMASO
 70
    1
  9
$DIMSHO
 70
    1
  9
$DIMPOST
  1

  9
$DIMAPOST
  1

  9
$DIMALT
 70
    0
  9
$DIMALTD
 70
    3
  9
$DIMALTF
 40
0.03937
  9
$DIMLFAC
 40
1
  9
$DIMTOFL
 70
    1
  9
$DIMTVP
 40
0
  9
$DIMTIX
 70
    0
  9
$DIMSOXD
 70
    0
  9
$DIMSAH
 70
    0
  9
$DIMBLK1
  1

  9
$DIMBLK2
  1

  9
$DIMSTYLE
  2
STANDARD
  9
$DIMCLRD
 70
    0
  9
$DIMCLRE
 70
    0
  9
$DIMCLRT
 70
    0
  9
$DIMTFAC
 40
1
  9
$DIMGAP
 40
0.625
  9
$DIMJUST
 70
    0
  9
$DIMSD1
 70
    0
  9
$DIMSD2
 70
    0
  9
$DIMTOLJ
 70
    0
  9
$DIMTZIN
 70
    8
  9
$DIMALTZ
 70
    0
  9
$DIMALTTZ
 70
    0
  9
$DIMUPT
 70
    0
  9
$DIMDEC
 70
    2
  9
$DIMTDEC
 70
    2
  9
$DIMALTU
 70
    2
  9
$DIMALTTD
 70
    3
  9
$DIMTXSTY
  7
STANDARD
  9
$DIMAUNIT
 70
    0
  9
$DIMADEC
 70
    0
  9
$DIMALTRND
 40
0
  9
$DIMAZIN
 70
    0
  9
$DIMDSEP
 70
   44
  9
$DIMATFIT
 70
    3
  9
$DIMFRAC
 70
    0
  9
$DIMLDRBLK
  1
STANDARD
  9
$DIMLUNIT
 70
    2
  9
$DIMLWD
 70
   -2
  9
$DIMLWE
 70
   -2
  9
$DIMTMOVE
 70
    0
  9
$DIMFXL
 40
1
  9
$DIMFXLON
 70
    0
  9
$DIMJOGANG
 40
0.7854
  9
$DIMTFILL
 70
    0
  9
$DIMTFILLCLR
 70
    0
  9
$DIMARCSYM
 70
    0
  9
$DIMLTYPE
  6

  9
$DIMLTEX1
  6

  9
$DIMLTEX2
  6

  9
$LUNITS
 70
    2
  9
$LUPREC
 70
    4
  9
$SKETCHINC
 40
1
  9
$FILLETRAD
 40
0
  9
$AUNITS
 70
    0
  9
$AUPREC
 70
    2
  9
$MENU
  1
.
  9
$ELEVATION
 40
0
  9
$PELEVATION
 40
0
  9
$THICKNESS
 40
0
  9
$LIMCHECK
 70
    0
  9
$CHAMFERA
 40
0
  9
$CHAMFERB
 40
0
  9
$CHAMFERC
 40
0
  9
$CHAMFERD
 40
0
  9
$SKPOLY
 70
    0
  9
$USRTIMER
 70
    1
  9
$ANGBASE
 50
0
  9
$ANGDIR
 70
    0
  9
$PDMODE
 70
   34
  9
$PDSIZE
 40
0
  9
$PLINEWID
 40
0
  9
$SPLFRAME
 70
    0
  9
$SPLINETYPE
 70
    2
  9
$SPLINESEGS
 70
    8
  9
$HANDSEED
  5
20000
  9
$SURFTAB1
 70
    6
  9
$SURFTAB2
 70
    6
  9
$SURFTYPE
 70
    6
  9
$SURFU
 70
    6
  9
$SURFV
 70
    6
  9
$UCSBASE
  2

  9
$UCSNAME
  2

  9
$UCSORG
 10
0
 20
0
 30
0
  9
$UCSXDIR
 10
1
 20
0
 30
0
  9
$UCSYDIR
 10
0
 20
1
 30
0
  9
$UCSORTHOREF
  2

  9
$UCSORTHOVIEW
 70
    0
  9
$UCSORGTOP
 10
0
 20
0
 30
0
  9
$UCSORGBOTTOM
 10
0
 20
0
 30
0
  9
$UCSORGLEFT
 10
0
 20
0
 30
0
  9
$UCSORGRIGHT
 10
0
 20
0
 30
0
  9
$UCSORGFRONT
 10
0
 20
0
 30
0
  9
$UCSORGBACK
 10
0
 20
0
 30
0
  9
$PUCSBASE
  2

  9
$PUCSNAME
  2

  9
$PUCSORG
 10
0
 20
0
 30
0
  9
$PUCSXDIR
 10
1
 20
0
 30
0
  9
$PUCSYDIR
 10
0
 20
1
 30
0
  9
$PUCSORTHOREF
  2

  9
$PUCSORTHOVIEW
 70
    0
  9
$PUCSORGTOP
 10
0
 20
0
 30
0
  9
$PUCSORGBOTTOM
 10
0
 20
0
 30
0
  9
$PUCSORGLEFT
 10
0
 20
0
 30
0
  9
$PUCSORGRIGHT
 10
0
 20
0
 30
0
  9
$PUCSORGFRONT
 10
0
 20
0
 30
0
  9
$PUCSORGBACK
 10
0
 20
0
 30
0
  9
$USERI1
 70
    0
  9
$USERI2
 70
    0
  9
$USERI3
 70
    0
  9
$USERI4
 70
    0
  9
$USERI5
 70
    0
  9
$USERR1
 40
0
  9
$USERR2
 40
0
  9
$USERR3
 40
0
  9
$USERR4
 40
0
  9
$USERR5
 40
0
  9
$WORLDVIEW
 70
    1
  9
$SHADEDGE
 70
    3
  9
$SHADEDIF
 70
   70
  9
$TILEMODE
 70
    1
  9
$MAXACTVP
 70
   64
  9
$PINSBASE
 10
201.9375
 20
0
 30
0
  9
$PLIMCHECK
 70
    0
  9
$PEXTMIN
 10
0
 20
0
 30
0
  9
$PEXTMAX
 10
0
 20
0
 30
0
  9
$GRIDMODE
 70
    0
  9
$SNAPSTYLE
 70
    0
  9
$PLIMMIN
 10
0
 20
0
  9
$PLIMMAX
 10
210
 20
297
  9
$UNITMODE
 70
    0
  9
$VISRETAIN
 70
    1
  9
$PLINEGEN
 70
    0
  9
$PSLTSCALE
 70
    1
  9
$TREEDEPTH
 70
 3020
  9
$CMLSTYLE
  2
Standard
  9
$CMLJUST
 70
    0
  9
$CMLSCALE
 40
20
  9
$PROXYGRAPHICS
 70
    1
  9
$MEASUREMENT
 70
    1
  9
$CELWEIGHT
370
   -1
  9
$ENDCAPS
280
    0
  9
$JOINSTYLE
280
    0
  9
$LWDISPLAY
290
    0
  9
$INSUNITS
 70
    0
  9
$HYPERLINKBASE
  1

  9
$STYLESHEET
  1

  9
$XEDIT
290
    1
  9
$CEPSNTYPE
380
    0
  9
$PSTYLEMODE
290
    1
  9
$EXTNAMES
290
    1
  9
$PSVPSCALE
 40
4.125
  9
$OLESTARTUP
290
    0
  9
$SORTENTS
280
  127
  9
$INDEXCTL
280
    0
  9
$HIDETEXT
280
    1
  9
$XCLIPFRAME
290
    0
  9
$HALOGAP
280
    0
  9
$OBSCOLOR
 70
  257
  9
$OBSLTYPE
280
    0
  9
$INTERSECTIONDISPLAY
280
    0
  9
$INTERSECTIONCOLOR
 70
  257
  9
$DIMASSOC
280
    1
  9
$PROJECTNAME
  1

  9
$CAMERADISPLAY
290
    0
  9
$LENSLENGTH
 40
50
  9
$CAMERAHEIGHT
 40
0
  9
$STEPSPERSEC
 40
2
  9
$STEPSIZE
 40
50
  9
$3DDWFPREC
 40
2
  9
$PSOLWIDTH
 40
5
  9
$PSOLHEIGHT
 40
80
  9
$LOFTANG1
 40
1.570796326794897
  9
$LOFTANG2
 40
1.570796326794897
  9
$LOFTMAG1
 40
0
  9
$LOFTMAG2
 40
0
  9
$LOFTPARAM
 70
    7
  9
$LOFTNORMALS
280
    1
  9
$LATITUDE
 40
1
  9
$LONGITUDE
 40
1
  9
$NORTHDIRECTION
 40
0
  9
$TIMEZONE
 70
-8000
  9
$LIGHTGLYPHDISPLAY
280
    1
  9
$TILEMODELIGHTSYNCH
280
    1
  9
$SOLIDHIST
280
    1
  9
$SHOWHIST
280
    1
  9
$DWFFRAME
280
    2
  9
$DGNFRAME
280
    0
  9
$REALWORLDSCALE
290
    1
  9
$INTERFERECOLOR
 62
    1
  9
$CSHADOW
280
    0
  9
$SHADOWPLANELOCATION
 40
0
  0
ENDSEC
  0
SECTION
  2
CLASSES
  0
ENDSEC
  0
SECTION
  2
TABLES
  0
TABLE
  2
VPORT
  5
8
330
0
100
AcDbSymbolTable
 70
    1
  0
VPORT
  5
31
330
2
100
AcDbSymbolTableRecord
100
AcDbViewportTableRecord
  2
*ACTIVE
 70
    0
 10
0
 20
0
 11
1
 21
1
 12
13.25279032486091
 22
57.55094692136407
 13
0
 23
0
 14
10
 24
10
 15
10
 25
10
 16
0
 26
0
 36
1
 17
0
 27
0
 37
0
 40
55.54892965952338
 41
1.496446700507614
 42
50
 43
0
 44
0
 50
0
 51
0
 71
    0
 72
  100
 73
    1
 74
    3
 75
    0
 76
    0
 77
    0
 78
    0
281
    0
 65
    1
110
0
120
0
130
0
111
1
121
0
131
0
112
0
122
1
132
0
 79
    0
146
0
348
10020
 60
    7
 61
    5
292
1
282
    1
141
0
142
0
 63
  250
421
3358443
  0
ENDTAB
  0
TABLE
  2
LTYPE
  5
5
330
0
100
AcDbSymbolTable
 70
    4
  0
LTYPE
  5
14
330
5
100
AcDbSymbolTableRecord
100
AcDbLinetypeTableRecord
  2
ByBlock
 70
    0
  3

 72
   65
 73
    0
 40
0
  0
LTYPE
  5
15
330
5
100
AcDbSymbolTableRecord
100
AcDbLinetypeTableRecord
  2
ByLayer
 70
    0
  3

 72
   65
 73
    0
 40
0
  0
LTYPE
  5
16
330
5
100
AcDbSymbolTableRecord
100
AcDbLinetypeTableRecord
  2
Continuous
 70
    0
  3
Solid line
 72
   65
 73
    0
 40
0
  0
LTYPE
  5
32
330
5
100
AcDbSymbolTableRecord
100
AcDbLinetypeTableRecord
  2
DOT
 70
    0
  3
Dot . . . . . . . . . . . . . . . . . . . . . .
 72
   65
 73
    2
 40
6.35
 49
0
 74
    0
 49
-6.35
 74
    0
  0
LTYPE
  5
33
330
5
100
AcDbSymbolTableRecord
100
AcDbLinetypeTableRecord
  2
DOTTINY
 70
    0
  3
Dot (.15x) .....................................
 72
   65
 73
    2
 40
0.9525
 49
0
 74
    0
 49
-0.9525
 74
    0
  0
LTYPE
  5
34
330
5
100
AcDbSymbolTableRecord
100
AcDbLinetypeTableRecord
  2
DOT2
 70
    0
  3
Dot (.5x) .....................................
 72
   65
 73
    2
 40
3.175
 49
0
 74
    0
 49
-3.175
 74
    0
  0
LTYPE
  5
35
330
5
100
AcDbSymbolTableRecord
100
AcDbLinetypeTableRecord
  2
DOTX2
 70
    0
  3
Dot (2x) .  .  .  .  .  .  .  .  .  .  .  .  .
 72
   65
 73
    2
 40
12.7
 49
0
 74
    0
 49
-12.7
 74
    0
  0
LTYPE
  5
36
330
5
100
AcDbSymbolTableRecord
100
AcDbLinetypeTableRecord
  2
DASHED
 70
    0
  3
Dashed _ _ _ _ _ _ _ _ _ _ _ _ _ _ _ _ _
 72
   65
 73
    2
 40
19.05
 49
12.7
 74
    0
 49
-6.35
 74
    0
  0
LTYPE
  5
37
330
5
100
AcDbSymbolTableRecord
100
AcDbLinetypeTableRecord
  2
DASHEDTINY
 70
    0
  3
Dashed (.15x) _ _ _ _ _ _ _ _ _ _ _ _ _ _ _ _ _
 72
   65
 73
    2
 40
2.8575
 49
1.905
 74
    0
 49
-0.9525
 74
    0
  0
LTYPE
  5
38
330
5
100
AcDbSymbolTableRecord
100
AcDbLinetypeTableRecord
  2
DASHED2
 70
    0
  3
Dashed (.5x) _ _ _ _ _ _ _ _ _ _ _ _ _ _ _ _ _
 72
   65
 73
    2
 40
9.524999999999999
 49
6.35
 74
    0
 49
-3.175
 74
    0
  0
LTYPE
  5
39
330
5
100
AcDbSymbolTableRecord
100
AcDbLinetypeTableRecord
  2
DASHEDX2
 70
    0
  3
Dashed (2x) ____  ____  ____  ____  ____  ___
 72
   65
 73
    2
 40
38.09999999999999
 49
25.4
 74
    0
 49
-12.7
 74
    0
  0
LTYPE
  5
3A
330
5
100
AcDbSymbolTableRecord
100
AcDbLinetypeTableRecord
  2
DASHDOT
 70
    0
  3
Dash dot __ . __ . __ . __ . __ . __ . __ . __
 72
   65
 73
    4
 40
25.4
 49
12.7
 74
    0
 49
-6.35
 74
    0
 49
0
 74
    0
 49
-6.35
 74
    0
  0
LTYPE
  5
3B
330
5
100
AcDbSymbolTableRecord
100
AcDbLinetypeTableRecord
  2
DASHDOTTINY
 70
    0
  3
Dash dot (.15x) _._._._._._._._._._._._._._._.
 72
   65
 73
    4
 40
3.81
 49
1.905
 74
    0
 49
-0.9525
 74
    0
 49
0
 74
    0
 49
-0.9525
 74
    0
  0
LTYPE
  5
3C
330
5
100
AcDbSymbolTableRecord
100
AcDbLinetypeTableRecord
  2
DASHDOT2
 70
    0
  3
Dash dot (.5x) _._._._._._._._._._._._._._._.
 72
   65
 73
    4
 40
12.7
 49
6.35
 74
    0
 49
-3.175
 74
    0
 49
0
 74
    0
 49
-3.175
 74
    0
  0
LTYPE
  5
3D
330
5
100
AcDbSymbolTableRecord
100
AcDbLinetypeTableRecord
  2
DASHDOTX2
 70
    0
  3
Dash dot (2x) ____  .  ____  .  ____  .  ___
 72
   65
 73
    4
 40
50.8
 49
25.4
 74
    0
 49
-12.7
 74
    0
 49
0
 74
    0
 49
-12.7
 74
    0
  0
LTYPE
  5
3E
330
5
100
AcDbSymbolTableRecord
100
AcDbLinetypeTableRecord
  2
DIVIDE
 70
    0
  3
Divide ____ . . ____ . . ____ . . ____ . . ____
 72
   65
 73
    6
 40
31.75
 49
12.7
 74
    0
 49
-6.35
 74
    0
 49
0
 74
    0
 49
-6.35
 74
    0
 49
0
 74
    0
 49
-6.35
 74
    0
  0
LTYPE
  5
3F
330
5
100
AcDbSymbolTableRecord
100
AcDbLinetypeTableRecord
  2
DIVIDETINY
 70
    0
  3
Divide (.15x) __..__..__..__..__..__..__..__.._
 72
   65
 73
    6
 40
4.7625
 49
1.905
 74
    0
 49
-0.9525
 74
    0
 49
0
 74
    0
 49
-0.9525
 74
    0
 49
0
 74
    0
 49
-0.9525
 74
    0
  0
LTYPE
  5
40
330
5
100
AcDbSymbolTableRecord
100
AcDbLinetypeTableRecord
  2
DIVIDE2
 70
    0
  3
Divide (.5x) __..__..__..__..__..__..__..__.._
 72
   65
 73
    6
 40
15.875
 49
6.35
 74
    0
 49
-3.175
 74
    0
 49
0
 74
    0
 49
-3.175
 74
    0
 49
0
 74
    0
 49
-3.175
 74
    0
  0
LTYPE
  5
41
330
5
100
AcDbSymbolTableRecord
100
AcDbLinetypeTableRecord
  2
DIVIDEX2
 70
    0
  3
Divide (2x) ________  .  .  ________  .  .  _
 72
   65
 73
    6
 40
63.5
 49
25.4
 74
    0
 49
-12.7
 74
    0
 49
0
 74
    0
 49
-12.7
 74
    0
 49
0
 74
    0
 49
-12.7
 74
    0
  0
LTYPE
  5
42
330
5
100
AcDbSymbolTableRecord
100
AcDbLinetypeTableRecord
  2
BORDER
 70
    0
  3
Border __ __ . __ __ . __ __ . __ __ . __ __ .
 72
   65
 73
    6
 40
44.45
 49
12.7
 74
    0
 49
-6.35
 74
    0
 49
12.7
 74
    0
 49
-6.35
 74
    0
 49
0
 74
    0
 49
-6.35
 74
    0
  0
LTYPE
  5
43
330
5
100
AcDbSymbolTableRecord
100
AcDbLinetypeTableRecord
  2
BORDERTINY
 70
    0
  3
Border (.15x) __.__.__.__.__.__.__.__.__.__.__.
 72
   65
 73
    6
 40
6.6675
 49
1.905
 74
    0
 49
-0.9525
 74
    0
 49
1.905
 74
    0
 49
-0.9525
 74
    0
 49
0
 74
    0
 49
-0.9525
 74
    0
  0
LTYPE
  5
44
330
5
100
AcDbSymbolTableRecord
100
AcDbLinetypeTableRecord
  2
BORDER2
 70
    0
  3
Border (.5x) __.__.__.__.__.__.__.__.__.__.__.
 72
   65
 73
    6
 40
22.225
 49
6.35
 74
    0
 49
-3.175
 74
    0
 49
6.35
 74
    0
 49
-3.175
 74
    0
 49
0
 74
    0
 49
-3.175
 74
    0
  0
LTYPE
  5
45
330
5
100
AcDbSymbolTableRecord
100
AcDbLinetypeTableRecord
  2
BORDERX2
 70
    0
  3
Border (2x) ____  ____  .  ____  ____  .  ___
 72
   65
 73
    6
 40
88.89999999999999
 49
25.4
 74
    0
 49
-12.7
 74
    0
 49
25.4
 74
    0
 49
-12.7
 74
    0
 49
0
 74
    0
 49
-12.7
 74
    0
  0
LTYPE
  5
46
330
5
100
AcDbSymbolTableRecord
100
AcDbLinetypeTableRecord
  2
CENTER
 70
    0
  3
Center ____ _ ____ _ ____ _ ____ _ ____ _ ____
 72
   65
 73
    4
 40
50.8
 49
31.75
 74
    0
 49
-6.35
 74
    0
 49
6.35
 74
    0
 49
-6.35
 74
    0
  0
LTYPE
  5
47
330
5
100
AcDbSymbolTableRecord
100
AcDbLinetypeTableRecord
  2
CENTERTINY
 70
    0
  3
Center (.15x) ___ _ ___ _ ___ _ ___ _ ___ _ ___
 72
   65
 73
    4
 40
7.619999999999999
 49
4.7625
 74
    0
 49
-0.9525
 74
    0
 49
0.9525
 74
    0
 49
-0.9525
 74
    0
  0
LTYPE
  5
48
330
5
100
AcDbSymbolTableRecord
100
AcDbLinetypeTableRecord
  2
CENTER2
 70
    0
  3
Center (.5x) ___ _ ___ _ ___ _ ___ _ ___ _ ___
 72
   65
 73
    4
 40
28.575
 49
19.05
 74
    0
 49
-3.175
 74
    0
 49
3.175
 74
    0
 49
-3.175
 74
    0
  0
LTYPE
  5
49
330
5
100
AcDbSymbolTableRecord
100
AcDbLinetypeTableRecord
  2
CENTERX2
 70
    0
  3
Center (2x) ________  __  ________  __  _____
 72
   65
 73
    4
 40
101.6
 49
63.5
 74
    0
 49
-12.7
 74
    0
 49
12.7
 74
    0
 49
-12.7
 74
    0
  0
ENDTAB
  0
TABLE
  2
LAYER
  5
2
330
0
100
AcDbSymbolTable
 70
    1
  0
LAYER
  5
10
330
2
100
AcDbSymbolTableRecord
100
AcDbLayerTableRecord
  2
0
 70
    0
 62
    7
  6
CONTINUOUS
370
   13
390
F
  0
LAYER
  5
4A
330
2
100
AcDbSymbolTableRecord
100
AcDbLayerTableRecord
  2
12V line
 70
    0
 62
    2
  6
CONTINUOUS
370
   15
390
F
  0
LAYER
  5
4B
330
2
100
AcDbSymbolTableRecord
100
AcDbLayerTableRecord
  2
1_VBUS
 70
    0
 62
    1
  6
CONTINUOUS
370
   15
390
F
  0
LAYER
  5
4C
330
2
100
AcDbSymbolTableRecord
100
AcDbLayerTableRecord
  2
2_D-_line
 70
    0
 62
   40
420
16755200
  6
CONTINUOUS
370
   15
390
F
  0
LAYER
  5
4D
330
2
100
AcDbSymbolTableRecord
100
AcDbLayerTableRecord
  2
3_D+_line
 70
    0
 62
    3
  6
CONTINUOUS
370
   15
390
F
  0
LAYER
  5
4E
330
2
100
AcDbSymbolTableRecord
100
AcDbLayerTableRecord
  2
4_GND
 70
    0
 62
    7
  6
CONTINUOUS
370
   15
390
F
  0
LAYER
  5
4F
330
2
100
AcDbSymbolTableRecord
100
AcDbLayerTableRecord
  2
Regulator
 70
    0
 62
  162
420
18906
  6
CONTINUOUS
370
   15
390
F
  0
LAYER
  5
50
330
2
100
AcDbSymbolTableRecord
100
AcDbLayerTableRecord
  2
condenser
 70
    0
 62
    5
  6
CONTINUOUS
370
   15
390
F
  0
LAYER
  5
51
330
2
100
AcDbSymbolTableRecord
100
AcDbLayerTableRecord
  2
draft
 70
    1
 62
    7
  6
DOTTINY
370
   -3
390
F
1001
LibreCad
1070
    1
  0
LAYER
  5
52
330
2
100
AcDbSymbolTableRecord
100
AcDbLayerTableRecord
  2
micon
 70
    0
 62
  216
420
8388736
  6
CONTINUOUS
370
   15
390
F
  0
LAYER
  5
53
330
2
100
AcDbSymbolTableRecord
100
AcDbLayerTableRecord
  2
pin socket
 70
    0
 62
   56
420
8421376
  6
CONTINUOUS
370
   15
390
F
  0
LAYER
  5
54
330
2
100
AcDbSymbolTableRecord
100
AcDbLayerTableRecord
  2
resister
 70
    0
 62
  137
420
3439252
  6
CONTINUOUS
370
   18
390
F
  0
LAYER
  5
55
330
2
100
AcDbSymbolTableRecord
100
AcDbLayerTableRecord
  2
switch
 70
    0
 62
  136
420
32896
  6
CONTINUOUS
370
   15
390
F
  0
LAYER
  5
56
330
2
100
AcDbSymbolTableRecord
100
AcDbLayerTableRecord
  2
terminal
 70
    0
 62
   16
420
8388608
  6
CONTINUOUS
370
   15
390
F
  0
LAYER
  5
57
330
2
100
AcDbSymbolTableRecord
100
AcDbLayerTableRecord
  2
universal board
 70
    4
 62
  253
420
10526884
  6
CONTINUOUS
370
   15
390
F
  0
ENDTAB
  0
TABLE
  2
STYLE
  5
3
330
0
100
AcDbSymbolTable
 70
    3
  0
STYLE
  5
58
330
2
100
AcDbSymbolTableRecord
100
AcDbTextStyleTableRecord
  2
iso
 70
    0
 40
0
 41
1
 50
0
 71
    0
 42
1
  3
iso
  4

  0
STYLE
  5
59
330
2
100
AcDbSymbolTableRecord
100
AcDbTextStyleTableRecord
  2
unicode
 70
    0
 40
0
 41
1
 50
0
 71
    0
 42
1
  3
unicode
  4

  0
STYLE
  5
5A
330
2
100
AcDbSymbolTableRecord
100
AcDbTextStyleTableRecord
  2
STANDARD
 70
    0
 40
0
 41
1
 50
0
 71
    0
 42
1
  3
STANDARD
  4

  0
ENDTAB
  0
TABLE
  2
VIEW
  5
6
330
0
100
AcDbSymbolTable
 70
    0
  0
ENDTAB
  0
TABLE
  2
UCS
  5
7
330
0
100
AcDbSymbolTable
 70
    0
  0
ENDTAB
  0
TABLE
  2
APPID
  5
9
330
0
100
AcDbSymbolTable
 70
    1
  0
APPID
  5
12
330
9
100
AcDbSymbolTableRecord
100
AcDbRegAppTableRecord
  2
ACAD
 70
    0
  0
APPID
  5
5B
330
9
100
AcDbSymbolTableRecord
100
AcDbRegAppTableRecord
  2
LibreCad
 70
    0
  0
ENDTAB
  0
TABLE
  2
DIMSTYLE
  5
A
330
0
100
AcDbSymbolTable
 70
    1
100
AcDbDimStyleTable
 71
    1
  0
DIMSTYLE
105
5C
330
A
100
AcDbSymbolTableRecord
100
AcDbDimStyleTableRecord
  2
Standard
 70
    0
 40
1
 41
2.5
 42
0.625
 43
0.38
 44
1.25
 45
0
 46
0
 47
0
 48
0
 49
1
140
2.5
141
0.09
142
0
143
25.4
144
1
145
0
146
1
147
0.625
148
0
 71
    0
 72
    0
 73
    0
 74
    1
 75
    0
 76
    0
 77
    0
 78
    8
 79
    0
170
    0
171
    2
172
    0
173
    0
174
    0
175
    0
176
    0
177
    0
178
    0
179
    0
271
    2
272
    4
273
    2
274
    2
275
    0
276
    0
277
    2
278
   44
279
    0
280
    0
281
    0
282
    0
283
    1
284
    0
285
    0
286
    0
288
    0
289
    3
340
STANDARD
341

371
   -2
372
   -2
  0
ENDTAB
  0
TABLE
  2
BLOCK_RECORD
  5
1
330
0
100
AcDbSymbolTable
 70
    2
  0
BLOCK_RECORD
  5
1F
330
1
100
AcDbSymbolTableRecord
100
AcDbBlockTableRecord
  2
*Model_Space
 70
    0
280
    1
281
    0
  0
BLOCK_RECORD
  5
1E
330
1
100
AcDbSymbolTableRecord
100
AcDbBlockTableRecord
  2
*Paper_Space
 70
    0
280
    1
281
    0
  0
BLOCK_RECORD
  5
5D
330
1
100
AcDbSymbolTableRecord
100
AcDbBlockTableRecord
  2
2227MC-08-03
 70
    0
280
    1
281
    0
  0
BLOCK_RECORD
  5
60
330
1
100
AcDbSymbolTableRecord
100
AcDbBlockTableRecord
  2
PIC16F15325
 70
    0
280
    1
281
    0
  0
BLOCK_RECORD
  5
63
330
1
100
AcDbSymbolTableRecord
100
AcDbBlockTableRecord
  2
2227MC-28-03
 70
    0
280
    1
281
    0
  0
BLOCK_RECORD
  5
66
330
1
100
AcDbSymbolTableRecord
100
AcDbBlockTableRecord
  2
HUSG-16.000-20
 70
    0
280
    1
281
    0
  0
BLOCK_RECORD
  5
69
330
1
100
AcDbSymbolTableRecord
100
AcDbBlockTableRecord
  2
ATmega328P
 70
    0
280
    1
281
    0
  0
BLOCK_RECORD
  5
6C
330
1
100
AcDbSymbolTableRecord
100
AcDbBlockTableRecord
  2
DTS-63-N-V-BLK
 70
    0
280
    1
281
    0
  0
BLOCK_RECORD
  5
6F
330
1
100
AcDbSymbolTableRecord
100
AcDbBlockTableRecord
  2
2227MC-14-03
 70
    0
280
    1
281
    0
  0
BLOCK_RECORD
  5
72
330
1
100
AcDbSymbolTableRecord
100
AcDbBlockTableRecord
  2
C_0.01uF
 70
    0
280
    1
281
    0
  0
BLOCK_RECORD
  5
75
330
1
100
AcDbSymbolTableRecord
100
AcDbBlockTableRecord
  2
R300
 70
    0
280
    1
281
    0
  0
BLOCK_RECORD
  5
78
330
1
100
AcDbSymbolTableRecord
100
AcDbBlockTableRecord
  2
R10k
 70
    0
280
    1
281
    0
  0
BLOCK_RECORD
  5
7B
330
1
100
AcDbSymbolTableRecord
100
AcDbBlockTableRecord
  2
R0
 70
    0
280
    1
281
    0
  0
ENDTAB
  0
ENDSEC
  0
SECTION
  2
BLOCKS
  0
BLOCK
  5
20
330
1F
100
AcDbEntity
  8
0
100
AcDbBlockBegin
  2
*Model_Space
 70
    0
 10
0
 20
0
 30
0
  3
*Model_Space
  1

  0
ENDBLK
  5
21
330
1F
100
AcDbEntity
  8
0
100
AcDbBlockEnd
  0
BLOCK
  5
1C
330
1B
100
AcDbEntity
  8
0
100
AcDbBlockBegin
  2
*Paper_Space
 70
    0
 10
0
 20
0
 30
0
  3
*Paper_Space
  1

  0
ENDBLK
  5
1D
330
1F
100
AcDbEntity
  8
0
100
AcDbBlockEnd
  0
BLOCK
  5
5E
330
5D
100
AcDbEntity
  8
0
100
AcDbBlockBegin
  2
2227MC-08-03
 70
    0
 10
0
 20
0
  3
2227MC-08-03
  1

  0
LINE
  5
7E
100
AcDbEntity
  8
pin socket
  6
ByLayer
 62
  256
370
   -1
100
AcDbLine
 10
-1.270000000000131
 20
-8.890000110779171
 11
-1.270000000000131
 21
1.269999889220831
  0
LINE
  5
7F
100
AcDbEntity
  8
pin socket
  6
ByLayer
 62
  256
370
   -1
100
AcDbLine
 10
-1.270000000000131
 20
1.269999889220831
 11
8.890000394687402
 21
1.269999889220831
  0
LINE
  5
80
100
AcDbEntity
  8
pin socket
  6
ByLayer
 62
  256
370
   -1
100
AcDbLine
 10
8.890000394687402
 20
1.269999889220831
 11
8.88999999999989
 21
-8.890000110779171
  0
LINE
  5
81
100
AcDbEntity
  8
pin socket
  6
ByLayer
 62
  256
370
   -1
100
AcDbLine
 10
8.88999999999989
 20
-8.890000110779171
 11
-1.270000000000131
 21
-8.890000110779171
  0
CIRCLE
  5
82
100
AcDbEntity
  8
pin socket
  6
ByLayer
 62
  256
370
   -1
100
AcDbCircle
 10
2.539999999999878
 20
1.06581410364015e-14
 40
0.6
  0
CIRCLE
  5
83
100
AcDbEntity
  8
pin socket
  6
ByLayer
 62
  256
370
   -1
100
AcDbCircle
 10
2.539999999999893
 20
-7.620000000000061
 40
0.6
  0
CIRCLE
  5
84
100
AcDbEntity
  8
pin socket
  6
ByLayer
 62
  256
370
   -1
100
AcDbCircle
 10
0
 20
0
 40
0.6
  0
CIRCLE
  5
85
100
AcDbEntity
  8
pin socket
  6
ByLayer
 62
  256
370
   -1
100
AcDbCircle
 10
7.105427357601002e-15
 20
-7.620000000000072
 40
0.6
  0
CIRCLE
  5
86
100
AcDbEntity
  8
pin socket
  6
ByLayer
 62
  256
370
   -1
100
AcDbCircle
 10
5.079999999999757
 20
2.842170943040401e-14
 40
0.6
  0
CIRCLE
  5
87
100
AcDbEntity
  8
pin socket
  6
ByLayer
 62
  256
370
   -1
100
AcDbCircle
 10
5.079999999999771
 20
-7.620000000000051
 40
0.6
  0
CIRCLE
  5
88
100
AcDbEntity
  8
pin socket
  6
ByLayer
 62
  256
370
   -1
100
AcDbCircle
 10
7.619999999999639
 20
3.907985046680551e-14
 40
0.6
  0
CIRCLE
  5
89
100
AcDbEntity
  8
pin socket
  6
ByLayer
 62
  256
370
   -1
100
AcDbCircle
 10
7.61999999999966
 20
-7.62000000000004
 40
0.6
  0
MTEXT
  5
8A
100
AcDbEntity
  8
pin socket
  6
ByLayer
 62
  256
370
   -1
100
AcDbMText
 10
3.950796119092651
 20
-1.713679173150673
 30
0
 40
1
 41
9.222222222222284
 71
    5
 72
    1
  1
2227MC-08-03
  7
STANDARD
210
0
220
0
230
1
 50
0
 73
    2
 44
1
  0
ENDBLK
  5
5F
330
5D
100
AcDbEntity
  8
0
100
AcDbBlockEnd
  0
BLOCK
  5
61
330
60
100
AcDbEntity
  8
0
100
AcDbBlockBegin
  2
PIC16F15325
 70
    0
 10
0
 20
0
  3
PIC16F15325
  1

  0
ENDBLK
  5
62
330
60
100
AcDbEntity
  8
0
100
AcDbBlockEnd
  0
BLOCK
  5
64
330
63
100
AcDbEntity
  8
0
100
AcDbBlockBegin
  2
2227MC-28-03
 70
    0
 10
0
 20
0
  3
2227MC-28-03
  1

  0
ENDBLK
  5
65
330
63
100
AcDbEntity
  8
0
100
AcDbBlockEnd
  0
BLOCK
  5
67
330
66
100
AcDbEntity
  8
0
100
AcDbBlockBegin
  2
HUSG-16.000-20
 70
    0
 10
0
 20
0
  3
HUSG-16.000-20
  1

  0
ENDBLK
  5
68
330
66
100
AcDbEntity
  8
0
100
AcDbBlockEnd
  0
BLOCK
  5
6A
330
69
100
AcDbEntity
  8
0
100
AcDbBlockBegin
  2
ATmega328P
 70
    0
 10
0
 20
0
  3
ATmega328P
  1

  0
ENDBLK
  5
6B
330
69
100
AcDbEntity
  8
0
100
AcDbBlockEnd
  0
BLOCK
  5
6D
330
6C
100
AcDbEntity
  8
0
100
AcDbBlockBegin
  2
DTS-63-N-V-BLK
 70
    0
 10
0
 20
0
  3
DTS-63-N-V-BLK
  1

  0
ENDBLK
  5
6E
330
6C
100
AcDbEntity
  8
0
100
AcDbBlockEnd
  0
BLOCK
  5
70
330
6F
100
AcDbEntity
  8
0
100
AcDbBlockBegin
  2
2227MC-14-03
 70
    0
 10
0
 20
0
  3
2227MC-14-03
  1

  0
ENDBLK
  5
71
330
6F
100
AcDbEntity
  8
0
100
AcDbBlockEnd
  0
BLOCK
  5
73
330
72
100
AcDbEntity
  8
0
100
AcDbBlockBegin
  2
C_0.01uF
 70
    0
 10
0
 20
0
  3
C_0.01uF
  1

  0
LWPOLYLINE
  5
8B
100
AcDbEntity
  8
condenser
  6
ByLayer
 62
  256
370
   -1
100
AcDbPolyline
 90
    4
 70
    1
 43
0
 10
1.499999999999972
 20
5.039999999999822
 10
1.499999999999972
 20
0.03999999999992099
 10
-1.50000000000005
 20
0.03999999999992099
 10
-1.50000000000005
 20
5.039999999999822
  0
MTEXT
  5
8C
100
AcDbEntity
  8
condenser
  6
ByLayer
 62
  256
370
   -1
100
AcDbMText
 10
2.336701583810211
 20
2.491803864245341
 30
0
 40
1
 41
3.666666666666667
 71
    5
 72
    1
  1
0.01uF
  7
STANDARD
210
0
220
0
230
1
 50
270
 73
    2
 44
1
  0
CIRCLE
  5
8D
100
AcDbEntity
  8
condenser
  6
ByLayer
 62
  256
370
   -1
100
AcDbCircle
 10
0
 20
0
 40
0.4
  0
CIRCLE
  5
8E
100
AcDbEntity
  8
condenser
  6
ByLayer
 62
  256
370
   -1
100
AcDbCircle
 10
-6.927791673660977e-14
 20
5.080000000000041
 40
0.4
  0
ENDBLK
  5
74
330
72
100
AcDbEntity
  8
0
100
AcDbBlockEnd
  0
BLOCK
  5
76
330
75
100
AcDbEntity
  8
0
100
AcDbBlockBegin
  2
R300
 70
    0
 10
0
 20
0
  3
R300
  1

  0
LWPOLYLINE
  5
8F
100
AcDbEntity
  8
resister
  6
ByLayer
 62
  256
370
   -1
100
AcDbPolyline
 90
    4
 70
    1
 43
0
 10
-1.150000000000091
 20
0.6599999999995898
 10
-1.15000000000008
 20
6.959999999999511
 10
1.150000000000126
 20
6.959999999999511
 10
1.150000000000119
 20
0.6599999999995898
  0
CIRCLE
  5
90
100
AcDbEntity
  8
resister
  6
ByLayer
 62
  256
370
   -1
100
AcDbCircle
 10
1.953992523340276e-14
 20
7.619999999999639
 40
0.3
  0
LINE
  5
91
100
AcDbEntity
  8
resister
  6
ByLayer
 62
  256
370
   -1
100
AcDbLine
 10
1.953992523340276e-14
 20
0.2999999999998604
 11
1.031014139840636e-06
 21
0.6599999999995898
  0
LINE
  5
92
100
AcDbEntity
  8
resister
  6
ByLayer
 62
  256
370
   -1
100
AcDbLine
 10
3.907985046680551e-14
 20
6.959999999999511
 11
3.907985046680551e-14
 21
7.320000000000348
  0
MTEXT
  5
93
100
AcDbEntity
  8
resister
  6
ByLayer
 62
  256
370
   -1
100
AcDbMText
 10
-0.02409769535478112
 20
3.951579464078229
 30
0
 40
1
 41
2.888888888888951
 71
    5
 72
    1
  1
R300
  7
STANDARD
210
0
220
0
230
1
 50
90
 73
    2
 44
1
  0
CIRCLE
  5
94
100
AcDbEntity
  8
resister
  6
ByLayer
 62
  256
370
   -1
100
AcDbCircle
 10
0
 20
0
 40
0.25
  0
ENDBLK
  5
77
330
75
100
AcDbEntity
  8
0
100
AcDbBlockEnd
  0
BLOCK
  5
79
330
78
100
AcDbEntity
  8
0
100
AcDbBlockBegin
  2
R10k
 70
    0
 10
0
 20
0
  3
R10k
  1

  0
CIRCLE
  5
95
100
AcDbEntity
  8
resister
  6
ByLayer
 62
  256
370
   -1
100
AcDbCircle
 10
0
 20
0
 40
0.3
  0
LINE
  5
96
100
AcDbEntity
  8
resister
  6
ByLayer
 62
  256
370
   -1
100
AcDbLine
 10
-0.659999999999485
 20
1.150000000000098
 11
-0.659999999999485
 21
-1.150000000000059
  0
LINE
  5
97
100
AcDbEntity
  8
resister
  6
ByLayer
 62
  256
370
   -1
100
AcDbLine
 10
-6.959999999999557
 20
-1.150000000000041
 11
-0.659999999999485
 21
-1.150000000000059
  0
LINE
  5
98
100
AcDbEntity
  8
resister
  6
ByLayer
 62
  256
370
   -1
100
AcDbLine
 10
-0.659999999999485
 20
1.150000000000098
 11
-6.959999999999557
 21
1.150000000000098
  0
LINE
  5
99
100
AcDbEntity
  8
resister
  6
ByLayer
 62
  256
370
   -1
100
AcDbLine
 10
-6.959999999999557
 20
1.150000000000098
 11
-6.959999999999557
 21
-1.150000000000041
  0
CIRCLE
  5
9A
100
AcDbEntity
  8
resister
  6
ByLayer
 62
  256
370
   -1
100
AcDbCircle
 10
-7.619999999999408
 20
2.131628207280301e-14
 40
0.25
  0
MTEXT
  5
9B
100
AcDbEntity
  8
resister
  6
ByLayer
 62
  256
370
   -1
100
AcDbMText
 10
-3.991855261194459
 20
0.08749576228997924
 30
0
 40
1
 41
2.666666666666667
 71
    5
 72
    1
  1
R10k
  7
unicode
210
0
220
0
230
1
 50
0
 73
    2
 44
1
  0
LINE
  5
9C
100
AcDbEntity
  8
resister
  6
ByLayer
 62
  256
370
   -1
100
AcDbLine
 10
-0.2499999999985789
 20
2.131628207280301e-14
 11
-0.659999999999485
 21
2.131628207280301e-14
  0
LINE
  5
9D
100
AcDbEntity
  8
resister
  6
ByLayer
 62
  256
370
   -1
100
AcDbLine
 10
-7.369999999999898
 20
1.06581410364015e-14
 11
-6.959999999999557
 21
1.06581410364015e-14
  0
ENDBLK
  5
7A
330
78
100
AcDbEntity
  8
0
100
AcDbBlockEnd
  0
BLOCK
  5
7C
330
7B
100
AcDbEntity
  8
0
100
AcDbBlockBegin
  2
R0
 70
    0
 10
0
 20
0
  3
R0
  1

  0
LINE
  5
9E
100
AcDbEntity
  8
resister
  6
ByLayer
 62
  256
370
   -1
100
AcDbLine
 10
-0.6599999999999611
 20
1.149999999999959
 11
-0.6599999999999611
 21
-1.14999999999997
  0
LINE
  5
9F
100
AcDbEntity
  8
resister
  6
ByLayer
 62
  256
370
   -1
100
AcDbLine
 10
-0.6599999999999611
 20
-1.14999999999997
 11
-6.959999999999834
 21
-1.14999999999997
  0
LINE
  5
A0
100
AcDbEntity
  8
resister
  6
ByLayer
 62
  256
370
   -1
100
AcDbLine
 10
-6.959999999999834
 20
-1.14999999999997
 11
-6.95999999999982
 21
1.149999999999959
  0
LINE
  5
A1
100
AcDbEntity
  8
resister
  6
ByLayer
 62
  256
370
   -1
100
AcDbLine
 10
-6.95999999999982
 20
1.149999999999959
 11
-0.6599999999999611
 21
1.149999999999959
  0
LINE
  5
A2
100
AcDbEntity
  8
resister
  6
ByLayer
 62
  256
370
   -1
100
AcDbLine
 10
-6.95999999999982
 20
0
 11
-7.61999999999966
 21
0
  0
LINE
  5
A3
100
AcDbEntity
  8
resister
  6
ByLayer
 62
  256
370
   -1
100
AcDbLine
 10
3.694822225952521e-13
 20
0
 11
-0.6599999999999611
 21
0
  0
MTEXT
  5
A4
100
AcDbEntity
  8
resister
  6
ByLayer
 62
  256
370
   -1
100
AcDbMText
 10
-4.132042899777453
 20
0.05377778633712005
 30
0
 40
1
 41
1.333333333333333
 71
    5
 72
    1
  1
R0
  7
STANDARD
210
0
220
0
230
1
 50
270
 73
    2
 44
1
  0
ENDBLK
  5
7D
330
7B
100
AcDbEntity
  8
0
100
AcDbBlockEnd
  0
ENDSEC
  0
SECTION
  2
ENTITIES
  0
CIRCLE
  5
A5
100
AcDbEntity
  8
universal board
  6
ByLayer
 62
  256
370
   -1
100
AcDbCircle
 10
-23.50000000000008
 20
63.94000000000023
 40
0.5
  0
CIRCLE
  5
A6
100
AcDbEntity
  8
universal board
  6
ByLayer
 62
  256
370
   -1
100
AcDbCircle
 10
-26.03999999999997
 20
63.94000000000023
 40
0.5
  0
CIRCLE
  5
A7
100
AcDbEntity
  8
universal board
  6
ByLayer
 62
  256
370
   -1
100
AcDbCircle
 10
-28.57999999999986
 20
63.94000000000023
 40
0.5
  0
CIRCLE
  5
A8
100
AcDbEntity
  8
universal board
  6
ByLayer
 62
  256
370
   -1
100
AcDbCircle
 10
-31.11999999999976
 20
63.94000000000023
 40
0.5
  0
CIRCLE
  5
A9
100
AcDbEntity
  8
universal board
  6
ByLayer
 62
  256
370
   -1
100
AcDbCircle
 10
-33.65999999999965
 20
63.94000000000023
 40
0.5
  0
CIRCLE
  5
AA
100
AcDbEntity
  8
universal board
  6
ByLayer
 62
  256
370
   -1
100
AcDbCircle
 10
-36.19999999999954
 20
63.94000000000023
 40
0.5
  0
CIRCLE
  5
AB
100
AcDbEntity
  8
universal board
  6
ByLayer
 62
  256
370
   -1
100
AcDbCircle
 10
-38.73999999999943
 20
63.94000000000023
 40
0.5
  0
CIRCLE
  5
AC
100
AcDbEntity
  8
universal board
  6
ByLayer
 62
  256
370
   -1
100
AcDbCircle
 10
-41.27999999999933
 20
63.94000000000023
 40
0.5
  0
CIRCLE
  5
AD
100
AcDbEntity
  8
universal board
  6
ByLayer
 62
  256
370
   -1
100
AcDbCircle
 10
-20.9600000000002
 20
63.94000000000023
 40
0.5
  0
CIRCLE
  5
AE
100
AcDbEntity
  8
universal board
  6
ByLayer
 62
  256
370
   -1
100
AcDbCircle
 10
-18.42000000000032
 20
63.94000000000024
 40
0.5
  0
CIRCLE
  5
AF
100
AcDbEntity
  8
universal board
  6
ByLayer
 62
  256
370
   -1
100
AcDbCircle
 10
-15.88000000000044
 20
63.94000000000025
 40
0.5
  0
CIRCLE
  5
B0
100
AcDbEntity
  8
universal board
  6
ByLayer
 62
  256
370
   -1
100
AcDbCircle
 10
-13.34000000000056
 20
63.94000000000025
 40
0.5
  0
CIRCLE
  5
B1
100
AcDbEntity
  8
universal board
  6
ByLayer
 62
  256
370
   -1
100
AcDbCircle
 10
-10.80000000000069
 20
63.94000000000026
 40
0.5
  0
CIRCLE
  5
B2
100
AcDbEntity
  8
universal board
  6
ByLayer
 62
  256
370
   -1
100
AcDbCircle
 10
-8.260000000000812
 20
63.94000000000027
 40
0.5
  0
CIRCLE
  5
B3
100
AcDbEntity
  8
universal board
  6
ByLayer
 62
  256
370
   -1
100
AcDbCircle
 10
-5.72000000000093
 20
63.94000000000027
 40
0.5
  0
CIRCLE
  5
B4
100
AcDbEntity
  8
universal board
  6
ByLayer
 62
  256
370
   -1
100
AcDbCircle
 10
-23.50000000000009
 20
66.48000000000025
 40
0.5
  0
CIRCLE
  5
B5
100
AcDbEntity
  8
universal board
  6
ByLayer
 62
  256
370
   -1
100
AcDbCircle
 10
-26.03999999999998
 20
66.48000000000025
 40
0.5
  0
CIRCLE
  5
B6
100
AcDbEntity
  8
universal board
  6
ByLayer
 62
  256
370
   -1
100
AcDbCircle
 10
-28.57999999999987
 20
66.48000000000025
 40
0.5
  0
CIRCLE
  5
B7
100
AcDbEntity
  8
universal board
  6
ByLayer
 62
  256
370
   -1
100
AcDbCircle
 10
-31.11999999999976
 20
66.48000000000025
 40
0.5
  0
CIRCLE
  5
B8
100
AcDbEntity
  8
universal board
  6
ByLayer
 62
  256
370
   -1
100
AcDbCircle
 10
-33.65999999999966
 20
66.48000000000025
 40
0.5
  0
CIRCLE
  5
B9
100
AcDbEntity
  8
universal board
  6
ByLayer
 62
  256
370
   -1
100
AcDbCircle
 10
-36.19999999999955
 20
66.48000000000025
 40
0.5
  0
CIRCLE
  5
BA
100
AcDbEntity
  8
universal board
  6
ByLayer
 62
  256
370
   -1
100
AcDbCircle
 10
-38.73999999999944
 20
66.48000000000025
 40
0.5
  0
CIRCLE
  5
BB
100
AcDbEntity
  8
universal board
  6
ByLayer
 62
  256
370
   -1
100
AcDbCircle
 10
-41.27999999999933
 20
66.48000000000025
 40
0.5
  0
CIRCLE
  5
BC
100
AcDbEntity
  8
universal board
  6
ByLayer
 62
  256
370
   -1
100
AcDbCircle
 10
-20.96000000000021
 20
66.48000000000025
 40
0.5
  0
CIRCLE
  5
BD
100
AcDbEntity
  8
universal board
  6
ByLayer
 62
  256
370
   -1
100
AcDbCircle
 10
-18.42000000000033
 20
66.48000000000026
 40
0.5
  0
CIRCLE
  5
BE
100
AcDbEntity
  8
universal board
  6
ByLayer
 62
  256
370
   -1
100
AcDbCircle
 10
-15.88000000000045
 20
66.48000000000027
 40
0.5
  0
CIRCLE
  5
BF
100
AcDbEntity
  8
universal board
  6
ByLayer
 62
  256
370
   -1
100
AcDbCircle
 10
-13.34000000000057
 20
66.48000000000027
 40
0.5
  0
CIRCLE
  5
C0
100
AcDbEntity
  8
universal board
  6
ByLayer
 62
  256
370
   -1
100
AcDbCircle
 10
-10.80000000000069
 20
66.48000000000027
 40
0.5
  0
CIRCLE
  5
C1
100
AcDbEntity
  8
universal board
  6
ByLayer
 62
  256
370
   -1
100
AcDbCircle
 10
-8.260000000000819
 20
66.48000000000029
 40
0.5
  0
CIRCLE
  5
C2
100
AcDbEntity
  8
universal board
  6
ByLayer
 62
  256
370
   -1
100
AcDbCircle
 10
-5.72000000000094
 20
66.4800000000003
 40
0.5
  0
CIRCLE
  5
C3
100
AcDbEntity
  8
universal board
  6
ByLayer
 62
  256
370
   -1
100
AcDbCircle
 10
-3.18000000000098
 20
63.94000000000025
 40
0.5
  0
CIRCLE
  5
C4
100
AcDbEntity
  8
universal board
  6
ByLayer
 62
  256
370
   -1
100
AcDbCircle
 10
-0.6400000000011001
 20
63.94000000000025
 40
0.5
  0
CIRCLE
  5
C5
100
AcDbEntity
  8
universal board
  6
ByLayer
 62
  256
370
   -1
100
AcDbCircle
 10
1.899999999998769
 20
63.94000000000026
 40
0.5
  0
CIRCLE
  5
C6
100
AcDbEntity
  8
universal board
  6
ByLayer
 62
  256
370
   -1
100
AcDbCircle
 10
4.439999999998648
 20
63.94000000000027
 40
0.5
  0
CIRCLE
  5
C7
100
AcDbEntity
  8
universal board
  6
ByLayer
 62
  256
370
   -1
100
AcDbCircle
 10
6.97999999999853
 20
63.94000000000027
 40
0.5
  0
CIRCLE
  5
C8
100
AcDbEntity
  8
universal board
  6
ByLayer
 62
  256
370
   -1
100
AcDbCircle
 10
-3.180000000000991
 20
66.48000000000027
 40
0.5
  0
CIRCLE
  5
C9
100
AcDbEntity
  8
universal board
  6
ByLayer
 62
  256
370
   -1
100
AcDbCircle
 10
-0.6400000000011108
 20
66.48000000000027
 40
0.5
  0
CIRCLE
  5
CA
100
AcDbEntity
  8
universal board
  6
ByLayer
 62
  256
370
   -1
100
AcDbCircle
 10
1.899999999998769
 20
66.48000000000027
 40
0.5
  0
CIRCLE
  5
CB
100
AcDbEntity
  8
universal board
  6
ByLayer
 62
  256
370
   -1
100
AcDbCircle
 10
4.439999999998641
 20
66.48000000000029
 40
0.5
  0
CIRCLE
  5
CC
100
AcDbEntity
  8
universal board
  6
ByLayer
 62
  256
370
   -1
100
AcDbCircle
 10
6.979999999998519
 20
66.4800000000003
 40
0.5
  0
CIRCLE
  5
CD
100
AcDbEntity
  8
universal board
  6
ByLayer
 62
  256
370
   -1
100
AcDbCircle
 10
-23.50000000000009
 20
69.02000000000027
 40
0.5
  0
CIRCLE
  5
CE
100
AcDbEntity
  8
universal board
  6
ByLayer
 62
  256
370
   -1
100
AcDbCircle
 10
-26.03999999999998
 20
69.02000000000027
 40
0.5
  0
CIRCLE
  5
CF
100
AcDbEntity
  8
universal board
  6
ByLayer
 62
  256
370
   -1
100
AcDbCircle
 10
-28.57999999999987
 20
69.02000000000027
 40
0.5
  0
CIRCLE
  5
D0
100
AcDbEntity
  8
universal board
  6
ByLayer
 62
  256
370
   -1
100
AcDbCircle
 10
-31.11999999999976
 20
69.02000000000027
 40
0.5
  0
CIRCLE
  5
D1
100
AcDbEntity
  8
universal board
  6
ByLayer
 62
  256
370
   -1
100
AcDbCircle
 10
-33.65999999999966
 20
69.02000000000027
 40
0.5
  0
CIRCLE
  5
D2
100
AcDbEntity
  8
universal board
  6
ByLayer
 62
  256
370
   -1
100
AcDbCircle
 10
-36.19999999999955
 20
69.02000000000027
 40
0.5
  0
CIRCLE
  5
D3
100
AcDbEntity
  8
universal board
  6
ByLayer
 62
  256
370
   -1
100
AcDbCircle
 10
-38.73999999999944
 20
69.02000000000027
 40
0.5
  0
CIRCLE
  5
D4
100
AcDbEntity
  8
universal board
  6
ByLayer
 62
  256
370
   -1
100
AcDbCircle
 10
-41.27999999999933
 20
69.02000000000027
 40
0.5
  0
CIRCLE
  5
D5
100
AcDbEntity
  8
universal board
  6
ByLayer
 62
  256
370
   -1
100
AcDbCircle
 10
-20.96000000000021
 20
69.02000000000027
 40
0.5
  0
CIRCLE
  5
D6
100
AcDbEntity
  8
universal board
  6
ByLayer
 62
  256
370
   -1
100
AcDbCircle
 10
-18.42000000000033
 20
69.02000000000028
 40
0.5
  0
CIRCLE
  5
D7
100
AcDbEntity
  8
universal board
  6
ByLayer
 62
  256
370
   -1
100
AcDbCircle
 10
-15.88000000000045
 20
69.02000000000029
 40
0.5
  0
CIRCLE
  5
D8
100
AcDbEntity
  8
universal board
  6
ByLayer
 62
  256
370
   -1
100
AcDbCircle
 10
-13.34000000000057
 20
69.02000000000029
 40
0.5
  0
CIRCLE
  5
D9
100
AcDbEntity
  8
universal board
  6
ByLayer
 62
  256
370
   -1
100
AcDbCircle
 10
-10.80000000000069
 20
69.02000000000029
 40
0.5
  0
CIRCLE
  5
DA
100
AcDbEntity
  8
universal board
  6
ByLayer
 62
  256
370
   -1
100
AcDbCircle
 10
-8.260000000000819
 20
69.02000000000031
 40
0.5
  0
CIRCLE
  5
DB
100
AcDbEntity
  8
universal board
  6
ByLayer
 62
  256
370
   -1
100
AcDbCircle
 10
-5.72000000000094
 20
69.02000000000032
 40
0.5
  0
CIRCLE
  5
DC
100
AcDbEntity
  8
universal board
  6
ByLayer
 62
  256
370
   -1
100
AcDbCircle
 10
-3.180000000000991
 20
69.02000000000029
 40
0.5
  0
CIRCLE
  5
DD
100
AcDbEntity
  8
universal board
  6
ByLayer
 62
  256
370
   -1
100
AcDbCircle
 10
-0.6400000000011108
 20
69.02000000000029
 40
0.5
  0
CIRCLE
  5
DE
100
AcDbEntity
  8
universal board
  6
ByLayer
 62
  256
370
   -1
100
AcDbCircle
 10
1.899999999998769
 20
69.02000000000029
 40
0.5
  0
CIRCLE
  5
DF
100
AcDbEntity
  8
universal board
  6
ByLayer
 62
  256
370
   -1
100
AcDbCircle
 10
4.439999999998641
 20
69.02000000000031
 40
0.5
  0
CIRCLE
  5
E0
100
AcDbEntity
  8
universal board
  6
ByLayer
 62
  256
370
   -1
100
AcDbCircle
 10
6.979999999998519
 20
69.02000000000032
 40
0.5
  0
CIRCLE
  5
E1
100
AcDbEntity
  8
universal board
  6
ByLayer
 62
  256
370
   -1
100
AcDbCircle
 10
-23.50000000000009
 20
74.10000000000031
 40
0.5
  0
CIRCLE
  5
E2
100
AcDbEntity
  8
universal board
  6
ByLayer
 62
  256
370
   -1
100
AcDbCircle
 10
-26.03999999999998
 20
74.10000000000031
 40
0.5
  0
CIRCLE
  5
E3
100
AcDbEntity
  8
universal board
  6
ByLayer
 62
  256
370
   -1
100
AcDbCircle
 10
-28.57999999999987
 20
74.10000000000031
 40
0.5
  0
CIRCLE
  5
E4
100
AcDbEntity
  8
universal board
  6
ByLayer
 62
  256
370
   -1
100
AcDbCircle
 10
-31.11999999999976
 20
74.10000000000031
 40
0.5
  0
CIRCLE
  5
E5
100
AcDbEntity
  8
universal board
  6
ByLayer
 62
  256
370
   -1
100
AcDbCircle
 10
-33.65999999999966
 20
74.10000000000031
 40
0.5
  0
CIRCLE
  5
E6
100
AcDbEntity
  8
universal board
  6
ByLayer
 62
  256
370
   -1
100
AcDbCircle
 10
-36.19999999999955
 20
74.10000000000031
 40
0.5
  0
CIRCLE
  5
E7
100
AcDbEntity
  8
universal board
  6
ByLayer
 62
  256
370
   -1
100
AcDbCircle
 10
-38.73999999999944
 20
74.10000000000031
 40
0.5
  0
CIRCLE
  5
E8
100
AcDbEntity
  8
universal board
  6
ByLayer
 62
  256
370
   -1
100
AcDbCircle
 10
-20.96000000000021
 20
74.10000000000031
 40
0.5
  0
CIRCLE
  5
E9
100
AcDbEntity
  8
universal board
  6
ByLayer
 62
  256
370
   -1
100
AcDbCircle
 10
-18.42000000000033
 20
74.10000000000032
 40
0.5
  0
CIRCLE
  5
EA
100
AcDbEntity
  8
universal board
  6
ByLayer
 62
  256
370
   -1
100
AcDbCircle
 10
-15.88000000000045
 20
74.10000000000034
 40
0.5
  0
CIRCLE
  5
EB
100
AcDbEntity
  8
universal board
  6
ByLayer
 62
  256
370
   -1
100
AcDbCircle
 10
-13.34000000000057
 20
74.10000000000034
 40
0.5
  0
CIRCLE
  5
EC
100
AcDbEntity
  8
universal board
  6
ByLayer
 62
  256
370
   -1
100
AcDbCircle
 10
-10.80000000000069
 20
74.10000000000034
 40
0.5
  0
CIRCLE
  5
ED
100
AcDbEntity
  8
universal board
  6
ByLayer
 62
  256
370
   -1
100
AcDbCircle
 10
-8.260000000000819
 20
74.10000000000035
 40
0.5
  0
CIRCLE
  5
EE
100
AcDbEntity
  8
universal board
  6
ByLayer
 62
  256
370
   -1
100
AcDbCircle
 10
-5.72000000000094
 20
74.10000000000036
 40
0.5
  0
CIRCLE
  5
EF
100
AcDbEntity
  8
universal board
  6
ByLayer
 62
  256
370
   -1
100
AcDbCircle
 10
-3.180000000000991
 20
74.10000000000034
 40
0.5
  0
CIRCLE
  5
F0
100
AcDbEntity
  8
universal board
  6
ByLayer
 62
  256
370
   -1
100
AcDbCircle
 10
-0.6400000000011108
 20
74.10000000000034
 40
0.5
  0
CIRCLE
  5
F1
100
AcDbEntity
  8
universal board
  6
ByLayer
 62
  256
370
   -1
100
AcDbCircle
 10
1.899999999998769
 20
74.10000000000034
 40
0.5
  0
CIRCLE
  5
F2
100
AcDbEntity
  8
universal board
  6
ByLayer
 62
  256
370
   -1
100
AcDbCircle
 10
4.439999999998641
 20
74.10000000000035
 40
0.5
  0
CIRCLE
  5
F3
100
AcDbEntity
  8
universal board
  6
ByLayer
 62
  256
370
   -1
100
AcDbCircle
 10
6.979999999998519
 20
74.10000000000036
 40
0.5
  0
CIRCLE
  5
F4
100
AcDbEntity
  8
universal board
  6
ByLayer
 62
  256
370
   -1
100
AcDbCircle
 10
-23.50000000000009
 20
76.64000000000033
 40
0.5
  0
CIRCLE
  5
F5
100
AcDbEntity
  8
universal board
  6
ByLayer
 62
  256
370
   -1
100
AcDbCircle
 10
-26.03999999999998
 20
76.64000000000033
 40
0.5
  0
CIRCLE
  5
F6
100
AcDbEntity
  8
universal board
  6
ByLayer
 62
  256
370
   -1
100
AcDbCircle
 10
-28.57999999999987
 20
76.64000000000033
 40
0.5
  0
CIRCLE
  5
F7
100
AcDbEntity
  8
universal board
  6
ByLayer
 62
  256
370
   -1
100
AcDbCircle
 10
-31.11999999999976
 20
76.64000000000033
 40
0.5
  0
CIRCLE
  5
F8
100
AcDbEntity
  8
universal board
  6
ByLayer
 62
  256
370
   -1
100
AcDbCircle
 10
-33.65999999999966
 20
76.64000000000033
 40
0.5
  0
CIRCLE
  5
F9
100
AcDbEntity
  8
universal board
  6
ByLayer
 62
  256
370
   -1
100
AcDbCircle
 10
-36.19999999999955
 20
76.64000000000033
 40
0.5
  0
CIRCLE
  5
FA
100
AcDbEntity
  8
universal board
  6
ByLayer
 62
  256
370
   -1
100
AcDbCircle
 10
-38.73999999999944
 20
76.64000000000033
 40
0.5
  0
CIRCLE
  5
FB
100
AcDbEntity
  8
universal board
  6
ByLayer
 62
  256
370
   -1
100
AcDbCircle
 10
-20.96000000000021
 20
76.64000000000033
 40
0.5
  0
CIRCLE
  5
FC
100
AcDbEntity
  8
universal board
  6
ByLayer
 62
  256
370
   -1
100
AcDbCircle
 10
-18.42000000000033
 20
76.64000000000034
 40
0.5
  0
CIRCLE
  5
FD
100
AcDbEntity
  8
universal board
  6
ByLayer
 62
  256
370
   -1
100
AcDbCircle
 10
-15.88000000000045
 20
76.64000000000036
 40
0.5
  0
CIRCLE
  5
FE
100
AcDbEntity
  8
universal board
  6
ByLayer
 62
  256
370
   -1
100
AcDbCircle
 10
-13.34000000000057
 20
76.64000000000036
 40
0.5
  0
CIRCLE
  5
FF
100
AcDbEntity
  8
universal board
  6
ByLayer
 62
  256
370
   -1
100
AcDbCircle
 10
-10.80000000000069
 20
76.64000000000036
 40
0.5
  0
CIRCLE
  5
100
100
AcDbEntity
  8
universal board
  6
ByLayer
 62
  256
370
   -1
100
AcDbCircle
 10
-8.260000000000819
 20
76.64000000000037
 40
0.5
  0
CIRCLE
  5
101
100
AcDbEntity
  8
universal board
  6
ByLayer
 62
  256
370
   -1
100
AcDbCircle
 10
-5.72000000000094
 20
76.64000000000038
 40
0.5
  0
CIRCLE
  5
102
100
AcDbEntity
  8
universal board
  6
ByLayer
 62
  256
370
   -1
100
AcDbCircle
 10
-3.180000000000991
 20
76.64000000000036
 40
0.5
  0
CIRCLE
  5
103
100
AcDbEntity
  8
universal board
  6
ByLayer
 62
  256
370
   -1
100
AcDbCircle
 10
-0.6400000000011108
 20
76.64000000000036
 40
0.5
  0
CIRCLE
  5
104
100
AcDbEntity
  8
universal board
  6
ByLayer
 62
  256
370
   -1
100
AcDbCircle
 10
1.899999999998769
 20
76.64000000000036
 40
0.5
  0
CIRCLE
  5
105
100
AcDbEntity
  8
universal board
  6
ByLayer
 62
  256
370
   -1
100
AcDbCircle
 10
4.439999999998641
 20
76.64000000000037
 40
0.5
  0
CIRCLE
  5
106
100
AcDbEntity
  8
universal board
  6
ByLayer
 62
  256
370
   -1
100
AcDbCircle
 10
6.979999999998519
 20
76.64000000000038
 40
0.5
  0
CIRCLE
  5
107
100
AcDbEntity
  8
universal board
  6
ByLayer
 62
  256
370
   -1
100
AcDbCircle
 10
-23.50000000000009
 20
79.18000000000035
 40
0.5
  0
CIRCLE
  5
108
100
AcDbEntity
  8
universal board
  6
ByLayer
 62
  256
370
   -1
100
AcDbCircle
 10
-26.03999999999998
 20
79.18000000000035
 40
0.5
  0
CIRCLE
  5
109
100
AcDbEntity
  8
universal board
  6
ByLayer
 62
  256
370
   -1
100
AcDbCircle
 10
-28.57999999999987
 20
79.18000000000035
 40
0.5
  0
CIRCLE
  5
10A
100
AcDbEntity
  8
universal board
  6
ByLayer
 62
  256
370
   -1
100
AcDbCircle
 10
-31.11999999999976
 20
79.18000000000035
 40
0.5
  0
CIRCLE
  5
10B
100
AcDbEntity
  8
universal board
  6
ByLayer
 62
  256
370
   -1
100
AcDbCircle
 10
-33.65999999999966
 20
79.18000000000035
 40
0.5
  0
CIRCLE
  5
10C
100
AcDbEntity
  8
universal board
  6
ByLayer
 62
  256
370
   -1
100
AcDbCircle
 10
-36.19999999999955
 20
79.18000000000035
 40
0.5
  0
CIRCLE
  5
10D
100
AcDbEntity
  8
universal board
  6
ByLayer
 62
  256
370
   -1
100
AcDbCircle
 10
-38.73999999999944
 20
79.18000000000035
 40
0.5
  0
CIRCLE
  5
10E
100
AcDbEntity
  8
universal board
  6
ByLayer
 62
  256
370
   -1
100
AcDbCircle
 10
-20.96000000000021
 20
79.18000000000035
 40
0.5
  0
CIRCLE
  5
10F
100
AcDbEntity
  8
universal board
  6
ByLayer
 62
  256
370
   -1
100
AcDbCircle
 10
-18.42000000000033
 20
79.18000000000036
 40
0.5
  0
CIRCLE
  5
110
100
AcDbEntity
  8
universal board
  6
ByLayer
 62
  256
370
   -1
100
AcDbCircle
 10
-15.88000000000045
 20
79.18000000000038
 40
0.5
  0
CIRCLE
  5
111
100
AcDbEntity
  8
universal board
  6
ByLayer
 62
  256
370
   -1
100
AcDbCircle
 10
-13.34000000000057
 20
79.18000000000038
 40
0.5
  0
CIRCLE
  5
112
100
AcDbEntity
  8
universal board
  6
ByLayer
 62
  256
370
   -1
100
AcDbCircle
 10
-10.80000000000069
 20
79.18000000000038
 40
0.5
  0
CIRCLE
  5
113
100
AcDbEntity
  8
universal board
  6
ByLayer
 62
  256
370
   -1
100
AcDbCircle
 10
-8.260000000000819
 20
79.18000000000039
 40
0.5
  0
CIRCLE
  5
114
100
AcDbEntity
  8
universal board
  6
ByLayer
 62
  256
370
   -1
100
AcDbCircle
 10
-5.72000000000094
 20
79.1800000000004
 40
0.5
  0
CIRCLE
  5
115
100
AcDbEntity
  8
universal board
  6
ByLayer
 62
  256
370
   -1
100
AcDbCircle
 10
-3.180000000000991
 20
79.18000000000038
 40
0.5
  0
CIRCLE
  5
116
100
AcDbEntity
  8
universal board
  6
ByLayer
 62
  256
370
   -1
100
AcDbCircle
 10
-0.6400000000011108
 20
79.18000000000038
 40
0.5
  0
CIRCLE
  5
117
100
AcDbEntity
  8
universal board
  6
ByLayer
 62
  256
370
   -1
100
AcDbCircle
 10
1.899999999998769
 20
79.18000000000038
 40
0.5
  0
CIRCLE
  5
118
100
AcDbEntity
  8
universal board
  6
ByLayer
 62
  256
370
   -1
100
AcDbCircle
 10
4.439999999998641
 20
79.18000000000039
 40
0.5
  0
CIRCLE
  5
119
100
AcDbEntity
  8
universal board
  6
ByLayer
 62
  256
370
   -1
100
AcDbCircle
 10
6.979999999998519
 20
79.1800000000004
 40
0.5
  0
CIRCLE
  5
11A
100
AcDbEntity
  8
universal board
  6
ByLayer
 62
  256
370
   -1
100
AcDbCircle
 10
-23.50000000000009
 20
81.72000000000037
 40
0.5
  0
CIRCLE
  5
11B
100
AcDbEntity
  8
universal board
  6
ByLayer
 62
  256
370
   -1
100
AcDbCircle
 10
-26.03999999999998
 20
81.72000000000037
 40
0.5
  0
CIRCLE
  5
11C
100
AcDbEntity
  8
universal board
  6
ByLayer
 62
  256
370
   -1
100
AcDbCircle
 10
-28.57999999999987
 20
81.72000000000037
 40
0.5
  0
CIRCLE
  5
11D
100
AcDbEntity
  8
universal board
  6
ByLayer
 62
  256
370
   -1
100
AcDbCircle
 10
-31.11999999999976
 20
81.72000000000037
 40
0.5
  0
CIRCLE
  5
11E
100
AcDbEntity
  8
universal board
  6
ByLayer
 62
  256
370
   -1
100
AcDbCircle
 10
-33.65999999999966
 20
81.72000000000037
 40
0.5
  0
CIRCLE
  5
11F
100
AcDbEntity
  8
universal board
  6
ByLayer
 62
  256
370
   -1
100
AcDbCircle
 10
-36.19999999999955
 20
81.72000000000037
 40
0.5
  0
CIRCLE
  5
120
100
AcDbEntity
  8
universal board
  6
ByLayer
 62
  256
370
   -1
100
AcDbCircle
 10
-38.73999999999944
 20
81.72000000000037
 40
0.5
  0
CIRCLE
  5
121
100
AcDbEntity
  8
universal board
  6
ByLayer
 62
  256
370
   -1
100
AcDbCircle
 10
-20.96000000000021
 20
81.72000000000037
 40
0.5
  0
CIRCLE
  5
122
100
AcDbEntity
  8
universal board
  6
ByLayer
 62
  256
370
   -1
100
AcDbCircle
 10
-18.42000000000033
 20
81.72000000000038
 40
0.5
  0
CIRCLE
  5
123
100
AcDbEntity
  8
universal board
  6
ByLayer
 62
  256
370
   -1
100
AcDbCircle
 10
-15.88000000000045
 20
81.7200000000004
 40
0.5
  0
CIRCLE
  5
124
100
AcDbEntity
  8
universal board
  6
ByLayer
 62
  256
370
   -1
100
AcDbCircle
 10
-13.34000000000057
 20
81.7200000000004
 40
0.5
  0
CIRCLE
  5
125
100
AcDbEntity
  8
universal board
  6
ByLayer
 62
  256
370
   -1
100
AcDbCircle
 10
-10.80000000000069
 20
81.7200000000004
 40
0.5
  0
CIRCLE
  5
126
100
AcDbEntity
  8
universal board
  6
ByLayer
 62
  256
370
   -1
100
AcDbCircle
 10
-8.260000000000819
 20
81.72000000000041
 40
0.5
  0
CIRCLE
  5
127
100
AcDbEntity
  8
universal board
  6
ByLayer
 62
  256
370
   -1
100
AcDbCircle
 10
-5.72000000000094
 20
81.72000000000043
 40
0.5
  0
CIRCLE
  5
128
100
AcDbEntity
  8
universal board
  6
ByLayer
 62
  256
370
   -1
100
AcDbCircle
 10
-3.180000000000991
 20
81.7200000000004
 40
0.5
  0
CIRCLE
  5
129
100
AcDbEntity
  8
universal board
  6
ByLayer
 62
  256
370
   -1
100
AcDbCircle
 10
-0.6400000000011108
 20
81.7200000000004
 40
0.5
  0
CIRCLE
  5
12A
100
AcDbEntity
  8
universal board
  6
ByLayer
 62
  256
370
   -1
100
AcDbCircle
 10
1.899999999998769
 20
81.7200000000004
 40
0.5
  0
CIRCLE
  5
12B
100
AcDbEntity
  8
universal board
  6
ByLayer
 62
  256
370
   -1
100
AcDbCircle
 10
4.439999999998641
 20
81.72000000000041
 40
0.5
  0
CIRCLE
  5
12C
100
AcDbEntity
  8
universal board
  6
ByLayer
 62
  256
370
   -1
100
AcDbCircle
 10
6.979999999998519
 20
81.72000000000043
 40
0.5
  0
CIRCLE
  5
12D
100
AcDbEntity
  8
universal board
  6
ByLayer
 62
  256
370
   -1
100
AcDbCircle
 10
-23.50000000000009
 20
84.26000000000039
 40
0.5
  0
CIRCLE
  5
12E
100
AcDbEntity
  8
universal board
  6
ByLayer
 62
  256
370
   -1
100
AcDbCircle
 10
-26.03999999999998
 20
84.26000000000039
 40
0.5
  0
CIRCLE
  5
12F
100
AcDbEntity
  8
universal board
  6
ByLayer
 62
  256
370
   -1
100
AcDbCircle
 10
-28.57999999999987
 20
84.26000000000039
 40
0.5
  0
CIRCLE
  5
130
100
AcDbEntity
  8
universal board
  6
ByLayer
 62
  256
370
   -1
100
AcDbCircle
 10
-31.11999999999976
 20
84.26000000000039
 40
0.5
  0
CIRCLE
  5
131
100
AcDbEntity
  8
universal board
  6
ByLayer
 62
  256
370
   -1
100
AcDbCircle
 10
-33.65999999999966
 20
84.26000000000039
 40
0.5
  0
CIRCLE
  5
132
100
AcDbEntity
  8
universal board
  6
ByLayer
 62
  256
370
   -1
100
AcDbCircle
 10
-36.19999999999955
 20
84.26000000000039
 40
0.5
  0
CIRCLE
  5
133
100
AcDbEntity
  8
universal board
  6
ByLayer
 62
  256
370
   -1
100
AcDbCircle
 10
-38.73999999999944
 20
84.26000000000039
 40
0.5
  0
CIRCLE
  5
134
100
AcDbEntity
  8
universal board
  6
ByLayer
 62
  256
370
   -1
100
AcDbCircle
 10
-20.96000000000021
 20
84.26000000000039
 40
0.5
  0
CIRCLE
  5
135
100
AcDbEntity
  8
universal board
  6
ByLayer
 62
  256
370
   -1
100
AcDbCircle
 10
-18.42000000000033
 20
84.2600000000004
 40
0.5
  0
CIRCLE
  5
136
100
AcDbEntity
  8
universal board
  6
ByLayer
 62
  256
370
   -1
100
AcDbCircle
 10
-15.88000000000045
 20
84.26000000000042
 40
0.5
  0
CIRCLE
  5
137
100
AcDbEntity
  8
universal board
  6
ByLayer
 62
  256
370
   -1
100
AcDbCircle
 10
-13.34000000000057
 20
84.26000000000042
 40
0.5
  0
CIRCLE
  5
138
100
AcDbEntity
  8
universal board
  6
ByLayer
 62
  256
370
   -1
100
AcDbCircle
 10
-10.80000000000069
 20
84.26000000000042
 40
0.5
  0
CIRCLE
  5
139
100
AcDbEntity
  8
universal board
  6
ByLayer
 62
  256
370
   -1
100
AcDbCircle
 10
-8.260000000000819
 20
84.26000000000043
 40
0.5
  0
CIRCLE
  5
13A
100
AcDbEntity
  8
universal board
  6
ByLayer
 62
  256
370
   -1
100
AcDbCircle
 10
-5.72000000000094
 20
84.26000000000045
 40
0.5
  0
CIRCLE
  5
13B
100
AcDbEntity
  8
universal board
  6
ByLayer
 62
  256
370
   -1
100
AcDbCircle
 10
-3.180000000000991
 20
84.26000000000042
 40
0.5
  0
CIRCLE
  5
13C
100
AcDbEntity
  8
universal board
  6
ByLayer
 62
  256
370
   -1
100
AcDbCircle
 10
-0.6400000000011108
 20
84.26000000000042
 40
0.5
  0
CIRCLE
  5
13D
100
AcDbEntity
  8
universal board
  6
ByLayer
 62
  256
370
   -1
100
AcDbCircle
 10
1.899999999998769
 20
84.26000000000042
 40
0.5
  0
CIRCLE
  5
13E
100
AcDbEntity
  8
universal board
  6
ByLayer
 62
  256
370
   -1
100
AcDbCircle
 10
4.439999999998641
 20
84.26000000000043
 40
0.5
  0
CIRCLE
  5
13F
100
AcDbEntity
  8
universal board
  6
ByLayer
 62
  256
370
   -1
100
AcDbCircle
 10
6.979999999998519
 20
84.26000000000045
 40
0.5
  0
CIRCLE
  5
140
100
AcDbEntity
  8
universal board
  6
ByLayer
 62
  256
370
   -1
100
AcDbCircle
 10
-23.50000000000009
 20
86.80000000000041
 40
0.5
  0
CIRCLE
  5
141
100
AcDbEntity
  8
universal board
  6
ByLayer
 62
  256
370
   -1
100
AcDbCircle
 10
-26.03999999999998
 20
86.80000000000041
 40
0.5
  0
CIRCLE
  5
142
100
AcDbEntity
  8
universal board
  6
ByLayer
 62
  256
370
   -1
100
AcDbCircle
 10
-28.57999999999987
 20
86.80000000000041
 40
0.5
  0
CIRCLE
  5
143
100
AcDbEntity
  8
universal board
  6
ByLayer
 62
  256
370
   -1
100
AcDbCircle
 10
-31.11999999999976
 20
86.80000000000041
 40
0.5
  0
CIRCLE
  5
144
100
AcDbEntity
  8
universal board
  6
ByLayer
 62
  256
370
   -1
100
AcDbCircle
 10
-33.65999999999966
 20
86.80000000000041
 40
0.5
  0
CIRCLE
  5
145
100
AcDbEntity
  8
universal board
  6
ByLayer
 62
  256
370
   -1
100
AcDbCircle
 10
-36.19999999999955
 20
86.80000000000041
 40
0.5
  0
CIRCLE
  5
146
100
AcDbEntity
  8
universal board
  6
ByLayer
 62
  256
370
   -1
100
AcDbCircle
 10
-38.73999999999944
 20
86.80000000000041
 40
0.5
  0
CIRCLE
  5
147
100
AcDbEntity
  8
universal board
  6
ByLayer
 62
  256
370
   -1
100
AcDbCircle
 10
-20.96000000000021
 20
86.80000000000041
 40
0.5
  0
CIRCLE
  5
148
100
AcDbEntity
  8
universal board
  6
ByLayer
 62
  256
370
   -1
100
AcDbCircle
 10
-18.42000000000033
 20
86.80000000000042
 40
0.5
  0
CIRCLE
  5
149
100
AcDbEntity
  8
universal board
  6
ByLayer
 62
  256
370
   -1
100
AcDbCircle
 10
-15.88000000000045
 20
86.80000000000044
 40
0.5
  0
CIRCLE
  5
14A
100
AcDbEntity
  8
universal board
  6
ByLayer
 62
  256
370
   -1
100
AcDbCircle
 10
-13.34000000000057
 20
86.80000000000044
 40
0.5
  0
CIRCLE
  5
14B
100
AcDbEntity
  8
universal board
  6
ByLayer
 62
  256
370
   -1
100
AcDbCircle
 10
-10.80000000000069
 20
86.80000000000044
 40
0.5
  0
CIRCLE
  5
14C
100
AcDbEntity
  8
universal board
  6
ByLayer
 62
  256
370
   -1
100
AcDbCircle
 10
-8.260000000000819
 20
86.80000000000045
 40
0.5
  0
CIRCLE
  5
14D
100
AcDbEntity
  8
universal board
  6
ByLayer
 62
  256
370
   -1
100
AcDbCircle
 10
-5.72000000000094
 20
86.80000000000047
 40
0.5
  0
CIRCLE
  5
14E
100
AcDbEntity
  8
universal board
  6
ByLayer
 62
  256
370
   -1
100
AcDbCircle
 10
-3.180000000000991
 20
86.80000000000044
 40
0.5
  0
CIRCLE
  5
14F
100
AcDbEntity
  8
universal board
  6
ByLayer
 62
  256
370
   -1
100
AcDbCircle
 10
-0.6400000000011108
 20
86.80000000000044
 40
0.5
  0
CIRCLE
  5
150
100
AcDbEntity
  8
universal board
  6
ByLayer
 62
  256
370
   -1
100
AcDbCircle
 10
1.899999999998769
 20
86.80000000000044
 40
0.5
  0
CIRCLE
  5
151
100
AcDbEntity
  8
universal board
  6
ByLayer
 62
  256
370
   -1
100
AcDbCircle
 10
4.439999999998641
 20
86.80000000000045
 40
0.5
  0
CIRCLE
  5
152
100
AcDbEntity
  8
universal board
  6
ByLayer
 62
  256
370
   -1
100
AcDbCircle
 10
6.979999999998519
 20
86.80000000000047
 40
0.5
  0
CIRCLE
  5
153
100
AcDbEntity
  8
universal board
  6
ByLayer
 62
  256
370
   -1
100
AcDbCircle
 10
-23.50000000000009
 20
89.34000000000043
 40
0.5
  0
CIRCLE
  5
154
100
AcDbEntity
  8
universal board
  6
ByLayer
 62
  256
370
   -1
100
AcDbCircle
 10
-26.03999999999998
 20
89.34000000000043
 40
0.5
  0
CIRCLE
  5
155
100
AcDbEntity
  8
universal board
  6
ByLayer
 62
  256
370
   -1
100
AcDbCircle
 10
-28.57999999999987
 20
89.34000000000043
 40
0.5
  0
CIRCLE
  5
156
100
AcDbEntity
  8
universal board
  6
ByLayer
 62
  256
370
   -1
100
AcDbCircle
 10
-31.11999999999976
 20
89.34000000000043
 40
0.5
  0
CIRCLE
  5
157
100
AcDbEntity
  8
universal board
  6
ByLayer
 62
  256
370
   -1
100
AcDbCircle
 10
-33.65999999999966
 20
89.34000000000043
 40
0.5
  0
CIRCLE
  5
158
100
AcDbEntity
  8
universal board
  6
ByLayer
 62
  256
370
   -1
100
AcDbCircle
 10
-36.19999999999955
 20
89.34000000000043
 40
0.5
  0
CIRCLE
  5
159
100
AcDbEntity
  8
universal board
  6
ByLayer
 62
  256
370
   -1
100
AcDbCircle
 10
-38.73999999999944
 20
89.34000000000043
 40
0.5
  0
CIRCLE
  5
15A
100
AcDbEntity
  8
universal board
  6
ByLayer
 62
  256
370
   -1
100
AcDbCircle
 10
-20.96000000000021
 20
89.34000000000043
 40
0.5
  0
CIRCLE
  5
15B
100
AcDbEntity
  8
universal board
  6
ByLayer
 62
  256
370
   -1
100
AcDbCircle
 10
-18.42000000000033
 20
89.34000000000044
 40
0.5
  0
CIRCLE
  5
15C
100
AcDbEntity
  8
universal board
  6
ByLayer
 62
  256
370
   -1
100
AcDbCircle
 10
-15.88000000000045
 20
89.34000000000046
 40
0.5
  0
CIRCLE
  5
15D
100
AcDbEntity
  8
universal board
  6
ByLayer
 62
  256
370
   -1
100
AcDbCircle
 10
-13.34000000000057
 20
89.34000000000046
 40
0.5
  0
CIRCLE
  5
15E
100
AcDbEntity
  8
universal board
  6
ByLayer
 62
  256
370
   -1
100
AcDbCircle
 10
-10.80000000000069
 20
89.34000000000046
 40
0.5
  0
CIRCLE
  5
15F
100
AcDbEntity
  8
universal board
  6
ByLayer
 62
  256
370
   -1
100
AcDbCircle
 10
-8.260000000000819
 20
89.34000000000047
 40
0.5
  0
CIRCLE
  5
160
100
AcDbEntity
  8
universal board
  6
ByLayer
 62
  256
370
   -1
100
AcDbCircle
 10
-5.72000000000094
 20
89.34000000000049
 40
0.5
  0
CIRCLE
  5
161
100
AcDbEntity
  8
universal board
  6
ByLayer
 62
  256
370
   -1
100
AcDbCircle
 10
-3.180000000000991
 20
89.34000000000046
 40
0.5
  0
CIRCLE
  5
162
100
AcDbEntity
  8
universal board
  6
ByLayer
 62
  256
370
   -1
100
AcDbCircle
 10
-0.6400000000011108
 20
89.34000000000046
 40
0.5
  0
CIRCLE
  5
163
100
AcDbEntity
  8
universal board
  6
ByLayer
 62
  256
370
   -1
100
AcDbCircle
 10
1.899999999998769
 20
89.34000000000046
 40
0.5
  0
CIRCLE
  5
164
100
AcDbEntity
  8
universal board
  6
ByLayer
 62
  256
370
   -1
100
AcDbCircle
 10
4.439999999998641
 20
89.34000000000047
 40
0.5
  0
CIRCLE
  5
165
100
AcDbEntity
  8
universal board
  6
ByLayer
 62
  256
370
   -1
100
AcDbCircle
 10
6.979999999998519
 20
89.34000000000049
 40
0.5
  0
CIRCLE
  5
166
100
AcDbEntity
  8
universal board
  6
ByLayer
 62
  256
370
   -1
100
AcDbCircle
 10
-23.50000000000009
 20
91.88000000000045
 40
0.5
  0
CIRCLE
  5
167
100
AcDbEntity
  8
universal board
  6
ByLayer
 62
  256
370
   -1
100
AcDbCircle
 10
-26.03999999999998
 20
91.88000000000045
 40
0.5
  0
CIRCLE
  5
168
100
AcDbEntity
  8
universal board
  6
ByLayer
 62
  256
370
   -1
100
AcDbCircle
 10
-28.57999999999987
 20
91.88000000000045
 40
0.5
  0
CIRCLE
  5
169
100
AcDbEntity
  8
universal board
  6
ByLayer
 62
  256
370
   -1
100
AcDbCircle
 10
-31.11999999999976
 20
91.88000000000045
 40
0.5
  0
CIRCLE
  5
16A
100
AcDbEntity
  8
universal board
  6
ByLayer
 62
  256
370
   -1
100
AcDbCircle
 10
-33.65999999999966
 20
91.88000000000045
 40
0.5
  0
CIRCLE
  5
16B
100
AcDbEntity
  8
universal board
  6
ByLayer
 62
  256
370
   -1
100
AcDbCircle
 10
-36.19999999999955
 20
91.88000000000045
 40
0.5
  0
CIRCLE
  5
16C
100
AcDbEntity
  8
universal board
  6
ByLayer
 62
  256
370
   -1
100
AcDbCircle
 10
-38.73999999999944
 20
91.88000000000045
 40
0.5
  0
CIRCLE
  5
16D
100
AcDbEntity
  8
universal board
  6
ByLayer
 62
  256
370
   -1
100
AcDbCircle
 10
-20.96000000000021
 20
91.88000000000045
 40
0.5
  0
CIRCLE
  5
16E
100
AcDbEntity
  8
universal board
  6
ByLayer
 62
  256
370
   -1
100
AcDbCircle
 10
-18.42000000000033
 20
91.88000000000046
 40
0.5
  0
CIRCLE
  5
16F
100
AcDbEntity
  8
universal board
  6
ByLayer
 62
  256
370
   -1
100
AcDbCircle
 10
-15.88000000000045
 20
91.88000000000048
 40
0.5
  0
CIRCLE
  5
170
100
AcDbEntity
  8
universal board
  6
ByLayer
 62
  256
370
   -1
100
AcDbCircle
 10
-13.34000000000057
 20
91.88000000000048
 40
0.5
  0
CIRCLE
  5
171
100
AcDbEntity
  8
universal board
  6
ByLayer
 62
  256
370
   -1
100
AcDbCircle
 10
-10.80000000000069
 20
91.88000000000048
 40
0.5
  0
CIRCLE
  5
172
100
AcDbEntity
  8
universal board
  6
ByLayer
 62
  256
370
   -1
100
AcDbCircle
 10
-8.260000000000819
 20
91.88000000000049
 40
0.5
  0
CIRCLE
  5
173
100
AcDbEntity
  8
universal board
  6
ByLayer
 62
  256
370
   -1
100
AcDbCircle
 10
-5.72000000000094
 20
91.88000000000051
 40
0.5
  0
CIRCLE
  5
174
100
AcDbEntity
  8
universal board
  6
ByLayer
 62
  256
370
   -1
100
AcDbCircle
 10
-3.180000000000991
 20
91.88000000000048
 40
0.5
  0
CIRCLE
  5
175
100
AcDbEntity
  8
universal board
  6
ByLayer
 62
  256
370
   -1
100
AcDbCircle
 10
-0.6400000000011108
 20
91.88000000000048
 40
0.5
  0
CIRCLE
  5
176
100
AcDbEntity
  8
universal board
  6
ByLayer
 62
  256
370
   -1
100
AcDbCircle
 10
1.899999999998769
 20
91.88000000000048
 40
0.5
  0
CIRCLE
  5
177
100
AcDbEntity
  8
universal board
  6
ByLayer
 62
  256
370
   -1
100
AcDbCircle
 10
4.439999999998641
 20
91.88000000000049
 40
0.5
  0
CIRCLE
  5
178
100
AcDbEntity
  8
universal board
  6
ByLayer
 62
  256
370
   -1
100
AcDbCircle
 10
6.979999999998519
 20
91.88000000000051
 40
0.5
  0
CIRCLE
  5
179
100
AcDbEntity
  8
universal board
  6
ByLayer
 62
  256
370
   -1
100
AcDbCircle
 10
9.519999999998422
 20
63.94000000000027
 40
0.5
  0
CIRCLE
  5
17A
100
AcDbEntity
  8
universal board
  6
ByLayer
 62
  256
370
   -1
100
AcDbCircle
 10
9.519999999998412
 20
66.4800000000003
 40
0.5
  0
CIRCLE
  5
17B
100
AcDbEntity
  8
universal board
  6
ByLayer
 62
  256
370
   -1
100
AcDbCircle
 10
9.519999999998412
 20
69.02000000000032
 40
0.5
  0
CIRCLE
  5
17C
100
AcDbEntity
  8
universal board
  6
ByLayer
 62
  256
370
   -1
100
AcDbCircle
 10
9.519999999998412
 20
74.10000000000036
 40
0.5
  0
CIRCLE
  5
17D
100
AcDbEntity
  8
universal board
  6
ByLayer
 62
  256
370
   -1
100
AcDbCircle
 10
9.519999999998412
 20
76.64000000000038
 40
0.5
  0
CIRCLE
  5
17E
100
AcDbEntity
  8
universal board
  6
ByLayer
 62
  256
370
   -1
100
AcDbCircle
 10
9.519999999998412
 20
79.1800000000004
 40
0.5
  0
CIRCLE
  5
17F
100
AcDbEntity
  8
universal board
  6
ByLayer
 62
  256
370
   -1
100
AcDbCircle
 10
9.519999999998412
 20
81.72000000000043
 40
0.5
  0
CIRCLE
  5
180
100
AcDbEntity
  8
universal board
  6
ByLayer
 62
  256
370
   -1
100
AcDbCircle
 10
9.519999999998412
 20
84.26000000000045
 40
0.5
  0
CIRCLE
  5
181
100
AcDbEntity
  8
universal board
  6
ByLayer
 62
  256
370
   -1
100
AcDbCircle
 10
9.519999999998412
 20
86.80000000000047
 40
0.5
  0
CIRCLE
  5
182
100
AcDbEntity
  8
universal board
  6
ByLayer
 62
  256
370
   -1
100
AcDbCircle
 10
9.519999999998412
 20
89.34000000000049
 40
0.5
  0
CIRCLE
  5
183
100
AcDbEntity
  8
universal board
  6
ByLayer
 62
  256
370
   -1
100
AcDbCircle
 10
9.519999999998412
 20
91.88000000000051
 40
0.5
  0
CIRCLE
  5
184
100
AcDbEntity
  8
universal board
  6
ByLayer
 62
  256
370
   -1
100
AcDbCircle
 10
12.05999999999831
 20
63.94000000000027
 40
0.5
  0
CIRCLE
  5
185
100
AcDbEntity
  8
universal board
  6
ByLayer
 62
  256
370
   -1
100
AcDbCircle
 10
12.0599999999983
 20
66.4800000000003
 40
0.5
  0
CIRCLE
  5
186
100
AcDbEntity
  8
universal board
  6
ByLayer
 62
  256
370
   -1
100
AcDbCircle
 10
12.0599999999983
 20
69.02000000000032
 40
0.5
  0
CIRCLE
  5
187
100
AcDbEntity
  8
universal board
  6
ByLayer
 62
  256
370
   -1
100
AcDbCircle
 10
12.0599999999983
 20
74.10000000000036
 40
0.5
  0
CIRCLE
  5
188
100
AcDbEntity
  8
universal board
  6
ByLayer
 62
  256
370
   -1
100
AcDbCircle
 10
12.0599999999983
 20
76.64000000000038
 40
0.5
  0
CIRCLE
  5
189
100
AcDbEntity
  8
universal board
  6
ByLayer
 62
  256
370
   -1
100
AcDbCircle
 10
12.0599999999983
 20
79.1800000000004
 40
0.5
  0
CIRCLE
  5
18A
100
AcDbEntity
  8
universal board
  6
ByLayer
 62
  256
370
   -1
100
AcDbCircle
 10
12.0599999999983
 20
81.72000000000043
 40
0.5
  0
CIRCLE
  5
18B
100
AcDbEntity
  8
universal board
  6
ByLayer
 62
  256
370
   -1
100
AcDbCircle
 10
12.0599999999983
 20
84.26000000000045
 40
0.5
  0
CIRCLE
  5
18C
100
AcDbEntity
  8
universal board
  6
ByLayer
 62
  256
370
   -1
100
AcDbCircle
 10
12.0599999999983
 20
86.80000000000047
 40
0.5
  0
CIRCLE
  5
18D
100
AcDbEntity
  8
universal board
  6
ByLayer
 62
  256
370
   -1
100
AcDbCircle
 10
12.0599999999983
 20
89.34000000000049
 40
0.5
  0
CIRCLE
  5
18E
100
AcDbEntity
  8
universal board
  6
ByLayer
 62
  256
370
   -1
100
AcDbCircle
 10
12.0599999999983
 20
91.88000000000051
 40
0.5
  0
CIRCLE
  5
18F
100
AcDbEntity
  8
universal board
  6
ByLayer
 62
  256
370
   -1
100
AcDbCircle
 10
14.59999999999821
 20
63.94000000000027
 40
0.5
  0
CIRCLE
  5
190
100
AcDbEntity
  8
universal board
  6
ByLayer
 62
  256
370
   -1
100
AcDbCircle
 10
14.5999999999982
 20
66.4800000000003
 40
0.5
  0
CIRCLE
  5
191
100
AcDbEntity
  8
universal board
  6
ByLayer
 62
  256
370
   -1
100
AcDbCircle
 10
14.5999999999982
 20
69.02000000000032
 40
0.5
  0
CIRCLE
  5
192
100
AcDbEntity
  8
universal board
  6
ByLayer
 62
  256
370
   -1
100
AcDbCircle
 10
14.5999999999982
 20
74.10000000000036
 40
0.5
  0
CIRCLE
  5
193
100
AcDbEntity
  8
universal board
  6
ByLayer
 62
  256
370
   -1
100
AcDbCircle
 10
14.5999999999982
 20
76.64000000000038
 40
0.5
  0
CIRCLE
  5
194
100
AcDbEntity
  8
universal board
  6
ByLayer
 62
  256
370
   -1
100
AcDbCircle
 10
14.5999999999982
 20
79.1800000000004
 40
0.5
  0
CIRCLE
  5
195
100
AcDbEntity
  8
universal board
  6
ByLayer
 62
  256
370
   -1
100
AcDbCircle
 10
14.5999999999982
 20
81.72000000000043
 40
0.5
  0
CIRCLE
  5
196
100
AcDbEntity
  8
universal board
  6
ByLayer
 62
  256
370
   -1
100
AcDbCircle
 10
14.5999999999982
 20
84.26000000000045
 40
0.5
  0
CIRCLE
  5
197
100
AcDbEntity
  8
universal board
  6
ByLayer
 62
  256
370
   -1
100
AcDbCircle
 10
14.5999999999982
 20
86.80000000000047
 40
0.5
  0
CIRCLE
  5
198
100
AcDbEntity
  8
universal board
  6
ByLayer
 62
  256
370
   -1
100
AcDbCircle
 10
14.5999999999982
 20
89.34000000000049
 40
0.5
  0
CIRCLE
  5
199
100
AcDbEntity
  8
universal board
  6
ByLayer
 62
  256
370
   -1
100
AcDbCircle
 10
14.5999999999982
 20
91.88000000000051
 40
0.5
  0
CIRCLE
  5
19A
100
AcDbEntity
  8
universal board
  6
ByLayer
 62
  256
370
   -1
100
AcDbCircle
 10
17.1399999999981
 20
63.94000000000027
 40
0.5
  0
CIRCLE
  5
19B
100
AcDbEntity
  8
universal board
  6
ByLayer
 62
  256
370
   -1
100
AcDbCircle
 10
17.13999999999809
 20
66.4800000000003
 40
0.5
  0
CIRCLE
  5
19C
100
AcDbEntity
  8
universal board
  6
ByLayer
 62
  256
370
   -1
100
AcDbCircle
 10
17.13999999999809
 20
69.02000000000032
 40
0.5
  0
CIRCLE
  5
19D
100
AcDbEntity
  8
universal board
  6
ByLayer
 62
  256
370
   -1
100
AcDbCircle
 10
17.13999999999809
 20
74.10000000000036
 40
0.5
  0
CIRCLE
  5
19E
100
AcDbEntity
  8
universal board
  6
ByLayer
 62
  256
370
   -1
100
AcDbCircle
 10
17.13999999999809
 20
76.64000000000038
 40
0.5
  0
CIRCLE
  5
19F
100
AcDbEntity
  8
universal board
  6
ByLayer
 62
  256
370
   -1
100
AcDbCircle
 10
17.13999999999809
 20
79.1800000000004
 40
0.5
  0
CIRCLE
  5
1A0
100
AcDbEntity
  8
universal board
  6
ByLayer
 62
  256
370
   -1
100
AcDbCircle
 10
17.13999999999809
 20
81.72000000000043
 40
0.5
  0
CIRCLE
  5
1A1
100
AcDbEntity
  8
universal board
  6
ByLayer
 62
  256
370
   -1
100
AcDbCircle
 10
17.13999999999809
 20
84.26000000000045
 40
0.5
  0
CIRCLE
  5
1A2
100
AcDbEntity
  8
universal board
  6
ByLayer
 62
  256
370
   -1
100
AcDbCircle
 10
17.13999999999809
 20
86.80000000000047
 40
0.5
  0
CIRCLE
  5
1A3
100
AcDbEntity
  8
universal board
  6
ByLayer
 62
  256
370
   -1
100
AcDbCircle
 10
17.13999999999809
 20
89.34000000000049
 40
0.5
  0
CIRCLE
  5
1A4
100
AcDbEntity
  8
universal board
  6
ByLayer
 62
  256
370
   -1
100
AcDbCircle
 10
17.13999999999809
 20
91.88000000000051
 40
0.5
  0
CIRCLE
  5
1A5
100
AcDbEntity
  8
universal board
  6
ByLayer
 62
  256
370
   -1
100
AcDbCircle
 10
19.67999999999799
 20
63.94000000000027
 40
0.5
  0
CIRCLE
  5
1A6
100
AcDbEntity
  8
universal board
  6
ByLayer
 62
  256
370
   -1
100
AcDbCircle
 10
19.67999999999798
 20
66.4800000000003
 40
0.5
  0
CIRCLE
  5
1A7
100
AcDbEntity
  8
universal board
  6
ByLayer
 62
  256
370
   -1
100
AcDbCircle
 10
19.67999999999798
 20
69.02000000000032
 40
0.5
  0
CIRCLE
  5
1A8
100
AcDbEntity
  8
universal board
  6
ByLayer
 62
  256
370
   -1
100
AcDbCircle
 10
22.21999999999788
 20
63.94000000000027
 40
0.5
  0
CIRCLE
  5
1A9
100
AcDbEntity
  8
universal board
  6
ByLayer
 62
  256
370
   -1
100
AcDbCircle
 10
22.21999999999787
 20
66.4800000000003
 40
0.5
  0
CIRCLE
  5
1AA
100
AcDbEntity
  8
universal board
  6
ByLayer
 62
  256
370
   -1
100
AcDbCircle
 10
22.21999999999787
 20
69.02000000000032
 40
0.5
  0
CIRCLE
  5
1AB
100
AcDbEntity
  8
universal board
  6
ByLayer
 62
  256
370
   -1
100
AcDbCircle
 10
22.21999999999787
 20
71.56000000000034
 40
0.5
  0
CIRCLE
  5
1AC
100
AcDbEntity
  8
universal board
  6
ByLayer
 62
  256
370
   -1
100
AcDbCircle
 10
22.21999999999787
 20
74.10000000000036
 40
0.5
  0
CIRCLE
  5
1AD
100
AcDbEntity
  8
universal board
  6
ByLayer
 62
  256
370
   -1
100
AcDbCircle
 10
22.21999999999787
 20
76.64000000000038
 40
0.5
  0
CIRCLE
  5
1AE
100
AcDbEntity
  8
universal board
  6
ByLayer
 62
  256
370
   -1
100
AcDbCircle
 10
22.21999999999787
 20
79.1800000000004
 40
0.5
  0
CIRCLE
  5
1AF
100
AcDbEntity
  8
universal board
  6
ByLayer
 62
  256
370
   -1
100
AcDbCircle
 10
22.21999999999787
 20
81.72000000000043
 40
0.5
  0
CIRCLE
  5
1B0
100
AcDbEntity
  8
universal board
  6
ByLayer
 62
  256
370
   -1
100
AcDbCircle
 10
22.21999999999787
 20
84.26000000000045
 40
0.5
  0
CIRCLE
  5
1B1
100
AcDbEntity
  8
universal board
  6
ByLayer
 62
  256
370
   -1
100
AcDbCircle
 10
22.21999999999787
 20
86.80000000000047
 40
0.5
  0
CIRCLE
  5
1B2
100
AcDbEntity
  8
universal board
  6
ByLayer
 62
  256
370
   -1
100
AcDbCircle
 10
22.21999999999787
 20
89.34000000000049
 40
0.5
  0
CIRCLE
  5
1B3
100
AcDbEntity
  8
universal board
  6
ByLayer
 62
  256
370
   -1
100
AcDbCircle
 10
22.21999999999787
 20
91.88000000000051
 40
0.5
  0
CIRCLE
  5
1B4
100
AcDbEntity
  8
universal board
  6
ByLayer
 62
  256
370
   -1
100
AcDbCircle
 10
24.75999999999778
 20
63.94000000000027
 40
0.5
  0
CIRCLE
  5
1B5
100
AcDbEntity
  8
universal board
  6
ByLayer
 62
  256
370
   -1
100
AcDbCircle
 10
24.75999999999777
 20
66.4800000000003
 40
0.5
  0
CIRCLE
  5
1B6
100
AcDbEntity
  8
universal board
  6
ByLayer
 62
  256
370
   -1
100
AcDbCircle
 10
24.75999999999777
 20
69.02000000000032
 40
0.5
  0
CIRCLE
  5
1B7
100
AcDbEntity
  8
universal board
  6
ByLayer
 62
  256
370
   -1
100
AcDbCircle
 10
24.75999999999777
 20
71.56000000000034
 40
0.5
  0
CIRCLE
  5
1B8
100
AcDbEntity
  8
universal board
  6
ByLayer
 62
  256
370
   -1
100
AcDbCircle
 10
24.75999999999777
 20
74.10000000000036
 40
0.5
  0
CIRCLE
  5
1B9
100
AcDbEntity
  8
universal board
  6
ByLayer
 62
  256
370
   -1
100
AcDbCircle
 10
24.75999999999777
 20
76.64000000000038
 40
0.5
  0
CIRCLE
  5
1BA
100
AcDbEntity
  8
universal board
  6
ByLayer
 62
  256
370
   -1
100
AcDbCircle
 10
24.75999999999777
 20
79.1800000000004
 40
0.5
  0
CIRCLE
  5
1BB
100
AcDbEntity
  8
universal board
  6
ByLayer
 62
  256
370
   -1
100
AcDbCircle
 10
24.75999999999777
 20
81.72000000000043
 40
0.5
  0
CIRCLE
  5
1BC
100
AcDbEntity
  8
universal board
  6
ByLayer
 62
  256
370
   -1
100
AcDbCircle
 10
24.75999999999777
 20
84.26000000000045
 40
0.5
  0
CIRCLE
  5
1BD
100
AcDbEntity
  8
universal board
  6
ByLayer
 62
  256
370
   -1
100
AcDbCircle
 10
24.75999999999777
 20
86.80000000000047
 40
0.5
  0
CIRCLE
  5
1BE
100
AcDbEntity
  8
universal board
  6
ByLayer
 62
  256
370
   -1
100
AcDbCircle
 10
24.75999999999777
 20
89.34000000000049
 40
0.5
  0
CIRCLE
  5
1BF
100
AcDbEntity
  8
universal board
  6
ByLayer
 62
  256
370
   -1
100
AcDbCircle
 10
24.75999999999777
 20
91.88000000000051
 40
0.5
  0
CIRCLE
  5
1C0
100
AcDbEntity
  8
universal board
  6
ByLayer
 62
  256
370
   -1
100
AcDbCircle
 10
27.29999999999767
 20
63.94000000000027
 40
0.5
  0
CIRCLE
  5
1C1
100
AcDbEntity
  8
universal board
  6
ByLayer
 62
  256
370
   -1
100
AcDbCircle
 10
27.29999999999766
 20
66.4800000000003
 40
0.5
  0
CIRCLE
  5
1C2
100
AcDbEntity
  8
universal board
  6
ByLayer
 62
  256
370
   -1
100
AcDbCircle
 10
27.29999999999766
 20
69.02000000000032
 40
0.5
  0
CIRCLE
  5
1C3
100
AcDbEntity
  8
universal board
  6
ByLayer
 62
  256
370
   -1
100
AcDbCircle
 10
27.29999999999766
 20
71.56000000000034
 40
0.5
  0
CIRCLE
  5
1C4
100
AcDbEntity
  8
universal board
  6
ByLayer
 62
  256
370
   -1
100
AcDbCircle
 10
27.29999999999766
 20
74.10000000000036
 40
0.5
  0
CIRCLE
  5
1C5
100
AcDbEntity
  8
universal board
  6
ByLayer
 62
  256
370
   -1
100
AcDbCircle
 10
27.29999999999766
 20
76.64000000000038
 40
0.5
  0
CIRCLE
  5
1C6
100
AcDbEntity
  8
universal board
  6
ByLayer
 62
  256
370
   -1
100
AcDbCircle
 10
27.29999999999766
 20
79.1800000000004
 40
0.5
  0
CIRCLE
  5
1C7
100
AcDbEntity
  8
universal board
  6
ByLayer
 62
  256
370
   -1
100
AcDbCircle
 10
27.29999999999766
 20
81.72000000000043
 40
0.5
  0
CIRCLE
  5
1C8
100
AcDbEntity
  8
universal board
  6
ByLayer
 62
  256
370
   -1
100
AcDbCircle
 10
27.29999999999766
 20
84.26000000000045
 40
0.5
  0
CIRCLE
  5
1C9
100
AcDbEntity
  8
universal board
  6
ByLayer
 62
  256
370
   -1
100
AcDbCircle
 10
27.29999999999766
 20
86.80000000000047
 40
0.5
  0
CIRCLE
  5
1CA
100
AcDbEntity
  8
universal board
  6
ByLayer
 62
  256
370
   -1
100
AcDbCircle
 10
27.29999999999766
 20
89.34000000000049
 40
0.5
  0
CIRCLE
  5
1CB
100
AcDbEntity
  8
universal board
  6
ByLayer
 62
  256
370
   -1
100
AcDbCircle
 10
27.29999999999766
 20
91.88000000000051
 40
0.5
  0
CIRCLE
  5
1CC
100
AcDbEntity
  8
universal board
  6
ByLayer
 62
  256
370
   -1
100
AcDbCircle
 10
29.83999999999756
 20
63.94000000000027
 40
0.5
  0
CIRCLE
  5
1CD
100
AcDbEntity
  8
universal board
  6
ByLayer
 62
  256
370
   -1
100
AcDbCircle
 10
29.83999999999755
 20
66.4800000000003
 40
0.5
  0
CIRCLE
  5
1CE
100
AcDbEntity
  8
universal board
  6
ByLayer
 62
  256
370
   -1
100
AcDbCircle
 10
29.83999999999755
 20
69.02000000000032
 40
0.5
  0
CIRCLE
  5
1CF
100
AcDbEntity
  8
universal board
  6
ByLayer
 62
  256
370
   -1
100
AcDbCircle
 10
29.83999999999755
 20
71.56000000000034
 40
0.5
  0
CIRCLE
  5
1D0
100
AcDbEntity
  8
universal board
  6
ByLayer
 62
  256
370
   -1
100
AcDbCircle
 10
29.83999999999755
 20
74.10000000000036
 40
0.5
  0
CIRCLE
  5
1D1
100
AcDbEntity
  8
universal board
  6
ByLayer
 62
  256
370
   -1
100
AcDbCircle
 10
29.83999999999755
 20
76.64000000000038
 40
0.5
  0
CIRCLE
  5
1D2
100
AcDbEntity
  8
universal board
  6
ByLayer
 62
  256
370
   -1
100
AcDbCircle
 10
29.83999999999755
 20
79.1800000000004
 40
0.5
  0
CIRCLE
  5
1D3
100
AcDbEntity
  8
universal board
  6
ByLayer
 62
  256
370
   -1
100
AcDbCircle
 10
29.83999999999755
 20
81.72000000000043
 40
0.5
  0
CIRCLE
  5
1D4
100
AcDbEntity
  8
universal board
  6
ByLayer
 62
  256
370
   -1
100
AcDbCircle
 10
29.83999999999755
 20
84.26000000000045
 40
0.5
  0
CIRCLE
  5
1D5
100
AcDbEntity
  8
universal board
  6
ByLayer
 62
  256
370
   -1
100
AcDbCircle
 10
29.83999999999755
 20
86.80000000000047
 40
0.5
  0
CIRCLE
  5
1D6
100
AcDbEntity
  8
universal board
  6
ByLayer
 62
  256
370
   -1
100
AcDbCircle
 10
29.83999999999755
 20
89.34000000000049
 40
0.5
  0
CIRCLE
  5
1D7
100
AcDbEntity
  8
universal board
  6
ByLayer
 62
  256
370
   -1
100
AcDbCircle
 10
29.83999999999755
 20
91.88000000000051
 40
0.5
  0
CIRCLE
  5
1D8
100
AcDbEntity
  8
universal board
  6
ByLayer
 62
  256
370
   -1
100
AcDbCircle
 10
32.37999999999745
 20
63.94000000000027
 40
0.5
  0
CIRCLE
  5
1D9
100
AcDbEntity
  8
universal board
  6
ByLayer
 62
  256
370
   -1
100
AcDbCircle
 10
32.37999999999744
 20
66.4800000000003
 40
0.5
  0
CIRCLE
  5
1DA
100
AcDbEntity
  8
universal board
  6
ByLayer
 62
  256
370
   -1
100
AcDbCircle
 10
32.37999999999744
 20
69.02000000000032
 40
0.5
  0
CIRCLE
  5
1DB
100
AcDbEntity
  8
universal board
  6
ByLayer
 62
  256
370
   -1
100
AcDbCircle
 10
32.37999999999744
 20
71.56000000000034
 40
0.5
  0
CIRCLE
  5
1DC
100
AcDbEntity
  8
universal board
  6
ByLayer
 62
  256
370
   -1
100
AcDbCircle
 10
32.37999999999744
 20
74.10000000000036
 40
0.5
  0
CIRCLE
  5
1DD
100
AcDbEntity
  8
universal board
  6
ByLayer
 62
  256
370
   -1
100
AcDbCircle
 10
32.37999999999744
 20
76.64000000000038
 40
0.5
  0
CIRCLE
  5
1DE
100
AcDbEntity
  8
universal board
  6
ByLayer
 62
  256
370
   -1
100
AcDbCircle
 10
32.37999999999744
 20
79.1800000000004
 40
0.5
  0
CIRCLE
  5
1DF
100
AcDbEntity
  8
universal board
  6
ByLayer
 62
  256
370
   -1
100
AcDbCircle
 10
32.37999999999744
 20
81.72000000000043
 40
0.5
  0
CIRCLE
  5
1E0
100
AcDbEntity
  8
universal board
  6
ByLayer
 62
  256
370
   -1
100
AcDbCircle
 10
32.37999999999744
 20
84.26000000000045
 40
0.5
  0
CIRCLE
  5
1E1
100
AcDbEntity
  8
universal board
  6
ByLayer
 62
  256
370
   -1
100
AcDbCircle
 10
32.37999999999744
 20
86.80000000000047
 40
0.5
  0
CIRCLE
  5
1E2
100
AcDbEntity
  8
universal board
  6
ByLayer
 62
  256
370
   -1
100
AcDbCircle
 10
32.37999999999744
 20
89.34000000000049
 40
0.5
  0
CIRCLE
  5
1E3
100
AcDbEntity
  8
universal board
  6
ByLayer
 62
  256
370
   -1
100
AcDbCircle
 10
32.37999999999744
 20
91.88000000000051
 40
0.5
  0
LINE
  5
1E4
100
AcDbEntity
  8
micon
  6
ByLayer
 62
  256
370
   -1
100
AcDbLine
 10
-22.86500000000027
 20
29.20549999999947
 11
-16.51500000000006
 21
29.20549999999947
  0
LINE
  5
1E5
100
AcDbEntity
  8
micon
  6
ByLayer
 62
  256
370
   -1
100
AcDbLine
 10
-16.51500000000006
 20
29.20549999999947
 11
-16.51500000000006
 21
19.93449999999955
  0
LINE
  5
1E6
100
AcDbEntity
  8
micon
  6
ByLayer
 62
  256
370
   -1
100
AcDbLine
 10
-16.51500000000006
 20
19.93449999999955
 11
-22.86500000000027
 21
19.93449999999955
  0
LINE
  5
1E7
100
AcDbEntity
  8
micon
  6
ByLayer
 62
  256
370
   -1
100
AcDbLine
 10
-22.86500000000027
 20
19.93449999999955
 11
-22.86500000000027
 21
29.20549999999947
  0
CIRCLE
  5
1E8
100
AcDbEntity
  8
micon
  6
ByLayer
 62
  256
370
   -1
100
AcDbCircle
 10
-23.49999999999999
 20
28.37999999999994
 40
0.3
  0
CIRCLE
  5
1E9
100
AcDbEntity
  8
micon
  6
ByLayer
 62
  256
370
   -1
100
AcDbCircle
 10
-23.49999999999998
 20
25.83999999999992
 40
0.3
  0
CIRCLE
  5
1EA
100
AcDbEntity
  8
micon
  6
ByLayer
 62
  256
370
   -1
100
AcDbCircle
 10
-23.49999999999997
 20
23.2999999999999
 40
0.3
  0
CIRCLE
  5
1EB
100
AcDbEntity
  8
micon
  6
ByLayer
 62
  256
370
   -1
100
AcDbCircle
 10
-23.49999999999996
 20
20.75999999999986
 40
0.3
  0
CIRCLE
  5
1EC
100
AcDbEntity
  8
micon
  6
ByLayer
 62
  256
370
   -1
100
AcDbCircle
 10
-15.88000000000033
 20
20.7599999999999
 40
0.3
  0
CIRCLE
  5
1ED
100
AcDbEntity
  8
micon
  6
ByLayer
 62
  256
370
   -1
100
AcDbCircle
 10
-15.88000000000034
 20
23.29999999999991
 40
0.3
  0
CIRCLE
  5
1EE
100
AcDbEntity
  8
micon
  6
ByLayer
 62
  256
370
   -1
100
AcDbCircle
 10
-15.88000000000034
 20
25.83999999999993
 40
0.3
  0
CIRCLE
  5
1EF
100
AcDbEntity
  8
micon
  6
ByLayer
 62
  256
370
   -1
100
AcDbCircle
 10
-15.88000000000035
 20
28.37999999999995
 40
0.3
  0
ARC
  5
1F0
100
AcDbEntity
  8
micon
  6
ByLayer
 62
  256
370
   -1
100
AcDbCircle
 10
-19.68999937088039
 20
29.20549999999947
 40
1
100
AcDbArc
 50
180
 51
0
  0
MTEXT
  5
1F1
100
AcDbEntity
  8
micon
  6
ByLayer
 62
  256
370
   -1
100
AcDbMText
 10
-21.37784556156724
 20
24.74121842559523
 30
0
 40
1
 41
2.444444444444569
 71
    5
 72
    1
  1
VDD\PRA5\PRA4\PRA3
  7
iso
210
0
220
0
230
1
 50
0
 73
    2
 44
1.54
  0
MTEXT
  5
1F2
100
AcDbEntity
  8
micon
  6
ByLayer
 62
  256
370
   -1
100
AcDbMText
 10
-18.15914248767995
 20
24.56583926734297
 30
0
 40
1
 41
2.444444020440145
 71
    5
 72
    1
  1
VSS\PRA0\PRA1\PRA2
  7
iso
210
0
220
0
230
1
 50
0
 73
    2
 44
1.54
  0
LINE
  5
1F3
100
AcDbEntity
  8
1_VBUS
  6
ByLayer
 62
  256
370
   -1
100
AcDbLine
 10
-20.9600000000001
 20
28.37999999999995
 11
-23.49999999999998
 21
28.37999999999994
  0
LINE
  5
1F4
100
AcDbEntity
  8
1_VBUS
  6
ByLayer
 62
  256
370
   -1
100
AcDbLine
 10
-23.49999999999999
 20
28.37999999999994
 11
-33.65999999999955
 21
28.37999999999994
  0
LINE
  5
1F5
100
AcDbEntity
  8
3_D+_line
  6
ByLayer
 62
  256
370
   -1
100
AcDbLine
 10
-31.11999999999965
 20
25.83999999999992
 11
-23.49999999999997
 21
25.83999999999992
  0
LINE
  5
1F6
100
AcDbEntity
  8
3_D+_line
  6
ByLayer
 62
  256
370
   -1
100
AcDbLine
 10
-15.88000000000032
 20
20.7599999999999
 11
-15.88000000000032
 21
18.21999999999988
  0
LINE
  5
1F7
100
AcDbEntity
  8
3_D+_line
  6
ByLayer
 62
  256
370
   -1
100
AcDbLine
 10
-23.49999999999996
 20
20.75999999999986
 11
-26.03999999999985
 21
20.75999999999988
  0
LINE
  5
1F8
100
AcDbEntity
  8
pin socket
  6
ByLayer
 62
  256
370
   -1
100
AcDbLine
 10
-37.46999999999965
 20
24.57000000000011
 11
-37.46999999999965
 21
22.02999999999969
  0
LINE
  5
1F9
100
AcDbEntity
  8
pin socket
  6
ByLayer
 62
  256
370
   -1
100
AcDbLine
 10
-37.46999999999965
 20
22.02999999999969
 11
-34.92999999999922
 21
22.02999999999969
  0
LINE
  5
1FA
100
AcDbEntity
  8
pin socket
  6
ByLayer
 62
  256
370
   -1
100
AcDbLine
 10
-34.92999999999922
 20
22.02999999999969
 11
-34.92999999999922
 21
24.57000000000011
  0
LINE
  5
1FB
100
AcDbEntity
  8
pin socket
  6
ByLayer
 62
  256
370
   -1
100
AcDbLine
 10
-34.92999999999922
 20
24.57000000000011
 11
-37.46999999999965
 21
24.57000000000011
  0
CIRCLE
  5
1FC
100
AcDbEntity
  8
pin socket
  6
ByLayer
 62
  256
370
   -1
100
AcDbCircle
 10
-36.19999999999944
 20
23.2999999999999
 40
0.3
  0
LINE
  5
1FD
100
AcDbEntity
  8
pin socket
  6
ByLayer
 62
  256
370
   -1
100
AcDbLine
 10
-37.46999999999965
 20
22.03000000000009
 11
-37.46999999999965
 21
19.48999999999967
  0
LINE
  5
1FE
100
AcDbEntity
  8
pin socket
  6
ByLayer
 62
  256
370
   -1
100
AcDbLine
 10
-37.46999999999965
 20
19.48999999999967
 11
-34.92999999999922
 21
19.48999999999967
  0
LINE
  5
1FF
100
AcDbEntity
  8
pin socket
  6
ByLayer
 62
  256
370
   -1
100
AcDbLine
 10
-34.92999999999922
 20
19.48999999999967
 11
-34.92999999999922
 21
22.03000000000009
  0
LINE
  5
200
100
AcDbEntity
  8
pin socket
  6
ByLayer
 62
  256
370
   -1
100
AcDbLine
 10
-34.92999999999922
 20
22.03000000000009
 11
-37.46999999999965
 21
22.03000000000009
  0
CIRCLE
  5
201
100
AcDbEntity
  8
pin socket
  6
ByLayer
 62
  256
370
   -1
100
AcDbCircle
 10
-36.19999999999944
 20
20.75999999999988
 40
0.3
  0
LINE
  5
202
100
AcDbEntity
  8
pin socket
  6
ByLayer
 62
  256
370
   -1
100
AcDbLine
 10
-37.46999999999965
 20
19.49000000000007
 11
-37.46999999999965
 21
16.94999999999965
  0
LINE
  5
203
100
AcDbEntity
  8
pin socket
  6
ByLayer
 62
  256
370
   -1
100
AcDbLine
 10
-37.46999999999965
 20
16.94999999999965
 11
-34.92999999999922
 21
16.94999999999965
  0
LINE
  5
204
100
AcDbEntity
  8
pin socket
  6
ByLayer
 62
  256
370
   -1
100
AcDbLine
 10
-34.92999999999922
 20
16.94999999999965
 11
-34.92999999999922
 21
19.49000000000007
  0
LINE
  5
205
100
AcDbEntity
  8
pin socket
  6
ByLayer
 62
  256
370
   -1
100
AcDbLine
 10
-34.92999999999922
 20
19.49000000000007
 11
-37.46999999999965
 21
19.49000000000007
  0
CIRCLE
  5
206
100
AcDbEntity
  8
pin socket
  6
ByLayer
 62
  256
370
   -1
100
AcDbCircle
 10
-36.19999999999944
 20
18.21999999999986
 40
0.3
  0
LINE
  5
207
100
AcDbEntity
  8
pin socket
  6
ByLayer
 62
  256
370
   -1
100
AcDbLine
 10
-37.46999999999965
 20
16.95000000000005
 11
-37.46999999999965
 21
14.40999999999963
  0
LINE
  5
208
100
AcDbEntity
  8
pin socket
  6
ByLayer
 62
  256
370
   -1
100
AcDbLine
 10
-37.46999999999965
 20
14.40999999999963
 11
-34.92999999999922
 21
14.40999999999963
  0
LINE
  5
209
100
AcDbEntity
  8
pin socket
  6
ByLayer
 62
  256
370
   -1
100
AcDbLine
 10
-34.92999999999922
 20
14.40999999999963
 11
-34.92999999999922
 21
16.95000000000005
  0
LINE
  5
20A
100
AcDbEntity
  8
pin socket
  6
ByLayer
 62
  256
370
   -1
100
AcDbLine
 10
-34.92999999999922
 20
16.95000000000005
 11
-37.46999999999965
 21
16.95000000000005
  0
CIRCLE
  5
20B
100
AcDbEntity
  8
pin socket
  6
ByLayer
 62
  256
370
   -1
100
AcDbCircle
 10
-36.19999999999944
 20
15.67999999999984
 40
0.3
  0
LINE
  5
20C
100
AcDbEntity
  8
pin socket
  6
ByLayer
 62
  256
370
   -1
100
AcDbLine
 10
-34.92999999999976
 20
24.57000000000011
 11
-34.92999999999976
 21
22.02999999999969
  0
LINE
  5
20D
100
AcDbEntity
  8
pin socket
  6
ByLayer
 62
  256
370
   -1
100
AcDbLine
 10
-34.92999999999976
 20
22.02999999999969
 11
-32.38999999999933
 21
22.02999999999969
  0
LINE
  5
20E
100
AcDbEntity
  8
pin socket
  6
ByLayer
 62
  256
370
   -1
100
AcDbLine
 10
-32.38999999999933
 20
22.02999999999969
 11
-32.38999999999933
 21
24.57000000000011
  0
LINE
  5
20F
100
AcDbEntity
  8
pin socket
  6
ByLayer
 62
  256
370
   -1
100
AcDbLine
 10
-32.38999999999933
 20
24.57000000000011
 11
-34.92999999999976
 21
24.57000000000011
  0
CIRCLE
  5
210
100
AcDbEntity
  8
pin socket
  6
ByLayer
 62
  256
370
   -1
100
AcDbCircle
 10
-33.65999999999954
 20
23.2999999999999
 40
0.3
  0
LINE
  5
211
100
AcDbEntity
  8
pin socket
  6
ByLayer
 62
  256
370
   -1
100
AcDbLine
 10
-34.92999999999976
 20
22.03000000000009
 11
-34.92999999999976
 21
19.48999999999967
  0
LINE
  5
212
100
AcDbEntity
  8
pin socket
  6
ByLayer
 62
  256
370
   -1
100
AcDbLine
 10
-34.92999999999976
 20
19.48999999999967
 11
-32.38999999999933
 21
19.48999999999967
  0
LINE
  5
213
100
AcDbEntity
  8
pin socket
  6
ByLayer
 62
  256
370
   -1
100
AcDbLine
 10
-32.38999999999933
 20
19.48999999999967
 11
-32.38999999999933
 21
22.03000000000009
  0
LINE
  5
214
100
AcDbEntity
  8
pin socket
  6
ByLayer
 62
  256
370
   -1
100
AcDbLine
 10
-32.38999999999933
 20
22.03000000000009
 11
-34.92999999999976
 21
22.03000000000009
  0
CIRCLE
  5
215
100
AcDbEntity
  8
pin socket
  6
ByLayer
 62
  256
370
   -1
100
AcDbCircle
 10
-33.65999999999954
 20
20.75999999999988
 40
0.3
  0
LINE
  5
216
100
AcDbEntity
  8
pin socket
  6
ByLayer
 62
  256
370
   -1
100
AcDbLine
 10
-34.92999999999976
 20
19.49000000000007
 11
-34.92999999999976
 21
16.94999999999965
  0
LINE
  5
217
100
AcDbEntity
  8
pin socket
  6
ByLayer
 62
  256
370
   -1
100
AcDbLine
 10
-34.92999999999976
 20
16.94999999999965
 11
-32.38999999999933
 21
16.94999999999965
  0
LINE
  5
218
100
AcDbEntity
  8
pin socket
  6
ByLayer
 62
  256
370
   -1
100
AcDbLine
 10
-32.38999999999933
 20
16.94999999999965
 11
-32.38999999999933
 21
19.49000000000007
  0
LINE
  5
219
100
AcDbEntity
  8
pin socket
  6
ByLayer
 62
  256
370
   -1
100
AcDbLine
 10
-32.38999999999933
 20
19.49000000000007
 11
-34.92999999999976
 21
19.49000000000007
  0
CIRCLE
  5
21A
100
AcDbEntity
  8
pin socket
  6
ByLayer
 62
  256
370
   -1
100
AcDbCircle
 10
-33.65999999999954
 20
18.21999999999986
 40
0.3
  0
LINE
  5
21B
100
AcDbEntity
  8
pin socket
  6
ByLayer
 62
  256
370
   -1
100
AcDbLine
 10
-34.92999999999976
 20
16.95000000000005
 11
-34.92999999999976
 21
14.40999999999963
  0
LINE
  5
21C
100
AcDbEntity
  8
pin socket
  6
ByLayer
 62
  256
370
   -1
100
AcDbLine
 10
-34.92999999999976
 20
14.40999999999963
 11
-32.38999999999933
 21
14.40999999999963
  0
LINE
  5
21D
100
AcDbEntity
  8
pin socket
  6
ByLayer
 62
  256
370
   -1
100
AcDbLine
 10
-32.38999999999933
 20
14.40999999999963
 11
-32.38999999999933
 21
16.95000000000005
  0
LINE
  5
21E
100
AcDbEntity
  8
pin socket
  6
ByLayer
 62
  256
370
   -1
100
AcDbLine
 10
-32.38999999999933
 20
16.95000000000005
 11
-34.92999999999976
 21
16.95000000000005
  0
CIRCLE
  5
21F
100
AcDbEntity
  8
pin socket
  6
ByLayer
 62
  256
370
   -1
100
AcDbCircle
 10
-33.65999999999954
 20
15.67999999999984
 40
0.3
  0
LINE
  5
220
100
AcDbEntity
  8
pin socket
  6
ByLayer
 62
  256
370
   -1
100
AcDbLine
 10
-32.38999999999987
 20
24.57000000000011
 11
-32.38999999999987
 21
22.02999999999969
  0
LINE
  5
221
100
AcDbEntity
  8
pin socket
  6
ByLayer
 62
  256
370
   -1
100
AcDbLine
 10
-32.38999999999987
 20
22.02999999999969
 11
-29.84999999999943
 21
22.02999999999969
  0
LINE
  5
222
100
AcDbEntity
  8
pin socket
  6
ByLayer
 62
  256
370
   -1
100
AcDbLine
 10
-29.84999999999943
 20
22.02999999999969
 11
-29.84999999999943
 21
24.57000000000011
  0
LINE
  5
223
100
AcDbEntity
  8
pin socket
  6
ByLayer
 62
  256
370
   -1
100
AcDbLine
 10
-29.84999999999943
 20
24.57000000000011
 11
-32.38999999999987
 21
24.57000000000011
  0
CIRCLE
  5
224
100
AcDbEntity
  8
pin socket
  6
ByLayer
 62
  256
370
   -1
100
AcDbCircle
 10
-31.11999999999965
 20
23.2999999999999
 40
0.3
  0
LINE
  5
225
100
AcDbEntity
  8
pin socket
  6
ByLayer
 62
  256
370
   -1
100
AcDbLine
 10
-32.38999999999987
 20
22.03000000000009
 11
-32.38999999999987
 21
19.48999999999967
  0
LINE
  5
226
100
AcDbEntity
  8
pin socket
  6
ByLayer
 62
  256
370
   -1
100
AcDbLine
 10
-32.38999999999987
 20
19.48999999999967
 11
-29.84999999999943
 21
19.48999999999967
  0
LINE
  5
227
100
AcDbEntity
  8
pin socket
  6
ByLayer
 62
  256
370
   -1
100
AcDbLine
 10
-29.84999999999943
 20
19.48999999999967
 11
-29.84999999999943
 21
22.03000000000009
  0
LINE
  5
228
100
AcDbEntity
  8
pin socket
  6
ByLayer
 62
  256
370
   -1
100
AcDbLine
 10
-29.84999999999943
 20
22.03000000000009
 11
-32.38999999999987
 21
22.03000000000009
  0
CIRCLE
  5
229
100
AcDbEntity
  8
pin socket
  6
ByLayer
 62
  256
370
   -1
100
AcDbCircle
 10
-31.11999999999965
 20
20.75999999999988
 40
0.3
  0
LINE
  5
22A
100
AcDbEntity
  8
pin socket
  6
ByLayer
 62
  256
370
   -1
100
AcDbLine
 10
-32.38999999999987
 20
19.49000000000007
 11
-32.38999999999987
 21
16.94999999999965
  0
LINE
  5
22B
100
AcDbEntity
  8
pin socket
  6
ByLayer
 62
  256
370
   -1
100
AcDbLine
 10
-32.38999999999987
 20
16.94999999999965
 11
-29.84999999999943
 21
16.94999999999965
  0
LINE
  5
22C
100
AcDbEntity
  8
pin socket
  6
ByLayer
 62
  256
370
   -1
100
AcDbLine
 10
-29.84999999999943
 20
16.94999999999965
 11
-29.84999999999943
 21
19.49000000000007
  0
LINE
  5
22D
100
AcDbEntity
  8
pin socket
  6
ByLayer
 62
  256
370
   -1
100
AcDbLine
 10
-29.84999999999943
 20
19.49000000000007
 11
-32.38999999999987
 21
19.49000000000007
  0
CIRCLE
  5
22E
100
AcDbEntity
  8
pin socket
  6
ByLayer
 62
  256
370
   -1
100
AcDbCircle
 10
-31.11999999999965
 20
18.21999999999986
 40
0.3
  0
LINE
  5
22F
100
AcDbEntity
  8
pin socket
  6
ByLayer
 62
  256
370
   -1
100
AcDbLine
 10
-32.38999999999987
 20
16.95000000000005
 11
-32.38999999999987
 21
14.40999999999963
  0
LINE
  5
230
100
AcDbEntity
  8
pin socket
  6
ByLayer
 62
  256
370
   -1
100
AcDbLine
 10
-32.38999999999987
 20
14.40999999999963
 11
-29.84999999999943
 21
14.40999999999963
  0
LINE
  5
231
100
AcDbEntity
  8
pin socket
  6
ByLayer
 62
  256
370
   -1
100
AcDbLine
 10
-29.84999999999943
 20
14.40999999999963
 11
-29.84999999999943
 21
16.95000000000005
  0
LINE
  5
232
100
AcDbEntity
  8
pin socket
  6
ByLayer
 62
  256
370
   -1
100
AcDbLine
 10
-29.84999999999943
 20
16.95000000000005
 11
-32.38999999999987
 21
16.95000000000005
  0
CIRCLE
  5
233
100
AcDbEntity
  8
pin socket
  6
ByLayer
 62
  256
370
   -1
100
AcDbCircle
 10
-31.11999999999965
 20
15.67999999999984
 40
0.3
  0
LINE
  5
234
100
AcDbEntity
  8
3_D+_line
  6
ByLayer
 62
  256
370
   -1
100
AcDbLine
 10
-23.49999999999997
 20
23.2999999999999
 11
-28.57999999999976
 21
23.2999999999999
  0
LINE
  5
235
100
AcDbEntity
  8
3_D+_line
  6
ByLayer
 62
  256
370
   -1
100
AcDbLine
 10
-28.57999999999975
 20
23.2999999999999
 11
-28.57999999999974
 21
20.75999999999988
  0
LINE
  5
236
100
AcDbEntity
  8
3_D+_line
  6
ByLayer
 62
  256
370
   -1
100
AcDbLine
 10
-28.57999999999974
 20
20.75999999999988
 11
-31.11999999999964
 21
20.75999999999988
  0
LINE
  5
237
100
AcDbEntity
  8
3_D+_line
  6
ByLayer
 62
  256
370
   -1
100
AcDbLine
 10
-31.11999999999964
 20
23.2999999999999
 11
-31.11999999999965
 21
25.83999999999992
  0
LINE
  5
238
100
AcDbEntity
  8
terminal
  6
ByLayer
 62
  256
370
   -1
100
AcDbLine
 10
-31.30999999999975
 20
33.34999999999997
 11
-37.05999999999956
 21
33.34999999999997
  0
LINE
  5
239
100
AcDbEntity
  8
terminal
  6
ByLayer
 62
  256
370
   -1
100
AcDbLine
 10
-37.05999999999956
 20
33.34999999999997
 11
-37.05999999999956
 21
25.94999999999995
  0
LINE
  5
23A
100
AcDbEntity
  8
terminal
  6
ByLayer
 62
  256
370
   -1
100
AcDbLine
 10
-37.05999999999956
 20
25.94999999999995
 11
-31.30999999999975
 21
25.94999999999995
  0
LINE
  5
23B
100
AcDbEntity
  8
terminal
  6
ByLayer
 62
  256
370
   -1
100
AcDbLine
 10
-31.30999999999975
 20
25.94999999999995
 11
-31.30999999999975
 21
33.34999999999997
  0
CIRCLE
  5
23C
100
AcDbEntity
  8
terminal
  6
ByLayer
 62
  256
370
   -1
100
AcDbCircle
 10
-33.65999999999954
 20
30.91999999999999
 40
0.3
  0
CIRCLE
  5
23D
100
AcDbEntity
  8
terminal
  6
ByLayer
 62
  256
370
   -1
100
AcDbCircle
 10
-33.65999999999955
 20
28.37999999999994
 40
0.3
  0
LINE
  5
23E
100
AcDbEntity
  8
4_GND
  6
ByLayer
 62
  256
370
   -1
100
AcDbLine
 10
-33.65999999999954
 20
30.91999999999999
 11
-18.42000000000023
 21
30.91999999999997
  0
LINE
  5
23F
100
AcDbEntity
  8
1_VBUS
  6
ByLayer
 62
  256
370
   -1
100
AcDbLine
 10
-33.65999999999955
 20
28.37999999999994
 11
-33.65999999999951
 21
15.67999999999984
  0
LINE
  5
240
100
AcDbEntity
  8
3_D+_line
  6
ByLayer
 62
  256
370
   -1
100
AcDbLine
 10
-23.49999999999995
 20
18.21999999999986
 11
-31.11999999999965
 21
18.21999999999984
  0
LINE
  5
241
100
AcDbEntity
  8
3_D+_line
  6
ByLayer
 62
  256
370
   -1
100
AcDbLine
 10
-15.88000000000033
 20
23.29999999999991
 11
-18.42000000000021
 21
23.29999999999991
  0
LINE
  5
242
100
AcDbEntity
  8
3_D+_line
  6
ByLayer
 62
  256
370
   -1
100
AcDbLine
 10
-18.42000000000021
 20
23.29999999999991
 11
-18.42000000000019
 21
15.67999999999986
  0
LINE
  5
243
100
AcDbEntity
  8
3_D+_line
  6
ByLayer
 62
  256
370
   -1
100
AcDbLine
 10
-18.42000000000019
 20
15.67999999999986
 11
-31.11999999999962
 21
15.67999999999984
  0
LINE
  5
244
100
AcDbEntity
  8
3_D+_line
  6
ByLayer
 62
  256
370
   -1
100
AcDbLine
 10
-26.03999999999983
 20
13.13999999999982
 11
-13.34000000000043
 21
13.13999999999986
  0
LINE
  5
245
100
AcDbEntity
  8
pin socket
  6
ByLayer
 62
  256
370
   -1
100
AcDbLine
 10
-9.530000000000552
 20
22.03000000000009
 11
-9.530000000000552
 21
24.57000000000051
  0
LINE
  5
246
100
AcDbEntity
  8
pin socket
  6
ByLayer
 62
  256
370
   -1
100
AcDbLine
 10
-6.990000000000531
 20
22.03000000000009
 11
-6.990000000000531
 21
24.57000000000051
  0
LINE
  5
247
100
AcDbEntity
  8
pin socket
  6
ByLayer
 62
  256
370
   -1
100
AcDbLine
 10
-6.990000000000531
 20
24.57000000000051
 11
-9.53000000000095
 21
24.57000000000051
  0
LINE
  5
248
100
AcDbEntity
  8
pin socket
  6
ByLayer
 62
  256
370
   -1
100
AcDbLine
 10
-9.53000000000095
 20
24.57000000000051
 11
-9.53000000000095
 21
22.03000000000009
  0
CIRCLE
  5
249
100
AcDbEntity
  8
pin socket
  6
ByLayer
 62
  256
370
   -1
100
AcDbCircle
 10
-8.260000000000741
 20
23.3000000000003
 40
0.3
  0
LINE
  5
24A
100
AcDbEntity
  8
pin socket
  6
ByLayer
 62
  256
370
   -1
100
AcDbLine
 10
-9.53000000000095
 20
24.56999999999997
 11
-6.990000000000531
 21
24.56999999999997
  0
LINE
  5
24B
100
AcDbEntity
  8
pin socket
  6
ByLayer
 62
  256
370
   -1
100
AcDbLine
 10
-9.53000000000053
 20
29.64999999999979
 11
-9.53000000000053
 21
32.19000000000023
  0
LINE
  5
24C
100
AcDbEntity
  8
pin socket
  6
ByLayer
 62
  256
370
   -1
100
AcDbLine
 10
-9.530000000000928
 20
29.64999999999979
 11
-6.99000000000051
 21
29.64999999999979
  0
LINE
  5
24D
100
AcDbEntity
  8
pin socket
  6
ByLayer
 62
  256
370
   -1
100
AcDbLine
 10
-6.99000000000051
 20
29.64999999999979
 11
-6.99000000000051
 21
32.19000000000023
  0
LINE
  5
24E
100
AcDbEntity
  8
pin socket
  6
ByLayer
 62
  256
370
   -1
100
AcDbLine
 10
-6.99000000000051
 20
32.19000000000023
 11
-9.530000000000928
 21
32.19000000000023
  0
LINE
  5
24F
100
AcDbEntity
  8
pin socket
  6
ByLayer
 62
  256
370
   -1
100
AcDbLine
 10
-9.530000000000928
 20
32.19000000000023
 11
-9.530000000000928
 21
29.64999999999979
  0
CIRCLE
  5
250
100
AcDbEntity
  8
pin socket
  6
ByLayer
 62
  256
370
   -1
100
AcDbCircle
 10
-8.260000000000719
 20
30.92000000000001
 40
0.3
  0
LINE
  5
251
100
AcDbEntity
  8
pin socket
  6
ByLayer
 62
  256
370
   -1
100
AcDbLine
 10
-9.530000000000928
 20
32.18999999999969
 11
-6.99000000000051
 21
32.18999999999969
  0
LINE
  5
252
100
AcDbEntity
  8
3_D+_line
  6
ByLayer
 62
  256
370
   -1
100
AcDbLine
 10
-15.88000000000034
 20
25.83999999999993
 11
-8.260000000000698
 21
25.83999999999997
  0
LINE
  5
253
100
AcDbEntity
  8
3_D+_line
  6
ByLayer
 62
  256
370
   -1
100
AcDbLine
 10
-8.260000000000698
 20
25.83999999999997
 11
-8.260000000000741
 21
23.3000000000003
  0
LINE
  5
254
100
AcDbEntity
  8
4_GND
  6
ByLayer
 62
  256
370
   -1
100
AcDbLine
 10
-18.42000000000023
 20
30.91999999999997
 11
-8.260000000000719
 21
30.92000000000001
  0
LINE
  5
255
100
AcDbEntity
  8
4_GND
  6
ByLayer
 62
  256
370
   -1
100
AcDbLine
 10
-8.260000000000719
 20
30.92000000000001
 11
-5.720000000000839
 21
30.92000000000001
  0
LINE
  5
256
100
AcDbEntity
  8
4_GND
  6
ByLayer
 62
  256
370
   -1
100
AcDbLine
 10
-15.88000000000034
 20
28.37999999999995
 11
-15.88000000000035
 21
30.91999999999999
  0
LINE
  5
257
100
AcDbEntity
  8
condenser
  6
ByLayer
 62
  256
370
   -1
100
AcDbLine
 10
-29.84999999999933
 20
32.14999999999996
 11
-27.31000000000021
 21
32.14999999999996
  0
LINE
  5
258
100
AcDbEntity
  8
condenser
  6
ByLayer
 62
  256
370
   -1
100
AcDbLine
 10
-27.31000000000021
 20
32.14999999999996
 11
-27.31000000000021
 21
27.15000000000006
  0
LINE
  5
259
100
AcDbEntity
  8
condenser
  6
ByLayer
 62
  256
370
   -1
100
AcDbLine
 10
-27.31000000000021
 20
27.15000000000006
 11
-29.84999999999933
 21
27.15000000000006
  0
LINE
  5
25A
100
AcDbEntity
  8
condenser
  6
ByLayer
 62
  256
370
   -1
100
AcDbLine
 10
-29.84999999999933
 20
27.15000000000006
 11
-29.84999999999933
 21
32.14999999999996
  0
CIRCLE
  5
25B
100
AcDbEntity
  8
condenser
  6
ByLayer
 62
  256
370
   -1
100
AcDbCircle
 10
-28.57999999999977
 20
30.91999999999999
 40
0.25
  0
CIRCLE
  5
25C
100
AcDbEntity
  8
condenser
  6
ByLayer
 62
  256
370
   -1
100
AcDbCircle
 10
-28.57999999999976
 20
28.37999999999994
 40
0.25
  0
LINE
  5
25D
100
AcDbEntity
  8
pin socket
  6
ByLayer
 62
  256
370
   -1
100
AcDbLine
 10
-24.7700000000002
 20
29.65000000000015
 11
-24.7700000000002
 21
19.49000000000007
  0
LINE
  5
25E
100
AcDbEntity
  8
pin socket
  6
ByLayer
 62
  256
370
   -1
100
AcDbLine
 10
-14.61000000000069
 20
29.65000000000018
 11
-14.61000000000068
 21
19.49000000000007
  0
LINE
  5
25F
100
AcDbEntity
  8
pin socket
  6
ByLayer
 62
  256
370
   -1
100
AcDbLine
 10
-14.61000000000068
 20
19.49000000000007
 11
-24.77000000000017
 21
19.49000000000007
  0
LINE
  5
260
100
AcDbEntity
  8
pin socket
  6
ByLayer
 62
  256
370
   -1
100
AcDbLine
 10
-24.7700000000002
 20
29.65000000000015
 11
-14.61000000000068
 21
29.65000000000015
  0
LINE
  5
261
100
AcDbEntity
  8
pin socket
  6
ByLayer
 62
  256
370
   -1
100
AcDbLine
 10
-22.23000000000032
 20
29.65000000000015
 11
-22.23000000000032
 21
19.49000000000007
  0
LINE
  5
262
100
AcDbEntity
  8
pin socket
  6
ByLayer
 62
  256
370
   -1
100
AcDbLine
 10
-17.15000000000057
 20
29.65000000000018
 11
-17.15000000000056
 21
19.49000000000007
  0
MTEXT
  5
263
100
AcDbEntity
  8
terminal
  6
ByLayer
 62
  256
370
   -1
100
AcDbMText
 10
-35.75917535022869
 20
32.55188867590471
 30
0
 40
1
 41
2.111111111111111
 71
    5
 72
    1
  1
XH1
  7
iso
210
0
220
0
230
1
 50
0
 73
    2
 44
1.54
  0
MTEXT
  5
264
100
AcDbEntity
  8
pin socket
  6
ByLayer
 62
  256
370
   -1
100
AcDbMText
 10
-34.99705065476469
 20
13.70662223096095
 30
0
 40
1
 41
4.111111111111111
 71
    5
 72
    1
  1
PH1-12
  7
iso
210
0
220
0
230
1
 50
0
 73
    2
 44
1.54
  0
MTEXT
  5
265
100
AcDbEntity
  8
condenser
  6
ByLayer
 62
  256
370
   -1
100
AcDbMText
 10
-29.09674240457744
 20
29.56536046441907
 30
0
 40
1
 41
1.000000000000062
 71
    5
 72
    1
  1
C1
  7
iso
210
0
220
0
230
1
 50
0
 73
    2
 44
1.54
  0
MTEXT
  5
266
100
AcDbEntity
  8
pin socket
  6
ByLayer
 62
  256
370
   -1
100
AcDbMText
 10
-23.90556947182673
 20
30.35057989962507
 30
0
 40
1
 41
1.444444232442295
 71
    5
 72
    1
  1
IS1
  7
iso
210
0
220
0
230
1
 50
0
 73
    2
 44
1.54
  0
MTEXT
  5
267
100
AcDbEntity
  8
micon
  6
ByLayer
 62
  256
370
   -1
100
AcDbMText
 10
-21.54991116620876
 20
30.00159348397796
 30
0
 40
1
 41
1.222222222222222
 71
    5
 72
    1
  1
M1
  7
iso
210
0
220
0
230
1
 50
0
 73
    2
 44
1.54
  0
MTEXT
  5
268
100
AcDbEntity
  8
pin socket
  6
ByLayer
 62
  256
370
   -1
100
AcDbMText
 10
-7.939440955971604
 20
28.91101093508075
 30
0
 40
1
 41
2.77777777777784
 71
    5
 72
    1
  1
PH13
  7
iso
210
0
220
0
230
1
 50
0
 73
    2
 44
1.54
  0
MTEXT
  5
269
100
AcDbEntity
  8
pin socket
  6
ByLayer
 62
  256
370
   -1
100
AcDbMText
 10
-8.113934163795157
 20
25.29027687274203
 30
0
 40
1
 41
2.888888888888889
 71
    5
 72
    1
  1
PH14
  7
iso
210
0
220
0
230
1
 50
0
 73
    2
 44
1.54
  0
LINE
  5
26A
100
AcDbEntity
  8
switch
  6
ByLayer
 62
  256
370
   -1
100
AcDbLine
 10
-37.42999999999919
 20
16.87999999999958
 11
-32.42999999999925
 21
16.87999999999958
  0
LINE
  5
26B
100
AcDbEntity
  8
switch
  6
ByLayer
 62
  256
370
   -1
100
AcDbLine
 10
-32.42999999999925
 20
16.87999999999958
 11
-32.42999999999925
 21
14.48000000000008
  0
LINE
  5
26C
100
AcDbEntity
  8
switch
  6
ByLayer
 62
  256
370
   -1
100
AcDbLine
 10
-32.42999999999925
 20
14.48000000000008
 11
-37.42999999999919
 21
14.48000000000008
  0
LINE
  5
26D
100
AcDbEntity
  8
switch
  6
ByLayer
 62
  256
370
   -1
100
AcDbLine
 10
-37.42999999999919
 20
14.48000000000008
 11
-37.42999999999919
 21
16.87999999999958
  0
CIRCLE
  5
26E
100
AcDbEntity
  8
switch
  6
ByLayer
 62
  256
370
   -1
100
AcDbCircle
 10
-36.19999999999941
 20
15.67999999999984
 40
0.4
  0
CIRCLE
  5
26F
100
AcDbEntity
  8
switch
  6
ByLayer
 62
  256
370
   -1
100
AcDbCircle
 10
-33.65999999999951
 20
15.67999999999984
 40
0.4
  0
LINE
  5
270
100
AcDbEntity
  8
switch
  6
ByLayer
 62
  256
370
   -1
100
AcDbLine
 10
-37.42999999999919
 20
19.4199999999996
 11
-32.42999999999925
 21
19.4199999999996
  0
LINE
  5
271
100
AcDbEntity
  8
switch
  6
ByLayer
 62
  256
370
   -1
100
AcDbLine
 10
-32.42999999999925
 20
19.4199999999996
 11
-32.42999999999925
 21
17.0200000000001
  0
LINE
  5
272
100
AcDbEntity
  8
switch
  6
ByLayer
 62
  256
370
   -1
100
AcDbLine
 10
-32.42999999999925
 20
17.0200000000001
 11
-37.42999999999919
 21
17.0200000000001
  0
LINE
  5
273
100
AcDbEntity
  8
switch
  6
ByLayer
 62
  256
370
   -1
100
AcDbLine
 10
-37.42999999999919
 20
17.0200000000001
 11
-37.42999999999919
 21
19.4199999999996
  0
CIRCLE
  5
274
100
AcDbEntity
  8
switch
  6
ByLayer
 62
  256
370
   -1
100
AcDbCircle
 10
-36.19999999999941
 20
18.21999999999986
 40
0.4
  0
CIRCLE
  5
275
100
AcDbEntity
  8
switch
  6
ByLayer
 62
  256
370
   -1
100
AcDbCircle
 10
-33.65999999999951
 20
18.21999999999986
 40
0.4
  0
LINE
  5
276
100
AcDbEntity
  8
switch
  6
ByLayer
 62
  256
370
   -1
100
AcDbLine
 10
-37.42999999999919
 20
21.95999999999962
 11
-32.42999999999925
 21
21.95999999999962
  0
LINE
  5
277
100
AcDbEntity
  8
switch
  6
ByLayer
 62
  256
370
   -1
100
AcDbLine
 10
-32.42999999999925
 20
21.95999999999962
 11
-32.42999999999925
 21
19.56000000000012
  0
LINE
  5
278
100
AcDbEntity
  8
switch
  6
ByLayer
 62
  256
370
   -1
100
AcDbLine
 10
-32.42999999999925
 20
19.56000000000012
 11
-37.42999999999919
 21
19.56000000000012
  0
LINE
  5
279
100
AcDbEntity
  8
switch
  6
ByLayer
 62
  256
370
   -1
100
AcDbLine
 10
-37.42999999999919
 20
19.56000000000012
 11
-37.42999999999919
 21
21.95999999999962
  0
CIRCLE
  5
27A
100
AcDbEntity
  8
switch
  6
ByLayer
 62
  256
370
   -1
100
AcDbCircle
 10
-36.19999999999941
 20
20.75999999999988
 40
0.4
  0
CIRCLE
  5
27B
100
AcDbEntity
  8
switch
  6
ByLayer
 62
  256
370
   -1
100
AcDbCircle
 10
-33.65999999999951
 20
20.75999999999988
 40
0.4
  0
LINE
  5
27C
100
AcDbEntity
  8
switch
  6
ByLayer
 62
  256
370
   -1
100
AcDbLine
 10
-37.42999999999919
 20
24.49999999999964
 11
-32.42999999999925
 21
24.49999999999964
  0
LINE
  5
27D
100
AcDbEntity
  8
switch
  6
ByLayer
 62
  256
370
   -1
100
AcDbLine
 10
-32.42999999999925
 20
24.49999999999964
 11
-32.42999999999925
 21
22.10000000000016
  0
LINE
  5
27E
100
AcDbEntity
  8
switch
  6
ByLayer
 62
  256
370
   -1
100
AcDbLine
 10
-32.42999999999925
 20
22.10000000000016
 11
-37.42999999999919
 21
22.10000000000016
  0
LINE
  5
27F
100
AcDbEntity
  8
switch
  6
ByLayer
 62
  256
370
   -1
100
AcDbLine
 10
-37.42999999999919
 20
22.10000000000016
 11
-37.42999999999919
 21
24.49999999999964
  0
CIRCLE
  5
280
100
AcDbEntity
  8
switch
  6
ByLayer
 62
  256
370
   -1
100
AcDbCircle
 10
-36.19999999999941
 20
23.2999999999999
 40
0.4
  0
CIRCLE
  5
281
100
AcDbEntity
  8
switch
  6
ByLayer
 62
  256
370
   -1
100
AcDbCircle
 10
-33.65999999999951
 20
23.2999999999999
 40
0.4
  0
MTEXT
  5
282
100
AcDbEntity
  8
switch
  6
ByLayer
 62
  256
370
   -1
100
AcDbMText
 10
-35.99462957287791
 20
25.23401270405088
 30
0
 40
1
 41
2.555555555555618
 71
    5
 72
    1
  1
J1-4
  7
iso
210
0
220
0
230
1
 50
0
 73
    2
 44
1.54
  0
LINE
  5
283
100
AcDbEntity
  8
switch
  6
ByLayer
 62
  256
370
   -1
100
AcDbLine
 10
-12.63000000000094
 20
18.77999999999987
 11
-12.63000000000094
 21
12.57999999999979
  0
LINE
  5
284
100
AcDbEntity
  8
switch
  6
ByLayer
 62
  256
370
   -1
100
AcDbLine
 10
-12.63000000000094
 20
12.57999999999979
 11
-6.430000000000742
 21
12.57999999999979
  0
LINE
  5
285
100
AcDbEntity
  8
switch
  6
ByLayer
 62
  256
370
   -1
100
AcDbLine
 10
-6.430000000000742
 20
12.57999999999979
 11
-6.430000000000742
 21
18.77999999999987
  0
LINE
  5
286
100
AcDbEntity
  8
switch
  6
ByLayer
 62
  256
370
   -1
100
AcDbLine
 10
-6.430000000000742
 20
18.77999999999987
 11
-12.63000000000094
 21
18.77999999999987
  0
LINE
  5
287
100
AcDbEntity
  8
switch
  6
ByLayer
 62
  256
370
   -1
100
AcDbLine
 10
-5.720000000000738
 20
18.21999999999988
 11
-13.34000000000044
 21
18.21999999999989
  0
LINE
  5
288
100
AcDbEntity
  8
switch
  6
ByLayer
 62
  256
370
   -1
100
AcDbLine
 10
-13.34000000000043
 20
13.13999999999986
 11
-5.720000000000719
 21
13.13999999999984
  0
CIRCLE
  5
289
100
AcDbEntity
  8
switch
  6
ByLayer
 62
  256
370
   -1
100
AcDbCircle
 10
-9.530000000000843
 20
15.67999999999984
 40
1.75
  0
MTEXT
  5
28A
100
AcDbEntity
  8
switch
  6
ByLayer
 62
  256
370
   -1
100
AcDbMText
 10
-9.597126430295349
 20
15.72692525784399
 30
0
 40
1
 41
2.333333121331184
 71
    5
 72
    1
  1
SW1
  7
iso
210
0
220
0
230
1
 50
0
 73
    2
 44
1.54
  0
LINE
  5
28B
100
AcDbEntity
  8
pin socket
  6
ByLayer
 62
  256
370
   -1
100
AcDbLine
 10
-9.53000000000095
 20
22.03000000000009
 11
-6.990000000000531
 21
22.03000000000009
  0
LINE
  5
28C
100
AcDbEntity
  8
4_GND
  6
ByLayer
 62
  256
370
   -1
100
AcDbLine
 10
-5.720000000000839
 20
30.92000000000001
 11
-5.720000000000802
 21
18.21999999999988
  0
MTEXT
  5
28D
100
AcDbEntity
  8
switch
  6
ByLayer
 62
  256
370
   -1
100
AcDbMText
 10
-61.97061818121782
 20
20.88677657999562
 30
0
 40
1
 41
23.63888991746353
 71
    4
 72
    1
  1
C1    : Condense, 0.1uF\PIS1   : IC socket, 4x2 pins\PJ1-4  : Jumper\PM1    : PIC12F1840\PPH1-14: Pin Header, Total 14 pins\PRJ1,2 : Jumper Register 0ohm\PSW1   : Push Switch\PUB1   : Universal Board, 8x13 pins\PXH1   : XH Header, 2 pins\P
  7
iso
210
0
220
0
230
1
 50
0
 73
    2
 44
1.54
  0
CIRCLE
  5
28E
100
AcDbEntity
  8
resister
  6
ByLayer
 62
  256
370
   -1
100
AcDbCircle
 10
-10.80000000000062
 20
30.92000000000094
 40
0.25
  0
CIRCLE
  5
28F
100
AcDbEntity
  8
universal board
  6
ByLayer
 62
  256
370
   -1
100
AcDbCircle
 10
-23.50000000000008
 20
61.40000000000021
 40
0.5
  0
CIRCLE
  5
290
100
AcDbEntity
  8
universal board
  6
ByLayer
 62
  256
370
   -1
100
AcDbCircle
 10
-26.03999999999997
 20
61.40000000000021
 40
0.5
  0
CIRCLE
  5
291
100
AcDbEntity
  8
universal board
  6
ByLayer
 62
  256
370
   -1
100
AcDbCircle
 10
-28.57999999999986
 20
61.40000000000021
 40
0.5
  0
CIRCLE
  5
292
100
AcDbEntity
  8
universal board
  6
ByLayer
 62
  256
370
   -1
100
AcDbCircle
 10
-31.11999999999976
 20
61.40000000000021
 40
0.5
  0
CIRCLE
  5
293
100
AcDbEntity
  8
universal board
  6
ByLayer
 62
  256
370
   -1
100
AcDbCircle
 10
-33.65999999999965
 20
61.40000000000021
 40
0.5
  0
CIRCLE
  5
294
100
AcDbEntity
  8
universal board
  6
ByLayer
 62
  256
370
   -1
100
AcDbCircle
 10
-36.19999999999954
 20
61.40000000000021
 40
0.5
  0
CIRCLE
  5
295
100
AcDbEntity
  8
universal board
  6
ByLayer
 62
  256
370
   -1
100
AcDbCircle
 10
-38.73999999999943
 20
61.40000000000021
 40
0.5
  0
CIRCLE
  5
296
100
AcDbEntity
  8
universal board
  6
ByLayer
 62
  256
370
   -1
100
AcDbCircle
 10
-41.27999999999933
 20
61.40000000000021
 40
0.5
  0
CIRCLE
  5
297
100
AcDbEntity
  8
universal board
  6
ByLayer
 62
  256
370
   -1
100
AcDbCircle
 10
-20.9600000000002
 20
61.40000000000021
 40
0.5
  0
CIRCLE
  5
298
100
AcDbEntity
  8
universal board
  6
ByLayer
 62
  256
370
   -1
100
AcDbCircle
 10
-18.42000000000032
 20
61.40000000000022
 40
0.5
  0
CIRCLE
  5
299
100
AcDbEntity
  8
universal board
  6
ByLayer
 62
  256
370
   -1
100
AcDbCircle
 10
-15.88000000000044
 20
61.40000000000023
 40
0.5
  0
CIRCLE
  5
29A
100
AcDbEntity
  8
universal board
  6
ByLayer
 62
  256
370
   -1
100
AcDbCircle
 10
-13.34000000000056
 20
61.40000000000023
 40
0.5
  0
CIRCLE
  5
29B
100
AcDbEntity
  8
universal board
  6
ByLayer
 62
  256
370
   -1
100
AcDbCircle
 10
-10.80000000000069
 20
61.40000000000024
 40
0.5
  0
CIRCLE
  5
29C
100
AcDbEntity
  8
universal board
  6
ByLayer
 62
  256
370
   -1
100
AcDbCircle
 10
-8.260000000000812
 20
61.40000000000025
 40
0.5
  0
CIRCLE
  5
29D
100
AcDbEntity
  8
universal board
  6
ByLayer
 62
  256
370
   -1
100
AcDbCircle
 10
-5.72000000000093
 20
61.40000000000025
 40
0.5
  0
CIRCLE
  5
29E
100
AcDbEntity
  8
universal board
  6
ByLayer
 62
  256
370
   -1
100
AcDbCircle
 10
-3.18000000000098
 20
61.40000000000023
 40
0.5
  0
CIRCLE
  5
29F
100
AcDbEntity
  8
universal board
  6
ByLayer
 62
  256
370
   -1
100
AcDbCircle
 10
-0.6400000000011001
 20
61.40000000000023
 40
0.5
  0
CIRCLE
  5
2A0
100
AcDbEntity
  8
universal board
  6
ByLayer
 62
  256
370
   -1
100
AcDbCircle
 10
1.899999999998769
 20
61.40000000000024
 40
0.5
  0
CIRCLE
  5
2A1
100
AcDbEntity
  8
universal board
  6
ByLayer
 62
  256
370
   -1
100
AcDbCircle
 10
4.439999999998648
 20
61.40000000000025
 40
0.5
  0
CIRCLE
  5
2A2
100
AcDbEntity
  8
universal board
  6
ByLayer
 62
  256
370
   -1
100
AcDbCircle
 10
6.97999999999853
 20
61.40000000000025
 40
0.5
  0
CIRCLE
  5
2A3
100
AcDbEntity
  8
universal board
  6
ByLayer
 62
  256
370
   -1
100
AcDbCircle
 10
9.519999999998422
 20
61.40000000000025
 40
0.5
  0
CIRCLE
  5
2A4
100
AcDbEntity
  8
universal board
  6
ByLayer
 62
  256
370
   -1
100
AcDbCircle
 10
12.05999999999831
 20
61.40000000000025
 40
0.5
  0
CIRCLE
  5
2A5
100
AcDbEntity
  8
universal board
  6
ByLayer
 62
  256
370
   -1
100
AcDbCircle
 10
14.59999999999821
 20
61.40000000000025
 40
0.5
  0
CIRCLE
  5
2A6
100
AcDbEntity
  8
universal board
  6
ByLayer
 62
  256
370
   -1
100
AcDbCircle
 10
17.1399999999981
 20
61.40000000000025
 40
0.5
  0
CIRCLE
  5
2A7
100
AcDbEntity
  8
universal board
  6
ByLayer
 62
  256
370
   -1
100
AcDbCircle
 10
19.67999999999799
 20
61.40000000000025
 40
0.5
  0
CIRCLE
  5
2A8
100
AcDbEntity
  8
universal board
  6
ByLayer
 62
  256
370
   -1
100
AcDbCircle
 10
22.21999999999788
 20
61.40000000000025
 40
0.5
  0
CIRCLE
  5
2A9
100
AcDbEntity
  8
universal board
  6
ByLayer
 62
  256
370
   -1
100
AcDbCircle
 10
24.75999999999778
 20
61.40000000000025
 40
0.5
  0
CIRCLE
  5
2AA
100
AcDbEntity
  8
universal board
  6
ByLayer
 62
  256
370
   -1
100
AcDbCircle
 10
27.29999999999767
 20
61.40000000000025
 40
0.5
  0
CIRCLE
  5
2AB
100
AcDbEntity
  8
universal board
  6
ByLayer
 62
  256
370
   -1
100
AcDbCircle
 10
29.83999999999756
 20
61.40000000000025
 40
0.5
  0
CIRCLE
  5
2AC
100
AcDbEntity
  8
universal board
  6
ByLayer
 62
  256
370
   -1
100
AcDbCircle
 10
32.37999999999745
 20
61.40000000000025
 40
0.5
  0
CIRCLE
  5
2AD
100
AcDbEntity
  8
universal board
  6
ByLayer
 62
  256
370
   -1
100
AcDbCircle
 10
-23.50000000000008
 20
58.86000000000019
 40
0.5
  0
CIRCLE
  5
2AE
100
AcDbEntity
  8
universal board
  6
ByLayer
 62
  256
370
   -1
100
AcDbCircle
 10
-26.03999999999997
 20
58.86000000000019
 40
0.5
  0
CIRCLE
  5
2AF
100
AcDbEntity
  8
universal board
  6
ByLayer
 62
  256
370
   -1
100
AcDbCircle
 10
-28.57999999999986
 20
58.86000000000019
 40
0.5
  0
CIRCLE
  5
2B0
100
AcDbEntity
  8
universal board
  6
ByLayer
 62
  256
370
   -1
100
AcDbCircle
 10
-31.11999999999976
 20
58.86000000000019
 40
0.5
  0
CIRCLE
  5
2B1
100
AcDbEntity
  8
universal board
  6
ByLayer
 62
  256
370
   -1
100
AcDbCircle
 10
-33.65999999999965
 20
58.86000000000019
 40
0.5
  0
CIRCLE
  5
2B2
100
AcDbEntity
  8
universal board
  6
ByLayer
 62
  256
370
   -1
100
AcDbCircle
 10
-36.19999999999954
 20
58.86000000000019
 40
0.5
  0
CIRCLE
  5
2B3
100
AcDbEntity
  8
universal board
  6
ByLayer
 62
  256
370
   -1
100
AcDbCircle
 10
-38.73999999999943
 20
58.86000000000019
 40
0.5
  0
CIRCLE
  5
2B4
100
AcDbEntity
  8
universal board
  6
ByLayer
 62
  256
370
   -1
100
AcDbCircle
 10
-41.27999999999933
 20
58.86000000000019
 40
0.5
  0
CIRCLE
  5
2B5
100
AcDbEntity
  8
universal board
  6
ByLayer
 62
  256
370
   -1
100
AcDbCircle
 10
-20.9600000000002
 20
58.86000000000019
 40
0.5
  0
CIRCLE
  5
2B6
100
AcDbEntity
  8
universal board
  6
ByLayer
 62
  256
370
   -1
100
AcDbCircle
 10
-18.42000000000032
 20
58.8600000000002
 40
0.5
  0
CIRCLE
  5
2B7
100
AcDbEntity
  8
universal board
  6
ByLayer
 62
  256
370
   -1
100
AcDbCircle
 10
-15.88000000000044
 20
58.86000000000021
 40
0.5
  0
CIRCLE
  5
2B8
100
AcDbEntity
  8
universal board
  6
ByLayer
 62
  256
370
   -1
100
AcDbCircle
 10
-13.34000000000056
 20
58.86000000000021
 40
0.5
  0
CIRCLE
  5
2B9
100
AcDbEntity
  8
universal board
  6
ByLayer
 62
  256
370
   -1
100
AcDbCircle
 10
-10.80000000000069
 20
58.86000000000022
 40
0.5
  0
CIRCLE
  5
2BA
100
AcDbEntity
  8
universal board
  6
ByLayer
 62
  256
370
   -1
100
AcDbCircle
 10
-8.260000000000812
 20
58.86000000000023
 40
0.5
  0
CIRCLE
  5
2BB
100
AcDbEntity
  8
universal board
  6
ByLayer
 62
  256
370
   -1
100
AcDbCircle
 10
-5.72000000000093
 20
58.86000000000023
 40
0.5
  0
CIRCLE
  5
2BC
100
AcDbEntity
  8
universal board
  6
ByLayer
 62
  256
370
   -1
100
AcDbCircle
 10
-3.18000000000098
 20
58.86000000000021
 40
0.5
  0
CIRCLE
  5
2BD
100
AcDbEntity
  8
universal board
  6
ByLayer
 62
  256
370
   -1
100
AcDbCircle
 10
-0.6400000000011001
 20
58.86000000000021
 40
0.5
  0
CIRCLE
  5
2BE
100
AcDbEntity
  8
universal board
  6
ByLayer
 62
  256
370
   -1
100
AcDbCircle
 10
1.899999999998769
 20
58.86000000000022
 40
0.5
  0
CIRCLE
  5
2BF
100
AcDbEntity
  8
universal board
  6
ByLayer
 62
  256
370
   -1
100
AcDbCircle
 10
4.439999999998648
 20
58.86000000000023
 40
0.5
  0
CIRCLE
  5
2C0
100
AcDbEntity
  8
universal board
  6
ByLayer
 62
  256
370
   -1
100
AcDbCircle
 10
6.97999999999853
 20
58.86000000000023
 40
0.5
  0
CIRCLE
  5
2C1
100
AcDbEntity
  8
universal board
  6
ByLayer
 62
  256
370
   -1
100
AcDbCircle
 10
9.519999999998422
 20
58.86000000000023
 40
0.5
  0
CIRCLE
  5
2C2
100
AcDbEntity
  8
universal board
  6
ByLayer
 62
  256
370
   -1
100
AcDbCircle
 10
12.05999999999831
 20
58.86000000000023
 40
0.5
  0
CIRCLE
  5
2C3
100
AcDbEntity
  8
universal board
  6
ByLayer
 62
  256
370
   -1
100
AcDbCircle
 10
14.59999999999821
 20
58.86000000000023
 40
0.5
  0
CIRCLE
  5
2C4
100
AcDbEntity
  8
universal board
  6
ByLayer
 62
  256
370
   -1
100
AcDbCircle
 10
17.1399999999981
 20
58.86000000000023
 40
0.5
  0
CIRCLE
  5
2C5
100
AcDbEntity
  8
universal board
  6
ByLayer
 62
  256
370
   -1
100
AcDbCircle
 10
19.67999999999799
 20
58.86000000000023
 40
0.5
  0
CIRCLE
  5
2C6
100
AcDbEntity
  8
universal board
  6
ByLayer
 62
  256
370
   -1
100
AcDbCircle
 10
22.21999999999788
 20
58.86000000000023
 40
0.5
  0
CIRCLE
  5
2C7
100
AcDbEntity
  8
universal board
  6
ByLayer
 62
  256
370
   -1
100
AcDbCircle
 10
24.75999999999778
 20
58.86000000000023
 40
0.5
  0
CIRCLE
  5
2C8
100
AcDbEntity
  8
universal board
  6
ByLayer
 62
  256
370
   -1
100
AcDbCircle
 10
27.29999999999767
 20
58.86000000000023
 40
0.5
  0
CIRCLE
  5
2C9
100
AcDbEntity
  8
universal board
  6
ByLayer
 62
  256
370
   -1
100
AcDbCircle
 10
29.83999999999756
 20
58.86000000000023
 40
0.5
  0
CIRCLE
  5
2CA
100
AcDbEntity
  8
universal board
  6
ByLayer
 62
  256
370
   -1
100
AcDbCircle
 10
32.37999999999745
 20
58.86000000000023
 40
0.5
  0
CIRCLE
  5
2CB
100
AcDbEntity
  8
universal board
  6
ByLayer
 62
  256
370
   -1
100
AcDbCircle
 10
-23.50000000000008
 20
56.32000000000017
 40
0.5
  0
CIRCLE
  5
2CC
100
AcDbEntity
  8
universal board
  6
ByLayer
 62
  256
370
   -1
100
AcDbCircle
 10
-26.03999999999997
 20
56.32000000000017
 40
0.5
  0
CIRCLE
  5
2CD
100
AcDbEntity
  8
universal board
  6
ByLayer
 62
  256
370
   -1
100
AcDbCircle
 10
-28.57999999999986
 20
56.32000000000017
 40
0.5
  0
CIRCLE
  5
2CE
100
AcDbEntity
  8
universal board
  6
ByLayer
 62
  256
370
   -1
100
AcDbCircle
 10
-31.11999999999976
 20
56.32000000000017
 40
0.5
  0
CIRCLE
  5
2CF
100
AcDbEntity
  8
universal board
  6
ByLayer
 62
  256
370
   -1
100
AcDbCircle
 10
-33.65999999999965
 20
56.32000000000017
 40
0.5
  0
CIRCLE
  5
2D0
100
AcDbEntity
  8
universal board
  6
ByLayer
 62
  256
370
   -1
100
AcDbCircle
 10
-36.19999999999954
 20
56.32000000000017
 40
0.5
  0
CIRCLE
  5
2D1
100
AcDbEntity
  8
universal board
  6
ByLayer
 62
  256
370
   -1
100
AcDbCircle
 10
-38.73999999999943
 20
56.32000000000017
 40
0.5
  0
CIRCLE
  5
2D2
100
AcDbEntity
  8
universal board
  6
ByLayer
 62
  256
370
   -1
100
AcDbCircle
 10
-41.27999999999933
 20
56.32000000000017
 40
0.5
  0
CIRCLE
  5
2D3
100
AcDbEntity
  8
universal board
  6
ByLayer
 62
  256
370
   -1
100
AcDbCircle
 10
-20.9600000000002
 20
56.32000000000017
 40
0.5
  0
CIRCLE
  5
2D4
100
AcDbEntity
  8
universal board
  6
ByLayer
 62
  256
370
   -1
100
AcDbCircle
 10
-18.42000000000032
 20
56.32000000000018
 40
0.5
  0
CIRCLE
  5
2D5
100
AcDbEntity
  8
universal board
  6
ByLayer
 62
  256
370
   -1
100
AcDbCircle
 10
-15.88000000000044
 20
56.32000000000019
 40
0.5
  0
CIRCLE
  5
2D6
100
AcDbEntity
  8
universal board
  6
ByLayer
 62
  256
370
   -1
100
AcDbCircle
 10
-13.34000000000056
 20
56.32000000000019
 40
0.5
  0
CIRCLE
  5
2D7
100
AcDbEntity
  8
universal board
  6
ByLayer
 62
  256
370
   -1
100
AcDbCircle
 10
-10.80000000000069
 20
56.3200000000002
 40
0.5
  0
CIRCLE
  5
2D8
100
AcDbEntity
  8
universal board
  6
ByLayer
 62
  256
370
   -1
100
AcDbCircle
 10
-8.260000000000812
 20
56.32000000000021
 40
0.5
  0
CIRCLE
  5
2D9
100
AcDbEntity
  8
universal board
  6
ByLayer
 62
  256
370
   -1
100
AcDbCircle
 10
-5.72000000000093
 20
56.32000000000021
 40
0.5
  0
CIRCLE
  5
2DA
100
AcDbEntity
  8
universal board
  6
ByLayer
 62
  256
370
   -1
100
AcDbCircle
 10
-3.18000000000098
 20
56.32000000000019
 40
0.5
  0
CIRCLE
  5
2DB
100
AcDbEntity
  8
universal board
  6
ByLayer
 62
  256
370
   -1
100
AcDbCircle
 10
-0.6400000000011001
 20
56.32000000000019
 40
0.5
  0
CIRCLE
  5
2DC
100
AcDbEntity
  8
universal board
  6
ByLayer
 62
  256
370
   -1
100
AcDbCircle
 10
1.899999999998769
 20
56.3200000000002
 40
0.5
  0
CIRCLE
  5
2DD
100
AcDbEntity
  8
universal board
  6
ByLayer
 62
  256
370
   -1
100
AcDbCircle
 10
4.439999999998648
 20
56.32000000000021
 40
0.5
  0
CIRCLE
  5
2DE
100
AcDbEntity
  8
universal board
  6
ByLayer
 62
  256
370
   -1
100
AcDbCircle
 10
6.97999999999853
 20
56.32000000000021
 40
0.5
  0
CIRCLE
  5
2DF
100
AcDbEntity
  8
universal board
  6
ByLayer
 62
  256
370
   -1
100
AcDbCircle
 10
9.519999999998422
 20
56.32000000000021
 40
0.5
  0
CIRCLE
  5
2E0
100
AcDbEntity
  8
universal board
  6
ByLayer
 62
  256
370
   -1
100
AcDbCircle
 10
12.05999999999831
 20
56.32000000000021
 40
0.5
  0
CIRCLE
  5
2E1
100
AcDbEntity
  8
universal board
  6
ByLayer
 62
  256
370
   -1
100
AcDbCircle
 10
14.59999999999821
 20
56.32000000000021
 40
0.5
  0
CIRCLE
  5
2E2
100
AcDbEntity
  8
universal board
  6
ByLayer
 62
  256
370
   -1
100
AcDbCircle
 10
17.1399999999981
 20
56.32000000000021
 40
0.5
  0
CIRCLE
  5
2E3
100
AcDbEntity
  8
universal board
  6
ByLayer
 62
  256
370
   -1
100
AcDbCircle
 10
19.67999999999799
 20
56.32000000000021
 40
0.5
  0
CIRCLE
  5
2E4
100
AcDbEntity
  8
universal board
  6
ByLayer
 62
  256
370
   -1
100
AcDbCircle
 10
22.21999999999788
 20
56.32000000000021
 40
0.5
  0
CIRCLE
  5
2E5
100
AcDbEntity
  8
universal board
  6
ByLayer
 62
  256
370
   -1
100
AcDbCircle
 10
24.75999999999778
 20
56.32000000000021
 40
0.5
  0
CIRCLE
  5
2E6
100
AcDbEntity
  8
universal board
  6
ByLayer
 62
  256
370
   -1
100
AcDbCircle
 10
27.29999999999767
 20
56.32000000000021
 40
0.5
  0
CIRCLE
  5
2E7
100
AcDbEntity
  8
universal board
  6
ByLayer
 62
  256
370
   -1
100
AcDbCircle
 10
29.83999999999756
 20
56.32000000000021
 40
0.5
  0
CIRCLE
  5
2E8
100
AcDbEntity
  8
universal board
  6
ByLayer
 62
  256
370
   -1
100
AcDbCircle
 10
32.37999999999745
 20
56.32000000000021
 40
0.5
  0
CIRCLE
  5
2E9
100
AcDbEntity
  8
universal board
  6
ByLayer
 62
  256
370
   -1
100
AcDbCircle
 10
-23.50000000000008
 20
53.78000000000015
 40
0.5
  0
CIRCLE
  5
2EA
100
AcDbEntity
  8
universal board
  6
ByLayer
 62
  256
370
   -1
100
AcDbCircle
 10
-26.03999999999997
 20
53.78000000000015
 40
0.5
  0
CIRCLE
  5
2EB
100
AcDbEntity
  8
universal board
  6
ByLayer
 62
  256
370
   -1
100
AcDbCircle
 10
-28.57999999999986
 20
53.78000000000015
 40
0.5
  0
CIRCLE
  5
2EC
100
AcDbEntity
  8
universal board
  6
ByLayer
 62
  256
370
   -1
100
AcDbCircle
 10
-31.11999999999976
 20
53.78000000000015
 40
0.5
  0
CIRCLE
  5
2ED
100
AcDbEntity
  8
universal board
  6
ByLayer
 62
  256
370
   -1
100
AcDbCircle
 10
-33.65999999999965
 20
53.78000000000015
 40
0.5
  0
CIRCLE
  5
2EE
100
AcDbEntity
  8
universal board
  6
ByLayer
 62
  256
370
   -1
100
AcDbCircle
 10
-36.19999999999954
 20
53.78000000000015
 40
0.5
  0
CIRCLE
  5
2EF
100
AcDbEntity
  8
universal board
  6
ByLayer
 62
  256
370
   -1
100
AcDbCircle
 10
-38.73999999999943
 20
53.78000000000015
 40
0.5
  0
CIRCLE
  5
2F0
100
AcDbEntity
  8
universal board
  6
ByLayer
 62
  256
370
   -1
100
AcDbCircle
 10
-41.27999999999933
 20
53.78000000000015
 40
0.5
  0
CIRCLE
  5
2F1
100
AcDbEntity
  8
universal board
  6
ByLayer
 62
  256
370
   -1
100
AcDbCircle
 10
-20.9600000000002
 20
53.78000000000015
 40
0.5
  0
CIRCLE
  5
2F2
100
AcDbEntity
  8
universal board
  6
ByLayer
 62
  256
370
   -1
100
AcDbCircle
 10
-18.42000000000032
 20
53.78000000000016
 40
0.5
  0
CIRCLE
  5
2F3
100
AcDbEntity
  8
universal board
  6
ByLayer
 62
  256
370
   -1
100
AcDbCircle
 10
-15.88000000000044
 20
53.78000000000017
 40
0.5
  0
CIRCLE
  5
2F4
100
AcDbEntity
  8
universal board
  6
ByLayer
 62
  256
370
   -1
100
AcDbCircle
 10
-13.34000000000056
 20
53.78000000000017
 40
0.5
  0
CIRCLE
  5
2F5
100
AcDbEntity
  8
universal board
  6
ByLayer
 62
  256
370
   -1
100
AcDbCircle
 10
-10.80000000000069
 20
53.78000000000018
 40
0.5
  0
CIRCLE
  5
2F6
100
AcDbEntity
  8
universal board
  6
ByLayer
 62
  256
370
   -1
100
AcDbCircle
 10
-8.260000000000812
 20
53.78000000000019
 40
0.5
  0
CIRCLE
  5
2F7
100
AcDbEntity
  8
universal board
  6
ByLayer
 62
  256
370
   -1
100
AcDbCircle
 10
-5.72000000000093
 20
53.78000000000019
 40
0.5
  0
CIRCLE
  5
2F8
100
AcDbEntity
  8
universal board
  6
ByLayer
 62
  256
370
   -1
100
AcDbCircle
 10
-3.18000000000098
 20
53.78000000000017
 40
0.5
  0
CIRCLE
  5
2F9
100
AcDbEntity
  8
universal board
  6
ByLayer
 62
  256
370
   -1
100
AcDbCircle
 10
-0.6400000000011001
 20
53.78000000000017
 40
0.5
  0
CIRCLE
  5
2FA
100
AcDbEntity
  8
universal board
  6
ByLayer
 62
  256
370
   -1
100
AcDbCircle
 10
1.899999999998769
 20
53.78000000000018
 40
0.5
  0
CIRCLE
  5
2FB
100
AcDbEntity
  8
universal board
  6
ByLayer
 62
  256
370
   -1
100
AcDbCircle
 10
4.439999999998648
 20
53.78000000000019
 40
0.5
  0
CIRCLE
  5
2FC
100
AcDbEntity
  8
universal board
  6
ByLayer
 62
  256
370
   -1
100
AcDbCircle
 10
6.97999999999853
 20
53.78000000000019
 40
0.5
  0
CIRCLE
  5
2FD
100
AcDbEntity
  8
universal board
  6
ByLayer
 62
  256
370
   -1
100
AcDbCircle
 10
9.519999999998422
 20
53.78000000000019
 40
0.5
  0
CIRCLE
  5
2FE
100
AcDbEntity
  8
universal board
  6
ByLayer
 62
  256
370
   -1
100
AcDbCircle
 10
12.05999999999831
 20
53.78000000000019
 40
0.5
  0
CIRCLE
  5
2FF
100
AcDbEntity
  8
universal board
  6
ByLayer
 62
  256
370
   -1
100
AcDbCircle
 10
14.59999999999821
 20
53.78000000000019
 40
0.5
  0
CIRCLE
  5
300
100
AcDbEntity
  8
universal board
  6
ByLayer
 62
  256
370
   -1
100
AcDbCircle
 10
17.1399999999981
 20
53.78000000000019
 40
0.5
  0
CIRCLE
  5
301
100
AcDbEntity
  8
universal board
  6
ByLayer
 62
  256
370
   -1
100
AcDbCircle
 10
19.67999999999799
 20
53.78000000000019
 40
0.5
  0
CIRCLE
  5
302
100
AcDbEntity
  8
universal board
  6
ByLayer
 62
  256
370
   -1
100
AcDbCircle
 10
22.21999999999788
 20
53.78000000000019
 40
0.5
  0
CIRCLE
  5
303
100
AcDbEntity
  8
universal board
  6
ByLayer
 62
  256
370
   -1
100
AcDbCircle
 10
24.75999999999778
 20
53.78000000000019
 40
0.5
  0
CIRCLE
  5
304
100
AcDbEntity
  8
universal board
  6
ByLayer
 62
  256
370
   -1
100
AcDbCircle
 10
27.29999999999767
 20
53.78000000000019
 40
0.5
  0
CIRCLE
  5
305
100
AcDbEntity
  8
universal board
  6
ByLayer
 62
  256
370
   -1
100
AcDbCircle
 10
29.83999999999756
 20
53.78000000000019
 40
0.5
  0
CIRCLE
  5
306
100
AcDbEntity
  8
universal board
  6
ByLayer
 62
  256
370
   -1
100
AcDbCircle
 10
32.37999999999745
 20
53.78000000000019
 40
0.5
  0
CIRCLE
  5
307
100
AcDbEntity
  8
universal board
  6
ByLayer
 62
  256
370
   -1
100
AcDbCircle
 10
-23.50000000000008
 20
51.24000000000013
 40
0.5
  0
CIRCLE
  5
308
100
AcDbEntity
  8
universal board
  6
ByLayer
 62
  256
370
   -1
100
AcDbCircle
 10
-26.03999999999997
 20
51.24000000000013
 40
0.5
  0
CIRCLE
  5
309
100
AcDbEntity
  8
universal board
  6
ByLayer
 62
  256
370
   -1
100
AcDbCircle
 10
-28.57999999999986
 20
51.24000000000013
 40
0.5
  0
CIRCLE
  5
30A
100
AcDbEntity
  8
universal board
  6
ByLayer
 62
  256
370
   -1
100
AcDbCircle
 10
-31.11999999999976
 20
51.24000000000013
 40
0.5
  0
CIRCLE
  5
30B
100
AcDbEntity
  8
universal board
  6
ByLayer
 62
  256
370
   -1
100
AcDbCircle
 10
-33.65999999999965
 20
51.24000000000013
 40
0.5
  0
CIRCLE
  5
30C
100
AcDbEntity
  8
universal board
  6
ByLayer
 62
  256
370
   -1
100
AcDbCircle
 10
-36.19999999999954
 20
51.24000000000013
 40
0.5
  0
CIRCLE
  5
30D
100
AcDbEntity
  8
universal board
  6
ByLayer
 62
  256
370
   -1
100
AcDbCircle
 10
-38.73999999999943
 20
51.24000000000013
 40
0.5
  0
CIRCLE
  5
30E
100
AcDbEntity
  8
universal board
  6
ByLayer
 62
  256
370
   -1
100
AcDbCircle
 10
-41.27999999999933
 20
51.24000000000013
 40
0.5
  0
CIRCLE
  5
30F
100
AcDbEntity
  8
universal board
  6
ByLayer
 62
  256
370
   -1
100
AcDbCircle
 10
-20.9600000000002
 20
51.24000000000013
 40
0.5
  0
CIRCLE
  5
310
100
AcDbEntity
  8
universal board
  6
ByLayer
 62
  256
370
   -1
100
AcDbCircle
 10
-18.42000000000032
 20
51.24000000000014
 40
0.5
  0
CIRCLE
  5
311
100
AcDbEntity
  8
universal board
  6
ByLayer
 62
  256
370
   -1
100
AcDbCircle
 10
-15.88000000000044
 20
51.24000000000015
 40
0.5
  0
CIRCLE
  5
312
100
AcDbEntity
  8
universal board
  6
ByLayer
 62
  256
370
   -1
100
AcDbCircle
 10
-13.34000000000056
 20
51.24000000000015
 40
0.5
  0
CIRCLE
  5
313
100
AcDbEntity
  8
universal board
  6
ByLayer
 62
  256
370
   -1
100
AcDbCircle
 10
-10.80000000000069
 20
51.24000000000016
 40
0.5
  0
CIRCLE
  5
314
100
AcDbEntity
  8
universal board
  6
ByLayer
 62
  256
370
   -1
100
AcDbCircle
 10
-8.260000000000812
 20
51.24000000000017
 40
0.5
  0
CIRCLE
  5
315
100
AcDbEntity
  8
universal board
  6
ByLayer
 62
  256
370
   -1
100
AcDbCircle
 10
-5.72000000000093
 20
51.24000000000017
 40
0.5
  0
CIRCLE
  5
316
100
AcDbEntity
  8
universal board
  6
ByLayer
 62
  256
370
   -1
100
AcDbCircle
 10
-3.18000000000098
 20
51.24000000000015
 40
0.5
  0
CIRCLE
  5
317
100
AcDbEntity
  8
universal board
  6
ByLayer
 62
  256
370
   -1
100
AcDbCircle
 10
-0.6400000000011001
 20
51.24000000000015
 40
0.5
  0
CIRCLE
  5
318
100
AcDbEntity
  8
universal board
  6
ByLayer
 62
  256
370
   -1
100
AcDbCircle
 10
1.899999999998769
 20
51.24000000000016
 40
0.5
  0
CIRCLE
  5
319
100
AcDbEntity
  8
universal board
  6
ByLayer
 62
  256
370
   -1
100
AcDbCircle
 10
4.439999999998648
 20
51.24000000000017
 40
0.5
  0
CIRCLE
  5
31A
100
AcDbEntity
  8
universal board
  6
ByLayer
 62
  256
370
   -1
100
AcDbCircle
 10
6.97999999999853
 20
51.24000000000017
 40
0.5
  0
CIRCLE
  5
31B
100
AcDbEntity
  8
universal board
  6
ByLayer
 62
  256
370
   -1
100
AcDbCircle
 10
9.519999999998422
 20
51.24000000000017
 40
0.5
  0
CIRCLE
  5
31C
100
AcDbEntity
  8
universal board
  6
ByLayer
 62
  256
370
   -1
100
AcDbCircle
 10
12.05999999999831
 20
51.24000000000017
 40
0.5
  0
CIRCLE
  5
31D
100
AcDbEntity
  8
universal board
  6
ByLayer
 62
  256
370
   -1
100
AcDbCircle
 10
14.59999999999821
 20
51.24000000000017
 40
0.5
  0
CIRCLE
  5
31E
100
AcDbEntity
  8
universal board
  6
ByLayer
 62
  256
370
   -1
100
AcDbCircle
 10
17.1399999999981
 20
51.24000000000017
 40
0.5
  0
CIRCLE
  5
31F
100
AcDbEntity
  8
universal board
  6
ByLayer
 62
  256
370
   -1
100
AcDbCircle
 10
19.67999999999799
 20
51.24000000000017
 40
0.5
  0
CIRCLE
  5
320
100
AcDbEntity
  8
universal board
  6
ByLayer
 62
  256
370
   -1
100
AcDbCircle
 10
22.21999999999788
 20
51.24000000000017
 40
0.5
  0
CIRCLE
  5
321
100
AcDbEntity
  8
universal board
  6
ByLayer
 62
  256
370
   -1
100
AcDbCircle
 10
24.75999999999778
 20
51.24000000000017
 40
0.5
  0
CIRCLE
  5
322
100
AcDbEntity
  8
universal board
  6
ByLayer
 62
  256
370
   -1
100
AcDbCircle
 10
27.29999999999767
 20
51.24000000000017
 40
0.5
  0
CIRCLE
  5
323
100
AcDbEntity
  8
universal board
  6
ByLayer
 62
  256
370
   -1
100
AcDbCircle
 10
29.83999999999756
 20
51.24000000000017
 40
0.5
  0
CIRCLE
  5
324
100
AcDbEntity
  8
universal board
  6
ByLayer
 62
  256
370
   -1
100
AcDbCircle
 10
32.37999999999745
 20
51.24000000000017
 40
0.5
  0
CIRCLE
  5
325
100
AcDbEntity
  8
universal board
  6
ByLayer
 62
  256
370
   -1
100
AcDbCircle
 10
-23.50000000000008
 20
48.70000000000011
 40
0.5
  0
CIRCLE
  5
326
100
AcDbEntity
  8
universal board
  6
ByLayer
 62
  256
370
   -1
100
AcDbCircle
 10
-26.03999999999997
 20
48.70000000000011
 40
0.5
  0
CIRCLE
  5
327
100
AcDbEntity
  8
universal board
  6
ByLayer
 62
  256
370
   -1
100
AcDbCircle
 10
-28.57999999999986
 20
48.70000000000011
 40
0.5
  0
CIRCLE
  5
328
100
AcDbEntity
  8
universal board
  6
ByLayer
 62
  256
370
   -1
100
AcDbCircle
 10
-31.11999999999976
 20
48.70000000000011
 40
0.5
  0
CIRCLE
  5
329
100
AcDbEntity
  8
universal board
  6
ByLayer
 62
  256
370
   -1
100
AcDbCircle
 10
-33.65999999999965
 20
48.70000000000011
 40
0.5
  0
CIRCLE
  5
32A
100
AcDbEntity
  8
universal board
  6
ByLayer
 62
  256
370
   -1
100
AcDbCircle
 10
-36.19999999999954
 20
48.70000000000011
 40
0.5
  0
CIRCLE
  5
32B
100
AcDbEntity
  8
universal board
  6
ByLayer
 62
  256
370
   -1
100
AcDbCircle
 10
-38.73999999999943
 20
48.70000000000011
 40
0.5
  0
CIRCLE
  5
32C
100
AcDbEntity
  8
universal board
  6
ByLayer
 62
  256
370
   -1
100
AcDbCircle
 10
-41.27999999999933
 20
48.70000000000011
 40
0.5
  0
CIRCLE
  5
32D
100
AcDbEntity
  8
universal board
  6
ByLayer
 62
  256
370
   -1
100
AcDbCircle
 10
-20.9600000000002
 20
48.70000000000011
 40
0.5
  0
CIRCLE
  5
32E
100
AcDbEntity
  8
universal board
  6
ByLayer
 62
  256
370
   -1
100
AcDbCircle
 10
-18.42000000000032
 20
48.70000000000012
 40
0.5
  0
CIRCLE
  5
32F
100
AcDbEntity
  8
universal board
  6
ByLayer
 62
  256
370
   -1
100
AcDbCircle
 10
-15.88000000000044
 20
48.70000000000013
 40
0.5
  0
CIRCLE
  5
330
100
AcDbEntity
  8
universal board
  6
ByLayer
 62
  256
370
   -1
100
AcDbCircle
 10
-13.34000000000056
 20
48.70000000000013
 40
0.5
  0
CIRCLE
  5
331
100
AcDbEntity
  8
universal board
  6
ByLayer
 62
  256
370
   -1
100
AcDbCircle
 10
-10.80000000000069
 20
48.70000000000014
 40
0.5
  0
CIRCLE
  5
332
100
AcDbEntity
  8
universal board
  6
ByLayer
 62
  256
370
   -1
100
AcDbCircle
 10
-8.260000000000812
 20
48.70000000000014
 40
0.5
  0
CIRCLE
  5
333
100
AcDbEntity
  8
universal board
  6
ByLayer
 62
  256
370
   -1
100
AcDbCircle
 10
-5.72000000000093
 20
48.70000000000014
 40
0.5
  0
CIRCLE
  5
334
100
AcDbEntity
  8
universal board
  6
ByLayer
 62
  256
370
   -1
100
AcDbCircle
 10
-3.18000000000098
 20
48.70000000000013
 40
0.5
  0
CIRCLE
  5
335
100
AcDbEntity
  8
universal board
  6
ByLayer
 62
  256
370
   -1
100
AcDbCircle
 10
-0.6400000000011001
 20
48.70000000000013
 40
0.5
  0
CIRCLE
  5
336
100
AcDbEntity
  8
universal board
  6
ByLayer
 62
  256
370
   -1
100
AcDbCircle
 10
1.899999999998769
 20
48.70000000000014
 40
0.5
  0
CIRCLE
  5
337
100
AcDbEntity
  8
universal board
  6
ByLayer
 62
  256
370
   -1
100
AcDbCircle
 10
4.439999999998648
 20
48.70000000000014
 40
0.5
  0
CIRCLE
  5
338
100
AcDbEntity
  8
universal board
  6
ByLayer
 62
  256
370
   -1
100
AcDbCircle
 10
6.97999999999853
 20
48.70000000000014
 40
0.5
  0
CIRCLE
  5
339
100
AcDbEntity
  8
universal board
  6
ByLayer
 62
  256
370
   -1
100
AcDbCircle
 10
9.519999999998422
 20
48.70000000000014
 40
0.5
  0
CIRCLE
  5
33A
100
AcDbEntity
  8
universal board
  6
ByLayer
 62
  256
370
   -1
100
AcDbCircle
 10
12.05999999999831
 20
48.70000000000014
 40
0.5
  0
CIRCLE
  5
33B
100
AcDbEntity
  8
universal board
  6
ByLayer
 62
  256
370
   -1
100
AcDbCircle
 10
14.59999999999821
 20
48.70000000000014
 40
0.5
  0
CIRCLE
  5
33C
100
AcDbEntity
  8
universal board
  6
ByLayer
 62
  256
370
   -1
100
AcDbCircle
 10
17.1399999999981
 20
48.70000000000014
 40
0.5
  0
CIRCLE
  5
33D
100
AcDbEntity
  8
universal board
  6
ByLayer
 62
  256
370
   -1
100
AcDbCircle
 10
19.67999999999799
 20
48.70000000000014
 40
0.5
  0
CIRCLE
  5
33E
100
AcDbEntity
  8
universal board
  6
ByLayer
 62
  256
370
   -1
100
AcDbCircle
 10
22.21999999999788
 20
48.70000000000014
 40
0.5
  0
CIRCLE
  5
33F
100
AcDbEntity
  8
universal board
  6
ByLayer
 62
  256
370
   -1
100
AcDbCircle
 10
24.75999999999778
 20
48.70000000000014
 40
0.5
  0
CIRCLE
  5
340
100
AcDbEntity
  8
universal board
  6
ByLayer
 62
  256
370
   -1
100
AcDbCircle
 10
27.29999999999767
 20
48.70000000000014
 40
0.5
  0
CIRCLE
  5
341
100
AcDbEntity
  8
universal board
  6
ByLayer
 62
  256
370
   -1
100
AcDbCircle
 10
29.83999999999756
 20
48.70000000000014
 40
0.5
  0
CIRCLE
  5
342
100
AcDbEntity
  8
universal board
  6
ByLayer
 62
  256
370
   -1
100
AcDbCircle
 10
32.37999999999745
 20
48.70000000000014
 40
0.5
  0
CIRCLE
  5
343
100
AcDbEntity
  8
universal board
  6
ByLayer
 62
  256
370
   -1
100
AcDbCircle
 10
-23.50000000000008
 20
46.16000000000009
 40
0.5
  0
CIRCLE
  5
344
100
AcDbEntity
  8
universal board
  6
ByLayer
 62
  256
370
   -1
100
AcDbCircle
 10
-26.03999999999997
 20
46.16000000000009
 40
0.5
  0
CIRCLE
  5
345
100
AcDbEntity
  8
universal board
  6
ByLayer
 62
  256
370
   -1
100
AcDbCircle
 10
-28.57999999999986
 20
46.16000000000009
 40
0.5
  0
CIRCLE
  5
346
100
AcDbEntity
  8
universal board
  6
ByLayer
 62
  256
370
   -1
100
AcDbCircle
 10
-31.11999999999976
 20
46.16000000000009
 40
0.5
  0
CIRCLE
  5
347
100
AcDbEntity
  8
universal board
  6
ByLayer
 62
  256
370
   -1
100
AcDbCircle
 10
-33.65999999999965
 20
46.16000000000009
 40
0.5
  0
CIRCLE
  5
348
100
AcDbEntity
  8
universal board
  6
ByLayer
 62
  256
370
   -1
100
AcDbCircle
 10
-36.19999999999954
 20
46.16000000000009
 40
0.5
  0
CIRCLE
  5
349
100
AcDbEntity
  8
universal board
  6
ByLayer
 62
  256
370
   -1
100
AcDbCircle
 10
-38.73999999999943
 20
46.16000000000009
 40
0.5
  0
CIRCLE
  5
34A
100
AcDbEntity
  8
universal board
  6
ByLayer
 62
  256
370
   -1
100
AcDbCircle
 10
-41.27999999999933
 20
46.16000000000009
 40
0.5
  0
CIRCLE
  5
34B
100
AcDbEntity
  8
universal board
  6
ByLayer
 62
  256
370
   -1
100
AcDbCircle
 10
-20.9600000000002
 20
46.16000000000009
 40
0.5
  0
CIRCLE
  5
34C
100
AcDbEntity
  8
universal board
  6
ByLayer
 62
  256
370
   -1
100
AcDbCircle
 10
-18.42000000000032
 20
46.1600000000001
 40
0.5
  0
CIRCLE
  5
34D
100
AcDbEntity
  8
universal board
  6
ByLayer
 62
  256
370
   -1
100
AcDbCircle
 10
-15.88000000000044
 20
46.16000000000011
 40
0.5
  0
CIRCLE
  5
34E
100
AcDbEntity
  8
universal board
  6
ByLayer
 62
  256
370
   -1
100
AcDbCircle
 10
-13.34000000000056
 20
46.16000000000011
 40
0.5
  0
CIRCLE
  5
34F
100
AcDbEntity
  8
universal board
  6
ByLayer
 62
  256
370
   -1
100
AcDbCircle
 10
-10.80000000000069
 20
46.16000000000012
 40
0.5
  0
CIRCLE
  5
350
100
AcDbEntity
  8
universal board
  6
ByLayer
 62
  256
370
   -1
100
AcDbCircle
 10
-8.260000000000812
 20
46.16000000000012
 40
0.5
  0
CIRCLE
  5
351
100
AcDbEntity
  8
universal board
  6
ByLayer
 62
  256
370
   -1
100
AcDbCircle
 10
-5.72000000000093
 20
46.16000000000012
 40
0.5
  0
CIRCLE
  5
352
100
AcDbEntity
  8
universal board
  6
ByLayer
 62
  256
370
   -1
100
AcDbCircle
 10
-3.18000000000098
 20
46.16000000000011
 40
0.5
  0
CIRCLE
  5
353
100
AcDbEntity
  8
universal board
  6
ByLayer
 62
  256
370
   -1
100
AcDbCircle
 10
-0.6400000000011001
 20
46.16000000000011
 40
0.5
  0
CIRCLE
  5
354
100
AcDbEntity
  8
universal board
  6
ByLayer
 62
  256
370
   -1
100
AcDbCircle
 10
1.899999999998769
 20
46.16000000000012
 40
0.5
  0
CIRCLE
  5
355
100
AcDbEntity
  8
universal board
  6
ByLayer
 62
  256
370
   -1
100
AcDbCircle
 10
4.439999999998648
 20
46.16000000000012
 40
0.5
  0
CIRCLE
  5
356
100
AcDbEntity
  8
universal board
  6
ByLayer
 62
  256
370
   -1
100
AcDbCircle
 10
6.97999999999853
 20
46.16000000000012
 40
0.5
  0
CIRCLE
  5
357
100
AcDbEntity
  8
universal board
  6
ByLayer
 62
  256
370
   -1
100
AcDbCircle
 10
9.519999999998422
 20
46.16000000000012
 40
0.5
  0
CIRCLE
  5
358
100
AcDbEntity
  8
universal board
  6
ByLayer
 62
  256
370
   -1
100
AcDbCircle
 10
12.05999999999831
 20
46.16000000000012
 40
0.5
  0
CIRCLE
  5
359
100
AcDbEntity
  8
universal board
  6
ByLayer
 62
  256
370
   -1
100
AcDbCircle
 10
14.59999999999821
 20
46.16000000000012
 40
0.5
  0
CIRCLE
  5
35A
100
AcDbEntity
  8
universal board
  6
ByLayer
 62
  256
370
   -1
100
AcDbCircle
 10
17.1399999999981
 20
46.16000000000012
 40
0.5
  0
CIRCLE
  5
35B
100
AcDbEntity
  8
universal board
  6
ByLayer
 62
  256
370
   -1
100
AcDbCircle
 10
19.67999999999799
 20
46.16000000000012
 40
0.5
  0
CIRCLE
  5
35C
100
AcDbEntity
  8
universal board
  6
ByLayer
 62
  256
370
   -1
100
AcDbCircle
 10
22.21999999999788
 20
46.16000000000012
 40
0.5
  0
CIRCLE
  5
35D
100
AcDbEntity
  8
universal board
  6
ByLayer
 62
  256
370
   -1
100
AcDbCircle
 10
24.75999999999778
 20
46.16000000000012
 40
0.5
  0
CIRCLE
  5
35E
100
AcDbEntity
  8
universal board
  6
ByLayer
 62
  256
370
   -1
100
AcDbCircle
 10
27.29999999999767
 20
46.16000000000012
 40
0.5
  0
CIRCLE
  5
35F
100
AcDbEntity
  8
universal board
  6
ByLayer
 62
  256
370
   -1
100
AcDbCircle
 10
29.83999999999756
 20
46.16000000000012
 40
0.5
  0
CIRCLE
  5
360
100
AcDbEntity
  8
universal board
  6
ByLayer
 62
  256
370
   -1
100
AcDbCircle
 10
32.37999999999745
 20
46.16000000000012
 40
0.5
  0
CIRCLE
  5
361
100
AcDbEntity
  8
universal board
  6
ByLayer
 62
  256
370
   -1
100
AcDbCircle
 10
-23.50000000000008
 20
43.62000000000007
 40
0.5
  0
CIRCLE
  5
362
100
AcDbEntity
  8
universal board
  6
ByLayer
 62
  256
370
   -1
100
AcDbCircle
 10
-26.03999999999997
 20
43.62000000000007
 40
0.5
  0
CIRCLE
  5
363
100
AcDbEntity
  8
universal board
  6
ByLayer
 62
  256
370
   -1
100
AcDbCircle
 10
-28.57999999999986
 20
43.62000000000007
 40
0.5
  0
CIRCLE
  5
364
100
AcDbEntity
  8
universal board
  6
ByLayer
 62
  256
370
   -1
100
AcDbCircle
 10
-31.11999999999976
 20
43.62000000000007
 40
0.5
  0
CIRCLE
  5
365
100
AcDbEntity
  8
universal board
  6
ByLayer
 62
  256
370
   -1
100
AcDbCircle
 10
-33.65999999999965
 20
43.62000000000007
 40
0.5
  0
CIRCLE
  5
366
100
AcDbEntity
  8
universal board
  6
ByLayer
 62
  256
370
   -1
100
AcDbCircle
 10
-36.19999999999954
 20
43.62000000000007
 40
0.5
  0
CIRCLE
  5
367
100
AcDbEntity
  8
universal board
  6
ByLayer
 62
  256
370
   -1
100
AcDbCircle
 10
-38.73999999999943
 20
43.62000000000007
 40
0.5
  0
CIRCLE
  5
368
100
AcDbEntity
  8
universal board
  6
ByLayer
 62
  256
370
   -1
100
AcDbCircle
 10
-41.27999999999933
 20
43.62000000000007
 40
0.5
  0
CIRCLE
  5
369
100
AcDbEntity
  8
universal board
  6
ByLayer
 62
  256
370
   -1
100
AcDbCircle
 10
-20.9600000000002
 20
43.62000000000007
 40
0.5
  0
CIRCLE
  5
36A
100
AcDbEntity
  8
universal board
  6
ByLayer
 62
  256
370
   -1
100
AcDbCircle
 10
-18.42000000000032
 20
43.62000000000008
 40
0.5
  0
CIRCLE
  5
36B
100
AcDbEntity
  8
universal board
  6
ByLayer
 62
  256
370
   -1
100
AcDbCircle
 10
-15.88000000000044
 20
43.62000000000009
 40
0.5
  0
CIRCLE
  5
36C
100
AcDbEntity
  8
universal board
  6
ByLayer
 62
  256
370
   -1
100
AcDbCircle
 10
-13.34000000000056
 20
43.62000000000009
 40
0.5
  0
CIRCLE
  5
36D
100
AcDbEntity
  8
universal board
  6
ByLayer
 62
  256
370
   -1
100
AcDbCircle
 10
-10.80000000000069
 20
43.6200000000001
 40
0.5
  0
CIRCLE
  5
36E
100
AcDbEntity
  8
universal board
  6
ByLayer
 62
  256
370
   -1
100
AcDbCircle
 10
-8.260000000000812
 20
43.6200000000001
 40
0.5
  0
CIRCLE
  5
36F
100
AcDbEntity
  8
universal board
  6
ByLayer
 62
  256
370
   -1
100
AcDbCircle
 10
-5.72000000000093
 20
43.6200000000001
 40
0.5
  0
CIRCLE
  5
370
100
AcDbEntity
  8
universal board
  6
ByLayer
 62
  256
370
   -1
100
AcDbCircle
 10
-3.18000000000098
 20
43.62000000000009
 40
0.5
  0
CIRCLE
  5
371
100
AcDbEntity
  8
universal board
  6
ByLayer
 62
  256
370
   -1
100
AcDbCircle
 10
-0.6400000000011001
 20
43.62000000000009
 40
0.5
  0
CIRCLE
  5
372
100
AcDbEntity
  8
universal board
  6
ByLayer
 62
  256
370
   -1
100
AcDbCircle
 10
1.899999999998769
 20
43.6200000000001
 40
0.5
  0
CIRCLE
  5
373
100
AcDbEntity
  8
universal board
  6
ByLayer
 62
  256
370
   -1
100
AcDbCircle
 10
4.439999999998648
 20
43.6200000000001
 40
0.5
  0
CIRCLE
  5
374
100
AcDbEntity
  8
universal board
  6
ByLayer
 62
  256
370
   -1
100
AcDbCircle
 10
6.97999999999853
 20
43.6200000000001
 40
0.5
  0
CIRCLE
  5
375
100
AcDbEntity
  8
universal board
  6
ByLayer
 62
  256
370
   -1
100
AcDbCircle
 10
9.519999999998422
 20
43.6200000000001
 40
0.5
  0
CIRCLE
  5
376
100
AcDbEntity
  8
universal board
  6
ByLayer
 62
  256
370
   -1
100
AcDbCircle
 10
12.05999999999831
 20
43.6200000000001
 40
0.5
  0
CIRCLE
  5
377
100
AcDbEntity
  8
universal board
  6
ByLayer
 62
  256
370
   -1
100
AcDbCircle
 10
14.59999999999821
 20
43.6200000000001
 40
0.5
  0
CIRCLE
  5
378
100
AcDbEntity
  8
universal board
  6
ByLayer
 62
  256
370
   -1
100
AcDbCircle
 10
17.1399999999981
 20
43.6200000000001
 40
0.5
  0
CIRCLE
  5
379
100
AcDbEntity
  8
universal board
  6
ByLayer
 62
  256
370
   -1
100
AcDbCircle
 10
19.67999999999799
 20
43.6200000000001
 40
0.5
  0
CIRCLE
  5
37A
100
AcDbEntity
  8
universal board
  6
ByLayer
 62
  256
370
   -1
100
AcDbCircle
 10
22.21999999999788
 20
43.6200000000001
 40
0.5
  0
CIRCLE
  5
37B
100
AcDbEntity
  8
universal board
  6
ByLayer
 62
  256
370
   -1
100
AcDbCircle
 10
24.75999999999778
 20
43.6200000000001
 40
0.5
  0
CIRCLE
  5
37C
100
AcDbEntity
  8
universal board
  6
ByLayer
 62
  256
370
   -1
100
AcDbCircle
 10
27.29999999999767
 20
43.6200000000001
 40
0.5
  0
CIRCLE
  5
37D
100
AcDbEntity
  8
universal board
  6
ByLayer
 62
  256
370
   -1
100
AcDbCircle
 10
29.83999999999756
 20
43.6200000000001
 40
0.5
  0
CIRCLE
  5
37E
100
AcDbEntity
  8
universal board
  6
ByLayer
 62
  256
370
   -1
100
AcDbCircle
 10
32.37999999999745
 20
43.6200000000001
 40
0.5
  0
CIRCLE
  5
37F
100
AcDbEntity
  8
universal board
  6
ByLayer
 62
  256
370
   -1
100
AcDbCircle
 10
-23.50000000000008
 20
41.08000000000005
 40
0.5
  0
CIRCLE
  5
380
100
AcDbEntity
  8
universal board
  6
ByLayer
 62
  256
370
   -1
100
AcDbCircle
 10
-26.03999999999997
 20
41.08000000000005
 40
0.5
  0
CIRCLE
  5
381
100
AcDbEntity
  8
universal board
  6
ByLayer
 62
  256
370
   -1
100
AcDbCircle
 10
-28.57999999999986
 20
41.08000000000005
 40
0.5
  0
CIRCLE
  5
382
100
AcDbEntity
  8
universal board
  6
ByLayer
 62
  256
370
   -1
100
AcDbCircle
 10
-31.11999999999976
 20
41.08000000000005
 40
0.5
  0
CIRCLE
  5
383
100
AcDbEntity
  8
universal board
  6
ByLayer
 62
  256
370
   -1
100
AcDbCircle
 10
-33.65999999999965
 20
41.08000000000005
 40
0.5
  0
CIRCLE
  5
384
100
AcDbEntity
  8
universal board
  6
ByLayer
 62
  256
370
   -1
100
AcDbCircle
 10
-36.19999999999954
 20
41.08000000000005
 40
0.5
  0
CIRCLE
  5
385
100
AcDbEntity
  8
universal board
  6
ByLayer
 62
  256
370
   -1
100
AcDbCircle
 10
-38.73999999999943
 20
41.08000000000005
 40
0.5
  0
CIRCLE
  5
386
100
AcDbEntity
  8
universal board
  6
ByLayer
 62
  256
370
   -1
100
AcDbCircle
 10
-41.27999999999933
 20
41.08000000000005
 40
0.5
  0
CIRCLE
  5
387
100
AcDbEntity
  8
universal board
  6
ByLayer
 62
  256
370
   -1
100
AcDbCircle
 10
-20.9600000000002
 20
41.08000000000005
 40
0.5
  0
CIRCLE
  5
388
100
AcDbEntity
  8
universal board
  6
ByLayer
 62
  256
370
   -1
100
AcDbCircle
 10
-18.42000000000032
 20
41.08000000000006
 40
0.5
  0
CIRCLE
  5
389
100
AcDbEntity
  8
universal board
  6
ByLayer
 62
  256
370
   -1
100
AcDbCircle
 10
-15.88000000000044
 20
41.08000000000007
 40
0.5
  0
CIRCLE
  5
38A
100
AcDbEntity
  8
universal board
  6
ByLayer
 62
  256
370
   -1
100
AcDbCircle
 10
-13.34000000000056
 20
41.08000000000007
 40
0.5
  0
CIRCLE
  5
38B
100
AcDbEntity
  8
universal board
  6
ByLayer
 62
  256
370
   -1
100
AcDbCircle
 10
-10.80000000000069
 20
41.08000000000008
 40
0.5
  0
CIRCLE
  5
38C
100
AcDbEntity
  8
universal board
  6
ByLayer
 62
  256
370
   -1
100
AcDbCircle
 10
-8.260000000000812
 20
41.08000000000008
 40
0.5
  0
CIRCLE
  5
38D
100
AcDbEntity
  8
universal board
  6
ByLayer
 62
  256
370
   -1
100
AcDbCircle
 10
-5.72000000000093
 20
41.08000000000008
 40
0.5
  0
CIRCLE
  5
38E
100
AcDbEntity
  8
universal board
  6
ByLayer
 62
  256
370
   -1
100
AcDbCircle
 10
-3.18000000000098
 20
41.08000000000007
 40
0.5
  0
CIRCLE
  5
38F
100
AcDbEntity
  8
universal board
  6
ByLayer
 62
  256
370
   -1
100
AcDbCircle
 10
-0.6400000000011001
 20
41.08000000000007
 40
0.5
  0
CIRCLE
  5
390
100
AcDbEntity
  8
universal board
  6
ByLayer
 62
  256
370
   -1
100
AcDbCircle
 10
1.899999999998769
 20
41.08000000000008
 40
0.5
  0
CIRCLE
  5
391
100
AcDbEntity
  8
universal board
  6
ByLayer
 62
  256
370
   -1
100
AcDbCircle
 10
4.439999999998648
 20
41.08000000000008
 40
0.5
  0
CIRCLE
  5
392
100
AcDbEntity
  8
universal board
  6
ByLayer
 62
  256
370
   -1
100
AcDbCircle
 10
6.97999999999853
 20
41.08000000000008
 40
0.5
  0
CIRCLE
  5
393
100
AcDbEntity
  8
universal board
  6
ByLayer
 62
  256
370
   -1
100
AcDbCircle
 10
9.519999999998422
 20
41.08000000000008
 40
0.5
  0
CIRCLE
  5
394
100
AcDbEntity
  8
universal board
  6
ByLayer
 62
  256
370
   -1
100
AcDbCircle
 10
12.05999999999831
 20
41.08000000000008
 40
0.5
  0
CIRCLE
  5
395
100
AcDbEntity
  8
universal board
  6
ByLayer
 62
  256
370
   -1
100
AcDbCircle
 10
14.59999999999821
 20
41.08000000000008
 40
0.5
  0
CIRCLE
  5
396
100
AcDbEntity
  8
universal board
  6
ByLayer
 62
  256
370
   -1
100
AcDbCircle
 10
17.1399999999981
 20
41.08000000000008
 40
0.5
  0
CIRCLE
  5
397
100
AcDbEntity
  8
universal board
  6
ByLayer
 62
  256
370
   -1
100
AcDbCircle
 10
19.67999999999799
 20
41.08000000000008
 40
0.5
  0
CIRCLE
  5
398
100
AcDbEntity
  8
universal board
  6
ByLayer
 62
  256
370
   -1
100
AcDbCircle
 10
22.21999999999788
 20
41.08000000000008
 40
0.5
  0
CIRCLE
  5
399
100
AcDbEntity
  8
universal board
  6
ByLayer
 62
  256
370
   -1
100
AcDbCircle
 10
24.75999999999778
 20
41.08000000000008
 40
0.5
  0
CIRCLE
  5
39A
100
AcDbEntity
  8
universal board
  6
ByLayer
 62
  256
370
   -1
100
AcDbCircle
 10
27.29999999999767
 20
41.08000000000008
 40
0.5
  0
CIRCLE
  5
39B
100
AcDbEntity
  8
universal board
  6
ByLayer
 62
  256
370
   -1
100
AcDbCircle
 10
29.83999999999756
 20
41.08000000000008
 40
0.5
  0
CIRCLE
  5
39C
100
AcDbEntity
  8
universal board
  6
ByLayer
 62
  256
370
   -1
100
AcDbCircle
 10
32.37999999999745
 20
41.08000000000008
 40
0.5
  0
CIRCLE
  5
39D
100
AcDbEntity
  8
universal board
  6
ByLayer
 62
  256
370
   -1
100
AcDbCircle
 10
-23.50000000000008
 20
38.54000000000003
 40
0.5
  0
CIRCLE
  5
39E
100
AcDbEntity
  8
universal board
  6
ByLayer
 62
  256
370
   -1
100
AcDbCircle
 10
-26.03999999999997
 20
38.54000000000003
 40
0.5
  0
CIRCLE
  5
39F
100
AcDbEntity
  8
universal board
  6
ByLayer
 62
  256
370
   -1
100
AcDbCircle
 10
-28.57999999999986
 20
38.54000000000003
 40
0.5
  0
CIRCLE
  5
3A0
100
AcDbEntity
  8
universal board
  6
ByLayer
 62
  256
370
   -1
100
AcDbCircle
 10
-31.11999999999976
 20
38.54000000000003
 40
0.5
  0
CIRCLE
  5
3A1
100
AcDbEntity
  8
universal board
  6
ByLayer
 62
  256
370
   -1
100
AcDbCircle
 10
-33.65999999999965
 20
38.54000000000003
 40
0.5
  0
CIRCLE
  5
3A2
100
AcDbEntity
  8
universal board
  6
ByLayer
 62
  256
370
   -1
100
AcDbCircle
 10
-36.19999999999954
 20
38.54000000000003
 40
0.5
  0
CIRCLE
  5
3A3
100
AcDbEntity
  8
universal board
  6
ByLayer
 62
  256
370
   -1
100
AcDbCircle
 10
-38.73999999999943
 20
38.54000000000003
 40
0.5
  0
CIRCLE
  5
3A4
100
AcDbEntity
  8
universal board
  6
ByLayer
 62
  256
370
   -1
100
AcDbCircle
 10
-41.27999999999933
 20
38.54000000000003
 40
0.5
  0
CIRCLE
  5
3A5
100
AcDbEntity
  8
universal board
  6
ByLayer
 62
  256
370
   -1
100
AcDbCircle
 10
-20.9600000000002
 20
38.54000000000003
 40
0.5
  0
CIRCLE
  5
3A6
100
AcDbEntity
  8
universal board
  6
ByLayer
 62
  256
370
   -1
100
AcDbCircle
 10
-18.42000000000032
 20
38.54000000000003
 40
0.5
  0
CIRCLE
  5
3A7
100
AcDbEntity
  8
universal board
  6
ByLayer
 62
  256
370
   -1
100
AcDbCircle
 10
-15.88000000000044
 20
38.54000000000005
 40
0.5
  0
CIRCLE
  5
3A8
100
AcDbEntity
  8
universal board
  6
ByLayer
 62
  256
370
   -1
100
AcDbCircle
 10
-13.34000000000056
 20
38.54000000000005
 40
0.5
  0
CIRCLE
  5
3A9
100
AcDbEntity
  8
universal board
  6
ByLayer
 62
  256
370
   -1
100
AcDbCircle
 10
-10.80000000000069
 20
38.54000000000006
 40
0.5
  0
CIRCLE
  5
3AA
100
AcDbEntity
  8
universal board
  6
ByLayer
 62
  256
370
   -1
100
AcDbCircle
 10
-8.260000000000812
 20
38.54000000000006
 40
0.5
  0
CIRCLE
  5
3AB
100
AcDbEntity
  8
universal board
  6
ByLayer
 62
  256
370
   -1
100
AcDbCircle
 10
-5.72000000000093
 20
38.54000000000006
 40
0.5
  0
CIRCLE
  5
3AC
100
AcDbEntity
  8
universal board
  6
ByLayer
 62
  256
370
   -1
100
AcDbCircle
 10
-3.18000000000098
 20
38.54000000000005
 40
0.5
  0
CIRCLE
  5
3AD
100
AcDbEntity
  8
universal board
  6
ByLayer
 62
  256
370
   -1
100
AcDbCircle
 10
-0.6400000000011001
 20
38.54000000000005
 40
0.5
  0
CIRCLE
  5
3AE
100
AcDbEntity
  8
universal board
  6
ByLayer
 62
  256
370
   -1
100
AcDbCircle
 10
1.899999999998769
 20
38.54000000000006
 40
0.5
  0
CIRCLE
  5
3AF
100
AcDbEntity
  8
universal board
  6
ByLayer
 62
  256
370
   -1
100
AcDbCircle
 10
4.439999999998648
 20
38.54000000000006
 40
0.5
  0
CIRCLE
  5
3B0
100
AcDbEntity
  8
universal board
  6
ByLayer
 62
  256
370
   -1
100
AcDbCircle
 10
6.97999999999853
 20
38.54000000000006
 40
0.5
  0
CIRCLE
  5
3B1
100
AcDbEntity
  8
universal board
  6
ByLayer
 62
  256
370
   -1
100
AcDbCircle
 10
9.519999999998422
 20
38.54000000000006
 40
0.5
  0
CIRCLE
  5
3B2
100
AcDbEntity
  8
universal board
  6
ByLayer
 62
  256
370
   -1
100
AcDbCircle
 10
12.05999999999831
 20
38.54000000000006
 40
0.5
  0
CIRCLE
  5
3B3
100
AcDbEntity
  8
universal board
  6
ByLayer
 62
  256
370
   -1
100
AcDbCircle
 10
14.59999999999821
 20
38.54000000000006
 40
0.5
  0
CIRCLE
  5
3B4
100
AcDbEntity
  8
universal board
  6
ByLayer
 62
  256
370
   -1
100
AcDbCircle
 10
17.1399999999981
 20
38.54000000000006
 40
0.5
  0
CIRCLE
  5
3B5
100
AcDbEntity
  8
universal board
  6
ByLayer
 62
  256
370
   -1
100
AcDbCircle
 10
19.67999999999799
 20
38.54000000000006
 40
0.5
  0
CIRCLE
  5
3B6
100
AcDbEntity
  8
universal board
  6
ByLayer
 62
  256
370
   -1
100
AcDbCircle
 10
22.21999999999788
 20
38.54000000000006
 40
0.5
  0
CIRCLE
  5
3B7
100
AcDbEntity
  8
universal board
  6
ByLayer
 62
  256
370
   -1
100
AcDbCircle
 10
24.75999999999778
 20
38.54000000000006
 40
0.5
  0
CIRCLE
  5
3B8
100
AcDbEntity
  8
universal board
  6
ByLayer
 62
  256
370
   -1
100
AcDbCircle
 10
27.29999999999767
 20
38.54000000000006
 40
0.5
  0
CIRCLE
  5
3B9
100
AcDbEntity
  8
universal board
  6
ByLayer
 62
  256
370
   -1
100
AcDbCircle
 10
29.83999999999756
 20
38.54000000000006
 40
0.5
  0
CIRCLE
  5
3BA
100
AcDbEntity
  8
universal board
  6
ByLayer
 62
  256
370
   -1
100
AcDbCircle
 10
32.37999999999745
 20
38.54000000000006
 40
0.5
  0
CIRCLE
  5
3BB
100
AcDbEntity
  8
terminal
  6
ByLayer
 62
  256
370
   -1
100
AcDbCircle
 10
-5.450000000000649
 20
58.86000000000023
 40
0.46
  0
CIRCLE
  5
3BC
100
AcDbEntity
  8
terminal
  6
ByLayer
 62
  256
370
   -1
100
AcDbCircle
 10
-3.450000000001981
 20
58.86000000000021
 40
0.46
  0
CIRCLE
  5
3BD
100
AcDbEntity
  8
terminal
  6
ByLayer
 62
  256
370
   -1
100
AcDbCircle
 10
-7.95000000000071
 20
58.86000000000023
 40
0.46
  0
CIRCLE
  5
3BE
100
AcDbEntity
  8
terminal
  6
ByLayer
 62
  256
370
   -1
100
AcDbCircle
 10
-0.9500000000024502
 20
58.86000000000021
 40
0.46
  0
CIRCLE
  5
3BF
100
AcDbEntity
  8
terminal
  6
ByLayer
 62
  256
370
   -1
100
AcDbCircle
 10
-11.02000000000121
 20
61.56000000000009
 40
1.15
  0
CIRCLE
  5
3C0
100
AcDbEntity
  8
terminal
  6
ByLayer
 62
  256
370
   -1
100
AcDbCircle
 10
2.119999999998611
 20
61.56000000000009
 40
1.15
  0
LINE
  5
3C1
100
AcDbEntity
  8
terminal
  6
ByLayer
 62
  256
370
   -1
100
AcDbLine
 10
-10.70000000000119
 20
65.28000000000006
 11
1.799999999998571
 21
65.28000000000006
  0
LINE
  5
3C2
100
AcDbEntity
  8
terminal
  6
ByLayer
 62
  256
370
   -1
100
AcDbLine
 10
1.799999999998571
 20
65.28000000000006
 11
1.799999999998571
 21
51.28000000000006
  0
LINE
  5
3C3
100
AcDbEntity
  8
terminal
  6
ByLayer
 62
  256
370
   -1
100
AcDbLine
 10
1.799999999998571
 20
51.28000000000006
 11
-10.70000000000119
 21
51.28000000000006
  0
LINE
  5
3C4
100
AcDbEntity
  8
terminal
  6
ByLayer
 62
  256
370
   -1
100
AcDbLine
 10
-10.70000000000119
 20
51.28000000000006
 11
-10.70000000000119
 21
65.28000000000007
  0
CIRCLE
  5
3C5
100
AcDbEntity
  8
resister
  6
ByLayer
 62
  256
370
   -1
100
AcDbCircle
 10
-41.27999999999979
 20
43.62000000000235
 40
0.25
  0
LINE
  5
3C6
100
AcDbEntity
  8
resister
  6
ByLayer
 62
  256
370
   -1
100
AcDbLine
 10
-42.28999999999974
 20
44.72000000000219
 11
-47.88999999999977
 21
44.72000000000219
  0
LINE
  5
3C7
100
AcDbEntity
  8
resister
  6
ByLayer
 62
  256
370
   -1
100
AcDbLine
 10
-47.88999999999977
 20
44.72000000000219
 11
-47.88999999999977
 21
42.52000000000253
  0
LINE
  5
3C8
100
AcDbEntity
  8
resister
  6
ByLayer
 62
  256
370
   -1
100
AcDbLine
 10
-47.88999999999977
 20
42.52000000000253
 11
-42.28999999999974
 21
42.52000000000253
  0
LINE
  5
3C9
100
AcDbEntity
  8
resister
  6
ByLayer
 62
  256
370
   -1
100
AcDbLine
 10
-42.28999999999974
 20
42.52000000000253
 11
-42.28999999999974
 21
44.72000000000219
  0
CIRCLE
  5
3CA
100
AcDbEntity
  8
resister
  6
ByLayer
 62
  256
370
   -1
100
AcDbCircle
 10
-48.89999999999984
 20
43.62000000000235
 40
0.25
  0
LINE
  5
3CB
100
AcDbEntity
  8
resister
  6
ByLayer
 62
  256
370
   -1
100
AcDbLine
 10
-41.27999999999979
 20
43.62000000000235
 11
-42.28999999999974
 21
43.62000000000235
  0
LINE
  5
3CC
100
AcDbEntity
  8
resister
  6
ByLayer
 62
  256
370
   -1
100
AcDbLine
 10
-47.88999999999977
 20
43.62000000000235
 11
-48.89999999999984
 21
43.62000000000235
  0
MTEXT
  5
3CD
100
AcDbEntity
  8
resister
  6
ByLayer
 62
  256
370
   -1
100
AcDbMText
 10
-45.69250002821474
 20
43.66673456962366
 30
0
 40
1
 41
1.77777777777784
 71
    5
 72
    1
  1
RJ1
  7
iso
210
0
220
0
230
1
 50
270
 73
    2
 44
1.54
  0
CIRCLE
  5
3CE
100
AcDbEntity
  8
terminal
  6
ByLayer
 62
  256
370
   -1
100
AcDbCircle
 10
1.77999999999922
 20
69.02000000000032
 40
0.3
  0
CIRCLE
  5
3CF
100
AcDbEntity
  8
terminal
  6
ByLayer
 62
  256
370
   -1
100
AcDbCircle
 10
4.279999999999177
 20
69.02000000000032
 40
0.3
  0
CIRCLE
  5
3D0
100
AcDbEntity
  8
terminal
  6
ByLayer
 62
  256
370
   -1
100
AcDbCircle
 10
-13.22000000000111
 20
69.02000000000032
 40
0.3
  0
CIRCLE
  5
3D1
100
AcDbEntity
  8
terminal
  6
ByLayer
 62
  256
370
   -1
100
AcDbCircle
 10
-15.72000000000106
 20
69.02000000000032
 40
0.3
  0
LINE
  5
3D2
100
AcDbEntity
  8
terminal
  6
ByLayer
 62
  256
370
   -1
100
AcDbLine
 10
-18.17000000000102
 20
71.37000000000037
 11
-18.17000000000102
 21
65.62000000000056
  0
LINE
  5
3D3
100
AcDbEntity
  8
terminal
  6
ByLayer
 62
  256
370
   -1
100
AcDbLine
 10
6.729999999999138
 20
65.62000000000056
 11
6.729999999999139
 21
71.37000000000037
  0
MTEXT
  5
3D4
100
AcDbEntity
  8
terminal
  6
ByLayer
 62
  256
370
   -1
100
AcDbMText
 10
-16.73706421651638
 20
66.40531997434601
 30
0
 40
1
 41
2.111111111111111
 71
    5
 72
    1
  1
XH1
  7
iso
210
0
220
0
230
1
 50
0
 73
    2
 44
1.54
  0
LINE
  5
3D5
100
AcDbEntity
  8
terminal
  6
ByLayer
 62
  256
370
   -1
100
AcDbLine
 10
-5.72000000000094
 20
69.02000000000032
 11
4.27999999999906
 21
69.02000000000032
  0
LINE
  5
3D6
100
AcDbEntity
  8
terminal
  6
ByLayer
 62
  256
370
   -1
100
AcDbLine
 10
-10.67000000000115
 20
71.37000000000037
 11
-18.17000000000102
 21
71.37000000000037
  0
LINE
  5
3D7
100
AcDbEntity
  8
terminal
  6
ByLayer
 62
  256
370
   -1
100
AcDbLine
 10
6.729999999999139
 20
71.37000000000037
 11
-0.7700000000007347
 21
71.37000000000037
  0
LINE
  5
3D8
100
AcDbEntity
  8
terminal
  6
ByLayer
 62
  256
370
   -1
100
AcDbLine
 10
-0.7700000000007351
 20
65.62000000000056
 11
6.729999999999138
 21
65.62000000000056
  0
LINE
  5
3D9
100
AcDbEntity
  8
terminal
  6
ByLayer
 62
  256
370
   -1
100
AcDbLine
 10
-18.17000000000102
 20
65.62000000000056
 11
-10.67000000000115
 21
65.62000000000056
  0
CIRCLE
  5
3DA
100
AcDbEntity
  8
terminal
  6
ByLayer
 62
  256
370
   -1
100
AcDbCircle
 10
-13.32000000000083
 20
84.79999999999961
 40
0.46
  0
CIRCLE
  5
3DB
100
AcDbEntity
  8
terminal
  6
ByLayer
 62
  256
370
   -1
100
AcDbCircle
 10
-10.81999999999875
 20
84.7999998922254
 40
0.46
  0
CIRCLE
  5
3DC
100
AcDbEntity
  8
terminal
  6
ByLayer
 62
  256
370
   -1
100
AcDbCircle
 10
-13.32000000000083
 20
86.80000000000042
 40
0.46
  0
CIRCLE
  5
3DD
100
AcDbEntity
  8
terminal
  6
ByLayer
 62
  256
370
   -1
100
AcDbCircle
 10
-10.81999999999875
 20
86.79999989222621
 40
0.46
  0
CIRCLE
  5
3DE
100
AcDbEntity
  8
terminal
  6
ByLayer
 62
  256
370
   -1
100
AcDbCircle
 10
-18.08999999999939
 20
89.50000000000043
 40
1.15
  0
CIRCLE
  5
3DF
100
AcDbEntity
  8
terminal
  6
ByLayer
 62
  256
370
   -1
100
AcDbCircle
 10
-6.050000000000235
 20
89.50000000000044
 40
1.15
  0
LINE
  5
3E0
100
AcDbEntity
  8
terminal
  6
ByLayer
 62
  256
370
   -1
100
AcDbLine
 10
-18.0899984701351
 20
99.78000000000038
 11
-18.0899984701351
 21
83.7800000000004
  0
LINE
  5
3E1
100
AcDbEntity
  8
terminal
  6
ByLayer
 62
  256
370
   -1
100
AcDbLine
 10
-18.0899984701351
 20
83.7800000000004
 11
-6.049998470135575
 21
83.7800000000004
  0
LINE
  5
3E2
100
AcDbEntity
  8
terminal
  6
ByLayer
 62
  256
370
   -1
100
AcDbLine
 10
-6.049998470135575
 20
83.7800000000004
 11
-6.049998470135575
 21
99.78000000000038
  0
LINE
  5
3E3
100
AcDbEntity
  8
terminal
  6
ByLayer
 62
  256
370
   -1
100
AcDbLine
 10
-6.049998470135575
 20
99.78000000000038
 11
-18.0899984701351
 21
99.78000000000038
  0
MTEXT
  5
3E4
100
AcDbEntity
  8
terminal
  6
ByLayer
 62
  256
370
   -1
100
AcDbMText
 10
-16.59289397331596
 20
98.46522859635931
 30
0
 40
1
 41
0.8888888888889508
 71
    5
 72
    1
  1
J1
  7
iso
210
0
220
0
230
1
 50
0
 73
    2
 44
1.54
  0
MTEXT
  5
3E5
100
AcDbEntity
  8
terminal
  6
ByLayer
 62
  256
370
   -1
100
AcDbMText
 10
-11.63319624953296
 20
87.22123012770348
 30
0
 40
1
 41
7.750000000000124
 71
    5
 72
    1
  1
1_V 2_D-\P4_G 3_D+
  7
iso
210
0
220
0
230
1
 50
0
 73
    2
 44
1.54
  0
LINE
  5
3E6
100
AcDbEntity
  8
1_VBUS
  6
ByLayer
 62
  256
370
   -1
100
AcDbLine
 10
-13.32000000000083
 20
86.80000000000042
 11
-13.34000000000054
 21
91.88000000000045
  0
LINE
  5
3E7
100
AcDbEntity
  8
4_GND
  6
ByLayer
 62
  256
370
   -1
100
AcDbLine
 10
-13.34000000000054
 20
84.26000000000039
 11
-18.42000000000031
 21
84.26000000000039
  0
LINE
  5
3E8
100
AcDbEntity
  8
4_GND
  6
ByLayer
 62
  256
370
   -1
100
AcDbLine
 10
-18.42000000000031
 20
84.26000000000039
 11
-18.42000000000031
 21
89.34000000000043
  0
LINE
  5
3E9
100
AcDbEntity
  8
1_VBUS
  6
ByLayer
 62
  256
370
   -1
100
AcDbLine
 10
-13.34000000000054
 20
91.88000000000045
 11
-3.180000000001019
 21
91.88000000000048
  0
LINE
  5
3EA
100
AcDbEntity
  8
1_VBUS
  6
ByLayer
 62
  256
370
   -1
100
AcDbLine
 10
-3.180000000001019
 20
91.88000000000048
 11
-3.180000000001019
 21
79.18000000000038
  0
CIRCLE
  5
3EB
100
AcDbEntity
  8
terminal
  6
ByLayer
 62
  256
370
   -1
100
AcDbCircle
 10
-8.26000000000078
 20
79.18000000000038
 40
0.3
  0
CIRCLE
  5
3EC
100
AcDbEntity
  8
terminal
  6
ByLayer
 62
  256
370
   -1
100
AcDbCircle
 10
-5.760000000000293
 20
79.18000000000038
 40
0.3
  0
CIRCLE
  5
3ED
100
AcDbEntity
  8
terminal
  6
ByLayer
 62
  256
370
   -1
100
AcDbCircle
 10
-10.76000000000127
 20
79.18000000000038
 40
0.3
  0
LINE
  5
3EE
100
AcDbEntity
  8
terminal
  6
ByLayer
 62
  256
370
   -1
100
AcDbLine
 10
-3.310000000000574
 20
75.78000000000061
 11
-3.310000000000574
 21
81.53000000000043
  0
LINE
  5
3EF
100
AcDbEntity
  8
terminal
  6
ByLayer
 62
  256
370
   -1
100
AcDbLine
 10
-3.310000000000574
 20
81.53000000000043
 11
-13.21000000000099
 21
81.53000000000043
  0
LINE
  5
3F0
100
AcDbEntity
  8
terminal
  6
ByLayer
 62
  256
370
   -1
100
AcDbLine
 10
-13.21000000000099
 20
75.78000000000061
 11
-3.310000000000574
 21
75.78000000000061
  0
LINE
  5
3F1
100
AcDbEntity
  8
terminal
  6
ByLayer
 62
  256
370
   -1
100
AcDbLine
 10
-13.21000000000099
 20
81.53000000000043
 11
-13.21000000000099
 21
75.78000000000061
  0
LINE
  5
3F2
100
AcDbEntity
  8
1_VBUS
  6
ByLayer
 62
  256
370
   -1
100
AcDbLine
 10
-3.180000000001019
 20
79.18000000000038
 11
-5.720000000000899
 21
79.18000000000038
  0
LINE
  5
3F3
100
AcDbEntity
  8
2_D-_line
  6
ByLayer
 62
  256
370
   -1
100
AcDbLine
 10
-10.80000000000066
 20
86.80000000000042
 11
-8.26000000000078
 21
86.80000000000044
  0
LINE
  5
3F4
100
AcDbEntity
  8
2_D-_line
  6
ByLayer
 62
  256
370
   -1
100
AcDbLine
 10
-8.26000000000078
 20
86.80000000000044
 11
-8.26000000000078
 21
79.18000000000038
  0
LINE
  5
3F5
100
AcDbEntity
  8
3_D+_line
  6
ByLayer
 62
  256
370
   -1
100
AcDbLine
 10
-10.80000000000066
 20
84.2600000000004
 11
-10.80000000000066
 21
79.18000000000036
  0
CIRCLE
  5
3F6
100
AcDbEntity
  8
condenser
  6
ByLayer
 62
  256
370
   -1
100
AcDbCircle
 10
-18.42000000000031
 20
76.64000000000057
 40
0.3
  0
CIRCLE
  5
3F7
100
AcDbEntity
  8
condenser
  6
ByLayer
 62
  256
370
   -1
100
AcDbCircle
 10
-18.42000000000031
 20
77.91000000000099
 40
3.15
  0
CIRCLE
  5
3F8
100
AcDbEntity
  8
condenser
  6
ByLayer
 62
  256
370
   -1
100
AcDbCircle
 10
-18.42000000000031
 20
79.18000000000035
 40
0.3
  0
LINE
  5
3F9
100
AcDbEntity
  8
1_VBUS
  6
ByLayer
 62
  256
370
   -1
100
AcDbLine
 10
-5.720000000000899
 20
79.18000000000038
 11
-5.720000000000899
 21
76.64000000000036
  0
LINE
  5
3FA
100
AcDbEntity
  8
1_VBUS
  6
ByLayer
 62
  256
370
   -1
100
AcDbLine
 10
-5.720000000000899
 20
76.64000000000036
 11
-18.42000000000031
 21
76.64000000000033
  0
MTEXT
  5
3FB
100
AcDbEntity
  8
condenser
  6
ByLayer
 62
  256
370
   -1
100
AcDbMText
 10
-19.96588751652304
 20
79.34299775266894
 30
0
 40
1
 41
1.000000000000062
 71
    5
 72
    1
  1
C1
  7
iso
210
0
220
0
230
1
 50
0
 73
    2
 44
1.54
  0
MTEXT
  5
3FC
100
AcDbEntity
  8
condenser
  6
ByLayer
 62
  256
370
   -1
100
AcDbMText
 10
-19.73568539538377
 20
76.42710421823817
 30
0
 40
1
 41
0.4444444444444444
 71
    5
 72
    1
  1
+
  7
iso
210
0
220
0
230
1
 50
0
 73
    2
 44
1.54
  0
LINE
  5
3FD
100
AcDbEntity
  8
4_GND
  6
ByLayer
 62
  256
370
   -1
100
AcDbLine
 10
-18.42000000000031
 20
84.26000000000039
 11
-18.42000000000031
 21
79.18000000000035
  0
CIRCLE
  5
3FE
100
AcDbEntity
  8
terminal
  6
ByLayer
 62
  256
370
   -1
100
AcDbCircle
 10
6.999999999998264
 20
84.79999999999964
 40
0.46
  0
CIRCLE
  5
3FF
100
AcDbEntity
  8
terminal
  6
ByLayer
 62
  256
370
   -1
100
AcDbCircle
 10
9.500000000000345
 20
84.79999989222543
 40
0.46
  0
CIRCLE
  5
400
100
AcDbEntity
  8
terminal
  6
ByLayer
 62
  256
370
   -1
100
AcDbCircle
 10
6.999999999998264
 20
86.80000000000045
 40
0.46
  0
CIRCLE
  5
401
100
AcDbEntity
  8
terminal
  6
ByLayer
 62
  256
370
   -1
100
AcDbCircle
 10
9.500000000000345
 20
86.79999989222624
 40
0.46
  0
CIRCLE
  5
402
100
AcDbEntity
  8
terminal
  6
ByLayer
 62
  256
370
   -1
100
AcDbCircle
 10
2.229999999999712
 20
89.50000000000045
 40
1.15
  0
CIRCLE
  5
403
100
AcDbEntity
  8
terminal
  6
ByLayer
 62
  256
370
   -1
100
AcDbCircle
 10
14.26999999999886
 20
89.50000000000047
 40
1.15
  0
LINE
  5
404
100
AcDbEntity
  8
terminal
  6
ByLayer
 62
  256
370
   -1
100
AcDbLine
 10
2.230001529863997
 20
99.78000000000041
 11
2.230001529863997
 21
83.78000000000043
  0
LINE
  5
405
100
AcDbEntity
  8
terminal
  6
ByLayer
 62
  256
370
   -1
100
AcDbLine
 10
2.230001529863997
 20
83.78000000000043
 11
14.27000152986352
 21
83.78000000000043
  0
LINE
  5
406
100
AcDbEntity
  8
terminal
  6
ByLayer
 62
  256
370
   -1
100
AcDbLine
 10
14.27000152986352
 20
83.78000000000043
 11
14.27000152986352
 21
99.78000000000041
  0
LINE
  5
407
100
AcDbEntity
  8
terminal
  6
ByLayer
 62
  256
370
   -1
100
AcDbLine
 10
14.27000152986352
 20
99.78000000000041
 11
2.230001529863997
 21
99.78000000000041
  0
MTEXT
  5
408
100
AcDbEntity
  8
terminal
  6
ByLayer
 62
  256
370
   -1
100
AcDbMText
 10
3.727106026683138
 20
98.46522859635934
 30
0
 40
1
 41
1.111111111111173
 71
    5
 72
    1
  1
J2
  7
iso
210
0
220
0
230
1
 50
0
 73
    2
 44
1.54
  0
MTEXT
  5
409
100
AcDbEntity
  8
terminal
  6
ByLayer
 62
  256
370
   -1
100
AcDbMText
 10
7.62108934107351
 20
86.94312689996346
 30
0
 40
1
 41
3.583333333333395
 71
    5
 72
    1
  1
1   2\P4   3
  7
iso
210
0
220
0
230
1
 50
0
 73
    2
 44
1.54
  0
CIRCLE
  5
40A
100
AcDbEntity
  8
condenser
  6
ByLayer
 62
  256
370
   -1
100
AcDbCircle
 10
1.899999999998808
 20
76.64000000000058
 40
0.3
  0
CIRCLE
  5
40B
100
AcDbEntity
  8
condenser
  6
ByLayer
 62
  256
370
   -1
100
AcDbCircle
 10
1.899999999998808
 20
77.91000000000101
 40
3.15
  0
CIRCLE
  5
40C
100
AcDbEntity
  8
condenser
  6
ByLayer
 62
  256
370
   -1
100
AcDbCircle
 10
1.899999999998808
 20
79.18000000000036
 40
0.3
  0
MTEXT
  5
40D
100
AcDbEntity
  8
condenser
  6
ByLayer
 62
  256
370
   -1
100
AcDbMText
 10
0.5843146046153507
 20
76.42710421823818
 30
0
 40
1
 41
0.4444444444444444
 71
    5
 72
    1
  1
+
  7
iso
210
0
220
0
230
1
 50
0
 73
    2
 44
1.54
  0
MTEXT
  5
40E
100
AcDbEntity
  8
condenser
  6
ByLayer
 62
  256
370
   -1
100
AcDbMText
 10
0.3541124834760794
 20
79.34299775266895
 30
0
 40
1
 41
1.222222222222284
 71
    5
 72
    1
  1
C2
  7
iso
210
0
220
0
230
1
 50
0
 73
    2
 44
1.54
  0
CIRCLE
  5
40F
100
AcDbEntity
  8
terminal
  6
ByLayer
 62
  256
370
   -1
100
AcDbCircle
 10
12.05999999999831
 20
79.1800000000004
 40
0.3
  0
CIRCLE
  5
410
100
AcDbEntity
  8
terminal
  6
ByLayer
 62
  256
370
   -1
100
AcDbCircle
 10
14.5599999999988
 20
79.1800000000004
 40
0.3
  0
CIRCLE
  5
411
100
AcDbEntity
  8
terminal
  6
ByLayer
 62
  256
370
   -1
100
AcDbCircle
 10
9.559999999997817
 20
79.1800000000004
 40
0.3
  0
LINE
  5
412
100
AcDbEntity
  8
terminal
  6
ByLayer
 62
  256
370
   -1
100
AcDbLine
 10
17.00999999999852
 20
75.78000000000064
 11
17.00999999999852
 21
81.53000000000046
  0
LINE
  5
413
100
AcDbEntity
  8
terminal
  6
ByLayer
 62
  256
370
   -1
100
AcDbLine
 10
17.00999999999852
 20
81.53000000000046
 11
7.109999999998099
 21
81.53000000000046
  0
LINE
  5
414
100
AcDbEntity
  8
terminal
  6
ByLayer
 62
  256
370
   -1
100
AcDbLine
 10
7.109999999998099
 20
75.78000000000064
 11
17.00999999999852
 21
75.78000000000064
  0
LINE
  5
415
100
AcDbEntity
  8
terminal
  6
ByLayer
 62
  256
370
   -1
100
AcDbLine
 10
7.109999999998099
 20
81.53000000000046
 11
7.109999999998099
 21
75.78000000000064
  0
LINE
  5
416
100
AcDbEntity
  8
4_GND
  6
ByLayer
 62
  256
370
   -1
100
AcDbLine
 10
6.97999999999856
 20
84.26000000000042
 11
1.89999999999873
 21
84.26000000000045
  0
LINE
  5
417
100
AcDbEntity
  8
4_GND
  6
ByLayer
 62
  256
370
   -1
100
AcDbLine
 10
1.89999999999873
 20
84.26000000000045
 11
1.89999999999873
 21
89.34000000000049
  0
LINE
  5
418
100
AcDbEntity
  8
4_GND
  6
ByLayer
 62
  256
370
   -1
100
AcDbLine
 10
1.89999999999873
 20
84.26000000000045
 11
1.89999999999873
 21
79.1800000000004
  0
LINE
  5
419
100
AcDbEntity
  8
1_VBUS
  6
ByLayer
 62
  256
370
   -1
100
AcDbLine
 10
6.97999999999856
 20
86.80000000000044
 11
6.97999999999856
 21
91.88000000000048
  0
LINE
  5
41A
100
AcDbEntity
  8
1_VBUS
  6
ByLayer
 62
  256
370
   -1
100
AcDbLine
 10
6.97999999999856
 20
91.88000000000048
 11
17.13999999999808
 21
91.88000000000051
  0
LINE
  5
41B
100
AcDbEntity
  8
1_VBUS
  6
ByLayer
 62
  256
370
   -1
100
AcDbLine
 10
17.13999999999808
 20
91.88000000000051
 11
17.13999999999808
 21
79.1800000000004
  0
LINE
  5
41C
100
AcDbEntity
  8
1_VBUS
  6
ByLayer
 62
  256
370
   -1
100
AcDbLine
 10
17.13999999999808
 20
79.1800000000004
 11
14.59999999999819
 21
79.1800000000004
  0
LINE
  5
41D
100
AcDbEntity
  8
1_VBUS
  6
ByLayer
 62
  256
370
   -1
100
AcDbLine
 10
14.59999999999819
 20
79.1800000000004
 11
14.59999999999819
 21
76.64000000000038
  0
LINE
  5
41E
100
AcDbEntity
  8
1_VBUS
  6
ByLayer
 62
  256
370
   -1
100
AcDbLine
 10
14.59999999999819
 20
76.64000000000038
 11
1.899999999998808
 21
76.64000000000058
  0
LINE
  5
41F
100
AcDbEntity
  8
2_D-_line
  6
ByLayer
 62
  256
370
   -1
100
AcDbLine
 10
9.500000000000345
 20
86.79999989222624
 11
12.05999999999831
 21
86.80000000000045
  0
LINE
  5
420
100
AcDbEntity
  8
2_D-_line
  6
ByLayer
 62
  256
370
   -1
100
AcDbLine
 10
12.05999999999831
 20
86.80000000000045
 11
12.05999999999831
 21
79.1800000000004
  0
LINE
  5
421
100
AcDbEntity
  8
3_D+_line
  6
ByLayer
 62
  256
370
   -1
100
AcDbLine
 10
9.500000000000345
 20
84.79999989222543
 11
9.51999999999844
 21
79.18000000000038
  0
MTEXT
  5
422
100
AcDbEntity
  8
terminal
  6
ByLayer
 62
  256
370
   -1
100
AcDbMText
 10
-4.90635216282084
 20
60.90644064191387
 30
0
 40
1
 41
7.166666666666728
 71
    5
 72
    1
  1
1  2  3  4
  7
iso
210
0
220
0
230
1
 50
0
 73
    2
 44
1.54
  0
CIRCLE
  5
423
100
AcDbEntity
  8
terminal
  6
ByLayer
 62
  256
370
   -1
100
AcDbCircle
 10
-26.03999999999994
 20
84.26000000000037
 40
0.3
  0
CIRCLE
  5
424
100
AcDbEntity
  8
terminal
  6
ByLayer
 62
  256
370
   -1
100
AcDbCircle
 10
-26.03999999999994
 20
86.76000000000086
 40
0.3
  0
CIRCLE
  5
425
100
AcDbEntity
  8
terminal
  6
ByLayer
 62
  256
370
   -1
100
AcDbCircle
 10
-26.03999999999994
 20
81.75999999999988
 40
0.3
  0
LINE
  5
426
100
AcDbEntity
  8
terminal
  6
ByLayer
 62
  256
370
   -1
100
AcDbLine
 10
-22.64000000000018
 20
89.21000000000058
 11
-28.38999999999999
 21
89.21000000000058
  0
LINE
  5
427
100
AcDbEntity
  8
terminal
  6
ByLayer
 62
  256
370
   -1
100
AcDbLine
 10
-28.38999999999999
 20
89.21000000000058
 11
-28.38999999999999
 21
79.31000000000016
  0
LINE
  5
428
100
AcDbEntity
  8
terminal
  6
ByLayer
 62
  256
370
   -1
100
AcDbLine
 10
-22.64000000000018
 20
79.31000000000016
 11
-22.64000000000018
 21
89.21000000000058
  0
LINE
  5
429
100
AcDbEntity
  8
terminal
  6
ByLayer
 62
  256
370
   -1
100
AcDbLine
 10
-28.38999999999999
 20
79.31000000000016
 11
-22.64000000000018
 21
79.31000000000016
  0
CIRCLE
  5
42A
100
AcDbEntity
  8
terminal
  6
ByLayer
 62
  256
370
   -1
100
AcDbCircle
 10
-36.1999999999998
 20
83.99000000000004
 40
0.46
  0
CIRCLE
  5
42B
100
AcDbEntity
  8
terminal
  6
ByLayer
 62
  256
370
   -1
100
AcDbCircle
 10
-36.19999999999982
 20
81.99000000000137
 40
0.46
  0
CIRCLE
  5
42C
100
AcDbEntity
  8
terminal
  6
ByLayer
 62
  256
370
   -1
100
AcDbCircle
 10
-36.1999999999998
 20
86.49000000000009
 40
0.46
  0
CIRCLE
  5
42D
100
AcDbEntity
  8
terminal
  6
ByLayer
 62
  256
370
   -1
100
AcDbCircle
 10
-36.19999999999982
 20
79.49000000000184
 40
0.46
  0
CIRCLE
  5
42E
100
AcDbEntity
  8
terminal
  6
ByLayer
 62
  256
370
   -1
100
AcDbCircle
 10
-33.49999999999994
 20
89.5600000000006
 40
1.15
  0
CIRCLE
  5
42F
100
AcDbEntity
  8
terminal
  6
ByLayer
 62
  256
370
   -1
100
AcDbCircle
 10
-33.49999999999995
 20
76.42000000000078
 40
1.15
  0
LINE
  5
430
100
AcDbEntity
  8
terminal
  6
ByLayer
 62
  256
370
   -1
100
AcDbLine
 10
-29.77999999999997
 20
89.24000000000058
 11
-29.77999999999997
 21
76.74000000000082
  0
LINE
  5
431
100
AcDbEntity
  8
terminal
  6
ByLayer
 62
  256
370
   -1
100
AcDbLine
 10
-29.77999999999997
 20
76.74000000000082
 11
-43.77999999999997
 21
76.74000000000082
  0
LINE
  5
432
100
AcDbEntity
  8
terminal
  6
ByLayer
 62
  256
370
   -1
100
AcDbLine
 10
-43.77999999999997
 20
76.74000000000082
 11
-43.77999999999997
 21
89.24000000000058
  0
LINE
  5
433
100
AcDbEntity
  8
terminal
  6
ByLayer
 62
  256
370
   -1
100
AcDbLine
 10
-43.77999999999997
 20
89.24000000000058
 11
-29.77999999999996
 21
89.24000000000058
  0
MTEXT
  5
434
100
AcDbEntity
  8
terminal
  6
ByLayer
 62
  256
370
   -1
100
AcDbMText
 10
-37.9045436872274
 20
83.40963944153827
 30
0
 40
1
 41
0.5555555555555556
 71
    5
 72
    1
  1
1\P2\P3\P4
  7
iso
210
0
220
0
230
1
 50
0
 73
    2
 44
1.54
  0
LINE
  5
435
100
AcDbEntity
  8
1_VBUS
  6
ByLayer
 62
  256
370
   -1
100
AcDbLine
 10
-26.03999999999998
 20
86.80000000000041
 11
-36.19999999999955
 21
86.80000000000041
  0
LINE
  5
436
100
AcDbEntity
  8
2_D-_line
  6
ByLayer
 62
  256
370
   -1
100
AcDbLine
 10
-26.03999999999998
 20
84.26000000000039
 11
-36.19999999999955
 21
84.26000000000039
  0
LINE
  5
437
100
AcDbEntity
  8
3_D+_line
  6
ByLayer
 62
  256
370
   -1
100
AcDbLine
 10
-26.03999999999998
 20
81.72000000000037
 11
-36.19999999999955
 21
81.72000000000037
  0
LINE
  5
438
100
AcDbEntity
  8
4_GND
  6
ByLayer
 62
  256
370
   -1
100
AcDbLine
 10
-36.19999999999955
 20
79.18000000000035
 11
-18.42000000000031
 21
79.18000000000035
  0
LINE
  5
439
100
AcDbEntity
  8
4_GND
  6
ByLayer
 62
  256
370
   -1
100
AcDbLine
 10
1.899999999998769
 20
79.18000000000038
 11
-0.6400000000011108
 21
79.18000000000038
  0
LINE
  5
43A
100
AcDbEntity
  8
4_GND
  6
ByLayer
 62
  256
370
   -1
100
AcDbLine
 10
-0.6400000000011108
 20
79.18000000000038
 11
-0.6400000000011108
 21
74.10000000000034
  0
LINE
  5
43B
100
AcDbEntity
  8
4_GND
  6
ByLayer
 62
  256
370
   -1
100
AcDbLine
 10
-0.6400000000011108
 20
74.10000000000034
 11
-20.96000000000021
 21
74.10000000000031
  0
LINE
  5
43C
100
AcDbEntity
  8
4_GND
  6
ByLayer
 62
  256
370
   -1
100
AcDbLine
 10
-20.96000000000021
 20
74.10000000000031
 11
-20.96000000000021
 21
79.18000000000035
  0
LINE
  5
43D
100
AcDbEntity
  8
draft
  6
ByLayer
 62
  256
370
   -1
100
AcDbLine
 10
-26.03999999999998
 20
71.56000000000029
 11
-26.03999999999998
 21
81.56000000000029
  0
LINE
  5
43E
100
AcDbEntity
  8
draft
  6
ByLayer
 62
  256
370
   -1
100
AcDbLine
 10
-26.03999999999998
 20
72.82999999999936
 11
-16.03999999999998
 21
72.82999999999936
  0
LINE
  5
43F
100
AcDbEntity
  8
draft
  6
ByLayer
 62
  256
370
   -1
100
AcDbLine
 10
-40.00999999999883
 20
71.56000000000029
 11
-40.00999999999883
 21
81.56000000000029
  0
LINE
  5
440
100
AcDbEntity
  8
draft
  6
ByLayer
 62
  256
370
   -1
100
AcDbLine
 10
-26.03999999999998
 20
93.14999999999952
 11
-16.03999999999998
 21
93.14999999999952
  0
LINE
  5
441
100
AcDbEntity
  8
draft
  6
ByLayer
 62
  256
370
   -1
100
AcDbLine
 10
18.4099999999986
 20
71.56000000000034
 11
18.4099999999986
 21
81.56000000000034
  0
LINE
  5
442
100
AcDbEntity
  8
universal board
  6
ByLayer
 62
  256
370
   -1
100
AcDbLine
 10
18.4099999999986
 20
93.14999999999952
 11
18.4099999999986
 21
72.82999999999936
  0
LINE
  5
443
100
AcDbEntity
  8
universal board
  6
ByLayer
 62
  256
370
   -1
100
AcDbLine
 10
18.4099999999986
 20
72.82999999999936
 11
-40.00999999999883
 21
72.82999999999936
  0
LINE
  5
444
100
AcDbEntity
  8
universal board
  6
ByLayer
 62
  256
370
   -1
100
AcDbLine
 10
-40.00999999999883
 20
72.82999999999936
 11
-40.00999999999883
 21
93.14999999999952
  0
LINE
  5
445
100
AcDbEntity
  8
universal board
  6
ByLayer
 62
  256
370
   -1
100
AcDbLine
 10
-40.00999999999883
 20
93.14999999999952
 11
18.4099999999986
 21
93.14999999999952
  0
MTEXT
  5
446
100
AcDbEntity
  8
universal board
  6
ByLayer
 62
  256
370
   -1
100
AcDbMText
 10
-38.28020549711492
 20
92.20592211867881
 30
0
 40
1
 41
2
 71
    5
 72
    1
  1
UB1
  7
iso
210
0
220
0
230
1
 50
0
 73
    2
 44
1.54
  0
MTEXT
  5
447
100
AcDbEntity
  8
terminal
  6
ByLayer
 62
  256
370
   -1
100
AcDbMText
 10
-42.87978291442041
 20
78.5993137277822
 30
0
 40
1
 41
1.111111111111235
 71
    5
 72
    1
  1
J3
  7
iso
210
0
220
0
230
1
 50
0
 73
    2
 44
1.54
  0
MTEXT
  5
448
100
AcDbEntity
  8
terminal
  6
ByLayer
 62
  256
370
   -1
100
AcDbMText
 10
-24.43008089514369
 20
87.97393960140984
 30
0
 40
1
 41
2.111111111111111
 71
    5
 72
    1
  1
XH1
  7
iso
210
0
220
0
230
1
 50
0
 73
    2
 44
1.54
  0
MTEXT
  5
449
100
AcDbEntity
  8
terminal
  6
ByLayer
 62
  256
370
   -1
100
AcDbMText
 10
-5.642643356358648
 20
80.66415161703613
 30
0
 40
1
 41
2.333333333333333
 71
    5
 72
    1
  1
XH2
  7
iso
210
0
220
0
230
1
 50
0
 73
    2
 44
1.54
  0
MTEXT
  5
44A
100
AcDbEntity
  8
terminal
  6
ByLayer
 62
  256
370
   -1
100
AcDbMText
 10
15.26078544106089
 20
80.60003066980478
 30
0
 40
1
 41
2.333333333333395
 71
    5
 72
    1
  1
XH3
  7
iso
210
0
220
0
230
1
 50
0
 73
    2
 44
1.54
  0
MTEXT
  5
44B
100
AcDbEntity
  8
0
  6
ByLayer
 62
  256
370
   -1
100
AcDbMText
 10
-39.96738208110273
 20
98.77184763708546
 30
0
 40
1
 41
17.27777829206525
 71
    4
 72
    1
  1
C1,2 : C, 100uF\PJ1,2 : USB B recepter\PJ3   : USB A recepter\PXH1-3: XH header, 3 pins
  7
iso
210
0
220
0
230
1
 50
0
 73
    2
 44
1.54
  0
ENDSEC
  0
SECTION
  2
OBJECTS
  0
DICTIONARY
  5
C
330
0
100
AcDbDictionary
281
    1
  3
ACAD_GROUP
350
D
  0
DICTIONARY
  5
D
330
C
100
AcDbDictionary
281
    1
  0
PLOTSETTINGS
  5
44C
100
AcDbPlotSettings
  6
1x1
 40
0
 41
0
 42
0
 43
0
  0
ENDSEC
  0
EOF
