999
dxfrw 0.6.3
  0
SECTION
  2
HEADER
  9
$ACADVER
  1
AC1021
  9
$DWGCODEPAGE
  3
ANSI_1252
  9
$INSBASE
 10
0
 20
0
 30
0
  9
$EXTMIN
 10
-58.11999746104159
 20
-333.5700000000013
 30
0
  9
$EXTMAX
 10
48.88999999999694
 20
58.3784209593577
 30
0
  9
$LIMMIN
 10
0
 20
0
  9
$LIMMAX
 10
420
 20
297
  9
$ORTHOMODE
 70
    0
  9
$REGENMODE
 70
    1
  9
$FILLMODE
 70
    1
  9
$QTEXTMODE
 70
    0
  9
$MIRRTEXT
 70
    0
  9
$LTSCALE
 40
1
  9
$ATTMODE
 70
    0
  9
$TEXTSIZE
 40
2.5
  9
$TRACEWID
 40
15.68
  9
$TEXTSTYLE
  7
STANDARD
  9
$CLAYER
  8
0_GND
  9
$CELTYPE
  6
BYLAYER
  9
$CECOLOR
 62
  256
  9
$CELTSCALE
 40
1
  9
$DISPSILH
 70
    0
  9
$DIMSCALE
 40
1
  9
$DIMASZ
 40
2.5
  9
$DIMEXO
 40
0.625
  9
$DIMDLI
 40
3.75
  9
$DIMRND
 40
0
  9
$DIMDLE
 40
0
  9
$DIMEXE
 40
1.25
  9
$DIMTP
 40
0
  9
$DIMTM
 40
0
  9
$DIMTXT
 40
2.5
  9
$DIMCEN
 40
2.5
  9
$DIMTSZ
 40
0
  9
$DIMTOL
 70
    0
  9
$DIMLIM
 70
    0
  9
$DIMTIH
 70
    0
  9
$DIMTOH
 70
    0
  9
$DIMSE1
 70
    0
  9
$DIMSE2
 70
    0
  9
$DIMTAD
 70
    1
  9
$DIMZIN
 70
    8
  9
$DIMBLK
  1

  9
$DIMASO
 70
    1
  9
$DIMSHO
 70
    1
  9
$DIMPOST
  1

  9
$DIMAPOST
  1

  9
$DIMALT
 70
    0
  9
$DIMALTD
 70
    3
  9
$DIMALTF
 40
0.03937
  9
$DIMLFAC
 40
1
  9
$DIMTOFL
 70
    1
  9
$DIMTVP
 40
0
  9
$DIMTIX
 70
    0
  9
$DIMSOXD
 70
    0
  9
$DIMSAH
 70
    0
  9
$DIMBLK1
  1

  9
$DIMBLK2
  1

  9
$DIMSTYLE
  2
STANDARD
  9
$DIMCLRD
 70
    0
  9
$DIMCLRE
 70
    0
  9
$DIMCLRT
 70
    0
  9
$DIMTFAC
 40
1
  9
$DIMGAP
 40
0.625
  9
$DIMJUST
 70
    0
  9
$DIMSD1
 70
    0
  9
$DIMSD2
 70
    0
  9
$DIMTOLJ
 70
    0
  9
$DIMTZIN
 70
    8
  9
$DIMALTZ
 70
    0
  9
$DIMALTTZ
 70
    0
  9
$DIMUPT
 70
    0
  9
$DIMDEC
 70
    2
  9
$DIMTDEC
 70
    2
  9
$DIMALTU
 70
    2
  9
$DIMALTTD
 70
    3
  9
$DIMTXSTY
  7
STANDARD
  9
$DIMAUNIT
 70
    0
  9
$DIMADEC
 70
    0
  9
$DIMALTRND
 40
0
  9
$DIMAZIN
 70
    0
  9
$DIMDSEP
 70
   44
  9
$DIMATFIT
 70
    3
  9
$DIMFRAC
 70
    0
  9
$DIMLDRBLK
  1
STANDARD
  9
$DIMLUNIT
 70
    2
  9
$DIMLWD
 70
   -2
  9
$DIMLWE
 70
   -2
  9
$DIMTMOVE
 70
    0
  9
$DIMFXL
 40
1
  9
$DIMFXLON
 70
    0
  9
$DIMJOGANG
 40
0.7854
  9
$DIMTFILL
 70
    0
  9
$DIMTFILLCLR
 70
    0
  9
$DIMARCSYM
 70
    0
  9
$DIMLTYPE
  6

  9
$DIMLTEX1
  6

  9
$DIMLTEX2
  6

  9
$LUNITS
 70
    2
  9
$LUPREC
 70
    4
  9
$SKETCHINC
 40
1
  9
$FILLETRAD
 40
0
  9
$AUNITS
 70
    0
  9
$AUPREC
 70
    2
  9
$MENU
  1
.
  9
$ELEVATION
 40
0
  9
$PELEVATION
 40
0
  9
$THICKNESS
 40
0
  9
$LIMCHECK
 70
    0
  9
$CHAMFERA
 40
0
  9
$CHAMFERB
 40
0
  9
$CHAMFERC
 40
0
  9
$CHAMFERD
 40
0
  9
$SKPOLY
 70
    0
  9
$USRTIMER
 70
    1
  9
$ANGBASE
 50
0
  9
$ANGDIR
 70
    0
  9
$PDMODE
 70
   34
  9
$PDSIZE
 40
0
  9
$PLINEWID
 40
0
  9
$SPLFRAME
 70
    0
  9
$SPLINETYPE
 70
    2
  9
$SPLINESEGS
 70
    8
  9
$HANDSEED
  5
20000
  9
$SURFTAB1
 70
    6
  9
$SURFTAB2
 70
    6
  9
$SURFTYPE
 70
    6
  9
$SURFU
 70
    6
  9
$SURFV
 70
    6
  9
$UCSBASE
  2

  9
$UCSNAME
  2

  9
$UCSORG
 10
0
 20
0
 30
0
  9
$UCSXDIR
 10
1
 20
0
 30
0
  9
$UCSYDIR
 10
0
 20
1
 30
0
  9
$UCSORTHOREF
  2

  9
$UCSORTHOVIEW
 70
    0
  9
$UCSORGTOP
 10
0
 20
0
 30
0
  9
$UCSORGBOTTOM
 10
0
 20
0
 30
0
  9
$UCSORGLEFT
 10
0
 20
0
 30
0
  9
$UCSORGRIGHT
 10
0
 20
0
 30
0
  9
$UCSORGFRONT
 10
0
 20
0
 30
0
  9
$UCSORGBACK
 10
0
 20
0
 30
0
  9
$PUCSBASE
  2

  9
$PUCSNAME
  2

  9
$PUCSORG
 10
0
 20
0
 30
0
  9
$PUCSXDIR
 10
1
 20
0
 30
0
  9
$PUCSYDIR
 10
0
 20
1
 30
0
  9
$PUCSORTHOREF
  2

  9
$PUCSORTHOVIEW
 70
    0
  9
$PUCSORGTOP
 10
0
 20
0
 30
0
  9
$PUCSORGBOTTOM
 10
0
 20
0
 30
0
  9
$PUCSORGLEFT
 10
0
 20
0
 30
0
  9
$PUCSORGRIGHT
 10
0
 20
0
 30
0
  9
$PUCSORGFRONT
 10
0
 20
0
 30
0
  9
$PUCSORGBACK
 10
0
 20
0
 30
0
  9
$USERI1
 70
    0
  9
$USERI2
 70
    0
  9
$USERI3
 70
    0
  9
$USERI4
 70
    0
  9
$USERI5
 70
    0
  9
$USERR1
 40
0
  9
$USERR2
 40
0
  9
$USERR3
 40
0
  9
$USERR4
 40
0
  9
$USERR5
 40
0
  9
$WORLDVIEW
 70
    1
  9
$SHADEDGE
 70
    3
  9
$SHADEDIF
 70
   70
  9
$TILEMODE
 70
    1
  9
$MAXACTVP
 70
   64
  9
$PINSBASE
 10
110.9072834645669
 20
139.7465551181103
 30
0
  9
$PLIMCHECK
 70
    0
  9
$PEXTMIN
 10
0
 20
0
 30
0
  9
$PEXTMAX
 10
0
 20
0
 30
0
  9
$GRIDMODE
 70
    0
  9
$SNAPSTYLE
 70
    0
  9
$PLIMMIN
 10
0
 20
0
  9
$PLIMMAX
 10
210
 20
297
  9
$UNITMODE
 70
    0
  9
$VISRETAIN
 70
    1
  9
$PLINEGEN
 70
    0
  9
$PSLTSCALE
 70
    1
  9
$TREEDEPTH
 70
 3020
  9
$CMLSTYLE
  2
Standard
  9
$CMLJUST
 70
    0
  9
$CMLSCALE
 40
20
  9
$PROXYGRAPHICS
 70
    1
  9
$MEASUREMENT
 70
    1
  9
$CELWEIGHT
370
   -1
  9
$ENDCAPS
280
    0
  9
$JOINSTYLE
280
    0
  9
$LWDISPLAY
290
    0
  9
$INSUNITS
 70
    0
  9
$HYPERLINKBASE
  1

  9
$STYLESHEET
  1

  9
$XEDIT
290
    1
  9
$CEPSNTYPE
380
    0
  9
$PSTYLEMODE
290
    1
  9
$EXTNAMES
290
    1
  9
$PSVPSCALE
 40
0.2066927099481201
  9
$OLESTARTUP
290
    0
  9
$SORTENTS
280
  127
  9
$INDEXCTL
280
    0
  9
$HIDETEXT
280
    1
  9
$XCLIPFRAME
290
    0
  9
$HALOGAP
280
    0
  9
$OBSCOLOR
 70
  257
  9
$OBSLTYPE
280
    0
  9
$INTERSECTIONDISPLAY
280
    0
  9
$INTERSECTIONCOLOR
 70
  257
  9
$DIMASSOC
280
    1
  9
$PROJECTNAME
  1

  9
$CAMERADISPLAY
290
    0
  9
$LENSLENGTH
 40
50
  9
$CAMERAHEIGHT
 40
0
  9
$STEPSPERSEC
 40
2
  9
$STEPSIZE
 40
50
  9
$3DDWFPREC
 40
2
  9
$PSOLWIDTH
 40
5
  9
$PSOLHEIGHT
 40
80
  9
$LOFTANG1
 40
1.570796326794897
  9
$LOFTANG2
 40
1.570796326794897
  9
$LOFTMAG1
 40
0
  9
$LOFTMAG2
 40
0
  9
$LOFTPARAM
 70
    7
  9
$LOFTNORMALS
280
    1
  9
$LATITUDE
 40
1
  9
$LONGITUDE
 40
1
  9
$NORTHDIRECTION
 40
0
  9
$TIMEZONE
 70
-8000
  9
$LIGHTGLYPHDISPLAY
280
    1
  9
$TILEMODELIGHTSYNCH
280
    1
  9
$SOLIDHIST
280
    1
  9
$SHOWHIST
280
    1
  9
$DWFFRAME
280
    2
  9
$DGNFRAME
280
    0
  9
$REALWORLDSCALE
290
    1
  9
$INTERFERECOLOR
 62
    1
  9
$CSHADOW
280
    0
  9
$SHADOWPLANELOCATION
 40
0
  0
ENDSEC
  0
SECTION
  2
CLASSES
  0
ENDSEC
  0
SECTION
  2
TABLES
  0
TABLE
  2
VPORT
  5
8
330
0
100
AcDbSymbolTable
 70
    1
  0
VPORT
  5
31
330
2
100
AcDbSymbolTableRecord
100
AcDbViewportTableRecord
  2
*ACTIVE
 70
    0
 10
0
 20
0
 11
1
 21
1
 12
25.68349826666298
 22
35.94234601623658
 13
0
 23
0
 14
10
 24
10
 15
10
 25
10
 16
0
 26
0
 36
1
 17
0
 27
0
 37
0
 40
71.81193424701519
 41
1.564336372847011
 42
50
 43
0
 44
0
 50
0
 51
0
 71
    0
 72
  100
 73
    1
 74
    3
 75
    0
 76
    0
 77
    0
 78
    0
281
    0
 65
    1
110
0
120
0
130
0
111
1
121
0
131
0
112
0
122
1
132
0
 79
    0
146
0
348
10020
 60
    7
 61
    5
292
1
282
    1
141
0
142
0
 63
  250
421
3358443
  0
ENDTAB
  0
TABLE
  2
LTYPE
  5
5
330
0
100
AcDbSymbolTable
 70
    4
  0
LTYPE
  5
14
330
5
100
AcDbSymbolTableRecord
100
AcDbLinetypeTableRecord
  2
ByBlock
 70
    0
  3

 72
   65
 73
    0
 40
0
  0
LTYPE
  5
15
330
5
100
AcDbSymbolTableRecord
100
AcDbLinetypeTableRecord
  2
ByLayer
 70
    0
  3

 72
   65
 73
    0
 40
0
  0
LTYPE
  5
16
330
5
100
AcDbSymbolTableRecord
100
AcDbLinetypeTableRecord
  2
Continuous
 70
    0
  3
Solid line
 72
   65
 73
    0
 40
0
  0
LTYPE
  5
32
330
5
100
AcDbSymbolTableRecord
100
AcDbLinetypeTableRecord
  2
DOT
 70
    0
  3
Dot . . . . . . . . . . . . . . . . . . . . . .
 72
   65
 73
    2
 40
6.35
 49
0
 74
    0
 49
-6.35
 74
    0
  0
LTYPE
  5
33
330
5
100
AcDbSymbolTableRecord
100
AcDbLinetypeTableRecord
  2
DOTTINY
 70
    0
  3
Dot (.15x) .....................................
 72
   65
 73
    2
 40
0.9525
 49
0
 74
    0
 49
-0.9525
 74
    0
  0
LTYPE
  5
34
330
5
100
AcDbSymbolTableRecord
100
AcDbLinetypeTableRecord
  2
DOT2
 70
    0
  3
Dot (.5x) .....................................
 72
   65
 73
    2
 40
3.175
 49
0
 74
    0
 49
-3.175
 74
    0
  0
LTYPE
  5
35
330
5
100
AcDbSymbolTableRecord
100
AcDbLinetypeTableRecord
  2
DOTX2
 70
    0
  3
Dot (2x) .  .  .  .  .  .  .  .  .  .  .  .  .
 72
   65
 73
    2
 40
12.7
 49
0
 74
    0
 49
-12.7
 74
    0
  0
LTYPE
  5
36
330
5
100
AcDbSymbolTableRecord
100
AcDbLinetypeTableRecord
  2
DASHED
 70
    0
  3
Dashed _ _ _ _ _ _ _ _ _ _ _ _ _ _ _ _ _
 72
   65
 73
    2
 40
19.05
 49
12.7
 74
    0
 49
-6.35
 74
    0
  0
LTYPE
  5
37
330
5
100
AcDbSymbolTableRecord
100
AcDbLinetypeTableRecord
  2
DASHEDTINY
 70
    0
  3
Dashed (.15x) _ _ _ _ _ _ _ _ _ _ _ _ _ _ _ _ _
 72
   65
 73
    2
 40
2.8575
 49
1.905
 74
    0
 49
-0.9525
 74
    0
  0
LTYPE
  5
38
330
5
100
AcDbSymbolTableRecord
100
AcDbLinetypeTableRecord
  2
DASHED2
 70
    0
  3
Dashed (.5x) _ _ _ _ _ _ _ _ _ _ _ _ _ _ _ _ _
 72
   65
 73
    2
 40
9.524999999999999
 49
6.35
 74
    0
 49
-3.175
 74
    0
  0
LTYPE
  5
39
330
5
100
AcDbSymbolTableRecord
100
AcDbLinetypeTableRecord
  2
DASHEDX2
 70
    0
  3
Dashed (2x) ____  ____  ____  ____  ____  ___
 72
   65
 73
    2
 40
38.09999999999999
 49
25.4
 74
    0
 49
-12.7
 74
    0
  0
LTYPE
  5
3A
330
5
100
AcDbSymbolTableRecord
100
AcDbLinetypeTableRecord
  2
DASHDOT
 70
    0
  3
Dash dot __ . __ . __ . __ . __ . __ . __ . __
 72
   65
 73
    4
 40
25.4
 49
12.7
 74
    0
 49
-6.35
 74
    0
 49
0
 74
    0
 49
-6.35
 74
    0
  0
LTYPE
  5
3B
330
5
100
AcDbSymbolTableRecord
100
AcDbLinetypeTableRecord
  2
DASHDOTTINY
 70
    0
  3
Dash dot (.15x) _._._._._._._._._._._._._._._.
 72
   65
 73
    4
 40
3.81
 49
1.905
 74
    0
 49
-0.9525
 74
    0
 49
0
 74
    0
 49
-0.9525
 74
    0
  0
LTYPE
  5
3C
330
5
100
AcDbSymbolTableRecord
100
AcDbLinetypeTableRecord
  2
DASHDOT2
 70
    0
  3
Dash dot (.5x) _._._._._._._._._._._._._._._.
 72
   65
 73
    4
 40
12.7
 49
6.35
 74
    0
 49
-3.175
 74
    0
 49
0
 74
    0
 49
-3.175
 74
    0
  0
LTYPE
  5
3D
330
5
100
AcDbSymbolTableRecord
100
AcDbLinetypeTableRecord
  2
DASHDOTX2
 70
    0
  3
Dash dot (2x) ____  .  ____  .  ____  .  ___
 72
   65
 73
    4
 40
50.8
 49
25.4
 74
    0
 49
-12.7
 74
    0
 49
0
 74
    0
 49
-12.7
 74
    0
  0
LTYPE
  5
3E
330
5
100
AcDbSymbolTableRecord
100
AcDbLinetypeTableRecord
  2
DIVIDE
 70
    0
  3
Divide ____ . . ____ . . ____ . . ____ . . ____
 72
   65
 73
    6
 40
31.75
 49
12.7
 74
    0
 49
-6.35
 74
    0
 49
0
 74
    0
 49
-6.35
 74
    0
 49
0
 74
    0
 49
-6.35
 74
    0
  0
LTYPE
  5
3F
330
5
100
AcDbSymbolTableRecord
100
AcDbLinetypeTableRecord
  2
DIVIDETINY
 70
    0
  3
Divide (.15x) __..__..__..__..__..__..__..__.._
 72
   65
 73
    6
 40
4.7625
 49
1.905
 74
    0
 49
-0.9525
 74
    0
 49
0
 74
    0
 49
-0.9525
 74
    0
 49
0
 74
    0
 49
-0.9525
 74
    0
  0
LTYPE
  5
40
330
5
100
AcDbSymbolTableRecord
100
AcDbLinetypeTableRecord
  2
DIVIDE2
 70
    0
  3
Divide (.5x) __..__..__..__..__..__..__..__.._
 72
   65
 73
    6
 40
15.875
 49
6.35
 74
    0
 49
-3.175
 74
    0
 49
0
 74
    0
 49
-3.175
 74
    0
 49
0
 74
    0
 49
-3.175
 74
    0
  0
LTYPE
  5
41
330
5
100
AcDbSymbolTableRecord
100
AcDbLinetypeTableRecord
  2
DIVIDEX2
 70
    0
  3
Divide (2x) ________  .  .  ________  .  .  _
 72
   65
 73
    6
 40
63.5
 49
25.4
 74
    0
 49
-12.7
 74
    0
 49
0
 74
    0
 49
-12.7
 74
    0
 49
0
 74
    0
 49
-12.7
 74
    0
  0
LTYPE
  5
42
330
5
100
AcDbSymbolTableRecord
100
AcDbLinetypeTableRecord
  2
BORDER
 70
    0
  3
Border __ __ . __ __ . __ __ . __ __ . __ __ .
 72
   65
 73
    6
 40
44.45
 49
12.7
 74
    0
 49
-6.35
 74
    0
 49
12.7
 74
    0
 49
-6.35
 74
    0
 49
0
 74
    0
 49
-6.35
 74
    0
  0
LTYPE
  5
43
330
5
100
AcDbSymbolTableRecord
100
AcDbLinetypeTableRecord
  2
BORDERTINY
 70
    0
  3
Border (.15x) __.__.__.__.__.__.__.__.__.__.__.
 72
   65
 73
    6
 40
6.6675
 49
1.905
 74
    0
 49
-0.9525
 74
    0
 49
1.905
 74
    0
 49
-0.9525
 74
    0
 49
0
 74
    0
 49
-0.9525
 74
    0
  0
LTYPE
  5
44
330
5
100
AcDbSymbolTableRecord
100
AcDbLinetypeTableRecord
  2
BORDER2
 70
    0
  3
Border (.5x) __.__.__.__.__.__.__.__.__.__.__.
 72
   65
 73
    6
 40
22.225
 49
6.35
 74
    0
 49
-3.175
 74
    0
 49
6.35
 74
    0
 49
-3.175
 74
    0
 49
0
 74
    0
 49
-3.175
 74
    0
  0
LTYPE
  5
45
330
5
100
AcDbSymbolTableRecord
100
AcDbLinetypeTableRecord
  2
BORDERX2
 70
    0
  3
Border (2x) ____  ____  .  ____  ____  .  ___
 72
   65
 73
    6
 40
88.89999999999999
 49
25.4
 74
    0
 49
-12.7
 74
    0
 49
25.4
 74
    0
 49
-12.7
 74
    0
 49
0
 74
    0
 49
-12.7
 74
    0
  0
LTYPE
  5
46
330
5
100
AcDbSymbolTableRecord
100
AcDbLinetypeTableRecord
  2
CENTER
 70
    0
  3
Center ____ _ ____ _ ____ _ ____ _ ____ _ ____
 72
   65
 73
    4
 40
50.8
 49
31.75
 74
    0
 49
-6.35
 74
    0
 49
6.35
 74
    0
 49
-6.35
 74
    0
  0
LTYPE
  5
47
330
5
100
AcDbSymbolTableRecord
100
AcDbLinetypeTableRecord
  2
CENTERTINY
 70
    0
  3
Center (.15x) ___ _ ___ _ ___ _ ___ _ ___ _ ___
 72
   65
 73
    4
 40
7.619999999999999
 49
4.7625
 74
    0
 49
-0.9525
 74
    0
 49
0.9525
 74
    0
 49
-0.9525
 74
    0
  0
LTYPE
  5
48
330
5
100
AcDbSymbolTableRecord
100
AcDbLinetypeTableRecord
  2
CENTER2
 70
    0
  3
Center (.5x) ___ _ ___ _ ___ _ ___ _ ___ _ ___
 72
   65
 73
    4
 40
28.575
 49
19.05
 74
    0
 49
-3.175
 74
    0
 49
3.175
 74
    0
 49
-3.175
 74
    0
  0
LTYPE
  5
49
330
5
100
AcDbSymbolTableRecord
100
AcDbLinetypeTableRecord
  2
CENTERX2
 70
    0
  3
Center (2x) ________  __  ________  __  _____
 72
   65
 73
    4
 40
101.6
 49
63.5
 74
    0
 49
-12.7
 74
    0
 49
12.7
 74
    0
 49
-12.7
 74
    0
  0
ENDTAB
  0
TABLE
  2
LAYER
  5
2
330
0
100
AcDbSymbolTable
 70
    1
  0
LAYER
  5
10
330
2
100
AcDbSymbolTableRecord
100
AcDbLayerTableRecord
  2
0
 70
    0
 62
    7
  6
CONTINUOUS
370
   13
390
F
  0
LAYER
  5
4A
330
2
100
AcDbSymbolTableRecord
100
AcDbLayerTableRecord
  2
0_GND
 70
    0
 62
    7
  6
CONTINUOUS
370
   15
390
F
  0
LAYER
  5
4B
330
2
100
AcDbSymbolTableRecord
100
AcDbLayerTableRecord
  2
0_draft
 70
    1
 62
    7
  6
DOTTINY
370
   -3
390
F
1001
LibreCad
1070
    1
  0
LAYER
  5
4C
330
2
100
AcDbSymbolTableRecord
100
AcDbLayerTableRecord
  2
0_wire
 70
    0
 62
    3
  6
CONTINUOUS
370
   15
390
F
  0
LAYER
  5
4D
330
2
100
AcDbSymbolTableRecord
100
AcDbLayerTableRecord
  2
1_wire
 70
    0
 62
    2
  6
CONTINUOUS
370
   15
390
F
  0
LAYER
  5
4E
330
2
100
AcDbSymbolTableRecord
100
AcDbLayerTableRecord
  2
2_wire
 70
    0
 62
   40
420
16755200
  6
CONTINUOUS
370
   15
390
F
  0
LAYER
  5
4F
330
2
100
AcDbSymbolTableRecord
100
AcDbLayerTableRecord
  2
5V line
 70
    0
 62
    1
  6
CONTINUOUS
370
   15
390
F
  0
LAYER
  5
50
330
2
100
AcDbSymbolTableRecord
100
AcDbLayerTableRecord
  2
Regulator
 70
    0
 62
  162
420
18906
  6
CONTINUOUS
370
   15
390
F
  0
LAYER
  5
51
330
2
100
AcDbSymbolTableRecord
100
AcDbLayerTableRecord
  2
condenser
 70
    0
 62
    5
  6
CONTINUOUS
370
   15
390
F
  0
LAYER
  5
52
330
2
100
AcDbSymbolTableRecord
100
AcDbLayerTableRecord
  2
micon
 70
    0
 62
  216
420
8388736
  6
CONTINUOUS
370
   15
390
F
  0
LAYER
  5
53
330
2
100
AcDbSymbolTableRecord
100
AcDbLayerTableRecord
  2
pin socket, header
 70
    0
 62
   56
420
8421376
  6
CONTINUOUS
370
   15
390
F
  0
LAYER
  5
54
330
2
100
AcDbSymbolTableRecord
100
AcDbLayerTableRecord
  2
resister
 70
    0
 62
    4
  6
CONTINUOUS
370
   18
390
F
  0
LAYER
  5
55
330
2
100
AcDbSymbolTableRecord
100
AcDbLayerTableRecord
  2
switch
 70
    0
 62
  136
420
32896
  6
CONTINUOUS
370
   15
390
F
  0
LAYER
  5
56
330
2
100
AcDbSymbolTableRecord
100
AcDbLayerTableRecord
  2
terminal, connector
 70
    0
 62
   16
420
8388608
  6
CONTINUOUS
370
   15
390
F
  0
LAYER
  5
57
330
2
100
AcDbSymbolTableRecord
100
AcDbLayerTableRecord
  2
universal_board
 70
    4
 62
  253
420
10526884
  6
CONTINUOUS
370
   15
390
F
  0
ENDTAB
  0
TABLE
  2
STYLE
  5
3
330
0
100
AcDbSymbolTable
 70
    3
  0
STYLE
  5
58
330
2
100
AcDbSymbolTableRecord
100
AcDbTextStyleTableRecord
  2
STANDARD
 70
    0
 40
0
 41
1
 50
0
 71
    0
 42
1
  3
STANDARD
  4

  0
STYLE
  5
59
330
2
100
AcDbSymbolTableRecord
100
AcDbTextStyleTableRecord
  2
iso
 70
    0
 40
0
 41
1
 50
0
 71
    0
 42
1
  3
iso
  4

  0
ENDTAB
  0
TABLE
  2
VIEW
  5
6
330
0
100
AcDbSymbolTable
 70
    0
  0
ENDTAB
  0
TABLE
  2
UCS
  5
7
330
0
100
AcDbSymbolTable
 70
    0
  0
ENDTAB
  0
TABLE
  2
APPID
  5
9
330
0
100
AcDbSymbolTable
 70
    1
  0
APPID
  5
12
330
9
100
AcDbSymbolTableRecord
100
AcDbRegAppTableRecord
  2
ACAD
 70
    0
  0
APPID
  5
5A
330
9
100
AcDbSymbolTableRecord
100
AcDbRegAppTableRecord
  2
LibreCad
 70
    0
  0
ENDTAB
  0
TABLE
  2
DIMSTYLE
  5
A
330
0
100
AcDbSymbolTable
 70
    1
100
AcDbDimStyleTable
 71
    1
  0
DIMSTYLE
105
5B
330
A
100
AcDbSymbolTableRecord
100
AcDbDimStyleTableRecord
  2
Standard
 70
    0
 40
1
 41
2.5
 42
0.625
 43
0.38
 44
1.25
 45
0
 46
0
 47
0
 48
0
 49
1
140
2.5
141
0.09
142
0
143
25.4
144
1
145
0
146
1
147
0.625
148
0
 71
    0
 72
    0
 73
    0
 74
    1
 75
    0
 76
    0
 77
    0
 78
    8
 79
    0
170
    0
171
    2
172
    0
173
    0
174
    0
175
    0
176
    0
177
    0
178
    0
179
    0
271
    2
272
    4
273
    2
274
    2
275
    0
276
    0
277
    2
278
   44
279
    0
280
    0
281
    0
282
    0
283
    1
284
    0
285
    0
286
    0
288
    0
289
    3
340
STANDARD
341

371
   -2
372
   -2
  0
ENDTAB
  0
TABLE
  2
BLOCK_RECORD
  5
1
330
0
100
AcDbSymbolTable
 70
    2
  0
BLOCK_RECORD
  5
1F
330
1
100
AcDbSymbolTableRecord
100
AcDbBlockTableRecord
  2
*Model_Space
 70
    0
280
    1
281
    0
  0
BLOCK_RECORD
  5
1E
330
1
100
AcDbSymbolTableRecord
100
AcDbBlockTableRecord
  2
*Paper_Space
 70
    0
280
    1
281
    0
  0
BLOCK_RECORD
  5
5C
330
1
100
AcDbSymbolTableRecord
100
AcDbBlockTableRecord
  2
2227MC-08-03
 70
    0
280
    1
281
    0
  0
BLOCK_RECORD
  5
5F
330
1
100
AcDbSymbolTableRecord
100
AcDbBlockTableRecord
  2
PIC16F15325
 70
    0
280
    1
281
    0
  0
BLOCK_RECORD
  5
62
330
1
100
AcDbSymbolTableRecord
100
AcDbBlockTableRecord
  2
2227MC-28-03
 70
    0
280
    1
281
    0
  0
BLOCK_RECORD
  5
65
330
1
100
AcDbSymbolTableRecord
100
AcDbBlockTableRecord
  2
HUSG-16.000-20
 70
    0
280
    1
281
    0
  0
BLOCK_RECORD
  5
68
330
1
100
AcDbSymbolTableRecord
100
AcDbBlockTableRecord
  2
ATmega328P
 70
    0
280
    1
281
    0
  0
BLOCK_RECORD
  5
6B
330
1
100
AcDbSymbolTableRecord
100
AcDbBlockTableRecord
  2
DTS-63-N-V-BLK
 70
    0
280
    1
281
    0
  0
BLOCK_RECORD
  5
6E
330
1
100
AcDbSymbolTableRecord
100
AcDbBlockTableRecord
  2
2227MC-14-03
 70
    0
280
    1
281
    0
  0
BLOCK_RECORD
  5
71
330
1
100
AcDbSymbolTableRecord
100
AcDbBlockTableRecord
  2
C_0.01uF
 70
    0
280
    1
281
    0
  0
BLOCK_RECORD
  5
74
330
1
100
AcDbSymbolTableRecord
100
AcDbBlockTableRecord
  2
R300
 70
    0
280
    1
281
    0
  0
BLOCK_RECORD
  5
77
330
1
100
AcDbSymbolTableRecord
100
AcDbBlockTableRecord
  2
R10k
 70
    0
280
    1
281
    0
  0
BLOCK_RECORD
  5
7A
330
1
100
AcDbSymbolTableRecord
100
AcDbBlockTableRecord
  2
R0
 70
    0
280
    1
281
    0
  0
ENDTAB
  0
ENDSEC
  0
SECTION
  2
BLOCKS
  0
BLOCK
  5
20
330
1F
100
AcDbEntity
  8
0
100
AcDbBlockBegin
  2
*Model_Space
 70
    0
 10
0
 20
0
 30
0
  3
*Model_Space
  1

  0
ENDBLK
  5
21
330
1F
100
AcDbEntity
  8
0
100
AcDbBlockEnd
  0
BLOCK
  5
1C
330
1B
100
AcDbEntity
  8
0
100
AcDbBlockBegin
  2
*Paper_Space
 70
    0
 10
0
 20
0
 30
0
  3
*Paper_Space
  1

  0
ENDBLK
  5
1D
330
1F
100
AcDbEntity
  8
0
100
AcDbBlockEnd
  0
BLOCK
  5
5D
330
5C
100
AcDbEntity
  8
0
100
AcDbBlockBegin
  2
2227MC-08-03
 70
    0
 10
0
 20
0
  3
2227MC-08-03
  1

  0
LINE
  5
7D
100
AcDbEntity
  8
pin socket, header
  6
ByLayer
 62
  256
370
   -1
100
AcDbLine
 10
-1.270000000000131
 20
-8.890000110779171
 11
-1.270000000000131
 21
1.269999889220831
  0
LINE
  5
7E
100
AcDbEntity
  8
pin socket, header
  6
ByLayer
 62
  256
370
   -1
100
AcDbLine
 10
-1.270000000000131
 20
1.269999889220831
 11
8.890000394687402
 21
1.269999889220831
  0
LINE
  5
7F
100
AcDbEntity
  8
pin socket, header
  6
ByLayer
 62
  256
370
   -1
100
AcDbLine
 10
8.890000394687402
 20
1.269999889220831
 11
8.88999999999989
 21
-8.890000110779171
  0
LINE
  5
80
100
AcDbEntity
  8
pin socket, header
  6
ByLayer
 62
  256
370
   -1
100
AcDbLine
 10
8.88999999999989
 20
-8.890000110779171
 11
-1.270000000000131
 21
-8.890000110779171
  0
CIRCLE
  5
81
100
AcDbEntity
  8
pin socket, header
  6
ByLayer
 62
  256
370
   -1
100
AcDbCircle
 10
2.539999999999878
 20
1.06581410364015e-14
 40
0.6
  0
CIRCLE
  5
82
100
AcDbEntity
  8
pin socket, header
  6
ByLayer
 62
  256
370
   -1
100
AcDbCircle
 10
2.539999999999893
 20
-7.620000000000061
 40
0.6
  0
CIRCLE
  5
83
100
AcDbEntity
  8
pin socket, header
  6
ByLayer
 62
  256
370
   -1
100
AcDbCircle
 10
0
 20
0
 40
0.6
  0
CIRCLE
  5
84
100
AcDbEntity
  8
pin socket, header
  6
ByLayer
 62
  256
370
   -1
100
AcDbCircle
 10
7.105427357601002e-15
 20
-7.620000000000072
 40
0.6
  0
CIRCLE
  5
85
100
AcDbEntity
  8
pin socket, header
  6
ByLayer
 62
  256
370
   -1
100
AcDbCircle
 10
5.079999999999757
 20
2.842170943040401e-14
 40
0.6
  0
CIRCLE
  5
86
100
AcDbEntity
  8
pin socket, header
  6
ByLayer
 62
  256
370
   -1
100
AcDbCircle
 10
5.079999999999771
 20
-7.620000000000051
 40
0.6
  0
CIRCLE
  5
87
100
AcDbEntity
  8
pin socket, header
  6
ByLayer
 62
  256
370
   -1
100
AcDbCircle
 10
7.619999999999639
 20
3.907985046680551e-14
 40
0.6
  0
CIRCLE
  5
88
100
AcDbEntity
  8
pin socket, header
  6
ByLayer
 62
  256
370
   -1
100
AcDbCircle
 10
7.61999999999966
 20
-7.62000000000004
 40
0.6
  0
MTEXT
  5
89
100
AcDbEntity
  8
pin socket, header
  6
ByLayer
 62
  256
370
   -1
100
AcDbMText
 10
3.950796119092651
 20
-1.713679173150673
 30
0
 40
1
 41
9.222222222222284
 71
    5
 72
    1
  1
2227MC-08-03
  7
STANDARD
210
0
220
0
230
1
 50
0
 73
    2
 44
1
  0
ENDBLK
  5
5E
330
5C
100
AcDbEntity
  8
0
100
AcDbBlockEnd
  0
BLOCK
  5
60
330
5F
100
AcDbEntity
  8
0
100
AcDbBlockBegin
  2
PIC16F15325
 70
    0
 10
0
 20
0
  3
PIC16F15325
  1

  0
ENDBLK
  5
61
330
5F
100
AcDbEntity
  8
0
100
AcDbBlockEnd
  0
BLOCK
  5
63
330
62
100
AcDbEntity
  8
0
100
AcDbBlockBegin
  2
2227MC-28-03
 70
    0
 10
0
 20
0
  3
2227MC-28-03
  1

  0
ENDBLK
  5
64
330
62
100
AcDbEntity
  8
0
100
AcDbBlockEnd
  0
BLOCK
  5
66
330
65
100
AcDbEntity
  8
0
100
AcDbBlockBegin
  2
HUSG-16.000-20
 70
    0
 10
0
 20
0
  3
HUSG-16.000-20
  1

  0
ENDBLK
  5
67
330
65
100
AcDbEntity
  8
0
100
AcDbBlockEnd
  0
BLOCK
  5
69
330
68
100
AcDbEntity
  8
0
100
AcDbBlockBegin
  2
ATmega328P
 70
    0
 10
0
 20
0
  3
ATmega328P
  1

  0
ENDBLK
  5
6A
330
68
100
AcDbEntity
  8
0
100
AcDbBlockEnd
  0
BLOCK
  5
6C
330
6B
100
AcDbEntity
  8
0
100
AcDbBlockBegin
  2
DTS-63-N-V-BLK
 70
    0
 10
0
 20
0
  3
DTS-63-N-V-BLK
  1

  0
ENDBLK
  5
6D
330
6B
100
AcDbEntity
  8
0
100
AcDbBlockEnd
  0
BLOCK
  5
6F
330
6E
100
AcDbEntity
  8
0
100
AcDbBlockBegin
  2
2227MC-14-03
 70
    0
 10
0
 20
0
  3
2227MC-14-03
  1

  0
ENDBLK
  5
70
330
6E
100
AcDbEntity
  8
0
100
AcDbBlockEnd
  0
BLOCK
  5
72
330
71
100
AcDbEntity
  8
0
100
AcDbBlockBegin
  2
C_0.01uF
 70
    0
 10
0
 20
0
  3
C_0.01uF
  1

  0
LWPOLYLINE
  5
8A
100
AcDbEntity
  8
condenser
  6
ByLayer
 62
  256
370
   -1
100
AcDbPolyline
 90
    4
 70
    1
 43
0
 10
1.499999999999972
 20
5.039999999999822
 10
1.499999999999972
 20
0.03999999999992099
 10
-1.50000000000005
 20
0.03999999999992099
 10
-1.50000000000005
 20
5.039999999999822
  0
MTEXT
  5
8B
100
AcDbEntity
  8
condenser
  6
ByLayer
 62
  256
370
   -1
100
AcDbMText
 10
2.336701583810211
 20
2.491803864245341
 30
0
 40
1
 41
3.666666666666667
 71
    5
 72
    1
  1
0.01uF
  7
STANDARD
210
0
220
0
230
1
 50
270
 73
    2
 44
1
  0
CIRCLE
  5
8C
100
AcDbEntity
  8
condenser
  6
ByLayer
 62
  256
370
   -1
100
AcDbCircle
 10
0
 20
0
 40
0.4
  0
CIRCLE
  5
8D
100
AcDbEntity
  8
condenser
  6
ByLayer
 62
  256
370
   -1
100
AcDbCircle
 10
-6.927791673660977e-14
 20
5.080000000000041
 40
0.4
  0
ENDBLK
  5
73
330
71
100
AcDbEntity
  8
0
100
AcDbBlockEnd
  0
BLOCK
  5
75
330
74
100
AcDbEntity
  8
0
100
AcDbBlockBegin
  2
R300
 70
    0
 10
0
 20
0
  3
R300
  1

  0
ENDBLK
  5
76
330
74
100
AcDbEntity
  8
0
100
AcDbBlockEnd
  0
BLOCK
  5
78
330
77
100
AcDbEntity
  8
0
100
AcDbBlockBegin
  2
R10k
 70
    0
 10
0
 20
0
  3
R10k
  1

  0
ENDBLK
  5
79
330
77
100
AcDbEntity
  8
0
100
AcDbBlockEnd
  0
BLOCK
  5
7B
330
7A
100
AcDbEntity
  8
0
100
AcDbBlockBegin
  2
R0
 70
    0
 10
0
 20
0
  3
R0
  1

  0
ENDBLK
  5
7C
330
7A
100
AcDbEntity
  8
0
100
AcDbBlockEnd
  0
ENDSEC
  0
SECTION
  2
ENTITIES
  0
CIRCLE
  5
8E
100
AcDbEntity
  8
0_draft
  6
ByLayer
 62
  256
370
   -1
100
AcDbCircle
 10
-28.57999999999982
 20
42.34999999999982
 40
508
  0
LINE
  5
8F
100
AcDbEntity
  8
universal_board
  6
ByLayer
 62
  256
370
   -1
100
AcDbLine
 10
-41.27999999999925
 20
-59.2500000000006
 11
24.7599999999977
 21
-59.25000000000054
  0
LINE
  5
90
100
AcDbEntity
  8
universal_board
  6
ByLayer
 62
  256
370
   -1
100
AcDbLine
 10
-41.27999999999925
 20
-89.73000000000067
 11
24.7599999999977
 21
-89.73000000000062
  0
LINE
  5
91
100
AcDbEntity
  8
universal_board
  6
ByLayer
 62
  256
370
   -1
100
AcDbLine
 10
-41.27999999999925
 20
-120.2100000000007
 11
24.7599999999977
 21
-120.2100000000007
  0
LINE
  5
92
100
AcDbEntity
  8
universal_board
  6
ByLayer
 62
  256
370
   -1
100
AcDbLine
 10
-41.27999999999925
 20
-150.6900000000008
 11
24.7599999999977
 21
-150.6900000000008
  0
LINE
  5
93
100
AcDbEntity
  8
universal_board
  6
ByLayer
 62
  256
370
   -1
100
AcDbLine
 10
-41.27999999999925
 20
-181.1700000000009
 11
24.7599999999977
 21
-181.1700000000008
  0
LINE
  5
94
100
AcDbEntity
  8
universal_board
  6
ByLayer
 62
  256
370
   -1
100
AcDbLine
 10
-41.27999999999925
 20
-211.650000000001
 11
24.7599999999977
 21
-211.6500000000009
  0
LINE
  5
95
100
AcDbEntity
  8
universal_board
  6
ByLayer
 62
  256
370
   -1
100
AcDbLine
 10
-41.27999999999925
 20
-242.130000000001
 11
24.7599999999977
 21
-242.130000000001
  0
LINE
  5
96
100
AcDbEntity
  8
universal_board
  6
ByLayer
 62
  256
370
   -1
100
AcDbLine
 10
-41.27999999999925
 20
-272.6100000000012
 11
24.7599999999977
 21
-272.610000000001
  0
LINE
  5
97
100
AcDbEntity
  8
universal_board
  6
ByLayer
 62
  256
370
   -1
100
AcDbLine
 10
-41.27999999999925
 20
-303.0900000000012
 11
24.7599999999977
 21
-303.0900000000012
  0
LINE
  5
98
100
AcDbEntity
  8
universal_board
  6
ByLayer
 62
  256
370
   -1
100
AcDbLine
 10
-41.27999999999925
 20
-333.5700000000013
 11
24.7599999999977
 21
-333.5700000000012
  0
CIRCLE
  5
99
100
AcDbEntity
  8
universal_board
  6
ByLayer
 62
  256
370
   -1
100
AcDbCircle
 10
-28.57999999999977
 20
38.54000000000001
 40
0.5
  0
CIRCLE
  5
9A
100
AcDbEntity
  8
universal_board
  6
ByLayer
 62
  256
370
   -1
100
AcDbCircle
 10
-31.11999999999966
 20
38.54000000000001
 40
0.5
  0
CIRCLE
  5
9B
100
AcDbEntity
  8
universal_board
  6
ByLayer
 62
  256
370
   -1
100
AcDbCircle
 10
-26.03999999999989
 20
38.54000000000001
 40
0.5
  0
CIRCLE
  5
9C
100
AcDbEntity
  8
universal_board
  6
ByLayer
 62
  256
370
   -1
100
AcDbCircle
 10
-23.50000000000001
 20
38.54000000000001
 40
0.5
  0
CIRCLE
  5
9D
100
AcDbEntity
  8
universal_board
  6
ByLayer
 62
  256
370
   -1
100
AcDbCircle
 10
-20.96000000000013
 20
38.54000000000003
 40
0.5
  0
CIRCLE
  5
9E
100
AcDbEntity
  8
universal_board
  6
ByLayer
 62
  256
370
   -1
100
AcDbCircle
 10
-18.42000000000025
 20
38.54000000000003
 40
0.5
  0
CIRCLE
  5
9F
100
AcDbEntity
  8
universal_board
  6
ByLayer
 62
  256
370
   -1
100
AcDbCircle
 10
-15.88000000000038
 20
38.54000000000005
 40
0.5
  0
CIRCLE
  5
A0
100
AcDbEntity
  8
universal_board
  6
ByLayer
 62
  256
370
   -1
100
AcDbCircle
 10
-28.57999999999977
 20
41.08000000000003
 40
0.5
  0
CIRCLE
  5
A1
100
AcDbEntity
  8
universal_board
  6
ByLayer
 62
  256
370
   -1
100
AcDbCircle
 10
-31.11999999999967
 20
41.08000000000003
 40
0.5
  0
CIRCLE
  5
A2
100
AcDbEntity
  8
universal_board
  6
ByLayer
 62
  256
370
   -1
100
AcDbCircle
 10
-26.0399999999999
 20
41.08000000000003
 40
0.5
  0
CIRCLE
  5
A3
100
AcDbEntity
  8
universal_board
  6
ByLayer
 62
  256
370
   -1
100
AcDbCircle
 10
-23.50000000000002
 20
41.08000000000005
 40
0.5
  0
CIRCLE
  5
A4
100
AcDbEntity
  8
universal_board
  6
ByLayer
 62
  256
370
   -1
100
AcDbCircle
 10
-20.96000000000014
 20
41.08000000000005
 40
0.5
  0
CIRCLE
  5
A5
100
AcDbEntity
  8
universal_board
  6
ByLayer
 62
  256
370
   -1
100
AcDbCircle
 10
-18.42000000000026
 20
41.08000000000006
 40
0.5
  0
CIRCLE
  5
A6
100
AcDbEntity
  8
universal_board
  6
ByLayer
 62
  256
370
   -1
100
AcDbCircle
 10
-15.88000000000038
 20
41.08000000000006
 40
0.5
  0
CIRCLE
  5
A7
100
AcDbEntity
  8
universal_board
  6
ByLayer
 62
  256
370
   -1
100
AcDbCircle
 10
-28.57999999999978
 20
43.62000000000005
 40
0.5
  0
CIRCLE
  5
A8
100
AcDbEntity
  8
universal_board
  6
ByLayer
 62
  256
370
   -1
100
AcDbCircle
 10
-31.11999999999967
 20
43.62000000000005
 40
0.5
  0
CIRCLE
  5
A9
100
AcDbEntity
  8
universal_board
  6
ByLayer
 62
  256
370
   -1
100
AcDbCircle
 10
-26.0399999999999
 20
43.62000000000005
 40
0.5
  0
CIRCLE
  5
AA
100
AcDbEntity
  8
universal_board
  6
ByLayer
 62
  256
370
   -1
100
AcDbCircle
 10
-23.50000000000002
 20
43.62000000000007
 40
0.5
  0
CIRCLE
  5
AB
100
AcDbEntity
  8
universal_board
  6
ByLayer
 62
  256
370
   -1
100
AcDbCircle
 10
-20.96000000000015
 20
43.62000000000007
 40
0.5
  0
CIRCLE
  5
AC
100
AcDbEntity
  8
universal_board
  6
ByLayer
 62
  256
370
   -1
100
AcDbCircle
 10
-18.42000000000027
 20
43.62000000000008
 40
0.5
  0
CIRCLE
  5
AD
100
AcDbEntity
  8
universal_board
  6
ByLayer
 62
  256
370
   -1
100
AcDbCircle
 10
-15.88000000000039
 20
43.62000000000008
 40
0.5
  0
CIRCLE
  5
AE
100
AcDbEntity
  8
universal_board
  6
ByLayer
 62
  256
370
   -1
100
AcDbCircle
 10
-28.57999999999979
 20
46.16000000000007
 40
0.5
  0
CIRCLE
  5
AF
100
AcDbEntity
  8
universal_board
  6
ByLayer
 62
  256
370
   -1
100
AcDbCircle
 10
-31.11999999999968
 20
46.16000000000007
 40
0.5
  0
CIRCLE
  5
B0
100
AcDbEntity
  8
universal_board
  6
ByLayer
 62
  256
370
   -1
100
AcDbCircle
 10
-26.03999999999991
 20
46.16000000000007
 40
0.5
  0
CIRCLE
  5
B1
100
AcDbEntity
  8
universal_board
  6
ByLayer
 62
  256
370
   -1
100
AcDbCircle
 10
-23.50000000000003
 20
46.16000000000009
 40
0.5
  0
CIRCLE
  5
B2
100
AcDbEntity
  8
universal_board
  6
ByLayer
 62
  256
370
   -1
100
AcDbCircle
 10
-20.96000000000015
 20
46.16000000000009
 40
0.5
  0
CIRCLE
  5
B3
100
AcDbEntity
  8
universal_board
  6
ByLayer
 62
  256
370
   -1
100
AcDbCircle
 10
-18.42000000000028
 20
46.1600000000001
 40
0.5
  0
CIRCLE
  5
B4
100
AcDbEntity
  8
universal_board
  6
ByLayer
 62
  256
370
   -1
100
AcDbCircle
 10
-15.8800000000004
 20
46.1600000000001
 40
0.5
  0
LINE
  5
B5
100
AcDbEntity
  8
pin socket, header
  6
ByLayer
 62
  256
370
   -1
100
AcDbLine
 10
-32.38999999999944
 20
44.88999999999974
 11
-32.38999999999944
 21
47.43000000000038
  0
LINE
  5
B6
100
AcDbEntity
  8
pin socket, header
  6
ByLayer
 62
  256
370
   -1
100
AcDbLine
 10
-32.38999999999983
 20
44.88999999999974
 11
-29.84999999999956
 21
44.88999999999974
  0
LINE
  5
B7
100
AcDbEntity
  8
pin socket, header
  6
ByLayer
 62
  256
370
   -1
100
AcDbLine
 10
-29.84999999999956
 20
44.88999999999974
 11
-29.84999999999956
 21
47.43000000000038
  0
LINE
  5
B8
100
AcDbEntity
  8
pin socket, header
  6
ByLayer
 62
  256
370
   -1
100
AcDbLine
 10
-29.84999999999956
 20
47.43000000000038
 11
-32.38999999999983
 21
47.43000000000038
  0
CIRCLE
  5
B9
100
AcDbEntity
  8
pin socket, header
  6
ByLayer
 62
  256
370
   -1
100
AcDbCircle
 10
-31.1199999999997
 20
46.16000000000007
 40
0.45
  0
LINE
  5
BA
100
AcDbEntity
  8
pin socket, header
  6
ByLayer
 62
  256
370
   -1
100
AcDbLine
 10
-32.38999999999942
 20
42.34999999999972
 11
-32.38999999999942
 21
44.89000000000036
  0
LINE
  5
BB
100
AcDbEntity
  8
pin socket, header
  6
ByLayer
 62
  256
370
   -1
100
AcDbLine
 10
-32.38999999999982
 20
42.34999999999972
 11
-29.84999999999955
 21
42.34999999999972
  0
LINE
  5
BC
100
AcDbEntity
  8
pin socket, header
  6
ByLayer
 62
  256
370
   -1
100
AcDbLine
 10
-29.84999999999955
 20
42.34999999999972
 11
-29.84999999999955
 21
44.89000000000036
  0
LINE
  5
BD
100
AcDbEntity
  8
pin socket, header
  6
ByLayer
 62
  256
370
   -1
100
AcDbLine
 10
-29.84999999999955
 20
44.89000000000036
 11
-32.38999999999982
 21
44.89000000000036
  0
CIRCLE
  5
BE
100
AcDbEntity
  8
pin socket, header
  6
ByLayer
 62
  256
370
   -1
100
AcDbCircle
 10
-31.11999999999968
 20
43.62000000000005
 40
0.45
  0
LINE
  5
BF
100
AcDbEntity
  8
pin socket, header
  6
ByLayer
 62
  256
370
   -1
100
AcDbLine
 10
-32.38999999999941
 20
39.8099999999997
 11
-32.38999999999941
 21
42.35000000000034
  0
LINE
  5
C0
100
AcDbEntity
  8
pin socket, header
  6
ByLayer
 62
  256
370
   -1
100
AcDbLine
 10
-32.38999999999981
 20
39.8099999999997
 11
-29.84999999999954
 21
39.8099999999997
  0
LINE
  5
C1
100
AcDbEntity
  8
pin socket, header
  6
ByLayer
 62
  256
370
   -1
100
AcDbLine
 10
-29.84999999999954
 20
39.8099999999997
 11
-29.84999999999954
 21
42.35000000000034
  0
LINE
  5
C2
100
AcDbEntity
  8
pin socket, header
  6
ByLayer
 62
  256
370
   -1
100
AcDbLine
 10
-29.84999999999954
 20
42.35000000000034
 11
-32.38999999999981
 21
42.35000000000034
  0
CIRCLE
  5
C3
100
AcDbEntity
  8
pin socket, header
  6
ByLayer
 62
  256
370
   -1
100
AcDbCircle
 10
-31.11999999999967
 20
41.08000000000003
 40
0.45
  0
LINE
  5
C4
100
AcDbEntity
  8
pin socket, header
  6
ByLayer
 62
  256
370
   -1
100
AcDbLine
 10
-32.3899999999994
 20
37.26999999999968
 11
-32.3899999999994
 21
39.81000000000033
  0
LINE
  5
C5
100
AcDbEntity
  8
pin socket, header
  6
ByLayer
 62
  256
370
   -1
100
AcDbLine
 10
-32.3899999999998
 20
37.26999999999968
 11
-29.84999999999953
 21
37.26999999999968
  0
LINE
  5
C6
100
AcDbEntity
  8
pin socket, header
  6
ByLayer
 62
  256
370
   -1
100
AcDbLine
 10
-29.84999999999953
 20
37.26999999999968
 11
-29.84999999999953
 21
39.81000000000033
  0
LINE
  5
C7
100
AcDbEntity
  8
pin socket, header
  6
ByLayer
 62
  256
370
   -1
100
AcDbLine
 10
-29.84999999999953
 20
39.81000000000033
 11
-32.3899999999998
 21
39.81000000000033
  0
CIRCLE
  5
C8
100
AcDbEntity
  8
pin socket, header
  6
ByLayer
 62
  256
370
   -1
100
AcDbCircle
 10
-31.11999999999966
 20
38.54000000000001
 40
0.45
  0
MTEXT
  5
C9
100
AcDbEntity
  8
pin socket, header
  6
ByLayer
 62
  256
370
   -1
100
AcDbMText
 10
-36.68177406360736
 20
42.24248655027741
 30
0
 40
1
 41
3.888888888888935
 71
    4
 72
    1
  1
VDD\P(RA5)\P(RA4)\PnMCLR
  7
iso
210
0
220
0
230
1
 50
0
 73
    2
 44
1.54
  0
CIRCLE
  5
CA
100
AcDbEntity
  8
universal_board
  6
ByLayer
 62
  256
370
   -1
100
AcDbCircle
 10
-13.3400000000005
 20
38.54000000000006
 40
0.5
  0
CIRCLE
  5
CB
100
AcDbEntity
  8
universal_board
  6
ByLayer
 62
  256
370
   -1
100
AcDbCircle
 10
-13.3400000000005
 20
41.08000000000007
 40
0.5
  0
CIRCLE
  5
CC
100
AcDbEntity
  8
universal_board
  6
ByLayer
 62
  256
370
   -1
100
AcDbCircle
 10
-13.34000000000051
 20
43.62000000000009
 40
0.5
  0
CIRCLE
  5
CD
100
AcDbEntity
  8
universal_board
  6
ByLayer
 62
  256
370
   -1
100
AcDbCircle
 10
-13.34000000000052
 20
46.16000000000011
 40
0.5
  0
LINE
  5
CE
100
AcDbEntity
  8
pin socket, header
  6
ByLayer
 62
  256
370
   -1
100
AcDbLine
 10
-14.61000000000028
 20
44.88999999999979
 11
-14.61000000000028
 21
47.43000000000044
  0
LINE
  5
CF
100
AcDbEntity
  8
pin socket, header
  6
ByLayer
 62
  256
370
   -1
100
AcDbLine
 10
-14.61000000000067
 20
44.88999999999979
 11
-12.0700000000004
 21
44.88999999999979
  0
LINE
  5
D0
100
AcDbEntity
  8
pin socket, header
  6
ByLayer
 62
  256
370
   -1
100
AcDbLine
 10
-12.0700000000004
 20
44.88999999999979
 11
-12.0700000000004
 21
47.43000000000044
  0
LINE
  5
D1
100
AcDbEntity
  8
pin socket, header
  6
ByLayer
 62
  256
370
   -1
100
AcDbLine
 10
-12.0700000000004
 20
47.43000000000044
 11
-14.61000000000067
 21
47.43000000000044
  0
CIRCLE
  5
D2
100
AcDbEntity
  8
pin socket, header
  6
ByLayer
 62
  256
370
   -1
100
AcDbCircle
 10
-13.34000000000054
 20
46.16000000000011
 40
0.45
  0
LINE
  5
D3
100
AcDbEntity
  8
pin socket, header
  6
ByLayer
 62
  256
370
   -1
100
AcDbLine
 10
-14.61000000000027
 20
42.34999999999977
 11
-14.61000000000027
 21
44.89000000000042
  0
LINE
  5
D4
100
AcDbEntity
  8
pin socket, header
  6
ByLayer
 62
  256
370
   -1
100
AcDbLine
 10
-14.61000000000066
 20
42.34999999999977
 11
-12.07000000000039
 21
42.34999999999977
  0
LINE
  5
D5
100
AcDbEntity
  8
pin socket, header
  6
ByLayer
 62
  256
370
   -1
100
AcDbLine
 10
-12.07000000000039
 20
42.34999999999977
 11
-12.07000000000039
 21
44.89000000000042
  0
LINE
  5
D6
100
AcDbEntity
  8
pin socket, header
  6
ByLayer
 62
  256
370
   -1
100
AcDbLine
 10
-12.07000000000039
 20
44.89000000000042
 11
-14.61000000000066
 21
44.89000000000042
  0
CIRCLE
  5
D7
100
AcDbEntity
  8
pin socket, header
  6
ByLayer
 62
  256
370
   -1
100
AcDbCircle
 10
-13.34000000000053
 20
43.62000000000009
 40
0.45
  0
LINE
  5
D8
100
AcDbEntity
  8
pin socket, header
  6
ByLayer
 62
  256
370
   -1
100
AcDbLine
 10
-14.61000000000026
 20
39.80999999999975
 11
-14.61000000000026
 21
42.35000000000041
  0
LINE
  5
D9
100
AcDbEntity
  8
pin socket, header
  6
ByLayer
 62
  256
370
   -1
100
AcDbLine
 10
-14.61000000000065
 20
39.80999999999975
 11
-12.07000000000038
 21
39.80999999999975
  0
LINE
  5
DA
100
AcDbEntity
  8
pin socket, header
  6
ByLayer
 62
  256
370
   -1
100
AcDbLine
 10
-12.07000000000038
 20
39.80999999999975
 11
-12.07000000000038
 21
42.35000000000041
  0
LINE
  5
DB
100
AcDbEntity
  8
pin socket, header
  6
ByLayer
 62
  256
370
   -1
100
AcDbLine
 10
-12.07000000000038
 20
42.35000000000041
 11
-14.61000000000065
 21
42.35000000000041
  0
CIRCLE
  5
DC
100
AcDbEntity
  8
pin socket, header
  6
ByLayer
 62
  256
370
   -1
100
AcDbCircle
 10
-13.34000000000051
 20
41.08000000000007
 40
0.45
  0
LINE
  5
DD
100
AcDbEntity
  8
pin socket, header
  6
ByLayer
 62
  256
370
   -1
100
AcDbLine
 10
-12.07000000000037
 20
39.81000000000039
 11
-14.61000000000064
 21
39.81000000000039
  0
MTEXT
  5
DE
100
AcDbEntity
  8
pin socket, header
  6
ByLayer
 62
  256
370
   -1
100
AcDbMText
 10
-11.77354925775905
 20
43.71385119424728
 30
0
 40
1
 41
2.444444020440146
 71
    4
 72
    1
  1
VSS\PRA0\PRA1
  7
iso
210
0
220
0
230
1
 50
0
 73
    2
 44
1.54
  0
CIRCLE
  5
DF
100
AcDbEntity
  8
universal_board
  6
ByLayer
 62
  256
370
   -1
100
AcDbCircle
 10
-28.5799999999998
 20
48.70000000000009
 40
0.5
  0
CIRCLE
  5
E0
100
AcDbEntity
  8
universal_board
  6
ByLayer
 62
  256
370
   -1
100
AcDbCircle
 10
-31.11999999999969
 20
48.70000000000009
 40
0.5
  0
CIRCLE
  5
E1
100
AcDbEntity
  8
universal_board
  6
ByLayer
 62
  256
370
   -1
100
AcDbCircle
 10
-26.03999999999992
 20
48.7000000000001
 40
0.5
  0
CIRCLE
  5
E2
100
AcDbEntity
  8
universal_board
  6
ByLayer
 62
  256
370
   -1
100
AcDbCircle
 10
-23.50000000000004
 20
48.70000000000011
 40
0.5
  0
CIRCLE
  5
E3
100
AcDbEntity
  8
universal_board
  6
ByLayer
 62
  256
370
   -1
100
AcDbCircle
 10
-20.96000000000016
 20
48.70000000000011
 40
0.5
  0
CIRCLE
  5
E4
100
AcDbEntity
  8
universal_board
  6
ByLayer
 62
  256
370
   -1
100
AcDbCircle
 10
-18.42000000000029
 20
48.70000000000012
 40
0.5
  0
CIRCLE
  5
E5
100
AcDbEntity
  8
universal_board
  6
ByLayer
 62
  256
370
   -1
100
AcDbCircle
 10
-15.88000000000041
 20
48.70000000000012
 40
0.5
  0
CIRCLE
  5
E6
100
AcDbEntity
  8
universal_board
  6
ByLayer
 62
  256
370
   -1
100
AcDbCircle
 10
-13.34000000000053
 20
48.70000000000013
 40
0.5
  0
CIRCLE
  5
E7
100
AcDbEntity
  8
universal_board
  6
ByLayer
 62
  256
370
   -1
100
AcDbCircle
 10
-28.57999999999981
 20
51.24000000000011
 40
0.5
  0
CIRCLE
  5
E8
100
AcDbEntity
  8
universal_board
  6
ByLayer
 62
  256
370
   -1
100
AcDbCircle
 10
-31.1199999999997
 20
51.24000000000011
 40
0.5
  0
CIRCLE
  5
E9
100
AcDbEntity
  8
universal_board
  6
ByLayer
 62
  256
370
   -1
100
AcDbCircle
 10
-26.03999999999993
 20
51.24000000000012
 40
0.5
  0
CIRCLE
  5
EA
100
AcDbEntity
  8
universal_board
  6
ByLayer
 62
  256
370
   -1
100
AcDbCircle
 10
-23.50000000000005
 20
51.24000000000013
 40
0.5
  0
CIRCLE
  5
EB
100
AcDbEntity
  8
universal_board
  6
ByLayer
 62
  256
370
   -1
100
AcDbCircle
 10
-20.96000000000017
 20
51.24000000000013
 40
0.5
  0
CIRCLE
  5
EC
100
AcDbEntity
  8
universal_board
  6
ByLayer
 62
  256
370
   -1
100
AcDbCircle
 10
-18.4200000000003
 20
51.24000000000014
 40
0.5
  0
CIRCLE
  5
ED
100
AcDbEntity
  8
universal_board
  6
ByLayer
 62
  256
370
   -1
100
AcDbCircle
 10
-15.88000000000042
 20
51.24000000000014
 40
0.5
  0
CIRCLE
  5
EE
100
AcDbEntity
  8
universal_board
  6
ByLayer
 62
  256
370
   -1
100
AcDbCircle
 10
-13.34000000000054
 20
51.24000000000015
 40
0.5
  0
LINE
  5
EF
100
AcDbEntity
  8
terminal, connector
  6
ByLayer
 62
  256
370
   -1
100
AcDbLine
 10
-16.0099999999996
 20
54.64000000000016
 11
-16.0099999999996
 21
48.89000000000016
  0
CIRCLE
  5
F0
100
AcDbEntity
  8
terminal, connector
  6
ByLayer
 62
  256
370
   -1
100
AcDbCircle
 10
-20.95999999999973
 20
51.2400000000002
 40
0.4
  0
CIRCLE
  5
F1
100
AcDbEntity
  8
terminal, connector
  6
ByLayer
 62
  256
370
   -1
100
AcDbCircle
 10
-23.4999999999998
 20
51.24000000000011
 40
0.4
  0
CIRCLE
  5
F2
100
AcDbEntity
  8
terminal, connector
  6
ByLayer
 62
  256
370
   -1
100
AcDbCircle
 10
-18.41999999999978
 20
51.24000000000011
 40
0.4
  0
LINE
  5
F3
100
AcDbEntity
  8
terminal, connector
  6
ByLayer
 62
  256
370
   -1
100
AcDbLine
 10
-30.98999999999985
 20
48.89000000000017
 11
-30.98999999999985
 21
54.64000000000016
  0
LINE
  5
F4
100
AcDbEntity
  8
terminal, connector
  6
ByLayer
 62
  256
370
   -1
100
AcDbLine
 10
-16.0099999999996
 20
48.89000000000016
 11
-30.98999999999985
 21
48.89000000000017
  0
LINE
  5
F5
100
AcDbEntity
  8
terminal, connector
  6
ByLayer
 62
  256
370
   -1
100
AcDbLine
 10
-30.98999999999985
 20
54.64000000000016
 11
-16.0099999999996
 21
54.64000000000016
  0
CIRCLE
  5
F6
100
AcDbEntity
  8
terminal, connector
  6
ByLayer
 62
  256
370
   -1
100
AcDbCircle
 10
-26.0399999999998
 20
51.24000000000011
 40
0.4
  0
CIRCLE
  5
F7
100
AcDbEntity
  8
terminal, connector
  6
ByLayer
 62
  256
370
   -1
100
AcDbCircle
 10
-28.57999999999981
 20
51.24000000000011
 40
0.4
  0
MTEXT
  5
F8
100
AcDbEntity
  8
terminal, connector
  6
ByLayer
 62
  256
370
   -1
100
AcDbMText
 10
-23.36471284388896
 20
51.93397651491315
 30
0
 40
1
 41
6.444444444444553
 71
    4
 72
    1
  1
VCC\PGND\PA0-RA1\PA1-RA0\PA3-nMCLR
  7
iso
210
0
220
0
230
1
 50
90
 73
    2
 44
1.54
  0
LINE
  5
F9
100
AcDbEntity
  8
5V line
  6
ByLayer
 62
  256
370
   -1
100
AcDbLine
 10
-28.57999999999981
 20
51.24000000000011
 11
-28.57999999999979
 21
46.16000000000007
  0
LINE
  5
FA
100
AcDbEntity
  8
5V line
  6
ByLayer
 62
  256
370
   -1
100
AcDbLine
 10
-28.57999999999979
 20
46.16000000000007
 11
-31.1199999999997
 21
46.16000000000007
  0
LINE
  5
FB
100
AcDbEntity
  8
0_GND
  6
ByLayer
 62
  256
370
   -1
100
AcDbLine
 10
-26.0399999999998
 20
51.24000000000011
 11
-26.03999999999991
 21
46.16000000000007
  0
LINE
  5
FC
100
AcDbEntity
  8
0_GND
  6
ByLayer
 62
  256
370
   -1
100
AcDbLine
 10
-13.34000000000052
 20
46.16000000000011
 11
-15.8800000000004
 21
46.1600000000001
  0
LINE
  5
FD
100
AcDbEntity
  8
0_wire
  6
ByLayer
 62
  256
370
   -1
100
AcDbLine
 10
-23.4999999999998
 20
51.24000000000011
 11
-23.50000000000001
 21
38.54000000000001
  0
LINE
  5
FE
100
AcDbEntity
  8
0_wire
  6
ByLayer
 62
  256
370
   -1
100
AcDbLine
 10
-23.50000000000001
 20
38.54000000000001
 11
-13.3400000000005
 21
38.54000000000006
  0
LINE
  5
FF
100
AcDbEntity
  8
0_wire
  6
ByLayer
 62
  256
370
   -1
100
AcDbLine
 10
-13.3400000000005
 20
38.54000000000006
 11
-13.3400000000005
 21
41.08000000000007
  0
LINE
  5
100
100
AcDbEntity
  8
0_wire
  6
ByLayer
 62
  256
370
   -1
100
AcDbLine
 10
-20.95999999999973
 20
51.2400000000002
 11
-20.96000000000014
 21
41.08000000000005
  0
LINE
  5
101
100
AcDbEntity
  8
0_wire
  6
ByLayer
 62
  256
370
   -1
100
AcDbLine
 10
-20.96000000000014
 20
41.08000000000005
 11
-15.88000000000038
 21
41.08000000000006
  0
LINE
  5
102
100
AcDbEntity
  8
0_wire
  6
ByLayer
 62
  256
370
   -1
100
AcDbLine
 10
-15.88000000000038
 20
41.08000000000006
 11
-15.88000000000039
 21
43.62000000000008
  0
LINE
  5
103
100
AcDbEntity
  8
0_wire
  6
ByLayer
 62
  256
370
   -1
100
AcDbLine
 10
-15.88000000000039
 20
43.62000000000008
 11
-13.34000000000053
 21
43.62000000000009
  0
LINE
  5
104
100
AcDbEntity
  8
condenser
  6
ByLayer
 62
  256
370
   -1
100
AcDbLine
 10
-29.5799999999997
 20
47.04000000000003
 11
-29.5799999999997
 21
42.74000000000034
  0
LINE
  5
105
100
AcDbEntity
  8
condenser
  6
ByLayer
 62
  256
370
   -1
100
AcDbLine
 10
-29.5799999999997
 20
42.74000000000034
 11
-27.57999999999987
 21
42.74000000000034
  0
LINE
  5
106
100
AcDbEntity
  8
condenser
  6
ByLayer
 62
  256
370
   -1
100
AcDbLine
 10
-27.57999999999987
 20
42.74000000000034
 11
-27.57999999999987
 21
47.04000000000003
  0
LINE
  5
107
100
AcDbEntity
  8
condenser
  6
ByLayer
 62
  256
370
   -1
100
AcDbLine
 10
-27.57999999999987
 20
47.04000000000003
 11
-29.5799999999997
 21
47.04000000000003
  0
LINE
  5
108
100
AcDbEntity
  8
condenser
  6
ByLayer
 62
  256
370
   -1
100
AcDbLine
 10
-28.57999999999979
 20
47.04000000000003
 11
-28.57999999999979
 21
46.16000000000007
  0
LINE
  5
109
100
AcDbEntity
  8
condenser
  6
ByLayer
 62
  256
370
   -1
100
AcDbLine
 10
-28.57999999999979
 20
43.62000000000005
 11
-28.57999999999979
 21
42.74000000000034
  0
LINE
  5
10A
100
AcDbEntity
  8
0_GND
  6
ByLayer
 62
  256
370
   -1
100
AcDbLine
 10
-26.03999999999991
 20
46.16000000000007
 11
-26.0399999999999
 21
43.62000000000005
  0
LINE
  5
10B
100
AcDbEntity
  8
0_GND
  6
ByLayer
 62
  256
370
   -1
100
AcDbLine
 10
-26.0399999999999
 20
43.62000000000005
 11
-28.57999999999978
 21
43.62000000000005
  0
MTEXT
  5
10C
100
AcDbEntity
  8
universal_board
  6
ByLayer
 62
  256
370
   -1
100
AcDbMText
 10
-31.83686088114898
 20
53.3371796037607
 30
0
 40
1
 41
1.111111111111111
 71
    4
 72
    1
  1
U1
  7
iso
210
0
220
0
230
1
 50
0
 73
    2
 44
1.54
  0
LINE
  5
10D
100
AcDbEntity
  8
universal_board
  6
ByLayer
 62
  256
370
   -1
100
AcDbLine
 10
-32.38999999999938
 20
52.50999999999978
 11
-32.38999999999938
 21
37.26999999999965
  0
LINE
  5
10E
100
AcDbEntity
  8
universal_board
  6
ByLayer
 62
  256
370
   -1
100
AcDbLine
 10
-32.3899999999994
 20
52.50999999999978
 11
-12.07000000000034
 21
52.50999999999981
  0
LINE
  5
10F
100
AcDbEntity
  8
universal_board
  6
ByLayer
 62
  256
370
   -1
100
AcDbLine
 10
-32.38999999999938
 20
37.26999999999965
 11
-12.07000000000034
 21
37.26999999999968
  0
LINE
  5
110
100
AcDbEntity
  8
universal_board
  6
ByLayer
 62
  256
370
   -1
100
AcDbLine
 10
-12.07000000000034
 20
52.50999999999981
 11
-12.07000000000034
 21
37.26999999999968
  0
MTEXT
  5
111
100
AcDbEntity
  8
pin socket, header
  6
ByLayer
 62
  256
370
   -1
100
AcDbMText
 10
-34.10494077841564
 20
48.31621595348259
 30
0
 40
1
 41
0.8888888888889508
 71
    4
 72
    1
  1
J1
  7
iso
210
0
220
0
230
1
 50
0
 73
    2
 44
1.54
  0
MTEXT
  5
112
100
AcDbEntity
  8
pin socket, header
  6
ByLayer
 62
  256
370
   -1
100
AcDbMText
 10
-11.40799054027514
 20
48.36571514184023
 30
0
 40
1
 41
1.111111111111173
 71
    4
 72
    1
  1
J2
  7
iso
210
0
220
0
230
1
 50
0
 73
    2
 44
1.54
  0
CIRCLE
  5
113
100
AcDbEntity
  8
universal_board
  6
ByLayer
 62
  256
370
   -1
100
AcDbCircle
 10
-28.57999999999979
 20
30.91999999999998
 40
0.5
  0
CIRCLE
  5
114
100
AcDbEntity
  8
universal_board
  6
ByLayer
 62
  256
370
   -1
100
AcDbCircle
 10
-31.11999999999968
 20
30.91999999999998
 40
0.5
  0
CIRCLE
  5
115
100
AcDbEntity
  8
universal_board
  6
ByLayer
 62
  256
370
   -1
100
AcDbCircle
 10
-28.57999999999979
 20
28.37999999999997
 40
0.5
  0
CIRCLE
  5
116
100
AcDbEntity
  8
universal_board
  6
ByLayer
 62
  256
370
   -1
100
AcDbCircle
 10
-31.11999999999968
 20
28.37999999999997
 40
0.5
  0
CIRCLE
  5
117
100
AcDbEntity
  8
universal_board
  6
ByLayer
 62
  256
370
   -1
100
AcDbCircle
 10
-28.57999999999979
 20
25.83999999999997
 40
0.5
  0
CIRCLE
  5
118
100
AcDbEntity
  8
universal_board
  6
ByLayer
 62
  256
370
   -1
100
AcDbCircle
 10
-31.11999999999968
 20
25.83999999999997
 40
0.5
  0
CIRCLE
  5
119
100
AcDbEntity
  8
universal_board
  6
ByLayer
 62
  256
370
   -1
100
AcDbCircle
 10
-28.57999999999979
 20
23.29999999999996
 40
0.5
  0
CIRCLE
  5
11A
100
AcDbEntity
  8
universal_board
  6
ByLayer
 62
  256
370
   -1
100
AcDbCircle
 10
-31.11999999999968
 20
23.29999999999996
 40
0.5
  0
CIRCLE
  5
11B
100
AcDbEntity
  8
universal_board
  6
ByLayer
 62
  256
370
   -1
100
AcDbCircle
 10
-28.57999999999979
 20
20.75999999999996
 40
0.5
  0
CIRCLE
  5
11C
100
AcDbEntity
  8
universal_board
  6
ByLayer
 62
  256
370
   -1
100
AcDbCircle
 10
-31.11999999999968
 20
20.75999999999996
 40
0.5
  0
CIRCLE
  5
11D
100
AcDbEntity
  8
universal_board
  6
ByLayer
 62
  256
370
   -1
100
AcDbCircle
 10
-28.57999999999979
 20
18.21999999999995
 40
0.5
  0
CIRCLE
  5
11E
100
AcDbEntity
  8
universal_board
  6
ByLayer
 62
  256
370
   -1
100
AcDbCircle
 10
-31.11999999999968
 20
18.21999999999995
 40
0.5
  0
CIRCLE
  5
11F
100
AcDbEntity
  8
universal_board
  6
ByLayer
 62
  256
370
   -1
100
AcDbCircle
 10
-28.57999999999979
 20
15.67999999999994
 40
0.5
  0
CIRCLE
  5
120
100
AcDbEntity
  8
universal_board
  6
ByLayer
 62
  256
370
   -1
100
AcDbCircle
 10
-31.11999999999968
 20
15.67999999999994
 40
0.5
  0
LINE
  5
121
100
AcDbEntity
  8
pin socket, header
  6
ByLayer
 62
  256
370
   -1
100
AcDbLine
 10
-32.38999999999928
 20
16.9499999999999
 11
-32.38999999999928
 21
14.41
  0
LINE
  5
122
100
AcDbEntity
  8
pin socket, header
  6
ByLayer
 62
  256
370
   -1
100
AcDbLine
 10
-32.38999999999928
 20
14.41
 11
-29.85000000000013
 21
14.41
  0
LINE
  5
123
100
AcDbEntity
  8
pin socket, header
  6
ByLayer
 62
  256
370
   -1
100
AcDbLine
 10
-29.85000000000013
 20
14.41
 11
-29.85000000000013
 21
16.9499999999999
  0
LINE
  5
124
100
AcDbEntity
  8
pin socket, header
  6
ByLayer
 62
  256
370
   -1
100
AcDbLine
 10
-29.85000000000013
 20
16.9499999999999
 11
-32.38999999999928
 21
16.9499999999999
  0
CIRCLE
  5
125
100
AcDbEntity
  8
pin socket, header
  6
ByLayer
 62
  256
370
   -1
100
AcDbCircle
 10
-31.11999999999969
 20
15.67999999999996
 40
0.45
  0
LINE
  5
126
100
AcDbEntity
  8
pin socket, header
  6
ByLayer
 62
  256
370
   -1
100
AcDbLine
 10
-32.38999999999928
 20
19.48999999999992
 11
-32.38999999999928
 21
16.95000000000002
  0
LINE
  5
127
100
AcDbEntity
  8
pin socket, header
  6
ByLayer
 62
  256
370
   -1
100
AcDbLine
 10
-29.85000000000013
 20
16.95000000000002
 11
-29.85000000000013
 21
19.48999999999992
  0
LINE
  5
128
100
AcDbEntity
  8
pin socket, header
  6
ByLayer
 62
  256
370
   -1
100
AcDbLine
 10
-29.85000000000013
 20
19.48999999999992
 11
-32.38999999999928
 21
19.48999999999992
  0
CIRCLE
  5
129
100
AcDbEntity
  8
pin socket, header
  6
ByLayer
 62
  256
370
   -1
100
AcDbCircle
 10
-31.11999999999969
 20
18.21999999999998
 40
0.45
  0
LINE
  5
12A
100
AcDbEntity
  8
pin socket, header
  6
ByLayer
 62
  256
370
   -1
100
AcDbLine
 10
-32.38999999999928
 20
22.02999999999994
 11
-32.38999999999928
 21
19.49000000000004
  0
LINE
  5
12B
100
AcDbEntity
  8
pin socket, header
  6
ByLayer
 62
  256
370
   -1
100
AcDbLine
 10
-29.85000000000013
 20
19.49000000000004
 11
-29.85000000000013
 21
22.02999999999994
  0
LINE
  5
12C
100
AcDbEntity
  8
pin socket, header
  6
ByLayer
 62
  256
370
   -1
100
AcDbLine
 10
-29.85000000000013
 20
22.02999999999994
 11
-32.38999999999928
 21
22.02999999999994
  0
CIRCLE
  5
12D
100
AcDbEntity
  8
pin socket, header
  6
ByLayer
 62
  256
370
   -1
100
AcDbCircle
 10
-31.11999999999969
 20
20.76
 40
0.45
  0
LINE
  5
12E
100
AcDbEntity
  8
pin socket, header
  6
ByLayer
 62
  256
370
   -1
100
AcDbLine
 10
-32.38999999999928
 20
24.56999999999996
 11
-32.38999999999928
 21
22.03000000000006
  0
LINE
  5
12F
100
AcDbEntity
  8
pin socket, header
  6
ByLayer
 62
  256
370
   -1
100
AcDbLine
 10
-29.85000000000013
 20
22.03000000000006
 11
-29.85000000000013
 21
24.56999999999996
  0
LINE
  5
130
100
AcDbEntity
  8
pin socket, header
  6
ByLayer
 62
  256
370
   -1
100
AcDbLine
 10
-29.85000000000013
 20
24.56999999999996
 11
-32.38999999999928
 21
24.56999999999996
  0
CIRCLE
  5
131
100
AcDbEntity
  8
pin socket, header
  6
ByLayer
 62
  256
370
   -1
100
AcDbCircle
 10
-31.11999999999969
 20
23.30000000000002
 40
0.45
  0
LINE
  5
132
100
AcDbEntity
  8
pin socket, header
  6
ByLayer
 62
  256
370
   -1
100
AcDbLine
 10
-29.85000000000013
 20
32.19000000000003
 11
-32.38999999999929
 21
32.19000000000003
  0
CIRCLE
  5
133
100
AcDbEntity
  8
universal_board
  6
ByLayer
 62
  256
370
   -1
100
AcDbCircle
 10
-26.0399999999999
 20
30.91999999999998
 40
0.5
  0
CIRCLE
  5
134
100
AcDbEntity
  8
universal_board
  6
ByLayer
 62
  256
370
   -1
100
AcDbCircle
 10
-26.0399999999999
 20
28.37999999999997
 40
0.5
  0
CIRCLE
  5
135
100
AcDbEntity
  8
universal_board
  6
ByLayer
 62
  256
370
   -1
100
AcDbCircle
 10
-26.0399999999999
 20
25.83999999999997
 40
0.5
  0
CIRCLE
  5
136
100
AcDbEntity
  8
universal_board
  6
ByLayer
 62
  256
370
   -1
100
AcDbCircle
 10
-26.0399999999999
 20
23.29999999999996
 40
0.5
  0
CIRCLE
  5
137
100
AcDbEntity
  8
universal_board
  6
ByLayer
 62
  256
370
   -1
100
AcDbCircle
 10
-26.0399999999999
 20
20.75999999999996
 40
0.5
  0
CIRCLE
  5
138
100
AcDbEntity
  8
universal_board
  6
ByLayer
 62
  256
370
   -1
100
AcDbCircle
 10
-26.0399999999999
 20
18.21999999999995
 40
0.5
  0
CIRCLE
  5
139
100
AcDbEntity
  8
universal_board
  6
ByLayer
 62
  256
370
   -1
100
AcDbCircle
 10
-26.0399999999999
 20
15.67999999999994
 40
0.5
  0
LINE
  5
13A
100
AcDbEntity
  8
pin socket, header
  6
ByLayer
 62
  256
370
   -1
100
AcDbLine
 10
-32.38999999999928
 20
27.10999999999989
 11
-32.38999999999928
 21
24.56999999999998
  0
LINE
  5
13B
100
AcDbEntity
  8
pin socket, header
  6
ByLayer
 62
  256
370
   -1
100
AcDbLine
 10
-29.85000000000012
 20
24.56999999999998
 11
-29.85000000000012
 21
27.10999999999989
  0
LINE
  5
13C
100
AcDbEntity
  8
pin socket, header
  6
ByLayer
 62
  256
370
   -1
100
AcDbLine
 10
-29.85000000000012
 20
27.10999999999989
 11
-32.38999999999928
 21
27.10999999999989
  0
CIRCLE
  5
13D
100
AcDbEntity
  8
pin socket, header
  6
ByLayer
 62
  256
370
   -1
100
AcDbCircle
 10
-31.11999999999968
 20
25.83999999999995
 40
0.45
  0
LINE
  5
13E
100
AcDbEntity
  8
pin socket, header
  6
ByLayer
 62
  256
370
   -1
100
AcDbLine
 10
-32.38999999999928
 20
29.64999999999991
 11
-32.38999999999928
 21
27.11000000000001
  0
LINE
  5
13F
100
AcDbEntity
  8
pin socket, header
  6
ByLayer
 62
  256
370
   -1
100
AcDbLine
 10
-29.85000000000012
 20
27.11000000000001
 11
-29.85000000000012
 21
29.64999999999991
  0
LINE
  5
140
100
AcDbEntity
  8
pin socket, header
  6
ByLayer
 62
  256
370
   -1
100
AcDbLine
 10
-29.85000000000012
 20
29.64999999999991
 11
-32.38999999999928
 21
29.64999999999991
  0
CIRCLE
  5
141
100
AcDbEntity
  8
pin socket, header
  6
ByLayer
 62
  256
370
   -1
100
AcDbCircle
 10
-31.11999999999968
 20
28.37999999999997
 40
0.45
  0
LINE
  5
142
100
AcDbEntity
  8
pin socket, header
  6
ByLayer
 62
  256
370
   -1
100
AcDbLine
 10
-32.38999999999926
 20
32.18999999999993
 11
-32.38999999999926
 21
29.65000000000003
  0
LINE
  5
143
100
AcDbEntity
  8
pin socket, header
  6
ByLayer
 62
  256
370
   -1
100
AcDbLine
 10
-29.8500000000001
 20
29.65000000000003
 11
-29.8500000000001
 21
32.18999999999993
  0
CIRCLE
  5
144
100
AcDbEntity
  8
pin socket, header
  6
ByLayer
 62
  256
370
   -1
100
AcDbCircle
 10
-31.11999999999968
 20
30.91999999999998
 40
0.45
  0
CIRCLE
  5
145
100
AcDbEntity
  8
universal_board
  6
ByLayer
 62
  256
370
   -1
100
AcDbCircle
 10
-28.57999999999979
 20
13.13999999999994
 40
0.5
  0
CIRCLE
  5
146
100
AcDbEntity
  8
universal_board
  6
ByLayer
 62
  256
370
   -1
100
AcDbCircle
 10
-31.11999999999968
 20
13.13999999999994
 40
0.5
  0
CIRCLE
  5
147
100
AcDbEntity
  8
universal_board
  6
ByLayer
 62
  256
370
   -1
100
AcDbCircle
 10
-26.0399999999999
 20
13.13999999999994
 40
0.5
  0
CIRCLE
  5
148
100
AcDbEntity
  8
universal_board
  6
ByLayer
 62
  256
370
   -1
100
AcDbCircle
 10
-28.57999999999979
 20
10.59999999999993
 40
0.5
  0
CIRCLE
  5
149
100
AcDbEntity
  8
universal_board
  6
ByLayer
 62
  256
370
   -1
100
AcDbCircle
 10
-31.11999999999968
 20
10.59999999999993
 40
0.5
  0
CIRCLE
  5
14A
100
AcDbEntity
  8
universal_board
  6
ByLayer
 62
  256
370
   -1
100
AcDbCircle
 10
-26.0399999999999
 20
10.59999999999993
 40
0.5
  0
LINE
  5
14B
100
AcDbEntity
  8
pin socket, header
  6
ByLayer
 62
  256
370
   -1
100
AcDbLine
 10
3.169999999999096
 20
9.329999999999742
 11
3.169999999999096
 21
11.87000000000016
  0
LINE
  5
14C
100
AcDbEntity
  8
pin socket, header
  6
ByLayer
 62
  256
370
   -1
100
AcDbLine
 10
5.709999999998875
 20
14.4100000000002
 11
3.169999999998435
 21
14.4100000000002
  0
LINE
  5
14D
100
AcDbEntity
  8
pin socket, header
  6
ByLayer
 62
  256
370
   -1
100
AcDbLine
 10
5.709999999998868
 20
14.4100000000002
 11
3.169999999998421
 21
14.4100000000002
  0
LINE
  5
14E
100
AcDbEntity
  8
pin socket, header
  6
ByLayer
 62
  256
370
   -1
100
AcDbLine
 10
5.709999999998889
 20
11.87000000000018
 11
3.169999999998449
 21
11.87000000000018
  0
LINE
  5
14F
100
AcDbEntity
  8
pin socket, header
  6
ByLayer
 62
  256
370
   -1
100
AcDbLine
 10
3.169999999998435
 20
14.4100000000002
 11
3.169999999998435
 21
11.86999999999978
  0
CIRCLE
  5
150
100
AcDbEntity
  8
pin socket, header
  6
ByLayer
 62
  256
370
   -1
100
AcDbCircle
 10
4.439999999998651
 20
13.13999999999999
 40
0.3
  0
LINE
  5
151
100
AcDbEntity
  8
pin socket, header
  6
ByLayer
 62
  256
370
   -1
100
AcDbLine
 10
5.709999999998875
 20
11.87000000000018
 11
3.169999999998435
 21
11.87000000000018
  0
LINE
  5
152
100
AcDbEntity
  8
pin socket, header
  6
ByLayer
 62
  256
370
   -1
100
AcDbLine
 10
5.709999999998875
 20
9.329999999999757
 11
5.709999999998875
 21
11.87000000000018
  0
LINE
  5
153
100
AcDbEntity
  8
pin socket, header
  6
ByLayer
 62
  256
370
   -1
100
AcDbLine
 10
5.709999999998875
 20
11.87000000000018
 11
3.169999999998428
 21
11.87000000000018
  0
CIRCLE
  5
154
100
AcDbEntity
  8
pin socket, header
  6
ByLayer
 62
  256
370
   -1
100
AcDbCircle
 10
4.439999999998644
 20
10.59999999999997
 40
0.3
  0
LINE
  5
155
100
AcDbEntity
  8
pin socket, header
  6
ByLayer
 62
  256
370
   -1
100
AcDbLine
 10
5.709999999998875
 20
9.330000000000162
 11
3.169999999998428
 21
9.330000000000162
  0
LINE
  5
156
100
AcDbEntity
  8
pin socket, header
  6
ByLayer
 62
  256
370
   -1
100
AcDbLine
 10
5.709999999998825
 20
27.11000000000031
 11
3.169999999998385
 21
27.11000000000031
  0
LINE
  5
157
100
AcDbEntity
  8
pin socket, header
  6
ByLayer
 62
  256
370
   -1
100
AcDbLine
 10
5.709999999998811
 20
29.65000000000033
 11
3.169999999998371
 21
29.65000000000033
  0
LINE
  5
158
100
AcDbEntity
  8
pin socket, header
  6
ByLayer
 62
  256
370
   -1
100
AcDbLine
 10
5.709999999998811
 20
32.19000000000032
 11
3.169999999998371
 21
32.19000000000032
  0
LINE
  5
159
100
AcDbEntity
  8
pin socket, header
  6
ByLayer
 62
  256
370
   -1
100
AcDbLine
 10
3.169999999998357
 20
32.19000000000032
 11
3.169999999999025
 21
29.65000000000031
  0
LINE
  5
15A
100
AcDbEntity
  8
pin socket, header
  6
ByLayer
 62
  256
370
   -1
100
AcDbLine
 10
5.709999999998683
 20
32.19000000000032
 11
5.709999999998683
 21
29.65000000000031
  0
CIRCLE
  5
15B
100
AcDbEntity
  8
pin socket, header
  6
ByLayer
 62
  256
370
   -1
100
AcDbCircle
 10
4.43999999999858
 20
30.92000000000012
 40
0.3
  0
CIRCLE
  5
15C
100
AcDbEntity
  8
pin socket, header
  6
ByLayer
 62
  256
370
   -1
100
AcDbCircle
 10
4.439999999998587
 20
28.3800000000001
 40
0.3
  0
CIRCLE
  5
15D
100
AcDbEntity
  8
universal_board
  6
ByLayer
 62
  256
370
   -1
100
AcDbCircle
 10
-23.50000000000001
 20
30.91999999999998
 40
0.5
  0
CIRCLE
  5
15E
100
AcDbEntity
  8
universal_board
  6
ByLayer
 62
  256
370
   -1
100
AcDbCircle
 10
-23.50000000000001
 20
28.37999999999997
 40
0.5
  0
CIRCLE
  5
15F
100
AcDbEntity
  8
universal_board
  6
ByLayer
 62
  256
370
   -1
100
AcDbCircle
 10
-23.50000000000001
 20
25.83999999999997
 40
0.5
  0
CIRCLE
  5
160
100
AcDbEntity
  8
universal_board
  6
ByLayer
 62
  256
370
   -1
100
AcDbCircle
 10
-23.50000000000001
 20
23.29999999999996
 40
0.5
  0
CIRCLE
  5
161
100
AcDbEntity
  8
universal_board
  6
ByLayer
 62
  256
370
   -1
100
AcDbCircle
 10
-23.50000000000001
 20
20.75999999999996
 40
0.5
  0
CIRCLE
  5
162
100
AcDbEntity
  8
universal_board
  6
ByLayer
 62
  256
370
   -1
100
AcDbCircle
 10
-23.50000000000001
 20
18.21999999999995
 40
0.5
  0
CIRCLE
  5
163
100
AcDbEntity
  8
universal_board
  6
ByLayer
 62
  256
370
   -1
100
AcDbCircle
 10
-23.50000000000001
 20
15.67999999999994
 40
0.5
  0
CIRCLE
  5
164
100
AcDbEntity
  8
universal_board
  6
ByLayer
 62
  256
370
   -1
100
AcDbCircle
 10
-23.50000000000001
 20
13.13999999999994
 40
0.5
  0
CIRCLE
  5
165
100
AcDbEntity
  8
universal_board
  6
ByLayer
 62
  256
370
   -1
100
AcDbCircle
 10
-23.50000000000001
 20
10.59999999999993
 40
0.5
  0
CIRCLE
  5
166
100
AcDbEntity
  8
universal_board
  6
ByLayer
 62
  256
370
   -1
100
AcDbCircle
 10
-20.96000000000012
 20
30.91999999999998
 40
0.5
  0
CIRCLE
  5
167
100
AcDbEntity
  8
universal_board
  6
ByLayer
 62
  256
370
   -1
100
AcDbCircle
 10
-20.96000000000012
 20
28.37999999999997
 40
0.5
  0
CIRCLE
  5
168
100
AcDbEntity
  8
universal_board
  6
ByLayer
 62
  256
370
   -1
100
AcDbCircle
 10
-20.96000000000012
 20
25.83999999999997
 40
0.5
  0
CIRCLE
  5
169
100
AcDbEntity
  8
universal_board
  6
ByLayer
 62
  256
370
   -1
100
AcDbCircle
 10
-20.96000000000012
 20
23.29999999999996
 40
0.5
  0
CIRCLE
  5
16A
100
AcDbEntity
  8
universal_board
  6
ByLayer
 62
  256
370
   -1
100
AcDbCircle
 10
-20.96000000000012
 20
20.75999999999996
 40
0.5
  0
CIRCLE
  5
16B
100
AcDbEntity
  8
universal_board
  6
ByLayer
 62
  256
370
   -1
100
AcDbCircle
 10
-20.96000000000012
 20
18.21999999999995
 40
0.5
  0
CIRCLE
  5
16C
100
AcDbEntity
  8
universal_board
  6
ByLayer
 62
  256
370
   -1
100
AcDbCircle
 10
-20.96000000000012
 20
15.67999999999994
 40
0.5
  0
CIRCLE
  5
16D
100
AcDbEntity
  8
universal_board
  6
ByLayer
 62
  256
370
   -1
100
AcDbCircle
 10
-20.96000000000012
 20
13.13999999999994
 40
0.5
  0
CIRCLE
  5
16E
100
AcDbEntity
  8
universal_board
  6
ByLayer
 62
  256
370
   -1
100
AcDbCircle
 10
-20.96000000000012
 20
10.59999999999993
 40
0.5
  0
CIRCLE
  5
16F
100
AcDbEntity
  8
universal_board
  6
ByLayer
 62
  256
370
   -1
100
AcDbCircle
 10
-18.42000000000023
 20
30.91999999999998
 40
0.5
  0
CIRCLE
  5
170
100
AcDbEntity
  8
universal_board
  6
ByLayer
 62
  256
370
   -1
100
AcDbCircle
 10
-18.42000000000023
 20
28.37999999999997
 40
0.5
  0
CIRCLE
  5
171
100
AcDbEntity
  8
universal_board
  6
ByLayer
 62
  256
370
   -1
100
AcDbCircle
 10
-18.42000000000023
 20
25.83999999999997
 40
0.5
  0
CIRCLE
  5
172
100
AcDbEntity
  8
universal_board
  6
ByLayer
 62
  256
370
   -1
100
AcDbCircle
 10
-18.42000000000023
 20
23.29999999999996
 40
0.5
  0
CIRCLE
  5
173
100
AcDbEntity
  8
universal_board
  6
ByLayer
 62
  256
370
   -1
100
AcDbCircle
 10
-18.42000000000023
 20
20.75999999999996
 40
0.5
  0
CIRCLE
  5
174
100
AcDbEntity
  8
universal_board
  6
ByLayer
 62
  256
370
   -1
100
AcDbCircle
 10
-18.42000000000023
 20
18.21999999999995
 40
0.5
  0
CIRCLE
  5
175
100
AcDbEntity
  8
universal_board
  6
ByLayer
 62
  256
370
   -1
100
AcDbCircle
 10
-18.42000000000023
 20
15.67999999999994
 40
0.5
  0
CIRCLE
  5
176
100
AcDbEntity
  8
universal_board
  6
ByLayer
 62
  256
370
   -1
100
AcDbCircle
 10
-18.42000000000023
 20
13.13999999999994
 40
0.5
  0
CIRCLE
  5
177
100
AcDbEntity
  8
universal_board
  6
ByLayer
 62
  256
370
   -1
100
AcDbCircle
 10
-18.42000000000023
 20
10.59999999999993
 40
0.5
  0
CIRCLE
  5
178
100
AcDbEntity
  8
universal_board
  6
ByLayer
 62
  256
370
   -1
100
AcDbCircle
 10
-15.88000000000034
 20
30.91999999999998
 40
0.5
  0
CIRCLE
  5
179
100
AcDbEntity
  8
universal_board
  6
ByLayer
 62
  256
370
   -1
100
AcDbCircle
 10
-15.88000000000034
 20
28.37999999999997
 40
0.5
  0
CIRCLE
  5
17A
100
AcDbEntity
  8
universal_board
  6
ByLayer
 62
  256
370
   -1
100
AcDbCircle
 10
-15.88000000000034
 20
25.83999999999997
 40
0.5
  0
CIRCLE
  5
17B
100
AcDbEntity
  8
universal_board
  6
ByLayer
 62
  256
370
   -1
100
AcDbCircle
 10
-15.88000000000034
 20
23.29999999999996
 40
0.5
  0
CIRCLE
  5
17C
100
AcDbEntity
  8
universal_board
  6
ByLayer
 62
  256
370
   -1
100
AcDbCircle
 10
-15.88000000000034
 20
20.75999999999996
 40
0.5
  0
CIRCLE
  5
17D
100
AcDbEntity
  8
universal_board
  6
ByLayer
 62
  256
370
   -1
100
AcDbCircle
 10
-15.88000000000034
 20
18.21999999999995
 40
0.5
  0
CIRCLE
  5
17E
100
AcDbEntity
  8
universal_board
  6
ByLayer
 62
  256
370
   -1
100
AcDbCircle
 10
-15.88000000000034
 20
15.67999999999994
 40
0.5
  0
CIRCLE
  5
17F
100
AcDbEntity
  8
universal_board
  6
ByLayer
 62
  256
370
   -1
100
AcDbCircle
 10
-15.88000000000034
 20
13.13999999999994
 40
0.5
  0
CIRCLE
  5
180
100
AcDbEntity
  8
universal_board
  6
ByLayer
 62
  256
370
   -1
100
AcDbCircle
 10
-15.88000000000034
 20
10.59999999999993
 40
0.5
  0
CIRCLE
  5
181
100
AcDbEntity
  8
universal_board
  6
ByLayer
 62
  256
370
   -1
100
AcDbCircle
 10
-13.34000000000045
 20
30.91999999999998
 40
0.5
  0
CIRCLE
  5
182
100
AcDbEntity
  8
universal_board
  6
ByLayer
 62
  256
370
   -1
100
AcDbCircle
 10
-13.34000000000045
 20
28.37999999999997
 40
0.5
  0
CIRCLE
  5
183
100
AcDbEntity
  8
universal_board
  6
ByLayer
 62
  256
370
   -1
100
AcDbCircle
 10
-13.34000000000045
 20
25.83999999999997
 40
0.5
  0
CIRCLE
  5
184
100
AcDbEntity
  8
universal_board
  6
ByLayer
 62
  256
370
   -1
100
AcDbCircle
 10
-13.34000000000045
 20
23.29999999999996
 40
0.5
  0
CIRCLE
  5
185
100
AcDbEntity
  8
universal_board
  6
ByLayer
 62
  256
370
   -1
100
AcDbCircle
 10
-13.34000000000045
 20
20.75999999999996
 40
0.5
  0
CIRCLE
  5
186
100
AcDbEntity
  8
universal_board
  6
ByLayer
 62
  256
370
   -1
100
AcDbCircle
 10
-13.34000000000045
 20
18.21999999999995
 40
0.5
  0
CIRCLE
  5
187
100
AcDbEntity
  8
universal_board
  6
ByLayer
 62
  256
370
   -1
100
AcDbCircle
 10
-13.34000000000045
 20
15.67999999999994
 40
0.5
  0
CIRCLE
  5
188
100
AcDbEntity
  8
universal_board
  6
ByLayer
 62
  256
370
   -1
100
AcDbCircle
 10
-13.34000000000045
 20
13.13999999999994
 40
0.5
  0
CIRCLE
  5
189
100
AcDbEntity
  8
universal_board
  6
ByLayer
 62
  256
370
   -1
100
AcDbCircle
 10
-13.34000000000045
 20
10.59999999999993
 40
0.5
  0
CIRCLE
  5
18A
100
AcDbEntity
  8
universal_board
  6
ByLayer
 62
  256
370
   -1
100
AcDbCircle
 10
-10.80000000000057
 20
30.91999999999998
 40
0.5
  0
CIRCLE
  5
18B
100
AcDbEntity
  8
universal_board
  6
ByLayer
 62
  256
370
   -1
100
AcDbCircle
 10
-10.80000000000057
 20
28.37999999999997
 40
0.5
  0
CIRCLE
  5
18C
100
AcDbEntity
  8
universal_board
  6
ByLayer
 62
  256
370
   -1
100
AcDbCircle
 10
-10.80000000000057
 20
25.83999999999997
 40
0.5
  0
CIRCLE
  5
18D
100
AcDbEntity
  8
universal_board
  6
ByLayer
 62
  256
370
   -1
100
AcDbCircle
 10
-10.80000000000057
 20
23.29999999999996
 40
0.5
  0
CIRCLE
  5
18E
100
AcDbEntity
  8
universal_board
  6
ByLayer
 62
  256
370
   -1
100
AcDbCircle
 10
-10.80000000000057
 20
20.75999999999996
 40
0.5
  0
CIRCLE
  5
18F
100
AcDbEntity
  8
universal_board
  6
ByLayer
 62
  256
370
   -1
100
AcDbCircle
 10
-10.80000000000057
 20
18.21999999999995
 40
0.5
  0
CIRCLE
  5
190
100
AcDbEntity
  8
universal_board
  6
ByLayer
 62
  256
370
   -1
100
AcDbCircle
 10
-10.80000000000057
 20
15.67999999999994
 40
0.5
  0
CIRCLE
  5
191
100
AcDbEntity
  8
universal_board
  6
ByLayer
 62
  256
370
   -1
100
AcDbCircle
 10
-10.80000000000057
 20
13.13999999999994
 40
0.5
  0
CIRCLE
  5
192
100
AcDbEntity
  8
universal_board
  6
ByLayer
 62
  256
370
   -1
100
AcDbCircle
 10
-10.80000000000057
 20
10.59999999999993
 40
0.5
  0
CIRCLE
  5
193
100
AcDbEntity
  8
universal_board
  6
ByLayer
 62
  256
370
   -1
100
AcDbCircle
 10
-8.260000000000677
 20
30.91999999999998
 40
0.5
  0
CIRCLE
  5
194
100
AcDbEntity
  8
universal_board
  6
ByLayer
 62
  256
370
   -1
100
AcDbCircle
 10
-8.260000000000677
 20
28.37999999999997
 40
0.5
  0
CIRCLE
  5
195
100
AcDbEntity
  8
universal_board
  6
ByLayer
 62
  256
370
   -1
100
AcDbCircle
 10
-8.260000000000677
 20
25.83999999999997
 40
0.5
  0
CIRCLE
  5
196
100
AcDbEntity
  8
universal_board
  6
ByLayer
 62
  256
370
   -1
100
AcDbCircle
 10
-8.260000000000677
 20
23.29999999999996
 40
0.5
  0
CIRCLE
  5
197
100
AcDbEntity
  8
universal_board
  6
ByLayer
 62
  256
370
   -1
100
AcDbCircle
 10
-8.260000000000677
 20
20.75999999999996
 40
0.5
  0
CIRCLE
  5
198
100
AcDbEntity
  8
universal_board
  6
ByLayer
 62
  256
370
   -1
100
AcDbCircle
 10
-8.260000000000677
 20
18.21999999999995
 40
0.5
  0
CIRCLE
  5
199
100
AcDbEntity
  8
universal_board
  6
ByLayer
 62
  256
370
   -1
100
AcDbCircle
 10
-8.260000000000677
 20
15.67999999999994
 40
0.5
  0
CIRCLE
  5
19A
100
AcDbEntity
  8
universal_board
  6
ByLayer
 62
  256
370
   -1
100
AcDbCircle
 10
-8.260000000000677
 20
13.13999999999994
 40
0.5
  0
CIRCLE
  5
19B
100
AcDbEntity
  8
universal_board
  6
ByLayer
 62
  256
370
   -1
100
AcDbCircle
 10
-8.260000000000677
 20
10.59999999999993
 40
0.5
  0
CIRCLE
  5
19C
100
AcDbEntity
  8
universal_board
  6
ByLayer
 62
  256
370
   -1
100
AcDbCircle
 10
-5.720000000000788
 20
30.91999999999998
 40
0.5
  0
CIRCLE
  5
19D
100
AcDbEntity
  8
universal_board
  6
ByLayer
 62
  256
370
   -1
100
AcDbCircle
 10
-5.720000000000788
 20
28.37999999999997
 40
0.5
  0
CIRCLE
  5
19E
100
AcDbEntity
  8
universal_board
  6
ByLayer
 62
  256
370
   -1
100
AcDbCircle
 10
-5.720000000000788
 20
25.83999999999997
 40
0.5
  0
CIRCLE
  5
19F
100
AcDbEntity
  8
universal_board
  6
ByLayer
 62
  256
370
   -1
100
AcDbCircle
 10
-5.720000000000788
 20
23.29999999999996
 40
0.5
  0
CIRCLE
  5
1A0
100
AcDbEntity
  8
universal_board
  6
ByLayer
 62
  256
370
   -1
100
AcDbCircle
 10
-5.720000000000788
 20
20.75999999999996
 40
0.5
  0
CIRCLE
  5
1A1
100
AcDbEntity
  8
universal_board
  6
ByLayer
 62
  256
370
   -1
100
AcDbCircle
 10
-5.720000000000788
 20
18.21999999999995
 40
0.5
  0
CIRCLE
  5
1A2
100
AcDbEntity
  8
universal_board
  6
ByLayer
 62
  256
370
   -1
100
AcDbCircle
 10
-5.720000000000788
 20
15.67999999999994
 40
0.5
  0
CIRCLE
  5
1A3
100
AcDbEntity
  8
universal_board
  6
ByLayer
 62
  256
370
   -1
100
AcDbCircle
 10
-5.720000000000788
 20
13.13999999999994
 40
0.5
  0
CIRCLE
  5
1A4
100
AcDbEntity
  8
universal_board
  6
ByLayer
 62
  256
370
   -1
100
AcDbCircle
 10
-5.720000000000788
 20
10.59999999999993
 40
0.5
  0
CIRCLE
  5
1A5
100
AcDbEntity
  8
universal_board
  6
ByLayer
 62
  256
370
   -1
100
AcDbCircle
 10
-3.180000000000899
 20
30.91999999999998
 40
0.5
  0
CIRCLE
  5
1A6
100
AcDbEntity
  8
universal_board
  6
ByLayer
 62
  256
370
   -1
100
AcDbCircle
 10
-3.180000000000899
 20
28.37999999999997
 40
0.5
  0
CIRCLE
  5
1A7
100
AcDbEntity
  8
universal_board
  6
ByLayer
 62
  256
370
   -1
100
AcDbCircle
 10
-3.180000000000899
 20
25.83999999999997
 40
0.5
  0
CIRCLE
  5
1A8
100
AcDbEntity
  8
universal_board
  6
ByLayer
 62
  256
370
   -1
100
AcDbCircle
 10
-3.180000000000899
 20
23.29999999999996
 40
0.5
  0
CIRCLE
  5
1A9
100
AcDbEntity
  8
universal_board
  6
ByLayer
 62
  256
370
   -1
100
AcDbCircle
 10
-3.180000000000899
 20
20.75999999999996
 40
0.5
  0
CIRCLE
  5
1AA
100
AcDbEntity
  8
universal_board
  6
ByLayer
 62
  256
370
   -1
100
AcDbCircle
 10
-3.180000000000899
 20
18.21999999999995
 40
0.5
  0
CIRCLE
  5
1AB
100
AcDbEntity
  8
universal_board
  6
ByLayer
 62
  256
370
   -1
100
AcDbCircle
 10
-3.180000000000899
 20
15.67999999999994
 40
0.5
  0
CIRCLE
  5
1AC
100
AcDbEntity
  8
universal_board
  6
ByLayer
 62
  256
370
   -1
100
AcDbCircle
 10
-3.180000000000899
 20
13.13999999999994
 40
0.5
  0
CIRCLE
  5
1AD
100
AcDbEntity
  8
universal_board
  6
ByLayer
 62
  256
370
   -1
100
AcDbCircle
 10
-3.180000000000899
 20
10.59999999999993
 40
0.5
  0
CIRCLE
  5
1AE
100
AcDbEntity
  8
universal_board
  6
ByLayer
 62
  256
370
   -1
100
AcDbCircle
 10
-0.6400000000010095
 20
30.91999999999998
 40
0.5
  0
CIRCLE
  5
1AF
100
AcDbEntity
  8
universal_board
  6
ByLayer
 62
  256
370
   -1
100
AcDbCircle
 10
-0.6400000000010095
 20
28.37999999999997
 40
0.5
  0
CIRCLE
  5
1B0
100
AcDbEntity
  8
universal_board
  6
ByLayer
 62
  256
370
   -1
100
AcDbCircle
 10
-0.6400000000010095
 20
25.83999999999997
 40
0.5
  0
CIRCLE
  5
1B1
100
AcDbEntity
  8
universal_board
  6
ByLayer
 62
  256
370
   -1
100
AcDbCircle
 10
-0.6400000000010095
 20
23.29999999999996
 40
0.5
  0
CIRCLE
  5
1B2
100
AcDbEntity
  8
universal_board
  6
ByLayer
 62
  256
370
   -1
100
AcDbCircle
 10
-0.6400000000010095
 20
20.75999999999996
 40
0.5
  0
CIRCLE
  5
1B3
100
AcDbEntity
  8
universal_board
  6
ByLayer
 62
  256
370
   -1
100
AcDbCircle
 10
-0.6400000000010095
 20
18.21999999999995
 40
0.5
  0
CIRCLE
  5
1B4
100
AcDbEntity
  8
universal_board
  6
ByLayer
 62
  256
370
   -1
100
AcDbCircle
 10
-0.6400000000010095
 20
15.67999999999994
 40
0.5
  0
CIRCLE
  5
1B5
100
AcDbEntity
  8
universal_board
  6
ByLayer
 62
  256
370
   -1
100
AcDbCircle
 10
-0.6400000000010095
 20
13.13999999999994
 40
0.5
  0
CIRCLE
  5
1B6
100
AcDbEntity
  8
universal_board
  6
ByLayer
 62
  256
370
   -1
100
AcDbCircle
 10
-0.6400000000010095
 20
10.59999999999993
 40
0.5
  0
CIRCLE
  5
1B7
100
AcDbEntity
  8
universal_board
  6
ByLayer
 62
  256
370
   -1
100
AcDbCircle
 10
1.899999999998879
 20
30.91999999999998
 40
0.5
  0
CIRCLE
  5
1B8
100
AcDbEntity
  8
universal_board
  6
ByLayer
 62
  256
370
   -1
100
AcDbCircle
 10
1.899999999998879
 20
28.37999999999997
 40
0.5
  0
CIRCLE
  5
1B9
100
AcDbEntity
  8
universal_board
  6
ByLayer
 62
  256
370
   -1
100
AcDbCircle
 10
1.899999999998879
 20
25.83999999999997
 40
0.5
  0
CIRCLE
  5
1BA
100
AcDbEntity
  8
universal_board
  6
ByLayer
 62
  256
370
   -1
100
AcDbCircle
 10
1.899999999998879
 20
23.29999999999996
 40
0.5
  0
CIRCLE
  5
1BB
100
AcDbEntity
  8
universal_board
  6
ByLayer
 62
  256
370
   -1
100
AcDbCircle
 10
1.899999999998879
 20
20.75999999999996
 40
0.5
  0
CIRCLE
  5
1BC
100
AcDbEntity
  8
universal_board
  6
ByLayer
 62
  256
370
   -1
100
AcDbCircle
 10
1.899999999998879
 20
18.21999999999995
 40
0.5
  0
CIRCLE
  5
1BD
100
AcDbEntity
  8
universal_board
  6
ByLayer
 62
  256
370
   -1
100
AcDbCircle
 10
1.899999999998879
 20
15.67999999999994
 40
0.5
  0
CIRCLE
  5
1BE
100
AcDbEntity
  8
universal_board
  6
ByLayer
 62
  256
370
   -1
100
AcDbCircle
 10
1.899999999998879
 20
13.13999999999994
 40
0.5
  0
CIRCLE
  5
1BF
100
AcDbEntity
  8
universal_board
  6
ByLayer
 62
  256
370
   -1
100
AcDbCircle
 10
1.899999999998879
 20
10.59999999999993
 40
0.5
  0
CIRCLE
  5
1C0
100
AcDbEntity
  8
universal_board
  6
ByLayer
 62
  256
370
   -1
100
AcDbCircle
 10
4.439999999998768
 20
30.91999999999998
 40
0.5
  0
CIRCLE
  5
1C1
100
AcDbEntity
  8
universal_board
  6
ByLayer
 62
  256
370
   -1
100
AcDbCircle
 10
4.439999999998768
 20
28.37999999999997
 40
0.5
  0
CIRCLE
  5
1C2
100
AcDbEntity
  8
universal_board
  6
ByLayer
 62
  256
370
   -1
100
AcDbCircle
 10
4.439999999998768
 20
25.83999999999997
 40
0.5
  0
CIRCLE
  5
1C3
100
AcDbEntity
  8
universal_board
  6
ByLayer
 62
  256
370
   -1
100
AcDbCircle
 10
4.439999999998768
 20
23.29999999999996
 40
0.5
  0
CIRCLE
  5
1C4
100
AcDbEntity
  8
universal_board
  6
ByLayer
 62
  256
370
   -1
100
AcDbCircle
 10
4.439999999998768
 20
20.75999999999996
 40
0.5
  0
CIRCLE
  5
1C5
100
AcDbEntity
  8
universal_board
  6
ByLayer
 62
  256
370
   -1
100
AcDbCircle
 10
4.439999999998768
 20
18.21999999999995
 40
0.5
  0
CIRCLE
  5
1C6
100
AcDbEntity
  8
universal_board
  6
ByLayer
 62
  256
370
   -1
100
AcDbCircle
 10
4.439999999998768
 20
15.67999999999994
 40
0.5
  0
CIRCLE
  5
1C7
100
AcDbEntity
  8
universal_board
  6
ByLayer
 62
  256
370
   -1
100
AcDbCircle
 10
4.439999999998768
 20
13.13999999999994
 40
0.5
  0
CIRCLE
  5
1C8
100
AcDbEntity
  8
universal_board
  6
ByLayer
 62
  256
370
   -1
100
AcDbCircle
 10
4.439999999998768
 20
10.59999999999993
 40
0.5
  0
MTEXT
  5
1C9
100
AcDbEntity
  8
pin socket, header
  6
ByLayer
 62
  256
370
   -1
100
AcDbMText
 10
7.706813963246209
 20
20.99939860254054
 30
0
 40
1
 41
3.111110888888889
 71
    5
 72
    1
  1
GND\PGND\P(VCC)\P(D4)\P(D3)\P(D2)\P(D1)\P(D0)\PRST
  7
STANDARD
210
0
220
0
230
1
 50
0
 73
    2
 44
1.54
  0
LINE
  5
1CA
100
AcDbEntity
  8
terminal, connector
  6
ByLayer
 62
  256
370
   -1
100
AcDbLine
 10
-20.09999999999996
 20
15.80999999999976
 11
-25.84999999999995
 21
15.80999999999976
  0
CIRCLE
  5
1CB
100
AcDbEntity
  8
terminal, connector
  6
ByLayer
 62
  256
370
   -1
100
AcDbCircle
 10
-23.49999999999992
 20
20.75999999999988
 40
0.4
  0
CIRCLE
  5
1CC
100
AcDbEntity
  8
terminal, connector
  6
ByLayer
 62
  256
370
   -1
100
AcDbCircle
 10
-23.50000000000001
 20
23.29999999999996
 40
0.4
  0
CIRCLE
  5
1CD
100
AcDbEntity
  8
terminal, connector
  6
ByLayer
 62
  256
370
   -1
100
AcDbCircle
 10
-23.50000000000001
 20
18.21999999999995
 40
0.4
  0
LINE
  5
1CE
100
AcDbEntity
  8
terminal, connector
  6
ByLayer
 62
  256
370
   -1
100
AcDbLine
 10
-25.84999999999995
 20
30.79000000000001
 11
-20.09999999999996
 21
30.79000000000001
  0
LINE
  5
1CF
100
AcDbEntity
  8
terminal, connector
  6
ByLayer
 62
  256
370
   -1
100
AcDbLine
 10
-25.84999999999995
 20
15.80999999999976
 11
-25.84999999999995
 21
30.79000000000001
  0
LINE
  5
1D0
100
AcDbEntity
  8
terminal, connector
  6
ByLayer
 62
  256
370
   -1
100
AcDbLine
 10
-20.09999999999996
 20
30.79000000000001
 11
-20.09999999999996
 21
15.80999999999976
  0
CIRCLE
  5
1D1
100
AcDbEntity
  8
terminal, connector
  6
ByLayer
 62
  256
370
   -1
100
AcDbCircle
 10
-23.50000000000001
 20
25.83999999999996
 40
0.4
  0
CIRCLE
  5
1D2
100
AcDbEntity
  8
terminal, connector
  6
ByLayer
 62
  256
370
   -1
100
AcDbCircle
 10
-23.50000000000001
 20
28.37999999999997
 40
0.4
  0
MTEXT
  5
1D3
100
AcDbEntity
  8
terminal, connector
  6
ByLayer
 62
  256
370
   -1
100
AcDbMText
 10
-22.80602348508697
 20
23.16471284388912
 30
0
 40
1
 41
6.444444444444553
 71
    4
 72
    1
  1
VCC\PGND\PA0-RA1\PA1-RA0\PA3-nMCLR
  7
iso
210
0
220
0
230
1
 50
0
 73
    2
 44
1.54
  0
LINE
  5
1D4
100
AcDbEntity
  8
0_wire
  6
ByLayer
 62
  256
370
   -1
100
AcDbLine
 10
-23.50000000000001
 20
18.21999999999995
 11
-23.50000000000001
 21
15.67999999999994
  0
LINE
  5
1D5
100
AcDbEntity
  8
0_wire
  6
ByLayer
 62
  256
370
   -1
100
AcDbLine
 10
-23.50000000000001
 20
15.67999999999994
 11
-31.11999999999968
 21
15.67999999999994
  0
LINE
  5
1D6
100
AcDbEntity
  8
0_wire
  6
ByLayer
 62
  256
370
   -1
100
AcDbLine
 10
-31.11999999999969
 20
20.76
 11
-23.50000000000001
 21
20.75999999999987
  0
LINE
  5
1D7
100
AcDbEntity
  8
0_wire
  6
ByLayer
 62
  256
370
   -1
100
AcDbLine
 10
-31.11999999999969
 20
23.30000000000002
 11
-23.50000000000001
 21
23.29999999999993
  0
LINE
  5
1D8
100
AcDbEntity
  8
0_GND
  6
ByLayer
 62
  256
370
   -1
100
AcDbLine
 10
-31.11999999999968
 20
25.83999999999997
 11
-23.50000000000001
 21
25.83999999999997
  0
LINE
  5
1D9
100
AcDbEntity
  8
5V line
  6
ByLayer
 62
  256
370
   -1
100
AcDbLine
 10
-31.11999999999968
 20
30.91999999999998
 11
-23.50000000000001
 21
30.91999999999998
  0
LINE
  5
1DA
100
AcDbEntity
  8
5V line
  6
ByLayer
 62
  256
370
   -1
100
AcDbLine
 10
-23.50000000000001
 20
30.91999999999998
 11
-23.50000000000001
 21
28.37999999999997
  0
LINE
  5
1DB
100
AcDbEntity
  8
pin socket, header
  6
ByLayer
 62
  256
370
   -1
100
AcDbLine
 10
-32.38999999999928
 20
14.4099999999999
 11
-32.38999999999928
 21
11.86999999999999
  0
LINE
  5
1DC
100
AcDbEntity
  8
pin socket, header
  6
ByLayer
 62
  256
370
   -1
100
AcDbLine
 10
-32.38999999999928
 20
11.86999999999999
 11
-29.85000000000013
 21
11.86999999999999
  0
LINE
  5
1DD
100
AcDbEntity
  8
pin socket, header
  6
ByLayer
 62
  256
370
   -1
100
AcDbLine
 10
-29.85000000000013
 20
11.86999999999999
 11
-29.85000000000013
 21
14.4099999999999
  0
LINE
  5
1DE
100
AcDbEntity
  8
pin socket, header
  6
ByLayer
 62
  256
370
   -1
100
AcDbLine
 10
-29.85000000000013
 20
14.4099999999999
 11
-32.38999999999928
 21
14.4099999999999
  0
CIRCLE
  5
1DF
100
AcDbEntity
  8
pin socket, header
  6
ByLayer
 62
  256
370
   -1
100
AcDbCircle
 10
-31.11999999999969
 20
13.13999999999995
 40
0.45
  0
LINE
  5
1E0
100
AcDbEntity
  8
pin socket, header
  6
ByLayer
 62
  256
370
   -1
100
AcDbLine
 10
-32.38999999999928
 20
11.86999999999989
 11
-32.38999999999928
 21
9.329999999999986
  0
LINE
  5
1E1
100
AcDbEntity
  8
pin socket, header
  6
ByLayer
 62
  256
370
   -1
100
AcDbLine
 10
-32.38999999999928
 20
9.329999999999986
 11
-29.85000000000013
 21
9.329999999999986
  0
LINE
  5
1E2
100
AcDbEntity
  8
pin socket, header
  6
ByLayer
 62
  256
370
   -1
100
AcDbLine
 10
-29.85000000000013
 20
9.329999999999986
 11
-29.85000000000013
 21
11.86999999999989
  0
LINE
  5
1E3
100
AcDbEntity
  8
pin socket, header
  6
ByLayer
 62
  256
370
   -1
100
AcDbLine
 10
-29.85000000000013
 20
11.86999999999989
 11
-32.38999999999928
 21
11.86999999999989
  0
CIRCLE
  5
1E4
100
AcDbEntity
  8
pin socket, header
  6
ByLayer
 62
  256
370
   -1
100
AcDbCircle
 10
-31.11999999999969
 20
10.59999999999994
 40
0.45
  0
MTEXT
  5
1E5
100
AcDbEntity
  8
pin socket, header
  6
ByLayer
 62
  256
370
   -1
100
AcDbMText
 10
-34.66227766666927
 20
19.433357234605
 30
0
 40
1
 41
3.999999777777778
 71
    5
 72
    1
  1
AVCC\P(AREF)\PGND\PA0\PA1\P(A2)\PA3\P(A4)\P(A5)\P
  7
STANDARD
210
0
220
0
230
1
 50
0
 73
    2
 44
1.54
  0
LINE
  5
1E6
100
AcDbEntity
  8
pin socket, header
  6
ByLayer
 62
  256
370
   -1
100
AcDbLine
 10
3.169999999999025
 20
29.65000000000033
 11
3.169999999998385
 21
27.11000000000031
  0
LINE
  5
1E7
100
AcDbEntity
  8
pin socket, header
  6
ByLayer
 62
  256
370
   -1
100
AcDbLine
 10
5.709999999998683
 20
29.65000000000031
 11
5.709999999998825
 21
27.11000000000031
  0
LINE
  5
1E8
100
AcDbEntity
  8
pin socket, header
  6
ByLayer
 62
  256
370
   -1
100
AcDbLine
 10
5.709999999998868
 20
14.4100000000002
 11
5.709999999998875
 21
11.87000000000018
  0
CIRCLE
  5
1E9
100
AcDbEntity
  8
0_wire
  6
ByLayer
 62
  256
370
   -1
100
AcDbCircle
 10
4.439999999998768
 20
13.13999999999994
 40
0.25
  0
CIRCLE
  5
1EA
100
AcDbEntity
  8
0_wire
  6
ByLayer
 62
  256
370
   -1
100
AcDbCircle
 10
-31.11999999999968
 20
28.37999999999997
 40
0.25
  0
CIRCLE
  5
1EB
100
AcDbEntity
  8
0_wire
  6
ByLayer
 62
  256
370
   -1
100
AcDbCircle
 10
-31.11999999999969
 20
18.21999999999998
 40
0.25
  0
CIRCLE
  5
1EC
100
AcDbEntity
  8
0_wire
  6
ByLayer
 62
  256
370
   -1
100
AcDbCircle
 10
-31.11999999999969
 20
13.13999999999995
 40
0.25
  0
CIRCLE
  5
1ED
100
AcDbEntity
  8
0_wire
  6
ByLayer
 62
  256
370
   -1
100
AcDbCircle
 10
-31.11999999999968
 20
10.59999999999993
 40
0.25
  0
CIRCLE
  5
1EE
100
AcDbEntity
  8
condenser
  6
ByLayer
 62
  256
370
   -1
100
AcDbCircle
 10
-0.6400000000010095
 20
22.02999999999997
 40
2.5
  0
CIRCLE
  5
1EF
100
AcDbEntity
  8
condenser
  6
ByLayer
 62
  256
370
   -1
100
AcDbCircle
 10
-0.6400000000010095
 20
23.29999999999996
 40
0.25
  0
CIRCLE
  5
1F0
100
AcDbEntity
  8
condenser
  6
ByLayer
 62
  256
370
   -1
100
AcDbCircle
 10
-0.6400000000010095
 20
20.75999999999996
 40
0.25
  0
LINE
  5
1F1
100
AcDbEntity
  8
0_GND
  6
ByLayer
 62
  256
370
   -1
100
AcDbLine
 10
4.439999999998768
 20
30.91999999999998
 11
4.439999999998587
 21
28.3800000000001
  0
LINE
  5
1F2
100
AcDbEntity
  8
0_GND
  6
ByLayer
 62
  256
370
   -1
100
AcDbLine
 10
4.439999999998587
 20
28.3800000000001
 11
-0.6400000000010095
 21
28.37999999999997
  0
LINE
  5
1F3
100
AcDbEntity
  8
0_GND
  6
ByLayer
 62
  256
370
   -1
100
AcDbLine
 10
-0.6400000000010095
 20
28.37999999999997
 11
-0.6400000000010095
 21
23.29999999999996
  0
LINE
  5
1F4
100
AcDbEntity
  8
0_wire
  6
ByLayer
 62
  256
370
   -1
100
AcDbLine
 10
4.439999999998768
 20
10.59999999999993
 11
-0.6400000000010095
 21
10.59999999999993
  0
LINE
  5
1F5
100
AcDbEntity
  8
0_wire
  6
ByLayer
 62
  256
370
   -1
100
AcDbLine
 10
-0.6400000000010095
 20
10.59999999999993
 11
-0.6400000000010095
 21
20.75999999999996
  0
LINE
  5
1F6
100
AcDbEntity
  8
universal_board
  6
ByLayer
 62
  256
370
   -1
100
AcDbLine
 10
-32.38999999999952
 20
32.1899999999996
 11
5.709999999998828
 21
32.18999999999967
  0
LINE
  5
1F7
100
AcDbEntity
  8
universal_board
  6
ByLayer
 62
  256
370
   -1
100
AcDbLine
 10
-32.38999999999952
 20
9.329999999999572
 11
5.709999999998828
 21
9.329999999999599
  0
LINE
  5
1F8
100
AcDbEntity
  8
universal_board
  6
ByLayer
 62
  256
370
   -1
100
AcDbLine
 10
-32.38999999999952
 20
9.329999999999572
 11
-32.38999999999952
 21
32.1899999999996
  0
LINE
  5
1F9
100
AcDbEntity
  8
universal_board
  6
ByLayer
 62
  256
370
   -1
100
AcDbLine
 10
5.709999999998828
 20
9.329999999999599
 11
5.709999999998828
 21
32.18999999999961
  0
MTEXT
  5
1FA
100
AcDbEntity
  8
universal_board
  6
ByLayer
 62
  256
370
   -1
100
AcDbMText
 10
-32.76540927125237
 20
33.39691084776185
 30
0
 40
1
 41
1.333333333333333
 71
    4
 72
    1
  1
U2
  7
iso
210
0
220
0
230
1
 50
0
 73
    2
 44
1.54
  0
MTEXT
  5
1FB
100
AcDbEntity
  8
pin socket, header
  6
ByLayer
 62
  256
370
   -1
100
AcDbMText
 10
-29.68444065058918
 20
33.0894774238639
 30
0
 40
1
 41
1.222222222222284
 71
    5
 72
    1
  1
J4
  7
STANDARD
210
0
220
0
230
1
 50
0
 73
    2
 44
1
  0
MTEXT
  5
1FC
100
AcDbEntity
  8
pin socket, header
  6
ByLayer
 62
  256
370
   -1
100
AcDbMText
 10
4.783849058824355
 20
33.31810168028257
 30
0
 40
1
 41
1.111111111111235
 71
    4
 72
    1
  1
J5
  7
iso
210
0
220
0
230
1
 50
0
 73
    2
 44
1.54
  0
MTEXT
  5
1FD
100
AcDbEntity
  8
pin socket, header
  6
ByLayer
 62
  256
370
   -1
100
AcDbMText
 10
3.770798669896845
 20
15.64600045121377
 30
0
 40
1
 41
1.111111111111235
 71
    4
 72
    1
  1
J6
  7
iso
210
0
220
0
230
1
 50
0
 73
    2
 44
1.54
  0
MTEXT
  5
1FE
100
AcDbEntity
  8
terminal, connector
  6
ByLayer
 62
  256
370
   -1
100
AcDbMText
 10
-21.72430278477884
 20
29.88498647336156
 30
0
 40
1
 41
1.111111111111173
 71
    4
 72
    1
  1
J7
  7
iso
210
0
220
0
230
1
 50
0
 73
    2
 44
1.54
  0
MTEXT
  5
1FF
100
AcDbEntity
  8
condenser
  6
ByLayer
 62
  256
370
   -1
100
AcDbMText
 10
-28.75937493010877
 20
44.6304976899731
 30
0
 40
1
 41
1.000000000000062
 71
    4
 72
    1
  1
C1
  7
iso
210
0
220
0
230
1
 50
0
 73
    2
 44
1.54
  0
MTEXT
  5
200
100
AcDbEntity
  8
resister
  6
ByLayer
 62
  256
370
   -1
100
AcDbMText
 10
-21.44289989896564
 20
46.31891500485229
 30
0
 40
1
 41
1.77777777777784
 71
    4
 72
    1
  1
JR1
  7
iso
210
0
220
0
230
1
 50
0
 73
    2
 44
1.54
  0
MTEXT
  5
201
100
AcDbEntity
  8
resister
  6
ByLayer
 62
  256
370
   -1
100
AcDbMText
 10
-22.34338913356787
 20
42.49183575779281
 30
0
 40
1
 41
2.000000000000062
 71
    4
 72
    1
  1
JR2
  7
iso
210
0
220
0
230
1
 50
0
 73
    2
 44
1.54
  0
MTEXT
  5
202
100
AcDbEntity
  8
0
  6
ByLayer
 62
  256
370
   -1
100
AcDbMText
 10
-56.83994063145793
 20
44.52228666529032
 30
0
 40
1
 41
18.52777829206518
 71
    4
 72
    1
  1
To PIC:\P\PC1:   0.1uF\PJ1:   Pin header 4P\PJ2:   Pin header 3P\PJ3:   XH header 5P\PJR1,2: Jumper\PU1:   Universal Board 8x6P
  7
STANDARD
210
0
220
0
230
1
 50
0
 73
    2
 44
1
  0
MTEXT
  5
203
100
AcDbEntity
  8
condenser
  6
ByLayer
 62
  256
370
   -1
100
AcDbMText
 10
-2.328249134654985
 20
22.19112456468033
 30
0
 40
1
 41
1.222222222222284
 71
    4
 72
    1
  1
C2
  7
iso
210
0
220
0
230
1
 50
0
 73
    2
 44
1.54
  0
MTEXT
  5
204
100
AcDbEntity
  8
0
  6
ByLayer
 62
  256
370
   -1
100
AcDbMText
 10
-58.11999746104153
 20
23.15067293725417
 30
0
 40
1
 41
19.19444495873189
 71
    4
 72
    1
  1
To ASOBoard:\P\PC2:   10uF*\PJ4:   Pin header, 9P\PJ5,6: Pin header, 2P\PJ7: XH header, 5P\PU2:   Universal board 15x9P\P
  7
STANDARD
210
0
220
0
230
1
 50
0
 73
    2
 44
1
  0
CIRCLE
  5
205
100
AcDbEntity
  8
universal_board
  6
ByLayer
 62
  256
370
   -1
100
AcDbCircle
 10
14.59999999999833
 20
30.91999999999998
 40
0.5
  0
CIRCLE
  5
206
100
AcDbEntity
  8
universal_board
  6
ByLayer
 62
  256
370
   -1
100
AcDbCircle
 10
12.05999999999844
 20
30.91999999999998
 40
0.5
  0
CIRCLE
  5
207
100
AcDbEntity
  8
universal_board
  6
ByLayer
 62
  256
370
   -1
100
AcDbCircle
 10
14.59999999999833
 20
28.37999999999997
 40
0.5
  0
CIRCLE
  5
208
100
AcDbEntity
  8
universal_board
  6
ByLayer
 62
  256
370
   -1
100
AcDbCircle
 10
12.05999999999844
 20
28.37999999999997
 40
0.5
  0
CIRCLE
  5
209
100
AcDbEntity
  8
universal_board
  6
ByLayer
 62
  256
370
   -1
100
AcDbCircle
 10
14.59999999999833
 20
25.83999999999997
 40
0.5
  0
CIRCLE
  5
20A
100
AcDbEntity
  8
universal_board
  6
ByLayer
 62
  256
370
   -1
100
AcDbCircle
 10
12.05999999999844
 20
25.83999999999997
 40
0.5
  0
CIRCLE
  5
20B
100
AcDbEntity
  8
universal_board
  6
ByLayer
 62
  256
370
   -1
100
AcDbCircle
 10
14.59999999999833
 20
23.29999999999996
 40
0.5
  0
CIRCLE
  5
20C
100
AcDbEntity
  8
universal_board
  6
ByLayer
 62
  256
370
   -1
100
AcDbCircle
 10
12.05999999999844
 20
23.29999999999996
 40
0.5
  0
CIRCLE
  5
20D
100
AcDbEntity
  8
universal_board
  6
ByLayer
 62
  256
370
   -1
100
AcDbCircle
 10
14.59999999999833
 20
20.75999999999996
 40
0.5
  0
CIRCLE
  5
20E
100
AcDbEntity
  8
universal_board
  6
ByLayer
 62
  256
370
   -1
100
AcDbCircle
 10
12.05999999999844
 20
20.75999999999996
 40
0.5
  0
CIRCLE
  5
20F
100
AcDbEntity
  8
universal_board
  6
ByLayer
 62
  256
370
   -1
100
AcDbCircle
 10
14.59999999999833
 20
18.21999999999995
 40
0.5
  0
CIRCLE
  5
210
100
AcDbEntity
  8
universal_board
  6
ByLayer
 62
  256
370
   -1
100
AcDbCircle
 10
12.05999999999844
 20
18.21999999999995
 40
0.5
  0
CIRCLE
  5
211
100
AcDbEntity
  8
universal_board
  6
ByLayer
 62
  256
370
   -1
100
AcDbCircle
 10
14.59999999999833
 20
15.67999999999994
 40
0.5
  0
CIRCLE
  5
212
100
AcDbEntity
  8
universal_board
  6
ByLayer
 62
  256
370
   -1
100
AcDbCircle
 10
12.05999999999844
 20
15.67999999999994
 40
0.5
  0
CIRCLE
  5
213
100
AcDbEntity
  8
universal_board
  6
ByLayer
 62
  256
370
   -1
100
AcDbCircle
 10
17.13999999999822
 20
30.91999999999998
 40
0.5
  0
CIRCLE
  5
214
100
AcDbEntity
  8
universal_board
  6
ByLayer
 62
  256
370
   -1
100
AcDbCircle
 10
17.13999999999822
 20
28.37999999999997
 40
0.5
  0
CIRCLE
  5
215
100
AcDbEntity
  8
universal_board
  6
ByLayer
 62
  256
370
   -1
100
AcDbCircle
 10
17.13999999999822
 20
25.83999999999997
 40
0.5
  0
CIRCLE
  5
216
100
AcDbEntity
  8
universal_board
  6
ByLayer
 62
  256
370
   -1
100
AcDbCircle
 10
17.13999999999822
 20
23.29999999999996
 40
0.5
  0
CIRCLE
  5
217
100
AcDbEntity
  8
universal_board
  6
ByLayer
 62
  256
370
   -1
100
AcDbCircle
 10
17.13999999999822
 20
20.75999999999996
 40
0.5
  0
CIRCLE
  5
218
100
AcDbEntity
  8
universal_board
  6
ByLayer
 62
  256
370
   -1
100
AcDbCircle
 10
17.13999999999822
 20
18.21999999999995
 40
0.5
  0
CIRCLE
  5
219
100
AcDbEntity
  8
universal_board
  6
ByLayer
 62
  256
370
   -1
100
AcDbCircle
 10
17.13999999999822
 20
15.67999999999994
 40
0.5
  0
CIRCLE
  5
21A
100
AcDbEntity
  8
universal_board
  6
ByLayer
 62
  256
370
   -1
100
AcDbCircle
 10
14.59999999999833
 20
13.13999999999994
 40
0.5
  0
CIRCLE
  5
21B
100
AcDbEntity
  8
universal_board
  6
ByLayer
 62
  256
370
   -1
100
AcDbCircle
 10
12.05999999999844
 20
13.13999999999994
 40
0.5
  0
CIRCLE
  5
21C
100
AcDbEntity
  8
universal_board
  6
ByLayer
 62
  256
370
   -1
100
AcDbCircle
 10
17.13999999999822
 20
13.13999999999994
 40
0.5
  0
CIRCLE
  5
21D
100
AcDbEntity
  8
universal_board
  6
ByLayer
 62
  256
370
   -1
100
AcDbCircle
 10
14.59999999999833
 20
10.59999999999993
 40
0.5
  0
CIRCLE
  5
21E
100
AcDbEntity
  8
universal_board
  6
ByLayer
 62
  256
370
   -1
100
AcDbCircle
 10
12.05999999999844
 20
10.59999999999993
 40
0.5
  0
CIRCLE
  5
21F
100
AcDbEntity
  8
universal_board
  6
ByLayer
 62
  256
370
   -1
100
AcDbCircle
 10
17.13999999999822
 20
10.59999999999993
 40
0.5
  0
CIRCLE
  5
220
100
AcDbEntity
  8
universal_board
  6
ByLayer
 62
  256
370
   -1
100
AcDbCircle
 10
19.67999999999811
 20
30.91999999999998
 40
0.5
  0
CIRCLE
  5
221
100
AcDbEntity
  8
universal_board
  6
ByLayer
 62
  256
370
   -1
100
AcDbCircle
 10
19.67999999999811
 20
28.37999999999997
 40
0.5
  0
CIRCLE
  5
222
100
AcDbEntity
  8
universal_board
  6
ByLayer
 62
  256
370
   -1
100
AcDbCircle
 10
19.67999999999811
 20
25.83999999999997
 40
0.5
  0
CIRCLE
  5
223
100
AcDbEntity
  8
universal_board
  6
ByLayer
 62
  256
370
   -1
100
AcDbCircle
 10
19.67999999999811
 20
23.29999999999996
 40
0.5
  0
CIRCLE
  5
224
100
AcDbEntity
  8
universal_board
  6
ByLayer
 62
  256
370
   -1
100
AcDbCircle
 10
19.67999999999811
 20
20.75999999999996
 40
0.5
  0
CIRCLE
  5
225
100
AcDbEntity
  8
universal_board
  6
ByLayer
 62
  256
370
   -1
100
AcDbCircle
 10
19.67999999999811
 20
18.21999999999995
 40
0.5
  0
CIRCLE
  5
226
100
AcDbEntity
  8
universal_board
  6
ByLayer
 62
  256
370
   -1
100
AcDbCircle
 10
19.67999999999811
 20
15.67999999999994
 40
0.5
  0
CIRCLE
  5
227
100
AcDbEntity
  8
universal_board
  6
ByLayer
 62
  256
370
   -1
100
AcDbCircle
 10
19.67999999999811
 20
13.13999999999994
 40
0.5
  0
CIRCLE
  5
228
100
AcDbEntity
  8
universal_board
  6
ByLayer
 62
  256
370
   -1
100
AcDbCircle
 10
19.67999999999811
 20
10.59999999999993
 40
0.5
  0
CIRCLE
  5
229
100
AcDbEntity
  8
universal_board
  6
ByLayer
 62
  256
370
   -1
100
AcDbCircle
 10
22.219999999998
 20
30.91999999999998
 40
0.5
  0
CIRCLE
  5
22A
100
AcDbEntity
  8
universal_board
  6
ByLayer
 62
  256
370
   -1
100
AcDbCircle
 10
22.219999999998
 20
28.37999999999997
 40
0.5
  0
CIRCLE
  5
22B
100
AcDbEntity
  8
universal_board
  6
ByLayer
 62
  256
370
   -1
100
AcDbCircle
 10
22.219999999998
 20
25.83999999999997
 40
0.5
  0
CIRCLE
  5
22C
100
AcDbEntity
  8
universal_board
  6
ByLayer
 62
  256
370
   -1
100
AcDbCircle
 10
22.219999999998
 20
23.29999999999996
 40
0.5
  0
CIRCLE
  5
22D
100
AcDbEntity
  8
universal_board
  6
ByLayer
 62
  256
370
   -1
100
AcDbCircle
 10
22.219999999998
 20
20.75999999999996
 40
0.5
  0
CIRCLE
  5
22E
100
AcDbEntity
  8
universal_board
  6
ByLayer
 62
  256
370
   -1
100
AcDbCircle
 10
22.219999999998
 20
18.21999999999995
 40
0.5
  0
CIRCLE
  5
22F
100
AcDbEntity
  8
universal_board
  6
ByLayer
 62
  256
370
   -1
100
AcDbCircle
 10
22.219999999998
 20
15.67999999999994
 40
0.5
  0
CIRCLE
  5
230
100
AcDbEntity
  8
universal_board
  6
ByLayer
 62
  256
370
   -1
100
AcDbCircle
 10
22.219999999998
 20
13.13999999999994
 40
0.5
  0
CIRCLE
  5
231
100
AcDbEntity
  8
universal_board
  6
ByLayer
 62
  256
370
   -1
100
AcDbCircle
 10
22.219999999998
 20
10.59999999999993
 40
0.5
  0
CIRCLE
  5
232
100
AcDbEntity
  8
universal_board
  6
ByLayer
 62
  256
370
   -1
100
AcDbCircle
 10
24.75999999999789
 20
30.91999999999998
 40
0.5
  0
CIRCLE
  5
233
100
AcDbEntity
  8
universal_board
  6
ByLayer
 62
  256
370
   -1
100
AcDbCircle
 10
24.75999999999789
 20
28.37999999999997
 40
0.5
  0
CIRCLE
  5
234
100
AcDbEntity
  8
universal_board
  6
ByLayer
 62
  256
370
   -1
100
AcDbCircle
 10
24.75999999999789
 20
25.83999999999997
 40
0.5
  0
CIRCLE
  5
235
100
AcDbEntity
  8
universal_board
  6
ByLayer
 62
  256
370
   -1
100
AcDbCircle
 10
24.75999999999789
 20
23.29999999999996
 40
0.5
  0
CIRCLE
  5
236
100
AcDbEntity
  8
universal_board
  6
ByLayer
 62
  256
370
   -1
100
AcDbCircle
 10
24.75999999999789
 20
20.75999999999996
 40
0.5
  0
CIRCLE
  5
237
100
AcDbEntity
  8
universal_board
  6
ByLayer
 62
  256
370
   -1
100
AcDbCircle
 10
24.75999999999789
 20
18.21999999999995
 40
0.5
  0
CIRCLE
  5
238
100
AcDbEntity
  8
universal_board
  6
ByLayer
 62
  256
370
   -1
100
AcDbCircle
 10
24.75999999999789
 20
15.67999999999994
 40
0.5
  0
CIRCLE
  5
239
100
AcDbEntity
  8
universal_board
  6
ByLayer
 62
  256
370
   -1
100
AcDbCircle
 10
24.75999999999789
 20
13.13999999999994
 40
0.5
  0
CIRCLE
  5
23A
100
AcDbEntity
  8
universal_board
  6
ByLayer
 62
  256
370
   -1
100
AcDbCircle
 10
24.75999999999789
 20
10.59999999999993
 40
0.5
  0
CIRCLE
  5
23B
100
AcDbEntity
  8
universal_board
  6
ByLayer
 62
  256
370
   -1
100
AcDbCircle
 10
27.29999999999778
 20
30.91999999999998
 40
0.5
  0
CIRCLE
  5
23C
100
AcDbEntity
  8
universal_board
  6
ByLayer
 62
  256
370
   -1
100
AcDbCircle
 10
27.29999999999778
 20
28.37999999999997
 40
0.5
  0
CIRCLE
  5
23D
100
AcDbEntity
  8
universal_board
  6
ByLayer
 62
  256
370
   -1
100
AcDbCircle
 10
27.29999999999778
 20
25.83999999999997
 40
0.5
  0
CIRCLE
  5
23E
100
AcDbEntity
  8
universal_board
  6
ByLayer
 62
  256
370
   -1
100
AcDbCircle
 10
27.29999999999778
 20
23.29999999999996
 40
0.5
  0
CIRCLE
  5
23F
100
AcDbEntity
  8
universal_board
  6
ByLayer
 62
  256
370
   -1
100
AcDbCircle
 10
27.29999999999778
 20
20.75999999999996
 40
0.5
  0
CIRCLE
  5
240
100
AcDbEntity
  8
universal_board
  6
ByLayer
 62
  256
370
   -1
100
AcDbCircle
 10
27.29999999999778
 20
18.21999999999995
 40
0.5
  0
CIRCLE
  5
241
100
AcDbEntity
  8
universal_board
  6
ByLayer
 62
  256
370
   -1
100
AcDbCircle
 10
27.29999999999778
 20
15.67999999999994
 40
0.5
  0
CIRCLE
  5
242
100
AcDbEntity
  8
universal_board
  6
ByLayer
 62
  256
370
   -1
100
AcDbCircle
 10
27.29999999999778
 20
13.13999999999994
 40
0.5
  0
CIRCLE
  5
243
100
AcDbEntity
  8
universal_board
  6
ByLayer
 62
  256
370
   -1
100
AcDbCircle
 10
27.29999999999778
 20
10.59999999999993
 40
0.5
  0
CIRCLE
  5
244
100
AcDbEntity
  8
universal_board
  6
ByLayer
 62
  256
370
   -1
100
AcDbCircle
 10
29.83999999999767
 20
30.91999999999998
 40
0.5
  0
CIRCLE
  5
245
100
AcDbEntity
  8
universal_board
  6
ByLayer
 62
  256
370
   -1
100
AcDbCircle
 10
29.83999999999767
 20
28.37999999999997
 40
0.5
  0
CIRCLE
  5
246
100
AcDbEntity
  8
universal_board
  6
ByLayer
 62
  256
370
   -1
100
AcDbCircle
 10
29.83999999999767
 20
25.83999999999997
 40
0.5
  0
CIRCLE
  5
247
100
AcDbEntity
  8
universal_board
  6
ByLayer
 62
  256
370
   -1
100
AcDbCircle
 10
29.83999999999767
 20
23.29999999999996
 40
0.5
  0
CIRCLE
  5
248
100
AcDbEntity
  8
universal_board
  6
ByLayer
 62
  256
370
   -1
100
AcDbCircle
 10
29.83999999999767
 20
20.75999999999996
 40
0.5
  0
CIRCLE
  5
249
100
AcDbEntity
  8
universal_board
  6
ByLayer
 62
  256
370
   -1
100
AcDbCircle
 10
29.83999999999767
 20
18.21999999999995
 40
0.5
  0
CIRCLE
  5
24A
100
AcDbEntity
  8
universal_board
  6
ByLayer
 62
  256
370
   -1
100
AcDbCircle
 10
29.83999999999767
 20
15.67999999999994
 40
0.5
  0
CIRCLE
  5
24B
100
AcDbEntity
  8
universal_board
  6
ByLayer
 62
  256
370
   -1
100
AcDbCircle
 10
29.83999999999767
 20
13.13999999999994
 40
0.5
  0
CIRCLE
  5
24C
100
AcDbEntity
  8
universal_board
  6
ByLayer
 62
  256
370
   -1
100
AcDbCircle
 10
29.83999999999767
 20
10.59999999999993
 40
0.5
  0
CIRCLE
  5
24D
100
AcDbEntity
  8
universal_board
  6
ByLayer
 62
  256
370
   -1
100
AcDbCircle
 10
32.37999999999754
 20
30.91999999999998
 40
0.5
  0
CIRCLE
  5
24E
100
AcDbEntity
  8
universal_board
  6
ByLayer
 62
  256
370
   -1
100
AcDbCircle
 10
32.37999999999754
 20
28.37999999999997
 40
0.5
  0
CIRCLE
  5
24F
100
AcDbEntity
  8
universal_board
  6
ByLayer
 62
  256
370
   -1
100
AcDbCircle
 10
32.37999999999754
 20
25.83999999999997
 40
0.5
  0
CIRCLE
  5
250
100
AcDbEntity
  8
universal_board
  6
ByLayer
 62
  256
370
   -1
100
AcDbCircle
 10
32.37999999999754
 20
23.29999999999996
 40
0.5
  0
CIRCLE
  5
251
100
AcDbEntity
  8
universal_board
  6
ByLayer
 62
  256
370
   -1
100
AcDbCircle
 10
32.37999999999754
 20
20.75999999999996
 40
0.5
  0
CIRCLE
  5
252
100
AcDbEntity
  8
universal_board
  6
ByLayer
 62
  256
370
   -1
100
AcDbCircle
 10
32.37999999999754
 20
18.21999999999995
 40
0.5
  0
CIRCLE
  5
253
100
AcDbEntity
  8
universal_board
  6
ByLayer
 62
  256
370
   -1
100
AcDbCircle
 10
32.37999999999754
 20
15.67999999999994
 40
0.5
  0
CIRCLE
  5
254
100
AcDbEntity
  8
universal_board
  6
ByLayer
 62
  256
370
   -1
100
AcDbCircle
 10
32.37999999999754
 20
13.13999999999994
 40
0.5
  0
CIRCLE
  5
255
100
AcDbEntity
  8
universal_board
  6
ByLayer
 62
  256
370
   -1
100
AcDbCircle
 10
32.37999999999754
 20
10.59999999999993
 40
0.5
  0
CIRCLE
  5
256
100
AcDbEntity
  8
universal_board
  6
ByLayer
 62
  256
370
   -1
100
AcDbCircle
 10
34.91999999999744
 20
30.91999999999998
 40
0.5
  0
CIRCLE
  5
257
100
AcDbEntity
  8
universal_board
  6
ByLayer
 62
  256
370
   -1
100
AcDbCircle
 10
34.91999999999744
 20
28.37999999999997
 40
0.5
  0
CIRCLE
  5
258
100
AcDbEntity
  8
universal_board
  6
ByLayer
 62
  256
370
   -1
100
AcDbCircle
 10
34.91999999999744
 20
25.83999999999997
 40
0.5
  0
CIRCLE
  5
259
100
AcDbEntity
  8
universal_board
  6
ByLayer
 62
  256
370
   -1
100
AcDbCircle
 10
34.91999999999744
 20
23.29999999999996
 40
0.5
  0
CIRCLE
  5
25A
100
AcDbEntity
  8
universal_board
  6
ByLayer
 62
  256
370
   -1
100
AcDbCircle
 10
34.91999999999744
 20
20.75999999999996
 40
0.5
  0
CIRCLE
  5
25B
100
AcDbEntity
  8
universal_board
  6
ByLayer
 62
  256
370
   -1
100
AcDbCircle
 10
34.91999999999744
 20
18.21999999999995
 40
0.5
  0
CIRCLE
  5
25C
100
AcDbEntity
  8
universal_board
  6
ByLayer
 62
  256
370
   -1
100
AcDbCircle
 10
34.91999999999744
 20
15.67999999999994
 40
0.5
  0
CIRCLE
  5
25D
100
AcDbEntity
  8
universal_board
  6
ByLayer
 62
  256
370
   -1
100
AcDbCircle
 10
34.91999999999744
 20
13.13999999999994
 40
0.5
  0
CIRCLE
  5
25E
100
AcDbEntity
  8
universal_board
  6
ByLayer
 62
  256
370
   -1
100
AcDbCircle
 10
34.91999999999744
 20
10.59999999999993
 40
0.5
  0
CIRCLE
  5
25F
100
AcDbEntity
  8
universal_board
  6
ByLayer
 62
  256
370
   -1
100
AcDbCircle
 10
37.45999999999733
 20
30.91999999999998
 40
0.5
  0
CIRCLE
  5
260
100
AcDbEntity
  8
universal_board
  6
ByLayer
 62
  256
370
   -1
100
AcDbCircle
 10
37.45999999999733
 20
28.37999999999997
 40
0.5
  0
CIRCLE
  5
261
100
AcDbEntity
  8
universal_board
  6
ByLayer
 62
  256
370
   -1
100
AcDbCircle
 10
37.45999999999733
 20
25.83999999999997
 40
0.5
  0
CIRCLE
  5
262
100
AcDbEntity
  8
universal_board
  6
ByLayer
 62
  256
370
   -1
100
AcDbCircle
 10
37.45999999999733
 20
23.29999999999996
 40
0.5
  0
CIRCLE
  5
263
100
AcDbEntity
  8
universal_board
  6
ByLayer
 62
  256
370
   -1
100
AcDbCircle
 10
37.45999999999733
 20
20.75999999999996
 40
0.5
  0
CIRCLE
  5
264
100
AcDbEntity
  8
universal_board
  6
ByLayer
 62
  256
370
   -1
100
AcDbCircle
 10
37.45999999999733
 20
18.21999999999995
 40
0.5
  0
CIRCLE
  5
265
100
AcDbEntity
  8
universal_board
  6
ByLayer
 62
  256
370
   -1
100
AcDbCircle
 10
37.45999999999733
 20
15.67999999999994
 40
0.5
  0
CIRCLE
  5
266
100
AcDbEntity
  8
universal_board
  6
ByLayer
 62
  256
370
   -1
100
AcDbCircle
 10
37.45999999999733
 20
13.13999999999994
 40
0.5
  0
CIRCLE
  5
267
100
AcDbEntity
  8
universal_board
  6
ByLayer
 62
  256
370
   -1
100
AcDbCircle
 10
37.45999999999733
 20
10.59999999999993
 40
0.5
  0
CIRCLE
  5
268
100
AcDbEntity
  8
universal_board
  6
ByLayer
 62
  256
370
   -1
100
AcDbCircle
 10
39.99999999999721
 20
30.91999999999998
 40
0.5
  0
CIRCLE
  5
269
100
AcDbEntity
  8
universal_board
  6
ByLayer
 62
  256
370
   -1
100
AcDbCircle
 10
39.99999999999721
 20
28.37999999999997
 40
0.5
  0
CIRCLE
  5
26A
100
AcDbEntity
  8
universal_board
  6
ByLayer
 62
  256
370
   -1
100
AcDbCircle
 10
39.99999999999721
 20
25.83999999999997
 40
0.5
  0
CIRCLE
  5
26B
100
AcDbEntity
  8
universal_board
  6
ByLayer
 62
  256
370
   -1
100
AcDbCircle
 10
39.99999999999721
 20
23.29999999999996
 40
0.5
  0
CIRCLE
  5
26C
100
AcDbEntity
  8
universal_board
  6
ByLayer
 62
  256
370
   -1
100
AcDbCircle
 10
39.99999999999721
 20
20.75999999999996
 40
0.5
  0
CIRCLE
  5
26D
100
AcDbEntity
  8
universal_board
  6
ByLayer
 62
  256
370
   -1
100
AcDbCircle
 10
39.99999999999721
 20
18.21999999999995
 40
0.5
  0
CIRCLE
  5
26E
100
AcDbEntity
  8
universal_board
  6
ByLayer
 62
  256
370
   -1
100
AcDbCircle
 10
39.99999999999721
 20
15.67999999999994
 40
0.5
  0
CIRCLE
  5
26F
100
AcDbEntity
  8
universal_board
  6
ByLayer
 62
  256
370
   -1
100
AcDbCircle
 10
39.99999999999721
 20
13.13999999999994
 40
0.5
  0
CIRCLE
  5
270
100
AcDbEntity
  8
universal_board
  6
ByLayer
 62
  256
370
   -1
100
AcDbCircle
 10
39.99999999999721
 20
10.59999999999993
 40
0.5
  0
CIRCLE
  5
271
100
AcDbEntity
  8
universal_board
  6
ByLayer
 62
  256
370
   -1
100
AcDbCircle
 10
42.5399999999971
 20
30.91999999999998
 40
0.5
  0
CIRCLE
  5
272
100
AcDbEntity
  8
universal_board
  6
ByLayer
 62
  256
370
   -1
100
AcDbCircle
 10
42.5399999999971
 20
28.37999999999997
 40
0.5
  0
CIRCLE
  5
273
100
AcDbEntity
  8
universal_board
  6
ByLayer
 62
  256
370
   -1
100
AcDbCircle
 10
42.5399999999971
 20
25.83999999999997
 40
0.5
  0
CIRCLE
  5
274
100
AcDbEntity
  8
universal_board
  6
ByLayer
 62
  256
370
   -1
100
AcDbCircle
 10
42.5399999999971
 20
23.29999999999996
 40
0.5
  0
CIRCLE
  5
275
100
AcDbEntity
  8
universal_board
  6
ByLayer
 62
  256
370
   -1
100
AcDbCircle
 10
42.5399999999971
 20
20.75999999999996
 40
0.5
  0
CIRCLE
  5
276
100
AcDbEntity
  8
universal_board
  6
ByLayer
 62
  256
370
   -1
100
AcDbCircle
 10
42.5399999999971
 20
18.21999999999995
 40
0.5
  0
CIRCLE
  5
277
100
AcDbEntity
  8
universal_board
  6
ByLayer
 62
  256
370
   -1
100
AcDbCircle
 10
42.5399999999971
 20
15.67999999999994
 40
0.5
  0
CIRCLE
  5
278
100
AcDbEntity
  8
universal_board
  6
ByLayer
 62
  256
370
   -1
100
AcDbCircle
 10
42.5399999999971
 20
13.13999999999994
 40
0.5
  0
CIRCLE
  5
279
100
AcDbEntity
  8
universal_board
  6
ByLayer
 62
  256
370
   -1
100
AcDbCircle
 10
42.5399999999971
 20
10.59999999999993
 40
0.5
  0
CIRCLE
  5
27A
100
AcDbEntity
  8
universal_board
  6
ByLayer
 62
  256
370
   -1
100
AcDbCircle
 10
45.07999999999699
 20
30.91999999999998
 40
0.5
  0
CIRCLE
  5
27B
100
AcDbEntity
  8
universal_board
  6
ByLayer
 62
  256
370
   -1
100
AcDbCircle
 10
45.07999999999699
 20
28.37999999999997
 40
0.5
  0
CIRCLE
  5
27C
100
AcDbEntity
  8
universal_board
  6
ByLayer
 62
  256
370
   -1
100
AcDbCircle
 10
45.07999999999699
 20
25.83999999999997
 40
0.5
  0
CIRCLE
  5
27D
100
AcDbEntity
  8
universal_board
  6
ByLayer
 62
  256
370
   -1
100
AcDbCircle
 10
45.07999999999699
 20
23.29999999999996
 40
0.5
  0
CIRCLE
  5
27E
100
AcDbEntity
  8
universal_board
  6
ByLayer
 62
  256
370
   -1
100
AcDbCircle
 10
45.07999999999699
 20
20.75999999999996
 40
0.5
  0
CIRCLE
  5
27F
100
AcDbEntity
  8
universal_board
  6
ByLayer
 62
  256
370
   -1
100
AcDbCircle
 10
45.07999999999699
 20
18.21999999999995
 40
0.5
  0
CIRCLE
  5
280
100
AcDbEntity
  8
universal_board
  6
ByLayer
 62
  256
370
   -1
100
AcDbCircle
 10
45.07999999999699
 20
15.67999999999994
 40
0.5
  0
CIRCLE
  5
281
100
AcDbEntity
  8
universal_board
  6
ByLayer
 62
  256
370
   -1
100
AcDbCircle
 10
45.07999999999699
 20
13.13999999999994
 40
0.5
  0
CIRCLE
  5
282
100
AcDbEntity
  8
universal_board
  6
ByLayer
 62
  256
370
   -1
100
AcDbCircle
 10
45.07999999999699
 20
10.59999999999993
 40
0.5
  0
CIRCLE
  5
283
100
AcDbEntity
  8
universal_board
  6
ByLayer
 62
  256
370
   -1
100
AcDbCircle
 10
47.61999999999689
 20
30.91999999999998
 40
0.5
  0
CIRCLE
  5
284
100
AcDbEntity
  8
universal_board
  6
ByLayer
 62
  256
370
   -1
100
AcDbCircle
 10
47.61999999999689
 20
28.37999999999997
 40
0.5
  0
CIRCLE
  5
285
100
AcDbEntity
  8
universal_board
  6
ByLayer
 62
  256
370
   -1
100
AcDbCircle
 10
47.61999999999689
 20
25.83999999999997
 40
0.5
  0
CIRCLE
  5
286
100
AcDbEntity
  8
universal_board
  6
ByLayer
 62
  256
370
   -1
100
AcDbCircle
 10
47.61999999999689
 20
23.29999999999996
 40
0.5
  0
CIRCLE
  5
287
100
AcDbEntity
  8
universal_board
  6
ByLayer
 62
  256
370
   -1
100
AcDbCircle
 10
47.61999999999689
 20
20.75999999999996
 40
0.5
  0
CIRCLE
  5
288
100
AcDbEntity
  8
universal_board
  6
ByLayer
 62
  256
370
   -1
100
AcDbCircle
 10
47.61999999999689
 20
18.21999999999995
 40
0.5
  0
CIRCLE
  5
289
100
AcDbEntity
  8
universal_board
  6
ByLayer
 62
  256
370
   -1
100
AcDbCircle
 10
47.61999999999689
 20
15.67999999999994
 40
0.5
  0
CIRCLE
  5
28A
100
AcDbEntity
  8
universal_board
  6
ByLayer
 62
  256
370
   -1
100
AcDbCircle
 10
47.61999999999689
 20
13.13999999999994
 40
0.5
  0
CIRCLE
  5
28B
100
AcDbEntity
  8
universal_board
  6
ByLayer
 62
  256
370
   -1
100
AcDbCircle
 10
47.61999999999689
 20
10.59999999999993
 40
0.5
  0
LINE
  5
28C
100
AcDbEntity
  8
universal_board
  6
ByLayer
 62
  256
370
   -1
100
AcDbLine
 10
10.7899999999986
 20
32.1899999999996
 11
48.88999999999694
 21
32.18999999999967
  0
LINE
  5
28D
100
AcDbEntity
  8
universal_board
  6
ByLayer
 62
  256
370
   -1
100
AcDbLine
 10
10.7899999999986
 20
9.329999999999572
 11
48.88999999999694
 21
9.329999999999599
  0
LINE
  5
28E
100
AcDbEntity
  8
universal_board
  6
ByLayer
 62
  256
370
   -1
100
AcDbLine
 10
10.7899999999986
 20
9.329999999999572
 11
10.7899999999986
 21
32.1899999999996
  0
LINE
  5
28F
100
AcDbEntity
  8
universal_board
  6
ByLayer
 62
  256
370
   -1
100
AcDbLine
 10
48.88999999999694
 20
9.329999999999599
 11
48.88999999999694
 21
32.18999999999961
  0
LINE
  5
290
100
AcDbEntity
  8
0_wire
  6
ByLayer
 62
  256
370
  200
100
AcDbLine
 10
39.99999999999723
 20
18.21999999999995
 11
39.99999999999723
 21
15.67999999999994
  0
LINE
  5
291
100
AcDbEntity
  8
0_wire
  6
ByLayer
 62
  256
370
  200
100
AcDbLine
 10
39.99999999999723
 20
15.67999999999994
 11
47.61999999999689
 21
15.67999999999994
  0
LINE
  5
292
100
AcDbEntity
  8
0_wire
  6
ByLayer
 62
  256
370
  200
100
AcDbLine
 10
47.61999999999691
 20
20.76
 11
39.99999999999723
 21
20.75999999999987
  0
LINE
  5
293
100
AcDbEntity
  8
0_wire
  6
ByLayer
 62
  256
370
  200
100
AcDbLine
 10
47.61999999999691
 20
23.30000000000002
 11
39.99999999999723
 21
23.29999999999993
  0
LINE
  5
294
100
AcDbEntity
  8
0_GND
  6
ByLayer
 62
  256
370
  200
100
AcDbLine
 10
47.61999999999689
 20
25.83999999999997
 11
39.99999999999723
 21
25.83999999999997
  0
LINE
  5
295
100
AcDbEntity
  8
5V line
  6
ByLayer
 62
  256
370
  200
100
AcDbLine
 10
47.61999999999689
 20
30.91999999999998
 11
39.99999999999723
 21
30.91999999999998
  0
LINE
  5
296
100
AcDbEntity
  8
5V line
  6
ByLayer
 62
  256
370
  200
100
AcDbLine
 10
39.99999999999723
 20
30.91999999999998
 11
39.99999999999723
 21
28.37999999999997
  0
CIRCLE
  5
297
100
AcDbEntity
  8
0_wire
  6
ByLayer
 62
  256
370
  200
100
AcDbCircle
 10
12.05999999999845
 20
13.13999999999994
 40
0.25
  0
CIRCLE
  5
298
100
AcDbEntity
  8
0_wire
  6
ByLayer
 62
  256
370
  200
100
AcDbCircle
 10
47.61999999999689
 20
28.37999999999997
 40
0.25
  0
CIRCLE
  5
299
100
AcDbEntity
  8
0_wire
  6
ByLayer
 62
  256
370
  200
100
AcDbCircle
 10
47.61999999999691
 20
18.21999999999998
 40
0.25
  0
CIRCLE
  5
29A
100
AcDbEntity
  8
0_wire
  6
ByLayer
 62
  256
370
  200
100
AcDbCircle
 10
47.61999999999691
 20
13.13999999999995
 40
0.25
  0
CIRCLE
  5
29B
100
AcDbEntity
  8
0_wire
  6
ByLayer
 62
  256
370
  200
100
AcDbCircle
 10
47.61999999999689
 20
10.59999999999992
 40
0.25
  0
LINE
  5
29C
100
AcDbEntity
  8
0_GND
  6
ByLayer
 62
  256
370
  200
100
AcDbLine
 10
12.05999999999845
 20
30.91999999999998
 11
12.05999999999863
 21
28.3800000000001
  0
LINE
  5
29D
100
AcDbEntity
  8
0_GND
  6
ByLayer
 62
  256
370
  200
100
AcDbLine
 10
12.05999999999863
 20
28.3800000000001
 11
17.13999999999823
 21
28.37999999999997
  0
LINE
  5
29E
100
AcDbEntity
  8
0_GND
  6
ByLayer
 62
  256
370
  200
100
AcDbLine
 10
17.13999999999823
 20
28.37999999999997
 11
17.13999999999823
 21
23.29999999999996
  0
LINE
  5
29F
100
AcDbEntity
  8
0_wire
  6
ByLayer
 62
  256
370
  200
100
AcDbLine
 10
12.05999999999845
 20
10.59999999999992
 11
17.13999999999823
 21
10.59999999999992
  0
LINE
  5
2A0
100
AcDbEntity
  8
0_wire
  6
ByLayer
 62
  256
370
  200
100
AcDbLine
 10
17.13999999999823
 20
10.59999999999992
 11
17.13999999999823
 21
20.75999999999996
  0
LINE
  5
2A1
100
AcDbEntity
  8
universal_board
  6
ByLayer
 62
  256
370
   -1
100
AcDbLine
 10
13.32999999999849
 20
9.329999999999572
 11
13.32999999999849
 21
32.1899999999996
  0
LINE
  5
2A2
100
AcDbEntity
  8
universal_board
  6
ByLayer
 62
  256
370
   -1
100
AcDbLine
 10
15.86999999999838
 20
9.329999999999572
 11
15.86999999999838
 21
32.1899999999996
  0
LINE
  5
2A3
100
AcDbEntity
  8
universal_board
  6
ByLayer
 62
  256
370
   -1
100
AcDbLine
 10
18.40999999999828
 20
9.329999999999572
 11
18.40999999999828
 21
32.1899999999996
  0
LINE
  5
2A4
100
AcDbEntity
  8
universal_board
  6
ByLayer
 62
  256
370
   -1
100
AcDbLine
 10
20.94999999999817
 20
9.329999999999572
 11
20.94999999999817
 21
32.1899999999996
  0
LINE
  5
2A5
100
AcDbEntity
  8
universal_board
  6
ByLayer
 62
  256
370
   -1
100
AcDbLine
 10
23.48999999999806
 20
9.329999999999572
 11
23.48999999999806
 21
32.1899999999996
  0
LINE
  5
2A6
100
AcDbEntity
  8
universal_board
  6
ByLayer
 62
  256
370
   -1
100
AcDbLine
 10
26.02999999999795
 20
9.329999999999572
 11
26.02999999999795
 21
32.1899999999996
  0
LINE
  5
2A7
100
AcDbEntity
  8
universal_board
  6
ByLayer
 62
  256
370
   -1
100
AcDbLine
 10
28.56999999999785
 20
9.329999999999572
 11
28.56999999999785
 21
32.1899999999996
  0
LINE
  5
2A8
100
AcDbEntity
  8
universal_board
  6
ByLayer
 62
  256
370
   -1
100
AcDbLine
 10
31.10999999999774
 20
9.329999999999572
 11
31.10999999999774
 21
32.1899999999996
  0
LINE
  5
2A9
100
AcDbEntity
  8
universal_board
  6
ByLayer
 62
  256
370
   -1
100
AcDbLine
 10
33.64999999999763
 20
9.329999999999572
 11
33.64999999999763
 21
32.1899999999996
  0
LINE
  5
2AA
100
AcDbEntity
  8
universal_board
  6
ByLayer
 62
  256
370
   -1
100
AcDbLine
 10
36.18999999999753
 20
9.329999999999572
 11
36.18999999999753
 21
32.1899999999996
  0
LINE
  5
2AB
100
AcDbEntity
  8
universal_board
  6
ByLayer
 62
  256
370
   -1
100
AcDbLine
 10
38.72999999999742
 20
9.329999999999572
 11
38.72999999999742
 21
32.1899999999996
  0
LINE
  5
2AC
100
AcDbEntity
  8
universal_board
  6
ByLayer
 62
  256
370
   -1
100
AcDbLine
 10
41.26999999999731
 20
9.329999999999572
 11
41.26999999999731
 21
32.1899999999996
  0
LINE
  5
2AD
100
AcDbEntity
  8
universal_board
  6
ByLayer
 62
  256
370
   -1
100
AcDbLine
 10
43.8099999999972
 20
9.329999999999572
 11
43.8099999999972
 21
32.1899999999996
  0
LINE
  5
2AE
100
AcDbEntity
  8
universal_board
  6
ByLayer
 62
  256
370
   -1
100
AcDbLine
 10
46.3499999999971
 20
9.329999999999572
 11
46.3499999999971
 21
32.1899999999996
  0
LINE
  5
2AF
100
AcDbEntity
  8
universal_board
  6
ByLayer
 62
  256
370
   -1
100
AcDbLine
 10
10.7899999999986
 20
11.86999999999958
 11
48.88999999999694
 21
11.8699999999996
  0
LINE
  5
2B0
100
AcDbEntity
  8
universal_board
  6
ByLayer
 62
  256
370
   -1
100
AcDbLine
 10
10.7899999999986
 20
14.40999999999958
 11
48.88999999999694
 21
14.40999999999961
  0
LINE
  5
2B1
100
AcDbEntity
  8
universal_board
  6
ByLayer
 62
  256
370
   -1
100
AcDbLine
 10
10.7899999999986
 20
16.94999999999959
 11
48.88999999999694
 21
16.94999999999962
  0
LINE
  5
2B2
100
AcDbEntity
  8
universal_board
  6
ByLayer
 62
  256
370
   -1
100
AcDbLine
 10
10.7899999999986
 20
19.4899999999996
 11
48.88999999999694
 21
19.48999999999963
  0
LINE
  5
2B3
100
AcDbEntity
  8
universal_board
  6
ByLayer
 62
  256
370
   -1
100
AcDbLine
 10
10.7899999999986
 20
22.0299999999996
 11
48.88999999999694
 21
22.02999999999963
  0
LINE
  5
2B4
100
AcDbEntity
  8
universal_board
  6
ByLayer
 62
  256
370
   -1
100
AcDbLine
 10
10.7899999999986
 20
24.56999999999961
 11
48.88999999999694
 21
24.56999999999964
  0
LINE
  5
2B5
100
AcDbEntity
  8
universal_board
  6
ByLayer
 62
  256
370
   -1
100
AcDbLine
 10
10.7899999999986
 20
27.10999999999962
 11
48.88999999999694
 21
27.10999999999964
  0
LINE
  5
2B6
100
AcDbEntity
  8
universal_board
  6
ByLayer
 62
  256
370
   -1
100
AcDbLine
 10
10.7899999999986
 20
29.64999999999962
 11
48.88999999999694
 21
29.64999999999965
  0
LINE
  5
2B7
100
AcDbEntity
  8
0_GND
  6
ByLayer
 62
  256
370
   -1
100
AcDbLine
 10
12.05999999999844
 20
28.37999999999997
 11
12.05999999999844
 21
15.67999999999994
  0
LINE
  5
2B8
100
AcDbEntity
  8
0_GND
  6
ByLayer
 62
  256
370
   -1
100
AcDbLine
 10
12.05999999999844
 20
15.67999999999994
 11
14.59999999999833
 21
15.67999999999994
  0
LINE
  5
2B9
100
AcDbEntity
  8
0_GND
  6
ByLayer
 62
  256
370
   -1
100
AcDbLine
 10
14.59999999999833
 20
15.67999999999994
 11
14.59999999999833
 21
13.13999999999994
  0
LINE
  5
2BA
100
AcDbEntity
  8
0_GND
  6
ByLayer
 62
  256
370
   -1
100
AcDbLine
 10
14.59999999999833
 20
13.13999999999994
 11
14.59999999999833
 21
30.91999999999998
  0
LINE
  5
2BB
100
AcDbEntity
  8
0_GND
  6
ByLayer
 62
  256
370
   -1
100
AcDbLine
 10
14.59999999999833
 20
30.91999999999998
 11
19.67999999999811
 21
30.91999999999998
  0
LINE
  5
2BC
100
AcDbEntity
  8
0_GND
  6
ByLayer
 62
  256
370
   -1
100
AcDbLine
 10
19.67999999999811
 20
30.91999999999998
 11
19.67999999999811
 21
10.59999999999993
  0
LINE
  5
2BD
100
AcDbEntity
  8
0_GND
  6
ByLayer
 62
  256
370
   -1
100
AcDbLine
 10
19.67999999999811
 20
10.59999999999993
 11
22.219999999998
 21
10.59999999999993
  0
LINE
  5
2BE
100
AcDbEntity
  8
0_GND
  6
ByLayer
 62
  256
370
   -1
100
AcDbLine
 10
22.219999999998
 20
10.59999999999993
 11
22.219999999998
 21
30.91999999999998
  0
LINE
  5
2BF
100
AcDbEntity
  8
0_GND
  6
ByLayer
 62
  256
370
   -1
100
AcDbLine
 10
22.219999999998
 20
30.91999999999998
 11
24.75999999999789
 21
30.91999999999998
  0
LINE
  5
2C0
100
AcDbEntity
  8
0_GND
  6
ByLayer
 62
  256
370
   -1
100
AcDbLine
 10
24.75999999999789
 20
30.91999999999998
 11
24.75999999999789
 21
10.59999999999993
  0
LINE
  5
2C1
100
AcDbEntity
  8
0_GND
  6
ByLayer
 62
  256
370
   -1
100
AcDbLine
 10
24.75999999999789
 20
10.59999999999993
 11
27.29999999999778
 21
10.59999999999993
  0
LINE
  5
2C2
100
AcDbEntity
  8
0_GND
  6
ByLayer
 62
  256
370
   -1
100
AcDbLine
 10
27.29999999999778
 20
10.59999999999993
 11
27.29999999999778
 21
30.91999999999998
  0
LINE
  5
2C3
100
AcDbEntity
  8
0_GND
  6
ByLayer
 62
  256
370
   -1
100
AcDbLine
 10
27.29999999999778
 20
30.91999999999998
 11
29.83999999999767
 21
30.91999999999998
  0
LINE
  5
2C4
100
AcDbEntity
  8
0_GND
  6
ByLayer
 62
  256
370
   -1
100
AcDbLine
 10
29.83999999999767
 20
30.91999999999998
 11
29.83999999999767
 21
10.59999999999993
  0
LINE
  5
2C5
100
AcDbEntity
  8
0_GND
  6
ByLayer
 62
  256
370
   -1
100
AcDbLine
 10
29.83999999999767
 20
10.59999999999993
 11
32.37999999999754
 21
10.59999999999993
  0
LINE
  5
2C6
100
AcDbEntity
  8
0_GND
  6
ByLayer
 62
  256
370
   -1
100
AcDbLine
 10
32.37999999999754
 20
10.59999999999993
 11
32.37999999999754
 21
30.91999999999998
  0
LINE
  5
2C7
100
AcDbEntity
  8
0_GND
  6
ByLayer
 62
  256
370
   -1
100
AcDbLine
 10
32.37999999999754
 20
30.91999999999998
 11
34.91999999999744
 21
30.91999999999998
  0
LINE
  5
2C8
100
AcDbEntity
  8
0_GND
  6
ByLayer
 62
  256
370
   -1
100
AcDbLine
 10
34.91999999999744
 20
30.91999999999998
 11
34.91999999999744
 21
10.59999999999993
  0
LINE
  5
2C9
100
AcDbEntity
  8
0_GND
  6
ByLayer
 62
  256
370
   -1
100
AcDbLine
 10
34.91999999999744
 20
10.59999999999993
 11
37.45999999999733
 21
10.59999999999993
  0
LINE
  5
2CA
100
AcDbEntity
  8
0_GND
  6
ByLayer
 62
  256
370
   -1
100
AcDbLine
 10
37.45999999999733
 20
10.59999999999993
 11
37.45999999999733
 21
30.91999999999998
  0
LINE
  5
2CB
100
AcDbEntity
  8
0_GND
  6
ByLayer
 62
  256
370
   -1
100
AcDbLine
 10
42.5399999999971
 20
25.83999999999997
 11
42.5399999999971
 21
28.37999999999997
  0
LINE
  5
2CC
100
AcDbEntity
  8
0_GND
  6
ByLayer
 62
  256
370
   -1
100
AcDbLine
 10
42.5399999999971
 20
28.37999999999997
 11
45.07999999999699
 21
28.37999999999997
  0
LINE
  5
2CD
100
AcDbEntity
  8
0_GND
  6
ByLayer
 62
  256
370
   -1
100
AcDbLine
 10
45.07999999999699
 20
28.37999999999997
 11
45.07999999999699
 21
25.83999999999997
  0
LINE
  5
2CE
100
AcDbEntity
  8
0_GND
  6
ByLayer
 62
  256
370
   -1
100
AcDbLine
 10
37.45999999999733
 20
13.13999999999994
 11
45.07999999999699
 21
13.13999999999994
  0
LINE
  5
2CF
100
AcDbEntity
  8
0_GND
  6
ByLayer
 62
  256
370
   -1
100
AcDbLine
 10
45.07999999999699
 20
13.13999999999994
 11
45.07999999999699
 21
10.59999999999993
  0
LINE
  5
2D0
100
AcDbEntity
  8
0_GND
  6
ByLayer
 62
  256
370
   -1
100
AcDbLine
 10
45.07999999999699
 20
10.59999999999993
 11
37.45999999999733
 21
10.59999999999993
  0
LINE
  5
2D1
100
AcDbEntity
  8
resister
  6
ByLayer
 62
  256
370
   -1
100
AcDbLine
 10
-19.24042897330475
 20
46.08841763196389
 11
-23.8999142825503
 21
42.98210202454
  0
LINE
  5
2D2
100
AcDbEntity
  8
resister
  6
ByLayer
 62
  256
370
   -1
100
AcDbLine
 10
-23.8999142825503
 20
42.98210202454
 11
-22.6795760082054
 21
41.15158993876526
  0
LINE
  5
2D3
100
AcDbEntity
  8
resister
  6
ByLayer
 62
  256
370
   -1
100
AcDbLine
 10
-22.6795760082054
 20
41.15158993876526
 11
-18.02009069895985
 21
44.25790554618914
  0
LINE
  5
2D4
100
AcDbEntity
  8
resister
  6
ByLayer
 62
  256
370
   -1
100
AcDbLine
 10
-18.02009069895985
 20
44.25790554618914
 11
-19.24042897330475
 21
46.08841763196389
  0
LINE
  5
2D5
100
AcDbEntity
  8
resister
  6
ByLayer
 62
  256
370
   -1
100
AcDbLine
 10
-13.3400000000005
 20
48.69999247395796
 11
-18.63025983613177
 21
45.17316158907572
  0
LINE
  5
2D6
100
AcDbEntity
  8
resister
  6
ByLayer
 62
  256
370
   -1
100
AcDbLine
 10
-28.57999999999976
 20
38.54001841776697
 11
-23.28974514537731
 21
42.06684598165183
  0
LINE
  5
2D7
100
AcDbEntity
  8
0_wire
  6
ByLayer
 62
  256
370
   -1
100
AcDbLine
 10
-28.58002762672074
 20
38.54000000000001
 11
-31.11999999999966
 21
38.54000000000001
  0
LINE
  5
2D8
100
AcDbEntity
  8
0_wire
  6
ByLayer
 62
  256
370
   -1
100
AcDbLine
 10
-18.41999999999978
 20
51.24000000000011
 11
-13.34000000000054
 21
51.24000000000015
  0
LINE
  5
2D9
100
AcDbEntity
  8
0_wire
  6
ByLayer
 62
  256
370
   -1
100
AcDbLine
 10
-13.34000000000054
 20
51.24000000000015
 11
-13.34000000000053
 21
48.70000000000013
  0
LINE
  5
2DA
100
AcDbEntity
  8
0_draft
  6
ByLayer
 62
  256
370
   -1
100
AcDbLine
 10
-22.13513341376729
 20
48.11951677103345
 11
-19.05819039036761
 21
40.42715551906721
  0
LINE
  5
2DB
100
AcDbEntity
  8
0_draft
  6
ByLayer
 62
  256
370
   -1
100
AcDbLine
 10
-15.8800000000004
 20
46.1600000000001
 11
-28.57999999999977
 21
41.08000000000003
  0
CIRCLE
  5
2DC
100
AcDbEntity
  8
0_draft
  6
ByLayer
 62
  256
370
   -1
100
AcDbCircle
 10
-28.57999999999977
 20
41.08000000000003
 40
10
  0
CIRCLE
  5
2DD
100
AcDbEntity
  8
0_draft
  6
ByLayer
 62
  256
370
   -1
100
AcDbCircle
 10
-15.8800000000004
 20
46.1600000000001
 40
10
  0
LINE
  5
2DE
100
AcDbEntity
  8
0_draft
  6
ByLayer
 62
  256
370
   -1
100
AcDbLine
 10
-24.93952088906465
 20
50.39380222266102
 11
-19.52047911093553
 21
36.8461977773391
  0
LINE
  5
2DF
100
AcDbEntity
  8
resister
  6
ByLayer
 62
  256
370
   -1
100
AcDbLine
 10
-24.42120564413224
 20
41.55878288995632
 11
-19.22173583082837
 21
43.63856981667313
  0
LINE
  5
2E0
100
AcDbEntity
  8
resister
  6
ByLayer
 62
  256
370
   -1
100
AcDbLine
 10
-19.22173583082837
 20
43.63856981667313
 11
-20.03879498060984
 21
45.68121867189932
  0
LINE
  5
2E1
100
AcDbEntity
  8
resister
  6
ByLayer
 62
  256
370
   -1
100
AcDbLine
 10
-20.03879498060984
 20
45.68121867189932
 11
-25.23826479391371
 21
43.60143174518251
  0
LINE
  5
2E2
100
AcDbEntity
  8
resister
  6
ByLayer
 62
  256
370
   -1
100
AcDbLine
 10
-25.23826479391371
 20
43.60143174518251
 11
-24.42120564413224
 21
41.55878288995632
  0
LINE
  5
2E3
100
AcDbEntity
  8
resister
  6
ByLayer
 62
  256
370
   -1
100
AcDbLine
 10
-15.87999921575653
 20
46.1600000000001
 11
-19.63026540571946
 21
44.65989424428712
  0
LINE
  5
2E4
100
AcDbEntity
  8
resister
  6
ByLayer
 62
  256
370
   -1
100
AcDbLine
 10
-28.57999999999979
 20
41.08000212545164
 11
-24.82973521902333
 21
42.5801073175703
  0
LINE
  5
2E5
100
AcDbEntity
  8
0_GND
  6
ByLayer
 62
  256
370
   -1
100
AcDbLine
 10
-28.57999999999979
 20
43.62000000000005
 11
-28.57999999999977
 21
41.08000000000003
  0
CIRCLE
  5
2E6
100
AcDbEntity
  8
universal_board
  6
ByLayer
 62
  256
370
   -1
100
AcDbCircle
 10
14.59999999999835
 20
38.54000000000001
 40
0.5
  0
CIRCLE
  5
2E7
100
AcDbEntity
  8
universal_board
  6
ByLayer
 62
  256
370
   -1
100
AcDbCircle
 10
12.05999999999846
 20
38.54000000000001
 40
0.5
  0
CIRCLE
  5
2E8
100
AcDbEntity
  8
universal_board
  6
ByLayer
 62
  256
370
   -1
100
AcDbCircle
 10
17.13999999999823
 20
38.54000000000001
 40
0.5
  0
CIRCLE
  5
2E9
100
AcDbEntity
  8
universal_board
  6
ByLayer
 62
  256
370
   -1
100
AcDbCircle
 10
19.67999999999811
 20
38.54000000000001
 40
0.5
  0
CIRCLE
  5
2EA
100
AcDbEntity
  8
universal_board
  6
ByLayer
 62
  256
370
   -1
100
AcDbCircle
 10
22.219999999998
 20
38.54000000000003
 40
0.5
  0
CIRCLE
  5
2EB
100
AcDbEntity
  8
universal_board
  6
ByLayer
 62
  256
370
   -1
100
AcDbCircle
 10
24.75999999999787
 20
38.54000000000003
 40
0.5
  0
CIRCLE
  5
2EC
100
AcDbEntity
  8
universal_board
  6
ByLayer
 62
  256
370
   -1
100
AcDbCircle
 10
27.29999999999774
 20
38.54000000000005
 40
0.5
  0
CIRCLE
  5
2ED
100
AcDbEntity
  8
universal_board
  6
ByLayer
 62
  256
370
   -1
100
AcDbCircle
 10
14.59999999999835
 20
41.08000000000003
 40
0.5
  0
CIRCLE
  5
2EE
100
AcDbEntity
  8
universal_board
  6
ByLayer
 62
  256
370
   -1
100
AcDbCircle
 10
12.05999999999845
 20
41.08000000000003
 40
0.5
  0
CIRCLE
  5
2EF
100
AcDbEntity
  8
universal_board
  6
ByLayer
 62
  256
370
   -1
100
AcDbCircle
 10
17.13999999999822
 20
41.08000000000003
 40
0.5
  0
CIRCLE
  5
2F0
100
AcDbEntity
  8
universal_board
  6
ByLayer
 62
  256
370
   -1
100
AcDbCircle
 10
19.6799999999981
 20
41.08000000000005
 40
0.5
  0
CIRCLE
  5
2F1
100
AcDbEntity
  8
universal_board
  6
ByLayer
 62
  256
370
   -1
100
AcDbCircle
 10
22.21999999999798
 20
41.08000000000005
 40
0.5
  0
CIRCLE
  5
2F2
100
AcDbEntity
  8
universal_board
  6
ByLayer
 62
  256
370
   -1
100
AcDbCircle
 10
24.75999999999786
 20
41.08000000000006
 40
0.5
  0
CIRCLE
  5
2F3
100
AcDbEntity
  8
universal_board
  6
ByLayer
 62
  256
370
   -1
100
AcDbCircle
 10
27.29999999999774
 20
41.08000000000006
 40
0.5
  0
CIRCLE
  5
2F4
100
AcDbEntity
  8
universal_board
  6
ByLayer
 62
  256
370
   -1
100
AcDbCircle
 10
14.59999999999834
 20
43.62000000000005
 40
0.5
  0
CIRCLE
  5
2F5
100
AcDbEntity
  8
universal_board
  6
ByLayer
 62
  256
370
   -1
100
AcDbCircle
 10
12.05999999999845
 20
43.62000000000005
 40
0.5
  0
CIRCLE
  5
2F6
100
AcDbEntity
  8
universal_board
  6
ByLayer
 62
  256
370
   -1
100
AcDbCircle
 10
17.13999999999822
 20
43.62000000000005
 40
0.5
  0
CIRCLE
  5
2F7
100
AcDbEntity
  8
universal_board
  6
ByLayer
 62
  256
370
   -1
100
AcDbCircle
 10
19.6799999999981
 20
43.62000000000007
 40
0.5
  0
CIRCLE
  5
2F8
100
AcDbEntity
  8
universal_board
  6
ByLayer
 62
  256
370
   -1
100
AcDbCircle
 10
22.21999999999797
 20
43.62000000000007
 40
0.5
  0
CIRCLE
  5
2F9
100
AcDbEntity
  8
universal_board
  6
ByLayer
 62
  256
370
   -1
100
AcDbCircle
 10
24.75999999999785
 20
43.62000000000008
 40
0.5
  0
CIRCLE
  5
2FA
100
AcDbEntity
  8
universal_board
  6
ByLayer
 62
  256
370
   -1
100
AcDbCircle
 10
27.29999999999773
 20
43.62000000000008
 40
0.5
  0
CIRCLE
  5
2FB
100
AcDbEntity
  8
universal_board
  6
ByLayer
 62
  256
370
   -1
100
AcDbCircle
 10
14.59999999999834
 20
46.16000000000007
 40
0.5
  0
CIRCLE
  5
2FC
100
AcDbEntity
  8
universal_board
  6
ByLayer
 62
  256
370
   -1
100
AcDbCircle
 10
12.05999999999844
 20
46.16000000000007
 40
0.5
  0
CIRCLE
  5
2FD
100
AcDbEntity
  8
universal_board
  6
ByLayer
 62
  256
370
   -1
100
AcDbCircle
 10
17.13999999999821
 20
46.16000000000007
 40
0.5
  0
CIRCLE
  5
2FE
100
AcDbEntity
  8
universal_board
  6
ByLayer
 62
  256
370
   -1
100
AcDbCircle
 10
19.6799999999981
 20
46.16000000000009
 40
0.5
  0
CIRCLE
  5
2FF
100
AcDbEntity
  8
universal_board
  6
ByLayer
 62
  256
370
   -1
100
AcDbCircle
 10
22.21999999999797
 20
46.16000000000009
 40
0.5
  0
CIRCLE
  5
300
100
AcDbEntity
  8
universal_board
  6
ByLayer
 62
  256
370
   -1
100
AcDbCircle
 10
24.75999999999785
 20
46.1600000000001
 40
0.5
  0
CIRCLE
  5
301
100
AcDbEntity
  8
universal_board
  6
ByLayer
 62
  256
370
   -1
100
AcDbCircle
 10
27.29999999999772
 20
46.1600000000001
 40
0.5
  0
CIRCLE
  5
302
100
AcDbEntity
  8
universal_board
  6
ByLayer
 62
  256
370
   -1
100
AcDbCircle
 10
29.83999999999762
 20
38.54000000000006
 40
0.5
  0
CIRCLE
  5
303
100
AcDbEntity
  8
universal_board
  6
ByLayer
 62
  256
370
   -1
100
AcDbCircle
 10
29.83999999999762
 20
41.08000000000007
 40
0.5
  0
CIRCLE
  5
304
100
AcDbEntity
  8
universal_board
  6
ByLayer
 62
  256
370
   -1
100
AcDbCircle
 10
29.83999999999762
 20
43.62000000000009
 40
0.5
  0
CIRCLE
  5
305
100
AcDbEntity
  8
universal_board
  6
ByLayer
 62
  256
370
   -1
100
AcDbCircle
 10
29.8399999999976
 20
46.16000000000011
 40
0.5
  0
CIRCLE
  5
306
100
AcDbEntity
  8
universal_board
  6
ByLayer
 62
  256
370
   -1
100
AcDbCircle
 10
14.59999999999832
 20
48.70000000000009
 40
0.5
  0
CIRCLE
  5
307
100
AcDbEntity
  8
universal_board
  6
ByLayer
 62
  256
370
   -1
100
AcDbCircle
 10
12.05999999999844
 20
48.70000000000009
 40
0.5
  0
CIRCLE
  5
308
100
AcDbEntity
  8
universal_board
  6
ByLayer
 62
  256
370
   -1
100
AcDbCircle
 10
17.1399999999982
 20
48.7000000000001
 40
0.5
  0
CIRCLE
  5
309
100
AcDbEntity
  8
universal_board
  6
ByLayer
 62
  256
370
   -1
100
AcDbCircle
 10
19.67999999999808
 20
48.70000000000011
 40
0.5
  0
CIRCLE
  5
30A
100
AcDbEntity
  8
universal_board
  6
ByLayer
 62
  256
370
   -1
100
AcDbCircle
 10
22.21999999999796
 20
48.70000000000011
 40
0.5
  0
CIRCLE
  5
30B
100
AcDbEntity
  8
universal_board
  6
ByLayer
 62
  256
370
   -1
100
AcDbCircle
 10
24.75999999999783
 20
48.70000000000012
 40
0.5
  0
CIRCLE
  5
30C
100
AcDbEntity
  8
universal_board
  6
ByLayer
 62
  256
370
   -1
100
AcDbCircle
 10
27.29999999999772
 20
48.70000000000012
 40
0.5
  0
CIRCLE
  5
30D
100
AcDbEntity
  8
universal_board
  6
ByLayer
 62
  256
370
   -1
100
AcDbCircle
 10
29.83999999999759
 20
48.70000000000013
 40
0.5
  0
CIRCLE
  5
30E
100
AcDbEntity
  8
universal_board
  6
ByLayer
 62
  256
370
   -1
100
AcDbCircle
 10
14.59999999999831
 20
51.24000000000011
 40
0.5
  0
CIRCLE
  5
30F
100
AcDbEntity
  8
universal_board
  6
ByLayer
 62
  256
370
   -1
100
AcDbCircle
 10
12.05999999999842
 20
51.24000000000011
 40
0.5
  0
CIRCLE
  5
310
100
AcDbEntity
  8
universal_board
  6
ByLayer
 62
  256
370
   -1
100
AcDbCircle
 10
17.13999999999819
 20
51.24000000000012
 40
0.5
  0
CIRCLE
  5
311
100
AcDbEntity
  8
universal_board
  6
ByLayer
 62
  256
370
   -1
100
AcDbCircle
 10
19.67999999999807
 20
51.24000000000013
 40
0.5
  0
CIRCLE
  5
312
100
AcDbEntity
  8
universal_board
  6
ByLayer
 62
  256
370
   -1
100
AcDbCircle
 10
22.21999999999795
 20
51.24000000000013
 40
0.5
  0
CIRCLE
  5
313
100
AcDbEntity
  8
universal_board
  6
ByLayer
 62
  256
370
   -1
100
AcDbCircle
 10
24.75999999999782
 20
51.24000000000014
 40
0.5
  0
CIRCLE
  5
314
100
AcDbEntity
  8
universal_board
  6
ByLayer
 62
  256
370
   -1
100
AcDbCircle
 10
27.2999999999977
 20
51.24000000000014
 40
0.5
  0
CIRCLE
  5
315
100
AcDbEntity
  8
universal_board
  6
ByLayer
 62
  256
370
   -1
100
AcDbCircle
 10
29.83999999999758
 20
51.24000000000015
 40
0.5
  0
LINE
  5
316
100
AcDbEntity
  8
universal_board
  6
ByLayer
 62
  256
370
   -1
100
AcDbLine
 10
10.78999999999874
 20
52.50999999999978
 11
10.78999999999874
 21
37.26999999999965
  0
LINE
  5
317
100
AcDbEntity
  8
universal_board
  6
ByLayer
 62
  256
370
   -1
100
AcDbLine
 10
10.78999999999873
 20
52.50999999999978
 11
31.10999999999778
 21
52.50999999999981
  0
LINE
  5
318
100
AcDbEntity
  8
universal_board
  6
ByLayer
 62
  256
370
   -1
100
AcDbLine
 10
10.78999999999874
 20
37.26999999999965
 11
31.10999999999778
 21
37.26999999999968
  0
LINE
  5
319
100
AcDbEntity
  8
universal_board
  6
ByLayer
 62
  256
370
   -1
100
AcDbLine
 10
31.10999999999778
 20
52.50999999999981
 11
31.10999999999778
 21
37.26999999999968
  0
LINE
  5
31A
100
AcDbEntity
  8
5V line
  6
ByLayer
 62
  256
370
  200
100
AcDbLine
 10
27.29999999999803
 20
51.24000000000011
 11
27.299999999998
 21
46.16000000000007
  0
LINE
  5
31B
100
AcDbEntity
  8
5V line
  6
ByLayer
 62
  256
370
  200
100
AcDbLine
 10
27.299999999998
 20
46.16000000000007
 11
29.83999999999791
 21
46.16000000000007
  0
LINE
  5
31C
100
AcDbEntity
  8
0_GND
  6
ByLayer
 62
  256
370
  200
100
AcDbLine
 10
24.75999999999802
 20
51.24000000000011
 11
24.75999999999813
 21
46.16000000000007
  0
LINE
  5
31D
100
AcDbEntity
  8
0_GND
  6
ByLayer
 62
  256
370
  200
100
AcDbLine
 10
12.05999999999874
 20
46.16000000000011
 11
14.59999999999862
 21
46.1600000000001
  0
LINE
  5
31E
100
AcDbEntity
  8
0_wire
  6
ByLayer
 62
  256
370
  200
100
AcDbLine
 10
22.21999999999802
 20
51.24000000000011
 11
22.21999999999823
 21
38.54000000000001
  0
LINE
  5
31F
100
AcDbEntity
  8
0_wire
  6
ByLayer
 62
  256
370
  200
100
AcDbLine
 10
22.21999999999823
 20
38.54000000000001
 11
12.05999999999872
 21
38.54000000000006
  0
LINE
  5
320
100
AcDbEntity
  8
0_wire
  6
ByLayer
 62
  256
370
  200
100
AcDbLine
 10
12.05999999999872
 20
38.54000000000006
 11
12.05999999999872
 21
41.08000000000007
  0
LINE
  5
321
100
AcDbEntity
  8
0_wire
  6
ByLayer
 62
  256
370
  200
100
AcDbLine
 10
19.67999999999795
 20
51.2400000000002
 11
19.67999999999835
 21
41.08000000000005
  0
LINE
  5
322
100
AcDbEntity
  8
0_wire
  6
ByLayer
 62
  256
370
  200
100
AcDbLine
 10
19.67999999999835
 20
41.08000000000005
 11
14.59999999999859
 21
41.08000000000006
  0
LINE
  5
323
100
AcDbEntity
  8
0_wire
  6
ByLayer
 62
  256
370
  200
100
AcDbLine
 10
14.59999999999859
 20
41.08000000000006
 11
14.59999999999861
 21
43.62000000000008
  0
LINE
  5
324
100
AcDbEntity
  8
0_wire
  6
ByLayer
 62
  256
370
  200
100
AcDbLine
 10
14.59999999999861
 20
43.62000000000008
 11
12.05999999999874
 21
43.62000000000009
  0
LINE
  5
325
100
AcDbEntity
  8
0_GND
  6
ByLayer
 62
  256
370
  200
100
AcDbLine
 10
24.75999999999813
 20
46.16000000000007
 11
24.75999999999812
 21
43.62000000000005
  0
LINE
  5
326
100
AcDbEntity
  8
0_GND
  6
ByLayer
 62
  256
370
  200
100
AcDbLine
 10
24.75999999999812
 20
43.62000000000005
 11
27.299999999998
 21
43.62000000000005
  0
LINE
  5
327
100
AcDbEntity
  8
0_wire
  6
ByLayer
 62
  256
370
  200
100
AcDbLine
 10
27.30002762671895
 20
38.54000000000001
 11
29.83999999999788
 21
38.54000000000001
  0
LINE
  5
328
100
AcDbEntity
  8
0_wire
  6
ByLayer
 62
  256
370
  200
100
AcDbLine
 10
17.139999999998
 20
51.24000000000011
 11
12.05999999999876
 21
51.24000000000015
  0
LINE
  5
329
100
AcDbEntity
  8
0_wire
  6
ByLayer
 62
  256
370
  200
100
AcDbLine
 10
12.05999999999876
 20
51.24000000000015
 11
12.05999999999874
 21
48.70000000000013
  0
LINE
  5
32A
100
AcDbEntity
  8
0_GND
  6
ByLayer
 62
  256
370
  200
100
AcDbLine
 10
27.299999999998
 20
43.62000000000005
 11
27.29999999999799
 21
41.08000000000003
  0
LINE
  5
32B
100
AcDbEntity
  8
universal_board
  6
ByLayer
 62
  256
370
   -1
100
AcDbLine
 10
10.78999999999873
 20
39.80999999999968
 11
31.10999999999777
 21
39.80999999999972
  0
LINE
  5
32C
100
AcDbEntity
  8
universal_board
  6
ByLayer
 62
  256
370
   -1
100
AcDbLine
 10
10.78999999999872
 20
42.34999999999972
 11
31.10999999999776
 21
42.34999999999975
  0
LINE
  5
32D
100
AcDbEntity
  8
universal_board
  6
ByLayer
 62
  256
370
   -1
100
AcDbLine
 10
10.78999999999871
 20
44.88999999999975
 11
31.10999999999775
 21
44.88999999999979
  0
LINE
  5
32E
100
AcDbEntity
  8
universal_board
  6
ByLayer
 62
  256
370
   -1
100
AcDbLine
 10
10.7899999999987
 20
47.42999999999979
 11
31.10999999999774
 21
47.42999999999982
  0
LINE
  5
32F
100
AcDbEntity
  8
universal_board
  6
ByLayer
 62
  256
370
   -1
100
AcDbLine
 10
10.78999999999869
 20
49.96999999999982
 11
31.10999999999773
 21
49.96999999999986
  0
LINE
  5
330
100
AcDbEntity
  8
universal_board
  6
ByLayer
 62
  256
370
   -1
100
AcDbLine
 10
13.32999999999863
 20
52.50999999999978
 11
13.32999999999863
 21
37.26999999999965
  0
LINE
  5
331
100
AcDbEntity
  8
universal_board
  6
ByLayer
 62
  256
370
   -1
100
AcDbLine
 10
15.86999999999852
 20
52.50999999999978
 11
15.86999999999852
 21
37.26999999999965
  0
LINE
  5
332
100
AcDbEntity
  8
universal_board
  6
ByLayer
 62
  256
370
   -1
100
AcDbLine
 10
18.40999999999841
 20
52.50999999999978
 11
18.40999999999841
 21
37.26999999999965
  0
LINE
  5
333
100
AcDbEntity
  8
universal_board
  6
ByLayer
 62
  256
370
   -1
100
AcDbLine
 10
20.9499999999983
 20
52.50999999999978
 11
20.9499999999983
 21
37.26999999999965
  0
LINE
  5
334
100
AcDbEntity
  8
universal_board
  6
ByLayer
 62
  256
370
   -1
100
AcDbLine
 10
23.48999999999819
 20
52.50999999999978
 11
23.48999999999819
 21
37.26999999999965
  0
LINE
  5
335
100
AcDbEntity
  8
universal_board
  6
ByLayer
 62
  256
370
   -1
100
AcDbLine
 10
26.02999999999808
 20
52.50999999999978
 11
26.02999999999808
 21
37.26999999999965
  0
LINE
  5
336
100
AcDbEntity
  8
universal_board
  6
ByLayer
 62
  256
370
   -1
100
AcDbLine
 10
28.56999999999796
 20
52.50999999999978
 11
28.56999999999796
 21
37.26999999999965
  0
LINE
  5
337
100
AcDbEntity
  8
5V line
  6
ByLayer
 62
  256
370
   -1
100
AcDbLine
 10
29.8399999999976
 20
46.16000000000011
 11
29.83999999999758
 21
51.24000000000015
  0
LINE
  5
338
100
AcDbEntity
  8
0_GND
  6
ByLayer
 62
  256
370
   -1
100
AcDbLine
 10
14.59999999999834
 20
46.16000000000007
 11
14.59999999999832
 21
48.70000000000009
  0
LINE
  5
339
100
AcDbEntity
  8
0_GND
  6
ByLayer
 62
  256
370
   -1
100
AcDbLine
 10
14.59999999999832
 20
48.70000000000009
 11
17.1399999999982
 21
48.7000000000001
  0
LINE
  5
33A
100
AcDbEntity
  8
0_GND
  6
ByLayer
 62
  256
370
   -1
100
AcDbLine
 10
17.1399999999982
 20
48.7000000000001
 11
17.13999999999822
 21
43.62000000000005
  0
LINE
  5
33B
100
AcDbEntity
  8
0_GND
  6
ByLayer
 62
  256
370
   -1
100
AcDbLine
 10
24.75999999999785
 20
43.62000000000008
 11
24.75999999999787
 21
38.54000000000003
  0
LINE
  5
33C
100
AcDbEntity
  8
0_GND
  6
ByLayer
 62
  256
370
   -1
100
AcDbLine
 10
27.29999999999773
 20
43.62000000000008
 11
29.83999999999762
 21
43.62000000000009
  0
LINE
  5
33D
100
AcDbEntity
  8
0_GND
  6
ByLayer
 62
  256
370
   -1
100
AcDbLine
 10
29.83999999999762
 20
43.62000000000009
 11
29.83999999999762
 21
41.08000000000007
  0
ENDSEC
  0
SECTION
  2
OBJECTS
  0
DICTIONARY
  5
C
330
0
100
AcDbDictionary
281
    1
  3
ACAD_GROUP
350
D
  0
DICTIONARY
  5
D
330
C
100
AcDbDictionary
281
    1
  0
PLOTSETTINGS
  5
33E
100
AcDbPlotSettings
  6
1x1
 40
0
 41
0
 42
0
 43
0
  0
ENDSEC
  0
EOF
