999
dxfrw 0.6.3
  0
SECTION
  2
HEADER
  9
$ACADVER
  1
AC1021
  9
$DWGCODEPAGE
  3
ANSI_1252
  9
$INSBASE
 10
0
 20
0
 30
0
  9
$EXTMIN
 10
-46.30930124635971
 20
-13.12628813875405
 30
0
  9
$EXTMAX
 10
43.64193037501195
 20
61.24000000000021
 30
0
  9
$LIMMIN
 10
0
 20
0
  9
$LIMMAX
 10
420
 20
297
  9
$ORTHOMODE
 70
    0
  9
$REGENMODE
 70
    1
  9
$FILLMODE
 70
    1
  9
$QTEXTMODE
 70
    0
  9
$MIRRTEXT
 70
    0
  9
$LTSCALE
 40
1
  9
$ATTMODE
 70
    0
  9
$TEXTSIZE
 40
2.5
  9
$TRACEWID
 40
15.68
  9
$TEXTSTYLE
  7
STANDARD
  9
$CLAYER
  8
0
  9
$CELTYPE
  6
BYLAYER
  9
$CECOLOR
 62
  256
  9
$CELTSCALE
 40
1
  9
$DISPSILH
 70
    0
  9
$DIMSCALE
 40
1
  9
$DIMASZ
 40
2.5
  9
$DIMEXO
 40
0.625
  9
$DIMDLI
 40
3.75
  9
$DIMRND
 40
0
  9
$DIMDLE
 40
0
  9
$DIMEXE
 40
1.25
  9
$DIMTP
 40
0
  9
$DIMTM
 40
0
  9
$DIMTXT
 40
2.5
  9
$DIMCEN
 40
2.5
  9
$DIMTSZ
 40
0
  9
$DIMTOL
 70
    0
  9
$DIMLIM
 70
    0
  9
$DIMTIH
 70
    0
  9
$DIMTOH
 70
    0
  9
$DIMSE1
 70
    0
  9
$DIMSE2
 70
    0
  9
$DIMTAD
 70
    1
  9
$DIMZIN
 70
    8
  9
$DIMBLK
  1

  9
$DIMASO
 70
    1
  9
$DIMSHO
 70
    1
  9
$DIMPOST
  1

  9
$DIMAPOST
  1

  9
$DIMALT
 70
    0
  9
$DIMALTD
 70
    3
  9
$DIMALTF
 40
0.03937
  9
$DIMLFAC
 40
1
  9
$DIMTOFL
 70
    1
  9
$DIMTVP
 40
0
  9
$DIMTIX
 70
    0
  9
$DIMSOXD
 70
    0
  9
$DIMSAH
 70
    0
  9
$DIMBLK1
  1

  9
$DIMBLK2
  1

  9
$DIMSTYLE
  2
STANDARD
  9
$DIMCLRD
 70
    0
  9
$DIMCLRE
 70
    0
  9
$DIMCLRT
 70
    0
  9
$DIMTFAC
 40
1
  9
$DIMGAP
 40
0.625
  9
$DIMJUST
 70
    0
  9
$DIMSD1
 70
    0
  9
$DIMSD2
 70
    0
  9
$DIMTOLJ
 70
    0
  9
$DIMTZIN
 70
    8
  9
$DIMALTZ
 70
    0
  9
$DIMALTTZ
 70
    0
  9
$DIMUPT
 70
    0
  9
$DIMDEC
 70
    2
  9
$DIMTDEC
 70
    2
  9
$DIMALTU
 70
    2
  9
$DIMALTTD
 70
    3
  9
$DIMTXSTY
  7
standard
  9
$DIMAUNIT
 70
    0
  9
$DIMADEC
 70
    0
  9
$DIMALTRND
 40
0
  9
$DIMAZIN
 70
    0
  9
$DIMDSEP
 70
   44
  9
$DIMATFIT
 70
    3
  9
$DIMFRAC
 70
    0
  9
$DIMLDRBLK
  1
STANDARD
  9
$DIMLUNIT
 70
    2
  9
$DIMLWD
 70
   -2
  9
$DIMLWE
 70
   -2
  9
$DIMTMOVE
 70
    0
  9
$DIMFXL
 40
1
  9
$DIMFXLON
 70
    0
  9
$DIMJOGANG
 40
0.7854
  9
$DIMTFILL
 70
    0
  9
$DIMTFILLCLR
 70
    0
  9
$DIMARCSYM
 70
    0
  9
$DIMLTYPE
  6

  9
$DIMLTEX1
  6

  9
$DIMLTEX2
  6

  9
$LUNITS
 70
    2
  9
$LUPREC
 70
    4
  9
$SKETCHINC
 40
1
  9
$FILLETRAD
 40
0
  9
$AUNITS
 70
    0
  9
$AUPREC
 70
    2
  9
$MENU
  1
.
  9
$ELEVATION
 40
0
  9
$PELEVATION
 40
0
  9
$THICKNESS
 40
0
  9
$LIMCHECK
 70
    0
  9
$CHAMFERA
 40
0
  9
$CHAMFERB
 40
0
  9
$CHAMFERC
 40
0
  9
$CHAMFERD
 40
0
  9
$SKPOLY
 70
    0
  9
$USRTIMER
 70
    1
  9
$ANGBASE
 50
0
  9
$ANGDIR
 70
    0
  9
$PDMODE
 70
   34
  9
$PDSIZE
 40
0
  9
$PLINEWID
 40
0
  9
$SPLFRAME
 70
    0
  9
$SPLINETYPE
 70
    2
  9
$SPLINESEGS
 70
    8
  9
$HANDSEED
  5
20000
  9
$SURFTAB1
 70
    6
  9
$SURFTAB2
 70
    6
  9
$SURFTYPE
 70
    6
  9
$SURFU
 70
    6
  9
$SURFV
 70
    6
  9
$UCSBASE
  2

  9
$UCSNAME
  2

  9
$UCSORG
 10
0
 20
0
 30
0
  9
$UCSXDIR
 10
1
 20
0
 30
0
  9
$UCSYDIR
 10
0
 20
1
 30
0
  9
$UCSORTHOREF
  2

  9
$UCSORTHOVIEW
 70
    0
  9
$UCSORGTOP
 10
0
 20
0
 30
0
  9
$UCSORGBOTTOM
 10
0
 20
0
 30
0
  9
$UCSORGLEFT
 10
0
 20
0
 30
0
  9
$UCSORGRIGHT
 10
0
 20
0
 30
0
  9
$UCSORGFRONT
 10
0
 20
0
 30
0
  9
$UCSORGBACK
 10
0
 20
0
 30
0
  9
$PUCSBASE
  2

  9
$PUCSNAME
  2

  9
$PUCSORG
 10
0
 20
0
 30
0
  9
$PUCSXDIR
 10
1
 20
0
 30
0
  9
$PUCSYDIR
 10
0
 20
1
 30
0
  9
$PUCSORTHOREF
  2

  9
$PUCSORTHOVIEW
 70
    0
  9
$PUCSORGTOP
 10
0
 20
0
 30
0
  9
$PUCSORGBOTTOM
 10
0
 20
0
 30
0
  9
$PUCSORGLEFT
 10
0
 20
0
 30
0
  9
$PUCSORGRIGHT
 10
0
 20
0
 30
0
  9
$PUCSORGFRONT
 10
0
 20
0
 30
0
  9
$PUCSORGBACK
 10
0
 20
0
 30
0
  9
$USERI1
 70
    0
  9
$USERI2
 70
    0
  9
$USERI3
 70
    0
  9
$USERI4
 70
    0
  9
$USERI5
 70
    0
  9
$USERR1
 40
0
  9
$USERR2
 40
0
  9
$USERR3
 40
0
  9
$USERR4
 40
0
  9
$USERR5
 40
0
  9
$WORLDVIEW
 70
    1
  9
$SHADEDGE
 70
    3
  9
$SHADEDIF
 70
   70
  9
$TILEMODE
 70
    1
  9
$MAXACTVP
 70
   64
  9
$PINSBASE
 10
151.9258987263881
 20
38.71809619712791
 30
0
  9
$PLIMCHECK
 70
    0
  9
$PEXTMIN
 10
0
 20
0
 30
0
  9
$PEXTMAX
 10
0
 20
0
 30
0
  9
$GRIDMODE
 70
    0
  9
$SNAPSTYLE
 70
    0
  9
$GRIDUNIT
 10
0
 20
0
  9
$PLIMMIN
 10
0
 20
0
  9
$PLIMMAX
 10
297
 20
210
  9
$UNITMODE
 70
    0
  9
$VISRETAIN
 70
    1
  9
$PLINEGEN
 70
    0
  9
$PSLTSCALE
 70
    1
  9
$TREEDEPTH
 70
 3020
  9
$CMLSTYLE
  2
Standard
  9
$CMLJUST
 70
    0
  9
$CMLSCALE
 40
20
  9
$PROXYGRAPHICS
 70
    1
  9
$MEASUREMENT
 70
    1
  9
$CELWEIGHT
370
   -1
  9
$ENDCAPS
280
    0
  9
$JOINSTYLE
280
    0
  9
$LWDISPLAY
290
    0
  9
$INSUNITS
 70
    0
  9
$HYPERLINKBASE
  1

  9
$STYLESHEET
  1

  9
$XEDIT
290
    1
  9
$CEPSNTYPE
380
    0
  9
$PSTYLEMODE
290
    1
  9
$EXTNAMES
290
    1
  9
$PSVPSCALE
 40
2.568745698761451
  9
$OLESTARTUP
290
    0
  9
$SORTENTS
280
  127
  9
$INDEXCTL
280
    0
  9
$HIDETEXT
280
    1
  9
$XCLIPFRAME
290
    0
  9
$HALOGAP
280
    0
  9
$OBSCOLOR
 70
  257
  9
$OBSLTYPE
280
    0
  9
$INTERSECTIONDISPLAY
280
    0
  9
$INTERSECTIONCOLOR
 70
  257
  9
$DIMASSOC
280
    1
  9
$PROJECTNAME
  1

  9
$CAMERADISPLAY
290
    0
  9
$LENSLENGTH
 40
50
  9
$CAMERAHEIGHT
 40
0
  9
$STEPSPERSEC
 40
2
  9
$STEPSIZE
 40
50
  9
$3DDWFPREC
 40
2
  9
$PSOLWIDTH
 40
5
  9
$PSOLHEIGHT
 40
80
  9
$LOFTANG1
 40
1.570796326794897
  9
$LOFTANG2
 40
1.570796326794897
  9
$LOFTMAG1
 40
0
  9
$LOFTMAG2
 40
0
  9
$LOFTPARAM
 70
    7
  9
$LOFTNORMALS
280
    1
  9
$LATITUDE
 40
1
  9
$LONGITUDE
 40
1
  9
$NORTHDIRECTION
 40
0
  9
$TIMEZONE
 70
-8000
  9
$LIGHTGLYPHDISPLAY
280
    1
  9
$TILEMODELIGHTSYNCH
280
    1
  9
$SOLIDHIST
280
    1
  9
$SHOWHIST
280
    1
  9
$DWFFRAME
280
    2
  9
$DGNFRAME
280
    0
  9
$REALWORLDSCALE
290
    1
  9
$INTERFERECOLOR
 62
    1
  9
$CSHADOW
280
    0
  9
$SHADOWPLANELOCATION
 40
0
  0
ENDSEC
  0
SECTION
  2
CLASSES
  0
ENDSEC
  0
SECTION
  2
TABLES
  0
TABLE
  2
VPORT
  5
8
330
0
100
AcDbSymbolTable
 70
    1
  0
VPORT
  5
31
330
2
100
AcDbSymbolTableRecord
100
AcDbViewportTableRecord
  2
*ACTIVE
 70
    0
 10
0
 20
0
 11
1
 21
1
 12
40.95924418514032
 22
33.9775548354005
 13
0
 23
0
 14
10
 24
10
 15
10
 25
10
 16
0
 26
0
 36
1
 17
0
 27
0
 37
0
 40
89.3656236766698
 41
1.626041666666667
 42
50
 43
0
 44
0
 50
0
 51
0
 71
    0
 72
  100
 73
    1
 74
    3
 75
    0
 76
    0
 77
    0
 78
    0
281
    0
 65
    1
110
0
120
0
130
0
111
1
121
0
131
0
112
0
122
1
132
0
 79
    0
146
0
348
10020
 60
    7
 61
    5
292
1
282
    1
141
0
142
0
 63
  250
421
3358443
  0
ENDTAB
  0
TABLE
  2
LTYPE
  5
5
330
0
100
AcDbSymbolTable
 70
    4
  0
LTYPE
  5
14
330
5
100
AcDbSymbolTableRecord
100
AcDbLinetypeTableRecord
  2
ByBlock
 70
    0
  3

 72
   65
 73
    0
 40
0
  0
LTYPE
  5
15
330
5
100
AcDbSymbolTableRecord
100
AcDbLinetypeTableRecord
  2
ByLayer
 70
    0
  3

 72
   65
 73
    0
 40
0
  0
LTYPE
  5
16
330
5
100
AcDbSymbolTableRecord
100
AcDbLinetypeTableRecord
  2
Continuous
 70
    0
  3
Solid line
 72
   65
 73
    0
 40
0
  0
LTYPE
  5
32
330
5
100
AcDbSymbolTableRecord
100
AcDbLinetypeTableRecord
  2
DOT
 70
    0
  3
Dot . . . . . . . . . . . . . . . . . . . . . .
 72
   65
 73
    2
 40
6.35
 49
0
 74
    0
 49
-6.35
 74
    0
  0
LTYPE
  5
33
330
5
100
AcDbSymbolTableRecord
100
AcDbLinetypeTableRecord
  2
DOTTINY
 70
    0
  3
Dot (.15x) .....................................
 72
   65
 73
    2
 40
0.9525
 49
0
 74
    0
 49
-0.9525
 74
    0
  0
LTYPE
  5
34
330
5
100
AcDbSymbolTableRecord
100
AcDbLinetypeTableRecord
  2
DOT2
 70
    0
  3
Dot (.5x) .....................................
 72
   65
 73
    2
 40
3.175
 49
0
 74
    0
 49
-3.175
 74
    0
  0
LTYPE
  5
35
330
5
100
AcDbSymbolTableRecord
100
AcDbLinetypeTableRecord
  2
DOTX2
 70
    0
  3
Dot (2x) .  .  .  .  .  .  .  .  .  .  .  .  .
 72
   65
 73
    2
 40
12.7
 49
0
 74
    0
 49
-12.7
 74
    0
  0
LTYPE
  5
36
330
5
100
AcDbSymbolTableRecord
100
AcDbLinetypeTableRecord
  2
DASHED
 70
    0
  3
Dashed _ _ _ _ _ _ _ _ _ _ _ _ _ _ _ _ _
 72
   65
 73
    2
 40
19.05
 49
12.7
 74
    0
 49
-6.35
 74
    0
  0
LTYPE
  5
37
330
5
100
AcDbSymbolTableRecord
100
AcDbLinetypeTableRecord
  2
DASHEDTINY
 70
    0
  3
Dashed (.15x) _ _ _ _ _ _ _ _ _ _ _ _ _ _ _ _ _
 72
   65
 73
    2
 40
2.8575
 49
1.905
 74
    0
 49
-0.9525
 74
    0
  0
LTYPE
  5
38
330
5
100
AcDbSymbolTableRecord
100
AcDbLinetypeTableRecord
  2
DASHED2
 70
    0
  3
Dashed (.5x) _ _ _ _ _ _ _ _ _ _ _ _ _ _ _ _ _
 72
   65
 73
    2
 40
9.524999999999999
 49
6.35
 74
    0
 49
-3.175
 74
    0
  0
LTYPE
  5
39
330
5
100
AcDbSymbolTableRecord
100
AcDbLinetypeTableRecord
  2
DASHEDX2
 70
    0
  3
Dashed (2x) ____  ____  ____  ____  ____  ___
 72
   65
 73
    2
 40
38.09999999999999
 49
25.4
 74
    0
 49
-12.7
 74
    0
  0
LTYPE
  5
3A
330
5
100
AcDbSymbolTableRecord
100
AcDbLinetypeTableRecord
  2
DASHDOT
 70
    0
  3
Dash dot __ . __ . __ . __ . __ . __ . __ . __
 72
   65
 73
    4
 40
25.4
 49
12.7
 74
    0
 49
-6.35
 74
    0
 49
0
 74
    0
 49
-6.35
 74
    0
  0
LTYPE
  5
3B
330
5
100
AcDbSymbolTableRecord
100
AcDbLinetypeTableRecord
  2
DASHDOTTINY
 70
    0
  3
Dash dot (.15x) _._._._._._._._._._._._._._._.
 72
   65
 73
    4
 40
3.81
 49
1.905
 74
    0
 49
-0.9525
 74
    0
 49
0
 74
    0
 49
-0.9525
 74
    0
  0
LTYPE
  5
3C
330
5
100
AcDbSymbolTableRecord
100
AcDbLinetypeTableRecord
  2
DASHDOT2
 70
    0
  3
Dash dot (.5x) _._._._._._._._._._._._._._._.
 72
   65
 73
    4
 40
12.7
 49
6.35
 74
    0
 49
-3.175
 74
    0
 49
0
 74
    0
 49
-3.175
 74
    0
  0
LTYPE
  5
3D
330
5
100
AcDbSymbolTableRecord
100
AcDbLinetypeTableRecord
  2
DASHDOTX2
 70
    0
  3
Dash dot (2x) ____  .  ____  .  ____  .  ___
 72
   65
 73
    4
 40
50.8
 49
25.4
 74
    0
 49
-12.7
 74
    0
 49
0
 74
    0
 49
-12.7
 74
    0
  0
LTYPE
  5
3E
330
5
100
AcDbSymbolTableRecord
100
AcDbLinetypeTableRecord
  2
DIVIDE
 70
    0
  3
Divide ____ . . ____ . . ____ . . ____ . . ____
 72
   65
 73
    6
 40
31.75
 49
12.7
 74
    0
 49
-6.35
 74
    0
 49
0
 74
    0
 49
-6.35
 74
    0
 49
0
 74
    0
 49
-6.35
 74
    0
  0
LTYPE
  5
3F
330
5
100
AcDbSymbolTableRecord
100
AcDbLinetypeTableRecord
  2
DIVIDETINY
 70
    0
  3
Divide (.15x) __..__..__..__..__..__..__..__.._
 72
   65
 73
    6
 40
4.7625
 49
1.905
 74
    0
 49
-0.9525
 74
    0
 49
0
 74
    0
 49
-0.9525
 74
    0
 49
0
 74
    0
 49
-0.9525
 74
    0
  0
LTYPE
  5
40
330
5
100
AcDbSymbolTableRecord
100
AcDbLinetypeTableRecord
  2
DIVIDE2
 70
    0
  3
Divide (.5x) __..__..__..__..__..__..__..__.._
 72
   65
 73
    6
 40
15.875
 49
6.35
 74
    0
 49
-3.175
 74
    0
 49
0
 74
    0
 49
-3.175
 74
    0
 49
0
 74
    0
 49
-3.175
 74
    0
  0
LTYPE
  5
41
330
5
100
AcDbSymbolTableRecord
100
AcDbLinetypeTableRecord
  2
DIVIDEX2
 70
    0
  3
Divide (2x) ________  .  .  ________  .  .  _
 72
   65
 73
    6
 40
63.5
 49
25.4
 74
    0
 49
-12.7
 74
    0
 49
0
 74
    0
 49
-12.7
 74
    0
 49
0
 74
    0
 49
-12.7
 74
    0
  0
LTYPE
  5
42
330
5
100
AcDbSymbolTableRecord
100
AcDbLinetypeTableRecord
  2
BORDER
 70
    0
  3
Border __ __ . __ __ . __ __ . __ __ . __ __ .
 72
   65
 73
    6
 40
44.45
 49
12.7
 74
    0
 49
-6.35
 74
    0
 49
12.7
 74
    0
 49
-6.35
 74
    0
 49
0
 74
    0
 49
-6.35
 74
    0
  0
LTYPE
  5
43
330
5
100
AcDbSymbolTableRecord
100
AcDbLinetypeTableRecord
  2
BORDERTINY
 70
    0
  3
Border (.15x) __.__.__.__.__.__.__.__.__.__.__.
 72
   65
 73
    6
 40
6.6675
 49
1.905
 74
    0
 49
-0.9525
 74
    0
 49
1.905
 74
    0
 49
-0.9525
 74
    0
 49
0
 74
    0
 49
-0.9525
 74
    0
  0
LTYPE
  5
44
330
5
100
AcDbSymbolTableRecord
100
AcDbLinetypeTableRecord
  2
BORDER2
 70
    0
  3
Border (.5x) __.__.__.__.__.__.__.__.__.__.__.
 72
   65
 73
    6
 40
22.225
 49
6.35
 74
    0
 49
-3.175
 74
    0
 49
6.35
 74
    0
 49
-3.175
 74
    0
 49
0
 74
    0
 49
-3.175
 74
    0
  0
LTYPE
  5
45
330
5
100
AcDbSymbolTableRecord
100
AcDbLinetypeTableRecord
  2
BORDERX2
 70
    0
  3
Border (2x) ____  ____  .  ____  ____  .  ___
 72
   65
 73
    6
 40
88.89999999999999
 49
25.4
 74
    0
 49
-12.7
 74
    0
 49
25.4
 74
    0
 49
-12.7
 74
    0
 49
0
 74
    0
 49
-12.7
 74
    0
  0
LTYPE
  5
46
330
5
100
AcDbSymbolTableRecord
100
AcDbLinetypeTableRecord
  2
CENTER
 70
    0
  3
Center ____ _ ____ _ ____ _ ____ _ ____ _ ____
 72
   65
 73
    4
 40
50.8
 49
31.75
 74
    0
 49
-6.35
 74
    0
 49
6.35
 74
    0
 49
-6.35
 74
    0
  0
LTYPE
  5
47
330
5
100
AcDbSymbolTableRecord
100
AcDbLinetypeTableRecord
  2
CENTERTINY
 70
    0
  3
Center (.15x) ___ _ ___ _ ___ _ ___ _ ___ _ ___
 72
   65
 73
    4
 40
7.619999999999999
 49
4.7625
 74
    0
 49
-0.9525
 74
    0
 49
0.9525
 74
    0
 49
-0.9525
 74
    0
  0
LTYPE
  5
48
330
5
100
AcDbSymbolTableRecord
100
AcDbLinetypeTableRecord
  2
CENTER2
 70
    0
  3
Center (.5x) ___ _ ___ _ ___ _ ___ _ ___ _ ___
 72
   65
 73
    4
 40
28.575
 49
19.05
 74
    0
 49
-3.175
 74
    0
 49
3.175
 74
    0
 49
-3.175
 74
    0
  0
LTYPE
  5
49
330
5
100
AcDbSymbolTableRecord
100
AcDbLinetypeTableRecord
  2
CENTERX2
 70
    0
  3
Center (2x) ________  __  ________  __  _____
 72
   65
 73
    4
 40
101.6
 49
63.5
 74
    0
 49
-12.7
 74
    0
 49
12.7
 74
    0
 49
-12.7
 74
    0
  0
ENDTAB
  0
TABLE
  2
LAYER
  5
2
330
0
100
AcDbSymbolTable
 70
    1
  0
LAYER
  5
10
330
2
100
AcDbSymbolTableRecord
100
AcDbLayerTableRecord
  2
0
 70
    0
 62
    7
  6
CONTINUOUS
370
    9
390
F
  0
LAYER
  5
4A
330
2
100
AcDbSymbolTableRecord
100
AcDbLayerTableRecord
  2
0_GND
 70
    0
 62
    7
  6
CONTINUOUS
370
   15
390
F
  0
LAYER
  5
4B
330
2
100
AcDbSymbolTableRecord
100
AcDbLayerTableRecord
  2
0_draft
 70
    0
 62
    7
  6
DOTTINY
370
   -3
390
F
1001
LibreCad
1070
    1
  0
LAYER
  5
4C
330
2
100
AcDbSymbolTableRecord
100
AcDbLayerTableRecord
  2
0_wire
 70
    0
 62
   92
420
51200
  6
CONTINUOUS
370
   15
390
F
  0
LAYER
  5
4D
330
2
100
AcDbSymbolTableRecord
100
AcDbLayerTableRecord
  2
1_wire
 70
    0
 62
    2
  6
CONTINUOUS
370
   15
390
F
  0
LAYER
  5
4E
330
2
100
AcDbSymbolTableRecord
100
AcDbLayerTableRecord
  2
3.3V line
 70
    0
 62
   40
420
16755200
  6
CONTINUOUS
370
   15
390
F
  0
LAYER
  5
4F
330
2
100
AcDbSymbolTableRecord
100
AcDbLayerTableRecord
  2
5V line
 70
    0
 62
    1
  6
CONTINUOUS
370
   15
390
F
  0
LAYER
  5
50
330
2
100
AcDbSymbolTableRecord
100
AcDbLayerTableRecord
  2
condenser
 70
    0
 62
    5
  6
CONTINUOUS
370
   15
390
F
  0
LAYER
  5
51
330
2
100
AcDbSymbolTableRecord
100
AcDbLayerTableRecord
  2
crystal
 70
    0
 62
   96
420
32768
  6
CONTINUOUS
370
   15
390
F
  0
LAYER
  5
52
330
2
100
AcDbSymbolTableRecord
100
AcDbLayerTableRecord
  2
diode
 70
    0
 62
    6
  6
CONTINUOUS
370
   15
390
F
  0
LAYER
  5
53
330
2
100
AcDbSymbolTableRecord
100
AcDbLayerTableRecord
  2
kakou
 70
    0
 62
  176
420
  128
  6
CONTINUOUS
370
   15
390
F
  0
LAYER
  5
54
330
2
100
AcDbSymbolTableRecord
100
AcDbLayerTableRecord
  2
micon
 70
    0
 62
  216
420
8388736
  6
CONTINUOUS
370
   15
390
F
  0
LAYER
  5
55
330
2
100
AcDbSymbolTableRecord
100
AcDbLayerTableRecord
  2
resister
 70
    0
 62
  132
420
50886
  6
CONTINUOUS
370
   15
390
F
  0
LAYER
  5
56
330
2
100
AcDbSymbolTableRecord
100
AcDbLayerTableRecord
  2
socket_header
 70
    0
 62
   56
420
8421376
  6
CONTINUOUS
370
   15
390
F
  0
LAYER
  5
57
330
2
100
AcDbSymbolTableRecord
100
AcDbLayerTableRecord
  2
switch
 70
    0
 62
  136
420
32896
  6
CONTINUOUS
370
   15
390
F
  0
LAYER
  5
58
330
2
100
AcDbSymbolTableRecord
100
AcDbLayerTableRecord
  2
terminal
 70
    0
 62
   16
420
8388608
  6
CONTINUOUS
370
   15
390
F
  0
LAYER
  5
59
330
2
100
AcDbSymbolTableRecord
100
AcDbLayerTableRecord
  2
universal_board
 70
    4
 62
  253
420
10526884
  6
CONTINUOUS
370
   15
390
F
  0
ENDTAB
  0
TABLE
  2
STYLE
  5
3
330
0
100
AcDbSymbolTable
 70
    3
  0
STYLE
  5
5A
330
2
100
AcDbSymbolTableRecord
100
AcDbTextStyleTableRecord
  2
unicode
 70
    0
 40
0
 41
1
 50
0
 71
    0
 42
1
  3
unicode
  4

  0
STYLE
  5
5B
330
2
100
AcDbSymbolTableRecord
100
AcDbTextStyleTableRecord
  2
kst32b
 70
    0
 40
0
 41
1
 50
0
 71
    0
 42
1
  3
kst32b
  4

  0
STYLE
  5
5C
330
2
100
AcDbSymbolTableRecord
100
AcDbTextStyleTableRecord
  2
STANDARD
 70
    0
 40
0
 41
1
 50
0
 71
    0
 42
1
  3
STANDARD
  4

  0
STYLE
  5
5D
330
2
100
AcDbSymbolTableRecord
100
AcDbTextStyleTableRecord
  2
iso
 70
    0
 40
0
 41
1
 50
0
 71
    0
 42
1
  3
iso
  4

  0
ENDTAB
  0
TABLE
  2
VIEW
  5
6
330
0
100
AcDbSymbolTable
 70
    0
  0
ENDTAB
  0
TABLE
  2
UCS
  5
7
330
0
100
AcDbSymbolTable
 70
    0
  0
ENDTAB
  0
TABLE
  2
APPID
  5
9
330
0
100
AcDbSymbolTable
 70
    1
  0
APPID
  5
12
330
9
100
AcDbSymbolTableRecord
100
AcDbRegAppTableRecord
  2
ACAD
 70
    0
  0
APPID
  5
5E
330
9
100
AcDbSymbolTableRecord
100
AcDbRegAppTableRecord
  2
LibreCad
 70
    0
  0
ENDTAB
  0
TABLE
  2
DIMSTYLE
  5
A
330
0
100
AcDbSymbolTable
 70
    1
100
AcDbDimStyleTable
 71
    1
  0
DIMSTYLE
105
5F
330
A
100
AcDbSymbolTableRecord
100
AcDbDimStyleTableRecord
  2
Standard
 70
    0
 40
1
 41
2.5
 42
0.625
 43
0.38
 44
1.25
 45
0
 46
0
 47
0
 48
0
 49
1
140
2.5
141
0.09
142
0
143
25.4
144
1
145
0
146
1
147
0.625
148
0
 71
    0
 72
    0
 73
    0
 74
    1
 75
    0
 76
    0
 77
    0
 78
    8
 79
    0
170
    0
171
    2
172
    0
173
    0
174
    0
175
    0
176
    0
177
    0
178
    0
179
    0
271
    2
272
    4
273
    2
274
    2
275
    0
276
    0
277
    2
278
   44
279
    0
280
    0
281
    0
282
    0
283
    1
284
    0
285
    0
286
    0
288
    0
289
    3
340
5C
  0
ENDTAB
  0
TABLE
  2
BLOCK_RECORD
  5
1
330
0
100
AcDbSymbolTable
 70
    2
  0
BLOCK_RECORD
  5
1F
330
1
100
AcDbSymbolTableRecord
100
AcDbBlockTableRecord
  2
*Model_Space
 70
    0
280
    1
281
    0
  0
BLOCK_RECORD
  5
1E
330
1
100
AcDbSymbolTableRecord
100
AcDbBlockTableRecord
  2
*Paper_Space
 70
    0
280
    1
281
    0
  0
BLOCK_RECORD
  5
60
330
1
100
AcDbSymbolTableRecord
100
AcDbBlockTableRecord
  2
2227MC-08-03
 70
    0
280
    1
281
    0
  0
BLOCK_RECORD
  5
63
330
1
100
AcDbSymbolTableRecord
100
AcDbBlockTableRecord
  2
PIC16F15325
 70
    0
280
    1
281
    0
  0
BLOCK_RECORD
  5
66
330
1
100
AcDbSymbolTableRecord
100
AcDbBlockTableRecord
  2
2227MC-28-03
 70
    0
280
    1
281
    0
  0
BLOCK_RECORD
  5
69
330
1
100
AcDbSymbolTableRecord
100
AcDbBlockTableRecord
  2
HUSG-16.000-20
 70
    0
280
    1
281
    0
  0
BLOCK_RECORD
  5
6C
330
1
100
AcDbSymbolTableRecord
100
AcDbBlockTableRecord
  2
ATmega328P
 70
    0
280
    1
281
    0
  0
BLOCK_RECORD
  5
6F
330
1
100
AcDbSymbolTableRecord
100
AcDbBlockTableRecord
  2
DTS-63-N-V-BLK
 70
    0
280
    1
281
    0
  0
BLOCK_RECORD
  5
72
330
1
100
AcDbSymbolTableRecord
100
AcDbBlockTableRecord
  2
2227MC-14-03
 70
    0
280
    1
281
    0
  0
BLOCK_RECORD
  5
75
330
1
100
AcDbSymbolTableRecord
100
AcDbBlockTableRecord
  2
C_0.01uF
 70
    0
280
    1
281
    0
  0
BLOCK_RECORD
  5
78
330
1
100
AcDbSymbolTableRecord
100
AcDbBlockTableRecord
  2
R300
 70
    0
280
    1
281
    0
  0
BLOCK_RECORD
  5
7B
330
1
100
AcDbSymbolTableRecord
100
AcDbBlockTableRecord
  2
R10k
 70
    0
280
    1
281
    0
  0
BLOCK_RECORD
  5
7E
330
1
100
AcDbSymbolTableRecord
100
AcDbBlockTableRecord
  2
R0
 70
    0
280
    1
281
    0
  0
ENDTAB
  0
ENDSEC
  0
SECTION
  2
BLOCKS
  0
BLOCK
  5
20
330
1F
100
AcDbEntity
  8
0
100
AcDbBlockBegin
  2
*Model_Space
 70
    0
 10
0
 20
0
 30
0
  3
*Model_Space
  1

  0
ENDBLK
  5
21
330
1F
100
AcDbEntity
  8
0
100
AcDbBlockEnd
  0
BLOCK
  5
1C
330
1B
100
AcDbEntity
  8
0
100
AcDbBlockBegin
  2
*Paper_Space
 70
    0
 10
0
 20
0
 30
0
  3
*Paper_Space
  1

  0
ENDBLK
  5
1D
330
1F
100
AcDbEntity
  8
0
100
AcDbBlockEnd
  0
BLOCK
  5
61
330
60
100
AcDbEntity
  8
0
100
AcDbBlockBegin
  2
2227MC-08-03
 70
    0
 10
0
 20
0
  3
2227MC-08-03
  1

  0
LINE
  5
81
100
AcDbEntity
  8
socket_header
  6
ByLayer
 62
  256
370
   -1
100
AcDbLine
 10
-1.270000000000131
 20
-8.890000110779171
 11
-1.270000000000131
 21
1.269999889220831
  0
LINE
  5
82
100
AcDbEntity
  8
socket_header
  6
ByLayer
 62
  256
370
   -1
100
AcDbLine
 10
-1.270000000000131
 20
1.269999889220831
 11
8.890000394687402
 21
1.269999889220831
  0
LINE
  5
83
100
AcDbEntity
  8
socket_header
  6
ByLayer
 62
  256
370
   -1
100
AcDbLine
 10
8.890000394687402
 20
1.269999889220831
 11
8.88999999999989
 21
-8.890000110779171
  0
LINE
  5
84
100
AcDbEntity
  8
socket_header
  6
ByLayer
 62
  256
370
   -1
100
AcDbLine
 10
8.88999999999989
 20
-8.890000110779171
 11
-1.270000000000131
 21
-8.890000110779171
  0
CIRCLE
  5
85
100
AcDbEntity
  8
socket_header
  6
ByLayer
 62
  256
370
   -1
100
AcDbCircle
 10
2.539999999999878
 20
1.06581410364015e-14
 40
0.6
  0
CIRCLE
  5
86
100
AcDbEntity
  8
socket_header
  6
ByLayer
 62
  256
370
   -1
100
AcDbCircle
 10
2.539999999999893
 20
-7.620000000000061
 40
0.6
  0
CIRCLE
  5
87
100
AcDbEntity
  8
socket_header
  6
ByLayer
 62
  256
370
   -1
100
AcDbCircle
 10
0
 20
0
 40
0.6
  0
CIRCLE
  5
88
100
AcDbEntity
  8
socket_header
  6
ByLayer
 62
  256
370
   -1
100
AcDbCircle
 10
7.105427357601002e-15
 20
-7.620000000000072
 40
0.6
  0
CIRCLE
  5
89
100
AcDbEntity
  8
socket_header
  6
ByLayer
 62
  256
370
   -1
100
AcDbCircle
 10
5.079999999999757
 20
2.842170943040401e-14
 40
0.6
  0
CIRCLE
  5
8A
100
AcDbEntity
  8
socket_header
  6
ByLayer
 62
  256
370
   -1
100
AcDbCircle
 10
5.079999999999771
 20
-7.620000000000051
 40
0.6
  0
CIRCLE
  5
8B
100
AcDbEntity
  8
socket_header
  6
ByLayer
 62
  256
370
   -1
100
AcDbCircle
 10
7.619999999999639
 20
3.907985046680551e-14
 40
0.6
  0
CIRCLE
  5
8C
100
AcDbEntity
  8
socket_header
  6
ByLayer
 62
  256
370
   -1
100
AcDbCircle
 10
7.61999999999966
 20
-7.62000000000004
 40
0.6
  0
MTEXT
  5
8D
100
AcDbEntity
  8
socket_header
  6
ByLayer
 62
  256
370
   -1
100
AcDbMText
 10
3.950796119092651
 20
-1.713679173150673
 30
0
 40
1
 41
9.222222222222346
 71
    5
 72
    1
  1
2227MC-08-03
  7
STANDARD
210
0
220
0
230
1
 50
0
 73
    2
 44
1
  0
ENDBLK
  5
62
330
60
100
AcDbEntity
  8
0
100
AcDbBlockEnd
  0
BLOCK
  5
64
330
63
100
AcDbEntity
  8
0
100
AcDbBlockBegin
  2
PIC16F15325
 70
    0
 10
0
 20
0
  3
PIC16F15325
  1

  0
ENDBLK
  5
65
330
63
100
AcDbEntity
  8
0
100
AcDbBlockEnd
  0
BLOCK
  5
67
330
66
100
AcDbEntity
  8
0
100
AcDbBlockBegin
  2
2227MC-28-03
 70
    0
 10
0
 20
0
  3
2227MC-28-03
  1

  0
ENDBLK
  5
68
330
66
100
AcDbEntity
  8
0
100
AcDbBlockEnd
  0
BLOCK
  5
6A
330
69
100
AcDbEntity
  8
0
100
AcDbBlockBegin
  2
HUSG-16.000-20
 70
    0
 10
0
 20
0
  3
HUSG-16.000-20
  1

  0
ENDBLK
  5
6B
330
69
100
AcDbEntity
  8
0
100
AcDbBlockEnd
  0
BLOCK
  5
6D
330
6C
100
AcDbEntity
  8
0
100
AcDbBlockBegin
  2
ATmega328P
 70
    0
 10
0
 20
0
  3
ATmega328P
  1

  0
ENDBLK
  5
6E
330
6C
100
AcDbEntity
  8
0
100
AcDbBlockEnd
  0
BLOCK
  5
70
330
6F
100
AcDbEntity
  8
0
100
AcDbBlockBegin
  2
DTS-63-N-V-BLK
 70
    0
 10
0
 20
0
  3
DTS-63-N-V-BLK
  1

  0
ENDBLK
  5
71
330
6F
100
AcDbEntity
  8
0
100
AcDbBlockEnd
  0
BLOCK
  5
73
330
72
100
AcDbEntity
  8
0
100
AcDbBlockBegin
  2
2227MC-14-03
 70
    0
 10
0
 20
0
  3
2227MC-14-03
  1

  0
ENDBLK
  5
74
330
72
100
AcDbEntity
  8
0
100
AcDbBlockEnd
  0
BLOCK
  5
76
330
75
100
AcDbEntity
  8
0
100
AcDbBlockBegin
  2
C_0.01uF
 70
    0
 10
0
 20
0
  3
C_0.01uF
  1

  0
LWPOLYLINE
  5
8E
100
AcDbEntity
  8
condenser
  6
ByLayer
 62
  256
370
   -1
100
AcDbPolyline
 90
    4
 70
    1
 43
0
 10
1.499999999999972
 20
5.039999999999822
 10
1.499999999999972
 20
0.03999999999992099
 10
-1.50000000000005
 20
0.03999999999992099
 10
-1.50000000000005
 20
5.039999999999822
  0
MTEXT
  5
8F
100
AcDbEntity
  8
condenser
  6
ByLayer
 62
  256
370
   -1
100
AcDbMText
 10
2.336701583810211
 20
2.491803864245341
 30
0
 40
1
 41
3.666666666666713
 71
    5
 72
    1
  1
0.01uF
  7
STANDARD
210
0
220
0
230
1
 50
270
 73
    2
 44
1
  0
CIRCLE
  5
90
100
AcDbEntity
  8
condenser
  6
ByLayer
 62
  256
370
   -1
100
AcDbCircle
 10
0
 20
0
 40
0.4
  0
CIRCLE
  5
91
100
AcDbEntity
  8
condenser
  6
ByLayer
 62
  256
370
   -1
100
AcDbCircle
 10
-6.927791673660977e-14
 20
5.080000000000041
 40
0.4
  0
ENDBLK
  5
77
330
75
100
AcDbEntity
  8
0
100
AcDbBlockEnd
  0
BLOCK
  5
79
330
78
100
AcDbEntity
  8
0
100
AcDbBlockBegin
  2
R300
 70
    0
 10
0
 20
0
  3
R300
  1

  0
LWPOLYLINE
  5
92
100
AcDbEntity
  8
resister
  6
ByLayer
 62
  256
370
   -1
100
AcDbPolyline
 90
    4
 70
    1
 43
0
 10
-1.150000000000091
 20
0.6599999999995898
 10
-1.15000000000008
 20
6.959999999999511
 10
1.150000000000126
 20
6.959999999999511
 10
1.150000000000119
 20
0.6599999999995898
  0
CIRCLE
  5
93
100
AcDbEntity
  8
resister
  6
ByLayer
 62
  256
370
   -1
100
AcDbCircle
 10
1.953992523340276e-14
 20
7.619999999999639
 40
0.3
  0
LINE
  5
94
100
AcDbEntity
  8
resister
  6
ByLayer
 62
  256
370
   -1
100
AcDbLine
 10
1.953992523340276e-14
 20
0.2999999999998604
 11
1.031014139840636e-06
 21
0.6599999999995898
  0
LINE
  5
95
100
AcDbEntity
  8
resister
  6
ByLayer
 62
  256
370
   -1
100
AcDbLine
 10
3.907985046680551e-14
 20
6.959999999999511
 11
3.907985046680551e-14
 21
7.320000000000348
  0
MTEXT
  5
96
100
AcDbEntity
  8
resister
  6
ByLayer
 62
  256
370
   -1
100
AcDbMText
 10
-0.02409769535478112
 20
3.951579464078229
 30
0
 40
1
 41
2.888888888888951
 71
    5
 72
    1
  1
R300
  7
STANDARD
210
0
220
0
230
1
 50
90
 73
    2
 44
1
  0
CIRCLE
  5
97
100
AcDbEntity
  8
resister
  6
ByLayer
 62
  256
370
   -1
100
AcDbCircle
 10
0
 20
0
 40
0.25
  0
ENDBLK
  5
7A
330
78
100
AcDbEntity
  8
0
100
AcDbBlockEnd
  0
BLOCK
  5
7C
330
7B
100
AcDbEntity
  8
0
100
AcDbBlockBegin
  2
R10k
 70
    0
 10
0
 20
0
  3
R10k
  1

  0
CIRCLE
  5
98
100
AcDbEntity
  8
resister
  6
ByLayer
 62
  256
370
   -1
100
AcDbCircle
 10
0
 20
0
 40
0.3
  0
LINE
  5
99
100
AcDbEntity
  8
resister
  6
ByLayer
 62
  256
370
   -1
100
AcDbLine
 10
-0.659999999999485
 20
1.150000000000098
 11
-0.659999999999485
 21
-1.150000000000059
  0
LINE
  5
9A
100
AcDbEntity
  8
resister
  6
ByLayer
 62
  256
370
   -1
100
AcDbLine
 10
-6.959999999999557
 20
-1.150000000000041
 11
-0.659999999999485
 21
-1.150000000000059
  0
LINE
  5
9B
100
AcDbEntity
  8
resister
  6
ByLayer
 62
  256
370
   -1
100
AcDbLine
 10
-0.659999999999485
 20
1.150000000000098
 11
-6.959999999999557
 21
1.150000000000098
  0
LINE
  5
9C
100
AcDbEntity
  8
resister
  6
ByLayer
 62
  256
370
   -1
100
AcDbLine
 10
-6.959999999999557
 20
1.150000000000098
 11
-6.959999999999557
 21
-1.150000000000041
  0
CIRCLE
  5
9D
100
AcDbEntity
  8
resister
  6
ByLayer
 62
  256
370
   -1
100
AcDbCircle
 10
-7.619999999999408
 20
2.131628207280301e-14
 40
0.25
  0
MTEXT
  5
9E
100
AcDbEntity
  8
resister
  6
ByLayer
 62
  256
370
   -1
100
AcDbMText
 10
-3.991855261194459
 20
0.08749576228997924
 30
0
 40
1
 41
2.666666666666667
 71
    5
 72
    1
  1
R10k
  7
unicode
210
0
220
0
230
1
 50
0
 73
    2
 44
1
  0
LINE
  5
9F
100
AcDbEntity
  8
resister
  6
ByLayer
 62
  256
370
   -1
100
AcDbLine
 10
-0.2499999999985789
 20
2.131628207280301e-14
 11
-0.659999999999485
 21
2.131628207280301e-14
  0
LINE
  5
A0
100
AcDbEntity
  8
resister
  6
ByLayer
 62
  256
370
   -1
100
AcDbLine
 10
-7.369999999999898
 20
1.06581410364015e-14
 11
-6.959999999999557
 21
1.06581410364015e-14
  0
ENDBLK
  5
7D
330
7B
100
AcDbEntity
  8
0
100
AcDbBlockEnd
  0
BLOCK
  5
7F
330
7E
100
AcDbEntity
  8
0
100
AcDbBlockBegin
  2
R0
 70
    0
 10
0
 20
0
  3
R0
  1

  0
LINE
  5
A1
100
AcDbEntity
  8
resister
  6
ByLayer
 62
  256
370
   -1
100
AcDbLine
 10
-0.6599999999999611
 20
1.149999999999959
 11
-0.6599999999999611
 21
-1.14999999999997
  0
LINE
  5
A2
100
AcDbEntity
  8
resister
  6
ByLayer
 62
  256
370
   -1
100
AcDbLine
 10
-0.6599999999999611
 20
-1.14999999999997
 11
-6.959999999999834
 21
-1.14999999999997
  0
LINE
  5
A3
100
AcDbEntity
  8
resister
  6
ByLayer
 62
  256
370
   -1
100
AcDbLine
 10
-6.959999999999834
 20
-1.14999999999997
 11
-6.95999999999982
 21
1.149999999999959
  0
LINE
  5
A4
100
AcDbEntity
  8
resister
  6
ByLayer
 62
  256
370
   -1
100
AcDbLine
 10
-6.95999999999982
 20
1.149999999999959
 11
-0.6599999999999611
 21
1.149999999999959
  0
LINE
  5
A5
100
AcDbEntity
  8
resister
  6
ByLayer
 62
  256
370
   -1
100
AcDbLine
 10
-6.95999999999982
 20
0
 11
-7.61999999999966
 21
0
  0
LINE
  5
A6
100
AcDbEntity
  8
resister
  6
ByLayer
 62
  256
370
   -1
100
AcDbLine
 10
3.694822225952521e-13
 20
0
 11
-0.6599999999999611
 21
0
  0
MTEXT
  5
A7
100
AcDbEntity
  8
resister
  6
ByLayer
 62
  256
370
   -1
100
AcDbMText
 10
-4.132042899777453
 20
0.05377778633712005
 30
0
 40
1
 41
1.333333333333333
 71
    5
 72
    1
  1
R0
  7
STANDARD
210
0
220
0
230
1
 50
270
 73
    2
 44
1
  0
ENDBLK
  5
80
330
7E
100
AcDbEntity
  8
0
100
AcDbBlockEnd
  0
ENDSEC
  0
SECTION
  2
ENTITIES
  0
CIRCLE
  5
A8
100
AcDbEntity
  8
universal_board
  6
ByLayer
 62
  256
370
   -1
100
AcDbCircle
 10
-35.55999999999833
 20
22.85999999999993
 40
0.5
  0
CIRCLE
  5
A9
100
AcDbEntity
  8
universal_board
  6
ByLayer
 62
  256
370
   -1
100
AcDbCircle
 10
-35.55999999999833
 20
25.39999999999992
 40
0.5
  0
CIRCLE
  5
AA
100
AcDbEntity
  8
universal_board
  6
ByLayer
 62
  256
370
   -1
100
AcDbCircle
 10
-35.55999999999834
 20
27.94000000000001
 40
0.5
  0
CIRCLE
  5
AB
100
AcDbEntity
  8
universal_board
  6
ByLayer
 62
  256
370
   -1
100
AcDbCircle
 10
-35.55999999999835
 20
30.48000000000002
 40
0.5
  0
CIRCLE
  5
AC
100
AcDbEntity
  8
universal_board
  6
ByLayer
 62
  256
370
   -1
100
AcDbCircle
 10
-35.55999999999835
 20
33.02000000000001
 40
0.5
  0
CIRCLE
  5
AD
100
AcDbEntity
  8
universal_board
  6
ByLayer
 62
  256
370
   -1
100
AcDbCircle
 10
-35.55999999999835
 20
35.56000000000002
 40
0.5
  0
CIRCLE
  5
AE
100
AcDbEntity
  8
universal_board
  6
ByLayer
 62
  256
370
   -1
100
AcDbCircle
 10
-35.55999999999837
 20
38.10000000000002
 40
0.5
  0
CIRCLE
  5
AF
100
AcDbEntity
  8
universal_board
  6
ByLayer
 62
  256
370
   -1
100
AcDbCircle
 10
-35.55999999999838
 20
40.64000000000011
 40
0.5
  0
CIRCLE
  5
B0
100
AcDbEntity
  8
universal_board
  6
ByLayer
 62
  256
370
   -1
100
AcDbCircle
 10
-35.55999999999838
 20
43.18000000000012
 40
0.5
  0
CIRCLE
  5
B1
100
AcDbEntity
  8
universal_board
  6
ByLayer
 62
  256
370
   -1
100
AcDbCircle
 10
-35.5599999999984
 20
45.72000000000011
 40
0.5
  0
CIRCLE
  5
B2
100
AcDbEntity
  8
universal_board
  6
ByLayer
 62
  256
370
   -1
100
AcDbCircle
 10
-35.5599999999984
 20
48.26000000000012
 40
0.5
  0
CIRCLE
  5
B3
100
AcDbEntity
  8
universal_board
  6
ByLayer
 62
  256
370
   -1
100
AcDbCircle
 10
-38.09999999999828
 20
50.80000000000011
 40
0.5
  0
CIRCLE
  5
B4
100
AcDbEntity
  8
universal_board
  6
ByLayer
 62
  256
370
   -1
100
AcDbCircle
 10
-35.5599999999984
 20
50.80000000000021
 40
0.5
  0
CIRCLE
  5
B5
100
AcDbEntity
  8
universal_board
  6
ByLayer
 62
  256
370
   -1
100
AcDbCircle
 10
-38.0999999999983
 20
53.34000000000023
 40
0.5
  0
CIRCLE
  5
B6
100
AcDbEntity
  8
universal_board
  6
ByLayer
 62
  256
370
   -1
100
AcDbCircle
 10
-35.55999999999841
 20
53.34000000000023
 40
0.5
  0
CIRCLE
  5
B7
100
AcDbEntity
  8
universal_board
  6
ByLayer
 62
  256
370
   -1
100
AcDbCircle
 10
-38.0999999999982
 20
22.85999999999993
 40
0.5
  0
CIRCLE
  5
B8
100
AcDbEntity
  8
universal_board
  6
ByLayer
 62
  256
370
   -1
100
AcDbCircle
 10
-38.0999999999982
 20
25.39999999999992
 40
0.5
  0
CIRCLE
  5
B9
100
AcDbEntity
  8
universal_board
  6
ByLayer
 62
  256
370
   -1
100
AcDbCircle
 10
-38.09999999999821
 20
27.93999999999991
 40
0.5
  0
CIRCLE
  5
BA
100
AcDbEntity
  8
universal_board
  6
ByLayer
 62
  256
370
   -1
100
AcDbCircle
 10
-38.09999999999823
 20
30.47999999999992
 40
0.5
  0
CIRCLE
  5
BB
100
AcDbEntity
  8
universal_board
  6
ByLayer
 62
  256
370
   -1
100
AcDbCircle
 10
-38.09999999999823
 20
33.02000000000001
 40
0.5
  0
CIRCLE
  5
BC
100
AcDbEntity
  8
universal_board
  6
ByLayer
 62
  256
370
   -1
100
AcDbCircle
 10
-38.09999999999823
 20
35.56000000000002
 40
0.5
  0
CIRCLE
  5
BD
100
AcDbEntity
  8
universal_board
  6
ByLayer
 62
  256
370
   -1
100
AcDbCircle
 10
-38.09999999999825
 20
38.10000000000002
 40
0.5
  0
CIRCLE
  5
BE
100
AcDbEntity
  8
universal_board
  6
ByLayer
 62
  256
370
   -1
100
AcDbCircle
 10
-38.09999999999825
 20
40.64000000000001
 40
0.5
  0
CIRCLE
  5
BF
100
AcDbEntity
  8
universal_board
  6
ByLayer
 62
  256
370
   -1
100
AcDbCircle
 10
-38.09999999999825
 20
43.18000000000002
 40
0.5
  0
CIRCLE
  5
C0
100
AcDbEntity
  8
universal_board
  6
ByLayer
 62
  256
370
   -1
100
AcDbCircle
 10
-38.09999999999827
 20
45.72000000000011
 40
0.5
  0
CIRCLE
  5
C1
100
AcDbEntity
  8
universal_board
  6
ByLayer
 62
  256
370
   -1
100
AcDbCircle
 10
-38.09999999999827
 20
48.26000000000012
 40
0.5
  0
CIRCLE
  5
C2
100
AcDbEntity
  8
universal_board
  6
ByLayer
 62
  256
370
   -1
100
AcDbCircle
 10
-33.01999999999844
 20
22.85999999999993
 40
0.5
  0
CIRCLE
  5
C3
100
AcDbEntity
  8
universal_board
  6
ByLayer
 62
  256
370
   -1
100
AcDbCircle
 10
-33.01999999999844
 20
25.39999999999992
 40
0.5
  0
CIRCLE
  5
C4
100
AcDbEntity
  8
universal_board
  6
ByLayer
 62
  256
370
   -1
100
AcDbCircle
 10
-33.01999999999846
 20
27.94000000000001
 40
0.5
  0
CIRCLE
  5
C5
100
AcDbEntity
  8
universal_board
  6
ByLayer
 62
  256
370
   -1
100
AcDbCircle
 10
-33.01999999999847
 20
30.48000000000002
 40
0.5
  0
CIRCLE
  5
C6
100
AcDbEntity
  8
universal_board
  6
ByLayer
 62
  256
370
   -1
100
AcDbCircle
 10
-33.01999999999847
 20
33.02000000000001
 40
0.5
  0
CIRCLE
  5
C7
100
AcDbEntity
  8
universal_board
  6
ByLayer
 62
  256
370
   -1
100
AcDbCircle
 10
-33.01999999999847
 20
35.56000000000002
 40
0.5
  0
CIRCLE
  5
C8
100
AcDbEntity
  8
universal_board
  6
ByLayer
 62
  256
370
   -1
100
AcDbCircle
 10
-33.01999999999849
 20
38.10000000000002
 40
0.5
  0
CIRCLE
  5
C9
100
AcDbEntity
  8
universal_board
  6
ByLayer
 62
  256
370
   -1
100
AcDbCircle
 10
-33.0199999999985
 20
40.64000000000011
 40
0.5
  0
CIRCLE
  5
CA
100
AcDbEntity
  8
universal_board
  6
ByLayer
 62
  256
370
   -1
100
AcDbCircle
 10
-33.0199999999985
 20
43.18000000000012
 40
0.5
  0
CIRCLE
  5
CB
100
AcDbEntity
  8
universal_board
  6
ByLayer
 62
  256
370
   -1
100
AcDbCircle
 10
-33.01999999999851
 20
45.72000000000011
 40
0.5
  0
CIRCLE
  5
CC
100
AcDbEntity
  8
universal_board
  6
ByLayer
 62
  256
370
   -1
100
AcDbCircle
 10
-33.01999999999852
 20
48.26000000000012
 40
0.5
  0
CIRCLE
  5
CD
100
AcDbEntity
  8
universal_board
  6
ByLayer
 62
  256
370
   -1
100
AcDbCircle
 10
-33.01999999999852
 20
50.80000000000021
 40
0.5
  0
CIRCLE
  5
CE
100
AcDbEntity
  8
universal_board
  6
ByLayer
 62
  256
370
   -1
100
AcDbCircle
 10
-33.01999999999853
 20
53.34000000000023
 40
0.5
  0
CIRCLE
  5
CF
100
AcDbEntity
  8
universal_board
  6
ByLayer
 62
  256
370
   -1
100
AcDbCircle
 10
-30.47999999999855
 20
22.85999999999993
 40
0.5
  0
CIRCLE
  5
D0
100
AcDbEntity
  8
universal_board
  6
ByLayer
 62
  256
370
   -1
100
AcDbCircle
 10
-30.47999999999855
 20
25.39999999999992
 40
0.5
  0
CIRCLE
  5
D1
100
AcDbEntity
  8
universal_board
  6
ByLayer
 62
  256
370
   -1
100
AcDbCircle
 10
-30.47999999999857
 20
27.94000000000001
 40
0.5
  0
CIRCLE
  5
D2
100
AcDbEntity
  8
universal_board
  6
ByLayer
 62
  256
370
   -1
100
AcDbCircle
 10
-30.47999999999858
 20
30.48000000000002
 40
0.5
  0
CIRCLE
  5
D3
100
AcDbEntity
  8
universal_board
  6
ByLayer
 62
  256
370
   -1
100
AcDbCircle
 10
-30.47999999999858
 20
33.02000000000001
 40
0.5
  0
CIRCLE
  5
D4
100
AcDbEntity
  8
universal_board
  6
ByLayer
 62
  256
370
   -1
100
AcDbCircle
 10
-30.47999999999858
 20
35.56000000000002
 40
0.5
  0
CIRCLE
  5
D5
100
AcDbEntity
  8
universal_board
  6
ByLayer
 62
  256
370
   -1
100
AcDbCircle
 10
-30.4799999999986
 20
38.10000000000002
 40
0.5
  0
CIRCLE
  5
D6
100
AcDbEntity
  8
universal_board
  6
ByLayer
 62
  256
370
   -1
100
AcDbCircle
 10
-30.47999999999861
 20
40.64000000000011
 40
0.5
  0
CIRCLE
  5
D7
100
AcDbEntity
  8
universal_board
  6
ByLayer
 62
  256
370
   -1
100
AcDbCircle
 10
-30.47999999999861
 20
43.18000000000012
 40
0.5
  0
CIRCLE
  5
D8
100
AcDbEntity
  8
universal_board
  6
ByLayer
 62
  256
370
   -1
100
AcDbCircle
 10
-30.47999999999862
 20
45.72000000000011
 40
0.5
  0
CIRCLE
  5
D9
100
AcDbEntity
  8
universal_board
  6
ByLayer
 62
  256
370
   -1
100
AcDbCircle
 10
-30.47999999999863
 20
48.26000000000012
 40
0.5
  0
CIRCLE
  5
DA
100
AcDbEntity
  8
universal_board
  6
ByLayer
 62
  256
370
   -1
100
AcDbCircle
 10
-30.47999999999863
 20
50.80000000000021
 40
0.5
  0
CIRCLE
  5
DB
100
AcDbEntity
  8
universal_board
  6
ByLayer
 62
  256
370
   -1
100
AcDbCircle
 10
-30.47999999999864
 20
53.34000000000023
 40
0.5
  0
CIRCLE
  5
DC
100
AcDbEntity
  8
universal_board
  6
ByLayer
 62
  256
370
   -1
100
AcDbCircle
 10
-27.93999999999866
 20
22.85999999999993
 40
0.5
  0
CIRCLE
  5
DD
100
AcDbEntity
  8
universal_board
  6
ByLayer
 62
  256
370
   -1
100
AcDbCircle
 10
-27.93999999999866
 20
25.39999999999992
 40
0.5
  0
CIRCLE
  5
DE
100
AcDbEntity
  8
universal_board
  6
ByLayer
 62
  256
370
   -1
100
AcDbCircle
 10
-27.93999999999869
 20
27.94000000000001
 40
0.5
  0
CIRCLE
  5
DF
100
AcDbEntity
  8
universal_board
  6
ByLayer
 62
  256
370
   -1
100
AcDbCircle
 10
-27.9399999999987
 20
30.48000000000002
 40
0.5
  0
CIRCLE
  5
E0
100
AcDbEntity
  8
universal_board
  6
ByLayer
 62
  256
370
   -1
100
AcDbCircle
 10
-27.9399999999987
 20
33.02000000000001
 40
0.5
  0
CIRCLE
  5
E1
100
AcDbEntity
  8
universal_board
  6
ByLayer
 62
  256
370
   -1
100
AcDbCircle
 10
-27.9399999999987
 20
35.56000000000002
 40
0.5
  0
CIRCLE
  5
E2
100
AcDbEntity
  8
universal_board
  6
ByLayer
 62
  256
370
   -1
100
AcDbCircle
 10
-27.93999999999871
 20
38.10000000000002
 40
0.5
  0
CIRCLE
  5
E3
100
AcDbEntity
  8
universal_board
  6
ByLayer
 62
  256
370
   -1
100
AcDbCircle
 10
-27.93999999999873
 20
40.64000000000011
 40
0.5
  0
CIRCLE
  5
E4
100
AcDbEntity
  8
universal_board
  6
ByLayer
 62
  256
370
   -1
100
AcDbCircle
 10
-27.93999999999873
 20
43.18000000000012
 40
0.5
  0
CIRCLE
  5
E5
100
AcDbEntity
  8
universal_board
  6
ByLayer
 62
  256
370
   -1
100
AcDbCircle
 10
-27.93999999999874
 20
45.72000000000011
 40
0.5
  0
CIRCLE
  5
E6
100
AcDbEntity
  8
universal_board
  6
ByLayer
 62
  256
370
   -1
100
AcDbCircle
 10
-27.93999999999875
 20
48.26000000000012
 40
0.5
  0
CIRCLE
  5
E7
100
AcDbEntity
  8
universal_board
  6
ByLayer
 62
  256
370
   -1
100
AcDbCircle
 10
-27.93999999999875
 20
50.80000000000021
 40
0.5
  0
CIRCLE
  5
E8
100
AcDbEntity
  8
universal_board
  6
ByLayer
 62
  256
370
   -1
100
AcDbCircle
 10
-27.93999999999876
 20
53.34000000000023
 40
0.5
  0
CIRCLE
  5
E9
100
AcDbEntity
  8
universal_board
  6
ByLayer
 62
  256
370
   -1
100
AcDbCircle
 10
-25.39999999999878
 20
22.85999999999993
 40
0.5
  0
CIRCLE
  5
EA
100
AcDbEntity
  8
universal_board
  6
ByLayer
 62
  256
370
   -1
100
AcDbCircle
 10
-25.39999999999878
 20
25.39999999999992
 40
0.5
  0
CIRCLE
  5
EB
100
AcDbEntity
  8
universal_board
  6
ByLayer
 62
  256
370
   -1
100
AcDbCircle
 10
-25.39999999999881
 20
27.94000000000001
 40
0.5
  0
CIRCLE
  5
EC
100
AcDbEntity
  8
universal_board
  6
ByLayer
 62
  256
370
   -1
100
AcDbCircle
 10
-25.39999999999882
 20
30.48000000000002
 40
0.5
  0
CIRCLE
  5
ED
100
AcDbEntity
  8
universal_board
  6
ByLayer
 62
  256
370
   -1
100
AcDbCircle
 10
-25.39999999999882
 20
33.02000000000001
 40
0.5
  0
CIRCLE
  5
EE
100
AcDbEntity
  8
universal_board
  6
ByLayer
 62
  256
370
   -1
100
AcDbCircle
 10
-25.39999999999882
 20
35.56000000000002
 40
0.5
  0
CIRCLE
  5
EF
100
AcDbEntity
  8
universal_board
  6
ByLayer
 62
  256
370
   -1
100
AcDbCircle
 10
-25.39999999999883
 20
38.10000000000002
 40
0.5
  0
CIRCLE
  5
F0
100
AcDbEntity
  8
universal_board
  6
ByLayer
 62
  256
370
   -1
100
AcDbCircle
 10
-25.39999999999885
 20
40.64000000000011
 40
0.5
  0
CIRCLE
  5
F1
100
AcDbEntity
  8
universal_board
  6
ByLayer
 62
  256
370
   -1
100
AcDbCircle
 10
-25.39999999999885
 20
43.18000000000012
 40
0.5
  0
CIRCLE
  5
F2
100
AcDbEntity
  8
universal_board
  6
ByLayer
 62
  256
370
   -1
100
AcDbCircle
 10
-25.39999999999886
 20
45.72000000000011
 40
0.5
  0
CIRCLE
  5
F3
100
AcDbEntity
  8
universal_board
  6
ByLayer
 62
  256
370
   -1
100
AcDbCircle
 10
-25.39999999999887
 20
48.26000000000012
 40
0.5
  0
CIRCLE
  5
F4
100
AcDbEntity
  8
universal_board
  6
ByLayer
 62
  256
370
   -1
100
AcDbCircle
 10
-25.39999999999887
 20
50.80000000000021
 40
0.5
  0
CIRCLE
  5
F5
100
AcDbEntity
  8
universal_board
  6
ByLayer
 62
  256
370
   -1
100
AcDbCircle
 10
-25.39999999999888
 20
53.34000000000023
 40
0.5
  0
CIRCLE
  5
F6
100
AcDbEntity
  8
universal_board
  6
ByLayer
 62
  256
370
   -1
100
AcDbCircle
 10
-22.8599999999989
 20
22.85999999999993
 40
0.5
  0
CIRCLE
  5
F7
100
AcDbEntity
  8
universal_board
  6
ByLayer
 62
  256
370
   -1
100
AcDbCircle
 10
-22.8599999999989
 20
25.39999999999992
 40
0.5
  0
CIRCLE
  5
F8
100
AcDbEntity
  8
universal_board
  6
ByLayer
 62
  256
370
   -1
100
AcDbCircle
 10
-22.85999999999893
 20
27.94000000000001
 40
0.5
  0
CIRCLE
  5
F9
100
AcDbEntity
  8
universal_board
  6
ByLayer
 62
  256
370
   -1
100
AcDbCircle
 10
-22.85999999999894
 20
30.48000000000002
 40
0.5
  0
CIRCLE
  5
FA
100
AcDbEntity
  8
universal_board
  6
ByLayer
 62
  256
370
   -1
100
AcDbCircle
 10
-22.85999999999894
 20
33.02000000000001
 40
0.5
  0
CIRCLE
  5
FB
100
AcDbEntity
  8
universal_board
  6
ByLayer
 62
  256
370
   -1
100
AcDbCircle
 10
-22.85999999999894
 20
35.56000000000002
 40
0.5
  0
CIRCLE
  5
FC
100
AcDbEntity
  8
universal_board
  6
ByLayer
 62
  256
370
   -1
100
AcDbCircle
 10
-22.85999999999895
 20
38.10000000000002
 40
0.5
  0
CIRCLE
  5
FD
100
AcDbEntity
  8
universal_board
  6
ByLayer
 62
  256
370
   -1
100
AcDbCircle
 10
-22.85999999999896
 20
40.64000000000011
 40
0.5
  0
CIRCLE
  5
FE
100
AcDbEntity
  8
universal_board
  6
ByLayer
 62
  256
370
   -1
100
AcDbCircle
 10
-22.85999999999896
 20
43.18000000000012
 40
0.5
  0
CIRCLE
  5
FF
100
AcDbEntity
  8
universal_board
  6
ByLayer
 62
  256
370
   -1
100
AcDbCircle
 10
-22.85999999999898
 20
45.72000000000011
 40
0.5
  0
CIRCLE
  5
100
100
AcDbEntity
  8
universal_board
  6
ByLayer
 62
  256
370
   -1
100
AcDbCircle
 10
-22.85999999999899
 20
48.26000000000012
 40
0.5
  0
CIRCLE
  5
101
100
AcDbEntity
  8
universal_board
  6
ByLayer
 62
  256
370
   -1
100
AcDbCircle
 10
-22.85999999999899
 20
50.80000000000021
 40
0.5
  0
CIRCLE
  5
102
100
AcDbEntity
  8
universal_board
  6
ByLayer
 62
  256
370
   -1
100
AcDbCircle
 10
-22.859999999999
 20
53.34000000000023
 40
0.5
  0
LINE
  5
103
100
AcDbEntity
  8
3.3V line
  6
ByLayer
 62
  256
370
   -1
100
AcDbLine
 10
-25.39999999999888
 20
30.48000000000002
 11
-22.85999999999894
 21
30.48000000000002
  0
LINE
  5
104
100
AcDbEntity
  8
micon
  6
ByLayer
 62
  256
370
   -1
100
AcDbLine
 10
-28.57500000000021
 20
40.00500000000022
 11
-28.57500000000021
 21
20.9549999999999
  0
LINE
  5
105
100
AcDbEntity
  8
micon
  6
ByLayer
 62
  256
370
   -1
100
AcDbLine
 10
-34.9250000000004
 20
20.9549999999999
 11
-34.9250000000004
 21
40.00500000000022
  0
LINE
  5
106
100
AcDbEntity
  8
micon
  6
ByLayer
 62
  256
370
   -1
100
AcDbLine
 10
-35.5599999999984
 20
35.56000000000012
 11
-34.9250000000004
 21
35.56000000000012
  0
LINE
  5
107
100
AcDbEntity
  8
micon
  6
ByLayer
 62
  256
370
   -1
100
AcDbLine
 10
-35.5599999999984
 20
33.02000000000011
 11
-34.9250000000004
 21
33.02000000000011
  0
LINE
  5
108
100
AcDbEntity
  8
micon
  6
ByLayer
 62
  256
370
   -1
100
AcDbLine
 10
-35.5599999999984
 20
30.48000000000002
 11
-34.9250000000004
 21
30.48000000000002
  0
LINE
  5
109
100
AcDbEntity
  8
micon
  6
ByLayer
 62
  256
370
   -1
100
AcDbLine
 10
-35.5599999999984
 20
27.94000000000001
 11
-34.9250000000004
 21
27.94000000000001
  0
LINE
  5
10A
100
AcDbEntity
  8
micon
  6
ByLayer
 62
  256
370
   -1
100
AcDbLine
 10
-35.5599999999984
 20
25.40000000000002
 11
-34.9250000000004
 21
25.40000000000002
  0
LINE
  5
10B
100
AcDbEntity
  8
micon
  6
ByLayer
 62
  256
370
   -1
100
AcDbLine
 10
-35.5599999999984
 20
22.85999999999999
 11
-34.9250000000004
 21
22.85999999999999
  0
LINE
  5
10C
100
AcDbEntity
  8
micon
  6
ByLayer
 62
  256
370
   -1
100
AcDbLine
 10
-28.57500000000021
 20
22.85999999999999
 11
-27.93999999999876
 21
22.85999999999999
  0
LINE
  5
10D
100
AcDbEntity
  8
micon
  6
ByLayer
 62
  256
370
   -1
100
AcDbLine
 10
-28.57500000000021
 20
25.40000000000002
 11
-27.93999999999876
 21
25.40000000000002
  0
LINE
  5
10E
100
AcDbEntity
  8
micon
  6
ByLayer
 62
  256
370
   -1
100
AcDbLine
 10
-28.57500000000021
 20
27.94000000000001
 11
-27.93999999999876
 21
27.94000000000001
  0
LINE
  5
10F
100
AcDbEntity
  8
micon
  6
ByLayer
 62
  256
370
   -1
100
AcDbLine
 10
-28.57500000000021
 20
30.48000000000002
 11
-27.93999999999876
 21
30.48000000000002
  0
LINE
  5
110
100
AcDbEntity
  8
micon
  6
ByLayer
 62
  256
370
   -1
100
AcDbLine
 10
-28.57500000000021
 20
33.02000000000011
 11
-27.93999999999876
 21
33.02000000000011
  0
LINE
  5
111
100
AcDbEntity
  8
micon
  6
ByLayer
 62
  256
370
   -1
100
AcDbLine
 10
-28.57500000000021
 20
35.56000000000012
 11
-27.93999999999876
 21
35.56000000000012
  0
LINE
  5
112
100
AcDbEntity
  8
micon
  6
ByLayer
 62
  256
370
   -1
100
AcDbLine
 10
-28.57500000000021
 20
38.10000000000012
 11
-27.93999999999876
 21
38.10000000000012
  0
ARC
  5
113
100
AcDbEntity
  8
micon
  6
ByLayer
 62
  256
370
   -1
100
AcDbCircle
 10
-31.7500000000003
 20
40.00500000000022
 40
1.27
100
AcDbArc
 50
179.9999999999987
 51
0
  0
LINE
  5
114
100
AcDbEntity
  8
socket_header
  6
ByLayer
 62
  256
370
   -1
100
AcDbLine
 10
-36.82999999999961
 20
39.36999999999942
 11
-36.82999999999961
 21
21.58999999999929
  0
LINE
  5
115
100
AcDbEntity
  8
socket_header
  6
ByLayer
 62
  256
370
   -1
100
AcDbLine
 10
-26.67000000000009
 20
39.36999999999942
 11
-36.82999999999961
 21
39.36999999999942
  0
LINE
  5
116
100
AcDbEntity
  8
socket_header
  6
ByLayer
 62
  256
370
   -1
100
AcDbLine
 10
-34.28999999999974
 20
39.36999999999942
 11
-34.28999999999974
 21
21.58999999999929
  0
LINE
  5
117
100
AcDbEntity
  8
socket_header
  6
ByLayer
 62
  256
370
   -1
100
AcDbLine
 10
-34.28999999999974
 20
36.82999999999932
 11
-36.82999999999961
 21
36.82999999999932
  0
LINE
  5
118
100
AcDbEntity
  8
socket_header
  6
ByLayer
 62
  256
370
   -1
100
AcDbLine
 10
-34.28999999999974
 20
34.28999999999942
 11
-36.82999999999961
 21
34.28999999999942
  0
LINE
  5
119
100
AcDbEntity
  8
socket_header
  6
ByLayer
 62
  256
370
   -1
100
AcDbLine
 10
-34.28999999999974
 20
31.74999999999942
 11
-36.82999999999961
 21
31.74999999999942
  0
LINE
  5
11A
100
AcDbEntity
  8
socket_header
  6
ByLayer
 62
  256
370
   -1
100
AcDbLine
 10
-34.28999999999974
 20
29.20999999999941
 11
-36.82999999999961
 21
29.20999999999941
  0
LINE
  5
11B
100
AcDbEntity
  8
socket_header
  6
ByLayer
 62
  256
370
   -1
100
AcDbLine
 10
-34.28999999999974
 20
26.66999999999932
 11
-36.82999999999961
 21
26.66999999999932
  0
LINE
  5
11C
100
AcDbEntity
  8
socket_header
  6
ByLayer
 62
  256
370
   -1
100
AcDbLine
 10
-34.28999999999974
 20
24.12999999999931
 11
-36.82999999999961
 21
24.12999999999931
  0
LINE
  5
11D
100
AcDbEntity
  8
socket_header
  6
ByLayer
 62
  256
370
   -1
100
AcDbLine
 10
-26.67000000000009
 20
36.82999999999932
 11
-29.20999999999998
 21
36.82999999999932
  0
LINE
  5
11E
100
AcDbEntity
  8
socket_header
  6
ByLayer
 62
  256
370
   -1
100
AcDbLine
 10
-26.67000000000009
 20
34.28999999999942
 11
-29.20999999999998
 21
34.28999999999942
  0
LINE
  5
11F
100
AcDbEntity
  8
socket_header
  6
ByLayer
 62
  256
370
   -1
100
AcDbLine
 10
-26.67000000000009
 20
31.74999999999942
 11
-29.20999999999998
 21
31.74999999999942
  0
LINE
  5
120
100
AcDbEntity
  8
socket_header
  6
ByLayer
 62
  256
370
   -1
100
AcDbLine
 10
-26.67000000000009
 20
29.20999999999941
 11
-29.20999999999998
 21
29.20999999999941
  0
LINE
  5
121
100
AcDbEntity
  8
socket_header
  6
ByLayer
 62
  256
370
   -1
100
AcDbLine
 10
-26.67000000000009
 20
26.66999999999932
 11
-29.20999999999998
 21
26.66999999999932
  0
LINE
  5
122
100
AcDbEntity
  8
socket_header
  6
ByLayer
 62
  256
370
   -1
100
AcDbLine
 10
-26.67000000000009
 20
24.12999999999931
 11
-29.20999999999998
 21
24.12999999999931
  0
LINE
  5
123
100
AcDbEntity
  8
micon
  6
ByLayer
 62
  256
370
   -1
100
AcDbLine
 10
-34.9250000000004
 20
40.00500000000022
 11
-28.57500000000021
 21
40.00500000000022
  0
LINE
  5
124
100
AcDbEntity
  8
socket_header
  6
ByLayer
 62
  256
370
   -1
100
AcDbLine
 10
-29.20999999999996
 20
24.12999999999931
 11
-29.20999999999996
 21
39.36999999999942
  0
LINE
  5
125
100
AcDbEntity
  8
socket_header
  6
ByLayer
 62
  256
370
   -1
100
AcDbLine
 10
-29.20999999999998
 20
24.12999999999931
 11
-29.20999999999998
 21
21.58999999999929
  0
LINE
  5
126
100
AcDbEntity
  8
socket_header
  6
ByLayer
 62
  256
370
   -1
100
AcDbLine
 10
-36.82999999999961
 20
21.58999999999929
 11
-29.20999999999998
 21
21.58999999999929
  0
LINE
  5
127
100
AcDbEntity
  8
socket_header
  6
ByLayer
 62
  256
370
   -1
100
AcDbLine
 10
-29.20999999999998
 20
21.58999999999929
 11
-26.67000000000009
 21
21.58999999999929
  0
LINE
  5
128
100
AcDbEntity
  8
socket_header
  6
ByLayer
 62
  256
370
   -1
100
AcDbLine
 10
-36.82999999999967
 20
39.36999999999942
 11
-36.82999999999967
 21
36.82999999999942
  0
LINE
  5
129
100
AcDbEntity
  8
socket_header
  6
ByLayer
 62
  256
370
   -1
100
AcDbLine
 10
-36.82999999999965
 20
36.82999999999942
 11
-36.82999999999965
 21
34.28999999999942
  0
LINE
  5
12A
100
AcDbEntity
  8
socket_header
  6
ByLayer
 62
  256
370
   -1
100
AcDbLine
 10
-36.82999999999965
 20
31.74999999999942
 11
-36.82999999999965
 21
29.20999999999931
  0
LINE
  5
12B
100
AcDbEntity
  8
micon
  6
ByLayer
 62
  256
370
   -1
100
AcDbLine
 10
-34.92499999999692
 20
20.95499999999987
 11
-28.57499999999692
 21
20.95499999999987
  0
LINE
  5
12C
100
AcDbEntity
  8
0_wire
  6
ByLayer
 62
  256
370
   -1
100
AcDbLine
 10
-30.47999999999858
 20
33.02000000000001
 11
-27.9399999999987
 21
33.02000000000001
  0
LINE
  5
12D
100
AcDbEntity
  8
0_GND
  6
ByLayer
 62
  256
370
   -1
100
AcDbLine
 10
-30.47999999999866
 20
50.80000000000021
 11
-35.55999999999842
 21
50.80000000000021
  0
LINE
  5
12E
100
AcDbEntity
  8
0_GND
  6
ByLayer
 62
  256
370
   -1
100
AcDbLine
 10
-30.47999999999866
 20
50.80000000000021
 11
-30.47999999999866
 21
53.34000000000023
  0
LINE
  5
12F
100
AcDbEntity
  8
0_GND
  6
ByLayer
 62
  256
370
   -1
100
AcDbLine
 10
-35.55999999999842
 20
53.34000000000023
 11
-35.55999999999841
 21
50.80000000000011
  0
LINE
  5
130
100
AcDbEntity
  8
0_GND
  6
ByLayer
 62
  256
370
   -1
100
AcDbLine
 10
-35.55999999999841
 20
50.80000000000011
 11
-35.5599999999984
 21
48.26000000000012
  0
LINE
  5
131
100
AcDbEntity
  8
0_GND
  6
ByLayer
 62
  256
370
   -1
100
AcDbLine
 10
-35.55999999999842
 20
53.34000000000023
 11
-38.09999999999829
 21
53.34000000000012
  0
CIRCLE
  5
132
100
AcDbEntity
  8
terminal
  6
ByLayer
 62
  256
370
   -1
100
AcDbCircle
 10
-32.99999999999996
 20
46.25999999999942
 40
0.46
  0
CIRCLE
  5
133
100
AcDbEntity
  8
terminal
  6
ByLayer
 62
  256
370
   -1
100
AcDbCircle
 10
-30.49999999999789
 20
46.25999989222521
 40
0.46
  0
CIRCLE
  5
134
100
AcDbEntity
  8
terminal
  6
ByLayer
 62
  256
370
   -1
100
AcDbCircle
 10
-32.99999999999996
 20
48.26000000000022
 40
0.46
  0
CIRCLE
  5
135
100
AcDbEntity
  8
terminal
  6
ByLayer
 62
  256
370
   -1
100
AcDbCircle
 10
-30.49999999999789
 20
48.25999989222602
 40
0.46
  0
CIRCLE
  5
136
100
AcDbEntity
  8
terminal
  6
ByLayer
 62
  256
370
   -1
100
AcDbCircle
 10
-37.76999999999851
 20
50.96000000000022
 40
1.15
  0
CIRCLE
  5
137
100
AcDbEntity
  8
terminal
  6
ByLayer
 62
  256
370
   -1
100
AcDbCircle
 10
-25.72999999999936
 20
50.96000000000022
 40
1.15
  0
LINE
  5
138
100
AcDbEntity
  8
terminal
  6
ByLayer
 62
  256
370
   -1
100
AcDbLine
 10
-37.76999847013423
 20
61.24000000000021
 11
-37.76999847013423
 21
45.24000000000022
  0
LINE
  5
139
100
AcDbEntity
  8
terminal
  6
ByLayer
 62
  256
370
   -1
100
AcDbLine
 10
-37.76999847013423
 20
45.24000000000022
 11
-25.7299984701347
 21
45.24000000000022
  0
LINE
  5
13A
100
AcDbEntity
  8
terminal
  6
ByLayer
 62
  256
370
   -1
100
AcDbLine
 10
-25.7299984701347
 20
45.24000000000022
 11
-25.7299984701347
 21
61.24000000000021
  0
LINE
  5
13B
100
AcDbEntity
  8
terminal
  6
ByLayer
 62
  256
370
   -1
100
AcDbLine
 10
-25.7299984701347
 20
61.24000000000021
 11
-37.76999847013423
 21
61.24000000000021
  0
MTEXT
  5
13C
100
AcDbEntity
  8
terminal
  6
ByLayer
 62
  256
370
   -1
100
AcDbMText
 10
-35.86970149042295
 20
47.44269571563362
 30
0
 40
1
 41
2.333333333333519
 71
    5
 72
    1
  1
GND\PV
  7
iso
210
0
220
0
230
1
 50
0
 73
    2
 44
1.54
  0
MTEXT
  5
13D
100
AcDbEntity
  8
terminal
  6
ByLayer
 62
  256
370
   -1
100
AcDbMText
 10
-27.67852613550183
 20
47.59108657351261
 30
0
 40
1
 41
1.333333333333395
 71
    5
 72
    1
  1
D+\PD-
  7
iso
210
0
220
0
230
1
 50
0
 73
    2
 44
1.54
  0
LINE
  5
13E
100
AcDbEntity
  8
0_wire
  6
ByLayer
 62
  256
370
   -1
100
AcDbLine
 10
-30.47999999999865
 20
48.26000000000012
 11
-27.93999999999876
 21
48.26000000000012
  0
LINE
  5
13F
100
AcDbEntity
  8
0_GND
  6
ByLayer
 62
  256
370
   -1
100
AcDbLine
 10
-30.47999999999866
 20
53.34000000000023
 11
-25.39999999999888
 21
53.34000000000023
  0
LINE
  5
140
100
AcDbEntity
  8
0_GND
  6
ByLayer
 62
  256
370
   -1
100
AcDbLine
 10
-33.01999999999854
 20
50.80000000000011
 11
-33.01999999999853
 21
48.26000000000012
  0
MTEXT
  5
141
100
AcDbEntity
  8
terminal
  6
ByLayer
 62
  256
370
   -1
100
AcDbMText
 10
-30.99216512717765
 20
60.11629296327732
 30
0
 40
1
 41
0.8888888888889508
 71
    5
 72
    1
  1
J1
  7
iso
210
0
220
0
230
1
 50
0
 73
    2
 44
1.54
  0
LINE
  5
142
100
AcDbEntity
  8
0_GND
  6
ByLayer
 62
  256
370
   -1
100
AcDbLine
 10
-30.47999999999866
 20
53.34000000000023
 11
-35.55999999999841
 21
53.34000000000012
  0
LINE
  5
143
100
AcDbEntity
  8
0_GND
  6
ByLayer
 62
  256
370
   -1
100
AcDbLine
 10
-38.09999999999827
 20
45.72000000000011
 11
-38.09999999999828
 21
48.26000000000012
  0
LINE
  5
144
100
AcDbEntity
  8
0_GND
  6
ByLayer
 62
  256
370
   -1
100
AcDbLine
 10
-30.47999999999866
 20
50.80000000000021
 11
-27.93999999999877
 21
50.80000000000021
  0
LINE
  5
145
100
AcDbEntity
  8
0_GND
  6
ByLayer
 62
  256
370
   -1
100
AcDbLine
 10
-25.39999999999888
 20
53.34000000000023
 11
-22.859999999999
 21
53.34000000000023
  0
LINE
  5
146
100
AcDbEntity
  8
0_GND
  6
ByLayer
 62
  256
370
   -1
100
AcDbLine
 10
-22.859999999999
 20
53.34000000000023
 11
-22.85999999999899
 21
48.26000000000012
  0
LINE
  5
147
100
AcDbEntity
  8
5V line
  6
ByLayer
 62
  256
370
   -1
100
AcDbLine
 10
-35.55999999999838
 20
43.18000000000012
 11
-35.55999999999837
 21
38.10000000000002
  0
LINE
  5
148
100
AcDbEntity
  8
5V line
  6
ByLayer
 62
  256
370
   -1
100
AcDbLine
 10
-35.55999999999837
 20
38.10000000000002
 11
-38.09999999999825
 21
38.10000000000002
  0
LINE
  5
149
100
AcDbEntity
  8
0_wire
  6
ByLayer
 62
  256
370
   -1
100
AcDbLine
 10
-30.47999999999863
 20
45.72000000000011
 11
-30.47999999999862
 21
43.18000000000012
  0
LINE
  5
14A
100
AcDbEntity
  8
0_wire
  6
ByLayer
 62
  256
370
   -1
100
AcDbLine
 10
-27.93999999999875
 20
48.26000000000012
 11
-27.93999999999873
 21
40.64000000000011
  0
LINE
  5
14B
100
AcDbEntity
  8
0_wire
  6
ByLayer
 62
  256
370
   -1
100
AcDbLine
 10
-27.93999999999873
 20
40.64000000000011
 11
-30.47999999999861
 21
40.64000000000011
  0
LINE
  5
14C
100
AcDbEntity
  8
0_wire
  6
ByLayer
 62
  256
370
   -1
100
AcDbLine
 10
-30.47999999999858
 20
35.56000000000002
 11
-27.9399999999987
 21
35.56000000000002
  0
LINE
  5
14D
100
AcDbEntity
  8
0_GND
  6
ByLayer
 62
  256
370
   -1
100
AcDbLine
 10
-22.85999999999899
 20
48.26000000000012
 11
-25.39999999999887
 21
48.26000000000012
  0
LINE
  5
14E
100
AcDbEntity
  8
0_GND
  6
ByLayer
 62
  256
370
   -1
100
AcDbLine
 10
-25.39999999999887
 20
48.26000000000012
 11
-25.39999999999883
 21
38.10000000000002
  0
LINE
  5
14F
100
AcDbEntity
  8
0_GND
  6
ByLayer
 62
  256
370
   -1
100
AcDbLine
 10
-25.39999999999883
 20
38.10000000000002
 11
-27.93999999999871
 21
38.10000000000002
  0
LINE
  5
150
100
AcDbEntity
  8
3.3V line
  6
ByLayer
 62
  256
370
   -1
100
AcDbLine
 10
-27.9399999999987
 20
30.48000000000002
 11
-25.39999999999882
 21
30.48000000000002
  0
LINE
  5
151
100
AcDbEntity
  8
socket_header
  6
ByLayer
 62
  256
370
   -1
100
AcDbLine
 10
-36.82999999999968
 20
39.36999999999942
 11
-36.82999999999968
 21
36.82999999999942
  0
LINE
  5
152
100
AcDbEntity
  8
socket_header
  6
ByLayer
 62
  256
370
   -1
100
AcDbLine
 10
-39.36999999999956
 20
39.36999999999942
 11
-39.36999999999956
 21
36.82999999999942
  0
LINE
  5
153
100
AcDbEntity
  8
socket_header
  6
ByLayer
 62
  256
370
   -1
100
AcDbLine
 10
-39.36999999999956
 20
36.82999999999942
 11
-36.82999999999968
 21
36.82999999999942
  0
LINE
  5
154
100
AcDbEntity
  8
socket_header
  6
ByLayer
 62
  256
370
   -1
100
AcDbLine
 10
-39.36999999999958
 20
39.36999999999942
 11
-36.82999999999969
 21
39.36999999999942
  0
LINE
  5
155
100
AcDbEntity
  8
socket_header
  6
ByLayer
 62
  256
370
   -1
100
AcDbLine
 10
-36.82999999999967
 20
36.82999999999942
 11
-36.82999999999967
 21
34.28999999999931
  0
LINE
  5
156
100
AcDbEntity
  8
socket_header
  6
ByLayer
 62
  256
370
   -1
100
AcDbLine
 10
-39.36999999999956
 20
36.82999999999942
 11
-39.36999999999956
 21
34.28999999999931
  0
LINE
  5
157
100
AcDbEntity
  8
socket_header
  6
ByLayer
 62
  256
370
   -1
100
AcDbLine
 10
-39.36999999999956
 20
34.28999999999931
 11
-36.82999999999967
 21
34.28999999999931
  0
LINE
  5
158
100
AcDbEntity
  8
socket_header
  6
ByLayer
 62
  256
370
   -1
100
AcDbLine
 10
-39.36999999999956
 20
36.82999999999932
 11
-36.82999999999968
 21
36.82999999999932
  0
LINE
  5
159
100
AcDbEntity
  8
socket_header
  6
ByLayer
 62
  256
370
   -1
100
AcDbLine
 10
-36.82999999999965
 20
29.20999999999931
 11
-36.82999999999965
 21
26.66999999999932
  0
LINE
  5
15A
100
AcDbEntity
  8
socket_header
  6
ByLayer
 62
  256
370
   -1
100
AcDbLine
 10
-39.36999999999954
 20
29.20999999999931
 11
-39.36999999999954
 21
26.66999999999932
  0
LINE
  5
15B
100
AcDbEntity
  8
socket_header
  6
ByLayer
 62
  256
370
   -1
100
AcDbLine
 10
-39.36999999999954
 20
26.66999999999932
 11
-36.82999999999965
 21
26.66999999999932
  0
LINE
  5
15C
100
AcDbEntity
  8
socket_header
  6
ByLayer
 62
  256
370
   -1
100
AcDbLine
 10
-39.36999999999955
 20
29.20999999999931
 11
-36.82999999999966
 21
29.20999999999931
  0
LINE
  5
15D
100
AcDbEntity
  8
socket_header
  6
ByLayer
 62
  256
370
   -1
100
AcDbLine
 10
-36.82999999999964
 20
26.66999999999932
 11
-36.82999999999964
 21
24.12999999999931
  0
LINE
  5
15E
100
AcDbEntity
  8
socket_header
  6
ByLayer
 62
  256
370
   -1
100
AcDbLine
 10
-39.36999999999952
 20
26.66999999999932
 11
-39.36999999999952
 21
24.12999999999931
  0
LINE
  5
15F
100
AcDbEntity
  8
socket_header
  6
ByLayer
 62
  256
370
   -1
100
AcDbLine
 10
-39.36999999999952
 20
24.12999999999931
 11
-36.82999999999964
 21
24.12999999999931
  0
LINE
  5
160
100
AcDbEntity
  8
socket_header
  6
ByLayer
 62
  256
370
   -1
100
AcDbLine
 10
-39.36999999999954
 20
26.66999999999932
 11
-36.82999999999965
 21
26.66999999999932
  0
LINE
  5
161
100
AcDbEntity
  8
socket_header
  6
ByLayer
 62
  256
370
   -1
100
AcDbLine
 10
-36.82999999999963
 20
24.12999999999931
 11
-36.82999999999963
 21
21.58999999999926
  0
LINE
  5
162
100
AcDbEntity
  8
socket_header
  6
ByLayer
 62
  256
370
   -1
100
AcDbLine
 10
-39.36999999999951
 20
24.12999999999931
 11
-39.36999999999951
 21
21.58999999999926
  0
LINE
  5
163
100
AcDbEntity
  8
socket_header
  6
ByLayer
 62
  256
370
   -1
100
AcDbLine
 10
-39.36999999999951
 20
21.58999999999926
 11
-36.82999999999963
 21
21.58999999999926
  0
LINE
  5
164
100
AcDbEntity
  8
socket_header
  6
ByLayer
 62
  256
370
   -1
100
AcDbLine
 10
-39.36999999999952
 20
24.12999999999921
 11
-36.82999999999964
 21
24.12999999999921
  0
LINE
  5
165
100
AcDbEntity
  8
socket_header
  6
ByLayer
 62
  256
370
   -1
100
AcDbLine
 10
-36.82999999999966
 20
34.28999999999931
 11
-36.82999999999966
 21
31.74999999999932
  0
LINE
  5
166
100
AcDbEntity
  8
socket_header
  6
ByLayer
 62
  256
370
   -1
100
AcDbLine
 10
-39.36999999999955
 20
34.28999999999931
 11
-39.36999999999955
 21
31.74999999999932
  0
LINE
  5
167
100
AcDbEntity
  8
socket_header
  6
ByLayer
 62
  256
370
   -1
100
AcDbLine
 10
-39.36999999999955
 20
31.74999999999932
 11
-36.82999999999966
 21
31.74999999999932
  0
LINE
  5
168
100
AcDbEntity
  8
socket_header
  6
ByLayer
 62
  256
370
   -1
100
AcDbLine
 10
-39.36999999999956
 20
34.28999999999931
 11
-36.82999999999967
 21
34.28999999999931
  0
LINE
  5
169
100
AcDbEntity
  8
socket_header
  6
ByLayer
 62
  256
370
   -1
100
AcDbLine
 10
-36.82999999999966
 20
31.74999999999932
 11
-36.82999999999966
 21
29.20999999999931
  0
LINE
  5
16A
100
AcDbEntity
  8
socket_header
  6
ByLayer
 62
  256
370
   -1
100
AcDbLine
 10
-39.36999999999954
 20
31.74999999999932
 11
-39.36999999999954
 21
29.20999999999931
  0
LINE
  5
16B
100
AcDbEntity
  8
socket_header
  6
ByLayer
 62
  256
370
   -1
100
AcDbLine
 10
-39.36999999999954
 20
29.20999999999931
 11
-36.82999999999966
 21
29.20999999999931
  0
LINE
  5
16C
100
AcDbEntity
  8
socket_header
  6
ByLayer
 62
  256
370
   -1
100
AcDbLine
 10
-39.36999999999955
 20
31.74999999999932
 11
-36.82999999999966
 21
31.74999999999932
  0
LINE
  5
16D
100
AcDbEntity
  8
socket_header
  6
ByLayer
 62
  256
370
   -1
100
AcDbLine
 10
-24.13000000000021
 20
26.66999999999932
 11
-24.13000000000021
 21
24.12999999999931
  0
LINE
  5
16E
100
AcDbEntity
  8
socket_header
  6
ByLayer
 62
  256
370
   -1
100
AcDbLine
 10
-24.13000000000023
 20
29.20999999999931
 11
-24.13000000000023
 21
26.66999999999932
  0
LINE
  5
16F
100
AcDbEntity
  8
socket_header
  6
ByLayer
 62
  256
370
   -1
100
AcDbLine
 10
-24.13000000000025
 20
31.74999999999932
 11
-24.13000000000025
 21
29.20999999999931
  0
LINE
  5
170
100
AcDbEntity
  8
socket_header
  6
ByLayer
 62
  256
370
   -1
100
AcDbLine
 10
-24.13000000000025
 20
39.36999999999942
 11
-24.13000000000025
 21
36.82999999999942
  0
LINE
  5
171
100
AcDbEntity
  8
socket_header
  6
ByLayer
 62
  256
370
   -1
100
AcDbLine
 10
-24.13000000000021
 20
24.12999999999931
 11
-24.13000000000021
 21
21.58999999999926
  0
LINE
  5
172
100
AcDbEntity
  8
socket_header
  6
ByLayer
 62
  256
370
   -1
100
AcDbLine
 10
-21.59000000000033
 20
26.66999999999932
 11
-24.13000000000021
 21
26.66999999999932
  0
LINE
  5
173
100
AcDbEntity
  8
socket_header
  6
ByLayer
 62
  256
370
   -1
100
AcDbLine
 10
-21.59000000000033
 20
26.66999999999932
 11
-21.59000000000033
 21
24.12999999999931
  0
LINE
  5
174
100
AcDbEntity
  8
socket_header
  6
ByLayer
 62
  256
370
   -1
100
AcDbLine
 10
-24.13000000000021
 20
24.12999999999931
 11
-21.59000000000033
 21
24.12999999999931
  0
LINE
  5
175
100
AcDbEntity
  8
socket_header
  6
ByLayer
 62
  256
370
   -1
100
AcDbLine
 10
-21.59000000000035
 20
29.20999999999931
 11
-24.13000000000023
 21
29.20999999999931
  0
LINE
  5
176
100
AcDbEntity
  8
socket_header
  6
ByLayer
 62
  256
370
   -1
100
AcDbLine
 10
-21.59000000000035
 20
29.20999999999931
 11
-21.59000000000035
 21
26.66999999999932
  0
LINE
  5
177
100
AcDbEntity
  8
socket_header
  6
ByLayer
 62
  256
370
   -1
100
AcDbLine
 10
-24.13000000000023
 20
26.66999999999932
 11
-21.59000000000035
 21
26.66999999999932
  0
LINE
  5
178
100
AcDbEntity
  8
socket_header
  6
ByLayer
 62
  256
370
   -1
100
AcDbLine
 10
-21.59000000000037
 20
31.74999999999932
 11
-24.13000000000025
 21
31.74999999999932
  0
LINE
  5
179
100
AcDbEntity
  8
socket_header
  6
ByLayer
 62
  256
370
   -1
100
AcDbLine
 10
-21.59000000000037
 20
31.74999999999932
 11
-21.59000000000037
 21
29.20999999999931
  0
LINE
  5
17A
100
AcDbEntity
  8
socket_header
  6
ByLayer
 62
  256
370
   -1
100
AcDbLine
 10
-24.13000000000025
 20
29.20999999999931
 11
-21.59000000000037
 21
29.20999999999931
  0
LINE
  5
17B
100
AcDbEntity
  8
socket_header
  6
ByLayer
 62
  256
370
   -1
100
AcDbLine
 10
-21.59000000000037
 20
34.28999999999942
 11
-21.59000000000037
 21
31.74999999999942
  0
LINE
  5
17C
100
AcDbEntity
  8
socket_header
  6
ByLayer
 62
  256
370
   -1
100
AcDbLine
 10
-24.13000000000025
 20
31.74999999999942
 11
-21.59000000000037
 21
31.74999999999942
  0
LINE
  5
17D
100
AcDbEntity
  8
socket_header
  6
ByLayer
 62
  256
370
   -1
100
AcDbLine
 10
-24.13000000000025
 20
34.28999999999942
 11
-21.59000000000037
 21
34.28999999999942
  0
LINE
  5
17E
100
AcDbEntity
  8
socket_header
  6
ByLayer
 62
  256
370
   -1
100
AcDbLine
 10
-21.59000000000037
 20
36.82999999999942
 11
-21.59000000000037
 21
34.28999999999942
  0
LINE
  5
17F
100
AcDbEntity
  8
socket_header
  6
ByLayer
 62
  256
370
   -1
100
AcDbLine
 10
-24.13000000000025
 20
36.82999999999942
 11
-24.13000000000025
 21
34.28999999999942
  0
LINE
  5
180
100
AcDbEntity
  8
socket_header
  6
ByLayer
 62
  256
370
   -1
100
AcDbLine
 10
-24.13000000000025
 20
34.28999999999942
 11
-21.59000000000037
 21
34.28999999999942
  0
LINE
  5
181
100
AcDbEntity
  8
socket_header
  6
ByLayer
 62
  256
370
   -1
100
AcDbLine
 10
-24.13000000000025
 20
36.82999999999942
 11
-21.59000000000037
 21
36.82999999999942
  0
LINE
  5
182
100
AcDbEntity
  8
socket_header
  6
ByLayer
 62
  256
370
   -1
100
AcDbLine
 10
-21.59000000000037
 20
39.36999999999942
 11
-21.59000000000037
 21
36.82999999999942
  0
LINE
  5
183
100
AcDbEntity
  8
socket_header
  6
ByLayer
 62
  256
370
   -1
100
AcDbLine
 10
-24.13000000000025
 20
36.82999999999942
 11
-21.59000000000037
 21
36.82999999999942
  0
LINE
  5
184
100
AcDbEntity
  8
socket_header
  6
ByLayer
 62
  256
370
   -1
100
AcDbLine
 10
-24.13000000000025
 20
39.36999999999942
 11
-21.59000000000037
 21
39.36999999999942
  0
LINE
  5
185
100
AcDbEntity
  8
socket_header
  6
ByLayer
 62
  256
370
   -1
100
AcDbLine
 10
-21.59000000000033
 20
24.12999999999931
 11
-21.59000000000033
 21
21.58999999999926
  0
LINE
  5
186
100
AcDbEntity
  8
socket_header
  6
ByLayer
 62
  256
370
   -1
100
AcDbLine
 10
-24.13000000000021
 20
21.58999999999926
 11
-21.59000000000033
 21
21.58999999999926
  0
LINE
  5
187
100
AcDbEntity
  8
socket_header
  6
ByLayer
 62
  256
370
   -1
100
AcDbLine
 10
-24.13000000000023
 20
24.12999999999931
 11
-21.59000000000035
 21
24.12999999999931
  0
LINE
  5
188
100
AcDbEntity
  8
socket_header
  6
ByLayer
 62
  256
370
   -1
100
AcDbLine
 10
-26.67000000000009
 20
24.12999999999931
 11
-26.67000000000009
 21
39.36999999999942
  0
LINE
  5
189
100
AcDbEntity
  8
socket_header
  6
ByLayer
 62
  256
370
   -1
100
AcDbLine
 10
-26.67000000000009
 20
24.12999999999931
 11
-26.67000000000009
 21
21.58999999999929
  0
LINE
  5
18A
100
AcDbEntity
  8
socket_header
  6
ByLayer
 62
  256
370
   -1
100
AcDbLine
 10
-24.13000000000025
 20
34.28999999999942
 11
-24.13000000000025
 21
31.74999999999942
  0
LINE
  5
18B
100
AcDbEntity
  8
condenser
  6
ByLayer
 62
  256
370
   -1
100
AcDbLine
 10
-38.57999999999902
 20
41.54000000000002
 11
-38.57999999999902
 21
39.73999999999921
  0
LINE
  5
18C
100
AcDbEntity
  8
condenser
  6
ByLayer
 62
  256
370
   -1
100
AcDbLine
 10
-38.57999999999902
 20
39.73999999999921
 11
-35.07999999999851
 21
39.73999999999921
  0
LINE
  5
18D
100
AcDbEntity
  8
condenser
  6
ByLayer
 62
  256
370
   -1
100
AcDbLine
 10
-35.07999999999851
 20
39.73999999999921
 11
-35.07999999999851
 21
41.54000000000002
  0
LINE
  5
18E
100
AcDbEntity
  8
condenser
  6
ByLayer
 62
  256
370
   -1
100
AcDbLine
 10
-35.07999999999851
 20
41.54000000000002
 11
-38.57999999999902
 21
41.54000000000002
  0
LINE
  5
18F
100
AcDbEntity
  8
condenser
  6
ByLayer
 62
  256
370
   -1
100
AcDbLine
 10
-35.55999999999869
 20
40.63999999999992
 11
-35.07999999999851
 21
40.63999999999992
  0
LINE
  5
190
100
AcDbEntity
  8
condenser
  6
ByLayer
 62
  256
370
   -1
100
AcDbLine
 10
-38.57999999999902
 20
40.63999999999992
 11
-38.09999999999852
 21
40.63999999999992
  0
LINE
  5
191
100
AcDbEntity
  8
0_GND
  6
ByLayer
 62
  256
370
   -1
100
AcDbLine
 10
-25.39999999999883
 20
38.10000000000002
 11
-22.85999999999895
 21
38.10000000000002
  0
LINE
  5
192
100
AcDbEntity
  8
0_wire
  6
ByLayer
 62
  256
370
   -1
100
AcDbLine
 10
-27.93999999999869
 20
27.94000000000001
 11
-22.85999999999893
 21
27.94000000000001
  0
LINE
  5
193
100
AcDbEntity
  8
0_wire
  6
ByLayer
 62
  256
370
   -1
100
AcDbLine
 10
-27.93999999999869
 20
25.40000000000002
 11
-22.85999999999892
 21
25.40000000000002
  0
LINE
  5
194
100
AcDbEntity
  8
0_GND
  6
ByLayer
 62
  256
370
   -1
100
AcDbLine
 10
-38.09999999999827
 20
45.72000000000011
 11
-38.09999999999825
 21
40.64000000000001
  0
LINE
  5
195
100
AcDbEntity
  8
0_GND
  6
ByLayer
 62
  256
370
   -1
100
AcDbLine
 10
-35.5599999999984
 20
48.26000000000012
 11
-38.09999999999827
 21
48.26000000000012
  0
LINE
  5
196
100
AcDbEntity
  8
5V line
  6
ByLayer
 62
  256
370
   -1
100
AcDbLine
 10
-33.01999999999851
 20
45.72000000000011
 11
-35.5599999999984
 21
45.72000000000011
  0
LINE
  5
197
100
AcDbEntity
  8
5V line
  6
ByLayer
 62
  256
370
   -1
100
AcDbLine
 10
-35.5599999999984
 20
45.72000000000011
 11
-35.55999999999838
 21
43.18000000000012
  0
LINE
  5
198
100
AcDbEntity
  8
0_wire
  6
ByLayer
 62
  256
370
   -1
100
AcDbLine
 10
-30.47999999999861
 20
43.18000000000012
 11
-33.0199999999985
 21
43.18000000000012
  0
LINE
  5
199
100
AcDbEntity
  8
0_wire
  6
ByLayer
 62
  256
370
   -1
100
AcDbLine
 10
-33.0199999999985
 20
43.18000000000012
 11
-33.0199999999985
 21
40.64000000000011
  0
LINE
  5
19A
100
AcDbEntity
  8
0_GND
  6
ByLayer
 62
  256
370
   -1
100
AcDbLine
 10
-22.85999999999895
 20
38.10000000000002
 11
-22.85999999999894
 21
33.02000000000001
  0
LINE
  5
19B
100
AcDbEntity
  8
universal_board
  6
ByLayer
 62
  256
370
   -1
100
AcDbLine
 10
-39.36999999999809
 20
21.58999999999979
 11
-21.58999999999892
 21
21.5899999999998
  0
LINE
  5
19C
100
AcDbEntity
  8
universal_board
  6
ByLayer
 62
  256
370
   -1
100
AcDbLine
 10
-39.3699999999981
 20
54.61000000000001
 11
-21.58999999999892
 21
54.61000000000001
  0
LINE
  5
19D
100
AcDbEntity
  8
universal_board
  6
ByLayer
 62
  256
370
   -1
100
AcDbLine
 10
-39.36999999999809
 20
54.61000000000001
 11
-39.36999999999809
 21
21.5899999999998
  0
LINE
  5
19E
100
AcDbEntity
  8
universal_board
  6
ByLayer
 62
  256
370
   -1
100
AcDbLine
 10
-21.58999999999892
 20
54.61000000000001
 11
-21.58999999999892
 21
21.5899999999998
  0
MTEXT
  5
19F
100
AcDbEntity
  8
universal_board
  6
ByLayer
 62
  256
370
   -1
100
AcDbMText
 10
-38.04738505303166
 20
56.37342995573073
 30
0
 40
1
 41
1.111111111111111
 71
    4
 72
    1
  1
B1
  7
unicode
210
0
220
0
230
1
 50
0
 73
    2
 44
1.54
  0
MTEXT
  5
1A0
100
AcDbEntity
  8
socket_header
  6
ByLayer
 62
  256
370
   -1
100
AcDbMText
 10
-35.795554787145
 20
20.87411296185329
 30
0
 40
1
 41
1.112312546778522
 71
    5
 72
    1
  1
S1
  7
unicode
210
0
220
0
230
1
 50
0
 73
    2
 44
1
  0
MTEXT
  5
1A1
100
AcDbEntity
  8
micon
  6
ByLayer
 62
  256
370
   -1
100
AcDbMText
 10
-34.58087288283287
 20
39.23267331043921
 30
0
 40
1
 41
1.111111111111111
 71
    4
 72
    1
  1
U1
  7
iso
210
0
220
0
230
1
 50
0
 73
    2
 44
1.54
  0
MTEXT
  5
1A2
100
AcDbEntity
  8
condenser
  6
ByLayer
 62
  256
370
   -1
100
AcDbMText
 10
-37.74893050624966
 20
40.66898454211771
 30
0
 40
1
 41
0.9999999999999999
 71
    4
 72
    1
  1
C1
  7
unicode
210
0
220
0
230
1
 50
0
 73
    2
 44
1.54
  0
MTEXT
  5
1A3
100
AcDbEntity
  8
socket_header
  6
ByLayer
 62
  256
370
   -1
100
AcDbMText
 10
-39.16658819681808
 20
20.60874501772507
 30
0
 40
1
 41
1.334534769000745
 71
    4
 72
    1
  1
S2
  7
unicode
210
0
220
0
230
1
 50
0
 73
    2
 44
1.54
  0
MTEXT
  5
1A4
100
AcDbEntity
  8
socket_header
  6
ByLayer
 62
  256
370
   -1
100
AcDbMText
 10
-23.57668435207488
 20
20.39371186124585
 30
0
 40
1
 41
1.334534769000745
 71
    4
 72
    1
  1
S3
  7
unicode
210
0
220
0
230
1
 50
0
 73
    2
 44
1.54
  0
SPLINE
  5
1A5
100
AcDbEntity
  8
resister
  6
DOTTINY
 62
  256
370
   -1
100
AcDbSpline
210
0
220
0
230
0
 70
    8
 71
    2
 72
    6
 73
    3
 74
    0
 42
1e-07
 43
1e-07
 40
0
 40
0
 40
0
 40
1
 40
1
 40
1
 10
-30.47999999999861
 20
40.64000000000011
 30
0
 10
-31.93372909905415
 20
38.06947805320101
 30
0
 10
-30.47999999999858
 20
35.56000000000002
 30
0
  0
LINE
  5
1A6
100
AcDbEntity
  8
0_wire
  6
ByLayer
 62
  256
370
   -1
100
AcDbLine
 10
-35.55999999999835
 20
35.56000000000002
 11
-38.09999999999823
 21
35.56000000000002
  0
LINE
  5
1A7
100
AcDbEntity
  8
0_wire
  6
ByLayer
 62
  256
370
   -1
100
AcDbLine
 10
-35.55999999999835
 20
33.02000000000001
 11
-38.09999999999823
 21
33.02000000000001
  0
LINE
  5
1A8
100
AcDbEntity
  8
0_wire
  6
ByLayer
 62
  256
370
   -1
100
AcDbLine
 10
-35.55999999999835
 20
30.48000000000002
 11
-38.09999999999823
 21
30.47999999999992
  0
LINE
  5
1A9
100
AcDbEntity
  8
0_wire
  6
ByLayer
 62
  256
370
   -1
100
AcDbLine
 10
-27.93999999999866
 20
22.85999999999993
 11
-22.8599999999989
 21
22.85999999999993
  0
LINE
  5
1AA
100
AcDbEntity
  8
condenser
  6
ByLayer
 62
  256
370
   -1
100
AcDbLine
 10
-24.24999999999751
 20
31.17000000000242
 11
-24.24999999999751
 21
34.87000000000222
  0
LINE
  5
1AB
100
AcDbEntity
  8
condenser
  6
ByLayer
 62
  256
370
   -1
100
AcDbLine
 10
-24.24999999999751
 20
34.87000000000222
 11
-26.55000000000016
 21
34.87000000000222
  0
LINE
  5
1AC
100
AcDbEntity
  8
condenser
  6
ByLayer
 62
  256
370
   -1
100
AcDbLine
 10
-26.55000000000016
 20
34.87000000000222
 11
-26.55000000000016
 21
31.17000000000242
  0
LINE
  5
1AD
100
AcDbEntity
  8
condenser
  6
ByLayer
 62
  256
370
   -1
100
AcDbLine
 10
-26.55000000000016
 20
31.17000000000242
 11
-24.24999999999751
 21
31.17000000000242
  0
LINE
  5
1AE
100
AcDbEntity
  8
condenser
  6
ByLayer
 62
  256
370
   -1
100
AcDbLine
 10
-25.39999999999883
 20
34.87000000000222
 11
-25.39999999999883
 21
35.56000000000002
  0
LINE
  5
1AF
100
AcDbEntity
  8
condenser
  6
ByLayer
 62
  256
370
   -1
100
AcDbLine
 10
-25.39999999999882
 20
30.48000000000002
 11
-25.39999999999882
 21
31.17000000000242
  0
LINE
  5
1B0
100
AcDbEntity
  8
0_GND
  6
ByLayer
 62
  256
370
   -1
100
AcDbLine
 10
-25.39999999999883
 20
38.10000000000002
 11
-25.39999999999882
 21
35.56000000000002
  0
LINE
  5
1B1
100
AcDbEntity
  8
0_wire
  6
ByLayer
 62
  256
370
   -1
100
AcDbLine
 10
-35.55999999999835
 20
27.94000000000001
 11
-38.09999999999826
 21
27.94000000000001
  0
LINE
  5
1B2
100
AcDbEntity
  8
0_wire
  6
ByLayer
 62
  256
370
   -1
100
AcDbLine
 10
-35.55999999999835
 20
25.40000000000002
 11
-38.09999999999826
 21
25.40000000000002
  0
LINE
  5
1B3
100
AcDbEntity
  8
0_wire
  6
ByLayer
 62
  256
370
   -1
100
AcDbLine
 10
-35.55999999999834
 20
22.85999999999993
 11
-38.09999999999826
 21
22.85999999999993
  0
MTEXT
  5
1B4
100
AcDbEntity
  8
condenser
  6
ByLayer
 62
  256
370
   -1
100
AcDbMText
 10
-25.84234961061564
 20
33.93896715453042
 30
0
 40
1
 41
1.222222222222222
 71
    4
 72
    1
  1
C2
  7
unicode
210
0
220
0
230
1
 50
0
 73
    2
 44
1.54
  0
MTEXT
  5
1B5
100
AcDbEntity
  8
condenser
  6
ByLayer
 62
  256
370
   -1
100
AcDbMText
 10
-26.15354689632621
 20
32.22246867402542
 30
0
 40
1
 41
3.735555555555555
 71
    4
 72
    1
  1
後から
  7
kst32b
210
0
220
0
230
1
 50
0
 73
    2
 44
1.54
  0
MTEXT
  5
1B6
100
AcDbEntity
  8
socket_header
  6
ByLayer
 62
  256
370
   -1
100
AcDbMText
 10
-46.30930124635971
 20
30.45105088509912
 30
0
 40
1
 41
6.766666666666667
 71
    4
 72
    1
  1
5V\PTargetCLK\PTargetDAT\PProgRST\PRX\PTX\PTargetRST
  7
kst32b
210
0
220
0
230
1
 50
0
 73
    2
 44
1.54
  0
MTEXT
  5
1B7
100
AcDbEntity
  8
socket_header
  6
ByLayer
 62
  256
370
   -1
100
AcDbMText
 10
-21.09175041589889
 20
30.36376499872712
 30
0
 40
1
 41
5.162222222222222
 71
    4
 72
    1
  1
GND\PGND\PGND\P3V3\PProgDAT\PProgCLK\PLED
  7
kst32b
210
0
220
0
230
1
 50
0
 73
    2
 44
1.54
  0
MTEXT
  5
1B8
100
AcDbEntity
  8
micon
  6
ByLayer
 62
  256
370
   -1
100
AcDbMText
 10
-36.1320647775047
 20
30.76373035052751
 30
0
 40
1
 41
3.111111111111174
 71
    4
 72
    1
  1
VDD\PRA5\PRA4\PMCLR\PRC5\PRC4\PRC3
  7
iso
210
0
220
0
230
1
 50
0
 73
    2
 44
1.54
  0
MTEXT
  5
1B9
100
AcDbEntity
  8
micon
  6
ByLayer
 62
  256
370
   -1
100
AcDbMText
 10
-30.12152387499962
 20
31.94061194934602
 30
0
 40
1
 41
2.333333333333519
 71
    4
 72
    1
  1
GND\PD+\PD-\P3V3\PRC0\PRC1\PRC2
  7
iso
210
0
220
0
230
1
 50
0
 73
    2
 44
1.54
  0
SPLINE
  5
1BA
100
AcDbEntity
  8
resister
  6
DOTTINY
 62
  256
370
   -1
100
AcDbSpline
210
0
220
0
230
0
 70
    8
 71
    2
 72
    6
 73
    3
 74
    0
 42
1e-07
 43
1e-07
 40
0
 40
0
 40
0
 40
1
 40
1
 40
1
 10
-33.01999999999653
 20
40.63999999999942
 30
0
 10
-36.82999999999653
 20
31.74999999999942
 30
0
 10
-30.47999999999653
 20
33.01999999999941
 30
0
  0
CIRCLE
  5
1BB
100
AcDbEntity
  8
universal_board
  6
ByLayer
 62
  256
370
   -1
100
AcDbCircle
 10
-7.619999999999628
 20
22.85999999999993
 40
0.5
  0
CIRCLE
  5
1BC
100
AcDbEntity
  8
universal_board
  6
ByLayer
 62
  256
370
   -1
100
AcDbCircle
 10
-7.619999999999628
 20
25.39999999999992
 40
0.5
  0
CIRCLE
  5
1BD
100
AcDbEntity
  8
universal_board
  6
ByLayer
 62
  256
370
   -1
100
AcDbCircle
 10
-7.619999999999663
 20
27.94000000000001
 40
0.5
  0
CIRCLE
  5
1BE
100
AcDbEntity
  8
universal_board
  6
ByLayer
 62
  256
370
   -1
100
AcDbCircle
 10
-7.619999999999671
 20
30.48000000000002
 40
0.5
  0
CIRCLE
  5
1BF
100
AcDbEntity
  8
universal_board
  6
ByLayer
 62
  256
370
   -1
100
AcDbCircle
 10
-7.619999999999671
 20
33.02000000000001
 40
0.5
  0
CIRCLE
  5
1C0
100
AcDbEntity
  8
universal_board
  6
ByLayer
 62
  256
370
   -1
100
AcDbCircle
 10
-7.619999999999671
 20
35.56000000000002
 40
0.5
  0
CIRCLE
  5
1C1
100
AcDbEntity
  8
universal_board
  6
ByLayer
 62
  256
370
   -1
100
AcDbCircle
 10
-7.619999999999678
 20
38.10000000000002
 40
0.5
  0
CIRCLE
  5
1C2
100
AcDbEntity
  8
universal_board
  6
ByLayer
 62
  256
370
   -1
100
AcDbCircle
 10
-5.079999999999764
 20
22.85999999999993
 40
0.5
  0
CIRCLE
  5
1C3
100
AcDbEntity
  8
universal_board
  6
ByLayer
 62
  256
370
   -1
100
AcDbCircle
 10
-5.079999999999764
 20
25.39999999999992
 40
0.5
  0
CIRCLE
  5
1C4
100
AcDbEntity
  8
universal_board
  6
ByLayer
 62
  256
370
   -1
100
AcDbCircle
 10
-5.079999999999778
 20
27.94000000000001
 40
0.5
  0
CIRCLE
  5
1C5
100
AcDbEntity
  8
universal_board
  6
ByLayer
 62
  256
370
   -1
100
AcDbCircle
 10
-5.079999999999792
 20
30.48000000000002
 40
0.5
  0
CIRCLE
  5
1C6
100
AcDbEntity
  8
universal_board
  6
ByLayer
 62
  256
370
   -1
100
AcDbCircle
 10
-5.079999999999792
 20
33.02000000000001
 40
0.5
  0
CIRCLE
  5
1C7
100
AcDbEntity
  8
universal_board
  6
ByLayer
 62
  256
370
   -1
100
AcDbCircle
 10
-5.079999999999792
 20
35.56000000000002
 40
0.5
  0
CIRCLE
  5
1C8
100
AcDbEntity
  8
universal_board
  6
ByLayer
 62
  256
370
   -1
100
AcDbCircle
 10
-5.079999999999799
 20
38.10000000000002
 40
0.5
  0
CIRCLE
  5
1C9
100
AcDbEntity
  8
universal_board
  6
ByLayer
 62
  256
370
   -1
100
AcDbCircle
 10
-2.539999999999878
 20
22.85999999999993
 40
0.5
  0
CIRCLE
  5
1CA
100
AcDbEntity
  8
universal_board
  6
ByLayer
 62
  256
370
   -1
100
AcDbCircle
 10
-2.539999999999878
 20
25.39999999999992
 40
0.5
  0
CIRCLE
  5
1CB
100
AcDbEntity
  8
universal_board
  6
ByLayer
 62
  256
370
   -1
100
AcDbCircle
 10
-2.539999999999914
 20
27.94000000000001
 40
0.5
  0
CIRCLE
  5
1CC
100
AcDbEntity
  8
universal_board
  6
ByLayer
 62
  256
370
   -1
100
AcDbCircle
 10
-2.539999999999914
 20
30.48000000000002
 40
0.5
  0
CIRCLE
  5
1CD
100
AcDbEntity
  8
universal_board
  6
ByLayer
 62
  256
370
   -1
100
AcDbCircle
 10
-2.539999999999914
 20
33.02000000000001
 40
0.5
  0
CIRCLE
  5
1CE
100
AcDbEntity
  8
universal_board
  6
ByLayer
 62
  256
370
   -1
100
AcDbCircle
 10
-2.539999999999914
 20
35.56000000000002
 40
0.5
  0
CIRCLE
  5
1CF
100
AcDbEntity
  8
universal_board
  6
ByLayer
 62
  256
370
   -1
100
AcDbCircle
 10
-2.539999999999921
 20
38.10000000000002
 40
0.5
  0
CIRCLE
  5
1D0
100
AcDbEntity
  8
universal_board
  6
ByLayer
 62
  256
370
   -1
100
AcDbCircle
 10
0
 20
22.85999999999993
 40
0.5
  0
CIRCLE
  5
1D1
100
AcDbEntity
  8
universal_board
  6
ByLayer
 62
  256
370
   -1
100
AcDbCircle
 10
0
 20
25.39999999999992
 40
0.5
  0
CIRCLE
  5
1D2
100
AcDbEntity
  8
universal_board
  6
ByLayer
 62
  256
370
   -1
100
AcDbCircle
 10
-2.842170943040401e-14
 20
27.94000000000001
 40
0.5
  0
CIRCLE
  5
1D3
100
AcDbEntity
  8
universal_board
  6
ByLayer
 62
  256
370
   -1
100
AcDbCircle
 10
-2.842170943040401e-14
 20
30.48000000000002
 40
0.5
  0
CIRCLE
  5
1D4
100
AcDbEntity
  8
universal_board
  6
ByLayer
 62
  256
370
   -1
100
AcDbCircle
 10
-2.842170943040401e-14
 20
33.02000000000001
 40
0.5
  0
CIRCLE
  5
1D5
100
AcDbEntity
  8
universal_board
  6
ByLayer
 62
  256
370
   -1
100
AcDbCircle
 10
-2.842170943040401e-14
 20
35.56000000000002
 40
0.5
  0
CIRCLE
  5
1D6
100
AcDbEntity
  8
universal_board
  6
ByLayer
 62
  256
370
   -1
100
AcDbCircle
 10
-4.263256414560601e-14
 20
38.10000000000002
 40
0.5
  0
CIRCLE
  5
1D7
100
AcDbEntity
  8
universal_board
  6
ByLayer
 62
  256
370
   -1
100
AcDbCircle
 10
2.539999999999878
 20
22.85999999999993
 40
0.5
  0
CIRCLE
  5
1D8
100
AcDbEntity
  8
universal_board
  6
ByLayer
 62
  256
370
   -1
100
AcDbCircle
 10
2.539999999999878
 20
25.39999999999992
 40
0.5
  0
CIRCLE
  5
1D9
100
AcDbEntity
  8
universal_board
  6
ByLayer
 62
  256
370
   -1
100
AcDbCircle
 10
2.53999999999985
 20
27.94000000000001
 40
0.5
  0
CIRCLE
  5
1DA
100
AcDbEntity
  8
universal_board
  6
ByLayer
 62
  256
370
   -1
100
AcDbCircle
 10
2.539999999999836
 20
30.48000000000002
 40
0.5
  0
CIRCLE
  5
1DB
100
AcDbEntity
  8
universal_board
  6
ByLayer
 62
  256
370
   -1
100
AcDbCircle
 10
2.539999999999836
 20
33.02000000000001
 40
0.5
  0
CIRCLE
  5
1DC
100
AcDbEntity
  8
universal_board
  6
ByLayer
 62
  256
370
   -1
100
AcDbCircle
 10
2.539999999999836
 20
35.56000000000002
 40
0.5
  0
CIRCLE
  5
1DD
100
AcDbEntity
  8
universal_board
  6
ByLayer
 62
  256
370
   -1
100
AcDbCircle
 10
2.539999999999836
 20
38.10000000000002
 40
0.5
  0
CIRCLE
  5
1DE
100
AcDbEntity
  8
universal_board
  6
ByLayer
 62
  256
370
   -1
100
AcDbCircle
 10
5.079999999999757
 20
22.85999999999993
 40
0.5
  0
CIRCLE
  5
1DF
100
AcDbEntity
  8
universal_board
  6
ByLayer
 62
  256
370
   -1
100
AcDbCircle
 10
5.079999999999757
 20
25.39999999999992
 40
0.5
  0
CIRCLE
  5
1E0
100
AcDbEntity
  8
universal_board
  6
ByLayer
 62
  256
370
   -1
100
AcDbCircle
 10
5.079999999999728
 20
27.94000000000001
 40
0.5
  0
CIRCLE
  5
1E1
100
AcDbEntity
  8
universal_board
  6
ByLayer
 62
  256
370
   -1
100
AcDbCircle
 10
5.079999999999721
 20
30.48000000000002
 40
0.5
  0
CIRCLE
  5
1E2
100
AcDbEntity
  8
universal_board
  6
ByLayer
 62
  256
370
   -1
100
AcDbCircle
 10
5.079999999999721
 20
33.02000000000001
 40
0.5
  0
CIRCLE
  5
1E3
100
AcDbEntity
  8
universal_board
  6
ByLayer
 62
  256
370
   -1
100
AcDbCircle
 10
5.079999999999721
 20
35.56000000000002
 40
0.5
  0
CIRCLE
  5
1E4
100
AcDbEntity
  8
universal_board
  6
ByLayer
 62
  256
370
   -1
100
AcDbCircle
 10
5.079999999999707
 20
38.10000000000002
 40
0.5
  0
CIRCLE
  5
1E5
100
AcDbEntity
  8
universal_board
  6
ByLayer
 62
  256
370
   -1
100
AcDbCircle
 10
7.619999999999642
 20
22.85999999999993
 40
0.5
  0
CIRCLE
  5
1E6
100
AcDbEntity
  8
universal_board
  6
ByLayer
 62
  256
370
   -1
100
AcDbCircle
 10
7.619999999999642
 20
25.39999999999992
 40
0.5
  0
CIRCLE
  5
1E7
100
AcDbEntity
  8
universal_board
  6
ByLayer
 62
  256
370
   -1
100
AcDbCircle
 10
7.619999999999607
 20
27.94000000000001
 40
0.5
  0
CIRCLE
  5
1E8
100
AcDbEntity
  8
universal_board
  6
ByLayer
 62
  256
370
   -1
100
AcDbCircle
 10
7.6199999999996
 20
30.48000000000002
 40
0.5
  0
CIRCLE
  5
1E9
100
AcDbEntity
  8
universal_board
  6
ByLayer
 62
  256
370
   -1
100
AcDbCircle
 10
7.6199999999996
 20
33.02000000000001
 40
0.5
  0
CIRCLE
  5
1EA
100
AcDbEntity
  8
universal_board
  6
ByLayer
 62
  256
370
   -1
100
AcDbCircle
 10
7.6199999999996
 20
35.56000000000002
 40
0.5
  0
CIRCLE
  5
1EB
100
AcDbEntity
  8
universal_board
  6
ByLayer
 62
  256
370
   -1
100
AcDbCircle
 10
7.619999999999592
 20
38.10000000000002
 40
0.5
  0
CIRCLE
  5
1EC
100
AcDbEntity
  8
universal_board
  6
ByLayer
 62
  256
370
   -1
100
AcDbCircle
 10
-7.619999999999628
 20
20.31999999999994
 40
0.5
  0
CIRCLE
  5
1ED
100
AcDbEntity
  8
universal_board
  6
ByLayer
 62
  256
370
   -1
100
AcDbCircle
 10
-5.079999999999764
 20
20.31999999999994
 40
0.5
  0
CIRCLE
  5
1EE
100
AcDbEntity
  8
universal_board
  6
ByLayer
 62
  256
370
   -1
100
AcDbCircle
 10
-2.539999999999878
 20
20.31999999999994
 40
0.5
  0
CIRCLE
  5
1EF
100
AcDbEntity
  8
universal_board
  6
ByLayer
 62
  256
370
   -1
100
AcDbCircle
 10
0
 20
20.31999999999994
 40
0.5
  0
CIRCLE
  5
1F0
100
AcDbEntity
  8
universal_board
  6
ByLayer
 62
  256
370
   -1
100
AcDbCircle
 10
2.539999999999878
 20
20.31999999999994
 40
0.5
  0
CIRCLE
  5
1F1
100
AcDbEntity
  8
universal_board
  6
ByLayer
 62
  256
370
   -1
100
AcDbCircle
 10
5.079999999999757
 20
20.31999999999994
 40
0.5
  0
CIRCLE
  5
1F2
100
AcDbEntity
  8
universal_board
  6
ByLayer
 62
  256
370
   -1
100
AcDbCircle
 10
7.619999999999642
 20
20.31999999999994
 40
0.5
  0
CIRCLE
  5
1F3
100
AcDbEntity
  8
universal_board
  6
ByLayer
 62
  256
370
   -1
100
AcDbCircle
 10
-7.619999999999628
 20
17.77999999999994
 40
0.5
  0
CIRCLE
  5
1F4
100
AcDbEntity
  8
universal_board
  6
ByLayer
 62
  256
370
   -1
100
AcDbCircle
 10
-5.079999999999764
 20
17.77999999999994
 40
0.5
  0
CIRCLE
  5
1F5
100
AcDbEntity
  8
universal_board
  6
ByLayer
 62
  256
370
   -1
100
AcDbCircle
 10
-2.539999999999878
 20
17.77999999999994
 40
0.5
  0
CIRCLE
  5
1F6
100
AcDbEntity
  8
universal_board
  6
ByLayer
 62
  256
370
   -1
100
AcDbCircle
 10
0
 20
17.77999999999994
 40
0.5
  0
CIRCLE
  5
1F7
100
AcDbEntity
  8
universal_board
  6
ByLayer
 62
  256
370
   -1
100
AcDbCircle
 10
2.539999999999878
 20
17.77999999999994
 40
0.5
  0
CIRCLE
  5
1F8
100
AcDbEntity
  8
universal_board
  6
ByLayer
 62
  256
370
   -1
100
AcDbCircle
 10
5.079999999999757
 20
17.77999999999994
 40
0.5
  0
CIRCLE
  5
1F9
100
AcDbEntity
  8
universal_board
  6
ByLayer
 62
  256
370
   -1
100
AcDbCircle
 10
7.619999999999642
 20
17.77999999999994
 40
0.5
  0
CIRCLE
  5
1FA
100
AcDbEntity
  8
universal_board
  6
ByLayer
 62
  256
370
   -1
100
AcDbCircle
 10
-10.15999999999951
 20
10.15999999999997
 40
0.5
  0
CIRCLE
  5
1FB
100
AcDbEntity
  8
universal_board
  6
ByLayer
 62
  256
370
   -1
100
AcDbCircle
 10
-7.619999999999628
 20
10.15999999999997
 40
0.5
  0
CIRCLE
  5
1FC
100
AcDbEntity
  8
universal_board
  6
ByLayer
 62
  256
370
   -1
100
AcDbCircle
 10
-5.079999999999764
 20
10.15999999999997
 40
0.5
  0
CIRCLE
  5
1FD
100
AcDbEntity
  8
universal_board
  6
ByLayer
 62
  256
370
   -1
100
AcDbCircle
 10
-2.539999999999878
 20
10.15999999999997
 40
0.5
  0
CIRCLE
  5
1FE
100
AcDbEntity
  8
universal_board
  6
ByLayer
 62
  256
370
   -1
100
AcDbCircle
 10
0
 20
10.15999999999997
 40
0.5
  0
CIRCLE
  5
1FF
100
AcDbEntity
  8
universal_board
  6
ByLayer
 62
  256
370
   -1
100
AcDbCircle
 10
2.539999999999878
 20
10.15999999999997
 40
0.5
  0
CIRCLE
  5
200
100
AcDbEntity
  8
universal_board
  6
ByLayer
 62
  256
370
   -1
100
AcDbCircle
 10
5.079999999999757
 20
10.15999999999997
 40
0.5
  0
CIRCLE
  5
201
100
AcDbEntity
  8
universal_board
  6
ByLayer
 62
  256
370
   -1
100
AcDbCircle
 10
7.619999999999642
 20
10.15999999999997
 40
0.5
  0
CIRCLE
  5
202
100
AcDbEntity
  8
universal_board
  6
ByLayer
 62
  256
370
   -1
100
AcDbCircle
 10
-10.15999999999951
 20
7.619999999999976
 40
0.5
  0
CIRCLE
  5
203
100
AcDbEntity
  8
universal_board
  6
ByLayer
 62
  256
370
   -1
100
AcDbCircle
 10
-7.619999999999628
 20
7.619999999999976
 40
0.5
  0
CIRCLE
  5
204
100
AcDbEntity
  8
universal_board
  6
ByLayer
 62
  256
370
   -1
100
AcDbCircle
 10
-5.079999999999764
 20
7.619999999999976
 40
0.5
  0
CIRCLE
  5
205
100
AcDbEntity
  8
universal_board
  6
ByLayer
 62
  256
370
   -1
100
AcDbCircle
 10
-2.539999999999878
 20
7.619999999999976
 40
0.5
  0
CIRCLE
  5
206
100
AcDbEntity
  8
universal_board
  6
ByLayer
 62
  256
370
   -1
100
AcDbCircle
 10
0
 20
7.619999999999976
 40
0.5
  0
CIRCLE
  5
207
100
AcDbEntity
  8
universal_board
  6
ByLayer
 62
  256
370
   -1
100
AcDbCircle
 10
2.539999999999878
 20
7.619999999999976
 40
0.5
  0
CIRCLE
  5
208
100
AcDbEntity
  8
universal_board
  6
ByLayer
 62
  256
370
   -1
100
AcDbCircle
 10
5.079999999999757
 20
7.619999999999976
 40
0.5
  0
CIRCLE
  5
209
100
AcDbEntity
  8
universal_board
  6
ByLayer
 62
  256
370
   -1
100
AcDbCircle
 10
7.619999999999642
 20
7.619999999999976
 40
0.5
  0
CIRCLE
  5
20A
100
AcDbEntity
  8
universal_board
  6
ByLayer
 62
  256
370
   -1
100
AcDbCircle
 10
-10.15999999999951
 20
5.079999999999984
 40
0.5
  0
CIRCLE
  5
20B
100
AcDbEntity
  8
universal_board
  6
ByLayer
 62
  256
370
   -1
100
AcDbCircle
 10
-7.619999999999628
 20
5.079999999999984
 40
0.5
  0
CIRCLE
  5
20C
100
AcDbEntity
  8
universal_board
  6
ByLayer
 62
  256
370
   -1
100
AcDbCircle
 10
-5.079999999999764
 20
5.079999999999984
 40
0.5
  0
CIRCLE
  5
20D
100
AcDbEntity
  8
universal_board
  6
ByLayer
 62
  256
370
   -1
100
AcDbCircle
 10
-2.539999999999878
 20
5.079999999999984
 40
0.5
  0
CIRCLE
  5
20E
100
AcDbEntity
  8
universal_board
  6
ByLayer
 62
  256
370
   -1
100
AcDbCircle
 10
0
 20
5.079999999999984
 40
0.5
  0
CIRCLE
  5
20F
100
AcDbEntity
  8
universal_board
  6
ByLayer
 62
  256
370
   -1
100
AcDbCircle
 10
2.539999999999878
 20
5.079999999999984
 40
0.5
  0
CIRCLE
  5
210
100
AcDbEntity
  8
universal_board
  6
ByLayer
 62
  256
370
   -1
100
AcDbCircle
 10
5.079999999999757
 20
5.079999999999984
 40
0.5
  0
CIRCLE
  5
211
100
AcDbEntity
  8
universal_board
  6
ByLayer
 62
  256
370
   -1
100
AcDbCircle
 10
7.619999999999642
 20
5.079999999999984
 40
0.5
  0
CIRCLE
  5
212
100
AcDbEntity
  8
universal_board
  6
ByLayer
 62
  256
370
   -1
100
AcDbCircle
 10
-10.15999999999951
 20
2.539999999999992
 40
0.5
  0
CIRCLE
  5
213
100
AcDbEntity
  8
universal_board
  6
ByLayer
 62
  256
370
   -1
100
AcDbCircle
 10
-7.619999999999628
 20
2.539999999999992
 40
0.5
  0
CIRCLE
  5
214
100
AcDbEntity
  8
universal_board
  6
ByLayer
 62
  256
370
   -1
100
AcDbCircle
 10
-5.079999999999764
 20
2.539999999999992
 40
0.5
  0
CIRCLE
  5
215
100
AcDbEntity
  8
universal_board
  6
ByLayer
 62
  256
370
   -1
100
AcDbCircle
 10
-2.539999999999878
 20
2.539999999999992
 40
0.5
  0
CIRCLE
  5
216
100
AcDbEntity
  8
universal_board
  6
ByLayer
 62
  256
370
   -1
100
AcDbCircle
 10
0
 20
2.539999999999992
 40
0.5
  0
CIRCLE
  5
217
100
AcDbEntity
  8
universal_board
  6
ByLayer
 62
  256
370
   -1
100
AcDbCircle
 10
2.539999999999878
 20
2.539999999999992
 40
0.5
  0
CIRCLE
  5
218
100
AcDbEntity
  8
universal_board
  6
ByLayer
 62
  256
370
   -1
100
AcDbCircle
 10
5.079999999999757
 20
2.539999999999992
 40
0.5
  0
CIRCLE
  5
219
100
AcDbEntity
  8
universal_board
  6
ByLayer
 62
  256
370
   -1
100
AcDbCircle
 10
7.619999999999642
 20
2.539999999999992
 40
0.5
  0
CIRCLE
  5
21A
100
AcDbEntity
  8
universal_board
  6
ByLayer
 62
  256
370
   -1
100
AcDbCircle
 10
-10.15999999999951
 20
0
 40
0.5
  0
CIRCLE
  5
21B
100
AcDbEntity
  8
universal_board
  6
ByLayer
 62
  256
370
   -1
100
AcDbCircle
 10
-7.619999999999628
 20
0
 40
0.5
  0
CIRCLE
  5
21C
100
AcDbEntity
  8
universal_board
  6
ByLayer
 62
  256
370
   -1
100
AcDbCircle
 10
-5.079999999999764
 20
0
 40
0.5
  0
CIRCLE
  5
21D
100
AcDbEntity
  8
universal_board
  6
ByLayer
 62
  256
370
   -1
100
AcDbCircle
 10
-2.539999999999878
 20
0
 40
0.5
  0
CIRCLE
  5
21E
100
AcDbEntity
  8
universal_board
  6
ByLayer
 62
  256
370
   -1
100
AcDbCircle
 10
0
 20
0
 40
0.5
  0
CIRCLE
  5
21F
100
AcDbEntity
  8
universal_board
  6
ByLayer
 62
  256
370
   -1
100
AcDbCircle
 10
2.539999999999878
 20
0
 40
0.5
  0
CIRCLE
  5
220
100
AcDbEntity
  8
universal_board
  6
ByLayer
 62
  256
370
   -1
100
AcDbCircle
 10
5.079999999999757
 20
0
 40
0.5
  0
CIRCLE
  5
221
100
AcDbEntity
  8
universal_board
  6
ByLayer
 62
  256
370
   -1
100
AcDbCircle
 10
7.619999999999642
 20
0
 40
0.5
  0
CIRCLE
  5
222
100
AcDbEntity
  8
universal_board
  6
ByLayer
 62
  256
370
   -1
100
AcDbCircle
 10
-10.15999999999951
 20
-2.539999999999992
 40
0.5
  0
CIRCLE
  5
223
100
AcDbEntity
  8
universal_board
  6
ByLayer
 62
  256
370
   -1
100
AcDbCircle
 10
-7.619999999999628
 20
-2.539999999999992
 40
0.5
  0
CIRCLE
  5
224
100
AcDbEntity
  8
universal_board
  6
ByLayer
 62
  256
370
   -1
100
AcDbCircle
 10
-5.079999999999764
 20
-2.539999999999992
 40
0.5
  0
CIRCLE
  5
225
100
AcDbEntity
  8
universal_board
  6
ByLayer
 62
  256
370
   -1
100
AcDbCircle
 10
-2.539999999999878
 20
-2.539999999999992
 40
0.5
  0
CIRCLE
  5
226
100
AcDbEntity
  8
universal_board
  6
ByLayer
 62
  256
370
   -1
100
AcDbCircle
 10
0
 20
-2.539999999999992
 40
0.5
  0
CIRCLE
  5
227
100
AcDbEntity
  8
universal_board
  6
ByLayer
 62
  256
370
   -1
100
AcDbCircle
 10
2.539999999999878
 20
-2.539999999999992
 40
0.5
  0
CIRCLE
  5
228
100
AcDbEntity
  8
universal_board
  6
ByLayer
 62
  256
370
   -1
100
AcDbCircle
 10
5.079999999999757
 20
-2.539999999999992
 40
0.5
  0
CIRCLE
  5
229
100
AcDbEntity
  8
universal_board
  6
ByLayer
 62
  256
370
   -1
100
AcDbCircle
 10
7.619999999999642
 20
-2.539999999999992
 40
0.5
  0
CIRCLE
  5
22A
100
AcDbEntity
  8
universal_board
  6
ByLayer
 62
  256
370
   -1
100
AcDbCircle
 10
-10.15999999999951
 20
-5.079999999999984
 40
0.5
  0
CIRCLE
  5
22B
100
AcDbEntity
  8
universal_board
  6
ByLayer
 62
  256
370
   -1
100
AcDbCircle
 10
-7.619999999999628
 20
-5.079999999999984
 40
0.5
  0
CIRCLE
  5
22C
100
AcDbEntity
  8
universal_board
  6
ByLayer
 62
  256
370
   -1
100
AcDbCircle
 10
-5.079999999999764
 20
-5.079999999999984
 40
0.5
  0
CIRCLE
  5
22D
100
AcDbEntity
  8
universal_board
  6
ByLayer
 62
  256
370
   -1
100
AcDbCircle
 10
-2.539999999999878
 20
-5.079999999999984
 40
0.5
  0
CIRCLE
  5
22E
100
AcDbEntity
  8
universal_board
  6
ByLayer
 62
  256
370
   -1
100
AcDbCircle
 10
0
 20
-5.079999999999984
 40
0.5
  0
CIRCLE
  5
22F
100
AcDbEntity
  8
universal_board
  6
ByLayer
 62
  256
370
   -1
100
AcDbCircle
 10
2.539999999999878
 20
-5.079999999999984
 40
0.5
  0
CIRCLE
  5
230
100
AcDbEntity
  8
universal_board
  6
ByLayer
 62
  256
370
   -1
100
AcDbCircle
 10
5.079999999999757
 20
-5.079999999999984
 40
0.5
  0
CIRCLE
  5
231
100
AcDbEntity
  8
universal_board
  6
ByLayer
 62
  256
370
   -1
100
AcDbCircle
 10
7.619999999999642
 20
-5.079999999999984
 40
0.5
  0
CIRCLE
  5
232
100
AcDbEntity
  8
universal_board
  6
ByLayer
 62
  256
370
   -1
100
AcDbCircle
 10
-10.15999999999951
 20
-7.619999999999976
 40
0.5
  0
CIRCLE
  5
233
100
AcDbEntity
  8
universal_board
  6
ByLayer
 62
  256
370
   -1
100
AcDbCircle
 10
-7.619999999999628
 20
-7.619999999999976
 40
0.5
  0
CIRCLE
  5
234
100
AcDbEntity
  8
universal_board
  6
ByLayer
 62
  256
370
   -1
100
AcDbCircle
 10
-5.079999999999764
 20
-7.619999999999976
 40
0.5
  0
CIRCLE
  5
235
100
AcDbEntity
  8
universal_board
  6
ByLayer
 62
  256
370
   -1
100
AcDbCircle
 10
-2.539999999999878
 20
-7.619999999999976
 40
0.5
  0
CIRCLE
  5
236
100
AcDbEntity
  8
universal_board
  6
ByLayer
 62
  256
370
   -1
100
AcDbCircle
 10
0
 20
-7.619999999999976
 40
0.5
  0
CIRCLE
  5
237
100
AcDbEntity
  8
universal_board
  6
ByLayer
 62
  256
370
   -1
100
AcDbCircle
 10
2.539999999999878
 20
-7.619999999999976
 40
0.5
  0
CIRCLE
  5
238
100
AcDbEntity
  8
universal_board
  6
ByLayer
 62
  256
370
   -1
100
AcDbCircle
 10
5.079999999999757
 20
-7.619999999999976
 40
0.5
  0
CIRCLE
  5
239
100
AcDbEntity
  8
universal_board
  6
ByLayer
 62
  256
370
   -1
100
AcDbCircle
 10
7.619999999999642
 20
-7.619999999999976
 40
0.5
  0
CIRCLE
  5
23A
100
AcDbEntity
  8
universal_board
  6
ByLayer
 62
  256
370
   -1
100
AcDbCircle
 10
-10.15999999999951
 20
-10.15999999999997
 40
0.5
  0
CIRCLE
  5
23B
100
AcDbEntity
  8
universal_board
  6
ByLayer
 62
  256
370
   -1
100
AcDbCircle
 10
-7.619999999999628
 20
-10.15999999999997
 40
0.5
  0
CIRCLE
  5
23C
100
AcDbEntity
  8
universal_board
  6
ByLayer
 62
  256
370
   -1
100
AcDbCircle
 10
-5.079999999999764
 20
-10.15999999999997
 40
0.5
  0
CIRCLE
  5
23D
100
AcDbEntity
  8
universal_board
  6
ByLayer
 62
  256
370
   -1
100
AcDbCircle
 10
-2.539999999999878
 20
-10.15999999999997
 40
0.5
  0
CIRCLE
  5
23E
100
AcDbEntity
  8
universal_board
  6
ByLayer
 62
  256
370
   -1
100
AcDbCircle
 10
0
 20
-10.15999999999997
 40
0.5
  0
CIRCLE
  5
23F
100
AcDbEntity
  8
universal_board
  6
ByLayer
 62
  256
370
   -1
100
AcDbCircle
 10
2.539999999999878
 20
-10.15999999999997
 40
0.5
  0
CIRCLE
  5
240
100
AcDbEntity
  8
universal_board
  6
ByLayer
 62
  256
370
   -1
100
AcDbCircle
 10
5.079999999999757
 20
-10.15999999999997
 40
0.5
  0
CIRCLE
  5
241
100
AcDbEntity
  8
universal_board
  6
ByLayer
 62
  256
370
   -1
100
AcDbCircle
 10
7.619999999999642
 20
-10.15999999999997
 40
0.5
  0
LINE
  5
242
100
AcDbEntity
  8
micon
  6
ByLayer
 62
  256
370
   -1
100
AcDbLine
 10
1.90499999999836
 20
6.985000000000326
 11
1.90499999999836
 21
-12.065
  0
LINE
  5
243
100
AcDbEntity
  8
micon
  6
ByLayer
 62
  256
370
   -1
100
AcDbLine
 10
-4.445000000001833
 20
-12.065
 11
-4.445000000001833
 21
6.985000000000326
  0
LINE
  5
244
100
AcDbEntity
  8
micon
  6
ByLayer
 62
  256
370
   -1
100
AcDbLine
 10
-5.079999999999828
 20
2.540000000000219
 11
-4.445000000001833
 21
2.540000000000219
  0
LINE
  5
245
100
AcDbEntity
  8
micon
  6
ByLayer
 62
  256
370
   -1
100
AcDbLine
 10
-5.079999999999828
 20
2.131628207280301e-13
 11
-4.445000000001833
 21
2.131628207280301e-13
  0
LINE
  5
246
100
AcDbEntity
  8
micon
  6
ByLayer
 62
  256
370
   -1
100
AcDbLine
 10
-5.079999999999828
 20
-2.539999999999878
 11
-4.445000000001833
 21
-2.539999999999878
  0
LINE
  5
247
100
AcDbEntity
  8
micon
  6
ByLayer
 62
  256
370
   -1
100
AcDbLine
 10
-5.079999999999828
 20
-5.079999999999885
 11
-4.445000000001833
 21
-5.079999999999885
  0
LINE
  5
248
100
AcDbEntity
  8
micon
  6
ByLayer
 62
  256
370
   -1
100
AcDbLine
 10
-5.079999999999828
 20
-7.619999999999877
 11
-4.445000000001833
 21
-7.619999999999877
  0
LINE
  5
249
100
AcDbEntity
  8
micon
  6
ByLayer
 62
  256
370
   -1
100
AcDbLine
 10
-5.079999999999828
 20
-10.15999999999991
 11
-4.445000000001833
 21
-10.15999999999991
  0
LINE
  5
24A
100
AcDbEntity
  8
micon
  6
ByLayer
 62
  256
370
   -1
100
AcDbLine
 10
1.90499999999836
 20
-10.15999999999991
 11
2.539999999999807
 21
-10.15999999999991
  0
LINE
  5
24B
100
AcDbEntity
  8
micon
  6
ByLayer
 62
  256
370
   -1
100
AcDbLine
 10
1.90499999999836
 20
-7.619999999999877
 11
2.539999999999807
 21
-7.619999999999877
  0
LINE
  5
24C
100
AcDbEntity
  8
micon
  6
ByLayer
 62
  256
370
   -1
100
AcDbLine
 10
1.90499999999836
 20
-5.079999999999885
 11
2.539999999999807
 21
-5.079999999999885
  0
LINE
  5
24D
100
AcDbEntity
  8
micon
  6
ByLayer
 62
  256
370
   -1
100
AcDbLine
 10
1.90499999999836
 20
-2.539999999999878
 11
2.539999999999807
 21
-2.539999999999878
  0
LINE
  5
24E
100
AcDbEntity
  8
micon
  6
ByLayer
 62
  256
370
   -1
100
AcDbLine
 10
1.90499999999836
 20
2.131628207280301e-13
 11
2.539999999999807
 21
2.131628207280301e-13
  0
LINE
  5
24F
100
AcDbEntity
  8
micon
  6
ByLayer
 62
  256
370
   -1
100
AcDbLine
 10
1.90499999999836
 20
2.540000000000219
 11
2.539999999999807
 21
2.540000000000219
  0
LINE
  5
250
100
AcDbEntity
  8
micon
  6
ByLayer
 62
  256
370
   -1
100
AcDbLine
 10
1.90499999999836
 20
5.080000000000226
 11
2.539999999999807
 21
5.080000000000226
  0
ARC
  5
251
100
AcDbEntity
  8
micon
  6
ByLayer
 62
  256
370
   -1
100
AcDbCircle
 10
-1.27000000000173
 20
6.985000000000326
 40
1.27
100
AcDbArc
 50
179.9999999999987
 51
0
  0
LINE
  5
252
100
AcDbEntity
  8
socket_header
  6
ByLayer
 62
  256
370
   -1
100
AcDbLine
 10
3.809999999998482
 20
6.349999999999525
 11
-6.350000000001053
 21
6.349999999999525
  0
LINE
  5
253
100
AcDbEntity
  8
socket_header
  6
ByLayer
 62
  256
370
   -1
100
AcDbLine
 10
-3.810000000001168
 20
6.349999999999525
 11
-3.810000000001168
 21
-11.4300000000006
  0
LINE
  5
254
100
AcDbEntity
  8
socket_header
  6
ByLayer
 62
  256
370
   -1
100
AcDbLine
 10
-3.810000000001168
 20
3.80999999999942
 11
-6.350000000001053
 21
3.80999999999942
  0
LINE
  5
255
100
AcDbEntity
  8
socket_header
  6
ByLayer
 62
  256
370
   -1
100
AcDbLine
 10
-3.810000000001168
 20
1.269999999999527
 11
-6.350000000001053
 21
1.269999999999527
  0
LINE
  5
256
100
AcDbEntity
  8
socket_header
  6
ByLayer
 62
  256
370
   -1
100
AcDbLine
 10
-3.810000000001168
 20
-1.270000000000479
 11
-6.350000000001053
 21
-1.270000000000479
  0
LINE
  5
257
100
AcDbEntity
  8
socket_header
  6
ByLayer
 62
  256
370
   -1
100
AcDbLine
 10
-3.810000000001168
 20
-3.810000000000485
 11
-6.350000000001053
 21
-3.810000000000485
  0
LINE
  5
258
100
AcDbEntity
  8
socket_header
  6
ByLayer
 62
  256
370
   -1
100
AcDbLine
 10
-3.810000000001168
 20
-6.350000000000577
 11
-6.350000000001053
 21
-6.350000000000577
  0
LINE
  5
259
100
AcDbEntity
  8
socket_header
  6
ByLayer
 62
  256
370
   -1
100
AcDbLine
 10
-3.810000000001168
 20
-8.890000000000583
 11
-6.350000000001053
 21
-8.890000000000583
  0
LINE
  5
25A
100
AcDbEntity
  8
socket_header
  6
ByLayer
 62
  256
370
   -1
100
AcDbLine
 10
3.809999999998482
 20
3.80999999999942
 11
1.269999999998589
 21
3.80999999999942
  0
LINE
  5
25B
100
AcDbEntity
  8
socket_header
  6
ByLayer
 62
  256
370
   -1
100
AcDbLine
 10
3.809999999998482
 20
1.269999999999527
 11
1.269999999998589
 21
1.269999999999527
  0
LINE
  5
25C
100
AcDbEntity
  8
socket_header
  6
ByLayer
 62
  256
370
   -1
100
AcDbLine
 10
3.809999999998482
 20
-1.270000000000479
 11
1.269999999998589
 21
-1.270000000000479
  0
LINE
  5
25D
100
AcDbEntity
  8
socket_header
  6
ByLayer
 62
  256
370
   -1
100
AcDbLine
 10
3.809999999998482
 20
-3.810000000000485
 11
1.269999999998589
 21
-3.810000000000485
  0
LINE
  5
25E
100
AcDbEntity
  8
socket_header
  6
ByLayer
 62
  256
370
   -1
100
AcDbLine
 10
3.809999999998482
 20
-6.350000000000577
 11
1.269999999998589
 21
-6.350000000000577
  0
LINE
  5
25F
100
AcDbEntity
  8
socket_header
  6
ByLayer
 62
  256
370
   -1
100
AcDbLine
 10
3.809999999998482
 20
-8.890000000000583
 11
1.269999999998589
 21
-8.890000000000583
  0
LINE
  5
260
100
AcDbEntity
  8
micon
  6
ByLayer
 62
  256
370
   -1
100
AcDbLine
 10
-4.445000000001833
 20
6.985000000000326
 11
1.90499999999836
 21
6.985000000000326
  0
LINE
  5
261
100
AcDbEntity
  8
socket_header
  6
ByLayer
 62
  256
370
   -1
100
AcDbLine
 10
1.26999999999861
 20
-8.890000000000583
 11
1.26999999999861
 21
6.349999999999525
  0
LINE
  5
262
100
AcDbEntity
  8
socket_header
  6
ByLayer
 62
  256
370
   -1
100
AcDbLine
 10
1.269999999998589
 20
-8.890000000000583
 11
1.269999999998589
 21
-11.4300000000006
  0
LINE
  5
263
100
AcDbEntity
  8
socket_header
  6
ByLayer
 62
  256
370
   -1
100
AcDbLine
 10
-6.350000000001053
 20
-11.4300000000006
 11
1.269999999998589
 21
-11.4300000000006
  0
LINE
  5
264
100
AcDbEntity
  8
socket_header
  6
ByLayer
 62
  256
370
   -1
100
AcDbLine
 10
1.269999999998589
 20
-11.4300000000006
 11
3.809999999998482
 21
-11.4300000000006
  0
LINE
  5
265
100
AcDbEntity
  8
micon
  6
ByLayer
 62
  256
370
   -1
100
AcDbLine
 10
-4.444999999998352
 20
-12.06500000000003
 11
1.90500000000165
 21
-12.06500000000003
  0
LINE
  5
266
100
AcDbEntity
  8
socket_header
  6
ByLayer
 62
  256
370
   -1
100
AcDbLine
 10
-6.35000000000111
 20
6.349999999999525
 11
-6.35000000000111
 21
3.809999999999519
  0
LINE
  5
267
100
AcDbEntity
  8
socket_header
  6
ByLayer
 62
  256
370
   -1
100
AcDbLine
 10
-6.350000000001081
 20
-1.270000000000579
 11
-6.350000000001081
 21
-3.810000000000585
  0
LINE
  5
268
100
AcDbEntity
  8
socket_header
  6
ByLayer
 62
  256
370
   -1
100
AcDbLine
 10
6.349999999998353
 20
-6.350000000000577
 11
6.349999999998353
 21
-8.890000000000583
  0
LINE
  5
269
100
AcDbEntity
  8
socket_header
  6
ByLayer
 62
  256
370
   -1
100
AcDbLine
 10
6.349999999998339
 20
-3.810000000000585
 11
6.349999999998339
 21
-6.350000000000577
  0
LINE
  5
26A
100
AcDbEntity
  8
socket_header
  6
ByLayer
 62
  256
370
   -1
100
AcDbLine
 10
6.349999999998317
 20
-1.270000000000579
 11
6.349999999998317
 21
-3.810000000000585
  0
LINE
  5
26B
100
AcDbEntity
  8
socket_header
  6
ByLayer
 62
  256
370
   -1
100
AcDbLine
 10
6.349999999998317
 20
6.349999999999525
 11
6.349999999998317
 21
3.809999999999519
  0
LINE
  5
26C
100
AcDbEntity
  8
socket_header
  6
ByLayer
 62
  256
370
   -1
100
AcDbLine
 10
6.349999999998353
 20
-8.890000000000583
 11
6.349999999998353
 21
-11.43000000000063
  0
LINE
  5
26D
100
AcDbEntity
  8
socket_header
  6
ByLayer
 62
  256
370
   -1
100
AcDbLine
 10
8.889999999998238
 20
-6.350000000000577
 11
6.349999999998353
 21
-6.350000000000577
  0
LINE
  5
26E
100
AcDbEntity
  8
socket_header
  6
ByLayer
 62
  256
370
   -1
100
AcDbLine
 10
8.889999999998238
 20
-6.350000000000577
 11
8.889999999998238
 21
-8.890000000000583
  0
LINE
  5
26F
100
AcDbEntity
  8
socket_header
  6
ByLayer
 62
  256
370
   -1
100
AcDbLine
 10
6.349999999998353
 20
-8.890000000000583
 11
8.889999999998238
 21
-8.890000000000583
  0
LINE
  5
270
100
AcDbEntity
  8
socket_header
  6
ByLayer
 62
  256
370
   -1
100
AcDbLine
 10
8.889999999998217
 20
-3.810000000000585
 11
6.349999999998339
 21
-3.810000000000585
  0
LINE
  5
271
100
AcDbEntity
  8
socket_header
  6
ByLayer
 62
  256
370
   -1
100
AcDbLine
 10
8.889999999998217
 20
-3.810000000000585
 11
8.889999999998217
 21
-6.350000000000577
  0
LINE
  5
272
100
AcDbEntity
  8
socket_header
  6
ByLayer
 62
  256
370
   -1
100
AcDbLine
 10
6.349999999998339
 20
-6.350000000000577
 11
8.889999999998217
 21
-6.350000000000577
  0
LINE
  5
273
100
AcDbEntity
  8
socket_header
  6
ByLayer
 62
  256
370
   -1
100
AcDbLine
 10
8.889999999998203
 20
-1.270000000000579
 11
6.349999999998317
 21
-1.270000000000579
  0
LINE
  5
274
100
AcDbEntity
  8
socket_header
  6
ByLayer
 62
  256
370
   -1
100
AcDbLine
 10
8.889999999998203
 20
-1.270000000000579
 11
8.889999999998203
 21
-3.810000000000585
  0
LINE
  5
275
100
AcDbEntity
  8
socket_header
  6
ByLayer
 62
  256
370
   -1
100
AcDbLine
 10
6.349999999998317
 20
-3.810000000000585
 11
8.889999999998203
 21
-3.810000000000585
  0
LINE
  5
276
100
AcDbEntity
  8
socket_header
  6
ByLayer
 62
  256
370
   -1
100
AcDbLine
 10
8.889999999998203
 20
1.269999999999527
 11
8.889999999998203
 21
-1.270000000000479
  0
LINE
  5
277
100
AcDbEntity
  8
socket_header
  6
ByLayer
 62
  256
370
   -1
100
AcDbLine
 10
6.349999999998317
 20
-1.270000000000479
 11
8.889999999998203
 21
-1.270000000000479
  0
LINE
  5
278
100
AcDbEntity
  8
socket_header
  6
ByLayer
 62
  256
370
   -1
100
AcDbLine
 10
6.349999999998317
 20
1.269999999999527
 11
8.889999999998203
 21
1.269999999999527
  0
LINE
  5
279
100
AcDbEntity
  8
socket_header
  6
ByLayer
 62
  256
370
   -1
100
AcDbLine
 10
8.889999999998203
 20
3.809999999999519
 11
8.889999999998203
 21
1.269999999999527
  0
LINE
  5
27A
100
AcDbEntity
  8
socket_header
  6
ByLayer
 62
  256
370
   -1
100
AcDbLine
 10
6.349999999998317
 20
3.809999999999519
 11
6.349999999998317
 21
1.269999999999527
  0
LINE
  5
27B
100
AcDbEntity
  8
socket_header
  6
ByLayer
 62
  256
370
   -1
100
AcDbLine
 10
6.349999999998317
 20
1.269999999999527
 11
8.889999999998203
 21
1.269999999999527
  0
LINE
  5
27C
100
AcDbEntity
  8
socket_header
  6
ByLayer
 62
  256
370
   -1
100
AcDbLine
 10
6.349999999998317
 20
3.809999999999519
 11
8.889999999998203
 21
3.809999999999519
  0
LINE
  5
27D
100
AcDbEntity
  8
socket_header
  6
ByLayer
 62
  256
370
   -1
100
AcDbLine
 10
8.889999999998203
 20
6.349999999999525
 11
8.889999999998203
 21
3.809999999999519
  0
LINE
  5
27E
100
AcDbEntity
  8
socket_header
  6
ByLayer
 62
  256
370
   -1
100
AcDbLine
 10
6.349999999998317
 20
3.809999999999519
 11
8.889999999998203
 21
3.809999999999519
  0
LINE
  5
27F
100
AcDbEntity
  8
socket_header
  6
ByLayer
 62
  256
370
   -1
100
AcDbLine
 10
6.349999999998317
 20
6.349999999999525
 11
8.889999999998203
 21
6.349999999999525
  0
LINE
  5
280
100
AcDbEntity
  8
socket_header
  6
ByLayer
 62
  256
370
   -1
100
AcDbLine
 10
8.889999999998238
 20
-8.890000000000583
 11
8.889999999998238
 21
-11.43000000000063
  0
LINE
  5
281
100
AcDbEntity
  8
socket_header
  6
ByLayer
 62
  256
370
   -1
100
AcDbLine
 10
6.349999999998353
 20
-11.43000000000063
 11
8.889999999998238
 21
-11.43000000000063
  0
LINE
  5
282
100
AcDbEntity
  8
socket_header
  6
ByLayer
 62
  256
370
   -1
100
AcDbLine
 10
6.349999999998339
 20
-8.890000000000583
 11
8.889999999998217
 21
-8.890000000000583
  0
LINE
  5
283
100
AcDbEntity
  8
socket_header
  6
ByLayer
 62
  256
370
   -1
100
AcDbLine
 10
3.809999999998482
 20
-8.890000000000583
 11
3.809999999998482
 21
6.349999999999525
  0
LINE
  5
284
100
AcDbEntity
  8
socket_header
  6
ByLayer
 62
  256
370
   -1
100
AcDbLine
 10
3.809999999998482
 20
-8.890000000000583
 11
3.809999999998482
 21
-11.4300000000006
  0
LINE
  5
285
100
AcDbEntity
  8
socket_header
  6
ByLayer
 62
  256
370
   -1
100
AcDbLine
 10
6.349999999998317
 20
1.269999999999527
 11
6.349999999998317
 21
-1.270000000000479
  0
LINE
  5
286
100
AcDbEntity
  8
0_wire
  6
ByLayer
 62
  256
370
   -1
100
AcDbLine
 10
2.539999999999878
 20
-5.079999999999885
 11
7.619999999999642
 21
-5.079999999999885
  0
LINE
  5
287
100
AcDbEntity
  8
0_wire
  6
ByLayer
 62
  256
370
   -1
100
AcDbLine
 10
2.539999999999878
 20
-7.619999999999877
 11
7.619999999999649
 21
-7.619999999999877
  0
MTEXT
  5
288
100
AcDbEntity
  8
socket_header
  6
ByLayer
 62
  256
370
   -1
100
AcDbMText
 10
-5.315554787146432
 20
-12.14588703814661
 30
0
 40
1
 41
1.112312546778522
 71
    5
 72
    1
  1
S1
  7
unicode
210
0
220
0
230
1
 50
0
 73
    2
 44
1
  0
MTEXT
  5
289
100
AcDbEntity
  8
micon
  6
ByLayer
 62
  256
370
   -1
100
AcDbMText
 10
-4.100872882834302
 20
6.212673310439314
 30
0
 40
1
 41
1.111111111111111
 71
    4
 72
    1
  1
U1
  7
iso
210
0
220
0
230
1
 50
0
 73
    2
 44
1.54
  0
MTEXT
  5
28A
100
AcDbEntity
  8
condenser
  6
ByLayer
 62
  256
370
   -1
100
AcDbMText
 10
-7.268930506251088
 20
7.648984542117816
 30
0
 40
1
 41
0.9999999999999999
 71
    4
 72
    1
  1
C1
  7
unicode
210
0
220
0
230
1
 50
0
 73
    2
 44
1.54
  0
LINE
  5
28B
100
AcDbEntity
  8
0_wire
  6
ByLayer
 62
  256
370
   -1
100
AcDbLine
 10
2.539999999999907
 20
-10.15999999999997
 11
7.619999999999671
 21
-10.15999999999997
  0
MTEXT
  5
28C
100
AcDbEntity
  8
micon
  6
ByLayer
 62
  256
370
   -1
100
AcDbMText
 10
-5.652064777506133
 20
-2.256269649472387
 30
0
 40
1
 41
3.111111111111174
 71
    4
 72
    1
  1
VDD\PRA5\PRA4\PMCLR\PRC5\PRC4\PRC3
  7
iso
210
0
220
0
230
1
 50
0
 73
    2
 44
1.54
  0
MTEXT
  5
28D
100
AcDbEntity
  8
socket_header
  6
ByLayer
 62
  256
370
   -1
100
AcDbMText
 10
9.388249584099682
 20
-2.656235001272776
 30
0
 40
1
 41
2.126666666666666
 71
    4
 72
    1
  1
GND\PRA0\PRA1\P3V3\PRC0\PRC1\PRC2
  7
kst32b
210
0
220
0
230
1
 50
0
 73
    2
 44
1.54
  0
LINE
  5
28E
100
AcDbEntity
  8
socket_header
  6
ByLayer
 62
  256
370
   -1
100
AcDbLine
 10
-8.890000000000981
 20
6.349999999999525
 11
-8.890000000000981
 21
3.809999999999519
  0
LINE
  5
28F
100
AcDbEntity
  8
socket_header
  6
ByLayer
 62
  256
370
   -1
100
AcDbLine
 10
-8.89000000000096
 20
3.809999999999519
 11
-8.89000000000096
 21
1.269999999999527
  0
LINE
  5
290
100
AcDbEntity
  8
socket_header
  6
ByLayer
 62
  256
370
   -1
100
AcDbLine
 10
-8.89000000000096
 20
-1.270000000000479
 11
-8.89000000000096
 21
-3.810000000000585
  0
LINE
  5
291
100
AcDbEntity
  8
socket_header
  6
ByLayer
 62
  256
370
   -1
100
AcDbLine
 10
-11.43000000000087
 20
6.349999999999525
 11
-11.43000000000087
 21
3.809999999999519
  0
LINE
  5
292
100
AcDbEntity
  8
socket_header
  6
ByLayer
 62
  256
370
   -1
100
AcDbLine
 10
-11.43000000000087
 20
3.809999999999519
 11
-8.890000000000988
 21
3.809999999999519
  0
LINE
  5
293
100
AcDbEntity
  8
socket_header
  6
ByLayer
 62
  256
370
   -1
100
AcDbLine
 10
-11.43000000000089
 20
6.349999999999525
 11
-8.890000000001002
 21
6.349999999999525
  0
LINE
  5
294
100
AcDbEntity
  8
socket_header
  6
ByLayer
 62
  256
370
   -1
100
AcDbLine
 10
-8.890000000000967
 20
3.809999999999519
 11
-8.890000000000967
 21
1.269999999999413
  0
LINE
  5
295
100
AcDbEntity
  8
socket_header
  6
ByLayer
 62
  256
370
   -1
100
AcDbLine
 10
-11.43000000000087
 20
3.809999999999519
 11
-11.43000000000087
 21
1.269999999999413
  0
LINE
  5
296
100
AcDbEntity
  8
socket_header
  6
ByLayer
 62
  256
370
   -1
100
AcDbLine
 10
-11.43000000000087
 20
1.269999999999413
 11
-8.890000000000967
 21
1.269999999999413
  0
LINE
  5
297
100
AcDbEntity
  8
socket_header
  6
ByLayer
 62
  256
370
   -1
100
AcDbLine
 10
-11.43000000000087
 20
3.80999999999942
 11
-8.890000000000988
 21
3.80999999999942
  0
LINE
  5
298
100
AcDbEntity
  8
socket_header
  6
ByLayer
 62
  256
370
   -1
100
AcDbLine
 10
-11.43000000000084
 20
-3.810000000000585
 11
-11.43000000000084
 21
-6.350000000000577
  0
LINE
  5
299
100
AcDbEntity
  8
socket_header
  6
ByLayer
 62
  256
370
   -1
100
AcDbLine
 10
-11.43000000000084
 20
-6.350000000000577
 11
-8.89000000000096
 21
-6.350000000000577
  0
LINE
  5
29A
100
AcDbEntity
  8
socket_header
  6
ByLayer
 62
  256
370
   -1
100
AcDbLine
 10
-11.43000000000085
 20
-3.810000000000585
 11
-8.890000000000967
 21
-3.810000000000585
  0
LINE
  5
29B
100
AcDbEntity
  8
socket_header
  6
ByLayer
 62
  256
370
   -1
100
AcDbLine
 10
-11.43000000000083
 20
-6.350000000000577
 11
-11.43000000000083
 21
-8.890000000000583
  0
LINE
  5
29C
100
AcDbEntity
  8
socket_header
  6
ByLayer
 62
  256
370
   -1
100
AcDbLine
 10
-11.43000000000083
 20
-8.890000000000583
 11
-8.890000000000953
 21
-8.890000000000583
  0
LINE
  5
29D
100
AcDbEntity
  8
socket_header
  6
ByLayer
 62
  256
370
   -1
100
AcDbLine
 10
-11.43000000000084
 20
-6.350000000000577
 11
-8.89000000000096
 21
-6.350000000000577
  0
LINE
  5
29E
100
AcDbEntity
  8
socket_header
  6
ByLayer
 62
  256
370
   -1
100
AcDbLine
 10
-11.43000000000082
 20
-8.890000000000583
 11
-11.43000000000082
 21
-11.43000000000063
  0
LINE
  5
29F
100
AcDbEntity
  8
socket_header
  6
ByLayer
 62
  256
370
   -1
100
AcDbLine
 10
-11.43000000000082
 20
-11.43000000000063
 11
-8.890000000000938
 21
-11.43000000000063
  0
LINE
  5
2A0
100
AcDbEntity
  8
socket_header
  6
ByLayer
 62
  256
370
   -1
100
AcDbLine
 10
-11.43000000000084
 20
-8.890000000000683
 11
-8.890000000000953
 21
-8.890000000000683
  0
LINE
  5
2A1
100
AcDbEntity
  8
socket_header
  6
ByLayer
 62
  256
370
   -1
100
AcDbLine
 10
-8.890000000000967
 20
1.269999999999413
 11
-8.890000000000967
 21
-1.270000000000579
  0
LINE
  5
2A2
100
AcDbEntity
  8
socket_header
  6
ByLayer
 62
  256
370
   -1
100
AcDbLine
 10
-11.43000000000085
 20
1.269999999999413
 11
-11.43000000000085
 21
-1.270000000000579
  0
LINE
  5
2A3
100
AcDbEntity
  8
socket_header
  6
ByLayer
 62
  256
370
   -1
100
AcDbLine
 10
-11.43000000000085
 20
-1.270000000000579
 11
-8.890000000000967
 21
-1.270000000000579
  0
LINE
  5
2A4
100
AcDbEntity
  8
socket_header
  6
ByLayer
 62
  256
370
   -1
100
AcDbLine
 10
-11.43000000000087
 20
1.269999999999413
 11
-8.890000000000981
 21
1.269999999999413
  0
LINE
  5
2A5
100
AcDbEntity
  8
socket_header
  6
ByLayer
 62
  256
370
   -1
100
AcDbLine
 10
-11.43000000000084
 20
-1.270000000000579
 11
-11.43000000000084
 21
-3.810000000000585
  0
LINE
  5
2A6
100
AcDbEntity
  8
socket_header
  6
ByLayer
 62
  256
370
   -1
100
AcDbLine
 10
-11.43000000000084
 20
-3.810000000000585
 11
-8.89000000000096
 21
-3.810000000000585
  0
LINE
  5
2A7
100
AcDbEntity
  8
socket_header
  6
ByLayer
 62
  256
370
   -1
100
AcDbLine
 10
-11.43000000000086
 20
-1.270000000000579
 11
-8.890000000000967
 21
-1.270000000000579
  0
MTEXT
  5
2A8
100
AcDbEntity
  8
socket_header
  6
ByLayer
 62
  256
370
   -1
100
AcDbMText
 10
-13.52427312214234
 20
-2.655627591517074
 30
0
 40
1
 41
2.946666666666667
 71
    4
 72
    1
  1
5V\PRA5\PRA4\PMCLR\PRC5\PRC4\PRC3
  7
kst32b
210
0
220
0
230
1
 50
0
 73
    2
 44
1.54
  0
LINE
  5
2A9
100
AcDbEntity
  8
socket_header
  6
ByLayer
 62
  256
370
   -1
100
AcDbLine
 10
-8.89000000000096
 20
-3.810000000000585
 11
-8.89000000000096
 21
-6.350000000000577
  0
LINE
  5
2AA
100
AcDbEntity
  8
socket_header
  6
ByLayer
 62
  256
370
   -1
100
AcDbLine
 10
-8.890000000000953
 20
-6.350000000000577
 11
-8.890000000000953
 21
-8.890000000000583
  0
LINE
  5
2AB
100
AcDbEntity
  8
socket_header
  6
ByLayer
 62
  256
370
   -1
100
AcDbLine
 10
-8.890000000000938
 20
-8.890000000000583
 11
-8.890000000000938
 21
-11.43000000000063
  0
LINE
  5
2AC
100
AcDbEntity
  8
socket_header
  6
ByLayer
 62
  256
370
   -1
100
AcDbLine
 10
-6.35000000000111
 20
3.809999999999519
 11
-6.350000000001053
 21
1.269999999999527
  0
LINE
  5
2AD
100
AcDbEntity
  8
socket_header
  6
ByLayer
 62
  256
370
   -1
100
AcDbLine
 10
-6.350000000001053
 20
1.269999999999527
 11
-6.350000000001081
 21
-1.270000000000579
  0
LINE
  5
2AE
100
AcDbEntity
  8
socket_header
  6
ByLayer
 62
  256
370
   -1
100
AcDbLine
 10
-6.350000000001053
 20
-3.810000000000485
 11
-6.350000000001053
 21
-6.350000000000577
  0
LINE
  5
2AF
100
AcDbEntity
  8
socket_header
  6
ByLayer
 62
  256
370
   -1
100
AcDbLine
 10
-6.350000000001053
 20
-6.350000000000577
 11
-6.350000000001053
 21
-8.890000000000583
  0
LINE
  5
2B0
100
AcDbEntity
  8
socket_header
  6
ByLayer
 62
  256
370
   -1
100
AcDbLine
 10
-6.350000000001053
 20
-8.890000000000583
 11
-6.350000000001053
 21
-11.4300000000006
  0
LINE
  5
2B1
100
AcDbEntity
  8
0_wire
  6
ByLayer
 62
  256
370
   -1
100
AcDbLine
 10
-5.079999999999778
 20
2.54000000000012
 11
-10.15999999999952
 21
2.54000000000012
  0
LINE
  5
2B2
100
AcDbEntity
  8
0_wire
  6
ByLayer
 62
  256
370
   -1
100
AcDbLine
 10
-5.079999999999778
 20
1.13686837721616e-13
 11
-10.15999999999951
 21
1.13686837721616e-13
  0
LINE
  5
2B3
100
AcDbEntity
  8
0_wire
  6
ByLayer
 62
  256
370
   -1
100
AcDbLine
 10
-5.079999999999778
 20
-2.539999999999878
 11
-10.15999999999949
 21
-2.540000000000077
  0
LINE
  5
2B4
100
AcDbEntity
  8
0_wire
  6
ByLayer
 62
  256
370
   -1
100
AcDbLine
 10
-5.079999999999778
 20
-5.079999999999885
 11
-10.15999999999948
 21
-5.079999999999885
  0
LINE
  5
2B5
100
AcDbEntity
  8
0_wire
  6
ByLayer
 62
  256
370
   -1
100
AcDbLine
 10
-5.079999999999778
 20
-7.619999999999877
 11
-10.15999999999946
 21
-7.619999999999877
  0
LINE
  5
2B6
100
AcDbEntity
  8
0_wire
  6
ByLayer
 62
  256
370
   -1
100
AcDbLine
 10
-5.079999999999771
 20
-10.15999999999997
 11
-10.15999999999945
 21
-10.15999999999997
  0
LINE
  5
2B7
100
AcDbEntity
  8
0_GND
  6
ByLayer
 62
  256
370
   -1
100
AcDbLine
 10
2.539999999999843
 20
5.080000000000126
 11
7.6199999999996
 21
5.080000000000126
  0
LINE
  5
2B8
100
AcDbEntity
  8
0_wire
  6
ByLayer
 62
  256
370
   -1
100
AcDbLine
 10
2.53999999999985
 20
2.54000000000012
 11
7.619999999999607
 21
2.54000000000012
  0
LINE
  5
2B9
100
AcDbEntity
  8
0_wire
  6
ByLayer
 62
  256
370
   -1
100
AcDbLine
 10
2.53999999999985
 20
1.13686837721616e-13
 11
7.619999999999607
 21
1.13686837721616e-13
  0
MTEXT
  5
2BA
100
AcDbEntity
  8
micon
  6
ByLayer
 62
  256
370
   -1
100
AcDbMText
 10
-0.5200335950809318
 20
-2.15312215297368
 30
0
 40
1
 41
2.333333333333519
 71
    4
 72
    1
  1
GND\PD+\PD-\P3V3\PRC0\PRC1\PRC2
  7
iso
210
0
220
0
230
1
 50
0
 73
    2
 44
1.54
  0
LINE
  5
2BB
100
AcDbEntity
  8
socket_header
  6
ByLayer
 62
  256
370
   -1
100
AcDbLine
 10
-6.350000000001131
 20
11.42999999999962
 11
-6.350000000001131
 21
8.889999999999617
  0
LINE
  5
2BC
100
AcDbEntity
  8
socket_header
  6
ByLayer
 62
  256
370
   -1
100
AcDbLine
 10
-6.350000000001131
 20
8.889999999999617
 11
-3.810000000001253
 21
8.889999999999617
  0
LINE
  5
2BD
100
AcDbEntity
  8
socket_header
  6
ByLayer
 62
  256
370
   -1
100
AcDbLine
 10
-6.350000000001138
 20
11.42999999999962
 11
-3.81000000000126
 21
11.42999999999962
  0
LINE
  5
2BE
100
AcDbEntity
  8
socket_header
  6
ByLayer
 62
  256
370
   -1
100
AcDbLine
 10
1.269999999998518
 20
11.42999999999962
 11
1.269999999998518
 21
8.889999999999617
  0
LINE
  5
2BF
100
AcDbEntity
  8
socket_header
  6
ByLayer
 62
  256
370
   -1
100
AcDbLine
 10
-1.270000000001367
 20
11.42999999999962
 11
-1.270000000001367
 21
8.889999999999617
  0
LINE
  5
2C0
100
AcDbEntity
  8
socket_header
  6
ByLayer
 62
  256
370
   -1
100
AcDbLine
 10
-1.270000000001367
 20
8.889999999999617
 11
1.269999999998511
 21
8.889999999999617
  0
LINE
  5
2C1
100
AcDbEntity
  8
socket_header
  6
ByLayer
 62
  256
370
   -1
100
AcDbLine
 10
-1.270000000001389
 20
11.42999999999962
 11
1.269999999998497
 21
11.42999999999962
  0
LINE
  5
2C2
100
AcDbEntity
  8
socket_header
  6
ByLayer
 62
  256
370
   -1
100
AcDbLine
 10
3.809999999998396
 20
11.42999999999962
 11
3.809999999998396
 21
8.889999999999617
  0
LINE
  5
2C3
100
AcDbEntity
  8
socket_header
  6
ByLayer
 62
  256
370
   -1
100
AcDbLine
 10
1.269999999998497
 20
11.42999999999962
 11
1.269999999998497
 21
8.889999999999617
  0
LINE
  5
2C4
100
AcDbEntity
  8
socket_header
  6
ByLayer
 62
  256
370
   -1
100
AcDbLine
 10
1.269999999998497
 20
8.889999999999617
 11
3.809999999998389
 21
8.889999999999617
  0
LINE
  5
2C5
100
AcDbEntity
  8
socket_header
  6
ByLayer
 62
  256
370
   -1
100
AcDbLine
 10
1.26999999999849
 20
11.42999999999962
 11
3.809999999998382
 21
11.42999999999962
  0
LINE
  5
2C6
100
AcDbEntity
  8
socket_header
  6
ByLayer
 62
  256
370
   -1
100
AcDbLine
 10
6.349999999998282
 20
11.42999999999962
 11
6.349999999998282
 21
8.889999999999617
  0
LINE
  5
2C7
100
AcDbEntity
  8
socket_header
  6
ByLayer
 62
  256
370
   -1
100
AcDbLine
 10
3.809999999998382
 20
11.42999999999962
 11
3.809999999998382
 21
8.889999999999617
  0
LINE
  5
2C8
100
AcDbEntity
  8
socket_header
  6
ByLayer
 62
  256
370
   -1
100
AcDbLine
 10
3.809999999998382
 20
8.889999999999617
 11
6.349999999998268
 21
8.889999999999617
  0
LINE
  5
2C9
100
AcDbEntity
  8
socket_header
  6
ByLayer
 62
  256
370
   -1
100
AcDbLine
 10
3.809999999998368
 20
11.42999999999962
 11
6.349999999998246
 21
11.42999999999962
  0
LINE
  5
2CA
100
AcDbEntity
  8
condenser
  6
ByLayer
 62
  256
370
   -1
100
AcDbLine
 10
-6.719999999999779
 20
8.100000000001017
 11
-8.520000000000593
 21
8.100000000001017
  0
LINE
  5
2CB
100
AcDbEntity
  8
condenser
  6
ByLayer
 62
  256
370
   -1
100
AcDbLine
 10
-8.520000000000593
 20
8.100000000001017
 11
-8.520000000000593
 21
4.60000000000052
  0
LINE
  5
2CC
100
AcDbEntity
  8
condenser
  6
ByLayer
 62
  256
370
   -1
100
AcDbLine
 10
-8.520000000000593
 20
4.60000000000052
 11
-6.719999999999779
 21
4.60000000000052
  0
LINE
  5
2CD
100
AcDbEntity
  8
condenser
  6
ByLayer
 62
  256
370
   -1
100
AcDbLine
 10
-6.719999999999779
 20
4.60000000000052
 11
-6.719999999999779
 21
8.100000000001017
  0
LINE
  5
2CE
100
AcDbEntity
  8
condenser
  6
ByLayer
 62
  256
370
   -1
100
AcDbLine
 10
-7.619999999999884
 20
5.080000000000624
 11
-7.619999999999884
 21
4.60000000000052
  0
LINE
  5
2CF
100
AcDbEntity
  8
condenser
  6
ByLayer
 62
  256
370
   -1
100
AcDbLine
 10
-7.619999999999884
 20
8.100000000001017
 11
-7.619999999999884
 21
7.620000000000516
  0
LINE
  5
2D0
100
AcDbEntity
  8
socket_header
  6
ByLayer
 62
  256
370
   -1
100
AcDbLine
 10
-8.890000000000995
 20
11.42999999999962
 11
-8.890000000000995
 21
8.889999999999617
  0
LINE
  5
2D1
100
AcDbEntity
  8
socket_header
  6
ByLayer
 62
  256
370
   -1
100
AcDbLine
 10
-8.890000000000995
 20
8.889999999999617
 11
-6.350000000001117
 21
8.889999999999617
  0
LINE
  5
2D2
100
AcDbEntity
  8
socket_header
  6
ByLayer
 62
  256
370
   -1
100
AcDbLine
 10
-8.890000000001002
 20
11.42999999999962
 11
-6.350000000001124
 21
11.42999999999962
  0
LINE
  5
2D3
100
AcDbEntity
  8
socket_header
  6
ByLayer
 62
  256
370
   -1
100
AcDbLine
 10
-6.350000000001117
 20
11.42999999999962
 11
-6.350000000001117
 21
8.889999999999617
  0
CIRCLE
  5
2D4
100
AcDbEntity
  8
5V line
  6
ByLayer
 62
  256
370
   -1
100
AcDbCircle
 10
-5.079999999999814
 20
10.16000000000022
 40
0.4
  0
LWPOLYLINE
  5
2D5
100
AcDbEntity
  8
resister
  6
DOTTINY
 62
  256
370
   -1
100
AcDbPolyline
 90
    4
 70
    0
 43
0
 10
-5.079999999999814
 20
10.16000000000022
 10
-4.575106746962149
 20
9.557022754544178
 10
-4.672718938082134
 20
5.782684697904656
 10
-5.079999999999792
 20
5.080000000000126
  0
LINE
  5
2D6
100
AcDbEntity
  8
5V line
  6
DOTTINY
 62
  256
370
   50
100
AcDbLine
 10
-5.079999999999792
 20
5.080000000000126
 11
-7.619999999999671
 21
5.080000000000126
  0
LINE
  5
2D7
100
AcDbEntity
  8
5V line
  6
DOTTINY
 62
  256
370
   50
100
AcDbLine
 10
-7.619999999999671
 20
5.080000000000126
 11
-10.15999999999955
 21
5.080000000000126
  0
LINE
  5
2D8
100
AcDbEntity
  8
0_GND
  6
ByLayer
 62
  256
370
   -1
100
AcDbLine
 10
-7.619999999999678
 20
7.620000000000218
 11
-2.539999999999928
 21
7.620000000000218
  0
LINE
  5
2D9
100
AcDbEntity
  8
0_GND
  6
ByLayer
 62
  256
370
   -1
100
AcDbLine
 10
-2.539999999999928
 20
7.620000000000218
 11
-2.539999999999914
 21
5.080000000000126
  0
LINE
  5
2DA
100
AcDbEntity
  8
0_GND
  6
ByLayer
 62
  256
370
   -1
100
AcDbLine
 10
-2.539999999999914
 20
5.080000000000126
 11
2.539999999999843
 21
5.080000000000126
  0
LINE
  5
2DB
100
AcDbEntity
  8
0_wire
  6
ByLayer
 62
  256
370
   -1
100
AcDbLine
 10
5.079999999999707
 20
10.16000000000022
 11
5.079999999999707
 21
7.620000000000218
  0
LWPOLYLINE
  5
2DC
100
AcDbEntity
  8
resister
  6
ByLayer
 62
  256
370
   -1
100
AcDbPolyline
 90
    4
 70
    0
 43
0
 10
5.079999999999707
 20
7.620000000000218
 10
5.784239851221606
 20
7.065763599345104
 10
5.742176512987605
 20
-6.773074679640374
 10
5.079999999999757
 20
-7.619999999999976
  0
LINE
  5
2DD
100
AcDbEntity
  8
condenser
  6
ByLayer
 62
  256
370
   -1
100
AcDbLine
 10
8.770000000000906
 20
7.040000000001911
 11
8.770000000000906
 21
10.74000000000171
  0
LINE
  5
2DE
100
AcDbEntity
  8
condenser
  6
ByLayer
 62
  256
370
   -1
100
AcDbLine
 10
8.770000000000906
 20
10.74000000000171
 11
6.469999999998251
 21
10.74000000000171
  0
LINE
  5
2DF
100
AcDbEntity
  8
condenser
  6
ByLayer
 62
  256
370
   -1
100
AcDbLine
 10
6.469999999998251
 20
10.74000000000171
 11
6.469999999998251
 21
7.040000000001911
  0
LINE
  5
2E0
100
AcDbEntity
  8
condenser
  6
ByLayer
 62
  256
370
   -1
100
AcDbLine
 10
6.469999999998251
 20
7.040000000001911
 11
8.770000000000906
 21
7.040000000001911
  0
MTEXT
  5
2E1
100
AcDbEntity
  8
condenser
  6
ByLayer
 62
  256
370
   -1
100
AcDbMText
 10
7.177650389382769
 20
9.80896715452991
 30
0
 40
1
 41
1.222222222222222
 71
    4
 72
    1
  1
C2
  7
unicode
210
0
220
0
230
1
 50
0
 73
    2
 44
1.54
  0
LINE
  5
2E2
100
AcDbEntity
  8
condenser
  6
ByLayer
 62
  256
370
   -1
100
AcDbLine
 10
7.619999999999592
 20
7.040000000001911
 11
7.619999999999592
 21
7.620000000000218
  0
LINE
  5
2E3
100
AcDbEntity
  8
condenser
  6
ByLayer
 62
  256
370
   -1
100
AcDbLine
 10
7.619999999999578
 20
10.16000000000022
 11
7.619999999999578
 21
10.74000000000171
  0
CIRCLE
  5
2E4
100
AcDbEntity
  8
3.3V line
  6
ByLayer
 62
  256
370
   -1
100
AcDbCircle
 10
7.619999999999592
 20
10.16000000000022
 40
0.4
  0
LINE
  5
2E5
100
AcDbEntity
  8
socket_header
  6
ByLayer
 62
  256
370
   15
100
AcDbLine
 10
-3.809999999996279
 20
11.42999999999952
 11
-3.809999999996279
 21
8.889999999999517
  0
MTEXT
  5
2E6
100
AcDbEntity
  8
socket_header
  6
ByLayer
 62
  256
370
   -1
100
AcDbMText
 10
-1.735546248834858
 20
10.74628635387049
 30
0
 40
1
 41
2.126666666666666
 71
    4
 72
    1
  1
GND\P5V\P\PSS\PDAT\PCLK
  7
kst32b
210
0
220
0
230
1
 50
90
 73
    2
 44
1.54
  0
LINE
  5
2E7
100
AcDbEntity
  8
universal_board
  6
ByLayer
 62
  256
370
   -1
100
AcDbLine
 10
-11.42999999999941
 20
11.43000000000008
 11
-11.42999999999941
 21
-11.43000000000009
  0
LINE
  5
2E8
100
AcDbEntity
  8
universal_board
  6
ByLayer
 62
  256
370
   -1
100
AcDbLine
 10
8.88999999999961
 20
11.43000000000009
 11
8.88999999999961
 21
-11.43000000000009
  0
LINE
  5
2E9
100
AcDbEntity
  8
universal_board
  6
ByLayer
 62
  256
370
   -1
100
AcDbLine
 10
-11.42999999999945
 20
11.43000000000008
 11
8.88999999999961
 21
11.43000000000009
  0
LINE
  5
2EA
100
AcDbEntity
  8
universal_board
  6
ByLayer
 62
  256
370
   -1
100
AcDbLine
 10
-11.4299999999994
 20
-11.43000000000011
 11
8.88999999999961
 21
-11.43000000000009
  0
LINE
  5
2EB
100
AcDbEntity
  8
socket_header
  6
ByLayer
 62
  256
370
   -1
100
AcDbLine
 10
-8.890000000000988
 20
19.04999999999939
 11
-6.350000000001103
 21
19.04999999999939
  0
LINE
  5
2EC
100
AcDbEntity
  8
socket_header
  6
ByLayer
 62
  256
370
   -1
100
AcDbLine
 10
-6.350000000001081
 20
19.04999999999949
 11
-6.350000000001081
 21
16.50999999999948
  0
LINE
  5
2ED
100
AcDbEntity
  8
socket_header
  6
ByLayer
 62
  256
370
   -1
100
AcDbLine
 10
-8.890000000000974
 20
19.04999999999949
 11
-8.890000000000974
 21
16.50999999999948
  0
LINE
  5
2EE
100
AcDbEntity
  8
socket_header
  6
ByLayer
 62
  256
370
   -1
100
AcDbLine
 10
-8.890000000000974
 20
16.50999999999938
 11
-6.350000000001089
 21
16.50999999999938
  0
LINE
  5
2EF
100
AcDbEntity
  8
socket_header
  6
ByLayer
 62
  256
370
   -1
100
AcDbLine
 10
-6.350000000001124
 20
19.04999999999939
 11
-3.810000000001239
 21
19.04999999999939
  0
LINE
  5
2F0
100
AcDbEntity
  8
socket_header
  6
ByLayer
 62
  256
370
   -1
100
AcDbLine
 10
-3.810000000001217
 20
19.04999999999949
 11
-3.810000000001217
 21
16.50999999999948
  0
LINE
  5
2F1
100
AcDbEntity
  8
socket_header
  6
ByLayer
 62
  256
370
   -1
100
AcDbLine
 10
-6.35000000000111
 20
19.04999999999949
 11
-6.35000000000111
 21
16.50999999999948
  0
LINE
  5
2F2
100
AcDbEntity
  8
socket_header
  6
ByLayer
 62
  256
370
   -1
100
AcDbLine
 10
-6.35000000000111
 20
16.50999999999938
 11
-3.810000000001224
 21
16.50999999999938
  0
LINE
  5
2F3
100
AcDbEntity
  8
socket_header
  6
ByLayer
 62
  256
370
   -1
100
AcDbLine
 10
-1.27000000000136
 20
19.04999999999939
 11
1.269999999998525
 21
19.04999999999939
  0
LINE
  5
2F4
100
AcDbEntity
  8
socket_header
  6
ByLayer
 62
  256
370
   -1
100
AcDbLine
 10
1.269999999998547
 20
19.04999999999949
 11
1.269999999998547
 21
16.50999999999948
  0
LINE
  5
2F5
100
AcDbEntity
  8
socket_header
  6
ByLayer
 62
  256
370
   -1
100
AcDbLine
 10
-1.270000000001346
 20
19.04999999999949
 11
-1.270000000001346
 21
16.50999999999948
  0
LINE
  5
2F6
100
AcDbEntity
  8
socket_header
  6
ByLayer
 62
  256
370
   -1
100
AcDbLine
 10
-1.270000000001346
 20
16.50999999999938
 11
1.269999999998539
 21
16.50999999999938
  0
LINE
  5
2F7
100
AcDbEntity
  8
socket_header
  6
ByLayer
 62
  256
370
   -1
100
AcDbLine
 10
1.269999999998518
 20
19.04999999999939
 11
3.809999999998404
 21
19.04999999999939
  0
LINE
  5
2F8
100
AcDbEntity
  8
socket_header
  6
ByLayer
 62
  256
370
   -1
100
AcDbLine
 10
3.809999999998425
 20
19.04999999999949
 11
3.809999999998425
 21
16.50999999999948
  0
LINE
  5
2F9
100
AcDbEntity
  8
socket_header
  6
ByLayer
 62
  256
370
   -1
100
AcDbLine
 10
1.269999999998532
 20
19.04999999999949
 11
1.269999999998532
 21
16.50999999999948
  0
LINE
  5
2FA
100
AcDbEntity
  8
socket_header
  6
ByLayer
 62
  256
370
   -1
100
AcDbLine
 10
1.269999999998532
 20
16.50999999999938
 11
3.809999999998418
 21
16.50999999999938
  0
LINE
  5
2FB
100
AcDbEntity
  8
socket_header
  6
ByLayer
 62
  256
370
   -1
100
AcDbLine
 10
6.349999999998303
 20
19.04999999999949
 11
6.349999999998303
 21
16.50999999999948
  0
LINE
  5
2FC
100
AcDbEntity
  8
socket_header
  6
ByLayer
 62
  256
370
   -1
100
AcDbLine
 10
3.809999999998411
 20
19.04999999999949
 11
3.809999999998411
 21
16.50999999999948
  0
LINE
  5
2FD
100
AcDbEntity
  8
socket_header
  6
ByLayer
 62
  256
370
   -1
100
AcDbLine
 10
3.809999999998411
 20
16.50999999999938
 11
6.349999999998296
 21
16.50999999999938
  0
LINE
  5
2FE
100
AcDbEntity
  8
0_wire
  6
ByLayer
 62
  256
370
   -1
100
AcDbLine
 10
0
 20
22.85999999999993
 11
0
 21
17.77999999999994
  0
LINE
  5
2FF
100
AcDbEntity
  8
socket_header
  6
ByLayer
 62
  256
370
   -1
100
AcDbLine
 10
-6.350000000001145
 20
39.36999999999956
 11
-6.350000000001145
 21
36.82999999999956
  0
LINE
  5
300
100
AcDbEntity
  8
socket_header
  6
ByLayer
 62
  256
370
   -1
100
AcDbLine
 10
-8.890000000001038
 20
39.36999999999956
 11
-8.890000000001038
 21
36.82999999999956
  0
LINE
  5
301
100
AcDbEntity
  8
socket_header
  6
ByLayer
 62
  256
370
   -1
100
AcDbLine
 10
-8.890000000001052
 20
39.36999999999956
 11
-6.350000000001167
 21
39.36999999999956
  0
LINE
  5
302
100
AcDbEntity
  8
socket_header
  6
ByLayer
 62
  256
370
   -1
100
AcDbLine
 10
-8.890000000001038
 20
36.82999999999946
 11
-6.350000000001153
 21
36.82999999999946
  0
LINE
  5
303
100
AcDbEntity
  8
socket_header
  6
ByLayer
 62
  256
370
   -1
100
AcDbLine
 10
-6.350000000001131
 20
36.82999999999956
 11
-6.350000000001131
 21
34.28999999999955
  0
LINE
  5
304
100
AcDbEntity
  8
socket_header
  6
ByLayer
 62
  256
370
   -1
100
AcDbLine
 10
-8.890000000001024
 20
36.82999999999956
 11
-8.890000000001024
 21
34.28999999999955
  0
LINE
  5
305
100
AcDbEntity
  8
socket_header
  6
ByLayer
 62
  256
370
   -1
100
AcDbLine
 10
-8.890000000001038
 20
36.82999999999956
 11
-6.350000000001153
 21
36.82999999999956
  0
LINE
  5
306
100
AcDbEntity
  8
socket_header
  6
ByLayer
 62
  256
370
   -1
100
AcDbLine
 10
-8.890000000001024
 20
34.28999999999945
 11
-6.350000000001138
 21
34.28999999999945
  0
LINE
  5
307
100
AcDbEntity
  8
socket_header
  6
ByLayer
 62
  256
370
   -1
100
AcDbLine
 10
-6.350000000001117
 20
34.28999999999955
 11
-6.350000000001117
 21
31.74999999999955
  0
LINE
  5
308
100
AcDbEntity
  8
socket_header
  6
ByLayer
 62
  256
370
   -1
100
AcDbLine
 10
-8.89000000000101
 20
34.28999999999955
 11
-8.89000000000101
 21
31.74999999999955
  0
LINE
  5
309
100
AcDbEntity
  8
socket_header
  6
ByLayer
 62
  256
370
   -1
100
AcDbLine
 10
-8.890000000001024
 20
34.28999999999955
 11
-6.350000000001138
 21
34.28999999999955
  0
LINE
  5
30A
100
AcDbEntity
  8
socket_header
  6
ByLayer
 62
  256
370
   -1
100
AcDbLine
 10
-8.89000000000101
 20
31.74999999999945
 11
-6.350000000001124
 21
31.74999999999945
  0
LINE
  5
30B
100
AcDbEntity
  8
socket_header
  6
ByLayer
 62
  256
370
   -1
100
AcDbLine
 10
-8.890000000000988
 20
24.12999999999937
 11
-6.350000000001103
 21
24.12999999999937
  0
LINE
  5
30C
100
AcDbEntity
  8
socket_header
  6
ByLayer
 62
  256
370
   -1
100
AcDbLine
 10
-6.350000000001081
 20
24.12999999999947
 11
-6.350000000001081
 21
21.58999999999946
  0
LINE
  5
30D
100
AcDbEntity
  8
socket_header
  6
ByLayer
 62
  256
370
   -1
100
AcDbLine
 10
-8.890000000000974
 20
24.12999999999947
 11
-8.890000000000974
 21
21.58999999999946
  0
LINE
  5
30E
100
AcDbEntity
  8
socket_header
  6
ByLayer
 62
  256
370
   -1
100
AcDbLine
 10
-8.890000000000974
 20
21.58999999999936
 11
-6.350000000001089
 21
21.58999999999936
  0
LINE
  5
30F
100
AcDbEntity
  8
socket_header
  6
ByLayer
 62
  256
370
   -1
100
AcDbLine
 10
8.889999999998146
 20
39.36999999999956
 11
8.889999999998146
 21
36.82999999999956
  0
LINE
  5
310
100
AcDbEntity
  8
socket_header
  6
ByLayer
 62
  256
370
   -1
100
AcDbLine
 10
6.349999999998253
 20
39.36999999999956
 11
6.349999999998253
 21
36.82999999999956
  0
LINE
  5
311
100
AcDbEntity
  8
socket_header
  6
ByLayer
 62
  256
370
   -1
100
AcDbLine
 10
6.349999999998239
 20
39.36999999999956
 11
8.889999999998125
 21
39.36999999999956
  0
LINE
  5
312
100
AcDbEntity
  8
socket_header
  6
ByLayer
 62
  256
370
   -1
100
AcDbLine
 10
6.349999999998253
 20
36.82999999999956
 11
8.889999999998139
 21
36.82999999999956
  0
LINE
  5
313
100
AcDbEntity
  8
socket_header
  6
ByLayer
 62
  256
370
   -1
100
AcDbLine
 10
8.889999999998196
 20
24.12999999999947
 11
8.889999999998196
 21
21.58999999999946
  0
LINE
  5
314
100
AcDbEntity
  8
socket_header
  6
ByLayer
 62
  256
370
   -1
100
AcDbLine
 10
6.349999999998303
 20
24.12999999999947
 11
6.349999999998303
 21
21.58999999999946
  0
LINE
  5
315
100
AcDbEntity
  8
socket_header
  6
ByLayer
 62
  256
370
   -1
100
AcDbLine
 10
6.349999999998289
 20
24.12999999999947
 11
8.889999999998174
 21
24.12999999999947
  0
LINE
  5
316
100
AcDbEntity
  8
socket_header
  6
ByLayer
 62
  256
370
   -1
100
AcDbLine
 10
6.349999999998303
 20
21.58999999999946
 11
8.889999999998189
 21
21.58999999999946
  0
LINE
  5
317
100
AcDbEntity
  8
0_wire
  6
ByLayer
 62
  256
370
   -1
100
AcDbLine
 10
-5.079999999999764
 20
22.85999999999993
 11
-7.619999999999649
 21
22.85999999999993
  0
LINE
  5
318
100
AcDbEntity
  8
resister
  6
ByLayer
 62
  256
370
   -1
100
AcDbLine
 10
-0.2600000000166744
 20
23.95999999999881
 11
-0.2600000000166744
 21
21.75999999999922
  0
LINE
  5
319
100
AcDbEntity
  8
resister
  6
ByLayer
 62
  256
370
   -1
100
AcDbLine
 10
-4.820000000012854
 20
23.95999999999881
 11
-4.820000000012854
 21
21.75999999999922
  0
LINE
  5
31A
100
AcDbEntity
  8
resister
  6
ByLayer
 62
  256
370
   -1
100
AcDbLine
 10
-4.820000000012854
 20
21.75999999999922
 11
-0.2600000000166744
 21
21.75999999999922
  0
LINE
  5
31B
100
AcDbEntity
  8
resister
  6
ByLayer
 62
  256
370
   -1
100
AcDbLine
 10
-0.2600000000166744
 20
23.95999999999881
 11
-4.820000000012854
 21
23.95999999999881
  0
LINE
  5
31C
100
AcDbEntity
  8
resister
  6
ByLayer
 62
  256
370
   -1
100
AcDbLine
 10
-4.820000000012854
 20
22.85999999999993
 11
-5.079999999999764
 21
22.85999999999993
  0
LINE
  5
31D
100
AcDbEntity
  8
resister
  6
ByLayer
 62
  256
370
   -1
100
AcDbLine
 10
-0.2600000000166744
 20
22.85999999999993
 11
0
 21
22.85999999999993
  0
LINE
  5
31E
100
AcDbEntity
  8
socket_header
  6
ByLayer
 62
  256
370
   -1
100
AcDbLine
 10
3.809999999998396
 20
19.04999999999939
 11
6.349999999998282
 21
19.04999999999939
  0
LINE
  5
31F
100
AcDbEntity
  8
resister
  6
ByLayer
 62
  256
370
   -1
100
AcDbLine
 10
1.009999999981851
 20
34.1199999999989
 11
1.009999999981851
 21
31.91999999999931
  0
LINE
  5
320
100
AcDbEntity
  8
resister
  6
ByLayer
 62
  256
370
   -1
100
AcDbLine
 10
-3.550000000014329
 20
34.1199999999989
 11
-3.550000000014329
 21
31.91999999999931
  0
LINE
  5
321
100
AcDbEntity
  8
resister
  6
ByLayer
 62
  256
370
   -1
100
AcDbLine
 10
-3.550000000014329
 20
31.91999999999931
 11
1.009999999981851
 21
31.91999999999931
  0
LINE
  5
322
100
AcDbEntity
  8
resister
  6
ByLayer
 62
  256
370
   -1
100
AcDbLine
 10
1.009999999981851
 20
34.1199999999989
 11
-3.550000000014329
 21
34.1199999999989
  0
LINE
  5
323
100
AcDbEntity
  8
resister
  6
ByLayer
 62
  256
370
   -1
100
AcDbLine
 10
-3.550000000014329
 20
33.02000000000001
 11
-5.079999999999806
 21
33.02000000000001
  0
LINE
  5
324
100
AcDbEntity
  8
resister
  6
ByLayer
 62
  256
370
   -1
100
AcDbLine
 10
1.009999999981851
 20
33.02000000000001
 11
2.539999999999829
 21
33.02000000000001
  0
LINE
  5
325
100
AcDbEntity
  8
0_wire
  6
ByLayer
 62
  256
370
   -1
100
AcDbLine
 10
-7.619999999999671
 20
33.02000000000001
 11
-5.079999999999792
 21
33.02000000000001
  0
LINE
  5
326
100
AcDbEntity
  8
0_wire
  6
ByLayer
 62
  256
370
   -1
100
AcDbLine
 10
2.539999999999836
 20
33.02000000000001
 11
2.539999999999878
 21
17.77999999999994
  0
LINE
  5
327
100
AcDbEntity
  8
resister
  6
ByLayer
 62
  256
370
   -1
100
AcDbLine
 10
2.279999999983175
 20
36.6599999999989
 11
2.279999999983175
 21
34.45999999999931
  0
LINE
  5
328
100
AcDbEntity
  8
resister
  6
ByLayer
 62
  256
370
   -1
100
AcDbLine
 10
-2.280000000013004
 20
36.6599999999989
 11
-2.280000000013004
 21
34.45999999999931
  0
LINE
  5
329
100
AcDbEntity
  8
resister
  6
ByLayer
 62
  256
370
   -1
100
AcDbLine
 10
-2.280000000013004
 20
34.45999999999931
 11
2.279999999983175
 21
34.45999999999931
  0
LINE
  5
32A
100
AcDbEntity
  8
resister
  6
ByLayer
 62
  256
370
   -1
100
AcDbLine
 10
2.279999999983175
 20
36.6599999999989
 11
-2.280000000013004
 21
36.6599999999989
  0
LINE
  5
32B
100
AcDbEntity
  8
resister
  6
ByLayer
 62
  256
370
   -1
100
AcDbLine
 10
-2.280000000013004
 20
35.56000000000002
 11
-5.079999999999821
 21
35.56000000000002
  0
LINE
  5
32C
100
AcDbEntity
  8
resister
  6
ByLayer
 62
  256
370
   -1
100
AcDbLine
 10
2.279999999983175
 20
35.56000000000002
 11
5.079999999999707
 21
35.56000000000002
  0
LINE
  5
32D
100
AcDbEntity
  8
0_wire
  6
ByLayer
 62
  256
370
   -1
100
AcDbLine
 10
-7.619999999999671
 20
35.56000000000002
 11
-5.079999999999792
 21
35.56000000000002
  0
LINE
  5
32E
100
AcDbEntity
  8
0_wire
  6
ByLayer
 62
  256
370
   -1
100
AcDbLine
 10
5.079999999999721
 20
35.56000000000002
 11
5.079999999999757
 21
17.77999999999994
  0
LINE
  5
32F
100
AcDbEntity
  8
5V line
  6
CONTINUOUS
 62
  256
370
   50
100
AcDbLine
 10
-7.61999999999653
 20
38.09999999999941
 11
-5.079999999996531
 21
38.09999999999941
  0
LINE
  5
330
100
AcDbEntity
  8
resister
  6
ByLayer
 62
  256
370
   -1
100
AcDbLine
 10
8.719999999998493
 20
24.39000000001825
 11
6.519999999998902
 21
24.39000000001825
  0
LINE
  5
331
100
AcDbEntity
  8
resister
  6
ByLayer
 62
  256
370
   -1
100
AcDbLine
 10
8.719999999998493
 20
28.95000000001443
 11
6.519999999998902
 21
28.95000000001443
  0
LINE
  5
332
100
AcDbEntity
  8
resister
  6
ByLayer
 62
  256
370
   -1
100
AcDbLine
 10
6.519999999998902
 20
28.95000000001443
 11
6.519999999998902
 21
24.39000000001825
  0
LINE
  5
333
100
AcDbEntity
  8
resister
  6
ByLayer
 62
  256
370
   -1
100
AcDbLine
 10
8.719999999998493
 20
24.39000000001825
 11
8.719999999998493
 21
28.95000000001443
  0
LINE
  5
334
100
AcDbEntity
  8
resister
  6
ByLayer
 62
  256
370
   -1
100
AcDbLine
 10
7.619999999999607
 20
25.39999999999992
 11
7.619999999999607
 21
24.39000000001825
  0
LINE
  5
335
100
AcDbEntity
  8
resister
  6
ByLayer
 62
  256
370
   -1
100
AcDbLine
 10
7.619999999999607
 20
27.94000000000001
 11
7.619999999999607
 21
28.95000000001443
  0
LINE
  5
336
100
AcDbEntity
  8
0_wire
  6
ByLayer
 62
  256
370
   -1
100
AcDbLine
 10
7.619999999999642
 20
22.85999999999993
 11
7.619999999999642
 21
25.39999999999992
  0
LINE
  5
337
100
AcDbEntity
  8
0_GND
  6
ByLayer
 62
  256
370
   -1
100
AcDbLine
 10
-4.263256414560601e-14
 20
38.10000000000002
 11
0
 21
25.39999999999992
  0
LINE
  5
338
100
AcDbEntity
  8
0_GND
  6
ByLayer
 62
  256
370
   -1
100
AcDbLine
 10
0
 20
25.39999999999992
 11
-2.539999999999878
 21
25.39999999999992
  0
LINE
  5
339
100
AcDbEntity
  8
0_GND
  6
ByLayer
 62
  256
370
   -1
100
AcDbLine
 10
-2.539999999999878
 20
25.39999999999992
 11
-2.539999999999878
 21
20.31999999999994
  0
LINE
  5
33A
100
AcDbEntity
  8
0_GND
  6
ByLayer
 62
  256
370
   -1
100
AcDbLine
 10
-2.539999999999878
 20
20.31999999999994
 11
-7.619999999999628
 21
20.31999999999994
  0
LWPOLYLINE
  5
33B
100
AcDbEntity
  8
resister
  6
ByLayer
 62
  256
370
   -1
100
AcDbPolyline
 90
    4
 70
    0
 43
0
 10
-2.539999999999878
 20
20.31999999999994
 10
-1.686212595064482
 20
20.91445439153837
 10
6.361758001338956
 20
20.91445439153837
 10
7.619999999999642
 20
20.31999999999994
  0
LINE
  5
33C
100
AcDbEntity
  8
diode
  6
ByLayer
 62
  256
370
   -1
100
AcDbLine
 10
6.070000000000256
 20
33.69999999999932
 11
6.070000000000256
 21
29.79999999999974
  0
LINE
  5
33D
100
AcDbEntity
  8
diode
  6
ByLayer
 62
  256
370
   -1
100
AcDbLine
 10
6.070000000000256
 20
29.79999999999974
 11
9.169999999999
 21
29.79999999999974
  0
LINE
  5
33E
100
AcDbEntity
  8
diode
  6
ByLayer
 62
  256
370
   -1
100
AcDbLine
 10
9.169999999999
 20
29.79999999999974
 11
9.169999999999
 21
33.69999999999932
  0
LINE
  5
33F
100
AcDbEntity
  8
diode
  6
ByLayer
 62
  256
370
   -1
100
AcDbLine
 10
9.169999999999
 20
33.69999999999932
 11
6.070000000000256
 21
33.69999999999932
  0
LINE
  5
340
100
AcDbEntity
  8
diode
  6
ByLayer
 62
  256
370
   -1
100
AcDbLine
 10
7.6199999999996
 20
33.02000000000002
 11
7.6199999999996
 21
33.69999999999932
  0
LINE
  5
341
100
AcDbEntity
  8
diode
  6
ByLayer
 62
  256
370
   -1
100
AcDbLine
 10
7.6199999999996
 20
30.47999999999992
 11
7.6199999999996
 21
29.79999999999974
  0
MTEXT
  5
342
100
AcDbEntity
  8
diode
  6
ByLayer
 62
  256
370
   -1
100
AcDbMText
 10
6.873605327829914
 20
31.7084682020493
 30
0
 40
1
 41
0.4166666666666666
 71
    4
 72
    1
  1
-\P+
  7
kst32b
210
0
220
0
230
1
 50
180
 73
    2
 44
1.54
  0
LINE
  5
343
100
AcDbEntity
  8
0_wire
  6
ByLayer
 62
  256
370
   -1
100
AcDbLine
 10
7.6199999999996
 20
30.48000000000002
 11
7.619999999999607
 21
27.94000000000001
  0
LWPOLYLINE
  5
344
100
AcDbEntity
  8
resister
  6
DOTTINY
 62
  256
370
   -1
100
AcDbPolyline
 90
    5
 70
    0
 43
0
 10
-5.079999999999799
 20
38.10000000000002
 10
-4.62854365774453
 20
37.5620825430529
 10
7.213766749697363
 20
37.50345724400616
 10
7.213766749697363
 20
33.28243571264073
 10
7.6199999999996
 20
33.02000000000001
  0
LWPOLYLINE
  5
345
100
AcDbEntity
  8
resister
  6
ByLayer
 62
  256
370
   -1
100
AcDbPolyline
 90
    4
 70
    0
 43
0
 10
-7.619999999999678
 20
38.10000000000002
 10
-6.692887088365879
 20
37.04345383503589
 10
-6.503414665307488
 20
19.46041297521691
 10
-5.079999999999764
 20
17.77999999999994
  0
LINE
  5
346
100
AcDbEntity
  8
universal_board
  6
ByLayer
 62
  256
370
   -1
100
AcDbLine
 10
-8.889999999999574
 20
39.37000000000013
 11
-8.889999999999574
 21
16.50999999999996
  0
LINE
  5
347
100
AcDbEntity
  8
universal_board
  6
ByLayer
 62
  256
370
   -1
100
AcDbLine
 10
-8.889999999999617
 20
39.37000000000013
 11
8.889999999999581
 21
39.37000000000015
  0
LINE
  5
348
100
AcDbEntity
  8
universal_board
  6
ByLayer
 62
  256
370
   -1
100
AcDbLine
 10
-8.889999999999581
 20
16.51000000000006
 11
8.889999999999581
 21
16.51000000000007
  0
LINE
  5
349
100
AcDbEntity
  8
universal_board
  6
ByLayer
 62
  256
370
   -1
100
AcDbLine
 10
8.889999999999581
 20
39.37000000000015
 11
8.889999999999581
 21
16.51000000000007
  0
MTEXT
  5
34A
100
AcDbEntity
  8
0
  6
ByLayer
 62
  256
370
   -1
100
AcDbMText
 10
-7.074778541069667
 20
40.49379822849085
 30
0
 40
1
 41
5.083333333333333
 71
    4
 72
    1
  1
アダプタ
  7
kst32b
210
0
220
0
230
1
 50
0
 73
    2
 44
1.54
  0
CIRCLE
  5
34B
100
AcDbEntity
  8
5V line
  6
ByLayer
 62
  256
370
   -1
100
AcDbCircle
 10
7.6199999999996
 20
33.02000000000001
 40
0.4
  0
CIRCLE
  5
34C
100
AcDbEntity
  8
5V line
  6
ByLayer
 62
  256
370
   -1
100
AcDbCircle
 10
-5.079999999999764
 20
17.77999999999994
 40
0.4
  0
LINE
  5
34D
100
AcDbEntity
  8
0_GND
  6
ByLayer
 62
  256
370
   -1
100
AcDbLine
 10
5.079999999999707
 20
38.10000000000002
 11
-4.263256414560601e-14
 21
38.10000000000002
  0
LINE
  5
34E
100
AcDbEntity
  8
0_GND
  6
CONTINUOUS
 62
  256
370
   50
100
AcDbLine
 10
7.62
 20
38.1
 11
5.08
 21
38.1
  0
LINE
  5
34F
100
AcDbEntity
  8
0_GND
  6
CONTINUOUS
 62
  256
370
   50
100
AcDbLine
 10
-7.62
 20
20.32
 11
-7.62
 21
17.78
  0
LINE
  5
350
100
AcDbEntity
  8
0_GND
  6
DOTTINY
 62
  256
370
   50
100
AcDbLine
 10
-7.62
 20
10.16
 11
-7.62
 21
7.62
  0
LINE
  5
351
100
AcDbEntity
  8
0_GND
  6
DOTTINY
 62
  256
370
   50
100
AcDbLine
 10
7.62
 20
7.62
 11
7.62
 21
5.08
  0
LINE
  5
352
100
AcDbEntity
  8
3.3V line
  6
ByLayer
 62
  256
370
   -1
100
AcDbLine
 10
2.54
 20
-2.54
 11
7.62
 21
-2.54
  0
LWPOLYLINE
  5
353
100
AcDbEntity
  8
resister
  6
DOTTINY
 62
  256
370
   -1
100
AcDbPolyline
 90
    5
 70
    0
 43
0
 10
2.539999999999878
 20
-2.539999999999992
 10
3.232862803283082
 20
-1.933051985468234
 10
6.898995879171113
 20
-1.966380467976308
 10
7.032309809203404
 20
9.132004207212004
 10
7.619999999999642
 20
10.15999999999997
  0
MTEXT
  5
354
100
AcDbEntity
  8
universal_board
  6
ByLayer
 62
  256
370
   -1
100
AcDbMText
 10
-10.63964518662259
 20
12.15959449899725
 30
0
 40
1
 41
1.202222222222222
 71
    4
 72
    1
  1
B1
  7
kst32b
210
0
220
0
230
1
 50
0
 73
    2
 44
1.54
  0
MTEXT
  5
355
100
AcDbEntity
  8
socket_header
  6
ByLayer
 62
  256
370
   -1
100
AcDbMText
 10
-11.01963251471626
 20
6.143128470847569
 30
0
 40
1
 41
1.201111111111111
 71
    4
 72
    1
  1
J3
  7
kst32b
210
0
220
0
230
1
 50
0
 73
    2
 44
1.54
  0
MTEXT
  5
356
100
AcDbEntity
  8
socket_header
  6
ByLayer
 62
  256
370
   -1
100
AcDbMText
 10
6.903315647923677
 20
-12.62628813875405
 30
0
 40
1
 41
1.222222222222222
 71
    4
 72
    1
  1
J4
  7
unicode
210
0
220
0
230
1
 50
0
 73
    2
 44
1.54
  0
MTEXT
  5
357
100
AcDbEntity
  8
socket_header
  6
ByLayer
 62
  256
370
   -1
100
AcDbMText
 10
-4.233221479788694
 20
12.36546274359329
 30
0
 40
1
 41
1.132222222222222
 71
    4
 72
    1
  1
J1
  7
kst32b
210
0
220
0
230
1
 50
0
 73
    2
 44
1.54
  0
MTEXT
  5
358
100
AcDbEntity
  8
socket_header
  6
ByLayer
 62
  256
370
   -1
100
AcDbMText
 10
5.625728545508658
 20
12.25406217833569
 30
0
 40
1
 41
1.236666666666667
 71
    4
 72
    1
  1
J2
  7
kst32b
210
0
220
0
230
1
 50
0
 73
    2
 44
1.54
  0
MTEXT
  5
359
100
AcDbEntity
  8
universal_board
  6
ByLayer
 62
  256
370
   -1
100
AcDbMText
 10
4.91235838152318
 20
40.28133872849008
 30
0
 40
1
 41
1.306666666666667
 71
    4
 72
    1
  1
B2
  7
kst32b
210
0
220
0
230
1
 50
0
 73
    2
 44
1.54
  0
MTEXT
  5
35A
100
AcDbEntity
  8
socket_header
  6
ByLayer
 62
  256
370
   -1
100
AcDbMText
 10
-10.15220732181457
 20
38.15265009649671
 30
0
 40
1
 41
1.097777777777778
 71
    4
 72
    1
  1
H1
  7
kst32b
210
0
220
0
230
1
 50
0
 73
    2
 44
1.54
  0
MTEXT
  5
35B
100
AcDbEntity
  8
socket_header
  6
ByLayer
 62
  256
370
   -1
100
AcDbMText
 10
0.327490558768212
 20
15.14643834302981
 30
0
 40
1
 41
1.202222222222222
 71
    4
 72
    1
  1
H2
  7
kst32b
210
0
220
0
230
1
 50
0
 73
    2
 44
1.54
  0
MTEXT
  5
35C
100
AcDbEntity
  8
socket_header
  6
ByLayer
 62
  256
370
   -1
100
AcDbMText
 10
-7.204792292900665
 20
15.63767418118213
 30
0
 40
1
 41
1.166666666666667
 71
    4
 72
    1
  1
H3
  7
kst32b
210
0
220
0
230
1
 50
0
 73
    2
 44
1.54
  0
MTEXT
  5
35D
100
AcDbEntity
  8
socket_header
  6
ByLayer
 62
  256
370
   -1
100
AcDbMText
 10
-10.07033468212252
 20
22.84246647408279
 30
0
 40
1
 41
1.202222222222222
 71
    4
 72
    1
  1
H4
  7
kst32b
210
0
220
0
230
1
 50
0
 73
    2
 44
1.54
  0
MTEXT
  5
35E
100
AcDbEntity
  8
socket_header
  6
ByLayer
 62
  256
370
   -1
100
AcDbMText
 10
9.169735645509938
 20
22.92433911377484
 30
0
 40
1
 41
1.166666666666667
 71
    4
 72
    1
  1
H5
  7
kst32b
210
0
220
0
230
1
 50
0
 73
    2
 44
1.54
  0
MTEXT
  5
35F
100
AcDbEntity
  8
socket_header
  6
ByLayer
 62
  256
370
   -1
100
AcDbMText
 10
9.579098843970202
 20
38.15265009649671
 30
0
 40
1
 41
1.166666666666667
 71
    4
 72
    1
  1
H6
  7
kst32b
210
0
220
0
230
1
 50
0
 73
    2
 44
1.54
  0
MTEXT
  5
360
100
AcDbEntity
  8
resister
  6
ByLayer
 62
  256
370
   -1
100
AcDbMText
 10
-4.369854273077138
 20
23.11589579236457
 30
0
 40
1
 41
1.202222222222222
 71
    4
 72
    1
  1
R1
  7
kst32b
210
0
220
0
230
1
 50
0
 73
    2
 44
1.54
  0
MTEXT
  5
361
100
AcDbEntity
  8
resister
  6
ByLayer
 62
  256
370
   -1
100
AcDbMText
 10
-2.913236182051425
 20
33.24889120819562
 30
0
 40
1
 41
1.306666666666667
 71
    4
 72
    1
  1
R2
  7
kst32b
210
0
220
0
230
1
 50
0
 73
    2
 44
1.54
  0
MTEXT
  5
362
100
AcDbEntity
  8
resister
  6
ByLayer
 62
  256
370
   -1
100
AcDbMText
 10
-1.646611755072545
 20
35.65547761945549
 30
0
 40
1
 41
1.271111111111111
 71
    4
 72
    1
  1
R3
  7
kst32b
210
0
220
0
230
1
 50
0
 73
    2
 44
1.54
  0
MTEXT
  5
363
100
AcDbEntity
  8
resister
  6
ByLayer
 62
  256
370
   -1
100
AcDbMText
 10
7.156428012430675
 20
26.4724505238586
 30
0
 40
1
 41
1.306666666666667
 71
    4
 72
    1
  1
R4
  7
kst32b
210
0
220
0
230
1
 50
0
 73
    2
 44
1.54
  0
MTEXT
  5
364
100
AcDbEntity
  8
diode
  6
ByLayer
 62
  256
370
   -1
100
AcDbMText
 10
6.903103127034899
 20
31.66561067447201
 30
0
 40
1
 41
1.166666666666667
 71
    4
 72
    1
  1
D1
  7
kst32b
210
0
220
0
230
1
 50
0
 73
    2
 44
1.54
  0
MTEXT
  5
365
100
AcDbEntity
  8
0
  6
ByLayer
 62
  256
370
   -1
100
AcDbMText
 10
-29.2420403218716
 20
2.79375126038955
 30
0
 40
1
 41
13.58666666666666
 71
    4
 72
    1
  1
B1: 基板 8x9P\PC1: セラコン 0.22uF\PC2: セラコン 1.5uF\PJ1: ピンソケット 2P\PJ2: ピンソケット 3P\PJ3,4: ピンソケット 7P\PS1: IC ソケット 14P
  7
kst32b
210
0
220
0
230
1
 50
0
 73
    2
 44
1
  0
CIRCLE
  5
366
100
AcDbEntity
  8
universal_board
  6
ByLayer
 62
  256
370
   -1
100
AcDbCircle
 10
15.23999999999923
 20
10.16000000000022
 40
0.5
  0
CIRCLE
  5
367
100
AcDbEntity
  8
universal_board
  6
ByLayer
 62
  256
370
   -1
100
AcDbCircle
 10
17.77999999999911
 20
10.16000000000022
 40
0.5
  0
CIRCLE
  5
368
100
AcDbEntity
  8
universal_board
  6
ByLayer
 62
  256
370
   -1
100
AcDbCircle
 10
20.31999999999898
 20
10.16000000000022
 40
0.5
  0
CIRCLE
  5
369
100
AcDbEntity
  8
universal_board
  6
ByLayer
 62
  256
370
   -1
100
AcDbCircle
 10
22.85999999999886
 20
10.16000000000022
 40
0.5
  0
CIRCLE
  5
36A
100
AcDbEntity
  8
universal_board
  6
ByLayer
 62
  256
370
   -1
100
AcDbCircle
 10
25.39999999999874
 20
10.16000000000022
 40
0.5
  0
CIRCLE
  5
36B
100
AcDbEntity
  8
universal_board
  6
ByLayer
 62
  256
370
   -1
100
AcDbCircle
 10
27.93999999999862
 20
10.16000000000022
 40
0.5
  0
CIRCLE
  5
36C
100
AcDbEntity
  8
universal_board
  6
ByLayer
 62
  256
370
   -1
100
AcDbCircle
 10
30.4799999999985
 20
10.16000000000022
 40
0.5
  0
CIRCLE
  5
36D
100
AcDbEntity
  8
universal_board
  6
ByLayer
 62
  256
370
   -1
100
AcDbCircle
 10
33.01999999999838
 20
10.16000000000022
 40
0.5
  0
CIRCLE
  5
36E
100
AcDbEntity
  8
universal_board
  6
ByLayer
 62
  256
370
   -1
100
AcDbCircle
 10
15.23999999999923
 20
7.620000000000232
 40
0.5
  0
CIRCLE
  5
36F
100
AcDbEntity
  8
universal_board
  6
ByLayer
 62
  256
370
   -1
100
AcDbCircle
 10
17.77999999999911
 20
7.620000000000232
 40
0.5
  0
CIRCLE
  5
370
100
AcDbEntity
  8
universal_board
  6
ByLayer
 62
  256
370
   -1
100
AcDbCircle
 10
20.31999999999898
 20
7.620000000000232
 40
0.5
  0
CIRCLE
  5
371
100
AcDbEntity
  8
universal_board
  6
ByLayer
 62
  256
370
   -1
100
AcDbCircle
 10
22.85999999999886
 20
7.620000000000232
 40
0.5
  0
CIRCLE
  5
372
100
AcDbEntity
  8
universal_board
  6
ByLayer
 62
  256
370
   -1
100
AcDbCircle
 10
25.39999999999874
 20
7.620000000000232
 40
0.5
  0
CIRCLE
  5
373
100
AcDbEntity
  8
universal_board
  6
ByLayer
 62
  256
370
   -1
100
AcDbCircle
 10
27.93999999999862
 20
7.620000000000232
 40
0.5
  0
CIRCLE
  5
374
100
AcDbEntity
  8
universal_board
  6
ByLayer
 62
  256
370
   -1
100
AcDbCircle
 10
30.4799999999985
 20
7.620000000000232
 40
0.5
  0
CIRCLE
  5
375
100
AcDbEntity
  8
universal_board
  6
ByLayer
 62
  256
370
   -1
100
AcDbCircle
 10
33.01999999999838
 20
7.620000000000232
 40
0.5
  0
CIRCLE
  5
376
100
AcDbEntity
  8
universal_board
  6
ByLayer
 62
  256
370
   -1
100
AcDbCircle
 10
15.23999999999923
 20
5.08000000000024
 40
0.5
  0
CIRCLE
  5
377
100
AcDbEntity
  8
universal_board
  6
ByLayer
 62
  256
370
   -1
100
AcDbCircle
 10
17.77999999999911
 20
5.08000000000024
 40
0.5
  0
CIRCLE
  5
378
100
AcDbEntity
  8
universal_board
  6
ByLayer
 62
  256
370
   -1
100
AcDbCircle
 10
20.31999999999898
 20
5.08000000000024
 40
0.5
  0
CIRCLE
  5
379
100
AcDbEntity
  8
universal_board
  6
ByLayer
 62
  256
370
   -1
100
AcDbCircle
 10
22.85999999999886
 20
5.08000000000024
 40
0.5
  0
CIRCLE
  5
37A
100
AcDbEntity
  8
universal_board
  6
ByLayer
 62
  256
370
   -1
100
AcDbCircle
 10
25.39999999999874
 20
5.08000000000024
 40
0.5
  0
CIRCLE
  5
37B
100
AcDbEntity
  8
universal_board
  6
ByLayer
 62
  256
370
   -1
100
AcDbCircle
 10
27.93999999999862
 20
5.08000000000024
 40
0.5
  0
CIRCLE
  5
37C
100
AcDbEntity
  8
universal_board
  6
ByLayer
 62
  256
370
   -1
100
AcDbCircle
 10
30.4799999999985
 20
5.08000000000024
 40
0.5
  0
CIRCLE
  5
37D
100
AcDbEntity
  8
universal_board
  6
ByLayer
 62
  256
370
   -1
100
AcDbCircle
 10
33.01999999999838
 20
5.08000000000024
 40
0.5
  0
CIRCLE
  5
37E
100
AcDbEntity
  8
universal_board
  6
ByLayer
 62
  256
370
   -1
100
AcDbCircle
 10
15.23999999999923
 20
2.540000000000248
 40
0.5
  0
CIRCLE
  5
37F
100
AcDbEntity
  8
universal_board
  6
ByLayer
 62
  256
370
   -1
100
AcDbCircle
 10
17.77999999999911
 20
2.540000000000248
 40
0.5
  0
CIRCLE
  5
380
100
AcDbEntity
  8
universal_board
  6
ByLayer
 62
  256
370
   -1
100
AcDbCircle
 10
20.31999999999898
 20
2.540000000000248
 40
0.5
  0
CIRCLE
  5
381
100
AcDbEntity
  8
universal_board
  6
ByLayer
 62
  256
370
   -1
100
AcDbCircle
 10
22.85999999999886
 20
2.540000000000248
 40
0.5
  0
CIRCLE
  5
382
100
AcDbEntity
  8
universal_board
  6
ByLayer
 62
  256
370
   -1
100
AcDbCircle
 10
25.39999999999874
 20
2.540000000000248
 40
0.5
  0
CIRCLE
  5
383
100
AcDbEntity
  8
universal_board
  6
ByLayer
 62
  256
370
   -1
100
AcDbCircle
 10
27.93999999999862
 20
2.540000000000248
 40
0.5
  0
CIRCLE
  5
384
100
AcDbEntity
  8
universal_board
  6
ByLayer
 62
  256
370
   -1
100
AcDbCircle
 10
30.4799999999985
 20
2.540000000000248
 40
0.5
  0
CIRCLE
  5
385
100
AcDbEntity
  8
universal_board
  6
ByLayer
 62
  256
370
   -1
100
AcDbCircle
 10
33.01999999999838
 20
2.540000000000248
 40
0.5
  0
CIRCLE
  5
386
100
AcDbEntity
  8
universal_board
  6
ByLayer
 62
  256
370
   -1
100
AcDbCircle
 10
15.23999999999923
 20
2.557953848736361e-13
 40
0.5
  0
CIRCLE
  5
387
100
AcDbEntity
  8
universal_board
  6
ByLayer
 62
  256
370
   -1
100
AcDbCircle
 10
17.77999999999911
 20
2.557953848736361e-13
 40
0.5
  0
CIRCLE
  5
388
100
AcDbEntity
  8
universal_board
  6
ByLayer
 62
  256
370
   -1
100
AcDbCircle
 10
20.31999999999898
 20
2.557953848736361e-13
 40
0.5
  0
CIRCLE
  5
389
100
AcDbEntity
  8
universal_board
  6
ByLayer
 62
  256
370
   -1
100
AcDbCircle
 10
22.85999999999886
 20
2.557953848736361e-13
 40
0.5
  0
CIRCLE
  5
38A
100
AcDbEntity
  8
universal_board
  6
ByLayer
 62
  256
370
   -1
100
AcDbCircle
 10
25.39999999999874
 20
2.557953848736361e-13
 40
0.5
  0
CIRCLE
  5
38B
100
AcDbEntity
  8
universal_board
  6
ByLayer
 62
  256
370
   -1
100
AcDbCircle
 10
27.93999999999862
 20
2.557953848736361e-13
 40
0.5
  0
CIRCLE
  5
38C
100
AcDbEntity
  8
universal_board
  6
ByLayer
 62
  256
370
   -1
100
AcDbCircle
 10
30.4799999999985
 20
2.557953848736361e-13
 40
0.5
  0
CIRCLE
  5
38D
100
AcDbEntity
  8
universal_board
  6
ByLayer
 62
  256
370
   -1
100
AcDbCircle
 10
33.01999999999838
 20
2.557953848736361e-13
 40
0.5
  0
CIRCLE
  5
38E
100
AcDbEntity
  8
universal_board
  6
ByLayer
 62
  256
370
   -1
100
AcDbCircle
 10
15.23999999999923
 20
-2.539999999999736
 40
0.5
  0
CIRCLE
  5
38F
100
AcDbEntity
  8
universal_board
  6
ByLayer
 62
  256
370
   -1
100
AcDbCircle
 10
17.77999999999911
 20
-2.539999999999736
 40
0.5
  0
CIRCLE
  5
390
100
AcDbEntity
  8
universal_board
  6
ByLayer
 62
  256
370
   -1
100
AcDbCircle
 10
20.31999999999898
 20
-2.539999999999736
 40
0.5
  0
CIRCLE
  5
391
100
AcDbEntity
  8
universal_board
  6
ByLayer
 62
  256
370
   -1
100
AcDbCircle
 10
22.85999999999886
 20
-2.539999999999736
 40
0.5
  0
CIRCLE
  5
392
100
AcDbEntity
  8
universal_board
  6
ByLayer
 62
  256
370
   -1
100
AcDbCircle
 10
25.39999999999874
 20
-2.539999999999736
 40
0.5
  0
CIRCLE
  5
393
100
AcDbEntity
  8
universal_board
  6
ByLayer
 62
  256
370
   -1
100
AcDbCircle
 10
27.93999999999862
 20
-2.539999999999736
 40
0.5
  0
CIRCLE
  5
394
100
AcDbEntity
  8
universal_board
  6
ByLayer
 62
  256
370
   -1
100
AcDbCircle
 10
30.4799999999985
 20
-2.539999999999736
 40
0.5
  0
CIRCLE
  5
395
100
AcDbEntity
  8
universal_board
  6
ByLayer
 62
  256
370
   -1
100
AcDbCircle
 10
33.01999999999838
 20
-2.539999999999736
 40
0.5
  0
CIRCLE
  5
396
100
AcDbEntity
  8
universal_board
  6
ByLayer
 62
  256
370
   -1
100
AcDbCircle
 10
15.23999999999923
 20
-5.079999999999728
 40
0.5
  0
CIRCLE
  5
397
100
AcDbEntity
  8
universal_board
  6
ByLayer
 62
  256
370
   -1
100
AcDbCircle
 10
17.77999999999911
 20
-5.079999999999728
 40
0.5
  0
CIRCLE
  5
398
100
AcDbEntity
  8
universal_board
  6
ByLayer
 62
  256
370
   -1
100
AcDbCircle
 10
20.31999999999898
 20
-5.079999999999728
 40
0.5
  0
CIRCLE
  5
399
100
AcDbEntity
  8
universal_board
  6
ByLayer
 62
  256
370
   -1
100
AcDbCircle
 10
22.85999999999886
 20
-5.079999999999728
 40
0.5
  0
CIRCLE
  5
39A
100
AcDbEntity
  8
universal_board
  6
ByLayer
 62
  256
370
   -1
100
AcDbCircle
 10
25.39999999999874
 20
-5.079999999999728
 40
0.5
  0
CIRCLE
  5
39B
100
AcDbEntity
  8
universal_board
  6
ByLayer
 62
  256
370
   -1
100
AcDbCircle
 10
27.93999999999862
 20
-5.079999999999728
 40
0.5
  0
CIRCLE
  5
39C
100
AcDbEntity
  8
universal_board
  6
ByLayer
 62
  256
370
   -1
100
AcDbCircle
 10
30.4799999999985
 20
-5.079999999999728
 40
0.5
  0
CIRCLE
  5
39D
100
AcDbEntity
  8
universal_board
  6
ByLayer
 62
  256
370
   -1
100
AcDbCircle
 10
33.01999999999838
 20
-5.079999999999728
 40
0.5
  0
CIRCLE
  5
39E
100
AcDbEntity
  8
universal_board
  6
ByLayer
 62
  256
370
   -1
100
AcDbCircle
 10
15.23999999999923
 20
-7.61999999999972
 40
0.5
  0
CIRCLE
  5
39F
100
AcDbEntity
  8
universal_board
  6
ByLayer
 62
  256
370
   -1
100
AcDbCircle
 10
17.77999999999911
 20
-7.61999999999972
 40
0.5
  0
CIRCLE
  5
3A0
100
AcDbEntity
  8
universal_board
  6
ByLayer
 62
  256
370
   -1
100
AcDbCircle
 10
20.31999999999898
 20
-7.61999999999972
 40
0.5
  0
CIRCLE
  5
3A1
100
AcDbEntity
  8
universal_board
  6
ByLayer
 62
  256
370
   -1
100
AcDbCircle
 10
22.85999999999886
 20
-7.61999999999972
 40
0.5
  0
CIRCLE
  5
3A2
100
AcDbEntity
  8
universal_board
  6
ByLayer
 62
  256
370
   -1
100
AcDbCircle
 10
25.39999999999874
 20
-7.61999999999972
 40
0.5
  0
CIRCLE
  5
3A3
100
AcDbEntity
  8
universal_board
  6
ByLayer
 62
  256
370
   -1
100
AcDbCircle
 10
27.93999999999862
 20
-7.61999999999972
 40
0.5
  0
CIRCLE
  5
3A4
100
AcDbEntity
  8
universal_board
  6
ByLayer
 62
  256
370
   -1
100
AcDbCircle
 10
30.4799999999985
 20
-7.61999999999972
 40
0.5
  0
CIRCLE
  5
3A5
100
AcDbEntity
  8
universal_board
  6
ByLayer
 62
  256
370
   -1
100
AcDbCircle
 10
33.01999999999838
 20
-7.61999999999972
 40
0.5
  0
CIRCLE
  5
3A6
100
AcDbEntity
  8
universal_board
  6
ByLayer
 62
  256
370
   -1
100
AcDbCircle
 10
15.23999999999923
 20
-10.15999999999971
 40
0.5
  0
CIRCLE
  5
3A7
100
AcDbEntity
  8
universal_board
  6
ByLayer
 62
  256
370
   -1
100
AcDbCircle
 10
17.77999999999911
 20
-10.15999999999971
 40
0.5
  0
CIRCLE
  5
3A8
100
AcDbEntity
  8
universal_board
  6
ByLayer
 62
  256
370
   -1
100
AcDbCircle
 10
20.31999999999898
 20
-10.15999999999971
 40
0.5
  0
CIRCLE
  5
3A9
100
AcDbEntity
  8
universal_board
  6
ByLayer
 62
  256
370
   -1
100
AcDbCircle
 10
22.85999999999886
 20
-10.15999999999971
 40
0.5
  0
CIRCLE
  5
3AA
100
AcDbEntity
  8
universal_board
  6
ByLayer
 62
  256
370
   -1
100
AcDbCircle
 10
25.39999999999874
 20
-10.15999999999971
 40
0.5
  0
CIRCLE
  5
3AB
100
AcDbEntity
  8
universal_board
  6
ByLayer
 62
  256
370
   -1
100
AcDbCircle
 10
27.93999999999862
 20
-10.15999999999971
 40
0.5
  0
CIRCLE
  5
3AC
100
AcDbEntity
  8
universal_board
  6
ByLayer
 62
  256
370
   -1
100
AcDbCircle
 10
30.4799999999985
 20
-10.15999999999971
 40
0.5
  0
CIRCLE
  5
3AD
100
AcDbEntity
  8
universal_board
  6
ByLayer
 62
  256
370
   -1
100
AcDbCircle
 10
33.01999999999838
 20
-10.15999999999971
 40
0.5
  0
LINE
  5
3AE
100
AcDbEntity
  8
universal_board
  6
ByLayer
 62
  256
370
   -1
100
AcDbLine
 10
13.96999999999933
 20
11.43000000000033
 11
13.96999999999933
 21
-11.42999999999984
  0
LINE
  5
3AF
100
AcDbEntity
  8
universal_board
  6
ByLayer
 62
  256
370
   -1
100
AcDbLine
 10
34.28999999999835
 20
11.43000000000035
 11
34.28999999999835
 21
-11.42999999999984
  0
LINE
  5
3B0
100
AcDbEntity
  8
universal_board
  6
ByLayer
 62
  256
370
   -1
100
AcDbLine
 10
13.96999999999929
 20
11.43000000000033
 11
34.28999999999835
 21
11.43000000000035
  0
LINE
  5
3B1
100
AcDbEntity
  8
universal_board
  6
ByLayer
 62
  256
370
   -1
100
AcDbLine
 10
13.96999999999934
 20
-11.42999999999985
 11
34.28999999999835
 21
-11.42999999999984
  0
CIRCLE
  5
3B2
100
AcDbEntity
  8
0_wire
  6
ByLayer
 62
  256
370
   -1
100
AcDbCircle
 10
0
 20
10.15999999999997
 40
0.4
  0
CIRCLE
  5
3B3
100
AcDbEntity
  8
0_wire
  6
ByLayer
 62
  256
370
   -1
100
AcDbCircle
 10
2.539999999999878
 20
10.15999999999997
 40
0.4
  0
LWPOLYLINE
  5
3B4
100
AcDbEntity
  8
resister
  6
DOTTINY
 62
  256
370
   -1
100
AcDbPolyline
 90
    5
 70
    0
 43
0
 10
0
 20
10.15999999999997
 10
-0.6448782895141661
 20
9.555923744619008
 10
-0.8207541866543933
 20
-2.22776136377621
 10
-4.426210078029049
 20
-2.139823415206097
 10
-5.079999999999764
 20
-2.539999999999992
  0
LWPOLYLINE
  5
3B5
100
AcDbEntity
  8
resister
  6
DOTTINY
 62
  256
370
   -1
100
AcDbPolyline
 90
    4
 70
    0
 43
0
 10
2.539999999999878
 20
10.15999999999997
 10
1.758758971402271
 20
9.409360497002151
 10
1.582883074262044
 20
-4.308959479935565
 10
2.539999999999878
 20
-5.079999999999984
  0
LINE
  5
3B6
100
AcDbEntity
  8
0_wire
  6
ByLayer
 62
  256
370
  200
100
AcDbLine
 10
20.31999999999898
 20
-5.079999999999632
 11
15.23999999999921
 21
-5.079999999999632
  0
LINE
  5
3B7
100
AcDbEntity
  8
0_wire
  6
ByLayer
 62
  256
370
  200
100
AcDbLine
 10
20.31999999999898
 20
-7.619999999999621
 11
15.23999999999921
 21
-7.619999999999621
  0
LINE
  5
3B8
100
AcDbEntity
  8
0_wire
  6
ByLayer
 62
  256
370
  200
100
AcDbLine
 10
20.31999999999895
 20
-10.15999999999971
 11
15.23999999999918
 21
-10.15999999999971
  0
LINE
  5
3B9
100
AcDbEntity
  8
0_wire
  6
ByLayer
 62
  256
370
  200
100
AcDbLine
 10
27.93999999999863
 20
2.540000000000374
 11
33.01999999999838
 21
2.540000000000374
  0
LINE
  5
3BA
100
AcDbEntity
  8
0_wire
  6
ByLayer
 62
  256
370
  200
100
AcDbLine
 10
27.93999999999863
 20
3.694822225952521e-13
 11
33.01999999999837
 21
3.694822225952521e-13
  0
LINE
  5
3BB
100
AcDbEntity
  8
0_wire
  6
ByLayer
 62
  256
370
  200
100
AcDbLine
 10
27.93999999999863
 20
-2.539999999999626
 11
33.01999999999835
 21
-2.539999999999825
  0
LINE
  5
3BC
100
AcDbEntity
  8
0_wire
  6
ByLayer
 62
  256
370
  200
100
AcDbLine
 10
27.93999999999863
 20
-5.079999999999632
 11
33.01999999999833
 21
-5.079999999999632
  0
LINE
  5
3BD
100
AcDbEntity
  8
0_wire
  6
ByLayer
 62
  256
370
  200
100
AcDbLine
 10
27.93999999999863
 20
-7.619999999999621
 11
33.01999999999832
 21
-7.619999999999621
  0
LINE
  5
3BE
100
AcDbEntity
  8
0_wire
  6
ByLayer
 62
  256
370
  200
100
AcDbLine
 10
27.93999999999863
 20
-10.15999999999971
 11
33.0199999999983
 21
-10.15999999999971
  0
LINE
  5
3BF
100
AcDbEntity
  8
0_GND
  6
ByLayer
 62
  256
370
  200
100
AcDbLine
 10
20.31999999999901
 20
5.080000000000382
 11
15.23999999999926
 21
5.080000000000382
  0
LINE
  5
3C0
100
AcDbEntity
  8
0_wire
  6
ByLayer
 62
  256
370
  200
100
AcDbLine
 10
20.31999999999901
 20
2.540000000000374
 11
15.23999999999925
 21
2.540000000000374
  0
LINE
  5
3C1
100
AcDbEntity
  8
0_wire
  6
ByLayer
 62
  256
370
  200
100
AcDbLine
 10
20.31999999999901
 20
3.694822225952521e-13
 11
15.23999999999925
 21
3.694822225952521e-13
  0
CIRCLE
  5
3C2
100
AcDbEntity
  8
5V line
  6
ByLayer
 62
  256
370
  200
100
AcDbCircle
 10
27.93999999999867
 20
10.16000000000048
 40
0.4
  0
LINE
  5
3C3
100
AcDbEntity
  8
5V line
  6
ByLayer
 62
  256
370
  200
100
AcDbLine
 10
27.93999999999865
 20
5.080000000000382
 11
30.47999999999853
 21
5.080000000000382
  0
LINE
  5
3C4
100
AcDbEntity
  8
5V line
  6
ByLayer
 62
  256
370
  200
100
AcDbLine
 10
30.47999999999853
 20
5.080000000000382
 11
33.0199999999984
 21
5.080000000000382
  0
LINE
  5
3C5
100
AcDbEntity
  8
0_GND
  6
ByLayer
 62
  256
370
  200
100
AcDbLine
 10
30.47999999999853
 20
7.620000000000474
 11
25.39999999999878
 21
7.620000000000474
  0
LINE
  5
3C6
100
AcDbEntity
  8
0_GND
  6
ByLayer
 62
  256
370
  200
100
AcDbLine
 10
25.39999999999878
 20
7.620000000000474
 11
25.39999999999877
 21
5.080000000000382
  0
LINE
  5
3C7
100
AcDbEntity
  8
0_GND
  6
ByLayer
 62
  256
370
  200
100
AcDbLine
 10
25.39999999999877
 20
5.080000000000382
 11
20.31999999999901
 21
5.080000000000382
  0
LINE
  5
3C8
100
AcDbEntity
  8
0_wire
  6
ByLayer
 62
  256
370
  200
100
AcDbLine
 10
17.77999999999915
 20
10.16000000000048
 11
17.77999999999915
 21
7.620000000000474
  0
CIRCLE
  5
3C9
100
AcDbEntity
  8
3.3V line
  6
ByLayer
 62
  256
370
  200
100
AcDbCircle
 10
15.23999999999926
 20
10.16000000000048
 40
0.4
  0
LINE
  5
3CA
100
AcDbEntity
  8
0_GND
  6
ByLayer
 62
  256
370
  200
100
AcDbLine
 10
30.47999999999886
 20
10.16000000000026
 11
30.47999999999886
 21
7.620000000000254
  0
LINE
  5
3CB
100
AcDbEntity
  8
0_GND
  6
ByLayer
 62
  256
370
  200
100
AcDbLine
 10
15.23999999999886
 20
7.620000000000254
 11
15.23999999999886
 21
5.080000000000254
  0
LINE
  5
3CC
100
AcDbEntity
  8
3.3V line
  6
ByLayer
 62
  256
370
  200
100
AcDbLine
 10
20.31999999999886
 20
-2.539999999999746
 11
15.23999999999886
 21
-2.539999999999746
  0
CIRCLE
  5
3CD
100
AcDbEntity
  8
0_wire
  6
ByLayer
 62
  256
370
  200
100
AcDbCircle
 10
22.85999999999886
 20
10.16000000000022
 40
0.4
  0
CIRCLE
  5
3CE
100
AcDbEntity
  8
0_wire
  6
ByLayer
 62
  256
370
  200
100
AcDbCircle
 10
20.31999999999898
 20
10.16000000000022
 40
0.4
  0
LINE
  5
3CF
100
AcDbEntity
  8
universal_board
  6
ByLayer
 62
  256
370
   -1
100
AcDbLine
 10
16.50999999999922
 20
11.43000000000033
 11
16.50999999999922
 21
-11.42999999999984
  0
LINE
  5
3D0
100
AcDbEntity
  8
universal_board
  6
ByLayer
 62
  256
370
   -1
100
AcDbLine
 10
19.0499999999991
 20
11.43000000000033
 11
19.0499999999991
 21
-11.42999999999984
  0
LINE
  5
3D1
100
AcDbEntity
  8
universal_board
  6
ByLayer
 62
  256
370
   -1
100
AcDbLine
 10
21.58999999999899
 20
11.43000000000033
 11
21.58999999999899
 21
-11.42999999999984
  0
LINE
  5
3D2
100
AcDbEntity
  8
universal_board
  6
ByLayer
 62
  256
370
   -1
100
AcDbLine
 10
24.12999999999887
 20
11.43000000000033
 11
24.12999999999887
 21
-11.42999999999984
  0
LINE
  5
3D3
100
AcDbEntity
  8
universal_board
  6
ByLayer
 62
  256
370
   -1
100
AcDbLine
 10
26.66999999999876
 20
11.43000000000033
 11
26.66999999999876
 21
-11.42999999999984
  0
LINE
  5
3D4
100
AcDbEntity
  8
universal_board
  6
ByLayer
 62
  256
370
   -1
100
AcDbLine
 10
29.20999999999864
 20
11.43000000000033
 11
29.20999999999864
 21
-11.42999999999984
  0
LINE
  5
3D5
100
AcDbEntity
  8
universal_board
  6
ByLayer
 62
  256
370
   -1
100
AcDbLine
 10
31.74999999999853
 20
11.43000000000033
 11
31.74999999999853
 21
-11.42999999999984
  0
LINE
  5
3D6
100
AcDbEntity
  8
universal_board
  6
ByLayer
 62
  256
370
   -1
100
AcDbLine
 10
13.96999999999934
 20
-8.889999999999858
 11
34.28999999999835
 21
-8.889999999999844
  0
LINE
  5
3D7
100
AcDbEntity
  8
universal_board
  6
ByLayer
 62
  256
370
   -1
100
AcDbLine
 10
13.96999999999934
 20
-6.349999999999866
 11
34.28999999999835
 21
-6.349999999999852
  0
LINE
  5
3D8
100
AcDbEntity
  8
universal_board
  6
ByLayer
 62
  256
370
   -1
100
AcDbLine
 10
13.96999999999934
 20
-3.809999999999874
 11
34.28999999999835
 21
-3.80999999999986
  0
LINE
  5
3D9
100
AcDbEntity
  8
universal_board
  6
ByLayer
 62
  256
370
   -1
100
AcDbLine
 10
13.96999999999934
 20
-1.269999999999882
 11
34.28999999999835
 21
-1.269999999999868
  0
LINE
  5
3DA
100
AcDbEntity
  8
universal_board
  6
ByLayer
 62
  256
370
   -1
100
AcDbLine
 10
13.96999999999934
 20
1.27000000000011
 11
34.28999999999835
 21
1.270000000000124
  0
LINE
  5
3DB
100
AcDbEntity
  8
universal_board
  6
ByLayer
 62
  256
370
   -1
100
AcDbLine
 10
13.96999999999934
 20
3.810000000000102
 11
34.28999999999835
 21
3.810000000000116
  0
LINE
  5
3DC
100
AcDbEntity
  8
universal_board
  6
ByLayer
 62
  256
370
   -1
100
AcDbLine
 10
13.96999999999934
 20
6.350000000000094
 11
34.28999999999835
 21
6.350000000000108
  0
LINE
  5
3DD
100
AcDbEntity
  8
universal_board
  6
ByLayer
 62
  256
370
   -1
100
AcDbLine
 10
13.96999999999934
 20
8.890000000000086
 11
34.28999999999835
 21
8.8900000000001
  0
CIRCLE
  5
3DE
100
AcDbEntity
  8
universal_board
  6
ByLayer
 62
  256
370
   -1
100
AcDbCircle
 10
15.23999999999927
 20
22.85999999999993
 40
0.5
  0
CIRCLE
  5
3DF
100
AcDbEntity
  8
universal_board
  6
ByLayer
 62
  256
370
   -1
100
AcDbCircle
 10
15.23999999999927
 20
25.39999999999992
 40
0.5
  0
CIRCLE
  5
3E0
100
AcDbEntity
  8
universal_board
  6
ByLayer
 62
  256
370
   -1
100
AcDbCircle
 10
15.23999999999923
 20
27.94000000000001
 40
0.5
  0
CIRCLE
  5
3E1
100
AcDbEntity
  8
universal_board
  6
ByLayer
 62
  256
370
   -1
100
AcDbCircle
 10
15.23999999999923
 20
30.48000000000002
 40
0.5
  0
CIRCLE
  5
3E2
100
AcDbEntity
  8
universal_board
  6
ByLayer
 62
  256
370
   -1
100
AcDbCircle
 10
15.23999999999923
 20
33.02000000000001
 40
0.5
  0
CIRCLE
  5
3E3
100
AcDbEntity
  8
universal_board
  6
ByLayer
 62
  256
370
   -1
100
AcDbCircle
 10
15.23999999999923
 20
35.56000000000002
 40
0.5
  0
CIRCLE
  5
3E4
100
AcDbEntity
  8
universal_board
  6
ByLayer
 62
  256
370
   -1
100
AcDbCircle
 10
15.23999999999922
 20
38.10000000000002
 40
0.5
  0
CIRCLE
  5
3E5
100
AcDbEntity
  8
universal_board
  6
ByLayer
 62
  256
370
   -1
100
AcDbCircle
 10
17.77999999999913
 20
22.85999999999993
 40
0.5
  0
CIRCLE
  5
3E6
100
AcDbEntity
  8
universal_board
  6
ByLayer
 62
  256
370
   -1
100
AcDbCircle
 10
17.77999999999913
 20
25.39999999999992
 40
0.5
  0
CIRCLE
  5
3E7
100
AcDbEntity
  8
universal_board
  6
ByLayer
 62
  256
370
   -1
100
AcDbCircle
 10
17.77999999999912
 20
27.94000000000001
 40
0.5
  0
CIRCLE
  5
3E8
100
AcDbEntity
  8
universal_board
  6
ByLayer
 62
  256
370
   -1
100
AcDbCircle
 10
17.77999999999911
 20
30.48000000000002
 40
0.5
  0
CIRCLE
  5
3E9
100
AcDbEntity
  8
universal_board
  6
ByLayer
 62
  256
370
   -1
100
AcDbCircle
 10
17.77999999999911
 20
33.02000000000001
 40
0.5
  0
CIRCLE
  5
3EA
100
AcDbEntity
  8
universal_board
  6
ByLayer
 62
  256
370
   -1
100
AcDbCircle
 10
17.77999999999911
 20
35.56000000000002
 40
0.5
  0
CIRCLE
  5
3EB
100
AcDbEntity
  8
universal_board
  6
ByLayer
 62
  256
370
   -1
100
AcDbCircle
 10
17.7799999999991
 20
38.10000000000002
 40
0.5
  0
CIRCLE
  5
3EC
100
AcDbEntity
  8
universal_board
  6
ByLayer
 62
  256
370
   -1
100
AcDbCircle
 10
20.31999999999902
 20
22.85999999999993
 40
0.5
  0
CIRCLE
  5
3ED
100
AcDbEntity
  8
universal_board
  6
ByLayer
 62
  256
370
   -1
100
AcDbCircle
 10
20.31999999999902
 20
25.39999999999992
 40
0.5
  0
CIRCLE
  5
3EE
100
AcDbEntity
  8
universal_board
  6
ByLayer
 62
  256
370
   -1
100
AcDbCircle
 10
20.31999999999898
 20
27.94000000000001
 40
0.5
  0
CIRCLE
  5
3EF
100
AcDbEntity
  8
universal_board
  6
ByLayer
 62
  256
370
   -1
100
AcDbCircle
 10
20.31999999999898
 20
30.48000000000002
 40
0.5
  0
CIRCLE
  5
3F0
100
AcDbEntity
  8
universal_board
  6
ByLayer
 62
  256
370
   -1
100
AcDbCircle
 10
20.31999999999898
 20
33.02000000000001
 40
0.5
  0
CIRCLE
  5
3F1
100
AcDbEntity
  8
universal_board
  6
ByLayer
 62
  256
370
   -1
100
AcDbCircle
 10
20.31999999999898
 20
35.56000000000002
 40
0.5
  0
CIRCLE
  5
3F2
100
AcDbEntity
  8
universal_board
  6
ByLayer
 62
  256
370
   -1
100
AcDbCircle
 10
20.31999999999898
 20
38.10000000000002
 40
0.5
  0
CIRCLE
  5
3F3
100
AcDbEntity
  8
universal_board
  6
ByLayer
 62
  256
370
   -1
100
AcDbCircle
 10
22.8599999999989
 20
22.85999999999993
 40
0.5
  0
CIRCLE
  5
3F4
100
AcDbEntity
  8
universal_board
  6
ByLayer
 62
  256
370
   -1
100
AcDbCircle
 10
22.8599999999989
 20
25.39999999999992
 40
0.5
  0
CIRCLE
  5
3F5
100
AcDbEntity
  8
universal_board
  6
ByLayer
 62
  256
370
   -1
100
AcDbCircle
 10
22.85999999999887
 20
27.94000000000001
 40
0.5
  0
CIRCLE
  5
3F6
100
AcDbEntity
  8
universal_board
  6
ByLayer
 62
  256
370
   -1
100
AcDbCircle
 10
22.85999999999887
 20
30.48000000000002
 40
0.5
  0
CIRCLE
  5
3F7
100
AcDbEntity
  8
universal_board
  6
ByLayer
 62
  256
370
   -1
100
AcDbCircle
 10
22.85999999999887
 20
33.02000000000001
 40
0.5
  0
CIRCLE
  5
3F8
100
AcDbEntity
  8
universal_board
  6
ByLayer
 62
  256
370
   -1
100
AcDbCircle
 10
22.85999999999887
 20
35.56000000000002
 40
0.5
  0
CIRCLE
  5
3F9
100
AcDbEntity
  8
universal_board
  6
ByLayer
 62
  256
370
   -1
100
AcDbCircle
 10
22.85999999999886
 20
38.10000000000002
 40
0.5
  0
CIRCLE
  5
3FA
100
AcDbEntity
  8
universal_board
  6
ByLayer
 62
  256
370
   -1
100
AcDbCircle
 10
25.39999999999878
 20
22.85999999999993
 40
0.5
  0
CIRCLE
  5
3FB
100
AcDbEntity
  8
universal_board
  6
ByLayer
 62
  256
370
   -1
100
AcDbCircle
 10
25.39999999999878
 20
25.39999999999992
 40
0.5
  0
CIRCLE
  5
3FC
100
AcDbEntity
  8
universal_board
  6
ByLayer
 62
  256
370
   -1
100
AcDbCircle
 10
25.39999999999875
 20
27.94000000000001
 40
0.5
  0
CIRCLE
  5
3FD
100
AcDbEntity
  8
universal_board
  6
ByLayer
 62
  256
370
   -1
100
AcDbCircle
 10
25.39999999999873
 20
30.48000000000002
 40
0.5
  0
CIRCLE
  5
3FE
100
AcDbEntity
  8
universal_board
  6
ByLayer
 62
  256
370
   -1
100
AcDbCircle
 10
25.39999999999873
 20
33.02000000000001
 40
0.5
  0
CIRCLE
  5
3FF
100
AcDbEntity
  8
universal_board
  6
ByLayer
 62
  256
370
   -1
100
AcDbCircle
 10
25.39999999999873
 20
35.56000000000002
 40
0.5
  0
CIRCLE
  5
400
100
AcDbEntity
  8
universal_board
  6
ByLayer
 62
  256
370
   -1
100
AcDbCircle
 10
25.39999999999873
 20
38.10000000000002
 40
0.5
  0
CIRCLE
  5
401
100
AcDbEntity
  8
universal_board
  6
ByLayer
 62
  256
370
   -1
100
AcDbCircle
 10
27.93999999999865
 20
22.85999999999993
 40
0.5
  0
CIRCLE
  5
402
100
AcDbEntity
  8
universal_board
  6
ByLayer
 62
  256
370
   -1
100
AcDbCircle
 10
27.93999999999865
 20
25.39999999999992
 40
0.5
  0
CIRCLE
  5
403
100
AcDbEntity
  8
universal_board
  6
ByLayer
 62
  256
370
   -1
100
AcDbCircle
 10
27.93999999999863
 20
27.94000000000001
 40
0.5
  0
CIRCLE
  5
404
100
AcDbEntity
  8
universal_board
  6
ByLayer
 62
  256
370
   -1
100
AcDbCircle
 10
27.93999999999862
 20
30.48000000000002
 40
0.5
  0
CIRCLE
  5
405
100
AcDbEntity
  8
universal_board
  6
ByLayer
 62
  256
370
   -1
100
AcDbCircle
 10
27.93999999999862
 20
33.02000000000001
 40
0.5
  0
CIRCLE
  5
406
100
AcDbEntity
  8
universal_board
  6
ByLayer
 62
  256
370
   -1
100
AcDbCircle
 10
27.93999999999862
 20
35.56000000000002
 40
0.5
  0
CIRCLE
  5
407
100
AcDbEntity
  8
universal_board
  6
ByLayer
 62
  256
370
   -1
100
AcDbCircle
 10
27.93999999999861
 20
38.10000000000002
 40
0.5
  0
CIRCLE
  5
408
100
AcDbEntity
  8
universal_board
  6
ByLayer
 62
  256
370
   -1
100
AcDbCircle
 10
30.47999999999854
 20
22.85999999999993
 40
0.5
  0
CIRCLE
  5
409
100
AcDbEntity
  8
universal_board
  6
ByLayer
 62
  256
370
   -1
100
AcDbCircle
 10
30.47999999999854
 20
25.39999999999992
 40
0.5
  0
CIRCLE
  5
40A
100
AcDbEntity
  8
universal_board
  6
ByLayer
 62
  256
370
   -1
100
AcDbCircle
 10
30.4799999999985
 20
27.94000000000001
 40
0.5
  0
CIRCLE
  5
40B
100
AcDbEntity
  8
universal_board
  6
ByLayer
 62
  256
370
   -1
100
AcDbCircle
 10
30.4799999999985
 20
30.48000000000002
 40
0.5
  0
CIRCLE
  5
40C
100
AcDbEntity
  8
universal_board
  6
ByLayer
 62
  256
370
   -1
100
AcDbCircle
 10
30.4799999999985
 20
33.02000000000001
 40
0.5
  0
CIRCLE
  5
40D
100
AcDbEntity
  8
universal_board
  6
ByLayer
 62
  256
370
   -1
100
AcDbCircle
 10
30.4799999999985
 20
35.56000000000002
 40
0.5
  0
CIRCLE
  5
40E
100
AcDbEntity
  8
universal_board
  6
ByLayer
 62
  256
370
   -1
100
AcDbCircle
 10
30.47999999999849
 20
38.10000000000002
 40
0.5
  0
CIRCLE
  5
40F
100
AcDbEntity
  8
universal_board
  6
ByLayer
 62
  256
370
   -1
100
AcDbCircle
 10
15.23999999999927
 20
20.31999999999994
 40
0.5
  0
CIRCLE
  5
410
100
AcDbEntity
  8
universal_board
  6
ByLayer
 62
  256
370
   -1
100
AcDbCircle
 10
17.77999999999913
 20
20.31999999999994
 40
0.5
  0
CIRCLE
  5
411
100
AcDbEntity
  8
universal_board
  6
ByLayer
 62
  256
370
   -1
100
AcDbCircle
 10
20.31999999999902
 20
20.31999999999994
 40
0.5
  0
CIRCLE
  5
412
100
AcDbEntity
  8
universal_board
  6
ByLayer
 62
  256
370
   -1
100
AcDbCircle
 10
22.8599999999989
 20
20.31999999999994
 40
0.5
  0
CIRCLE
  5
413
100
AcDbEntity
  8
universal_board
  6
ByLayer
 62
  256
370
   -1
100
AcDbCircle
 10
25.39999999999878
 20
20.31999999999994
 40
0.5
  0
CIRCLE
  5
414
100
AcDbEntity
  8
universal_board
  6
ByLayer
 62
  256
370
   -1
100
AcDbCircle
 10
27.93999999999865
 20
20.31999999999994
 40
0.5
  0
CIRCLE
  5
415
100
AcDbEntity
  8
universal_board
  6
ByLayer
 62
  256
370
   -1
100
AcDbCircle
 10
30.47999999999854
 20
20.31999999999994
 40
0.5
  0
CIRCLE
  5
416
100
AcDbEntity
  8
universal_board
  6
ByLayer
 62
  256
370
   -1
100
AcDbCircle
 10
15.23999999999927
 20
17.77999999999994
 40
0.5
  0
CIRCLE
  5
417
100
AcDbEntity
  8
universal_board
  6
ByLayer
 62
  256
370
   -1
100
AcDbCircle
 10
17.77999999999913
 20
17.77999999999994
 40
0.5
  0
CIRCLE
  5
418
100
AcDbEntity
  8
universal_board
  6
ByLayer
 62
  256
370
   -1
100
AcDbCircle
 10
20.31999999999902
 20
17.77999999999994
 40
0.5
  0
CIRCLE
  5
419
100
AcDbEntity
  8
universal_board
  6
ByLayer
 62
  256
370
   -1
100
AcDbCircle
 10
22.8599999999989
 20
17.77999999999994
 40
0.5
  0
CIRCLE
  5
41A
100
AcDbEntity
  8
universal_board
  6
ByLayer
 62
  256
370
   -1
100
AcDbCircle
 10
25.39999999999878
 20
17.77999999999994
 40
0.5
  0
CIRCLE
  5
41B
100
AcDbEntity
  8
universal_board
  6
ByLayer
 62
  256
370
   -1
100
AcDbCircle
 10
27.93999999999865
 20
17.77999999999994
 40
0.5
  0
CIRCLE
  5
41C
100
AcDbEntity
  8
universal_board
  6
ByLayer
 62
  256
370
   -1
100
AcDbCircle
 10
30.47999999999854
 20
17.77999999999994
 40
0.5
  0
LINE
  5
41D
100
AcDbEntity
  8
universal_board
  6
ByLayer
 62
  256
370
   -1
100
AcDbLine
 10
13.96999999999932
 20
39.37000000000013
 11
13.96999999999932
 21
16.50999999999996
  0
LINE
  5
41E
100
AcDbEntity
  8
universal_board
  6
ByLayer
 62
  256
370
   -1
100
AcDbLine
 10
13.96999999999928
 20
39.37000000000013
 11
31.74999999999848
 21
39.37000000000015
  0
LINE
  5
41F
100
AcDbEntity
  8
universal_board
  6
ByLayer
 62
  256
370
   -1
100
AcDbLine
 10
13.96999999999932
 20
16.51000000000006
 11
31.74999999999848
 21
16.51000000000007
  0
LINE
  5
420
100
AcDbEntity
  8
universal_board
  6
ByLayer
 62
  256
370
   -1
100
AcDbLine
 10
31.74999999999848
 20
39.37000000000015
 11
31.74999999999848
 21
16.51000000000007
  0
LINE
  5
421
100
AcDbEntity
  8
0_wire
  6
ByLayer
 62
  256
370
  200
100
AcDbLine
 10
22.85999999999888
 20
22.85999999999993
 11
22.8599999999989
 21
17.77999999999994
  0
LINE
  5
422
100
AcDbEntity
  8
0_wire
  6
ByLayer
 62
  256
370
  200
100
AcDbLine
 10
27.93999999999864
 20
22.85999999999994
 11
30.47999999999853
 21
22.85999999999996
  0
LINE
  5
423
100
AcDbEntity
  8
0_wire
  6
ByLayer
 62
  256
370
  200
100
AcDbLine
 10
30.4799999999985
 20
33.02000000000004
 11
27.93999999999863
 21
33.02000000000002
  0
LINE
  5
424
100
AcDbEntity
  8
0_wire
  6
ByLayer
 62
  256
370
  200
100
AcDbLine
 10
20.319999999999
 20
33.02
 11
20.31999999999902
 21
17.77999999999993
  0
LINE
  5
425
100
AcDbEntity
  8
0_wire
  6
ByLayer
 62
  256
370
  200
100
AcDbLine
 10
30.47999999999849
 20
35.56000000000004
 11
27.93999999999861
 21
35.56000000000004
  0
LINE
  5
426
100
AcDbEntity
  8
0_wire
  6
ByLayer
 62
  256
370
  200
100
AcDbLine
 10
17.77999999999911
 20
35.56
 11
17.77999999999914
 21
17.77999999999992
  0
LINE
  5
427
100
AcDbEntity
  8
5V line
  6
ByLayer
 62
  256
370
  200
100
AcDbLine
 10
30.47999999999534
 20
38.09999999999944
 11
27.93999999999534
 21
38.09999999999943
  0
LINE
  5
428
100
AcDbEntity
  8
0_wire
  6
ByLayer
 62
  256
370
  200
100
AcDbLine
 10
15.23999999999923
 20
22.85999999999989
 11
15.23999999999923
 21
25.39999999999988
  0
LINE
  5
429
100
AcDbEntity
  8
0_GND
  6
ByLayer
 62
  256
370
  200
100
AcDbLine
 10
22.85999999999886
 20
38.10000000000002
 11
22.85999999999887
 21
25.39999999999992
  0
LINE
  5
42A
100
AcDbEntity
  8
0_GND
  6
ByLayer
 62
  256
370
  200
100
AcDbLine
 10
22.85999999999887
 20
25.39999999999992
 11
25.39999999999875
 21
25.39999999999993
  0
LINE
  5
42B
100
AcDbEntity
  8
0_GND
  6
ByLayer
 62
  256
370
  200
100
AcDbLine
 10
25.39999999999875
 20
25.39999999999993
 11
25.39999999999877
 21
20.31999999999995
  0
LINE
  5
42C
100
AcDbEntity
  8
0_GND
  6
ByLayer
 62
  256
370
  200
100
AcDbLine
 10
25.39999999999877
 20
20.31999999999995
 11
30.47999999999851
 21
20.31999999999997
  0
LINE
  5
42D
100
AcDbEntity
  8
0_wire
  6
ByLayer
 62
  256
370
  200
100
AcDbLine
 10
15.23999999999924
 20
30.47999999999999
 11
15.23999999999925
 21
27.93999999999998
  0
CIRCLE
  5
42E
100
AcDbEntity
  8
5V line
  6
ByLayer
 62
  256
370
  200
100
AcDbCircle
 10
15.23999999999923
 20
33.01999999999998
 40
0.4
  0
CIRCLE
  5
42F
100
AcDbEntity
  8
5V line
  6
ByLayer
 62
  256
370
  200
100
AcDbCircle
 10
27.93999999999866
 20
17.77999999999997
 40
0.4
  0
LINE
  5
430
100
AcDbEntity
  8
0_GND
  6
ByLayer
 62
  256
370
  200
100
AcDbLine
 10
17.77999999999911
 20
38.10000000000001
 11
22.85999999999886
 21
38.10000000000002
  0
LINE
  5
431
100
AcDbEntity
  8
0_GND
  6
ByLayer
 62
  256
370
  200
100
AcDbLine
 10
15.23999999999881
 20
38.09999999999997
 11
17.77999999999881
 21
38.09999999999997
  0
LINE
  5
432
100
AcDbEntity
  8
0_GND
  6
ByLayer
 62
  256
370
  200
100
AcDbLine
 10
30.47999999999888
 20
20.32000000000004
 11
30.4799999999989
 21
17.78000000000004
  0
MTEXT
  5
433
100
AcDbEntity
  8
0
  6
ByLayer
 62
  256
370
   -1
100
AcDbMText
 10
33.63970815278972
 20
33.33546499522974
 30
0
 40
1
 41
10.00222222222222
 71
    4
 72
    1
  1
B2: 基板 7x9P\PD1: LED\PH1,2: ヘッダ 3P\PH3: ヘッダ 2P\PH4-6: ヘッダ 1P\PR1-3: 300Ω\PR4: 2.6kΩ
  7
kst32b
210
0
220
0
230
1
 50
0
 73
    2
 44
1
  0
LINE
  5
434
100
AcDbEntity
  8
universal_board
  6
ByLayer
 62
  256
370
   -1
100
AcDbLine
 10
13.96999999999932
 20
19.05000000000005
 11
31.74999999999848
 21
19.05000000000006
  0
LINE
  5
435
100
AcDbEntity
  8
universal_board
  6
ByLayer
 62
  256
370
   -1
100
AcDbLine
 10
13.96999999999932
 20
21.59000000000005
 11
31.74999999999848
 21
21.59000000000006
  0
LINE
  5
436
100
AcDbEntity
  8
universal_board
  6
ByLayer
 62
  256
370
   -1
100
AcDbLine
 10
13.96999999999932
 20
24.13000000000004
 11
31.74999999999848
 21
24.13000000000005
  0
LINE
  5
437
100
AcDbEntity
  8
universal_board
  6
ByLayer
 62
  256
370
   -1
100
AcDbLine
 10
13.96999999999932
 20
26.67000000000003
 11
31.74999999999848
 21
26.67000000000004
  0
LINE
  5
438
100
AcDbEntity
  8
universal_board
  6
ByLayer
 62
  256
370
   -1
100
AcDbLine
 10
13.96999999999932
 20
29.21000000000002
 11
31.74999999999848
 21
29.21000000000003
  0
LINE
  5
439
100
AcDbEntity
  8
universal_board
  6
ByLayer
 62
  256
370
   -1
100
AcDbLine
 10
13.96999999999932
 20
31.75000000000001
 11
31.74999999999848
 21
31.75000000000002
  0
LINE
  5
43A
100
AcDbEntity
  8
universal_board
  6
ByLayer
 62
  256
370
   -1
100
AcDbLine
 10
13.96999999999932
 20
34.29000000000001
 11
31.74999999999848
 21
34.29000000000002
  0
LINE
  5
43B
100
AcDbEntity
  8
universal_board
  6
ByLayer
 62
  256
370
   -1
100
AcDbLine
 10
13.96999999999932
 20
36.83
 11
31.74999999999848
 21
36.83000000000001
  0
LINE
  5
43C
100
AcDbEntity
  8
universal_board
  6
ByLayer
 62
  256
370
   -1
100
AcDbLine
 10
16.50999999999919
 20
39.37000000000013
 11
16.50999999999919
 21
16.50999999999996
  0
LINE
  5
43D
100
AcDbEntity
  8
universal_board
  6
ByLayer
 62
  256
370
   -1
100
AcDbLine
 10
19.04999999999905
 20
39.37000000000013
 11
19.04999999999905
 21
16.50999999999996
  0
LINE
  5
43E
100
AcDbEntity
  8
universal_board
  6
ByLayer
 62
  256
370
   -1
100
AcDbLine
 10
21.58999999999892
 20
39.37000000000013
 11
21.58999999999892
 21
16.50999999999996
  0
LINE
  5
43F
100
AcDbEntity
  8
universal_board
  6
ByLayer
 62
  256
370
   -1
100
AcDbLine
 10
24.12999999999878
 20
39.37000000000013
 11
24.12999999999878
 21
16.50999999999996
  0
LINE
  5
440
100
AcDbEntity
  8
universal_board
  6
ByLayer
 62
  256
370
   -1
100
AcDbLine
 10
26.66999999999864
 20
39.37000000000013
 11
26.66999999999864
 21
16.50999999999996
  0
LINE
  5
441
100
AcDbEntity
  8
universal_board
  6
ByLayer
 62
  256
370
   -1
100
AcDbLine
 10
29.20999999999851
 20
39.37000000000013
 11
29.20999999999851
 21
16.50999999999996
  0
MTEXT
  5
442
100
AcDbEntity
  8
0
  6
ByLayer
 62
  256
370
   -1
100
AcDbMText
 10
-25.15441045578208
 20
58.96448154379027
 30
0
 40
1
 41
12.35111111111111
 71
    4
 72
    1
  1
参考\PPIC-PIC-PROG v1.0
  7
kst32b
210
0
220
0
230
1
 50
0
 73
    2
 44
1
  0
ENDSEC
  0
SECTION
  2
OBJECTS
  0
DICTIONARY
  5
C
330
0
100
AcDbDictionary
281
    1
  3
ACAD_GROUP
350
D
  0
DICTIONARY
  5
D
330
C
100
AcDbDictionary
281
    1
  0
PLOTSETTINGS
  5
443
100
AcDbPlotSettings
  6
1x1
 40
5
 41
5
 42
5
 43
5
  0
ENDSEC
  0
EOF
