999
dxfrw 0.6.3
  0
SECTION
  2
HEADER
  9
$ACADVER
  1
AC1021
  9
$DWGCODEPAGE
  3
ANSI_1252
  9
$INSBASE
 10
0
 20
0
 30
0
  9
$EXTMIN
 10
-26.66999999999857
 20
-45.38096643150131
 30
0
  9
$EXTMAX
 10
44.44999999999797
 20
15.68085779244075
 30
0
  9
$LIMMIN
 10
0
 20
0
  9
$LIMMAX
 10
420
 20
297
  9
$ORTHOMODE
 70
    0
  9
$REGENMODE
 70
    1
  9
$FILLMODE
 70
    1
  9
$QTEXTMODE
 70
    0
  9
$MIRRTEXT
 70
    0
  9
$LTSCALE
 40
1
  9
$ATTMODE
 70
    0
  9
$TEXTSIZE
 40
2.5
  9
$TRACEWID
 40
15.68
  9
$TEXTSTYLE
  7
STANDARD
  9
$CLAYER
  8
3.3V line
  9
$CELTYPE
  6
BYLAYER
  9
$CECOLOR
 62
  256
  9
$CELTSCALE
 40
1
  9
$DISPSILH
 70
    0
  9
$DIMSCALE
 40
1
  9
$DIMASZ
 40
2.5
  9
$DIMEXO
 40
0.625
  9
$DIMDLI
 40
3.75
  9
$DIMRND
 40
0
  9
$DIMDLE
 40
0
  9
$DIMEXE
 40
1.25
  9
$DIMTP
 40
0
  9
$DIMTM
 40
0
  9
$DIMTXT
 40
2.5
  9
$DIMCEN
 40
2.5
  9
$DIMTSZ
 40
0
  9
$DIMTOL
 70
    0
  9
$DIMLIM
 70
    0
  9
$DIMTIH
 70
    0
  9
$DIMTOH
 70
    0
  9
$DIMSE1
 70
    0
  9
$DIMSE2
 70
    0
  9
$DIMTAD
 70
    1
  9
$DIMZIN
 70
    8
  9
$DIMBLK
  1

  9
$DIMASO
 70
    1
  9
$DIMSHO
 70
    1
  9
$DIMPOST
  1

  9
$DIMAPOST
  1

  9
$DIMALT
 70
    0
  9
$DIMALTD
 70
    3
  9
$DIMALTF
 40
0.03937
  9
$DIMLFAC
 40
1
  9
$DIMTOFL
 70
    1
  9
$DIMTVP
 40
0
  9
$DIMTIX
 70
    0
  9
$DIMSOXD
 70
    0
  9
$DIMSAH
 70
    0
  9
$DIMBLK1
  1

  9
$DIMBLK2
  1

  9
$DIMSTYLE
  2
STANDARD
  9
$DIMCLRD
 70
    0
  9
$DIMCLRE
 70
    0
  9
$DIMCLRT
 70
    0
  9
$DIMTFAC
 40
1
  9
$DIMGAP
 40
0.625
  9
$DIMJUST
 70
    0
  9
$DIMSD1
 70
    0
  9
$DIMSD2
 70
    0
  9
$DIMTOLJ
 70
    0
  9
$DIMTZIN
 70
    8
  9
$DIMALTZ
 70
    0
  9
$DIMALTTZ
 70
    0
  9
$DIMUPT
 70
    0
  9
$DIMDEC
 70
    2
  9
$DIMTDEC
 70
    2
  9
$DIMALTU
 70
    2
  9
$DIMALTTD
 70
    3
  9
$DIMTXSTY
  7
standard
  9
$DIMAUNIT
 70
    0
  9
$DIMADEC
 70
    0
  9
$DIMALTRND
 40
0
  9
$DIMAZIN
 70
    0
  9
$DIMDSEP
 70
   44
  9
$DIMATFIT
 70
    3
  9
$DIMFRAC
 70
    0
  9
$DIMLDRBLK
  1
STANDARD
  9
$DIMLUNIT
 70
    2
  9
$DIMLWD
 70
   -2
  9
$DIMLWE
 70
   -2
  9
$DIMTMOVE
 70
    0
  9
$DIMFXL
 40
1
  9
$DIMFXLON
 70
    0
  9
$DIMJOGANG
 40
0.7854
  9
$DIMTFILL
 70
    0
  9
$DIMTFILLCLR
 70
    0
  9
$DIMARCSYM
 70
    0
  9
$DIMLTYPE
  6

  9
$DIMLTEX1
  6

  9
$DIMLTEX2
  6

  9
$LUNITS
 70
    2
  9
$LUPREC
 70
    4
  9
$SKETCHINC
 40
1
  9
$FILLETRAD
 40
0
  9
$AUNITS
 70
    0
  9
$AUPREC
 70
    2
  9
$MENU
  1
.
  9
$ELEVATION
 40
0
  9
$PELEVATION
 40
0
  9
$THICKNESS
 40
0
  9
$LIMCHECK
 70
    0
  9
$CHAMFERA
 40
0
  9
$CHAMFERB
 40
0
  9
$CHAMFERC
 40
0
  9
$CHAMFERD
 40
0
  9
$SKPOLY
 70
    0
  9
$USRTIMER
 70
    1
  9
$ANGBASE
 50
0
  9
$ANGDIR
 70
    0
  9
$PDMODE
 70
   34
  9
$PDSIZE
 40
0
  9
$PLINEWID
 40
0
  9
$SPLFRAME
 70
    0
  9
$SPLINETYPE
 70
    2
  9
$SPLINESEGS
 70
    8
  9
$HANDSEED
  5
20000
  9
$SURFTAB1
 70
    6
  9
$SURFTAB2
 70
    6
  9
$SURFTYPE
 70
    6
  9
$SURFU
 70
    6
  9
$SURFV
 70
    6
  9
$UCSBASE
  2

  9
$UCSNAME
  2

  9
$UCSORG
 10
0
 20
0
 30
0
  9
$UCSXDIR
 10
1
 20
0
 30
0
  9
$UCSYDIR
 10
0
 20
1
 30
0
  9
$UCSORTHOREF
  2

  9
$UCSORTHOVIEW
 70
    0
  9
$UCSORGTOP
 10
0
 20
0
 30
0
  9
$UCSORGBOTTOM
 10
0
 20
0
 30
0
  9
$UCSORGLEFT
 10
0
 20
0
 30
0
  9
$UCSORGRIGHT
 10
0
 20
0
 30
0
  9
$UCSORGFRONT
 10
0
 20
0
 30
0
  9
$UCSORGBACK
 10
0
 20
0
 30
0
  9
$PUCSBASE
  2

  9
$PUCSNAME
  2

  9
$PUCSORG
 10
0
 20
0
 30
0
  9
$PUCSXDIR
 10
1
 20
0
 30
0
  9
$PUCSYDIR
 10
0
 20
1
 30
0
  9
$PUCSORTHOREF
  2

  9
$PUCSORTHOVIEW
 70
    0
  9
$PUCSORGTOP
 10
0
 20
0
 30
0
  9
$PUCSORGBOTTOM
 10
0
 20
0
 30
0
  9
$PUCSORGLEFT
 10
0
 20
0
 30
0
  9
$PUCSORGRIGHT
 10
0
 20
0
 30
0
  9
$PUCSORGFRONT
 10
0
 20
0
 30
0
  9
$PUCSORGBACK
 10
0
 20
0
 30
0
  9
$USERI1
 70
    0
  9
$USERI2
 70
    0
  9
$USERI3
 70
    0
  9
$USERI4
 70
    0
  9
$USERI5
 70
    0
  9
$USERR1
 40
0
  9
$USERR2
 40
0
  9
$USERR3
 40
0
  9
$USERR4
 40
0
  9
$USERR5
 40
0
  9
$WORLDVIEW
 70
    1
  9
$SHADEDGE
 70
    3
  9
$SHADEDIF
 70
   70
  9
$TILEMODE
 70
    1
  9
$MAXACTVP
 70
   64
  9
$PINSBASE
 10
119.381970484878
 20
153.6394060716832
 30
0
  9
$PLIMCHECK
 70
    0
  9
$PEXTMIN
 10
0
 20
0
 30
0
  9
$PEXTMAX
 10
0
 20
0
 30
0
  9
$GRIDMODE
 70
    0
  9
$SNAPSTYLE
 70
    0
  9
$GRIDUNIT
 10
0
 20
0
  9
$PLIMMIN
 10
0
 20
0
  9
$PLIMMAX
 10
297
 20
210
  9
$UNITMODE
 70
    0
  9
$VISRETAIN
 70
    1
  9
$PLINEGEN
 70
    0
  9
$PSLTSCALE
 70
    1
  9
$TREEDEPTH
 70
 3020
  9
$CMLSTYLE
  2
Standard
  9
$CMLJUST
 70
    0
  9
$CMLSCALE
 40
20
  9
$PROXYGRAPHICS
 70
    1
  9
$MEASUREMENT
 70
    1
  9
$CELWEIGHT
370
   -1
  9
$ENDCAPS
280
    0
  9
$JOINSTYLE
280
    0
  9
$LWDISPLAY
290
    0
  9
$INSUNITS
 70
    0
  9
$HYPERLINKBASE
  1

  9
$STYLESHEET
  1

  9
$XEDIT
290
    1
  9
$CEPSNTYPE
380
    0
  9
$PSTYLEMODE
290
    1
  9
$EXTNAMES
290
    1
  9
$PSVPSCALE
 40
3.275368899338925
  9
$OLESTARTUP
290
    0
  9
$SORTENTS
280
  127
  9
$INDEXCTL
280
    0
  9
$HIDETEXT
280
    1
  9
$XCLIPFRAME
290
    0
  9
$HALOGAP
280
    0
  9
$OBSCOLOR
 70
  257
  9
$OBSLTYPE
280
    0
  9
$INTERSECTIONDISPLAY
280
    0
  9
$INTERSECTIONCOLOR
 70
  257
  9
$DIMASSOC
280
    1
  9
$PROJECTNAME
  1

  9
$CAMERADISPLAY
290
    0
  9
$LENSLENGTH
 40
50
  9
$CAMERAHEIGHT
 40
0
  9
$STEPSPERSEC
 40
2
  9
$STEPSIZE
 40
50
  9
$3DDWFPREC
 40
2
  9
$PSOLWIDTH
 40
5
  9
$PSOLHEIGHT
 40
80
  9
$LOFTANG1
 40
1.570796326794897
  9
$LOFTANG2
 40
1.570796326794897
  9
$LOFTMAG1
 40
0
  9
$LOFTMAG2
 40
0
  9
$LOFTPARAM
 70
    7
  9
$LOFTNORMALS
280
    1
  9
$LATITUDE
 40
1
  9
$LONGITUDE
 40
1
  9
$NORTHDIRECTION
 40
0
  9
$TIMEZONE
 70
-8000
  9
$LIGHTGLYPHDISPLAY
280
    1
  9
$TILEMODELIGHTSYNCH
280
    1
  9
$SOLIDHIST
280
    1
  9
$SHOWHIST
280
    1
  9
$DWFFRAME
280
    2
  9
$DGNFRAME
280
    0
  9
$REALWORLDSCALE
290
    1
  9
$INTERFERECOLOR
 62
    1
  9
$CSHADOW
280
    0
  9
$SHADOWPLANELOCATION
 40
0
  0
ENDSEC
  0
SECTION
  2
CLASSES
  0
ENDSEC
  0
SECTION
  2
TABLES
  0
TABLE
  2
VPORT
  5
8
330
0
100
AcDbSymbolTable
 70
    1
  0
VPORT
  5
31
330
2
100
AcDbSymbolTableRecord
100
AcDbViewportTableRecord
  2
*ACTIVE
 70
    0
 10
0
 20
0
 11
1
 21
1
 12
24.99086448732961
 22
8.137728737582707
 13
0
 23
0
 14
10
 24
10
 15
10
 25
10
 16
0
 26
0
 36
1
 17
0
 27
0
 37
0
 40
48.22357770419381
 41
1.626041666666667
 42
50
 43
0
 44
0
 50
0
 51
0
 71
    0
 72
  100
 73
    1
 74
    3
 75
    0
 76
    0
 77
    0
 78
    0
281
    0
 65
    1
110
0
120
0
130
0
111
1
121
0
131
0
112
0
122
1
132
0
 79
    0
146
0
348
10020
 60
    7
 61
    5
292
1
282
    1
141
0
142
0
 63
  250
421
3358443
  0
ENDTAB
  0
TABLE
  2
LTYPE
  5
5
330
0
100
AcDbSymbolTable
 70
    4
  0
LTYPE
  5
14
330
5
100
AcDbSymbolTableRecord
100
AcDbLinetypeTableRecord
  2
ByBlock
 70
    0
  3

 72
   65
 73
    0
 40
0
  0
LTYPE
  5
15
330
5
100
AcDbSymbolTableRecord
100
AcDbLinetypeTableRecord
  2
ByLayer
 70
    0
  3

 72
   65
 73
    0
 40
0
  0
LTYPE
  5
16
330
5
100
AcDbSymbolTableRecord
100
AcDbLinetypeTableRecord
  2
Continuous
 70
    0
  3
Solid line
 72
   65
 73
    0
 40
0
  0
LTYPE
  5
32
330
5
100
AcDbSymbolTableRecord
100
AcDbLinetypeTableRecord
  2
DOT
 70
    0
  3
Dot . . . . . . . . . . . . . . . . . . . . . .
 72
   65
 73
    2
 40
6.35
 49
0
 74
    0
 49
-6.35
 74
    0
  0
LTYPE
  5
33
330
5
100
AcDbSymbolTableRecord
100
AcDbLinetypeTableRecord
  2
DOTTINY
 70
    0
  3
Dot (.15x) .....................................
 72
   65
 73
    2
 40
0.9525
 49
0
 74
    0
 49
-0.9525
 74
    0
  0
LTYPE
  5
34
330
5
100
AcDbSymbolTableRecord
100
AcDbLinetypeTableRecord
  2
DOT2
 70
    0
  3
Dot (.5x) .....................................
 72
   65
 73
    2
 40
3.175
 49
0
 74
    0
 49
-3.175
 74
    0
  0
LTYPE
  5
35
330
5
100
AcDbSymbolTableRecord
100
AcDbLinetypeTableRecord
  2
DOTX2
 70
    0
  3
Dot (2x) .  .  .  .  .  .  .  .  .  .  .  .  .
 72
   65
 73
    2
 40
12.7
 49
0
 74
    0
 49
-12.7
 74
    0
  0
LTYPE
  5
36
330
5
100
AcDbSymbolTableRecord
100
AcDbLinetypeTableRecord
  2
DASHED
 70
    0
  3
Dashed _ _ _ _ _ _ _ _ _ _ _ _ _ _ _ _ _
 72
   65
 73
    2
 40
19.05
 49
12.7
 74
    0
 49
-6.35
 74
    0
  0
LTYPE
  5
37
330
5
100
AcDbSymbolTableRecord
100
AcDbLinetypeTableRecord
  2
DASHEDTINY
 70
    0
  3
Dashed (.15x) _ _ _ _ _ _ _ _ _ _ _ _ _ _ _ _ _
 72
   65
 73
    2
 40
2.8575
 49
1.905
 74
    0
 49
-0.9525
 74
    0
  0
LTYPE
  5
38
330
5
100
AcDbSymbolTableRecord
100
AcDbLinetypeTableRecord
  2
DASHED2
 70
    0
  3
Dashed (.5x) _ _ _ _ _ _ _ _ _ _ _ _ _ _ _ _ _
 72
   65
 73
    2
 40
9.524999999999999
 49
6.35
 74
    0
 49
-3.175
 74
    0
  0
LTYPE
  5
39
330
5
100
AcDbSymbolTableRecord
100
AcDbLinetypeTableRecord
  2
DASHEDX2
 70
    0
  3
Dashed (2x) ____  ____  ____  ____  ____  ___
 72
   65
 73
    2
 40
38.09999999999999
 49
25.4
 74
    0
 49
-12.7
 74
    0
  0
LTYPE
  5
3A
330
5
100
AcDbSymbolTableRecord
100
AcDbLinetypeTableRecord
  2
DASHDOT
 70
    0
  3
Dash dot __ . __ . __ . __ . __ . __ . __ . __
 72
   65
 73
    4
 40
25.4
 49
12.7
 74
    0
 49
-6.35
 74
    0
 49
0
 74
    0
 49
-6.35
 74
    0
  0
LTYPE
  5
3B
330
5
100
AcDbSymbolTableRecord
100
AcDbLinetypeTableRecord
  2
DASHDOTTINY
 70
    0
  3
Dash dot (.15x) _._._._._._._._._._._._._._._.
 72
   65
 73
    4
 40
3.81
 49
1.905
 74
    0
 49
-0.9525
 74
    0
 49
0
 74
    0
 49
-0.9525
 74
    0
  0
LTYPE
  5
3C
330
5
100
AcDbSymbolTableRecord
100
AcDbLinetypeTableRecord
  2
DASHDOT2
 70
    0
  3
Dash dot (.5x) _._._._._._._._._._._._._._._.
 72
   65
 73
    4
 40
12.7
 49
6.35
 74
    0
 49
-3.175
 74
    0
 49
0
 74
    0
 49
-3.175
 74
    0
  0
LTYPE
  5
3D
330
5
100
AcDbSymbolTableRecord
100
AcDbLinetypeTableRecord
  2
DASHDOTX2
 70
    0
  3
Dash dot (2x) ____  .  ____  .  ____  .  ___
 72
   65
 73
    4
 40
50.8
 49
25.4
 74
    0
 49
-12.7
 74
    0
 49
0
 74
    0
 49
-12.7
 74
    0
  0
LTYPE
  5
3E
330
5
100
AcDbSymbolTableRecord
100
AcDbLinetypeTableRecord
  2
DIVIDE
 70
    0
  3
Divide ____ . . ____ . . ____ . . ____ . . ____
 72
   65
 73
    6
 40
31.75
 49
12.7
 74
    0
 49
-6.35
 74
    0
 49
0
 74
    0
 49
-6.35
 74
    0
 49
0
 74
    0
 49
-6.35
 74
    0
  0
LTYPE
  5
3F
330
5
100
AcDbSymbolTableRecord
100
AcDbLinetypeTableRecord
  2
DIVIDETINY
 70
    0
  3
Divide (.15x) __..__..__..__..__..__..__..__.._
 72
   65
 73
    6
 40
4.7625
 49
1.905
 74
    0
 49
-0.9525
 74
    0
 49
0
 74
    0
 49
-0.9525
 74
    0
 49
0
 74
    0
 49
-0.9525
 74
    0
  0
LTYPE
  5
40
330
5
100
AcDbSymbolTableRecord
100
AcDbLinetypeTableRecord
  2
DIVIDE2
 70
    0
  3
Divide (.5x) __..__..__..__..__..__..__..__.._
 72
   65
 73
    6
 40
15.875
 49
6.35
 74
    0
 49
-3.175
 74
    0
 49
0
 74
    0
 49
-3.175
 74
    0
 49
0
 74
    0
 49
-3.175
 74
    0
  0
LTYPE
  5
41
330
5
100
AcDbSymbolTableRecord
100
AcDbLinetypeTableRecord
  2
DIVIDEX2
 70
    0
  3
Divide (2x) ________  .  .  ________  .  .  _
 72
   65
 73
    6
 40
63.5
 49
25.4
 74
    0
 49
-12.7
 74
    0
 49
0
 74
    0
 49
-12.7
 74
    0
 49
0
 74
    0
 49
-12.7
 74
    0
  0
LTYPE
  5
42
330
5
100
AcDbSymbolTableRecord
100
AcDbLinetypeTableRecord
  2
BORDER
 70
    0
  3
Border __ __ . __ __ . __ __ . __ __ . __ __ .
 72
   65
 73
    6
 40
44.45
 49
12.7
 74
    0
 49
-6.35
 74
    0
 49
12.7
 74
    0
 49
-6.35
 74
    0
 49
0
 74
    0
 49
-6.35
 74
    0
  0
LTYPE
  5
43
330
5
100
AcDbSymbolTableRecord
100
AcDbLinetypeTableRecord
  2
BORDERTINY
 70
    0
  3
Border (.15x) __.__.__.__.__.__.__.__.__.__.__.
 72
   65
 73
    6
 40
6.6675
 49
1.905
 74
    0
 49
-0.9525
 74
    0
 49
1.905
 74
    0
 49
-0.9525
 74
    0
 49
0
 74
    0
 49
-0.9525
 74
    0
  0
LTYPE
  5
44
330
5
100
AcDbSymbolTableRecord
100
AcDbLinetypeTableRecord
  2
BORDER2
 70
    0
  3
Border (.5x) __.__.__.__.__.__.__.__.__.__.__.
 72
   65
 73
    6
 40
22.225
 49
6.35
 74
    0
 49
-3.175
 74
    0
 49
6.35
 74
    0
 49
-3.175
 74
    0
 49
0
 74
    0
 49
-3.175
 74
    0
  0
LTYPE
  5
45
330
5
100
AcDbSymbolTableRecord
100
AcDbLinetypeTableRecord
  2
BORDERX2
 70
    0
  3
Border (2x) ____  ____  .  ____  ____  .  ___
 72
   65
 73
    6
 40
88.89999999999999
 49
25.4
 74
    0
 49
-12.7
 74
    0
 49
25.4
 74
    0
 49
-12.7
 74
    0
 49
0
 74
    0
 49
-12.7
 74
    0
  0
LTYPE
  5
46
330
5
100
AcDbSymbolTableRecord
100
AcDbLinetypeTableRecord
  2
CENTER
 70
    0
  3
Center ____ _ ____ _ ____ _ ____ _ ____ _ ____
 72
   65
 73
    4
 40
50.8
 49
31.75
 74
    0
 49
-6.35
 74
    0
 49
6.35
 74
    0
 49
-6.35
 74
    0
  0
LTYPE
  5
47
330
5
100
AcDbSymbolTableRecord
100
AcDbLinetypeTableRecord
  2
CENTERTINY
 70
    0
  3
Center (.15x) ___ _ ___ _ ___ _ ___ _ ___ _ ___
 72
   65
 73
    4
 40
7.619999999999999
 49
4.7625
 74
    0
 49
-0.9525
 74
    0
 49
0.9525
 74
    0
 49
-0.9525
 74
    0
  0
LTYPE
  5
48
330
5
100
AcDbSymbolTableRecord
100
AcDbLinetypeTableRecord
  2
CENTER2
 70
    0
  3
Center (.5x) ___ _ ___ _ ___ _ ___ _ ___ _ ___
 72
   65
 73
    4
 40
28.575
 49
19.05
 74
    0
 49
-3.175
 74
    0
 49
3.175
 74
    0
 49
-3.175
 74
    0
  0
LTYPE
  5
49
330
5
100
AcDbSymbolTableRecord
100
AcDbLinetypeTableRecord
  2
CENTERX2
 70
    0
  3
Center (2x) ________  __  ________  __  _____
 72
   65
 73
    4
 40
101.6
 49
63.5
 74
    0
 49
-12.7
 74
    0
 49
12.7
 74
    0
 49
-12.7
 74
    0
  0
ENDTAB
  0
TABLE
  2
LAYER
  5
2
330
0
100
AcDbSymbolTable
 70
    1
  0
LAYER
  5
10
330
2
100
AcDbSymbolTableRecord
100
AcDbLayerTableRecord
  2
0
 70
    0
 62
    7
  6
CONTINUOUS
370
    9
390
F
  0
LAYER
  5
4A
330
2
100
AcDbSymbolTableRecord
100
AcDbLayerTableRecord
  2
0_GND
 70
    0
 62
    7
  6
CONTINUOUS
370
   15
390
F
  0
LAYER
  5
4B
330
2
100
AcDbSymbolTableRecord
100
AcDbLayerTableRecord
  2
0_draft
 70
    0
 62
    7
  6
DOTTINY
290
0
370
   -3
390
F
1001
LibreCad
1070
    1
  0
LAYER
  5
4C
330
2
100
AcDbSymbolTableRecord
100
AcDbLayerTableRecord
  2
0_wire
 70
    0
 62
   92
420
51200
  6
CONTINUOUS
370
   15
390
F
  0
LAYER
  5
4D
330
2
100
AcDbSymbolTableRecord
100
AcDbLayerTableRecord
  2
1_wire
 70
    0
 62
    2
  6
CONTINUOUS
370
   15
390
F
  0
LAYER
  5
4E
330
2
100
AcDbSymbolTableRecord
100
AcDbLayerTableRecord
  2
3.3V line
 70
    0
 62
   40
420
16755200
  6
CONTINUOUS
370
   15
390
F
  0
LAYER
  5
4F
330
2
100
AcDbSymbolTableRecord
100
AcDbLayerTableRecord
  2
5V line
 70
    0
 62
    1
  6
CONTINUOUS
370
   15
390
F
  0
LAYER
  5
50
330
2
100
AcDbSymbolTableRecord
100
AcDbLayerTableRecord
  2
condenser
 70
    0
 62
    5
  6
CONTINUOUS
370
   15
390
F
  0
LAYER
  5
51
330
2
100
AcDbSymbolTableRecord
100
AcDbLayerTableRecord
  2
crystal
 70
    0
 62
   96
420
32768
  6
CONTINUOUS
370
   15
390
F
  0
LAYER
  5
52
330
2
100
AcDbSymbolTableRecord
100
AcDbLayerTableRecord
  2
diode
 70
    0
 62
    6
  6
CONTINUOUS
370
   15
390
F
  0
LAYER
  5
53
330
2
100
AcDbSymbolTableRecord
100
AcDbLayerTableRecord
  2
kakou
 70
    0
 62
  176
420
  128
  6
CONTINUOUS
370
   15
390
F
  0
LAYER
  5
54
330
2
100
AcDbSymbolTableRecord
100
AcDbLayerTableRecord
  2
micon
 70
    0
 62
  216
420
8388736
  6
CONTINUOUS
370
   15
390
F
  0
LAYER
  5
55
330
2
100
AcDbSymbolTableRecord
100
AcDbLayerTableRecord
  2
resister
 70
    0
 62
  132
420
50886
  6
CONTINUOUS
370
   15
390
F
  0
LAYER
  5
56
330
2
100
AcDbSymbolTableRecord
100
AcDbLayerTableRecord
  2
socket_header
 70
    0
 62
   56
420
8421376
  6
CONTINUOUS
370
   15
390
F
  0
LAYER
  5
57
330
2
100
AcDbSymbolTableRecord
100
AcDbLayerTableRecord
  2
switch
 70
    0
 62
  136
420
32896
  6
CONTINUOUS
370
   15
390
F
  0
LAYER
  5
58
330
2
100
AcDbSymbolTableRecord
100
AcDbLayerTableRecord
  2
terminal
 70
    0
 62
   16
420
8388608
  6
CONTINUOUS
370
   15
390
F
  0
LAYER
  5
59
330
2
100
AcDbSymbolTableRecord
100
AcDbLayerTableRecord
  2
universal_board
 70
    4
 62
  253
420
10526884
  6
CONTINUOUS
370
   15
390
F
  0
ENDTAB
  0
TABLE
  2
STYLE
  5
3
330
0
100
AcDbSymbolTable
 70
    3
  0
STYLE
  5
5A
330
2
100
AcDbSymbolTableRecord
100
AcDbTextStyleTableRecord
  2
STANDARD
 70
    0
 40
0
 41
1
 50
0
 71
    0
 42
1
  3
STANDARD
  4

  0
STYLE
  5
5B
330
2
100
AcDbSymbolTableRecord
100
AcDbTextStyleTableRecord
  2
unicode
 70
    0
 40
0
 41
1
 50
0
 71
    0
 42
1
  3
unicode
  4

  0
STYLE
  5
5C
330
2
100
AcDbSymbolTableRecord
100
AcDbTextStyleTableRecord
  2
kst32b
 70
    0
 40
0
 41
1
 50
0
 71
    0
 42
1
  3
kst32b
  4

  0
STYLE
  5
5D
330
2
100
AcDbSymbolTableRecord
100
AcDbTextStyleTableRecord
  2
iso
 70
    0
 40
0
 41
1
 50
0
 71
    0
 42
1
  3
iso
  4

  0
ENDTAB
  0
TABLE
  2
VIEW
  5
6
330
0
100
AcDbSymbolTable
 70
    0
  0
ENDTAB
  0
TABLE
  2
UCS
  5
7
330
0
100
AcDbSymbolTable
 70
    0
  0
ENDTAB
  0
TABLE
  2
APPID
  5
9
330
0
100
AcDbSymbolTable
 70
    1
  0
APPID
  5
12
330
9
100
AcDbSymbolTableRecord
100
AcDbRegAppTableRecord
  2
ACAD
 70
    0
  0
APPID
  5
5E
330
9
100
AcDbSymbolTableRecord
100
AcDbRegAppTableRecord
  2
LibreCad
 70
    0
  0
ENDTAB
  0
TABLE
  2
DIMSTYLE
  5
A
330
0
100
AcDbSymbolTable
 70
    1
100
AcDbDimStyleTable
 71
    1
  0
DIMSTYLE
105
5F
330
A
100
AcDbSymbolTableRecord
100
AcDbDimStyleTableRecord
  2
Standard
 70
    0
 40
1
 41
2.5
 42
0.625
 43
0.38
 44
1.25
 45
0
 46
0
 47
0
 48
0
 49
1
140
2.5
141
0.09
142
0
143
25.4
144
1
145
0
146
1
147
0.625
148
0
 71
    0
 72
    0
 73
    0
 74
    1
 75
    0
 76
    0
 77
    0
 78
    8
 79
    0
170
    0
171
    2
172
    0
173
    0
174
    0
175
    0
176
    0
177
    0
178
    0
179
    0
271
    2
272
    4
273
    2
274
    2
275
    0
276
    0
277
    2
278
   44
279
    0
280
    0
281
    0
282
    0
283
    1
284
    0
285
    0
286
    0
288
    0
289
    3
340
5A
  0
ENDTAB
  0
TABLE
  2
BLOCK_RECORD
  5
1
330
0
100
AcDbSymbolTable
 70
    2
  0
BLOCK_RECORD
  5
1F
330
1
100
AcDbSymbolTableRecord
100
AcDbBlockTableRecord
  2
*Model_Space
 70
    0
280
    1
281
    0
  0
BLOCK_RECORD
  5
1E
330
1
100
AcDbSymbolTableRecord
100
AcDbBlockTableRecord
  2
*Paper_Space
 70
    0
280
    1
281
    0
  0
BLOCK_RECORD
  5
60
330
1
100
AcDbSymbolTableRecord
100
AcDbBlockTableRecord
  2
2227MC-08-03
 70
    0
280
    1
281
    0
  0
BLOCK_RECORD
  5
63
330
1
100
AcDbSymbolTableRecord
100
AcDbBlockTableRecord
  2
PIC16F15325
 70
    0
280
    1
281
    0
  0
BLOCK_RECORD
  5
66
330
1
100
AcDbSymbolTableRecord
100
AcDbBlockTableRecord
  2
2227MC-28-03
 70
    0
280
    1
281
    0
  0
BLOCK_RECORD
  5
69
330
1
100
AcDbSymbolTableRecord
100
AcDbBlockTableRecord
  2
HUSG-16.000-20
 70
    0
280
    1
281
    0
  0
BLOCK_RECORD
  5
6C
330
1
100
AcDbSymbolTableRecord
100
AcDbBlockTableRecord
  2
ATmega328P
 70
    0
280
    1
281
    0
  0
BLOCK_RECORD
  5
6F
330
1
100
AcDbSymbolTableRecord
100
AcDbBlockTableRecord
  2
DTS-63-N-V-BLK
 70
    0
280
    1
281
    0
  0
BLOCK_RECORD
  5
72
330
1
100
AcDbSymbolTableRecord
100
AcDbBlockTableRecord
  2
2227MC-14-03
 70
    0
280
    1
281
    0
  0
BLOCK_RECORD
  5
75
330
1
100
AcDbSymbolTableRecord
100
AcDbBlockTableRecord
  2
C_0.01uF
 70
    0
280
    1
281
    0
  0
BLOCK_RECORD
  5
78
330
1
100
AcDbSymbolTableRecord
100
AcDbBlockTableRecord
  2
R300
 70
    0
280
    1
281
    0
  0
BLOCK_RECORD
  5
7B
330
1
100
AcDbSymbolTableRecord
100
AcDbBlockTableRecord
  2
R10k
 70
    0
280
    1
281
    0
  0
BLOCK_RECORD
  5
7E
330
1
100
AcDbSymbolTableRecord
100
AcDbBlockTableRecord
  2
R0
 70
    0
280
    1
281
    0
  0
ENDTAB
  0
ENDSEC
  0
SECTION
  2
BLOCKS
  0
BLOCK
  5
20
330
1F
100
AcDbEntity
  8
0
100
AcDbBlockBegin
  2
*Model_Space
 70
    0
 10
0
 20
0
 30
0
  3
*Model_Space
  1

  0
ENDBLK
  5
21
330
1F
100
AcDbEntity
  8
0
100
AcDbBlockEnd
  0
BLOCK
  5
1C
330
1B
100
AcDbEntity
  8
0
100
AcDbBlockBegin
  2
*Paper_Space
 70
    0
 10
0
 20
0
 30
0
  3
*Paper_Space
  1

  0
ENDBLK
  5
1D
330
1F
100
AcDbEntity
  8
0
100
AcDbBlockEnd
  0
BLOCK
  5
61
330
60
100
AcDbEntity
  8
0
100
AcDbBlockBegin
  2
2227MC-08-03
 70
    0
 10
0
 20
0
  3
2227MC-08-03
  1

  0
LINE
  5
81
100
AcDbEntity
  8
socket_header
  6
ByLayer
 62
  256
370
   -1
100
AcDbLine
 10
-1.270000000000131
 20
-8.890000110779171
 11
-1.270000000000131
 21
1.269999889220831
  0
LINE
  5
82
100
AcDbEntity
  8
socket_header
  6
ByLayer
 62
  256
370
   -1
100
AcDbLine
 10
-1.270000000000131
 20
1.269999889220831
 11
8.890000394687402
 21
1.269999889220831
  0
LINE
  5
83
100
AcDbEntity
  8
socket_header
  6
ByLayer
 62
  256
370
   -1
100
AcDbLine
 10
8.890000394687402
 20
1.269999889220831
 11
8.88999999999989
 21
-8.890000110779171
  0
LINE
  5
84
100
AcDbEntity
  8
socket_header
  6
ByLayer
 62
  256
370
   -1
100
AcDbLine
 10
8.88999999999989
 20
-8.890000110779171
 11
-1.270000000000131
 21
-8.890000110779171
  0
CIRCLE
  5
85
100
AcDbEntity
  8
socket_header
  6
ByLayer
 62
  256
370
   -1
100
AcDbCircle
 10
2.539999999999878
 20
1.06581410364015e-14
 40
0.6
  0
CIRCLE
  5
86
100
AcDbEntity
  8
socket_header
  6
ByLayer
 62
  256
370
   -1
100
AcDbCircle
 10
2.539999999999893
 20
-7.620000000000061
 40
0.6
  0
CIRCLE
  5
87
100
AcDbEntity
  8
socket_header
  6
ByLayer
 62
  256
370
   -1
100
AcDbCircle
 10
0
 20
0
 40
0.6
  0
CIRCLE
  5
88
100
AcDbEntity
  8
socket_header
  6
ByLayer
 62
  256
370
   -1
100
AcDbCircle
 10
7.105427357601002e-15
 20
-7.620000000000072
 40
0.6
  0
CIRCLE
  5
89
100
AcDbEntity
  8
socket_header
  6
ByLayer
 62
  256
370
   -1
100
AcDbCircle
 10
5.079999999999757
 20
2.842170943040401e-14
 40
0.6
  0
CIRCLE
  5
8A
100
AcDbEntity
  8
socket_header
  6
ByLayer
 62
  256
370
   -1
100
AcDbCircle
 10
5.079999999999771
 20
-7.620000000000051
 40
0.6
  0
CIRCLE
  5
8B
100
AcDbEntity
  8
socket_header
  6
ByLayer
 62
  256
370
   -1
100
AcDbCircle
 10
7.619999999999639
 20
3.907985046680551e-14
 40
0.6
  0
CIRCLE
  5
8C
100
AcDbEntity
  8
socket_header
  6
ByLayer
 62
  256
370
   -1
100
AcDbCircle
 10
7.61999999999966
 20
-7.62000000000004
 40
0.6
  0
MTEXT
  5
8D
100
AcDbEntity
  8
socket_header
  6
ByLayer
 62
  256
370
   -1
100
AcDbMText
 10
3.950796119092651
 20
-1.713679173150673
 30
0
 40
1
 41
9.222222222222346
 71
    5
 72
    1
  1
2227MC-08-03
  7
STANDARD
210
0
220
0
230
1
 50
0
 73
    2
 44
1
  0
ENDBLK
  5
62
330
60
100
AcDbEntity
  8
0
100
AcDbBlockEnd
  0
BLOCK
  5
64
330
63
100
AcDbEntity
  8
0
100
AcDbBlockBegin
  2
PIC16F15325
 70
    0
 10
0
 20
0
  3
PIC16F15325
  1

  0
ENDBLK
  5
65
330
63
100
AcDbEntity
  8
0
100
AcDbBlockEnd
  0
BLOCK
  5
67
330
66
100
AcDbEntity
  8
0
100
AcDbBlockBegin
  2
2227MC-28-03
 70
    0
 10
0
 20
0
  3
2227MC-28-03
  1

  0
ENDBLK
  5
68
330
66
100
AcDbEntity
  8
0
100
AcDbBlockEnd
  0
BLOCK
  5
6A
330
69
100
AcDbEntity
  8
0
100
AcDbBlockBegin
  2
HUSG-16.000-20
 70
    0
 10
0
 20
0
  3
HUSG-16.000-20
  1

  0
ENDBLK
  5
6B
330
69
100
AcDbEntity
  8
0
100
AcDbBlockEnd
  0
BLOCK
  5
6D
330
6C
100
AcDbEntity
  8
0
100
AcDbBlockBegin
  2
ATmega328P
 70
    0
 10
0
 20
0
  3
ATmega328P
  1

  0
ENDBLK
  5
6E
330
6C
100
AcDbEntity
  8
0
100
AcDbBlockEnd
  0
BLOCK
  5
70
330
6F
100
AcDbEntity
  8
0
100
AcDbBlockBegin
  2
DTS-63-N-V-BLK
 70
    0
 10
0
 20
0
  3
DTS-63-N-V-BLK
  1

  0
ENDBLK
  5
71
330
6F
100
AcDbEntity
  8
0
100
AcDbBlockEnd
  0
BLOCK
  5
73
330
72
100
AcDbEntity
  8
0
100
AcDbBlockBegin
  2
2227MC-14-03
 70
    0
 10
0
 20
0
  3
2227MC-14-03
  1

  0
ENDBLK
  5
74
330
72
100
AcDbEntity
  8
0
100
AcDbBlockEnd
  0
BLOCK
  5
76
330
75
100
AcDbEntity
  8
0
100
AcDbBlockBegin
  2
C_0.01uF
 70
    0
 10
0
 20
0
  3
C_0.01uF
  1

  0
LWPOLYLINE
  5
8E
100
AcDbEntity
  8
condenser
  6
ByLayer
 62
  256
370
   -1
100
AcDbPolyline
 90
    4
 70
    1
 43
0
 10
1.499999999999972
 20
5.039999999999822
 10
1.499999999999972
 20
0.03999999999992099
 10
-1.50000000000005
 20
0.03999999999992099
 10
-1.50000000000005
 20
5.039999999999822
  0
MTEXT
  5
8F
100
AcDbEntity
  8
condenser
  6
ByLayer
 62
  256
370
   -1
100
AcDbMText
 10
2.336701583810211
 20
2.491803864245341
 30
0
 40
1
 41
3.666666666666713
 71
    5
 72
    1
  1
0.01uF
  7
STANDARD
210
0
220
0
230
1
 50
270
 73
    2
 44
1
  0
CIRCLE
  5
90
100
AcDbEntity
  8
condenser
  6
ByLayer
 62
  256
370
   -1
100
AcDbCircle
 10
0
 20
0
 40
0.4
  0
CIRCLE
  5
91
100
AcDbEntity
  8
condenser
  6
ByLayer
 62
  256
370
   -1
100
AcDbCircle
 10
-6.927791673660977e-14
 20
5.080000000000041
 40
0.4
  0
ENDBLK
  5
77
330
75
100
AcDbEntity
  8
0
100
AcDbBlockEnd
  0
BLOCK
  5
79
330
78
100
AcDbEntity
  8
0
100
AcDbBlockBegin
  2
R300
 70
    0
 10
0
 20
0
  3
R300
  1

  0
LWPOLYLINE
  5
92
100
AcDbEntity
  8
resister
  6
ByLayer
 62
  256
370
   -1
100
AcDbPolyline
 90
    4
 70
    1
 43
0
 10
-1.150000000000091
 20
0.6599999999995898
 10
-1.15000000000008
 20
6.959999999999511
 10
1.150000000000126
 20
6.959999999999511
 10
1.150000000000119
 20
0.6599999999995898
  0
CIRCLE
  5
93
100
AcDbEntity
  8
resister
  6
ByLayer
 62
  256
370
   -1
100
AcDbCircle
 10
1.953992523340276e-14
 20
7.619999999999639
 40
0.3
  0
LINE
  5
94
100
AcDbEntity
  8
resister
  6
ByLayer
 62
  256
370
   -1
100
AcDbLine
 10
1.953992523340276e-14
 20
0.2999999999998604
 11
1.031014139840636e-06
 21
0.6599999999995898
  0
LINE
  5
95
100
AcDbEntity
  8
resister
  6
ByLayer
 62
  256
370
   -1
100
AcDbLine
 10
3.907985046680551e-14
 20
6.959999999999511
 11
3.907985046680551e-14
 21
7.320000000000348
  0
MTEXT
  5
96
100
AcDbEntity
  8
resister
  6
ByLayer
 62
  256
370
   -1
100
AcDbMText
 10
-0.02409769535478112
 20
3.951579464078229
 30
0
 40
1
 41
2.888888888888951
 71
    5
 72
    1
  1
R300
  7
STANDARD
210
0
220
0
230
1
 50
90
 73
    2
 44
1
  0
CIRCLE
  5
97
100
AcDbEntity
  8
resister
  6
ByLayer
 62
  256
370
   -1
100
AcDbCircle
 10
0
 20
0
 40
0.25
  0
ENDBLK
  5
7A
330
78
100
AcDbEntity
  8
0
100
AcDbBlockEnd
  0
BLOCK
  5
7C
330
7B
100
AcDbEntity
  8
0
100
AcDbBlockBegin
  2
R10k
 70
    0
 10
0
 20
0
  3
R10k
  1

  0
CIRCLE
  5
98
100
AcDbEntity
  8
resister
  6
ByLayer
 62
  256
370
   -1
100
AcDbCircle
 10
0
 20
0
 40
0.3
  0
LINE
  5
99
100
AcDbEntity
  8
resister
  6
ByLayer
 62
  256
370
   -1
100
AcDbLine
 10
-0.659999999999485
 20
1.150000000000098
 11
-0.659999999999485
 21
-1.150000000000059
  0
LINE
  5
9A
100
AcDbEntity
  8
resister
  6
ByLayer
 62
  256
370
   -1
100
AcDbLine
 10
-6.959999999999557
 20
-1.150000000000041
 11
-0.659999999999485
 21
-1.150000000000059
  0
LINE
  5
9B
100
AcDbEntity
  8
resister
  6
ByLayer
 62
  256
370
   -1
100
AcDbLine
 10
-0.659999999999485
 20
1.150000000000098
 11
-6.959999999999557
 21
1.150000000000098
  0
LINE
  5
9C
100
AcDbEntity
  8
resister
  6
ByLayer
 62
  256
370
   -1
100
AcDbLine
 10
-6.959999999999557
 20
1.150000000000098
 11
-6.959999999999557
 21
-1.150000000000041
  0
CIRCLE
  5
9D
100
AcDbEntity
  8
resister
  6
ByLayer
 62
  256
370
   -1
100
AcDbCircle
 10
-7.619999999999408
 20
2.131628207280301e-14
 40
0.25
  0
MTEXT
  5
9E
100
AcDbEntity
  8
resister
  6
ByLayer
 62
  256
370
   -1
100
AcDbMText
 10
-3.991855261194459
 20
0.08749576228997924
 30
0
 40
1
 41
2.666666666666667
 71
    5
 72
    1
  1
R10k
  7
unicode
210
0
220
0
230
1
 50
0
 73
    2
 44
1
  0
LINE
  5
9F
100
AcDbEntity
  8
resister
  6
ByLayer
 62
  256
370
   -1
100
AcDbLine
 10
-0.2499999999985789
 20
2.131628207280301e-14
 11
-0.659999999999485
 21
2.131628207280301e-14
  0
LINE
  5
A0
100
AcDbEntity
  8
resister
  6
ByLayer
 62
  256
370
   -1
100
AcDbLine
 10
-7.369999999999898
 20
1.06581410364015e-14
 11
-6.959999999999557
 21
1.06581410364015e-14
  0
ENDBLK
  5
7D
330
7B
100
AcDbEntity
  8
0
100
AcDbBlockEnd
  0
BLOCK
  5
7F
330
7E
100
AcDbEntity
  8
0
100
AcDbBlockBegin
  2
R0
 70
    0
 10
0
 20
0
  3
R0
  1

  0
LINE
  5
A1
100
AcDbEntity
  8
resister
  6
ByLayer
 62
  256
370
   -1
100
AcDbLine
 10
-0.6599999999999611
 20
1.149999999999959
 11
-0.6599999999999611
 21
-1.14999999999997
  0
LINE
  5
A2
100
AcDbEntity
  8
resister
  6
ByLayer
 62
  256
370
   -1
100
AcDbLine
 10
-0.6599999999999611
 20
-1.14999999999997
 11
-6.959999999999834
 21
-1.14999999999997
  0
LINE
  5
A3
100
AcDbEntity
  8
resister
  6
ByLayer
 62
  256
370
   -1
100
AcDbLine
 10
-6.959999999999834
 20
-1.14999999999997
 11
-6.95999999999982
 21
1.149999999999959
  0
LINE
  5
A4
100
AcDbEntity
  8
resister
  6
ByLayer
 62
  256
370
   -1
100
AcDbLine
 10
-6.95999999999982
 20
1.149999999999959
 11
-0.6599999999999611
 21
1.149999999999959
  0
LINE
  5
A5
100
AcDbEntity
  8
resister
  6
ByLayer
 62
  256
370
   -1
100
AcDbLine
 10
-6.95999999999982
 20
0
 11
-7.61999999999966
 21
0
  0
LINE
  5
A6
100
AcDbEntity
  8
resister
  6
ByLayer
 62
  256
370
   -1
100
AcDbLine
 10
3.694822225952521e-13
 20
0
 11
-0.6599999999999611
 21
0
  0
MTEXT
  5
A7
100
AcDbEntity
  8
resister
  6
ByLayer
 62
  256
370
   -1
100
AcDbMText
 10
-4.132042899777453
 20
0.05377778633712005
 30
0
 40
1
 41
1.333333333333333
 71
    5
 72
    1
  1
R0
  7
STANDARD
210
0
220
0
230
1
 50
270
 73
    2
 44
1
  0
ENDBLK
  5
80
330
7E
100
AcDbEntity
  8
0
100
AcDbBlockEnd
  0
ENDSEC
  0
SECTION
  2
ENTITIES
  0
CIRCLE
  5
A8
100
AcDbEntity
  8
universal_board
  6
ByLayer
 62
  256
370
   -1
100
AcDbCircle
 10
-25.3999999999987
 20
-22.8600000000002
 40
0.5
  0
CIRCLE
  5
A9
100
AcDbEntity
  8
universal_board
  6
ByLayer
 62
  256
370
   -1
100
AcDbCircle
 10
-25.39999999999871
 20
-20.32000000000019
 40
0.5
  0
CIRCLE
  5
AA
100
AcDbEntity
  8
universal_board
  6
ByLayer
 62
  256
370
   -1
100
AcDbCircle
 10
-25.39999999999871
 20
-17.7800000000002
 40
0.5
  0
CIRCLE
  5
AB
100
AcDbEntity
  8
universal_board
  6
ByLayer
 62
  256
370
   -1
100
AcDbCircle
 10
-25.39999999999871
 20
-15.24000000000019
 40
0.5
  0
CIRCLE
  5
AC
100
AcDbEntity
  8
universal_board
  6
ByLayer
 62
  256
370
   -1
100
AcDbCircle
 10
-25.39999999999872
 20
-12.70000000000019
 40
0.5
  0
CIRCLE
  5
AD
100
AcDbEntity
  8
universal_board
  6
ByLayer
 62
  256
370
   -1
100
AcDbCircle
 10
-25.39999999999873
 20
-10.1600000000001
 40
0.5
  0
CIRCLE
  5
AE
100
AcDbEntity
  8
universal_board
  6
ByLayer
 62
  256
370
   -1
100
AcDbCircle
 10
-25.39999999999873
 20
-7.62000000000009
 40
0.5
  0
CIRCLE
  5
AF
100
AcDbEntity
  8
universal_board
  6
ByLayer
 62
  256
370
   -1
100
AcDbCircle
 10
-25.39999999999875
 20
-5.080000000000098
 40
0.5
  0
CIRCLE
  5
B0
100
AcDbEntity
  8
universal_board
  6
ByLayer
 62
  256
370
   -1
100
AcDbCircle
 10
-25.39999999999876
 20
-2.540000000000092
 40
0.5
  0
CIRCLE
  5
B1
100
AcDbEntity
  8
universal_board
  6
ByLayer
 62
  256
370
   -1
100
AcDbCircle
 10
-25.39999999999876
 20
0
 40
0.5
  0
CIRCLE
  5
B2
100
AcDbEntity
  8
universal_board
  6
ByLayer
 62
  256
370
   -1
100
AcDbCircle
 10
-22.85999999999882
 20
-22.8600000000002
 40
0.5
  0
CIRCLE
  5
B3
100
AcDbEntity
  8
universal_board
  6
ByLayer
 62
  256
370
   -1
100
AcDbCircle
 10
-22.85999999999883
 20
-20.32000000000019
 40
0.5
  0
CIRCLE
  5
B4
100
AcDbEntity
  8
universal_board
  6
ByLayer
 62
  256
370
   -1
100
AcDbCircle
 10
-22.85999999999883
 20
-17.7800000000002
 40
0.5
  0
CIRCLE
  5
B5
100
AcDbEntity
  8
universal_board
  6
ByLayer
 62
  256
370
   -1
100
AcDbCircle
 10
-22.85999999999883
 20
-15.24000000000019
 40
0.5
  0
CIRCLE
  5
B6
100
AcDbEntity
  8
universal_board
  6
ByLayer
 62
  256
370
   -1
100
AcDbCircle
 10
-22.85999999999884
 20
-12.70000000000019
 40
0.5
  0
CIRCLE
  5
B7
100
AcDbEntity
  8
universal_board
  6
ByLayer
 62
  256
370
   -1
100
AcDbCircle
 10
-22.85999999999886
 20
-10.1600000000001
 40
0.5
  0
CIRCLE
  5
B8
100
AcDbEntity
  8
universal_board
  6
ByLayer
 62
  256
370
   -1
100
AcDbCircle
 10
-22.85999999999886
 20
-7.62000000000009
 40
0.5
  0
CIRCLE
  5
B9
100
AcDbEntity
  8
universal_board
  6
ByLayer
 62
  256
370
   -1
100
AcDbCircle
 10
-22.85999999999887
 20
-5.080000000000098
 40
0.5
  0
CIRCLE
  5
BA
100
AcDbEntity
  8
universal_board
  6
ByLayer
 62
  256
370
   -1
100
AcDbCircle
 10
-22.85999999999889
 20
-2.540000000000092
 40
0.5
  0
CIRCLE
  5
BB
100
AcDbEntity
  8
universal_board
  6
ByLayer
 62
  256
370
   -1
100
AcDbCircle
 10
-22.85999999999889
 20
0
 40
0.5
  0
CIRCLE
  5
BC
100
AcDbEntity
  8
universal_board
  6
ByLayer
 62
  256
370
   -1
100
AcDbCircle
 10
-20.31999999999894
 20
-22.8600000000002
 40
0.5
  0
CIRCLE
  5
BD
100
AcDbEntity
  8
universal_board
  6
ByLayer
 62
  256
370
   -1
100
AcDbCircle
 10
-20.31999999999895
 20
-20.32000000000019
 40
0.5
  0
CIRCLE
  5
BE
100
AcDbEntity
  8
universal_board
  6
ByLayer
 62
  256
370
   -1
100
AcDbCircle
 10
-20.31999999999895
 20
-17.7800000000002
 40
0.5
  0
CIRCLE
  5
BF
100
AcDbEntity
  8
universal_board
  6
ByLayer
 62
  256
370
   -1
100
AcDbCircle
 10
-20.31999999999895
 20
-15.24000000000019
 40
0.5
  0
CIRCLE
  5
C0
100
AcDbEntity
  8
universal_board
  6
ByLayer
 62
  256
370
   -1
100
AcDbCircle
 10
-20.31999999999897
 20
-12.70000000000019
 40
0.5
  0
CIRCLE
  5
C1
100
AcDbEntity
  8
universal_board
  6
ByLayer
 62
  256
370
   -1
100
AcDbCircle
 10
-20.31999999999898
 20
-10.1600000000001
 40
0.5
  0
CIRCLE
  5
C2
100
AcDbEntity
  8
universal_board
  6
ByLayer
 62
  256
370
   -1
100
AcDbCircle
 10
-20.31999999999898
 20
-7.62000000000009
 40
0.5
  0
CIRCLE
  5
C3
100
AcDbEntity
  8
universal_board
  6
ByLayer
 62
  256
370
   -1
100
AcDbCircle
 10
-20.31999999999899
 20
-5.080000000000098
 40
0.5
  0
CIRCLE
  5
C4
100
AcDbEntity
  8
universal_board
  6
ByLayer
 62
  256
370
   -1
100
AcDbCircle
 10
-20.31999999999901
 20
-2.540000000000092
 40
0.5
  0
CIRCLE
  5
C5
100
AcDbEntity
  8
universal_board
  6
ByLayer
 62
  256
370
   -1
100
AcDbCircle
 10
-20.31999999999901
 20
0
 40
0.5
  0
CIRCLE
  5
C6
100
AcDbEntity
  8
universal_board
  6
ByLayer
 62
  256
370
   -1
100
AcDbCircle
 10
-17.77999999999907
 20
-22.8600000000002
 40
0.5
  0
CIRCLE
  5
C7
100
AcDbEntity
  8
universal_board
  6
ByLayer
 62
  256
370
   -1
100
AcDbCircle
 10
-17.77999999999907
 20
-20.32000000000019
 40
0.5
  0
CIRCLE
  5
C8
100
AcDbEntity
  8
universal_board
  6
ByLayer
 62
  256
370
   -1
100
AcDbCircle
 10
-17.77999999999907
 20
-17.7800000000002
 40
0.5
  0
CIRCLE
  5
C9
100
AcDbEntity
  8
universal_board
  6
ByLayer
 62
  256
370
   -1
100
AcDbCircle
 10
-17.77999999999907
 20
-15.24000000000019
 40
0.5
  0
CIRCLE
  5
CA
100
AcDbEntity
  8
universal_board
  6
ByLayer
 62
  256
370
   -1
100
AcDbCircle
 10
-17.77999999999909
 20
-12.70000000000019
 40
0.5
  0
CIRCLE
  5
CB
100
AcDbEntity
  8
universal_board
  6
ByLayer
 62
  256
370
   -1
100
AcDbCircle
 10
-17.77999999999909
 20
-10.1600000000001
 40
0.5
  0
CIRCLE
  5
CC
100
AcDbEntity
  8
universal_board
  6
ByLayer
 62
  256
370
   -1
100
AcDbCircle
 10
-17.77999999999909
 20
-7.62000000000009
 40
0.5
  0
CIRCLE
  5
CD
100
AcDbEntity
  8
universal_board
  6
ByLayer
 62
  256
370
   -1
100
AcDbCircle
 10
-17.77999999999912
 20
-5.080000000000098
 40
0.5
  0
CIRCLE
  5
CE
100
AcDbEntity
  8
universal_board
  6
ByLayer
 62
  256
370
   -1
100
AcDbCircle
 10
-17.77999999999912
 20
-2.540000000000092
 40
0.5
  0
CIRCLE
  5
CF
100
AcDbEntity
  8
universal_board
  6
ByLayer
 62
  256
370
   -1
100
AcDbCircle
 10
-17.77999999999912
 20
0
 40
0.5
  0
CIRCLE
  5
D0
100
AcDbEntity
  8
universal_board
  6
ByLayer
 62
  256
370
   -1
100
AcDbCircle
 10
-15.23999999999918
 20
-22.8600000000002
 40
0.5
  0
CIRCLE
  5
D1
100
AcDbEntity
  8
universal_board
  6
ByLayer
 62
  256
370
   -1
100
AcDbCircle
 10
-15.23999999999919
 20
-20.32000000000019
 40
0.5
  0
CIRCLE
  5
D2
100
AcDbEntity
  8
universal_board
  6
ByLayer
 62
  256
370
   -1
100
AcDbCircle
 10
-15.23999999999919
 20
-17.7800000000002
 40
0.5
  0
CIRCLE
  5
D3
100
AcDbEntity
  8
universal_board
  6
ByLayer
 62
  256
370
   -1
100
AcDbCircle
 10
-15.23999999999919
 20
-15.24000000000019
 40
0.5
  0
CIRCLE
  5
D4
100
AcDbEntity
  8
universal_board
  6
ByLayer
 62
  256
370
   -1
100
AcDbCircle
 10
-15.23999999999921
 20
-12.70000000000019
 40
0.5
  0
CIRCLE
  5
D5
100
AcDbEntity
  8
universal_board
  6
ByLayer
 62
  256
370
   -1
100
AcDbCircle
 10
-15.23999999999922
 20
-10.1600000000001
 40
0.5
  0
CIRCLE
  5
D6
100
AcDbEntity
  8
universal_board
  6
ByLayer
 62
  256
370
   -1
100
AcDbCircle
 10
-15.23999999999922
 20
-7.62000000000009
 40
0.5
  0
CIRCLE
  5
D7
100
AcDbEntity
  8
universal_board
  6
ByLayer
 62
  256
370
   -1
100
AcDbCircle
 10
-15.23999999999924
 20
-5.080000000000098
 40
0.5
  0
CIRCLE
  5
D8
100
AcDbEntity
  8
universal_board
  6
ByLayer
 62
  256
370
   -1
100
AcDbCircle
 10
-15.23999999999924
 20
-2.540000000000092
 40
0.5
  0
CIRCLE
  5
D9
100
AcDbEntity
  8
universal_board
  6
ByLayer
 62
  256
370
   -1
100
AcDbCircle
 10
-15.23999999999924
 20
0
 40
0.5
  0
CIRCLE
  5
DA
100
AcDbEntity
  8
universal_board
  6
ByLayer
 62
  256
370
   -1
100
AcDbCircle
 10
-12.6999999999993
 20
-22.8600000000002
 40
0.5
  0
CIRCLE
  5
DB
100
AcDbEntity
  8
universal_board
  6
ByLayer
 62
  256
370
   -1
100
AcDbCircle
 10
-12.69999999999932
 20
-20.32000000000019
 40
0.5
  0
CIRCLE
  5
DC
100
AcDbEntity
  8
universal_board
  6
ByLayer
 62
  256
370
   -1
100
AcDbCircle
 10
-12.69999999999932
 20
-17.7800000000002
 40
0.5
  0
CIRCLE
  5
DD
100
AcDbEntity
  8
universal_board
  6
ByLayer
 62
  256
370
   -1
100
AcDbCircle
 10
-12.69999999999932
 20
-15.24000000000019
 40
0.5
  0
CIRCLE
  5
DE
100
AcDbEntity
  8
universal_board
  6
ByLayer
 62
  256
370
   -1
100
AcDbCircle
 10
-12.69999999999933
 20
-12.70000000000019
 40
0.5
  0
CIRCLE
  5
DF
100
AcDbEntity
  8
universal_board
  6
ByLayer
 62
  256
370
   -1
100
AcDbCircle
 10
-12.69999999999934
 20
-10.1600000000001
 40
0.5
  0
CIRCLE
  5
E0
100
AcDbEntity
  8
universal_board
  6
ByLayer
 62
  256
370
   -1
100
AcDbCircle
 10
-12.69999999999934
 20
-7.62000000000009
 40
0.5
  0
CIRCLE
  5
E1
100
AcDbEntity
  8
universal_board
  6
ByLayer
 62
  256
370
   -1
100
AcDbCircle
 10
-12.69999999999936
 20
-5.080000000000098
 40
0.5
  0
CIRCLE
  5
E2
100
AcDbEntity
  8
universal_board
  6
ByLayer
 62
  256
370
   -1
100
AcDbCircle
 10
-12.69999999999937
 20
-2.540000000000092
 40
0.5
  0
CIRCLE
  5
E3
100
AcDbEntity
  8
universal_board
  6
ByLayer
 62
  256
370
   -1
100
AcDbCircle
 10
-12.69999999999937
 20
0
 40
0.5
  0
CIRCLE
  5
E4
100
AcDbEntity
  8
universal_board
  6
ByLayer
 62
  256
370
   -1
100
AcDbCircle
 10
-10.15999999999942
 20
-22.8600000000002
 40
0.5
  0
CIRCLE
  5
E5
100
AcDbEntity
  8
universal_board
  6
ByLayer
 62
  256
370
   -1
100
AcDbCircle
 10
-10.15999999999944
 20
-20.32000000000019
 40
0.5
  0
CIRCLE
  5
E6
100
AcDbEntity
  8
universal_board
  6
ByLayer
 62
  256
370
   -1
100
AcDbCircle
 10
-10.15999999999944
 20
-17.7800000000002
 40
0.5
  0
CIRCLE
  5
E7
100
AcDbEntity
  8
universal_board
  6
ByLayer
 62
  256
370
   -1
100
AcDbCircle
 10
-10.15999999999944
 20
-15.24000000000019
 40
0.5
  0
CIRCLE
  5
E8
100
AcDbEntity
  8
universal_board
  6
ByLayer
 62
  256
370
   -1
100
AcDbCircle
 10
-10.15999999999945
 20
-12.70000000000019
 40
0.5
  0
CIRCLE
  5
E9
100
AcDbEntity
  8
universal_board
  6
ByLayer
 62
  256
370
   -1
100
AcDbCircle
 10
-10.15999999999946
 20
-10.1600000000001
 40
0.5
  0
CIRCLE
  5
EA
100
AcDbEntity
  8
universal_board
  6
ByLayer
 62
  256
370
   -1
100
AcDbCircle
 10
-10.15999999999946
 20
-7.62000000000009
 40
0.5
  0
CIRCLE
  5
EB
100
AcDbEntity
  8
universal_board
  6
ByLayer
 62
  256
370
   -1
100
AcDbCircle
 10
-10.15999999999948
 20
-5.080000000000098
 40
0.5
  0
CIRCLE
  5
EC
100
AcDbEntity
  8
universal_board
  6
ByLayer
 62
  256
370
   -1
100
AcDbCircle
 10
-10.15999999999949
 20
-2.540000000000092
 40
0.5
  0
CIRCLE
  5
ED
100
AcDbEntity
  8
universal_board
  6
ByLayer
 62
  256
370
   -1
100
AcDbCircle
 10
-10.15999999999949
 20
0
 40
0.5
  0
CIRCLE
  5
EE
100
AcDbEntity
  8
universal_board
  6
ByLayer
 62
  256
370
   -1
100
AcDbCircle
 10
-7.619999999999553
 20
-22.8600000000002
 40
0.5
  0
CIRCLE
  5
EF
100
AcDbEntity
  8
universal_board
  6
ByLayer
 62
  256
370
   -1
100
AcDbCircle
 10
-7.61999999999956
 20
-20.32000000000019
 40
0.5
  0
CIRCLE
  5
F0
100
AcDbEntity
  8
universal_board
  6
ByLayer
 62
  256
370
   -1
100
AcDbCircle
 10
-7.61999999999956
 20
-17.7800000000002
 40
0.5
  0
CIRCLE
  5
F1
100
AcDbEntity
  8
universal_board
  6
ByLayer
 62
  256
370
   -1
100
AcDbCircle
 10
-7.61999999999956
 20
-15.24000000000019
 40
0.5
  0
CIRCLE
  5
F2
100
AcDbEntity
  8
universal_board
  6
ByLayer
 62
  256
370
   -1
100
AcDbCircle
 10
-7.619999999999571
 20
-12.70000000000019
 40
0.5
  0
CIRCLE
  5
F3
100
AcDbEntity
  8
universal_board
  6
ByLayer
 62
  256
370
   -1
100
AcDbCircle
 10
-7.619999999999582
 20
-10.1600000000001
 40
0.5
  0
CIRCLE
  5
F4
100
AcDbEntity
  8
universal_board
  6
ByLayer
 62
  256
370
   -1
100
AcDbCircle
 10
-7.619999999999582
 20
-7.62000000000009
 40
0.5
  0
CIRCLE
  5
F5
100
AcDbEntity
  8
universal_board
  6
ByLayer
 62
  256
370
   -1
100
AcDbCircle
 10
-7.619999999999603
 20
-5.080000000000098
 40
0.5
  0
CIRCLE
  5
F6
100
AcDbEntity
  8
universal_board
  6
ByLayer
 62
  256
370
   -1
100
AcDbCircle
 10
-7.619999999999614
 20
-2.540000000000092
 40
0.5
  0
CIRCLE
  5
F7
100
AcDbEntity
  8
universal_board
  6
ByLayer
 62
  256
370
   -1
100
AcDbCircle
 10
-7.619999999999614
 20
0
 40
0.5
  0
CIRCLE
  5
F8
100
AcDbEntity
  8
terminal
  6
ByLayer
 62
  256
370
   -1
100
AcDbCircle
 10
-17.76000000000055
 20
-7.080000000000794
 40
0.46
  0
CIRCLE
  5
F9
100
AcDbEntity
  8
terminal
  6
ByLayer
 62
  256
370
   -1
100
AcDbCircle
 10
-15.25999999999848
 20
-7.080000107774993
 40
0.46
  0
CIRCLE
  5
FA
100
AcDbEntity
  8
terminal
  6
ByLayer
 62
  256
370
   -1
100
AcDbCircle
 10
-17.76000000000055
 20
-5.079999999999998
 40
0.46
  0
CIRCLE
  5
FB
100
AcDbEntity
  8
terminal
  6
ByLayer
 62
  256
370
   -1
100
AcDbCircle
 10
-15.25999999999848
 20
-5.080000107774197
 40
0.46
  0
CIRCLE
  5
FC
100
AcDbEntity
  8
terminal
  6
ByLayer
 62
  256
370
   -1
100
AcDbCircle
 10
-22.5299999999991
 20
-2.379999999999995
 40
1.15
  0
CIRCLE
  5
FD
100
AcDbEntity
  8
terminal
  6
ByLayer
 62
  256
370
   -1
100
AcDbCircle
 10
-10.48999999999995
 20
-2.379999999999995
 40
1.15
  0
LINE
  5
FE
100
AcDbEntity
  8
terminal
  6
ByLayer
 62
  256
370
   -1
100
AcDbLine
 10
-22.52999847013482
 20
7.900000000000006
 11
-22.52999847013482
 21
-8.099999999999994
  0
LINE
  5
FF
100
AcDbEntity
  8
terminal
  6
ByLayer
 62
  256
370
   -1
100
AcDbLine
 10
-22.52999847013482
 20
-8.099999999999994
 11
-10.48999847013529
 21
-8.099999999999994
  0
LINE
  5
100
100
AcDbEntity
  8
terminal
  6
ByLayer
 62
  256
370
   -1
100
AcDbLine
 10
-10.48999847013529
 20
-8.099999999999994
 11
-10.48999847013529
 21
7.900000000000006
  0
LINE
  5
101
100
AcDbEntity
  8
terminal
  6
ByLayer
 62
  256
370
   -1
100
AcDbLine
 10
-10.48999847013529
 20
7.900000000000006
 11
-22.52999847013482
 21
7.900000000000006
  0
MTEXT
  5
102
100
AcDbEntity
  8
terminal
  6
ByLayer
 62
  256
370
   -1
100
AcDbMText
 10
-20.62970149042354
 20
-5.897304284366598
 30
0
 40
1
 41
2.333333333333519
 71
    5
 72
    1
  1
GND\PV
  7
iso
210
0
220
0
230
1
 50
0
 73
    2
 44
1.54
  0
MTEXT
  5
103
100
AcDbEntity
  8
terminal
  6
ByLayer
 62
  256
370
   -1
100
AcDbMText
 10
-12.43852613550242
 20
-5.74891342648759
 30
0
 40
1
 41
1.333333333333395
 71
    5
 72
    1
  1
D+\PD-
  7
iso
210
0
220
0
230
1
 50
0
 73
    2
 44
1.54
  0
MTEXT
  5
104
100
AcDbEntity
  8
terminal
  6
ByLayer
 62
  256
370
   -1
100
AcDbMText
 10
-15.75216512717824
 20
6.776292963277115
 30
0
 40
1
 41
0.8888888888889508
 71
    5
 72
    1
  1
J1
  7
iso
210
0
220
0
230
1
 50
0
 73
    2
 44
1.54
  0
CIRCLE
  5
105
100
AcDbEntity
  8
0_wire
  6
ByLayer
 62
  256
370
   -1
100
AcDbCircle
 10
-15.23999999999924
 20
-5.080000000000098
 40
0.4
  0
LINE
  5
106
100
AcDbEntity
  8
0_GND
  6
ByLayer
 62
  256
370
   -1
100
AcDbLine
 10
-17.76000000000055
 20
-5.079999999999998
 11
-22.85999999999887
 21
-5.080000000000098
  0
LINE
  5
107
100
AcDbEntity
  8
resister
  6
DOTTINY
 62
  256
370
   15
100
AcDbLine
 10
-25.39999999999594
 20
-2.540000000000788
 11
-22.52999999999594
 21
-2.380000000000791
  0
LINE
  5
108
100
AcDbEntity
  8
micon
  6
ByLayer
 62
  256
370
   -1
100
AcDbLine
 10
-24.76499999999941
 20
-10.79500000000189
 11
-5.714999999999094
 21
-10.79500000000189
  0
LINE
  5
109
100
AcDbEntity
  8
micon
  6
ByLayer
 62
  256
370
   -1
100
AcDbLine
 10
-5.714999999999094
 20
-17.1450000000021
 11
-24.76499999999941
 21
-17.1450000000021
  0
LINE
  5
10A
100
AcDbEntity
  8
micon
  6
ByLayer
 62
  256
370
   -1
100
AcDbLine
 10
-20.31999999999931
 20
-17.7800000000001
 11
-20.31999999999931
 21
-17.1450000000021
  0
LINE
  5
10B
100
AcDbEntity
  8
micon
  6
ByLayer
 62
  256
370
   -1
100
AcDbLine
 10
-17.7799999999993
 20
-17.7800000000001
 11
-17.7799999999993
 21
-17.1450000000021
  0
LINE
  5
10C
100
AcDbEntity
  8
micon
  6
ByLayer
 62
  256
370
   -1
100
AcDbLine
 10
-15.23999999999921
 20
-17.7800000000001
 11
-15.23999999999921
 21
-17.1450000000021
  0
LINE
  5
10D
100
AcDbEntity
  8
micon
  6
ByLayer
 62
  256
370
   -1
100
AcDbLine
 10
-12.6999999999992
 20
-17.7800000000001
 11
-12.6999999999992
 21
-17.1450000000021
  0
LINE
  5
10E
100
AcDbEntity
  8
micon
  6
ByLayer
 62
  256
370
   -1
100
AcDbLine
 10
-10.15999999999921
 20
-17.7800000000001
 11
-10.15999999999921
 21
-17.1450000000021
  0
LINE
  5
10F
100
AcDbEntity
  8
micon
  6
ByLayer
 62
  256
370
   -1
100
AcDbLine
 10
-7.619999999999184
 20
-17.7800000000001
 11
-7.619999999999184
 21
-17.1450000000021
  0
LINE
  5
110
100
AcDbEntity
  8
micon
  6
ByLayer
 62
  256
370
   -1
100
AcDbLine
 10
-7.619999999999184
 20
-10.79500000000189
 11
-7.619999999999184
 21
-10.16000000000049
  0
LINE
  5
111
100
AcDbEntity
  8
micon
  6
ByLayer
 62
  256
370
   -1
100
AcDbLine
 10
-10.15999999999921
 20
-10.79500000000189
 11
-10.15999999999921
 21
-10.16000000000049
  0
LINE
  5
112
100
AcDbEntity
  8
micon
  6
ByLayer
 62
  256
370
   -1
100
AcDbLine
 10
-12.6999999999992
 20
-10.79500000000189
 11
-12.6999999999992
 21
-10.16000000000049
  0
LINE
  5
113
100
AcDbEntity
  8
micon
  6
ByLayer
 62
  256
370
   -1
100
AcDbLine
 10
-15.23999999999921
 20
-10.79500000000189
 11
-15.23999999999921
 21
-10.16000000000049
  0
LINE
  5
114
100
AcDbEntity
  8
micon
  6
ByLayer
 62
  256
370
   -1
100
AcDbLine
 10
-17.7799999999993
 20
-10.79500000000189
 11
-17.7799999999993
 21
-10.16000000000049
  0
LINE
  5
115
100
AcDbEntity
  8
micon
  6
ByLayer
 62
  256
370
   -1
100
AcDbLine
 10
-20.31999999999931
 20
-10.79500000000189
 11
-20.31999999999931
 21
-10.16000000000049
  0
LINE
  5
116
100
AcDbEntity
  8
micon
  6
ByLayer
 62
  256
370
   -1
100
AcDbLine
 10
-22.85999999999931
 20
-10.79500000000189
 11
-22.85999999999931
 21
-10.16000000000049
  0
ARC
  5
117
100
AcDbEntity
  8
micon
  6
ByLayer
 62
  256
370
   -1
100
AcDbCircle
 10
-24.76499999999941
 20
-13.97000000000199
 40
1.27
100
AcDbArc
 50
269.9999999999987
 51
90
  0
LINE
  5
118
100
AcDbEntity
  8
micon
  6
ByLayer
 62
  256
370
   -1
100
AcDbLine
 10
-24.76499999999941
 20
-17.1450000000021
 11
-24.76499999999941
 21
-10.79500000000189
  0
LINE
  5
119
100
AcDbEntity
  8
micon
  6
ByLayer
 62
  256
370
   -1
100
AcDbLine
 10
-5.714999999999062
 20
-17.14499999999869
 11
-5.714999999999062
 21
-10.79499999999869
  0
MTEXT
  5
11A
100
AcDbEntity
  8
micon
  6
ByLayer
 62
  256
370
   -1
100
AcDbMText
 10
-15.5237303505267
 20
-18.3520647775064
 30
0
 40
1
 41
3.111111111111174
 71
    4
 72
    1
  1
VDD\PRA5\PRA4\PMCLR\PRC5\PRC4\PRC3
  7
iso
210
0
220
0
230
1
 50
90
 73
    2
 44
1.54
  0
MTEXT
  5
11B
100
AcDbEntity
  8
micon
  6
ByLayer
 62
  256
370
   -1
100
AcDbMText
 10
-15.89374143522091
 20
-12.334842857182
 30
0
 40
1
 41
2.333333333333519
 71
    4
 72
    1
  1
GND\PD+\PD-\P3V3\PRC0\PRC1\PRC2
  7
iso
210
0
220
0
230
1
 50
90
 73
    2
 44
1.54
  0
LINE
  5
11C
100
AcDbEntity
  8
socket_header
  6
ByLayer
 62
  256
370
   -1
100
AcDbLine
 10
-24.13000000000016
 20
-8.890000000000697
 11
-24.13000000000016
 21
-11.43000000000069
  0
LINE
  5
11D
100
AcDbEntity
  8
socket_header
  6
ByLayer
 62
  256
370
   -1
100
AcDbLine
 10
-21.59000000000028
 20
-8.890000000000697
 11
-21.59000000000028
 21
-11.43000000000069
  0
LINE
  5
11E
100
AcDbEntity
  8
socket_header
  6
ByLayer
 62
  256
370
   -1
100
AcDbLine
 10
-24.13000000000016
 20
-11.43000000000069
 11
-21.59000000000028
 21
-11.43000000000069
  0
LINE
  5
11F
100
AcDbEntity
  8
socket_header
  6
ByLayer
 62
  256
370
   -1
100
AcDbLine
 10
-24.13000000000016
 20
-8.890000000000697
 11
-21.59000000000028
 21
-8.890000000000697
  0
LINE
  5
120
100
AcDbEntity
  8
socket_header
  6
ByLayer
 62
  256
370
   -1
100
AcDbLine
 10
-21.59000000000028
 20
-8.890000000000697
 11
-21.59000000000028
 21
-11.43000000000069
  0
LINE
  5
121
100
AcDbEntity
  8
socket_header
  6
ByLayer
 62
  256
370
   -1
100
AcDbLine
 10
-19.0500000000004
 20
-8.890000000000697
 11
-19.0500000000004
 21
-11.43000000000069
  0
LINE
  5
122
100
AcDbEntity
  8
socket_header
  6
ByLayer
 62
  256
370
   -1
100
AcDbLine
 10
-21.59000000000028
 20
-11.43000000000069
 11
-19.0500000000004
 21
-11.43000000000069
  0
LINE
  5
123
100
AcDbEntity
  8
socket_header
  6
ByLayer
 62
  256
370
   -1
100
AcDbLine
 10
-21.59000000000028
 20
-8.890000000000697
 11
-19.0500000000004
 21
-8.890000000000697
  0
LINE
  5
124
100
AcDbEntity
  8
socket_header
  6
ByLayer
 62
  256
370
   -1
100
AcDbLine
 10
-19.0500000000004
 20
-8.890000000000697
 11
-19.0500000000004
 21
-11.43000000000069
  0
LINE
  5
125
100
AcDbEntity
  8
socket_header
  6
ByLayer
 62
  256
370
   -1
100
AcDbLine
 10
-16.51000000000052
 20
-8.890000000000697
 11
-16.51000000000052
 21
-11.43000000000069
  0
LINE
  5
126
100
AcDbEntity
  8
socket_header
  6
ByLayer
 62
  256
370
   -1
100
AcDbLine
 10
-19.0500000000004
 20
-11.43000000000069
 11
-16.51000000000052
 21
-11.43000000000069
  0
LINE
  5
127
100
AcDbEntity
  8
socket_header
  6
ByLayer
 62
  256
370
   -1
100
AcDbLine
 10
-19.0500000000004
 20
-8.890000000000697
 11
-16.51000000000052
 21
-8.890000000000697
  0
LINE
  5
128
100
AcDbEntity
  8
socket_header
  6
ByLayer
 62
  256
370
   -1
100
AcDbLine
 10
-16.51000000000053
 20
-8.890000000000697
 11
-16.51000000000053
 21
-11.43000000000069
  0
LINE
  5
129
100
AcDbEntity
  8
socket_header
  6
ByLayer
 62
  256
370
   -1
100
AcDbLine
 10
-13.97000000000064
 20
-8.890000000000697
 11
-13.97000000000064
 21
-11.43000000000069
  0
LINE
  5
12A
100
AcDbEntity
  8
socket_header
  6
ByLayer
 62
  256
370
   -1
100
AcDbLine
 10
-16.51000000000053
 20
-11.43000000000069
 11
-13.97000000000064
 21
-11.43000000000069
  0
LINE
  5
12B
100
AcDbEntity
  8
socket_header
  6
ByLayer
 62
  256
370
   -1
100
AcDbLine
 10
-16.51000000000053
 20
-8.890000000000697
 11
-13.97000000000064
 21
-8.890000000000697
  0
LINE
  5
12C
100
AcDbEntity
  8
socket_header
  6
ByLayer
 62
  256
370
   -1
100
AcDbLine
 10
-13.97000000000065
 20
-8.890000000000697
 11
-13.97000000000065
 21
-11.43000000000069
  0
LINE
  5
12D
100
AcDbEntity
  8
socket_header
  6
ByLayer
 62
  256
370
   -1
100
AcDbLine
 10
-11.43000000000076
 20
-8.890000000000697
 11
-11.43000000000076
 21
-11.43000000000069
  0
LINE
  5
12E
100
AcDbEntity
  8
socket_header
  6
ByLayer
 62
  256
370
   -1
100
AcDbLine
 10
-13.97000000000065
 20
-11.43000000000069
 11
-11.43000000000076
 21
-11.43000000000069
  0
LINE
  5
12F
100
AcDbEntity
  8
socket_header
  6
ByLayer
 62
  256
370
   -1
100
AcDbLine
 10
-13.97000000000065
 20
-8.890000000000697
 11
-11.43000000000076
 21
-8.890000000000697
  0
LINE
  5
130
100
AcDbEntity
  8
socket_header
  6
ByLayer
 62
  256
370
   -1
100
AcDbLine
 10
-11.43000000000077
 20
-8.890000000000697
 11
-11.43000000000077
 21
-11.43000000000069
  0
LINE
  5
131
100
AcDbEntity
  8
socket_header
  6
ByLayer
 62
  256
370
   -1
100
AcDbLine
 10
-8.890000000000882
 20
-8.890000000000697
 11
-8.890000000000882
 21
-11.43000000000069
  0
LINE
  5
132
100
AcDbEntity
  8
socket_header
  6
ByLayer
 62
  256
370
   -1
100
AcDbLine
 10
-11.43000000000077
 20
-11.43000000000069
 11
-8.890000000000882
 21
-11.43000000000069
  0
LINE
  5
133
100
AcDbEntity
  8
socket_header
  6
ByLayer
 62
  256
370
   -1
100
AcDbLine
 10
-11.43000000000077
 20
-8.890000000000697
 11
-8.890000000000882
 21
-8.890000000000697
  0
LINE
  5
134
100
AcDbEntity
  8
socket_header
  6
ByLayer
 62
  256
370
   -1
100
AcDbLine
 10
-8.890000000000892
 20
-8.890000000000697
 11
-8.890000000000892
 21
-11.43000000000069
  0
LINE
  5
135
100
AcDbEntity
  8
socket_header
  6
ByLayer
 62
  256
370
   -1
100
AcDbLine
 10
-6.350000000001014
 20
-8.890000000000697
 11
-6.350000000001014
 21
-11.43000000000069
  0
LINE
  5
136
100
AcDbEntity
  8
socket_header
  6
ByLayer
 62
  256
370
   -1
100
AcDbLine
 10
-8.890000000000892
 20
-11.43000000000069
 11
-6.350000000001014
 21
-11.43000000000069
  0
LINE
  5
137
100
AcDbEntity
  8
socket_header
  6
ByLayer
 62
  256
370
   -1
100
AcDbLine
 10
-8.890000000000892
 20
-8.890000000000697
 11
-6.350000000001014
 21
-8.890000000000697
  0
LINE
  5
138
100
AcDbEntity
  8
socket_header
  6
ByLayer
 62
  256
370
   -1
100
AcDbLine
 10
-24.13000000000013
 20
-16.51000000000079
 11
-24.13000000000013
 21
-19.05000000000079
  0
LINE
  5
139
100
AcDbEntity
  8
socket_header
  6
ByLayer
 62
  256
370
   -1
100
AcDbLine
 10
-21.59000000000025
 20
-16.51000000000079
 11
-21.59000000000025
 21
-19.05000000000079
  0
LINE
  5
13A
100
AcDbEntity
  8
socket_header
  6
ByLayer
 62
  256
370
   -1
100
AcDbLine
 10
-24.13000000000013
 20
-19.05000000000079
 11
-21.59000000000025
 21
-19.05000000000079
  0
LINE
  5
13B
100
AcDbEntity
  8
socket_header
  6
ByLayer
 62
  256
370
   -1
100
AcDbLine
 10
-24.13000000000013
 20
-16.51000000000079
 11
-21.59000000000025
 21
-16.51000000000079
  0
LINE
  5
13C
100
AcDbEntity
  8
socket_header
  6
ByLayer
 62
  256
370
   -1
100
AcDbLine
 10
-21.59000000000025
 20
-16.51000000000079
 11
-21.59000000000025
 21
-19.05000000000079
  0
LINE
  5
13D
100
AcDbEntity
  8
socket_header
  6
ByLayer
 62
  256
370
   -1
100
AcDbLine
 10
-19.05000000000037
 20
-16.51000000000079
 11
-19.05000000000037
 21
-19.05000000000079
  0
LINE
  5
13E
100
AcDbEntity
  8
socket_header
  6
ByLayer
 62
  256
370
   -1
100
AcDbLine
 10
-21.59000000000025
 20
-19.05000000000079
 11
-19.05000000000037
 21
-19.05000000000079
  0
LINE
  5
13F
100
AcDbEntity
  8
socket_header
  6
ByLayer
 62
  256
370
   -1
100
AcDbLine
 10
-21.59000000000025
 20
-16.51000000000079
 11
-19.05000000000037
 21
-16.51000000000079
  0
LINE
  5
140
100
AcDbEntity
  8
socket_header
  6
ByLayer
 62
  256
370
   -1
100
AcDbLine
 10
-19.05000000000038
 20
-16.51000000000079
 11
-19.05000000000038
 21
-19.05000000000079
  0
LINE
  5
141
100
AcDbEntity
  8
socket_header
  6
ByLayer
 62
  256
370
   -1
100
AcDbLine
 10
-16.51000000000049
 20
-16.51000000000079
 11
-16.51000000000049
 21
-19.05000000000079
  0
LINE
  5
142
100
AcDbEntity
  8
socket_header
  6
ByLayer
 62
  256
370
   -1
100
AcDbLine
 10
-19.05000000000038
 20
-19.05000000000079
 11
-16.51000000000049
 21
-19.05000000000079
  0
LINE
  5
143
100
AcDbEntity
  8
socket_header
  6
ByLayer
 62
  256
370
   -1
100
AcDbLine
 10
-19.05000000000038
 20
-16.51000000000079
 11
-16.51000000000049
 21
-16.51000000000079
  0
LINE
  5
144
100
AcDbEntity
  8
socket_header
  6
ByLayer
 62
  256
370
   -1
100
AcDbLine
 10
-16.5100000000005
 20
-16.51000000000079
 11
-16.5100000000005
 21
-19.05000000000079
  0
LINE
  5
145
100
AcDbEntity
  8
socket_header
  6
ByLayer
 62
  256
370
   -1
100
AcDbLine
 10
-13.97000000000061
 20
-16.51000000000079
 11
-13.97000000000061
 21
-19.05000000000079
  0
LINE
  5
146
100
AcDbEntity
  8
socket_header
  6
ByLayer
 62
  256
370
   -1
100
AcDbLine
 10
-16.5100000000005
 20
-19.05000000000079
 11
-13.97000000000061
 21
-19.05000000000079
  0
LINE
  5
147
100
AcDbEntity
  8
socket_header
  6
ByLayer
 62
  256
370
   -1
100
AcDbLine
 10
-16.5100000000005
 20
-16.51000000000079
 11
-13.97000000000061
 21
-16.51000000000079
  0
LINE
  5
148
100
AcDbEntity
  8
socket_header
  6
ByLayer
 62
  256
370
   -1
100
AcDbLine
 10
-13.97000000000062
 20
-16.51000000000079
 11
-13.97000000000062
 21
-19.05000000000079
  0
LINE
  5
149
100
AcDbEntity
  8
socket_header
  6
ByLayer
 62
  256
370
   -1
100
AcDbLine
 10
-11.43000000000073
 20
-16.51000000000079
 11
-11.43000000000073
 21
-19.05000000000079
  0
LINE
  5
14A
100
AcDbEntity
  8
socket_header
  6
ByLayer
 62
  256
370
   -1
100
AcDbLine
 10
-13.97000000000062
 20
-19.05000000000079
 11
-11.43000000000073
 21
-19.05000000000079
  0
LINE
  5
14B
100
AcDbEntity
  8
socket_header
  6
ByLayer
 62
  256
370
   -1
100
AcDbLine
 10
-13.97000000000062
 20
-16.51000000000079
 11
-11.43000000000073
 21
-16.51000000000079
  0
LINE
  5
14C
100
AcDbEntity
  8
socket_header
  6
ByLayer
 62
  256
370
   -1
100
AcDbLine
 10
-11.43000000000074
 20
-16.51000000000079
 11
-11.43000000000074
 21
-19.05000000000079
  0
LINE
  5
14D
100
AcDbEntity
  8
socket_header
  6
ByLayer
 62
  256
370
   -1
100
AcDbLine
 10
-8.890000000000864
 20
-16.51000000000079
 11
-8.890000000000864
 21
-19.05000000000079
  0
LINE
  5
14E
100
AcDbEntity
  8
socket_header
  6
ByLayer
 62
  256
370
   -1
100
AcDbLine
 10
-11.43000000000074
 20
-19.05000000000079
 11
-8.890000000000864
 21
-19.05000000000079
  0
LINE
  5
14F
100
AcDbEntity
  8
socket_header
  6
ByLayer
 62
  256
370
   -1
100
AcDbLine
 10
-11.43000000000074
 20
-16.51000000000079
 11
-8.890000000000864
 21
-16.51000000000079
  0
LINE
  5
150
100
AcDbEntity
  8
socket_header
  6
ByLayer
 62
  256
370
   -1
100
AcDbLine
 10
-8.890000000000864
 20
-16.51000000000079
 11
-8.890000000000864
 21
-19.05000000000079
  0
LINE
  5
151
100
AcDbEntity
  8
socket_header
  6
ByLayer
 62
  256
370
   -1
100
AcDbLine
 10
-6.350000000000982
 20
-16.51000000000079
 11
-6.350000000000982
 21
-19.05000000000079
  0
LINE
  5
152
100
AcDbEntity
  8
socket_header
  6
ByLayer
 62
  256
370
   -1
100
AcDbLine
 10
-8.890000000000864
 20
-19.05000000000079
 11
-6.350000000000982
 21
-19.05000000000079
  0
LINE
  5
153
100
AcDbEntity
  8
socket_header
  6
ByLayer
 62
  256
370
   -1
100
AcDbLine
 10
-8.890000000000864
 20
-16.51000000000079
 11
-6.350000000000982
 21
-16.51000000000079
  0
CIRCLE
  5
154
100
AcDbEntity
  8
0_wire
  6
ByLayer
 62
  256
370
   -1
100
AcDbCircle
 10
-17.77999999999909
 20
-10.1600000000001
 40
0.4
  0
CIRCLE
  5
155
100
AcDbEntity
  8
0_wire
  6
ByLayer
 62
  256
370
   -1
100
AcDbCircle
 10
-20.31999999999898
 20
-10.1600000000001
 40
0.4
  0
LWPOLYLINE
  5
156
100
AcDbEntity
  8
resister
  6
DOTTINY
 62
  256
370
   -1
100
AcDbPolyline
 90
    5
 70
    0
 43
0
 10
-15.25999999999848
 20
-5.080000107774197
 10
-16.68318450760044
 20
-6.433420408254889
 10
-16.94348368392041
 20
-8.515813818814692
 10
-19.51393805008011
 20
-9.264173950734587
 10
-20.31999999999898
 20
-10.1600000000001
  0
LINE
  5
157
100
AcDbEntity
  8
socket_header
  6
ByLayer
 62
  256
370
   -1
100
AcDbLine
 10
-24.13000000000012
 20
-21.5900000000008
 11
-24.13000000000012
 21
-24.13000000000079
  0
LINE
  5
158
100
AcDbEntity
  8
socket_header
  6
ByLayer
 62
  256
370
   -1
100
AcDbLine
 10
-24.13000000000012
 20
-24.13000000000079
 11
-21.59000000000024
 21
-24.13000000000079
  0
LINE
  5
159
100
AcDbEntity
  8
socket_header
  6
ByLayer
 62
  256
370
   -1
100
AcDbLine
 10
-24.13000000000012
 20
-21.5900000000008
 11
-21.59000000000024
 21
-21.5900000000008
  0
LINE
  5
15A
100
AcDbEntity
  8
socket_header
  6
ByLayer
 62
  256
370
   -1
100
AcDbLine
 10
-21.59000000000025
 20
-21.5900000000008
 11
-21.59000000000025
 21
-24.13000000000079
  0
LINE
  5
15B
100
AcDbEntity
  8
socket_header
  6
ByLayer
 62
  256
370
   -1
100
AcDbLine
 10
-21.59000000000024
 20
-21.5900000000008
 11
-21.59000000000024
 21
-24.13000000000079
  0
LINE
  5
15C
100
AcDbEntity
  8
socket_header
  6
ByLayer
 62
  256
370
   -1
100
AcDbLine
 10
-21.59000000000024
 20
-24.13000000000079
 11
-19.05000000000035
 21
-24.13000000000079
  0
LINE
  5
15D
100
AcDbEntity
  8
socket_header
  6
ByLayer
 62
  256
370
   -1
100
AcDbLine
 10
-21.59000000000024
 20
-21.5900000000008
 11
-19.05000000000035
 21
-21.5900000000008
  0
LINE
  5
15E
100
AcDbEntity
  8
socket_header
  6
ByLayer
 62
  256
370
   -1
100
AcDbLine
 10
-19.05000000000036
 20
-21.5900000000008
 11
-19.05000000000036
 21
-24.13000000000079
  0
LINE
  5
15F
100
AcDbEntity
  8
socket_header
  6
ByLayer
 62
  256
370
   -1
100
AcDbLine
 10
-16.51000000000048
 20
-21.5900000000008
 11
-16.51000000000048
 21
-24.13000000000079
  0
LINE
  5
160
100
AcDbEntity
  8
socket_header
  6
ByLayer
 62
  256
370
   -1
100
AcDbLine
 10
-16.51000000000048
 20
-24.13000000000079
 11
-13.9700000000006
 21
-24.13000000000079
  0
LINE
  5
161
100
AcDbEntity
  8
socket_header
  6
ByLayer
 62
  256
370
   -1
100
AcDbLine
 10
-16.51000000000048
 20
-21.5900000000008
 11
-13.9700000000006
 21
-21.5900000000008
  0
LINE
  5
162
100
AcDbEntity
  8
socket_header
  6
ByLayer
 62
  256
370
   -1
100
AcDbLine
 10
-13.97000000000061
 20
-21.5900000000008
 11
-13.97000000000061
 21
-24.13000000000079
  0
LINE
  5
163
100
AcDbEntity
  8
socket_header
  6
ByLayer
 62
  256
370
   -1
100
AcDbLine
 10
-13.97000000000061
 20
-21.5900000000008
 11
-13.97000000000061
 21
-24.13000000000079
  0
LINE
  5
164
100
AcDbEntity
  8
socket_header
  6
ByLayer
 62
  256
370
   -1
100
AcDbLine
 10
-13.97000000000061
 20
-24.13000000000079
 11
-11.43000000000072
 21
-24.13000000000079
  0
LINE
  5
165
100
AcDbEntity
  8
socket_header
  6
ByLayer
 62
  256
370
   -1
100
AcDbLine
 10
-13.97000000000061
 20
-21.5900000000008
 11
-11.43000000000072
 21
-21.5900000000008
  0
LINE
  5
166
100
AcDbEntity
  8
socket_header
  6
ByLayer
 62
  256
370
   -1
100
AcDbLine
 10
-11.43000000000073
 20
-21.5900000000008
 11
-11.43000000000073
 21
-24.13000000000079
  0
LINE
  5
167
100
AcDbEntity
  8
socket_header
  6
ByLayer
 62
  256
370
   -1
100
AcDbLine
 10
-11.43000000000073
 20
-21.5900000000008
 11
-11.43000000000073
 21
-24.13000000000079
  0
LINE
  5
168
100
AcDbEntity
  8
socket_header
  6
ByLayer
 62
  256
370
   -1
100
AcDbLine
 10
-11.43000000000073
 20
-24.13000000000079
 11
-8.890000000000843
 21
-24.13000000000079
  0
LINE
  5
169
100
AcDbEntity
  8
socket_header
  6
ByLayer
 62
  256
370
   -1
100
AcDbLine
 10
-11.43000000000073
 20
-21.5900000000008
 11
-8.890000000000843
 21
-21.5900000000008
  0
LINE
  5
16A
100
AcDbEntity
  8
socket_header
  6
ByLayer
 62
  256
370
   -1
100
AcDbLine
 10
-8.890000000000853
 20
-21.5900000000008
 11
-8.890000000000853
 21
-24.13000000000079
  0
LINE
  5
16B
100
AcDbEntity
  8
0_wire
  6
ByLayer
 62
  256
370
   -1
100
AcDbLine
 10
-7.61999999999956
 20
-17.7800000000002
 11
-7.619999999999553
 21
-22.8600000000002
  0
LINE
  5
16C
100
AcDbEntity
  8
0_wire
  6
ByLayer
 62
  256
370
   -1
100
AcDbLine
 10
-7.619999999999553
 20
-22.8600000000002
 11
-10.15999999999942
 21
-22.8600000000002
  0
LINE
  5
16D
100
AcDbEntity
  8
0_wire
  6
ByLayer
 62
  256
370
   -1
100
AcDbLine
 10
-17.77999999999907
 20
-17.7800000000002
 11
-17.77999999999907
 21
-20.32000000000019
  0
LINE
  5
16E
100
AcDbEntity
  8
0_wire
  6
ByLayer
 62
  256
370
   -1
100
AcDbLine
 10
-17.77999999999907
 20
-20.32000000000019
 11
-12.69999999999932
 21
-20.32000000000019
  0
LINE
  5
16F
100
AcDbEntity
  8
0_wire
  6
ByLayer
 62
  256
370
   -1
100
AcDbLine
 10
-12.69999999999932
 20
-20.32000000000019
 11
-12.6999999999993
 21
-22.8600000000002
  0
CIRCLE
  5
170
100
AcDbEntity
  8
0_wire
  6
ByLayer
 62
  256
370
   -1
100
AcDbCircle
 10
-15.23999999999918
 20
-22.8600000000002
 40
0.4
  0
CIRCLE
  5
171
100
AcDbEntity
  8
0_wire
  6
ByLayer
 62
  256
370
   -1
100
AcDbCircle
 10
-20.31999999999895
 20
-17.7800000000002
 40
0.4
  0
LINE
  5
172
100
AcDbEntity
  8
condenser
  6
ByLayer
 62
  256
370
   -1
100
AcDbLine
 10
-25.87999999999947
 20
-19.42000000000019
 11
-25.87999999999947
 21
-21.22000000000099
  0
LINE
  5
173
100
AcDbEntity
  8
condenser
  6
ByLayer
 62
  256
370
   -1
100
AcDbLine
 10
-25.87999999999947
 20
-21.22000000000099
 11
-22.37999999999896
 21
-21.22000000000099
  0
LINE
  5
174
100
AcDbEntity
  8
condenser
  6
ByLayer
 62
  256
370
   -1
100
AcDbLine
 10
-22.37999999999896
 20
-21.22000000000099
 11
-22.37999999999896
 21
-19.42000000000019
  0
LINE
  5
175
100
AcDbEntity
  8
condenser
  6
ByLayer
 62
  256
370
   -1
100
AcDbLine
 10
-22.37999999999896
 20
-19.42000000000019
 11
-25.87999999999947
 21
-19.42000000000019
  0
LINE
  5
176
100
AcDbEntity
  8
condenser
  6
ByLayer
 62
  256
370
   -1
100
AcDbLine
 10
-22.85999999999915
 20
-20.32000000000029
 11
-22.37999999999896
 21
-20.32000000000029
  0
LINE
  5
177
100
AcDbEntity
  8
condenser
  6
ByLayer
 62
  256
370
   -1
100
AcDbLine
 10
-25.87999999999947
 20
-20.32000000000029
 11
-25.39999999999897
 21
-20.32000000000029
  0
MTEXT
  5
178
100
AcDbEntity
  8
condenser
  6
ByLayer
 62
  256
370
   -1
100
AcDbMText
 10
-25.04893050625012
 20
-20.29101545788249
 30
0
 40
1
 41
0.9999999999999999
 71
    4
 72
    1
  1
C1
  7
unicode
210
0
220
0
230
1
 50
0
 73
    2
 44
1.54
  0
CIRCLE
  5
179
100
AcDbEntity
  8
5V line
  6
ByLayer
 62
  256
370
   -1
100
AcDbCircle
 10
-17.77999999999594
 20
-7.6200000000008
 40
0.4
  0
LWPOLYLINE
  5
17A
100
AcDbEntity
  8
resister
  6
DOTTINY
 62
  256
370
   -1
100
AcDbPolyline
 90
    5
 70
    0
 43
0
 10
-17.77999999999594
 20
-7.6200000000008
 10
-18.2956028332104
 20
-7.191853683321597
 10
-24.04759650518863
 20
-7.134619915441192
 10
-23.87589520154749
 20
-17.43669813390969
 10
-22.85999999999883
 20
-17.7800000000002
  0
LINE
  5
17B
100
AcDbEntity
  8
0_GND
  6
ByLayer
 62
  256
370
   -1
100
AcDbLine
 10
-22.85999999999887
 20
-5.080000000000098
 11
-22.85999999999886
 21
-10.1600000000001
  0
LINE
  5
17C
100
AcDbEntity
  8
0_GND
  6
ByLayer
 62
  256
370
   -1
100
AcDbLine
 10
-22.85999999999886
 20
-10.1600000000001
 11
-25.39999999999873
 21
-10.1600000000001
  0
LINE
  5
17D
100
AcDbEntity
  8
0_GND
  6
ByLayer
 62
  256
370
   -1
100
AcDbLine
 10
-25.39999999999873
 20
-10.1600000000001
 11
-25.39999999999871
 21
-20.32000000000019
  0
CIRCLE
  5
17E
100
AcDbEntity
  8
0_wire
  6
ByLayer
 62
  256
370
   -1
100
AcDbCircle
 10
-15.23999999999919
 20
-17.7800000000002
 40
0.4
  0
CIRCLE
  5
17F
100
AcDbEntity
  8
0_wire
  6
ByLayer
 62
  256
370
   -1
100
AcDbCircle
 10
-12.69999999999932
 20
-17.7800000000002
 40
0.4
  0
CIRCLE
  5
180
100
AcDbEntity
  8
0_wire
  6
ByLayer
 62
  256
370
   -1
100
AcDbCircle
 10
-10.15999999999944
 20
-17.7800000000002
 40
0.4
  0
CIRCLE
  5
181
100
AcDbEntity
  8
0_wire
  6
ByLayer
 62
  256
370
   -1
100
AcDbCircle
 10
-12.69999999999934
 20
-10.1600000000001
 40
0.4
  0
CIRCLE
  5
182
100
AcDbEntity
  8
0_wire
  6
ByLayer
 62
  256
370
   -1
100
AcDbCircle
 10
-10.15999999999946
 20
-10.1600000000001
 40
0.4
  0
CIRCLE
  5
183
100
AcDbEntity
  8
0_wire
  6
ByLayer
 62
  256
370
   -1
100
AcDbCircle
 10
-7.619999999999582
 20
-10.1600000000001
 40
0.4
  0
LINE
  5
184
100
AcDbEntity
  8
0_wire
  6
ByLayer
 62
  256
370
   -1
100
AcDbLine
 10
-7.61999999999956
 20
-20.32000000000019
 11
-10.15999999999944
 21
-20.32000000000019
  0
LINE
  5
185
100
AcDbEntity
  8
0_wire
  6
ByLayer
 62
  256
370
   -1
100
AcDbLine
 10
-10.15999999999944
 20
-20.32000000000019
 11
-10.15999999999942
 21
-22.8600000000002
  0
LINE
  5
186
100
AcDbEntity
  8
5V line
  6
DOTTINY
 62
  256
370
   50
100
AcDbLine
 10
-22.85999999999883
 20
-17.7800000000002
 11
-22.85999999999883
 21
-20.32000000000019
  0
LINE
  5
187
100
AcDbEntity
  8
5V line
  6
DOTTINY
 62
  256
370
   50
100
AcDbLine
 10
-22.85999999999883
 20
-20.32000000000019
 11
-22.85999999999882
 21
-22.8600000000002
  0
CIRCLE
  5
188
100
AcDbEntity
  8
0_GND
  6
ByLayer
 62
  256
370
   -1
100
AcDbCircle
 10
-20.31999999999894
 20
-22.8600000000002
 40
0.4
  0
LWPOLYLINE
  5
189
100
AcDbEntity
  8
resister
  6
DOTTINY
 62
  256
370
   -1
100
AcDbPolyline
 90
    5
 70
    0
 43
0
 10
-20.31999999999895
 20
-17.7800000000002
 10
-19.81229768204033
 20
-18.5527566075767
 10
-19.75506391415996
 20
-22.35880217162199
 10
-15.89178458223426
 20
-22.3015684037416
 10
-15.23999999999918
 20
-22.8600000000002
  0
LINE
  5
18A
100
AcDbEntity
  8
universal_board
  6
ByLayer
 62
  256
370
   -1
100
AcDbLine
 10
-26.66999999999856
 20
-24.13000000000049
 11
-6.349999999999412
 21
-24.13000000000049
  0
LINE
  5
18B
100
AcDbEntity
  8
universal_board
  6
ByLayer
 62
  256
370
   -1
100
AcDbLine
 10
-26.66999999999856
 20
1.269999999999811
 11
-26.66999999999856
 21
-24.13000000000049
  0
LINE
  5
18C
100
AcDbEntity
  8
universal_board
  6
ByLayer
 62
  256
370
   -1
100
AcDbLine
 10
-6.349999999999532
 20
1.269999999999811
 11
-6.349999999999532
 21
-24.13000000000049
  0
LINE
  5
18D
100
AcDbEntity
  8
universal_board
  6
ByLayer
 62
  256
370
   -1
100
AcDbLine
 10
-26.66999999999857
 20
1.269999999999811
 11
-6.349999999999532
 21
1.269999999999811
  0
LINE
  5
18E
100
AcDbEntity
  8
condenser
  6
ByLayer
 62
  256
370
   -1
100
AcDbLine
 10
-6.469999999998272
 20
-6.92999999999769
 11
-6.469999999998272
 21
-3.229999999997887
  0
LINE
  5
18F
100
AcDbEntity
  8
condenser
  6
ByLayer
 62
  256
370
   -1
100
AcDbLine
 10
-6.469999999998272
 20
-3.229999999997887
 11
-8.770000000000923
 21
-3.229999999997887
  0
LINE
  5
190
100
AcDbEntity
  8
condenser
  6
ByLayer
 62
  256
370
   -1
100
AcDbLine
 10
-8.770000000000923
 20
-3.229999999997887
 11
-8.770000000000923
 21
-6.92999999999769
  0
LINE
  5
191
100
AcDbEntity
  8
condenser
  6
ByLayer
 62
  256
370
   -1
100
AcDbLine
 10
-8.770000000000923
 20
-6.92999999999769
 11
-6.469999999998272
 21
-6.92999999999769
  0
LINE
  5
192
100
AcDbEntity
  8
condenser
  6
ByLayer
 62
  256
370
   -1
100
AcDbLine
 10
-7.619999999999592
 20
-3.229999999997887
 11
-7.619999999999592
 21
-2.540000000000092
  0
LINE
  5
193
100
AcDbEntity
  8
condenser
  6
ByLayer
 62
  256
370
   -1
100
AcDbLine
 10
-7.619999999999582
 20
-7.62000000000009
 11
-7.619999999999582
 21
-6.92999999999769
  0
LINE
  5
194
100
AcDbEntity
  8
resister
  6
DOTTINY
 62
  256
370
   15
100
AcDbLine
 10
-10.15999999999594
 20
-5.080000000000794
 11
-10.48999999999594
 21
-2.380000000000791
  0
CIRCLE
  5
195
100
AcDbEntity
  8
3.3V line
  6
ByLayer
 62
  256
370
   -1
100
AcDbCircle
 10
-15.23999999999922
 20
-10.1600000000001
 40
0.4
  0
CIRCLE
  5
196
100
AcDbEntity
  8
3.3V line
  6
ByLayer
 62
  256
370
   -1
100
AcDbCircle
 10
-7.619999999999582
 20
-7.62000000000009
 40
0.4
  0
LWPOLYLINE
  5
197
100
AcDbEntity
  8
resister
  6
DOTTINY
 62
  256
370
   -1
100
AcDbPolyline
 90
    5
 70
    0
 43
0
 10
-15.23999999999922
 20
-10.1600000000001
 10
-14.60402480492557
 20
-9.309503094894794
 10
-8.279693454143501
 20
-9.252269327014488
 10
-8.422777873844453
 20
-7.73557447818439
 10
-7.619999999999582
 20
-7.62000000000009
  0
LINE
  5
198
100
AcDbEntity
  8
0_GND
  6
ByLayer
 62
  256
370
   -1
100
AcDbLine
 10
-7.619999999999614
 20
-2.540000000000092
 11
-7.619999999999614
 21
0
  0
LINE
  5
199
100
AcDbEntity
  8
0_GND
  6
ByLayer
 62
  256
370
   -1
100
AcDbLine
 10
-7.619999999999614
 20
0
 11
-17.77999999999912
 21
0
  0
LINE
  5
19A
100
AcDbEntity
  8
0_GND
  6
ByLayer
 62
  256
370
   -1
100
AcDbLine
 10
-17.77999999999912
 20
0
 11
-17.76000000000055
 21
-5.079999999999998
  0
MTEXT
  5
19B
100
AcDbEntity
  8
condenser
  6
ByLayer
 62
  256
370
   -1
100
AcDbMText
 10
-8.553166560340991
 20
-4.153527177974894
 30
0
 40
1
 41
1.222222222222222
 71
    4
 72
    1
  1
C2
  7
unicode
210
0
220
0
230
1
 50
0
 73
    2
 44
1.54
  0
MTEXT
  5
19C
100
AcDbEntity
  8
socket_header
  6
ByLayer
 62
  256
370
   -1
100
AcDbMText
 10
-16.38104865235075
 20
-25.75280395084839
 30
0
 40
1
 41
2.126666666666666
 71
    4
 72
    1
  1
5V\PGND\P\PCLK\PDAT\PSS
  7
kst32b
210
0
220
0
230
1
 50
90
 73
    2
 44
1.54
  0
CIRCLE
  5
19D
100
AcDbEntity
  8
0_wire
  6
ByLayer
 62
  256
370
   -1
100
AcDbCircle
 10
-15.23999999999922
 20
-7.62000000000009
 40
0.4
  0
LWPOLYLINE
  5
19E
100
AcDbEntity
  8
resister
  6
DOTTINY
 62
  256
370
   -1
100
AcDbPolyline
 90
    5
 70
    0
 43
0
 10
-15.23999999999922
 20
-7.62000000000009
 10
-15.61732081983903
 20
-8.1096407923459
 10
-15.63444384454955
 20
-9.479482769187896
 10
-17.24400816733898
 20
-9.565097892740596
 10
-17.77999999999909
 20
-10.1600000000001
  0
LWPOLYLINE
  5
19F
100
AcDbEntity
  8
resister
  6
DOTTINY
 62
  256
370
   -1
100
AcDbPolyline
 90
    4
 70
    0
 43
0
 10
-25.39999999999871
 20
-20.32000000000019
 10
-24.99195367521446
 20
-21.50029565341512
 10
-21.04282369146815
 20
-21.41444500159456
 10
-20.31999999999894
 20
-22.8600000000002
  0
MTEXT
  5
1A0
100
AcDbEntity
  8
universal_board
  6
ByLayer
 62
  256
370
   -1
100
AcDbMText
 10
-26.10100449913187
 20
-1.225434762569973
 30
0
 40
1
 41
1.202222222222222
 71
    4
 72
    1
  1
B1
  7
kst32b
210
0
220
0
230
1
 50
0
 73
    2
 44
1.54
  0
MTEXT
  5
1A1
100
AcDbEntity
  8
micon
  6
ByLayer
 62
  256
370
   -1
100
AcDbMText
 10
-23.35352907735893
 20
-14.00739768464596
 30
0
 40
1
 41
1.111111111111111
 71
    4
 72
    1
  1
U1
  7
iso
210
0
220
0
230
1
 50
0
 73
    2
 44
1.54
  0
MTEXT
  5
1A2
100
AcDbEntity
  8
socket_header
  6
ByLayer
 62
  256
370
   -1
100
AcDbMText
 10
-7.225373582721414
 20
-9.255200370966238
 30
0
 40
1
 41
1.166666666666667
 71
    4
 72
    1
  1
S1
  7
kst32b
210
0
220
0
230
1
 50
0
 73
    2
 44
1.54
  0
LINE
  5
1A3
100
AcDbEntity
  8
socket_header
  6
DOTTINY
 62
  256
370
   -1
100
AcDbLine
 10
-19.05000000000035
 20
-21.5900000000008
 11
-16.51000000000048
 21
-21.5900000000008
  0
LINE
  5
1A4
100
AcDbEntity
  8
socket_header
  6
DOTTINY
 62
  256
370
   -1
100
AcDbLine
 10
-16.51000000000048
 20
-24.13000000000079
 11
-19.05000000000035
 21
-24.13000000000079
  0
LINE
  5
1A5
100
AcDbEntity
  8
socket_header
  6
ByLayer
 62
  256
370
   -1
100
AcDbLine
 10
-24.13000000000016
 20
-11.43000000000069
 11
-24.13000000000013
 21
-16.51000000000079
  0
LINE
  5
1A6
100
AcDbEntity
  8
socket_header
  6
ByLayer
 62
  256
370
   -1
100
AcDbLine
 10
-6.350000000000982
 20
-16.51000000000079
 11
-6.350000000001014
 21
-11.43000000000069
  0
MTEXT
  5
1A7
100
AcDbEntity
  8
socket_header
  6
ByLayer
 62
  256
370
   -1
100
AcDbMText
 10
-9.735686606212441
 20
-20.9688195203185
 30
0
 40
1
 41
1.271111111111111
 71
    4
 72
    1
  1
S2
  7
kst32b
210
0
220
0
230
1
 50
0
 73
    2
 44
1.54
  0
MTEXT
  5
1A8
100
AcDbEntity
  8
0
  6
ByLayer
 62
  256
370
   -1
100
AcDbMText
 10
-23.97205398959602
 20
10.59059957715366
 30
0
 40
1
 41
9.244444444444444
 71
    4
 72
    1
  1
参考\Pp-p-prog v2.0
  7
kst32b
210
0
220
0
230
1
 50
0
 73
    2
 44
1
  0
CIRCLE
  5
1A9
100
AcDbEntity
  8
universal_board
  6
ByLayer
 62
  256
370
   -1
100
AcDbCircle
 10
4.973799150320701e-14
 20
-20.32000000000019
 40
0.5
  0
CIRCLE
  5
1AA
100
AcDbEntity
  8
universal_board
  6
ByLayer
 62
  256
370
   -1
100
AcDbCircle
 10
4.973799150320701e-14
 20
-17.7800000000002
 40
0.5
  0
CIRCLE
  5
1AB
100
AcDbEntity
  8
universal_board
  6
ByLayer
 62
  256
370
   -1
100
AcDbCircle
 10
4.973799150320701e-14
 20
-15.24000000000019
 40
0.5
  0
CIRCLE
  5
1AC
100
AcDbEntity
  8
universal_board
  6
ByLayer
 62
  256
370
   -1
100
AcDbCircle
 10
4.973799150320701e-14
 20
-12.70000000000019
 40
0.5
  0
CIRCLE
  5
1AD
100
AcDbEntity
  8
universal_board
  6
ByLayer
 62
  256
370
   -1
100
AcDbCircle
 10
3.552713678800501e-14
 20
-10.1600000000001
 40
0.5
  0
CIRCLE
  5
1AE
100
AcDbEntity
  8
universal_board
  6
ByLayer
 62
  256
370
   -1
100
AcDbCircle
 10
3.552713678800501e-14
 20
-7.62000000000009
 40
0.5
  0
CIRCLE
  5
1AF
100
AcDbEntity
  8
universal_board
  6
ByLayer
 62
  256
370
   -1
100
AcDbCircle
 10
7.105427357601002e-15
 20
-5.080000000000098
 40
0.5
  0
CIRCLE
  5
1B0
100
AcDbEntity
  8
universal_board
  6
ByLayer
 62
  256
370
   -1
100
AcDbCircle
 10
0
 20
-2.540000000000092
 40
0.5
  0
CIRCLE
  5
1B1
100
AcDbEntity
  8
universal_board
  6
ByLayer
 62
  256
370
   -1
100
AcDbCircle
 10
0
 20
0
 40
0.5
  0
CIRCLE
  5
1B2
100
AcDbEntity
  8
universal_board
  6
ByLayer
 62
  256
370
   -1
100
AcDbCircle
 10
2.539999999999928
 20
-20.32000000000019
 40
0.5
  0
CIRCLE
  5
1B3
100
AcDbEntity
  8
universal_board
  6
ByLayer
 62
  256
370
   -1
100
AcDbCircle
 10
2.539999999999928
 20
-17.7800000000002
 40
0.5
  0
CIRCLE
  5
1B4
100
AcDbEntity
  8
universal_board
  6
ByLayer
 62
  256
370
   -1
100
AcDbCircle
 10
2.539999999999928
 20
-15.24000000000019
 40
0.5
  0
CIRCLE
  5
1B5
100
AcDbEntity
  8
universal_board
  6
ByLayer
 62
  256
370
   -1
100
AcDbCircle
 10
2.539999999999914
 20
-12.70000000000019
 40
0.5
  0
CIRCLE
  5
1B6
100
AcDbEntity
  8
universal_board
  6
ByLayer
 62
  256
370
   -1
100
AcDbCircle
 10
2.5399999999999
 20
-10.1600000000001
 40
0.5
  0
CIRCLE
  5
1B7
100
AcDbEntity
  8
universal_board
  6
ByLayer
 62
  256
370
   -1
100
AcDbCircle
 10
2.5399999999999
 20
-7.62000000000009
 40
0.5
  0
CIRCLE
  5
1B8
100
AcDbEntity
  8
universal_board
  6
ByLayer
 62
  256
370
   -1
100
AcDbCircle
 10
2.539999999999885
 20
-5.080000000000098
 40
0.5
  0
CIRCLE
  5
1B9
100
AcDbEntity
  8
universal_board
  6
ByLayer
 62
  256
370
   -1
100
AcDbCircle
 10
2.539999999999864
 20
-2.540000000000092
 40
0.5
  0
CIRCLE
  5
1BA
100
AcDbEntity
  8
universal_board
  6
ByLayer
 62
  256
370
   -1
100
AcDbCircle
 10
2.539999999999864
 20
0
 40
0.5
  0
CIRCLE
  5
1BB
100
AcDbEntity
  8
universal_board
  6
ByLayer
 62
  256
370
   -1
100
AcDbCircle
 10
5.079999999999799
 20
-20.32000000000019
 40
0.5
  0
CIRCLE
  5
1BC
100
AcDbEntity
  8
universal_board
  6
ByLayer
 62
  256
370
   -1
100
AcDbCircle
 10
5.079999999999799
 20
-17.7800000000002
 40
0.5
  0
CIRCLE
  5
1BD
100
AcDbEntity
  8
universal_board
  6
ByLayer
 62
  256
370
   -1
100
AcDbCircle
 10
5.079999999999799
 20
-15.24000000000019
 40
0.5
  0
CIRCLE
  5
1BE
100
AcDbEntity
  8
universal_board
  6
ByLayer
 62
  256
370
   -1
100
AcDbCircle
 10
5.079999999999785
 20
-12.70000000000019
 40
0.5
  0
CIRCLE
  5
1BF
100
AcDbEntity
  8
universal_board
  6
ByLayer
 62
  256
370
   -1
100
AcDbCircle
 10
5.079999999999778
 20
-10.1600000000001
 40
0.5
  0
CIRCLE
  5
1C0
100
AcDbEntity
  8
universal_board
  6
ByLayer
 62
  256
370
   -1
100
AcDbCircle
 10
5.079999999999778
 20
-7.62000000000009
 40
0.5
  0
CIRCLE
  5
1C1
100
AcDbEntity
  8
universal_board
  6
ByLayer
 62
  256
370
   -1
100
AcDbCircle
 10
5.07999999999975
 20
-5.080000000000098
 40
0.5
  0
CIRCLE
  5
1C2
100
AcDbEntity
  8
universal_board
  6
ByLayer
 62
  256
370
   -1
100
AcDbCircle
 10
5.07999999999975
 20
-2.540000000000092
 40
0.5
  0
CIRCLE
  5
1C3
100
AcDbEntity
  8
universal_board
  6
ByLayer
 62
  256
370
   -1
100
AcDbCircle
 10
5.07999999999975
 20
0
 40
0.5
  0
CIRCLE
  5
1C4
100
AcDbEntity
  8
universal_board
  6
ByLayer
 62
  256
370
   -1
100
AcDbCircle
 10
7.619999999999663
 20
-20.32000000000019
 40
0.5
  0
CIRCLE
  5
1C5
100
AcDbEntity
  8
universal_board
  6
ByLayer
 62
  256
370
   -1
100
AcDbCircle
 10
7.619999999999663
 20
-17.7800000000002
 40
0.5
  0
CIRCLE
  5
1C6
100
AcDbEntity
  8
universal_board
  6
ByLayer
 62
  256
370
   -1
100
AcDbCircle
 10
7.619999999999663
 20
-15.24000000000019
 40
0.5
  0
CIRCLE
  5
1C7
100
AcDbEntity
  8
universal_board
  6
ByLayer
 62
  256
370
   -1
100
AcDbCircle
 10
7.619999999999656
 20
-12.70000000000019
 40
0.5
  0
CIRCLE
  5
1C8
100
AcDbEntity
  8
universal_board
  6
ByLayer
 62
  256
370
   -1
100
AcDbCircle
 10
7.619999999999649
 20
-10.1600000000001
 40
0.5
  0
CIRCLE
  5
1C9
100
AcDbEntity
  8
universal_board
  6
ByLayer
 62
  256
370
   -1
100
AcDbCircle
 10
7.619999999999649
 20
-7.62000000000009
 40
0.5
  0
CIRCLE
  5
1CA
100
AcDbEntity
  8
universal_board
  6
ByLayer
 62
  256
370
   -1
100
AcDbCircle
 10
7.619999999999614
 20
-5.080000000000098
 40
0.5
  0
CIRCLE
  5
1CB
100
AcDbEntity
  8
universal_board
  6
ByLayer
 62
  256
370
   -1
100
AcDbCircle
 10
7.619999999999614
 20
-2.540000000000092
 40
0.5
  0
CIRCLE
  5
1CC
100
AcDbEntity
  8
universal_board
  6
ByLayer
 62
  256
370
   -1
100
AcDbCircle
 10
7.619999999999614
 20
0
 40
0.5
  0
CIRCLE
  5
1CD
100
AcDbEntity
  8
universal_board
  6
ByLayer
 62
  256
370
   -1
100
AcDbCircle
 10
10.15999999999953
 20
-20.32000000000019
 40
0.5
  0
CIRCLE
  5
1CE
100
AcDbEntity
  8
universal_board
  6
ByLayer
 62
  256
370
   -1
100
AcDbCircle
 10
10.15999999999953
 20
-17.7800000000002
 40
0.5
  0
CIRCLE
  5
1CF
100
AcDbEntity
  8
universal_board
  6
ByLayer
 62
  256
370
   -1
100
AcDbCircle
 10
10.15999999999953
 20
-15.24000000000019
 40
0.5
  0
CIRCLE
  5
1D0
100
AcDbEntity
  8
universal_board
  6
ByLayer
 62
  256
370
   -1
100
AcDbCircle
 10
10.15999999999952
 20
-12.70000000000019
 40
0.5
  0
CIRCLE
  5
1D1
100
AcDbEntity
  8
universal_board
  6
ByLayer
 62
  256
370
   -1
100
AcDbCircle
 10
10.15999999999951
 20
-10.1600000000001
 40
0.5
  0
CIRCLE
  5
1D2
100
AcDbEntity
  8
universal_board
  6
ByLayer
 62
  256
370
   -1
100
AcDbCircle
 10
10.15999999999951
 20
-7.62000000000009
 40
0.5
  0
CIRCLE
  5
1D3
100
AcDbEntity
  8
universal_board
  6
ByLayer
 62
  256
370
   -1
100
AcDbCircle
 10
10.1599999999995
 20
-5.080000000000098
 40
0.5
  0
CIRCLE
  5
1D4
100
AcDbEntity
  8
universal_board
  6
ByLayer
 62
  256
370
   -1
100
AcDbCircle
 10
10.15999999999948
 20
-2.540000000000092
 40
0.5
  0
CIRCLE
  5
1D5
100
AcDbEntity
  8
universal_board
  6
ByLayer
 62
  256
370
   -1
100
AcDbCircle
 10
10.15999999999948
 20
0
 40
0.5
  0
CIRCLE
  5
1D6
100
AcDbEntity
  8
universal_board
  6
ByLayer
 62
  256
370
   -1
100
AcDbCircle
 10
12.6999999999994
 20
-20.32000000000019
 40
0.5
  0
CIRCLE
  5
1D7
100
AcDbEntity
  8
universal_board
  6
ByLayer
 62
  256
370
   -1
100
AcDbCircle
 10
12.6999999999994
 20
-17.7800000000002
 40
0.5
  0
CIRCLE
  5
1D8
100
AcDbEntity
  8
universal_board
  6
ByLayer
 62
  256
370
   -1
100
AcDbCircle
 10
12.6999999999994
 20
-15.24000000000019
 40
0.5
  0
CIRCLE
  5
1D9
100
AcDbEntity
  8
universal_board
  6
ByLayer
 62
  256
370
   -1
100
AcDbCircle
 10
12.69999999999938
 20
-12.70000000000019
 40
0.5
  0
CIRCLE
  5
1DA
100
AcDbEntity
  8
universal_board
  6
ByLayer
 62
  256
370
   -1
100
AcDbCircle
 10
12.69999999999938
 20
-10.1600000000001
 40
0.5
  0
CIRCLE
  5
1DB
100
AcDbEntity
  8
universal_board
  6
ByLayer
 62
  256
370
   -1
100
AcDbCircle
 10
12.69999999999938
 20
-7.62000000000009
 40
0.5
  0
CIRCLE
  5
1DC
100
AcDbEntity
  8
universal_board
  6
ByLayer
 62
  256
370
   -1
100
AcDbCircle
 10
12.69999999999936
 20
-5.080000000000098
 40
0.5
  0
CIRCLE
  5
1DD
100
AcDbEntity
  8
universal_board
  6
ByLayer
 62
  256
370
   -1
100
AcDbCircle
 10
12.69999999999935
 20
-2.540000000000092
 40
0.5
  0
CIRCLE
  5
1DE
100
AcDbEntity
  8
universal_board
  6
ByLayer
 62
  256
370
   -1
100
AcDbCircle
 10
12.69999999999935
 20
0
 40
0.5
  0
CIRCLE
  5
1DF
100
AcDbEntity
  8
universal_board
  6
ByLayer
 62
  256
370
   -1
100
AcDbCircle
 10
15.23999999999928
 20
-20.32000000000019
 40
0.5
  0
CIRCLE
  5
1E0
100
AcDbEntity
  8
universal_board
  6
ByLayer
 62
  256
370
   -1
100
AcDbCircle
 10
15.23999999999928
 20
-17.7800000000002
 40
0.5
  0
CIRCLE
  5
1E1
100
AcDbEntity
  8
universal_board
  6
ByLayer
 62
  256
370
   -1
100
AcDbCircle
 10
15.23999999999928
 20
-15.24000000000019
 40
0.5
  0
CIRCLE
  5
1E2
100
AcDbEntity
  8
universal_board
  6
ByLayer
 62
  256
370
   -1
100
AcDbCircle
 10
15.23999999999927
 20
-12.70000000000019
 40
0.5
  0
CIRCLE
  5
1E3
100
AcDbEntity
  8
universal_board
  6
ByLayer
 62
  256
370
   -1
100
AcDbCircle
 10
15.23999999999925
 20
-10.1600000000001
 40
0.5
  0
CIRCLE
  5
1E4
100
AcDbEntity
  8
universal_board
  6
ByLayer
 62
  256
370
   -1
100
AcDbCircle
 10
15.23999999999925
 20
-7.62000000000009
 40
0.5
  0
CIRCLE
  5
1E5
100
AcDbEntity
  8
universal_board
  6
ByLayer
 62
  256
370
   -1
100
AcDbCircle
 10
15.23999999999923
 20
-5.080000000000098
 40
0.5
  0
CIRCLE
  5
1E6
100
AcDbEntity
  8
universal_board
  6
ByLayer
 62
  256
370
   -1
100
AcDbCircle
 10
15.23999999999922
 20
-2.540000000000092
 40
0.5
  0
CIRCLE
  5
1E7
100
AcDbEntity
  8
universal_board
  6
ByLayer
 62
  256
370
   -1
100
AcDbCircle
 10
15.23999999999922
 20
0
 40
0.5
  0
CIRCLE
  5
1E8
100
AcDbEntity
  8
universal_board
  6
ByLayer
 62
  256
370
   -1
100
AcDbCircle
 10
17.77999999999913
 20
-20.32000000000019
 40
0.5
  0
CIRCLE
  5
1E9
100
AcDbEntity
  8
universal_board
  6
ByLayer
 62
  256
370
   -1
100
AcDbCircle
 10
17.77999999999913
 20
-17.7800000000002
 40
0.5
  0
CIRCLE
  5
1EA
100
AcDbEntity
  8
universal_board
  6
ByLayer
 62
  256
370
   -1
100
AcDbCircle
 10
17.77999999999913
 20
-15.24000000000019
 40
0.5
  0
CIRCLE
  5
1EB
100
AcDbEntity
  8
universal_board
  6
ByLayer
 62
  256
370
   -1
100
AcDbCircle
 10
17.77999999999913
 20
-12.70000000000019
 40
0.5
  0
CIRCLE
  5
1EC
100
AcDbEntity
  8
universal_board
  6
ByLayer
 62
  256
370
   -1
100
AcDbCircle
 10
17.77999999999912
 20
-10.1600000000001
 40
0.5
  0
CIRCLE
  5
1ED
100
AcDbEntity
  8
universal_board
  6
ByLayer
 62
  256
370
   -1
100
AcDbCircle
 10
17.77999999999912
 20
-7.62000000000009
 40
0.5
  0
CIRCLE
  5
1EE
100
AcDbEntity
  8
universal_board
  6
ByLayer
 62
  256
370
   -1
100
AcDbCircle
 10
17.7799999999991
 20
-5.080000000000098
 40
0.5
  0
CIRCLE
  5
1EF
100
AcDbEntity
  8
universal_board
  6
ByLayer
 62
  256
370
   -1
100
AcDbCircle
 10
17.77999999999908
 20
-2.540000000000092
 40
0.5
  0
CIRCLE
  5
1F0
100
AcDbEntity
  8
universal_board
  6
ByLayer
 62
  256
370
   -1
100
AcDbCircle
 10
17.77999999999908
 20
0
 40
0.5
  0
CIRCLE
  5
1F1
100
AcDbEntity
  8
universal_board
  6
ByLayer
 62
  256
370
   -1
100
AcDbCircle
 10
2.539999999999949
 20
-30.48000000000023
 40
0.5
  0
CIRCLE
  5
1F2
100
AcDbEntity
  8
universal_board
  6
ByLayer
 62
  256
370
   -1
100
AcDbCircle
 10
5.079999999999828
 20
-30.48000000000023
 40
0.5
  0
CIRCLE
  5
1F3
100
AcDbEntity
  8
universal_board
  6
ByLayer
 62
  256
370
   -1
100
AcDbCircle
 10
7.619999999999685
 20
-30.48000000000023
 40
0.5
  0
CIRCLE
  5
1F4
100
AcDbEntity
  8
universal_board
  6
ByLayer
 62
  256
370
   -1
100
AcDbCircle
 10
10.15999999999956
 20
-30.48000000000023
 40
0.5
  0
CIRCLE
  5
1F5
100
AcDbEntity
  8
universal_board
  6
ByLayer
 62
  256
370
   -1
100
AcDbCircle
 10
12.69999999999943
 20
-30.48000000000023
 40
0.5
  0
CIRCLE
  5
1F6
100
AcDbEntity
  8
universal_board
  6
ByLayer
 62
  256
370
   -1
100
AcDbCircle
 10
15.2399999999993
 20
-30.48000000000023
 40
0.5
  0
CIRCLE
  5
1F7
100
AcDbEntity
  8
universal_board
  6
ByLayer
 62
  256
370
   -1
100
AcDbCircle
 10
2.539999999999957
 20
-33.02000000000024
 40
0.5
  0
CIRCLE
  5
1F8
100
AcDbEntity
  8
universal_board
  6
ByLayer
 62
  256
370
   -1
100
AcDbCircle
 10
5.079999999999835
 20
-33.02000000000024
 40
0.5
  0
CIRCLE
  5
1F9
100
AcDbEntity
  8
universal_board
  6
ByLayer
 62
  256
370
   -1
100
AcDbCircle
 10
7.619999999999699
 20
-33.02000000000024
 40
0.5
  0
CIRCLE
  5
1FA
100
AcDbEntity
  8
universal_board
  6
ByLayer
 62
  256
370
   -1
100
AcDbCircle
 10
10.15999999999957
 20
-33.02000000000024
 40
0.5
  0
CIRCLE
  5
1FB
100
AcDbEntity
  8
universal_board
  6
ByLayer
 62
  256
370
   -1
100
AcDbCircle
 10
12.69999999999943
 20
-33.02000000000024
 40
0.5
  0
CIRCLE
  5
1FC
100
AcDbEntity
  8
universal_board
  6
ByLayer
 62
  256
370
   -1
100
AcDbCircle
 10
15.23999999999931
 20
-33.02000000000024
 40
0.5
  0
CIRCLE
  5
1FD
100
AcDbEntity
  8
universal_board
  6
ByLayer
 62
  256
370
   -1
100
AcDbCircle
 10
2.539999999999964
 20
-35.56000000000024
 40
0.5
  0
CIRCLE
  5
1FE
100
AcDbEntity
  8
universal_board
  6
ByLayer
 62
  256
370
   -1
100
AcDbCircle
 10
5.079999999999835
 20
-35.56000000000024
 40
0.5
  0
CIRCLE
  5
1FF
100
AcDbEntity
  8
universal_board
  6
ByLayer
 62
  256
370
   -1
100
AcDbCircle
 10
7.619999999999706
 20
-35.56000000000024
 40
0.5
  0
CIRCLE
  5
200
100
AcDbEntity
  8
universal_board
  6
ByLayer
 62
  256
370
   -1
100
AcDbCircle
 10
10.15999999999957
 20
-35.56000000000024
 40
0.5
  0
CIRCLE
  5
201
100
AcDbEntity
  8
universal_board
  6
ByLayer
 62
  256
370
   -1
100
AcDbCircle
 10
12.69999999999945
 20
-35.56000000000024
 40
0.5
  0
CIRCLE
  5
202
100
AcDbEntity
  8
universal_board
  6
ByLayer
 62
  256
370
   -1
100
AcDbCircle
 10
15.23999999999932
 20
-35.56000000000024
 40
0.5
  0
LINE
  5
203
100
AcDbEntity
  8
socket_header
  6
ByLayer
 62
  256
370
   -1
100
AcDbLine
 10
1.269999999998568
 20
1.269999999999399
 11
1.269999999998568
 21
-1.270000000000593
  0
LINE
  5
204
100
AcDbEntity
  8
socket_header
  6
ByLayer
 62
  256
370
   -1
100
AcDbLine
 10
1.269999999998568
 20
-1.270000000000593
 11
3.809999999998446
 21
-1.270000000000593
  0
LINE
  5
205
100
AcDbEntity
  8
socket_header
  6
ByLayer
 62
  256
370
   -1
100
AcDbLine
 10
1.269999999998568
 20
1.269999999999399
 11
3.809999999998446
 21
1.269999999999399
  0
LINE
  5
206
100
AcDbEntity
  8
socket_header
  6
ByLayer
 62
  256
370
   -1
100
AcDbLine
 10
3.809999999998446
 20
1.269999999999399
 11
3.809999999998446
 21
-1.270000000000593
  0
LINE
  5
207
100
AcDbEntity
  8
socket_header
  6
ByLayer
 62
  256
370
   -1
100
AcDbLine
 10
3.809999999998446
 20
1.269999999999399
 11
3.809999999998446
 21
-1.270000000000593
  0
LINE
  5
208
100
AcDbEntity
  8
socket_header
  6
ByLayer
 62
  256
370
   -1
100
AcDbLine
 10
3.809999999998446
 20
-1.270000000000593
 11
6.349999999998339
 21
-1.270000000000593
  0
LINE
  5
209
100
AcDbEntity
  8
socket_header
  6
ByLayer
 62
  256
370
   -1
100
AcDbLine
 10
3.809999999998446
 20
1.269999999999399
 11
6.349999999998339
 21
1.269999999999399
  0
LINE
  5
20A
100
AcDbEntity
  8
socket_header
  6
ByLayer
 62
  256
370
   -1
100
AcDbLine
 10
6.349999999998325
 20
1.269999999999399
 11
6.349999999998325
 21
-1.270000000000593
  0
LINE
  5
20B
100
AcDbEntity
  8
socket_header
  6
ByLayer
 62
  256
370
   -1
100
AcDbLine
 10
8.88999999999821
 20
1.269999999999399
 11
8.88999999999821
 21
-1.270000000000593
  0
LINE
  5
20C
100
AcDbEntity
  8
socket_header
  6
ByLayer
 62
  256
370
   -1
100
AcDbLine
 10
8.88999999999821
 20
-1.270000000000593
 11
11.42999999999809
 21
-1.270000000000593
  0
LINE
  5
20D
100
AcDbEntity
  8
socket_header
  6
ByLayer
 62
  256
370
   -1
100
AcDbLine
 10
8.88999999999821
 20
1.269999999999399
 11
11.42999999999809
 21
1.269999999999399
  0
LINE
  5
20E
100
AcDbEntity
  8
socket_header
  6
ByLayer
 62
  256
370
   -1
100
AcDbLine
 10
11.42999999999807
 20
1.269999999999399
 11
11.42999999999807
 21
-1.270000000000593
  0
LINE
  5
20F
100
AcDbEntity
  8
socket_header
  6
ByLayer
 62
  256
370
   -1
100
AcDbLine
 10
11.42999999999807
 20
1.269999999999399
 11
11.42999999999807
 21
-1.270000000000593
  0
LINE
  5
210
100
AcDbEntity
  8
socket_header
  6
ByLayer
 62
  256
370
   -1
100
AcDbLine
 10
11.42999999999807
 20
-1.270000000000593
 11
13.96999999999797
 21
-1.270000000000593
  0
LINE
  5
211
100
AcDbEntity
  8
socket_header
  6
ByLayer
 62
  256
370
   -1
100
AcDbLine
 10
11.42999999999807
 20
1.269999999999399
 11
13.96999999999797
 21
1.269999999999399
  0
LINE
  5
212
100
AcDbEntity
  8
socket_header
  6
ByLayer
 62
  256
370
   -1
100
AcDbLine
 10
13.96999999999796
 20
1.269999999999399
 11
13.96999999999796
 21
-1.270000000000593
  0
LINE
  5
213
100
AcDbEntity
  8
socket_header
  6
ByLayer
 62
  256
370
   -1
100
AcDbLine
 10
13.96999999999796
 20
1.269999999999399
 11
13.96999999999796
 21
-1.270000000000593
  0
LINE
  5
214
100
AcDbEntity
  8
socket_header
  6
ByLayer
 62
  256
370
   -1
100
AcDbLine
 10
13.96999999999796
 20
-1.270000000000593
 11
16.50999999999786
 21
-1.270000000000593
  0
LINE
  5
215
100
AcDbEntity
  8
socket_header
  6
ByLayer
 62
  256
370
   -1
100
AcDbLine
 10
13.96999999999796
 20
1.269999999999399
 11
16.50999999999786
 21
1.269999999999399
  0
LINE
  5
216
100
AcDbEntity
  8
socket_header
  6
ByLayer
 62
  256
370
   -1
100
AcDbLine
 10
16.50999999999784
 20
1.269999999999399
 11
16.50999999999784
 21
-1.270000000000593
  0
LINE
  5
217
100
AcDbEntity
  8
socket_header
  6
DOTTINY
 62
  256
370
   -1
100
AcDbLine
 10
6.349999999998339
 20
1.269999999999399
 11
8.88999999999821
 21
1.269999999999399
  0
LINE
  5
218
100
AcDbEntity
  8
socket_header
  6
DOTTINY
 62
  256
370
   -1
100
AcDbLine
 10
8.88999999999821
 20
-1.270000000000593
 11
6.349999999998339
 21
-1.270000000000593
  0
LINE
  5
219
100
AcDbEntity
  8
micon
  6
ByLayer
 62
  256
370
   -1
100
AcDbLine
 10
12.06499999999755
 20
-3.174999999999528
 11
12.06499999999755
 21
-22.22499999999985
  0
LINE
  5
21A
100
AcDbEntity
  8
micon
  6
ByLayer
 62
  256
370
   -1
100
AcDbLine
 10
5.714999999997346
 20
-22.22499999999985
 11
5.714999999997346
 21
-3.174999999999526
  0
LINE
  5
21B
100
AcDbEntity
  8
micon
  6
ByLayer
 62
  256
370
   -1
100
AcDbLine
 10
5.079999999999345
 20
-7.619999999999619
 11
5.714999999997346
 21
-7.619999999999619
  0
LINE
  5
21C
100
AcDbEntity
  8
micon
  6
ByLayer
 62
  256
370
   -1
100
AcDbLine
 10
5.079999999999345
 20
-10.15999999999964
 11
5.714999999997346
 21
-10.15999999999964
  0
LINE
  5
21D
100
AcDbEntity
  8
micon
  6
ByLayer
 62
  256
370
   -1
100
AcDbLine
 10
5.079999999999345
 20
-12.69999999999972
 11
5.714999999997346
 21
-12.69999999999973
  0
LINE
  5
21E
100
AcDbEntity
  8
micon
  6
ByLayer
 62
  256
370
   -1
100
AcDbLine
 10
5.079999999999345
 20
-15.23999999999974
 11
5.714999999997346
 21
-15.23999999999974
  0
LINE
  5
21F
100
AcDbEntity
  8
micon
  6
ByLayer
 62
  256
370
   -1
100
AcDbLine
 10
5.079999999999345
 20
-17.77999999999973
 11
5.714999999997346
 21
-17.77999999999973
  0
LINE
  5
220
100
AcDbEntity
  8
micon
  6
ByLayer
 62
  256
370
   -1
100
AcDbLine
 10
5.079999999999345
 20
-20.31999999999975
 11
5.714999999997346
 21
-20.31999999999975
  0
LINE
  5
221
100
AcDbEntity
  8
micon
  6
ByLayer
 62
  256
370
   -1
100
AcDbLine
 10
12.06499999999755
 20
-20.31999999999975
 11
12.69999999999894
 21
-20.31999999999975
  0
LINE
  5
222
100
AcDbEntity
  8
micon
  6
ByLayer
 62
  256
370
   -1
100
AcDbLine
 10
12.06499999999755
 20
-17.77999999999973
 11
12.69999999999894
 21
-17.77999999999973
  0
LINE
  5
223
100
AcDbEntity
  8
micon
  6
ByLayer
 62
  256
370
   -1
100
AcDbLine
 10
12.06499999999755
 20
-15.23999999999974
 11
12.69999999999894
 21
-15.23999999999974
  0
LINE
  5
224
100
AcDbEntity
  8
micon
  6
ByLayer
 62
  256
370
   -1
100
AcDbLine
 10
12.06499999999755
 20
-12.69999999999973
 11
12.69999999999896
 21
-12.69999999999973
  0
LINE
  5
225
100
AcDbEntity
  8
micon
  6
ByLayer
 62
  256
370
   -1
100
AcDbLine
 10
12.06499999999755
 20
-10.15999999999964
 11
12.69999999999896
 21
-10.15999999999964
  0
LINE
  5
226
100
AcDbEntity
  8
micon
  6
ByLayer
 62
  256
370
   -1
100
AcDbLine
 10
12.06499999999755
 20
-7.619999999999621
 11
12.69999999999896
 21
-7.619999999999621
  0
LINE
  5
227
100
AcDbEntity
  8
micon
  6
ByLayer
 62
  256
370
   -1
100
AcDbLine
 10
12.06499999999755
 20
-5.079999999999622
 11
12.69999999999896
 21
-5.079999999999622
  0
ARC
  5
228
100
AcDbEntity
  8
micon
  6
ByLayer
 62
  256
370
   -1
100
AcDbCircle
 10
8.889999999997457
 20
-3.174999999999527
 40
1.27
100
AcDbArc
 50
179.9999999999987
 51
0
  0
LINE
  5
229
100
AcDbEntity
  8
micon
  6
ByLayer
 62
  256
370
   -1
100
AcDbLine
 10
5.714999999997346
 20
-3.174999999999526
 11
12.06499999999755
 21
-3.174999999999528
  0
LINE
  5
22A
100
AcDbEntity
  8
micon
  6
ByLayer
 62
  256
370
   -1
100
AcDbLine
 10
5.715000000000757
 20
-22.22499999999988
 11
12.06500000000074
 21
-22.22499999999988
  0
MTEXT
  5
22B
100
AcDbEntity
  8
micon
  6
ByLayer
 62
  256
370
   -1
100
AcDbMText
 10
4.507935222493046
 20
-12.41626964947224
 30
0
 40
1
 41
3.111111111111174
 71
    4
 72
    1
  1
VDD\PRA5\PRA4\PMCLR\PRC5\PRC4\PRC3
  7
iso
210
0
220
0
230
1
 50
0
 73
    2
 44
1.54
  0
MTEXT
  5
22C
100
AcDbEntity
  8
micon
  6
ByLayer
 62
  256
370
   -1
100
AcDbMText
 10
10.52515714281745
 20
-12.04625856477803
 30
0
 40
1
 41
2.333333333333519
 71
    4
 72
    1
  1
GND\PD+\PD-\P3V3\PRC0\PRC1\PRC2
  7
iso
210
0
220
0
230
1
 50
0
 73
    2
 44
1.54
  0
LINE
  5
22D
100
AcDbEntity
  8
socket_header
  6
ByLayer
 62
  256
370
   -1
100
AcDbLine
 10
13.96999999999875
 20
-3.80999999999878
 11
11.42999999999876
 21
-3.80999999999878
  0
LINE
  5
22E
100
AcDbEntity
  8
socket_header
  6
ByLayer
 62
  256
370
   -1
100
AcDbLine
 10
13.96999999999875
 20
-6.349999999998658
 11
11.42999999999876
 21
-6.349999999998658
  0
LINE
  5
22F
100
AcDbEntity
  8
socket_header
  6
ByLayer
 62
  256
370
   -1
100
AcDbLine
 10
11.42999999999876
 20
-3.80999999999878
 11
11.42999999999876
 21
-6.349999999998658
  0
LINE
  5
230
100
AcDbEntity
  8
socket_header
  6
ByLayer
 62
  256
370
   -1
100
AcDbLine
 10
13.96999999999875
 20
-3.80999999999878
 11
13.96999999999875
 21
-6.349999999998658
  0
LINE
  5
231
100
AcDbEntity
  8
socket_header
  6
ByLayer
 62
  256
370
   -1
100
AcDbLine
 10
13.96999999999875
 20
-6.349999999998658
 11
11.42999999999876
 21
-6.349999999998658
  0
LINE
  5
232
100
AcDbEntity
  8
socket_header
  6
ByLayer
 62
  256
370
   -1
100
AcDbLine
 10
13.96999999999875
 20
-8.889999999998537
 11
11.42999999999876
 21
-8.889999999998537
  0
LINE
  5
233
100
AcDbEntity
  8
socket_header
  6
ByLayer
 62
  256
370
   -1
100
AcDbLine
 10
11.42999999999876
 20
-6.349999999998658
 11
11.42999999999876
 21
-8.889999999998537
  0
LINE
  5
234
100
AcDbEntity
  8
socket_header
  6
ByLayer
 62
  256
370
   -1
100
AcDbLine
 10
13.96999999999875
 20
-6.349999999998658
 11
13.96999999999875
 21
-8.889999999998537
  0
LINE
  5
235
100
AcDbEntity
  8
socket_header
  6
ByLayer
 62
  256
370
   -1
100
AcDbLine
 10
13.96999999999875
 20
-8.889999999998537
 11
11.42999999999876
 21
-8.889999999998537
  0
LINE
  5
236
100
AcDbEntity
  8
socket_header
  6
ByLayer
 62
  256
370
   -1
100
AcDbLine
 10
13.96999999999875
 20
-11.42999999999842
 11
11.42999999999876
 21
-11.42999999999842
  0
LINE
  5
237
100
AcDbEntity
  8
socket_header
  6
ByLayer
 62
  256
370
   -1
100
AcDbLine
 10
11.42999999999876
 20
-8.889999999998537
 11
11.42999999999876
 21
-11.42999999999842
  0
LINE
  5
238
100
AcDbEntity
  8
socket_header
  6
ByLayer
 62
  256
370
   -1
100
AcDbLine
 10
13.96999999999875
 20
-8.889999999998537
 11
13.96999999999875
 21
-11.42999999999842
  0
LINE
  5
239
100
AcDbEntity
  8
socket_header
  6
ByLayer
 62
  256
370
   -1
100
AcDbLine
 10
13.96999999999875
 20
-11.4299999999984
 11
11.42999999999876
 21
-11.4299999999984
  0
LINE
  5
23A
100
AcDbEntity
  8
socket_header
  6
ByLayer
 62
  256
370
   -1
100
AcDbLine
 10
13.96999999999875
 20
-13.96999999999829
 11
11.42999999999876
 21
-13.96999999999829
  0
LINE
  5
23B
100
AcDbEntity
  8
socket_header
  6
ByLayer
 62
  256
370
   -1
100
AcDbLine
 10
11.42999999999876
 20
-11.4299999999984
 11
11.42999999999876
 21
-13.96999999999829
  0
LINE
  5
23C
100
AcDbEntity
  8
socket_header
  6
ByLayer
 62
  256
370
   -1
100
AcDbLine
 10
13.96999999999875
 20
-11.4299999999984
 11
13.96999999999875
 21
-13.96999999999829
  0
LINE
  5
23D
100
AcDbEntity
  8
socket_header
  6
ByLayer
 62
  256
370
   -1
100
AcDbLine
 10
13.96999999999875
 20
-13.96999999999829
 11
11.42999999999876
 21
-13.96999999999829
  0
LINE
  5
23E
100
AcDbEntity
  8
socket_header
  6
ByLayer
 62
  256
370
   -1
100
AcDbLine
 10
13.96999999999875
 20
-16.50999999999818
 11
11.42999999999876
 21
-16.50999999999818
  0
LINE
  5
23F
100
AcDbEntity
  8
socket_header
  6
ByLayer
 62
  256
370
   -1
100
AcDbLine
 10
11.42999999999876
 20
-13.96999999999829
 11
11.42999999999876
 21
-16.50999999999818
  0
LINE
  5
240
100
AcDbEntity
  8
socket_header
  6
ByLayer
 62
  256
370
   -1
100
AcDbLine
 10
13.96999999999875
 20
-13.96999999999829
 11
13.96999999999875
 21
-16.50999999999818
  0
LINE
  5
241
100
AcDbEntity
  8
socket_header
  6
ByLayer
 62
  256
370
   -1
100
AcDbLine
 10
13.96999999999875
 20
-16.50999999999816
 11
11.42999999999876
 21
-16.50999999999816
  0
LINE
  5
242
100
AcDbEntity
  8
socket_header
  6
ByLayer
 62
  256
370
   -1
100
AcDbLine
 10
13.96999999999875
 20
-19.04999999999806
 11
11.42999999999876
 21
-19.04999999999806
  0
LINE
  5
243
100
AcDbEntity
  8
socket_header
  6
ByLayer
 62
  256
370
   -1
100
AcDbLine
 10
11.42999999999876
 20
-16.50999999999816
 11
11.42999999999876
 21
-19.04999999999806
  0
LINE
  5
244
100
AcDbEntity
  8
socket_header
  6
ByLayer
 62
  256
370
   -1
100
AcDbLine
 10
13.96999999999875
 20
-16.50999999999816
 11
13.96999999999875
 21
-19.04999999999806
  0
LINE
  5
245
100
AcDbEntity
  8
socket_header
  6
ByLayer
 62
  256
370
   -1
100
AcDbLine
 10
13.96999999999875
 20
-19.04999999999805
 11
11.42999999999876
 21
-19.04999999999805
  0
LINE
  5
246
100
AcDbEntity
  8
socket_header
  6
ByLayer
 62
  256
370
   -1
100
AcDbLine
 10
13.96999999999875
 20
-21.58999999999793
 11
11.42999999999876
 21
-21.58999999999793
  0
LINE
  5
247
100
AcDbEntity
  8
socket_header
  6
ByLayer
 62
  256
370
   -1
100
AcDbLine
 10
11.42999999999876
 20
-19.04999999999805
 11
11.42999999999876
 21
-21.58999999999793
  0
LINE
  5
248
100
AcDbEntity
  8
socket_header
  6
ByLayer
 62
  256
370
   -1
100
AcDbLine
 10
13.96999999999875
 20
-19.04999999999805
 11
13.96999999999875
 21
-21.58999999999793
  0
LINE
  5
249
100
AcDbEntity
  8
socket_header
  6
ByLayer
 62
  256
370
   -1
100
AcDbLine
 10
6.349999999998658
 20
-3.809999999998808
 11
3.809999999998659
 21
-3.809999999998807
  0
LINE
  5
24A
100
AcDbEntity
  8
socket_header
  6
ByLayer
 62
  256
370
   -1
100
AcDbLine
 10
6.349999999998658
 20
-6.349999999998692
 11
3.809999999998659
 21
-6.349999999998692
  0
LINE
  5
24B
100
AcDbEntity
  8
socket_header
  6
ByLayer
 62
  256
370
   -1
100
AcDbLine
 10
3.809999999998659
 20
-3.809999999998807
 11
3.809999999998659
 21
-6.349999999998692
  0
LINE
  5
24C
100
AcDbEntity
  8
socket_header
  6
ByLayer
 62
  256
370
   -1
100
AcDbLine
 10
6.349999999998658
 20
-3.809999999998808
 11
6.349999999998658
 21
-6.349999999998692
  0
LINE
  5
24D
100
AcDbEntity
  8
socket_header
  6
ByLayer
 62
  256
370
   -1
100
AcDbLine
 10
6.349999999998658
 20
-6.349999999998692
 11
3.809999999998659
 21
-6.349999999998692
  0
LINE
  5
24E
100
AcDbEntity
  8
socket_header
  6
ByLayer
 62
  256
370
   -1
100
AcDbLine
 10
6.349999999998644
 20
-8.889999999998563
 11
3.809999999998659
 21
-8.889999999998563
  0
LINE
  5
24F
100
AcDbEntity
  8
socket_header
  6
ByLayer
 62
  256
370
   -1
100
AcDbLine
 10
3.809999999998659
 20
-6.349999999998692
 11
3.809999999998659
 21
-8.889999999998563
  0
LINE
  5
250
100
AcDbEntity
  8
socket_header
  6
ByLayer
 62
  256
370
   -1
100
AcDbLine
 10
6.349999999998658
 20
-6.349999999998692
 11
6.349999999998644
 21
-8.889999999998563
  0
LINE
  5
251
100
AcDbEntity
  8
socket_header
  6
ByLayer
 62
  256
370
   -1
100
AcDbLine
 10
6.349999999998644
 20
-8.889999999998549
 11
3.809999999998659
 21
-8.889999999998549
  0
LINE
  5
252
100
AcDbEntity
  8
socket_header
  6
ByLayer
 62
  256
370
   -1
100
AcDbLine
 10
6.349999999998644
 20
-11.42999999999844
 11
3.809999999998659
 21
-11.42999999999844
  0
LINE
  5
253
100
AcDbEntity
  8
socket_header
  6
ByLayer
 62
  256
370
   -1
100
AcDbLine
 10
3.809999999998659
 20
-8.889999999998549
 11
3.809999999998659
 21
-11.42999999999844
  0
LINE
  5
254
100
AcDbEntity
  8
socket_header
  6
ByLayer
 62
  256
370
   -1
100
AcDbLine
 10
6.349999999998644
 20
-8.889999999998549
 11
6.349999999998644
 21
-11.42999999999844
  0
LINE
  5
255
100
AcDbEntity
  8
socket_header
  6
ByLayer
 62
  256
370
   -1
100
AcDbLine
 10
6.349999999998644
 20
-11.42999999999844
 11
3.809999999998659
 21
-11.42999999999844
  0
LINE
  5
256
100
AcDbEntity
  8
socket_header
  6
ByLayer
 62
  256
370
   -1
100
AcDbLine
 10
6.349999999998644
 20
-13.96999999999833
 11
3.809999999998659
 21
-13.96999999999833
  0
LINE
  5
257
100
AcDbEntity
  8
socket_header
  6
ByLayer
 62
  256
370
   -1
100
AcDbLine
 10
3.809999999998659
 20
-11.42999999999844
 11
3.809999999998659
 21
-13.96999999999833
  0
LINE
  5
258
100
AcDbEntity
  8
socket_header
  6
ByLayer
 62
  256
370
   -1
100
AcDbLine
 10
6.349999999998644
 20
-11.42999999999844
 11
6.349999999998644
 21
-13.96999999999833
  0
LINE
  5
259
100
AcDbEntity
  8
socket_header
  6
ByLayer
 62
  256
370
   -1
100
AcDbLine
 10
6.349999999998644
 20
-13.96999999999831
 11
3.809999999998659
 21
-13.96999999999831
  0
LINE
  5
25A
100
AcDbEntity
  8
socket_header
  6
ByLayer
 62
  256
370
   -1
100
AcDbLine
 10
6.349999999998644
 20
-16.50999999999821
 11
3.809999999998659
 21
-16.50999999999821
  0
LINE
  5
25B
100
AcDbEntity
  8
socket_header
  6
ByLayer
 62
  256
370
   -1
100
AcDbLine
 10
3.809999999998659
 20
-13.96999999999831
 11
3.809999999998659
 21
-16.50999999999821
  0
LINE
  5
25C
100
AcDbEntity
  8
socket_header
  6
ByLayer
 62
  256
370
   -1
100
AcDbLine
 10
6.349999999998644
 20
-13.96999999999831
 11
6.349999999998644
 21
-16.50999999999821
  0
LINE
  5
25D
100
AcDbEntity
  8
socket_header
  6
ByLayer
 62
  256
370
   -1
100
AcDbLine
 10
6.349999999998644
 20
-16.5099999999982
 11
3.809999999998659
 21
-16.5099999999982
  0
LINE
  5
25E
100
AcDbEntity
  8
socket_header
  6
ByLayer
 62
  256
370
   -1
100
AcDbLine
 10
6.349999999998644
 20
-19.04999999999808
 11
3.809999999998659
 21
-19.04999999999808
  0
LINE
  5
25F
100
AcDbEntity
  8
socket_header
  6
ByLayer
 62
  256
370
   -1
100
AcDbLine
 10
3.809999999998659
 20
-16.5099999999982
 11
3.809999999998659
 21
-19.04999999999808
  0
LINE
  5
260
100
AcDbEntity
  8
socket_header
  6
ByLayer
 62
  256
370
   -1
100
AcDbLine
 10
6.349999999998644
 20
-16.5099999999982
 11
6.349999999998644
 21
-19.04999999999808
  0
LINE
  5
261
100
AcDbEntity
  8
socket_header
  6
ByLayer
 62
  256
370
   -1
100
AcDbLine
 10
6.349999999998644
 20
-19.04999999999808
 11
3.809999999998659
 21
-19.04999999999808
  0
LINE
  5
262
100
AcDbEntity
  8
socket_header
  6
ByLayer
 62
  256
370
   -1
100
AcDbLine
 10
6.349999999998644
 20
-21.58999999999796
 11
3.809999999998659
 21
-21.58999999999796
  0
LINE
  5
263
100
AcDbEntity
  8
socket_header
  6
ByLayer
 62
  256
370
   -1
100
AcDbLine
 10
3.809999999998659
 20
-19.04999999999808
 11
3.809999999998659
 21
-21.58999999999796
  0
LINE
  5
264
100
AcDbEntity
  8
socket_header
  6
ByLayer
 62
  256
370
   -1
100
AcDbLine
 10
6.349999999998644
 20
-19.04999999999808
 11
6.349999999998644
 21
-21.58999999999796
  0
LINE
  5
265
100
AcDbEntity
  8
socket_header
  6
ByLayer
 62
  256
370
   -1
100
AcDbLine
 10
11.42999999999876
 20
-3.80999999999878
 11
6.349999999998658
 21
-3.809999999998808
  0
LINE
  5
266
100
AcDbEntity
  8
socket_header
  6
ByLayer
 62
  256
370
   -1
100
AcDbLine
 10
6.349999999998644
 20
-21.58999999999796
 11
11.42999999999876
 21
-21.58999999999793
  0
LINE
  5
267
100
AcDbEntity
  8
socket_header
  6
ByLayer
 62
  256
370
   -1
100
AcDbLine
 10
-1.270000000001296
 20
-3.810000000000699
 11
-1.270000000001296
 21
-6.350000000000691
  0
LINE
  5
268
100
AcDbEntity
  8
socket_header
  6
ByLayer
 62
  256
370
   -1
100
AcDbLine
 10
-1.270000000001296
 20
-6.350000000000691
 11
1.269999999998589
 21
-6.350000000000691
  0
LINE
  5
269
100
AcDbEntity
  8
socket_header
  6
ByLayer
 62
  256
370
   -1
100
AcDbLine
 10
-1.270000000001296
 20
-3.810000000000699
 11
1.269999999998589
 21
-3.810000000000699
  0
LINE
  5
26A
100
AcDbEntity
  8
socket_header
  6
ByLayer
 62
  256
370
   -1
100
AcDbLine
 10
1.269999999998589
 20
-3.810000000000699
 11
1.269999999998589
 21
-6.350000000000691
  0
LINE
  5
26B
100
AcDbEntity
  8
socket_header
  6
ByLayer
 62
  256
370
   -1
100
AcDbLine
 10
-1.270000000001261
 20
-6.350000000000691
 11
-1.270000000001261
 21
-8.890000000000683
  0
LINE
  5
26C
100
AcDbEntity
  8
socket_header
  6
ByLayer
 62
  256
370
   -1
100
AcDbLine
 10
-1.270000000001261
 20
-8.890000000000683
 11
1.26999999999861
 21
-8.890000000000683
  0
LINE
  5
26D
100
AcDbEntity
  8
socket_header
  6
ByLayer
 62
  256
370
   -1
100
AcDbLine
 10
-1.270000000001261
 20
-6.350000000000691
 11
1.26999999999861
 21
-6.350000000000691
  0
LINE
  5
26E
100
AcDbEntity
  8
socket_header
  6
ByLayer
 62
  256
370
   -1
100
AcDbLine
 10
1.26999999999861
 20
-6.350000000000691
 11
1.26999999999861
 21
-8.890000000000683
  0
LINE
  5
26F
100
AcDbEntity
  8
socket_header
  6
ByLayer
 62
  256
370
   -1
100
AcDbLine
 10
-1.270000000001239
 20
-8.890000000000683
 11
-1.270000000001239
 21
-11.43000000000067
  0
LINE
  5
270
100
AcDbEntity
  8
socket_header
  6
ByLayer
 62
  256
370
   -1
100
AcDbLine
 10
-1.270000000001239
 20
-11.43000000000067
 11
1.269999999998639
 21
-11.43000000000067
  0
LINE
  5
271
100
AcDbEntity
  8
socket_header
  6
ByLayer
 62
  256
370
   -1
100
AcDbLine
 10
-1.270000000001239
 20
-8.890000000000683
 11
1.269999999998639
 21
-8.890000000000683
  0
LINE
  5
272
100
AcDbEntity
  8
socket_header
  6
ByLayer
 62
  256
370
   -1
100
AcDbLine
 10
1.269999999998639
 20
-8.890000000000683
 11
1.269999999998639
 21
-11.43000000000067
  0
LINE
  5
273
100
AcDbEntity
  8
socket_header
  6
ByLayer
 62
  256
370
   -1
100
AcDbLine
 10
-1.270000000001211
 20
-11.43000000000067
 11
-1.270000000001211
 21
-13.97000000000067
  0
LINE
  5
274
100
AcDbEntity
  8
socket_header
  6
ByLayer
 62
  256
370
   -1
100
AcDbLine
 10
-1.270000000001211
 20
-13.97000000000067
 11
1.269999999998667
 21
-13.97000000000067
  0
LINE
  5
275
100
AcDbEntity
  8
socket_header
  6
ByLayer
 62
  256
370
   -1
100
AcDbLine
 10
-1.270000000001211
 20
-11.43000000000067
 11
1.269999999998667
 21
-11.43000000000067
  0
LINE
  5
276
100
AcDbEntity
  8
socket_header
  6
ByLayer
 62
  256
370
   -1
100
AcDbLine
 10
1.269999999998667
 20
-11.43000000000067
 11
1.269999999998667
 21
-13.97000000000067
  0
LINE
  5
277
100
AcDbEntity
  8
socket_header
  6
ByLayer
 62
  256
370
   -1
100
AcDbLine
 10
-1.270000000001183
 20
-13.97000000000067
 11
-1.270000000001183
 21
-16.51000000000066
  0
LINE
  5
278
100
AcDbEntity
  8
socket_header
  6
ByLayer
 62
  256
370
   -1
100
AcDbLine
 10
-1.270000000001183
 20
-16.51000000000066
 11
1.269999999998696
 21
-16.51000000000066
  0
LINE
  5
279
100
AcDbEntity
  8
socket_header
  6
ByLayer
 62
  256
370
   -1
100
AcDbLine
 10
-1.270000000001183
 20
-13.97000000000067
 11
1.269999999998696
 21
-13.97000000000067
  0
LINE
  5
27A
100
AcDbEntity
  8
socket_header
  6
ByLayer
 62
  256
370
   -1
100
AcDbLine
 10
1.269999999998696
 20
-13.97000000000067
 11
1.269999999998696
 21
-16.51000000000066
  0
LINE
  5
27B
100
AcDbEntity
  8
socket_header
  6
ByLayer
 62
  256
370
   -1
100
AcDbLine
 10
-1.270000000001154
 20
-16.51000000000066
 11
-1.270000000001154
 21
-19.05000000000065
  0
LINE
  5
27C
100
AcDbEntity
  8
socket_header
  6
ByLayer
 62
  256
370
   -1
100
AcDbLine
 10
-1.270000000001154
 20
-19.05000000000065
 11
1.269999999998724
 21
-19.05000000000065
  0
LINE
  5
27D
100
AcDbEntity
  8
socket_header
  6
ByLayer
 62
  256
370
   -1
100
AcDbLine
 10
-1.270000000001154
 20
-16.51000000000066
 11
1.269999999998724
 21
-16.51000000000066
  0
LINE
  5
27E
100
AcDbEntity
  8
socket_header
  6
ByLayer
 62
  256
370
   -1
100
AcDbLine
 10
1.269999999998724
 20
-16.51000000000066
 11
1.269999999998724
 21
-19.05000000000065
  0
LINE
  5
27F
100
AcDbEntity
  8
socket_header
  6
ByLayer
 62
  256
370
   -1
100
AcDbLine
 10
-1.270000000001126
 20
-19.05000000000065
 11
-1.270000000001126
 21
-21.59000000000064
  0
LINE
  5
280
100
AcDbEntity
  8
socket_header
  6
ByLayer
 62
  256
370
   -1
100
AcDbLine
 10
-1.270000000001126
 20
-21.59000000000064
 11
1.26999999999876
 21
-21.59000000000064
  0
LINE
  5
281
100
AcDbEntity
  8
socket_header
  6
ByLayer
 62
  256
370
   -1
100
AcDbLine
 10
-1.270000000001126
 20
-19.05000000000065
 11
1.26999999999876
 21
-19.05000000000065
  0
LINE
  5
282
100
AcDbEntity
  8
socket_header
  6
ByLayer
 62
  256
370
   -1
100
AcDbLine
 10
1.26999999999876
 20
-19.05000000000065
 11
1.26999999999876
 21
-21.59000000000064
  0
LINE
  5
283
100
AcDbEntity
  8
socket_header
  6
ByLayer
 62
  256
370
   -1
100
AcDbLine
 10
16.5099999999978
 20
-3.810000000000699
 11
16.5099999999978
 21
-6.350000000000691
  0
LINE
  5
284
100
AcDbEntity
  8
socket_header
  6
ByLayer
 62
  256
370
   -1
100
AcDbLine
 10
16.5099999999978
 20
-6.350000000000691
 11
19.04999999999767
 21
-6.350000000000691
  0
LINE
  5
285
100
AcDbEntity
  8
socket_header
  6
ByLayer
 62
  256
370
   -1
100
AcDbLine
 10
16.5099999999978
 20
-3.810000000000699
 11
19.04999999999767
 21
-3.810000000000699
  0
LINE
  5
286
100
AcDbEntity
  8
socket_header
  6
ByLayer
 62
  256
370
   -1
100
AcDbLine
 10
19.04999999999767
 20
-3.810000000000699
 11
19.04999999999767
 21
-6.350000000000691
  0
LINE
  5
287
100
AcDbEntity
  8
socket_header
  6
ByLayer
 62
  256
370
   -1
100
AcDbLine
 10
16.50999999999782
 20
-6.350000000000691
 11
16.50999999999782
 21
-8.890000000000683
  0
LINE
  5
288
100
AcDbEntity
  8
socket_header
  6
ByLayer
 62
  256
370
   -1
100
AcDbLine
 10
16.50999999999782
 20
-8.890000000000683
 11
19.04999999999771
 21
-8.890000000000683
  0
LINE
  5
289
100
AcDbEntity
  8
socket_header
  6
ByLayer
 62
  256
370
   -1
100
AcDbLine
 10
16.50999999999782
 20
-6.350000000000691
 11
19.04999999999771
 21
-6.350000000000691
  0
LINE
  5
28A
100
AcDbEntity
  8
socket_header
  6
ByLayer
 62
  256
370
   -1
100
AcDbLine
 10
19.04999999999771
 20
-6.350000000000691
 11
19.04999999999771
 21
-8.890000000000683
  0
LINE
  5
28B
100
AcDbEntity
  8
socket_header
  6
ByLayer
 62
  256
370
   -1
100
AcDbLine
 10
16.50999999999786
 20
-8.890000000000683
 11
16.50999999999786
 21
-11.43000000000067
  0
LINE
  5
28C
100
AcDbEntity
  8
socket_header
  6
ByLayer
 62
  256
370
   -1
100
AcDbLine
 10
16.50999999999786
 20
-11.43000000000067
 11
19.04999999999773
 21
-11.43000000000067
  0
LINE
  5
28D
100
AcDbEntity
  8
socket_header
  6
ByLayer
 62
  256
370
   -1
100
AcDbLine
 10
16.50999999999786
 20
-8.890000000000683
 11
19.04999999999773
 21
-8.890000000000683
  0
LINE
  5
28E
100
AcDbEntity
  8
socket_header
  6
ByLayer
 62
  256
370
   -1
100
AcDbLine
 10
19.04999999999773
 20
-8.890000000000683
 11
19.04999999999773
 21
-11.43000000000067
  0
LINE
  5
28F
100
AcDbEntity
  8
socket_header
  6
ByLayer
 62
  256
370
   -1
100
AcDbLine
 10
16.50999999999787
 20
-11.43000000000067
 11
16.50999999999787
 21
-13.97000000000067
  0
LINE
  5
290
100
AcDbEntity
  8
socket_header
  6
ByLayer
 62
  256
370
   -1
100
AcDbLine
 10
16.50999999999787
 20
-13.97000000000067
 11
19.04999999999776
 21
-13.97000000000067
  0
LINE
  5
291
100
AcDbEntity
  8
socket_header
  6
ByLayer
 62
  256
370
   -1
100
AcDbLine
 10
16.50999999999787
 20
-11.43000000000067
 11
19.04999999999776
 21
-11.43000000000067
  0
LINE
  5
292
100
AcDbEntity
  8
socket_header
  6
ByLayer
 62
  256
370
   -1
100
AcDbLine
 10
19.04999999999776
 20
-11.43000000000067
 11
19.04999999999776
 21
-13.97000000000067
  0
LINE
  5
293
100
AcDbEntity
  8
socket_header
  6
ByLayer
 62
  256
370
   -1
100
AcDbLine
 10
16.50999999999791
 20
-13.97000000000067
 11
16.50999999999791
 21
-16.51000000000066
  0
LINE
  5
294
100
AcDbEntity
  8
socket_header
  6
ByLayer
 62
  256
370
   -1
100
AcDbLine
 10
16.50999999999791
 20
-16.51000000000066
 11
19.04999999999779
 21
-16.51000000000066
  0
LINE
  5
295
100
AcDbEntity
  8
socket_header
  6
ByLayer
 62
  256
370
   -1
100
AcDbLine
 10
16.50999999999791
 20
-13.97000000000067
 11
19.04999999999779
 21
-13.97000000000067
  0
LINE
  5
296
100
AcDbEntity
  8
socket_header
  6
ByLayer
 62
  256
370
   -1
100
AcDbLine
 10
19.04999999999779
 20
-13.97000000000067
 11
19.04999999999779
 21
-16.51000000000066
  0
LINE
  5
297
100
AcDbEntity
  8
socket_header
  6
ByLayer
 62
  256
370
   -1
100
AcDbLine
 10
16.50999999999794
 20
-16.51000000000066
 11
16.50999999999794
 21
-19.05000000000065
  0
LINE
  5
298
100
AcDbEntity
  8
socket_header
  6
ByLayer
 62
  256
370
   -1
100
AcDbLine
 10
16.50999999999794
 20
-19.05000000000065
 11
19.04999999999782
 21
-19.05000000000065
  0
LINE
  5
299
100
AcDbEntity
  8
socket_header
  6
ByLayer
 62
  256
370
   -1
100
AcDbLine
 10
16.50999999999794
 20
-16.51000000000066
 11
19.04999999999782
 21
-16.51000000000066
  0
LINE
  5
29A
100
AcDbEntity
  8
socket_header
  6
ByLayer
 62
  256
370
   -1
100
AcDbLine
 10
19.04999999999782
 20
-16.51000000000066
 11
19.04999999999782
 21
-19.05000000000065
  0
LINE
  5
29B
100
AcDbEntity
  8
socket_header
  6
ByLayer
 62
  256
370
   -1
100
AcDbLine
 10
16.50999999999797
 20
-19.05000000000065
 11
16.50999999999797
 21
-21.59000000000064
  0
LINE
  5
29C
100
AcDbEntity
  8
socket_header
  6
ByLayer
 62
  256
370
   -1
100
AcDbLine
 10
16.50999999999797
 20
-21.59000000000064
 11
19.04999999999784
 21
-21.59000000000064
  0
LINE
  5
29D
100
AcDbEntity
  8
socket_header
  6
ByLayer
 62
  256
370
   -1
100
AcDbLine
 10
16.50999999999797
 20
-19.05000000000065
 11
19.04999999999784
 21
-19.05000000000065
  0
LINE
  5
29E
100
AcDbEntity
  8
socket_header
  6
ByLayer
 62
  256
370
   -1
100
AcDbLine
 10
19.04999999999784
 20
-19.05000000000065
 11
19.04999999999784
 21
-21.59000000000064
  0
LINE
  5
29F
100
AcDbEntity
  8
condenser
  6
ByLayer
 62
  256
370
   -1
100
AcDbLine
 10
1.639999999999866
 20
-5.560000000000734
 11
3.440000000000666
 21
-5.560000000000734
  0
LINE
  5
2A0
100
AcDbEntity
  8
condenser
  6
ByLayer
 62
  256
370
   -1
100
AcDbLine
 10
3.440000000000666
 20
-5.560000000000734
 11
3.440000000000666
 21
-2.060000000000223
  0
LINE
  5
2A1
100
AcDbEntity
  8
condenser
  6
ByLayer
 62
  256
370
   -1
100
AcDbLine
 10
3.440000000000666
 20
-2.060000000000223
 11
1.639999999999866
 21
-2.060000000000223
  0
LINE
  5
2A2
100
AcDbEntity
  8
condenser
  6
ByLayer
 62
  256
370
   -1
100
AcDbLine
 10
1.639999999999866
 20
-2.060000000000223
 11
1.639999999999866
 21
-5.560000000000734
  0
LINE
  5
2A3
100
AcDbEntity
  8
condenser
  6
ByLayer
 62
  256
370
   -1
100
AcDbLine
 10
2.539999999999964
 20
-2.540000000000418
 11
2.539999999999964
 21
-2.060000000000223
  0
LINE
  5
2A4
100
AcDbEntity
  8
condenser
  6
ByLayer
 62
  256
370
   -1
100
AcDbLine
 10
2.539999999999964
 20
-5.560000000000734
 11
2.539999999999964
 21
-5.080000000000236
  0
LINE
  5
2A5
100
AcDbEntity
  8
condenser
  6
ByLayer
 62
  256
370
   -1
100
AcDbLine
 10
18.9300000000004
 20
-3.119999999997091
 11
18.9300000000004
 21
0.5800000000027117
  0
LINE
  5
2A6
100
AcDbEntity
  8
condenser
  6
ByLayer
 62
  256
370
   -1
100
AcDbLine
 10
18.9300000000004
 20
0.5800000000027117
 11
16.62999999999774
 21
0.5800000000027117
  0
LINE
  5
2A7
100
AcDbEntity
  8
condenser
  6
ByLayer
 62
  256
370
   -1
100
AcDbLine
 10
16.62999999999774
 20
0.5800000000027117
 11
16.62999999999774
 21
-3.119999999997091
  0
LINE
  5
2A8
100
AcDbEntity
  8
condenser
  6
ByLayer
 62
  256
370
   -1
100
AcDbLine
 10
16.62999999999774
 20
-3.119999999997091
 11
18.9300000000004
 21
-3.119999999997091
  0
MTEXT
  5
2A9
100
AcDbEntity
  8
condenser
  6
ByLayer
 62
  256
370
   -1
100
AcDbMText
 10
16.84683343965768
 20
-0.3435271779742952
 30
0
 40
1
 41
1.222222222222222
 71
    4
 72
    1
  1
C2
  7
unicode
210
0
220
0
230
1
 50
0
 73
    2
 44
1.54
  0
LINE
  5
2AA
100
AcDbEntity
  8
condenser
  6
ByLayer
 62
  256
370
   -1
100
AcDbLine
 10
17.77999999999908
 20
0
 11
17.77999999999908
 21
0.5800000000027117
  0
LINE
  5
2AB
100
AcDbEntity
  8
condenser
  6
ByLayer
 62
  256
370
   -1
100
AcDbLine
 10
17.77999999999908
 20
-3.119999999997091
 11
17.77999999999908
 21
-2.540000000000092
  0
MTEXT
  5
2AC
100
AcDbEntity
  8
socket_header
  6
ByLayer
 62
  256
370
   -1
100
AcDbMText
 10
8.651285839898584
 20
0.7162794309360558
 30
0
 40
1
 41
2.126666666666666
 71
    4
 72
    1
  1
5V\PGND\P\PCLK\PDAT\PSS
  7
kst32b
210
0
220
0
230
1
 50
90
 73
    2
 44
1.54
  0
CIRCLE
  5
2AD
100
AcDbEntity
  8
0_wire
  6
ByLayer
 62
  256
370
   -1
100
AcDbCircle
 10
15.23999999999922
 20
0
 40
0.4
  0
LINE
  5
2AE
100
AcDbEntity
  8
0_wire
  6
ByLayer
 62
  256
370
   -1
100
AcDbLine
 10
12.6999999999994
 20
-15.24000000000019
 11
17.77999999999913
 21
-15.24000000000019
  0
LINE
  5
2AF
100
AcDbEntity
  8
0_wire
  6
ByLayer
 62
  256
370
   -1
100
AcDbLine
 10
12.6999999999994
 20
-17.7800000000002
 11
17.77999999999913
 21
-17.7800000000002
  0
LINE
  5
2B0
100
AcDbEntity
  8
0_wire
  6
ByLayer
 62
  256
370
   -1
100
AcDbLine
 10
12.6999999999994
 20
-20.32000000000019
 11
17.77999999999913
 21
-20.32000000000019
  0
LINE
  5
2B1
100
AcDbEntity
  8
0_wire
  6
ByLayer
 62
  256
370
   -1
100
AcDbLine
 10
5.079999999999785
 20
-12.70000000000019
 11
4.973799150320701e-14
 21
-12.70000000000019
  0
LINE
  5
2B2
100
AcDbEntity
  8
5V line
  6
DOTTINY
 62
  256
370
   50
100
AcDbLine
 10
7.105427357601002e-15
 20
-5.080000000000098
 11
2.539999999999885
 21
-5.080000000000098
  0
LINE
  5
2B3
100
AcDbEntity
  8
5V line
  6
DOTTINY
 62
  256
370
   50
100
AcDbLine
 10
2.539999999999885
 20
-5.080000000000098
 11
5.07999999999975
 21
-5.080000000000098
  0
CIRCLE
  5
2B4
100
AcDbEntity
  8
5V line
  6
ByLayer
 62
  256
370
   -1
100
AcDbCircle
 10
2.539999999999864
 20
0
 40
0.4
  0
LWPOLYLINE
  5
2B5
100
AcDbEntity
  8
resister
  6
DOTTINY
 62
  256
370
   -1
100
AcDbPolyline
 90
    4
 70
    0
 43
0
 10
2.539999999999864
 20
0
 10
0.6669341101217015
 20
-0.06262218515146056
 10
0.4477564620915899
 20
-4.47748623832943
 10
7.105427357601002e-15
 20
-5.080000000000098
  0
LINE
  5
2B6
100
AcDbEntity
  8
0_wire
  6
ByLayer
 62
  256
370
   -1
100
AcDbLine
 10
5.079999999999778
 20
-7.62000000000009
 11
3.552713678800501e-14
 21
-7.62000000000009
  0
LINE
  5
2B7
100
AcDbEntity
  8
0_wire
  6
ByLayer
 62
  256
370
   -1
100
AcDbLine
 10
5.079999999999778
 20
-10.1600000000001
 11
3.552713678800501e-14
 21
-10.1600000000001
  0
LINE
  5
2B8
100
AcDbEntity
  8
0_wire
  6
ByLayer
 62
  256
370
   -1
100
AcDbLine
 10
5.079999999999799
 20
-15.24000000000019
 11
4.973799150320701e-14
 21
-15.24000000000019
  0
LINE
  5
2B9
100
AcDbEntity
  8
0_wire
  6
ByLayer
 62
  256
370
   -1
100
AcDbLine
 10
5.079999999999799
 20
-17.7800000000002
 11
4.973799150320701e-14
 21
-17.7800000000002
  0
LINE
  5
2BA
100
AcDbEntity
  8
0_wire
  6
ByLayer
 62
  256
370
   -1
100
AcDbLine
 10
5.079999999999799
 20
-20.32000000000019
 11
4.973799150320701e-14
 21
-20.32000000000019
  0
LINE
  5
2BB
100
AcDbEntity
  8
0_wire
  6
ByLayer
 62
  256
370
   -1
100
AcDbLine
 10
12.69999999999938
 20
-10.1600000000001
 11
17.77999999999912
 21
-10.1600000000001
  0
LINE
  5
2BC
100
AcDbEntity
  8
0_wire
  6
ByLayer
 62
  256
370
   -1
100
AcDbLine
 10
12.69999999999938
 20
-7.62000000000009
 11
17.77999999999912
 21
-7.62000000000009
  0
LINE
  5
2BD
100
AcDbEntity
  8
3.3V line
  6
DOTTINY
 62
  256
370
   50
100
AcDbLine
 10
12.70000000000176
 20
-12.7
 11
17.78000000000177
 21
-12.7
  0
LWPOLYLINE
  5
2BE
100
AcDbEntity
  8
resister
  6
DOTTINY
 62
  256
370
   -1
100
AcDbPolyline
 90
    4
 70
    0
 43
0
 10
17.77999999999908
 20
0
 10
18.41067978404745
 20
-0.3560071225860533
 10
18.41067978404745
 20
-12.21104430470163
 10
17.77999999999913
 20
-12.70000000000019
  0
LINE
  5
2BF
100
AcDbEntity
  8
0_GND
  6
ByLayer
 62
  256
370
   -1
100
AcDbLine
 10
5.07999999999975
 20
0
 11
5.07999999999975
 21
-2.540000000000092
  0
LINE
  5
2C0
100
AcDbEntity
  8
0_GND
  6
ByLayer
 62
  256
370
   -1
100
AcDbLine
 10
5.07999999999975
 20
-2.540000000000092
 11
2.539999999999864
 21
-2.540000000000092
  0
LINE
  5
2C1
100
AcDbEntity
  8
0_GND
  6
ByLayer
 62
  256
370
   -1
100
AcDbLine
 10
12.69999999999936
 20
-5.080000000000098
 11
17.7799999999991
 21
-5.080000000000098
  0
LINE
  5
2C2
100
AcDbEntity
  8
0_GND
  6
ByLayer
 62
  256
370
   -1
100
AcDbLine
 10
17.7799999999991
 20
-5.080000000000098
 11
17.77999999999908
 21
-2.540000000000092
  0
LINE
  5
2C3
100
AcDbEntity
  8
0_wire
  6
ByLayer
 62
  256
370
   -1
100
AcDbLine
 10
10.15999999999953
 20
-17.7800000000002
 11
12.6999999999994
 21
-17.7800000000002
  0
LINE
  5
2C4
100
AcDbEntity
  8
0_wire
  6
ByLayer
 62
  256
370
   -1
100
AcDbLine
 10
12.69999999999935
 20
0
 11
12.69999999999935
 21
-2.540000000000092
  0
LINE
  5
2C5
100
AcDbEntity
  8
0_wire
  6
ByLayer
 62
  256
370
   -1
100
AcDbLine
 10
12.69999999999935
 20
-2.540000000000092
 11
15.23999999999922
 21
-2.540000000000092
  0
LWPOLYLINE
  5
2C6
100
AcDbEntity
  8
resister
  6
ByLayer
 62
  256
370
   -1
100
AcDbPolyline
 90
    4
 70
    0
 43
0
 10
15.23999999999922
 20
-2.540000000000092
 10
15.77146575300198
 20
-3.24952411955688
 10
15.77146575300198
 20
-14.7054735579947
 10
15.23999999999928
 20
-15.24000000000019
  0
LINE
  5
2C7
100
AcDbEntity
  8
0_wire
  6
ByLayer
 62
  256
370
   -1
100
AcDbLine
 10
10.15999999999948
 20
0
 11
10.15999999999948
 21
-2.540000000000092
  0
LINE
  5
2C8
100
AcDbEntity
  8
0_wire
  6
ByLayer
 62
  256
370
   -1
100
AcDbLine
 10
10.1599999999995
 20
-7.620000000000091
 11
10.15999999999953
 21
-17.7800000000002
  0
LINE
  5
2C9
100
AcDbEntity
  8
0_GND
  6
ByLayer
 62
  256
370
   -1
100
AcDbLine
 10
12.69999999999936
 20
-5.080000000000098
 11
7.619999999999614
 21
-5.080000000000098
  0
LINE
  5
2CA
100
AcDbEntity
  8
0_GND
  6
ByLayer
 62
  256
370
   -1
100
AcDbLine
 10
7.619999999999614
 20
-5.080000000000098
 11
7.619999999999614
 21
-2.540000000000092
  0
LINE
  5
2CB
100
AcDbEntity
  8
0_GND
  6
ByLayer
 62
  256
370
   -1
100
AcDbLine
 10
7.619999999999614
 20
-2.540000000000092
 11
5.07999999999975
 21
-2.540000000000092
  0
LWPOLYLINE
  5
2CC
100
AcDbEntity
  8
resister
  6
DOTTINY
 62
  256
370
   -1
100
AcDbPolyline
 90
    5
 70
    0
 43
0
 10
15.23999999999922
 20
0
 10
14.64239381315595
 20
-0.3579984199511818
 10
14.6148554731597
 20
-11.813947858389
 10
5.527203274398936
 20
-11.78640951839275
 10
5.079999999999785
 20
-12.70000000000019
  0
LWPOLYLINE
  5
2CD
100
AcDbEntity
  8
resister
  6
ByLayer
 62
  256
370
   -1
100
AcDbPolyline
 90
    4
 70
    0
 43
0
 10
10.15999999999948
 20
-2.540000000000092
 10
10.81456455367793
 20
-3.029217399586922
 10
10.70441119369295
 20
-6.361356539132538
 10
10.15999999999951
 20
-7.62000000000009
  0
LINE
  5
2CE
100
AcDbEntity
  8
socket_header
  6
ByLayer
 62
  256
370
   -1
100
AcDbLine
 10
1.269999999998653
 20
-29.21000000000083
 11
1.269999999998653
 21
-31.75000000000082
  0
LINE
  5
2CF
100
AcDbEntity
  8
socket_header
  6
ByLayer
 62
  256
370
   -1
100
AcDbLine
 10
1.269999999998653
 20
-31.75000000000082
 11
3.809999999998531
 21
-31.75000000000082
  0
LINE
  5
2D0
100
AcDbEntity
  8
socket_header
  6
ByLayer
 62
  256
370
   -1
100
AcDbLine
 10
1.269999999998653
 20
-29.21000000000083
 11
3.809999999998531
 21
-29.21000000000083
  0
LINE
  5
2D1
100
AcDbEntity
  8
socket_header
  6
ByLayer
 62
  256
370
   -1
100
AcDbLine
 10
3.809999999998531
 20
-29.21000000000083
 11
3.809999999998531
 21
-31.75000000000082
  0
LINE
  5
2D2
100
AcDbEntity
  8
socket_header
  6
ByLayer
 62
  256
370
   -1
100
AcDbLine
 10
3.809999999998531
 20
-29.21000000000083
 11
3.809999999998531
 21
-31.75000000000082
  0
LINE
  5
2D3
100
AcDbEntity
  8
socket_header
  6
ByLayer
 62
  256
370
   -1
100
AcDbLine
 10
3.809999999998531
 20
-31.75000000000082
 11
6.349999999998424
 21
-31.75000000000082
  0
LINE
  5
2D4
100
AcDbEntity
  8
socket_header
  6
ByLayer
 62
  256
370
   -1
100
AcDbLine
 10
3.809999999998531
 20
-29.21000000000083
 11
6.349999999998424
 21
-29.21000000000083
  0
LINE
  5
2D5
100
AcDbEntity
  8
socket_header
  6
ByLayer
 62
  256
370
   -1
100
AcDbLine
 10
6.34999999999841
 20
-29.21000000000083
 11
6.34999999999841
 21
-31.75000000000082
  0
LINE
  5
2D6
100
AcDbEntity
  8
socket_header
  6
ByLayer
 62
  256
370
   -1
100
AcDbLine
 10
8.889999999998295
 20
-29.21000000000083
 11
8.889999999998295
 21
-31.75000000000082
  0
LINE
  5
2D7
100
AcDbEntity
  8
socket_header
  6
ByLayer
 62
  256
370
   -1
100
AcDbLine
 10
8.889999999998295
 20
-31.75000000000082
 11
11.42999999999817
 21
-31.75000000000082
  0
LINE
  5
2D8
100
AcDbEntity
  8
socket_header
  6
ByLayer
 62
  256
370
   -1
100
AcDbLine
 10
8.889999999998295
 20
-29.21000000000083
 11
11.42999999999817
 21
-29.21000000000083
  0
LINE
  5
2D9
100
AcDbEntity
  8
socket_header
  6
ByLayer
 62
  256
370
   -1
100
AcDbLine
 10
11.42999999999816
 20
-29.21000000000083
 11
11.42999999999816
 21
-31.75000000000082
  0
LINE
  5
2DA
100
AcDbEntity
  8
socket_header
  6
ByLayer
 62
  256
370
   -1
100
AcDbLine
 10
11.42999999999816
 20
-29.21000000000083
 11
11.42999999999816
 21
-31.75000000000082
  0
LINE
  5
2DB
100
AcDbEntity
  8
socket_header
  6
ByLayer
 62
  256
370
   -1
100
AcDbLine
 10
11.42999999999816
 20
-31.75000000000082
 11
13.96999999999805
 21
-31.75000000000082
  0
LINE
  5
2DC
100
AcDbEntity
  8
socket_header
  6
ByLayer
 62
  256
370
   -1
100
AcDbLine
 10
11.42999999999816
 20
-29.21000000000083
 11
13.96999999999805
 21
-29.21000000000083
  0
LINE
  5
2DD
100
AcDbEntity
  8
socket_header
  6
ByLayer
 62
  256
370
   -1
100
AcDbLine
 10
13.96999999999804
 20
-29.21000000000083
 11
13.96999999999804
 21
-31.75000000000082
  0
LINE
  5
2DE
100
AcDbEntity
  8
socket_header
  6
ByLayer
 62
  256
370
   -1
100
AcDbLine
 10
13.96999999999804
 20
-29.21000000000083
 11
13.96999999999804
 21
-31.75000000000082
  0
LINE
  5
2DF
100
AcDbEntity
  8
socket_header
  6
ByLayer
 62
  256
370
   -1
100
AcDbLine
 10
13.96999999999804
 20
-31.75000000000082
 11
16.50999999999794
 21
-31.75000000000082
  0
LINE
  5
2E0
100
AcDbEntity
  8
socket_header
  6
ByLayer
 62
  256
370
   -1
100
AcDbLine
 10
13.96999999999804
 20
-29.21000000000083
 11
16.50999999999794
 21
-29.21000000000083
  0
LINE
  5
2E1
100
AcDbEntity
  8
socket_header
  6
ByLayer
 62
  256
370
   -1
100
AcDbLine
 10
16.50999999999792
 20
-29.21000000000083
 11
16.50999999999792
 21
-31.75000000000082
  0
MTEXT
  5
2E2
100
AcDbEntity
  8
socket_header
  6
ByLayer
 62
  256
370
   -1
100
AcDbMText
 10
8.651285839898669
 20
-29.76372056906418
 30
0
 40
1
 41
2.126666666666666
 71
    4
 72
    1
  1
5V\PGND\P\PCLK\PDAT\PSS
  7
kst32b
210
0
220
0
230
1
 50
90
 73
    2
 44
1.54
  0
LINE
  5
2E3
100
AcDbEntity
  8
socket_header
  6
ByLayer
 62
  256
370
   -1
100
AcDbLine
 10
1.269999999998667
 20
-34.29000000000084
 11
1.269999999998667
 21
-36.83000000000083
  0
LINE
  5
2E4
100
AcDbEntity
  8
socket_header
  6
ByLayer
 62
  256
370
   -1
100
AcDbLine
 10
1.269999999998667
 20
-36.83000000000083
 11
3.809999999998546
 21
-36.83000000000083
  0
LINE
  5
2E5
100
AcDbEntity
  8
socket_header
  6
ByLayer
 62
  256
370
   -1
100
AcDbLine
 10
1.269999999998667
 20
-34.29000000000084
 11
3.809999999998546
 21
-34.29000000000084
  0
LINE
  5
2E6
100
AcDbEntity
  8
socket_header
  6
ByLayer
 62
  256
370
   -1
100
AcDbLine
 10
3.809999999998546
 20
-34.29000000000084
 11
3.809999999998546
 21
-36.83000000000083
  0
LINE
  5
2E7
100
AcDbEntity
  8
socket_header
  6
ByLayer
 62
  256
370
   -1
100
AcDbLine
 10
3.809999999998546
 20
-34.29000000000084
 11
3.809999999998546
 21
-36.83000000000083
  0
LINE
  5
2E8
100
AcDbEntity
  8
socket_header
  6
ByLayer
 62
  256
370
   -1
100
AcDbLine
 10
3.809999999998546
 20
-36.83000000000083
 11
6.349999999998438
 21
-36.83000000000083
  0
LINE
  5
2E9
100
AcDbEntity
  8
socket_header
  6
ByLayer
 62
  256
370
   -1
100
AcDbLine
 10
3.809999999998546
 20
-34.29000000000084
 11
6.349999999998438
 21
-34.29000000000084
  0
LINE
  5
2EA
100
AcDbEntity
  8
socket_header
  6
ByLayer
 62
  256
370
   -1
100
AcDbLine
 10
6.349999999998424
 20
-34.29000000000084
 11
6.349999999998424
 21
-36.83000000000083
  0
LINE
  5
2EB
100
AcDbEntity
  8
socket_header
  6
ByLayer
 62
  256
370
   -1
100
AcDbLine
 10
8.889999999998309
 20
-34.29000000000084
 11
8.889999999998309
 21
-36.83000000000083
  0
LINE
  5
2EC
100
AcDbEntity
  8
socket_header
  6
ByLayer
 62
  256
370
   -1
100
AcDbLine
 10
8.889999999998309
 20
-36.83000000000083
 11
11.42999999999819
 21
-36.83000000000083
  0
LINE
  5
2ED
100
AcDbEntity
  8
socket_header
  6
ByLayer
 62
  256
370
   -1
100
AcDbLine
 10
8.889999999998309
 20
-34.29000000000084
 11
11.42999999999819
 21
-34.29000000000084
  0
LINE
  5
2EE
100
AcDbEntity
  8
socket_header
  6
ByLayer
 62
  256
370
   -1
100
AcDbLine
 10
11.42999999999817
 20
-34.29000000000084
 11
11.42999999999817
 21
-36.83000000000083
  0
LINE
  5
2EF
100
AcDbEntity
  8
socket_header
  6
ByLayer
 62
  256
370
   -1
100
AcDbLine
 10
11.42999999999817
 20
-34.29000000000084
 11
11.42999999999817
 21
-36.83000000000083
  0
LINE
  5
2F0
100
AcDbEntity
  8
socket_header
  6
ByLayer
 62
  256
370
   -1
100
AcDbLine
 10
11.42999999999817
 20
-36.83000000000083
 11
13.96999999999807
 21
-36.83000000000083
  0
LINE
  5
2F1
100
AcDbEntity
  8
socket_header
  6
ByLayer
 62
  256
370
   -1
100
AcDbLine
 10
11.42999999999817
 20
-34.29000000000084
 11
13.96999999999807
 21
-34.29000000000084
  0
LINE
  5
2F2
100
AcDbEntity
  8
socket_header
  6
ByLayer
 62
  256
370
   -1
100
AcDbLine
 10
13.96999999999806
 20
-34.29000000000084
 11
13.96999999999806
 21
-36.83000000000083
  0
LINE
  5
2F3
100
AcDbEntity
  8
socket_header
  6
ByLayer
 62
  256
370
   -1
100
AcDbLine
 10
13.96999999999806
 20
-34.29000000000084
 11
13.96999999999806
 21
-36.83000000000083
  0
LINE
  5
2F4
100
AcDbEntity
  8
socket_header
  6
ByLayer
 62
  256
370
   -1
100
AcDbLine
 10
13.96999999999806
 20
-36.83000000000083
 11
16.50999999999796
 21
-36.83000000000083
  0
LINE
  5
2F5
100
AcDbEntity
  8
socket_header
  6
ByLayer
 62
  256
370
   -1
100
AcDbLine
 10
13.96999999999806
 20
-34.29000000000084
 11
16.50999999999796
 21
-34.29000000000084
  0
LINE
  5
2F6
100
AcDbEntity
  8
socket_header
  6
ByLayer
 62
  256
370
   -1
100
AcDbLine
 10
16.50999999999794
 20
-34.29000000000084
 11
16.50999999999794
 21
-36.83000000000083
  0
LINE
  5
2F7
100
AcDbEntity
  8
5V line
  6
CONTINUOUS
 62
  256
370
   50
100
AcDbLine
 10
2.540000000001768
 20
-30.48
 11
2.540000000001768
 21
-35.56
  0
LINE
  5
2F8
100
AcDbEntity
  8
0_GND
  6
CONTINUOUS
 62
  256
370
   50
100
AcDbLine
 10
5.080000000001768
 20
-30.48
 11
5.080000000001768
 21
-35.56
  0
LINE
  5
2F9
100
AcDbEntity
  8
0_wire
  6
ByLayer
 62
  256
370
   -1
100
AcDbLine
 10
10.15999999999956
 20
-30.48000000000023
 11
10.15999999999957
 21
-35.56000000000024
  0
LINE
  5
2FA
100
AcDbEntity
  8
0_wire
  6
ByLayer
 62
  256
370
   -1
100
AcDbLine
 10
12.69999999999943
 20
-30.48000000000023
 11
12.69999999999945
 21
-35.56000000000024
  0
LINE
  5
2FB
100
AcDbEntity
  8
0_wire
  6
ByLayer
 62
  256
370
   -1
100
AcDbLine
 10
15.2399999999993
 20
-30.48000000000023
 11
15.23999999999932
 21
-35.56000000000024
  0
LINE
  5
2FC
100
AcDbEntity
  8
universal_board
  6
ByLayer
 62
  256
370
   -1
100
AcDbLine
 10
-1.269999999999882
 20
-21.59000000000048
 11
19.04999999999927
 21
-21.59000000000048
  0
LINE
  5
2FD
100
AcDbEntity
  8
universal_board
  6
ByLayer
 62
  256
370
   -1
100
AcDbLine
 10
-1.269999999999946
 20
1.269999999999719
 11
19.04999999999921
 21
1.269999999999719
  0
LINE
  5
2FE
100
AcDbEntity
  8
universal_board
  6
ByLayer
 62
  256
370
   -1
100
AcDbLine
 10
-1.269999999999804
 20
1.269999999999718
 11
-1.269999999999804
 21
-21.59000000000048
  0
LINE
  5
2FF
100
AcDbEntity
  8
universal_board
  6
ByLayer
 62
  256
370
   -1
100
AcDbLine
 10
19.04999999999915
 20
1.269999999999718
 11
19.04999999999915
 21
-21.59000000000048
  0
LINE
  5
300
100
AcDbEntity
  8
universal_board
  6
ByLayer
 62
  256
370
   -1
100
AcDbLine
 10
1.270000000000003
 20
-29.21000000000051
 11
16.50999999999935
 21
-29.21000000000051
  0
LINE
  5
301
100
AcDbEntity
  8
universal_board
  6
ByLayer
 62
  256
370
   -1
100
AcDbLine
 10
1.270000000000024
 20
-36.83000000000064
 11
16.50999999999935
 21
-36.83000000000064
  0
LINE
  5
302
100
AcDbEntity
  8
universal_board
  6
ByLayer
 62
  256
370
   -1
100
AcDbLine
 10
1.270000000000145
 20
-29.21000000000051
 11
1.270000000000145
 21
-36.83000000000064
  0
LINE
  5
303
100
AcDbEntity
  8
universal_board
  6
ByLayer
 62
  256
370
   -1
100
AcDbLine
 10
16.50999999999935
 20
-29.21000000000051
 11
16.50999999999935
 21
-36.83000000000064
  0
CIRCLE
  5
304
100
AcDbEntity
  8
universal_board
  6
ByLayer
 62
  256
370
   -1
100
AcDbCircle
 10
25.39999999999875
 20
-20.32000000000019
 40
0.5
  0
CIRCLE
  5
305
100
AcDbEntity
  8
universal_board
  6
ByLayer
 62
  256
370
   -1
100
AcDbCircle
 10
25.39999999999875
 20
-17.7800000000002
 40
0.5
  0
CIRCLE
  5
306
100
AcDbEntity
  8
universal_board
  6
ByLayer
 62
  256
370
   -1
100
AcDbCircle
 10
25.39999999999875
 20
-15.24000000000019
 40
0.5
  0
CIRCLE
  5
307
100
AcDbEntity
  8
universal_board
  6
ByLayer
 62
  256
370
   -1
100
AcDbCircle
 10
25.39999999999875
 20
-12.70000000000019
 40
0.5
  0
CIRCLE
  5
308
100
AcDbEntity
  8
universal_board
  6
ByLayer
 62
  256
370
   -1
100
AcDbCircle
 10
25.39999999999873
 20
-10.1600000000001
 40
0.5
  0
CIRCLE
  5
309
100
AcDbEntity
  8
universal_board
  6
ByLayer
 62
  256
370
   -1
100
AcDbCircle
 10
25.39999999999873
 20
-7.62000000000009
 40
0.5
  0
CIRCLE
  5
30A
100
AcDbEntity
  8
universal_board
  6
ByLayer
 62
  256
370
   -1
100
AcDbCircle
 10
25.39999999999871
 20
-5.080000000000098
 40
0.5
  0
CIRCLE
  5
30B
100
AcDbEntity
  8
universal_board
  6
ByLayer
 62
  256
370
   -1
100
AcDbCircle
 10
25.3999999999987
 20
-2.540000000000092
 40
0.5
  0
CIRCLE
  5
30C
100
AcDbEntity
  8
universal_board
  6
ByLayer
 62
  256
370
   -1
100
AcDbCircle
 10
25.3999999999987
 20
0
 40
0.5
  0
CIRCLE
  5
30D
100
AcDbEntity
  8
universal_board
  6
ByLayer
 62
  256
370
   -1
100
AcDbCircle
 10
27.93999999999863
 20
-20.32000000000019
 40
0.5
  0
CIRCLE
  5
30E
100
AcDbEntity
  8
universal_board
  6
ByLayer
 62
  256
370
   -1
100
AcDbCircle
 10
27.93999999999863
 20
-17.7800000000002
 40
0.5
  0
CIRCLE
  5
30F
100
AcDbEntity
  8
universal_board
  6
ByLayer
 62
  256
370
   -1
100
AcDbCircle
 10
27.93999999999863
 20
-15.24000000000019
 40
0.5
  0
CIRCLE
  5
310
100
AcDbEntity
  8
universal_board
  6
ByLayer
 62
  256
370
   -1
100
AcDbCircle
 10
27.93999999999861
 20
-12.70000000000019
 40
0.5
  0
CIRCLE
  5
311
100
AcDbEntity
  8
universal_board
  6
ByLayer
 62
  256
370
   -1
100
AcDbCircle
 10
27.9399999999986
 20
-10.1600000000001
 40
0.5
  0
CIRCLE
  5
312
100
AcDbEntity
  8
universal_board
  6
ByLayer
 62
  256
370
   -1
100
AcDbCircle
 10
27.9399999999986
 20
-7.62000000000009
 40
0.5
  0
CIRCLE
  5
313
100
AcDbEntity
  8
universal_board
  6
ByLayer
 62
  256
370
   -1
100
AcDbCircle
 10
27.93999999999858
 20
-5.080000000000098
 40
0.5
  0
CIRCLE
  5
314
100
AcDbEntity
  8
universal_board
  6
ByLayer
 62
  256
370
   -1
100
AcDbCircle
 10
27.93999999999856
 20
-2.540000000000092
 40
0.5
  0
CIRCLE
  5
315
100
AcDbEntity
  8
universal_board
  6
ByLayer
 62
  256
370
   -1
100
AcDbCircle
 10
27.93999999999856
 20
0
 40
0.5
  0
CIRCLE
  5
316
100
AcDbEntity
  8
universal_board
  6
ByLayer
 62
  256
370
   -1
100
AcDbCircle
 10
30.4799999999985
 20
-20.32000000000019
 40
0.5
  0
CIRCLE
  5
317
100
AcDbEntity
  8
universal_board
  6
ByLayer
 62
  256
370
   -1
100
AcDbCircle
 10
30.4799999999985
 20
-17.7800000000002
 40
0.5
  0
CIRCLE
  5
318
100
AcDbEntity
  8
universal_board
  6
ByLayer
 62
  256
370
   -1
100
AcDbCircle
 10
30.4799999999985
 20
-15.24000000000019
 40
0.5
  0
CIRCLE
  5
319
100
AcDbEntity
  8
universal_board
  6
ByLayer
 62
  256
370
   -1
100
AcDbCircle
 10
30.47999999999848
 20
-12.70000000000019
 40
0.5
  0
CIRCLE
  5
31A
100
AcDbEntity
  8
universal_board
  6
ByLayer
 62
  256
370
   -1
100
AcDbCircle
 10
30.47999999999848
 20
-10.1600000000001
 40
0.5
  0
CIRCLE
  5
31B
100
AcDbEntity
  8
universal_board
  6
ByLayer
 62
  256
370
   -1
100
AcDbCircle
 10
30.47999999999848
 20
-7.62000000000009
 40
0.5
  0
CIRCLE
  5
31C
100
AcDbEntity
  8
universal_board
  6
ByLayer
 62
  256
370
   -1
100
AcDbCircle
 10
30.47999999999845
 20
-5.080000000000098
 40
0.5
  0
CIRCLE
  5
31D
100
AcDbEntity
  8
universal_board
  6
ByLayer
 62
  256
370
   -1
100
AcDbCircle
 10
30.47999999999845
 20
-2.540000000000092
 40
0.5
  0
CIRCLE
  5
31E
100
AcDbEntity
  8
universal_board
  6
ByLayer
 62
  256
370
   -1
100
AcDbCircle
 10
30.47999999999845
 20
0
 40
0.5
  0
CIRCLE
  5
31F
100
AcDbEntity
  8
universal_board
  6
ByLayer
 62
  256
370
   -1
100
AcDbCircle
 10
33.01999999999836
 20
-20.32000000000019
 40
0.5
  0
CIRCLE
  5
320
100
AcDbEntity
  8
universal_board
  6
ByLayer
 62
  256
370
   -1
100
AcDbCircle
 10
33.01999999999836
 20
-17.7800000000002
 40
0.5
  0
CIRCLE
  5
321
100
AcDbEntity
  8
universal_board
  6
ByLayer
 62
  256
370
   -1
100
AcDbCircle
 10
33.01999999999836
 20
-15.24000000000019
 40
0.5
  0
CIRCLE
  5
322
100
AcDbEntity
  8
universal_board
  6
ByLayer
 62
  256
370
   -1
100
AcDbCircle
 10
33.01999999999835
 20
-12.70000000000019
 40
0.5
  0
CIRCLE
  5
323
100
AcDbEntity
  8
universal_board
  6
ByLayer
 62
  256
370
   -1
100
AcDbCircle
 10
33.01999999999835
 20
-10.1600000000001
 40
0.5
  0
CIRCLE
  5
324
100
AcDbEntity
  8
universal_board
  6
ByLayer
 62
  256
370
   -1
100
AcDbCircle
 10
33.01999999999835
 20
-7.62000000000009
 40
0.5
  0
CIRCLE
  5
325
100
AcDbEntity
  8
universal_board
  6
ByLayer
 62
  256
370
   -1
100
AcDbCircle
 10
33.01999999999831
 20
-5.080000000000098
 40
0.5
  0
CIRCLE
  5
326
100
AcDbEntity
  8
universal_board
  6
ByLayer
 62
  256
370
   -1
100
AcDbCircle
 10
33.01999999999831
 20
-2.540000000000092
 40
0.5
  0
CIRCLE
  5
327
100
AcDbEntity
  8
universal_board
  6
ByLayer
 62
  256
370
   -1
100
AcDbCircle
 10
33.01999999999831
 20
0
 40
0.5
  0
CIRCLE
  5
328
100
AcDbEntity
  8
universal_board
  6
ByLayer
 62
  256
370
   -1
100
AcDbCircle
 10
35.55999999999823
 20
-20.32000000000019
 40
0.5
  0
CIRCLE
  5
329
100
AcDbEntity
  8
universal_board
  6
ByLayer
 62
  256
370
   -1
100
AcDbCircle
 10
35.55999999999823
 20
-17.7800000000002
 40
0.5
  0
CIRCLE
  5
32A
100
AcDbEntity
  8
universal_board
  6
ByLayer
 62
  256
370
   -1
100
AcDbCircle
 10
35.55999999999823
 20
-15.24000000000019
 40
0.5
  0
CIRCLE
  5
32B
100
AcDbEntity
  8
universal_board
  6
ByLayer
 62
  256
370
   -1
100
AcDbCircle
 10
35.55999999999822
 20
-12.70000000000019
 40
0.5
  0
CIRCLE
  5
32C
100
AcDbEntity
  8
universal_board
  6
ByLayer
 62
  256
370
   -1
100
AcDbCircle
 10
35.5599999999982
 20
-10.1600000000001
 40
0.5
  0
CIRCLE
  5
32D
100
AcDbEntity
  8
universal_board
  6
ByLayer
 62
  256
370
   -1
100
AcDbCircle
 10
35.5599999999982
 20
-7.62000000000009
 40
0.5
  0
CIRCLE
  5
32E
100
AcDbEntity
  8
universal_board
  6
ByLayer
 62
  256
370
   -1
100
AcDbCircle
 10
35.5599999999982
 20
-5.080000000000098
 40
0.5
  0
CIRCLE
  5
32F
100
AcDbEntity
  8
universal_board
  6
ByLayer
 62
  256
370
   -1
100
AcDbCircle
 10
35.55999999999818
 20
-2.540000000000092
 40
0.5
  0
CIRCLE
  5
330
100
AcDbEntity
  8
universal_board
  6
ByLayer
 62
  256
370
   -1
100
AcDbCircle
 10
35.55999999999818
 20
0
 40
0.5
  0
CIRCLE
  5
331
100
AcDbEntity
  8
universal_board
  6
ByLayer
 62
  256
370
   -1
100
AcDbCircle
 10
38.0999999999981
 20
-20.32000000000019
 40
0.5
  0
CIRCLE
  5
332
100
AcDbEntity
  8
universal_board
  6
ByLayer
 62
  256
370
   -1
100
AcDbCircle
 10
38.0999999999981
 20
-17.7800000000002
 40
0.5
  0
CIRCLE
  5
333
100
AcDbEntity
  8
universal_board
  6
ByLayer
 62
  256
370
   -1
100
AcDbCircle
 10
38.0999999999981
 20
-15.24000000000019
 40
0.5
  0
CIRCLE
  5
334
100
AcDbEntity
  8
universal_board
  6
ByLayer
 62
  256
370
   -1
100
AcDbCircle
 10
38.09999999999808
 20
-12.70000000000019
 40
0.5
  0
CIRCLE
  5
335
100
AcDbEntity
  8
universal_board
  6
ByLayer
 62
  256
370
   -1
100
AcDbCircle
 10
38.09999999999808
 20
-10.1600000000001
 40
0.5
  0
CIRCLE
  5
336
100
AcDbEntity
  8
universal_board
  6
ByLayer
 62
  256
370
   -1
100
AcDbCircle
 10
38.09999999999808
 20
-7.62000000000009
 40
0.5
  0
CIRCLE
  5
337
100
AcDbEntity
  8
universal_board
  6
ByLayer
 62
  256
370
   -1
100
AcDbCircle
 10
38.09999999999805
 20
-5.080000000000098
 40
0.5
  0
CIRCLE
  5
338
100
AcDbEntity
  8
universal_board
  6
ByLayer
 62
  256
370
   -1
100
AcDbCircle
 10
38.09999999999805
 20
-2.540000000000092
 40
0.5
  0
CIRCLE
  5
339
100
AcDbEntity
  8
universal_board
  6
ByLayer
 62
  256
370
   -1
100
AcDbCircle
 10
38.09999999999805
 20
0
 40
0.5
  0
CIRCLE
  5
33A
100
AcDbEntity
  8
universal_board
  6
ByLayer
 62
  256
370
   -1
100
AcDbCircle
 10
40.63999999999798
 20
-20.32000000000019
 40
0.5
  0
CIRCLE
  5
33B
100
AcDbEntity
  8
universal_board
  6
ByLayer
 62
  256
370
   -1
100
AcDbCircle
 10
40.63999999999798
 20
-17.7800000000002
 40
0.5
  0
CIRCLE
  5
33C
100
AcDbEntity
  8
universal_board
  6
ByLayer
 62
  256
370
   -1
100
AcDbCircle
 10
40.63999999999798
 20
-15.24000000000019
 40
0.5
  0
CIRCLE
  5
33D
100
AcDbEntity
  8
universal_board
  6
ByLayer
 62
  256
370
   -1
100
AcDbCircle
 10
40.63999999999797
 20
-12.70000000000019
 40
0.5
  0
CIRCLE
  5
33E
100
AcDbEntity
  8
universal_board
  6
ByLayer
 62
  256
370
   -1
100
AcDbCircle
 10
40.63999999999795
 20
-10.1600000000001
 40
0.5
  0
CIRCLE
  5
33F
100
AcDbEntity
  8
universal_board
  6
ByLayer
 62
  256
370
   -1
100
AcDbCircle
 10
40.63999999999795
 20
-7.62000000000009
 40
0.5
  0
CIRCLE
  5
340
100
AcDbEntity
  8
universal_board
  6
ByLayer
 62
  256
370
   -1
100
AcDbCircle
 10
40.63999999999793
 20
-5.080000000000098
 40
0.5
  0
CIRCLE
  5
341
100
AcDbEntity
  8
universal_board
  6
ByLayer
 62
  256
370
   -1
100
AcDbCircle
 10
40.63999999999792
 20
-2.540000000000092
 40
0.5
  0
CIRCLE
  5
342
100
AcDbEntity
  8
universal_board
  6
ByLayer
 62
  256
370
   -1
100
AcDbCircle
 10
40.63999999999792
 20
0
 40
0.5
  0
CIRCLE
  5
343
100
AcDbEntity
  8
universal_board
  6
ByLayer
 62
  256
370
   -1
100
AcDbCircle
 10
43.17999999999783
 20
-20.32000000000019
 40
0.5
  0
CIRCLE
  5
344
100
AcDbEntity
  8
universal_board
  6
ByLayer
 62
  256
370
   -1
100
AcDbCircle
 10
43.17999999999783
 20
-17.7800000000002
 40
0.5
  0
CIRCLE
  5
345
100
AcDbEntity
  8
universal_board
  6
ByLayer
 62
  256
370
   -1
100
AcDbCircle
 10
43.17999999999783
 20
-15.24000000000019
 40
0.5
  0
CIRCLE
  5
346
100
AcDbEntity
  8
universal_board
  6
ByLayer
 62
  256
370
   -1
100
AcDbCircle
 10
43.17999999999783
 20
-12.70000000000019
 40
0.5
  0
CIRCLE
  5
347
100
AcDbEntity
  8
universal_board
  6
ByLayer
 62
  256
370
   -1
100
AcDbCircle
 10
43.17999999999782
 20
-10.1600000000001
 40
0.5
  0
CIRCLE
  5
348
100
AcDbEntity
  8
universal_board
  6
ByLayer
 62
  256
370
   -1
100
AcDbCircle
 10
43.17999999999782
 20
-7.62000000000009
 40
0.5
  0
CIRCLE
  5
349
100
AcDbEntity
  8
universal_board
  6
ByLayer
 62
  256
370
   -1
100
AcDbCircle
 10
43.1799999999978
 20
-5.080000000000098
 40
0.5
  0
CIRCLE
  5
34A
100
AcDbEntity
  8
universal_board
  6
ByLayer
 62
  256
370
   -1
100
AcDbCircle
 10
43.17999999999778
 20
-2.540000000000092
 40
0.5
  0
CIRCLE
  5
34B
100
AcDbEntity
  8
universal_board
  6
ByLayer
 62
  256
370
   -1
100
AcDbCircle
 10
43.17999999999778
 20
0
 40
0.5
  0
CIRCLE
  5
34C
100
AcDbEntity
  8
universal_board
  6
ByLayer
 62
  256
370
   -1
100
AcDbCircle
 10
27.93999999999865
 20
-30.48000000000023
 40
0.5
  0
CIRCLE
  5
34D
100
AcDbEntity
  8
universal_board
  6
ByLayer
 62
  256
370
   -1
100
AcDbCircle
 10
30.47999999999853
 20
-30.48000000000023
 40
0.5
  0
CIRCLE
  5
34E
100
AcDbEntity
  8
universal_board
  6
ByLayer
 62
  256
370
   -1
100
AcDbCircle
 10
33.01999999999838
 20
-30.48000000000023
 40
0.5
  0
CIRCLE
  5
34F
100
AcDbEntity
  8
universal_board
  6
ByLayer
 62
  256
370
   -1
100
AcDbCircle
 10
35.55999999999825
 20
-30.48000000000023
 40
0.5
  0
CIRCLE
  5
350
100
AcDbEntity
  8
universal_board
  6
ByLayer
 62
  256
370
   -1
100
AcDbCircle
 10
38.09999999999813
 20
-30.48000000000023
 40
0.5
  0
CIRCLE
  5
351
100
AcDbEntity
  8
universal_board
  6
ByLayer
 62
  256
370
   -1
100
AcDbCircle
 10
40.639999999998
 20
-30.48000000000023
 40
0.5
  0
CIRCLE
  5
352
100
AcDbEntity
  8
universal_board
  6
ByLayer
 62
  256
370
   -1
100
AcDbCircle
 10
27.93999999999865
 20
-33.02000000000024
 40
0.5
  0
CIRCLE
  5
353
100
AcDbEntity
  8
universal_board
  6
ByLayer
 62
  256
370
   -1
100
AcDbCircle
 10
30.47999999999853
 20
-33.02000000000024
 40
0.5
  0
CIRCLE
  5
354
100
AcDbEntity
  8
universal_board
  6
ByLayer
 62
  256
370
   -1
100
AcDbCircle
 10
33.0199999999984
 20
-33.02000000000024
 40
0.5
  0
CIRCLE
  5
355
100
AcDbEntity
  8
universal_board
  6
ByLayer
 62
  256
370
   -1
100
AcDbCircle
 10
35.55999999999827
 20
-33.02000000000024
 40
0.5
  0
CIRCLE
  5
356
100
AcDbEntity
  8
universal_board
  6
ByLayer
 62
  256
370
   -1
100
AcDbCircle
 10
38.09999999999813
 20
-33.02000000000024
 40
0.5
  0
CIRCLE
  5
357
100
AcDbEntity
  8
universal_board
  6
ByLayer
 62
  256
370
   -1
100
AcDbCircle
 10
40.639999999998
 20
-33.02000000000024
 40
0.5
  0
CIRCLE
  5
358
100
AcDbEntity
  8
universal_board
  6
ByLayer
 62
  256
370
   -1
100
AcDbCircle
 10
27.93999999999866
 20
-35.56000000000024
 40
0.5
  0
CIRCLE
  5
359
100
AcDbEntity
  8
universal_board
  6
ByLayer
 62
  256
370
   -1
100
AcDbCircle
 10
30.47999999999853
 20
-35.56000000000024
 40
0.5
  0
CIRCLE
  5
35A
100
AcDbEntity
  8
universal_board
  6
ByLayer
 62
  256
370
   -1
100
AcDbCircle
 10
33.0199999999984
 20
-35.56000000000024
 40
0.5
  0
CIRCLE
  5
35B
100
AcDbEntity
  8
universal_board
  6
ByLayer
 62
  256
370
   -1
100
AcDbCircle
 10
35.55999999999827
 20
-35.56000000000024
 40
0.5
  0
CIRCLE
  5
35C
100
AcDbEntity
  8
universal_board
  6
ByLayer
 62
  256
370
   -1
100
AcDbCircle
 10
38.09999999999815
 20
-35.56000000000024
 40
0.5
  0
CIRCLE
  5
35D
100
AcDbEntity
  8
universal_board
  6
ByLayer
 62
  256
370
   -1
100
AcDbCircle
 10
40.63999999999802
 20
-35.56000000000024
 40
0.5
  0
LINE
  5
35E
100
AcDbEntity
  8
universal_board
  6
ByLayer
 62
  256
370
   -1
100
AcDbLine
 10
24.12999999999882
 20
-21.59000000000048
 11
44.44999999999797
 21
-21.59000000000048
  0
LINE
  5
35F
100
AcDbEntity
  8
universal_board
  6
ByLayer
 62
  256
370
   -1
100
AcDbLine
 10
24.12999999999875
 20
1.269999999999719
 11
44.44999999999791
 21
1.269999999999719
  0
LINE
  5
360
100
AcDbEntity
  8
universal_board
  6
ByLayer
 62
  256
370
   -1
100
AcDbLine
 10
24.12999999999889
 20
1.269999999999718
 11
24.12999999999889
 21
-21.59000000000048
  0
LINE
  5
361
100
AcDbEntity
  8
universal_board
  6
ByLayer
 62
  256
370
   -1
100
AcDbLine
 10
44.44999999999785
 20
1.269999999999718
 11
44.44999999999785
 21
-21.59000000000048
  0
LINE
  5
362
100
AcDbEntity
  8
universal_board
  6
ByLayer
 62
  256
370
   -1
100
AcDbLine
 10
26.6699999999987
 20
-29.21000000000051
 11
41.90999999999805
 21
-29.21000000000051
  0
LINE
  5
363
100
AcDbEntity
  8
universal_board
  6
ByLayer
 62
  256
370
   -1
100
AcDbLine
 10
26.66999999999872
 20
-36.83000000000064
 11
41.90999999999805
 21
-36.83000000000064
  0
LINE
  5
364
100
AcDbEntity
  8
universal_board
  6
ByLayer
 62
  256
370
   -1
100
AcDbLine
 10
26.66999999999884
 20
-29.21000000000051
 11
26.66999999999884
 21
-36.83000000000064
  0
LINE
  5
365
100
AcDbEntity
  8
universal_board
  6
ByLayer
 62
  256
370
   -1
100
AcDbLine
 10
41.90999999999805
 20
-29.21000000000051
 11
41.90999999999805
 21
-36.83000000000064
  0
CIRCLE
  5
366
100
AcDbEntity
  8
0_wire
  6
ByLayer
 62
  256
370
  200
100
AcDbCircle
 10
27.93999999999857
 20
-2.84217094304023e-14
 40
0.4
  0
LINE
  5
367
100
AcDbEntity
  8
0_wire
  6
ByLayer
 62
  256
370
  200
100
AcDbLine
 10
30.47999999999848
 20
-15.2400000000002
 11
25.39999999999874
 21
-15.24000000000023
  0
LINE
  5
368
100
AcDbEntity
  8
0_wire
  6
ByLayer
 62
  256
370
  200
100
AcDbLine
 10
30.47999999999849
 20
-17.78000000000021
 11
25.39999999999876
 21
-17.78000000000024
  0
LINE
  5
369
100
AcDbEntity
  8
0_wire
  6
ByLayer
 62
  256
370
  200
100
AcDbLine
 10
30.4799999999985
 20
-20.32000000000021
 11
25.39999999999877
 21
-20.32000000000023
  0
LINE
  5
36A
100
AcDbEntity
  8
0_wire
  6
ByLayer
 62
  256
370
  200
100
AcDbLine
 10
38.09999999999808
 20
-12.70000000000016
 11
43.17999999999781
 21
-12.70000000000013
  0
LINE
  5
36B
100
AcDbEntity
  8
5V line
  6
ByLayer
 62
  256
370
  200
100
AcDbLine
 10
43.17999999999781
 20
-5.080000000000041
 11
40.63999999999793
 21
-5.080000000000057
  0
LINE
  5
36C
100
AcDbEntity
  8
5V line
  6
ByLayer
 62
  256
370
  200
100
AcDbLine
 10
40.63999999999793
 20
-5.080000000000057
 11
38.09999999999807
 21
-5.080000000000069
  0
CIRCLE
  5
36D
100
AcDbEntity
  8
5V line
  6
ByLayer
 62
  256
370
  200
100
AcDbCircle
 10
40.63999999999793
 20
4.263256414560346e-14
 40
0.4
  0
LINE
  5
36E
100
AcDbEntity
  8
0_wire
  6
ByLayer
 62
  256
370
  200
100
AcDbLine
 10
38.09999999999805
 20
-7.620000000000063
 11
43.1799999999978
 21
-7.620000000000035
  0
LINE
  5
36F
100
AcDbEntity
  8
0_wire
  6
ByLayer
 62
  256
370
  200
100
AcDbLine
 10
38.09999999999807
 20
-10.16000000000007
 11
43.17999999999781
 21
-10.16000000000005
  0
LINE
  5
370
100
AcDbEntity
  8
0_wire
  6
ByLayer
 62
  256
370
  200
100
AcDbLine
 10
38.09999999999808
 20
-15.24000000000016
 11
43.17999999999783
 21
-15.24000000000013
  0
LINE
  5
371
100
AcDbEntity
  8
0_wire
  6
ByLayer
 62
  256
370
  200
100
AcDbLine
 10
38.09999999999809
 20
-17.78000000000017
 11
43.17999999999784
 21
-17.78000000000014
  0
LINE
  5
372
100
AcDbEntity
  8
0_wire
  6
ByLayer
 62
  256
370
  200
100
AcDbLine
 10
38.0999999999981
 20
-20.32000000000016
 11
43.17999999999785
 21
-20.32000000000014
  0
LINE
  5
373
100
AcDbEntity
  8
0_wire
  6
ByLayer
 62
  256
370
  200
100
AcDbLine
 10
30.47999999999846
 20
-10.16000000000012
 11
25.39999999999873
 21
-10.16000000000014
  0
LINE
  5
374
100
AcDbEntity
  8
0_wire
  6
ByLayer
 62
  256
370
  200
100
AcDbLine
 10
30.47999999999845
 20
-7.620000000000104
 11
25.39999999999871
 21
-7.620000000000134
  0
LINE
  5
375
100
AcDbEntity
  8
3.3V line
  6
ByLayer
 62
  256
370
  200
100
AcDbLine
 10
30.4799999999961
 20
-12.70000000000002
 11
25.39999999999609
 21
-12.70000000000005
  0
LINE
  5
376
100
AcDbEntity
  8
0_GND
  6
ByLayer
 62
  256
370
  200
100
AcDbLine
 10
38.09999999999804
 20
2.842170943040222e-14
 11
38.09999999999805
 21
-2.540000000000064
  0
LINE
  5
377
100
AcDbEntity
  8
0_GND
  6
ByLayer
 62
  256
370
  200
100
AcDbLine
 10
38.09999999999805
 20
-2.540000000000064
 11
40.63999999999794
 21
-2.540000000000049
  0
LINE
  5
378
100
AcDbEntity
  8
0_GND
  6
ByLayer
 62
  256
370
  200
100
AcDbLine
 10
30.47999999999846
 20
-5.080000000000112
 11
25.39999999999872
 21
-5.08000000000014
  0
LINE
  5
379
100
AcDbEntity
  8
0_GND
  6
ByLayer
 62
  256
370
  200
100
AcDbLine
 10
25.39999999999872
 20
-5.08000000000014
 11
25.39999999999872
 21
-2.540000000000134
  0
LINE
  5
37A
100
AcDbEntity
  8
0_wire
  6
ByLayer
 62
  256
370
  200
100
AcDbLine
 10
33.01999999999835
 20
-17.7800000000002
 11
30.47999999999849
 21
-17.78000000000021
  0
LINE
  5
37B
100
AcDbEntity
  8
0_wire
  6
ByLayer
 62
  256
370
  200
100
AcDbLine
 10
30.47999999999844
 20
-1.421085471520115e-14
 11
30.47999999999845
 21
-2.540000000000105
  0
LINE
  5
37C
100
AcDbEntity
  8
0_wire
  6
ByLayer
 62
  256
370
  200
100
AcDbLine
 10
30.47999999999845
 20
-2.540000000000105
 11
27.93999999999858
 21
-2.54000000000012
  0
LINE
  5
37D
100
AcDbEntity
  8
0_wire
  6
ByLayer
 62
  256
370
  200
100
AcDbLine
 10
33.01999999999831
 20
0
 11
33.01999999999833
 21
-2.540000000000092
  0
LINE
  5
37E
100
AcDbEntity
  8
0_wire
  6
ByLayer
 62
  256
370
  200
100
AcDbLine
 10
33.01999999999833
 20
-7.620000000000091
 11
33.01999999999835
 21
-17.7800000000002
  0
LINE
  5
37F
100
AcDbEntity
  8
0_GND
  6
ByLayer
 62
  256
370
  200
100
AcDbLine
 10
30.47999999999846
 20
-5.080000000000112
 11
35.5599999999982
 21
-5.080000000000084
  0
LINE
  5
380
100
AcDbEntity
  8
0_GND
  6
ByLayer
 62
  256
370
  200
100
AcDbLine
 10
35.5599999999982
 20
-5.080000000000084
 11
35.55999999999819
 21
-2.540000000000078
  0
LINE
  5
381
100
AcDbEntity
  8
0_GND
  6
ByLayer
 62
  256
370
  200
100
AcDbLine
 10
35.55999999999819
 20
-2.540000000000078
 11
38.09999999999805
 21
-2.540000000000064
  0
LINE
  5
382
100
AcDbEntity
  8
5V line
  6
ByLayer
 62
  256
370
  200
100
AcDbLine
 10
40.63999999999619
 20
-30.47999999999995
 11
40.63999999999622
 21
-35.55999999999995
  0
LINE
  5
383
100
AcDbEntity
  8
0_GND
  6
ByLayer
 62
  256
370
  200
100
AcDbLine
 10
38.09999999999619
 20
-30.47999999999996
 11
38.09999999999622
 21
-35.55999999999997
  0
LINE
  5
384
100
AcDbEntity
  8
0_wire
  6
ByLayer
 62
  256
370
  200
100
AcDbLine
 10
33.0199999999984
 20
-30.48000000000023
 11
33.01999999999842
 21
-35.56000000000024
  0
LINE
  5
385
100
AcDbEntity
  8
0_wire
  6
ByLayer
 62
  256
370
  200
100
AcDbLine
 10
30.47999999999853
 20
-30.48000000000025
 11
30.47999999999854
 21
-35.56000000000025
  0
LINE
  5
386
100
AcDbEntity
  8
0_wire
  6
ByLayer
 62
  256
370
  200
100
AcDbLine
 10
27.93999999999866
 20
-30.48000000000027
 11
27.93999999999867
 21
-35.56000000000027
  0
MTEXT
  5
387
100
AcDbEntity
  8
socket_header
  6
ByLayer
 62
  256
370
   -1
100
AcDbMText
 10
1.54694151126964
 20
3.034385272105832
 30
0
 40
1
 41
1.132222222222222
 71
    4
 72
    1
  1
J1
  7
kst32b
210
0
220
0
230
1
 50
0
 73
    2
 44
1.54
  0
MTEXT
  5
388
100
AcDbEntity
  8
socket_header
  6
ByLayer
 62
  256
370
   -1
100
AcDbMText
 10
15.82640161529709
 20
2.915389771238937
 30
0
 40
1
 41
1.236666666666667
 71
    4
 72
    1
  1
J2
  7
kst32b
210
0
220
0
230
1
 50
0
 73
    2
 44
1.54
  0
MTEXT
  5
389
100
AcDbEntity
  8
socket_header
  6
ByLayer
 62
  256
370
   -1
100
AcDbMText
 10
-3.153380772972727
 20
-4.402833532075129
 30
0
 40
1
 41
1.201111111111111
 71
    4
 72
    1
  1
J3
  7
kst32b
210
0
220
0
230
1
 50
0
 73
    2
 44
1.54
  0
MTEXT
  5
38A
100
AcDbEntity
  8
micon
  6
ByLayer
 62
  256
370
   -1
100
AcDbMText
 10
8.392760178728951
 20
-6.46123680071338
 30
0
 40
1
 41
1.111111111111111
 71
    4
 72
    1
  1
U1
  7
iso
210
0
220
0
230
1
 50
0
 73
    2
 44
1.54
  0
MTEXT
  5
38B
100
AcDbEntity
  8
condenser
  6
ByLayer
 62
  256
370
   -1
100
AcDbMText
 10
2.141919015604117
 20
-3.629362776440309
 30
0
 40
1
 41
1.202222222222222
 71
    4
 72
    1
  1
C1
  7
kst32b
210
0
220
0
230
1
 50
0
 73
    2
 44
1.54
  0
MTEXT
  5
38C
100
AcDbEntity
  8
universal_board
  6
ByLayer
 62
  256
370
   -1
100
AcDbMText
 10
-1.011461757368611
 20
2.617901019071698
 30
0
 40
1
 41
1.202222222222222
 71
    4
 72
    1
  1
B1
  7
kst32b
210
0
220
0
230
1
 50
0
 73
    2
 44
1.54
  0
MTEXT
  5
38D
100
AcDbEntity
  8
socket_header
  6
ByLayer
 62
  256
370
   -1
100
AcDbMText
 10
19.06275089433808
 20
-4.319317785109263
 30
0
 40
1
 41
1.236666666666667
 71
    4
 72
    1
  1
J4
  7
kst32b
210
0
220
0
230
1
 50
0
 73
    2
 44
1.54
  0
MTEXT
  5
38E
100
AcDbEntity
  8
universal_board
  6
ByLayer
 62
  256
370
   -1
100
AcDbMText
 10
0.8924662565017154
 20
-37.72157377480583
 30
0
 40
1
 41
1.306666666666667
 71
    4
 72
    1
  1
B2
  7
kst32b
210
0
220
0
230
1
 50
0
 73
    2
 44
1.54
  0
MTEXT
  5
38F
100
AcDbEntity
  8
socket_header
  6
ByLayer
 62
  256
370
   -1
100
AcDbMText
 10
-0.1189955008668954
 20
-29.45138646455661
 30
0
 40
1
 41
1.097777777777778
 71
    4
 72
    1
  1
H1
  7
kst32b
210
0
220
0
230
1
 50
0
 73
    2
 44
1.54
  0
MTEXT
  5
390
100
AcDbEntity
  8
socket_header
  6
ByLayer
 62
  256
370
   -1
100
AcDbMText
 10
12.8515140936247
 20
-22.43065191340978
 30
0
 40
1
 41
1.166666666666667
 71
    4
 72
    1
  1
S1
  7
kst32b
210
0
220
0
230
1
 50
0
 73
    2
 44
1.54
  0
MTEXT
  5
391
100
AcDbEntity
  8
socket_header
  6
ByLayer
 62
  256
370
   -1
100
AcDbMText
 10
-0.1189955008668954
 20
-35.28216600703448
 30
0
 40
1
 41
1.202222222222222
 71
    4
 72
    1
  1
H2
  7
kst32b
210
0
220
0
230
1
 50
0
 73
    2
 44
1.54
  0
MTEXT
  5
392
100
AcDbEntity
  8
socket_header
  6
ByLayer
 62
  256
370
   -1
100
AcDbMText
 10
16.89736112309915
 20
-29.5703819654235
 30
0
 40
1
 41
1.166666666666667
 71
    4
 72
    1
  1
H3
  7
kst32b
210
0
220
0
230
1
 50
0
 73
    2
 44
1.54
  0
MTEXT
  5
393
100
AcDbEntity
  8
socket_header
  6
ByLayer
 62
  256
370
   -1
100
AcDbMText
 10
17.19484987526638
 20
-35.16317050616759
 30
0
 40
1
 41
1.202222222222222
 71
    4
 72
    1
  1
H4
  7
kst32b
210
0
220
0
230
1
 50
0
 73
    2
 44
1.54
  0
MTEXT
  5
394
100
AcDbEntity
  8
0
  6
ByLayer
 62
  256
370
   -1
100
AcDbMText
 10
-0.1445011684747093
 20
9.305302236885193
 30
0
 40
1
 41
21.07333333333333
 71
    4
 72
    1
  1
B1: 基板 8x9P\PC1: セラコン 0.22uF\PC2: セラコン 1.5uF\PJ1,2: 2P, 3P または 6P ソケット\PJ3,4: 7P ソケット\PS1: IC ソケット 14P\PU1: PIC16F1455\P
  7
kst32b
210
0
220
0
230
1
 50
0
 73
    2
 44
1
  0
MTEXT
  5
395
100
AcDbEntity
  8
0
  6
ByLayer
 62
  256
370
   -1
100
AcDbMText
 10
2.186361385358029
 20
-42.41541087594576
 30
0
 40
1
 41
12.04333333333333
 71
    4
 72
    1
  1
P-P-Prog アダプタ\PB2: 6x3P 基板\PH1,2: ヘッダ 2P\PH3,4: ヘッダ 3P
  7
kst32b
210
0
220
0
230
1
 50
0
 73
    2
 44
1
  0
LINE
  5
396
100
AcDbEntity
  8
universal_board
  6
ByLayer
 62
  256
370
   -1
100
AcDbLine
 10
26.66999999999876
 20
1.269999999999718
 11
26.66999999999876
 21
-21.59000000000048
  0
LINE
  5
397
100
AcDbEntity
  8
universal_board
  6
ByLayer
 62
  256
370
   -1
100
AcDbLine
 10
29.20999999999862
 20
1.269999999999718
 11
29.20999999999862
 21
-21.59000000000048
  0
LINE
  5
398
100
AcDbEntity
  8
universal_board
  6
ByLayer
 62
  256
370
   -1
100
AcDbLine
 10
31.74999999999849
 20
1.269999999999718
 11
31.74999999999849
 21
-21.59000000000048
  0
LINE
  5
399
100
AcDbEntity
  8
universal_board
  6
ByLayer
 62
  256
370
   -1
100
AcDbLine
 10
34.28999999999835
 20
1.269999999999718
 11
34.28999999999835
 21
-21.59000000000048
  0
LINE
  5
39A
100
AcDbEntity
  8
universal_board
  6
ByLayer
 62
  256
370
   -1
100
AcDbLine
 10
36.82999999999821
 20
1.269999999999718
 11
36.82999999999821
 21
-21.59000000000048
  0
LINE
  5
39B
100
AcDbEntity
  8
universal_board
  6
ByLayer
 62
  256
370
   -1
100
AcDbLine
 10
39.36999999999808
 20
1.269999999999718
 11
39.36999999999808
 21
-21.59000000000048
  0
LINE
  5
39C
100
AcDbEntity
  8
universal_board
  6
ByLayer
 62
  256
370
   -1
100
AcDbLine
 10
41.90999999999794
 20
1.269999999999718
 11
41.90999999999794
 21
-21.59000000000048
  0
LINE
  5
39D
100
AcDbEntity
  8
universal_board
  6
ByLayer
 62
  256
370
   -1
100
AcDbLine
 10
24.12999999999882
 20
-19.05000000000049
 11
44.44999999999797
 21
-19.05000000000049
  0
LINE
  5
39E
100
AcDbEntity
  8
universal_board
  6
ByLayer
 62
  256
370
   -1
100
AcDbLine
 10
24.12999999999882
 20
-16.5100000000005
 11
44.44999999999797
 21
-16.5100000000005
  0
LINE
  5
39F
100
AcDbEntity
  8
universal_board
  6
ByLayer
 62
  256
370
   -1
100
AcDbLine
 10
24.12999999999882
 20
-13.97000000000051
 11
44.44999999999797
 21
-13.97000000000051
  0
LINE
  5
3A0
100
AcDbEntity
  8
universal_board
  6
ByLayer
 62
  256
370
   -1
100
AcDbLine
 10
24.12999999999882
 20
-11.43000000000053
 11
44.44999999999797
 21
-11.43000000000053
  0
LINE
  5
3A1
100
AcDbEntity
  8
universal_board
  6
ByLayer
 62
  256
370
   -1
100
AcDbLine
 10
24.12999999999882
 20
-8.890000000000537
 11
44.44999999999797
 21
-8.890000000000537
  0
LINE
  5
3A2
100
AcDbEntity
  8
universal_board
  6
ByLayer
 62
  256
370
   -1
100
AcDbLine
 10
24.12999999999882
 20
-6.350000000000549
 11
44.44999999999797
 21
-6.350000000000549
  0
LINE
  5
3A3
100
AcDbEntity
  8
universal_board
  6
ByLayer
 62
  256
370
   -1
100
AcDbLine
 10
24.12999999999882
 20
-3.81000000000056
 11
44.44999999999797
 21
-3.81000000000056
  0
LINE
  5
3A4
100
AcDbEntity
  8
universal_board
  6
ByLayer
 62
  256
370
   -1
100
AcDbLine
 10
24.12999999999882
 20
-1.270000000000572
 11
44.44999999999797
 21
-1.270000000000572
  0
LINE
  5
3A5
100
AcDbEntity
  8
universal_board
  6
ByLayer
 62
  256
370
   -1
100
AcDbLine
 10
29.20999999999872
 20
-29.21000000000051
 11
29.20999999999872
 21
-36.83000000000064
  0
LINE
  5
3A6
100
AcDbEntity
  8
universal_board
  6
ByLayer
 62
  256
370
   -1
100
AcDbLine
 10
31.7499999999986
 20
-29.21000000000051
 11
31.7499999999986
 21
-36.83000000000064
  0
LINE
  5
3A7
100
AcDbEntity
  8
universal_board
  6
ByLayer
 62
  256
370
   -1
100
AcDbLine
 10
34.28999999999848
 20
-29.21000000000051
 11
34.28999999999848
 21
-36.83000000000064
  0
LINE
  5
3A8
100
AcDbEntity
  8
universal_board
  6
ByLayer
 62
  256
370
   -1
100
AcDbLine
 10
36.82999999999836
 20
-29.21000000000051
 11
36.82999999999836
 21
-36.83000000000064
  0
LINE
  5
3A9
100
AcDbEntity
  8
universal_board
  6
ByLayer
 62
  256
370
   -1
100
AcDbLine
 10
39.36999999999824
 20
-29.21000000000051
 11
39.36999999999824
 21
-36.83000000000064
  0
LINE
  5
3AA
100
AcDbEntity
  8
universal_board
  6
ByLayer
 62
  256
370
   -1
100
AcDbLine
 10
26.66999999999872
 20
-31.75000000000052
 11
41.90999999999806
 21
-31.75000000000052
  0
LINE
  5
3AB
100
AcDbEntity
  8
universal_board
  6
ByLayer
 62
  256
370
   -1
100
AcDbLine
 10
26.66999999999873
 20
-34.29000000000052
 11
41.90999999999808
 21
-34.29000000000052
  0
CIRCLE
  5
3AC
100
AcDbEntity
  8
3.3V line
  6
ByLayer
 62
  256
370
   -1
100
AcDbCircle
 10
17.77999999999908
 20
0
 40
0.4
  0
CIRCLE
  5
3AD
100
AcDbEntity
  8
3.3V line
  6
ByLayer
 62
  256
370
  200
100
AcDbCircle
 10
25.4
 20
0
 40
0.4
  0
ENDSEC
  0
SECTION
  2
OBJECTS
  0
DICTIONARY
  5
C
330
0
100
AcDbDictionary
281
    1
  3
ACAD_GROUP
350
D
  0
DICTIONARY
  5
D
330
C
100
AcDbDictionary
281
    1
  0
PLOTSETTINGS
  5
3AE
100
AcDbPlotSettings
  6
1x1
 40
5
 41
5
 42
5
 43
5
  0
ENDSEC
  0
EOF
