999
dxfrw 0.6.3
  0
SECTION
  2
HEADER
  9
$ACADVER
  1
AC1021
  9
$DWGCODEPAGE
  3
ANSI_1252
  9
$INSBASE
 10
0
 20
0
 30
0
  9
$EXTMIN
 10
82.62095399781167
 20
-77.03000000000107
 30
0
  9
$EXTMAX
 10
150.489999999992
 20
-3.458786125144618
 30
0
  9
$LIMMIN
 10
0
 20
0
  9
$LIMMAX
 10
420
 20
297
  9
$ORTHOMODE
 70
    0
  9
$REGENMODE
 70
    1
  9
$FILLMODE
 70
    1
  9
$QTEXTMODE
 70
    0
  9
$MIRRTEXT
 70
    0
  9
$LTSCALE
 40
1
  9
$ATTMODE
 70
    0
  9
$TEXTSIZE
 40
2.5
  9
$TRACEWID
 40
15.68
  9
$TEXTSTYLE
  7
STANDARD
  9
$CLAYER
  8
condenser
  9
$CELTYPE
  6
BYLAYER
  9
$CECOLOR
 62
  256
  9
$CELTSCALE
 40
1
  9
$DISPSILH
 70
    0
  9
$DIMSCALE
 40
1
  9
$DIMASZ
 40
2.5
  9
$DIMEXO
 40
0.625
  9
$DIMDLI
 40
3.75
  9
$DIMRND
 40
0
  9
$DIMDLE
 40
0
  9
$DIMEXE
 40
1.25
  9
$DIMTP
 40
0
  9
$DIMTM
 40
0
  9
$DIMTXT
 40
2.5
  9
$DIMCEN
 40
2.5
  9
$DIMTSZ
 40
0
  9
$DIMTOL
 70
    0
  9
$DIMLIM
 70
    0
  9
$DIMTIH
 70
    0
  9
$DIMTOH
 70
    0
  9
$DIMSE1
 70
    0
  9
$DIMSE2
 70
    0
  9
$DIMTAD
 70
    1
  9
$DIMZIN
 70
    8
  9
$DIMBLK
  1

  9
$DIMASO
 70
    1
  9
$DIMSHO
 70
    1
  9
$DIMPOST
  1

  9
$DIMAPOST
  1

  9
$DIMALT
 70
    0
  9
$DIMALTD
 70
    3
  9
$DIMALTF
 40
0.03937
  9
$DIMLFAC
 40
1
  9
$DIMTOFL
 70
    1
  9
$DIMTVP
 40
0
  9
$DIMTIX
 70
    0
  9
$DIMSOXD
 70
    0
  9
$DIMSAH
 70
    0
  9
$DIMBLK1
  1

  9
$DIMBLK2
  1

  9
$DIMSTYLE
  2
STANDARD
  9
$DIMCLRD
 70
    0
  9
$DIMCLRE
 70
    0
  9
$DIMCLRT
 70
    0
  9
$DIMTFAC
 40
1
  9
$DIMGAP
 40
0.625
  9
$DIMJUST
 70
    0
  9
$DIMSD1
 70
    0
  9
$DIMSD2
 70
    0
  9
$DIMTOLJ
 70
    0
  9
$DIMTZIN
 70
    8
  9
$DIMALTZ
 70
    0
  9
$DIMALTTZ
 70
    0
  9
$DIMUPT
 70
    0
  9
$DIMDEC
 70
    2
  9
$DIMTDEC
 70
    2
  9
$DIMALTU
 70
    2
  9
$DIMALTTD
 70
    3
  9
$DIMTXSTY
  7
standard
  9
$DIMAUNIT
 70
    0
  9
$DIMADEC
 70
    0
  9
$DIMALTRND
 40
0
  9
$DIMAZIN
 70
    0
  9
$DIMDSEP
 70
   44
  9
$DIMATFIT
 70
    3
  9
$DIMFRAC
 70
    0
  9
$DIMLDRBLK
  1
STANDARD
  9
$DIMLUNIT
 70
    2
  9
$DIMLWD
 70
   -2
  9
$DIMLWE
 70
   -2
  9
$DIMTMOVE
 70
    0
  9
$DIMFXL
 40
1
  9
$DIMFXLON
 70
    0
  9
$DIMJOGANG
 40
0.7854
  9
$DIMTFILL
 70
    0
  9
$DIMTFILLCLR
 70
    0
  9
$DIMARCSYM
 70
    0
  9
$DIMLTYPE
  6

  9
$DIMLTEX1
  6

  9
$DIMLTEX2
  6

  9
$LUNITS
 70
    2
  9
$LUPREC
 70
    4
  9
$SKETCHINC
 40
1
  9
$FILLETRAD
 40
0
  9
$AUNITS
 70
    0
  9
$AUPREC
 70
    2
  9
$MENU
  1
.
  9
$ELEVATION
 40
0
  9
$PELEVATION
 40
0
  9
$THICKNESS
 40
0
  9
$LIMCHECK
 70
    0
  9
$CHAMFERA
 40
0
  9
$CHAMFERB
 40
0
  9
$CHAMFERC
 40
0
  9
$CHAMFERD
 40
0
  9
$SKPOLY
 70
    0
  9
$USRTIMER
 70
    1
  9
$ANGBASE
 50
0
  9
$ANGDIR
 70
    0
  9
$PDMODE
 70
   34
  9
$PDSIZE
 40
0
  9
$PLINEWID
 40
0
  9
$SPLFRAME
 70
    0
  9
$SPLINETYPE
 70
    2
  9
$SPLINESEGS
 70
    8
  9
$HANDSEED
  5
20000
  9
$SURFTAB1
 70
    6
  9
$SURFTAB2
 70
    6
  9
$SURFTYPE
 70
    6
  9
$SURFU
 70
    6
  9
$SURFV
 70
    6
  9
$UCSBASE
  2

  9
$UCSNAME
  2

  9
$UCSORG
 10
0
 20
0
 30
0
  9
$UCSXDIR
 10
1
 20
0
 30
0
  9
$UCSYDIR
 10
0
 20
1
 30
0
  9
$UCSORTHOREF
  2

  9
$UCSORTHOVIEW
 70
    0
  9
$UCSORGTOP
 10
0
 20
0
 30
0
  9
$UCSORGBOTTOM
 10
0
 20
0
 30
0
  9
$UCSORGLEFT
 10
0
 20
0
 30
0
  9
$UCSORGRIGHT
 10
0
 20
0
 30
0
  9
$UCSORGFRONT
 10
0
 20
0
 30
0
  9
$UCSORGBACK
 10
0
 20
0
 30
0
  9
$PUCSBASE
  2

  9
$PUCSNAME
  2

  9
$PUCSORG
 10
0
 20
0
 30
0
  9
$PUCSXDIR
 10
1
 20
0
 30
0
  9
$PUCSYDIR
 10
0
 20
1
 30
0
  9
$PUCSORTHOREF
  2

  9
$PUCSORTHOVIEW
 70
    0
  9
$PUCSORGTOP
 10
0
 20
0
 30
0
  9
$PUCSORGBOTTOM
 10
0
 20
0
 30
0
  9
$PUCSORGLEFT
 10
0
 20
0
 30
0
  9
$PUCSORGRIGHT
 10
0
 20
0
 30
0
  9
$PUCSORGFRONT
 10
0
 20
0
 30
0
  9
$PUCSORGBACK
 10
0
 20
0
 30
0
  9
$USERI1
 70
    0
  9
$USERI2
 70
    0
  9
$USERI3
 70
    0
  9
$USERI4
 70
    0
  9
$USERI5
 70
    0
  9
$USERR1
 40
0
  9
$USERR2
 40
0
  9
$USERR3
 40
0
  9
$USERR4
 40
0
  9
$USERR5
 40
0
  9
$WORLDVIEW
 70
    1
  9
$SHADEDGE
 70
    3
  9
$SHADEDIF
 70
   70
  9
$TILEMODE
 70
    1
  9
$MAXACTVP
 70
   64
  9
$PINSBASE
 10
-168.3507650211154
 20
214.4025528273272
 30
0
  9
$PLIMCHECK
 70
    0
  9
$PEXTMIN
 10
0
 20
0
 30
0
  9
$PEXTMAX
 10
0
 20
0
 30
0
  9
$GRIDMODE
 70
    0
  9
$SNAPSTYLE
 70
    0
  9
$GRIDUNIT
 10
0
 20
0
  9
$PLIMMIN
 10
0
 20
0
  9
$PLIMMAX
 10
297
 20
210
  9
$UNITMODE
 70
    0
  9
$VISRETAIN
 70
    1
  9
$PLINEGEN
 70
    0
  9
$PSLTSCALE
 70
    1
  9
$TREEDEPTH
 70
 3020
  9
$CMLSTYLE
  2
Standard
  9
$CMLJUST
 70
    0
  9
$CMLSCALE
 40
20
  9
$PROXYGRAPHICS
 70
    1
  9
$MEASUREMENT
 70
    1
  9
$CELWEIGHT
370
   -1
  9
$ENDCAPS
280
    0
  9
$JOINSTYLE
280
    0
  9
$LWDISPLAY
290
    0
  9
$INSUNITS
 70
    0
  9
$HYPERLINKBASE
  1

  9
$STYLESHEET
  1

  9
$XEDIT
290
    1
  9
$CEPSNTYPE
380
    0
  9
$PSTYLEMODE
290
    1
  9
$EXTNAMES
290
    1
  9
$PSVPSCALE
 40
2.718454534951633
  9
$OLESTARTUP
290
    0
  9
$SORTENTS
280
  127
  9
$INDEXCTL
280
    0
  9
$HIDETEXT
280
    1
  9
$XCLIPFRAME
290
    0
  9
$HALOGAP
280
    0
  9
$OBSCOLOR
 70
  257
  9
$OBSLTYPE
280
    0
  9
$INTERSECTIONDISPLAY
280
    0
  9
$INTERSECTIONCOLOR
 70
  257
  9
$DIMASSOC
280
    1
  9
$PROJECTNAME
  1

  9
$CAMERADISPLAY
290
    0
  9
$LENSLENGTH
 40
50
  9
$CAMERAHEIGHT
 40
0
  9
$STEPSPERSEC
 40
2
  9
$STEPSIZE
 40
50
  9
$3DDWFPREC
 40
2
  9
$PSOLWIDTH
 40
5
  9
$PSOLHEIGHT
 40
80
  9
$LOFTANG1
 40
1.570796326794897
  9
$LOFTANG2
 40
1.570796326794897
  9
$LOFTMAG1
 40
0
  9
$LOFTMAG2
 40
0
  9
$LOFTPARAM
 70
    7
  9
$LOFTNORMALS
280
    1
  9
$LATITUDE
 40
1
  9
$LONGITUDE
 40
1
  9
$NORTHDIRECTION
 40
0
  9
$TIMEZONE
 70
-8000
  9
$LIGHTGLYPHDISPLAY
280
    1
  9
$TILEMODELIGHTSYNCH
280
    1
  9
$SOLIDHIST
280
    1
  9
$SHOWHIST
280
    1
  9
$DWFFRAME
280
    2
  9
$DGNFRAME
280
    0
  9
$REALWORLDSCALE
290
    1
  9
$INTERFERECOLOR
 62
    1
  9
$CSHADOW
280
    0
  9
$SHADOWPLANELOCATION
 40
0
  0
ENDSEC
  0
SECTION
  2
CLASSES
  0
ENDSEC
  0
SECTION
  2
TABLES
  0
TABLE
  2
VPORT
  5
8
330
0
100
AcDbSymbolTable
 70
    1
  0
VPORT
  5
31
330
2
100
AcDbSymbolTableRecord
100
AcDbViewportTableRecord
  2
*ACTIVE
 70
    0
 10
0
 20
0
 11
1
 21
1
 12
97.96914146644468
 22
-2.132545526043637
 13
0
 23
0
 14
10
 24
10
 15
10
 25
10
 16
0
 26
0
 36
1
 17
0
 27
0
 37
0
 40
81.88974820007566
 41
1.626041666666667
 42
50
 43
0
 44
0
 50
0
 51
0
 71
    0
 72
  100
 73
    1
 74
    3
 75
    0
 76
    0
 77
    0
 78
    0
281
    0
 65
    1
110
0
120
0
130
0
111
1
121
0
131
0
112
0
122
1
132
0
 79
    0
146
0
348
10020
 60
    7
 61
    5
292
1
282
    1
141
0
142
0
 63
  250
421
3358443
  0
ENDTAB
  0
TABLE
  2
LTYPE
  5
5
330
0
100
AcDbSymbolTable
 70
    4
  0
LTYPE
  5
14
330
5
100
AcDbSymbolTableRecord
100
AcDbLinetypeTableRecord
  2
ByBlock
 70
    0
  3

 72
   65
 73
    0
 40
0
  0
LTYPE
  5
15
330
5
100
AcDbSymbolTableRecord
100
AcDbLinetypeTableRecord
  2
ByLayer
 70
    0
  3

 72
   65
 73
    0
 40
0
  0
LTYPE
  5
16
330
5
100
AcDbSymbolTableRecord
100
AcDbLinetypeTableRecord
  2
Continuous
 70
    0
  3
Solid line
 72
   65
 73
    0
 40
0
  0
LTYPE
  5
32
330
5
100
AcDbSymbolTableRecord
100
AcDbLinetypeTableRecord
  2
DOT
 70
    0
  3
Dot . . . . . . . . . . . . . . . . . . . . . .
 72
   65
 73
    2
 40
6.35
 49
0
 74
    0
 49
-6.35
 74
    0
  0
LTYPE
  5
33
330
5
100
AcDbSymbolTableRecord
100
AcDbLinetypeTableRecord
  2
DOTTINY
 70
    0
  3
Dot (.15x) .....................................
 72
   65
 73
    2
 40
0.9525
 49
0
 74
    0
 49
-0.9525
 74
    0
  0
LTYPE
  5
34
330
5
100
AcDbSymbolTableRecord
100
AcDbLinetypeTableRecord
  2
DOT2
 70
    0
  3
Dot (.5x) .....................................
 72
   65
 73
    2
 40
3.175
 49
0
 74
    0
 49
-3.175
 74
    0
  0
LTYPE
  5
35
330
5
100
AcDbSymbolTableRecord
100
AcDbLinetypeTableRecord
  2
DOTX2
 70
    0
  3
Dot (2x) .  .  .  .  .  .  .  .  .  .  .  .  .
 72
   65
 73
    2
 40
12.7
 49
0
 74
    0
 49
-12.7
 74
    0
  0
LTYPE
  5
36
330
5
100
AcDbSymbolTableRecord
100
AcDbLinetypeTableRecord
  2
DASHED
 70
    0
  3
Dashed _ _ _ _ _ _ _ _ _ _ _ _ _ _ _ _ _
 72
   65
 73
    2
 40
19.05
 49
12.7
 74
    0
 49
-6.35
 74
    0
  0
LTYPE
  5
37
330
5
100
AcDbSymbolTableRecord
100
AcDbLinetypeTableRecord
  2
DASHEDTINY
 70
    0
  3
Dashed (.15x) _ _ _ _ _ _ _ _ _ _ _ _ _ _ _ _ _
 72
   65
 73
    2
 40
2.8575
 49
1.905
 74
    0
 49
-0.9525
 74
    0
  0
LTYPE
  5
38
330
5
100
AcDbSymbolTableRecord
100
AcDbLinetypeTableRecord
  2
DASHED2
 70
    0
  3
Dashed (.5x) _ _ _ _ _ _ _ _ _ _ _ _ _ _ _ _ _
 72
   65
 73
    2
 40
9.524999999999999
 49
6.35
 74
    0
 49
-3.175
 74
    0
  0
LTYPE
  5
39
330
5
100
AcDbSymbolTableRecord
100
AcDbLinetypeTableRecord
  2
DASHEDX2
 70
    0
  3
Dashed (2x) ____  ____  ____  ____  ____  ___
 72
   65
 73
    2
 40
38.09999999999999
 49
25.4
 74
    0
 49
-12.7
 74
    0
  0
LTYPE
  5
3A
330
5
100
AcDbSymbolTableRecord
100
AcDbLinetypeTableRecord
  2
DASHDOT
 70
    0
  3
Dash dot __ . __ . __ . __ . __ . __ . __ . __
 72
   65
 73
    4
 40
25.4
 49
12.7
 74
    0
 49
-6.35
 74
    0
 49
0
 74
    0
 49
-6.35
 74
    0
  0
LTYPE
  5
3B
330
5
100
AcDbSymbolTableRecord
100
AcDbLinetypeTableRecord
  2
DASHDOTTINY
 70
    0
  3
Dash dot (.15x) _._._._._._._._._._._._._._._.
 72
   65
 73
    4
 40
3.81
 49
1.905
 74
    0
 49
-0.9525
 74
    0
 49
0
 74
    0
 49
-0.9525
 74
    0
  0
LTYPE
  5
3C
330
5
100
AcDbSymbolTableRecord
100
AcDbLinetypeTableRecord
  2
DASHDOT2
 70
    0
  3
Dash dot (.5x) _._._._._._._._._._._._._._._.
 72
   65
 73
    4
 40
12.7
 49
6.35
 74
    0
 49
-3.175
 74
    0
 49
0
 74
    0
 49
-3.175
 74
    0
  0
LTYPE
  5
3D
330
5
100
AcDbSymbolTableRecord
100
AcDbLinetypeTableRecord
  2
DASHDOTX2
 70
    0
  3
Dash dot (2x) ____  .  ____  .  ____  .  ___
 72
   65
 73
    4
 40
50.8
 49
25.4
 74
    0
 49
-12.7
 74
    0
 49
0
 74
    0
 49
-12.7
 74
    0
  0
LTYPE
  5
3E
330
5
100
AcDbSymbolTableRecord
100
AcDbLinetypeTableRecord
  2
DIVIDE
 70
    0
  3
Divide ____ . . ____ . . ____ . . ____ . . ____
 72
   65
 73
    6
 40
31.75
 49
12.7
 74
    0
 49
-6.35
 74
    0
 49
0
 74
    0
 49
-6.35
 74
    0
 49
0
 74
    0
 49
-6.35
 74
    0
  0
LTYPE
  5
3F
330
5
100
AcDbSymbolTableRecord
100
AcDbLinetypeTableRecord
  2
DIVIDETINY
 70
    0
  3
Divide (.15x) __..__..__..__..__..__..__..__.._
 72
   65
 73
    6
 40
4.7625
 49
1.905
 74
    0
 49
-0.9525
 74
    0
 49
0
 74
    0
 49
-0.9525
 74
    0
 49
0
 74
    0
 49
-0.9525
 74
    0
  0
LTYPE
  5
40
330
5
100
AcDbSymbolTableRecord
100
AcDbLinetypeTableRecord
  2
DIVIDE2
 70
    0
  3
Divide (.5x) __..__..__..__..__..__..__..__.._
 72
   65
 73
    6
 40
15.875
 49
6.35
 74
    0
 49
-3.175
 74
    0
 49
0
 74
    0
 49
-3.175
 74
    0
 49
0
 74
    0
 49
-3.175
 74
    0
  0
LTYPE
  5
41
330
5
100
AcDbSymbolTableRecord
100
AcDbLinetypeTableRecord
  2
DIVIDEX2
 70
    0
  3
Divide (2x) ________  .  .  ________  .  .  _
 72
   65
 73
    6
 40
63.5
 49
25.4
 74
    0
 49
-12.7
 74
    0
 49
0
 74
    0
 49
-12.7
 74
    0
 49
0
 74
    0
 49
-12.7
 74
    0
  0
LTYPE
  5
42
330
5
100
AcDbSymbolTableRecord
100
AcDbLinetypeTableRecord
  2
BORDER
 70
    0
  3
Border __ __ . __ __ . __ __ . __ __ . __ __ .
 72
   65
 73
    6
 40
44.45
 49
12.7
 74
    0
 49
-6.35
 74
    0
 49
12.7
 74
    0
 49
-6.35
 74
    0
 49
0
 74
    0
 49
-6.35
 74
    0
  0
LTYPE
  5
43
330
5
100
AcDbSymbolTableRecord
100
AcDbLinetypeTableRecord
  2
BORDERTINY
 70
    0
  3
Border (.15x) __.__.__.__.__.__.__.__.__.__.__.
 72
   65
 73
    6
 40
6.6675
 49
1.905
 74
    0
 49
-0.9525
 74
    0
 49
1.905
 74
    0
 49
-0.9525
 74
    0
 49
0
 74
    0
 49
-0.9525
 74
    0
  0
LTYPE
  5
44
330
5
100
AcDbSymbolTableRecord
100
AcDbLinetypeTableRecord
  2
BORDER2
 70
    0
  3
Border (.5x) __.__.__.__.__.__.__.__.__.__.__.
 72
   65
 73
    6
 40
22.225
 49
6.35
 74
    0
 49
-3.175
 74
    0
 49
6.35
 74
    0
 49
-3.175
 74
    0
 49
0
 74
    0
 49
-3.175
 74
    0
  0
LTYPE
  5
45
330
5
100
AcDbSymbolTableRecord
100
AcDbLinetypeTableRecord
  2
BORDERX2
 70
    0
  3
Border (2x) ____  ____  .  ____  ____  .  ___
 72
   65
 73
    6
 40
88.89999999999999
 49
25.4
 74
    0
 49
-12.7
 74
    0
 49
25.4
 74
    0
 49
-12.7
 74
    0
 49
0
 74
    0
 49
-12.7
 74
    0
  0
LTYPE
  5
46
330
5
100
AcDbSymbolTableRecord
100
AcDbLinetypeTableRecord
  2
CENTER
 70
    0
  3
Center ____ _ ____ _ ____ _ ____ _ ____ _ ____
 72
   65
 73
    4
 40
50.8
 49
31.75
 74
    0
 49
-6.35
 74
    0
 49
6.35
 74
    0
 49
-6.35
 74
    0
  0
LTYPE
  5
47
330
5
100
AcDbSymbolTableRecord
100
AcDbLinetypeTableRecord
  2
CENTERTINY
 70
    0
  3
Center (.15x) ___ _ ___ _ ___ _ ___ _ ___ _ ___
 72
   65
 73
    4
 40
7.619999999999999
 49
4.7625
 74
    0
 49
-0.9525
 74
    0
 49
0.9525
 74
    0
 49
-0.9525
 74
    0
  0
LTYPE
  5
48
330
5
100
AcDbSymbolTableRecord
100
AcDbLinetypeTableRecord
  2
CENTER2
 70
    0
  3
Center (.5x) ___ _ ___ _ ___ _ ___ _ ___ _ ___
 72
   65
 73
    4
 40
28.575
 49
19.05
 74
    0
 49
-3.175
 74
    0
 49
3.175
 74
    0
 49
-3.175
 74
    0
  0
LTYPE
  5
49
330
5
100
AcDbSymbolTableRecord
100
AcDbLinetypeTableRecord
  2
CENTERX2
 70
    0
  3
Center (2x) ________  __  ________  __  _____
 72
   65
 73
    4
 40
101.6
 49
63.5
 74
    0
 49
-12.7
 74
    0
 49
12.7
 74
    0
 49
-12.7
 74
    0
  0
ENDTAB
  0
TABLE
  2
LAYER
  5
2
330
0
100
AcDbSymbolTable
 70
    1
  0
LAYER
  5
10
330
2
100
AcDbSymbolTableRecord
100
AcDbLayerTableRecord
  2
0
 70
    0
 62
    7
  6
CONTINUOUS
370
    9
390
F
  0
LAYER
  5
4A
330
2
100
AcDbSymbolTableRecord
100
AcDbLayerTableRecord
  2
0_GND
 70
    0
 62
    7
  6
CONTINUOUS
370
   15
390
F
  0
LAYER
  5
4B
330
2
100
AcDbSymbolTableRecord
100
AcDbLayerTableRecord
  2
0_draft
 70
    0
 62
    7
  6
DOTTINY
370
   -3
390
F
1001
LibreCad
1070
    1
  0
LAYER
  5
4C
330
2
100
AcDbSymbolTableRecord
100
AcDbLayerTableRecord
  2
0_wire
 70
    0
 62
   92
420
58624
  6
CONTINUOUS
370
   15
390
F
  0
LAYER
  5
4D
330
2
100
AcDbSymbolTableRecord
100
AcDbLayerTableRecord
  2
1_wire
 70
    0
 62
    2
  6
CONTINUOUS
370
   15
390
F
  0
LAYER
  5
4E
330
2
100
AcDbSymbolTableRecord
100
AcDbLayerTableRecord
  2
3.3V line
 70
    0
 62
   40
420
16755200
  6
CONTINUOUS
370
   15
390
F
  0
LAYER
  5
4F
330
2
100
AcDbSymbolTableRecord
100
AcDbLayerTableRecord
  2
5V line
 70
    0
 62
    1
  6
CONTINUOUS
370
   15
390
F
  0
LAYER
  5
50
330
2
100
AcDbSymbolTableRecord
100
AcDbLayerTableRecord
  2
condenser
 70
    0
 62
    5
  6
CONTINUOUS
370
   15
390
F
  0
LAYER
  5
51
330
2
100
AcDbSymbolTableRecord
100
AcDbLayerTableRecord
  2
crystal
 70
    0
 62
   96
420
32768
  6
CONTINUOUS
370
   15
390
F
  0
LAYER
  5
52
330
2
100
AcDbSymbolTableRecord
100
AcDbLayerTableRecord
  2
diode
 70
    0
 62
    6
  6
CONTINUOUS
370
   15
390
F
  0
LAYER
  5
53
330
2
100
AcDbSymbolTableRecord
100
AcDbLayerTableRecord
  2
kakou
 70
    0
 62
  176
420
  128
  6
CONTINUOUS
370
   15
390
F
  0
LAYER
  5
54
330
2
100
AcDbSymbolTableRecord
100
AcDbLayerTableRecord
  2
micon
 70
    0
 62
  216
420
8388736
  6
CONTINUOUS
370
   15
390
F
  0
LAYER
  5
55
330
2
100
AcDbSymbolTableRecord
100
AcDbLayerTableRecord
  2
resister
 70
    0
 62
  132
420
51143
  6
CONTINUOUS
370
   15
390
F
  0
LAYER
  5
56
330
2
100
AcDbSymbolTableRecord
100
AcDbLayerTableRecord
  2
socket_header
 70
    0
 62
   56
420
8421376
  6
CONTINUOUS
370
   15
390
F
  0
LAYER
  5
57
330
2
100
AcDbSymbolTableRecord
100
AcDbLayerTableRecord
  2
switch
 70
    0
 62
  136
420
32896
  6
CONTINUOUS
370
   15
390
F
  0
LAYER
  5
58
330
2
100
AcDbSymbolTableRecord
100
AcDbLayerTableRecord
  2
terminal
 70
    0
 62
   16
420
8388608
  6
CONTINUOUS
370
   15
390
F
  0
LAYER
  5
59
330
2
100
AcDbSymbolTableRecord
100
AcDbLayerTableRecord
  2
universal_board
 70
    4
 62
  253
420
10526884
  6
CONTINUOUS
370
   15
390
F
  0
ENDTAB
  0
TABLE
  2
STYLE
  5
3
330
0
100
AcDbSymbolTable
 70
    3
  0
STYLE
  5
5A
330
2
100
AcDbSymbolTableRecord
100
AcDbTextStyleTableRecord
  2
iso
 70
    0
 40
0
 41
1
 50
0
 71
    0
 42
1
  3
iso
  4

  0
STYLE
  5
5B
330
2
100
AcDbSymbolTableRecord
100
AcDbTextStyleTableRecord
  2
unicode
 70
    0
 40
0
 41
1
 50
0
 71
    0
 42
1
  3
unicode
  4

  0
STYLE
  5
5C
330
2
100
AcDbSymbolTableRecord
100
AcDbTextStyleTableRecord
  2
azomix
 70
    0
 40
0
 41
1
 50
0
 71
    0
 42
1
  3
azomix
  4

  0
STYLE
  5
5D
330
2
100
AcDbSymbolTableRecord
100
AcDbTextStyleTableRecord
  2
kst32b
 70
    0
 40
0
 41
1
 50
0
 71
    0
 42
1
  3
kst32b
  4

  0
STYLE
  5
5E
330
2
100
AcDbSymbolTableRecord
100
AcDbTextStyleTableRecord
  2
STANDARD
 70
    0
 40
0
 41
1
 50
0
 71
    0
 42
1
  3
STANDARD
  4

  0
ENDTAB
  0
TABLE
  2
VIEW
  5
6
330
0
100
AcDbSymbolTable
 70
    0
  0
ENDTAB
  0
TABLE
  2
UCS
  5
7
330
0
100
AcDbSymbolTable
 70
    0
  0
ENDTAB
  0
TABLE
  2
APPID
  5
9
330
0
100
AcDbSymbolTable
 70
    1
  0
APPID
  5
12
330
9
100
AcDbSymbolTableRecord
100
AcDbRegAppTableRecord
  2
ACAD
 70
    0
  0
APPID
  5
5F
330
9
100
AcDbSymbolTableRecord
100
AcDbRegAppTableRecord
  2
LibreCad
 70
    0
  0
ENDTAB
  0
TABLE
  2
DIMSTYLE
  5
A
330
0
100
AcDbSymbolTable
 70
    1
100
AcDbDimStyleTable
 71
    1
  0
DIMSTYLE
105
60
330
A
100
AcDbSymbolTableRecord
100
AcDbDimStyleTableRecord
  2
Standard
 70
    0
 40
1
 41
2.5
 42
0.625
 43
0.38
 44
1.25
 45
0
 46
0
 47
0
 48
0
 49
1
140
2.5
141
0.09
142
0
143
25.4
144
1
145
0
146
1
147
0.625
148
0
 71
    0
 72
    0
 73
    0
 74
    1
 75
    0
 76
    0
 77
    0
 78
    8
 79
    0
170
    0
171
    2
172
    0
173
    0
174
    0
175
    0
176
    0
177
    0
178
    0
179
    0
271
    2
272
    4
273
    2
274
    2
275
    0
276
    0
277
    2
278
   44
279
    0
280
    0
281
    0
282
    0
283
    1
284
    0
285
    0
286
    0
288
    0
289
    3
340
5E
  0
ENDTAB
  0
TABLE
  2
BLOCK_RECORD
  5
1
330
0
100
AcDbSymbolTable
 70
    2
  0
BLOCK_RECORD
  5
1F
330
1
100
AcDbSymbolTableRecord
100
AcDbBlockTableRecord
  2
*Model_Space
 70
    0
280
    1
281
    0
  0
BLOCK_RECORD
  5
1E
330
1
100
AcDbSymbolTableRecord
100
AcDbBlockTableRecord
  2
*Paper_Space
 70
    0
280
    1
281
    0
  0
BLOCK_RECORD
  5
61
330
1
100
AcDbSymbolTableRecord
100
AcDbBlockTableRecord
  2
2227MC-08-03
 70
    0
280
    1
281
    0
  0
BLOCK_RECORD
  5
64
330
1
100
AcDbSymbolTableRecord
100
AcDbBlockTableRecord
  2
PIC16F15325
 70
    0
280
    1
281
    0
  0
BLOCK_RECORD
  5
67
330
1
100
AcDbSymbolTableRecord
100
AcDbBlockTableRecord
  2
2227MC-28-03
 70
    0
280
    1
281
    0
  0
BLOCK_RECORD
  5
6A
330
1
100
AcDbSymbolTableRecord
100
AcDbBlockTableRecord
  2
HUSG-16.000-20
 70
    0
280
    1
281
    0
  0
BLOCK_RECORD
  5
6D
330
1
100
AcDbSymbolTableRecord
100
AcDbBlockTableRecord
  2
ATmega328P
 70
    0
280
    1
281
    0
  0
BLOCK_RECORD
  5
70
330
1
100
AcDbSymbolTableRecord
100
AcDbBlockTableRecord
  2
DTS-63-N-V-BLK
 70
    0
280
    1
281
    0
  0
BLOCK_RECORD
  5
73
330
1
100
AcDbSymbolTableRecord
100
AcDbBlockTableRecord
  2
2227MC-14-03
 70
    0
280
    1
281
    0
  0
BLOCK_RECORD
  5
76
330
1
100
AcDbSymbolTableRecord
100
AcDbBlockTableRecord
  2
C_0.01uF
 70
    0
280
    1
281
    0
  0
BLOCK_RECORD
  5
79
330
1
100
AcDbSymbolTableRecord
100
AcDbBlockTableRecord
  2
R300
 70
    0
280
    1
281
    0
  0
BLOCK_RECORD
  5
7C
330
1
100
AcDbSymbolTableRecord
100
AcDbBlockTableRecord
  2
R10k
 70
    0
280
    1
281
    0
  0
BLOCK_RECORD
  5
7F
330
1
100
AcDbSymbolTableRecord
100
AcDbBlockTableRecord
  2
R0
 70
    0
280
    1
281
    0
  0
ENDTAB
  0
ENDSEC
  0
SECTION
  2
BLOCKS
  0
BLOCK
  5
20
330
1F
100
AcDbEntity
  8
0
100
AcDbBlockBegin
  2
*Model_Space
 70
    0
 10
0
 20
0
 30
0
  3
*Model_Space
  1

  0
ENDBLK
  5
21
330
1F
100
AcDbEntity
  8
0
100
AcDbBlockEnd
  0
BLOCK
  5
1C
330
1B
100
AcDbEntity
  8
0
100
AcDbBlockBegin
  2
*Paper_Space
 70
    0
 10
0
 20
0
 30
0
  3
*Paper_Space
  1

  0
ENDBLK
  5
1D
330
1F
100
AcDbEntity
  8
0
100
AcDbBlockEnd
  0
BLOCK
  5
62
330
61
100
AcDbEntity
  8
0
100
AcDbBlockBegin
  2
2227MC-08-03
 70
    0
 10
0
 20
0
  3
2227MC-08-03
  1

  0
LINE
  5
82
100
AcDbEntity
  8
socket_header
  6
ByLayer
 62
  256
370
   -1
100
AcDbLine
 10
-1.270000000000131
 20
-8.890000110779171
 11
-1.270000000000131
 21
1.269999889220831
  0
LINE
  5
83
100
AcDbEntity
  8
socket_header
  6
ByLayer
 62
  256
370
   -1
100
AcDbLine
 10
-1.270000000000131
 20
1.269999889220831
 11
8.890000394687402
 21
1.269999889220831
  0
LINE
  5
84
100
AcDbEntity
  8
socket_header
  6
ByLayer
 62
  256
370
   -1
100
AcDbLine
 10
8.890000394687402
 20
1.269999889220831
 11
8.88999999999989
 21
-8.890000110779171
  0
LINE
  5
85
100
AcDbEntity
  8
socket_header
  6
ByLayer
 62
  256
370
   -1
100
AcDbLine
 10
8.88999999999989
 20
-8.890000110779171
 11
-1.270000000000131
 21
-8.890000110779171
  0
CIRCLE
  5
86
100
AcDbEntity
  8
socket_header
  6
ByLayer
 62
  256
370
   -1
100
AcDbCircle
 10
2.539999999999878
 20
1.06581410364015e-14
 40
0.6
  0
CIRCLE
  5
87
100
AcDbEntity
  8
socket_header
  6
ByLayer
 62
  256
370
   -1
100
AcDbCircle
 10
2.539999999999893
 20
-7.620000000000061
 40
0.6
  0
CIRCLE
  5
88
100
AcDbEntity
  8
socket_header
  6
ByLayer
 62
  256
370
   -1
100
AcDbCircle
 10
0
 20
0
 40
0.6
  0
CIRCLE
  5
89
100
AcDbEntity
  8
socket_header
  6
ByLayer
 62
  256
370
   -1
100
AcDbCircle
 10
7.105427357601002e-15
 20
-7.620000000000072
 40
0.6
  0
CIRCLE
  5
8A
100
AcDbEntity
  8
socket_header
  6
ByLayer
 62
  256
370
   -1
100
AcDbCircle
 10
5.079999999999757
 20
2.842170943040401e-14
 40
0.6
  0
CIRCLE
  5
8B
100
AcDbEntity
  8
socket_header
  6
ByLayer
 62
  256
370
   -1
100
AcDbCircle
 10
5.079999999999771
 20
-7.620000000000051
 40
0.6
  0
CIRCLE
  5
8C
100
AcDbEntity
  8
socket_header
  6
ByLayer
 62
  256
370
   -1
100
AcDbCircle
 10
7.619999999999639
 20
3.907985046680551e-14
 40
0.6
  0
CIRCLE
  5
8D
100
AcDbEntity
  8
socket_header
  6
ByLayer
 62
  256
370
   -1
100
AcDbCircle
 10
7.61999999999966
 20
-7.62000000000004
 40
0.6
  0
MTEXT
  5
8E
100
AcDbEntity
  8
socket_header
  6
ByLayer
 62
  256
370
   -1
100
AcDbMText
 10
3.950796119092651
 20
-1.713679173150673
 30
0
 40
1
 41
9.222222222222346
 71
    5
 72
    1
  1
2227MC-08-03
  7
STANDARD
210
0
220
0
230
1
 50
0
 73
    2
 44
1
  0
ENDBLK
  5
63
330
61
100
AcDbEntity
  8
0
100
AcDbBlockEnd
  0
BLOCK
  5
65
330
64
100
AcDbEntity
  8
0
100
AcDbBlockBegin
  2
PIC16F15325
 70
    0
 10
0
 20
0
  3
PIC16F15325
  1

  0
ENDBLK
  5
66
330
64
100
AcDbEntity
  8
0
100
AcDbBlockEnd
  0
BLOCK
  5
68
330
67
100
AcDbEntity
  8
0
100
AcDbBlockBegin
  2
2227MC-28-03
 70
    0
 10
0
 20
0
  3
2227MC-28-03
  1

  0
ENDBLK
  5
69
330
67
100
AcDbEntity
  8
0
100
AcDbBlockEnd
  0
BLOCK
  5
6B
330
6A
100
AcDbEntity
  8
0
100
AcDbBlockBegin
  2
HUSG-16.000-20
 70
    0
 10
0
 20
0
  3
HUSG-16.000-20
  1

  0
ENDBLK
  5
6C
330
6A
100
AcDbEntity
  8
0
100
AcDbBlockEnd
  0
BLOCK
  5
6E
330
6D
100
AcDbEntity
  8
0
100
AcDbBlockBegin
  2
ATmega328P
 70
    0
 10
0
 20
0
  3
ATmega328P
  1

  0
ENDBLK
  5
6F
330
6D
100
AcDbEntity
  8
0
100
AcDbBlockEnd
  0
BLOCK
  5
71
330
70
100
AcDbEntity
  8
0
100
AcDbBlockBegin
  2
DTS-63-N-V-BLK
 70
    0
 10
0
 20
0
  3
DTS-63-N-V-BLK
  1

  0
ENDBLK
  5
72
330
70
100
AcDbEntity
  8
0
100
AcDbBlockEnd
  0
BLOCK
  5
74
330
73
100
AcDbEntity
  8
0
100
AcDbBlockBegin
  2
2227MC-14-03
 70
    0
 10
0
 20
0
  3
2227MC-14-03
  1

  0
ENDBLK
  5
75
330
73
100
AcDbEntity
  8
0
100
AcDbBlockEnd
  0
BLOCK
  5
77
330
76
100
AcDbEntity
  8
0
100
AcDbBlockBegin
  2
C_0.01uF
 70
    0
 10
0
 20
0
  3
C_0.01uF
  1

  0
LWPOLYLINE
  5
8F
100
AcDbEntity
  8
condenser
  6
ByLayer
 62
  256
370
   -1
100
AcDbPolyline
 90
    4
 70
    1
 43
0
 10
1.499999999999972
 20
5.039999999999822
 10
1.499999999999972
 20
0.03999999999992099
 10
-1.50000000000005
 20
0.03999999999992099
 10
-1.50000000000005
 20
5.039999999999822
  0
MTEXT
  5
90
100
AcDbEntity
  8
condenser
  6
ByLayer
 62
  256
370
   -1
100
AcDbMText
 10
2.336701583810211
 20
2.491803864245341
 30
0
 40
1
 41
3.666666666666713
 71
    5
 72
    1
  1
0.01uF
  7
STANDARD
210
0
220
0
230
1
 50
270
 73
    2
 44
1
  0
CIRCLE
  5
91
100
AcDbEntity
  8
condenser
  6
ByLayer
 62
  256
370
   -1
100
AcDbCircle
 10
0
 20
0
 40
0.4
  0
CIRCLE
  5
92
100
AcDbEntity
  8
condenser
  6
ByLayer
 62
  256
370
   -1
100
AcDbCircle
 10
-6.927791673660977e-14
 20
5.080000000000041
 40
0.4
  0
ENDBLK
  5
78
330
76
100
AcDbEntity
  8
0
100
AcDbBlockEnd
  0
BLOCK
  5
7A
330
79
100
AcDbEntity
  8
0
100
AcDbBlockBegin
  2
R300
 70
    0
 10
0
 20
0
  3
R300
  1

  0
LWPOLYLINE
  5
93
100
AcDbEntity
  8
resister
  6
ByLayer
 62
  256
370
   -1
100
AcDbPolyline
 90
    4
 70
    1
 43
0
 10
-1.150000000000091
 20
0.6599999999995898
 10
-1.15000000000008
 20
6.959999999999511
 10
1.150000000000126
 20
6.959999999999511
 10
1.150000000000119
 20
0.6599999999995898
  0
CIRCLE
  5
94
100
AcDbEntity
  8
resister
  6
ByLayer
 62
  256
370
   -1
100
AcDbCircle
 10
1.953992523340276e-14
 20
7.619999999999639
 40
0.3
  0
LINE
  5
95
100
AcDbEntity
  8
resister
  6
ByLayer
 62
  256
370
   -1
100
AcDbLine
 10
1.953992523340276e-14
 20
0.2999999999998604
 11
1.031014139840636e-06
 21
0.6599999999995898
  0
LINE
  5
96
100
AcDbEntity
  8
resister
  6
ByLayer
 62
  256
370
   -1
100
AcDbLine
 10
3.907985046680551e-14
 20
6.959999999999511
 11
3.907985046680551e-14
 21
7.320000000000348
  0
MTEXT
  5
97
100
AcDbEntity
  8
resister
  6
ByLayer
 62
  256
370
   -1
100
AcDbMText
 10
-0.02409769535478112
 20
3.951579464078229
 30
0
 40
1
 41
2.888888888888951
 71
    5
 72
    1
  1
R300
  7
STANDARD
210
0
220
0
230
1
 50
90
 73
    2
 44
1
  0
CIRCLE
  5
98
100
AcDbEntity
  8
resister
  6
ByLayer
 62
  256
370
   -1
100
AcDbCircle
 10
0
 20
0
 40
0.25
  0
ENDBLK
  5
7B
330
79
100
AcDbEntity
  8
0
100
AcDbBlockEnd
  0
BLOCK
  5
7D
330
7C
100
AcDbEntity
  8
0
100
AcDbBlockBegin
  2
R10k
 70
    0
 10
0
 20
0
  3
R10k
  1

  0
CIRCLE
  5
99
100
AcDbEntity
  8
resister
  6
ByLayer
 62
  256
370
   -1
100
AcDbCircle
 10
0
 20
0
 40
0.3
  0
LINE
  5
9A
100
AcDbEntity
  8
resister
  6
ByLayer
 62
  256
370
   -1
100
AcDbLine
 10
-0.659999999999485
 20
1.150000000000098
 11
-0.659999999999485
 21
-1.150000000000059
  0
LINE
  5
9B
100
AcDbEntity
  8
resister
  6
ByLayer
 62
  256
370
   -1
100
AcDbLine
 10
-6.959999999999557
 20
-1.150000000000041
 11
-0.659999999999485
 21
-1.150000000000059
  0
LINE
  5
9C
100
AcDbEntity
  8
resister
  6
ByLayer
 62
  256
370
   -1
100
AcDbLine
 10
-0.659999999999485
 20
1.150000000000098
 11
-6.959999999999557
 21
1.150000000000098
  0
LINE
  5
9D
100
AcDbEntity
  8
resister
  6
ByLayer
 62
  256
370
   -1
100
AcDbLine
 10
-6.959999999999557
 20
1.150000000000098
 11
-6.959999999999557
 21
-1.150000000000041
  0
CIRCLE
  5
9E
100
AcDbEntity
  8
resister
  6
ByLayer
 62
  256
370
   -1
100
AcDbCircle
 10
-7.619999999999408
 20
2.131628207280301e-14
 40
0.25
  0
MTEXT
  5
9F
100
AcDbEntity
  8
resister
  6
ByLayer
 62
  256
370
   -1
100
AcDbMText
 10
-3.991855261194459
 20
0.08749576228997924
 30
0
 40
1
 41
2.666666666666667
 71
    5
 72
    1
  1
R10k
  7
unicode
210
0
220
0
230
1
 50
0
 73
    2
 44
1
  0
LINE
  5
A0
100
AcDbEntity
  8
resister
  6
ByLayer
 62
  256
370
   -1
100
AcDbLine
 10
-0.2499999999985789
 20
2.131628207280301e-14
 11
-0.659999999999485
 21
2.131628207280301e-14
  0
LINE
  5
A1
100
AcDbEntity
  8
resister
  6
ByLayer
 62
  256
370
   -1
100
AcDbLine
 10
-7.369999999999898
 20
1.06581410364015e-14
 11
-6.959999999999557
 21
1.06581410364015e-14
  0
ENDBLK
  5
7E
330
7C
100
AcDbEntity
  8
0
100
AcDbBlockEnd
  0
BLOCK
  5
80
330
7F
100
AcDbEntity
  8
0
100
AcDbBlockBegin
  2
R0
 70
    0
 10
0
 20
0
  3
R0
  1

  0
LINE
  5
A2
100
AcDbEntity
  8
resister
  6
ByLayer
 62
  256
370
   -1
100
AcDbLine
 10
-0.6599999999999611
 20
1.149999999999959
 11
-0.6599999999999611
 21
-1.14999999999997
  0
LINE
  5
A3
100
AcDbEntity
  8
resister
  6
ByLayer
 62
  256
370
   -1
100
AcDbLine
 10
-0.6599999999999611
 20
-1.14999999999997
 11
-6.959999999999834
 21
-1.14999999999997
  0
LINE
  5
A4
100
AcDbEntity
  8
resister
  6
ByLayer
 62
  256
370
   -1
100
AcDbLine
 10
-6.959999999999834
 20
-1.14999999999997
 11
-6.95999999999982
 21
1.149999999999959
  0
LINE
  5
A5
100
AcDbEntity
  8
resister
  6
ByLayer
 62
  256
370
   -1
100
AcDbLine
 10
-6.95999999999982
 20
1.149999999999959
 11
-0.6599999999999611
 21
1.149999999999959
  0
LINE
  5
A6
100
AcDbEntity
  8
resister
  6
ByLayer
 62
  256
370
   -1
100
AcDbLine
 10
-6.95999999999982
 20
0
 11
-7.61999999999966
 21
0
  0
LINE
  5
A7
100
AcDbEntity
  8
resister
  6
ByLayer
 62
  256
370
   -1
100
AcDbLine
 10
3.694822225952521e-13
 20
0
 11
-0.6599999999999611
 21
0
  0
MTEXT
  5
A8
100
AcDbEntity
  8
resister
  6
ByLayer
 62
  256
370
   -1
100
AcDbMText
 10
-4.132042899777453
 20
0.05377778633712005
 30
0
 40
1
 41
1.333333333333333
 71
    5
 72
    1
  1
R0
  7
STANDARD
210
0
220
0
230
1
 50
270
 73
    2
 44
1
  0
ENDBLK
  5
81
330
7F
100
AcDbEntity
  8
0
100
AcDbBlockEnd
  0
ENDSEC
  0
SECTION
  2
ENTITIES
  0
CIRCLE
  5
A9
100
AcDbEntity
  8
universal_board
  6
ByLayer
 62
  256
370
   -1
100
AcDbCircle
 10
113.6599999999935
 20
-7.180000000000121
 40
0.5
  0
CIRCLE
  5
AA
100
AcDbEntity
  8
universal_board
  6
ByLayer
 62
  256
370
   -1
100
AcDbCircle
 10
116.1999999999934
 20
-7.180000000000106
 40
0.5
  0
CIRCLE
  5
AB
100
AcDbEntity
  8
universal_board
  6
ByLayer
 62
  256
370
   -1
100
AcDbCircle
 10
118.7399999999933
 20
-7.180000000000085
 40
0.5
  0
CIRCLE
  5
AC
100
AcDbEntity
  8
universal_board
  6
ByLayer
 62
  256
370
   -1
100
AcDbCircle
 10
121.2799999999931
 20
-7.180000000000078
 40
0.5
  0
CIRCLE
  5
AD
100
AcDbEntity
  8
universal_board
  6
ByLayer
 62
  256
370
   -1
100
AcDbCircle
 10
123.819999999993
 20
-7.180000000000078
 40
0.5
  0
CIRCLE
  5
AE
100
AcDbEntity
  8
universal_board
  6
ByLayer
 62
  256
370
   -1
100
AcDbCircle
 10
126.3599999999929
 20
-7.180000000000057
 40
0.5
  0
CIRCLE
  5
AF
100
AcDbEntity
  8
universal_board
  6
ByLayer
 62
  256
370
   -1
100
AcDbCircle
 10
128.8999999999928
 20
-7.180000000000057
 40
0.5
  0
CIRCLE
  5
B0
100
AcDbEntity
  8
universal_board
  6
ByLayer
 62
  256
370
   -1
100
AcDbCircle
 10
111.1199999999936
 20
-7.180000000000128
 40
0.5
  0
CIRCLE
  5
B1
100
AcDbEntity
  8
universal_board
  6
ByLayer
 62
  256
370
   -1
100
AcDbCircle
 10
113.6599999999935
 20
-9.720000000000148
 40
0.5
  0
CIRCLE
  5
B2
100
AcDbEntity
  8
universal_board
  6
ByLayer
 62
  256
370
   -1
100
AcDbCircle
 10
116.1999999999934
 20
-9.720000000000134
 40
0.5
  0
CIRCLE
  5
B3
100
AcDbEntity
  8
universal_board
  6
ByLayer
 62
  256
370
   -1
100
AcDbCircle
 10
118.7399999999933
 20
-9.720000000000113
 40
0.5
  0
CIRCLE
  5
B4
100
AcDbEntity
  8
universal_board
  6
ByLayer
 62
  256
370
   -1
100
AcDbCircle
 10
121.2799999999931
 20
-9.720000000000105
 40
0.5
  0
CIRCLE
  5
B5
100
AcDbEntity
  8
universal_board
  6
ByLayer
 62
  256
370
   -1
100
AcDbCircle
 10
123.819999999993
 20
-9.720000000000105
 40
0.5
  0
CIRCLE
  5
B6
100
AcDbEntity
  8
universal_board
  6
ByLayer
 62
  256
370
   -1
100
AcDbCircle
 10
126.3599999999929
 20
-9.720000000000084
 40
0.5
  0
CIRCLE
  5
B7
100
AcDbEntity
  8
universal_board
  6
ByLayer
 62
  256
370
   -1
100
AcDbCircle
 10
128.8999999999928
 20
-9.720000000000084
 40
0.5
  0
CIRCLE
  5
B8
100
AcDbEntity
  8
universal_board
  6
ByLayer
 62
  256
370
   -1
100
AcDbCircle
 10
111.1199999999936
 20
-9.720000000000155
 40
0.5
  0
CIRCLE
  5
B9
100
AcDbEntity
  8
universal_board
  6
ByLayer
 62
  256
370
   -1
100
AcDbCircle
 10
113.6599999999935
 20
-12.26000000000018
 40
0.5
  0
CIRCLE
  5
BA
100
AcDbEntity
  8
universal_board
  6
ByLayer
 62
  256
370
   -1
100
AcDbCircle
 10
116.1999999999934
 20
-12.26000000000017
 40
0.5
  0
CIRCLE
  5
BB
100
AcDbEntity
  8
universal_board
  6
ByLayer
 62
  256
370
   -1
100
AcDbCircle
 10
118.7399999999933
 20
-12.26000000000014
 40
0.5
  0
CIRCLE
  5
BC
100
AcDbEntity
  8
universal_board
  6
ByLayer
 62
  256
370
   -1
100
AcDbCircle
 10
121.2799999999931
 20
-12.26000000000014
 40
0.5
  0
CIRCLE
  5
BD
100
AcDbEntity
  8
universal_board
  6
ByLayer
 62
  256
370
   -1
100
AcDbCircle
 10
123.819999999993
 20
-12.26000000000014
 40
0.5
  0
CIRCLE
  5
BE
100
AcDbEntity
  8
universal_board
  6
ByLayer
 62
  256
370
   -1
100
AcDbCircle
 10
126.3599999999929
 20
-12.26000000000012
 40
0.5
  0
CIRCLE
  5
BF
100
AcDbEntity
  8
universal_board
  6
ByLayer
 62
  256
370
   -1
100
AcDbCircle
 10
128.8999999999928
 20
-12.26000000000012
 40
0.5
  0
CIRCLE
  5
C0
100
AcDbEntity
  8
universal_board
  6
ByLayer
 62
  256
370
   -1
100
AcDbCircle
 10
111.1199999999936
 20
-12.26000000000019
 40
0.5
  0
CIRCLE
  5
C1
100
AcDbEntity
  8
universal_board
  6
ByLayer
 62
  256
370
   -1
100
AcDbCircle
 10
113.6599999999935
 20
-14.80000000000021
 40
0.5
  0
CIRCLE
  5
C2
100
AcDbEntity
  8
universal_board
  6
ByLayer
 62
  256
370
   -1
100
AcDbCircle
 10
116.1999999999934
 20
-14.80000000000019
 40
0.5
  0
CIRCLE
  5
C3
100
AcDbEntity
  8
universal_board
  6
ByLayer
 62
  256
370
   -1
100
AcDbCircle
 10
118.7399999999933
 20
-14.80000000000017
 40
0.5
  0
CIRCLE
  5
C4
100
AcDbEntity
  8
universal_board
  6
ByLayer
 62
  256
370
   -1
100
AcDbCircle
 10
121.2799999999931
 20
-14.80000000000016
 40
0.5
  0
CIRCLE
  5
C5
100
AcDbEntity
  8
universal_board
  6
ByLayer
 62
  256
370
   -1
100
AcDbCircle
 10
123.819999999993
 20
-14.80000000000016
 40
0.5
  0
CIRCLE
  5
C6
100
AcDbEntity
  8
universal_board
  6
ByLayer
 62
  256
370
   -1
100
AcDbCircle
 10
126.3599999999929
 20
-14.80000000000014
 40
0.5
  0
CIRCLE
  5
C7
100
AcDbEntity
  8
universal_board
  6
ByLayer
 62
  256
370
   -1
100
AcDbCircle
 10
128.8999999999928
 20
-14.80000000000014
 40
0.5
  0
CIRCLE
  5
C8
100
AcDbEntity
  8
universal_board
  6
ByLayer
 62
  256
370
   -1
100
AcDbCircle
 10
111.1199999999936
 20
-14.80000000000021
 40
0.5
  0
CIRCLE
  5
C9
100
AcDbEntity
  8
universal_board
  6
ByLayer
 62
  256
370
   -1
100
AcDbCircle
 10
113.6599999999935
 20
-17.34000000000023
 40
0.5
  0
CIRCLE
  5
CA
100
AcDbEntity
  8
universal_board
  6
ByLayer
 62
  256
370
   -1
100
AcDbCircle
 10
116.1999999999934
 20
-17.34000000000022
 40
0.5
  0
CIRCLE
  5
CB
100
AcDbEntity
  8
universal_board
  6
ByLayer
 62
  256
370
   -1
100
AcDbCircle
 10
118.7399999999933
 20
-17.3400000000002
 40
0.5
  0
CIRCLE
  5
CC
100
AcDbEntity
  8
universal_board
  6
ByLayer
 62
  256
370
   -1
100
AcDbCircle
 10
121.2799999999931
 20
-17.34000000000018
 40
0.5
  0
CIRCLE
  5
CD
100
AcDbEntity
  8
universal_board
  6
ByLayer
 62
  256
370
   -1
100
AcDbCircle
 10
123.819999999993
 20
-17.34000000000018
 40
0.5
  0
CIRCLE
  5
CE
100
AcDbEntity
  8
universal_board
  6
ByLayer
 62
  256
370
   -1
100
AcDbCircle
 10
126.3599999999929
 20
-17.34000000000017
 40
0.5
  0
CIRCLE
  5
CF
100
AcDbEntity
  8
universal_board
  6
ByLayer
 62
  256
370
   -1
100
AcDbCircle
 10
128.8999999999928
 20
-17.34000000000017
 40
0.5
  0
CIRCLE
  5
D0
100
AcDbEntity
  8
universal_board
  6
ByLayer
 62
  256
370
   -1
100
AcDbCircle
 10
111.1199999999936
 20
-17.34000000000024
 40
0.5
  0
CIRCLE
  5
D1
100
AcDbEntity
  8
universal_board
  6
ByLayer
 62
  256
370
   -1
100
AcDbCircle
 10
113.6599999999935
 20
-19.88000000000025
 40
0.5
  0
CIRCLE
  5
D2
100
AcDbEntity
  8
universal_board
  6
ByLayer
 62
  256
370
   -1
100
AcDbCircle
 10
116.1999999999934
 20
-19.88000000000025
 40
0.5
  0
CIRCLE
  5
D3
100
AcDbEntity
  8
universal_board
  6
ByLayer
 62
  256
370
   -1
100
AcDbCircle
 10
118.7399999999933
 20
-19.88000000000023
 40
0.5
  0
CIRCLE
  5
D4
100
AcDbEntity
  8
universal_board
  6
ByLayer
 62
  256
370
   -1
100
AcDbCircle
 10
121.2799999999931
 20
-19.88000000000022
 40
0.5
  0
CIRCLE
  5
D5
100
AcDbEntity
  8
universal_board
  6
ByLayer
 62
  256
370
   -1
100
AcDbCircle
 10
123.819999999993
 20
-19.88000000000022
 40
0.5
  0
CIRCLE
  5
D6
100
AcDbEntity
  8
universal_board
  6
ByLayer
 62
  256
370
   -1
100
AcDbCircle
 10
126.3599999999929
 20
-19.8800000000002
 40
0.5
  0
CIRCLE
  5
D7
100
AcDbEntity
  8
universal_board
  6
ByLayer
 62
  256
370
   -1
100
AcDbCircle
 10
128.8999999999928
 20
-19.8800000000002
 40
0.5
  0
CIRCLE
  5
D8
100
AcDbEntity
  8
universal_board
  6
ByLayer
 62
  256
370
   -1
100
AcDbCircle
 10
111.1199999999936
 20
-19.88000000000027
 40
0.5
  0
CIRCLE
  5
D9
100
AcDbEntity
  8
universal_board
  6
ByLayer
 62
  256
370
   -1
100
AcDbCircle
 10
113.6599999999935
 20
-22.42000000000029
 40
0.5
  0
CIRCLE
  5
DA
100
AcDbEntity
  8
universal_board
  6
ByLayer
 62
  256
370
   -1
100
AcDbCircle
 10
116.1999999999934
 20
-22.42000000000028
 40
0.5
  0
CIRCLE
  5
DB
100
AcDbEntity
  8
universal_board
  6
ByLayer
 62
  256
370
   -1
100
AcDbCircle
 10
118.7399999999933
 20
-22.42000000000025
 40
0.5
  0
CIRCLE
  5
DC
100
AcDbEntity
  8
universal_board
  6
ByLayer
 62
  256
370
   -1
100
AcDbCircle
 10
121.2799999999931
 20
-22.42000000000025
 40
0.5
  0
CIRCLE
  5
DD
100
AcDbEntity
  8
universal_board
  6
ByLayer
 62
  256
370
   -1
100
AcDbCircle
 10
123.819999999993
 20
-22.42000000000025
 40
0.5
  0
CIRCLE
  5
DE
100
AcDbEntity
  8
universal_board
  6
ByLayer
 62
  256
370
   -1
100
AcDbCircle
 10
126.3599999999929
 20
-22.42000000000023
 40
0.5
  0
CIRCLE
  5
DF
100
AcDbEntity
  8
universal_board
  6
ByLayer
 62
  256
370
   -1
100
AcDbCircle
 10
128.8999999999928
 20
-22.42000000000023
 40
0.5
  0
CIRCLE
  5
E0
100
AcDbEntity
  8
universal_board
  6
ByLayer
 62
  256
370
   -1
100
AcDbCircle
 10
111.1199999999936
 20
-22.4200000000003
 40
0.5
  0
CIRCLE
  5
E1
100
AcDbEntity
  8
universal_board
  6
ByLayer
 62
  256
370
   -1
100
AcDbCircle
 10
113.6599999999935
 20
-24.96000000000032
 40
0.5
  0
CIRCLE
  5
E2
100
AcDbEntity
  8
universal_board
  6
ByLayer
 62
  256
370
   -1
100
AcDbCircle
 10
116.1999999999934
 20
-24.96000000000031
 40
0.5
  0
CIRCLE
  5
E3
100
AcDbEntity
  8
universal_board
  6
ByLayer
 62
  256
370
   -1
100
AcDbCircle
 10
118.7399999999933
 20
-24.96000000000029
 40
0.5
  0
CIRCLE
  5
E4
100
AcDbEntity
  8
universal_board
  6
ByLayer
 62
  256
370
   -1
100
AcDbCircle
 10
121.2799999999931
 20
-24.96000000000028
 40
0.5
  0
CIRCLE
  5
E5
100
AcDbEntity
  8
universal_board
  6
ByLayer
 62
  256
370
   -1
100
AcDbCircle
 10
123.819999999993
 20
-24.96000000000028
 40
0.5
  0
CIRCLE
  5
E6
100
AcDbEntity
  8
universal_board
  6
ByLayer
 62
  256
370
   -1
100
AcDbCircle
 10
126.3599999999929
 20
-24.96000000000026
 40
0.5
  0
CIRCLE
  5
E7
100
AcDbEntity
  8
universal_board
  6
ByLayer
 62
  256
370
   -1
100
AcDbCircle
 10
128.8999999999928
 20
-24.96000000000026
 40
0.5
  0
CIRCLE
  5
E8
100
AcDbEntity
  8
universal_board
  6
ByLayer
 62
  256
370
   -1
100
AcDbCircle
 10
111.1199999999936
 20
-24.96000000000033
 40
0.5
  0
CIRCLE
  5
E9
100
AcDbEntity
  8
universal_board
  6
ByLayer
 62
  256
370
   -1
100
AcDbCircle
 10
113.6599999999935
 20
-27.50000000000034
 40
0.5
  0
CIRCLE
  5
EA
100
AcDbEntity
  8
universal_board
  6
ByLayer
 62
  256
370
   -1
100
AcDbCircle
 10
116.1999999999934
 20
-27.50000000000033
 40
0.5
  0
CIRCLE
  5
EB
100
AcDbEntity
  8
universal_board
  6
ByLayer
 62
  256
370
   -1
100
AcDbCircle
 10
118.7399999999933
 20
-27.50000000000031
 40
0.5
  0
CIRCLE
  5
EC
100
AcDbEntity
  8
universal_board
  6
ByLayer
 62
  256
370
   -1
100
AcDbCircle
 10
121.2799999999931
 20
-27.50000000000029
 40
0.5
  0
CIRCLE
  5
ED
100
AcDbEntity
  8
universal_board
  6
ByLayer
 62
  256
370
   -1
100
AcDbCircle
 10
123.819999999993
 20
-27.50000000000029
 40
0.5
  0
CIRCLE
  5
EE
100
AcDbEntity
  8
universal_board
  6
ByLayer
 62
  256
370
   -1
100
AcDbCircle
 10
126.3599999999929
 20
-27.50000000000028
 40
0.5
  0
CIRCLE
  5
EF
100
AcDbEntity
  8
universal_board
  6
ByLayer
 62
  256
370
   -1
100
AcDbCircle
 10
128.8999999999928
 20
-27.50000000000028
 40
0.5
  0
CIRCLE
  5
F0
100
AcDbEntity
  8
universal_board
  6
ByLayer
 62
  256
370
   -1
100
AcDbCircle
 10
111.1199999999936
 20
-27.50000000000034
 40
0.5
  0
CIRCLE
  5
F1
100
AcDbEntity
  8
universal_board
  6
ByLayer
 62
  256
370
   -1
100
AcDbCircle
 10
113.6599999999935
 20
-30.04000000000037
 40
0.5
  0
CIRCLE
  5
F2
100
AcDbEntity
  8
universal_board
  6
ByLayer
 62
  256
370
   -1
100
AcDbCircle
 10
116.1999999999934
 20
-30.04000000000035
 40
0.5
  0
CIRCLE
  5
F3
100
AcDbEntity
  8
universal_board
  6
ByLayer
 62
  256
370
   -1
100
AcDbCircle
 10
118.7399999999933
 20
-30.04000000000033
 40
0.5
  0
CIRCLE
  5
F4
100
AcDbEntity
  8
universal_board
  6
ByLayer
 62
  256
370
   -1
100
AcDbCircle
 10
121.2799999999931
 20
-30.04000000000032
 40
0.5
  0
CIRCLE
  5
F5
100
AcDbEntity
  8
universal_board
  6
ByLayer
 62
  256
370
   -1
100
AcDbCircle
 10
123.819999999993
 20
-30.04000000000032
 40
0.5
  0
CIRCLE
  5
F6
100
AcDbEntity
  8
universal_board
  6
ByLayer
 62
  256
370
   -1
100
AcDbCircle
 10
126.3599999999929
 20
-30.0400000000003
 40
0.5
  0
CIRCLE
  5
F7
100
AcDbEntity
  8
universal_board
  6
ByLayer
 62
  256
370
   -1
100
AcDbCircle
 10
128.8999999999928
 20
-30.0400000000003
 40
0.5
  0
CIRCLE
  5
F8
100
AcDbEntity
  8
universal_board
  6
ByLayer
 62
  256
370
   -1
100
AcDbCircle
 10
111.1199999999936
 20
-30.04000000000037
 40
0.5
  0
CIRCLE
  5
F9
100
AcDbEntity
  8
universal_board
  6
ByLayer
 62
  256
370
   -1
100
AcDbCircle
 10
113.6599999999935
 20
-32.5800000000004
 40
0.5
  0
CIRCLE
  5
FA
100
AcDbEntity
  8
universal_board
  6
ByLayer
 62
  256
370
   -1
100
AcDbCircle
 10
116.1999999999934
 20
-32.58000000000039
 40
0.5
  0
CIRCLE
  5
FB
100
AcDbEntity
  8
universal_board
  6
ByLayer
 62
  256
370
   -1
100
AcDbCircle
 10
118.7399999999933
 20
-32.58000000000035
 40
0.5
  0
CIRCLE
  5
FC
100
AcDbEntity
  8
universal_board
  6
ByLayer
 62
  256
370
   -1
100
AcDbCircle
 10
121.2799999999931
 20
-32.58000000000035
 40
0.5
  0
CIRCLE
  5
FD
100
AcDbEntity
  8
universal_board
  6
ByLayer
 62
  256
370
   -1
100
AcDbCircle
 10
123.819999999993
 20
-32.58000000000035
 40
0.5
  0
CIRCLE
  5
FE
100
AcDbEntity
  8
universal_board
  6
ByLayer
 62
  256
370
   -1
100
AcDbCircle
 10
126.3599999999929
 20
-32.58000000000034
 40
0.5
  0
CIRCLE
  5
FF
100
AcDbEntity
  8
universal_board
  6
ByLayer
 62
  256
370
   -1
100
AcDbCircle
 10
128.8999999999928
 20
-32.58000000000034
 40
0.5
  0
CIRCLE
  5
100
100
AcDbEntity
  8
universal_board
  6
ByLayer
 62
  256
370
   -1
100
AcDbCircle
 10
111.1199999999936
 20
-32.5800000000004
 40
0.5
  0
CIRCLE
  5
101
100
AcDbEntity
  8
universal_board
  6
ByLayer
 62
  256
370
   -1
100
AcDbCircle
 10
131.4399999999927
 20
-7.180000000000057
 40
0.5
  0
CIRCLE
  5
102
100
AcDbEntity
  8
universal_board
  6
ByLayer
 62
  256
370
   -1
100
AcDbCircle
 10
131.4399999999927
 20
-9.720000000000084
 40
0.5
  0
CIRCLE
  5
103
100
AcDbEntity
  8
universal_board
  6
ByLayer
 62
  256
370
   -1
100
AcDbCircle
 10
131.4399999999927
 20
-12.26000000000012
 40
0.5
  0
CIRCLE
  5
104
100
AcDbEntity
  8
universal_board
  6
ByLayer
 62
  256
370
   -1
100
AcDbCircle
 10
131.4399999999927
 20
-14.80000000000014
 40
0.5
  0
CIRCLE
  5
105
100
AcDbEntity
  8
universal_board
  6
ByLayer
 62
  256
370
   -1
100
AcDbCircle
 10
131.4399999999927
 20
-17.34000000000017
 40
0.5
  0
CIRCLE
  5
106
100
AcDbEntity
  8
universal_board
  6
ByLayer
 62
  256
370
   -1
100
AcDbCircle
 10
131.4399999999927
 20
-19.8800000000002
 40
0.5
  0
CIRCLE
  5
107
100
AcDbEntity
  8
universal_board
  6
ByLayer
 62
  256
370
   -1
100
AcDbCircle
 10
131.4399999999927
 20
-22.42000000000023
 40
0.5
  0
CIRCLE
  5
108
100
AcDbEntity
  8
universal_board
  6
ByLayer
 62
  256
370
   -1
100
AcDbCircle
 10
131.4399999999927
 20
-24.96000000000026
 40
0.5
  0
CIRCLE
  5
109
100
AcDbEntity
  8
universal_board
  6
ByLayer
 62
  256
370
   -1
100
AcDbCircle
 10
131.4399999999927
 20
-27.50000000000028
 40
0.5
  0
CIRCLE
  5
10A
100
AcDbEntity
  8
universal_board
  6
ByLayer
 62
  256
370
   -1
100
AcDbCircle
 10
131.4399999999927
 20
-30.0400000000003
 40
0.5
  0
CIRCLE
  5
10B
100
AcDbEntity
  8
universal_board
  6
ByLayer
 62
  256
370
   -1
100
AcDbCircle
 10
131.4399999999927
 20
-32.58000000000034
 40
0.5
  0
CIRCLE
  5
10C
100
AcDbEntity
  8
universal_board
  6
ByLayer
 62
  256
370
   -1
100
AcDbCircle
 10
133.9799999999926
 20
-7.180000000000057
 40
0.5
  0
CIRCLE
  5
10D
100
AcDbEntity
  8
universal_board
  6
ByLayer
 62
  256
370
   -1
100
AcDbCircle
 10
133.9799999999926
 20
-9.720000000000084
 40
0.5
  0
CIRCLE
  5
10E
100
AcDbEntity
  8
universal_board
  6
ByLayer
 62
  256
370
   -1
100
AcDbCircle
 10
133.9799999999926
 20
-12.26000000000012
 40
0.5
  0
CIRCLE
  5
10F
100
AcDbEntity
  8
universal_board
  6
ByLayer
 62
  256
370
   -1
100
AcDbCircle
 10
133.9799999999926
 20
-14.80000000000014
 40
0.5
  0
CIRCLE
  5
110
100
AcDbEntity
  8
universal_board
  6
ByLayer
 62
  256
370
   -1
100
AcDbCircle
 10
133.9799999999926
 20
-17.34000000000017
 40
0.5
  0
CIRCLE
  5
111
100
AcDbEntity
  8
universal_board
  6
ByLayer
 62
  256
370
   -1
100
AcDbCircle
 10
133.9799999999926
 20
-19.8800000000002
 40
0.5
  0
CIRCLE
  5
112
100
AcDbEntity
  8
universal_board
  6
ByLayer
 62
  256
370
   -1
100
AcDbCircle
 10
133.9799999999926
 20
-22.42000000000023
 40
0.5
  0
CIRCLE
  5
113
100
AcDbEntity
  8
universal_board
  6
ByLayer
 62
  256
370
   -1
100
AcDbCircle
 10
133.9799999999926
 20
-24.96000000000026
 40
0.5
  0
CIRCLE
  5
114
100
AcDbEntity
  8
universal_board
  6
ByLayer
 62
  256
370
   -1
100
AcDbCircle
 10
133.9799999999926
 20
-27.50000000000028
 40
0.5
  0
CIRCLE
  5
115
100
AcDbEntity
  8
universal_board
  6
ByLayer
 62
  256
370
   -1
100
AcDbCircle
 10
133.9799999999926
 20
-30.0400000000003
 40
0.5
  0
CIRCLE
  5
116
100
AcDbEntity
  8
universal_board
  6
ByLayer
 62
  256
370
   -1
100
AcDbCircle
 10
133.9799999999926
 20
-32.58000000000034
 40
0.5
  0
CIRCLE
  5
117
100
AcDbEntity
  8
universal_board
  6
ByLayer
 62
  256
370
   -1
100
AcDbCircle
 10
136.5199999999924
 20
-7.180000000000057
 40
0.5
  0
CIRCLE
  5
118
100
AcDbEntity
  8
universal_board
  6
ByLayer
 62
  256
370
   -1
100
AcDbCircle
 10
136.5199999999924
 20
-9.720000000000084
 40
0.5
  0
CIRCLE
  5
119
100
AcDbEntity
  8
universal_board
  6
ByLayer
 62
  256
370
   -1
100
AcDbCircle
 10
136.5199999999924
 20
-12.26000000000012
 40
0.5
  0
CIRCLE
  5
11A
100
AcDbEntity
  8
universal_board
  6
ByLayer
 62
  256
370
   -1
100
AcDbCircle
 10
136.5199999999924
 20
-14.80000000000014
 40
0.5
  0
CIRCLE
  5
11B
100
AcDbEntity
  8
universal_board
  6
ByLayer
 62
  256
370
   -1
100
AcDbCircle
 10
136.5199999999924
 20
-17.34000000000017
 40
0.5
  0
CIRCLE
  5
11C
100
AcDbEntity
  8
universal_board
  6
ByLayer
 62
  256
370
   -1
100
AcDbCircle
 10
136.5199999999924
 20
-19.8800000000002
 40
0.5
  0
CIRCLE
  5
11D
100
AcDbEntity
  8
universal_board
  6
ByLayer
 62
  256
370
   -1
100
AcDbCircle
 10
136.5199999999924
 20
-22.42000000000023
 40
0.5
  0
CIRCLE
  5
11E
100
AcDbEntity
  8
universal_board
  6
ByLayer
 62
  256
370
   -1
100
AcDbCircle
 10
136.5199999999924
 20
-24.96000000000026
 40
0.5
  0
CIRCLE
  5
11F
100
AcDbEntity
  8
universal_board
  6
ByLayer
 62
  256
370
   -1
100
AcDbCircle
 10
136.5199999999924
 20
-27.50000000000028
 40
0.5
  0
CIRCLE
  5
120
100
AcDbEntity
  8
universal_board
  6
ByLayer
 62
  256
370
   -1
100
AcDbCircle
 10
136.5199999999924
 20
-30.0400000000003
 40
0.5
  0
CIRCLE
  5
121
100
AcDbEntity
  8
universal_board
  6
ByLayer
 62
  256
370
   -1
100
AcDbCircle
 10
136.5199999999924
 20
-32.58000000000034
 40
0.5
  0
CIRCLE
  5
122
100
AcDbEntity
  8
universal_board
  6
ByLayer
 62
  256
370
   -1
100
AcDbCircle
 10
139.0599999999923
 20
-7.180000000000057
 40
0.5
  0
CIRCLE
  5
123
100
AcDbEntity
  8
universal_board
  6
ByLayer
 62
  256
370
   -1
100
AcDbCircle
 10
139.0599999999923
 20
-9.720000000000084
 40
0.5
  0
CIRCLE
  5
124
100
AcDbEntity
  8
universal_board
  6
ByLayer
 62
  256
370
   -1
100
AcDbCircle
 10
139.0599999999923
 20
-12.26000000000012
 40
0.5
  0
CIRCLE
  5
125
100
AcDbEntity
  8
universal_board
  6
ByLayer
 62
  256
370
   -1
100
AcDbCircle
 10
139.0599999999923
 20
-14.80000000000014
 40
0.5
  0
CIRCLE
  5
126
100
AcDbEntity
  8
universal_board
  6
ByLayer
 62
  256
370
   -1
100
AcDbCircle
 10
139.0599999999923
 20
-17.34000000000017
 40
0.5
  0
CIRCLE
  5
127
100
AcDbEntity
  8
universal_board
  6
ByLayer
 62
  256
370
   -1
100
AcDbCircle
 10
139.0599999999923
 20
-19.8800000000002
 40
0.5
  0
CIRCLE
  5
128
100
AcDbEntity
  8
universal_board
  6
ByLayer
 62
  256
370
   -1
100
AcDbCircle
 10
139.0599999999923
 20
-22.42000000000023
 40
0.5
  0
CIRCLE
  5
129
100
AcDbEntity
  8
universal_board
  6
ByLayer
 62
  256
370
   -1
100
AcDbCircle
 10
139.0599999999923
 20
-24.96000000000026
 40
0.5
  0
CIRCLE
  5
12A
100
AcDbEntity
  8
universal_board
  6
ByLayer
 62
  256
370
   -1
100
AcDbCircle
 10
139.0599999999923
 20
-27.50000000000028
 40
0.5
  0
CIRCLE
  5
12B
100
AcDbEntity
  8
universal_board
  6
ByLayer
 62
  256
370
   -1
100
AcDbCircle
 10
139.0599999999923
 20
-30.0400000000003
 40
0.5
  0
CIRCLE
  5
12C
100
AcDbEntity
  8
universal_board
  6
ByLayer
 62
  256
370
   -1
100
AcDbCircle
 10
139.0599999999923
 20
-32.58000000000034
 40
0.5
  0
CIRCLE
  5
12D
100
AcDbEntity
  8
universal_board
  6
ByLayer
 62
  256
370
   -1
100
AcDbCircle
 10
141.5999999999921
 20
-7.180000000000057
 40
0.5
  0
CIRCLE
  5
12E
100
AcDbEntity
  8
universal_board
  6
ByLayer
 62
  256
370
   -1
100
AcDbCircle
 10
141.5999999999921
 20
-9.720000000000084
 40
0.5
  0
CIRCLE
  5
12F
100
AcDbEntity
  8
universal_board
  6
ByLayer
 62
  256
370
   -1
100
AcDbCircle
 10
141.5999999999921
 20
-12.26000000000012
 40
0.5
  0
CIRCLE
  5
130
100
AcDbEntity
  8
universal_board
  6
ByLayer
 62
  256
370
   -1
100
AcDbCircle
 10
141.5999999999921
 20
-14.80000000000014
 40
0.5
  0
CIRCLE
  5
131
100
AcDbEntity
  8
universal_board
  6
ByLayer
 62
  256
370
   -1
100
AcDbCircle
 10
141.5999999999921
 20
-17.34000000000017
 40
0.5
  0
CIRCLE
  5
132
100
AcDbEntity
  8
universal_board
  6
ByLayer
 62
  256
370
   -1
100
AcDbCircle
 10
141.5999999999921
 20
-19.8800000000002
 40
0.5
  0
CIRCLE
  5
133
100
AcDbEntity
  8
universal_board
  6
ByLayer
 62
  256
370
   -1
100
AcDbCircle
 10
141.5999999999921
 20
-22.42000000000023
 40
0.5
  0
CIRCLE
  5
134
100
AcDbEntity
  8
universal_board
  6
ByLayer
 62
  256
370
   -1
100
AcDbCircle
 10
141.5999999999921
 20
-24.96000000000026
 40
0.5
  0
CIRCLE
  5
135
100
AcDbEntity
  8
universal_board
  6
ByLayer
 62
  256
370
   -1
100
AcDbCircle
 10
141.5999999999921
 20
-27.50000000000028
 40
0.5
  0
CIRCLE
  5
136
100
AcDbEntity
  8
universal_board
  6
ByLayer
 62
  256
370
   -1
100
AcDbCircle
 10
141.5999999999921
 20
-30.0400000000003
 40
0.5
  0
CIRCLE
  5
137
100
AcDbEntity
  8
universal_board
  6
ByLayer
 62
  256
370
   -1
100
AcDbCircle
 10
141.5999999999921
 20
-32.58000000000034
 40
0.5
  0
CIRCLE
  5
138
100
AcDbEntity
  8
universal_board
  6
ByLayer
 62
  256
370
   -1
100
AcDbCircle
 10
144.139999999992
 20
-7.180000000000057
 40
0.5
  0
CIRCLE
  5
139
100
AcDbEntity
  8
universal_board
  6
ByLayer
 62
  256
370
   -1
100
AcDbCircle
 10
144.139999999992
 20
-9.720000000000084
 40
0.5
  0
CIRCLE
  5
13A
100
AcDbEntity
  8
universal_board
  6
ByLayer
 62
  256
370
   -1
100
AcDbCircle
 10
144.139999999992
 20
-12.26000000000012
 40
0.5
  0
CIRCLE
  5
13B
100
AcDbEntity
  8
universal_board
  6
ByLayer
 62
  256
370
   -1
100
AcDbCircle
 10
144.139999999992
 20
-14.80000000000014
 40
0.5
  0
CIRCLE
  5
13C
100
AcDbEntity
  8
universal_board
  6
ByLayer
 62
  256
370
   -1
100
AcDbCircle
 10
144.139999999992
 20
-17.34000000000017
 40
0.5
  0
CIRCLE
  5
13D
100
AcDbEntity
  8
universal_board
  6
ByLayer
 62
  256
370
   -1
100
AcDbCircle
 10
144.139999999992
 20
-19.8800000000002
 40
0.5
  0
CIRCLE
  5
13E
100
AcDbEntity
  8
universal_board
  6
ByLayer
 62
  256
370
   -1
100
AcDbCircle
 10
144.139999999992
 20
-22.42000000000023
 40
0.5
  0
CIRCLE
  5
13F
100
AcDbEntity
  8
universal_board
  6
ByLayer
 62
  256
370
   -1
100
AcDbCircle
 10
144.139999999992
 20
-24.96000000000026
 40
0.5
  0
CIRCLE
  5
140
100
AcDbEntity
  8
universal_board
  6
ByLayer
 62
  256
370
   -1
100
AcDbCircle
 10
144.139999999992
 20
-27.50000000000028
 40
0.5
  0
CIRCLE
  5
141
100
AcDbEntity
  8
universal_board
  6
ByLayer
 62
  256
370
   -1
100
AcDbCircle
 10
144.139999999992
 20
-30.0400000000003
 40
0.5
  0
CIRCLE
  5
142
100
AcDbEntity
  8
universal_board
  6
ByLayer
 62
  256
370
   -1
100
AcDbCircle
 10
144.139999999992
 20
-32.58000000000034
 40
0.5
  0
CIRCLE
  5
143
100
AcDbEntity
  8
universal_board
  6
ByLayer
 62
  256
370
   -1
100
AcDbCircle
 10
146.6799999999919
 20
-7.180000000000057
 40
0.5
  0
CIRCLE
  5
144
100
AcDbEntity
  8
universal_board
  6
ByLayer
 62
  256
370
   -1
100
AcDbCircle
 10
146.6799999999919
 20
-9.720000000000084
 40
0.5
  0
CIRCLE
  5
145
100
AcDbEntity
  8
universal_board
  6
ByLayer
 62
  256
370
   -1
100
AcDbCircle
 10
146.6799999999919
 20
-12.26000000000012
 40
0.5
  0
CIRCLE
  5
146
100
AcDbEntity
  8
universal_board
  6
ByLayer
 62
  256
370
   -1
100
AcDbCircle
 10
146.6799999999919
 20
-14.80000000000014
 40
0.5
  0
CIRCLE
  5
147
100
AcDbEntity
  8
universal_board
  6
ByLayer
 62
  256
370
   -1
100
AcDbCircle
 10
146.6799999999919
 20
-17.34000000000017
 40
0.5
  0
CIRCLE
  5
148
100
AcDbEntity
  8
universal_board
  6
ByLayer
 62
  256
370
   -1
100
AcDbCircle
 10
146.6799999999919
 20
-19.8800000000002
 40
0.5
  0
CIRCLE
  5
149
100
AcDbEntity
  8
universal_board
  6
ByLayer
 62
  256
370
   -1
100
AcDbCircle
 10
146.6799999999919
 20
-22.42000000000023
 40
0.5
  0
CIRCLE
  5
14A
100
AcDbEntity
  8
universal_board
  6
ByLayer
 62
  256
370
   -1
100
AcDbCircle
 10
146.6799999999919
 20
-24.96000000000026
 40
0.5
  0
CIRCLE
  5
14B
100
AcDbEntity
  8
universal_board
  6
ByLayer
 62
  256
370
   -1
100
AcDbCircle
 10
146.6799999999919
 20
-27.50000000000028
 40
0.5
  0
CIRCLE
  5
14C
100
AcDbEntity
  8
universal_board
  6
ByLayer
 62
  256
370
   -1
100
AcDbCircle
 10
146.6799999999919
 20
-30.0400000000003
 40
0.5
  0
CIRCLE
  5
14D
100
AcDbEntity
  8
universal_board
  6
ByLayer
 62
  256
370
   -1
100
AcDbCircle
 10
146.6799999999919
 20
-32.58000000000034
 40
0.5
  0
CIRCLE
  5
14E
100
AcDbEntity
  8
universal_board
  6
ByLayer
 62
  256
370
   -1
100
AcDbCircle
 10
149.2199999999917
 20
-7.180000000000057
 40
0.5
  0
CIRCLE
  5
14F
100
AcDbEntity
  8
universal_board
  6
ByLayer
 62
  256
370
   -1
100
AcDbCircle
 10
149.2199999999917
 20
-9.720000000000084
 40
0.5
  0
CIRCLE
  5
150
100
AcDbEntity
  8
universal_board
  6
ByLayer
 62
  256
370
   -1
100
AcDbCircle
 10
149.2199999999917
 20
-12.26000000000012
 40
0.5
  0
CIRCLE
  5
151
100
AcDbEntity
  8
universal_board
  6
ByLayer
 62
  256
370
   -1
100
AcDbCircle
 10
149.2199999999917
 20
-14.80000000000014
 40
0.5
  0
CIRCLE
  5
152
100
AcDbEntity
  8
universal_board
  6
ByLayer
 62
  256
370
   -1
100
AcDbCircle
 10
149.2199999999917
 20
-17.34000000000017
 40
0.5
  0
CIRCLE
  5
153
100
AcDbEntity
  8
universal_board
  6
ByLayer
 62
  256
370
   -1
100
AcDbCircle
 10
149.2199999999917
 20
-19.8800000000002
 40
0.5
  0
CIRCLE
  5
154
100
AcDbEntity
  8
universal_board
  6
ByLayer
 62
  256
370
   -1
100
AcDbCircle
 10
149.2199999999917
 20
-22.42000000000023
 40
0.5
  0
CIRCLE
  5
155
100
AcDbEntity
  8
universal_board
  6
ByLayer
 62
  256
370
   -1
100
AcDbCircle
 10
149.2199999999917
 20
-24.96000000000026
 40
0.5
  0
CIRCLE
  5
156
100
AcDbEntity
  8
universal_board
  6
ByLayer
 62
  256
370
   -1
100
AcDbCircle
 10
149.2199999999917
 20
-27.50000000000028
 40
0.5
  0
CIRCLE
  5
157
100
AcDbEntity
  8
universal_board
  6
ByLayer
 62
  256
370
   -1
100
AcDbCircle
 10
149.2199999999917
 20
-30.0400000000003
 40
0.5
  0
CIRCLE
  5
158
100
AcDbEntity
  8
universal_board
  6
ByLayer
 62
  256
370
   -1
100
AcDbCircle
 10
149.2199999999917
 20
-32.58000000000034
 40
0.5
  0
LINE
  5
159
100
AcDbEntity
  8
socket_header
  6
ByLayer
 62
  256
370
   -1
100
AcDbLine
 10
117.4699999999931
 20
-13.53000000000049
 11
120.0099999999935
 21
-13.53000000000049
  0
LINE
  5
15A
100
AcDbEntity
  8
socket_header
  6
ByLayer
 62
  256
370
   -1
100
AcDbLine
 10
120.0099999999935
 20
-16.0700000000005
 11
120.0099999999935
 21
-13.53000000000009
  0
LINE
  5
15B
100
AcDbEntity
  8
socket_header
  6
ByLayer
 62
  256
370
   -1
100
AcDbLine
 10
117.4699999999931
 20
-13.53000000000009
 11
117.4699999999931
 21
-16.0700000000005
  0
LINE
  5
15C
100
AcDbEntity
  8
socket_header
  6
ByLayer
 62
  256
370
   -1
100
AcDbLine
 10
117.4699999999931
 20
-16.0700000000005
 11
120.0099999999935
 21
-16.0700000000005
  0
LINE
  5
15D
100
AcDbEntity
  8
socket_header
  6
ByLayer
 62
  256
370
   -1
100
AcDbLine
 10
114.9299999999932
 20
-13.53000000000049
 11
117.4699999999936
 21
-13.53000000000049
  0
LINE
  5
15E
100
AcDbEntity
  8
socket_header
  6
ByLayer
 62
  256
370
   -1
100
AcDbLine
 10
117.4699999999937
 20
-16.0700000000005
 11
117.4699999999937
 21
-13.53000000000009
  0
LINE
  5
15F
100
AcDbEntity
  8
socket_header
  6
ByLayer
 62
  256
370
   -1
100
AcDbLine
 10
114.9299999999932
 20
-16.0700000000005
 11
117.4699999999937
 21
-16.0700000000005
  0
LINE
  5
160
100
AcDbEntity
  8
socket_header
  6
ByLayer
 62
  256
370
   -1
100
AcDbLine
 10
117.4699999999931
 20
-16.07000000000049
 11
120.0099999999935
 21
-16.07000000000049
  0
LINE
  5
161
100
AcDbEntity
  8
socket_header
  6
ByLayer
 62
  256
370
   -1
100
AcDbLine
 10
120.0099999999935
 20
-18.61000000000051
 11
120.0099999999935
 21
-16.07000000000009
  0
LINE
  5
162
100
AcDbEntity
  8
socket_header
  6
ByLayer
 62
  256
370
   -1
100
AcDbLine
 10
117.4699999999931
 20
-16.07000000000009
 11
117.4699999999931
 21
-18.61000000000051
  0
LINE
  5
163
100
AcDbEntity
  8
socket_header
  6
ByLayer
 62
  256
370
   -1
100
AcDbLine
 10
114.9299999999932
 20
-16.07000000000049
 11
117.4699999999936
 21
-16.07000000000049
  0
LINE
  5
164
100
AcDbEntity
  8
socket_header
  6
ByLayer
 62
  256
370
   -1
100
AcDbLine
 10
117.4699999999937
 20
-18.61000000000051
 11
117.4699999999937
 21
-16.07000000000009
  0
LINE
  5
165
100
AcDbEntity
  8
socket_header
  6
ByLayer
 62
  256
370
   -1
100
AcDbLine
 10
114.9299999999932
 20
-16.07000000000009
 11
114.9299999999932
 21
-18.61000000000051
  0
LINE
  5
166
100
AcDbEntity
  8
socket_header
  6
ByLayer
 62
  256
370
   -1
100
AcDbLine
 10
117.4699999999931
 20
-18.61000000000049
 11
120.0099999999935
 21
-18.61000000000049
  0
LINE
  5
167
100
AcDbEntity
  8
socket_header
  6
ByLayer
 62
  256
370
   -1
100
AcDbLine
 10
114.9299999999932
 20
-18.61000000000049
 11
117.4699999999936
 21
-18.61000000000049
  0
LINE
  5
168
100
AcDbEntity
  8
socket_header
  6
ByLayer
 62
  256
370
   -1
100
AcDbLine
 10
117.4699999999931
 20
-23.69000000000051
 11
120.0099999999935
 21
-23.69000000000051
  0
LINE
  5
169
100
AcDbEntity
  8
socket_header
  6
ByLayer
 62
  256
370
   -1
100
AcDbLine
 10
120.0099999999935
 20
-26.2300000000005
 11
120.0099999999935
 21
-23.69000000000009
  0
LINE
  5
16A
100
AcDbEntity
  8
socket_header
  6
ByLayer
 62
  256
370
   -1
100
AcDbLine
 10
117.4699999999931
 20
-23.69000000000009
 11
117.4699999999931
 21
-26.2300000000005
  0
LINE
  5
16B
100
AcDbEntity
  8
socket_header
  6
ByLayer
 62
  256
370
   -1
100
AcDbLine
 10
117.4699999999931
 20
-26.2300000000005
 11
120.0099999999935
 21
-26.2300000000005
  0
LINE
  5
16C
100
AcDbEntity
  8
socket_header
  6
ByLayer
 62
  256
370
   -1
100
AcDbLine
 10
114.9299999999932
 20
-23.69000000000049
 11
117.4699999999936
 21
-23.69000000000049
  0
LINE
  5
16D
100
AcDbEntity
  8
socket_header
  6
ByLayer
 62
  256
370
   -1
100
AcDbLine
 10
117.4699999999937
 20
-26.2300000000005
 11
117.4699999999937
 21
-23.69000000000009
  0
LINE
  5
16E
100
AcDbEntity
  8
socket_header
  6
ByLayer
 62
  256
370
   -1
100
AcDbLine
 10
114.9299999999932
 20
-23.69000000000009
 11
114.9299999999932
 21
-26.2300000000005
  0
LINE
  5
16F
100
AcDbEntity
  8
socket_header
  6
ByLayer
 62
  256
370
   -1
100
AcDbLine
 10
114.9299999999932
 20
-26.2300000000005
 11
117.4699999999937
 21
-26.2300000000005
  0
LINE
  5
170
100
AcDbEntity
  8
socket_header
  6
ByLayer
 62
  256
370
   -1
100
AcDbLine
 10
117.4699999999931
 20
-26.23000000000049
 11
120.0099999999935
 21
-26.23000000000049
  0
LINE
  5
171
100
AcDbEntity
  8
socket_header
  6
ByLayer
 62
  256
370
   -1
100
AcDbLine
 10
120.0099999999935
 20
-28.77000000000051
 11
120.0099999999935
 21
-26.23000000000008
  0
LINE
  5
172
100
AcDbEntity
  8
socket_header
  6
ByLayer
 62
  256
370
   -1
100
AcDbLine
 10
117.4699999999931
 20
-26.23000000000008
 11
117.4699999999931
 21
-28.77000000000051
  0
LINE
  5
173
100
AcDbEntity
  8
socket_header
  6
ByLayer
 62
  256
370
   -1
100
AcDbLine
 10
117.4699999999931
 20
-28.77000000000051
 11
120.0099999999935
 21
-28.77000000000051
  0
LINE
  5
174
100
AcDbEntity
  8
socket_header
  6
ByLayer
 62
  256
370
   -1
100
AcDbLine
 10
114.9299999999932
 20
-26.23000000000049
 11
117.4699999999936
 21
-26.23000000000049
  0
LINE
  5
175
100
AcDbEntity
  8
socket_header
  6
ByLayer
 62
  256
370
   -1
100
AcDbLine
 10
117.4699999999937
 20
-28.77000000000051
 11
117.4699999999937
 21
-26.23000000000008
  0
LINE
  5
176
100
AcDbEntity
  8
socket_header
  6
ByLayer
 62
  256
370
   -1
100
AcDbLine
 10
114.9299999999932
 20
-26.23000000000008
 11
114.9299999999932
 21
-28.77000000000051
  0
LINE
  5
177
100
AcDbEntity
  8
socket_header
  6
ByLayer
 62
  256
370
   -1
100
AcDbLine
 10
114.9299999999932
 20
-28.77000000000051
 11
117.4699999999937
 21
-28.77000000000051
  0
LINE
  5
178
100
AcDbEntity
  8
socket_header
  6
ByLayer
 62
  256
370
   -1
100
AcDbLine
 10
117.4699999999931
 20
-28.77000000000049
 11
120.0099999999935
 21
-28.77000000000049
  0
LINE
  5
179
100
AcDbEntity
  8
socket_header
  6
ByLayer
 62
  256
370
   -1
100
AcDbLine
 10
120.0099999999935
 20
-31.31000000000051
 11
120.0099999999935
 21
-28.77000000000008
  0
LINE
  5
17A
100
AcDbEntity
  8
socket_header
  6
ByLayer
 62
  256
370
   -1
100
AcDbLine
 10
117.4699999999931
 20
-28.77000000000008
 11
117.4699999999931
 21
-31.31000000000051
  0
LINE
  5
17B
100
AcDbEntity
  8
socket_header
  6
ByLayer
 62
  256
370
   -1
100
AcDbLine
 10
117.4699999999931
 20
-31.31000000000051
 11
120.0099999999935
 21
-31.31000000000051
  0
LINE
  5
17C
100
AcDbEntity
  8
socket_header
  6
ByLayer
 62
  256
370
   -1
100
AcDbLine
 10
114.9299999999932
 20
-28.77000000000049
 11
117.4699999999936
 21
-28.77000000000049
  0
LINE
  5
17D
100
AcDbEntity
  8
socket_header
  6
ByLayer
 62
  256
370
   -1
100
AcDbLine
 10
117.4699999999937
 20
-31.31000000000051
 11
117.4699999999937
 21
-28.77000000000008
  0
LINE
  5
17E
100
AcDbEntity
  8
socket_header
  6
ByLayer
 62
  256
370
   -1
100
AcDbLine
 10
114.9299999999932
 20
-28.77000000000008
 11
114.9299999999932
 21
-31.31000000000051
  0
LINE
  5
17F
100
AcDbEntity
  8
socket_header
  6
ByLayer
 62
  256
370
   -1
100
AcDbLine
 10
114.9299999999932
 20
-31.31000000000051
 11
117.4699999999937
 21
-31.31000000000051
  0
LINE
  5
180
100
AcDbEntity
  8
socket_header
  6
ByLayer
 62
  256
370
   -1
100
AcDbLine
 10
114.9299999999937
 20
-16.07000000000033
 11
114.9299999999937
 21
-13.5299999999999
  0
LINE
  5
181
100
AcDbEntity
  8
0_wire
  6
ByLayer
 62
  256
370
   -1
100
AcDbLine
 10
118.7399999999933
 20
-27.50000000000031
 11
121.2799999999931
 21
-27.50000000000029
  0
LINE
  5
182
100
AcDbEntity
  8
0_wire
  6
ByLayer
 62
  256
370
   -1
100
AcDbLine
 10
116.1999999999934
 20
-22.42000000000026
 11
116.1999999999934
 21
-24.9600000000003
  0
LINE
  5
183
100
AcDbEntity
  8
micon
  6
ByLayer
 62
  256
370
   -1
100
AcDbLine
 10
140.9649999999909
 20
-15.43499999999964
 11
140.9649999999908
 21
-34.48499999999991
  0
LINE
  5
184
100
AcDbEntity
  8
micon
  6
ByLayer
 62
  256
370
   -1
100
AcDbLine
 10
134.6149999999907
 20
-34.48499999999991
 11
134.6149999999907
 21
-15.43499999999964
  0
LINE
  5
185
100
AcDbEntity
  8
micon
  6
ByLayer
 62
  256
370
   -1
100
AcDbLine
 10
133.9799999999927
 20
-17.3399999999997
 11
134.6149999999907
 21
-17.3399999999997
  0
LINE
  5
186
100
AcDbEntity
  8
micon
  6
ByLayer
 62
  256
370
   -1
100
AcDbLine
 10
133.9799999999927
 20
-19.87999999999973
 11
134.6149999999907
 21
-19.87999999999973
  0
LINE
  5
187
100
AcDbEntity
  8
micon
  6
ByLayer
 62
  256
370
   -1
100
AcDbLine
 10
133.9799999999927
 20
-22.41999999999974
 11
134.6149999999907
 21
-22.41999999999974
  0
LINE
  5
188
100
AcDbEntity
  8
micon
  6
ByLayer
 62
  256
370
   -1
100
AcDbLine
 10
133.9799999999927
 20
-24.95999999999984
 11
134.6149999999907
 21
-24.95999999999984
  0
LINE
  5
189
100
AcDbEntity
  8
micon
  6
ByLayer
 62
  256
370
   -1
100
AcDbLine
 10
133.9799999999927
 20
-27.49999999999982
 11
134.6149999999907
 21
-27.49999999999982
  0
LINE
  5
18A
100
AcDbEntity
  8
micon
  6
ByLayer
 62
  256
370
   -1
100
AcDbLine
 10
133.9799999999927
 20
-30.03999999999984
 11
134.6149999999907
 21
-30.03999999999984
  0
LINE
  5
18B
100
AcDbEntity
  8
micon
  6
ByLayer
 62
  256
370
   -1
100
AcDbLine
 10
133.9799999999927
 20
-32.57999999999983
 11
134.6149999999907
 21
-32.57999999999983
  0
LINE
  5
18C
100
AcDbEntity
  8
micon
  6
ByLayer
 62
  256
370
   -1
100
AcDbLine
 10
140.9649999999908
 20
-32.57999999999983
 11
141.5999999999923
 21
-32.57999999999983
  0
LINE
  5
18D
100
AcDbEntity
  8
micon
  6
ByLayer
 62
  256
370
   -1
100
AcDbLine
 10
140.9649999999908
 20
-30.03999999999984
 11
141.5999999999923
 21
-30.03999999999984
  0
LINE
  5
18E
100
AcDbEntity
  8
micon
  6
ByLayer
 62
  256
370
   -1
100
AcDbLine
 10
140.9649999999908
 20
-27.49999999999982
 11
141.5999999999923
 21
-27.49999999999982
  0
LINE
  5
18F
100
AcDbEntity
  8
micon
  6
ByLayer
 62
  256
370
   -1
100
AcDbLine
 10
140.9649999999908
 20
-24.95999999999984
 11
141.5999999999923
 21
-24.95999999999984
  0
LINE
  5
190
100
AcDbEntity
  8
micon
  6
ByLayer
 62
  256
370
   -1
100
AcDbLine
 10
140.9649999999909
 20
-22.41999999999974
 11
141.5999999999923
 21
-22.41999999999974
  0
LINE
  5
191
100
AcDbEntity
  8
micon
  6
ByLayer
 62
  256
370
   -1
100
AcDbLine
 10
140.9649999999909
 20
-19.87999999999973
 11
141.5999999999923
 21
-19.87999999999973
  0
LINE
  5
192
100
AcDbEntity
  8
micon
  6
ByLayer
 62
  256
370
   -1
100
AcDbLine
 10
140.9649999999909
 20
-17.3399999999997
 11
141.5999999999923
 21
-17.3399999999997
  0
ARC
  5
193
100
AcDbEntity
  8
micon
  6
ByLayer
 62
  256
370
   -1
100
AcDbCircle
 10
137.7899999999908
 20
-15.43499999999964
 40
1.27
100
AcDbArc
 50
179.9999999999987
 51
0
  0
LINE
  5
194
100
AcDbEntity
  8
micon
  6
ByLayer
 62
  256
370
   -1
100
AcDbLine
 10
134.6149999999907
 20
-15.43499999999964
 11
140.9649999999909
 21
-15.43499999999964
  0
LINE
  5
195
100
AcDbEntity
  8
micon
  6
ByLayer
 62
  256
370
   -1
100
AcDbLine
 10
134.6149999999942
 20
-34.48499999999995
 11
140.9649999999941
 21
-34.48499999999995
  0
MTEXT
  5
196
100
AcDbEntity
  8
micon
  6
ByLayer
 62
  256
370
   -1
100
AcDbMText
 10
134.9591271171582
 20
-16.20732668956065
 30
0
 40
1
 41
1.333333333333333
 71
    4
 72
    1
  1
U2
  7
iso
210
0
220
0
230
1
 50
0
 73
    2
 44
1.54
  0
MTEXT
  5
197
100
AcDbEntity
  8
micon
  6
ByLayer
 62
  256
370
   -1
100
AcDbMText
 10
134.8757473511887
 20
-25.07388090739224
 30
0
 40
1
 41
3.111111111111174
 71
    4
 72
    1
  1
VDD\PRA5\PRA4\PMCLR\PRC5\PRC4\PRC3
  7
iso
210
0
220
0
230
1
 50
0
 73
    2
 44
1.54
  0
MTEXT
  5
198
100
AcDbEntity
  8
micon
  6
ByLayer
 62
  256
370
   -1
100
AcDbMText
 10
139.7111113231056
 20
-24.53999999999973
 30
0
 40
1
 41
2.444444020440146
 71
    4
 72
    1
  1
VSS\PRA0\PRA1\PRA2\PRC0\PRC1\PRC2
  7
iso
210
0
220
0
230
1
 50
0
 73
    2
 44
1.54
  0
LINE
  5
199
100
AcDbEntity
  8
socket_header
  6
ByLayer
 62
  256
370
   -1
100
AcDbLine
 10
142.8699999999924
 20
-33.8499999999997
 11
140.329999999992
 21
-33.8499999999997
  0
LINE
  5
19A
100
AcDbEntity
  8
socket_header
  6
ByLayer
 62
  256
370
   -1
100
AcDbLine
 10
140.3299999999922
 20
-31.31000000000017
 11
142.8699999999927
 21
-31.31000000000017
  0
LINE
  5
19B
100
AcDbEntity
  8
socket_header
  6
ByLayer
 62
  256
370
   -1
100
AcDbLine
 10
142.8699999999927
 20
-33.85000000000018
 11
142.8699999999927
 21
-31.30999999999977
  0
LINE
  5
19C
100
AcDbEntity
  8
socket_header
  6
ByLayer
 62
  256
370
   -1
100
AcDbLine
 10
140.3299999999923
 20
-31.30999999999977
 11
140.3299999999923
 21
-33.85000000000018
  0
LINE
  5
19D
100
AcDbEntity
  8
socket_header
  6
ByLayer
 62
  256
370
   -1
100
AcDbLine
 10
132.7099999999926
 20
-31.31000000000019
 11
135.249999999993
 21
-31.31000000000019
  0
LINE
  5
19E
100
AcDbEntity
  8
socket_header
  6
ByLayer
 62
  256
370
   -1
100
AcDbLine
 10
135.249999999993
 20
-33.85000000000021
 11
135.249999999993
 21
-31.3099999999998
  0
LINE
  5
19F
100
AcDbEntity
  8
socket_header
  6
ByLayer
 62
  256
370
   -1
100
AcDbLine
 10
132.7099999999926
 20
-31.3099999999998
 11
132.7099999999926
 21
-33.85000000000021
  0
LINE
  5
1A0
100
AcDbEntity
  8
socket_header
  6
ByLayer
 62
  256
370
   -1
100
AcDbLine
 10
132.7099999999926
 20
-33.85000000000021
 11
135.249999999993
 21
-33.85000000000021
  0
LINE
  5
1A1
100
AcDbEntity
  8
socket_header
  6
ByLayer
 62
  256
370
   -1
100
AcDbLine
 10
140.3299999999922
 20
-28.77000000000013
 11
142.8699999999927
 21
-28.77000000000013
  0
LINE
  5
1A2
100
AcDbEntity
  8
socket_header
  6
ByLayer
 62
  256
370
   -1
100
AcDbLine
 10
142.8699999999927
 20
-31.31000000000014
 11
142.8699999999927
 21
-28.76999999999972
  0
LINE
  5
1A3
100
AcDbEntity
  8
socket_header
  6
ByLayer
 62
  256
370
   -1
100
AcDbLine
 10
140.3299999999923
 20
-28.76999999999972
 11
140.3299999999923
 21
-31.31000000000014
  0
LINE
  5
1A4
100
AcDbEntity
  8
socket_header
  6
ByLayer
 62
  256
370
   -1
100
AcDbLine
 10
140.3299999999923
 20
-31.31000000000014
 11
142.8699999999927
 21
-31.31000000000014
  0
LINE
  5
1A5
100
AcDbEntity
  8
socket_header
  6
ByLayer
 62
  256
370
   -1
100
AcDbLine
 10
132.7099999999926
 20
-28.77000000000016
 11
135.249999999993
 21
-28.77000000000016
  0
LINE
  5
1A6
100
AcDbEntity
  8
socket_header
  6
ByLayer
 62
  256
370
   -1
100
AcDbLine
 10
135.249999999993
 20
-31.31000000000018
 11
135.249999999993
 21
-28.76999999999975
  0
LINE
  5
1A7
100
AcDbEntity
  8
socket_header
  6
ByLayer
 62
  256
370
   -1
100
AcDbLine
 10
132.7099999999926
 20
-28.76999999999975
 11
132.7099999999926
 21
-31.31000000000018
  0
LINE
  5
1A8
100
AcDbEntity
  8
socket_header
  6
ByLayer
 62
  256
370
   -1
100
AcDbLine
 10
132.7099999999926
 20
-31.31000000000018
 11
135.249999999993
 21
-31.31000000000018
  0
LINE
  5
1A9
100
AcDbEntity
  8
socket_header
  6
ByLayer
 62
  256
370
   -1
100
AcDbLine
 10
140.3299999999922
 20
-26.2300000000001
 11
142.8699999999927
 21
-26.2300000000001
  0
LINE
  5
1AA
100
AcDbEntity
  8
socket_header
  6
ByLayer
 62
  256
370
   -1
100
AcDbLine
 10
142.8699999999927
 20
-28.77000000000012
 11
142.8699999999927
 21
-26.22999999999969
  0
LINE
  5
1AB
100
AcDbEntity
  8
socket_header
  6
ByLayer
 62
  256
370
   -1
100
AcDbLine
 10
140.3299999999923
 20
-26.22999999999969
 11
140.3299999999923
 21
-28.77000000000012
  0
LINE
  5
1AC
100
AcDbEntity
  8
socket_header
  6
ByLayer
 62
  256
370
   -1
100
AcDbLine
 10
140.3299999999923
 20
-28.77000000000012
 11
142.8699999999927
 21
-28.77000000000012
  0
LINE
  5
1AD
100
AcDbEntity
  8
socket_header
  6
ByLayer
 62
  256
370
   -1
100
AcDbLine
 10
132.7099999999926
 20
-26.23000000000012
 11
135.249999999993
 21
-26.23000000000012
  0
LINE
  5
1AE
100
AcDbEntity
  8
socket_header
  6
ByLayer
 62
  256
370
   -1
100
AcDbLine
 10
135.249999999993
 20
-28.77000000000015
 11
135.249999999993
 21
-26.22999999999973
  0
LINE
  5
1AF
100
AcDbEntity
  8
socket_header
  6
ByLayer
 62
  256
370
   -1
100
AcDbLine
 10
132.7099999999926
 20
-26.22999999999973
 11
132.7099999999926
 21
-28.77000000000015
  0
LINE
  5
1B0
100
AcDbEntity
  8
socket_header
  6
ByLayer
 62
  256
370
   -1
100
AcDbLine
 10
132.7099999999926
 20
-28.77000000000015
 11
135.249999999993
 21
-28.77000000000015
  0
LINE
  5
1B1
100
AcDbEntity
  8
socket_header
  6
ByLayer
 62
  256
370
   -1
100
AcDbLine
 10
140.3299999999922
 20
-23.69000000000008
 11
142.8699999999927
 21
-23.69000000000008
  0
LINE
  5
1B2
100
AcDbEntity
  8
socket_header
  6
ByLayer
 62
  256
370
   -1
100
AcDbLine
 10
142.8699999999927
 20
-26.2300000000001
 11
142.8699999999927
 21
-23.68999999999968
  0
LINE
  5
1B3
100
AcDbEntity
  8
socket_header
  6
ByLayer
 62
  256
370
   -1
100
AcDbLine
 10
140.3299999999923
 20
-23.68999999999968
 11
140.3299999999923
 21
-26.2300000000001
  0
LINE
  5
1B4
100
AcDbEntity
  8
socket_header
  6
ByLayer
 62
  256
370
   -1
100
AcDbLine
 10
140.3299999999923
 20
-26.2300000000001
 11
142.8699999999927
 21
-26.2300000000001
  0
LINE
  5
1B5
100
AcDbEntity
  8
socket_header
  6
ByLayer
 62
  256
370
   -1
100
AcDbLine
 10
132.7099999999926
 20
-23.6900000000001
 11
135.249999999993
 21
-23.6900000000001
  0
LINE
  5
1B6
100
AcDbEntity
  8
socket_header
  6
ByLayer
 62
  256
370
   -1
100
AcDbLine
 10
135.249999999993
 20
-26.23000000000012
 11
135.249999999993
 21
-23.68999999999971
  0
LINE
  5
1B7
100
AcDbEntity
  8
socket_header
  6
ByLayer
 62
  256
370
   -1
100
AcDbLine
 10
132.7099999999926
 20
-23.68999999999971
 11
132.7099999999926
 21
-26.23000000000011
  0
LINE
  5
1B8
100
AcDbEntity
  8
socket_header
  6
ByLayer
 62
  256
370
   -1
100
AcDbLine
 10
132.7099999999926
 20
-26.23000000000011
 11
135.249999999993
 21
-26.23000000000012
  0
LINE
  5
1B9
100
AcDbEntity
  8
socket_header
  6
ByLayer
 62
  256
370
   -1
100
AcDbLine
 10
140.3299999999922
 20
-21.15000000000003
 11
142.8699999999927
 21
-21.15000000000003
  0
LINE
  5
1BA
100
AcDbEntity
  8
socket_header
  6
ByLayer
 62
  256
370
   -1
100
AcDbLine
 10
142.8699999999927
 20
-23.69000000000005
 11
142.8699999999927
 21
-21.14999999999964
  0
LINE
  5
1BB
100
AcDbEntity
  8
socket_header
  6
ByLayer
 62
  256
370
   -1
100
AcDbLine
 10
140.3299999999923
 20
-21.14999999999964
 11
140.3299999999923
 21
-23.69000000000005
  0
LINE
  5
1BC
100
AcDbEntity
  8
socket_header
  6
ByLayer
 62
  256
370
   -1
100
AcDbLine
 10
140.3299999999923
 20
-23.69000000000005
 11
142.8699999999927
 21
-23.69000000000005
  0
LINE
  5
1BD
100
AcDbEntity
  8
socket_header
  6
ByLayer
 62
  256
370
   -1
100
AcDbLine
 10
132.7099999999926
 20
-21.15000000000006
 11
135.249999999993
 21
-21.15000000000006
  0
LINE
  5
1BE
100
AcDbEntity
  8
socket_header
  6
ByLayer
 62
  256
370
   -1
100
AcDbLine
 10
135.249999999993
 20
-23.69000000000008
 11
135.249999999993
 21
-21.14999999999966
  0
LINE
  5
1BF
100
AcDbEntity
  8
socket_header
  6
ByLayer
 62
  256
370
   -1
100
AcDbLine
 10
132.7099999999926
 20
-21.14999999999966
 11
132.7099999999926
 21
-23.69000000000008
  0
LINE
  5
1C0
100
AcDbEntity
  8
socket_header
  6
ByLayer
 62
  256
370
   -1
100
AcDbLine
 10
132.7099999999926
 20
-23.69000000000008
 11
135.249999999993
 21
-23.69000000000008
  0
LINE
  5
1C1
100
AcDbEntity
  8
socket_header
  6
ByLayer
 62
  256
370
   -1
100
AcDbLine
 10
140.3299999999922
 20
-18.61000000000001
 11
142.8699999999927
 21
-18.61000000000001
  0
LINE
  5
1C2
100
AcDbEntity
  8
socket_header
  6
ByLayer
 62
  256
370
   -1
100
AcDbLine
 10
142.8699999999927
 20
-21.15000000000003
 11
142.8699999999927
 21
-18.60999999999961
  0
LINE
  5
1C3
100
AcDbEntity
  8
socket_header
  6
ByLayer
 62
  256
370
   -1
100
AcDbLine
 10
140.3299999999923
 20
-18.60999999999961
 11
140.3299999999923
 21
-21.15000000000003
  0
LINE
  5
1C4
100
AcDbEntity
  8
socket_header
  6
ByLayer
 62
  256
370
   -1
100
AcDbLine
 10
140.3299999999923
 20
-21.15000000000003
 11
142.8699999999927
 21
-21.15000000000003
  0
LINE
  5
1C5
100
AcDbEntity
  8
socket_header
  6
ByLayer
 62
  256
370
   -1
100
AcDbLine
 10
132.7099999999926
 20
-18.61000000000003
 11
135.249999999993
 21
-18.61000000000003
  0
LINE
  5
1C6
100
AcDbEntity
  8
socket_header
  6
ByLayer
 62
  256
370
   -1
100
AcDbLine
 10
135.249999999993
 20
-21.15000000000006
 11
135.249999999993
 21
-18.60999999999964
  0
LINE
  5
1C7
100
AcDbEntity
  8
socket_header
  6
ByLayer
 62
  256
370
   -1
100
AcDbLine
 10
132.7099999999926
 20
-18.60999999999964
 11
132.7099999999926
 21
-21.15000000000006
  0
LINE
  5
1C8
100
AcDbEntity
  8
socket_header
  6
ByLayer
 62
  256
370
   -1
100
AcDbLine
 10
132.7099999999926
 20
-21.15000000000006
 11
135.249999999993
 21
-21.15000000000006
  0
LINE
  5
1C9
100
AcDbEntity
  8
socket_header
  6
ByLayer
 62
  256
370
   -1
100
AcDbLine
 10
140.3299999999922
 20
-16.06999999999999
 11
142.8699999999927
 21
-16.06999999999999
  0
LINE
  5
1CA
100
AcDbEntity
  8
socket_header
  6
ByLayer
 62
  256
370
   -1
100
AcDbLine
 10
142.8699999999927
 20
-18.60999999999999
 11
142.8699999999927
 21
-16.06999999999957
  0
LINE
  5
1CB
100
AcDbEntity
  8
socket_header
  6
ByLayer
 62
  256
370
   -1
100
AcDbLine
 10
140.3299999999923
 20
-16.06999999999957
 11
140.3299999999923
 21
-18.60999999999999
  0
LINE
  5
1CC
100
AcDbEntity
  8
socket_header
  6
ByLayer
 62
  256
370
   -1
100
AcDbLine
 10
140.3299999999923
 20
-18.60999999999999
 11
142.8699999999927
 21
-18.60999999999999
  0
LINE
  5
1CD
100
AcDbEntity
  8
socket_header
  6
ByLayer
 62
  256
370
   -1
100
AcDbLine
 10
132.7099999999926
 20
-16.07000000000001
 11
135.249999999993
 21
-16.07000000000001
  0
LINE
  5
1CE
100
AcDbEntity
  8
socket_header
  6
ByLayer
 62
  256
370
   -1
100
AcDbLine
 10
135.249999999993
 20
-18.61000000000003
 11
135.249999999993
 21
-16.0699999999996
  0
LINE
  5
1CF
100
AcDbEntity
  8
socket_header
  6
ByLayer
 62
  256
370
   -1
100
AcDbLine
 10
132.7099999999926
 20
-16.0699999999996
 11
132.7099999999926
 21
-18.61000000000003
  0
LINE
  5
1D0
100
AcDbEntity
  8
socket_header
  6
ByLayer
 62
  256
370
   -1
100
AcDbLine
 10
132.7099999999926
 20
-18.61000000000003
 11
135.249999999993
 21
-18.61000000000003
  0
LINE
  5
1D1
100
AcDbEntity
  8
5V line
  6
ByLayer
 62
  256
370
   -1
100
AcDbLine
 10
133.9799999999926
 20
-17.34000000000017
 11
131.4399999999927
 21
-17.34000000000017
  0
LINE
  5
1D2
100
AcDbEntity
  8
0_wire
  6
ByLayer
 62
  256
370
   -1
100
AcDbLine
 10
131.4399999999927
 20
-27.50000000000028
 11
131.4399999999927
 21
-24.96000000000025
  0
LINE
  5
1D3
100
AcDbEntity
  8
0_wire
  6
ByLayer
 62
  256
370
   -1
100
AcDbLine
 10
133.9799999999926
 20
-27.50000000000028
 11
131.4399999999927
 21
-27.50000000000029
  0
LINE
  5
1D4
100
AcDbEntity
  8
0_wire
  6
ByLayer
 62
  256
370
   -1
100
AcDbLine
 10
141.5999999999921
 20
-32.58000000000034
 11
136.5199999999924
 21
-32.58000000000034
  0
LINE
  5
1D5
100
AcDbEntity
  8
0_wire
  6
ByLayer
 62
  256
370
   -1
100
AcDbLine
 10
136.5199999999924
 20
-32.58000000000034
 11
136.5199999999924
 21
-14.80000000000014
  0
LINE
  5
1D6
100
AcDbEntity
  8
0_wire
  6
ByLayer
 62
  256
370
   -1
100
AcDbLine
 10
141.5999999999921
 20
-30.0400000000003
 11
139.0599999999923
 21
-30.0400000000003
  0
LINE
  5
1D7
100
AcDbEntity
  8
0_wire
  6
ByLayer
 62
  256
370
   -1
100
AcDbLine
 10
133.9799999999926
 20
-22.4200000000002
 11
126.3599999999929
 21
-22.42000000000023
  0
LINE
  5
1D8
100
AcDbEntity
  8
0_wire
  6
ByLayer
 62
  256
370
   -1
100
AcDbLine
 10
141.5999999999921
 20
-24.96000000000025
 11
144.139999999992
 21
-24.96000000000025
  0
LINE
  5
1D9
100
AcDbEntity
  8
0_wire
  6
ByLayer
 62
  256
370
   -1
100
AcDbLine
 10
116.1999999999934
 20
-19.88000000000025
 11
116.1999999999934
 21
-17.34000000000022
  0
LINE
  5
1DA
100
AcDbEntity
  8
0_wire
  6
ByLayer
 62
  256
370
   -1
100
AcDbLine
 10
116.1999999999934
 20
-27.50000000000033
 11
113.6599999999935
 21
-27.50000000000034
  0
CIRCLE
  5
1DB
100
AcDbEntity
  8
universal_board
  6
ByLayer
 62
  256
370
   -1
100
AcDbCircle
 10
113.6599999999935
 20
-35.12000000000042
 40
0.5
  0
CIRCLE
  5
1DC
100
AcDbEntity
  8
universal_board
  6
ByLayer
 62
  256
370
   -1
100
AcDbCircle
 10
116.1999999999934
 20
-35.12000000000042
 40
0.5
  0
CIRCLE
  5
1DD
100
AcDbEntity
  8
universal_board
  6
ByLayer
 62
  256
370
   -1
100
AcDbCircle
 10
118.7399999999933
 20
-35.12000000000039
 40
0.5
  0
CIRCLE
  5
1DE
100
AcDbEntity
  8
universal_board
  6
ByLayer
 62
  256
370
   -1
100
AcDbCircle
 10
121.2799999999931
 20
-35.12000000000039
 40
0.5
  0
CIRCLE
  5
1DF
100
AcDbEntity
  8
universal_board
  6
ByLayer
 62
  256
370
   -1
100
AcDbCircle
 10
123.819999999993
 20
-35.12000000000039
 40
0.5
  0
CIRCLE
  5
1E0
100
AcDbEntity
  8
universal_board
  6
ByLayer
 62
  256
370
   -1
100
AcDbCircle
 10
126.3599999999929
 20
-35.12000000000037
 40
0.5
  0
CIRCLE
  5
1E1
100
AcDbEntity
  8
universal_board
  6
ByLayer
 62
  256
370
   -1
100
AcDbCircle
 10
128.8999999999928
 20
-35.12000000000037
 40
0.5
  0
CIRCLE
  5
1E2
100
AcDbEntity
  8
universal_board
  6
ByLayer
 62
  256
370
   -1
100
AcDbCircle
 10
111.1199999999936
 20
-35.12000000000042
 40
0.5
  0
CIRCLE
  5
1E3
100
AcDbEntity
  8
universal_board
  6
ByLayer
 62
  256
370
   -1
100
AcDbCircle
 10
131.4399999999927
 20
-35.12000000000037
 40
0.5
  0
CIRCLE
  5
1E4
100
AcDbEntity
  8
universal_board
  6
ByLayer
 62
  256
370
   -1
100
AcDbCircle
 10
133.9799999999926
 20
-35.12000000000037
 40
0.5
  0
CIRCLE
  5
1E5
100
AcDbEntity
  8
universal_board
  6
ByLayer
 62
  256
370
   -1
100
AcDbCircle
 10
136.5199999999924
 20
-35.12000000000037
 40
0.5
  0
CIRCLE
  5
1E6
100
AcDbEntity
  8
universal_board
  6
ByLayer
 62
  256
370
   -1
100
AcDbCircle
 10
139.0599999999923
 20
-35.12000000000037
 40
0.5
  0
CIRCLE
  5
1E7
100
AcDbEntity
  8
universal_board
  6
ByLayer
 62
  256
370
   -1
100
AcDbCircle
 10
141.5999999999921
 20
-35.12000000000037
 40
0.5
  0
CIRCLE
  5
1E8
100
AcDbEntity
  8
universal_board
  6
ByLayer
 62
  256
370
   -1
100
AcDbCircle
 10
144.139999999992
 20
-35.12000000000037
 40
0.5
  0
CIRCLE
  5
1E9
100
AcDbEntity
  8
universal_board
  6
ByLayer
 62
  256
370
   -1
100
AcDbCircle
 10
146.6799999999919
 20
-35.12000000000037
 40
0.5
  0
CIRCLE
  5
1EA
100
AcDbEntity
  8
universal_board
  6
ByLayer
 62
  256
370
   -1
100
AcDbCircle
 10
149.2199999999917
 20
-35.12000000000037
 40
0.5
  0
CIRCLE
  5
1EB
100
AcDbEntity
  8
universal_board
  6
ByLayer
 62
  256
370
   -1
100
AcDbCircle
 10
113.6599999999935
 20
-37.66000000000046
 40
0.5
  0
CIRCLE
  5
1EC
100
AcDbEntity
  8
universal_board
  6
ByLayer
 62
  256
370
   -1
100
AcDbCircle
 10
116.1999999999934
 20
-37.66000000000046
 40
0.5
  0
CIRCLE
  5
1ED
100
AcDbEntity
  8
universal_board
  6
ByLayer
 62
  256
370
   -1
100
AcDbCircle
 10
118.7399999999933
 20
-37.66000000000042
 40
0.5
  0
CIRCLE
  5
1EE
100
AcDbEntity
  8
universal_board
  6
ByLayer
 62
  256
370
   -1
100
AcDbCircle
 10
121.2799999999931
 20
-37.66000000000042
 40
0.5
  0
CIRCLE
  5
1EF
100
AcDbEntity
  8
universal_board
  6
ByLayer
 62
  256
370
   -1
100
AcDbCircle
 10
123.819999999993
 20
-37.66000000000042
 40
0.5
  0
CIRCLE
  5
1F0
100
AcDbEntity
  8
universal_board
  6
ByLayer
 62
  256
370
   -1
100
AcDbCircle
 10
126.3599999999929
 20
-37.66000000000041
 40
0.5
  0
CIRCLE
  5
1F1
100
AcDbEntity
  8
universal_board
  6
ByLayer
 62
  256
370
   -1
100
AcDbCircle
 10
128.8999999999928
 20
-37.66000000000041
 40
0.5
  0
CIRCLE
  5
1F2
100
AcDbEntity
  8
universal_board
  6
ByLayer
 62
  256
370
   -1
100
AcDbCircle
 10
111.1199999999936
 20
-37.66000000000047
 40
0.5
  0
CIRCLE
  5
1F3
100
AcDbEntity
  8
universal_board
  6
ByLayer
 62
  256
370
   -1
100
AcDbCircle
 10
131.4399999999927
 20
-37.66000000000041
 40
0.5
  0
CIRCLE
  5
1F4
100
AcDbEntity
  8
universal_board
  6
ByLayer
 62
  256
370
   -1
100
AcDbCircle
 10
133.9799999999926
 20
-37.66000000000041
 40
0.5
  0
CIRCLE
  5
1F5
100
AcDbEntity
  8
universal_board
  6
ByLayer
 62
  256
370
   -1
100
AcDbCircle
 10
136.5199999999924
 20
-37.66000000000041
 40
0.5
  0
CIRCLE
  5
1F6
100
AcDbEntity
  8
universal_board
  6
ByLayer
 62
  256
370
   -1
100
AcDbCircle
 10
139.0599999999923
 20
-37.66000000000041
 40
0.5
  0
CIRCLE
  5
1F7
100
AcDbEntity
  8
universal_board
  6
ByLayer
 62
  256
370
   -1
100
AcDbCircle
 10
141.5999999999921
 20
-37.66000000000041
 40
0.5
  0
CIRCLE
  5
1F8
100
AcDbEntity
  8
universal_board
  6
ByLayer
 62
  256
370
   -1
100
AcDbCircle
 10
144.139999999992
 20
-37.66000000000041
 40
0.5
  0
CIRCLE
  5
1F9
100
AcDbEntity
  8
universal_board
  6
ByLayer
 62
  256
370
   -1
100
AcDbCircle
 10
146.6799999999919
 20
-37.66000000000041
 40
0.5
  0
CIRCLE
  5
1FA
100
AcDbEntity
  8
universal_board
  6
ByLayer
 62
  256
370
   -1
100
AcDbCircle
 10
149.2199999999917
 20
-37.66000000000041
 40
0.5
  0
LINE
  5
1FB
100
AcDbEntity
  8
socket_header
  6
ByLayer
 62
  256
370
   -1
100
AcDbLine
 10
109.8499999999934
 20
-10.99000000000041
 11
112.3899999999939
 21
-10.99000000000041
  0
LINE
  5
1FC
100
AcDbEntity
  8
socket_header
  6
ByLayer
 62
  256
370
   -1
100
AcDbLine
 10
109.8499999999934
 20
-8.450000000000376
 11
112.3899999999939
 21
-8.450000000000376
  0
LINE
  5
1FD
100
AcDbEntity
  8
socket_header
  6
ByLayer
 62
  256
370
   -1
100
AcDbLine
 10
112.3899999999939
 20
-10.99000000000038
 11
112.3899999999939
 21
-8.449999999999957
  0
LINE
  5
1FE
100
AcDbEntity
  8
socket_header
  6
ByLayer
 62
  256
370
   -1
100
AcDbLine
 10
109.849999999994
 20
-10.99000000000038
 11
109.849999999994
 21
-8.449999999999957
  0
LINE
  5
1FF
100
AcDbEntity
  8
socket_header
  6
ByLayer
 62
  256
370
   -1
100
AcDbLine
 10
109.8499999999934
 20
-5.910000000000345
 11
112.3899999999939
 21
-5.910000000000345
  0
LINE
  5
200
100
AcDbEntity
  8
socket_header
  6
ByLayer
 62
  256
370
   -1
100
AcDbLine
 10
112.3899999999939
 20
-8.450000000000344
 11
112.3899999999939
 21
-5.909999999999926
  0
LINE
  5
201
100
AcDbEntity
  8
socket_header
  6
ByLayer
 62
  256
370
   -1
100
AcDbLine
 10
109.849999999994
 20
-8.450000000000344
 11
109.849999999994
 21
-5.909999999999926
  0
LINE
  5
202
100
AcDbEntity
  8
socket_header
  6
ByLayer
 62
  256
370
   -1
100
AcDbLine
 10
109.8499999999934
 20
-8.450000000000365
 11
112.3899999999939
 21
-8.450000000000365
  0
LINE
  5
203
100
AcDbEntity
  8
socket_header
  6
ByLayer
 62
  256
370
   -1
100
AcDbLine
 10
109.8499999999934
 20
-21.15000000000049
 11
112.3899999999939
 21
-21.15000000000049
  0
LINE
  5
204
100
AcDbEntity
  8
socket_header
  6
ByLayer
 62
  256
370
   -1
100
AcDbLine
 10
112.3899999999939
 20
-23.69000000000052
 11
112.3899999999939
 21
-21.15000000000011
  0
LINE
  5
205
100
AcDbEntity
  8
socket_header
  6
ByLayer
 62
  256
370
   -1
100
AcDbLine
 10
109.849999999994
 20
-23.69000000000052
 11
109.849999999994
 21
-21.15000000000011
  0
LINE
  5
206
100
AcDbEntity
  8
socket_header
  6
ByLayer
 62
  256
370
   -1
100
AcDbLine
 10
109.8499999999934
 20
-23.69000000000051
 11
112.3899999999939
 21
-23.69000000000051
  0
LINE
  5
207
100
AcDbEntity
  8
socket_header
  6
ByLayer
 62
  256
370
   -1
100
AcDbLine
 10
109.8499999999934
 20
-23.69000000000054
 11
112.3899999999939
 21
-23.69000000000054
  0
LINE
  5
208
100
AcDbEntity
  8
socket_header
  6
ByLayer
 62
  256
370
   -1
100
AcDbLine
 10
112.3899999999939
 20
-26.23000000000054
 11
112.3899999999939
 21
-23.69000000000013
  0
LINE
  5
209
100
AcDbEntity
  8
socket_header
  6
ByLayer
 62
  256
370
   -1
100
AcDbLine
 10
109.849999999994
 20
-26.23000000000054
 11
109.849999999994
 21
-23.69000000000013
  0
LINE
  5
20A
100
AcDbEntity
  8
socket_header
  6
ByLayer
 62
  256
370
   -1
100
AcDbLine
 10
109.8499999999934
 20
-26.23000000000052
 11
112.3899999999939
 21
-26.23000000000052
  0
LINE
  5
20B
100
AcDbEntity
  8
socket_header
  6
ByLayer
 62
  256
370
   -1
100
AcDbLine
 10
109.8499999999934
 20
-26.23000000000054
 11
112.3899999999939
 21
-26.23000000000054
  0
LINE
  5
20C
100
AcDbEntity
  8
socket_header
  6
ByLayer
 62
  256
370
   -1
100
AcDbLine
 10
112.3899999999939
 20
-28.77000000000058
 11
112.3899999999939
 21
-26.23000000000015
  0
LINE
  5
20D
100
AcDbEntity
  8
socket_header
  6
ByLayer
 62
  256
370
   -1
100
AcDbLine
 10
109.849999999994
 20
-28.77000000000058
 11
109.849999999994
 21
-26.23000000000015
  0
LINE
  5
20E
100
AcDbEntity
  8
socket_header
  6
ByLayer
 62
  256
370
   -1
100
AcDbLine
 10
109.8499999999934
 20
-28.77000000000057
 11
112.3899999999939
 21
-28.77000000000057
  0
CIRCLE
  5
20F
100
AcDbEntity
  8
0_wire
  6
ByLayer
 62
  256
370
   -1
100
AcDbCircle
 10
111.1199999999936
 20
-24.96000000000033
 40
0.4
  0
LINE
  5
210
100
AcDbEntity
  8
0_wire
  6
ByLayer
 62
  256
370
   -1
100
AcDbLine
 10
116.1999999999934
 20
-12.26000000000017
 11
116.1999999999934
 21
-14.80000000000019
  0
LINE
  5
211
100
AcDbEntity
  8
0_wire
  6
ByLayer
 62
  256
370
   -1
100
AcDbLine
 10
113.6599999999935
 20
-12.26000000000016
 11
113.6599999999935
 21
-27.50000000000032
  0
LINE
  5
212
100
AcDbEntity
  8
0_GND
  6
ByLayer
 62
  256
370
   -1
100
AcDbLine
 10
111.1199999999936
 20
-12.26000000000019
 11
111.1199999999936
 21
-22.4200000000003
  0
LINE
  5
213
100
AcDbEntity
  8
0_wire
  6
ByLayer
 62
  256
370
   -1
100
AcDbLine
 10
128.8999999999928
 20
-27.50000000000028
 11
128.8999999999928
 21
-30.0400000000003
  0
LINE
  5
214
100
AcDbEntity
  8
0_wire
  6
ByLayer
 62
  256
370
   -1
100
AcDbLine
 10
133.9799999999926
 20
-30.0400000000003
 11
128.8999999999928
 21
-30.0400000000003
  0
LINE
  5
215
100
AcDbEntity
  8
0_wire
  6
ByLayer
 62
  256
370
   -1
100
AcDbLine
 10
128.8999999999928
 20
-27.50000000000026
 11
123.819999999993
 21
-27.50000000000029
  0
LINE
  5
216
100
AcDbEntity
  8
0_wire
  6
ByLayer
 62
  256
370
   -1
100
AcDbLine
 10
131.4399999999927
 20
-24.96000000000025
 11
118.7399999999933
 21
-24.96000000000025
  0
LINE
  5
217
100
AcDbEntity
  8
0_wire
  6
ByLayer
 62
  256
370
   -1
100
AcDbLine
 10
133.9799999999926
 20
-19.88000000000017
 11
128.8999999999928
 21
-19.88000000000019
  0
LINE
  5
218
100
AcDbEntity
  8
0_wire
  6
ByLayer
 62
  256
370
   -1
100
AcDbLine
 10
136.5199999999924
 20
-14.80000000000013
 11
131.4399999999927
 21
-14.80000000000014
  0
CIRCLE
  5
219
100
AcDbEntity
  8
0_wire
  6
ByLayer
 62
  256
370
   -1
100
AcDbCircle
 10
141.5999999999921
 20
-19.8800000000002
 40
0.4
  0
CIRCLE
  5
21A
100
AcDbEntity
  8
0_wire
  6
ByLayer
 62
  256
370
   -1
100
AcDbCircle
 10
141.5999999999921
 20
-22.42000000000023
 40
0.4
  0
CIRCLE
  5
21B
100
AcDbEntity
  8
0_wire
  6
ByLayer
 62
  256
370
   -1
100
AcDbCircle
 10
133.9799999999926
 20
-24.96000000000026
 40
0.4
  0
LINE
  5
21C
100
AcDbEntity
  8
0_wire
  6
ByLayer
 62
  256
370
   -1
100
AcDbLine
 10
121.2799999999931
 20
-14.80000000000016
 11
118.7399999999933
 21
-14.80000000000017
  0
LINE
  5
21D
100
AcDbEntity
  8
0_wire
  6
ByLayer
 62
  256
370
   -1
100
AcDbLine
 10
111.1199999999936
 20
-7.180000000000128
 11
113.6599999999935
 21
-7.180000000000117
  0
LINE
  5
21E
100
AcDbEntity
  8
0_wire
  6
ByLayer
 62
  256
370
   -1
100
AcDbLine
 10
116.1999999999934
 20
-9.720000000000132
 11
111.1199999999936
 21
-9.720000000000155
  0
MTEXT
  5
21F
100
AcDbEntity
  8
socket_header
  6
ByLayer
 62
  256
370
   -1
100
AcDbMText
 10
108.0875699428141
 20
-17.11001825087157
 30
0
 40
1
 41
1.923333333333333
 71
    5
 72
    1
  1
SCL\PSDA\P\P\P\P\PGND\P\PVCC
  7
azomix
210
0
220
0
230
1
 50
0
 73
    2
 44
1.54
  0
LINE
  5
220
100
AcDbEntity
  8
universal_board
  6
ByLayer
 62
  256
370
   -1
100
AcDbLine
 10
109.849999999994
 20
-38.93000000000065
 11
109.849999999994
 21
-6.070000000000455
  0
LINE
  5
221
100
AcDbEntity
  8
universal_board
  6
ByLayer
 62
  256
370
   -1
100
AcDbLine
 10
109.849999999994
 20
-38.93000000000065
 11
150.3299999999926
 21
-38.93000000000065
  0
LINE
  5
222
100
AcDbEntity
  8
universal_board
  6
ByLayer
 62
  256
370
   -1
100
AcDbLine
 10
150.489999999992
 20
-38.93000000000062
 11
150.489999999992
 21
-5.910000000000345
  0
LINE
  5
223
100
AcDbEntity
  8
universal_board
  6
ByLayer
 62
  256
370
   -1
100
AcDbLine
 10
109.849999999994
 20
-5.910000000000345
 11
150.489999999992
 21
-5.910000000000345
  0
MTEXT
  5
224
100
AcDbEntity
  8
universal_board
  6
ByLayer
 62
  256
370
   -1
100
AcDbMText
 10
147.5244094676972
 20
-7.106476634920463
 30
0
 40
1
 41
1.681111111111111
 71
    5
 72
    1
  1
UB1
  7
azomix
210
0
220
0
230
1
 50
0
 73
    2
 44
1.54
  0
MTEXT
  5
225
100
AcDbEntity
  8
socket_header
  6
ByLayer
 62
  256
370
   -1
100
AcDbMText
 10
110.0961509582156
 20
-5.142181028920506
 30
0
 40
1
 41
0.701111111111111
 71
    5
 72
    1
  1
J1
  7
azomix
210
0
220
0
230
1
 50
0
 73
    2
 44
1.54
  0
MTEXT
  5
226
100
AcDbEntity
  8
socket_header
  6
ByLayer
 62
  256
370
   -1
100
AcDbMText
 10
119.4410760973117
 20
-12.85545257230144
 30
0
 40
1
 41
0.8055555555555556
 71
    5
 72
    1
  1
J3
  7
azomix
210
0
220
0
230
1
 50
0
 73
    2
 44
1.54
  0
MTEXT
  5
227
100
AcDbEntity
  8
socket_header
  6
ByLayer
 62
  256
370
   -1
100
AcDbMText
 10
118.9466356137616
 20
-22.99148248507766
 30
0
 40
1
 41
0.8744444444444444
 71
    5
 72
    1
  1
J4
  7
azomix
210
0
220
0
230
1
 50
0
 73
    2
 44
1.54
  0
MTEXT
  5
228
100
AcDbEntity
  8
socket_header
  6
ByLayer
 62
  256
370
   -1
100
AcDbMText
 10
132.2470846212582
 20
-15.52543118347176
 30
0
 40
1
 41
0.8055555555555556
 71
    5
 72
    1
  1
J5
  7
azomix
210
0
220
0
230
1
 50
0
 73
    2
 44
1.54
  0
SPLINE
  5
229
100
AcDbEntity
  8
resister
  6
ByLayer
 62
  256
370
   -1
100
AcDbSpline
210
0
220
0
230
0
 70
    8
 71
    2
 72
    9
 73
    6
 74
    0
 42
1e-07
 43
1e-07
 40
0
 40
0
 40
0
 40
0.25
 40
0.5
 40
0.75
 40
1
 40
1
 40
1
 10
131.4399999999927
 20
-17.34000000000017
 30
0
 10
132.0303761661324
 20
-19.22903447144487
 30
0
 10
131.9129488534047
 20
-23.03100507963691
 30
0
 10
131.9301602410524
 20
-27.24079607894434
 30
0
 10
132.0260897002099
 20
-33.52421844669925
 30
0
 10
131.4399999999927
 20
-37.66000000000041
 30
0
  0
LINE
  5
22A
100
AcDbEntity
  8
5V line
  6
ByLayer
 62
  256
370
   -1
100
AcDbLine
 10
131.4399999999927
 20
-37.66000000000041
 11
128.8999999999928
 21
-37.66000000000041
  0
LINE
  5
22B
100
AcDbEntity
  8
0_GND
  6
ByLayer
 62
  256
370
   -1
100
AcDbLine
 10
128.8999999999928
 20
-35.12000000000037
 11
146.6799999999919
 21
-35.12000000000037
  0
LINE
  5
22C
100
AcDbEntity
  8
condenser
  6
ByLayer
 62
  256
370
   -1
100
AcDbLine
 10
129.7999999999928
 20
-34.63999999999948
 11
127.9999999999921
 21
-34.63999999999948
  0
LINE
  5
22D
100
AcDbEntity
  8
condenser
  6
ByLayer
 62
  256
370
   -1
100
AcDbLine
 10
127.9999999999921
 20
-34.63999999999948
 11
127.9999999999921
 21
-38.13999999999992
  0
LINE
  5
22E
100
AcDbEntity
  8
condenser
  6
ByLayer
 62
  256
370
   -1
100
AcDbLine
 10
127.9999999999921
 20
-38.13999999999992
 11
129.7999999999928
 21
-38.13999999999992
  0
LINE
  5
22F
100
AcDbEntity
  8
condenser
  6
ByLayer
 62
  256
370
   -1
100
AcDbLine
 10
129.7999999999928
 20
-38.13999999999992
 11
129.7999999999928
 21
-34.63999999999948
  0
MTEXT
  5
230
100
AcDbEntity
  8
condenser
  6
ByLayer
 62
  256
370
   -1
100
AcDbMText
 10
128.9696899419233
 20
-36.44750474802288
 30
0
 40
1
 41
1.000000000000124
 71
    5
 72
    1
  1
C1
  7
STANDARD
210
0
220
0
230
1
 50
0
 73
    2
 44
1
  0
LINE
  5
231
100
AcDbEntity
  8
condenser
  6
ByLayer
 62
  256
370
   -1
100
AcDbLine
 10
128.8999999999928
 20
-34.63999999999948
 11
128.8999999999928
 21
-35.12000000000035
  0
LINE
  5
232
100
AcDbEntity
  8
condenser
  6
ByLayer
 62
  256
370
   -1
100
AcDbLine
 10
128.8999999999928
 20
-37.66000000000042
 11
128.8999999999928
 21
-38.13999999999992
  0
MTEXT
  5
233
100
AcDbEntity
  8
0
  6
ByLayer
 62
  256
370
   -1
100
AcDbMText
 10
129.0012070420343
 20
-4.069897236255729
 30
0
 40
1
 41
4.708888888888889
 71
    5
 72
    1
  1
2
  7
azomix
210
0
220
0
230
1
 50
0
 73
    2
 44
1.54
  0
CIRCLE
  5
234
100
AcDbEntity
  8
universal_board
  6
ByLayer
 62
  256
370
   -1
100
AcDbCircle
 10
113.6599999999935
 20
-45.28000000000054
 40
0.5
  0
CIRCLE
  5
235
100
AcDbEntity
  8
universal_board
  6
ByLayer
 62
  256
370
   -1
100
AcDbCircle
 10
116.1999999999934
 20
-45.28000000000053
 40
0.5
  0
CIRCLE
  5
236
100
AcDbEntity
  8
universal_board
  6
ByLayer
 62
  256
370
   -1
100
AcDbCircle
 10
118.7399999999933
 20
-45.2800000000005
 40
0.5
  0
CIRCLE
  5
237
100
AcDbEntity
  8
universal_board
  6
ByLayer
 62
  256
370
   -1
100
AcDbCircle
 10
121.2799999999931
 20
-45.2800000000005
 40
0.5
  0
CIRCLE
  5
238
100
AcDbEntity
  8
universal_board
  6
ByLayer
 62
  256
370
   -1
100
AcDbCircle
 10
123.819999999993
 20
-45.2800000000005
 40
0.5
  0
CIRCLE
  5
239
100
AcDbEntity
  8
universal_board
  6
ByLayer
 62
  256
370
   -1
100
AcDbCircle
 10
126.3599999999929
 20
-45.28000000000047
 40
0.5
  0
CIRCLE
  5
23A
100
AcDbEntity
  8
universal_board
  6
ByLayer
 62
  256
370
   -1
100
AcDbCircle
 10
128.8999999999928
 20
-45.28000000000047
 40
0.5
  0
CIRCLE
  5
23B
100
AcDbEntity
  8
universal_board
  6
ByLayer
 62
  256
370
   -1
100
AcDbCircle
 10
111.1199999999936
 20
-45.28000000000054
 40
0.5
  0
CIRCLE
  5
23C
100
AcDbEntity
  8
universal_board
  6
ByLayer
 62
  256
370
   -1
100
AcDbCircle
 10
113.6599999999935
 20
-47.82000000000056
 40
0.5
  0
CIRCLE
  5
23D
100
AcDbEntity
  8
universal_board
  6
ByLayer
 62
  256
370
   -1
100
AcDbCircle
 10
116.1999999999934
 20
-47.82000000000055
 40
0.5
  0
CIRCLE
  5
23E
100
AcDbEntity
  8
universal_board
  6
ByLayer
 62
  256
370
   -1
100
AcDbCircle
 10
118.7399999999933
 20
-47.82000000000053
 40
0.5
  0
CIRCLE
  5
23F
100
AcDbEntity
  8
universal_board
  6
ByLayer
 62
  256
370
   -1
100
AcDbCircle
 10
121.2799999999931
 20
-47.82000000000052
 40
0.5
  0
CIRCLE
  5
240
100
AcDbEntity
  8
universal_board
  6
ByLayer
 62
  256
370
   -1
100
AcDbCircle
 10
123.819999999993
 20
-47.82000000000052
 40
0.5
  0
CIRCLE
  5
241
100
AcDbEntity
  8
universal_board
  6
ByLayer
 62
  256
370
   -1
100
AcDbCircle
 10
126.3599999999929
 20
-47.8200000000005
 40
0.5
  0
CIRCLE
  5
242
100
AcDbEntity
  8
universal_board
  6
ByLayer
 62
  256
370
   -1
100
AcDbCircle
 10
128.8999999999928
 20
-47.8200000000005
 40
0.5
  0
CIRCLE
  5
243
100
AcDbEntity
  8
universal_board
  6
ByLayer
 62
  256
370
   -1
100
AcDbCircle
 10
111.1199999999936
 20
-47.82000000000058
 40
0.5
  0
CIRCLE
  5
244
100
AcDbEntity
  8
universal_board
  6
ByLayer
 62
  256
370
   -1
100
AcDbCircle
 10
113.6599999999935
 20
-50.3600000000006
 40
0.5
  0
CIRCLE
  5
245
100
AcDbEntity
  8
universal_board
  6
ByLayer
 62
  256
370
   -1
100
AcDbCircle
 10
116.1999999999934
 20
-50.36000000000058
 40
0.5
  0
CIRCLE
  5
246
100
AcDbEntity
  8
universal_board
  6
ByLayer
 62
  256
370
   -1
100
AcDbCircle
 10
118.7399999999933
 20
-50.36000000000055
 40
0.5
  0
CIRCLE
  5
247
100
AcDbEntity
  8
universal_board
  6
ByLayer
 62
  256
370
   -1
100
AcDbCircle
 10
121.2799999999931
 20
-50.36000000000055
 40
0.5
  0
CIRCLE
  5
248
100
AcDbEntity
  8
universal_board
  6
ByLayer
 62
  256
370
   -1
100
AcDbCircle
 10
123.819999999993
 20
-50.36000000000055
 40
0.5
  0
CIRCLE
  5
249
100
AcDbEntity
  8
universal_board
  6
ByLayer
 62
  256
370
   -1
100
AcDbCircle
 10
126.3599999999929
 20
-50.36000000000054
 40
0.5
  0
CIRCLE
  5
24A
100
AcDbEntity
  8
universal_board
  6
ByLayer
 62
  256
370
   -1
100
AcDbCircle
 10
128.8999999999928
 20
-50.36000000000054
 40
0.5
  0
CIRCLE
  5
24B
100
AcDbEntity
  8
universal_board
  6
ByLayer
 62
  256
370
   -1
100
AcDbCircle
 10
111.1199999999936
 20
-50.3600000000006
 40
0.5
  0
CIRCLE
  5
24C
100
AcDbEntity
  8
universal_board
  6
ByLayer
 62
  256
370
   -1
100
AcDbCircle
 10
113.6599999999935
 20
-52.90000000000062
 40
0.5
  0
CIRCLE
  5
24D
100
AcDbEntity
  8
universal_board
  6
ByLayer
 62
  256
370
   -1
100
AcDbCircle
 10
116.1999999999934
 20
-52.9000000000006
 40
0.5
  0
CIRCLE
  5
24E
100
AcDbEntity
  8
universal_board
  6
ByLayer
 62
  256
370
   -1
100
AcDbCircle
 10
118.7399999999933
 20
-52.90000000000059
 40
0.5
  0
CIRCLE
  5
24F
100
AcDbEntity
  8
universal_board
  6
ByLayer
 62
  256
370
   -1
100
AcDbCircle
 10
121.2799999999931
 20
-52.90000000000057
 40
0.5
  0
CIRCLE
  5
250
100
AcDbEntity
  8
universal_board
  6
ByLayer
 62
  256
370
   -1
100
AcDbCircle
 10
123.819999999993
 20
-52.90000000000057
 40
0.5
  0
CIRCLE
  5
251
100
AcDbEntity
  8
universal_board
  6
ByLayer
 62
  256
370
   -1
100
AcDbCircle
 10
126.3599999999929
 20
-52.90000000000055
 40
0.5
  0
CIRCLE
  5
252
100
AcDbEntity
  8
universal_board
  6
ByLayer
 62
  256
370
   -1
100
AcDbCircle
 10
128.8999999999928
 20
-52.90000000000055
 40
0.5
  0
CIRCLE
  5
253
100
AcDbEntity
  8
universal_board
  6
ByLayer
 62
  256
370
   -1
100
AcDbCircle
 10
111.1199999999936
 20
-52.90000000000062
 40
0.5
  0
CIRCLE
  5
254
100
AcDbEntity
  8
universal_board
  6
ByLayer
 62
  256
370
   -1
100
AcDbCircle
 10
113.6599999999935
 20
-55.44000000000064
 40
0.5
  0
CIRCLE
  5
255
100
AcDbEntity
  8
universal_board
  6
ByLayer
 62
  256
370
   -1
100
AcDbCircle
 10
116.1999999999934
 20
-55.44000000000064
 40
0.5
  0
CIRCLE
  5
256
100
AcDbEntity
  8
universal_board
  6
ByLayer
 62
  256
370
   -1
100
AcDbCircle
 10
118.7399999999933
 20
-55.44000000000061
 40
0.5
  0
CIRCLE
  5
257
100
AcDbEntity
  8
universal_board
  6
ByLayer
 62
  256
370
   -1
100
AcDbCircle
 10
121.2799999999931
 20
-55.44000000000059
 40
0.5
  0
CIRCLE
  5
258
100
AcDbEntity
  8
universal_board
  6
ByLayer
 62
  256
370
   -1
100
AcDbCircle
 10
123.819999999993
 20
-55.44000000000059
 40
0.5
  0
CIRCLE
  5
259
100
AcDbEntity
  8
universal_board
  6
ByLayer
 62
  256
370
   -1
100
AcDbCircle
 10
126.3599999999929
 20
-55.44000000000058
 40
0.5
  0
CIRCLE
  5
25A
100
AcDbEntity
  8
universal_board
  6
ByLayer
 62
  256
370
   -1
100
AcDbCircle
 10
128.8999999999928
 20
-55.44000000000058
 40
0.5
  0
CIRCLE
  5
25B
100
AcDbEntity
  8
universal_board
  6
ByLayer
 62
  256
370
   -1
100
AcDbCircle
 10
111.1199999999936
 20
-55.44000000000065
 40
0.5
  0
CIRCLE
  5
25C
100
AcDbEntity
  8
universal_board
  6
ByLayer
 62
  256
370
   -1
100
AcDbCircle
 10
113.6599999999935
 20
-57.98000000000067
 40
0.5
  0
CIRCLE
  5
25D
100
AcDbEntity
  8
universal_board
  6
ByLayer
 62
  256
370
   -1
100
AcDbCircle
 10
116.1999999999934
 20
-57.98000000000066
 40
0.5
  0
CIRCLE
  5
25E
100
AcDbEntity
  8
universal_board
  6
ByLayer
 62
  256
370
   -1
100
AcDbCircle
 10
118.7399999999933
 20
-57.98000000000064
 40
0.5
  0
CIRCLE
  5
25F
100
AcDbEntity
  8
universal_board
  6
ByLayer
 62
  256
370
   -1
100
AcDbCircle
 10
121.2799999999931
 20
-57.98000000000063
 40
0.5
  0
CIRCLE
  5
260
100
AcDbEntity
  8
universal_board
  6
ByLayer
 62
  256
370
   -1
100
AcDbCircle
 10
123.819999999993
 20
-57.98000000000063
 40
0.5
  0
CIRCLE
  5
261
100
AcDbEntity
  8
universal_board
  6
ByLayer
 62
  256
370
   -1
100
AcDbCircle
 10
126.3599999999929
 20
-57.98000000000062
 40
0.5
  0
CIRCLE
  5
262
100
AcDbEntity
  8
universal_board
  6
ByLayer
 62
  256
370
   -1
100
AcDbCircle
 10
128.8999999999928
 20
-57.98000000000062
 40
0.5
  0
CIRCLE
  5
263
100
AcDbEntity
  8
universal_board
  6
ByLayer
 62
  256
370
   -1
100
AcDbCircle
 10
111.1199999999936
 20
-57.98000000000069
 40
0.5
  0
CIRCLE
  5
264
100
AcDbEntity
  8
universal_board
  6
ByLayer
 62
  256
370
   -1
100
AcDbCircle
 10
113.6599999999935
 20
-60.52000000000071
 40
0.5
  0
CIRCLE
  5
265
100
AcDbEntity
  8
universal_board
  6
ByLayer
 62
  256
370
   -1
100
AcDbCircle
 10
116.1999999999934
 20
-60.52000000000069
 40
0.5
  0
CIRCLE
  5
266
100
AcDbEntity
  8
universal_board
  6
ByLayer
 62
  256
370
   -1
100
AcDbCircle
 10
118.7399999999933
 20
-60.52000000000066
 40
0.5
  0
CIRCLE
  5
267
100
AcDbEntity
  8
universal_board
  6
ByLayer
 62
  256
370
   -1
100
AcDbCircle
 10
121.2799999999931
 20
-60.52000000000066
 40
0.5
  0
CIRCLE
  5
268
100
AcDbEntity
  8
universal_board
  6
ByLayer
 62
  256
370
   -1
100
AcDbCircle
 10
123.819999999993
 20
-60.52000000000066
 40
0.5
  0
CIRCLE
  5
269
100
AcDbEntity
  8
universal_board
  6
ByLayer
 62
  256
370
   -1
100
AcDbCircle
 10
126.3599999999929
 20
-60.52000000000064
 40
0.5
  0
CIRCLE
  5
26A
100
AcDbEntity
  8
universal_board
  6
ByLayer
 62
  256
370
   -1
100
AcDbCircle
 10
128.8999999999928
 20
-60.52000000000064
 40
0.5
  0
CIRCLE
  5
26B
100
AcDbEntity
  8
universal_board
  6
ByLayer
 62
  256
370
   -1
100
AcDbCircle
 10
111.1199999999936
 20
-60.52000000000071
 40
0.5
  0
CIRCLE
  5
26C
100
AcDbEntity
  8
universal_board
  6
ByLayer
 62
  256
370
   -1
100
AcDbCircle
 10
113.6599999999935
 20
-63.06000000000073
 40
0.5
  0
CIRCLE
  5
26D
100
AcDbEntity
  8
universal_board
  6
ByLayer
 62
  256
370
   -1
100
AcDbCircle
 10
116.1999999999934
 20
-63.06000000000073
 40
0.5
  0
CIRCLE
  5
26E
100
AcDbEntity
  8
universal_board
  6
ByLayer
 62
  256
370
   -1
100
AcDbCircle
 10
118.7399999999933
 20
-63.0600000000007
 40
0.5
  0
CIRCLE
  5
26F
100
AcDbEntity
  8
universal_board
  6
ByLayer
 62
  256
370
   -1
100
AcDbCircle
 10
121.2799999999931
 20
-63.0600000000007
 40
0.5
  0
CIRCLE
  5
270
100
AcDbEntity
  8
universal_board
  6
ByLayer
 62
  256
370
   -1
100
AcDbCircle
 10
123.819999999993
 20
-63.0600000000007
 40
0.5
  0
CIRCLE
  5
271
100
AcDbEntity
  8
universal_board
  6
ByLayer
 62
  256
370
   -1
100
AcDbCircle
 10
126.3599999999929
 20
-63.06000000000067
 40
0.5
  0
CIRCLE
  5
272
100
AcDbEntity
  8
universal_board
  6
ByLayer
 62
  256
370
   -1
100
AcDbCircle
 10
128.8999999999928
 20
-63.06000000000067
 40
0.5
  0
CIRCLE
  5
273
100
AcDbEntity
  8
universal_board
  6
ByLayer
 62
  256
370
   -1
100
AcDbCircle
 10
111.1199999999936
 20
-63.06000000000074
 40
0.5
  0
CIRCLE
  5
274
100
AcDbEntity
  8
universal_board
  6
ByLayer
 62
  256
370
   -1
100
AcDbCircle
 10
113.6599999999935
 20
-65.60000000000075
 40
0.5
  0
CIRCLE
  5
275
100
AcDbEntity
  8
universal_board
  6
ByLayer
 62
  256
370
   -1
100
AcDbCircle
 10
116.1999999999934
 20
-65.60000000000075
 40
0.5
  0
CIRCLE
  5
276
100
AcDbEntity
  8
universal_board
  6
ByLayer
 62
  256
370
   -1
100
AcDbCircle
 10
118.7399999999933
 20
-65.60000000000072
 40
0.5
  0
CIRCLE
  5
277
100
AcDbEntity
  8
universal_board
  6
ByLayer
 62
  256
370
   -1
100
AcDbCircle
 10
121.2799999999931
 20
-65.6000000000007
 40
0.5
  0
CIRCLE
  5
278
100
AcDbEntity
  8
universal_board
  6
ByLayer
 62
  256
370
   -1
100
AcDbCircle
 10
123.819999999993
 20
-65.6000000000007
 40
0.5
  0
CIRCLE
  5
279
100
AcDbEntity
  8
universal_board
  6
ByLayer
 62
  256
370
   -1
100
AcDbCircle
 10
126.3599999999929
 20
-65.60000000000069
 40
0.5
  0
CIRCLE
  5
27A
100
AcDbEntity
  8
universal_board
  6
ByLayer
 62
  256
370
   -1
100
AcDbCircle
 10
128.8999999999928
 20
-65.60000000000069
 40
0.5
  0
CIRCLE
  5
27B
100
AcDbEntity
  8
universal_board
  6
ByLayer
 62
  256
370
   -1
100
AcDbCircle
 10
111.1199999999936
 20
-65.60000000000076
 40
0.5
  0
CIRCLE
  5
27C
100
AcDbEntity
  8
universal_board
  6
ByLayer
 62
  256
370
   -1
100
AcDbCircle
 10
113.6599999999935
 20
-68.14000000000078
 40
0.5
  0
CIRCLE
  5
27D
100
AcDbEntity
  8
universal_board
  6
ByLayer
 62
  256
370
   -1
100
AcDbCircle
 10
116.1999999999934
 20
-68.14000000000077
 40
0.5
  0
CIRCLE
  5
27E
100
AcDbEntity
  8
universal_board
  6
ByLayer
 62
  256
370
   -1
100
AcDbCircle
 10
118.7399999999933
 20
-68.14000000000074
 40
0.5
  0
CIRCLE
  5
27F
100
AcDbEntity
  8
universal_board
  6
ByLayer
 62
  256
370
   -1
100
AcDbCircle
 10
121.2799999999931
 20
-68.14000000000073
 40
0.5
  0
CIRCLE
  5
280
100
AcDbEntity
  8
universal_board
  6
ByLayer
 62
  256
370
   -1
100
AcDbCircle
 10
123.819999999993
 20
-68.14000000000073
 40
0.5
  0
CIRCLE
  5
281
100
AcDbEntity
  8
universal_board
  6
ByLayer
 62
  256
370
   -1
100
AcDbCircle
 10
126.3599999999929
 20
-68.14000000000071
 40
0.5
  0
CIRCLE
  5
282
100
AcDbEntity
  8
universal_board
  6
ByLayer
 62
  256
370
   -1
100
AcDbCircle
 10
128.8999999999928
 20
-68.14000000000071
 40
0.5
  0
CIRCLE
  5
283
100
AcDbEntity
  8
universal_board
  6
ByLayer
 62
  256
370
   -1
100
AcDbCircle
 10
111.1199999999936
 20
-68.14000000000078
 40
0.5
  0
CIRCLE
  5
284
100
AcDbEntity
  8
universal_board
  6
ByLayer
 62
  256
370
   -1
100
AcDbCircle
 10
113.6599999999935
 20
-70.68000000000082
 40
0.5
  0
CIRCLE
  5
285
100
AcDbEntity
  8
universal_board
  6
ByLayer
 62
  256
370
   -1
100
AcDbCircle
 10
116.1999999999934
 20
-70.6800000000008
 40
0.5
  0
CIRCLE
  5
286
100
AcDbEntity
  8
universal_board
  6
ByLayer
 62
  256
370
   -1
100
AcDbCircle
 10
118.7399999999933
 20
-70.68000000000077
 40
0.5
  0
CIRCLE
  5
287
100
AcDbEntity
  8
universal_board
  6
ByLayer
 62
  256
370
   -1
100
AcDbCircle
 10
121.2799999999931
 20
-70.68000000000077
 40
0.5
  0
CIRCLE
  5
288
100
AcDbEntity
  8
universal_board
  6
ByLayer
 62
  256
370
   -1
100
AcDbCircle
 10
123.819999999993
 20
-70.68000000000077
 40
0.5
  0
CIRCLE
  5
289
100
AcDbEntity
  8
universal_board
  6
ByLayer
 62
  256
370
   -1
100
AcDbCircle
 10
126.3599999999929
 20
-70.68000000000076
 40
0.5
  0
CIRCLE
  5
28A
100
AcDbEntity
  8
universal_board
  6
ByLayer
 62
  256
370
   -1
100
AcDbCircle
 10
128.8999999999928
 20
-70.68000000000076
 40
0.5
  0
CIRCLE
  5
28B
100
AcDbEntity
  8
universal_board
  6
ByLayer
 62
  256
370
   -1
100
AcDbCircle
 10
111.1199999999936
 20
-70.68000000000082
 40
0.5
  0
CIRCLE
  5
28C
100
AcDbEntity
  8
universal_board
  6
ByLayer
 62
  256
370
   -1
100
AcDbCircle
 10
131.4399999999927
 20
-45.28000000000047
 40
0.5
  0
CIRCLE
  5
28D
100
AcDbEntity
  8
universal_board
  6
ByLayer
 62
  256
370
   -1
100
AcDbCircle
 10
131.4399999999927
 20
-47.8200000000005
 40
0.5
  0
CIRCLE
  5
28E
100
AcDbEntity
  8
universal_board
  6
ByLayer
 62
  256
370
   -1
100
AcDbCircle
 10
131.4399999999927
 20
-50.36000000000054
 40
0.5
  0
CIRCLE
  5
28F
100
AcDbEntity
  8
universal_board
  6
ByLayer
 62
  256
370
   -1
100
AcDbCircle
 10
131.4399999999927
 20
-52.90000000000055
 40
0.5
  0
CIRCLE
  5
290
100
AcDbEntity
  8
universal_board
  6
ByLayer
 62
  256
370
   -1
100
AcDbCircle
 10
131.4399999999927
 20
-55.44000000000058
 40
0.5
  0
CIRCLE
  5
291
100
AcDbEntity
  8
universal_board
  6
ByLayer
 62
  256
370
   -1
100
AcDbCircle
 10
131.4399999999927
 20
-57.98000000000062
 40
0.5
  0
CIRCLE
  5
292
100
AcDbEntity
  8
universal_board
  6
ByLayer
 62
  256
370
   -1
100
AcDbCircle
 10
131.4399999999927
 20
-60.52000000000064
 40
0.5
  0
CIRCLE
  5
293
100
AcDbEntity
  8
universal_board
  6
ByLayer
 62
  256
370
   -1
100
AcDbCircle
 10
131.4399999999927
 20
-63.06000000000067
 40
0.5
  0
CIRCLE
  5
294
100
AcDbEntity
  8
universal_board
  6
ByLayer
 62
  256
370
   -1
100
AcDbCircle
 10
131.4399999999927
 20
-65.60000000000069
 40
0.5
  0
CIRCLE
  5
295
100
AcDbEntity
  8
universal_board
  6
ByLayer
 62
  256
370
   -1
100
AcDbCircle
 10
131.4399999999927
 20
-68.14000000000071
 40
0.5
  0
CIRCLE
  5
296
100
AcDbEntity
  8
universal_board
  6
ByLayer
 62
  256
370
   -1
100
AcDbCircle
 10
131.4399999999927
 20
-70.68000000000076
 40
0.5
  0
CIRCLE
  5
297
100
AcDbEntity
  8
universal_board
  6
ByLayer
 62
  256
370
   -1
100
AcDbCircle
 10
133.9799999999926
 20
-45.28000000000047
 40
0.5
  0
CIRCLE
  5
298
100
AcDbEntity
  8
universal_board
  6
ByLayer
 62
  256
370
   -1
100
AcDbCircle
 10
133.9799999999926
 20
-47.8200000000005
 40
0.5
  0
CIRCLE
  5
299
100
AcDbEntity
  8
universal_board
  6
ByLayer
 62
  256
370
   -1
100
AcDbCircle
 10
133.9799999999926
 20
-50.36000000000054
 40
0.5
  0
CIRCLE
  5
29A
100
AcDbEntity
  8
universal_board
  6
ByLayer
 62
  256
370
   -1
100
AcDbCircle
 10
133.9799999999926
 20
-52.90000000000055
 40
0.5
  0
CIRCLE
  5
29B
100
AcDbEntity
  8
universal_board
  6
ByLayer
 62
  256
370
   -1
100
AcDbCircle
 10
133.9799999999926
 20
-55.44000000000058
 40
0.5
  0
CIRCLE
  5
29C
100
AcDbEntity
  8
universal_board
  6
ByLayer
 62
  256
370
   -1
100
AcDbCircle
 10
133.9799999999926
 20
-57.98000000000062
 40
0.5
  0
CIRCLE
  5
29D
100
AcDbEntity
  8
universal_board
  6
ByLayer
 62
  256
370
   -1
100
AcDbCircle
 10
133.9799999999926
 20
-60.52000000000064
 40
0.5
  0
CIRCLE
  5
29E
100
AcDbEntity
  8
universal_board
  6
ByLayer
 62
  256
370
   -1
100
AcDbCircle
 10
133.9799999999926
 20
-63.06000000000067
 40
0.5
  0
CIRCLE
  5
29F
100
AcDbEntity
  8
universal_board
  6
ByLayer
 62
  256
370
   -1
100
AcDbCircle
 10
133.9799999999926
 20
-65.60000000000069
 40
0.5
  0
CIRCLE
  5
2A0
100
AcDbEntity
  8
universal_board
  6
ByLayer
 62
  256
370
   -1
100
AcDbCircle
 10
133.9799999999926
 20
-68.14000000000071
 40
0.5
  0
CIRCLE
  5
2A1
100
AcDbEntity
  8
universal_board
  6
ByLayer
 62
  256
370
   -1
100
AcDbCircle
 10
133.9799999999926
 20
-70.68000000000076
 40
0.5
  0
CIRCLE
  5
2A2
100
AcDbEntity
  8
universal_board
  6
ByLayer
 62
  256
370
   -1
100
AcDbCircle
 10
136.5199999999924
 20
-45.28000000000047
 40
0.5
  0
CIRCLE
  5
2A3
100
AcDbEntity
  8
universal_board
  6
ByLayer
 62
  256
370
   -1
100
AcDbCircle
 10
136.5199999999924
 20
-47.8200000000005
 40
0.5
  0
CIRCLE
  5
2A4
100
AcDbEntity
  8
universal_board
  6
ByLayer
 62
  256
370
   -1
100
AcDbCircle
 10
136.5199999999924
 20
-50.36000000000054
 40
0.5
  0
CIRCLE
  5
2A5
100
AcDbEntity
  8
universal_board
  6
ByLayer
 62
  256
370
   -1
100
AcDbCircle
 10
136.5199999999924
 20
-52.90000000000055
 40
0.5
  0
CIRCLE
  5
2A6
100
AcDbEntity
  8
universal_board
  6
ByLayer
 62
  256
370
   -1
100
AcDbCircle
 10
136.5199999999924
 20
-55.44000000000058
 40
0.5
  0
CIRCLE
  5
2A7
100
AcDbEntity
  8
universal_board
  6
ByLayer
 62
  256
370
   -1
100
AcDbCircle
 10
136.5199999999924
 20
-57.98000000000062
 40
0.5
  0
CIRCLE
  5
2A8
100
AcDbEntity
  8
universal_board
  6
ByLayer
 62
  256
370
   -1
100
AcDbCircle
 10
136.5199999999924
 20
-60.52000000000064
 40
0.5
  0
CIRCLE
  5
2A9
100
AcDbEntity
  8
universal_board
  6
ByLayer
 62
  256
370
   -1
100
AcDbCircle
 10
136.5199999999924
 20
-63.06000000000067
 40
0.5
  0
CIRCLE
  5
2AA
100
AcDbEntity
  8
universal_board
  6
ByLayer
 62
  256
370
   -1
100
AcDbCircle
 10
136.5199999999924
 20
-65.60000000000069
 40
0.5
  0
CIRCLE
  5
2AB
100
AcDbEntity
  8
universal_board
  6
ByLayer
 62
  256
370
   -1
100
AcDbCircle
 10
136.5199999999924
 20
-68.14000000000071
 40
0.5
  0
CIRCLE
  5
2AC
100
AcDbEntity
  8
universal_board
  6
ByLayer
 62
  256
370
   -1
100
AcDbCircle
 10
136.5199999999924
 20
-70.68000000000076
 40
0.5
  0
CIRCLE
  5
2AD
100
AcDbEntity
  8
universal_board
  6
ByLayer
 62
  256
370
   -1
100
AcDbCircle
 10
139.0599999999923
 20
-45.28000000000047
 40
0.5
  0
CIRCLE
  5
2AE
100
AcDbEntity
  8
universal_board
  6
ByLayer
 62
  256
370
   -1
100
AcDbCircle
 10
139.0599999999923
 20
-47.8200000000005
 40
0.5
  0
CIRCLE
  5
2AF
100
AcDbEntity
  8
universal_board
  6
ByLayer
 62
  256
370
   -1
100
AcDbCircle
 10
139.0599999999923
 20
-50.36000000000054
 40
0.5
  0
CIRCLE
  5
2B0
100
AcDbEntity
  8
universal_board
  6
ByLayer
 62
  256
370
   -1
100
AcDbCircle
 10
139.0599999999923
 20
-52.90000000000055
 40
0.5
  0
CIRCLE
  5
2B1
100
AcDbEntity
  8
universal_board
  6
ByLayer
 62
  256
370
   -1
100
AcDbCircle
 10
139.0599999999923
 20
-55.44000000000058
 40
0.5
  0
CIRCLE
  5
2B2
100
AcDbEntity
  8
universal_board
  6
ByLayer
 62
  256
370
   -1
100
AcDbCircle
 10
139.0599999999923
 20
-57.98000000000062
 40
0.5
  0
CIRCLE
  5
2B3
100
AcDbEntity
  8
universal_board
  6
ByLayer
 62
  256
370
   -1
100
AcDbCircle
 10
139.0599999999923
 20
-60.52000000000064
 40
0.5
  0
CIRCLE
  5
2B4
100
AcDbEntity
  8
universal_board
  6
ByLayer
 62
  256
370
   -1
100
AcDbCircle
 10
139.0599999999923
 20
-63.06000000000067
 40
0.5
  0
CIRCLE
  5
2B5
100
AcDbEntity
  8
universal_board
  6
ByLayer
 62
  256
370
   -1
100
AcDbCircle
 10
139.0599999999923
 20
-65.60000000000069
 40
0.5
  0
CIRCLE
  5
2B6
100
AcDbEntity
  8
universal_board
  6
ByLayer
 62
  256
370
   -1
100
AcDbCircle
 10
139.0599999999923
 20
-68.14000000000071
 40
0.5
  0
CIRCLE
  5
2B7
100
AcDbEntity
  8
universal_board
  6
ByLayer
 62
  256
370
   -1
100
AcDbCircle
 10
139.0599999999923
 20
-70.68000000000076
 40
0.5
  0
CIRCLE
  5
2B8
100
AcDbEntity
  8
universal_board
  6
ByLayer
 62
  256
370
   -1
100
AcDbCircle
 10
141.5999999999921
 20
-45.28000000000047
 40
0.5
  0
CIRCLE
  5
2B9
100
AcDbEntity
  8
universal_board
  6
ByLayer
 62
  256
370
   -1
100
AcDbCircle
 10
141.5999999999921
 20
-47.8200000000005
 40
0.5
  0
CIRCLE
  5
2BA
100
AcDbEntity
  8
universal_board
  6
ByLayer
 62
  256
370
   -1
100
AcDbCircle
 10
141.5999999999921
 20
-50.36000000000054
 40
0.5
  0
CIRCLE
  5
2BB
100
AcDbEntity
  8
universal_board
  6
ByLayer
 62
  256
370
   -1
100
AcDbCircle
 10
141.5999999999921
 20
-52.90000000000055
 40
0.5
  0
CIRCLE
  5
2BC
100
AcDbEntity
  8
universal_board
  6
ByLayer
 62
  256
370
   -1
100
AcDbCircle
 10
141.5999999999921
 20
-55.44000000000058
 40
0.5
  0
CIRCLE
  5
2BD
100
AcDbEntity
  8
universal_board
  6
ByLayer
 62
  256
370
   -1
100
AcDbCircle
 10
141.5999999999921
 20
-57.98000000000062
 40
0.5
  0
CIRCLE
  5
2BE
100
AcDbEntity
  8
universal_board
  6
ByLayer
 62
  256
370
   -1
100
AcDbCircle
 10
141.5999999999921
 20
-60.52000000000064
 40
0.5
  0
CIRCLE
  5
2BF
100
AcDbEntity
  8
universal_board
  6
ByLayer
 62
  256
370
   -1
100
AcDbCircle
 10
141.5999999999921
 20
-63.06000000000067
 40
0.5
  0
CIRCLE
  5
2C0
100
AcDbEntity
  8
universal_board
  6
ByLayer
 62
  256
370
   -1
100
AcDbCircle
 10
141.5999999999921
 20
-65.60000000000069
 40
0.5
  0
CIRCLE
  5
2C1
100
AcDbEntity
  8
universal_board
  6
ByLayer
 62
  256
370
   -1
100
AcDbCircle
 10
141.5999999999921
 20
-68.14000000000071
 40
0.5
  0
CIRCLE
  5
2C2
100
AcDbEntity
  8
universal_board
  6
ByLayer
 62
  256
370
   -1
100
AcDbCircle
 10
141.5999999999921
 20
-70.68000000000076
 40
0.5
  0
CIRCLE
  5
2C3
100
AcDbEntity
  8
universal_board
  6
ByLayer
 62
  256
370
   -1
100
AcDbCircle
 10
144.139999999992
 20
-45.28000000000047
 40
0.5
  0
CIRCLE
  5
2C4
100
AcDbEntity
  8
universal_board
  6
ByLayer
 62
  256
370
   -1
100
AcDbCircle
 10
144.139999999992
 20
-47.8200000000005
 40
0.5
  0
CIRCLE
  5
2C5
100
AcDbEntity
  8
universal_board
  6
ByLayer
 62
  256
370
   -1
100
AcDbCircle
 10
144.139999999992
 20
-50.36000000000054
 40
0.5
  0
CIRCLE
  5
2C6
100
AcDbEntity
  8
universal_board
  6
ByLayer
 62
  256
370
   -1
100
AcDbCircle
 10
144.139999999992
 20
-52.90000000000055
 40
0.5
  0
CIRCLE
  5
2C7
100
AcDbEntity
  8
universal_board
  6
ByLayer
 62
  256
370
   -1
100
AcDbCircle
 10
144.139999999992
 20
-55.44000000000058
 40
0.5
  0
CIRCLE
  5
2C8
100
AcDbEntity
  8
universal_board
  6
ByLayer
 62
  256
370
   -1
100
AcDbCircle
 10
144.139999999992
 20
-57.98000000000062
 40
0.5
  0
CIRCLE
  5
2C9
100
AcDbEntity
  8
universal_board
  6
ByLayer
 62
  256
370
   -1
100
AcDbCircle
 10
144.139999999992
 20
-60.52000000000064
 40
0.5
  0
CIRCLE
  5
2CA
100
AcDbEntity
  8
universal_board
  6
ByLayer
 62
  256
370
   -1
100
AcDbCircle
 10
144.139999999992
 20
-63.06000000000067
 40
0.5
  0
CIRCLE
  5
2CB
100
AcDbEntity
  8
universal_board
  6
ByLayer
 62
  256
370
   -1
100
AcDbCircle
 10
144.139999999992
 20
-65.60000000000069
 40
0.5
  0
CIRCLE
  5
2CC
100
AcDbEntity
  8
universal_board
  6
ByLayer
 62
  256
370
   -1
100
AcDbCircle
 10
144.139999999992
 20
-68.14000000000071
 40
0.5
  0
CIRCLE
  5
2CD
100
AcDbEntity
  8
universal_board
  6
ByLayer
 62
  256
370
   -1
100
AcDbCircle
 10
144.139999999992
 20
-70.68000000000076
 40
0.5
  0
CIRCLE
  5
2CE
100
AcDbEntity
  8
universal_board
  6
ByLayer
 62
  256
370
   -1
100
AcDbCircle
 10
146.6799999999919
 20
-45.28000000000047
 40
0.5
  0
CIRCLE
  5
2CF
100
AcDbEntity
  8
universal_board
  6
ByLayer
 62
  256
370
   -1
100
AcDbCircle
 10
146.6799999999919
 20
-47.8200000000005
 40
0.5
  0
CIRCLE
  5
2D0
100
AcDbEntity
  8
universal_board
  6
ByLayer
 62
  256
370
   -1
100
AcDbCircle
 10
146.6799999999919
 20
-50.36000000000054
 40
0.5
  0
CIRCLE
  5
2D1
100
AcDbEntity
  8
universal_board
  6
ByLayer
 62
  256
370
   -1
100
AcDbCircle
 10
146.6799999999919
 20
-52.90000000000055
 40
0.5
  0
CIRCLE
  5
2D2
100
AcDbEntity
  8
universal_board
  6
ByLayer
 62
  256
370
   -1
100
AcDbCircle
 10
146.6799999999919
 20
-55.44000000000058
 40
0.5
  0
CIRCLE
  5
2D3
100
AcDbEntity
  8
universal_board
  6
ByLayer
 62
  256
370
   -1
100
AcDbCircle
 10
146.6799999999919
 20
-57.98000000000062
 40
0.5
  0
CIRCLE
  5
2D4
100
AcDbEntity
  8
universal_board
  6
ByLayer
 62
  256
370
   -1
100
AcDbCircle
 10
146.6799999999919
 20
-60.52000000000064
 40
0.5
  0
CIRCLE
  5
2D5
100
AcDbEntity
  8
universal_board
  6
ByLayer
 62
  256
370
   -1
100
AcDbCircle
 10
146.6799999999919
 20
-63.06000000000067
 40
0.5
  0
CIRCLE
  5
2D6
100
AcDbEntity
  8
universal_board
  6
ByLayer
 62
  256
370
   -1
100
AcDbCircle
 10
146.6799999999919
 20
-65.60000000000069
 40
0.5
  0
CIRCLE
  5
2D7
100
AcDbEntity
  8
universal_board
  6
ByLayer
 62
  256
370
   -1
100
AcDbCircle
 10
146.6799999999919
 20
-68.14000000000071
 40
0.5
  0
CIRCLE
  5
2D8
100
AcDbEntity
  8
universal_board
  6
ByLayer
 62
  256
370
   -1
100
AcDbCircle
 10
146.6799999999919
 20
-70.68000000000076
 40
0.5
  0
CIRCLE
  5
2D9
100
AcDbEntity
  8
universal_board
  6
ByLayer
 62
  256
370
   -1
100
AcDbCircle
 10
149.2199999999917
 20
-45.28000000000047
 40
0.5
  0
CIRCLE
  5
2DA
100
AcDbEntity
  8
universal_board
  6
ByLayer
 62
  256
370
   -1
100
AcDbCircle
 10
149.2199999999917
 20
-47.8200000000005
 40
0.5
  0
CIRCLE
  5
2DB
100
AcDbEntity
  8
universal_board
  6
ByLayer
 62
  256
370
   -1
100
AcDbCircle
 10
149.2199999999917
 20
-50.36000000000054
 40
0.5
  0
CIRCLE
  5
2DC
100
AcDbEntity
  8
universal_board
  6
ByLayer
 62
  256
370
   -1
100
AcDbCircle
 10
149.2199999999917
 20
-52.90000000000055
 40
0.5
  0
CIRCLE
  5
2DD
100
AcDbEntity
  8
universal_board
  6
ByLayer
 62
  256
370
   -1
100
AcDbCircle
 10
149.2199999999917
 20
-55.44000000000058
 40
0.5
  0
CIRCLE
  5
2DE
100
AcDbEntity
  8
universal_board
  6
ByLayer
 62
  256
370
   -1
100
AcDbCircle
 10
149.2199999999917
 20
-57.98000000000062
 40
0.5
  0
CIRCLE
  5
2DF
100
AcDbEntity
  8
universal_board
  6
ByLayer
 62
  256
370
   -1
100
AcDbCircle
 10
149.2199999999917
 20
-60.52000000000064
 40
0.5
  0
CIRCLE
  5
2E0
100
AcDbEntity
  8
universal_board
  6
ByLayer
 62
  256
370
   -1
100
AcDbCircle
 10
149.2199999999917
 20
-63.06000000000067
 40
0.5
  0
CIRCLE
  5
2E1
100
AcDbEntity
  8
universal_board
  6
ByLayer
 62
  256
370
   -1
100
AcDbCircle
 10
149.2199999999917
 20
-65.60000000000069
 40
0.5
  0
CIRCLE
  5
2E2
100
AcDbEntity
  8
universal_board
  6
ByLayer
 62
  256
370
   -1
100
AcDbCircle
 10
149.2199999999917
 20
-68.14000000000071
 40
0.5
  0
CIRCLE
  5
2E3
100
AcDbEntity
  8
universal_board
  6
ByLayer
 62
  256
370
   -1
100
AcDbCircle
 10
149.2199999999917
 20
-70.68000000000076
 40
0.5
  0
CIRCLE
  5
2E4
100
AcDbEntity
  8
universal_board
  6
ByLayer
 62
  256
370
   -1
100
AcDbCircle
 10
113.6599999999935
 20
-73.22000000000084
 40
0.5
  0
CIRCLE
  5
2E5
100
AcDbEntity
  8
universal_board
  6
ByLayer
 62
  256
370
   -1
100
AcDbCircle
 10
116.1999999999934
 20
-73.22000000000084
 40
0.5
  0
CIRCLE
  5
2E6
100
AcDbEntity
  8
universal_board
  6
ByLayer
 62
  256
370
   -1
100
AcDbCircle
 10
118.7399999999933
 20
-73.22000000000081
 40
0.5
  0
CIRCLE
  5
2E7
100
AcDbEntity
  8
universal_board
  6
ByLayer
 62
  256
370
   -1
100
AcDbCircle
 10
121.2799999999931
 20
-73.22000000000081
 40
0.5
  0
CIRCLE
  5
2E8
100
AcDbEntity
  8
universal_board
  6
ByLayer
 62
  256
370
   -1
100
AcDbCircle
 10
123.819999999993
 20
-73.22000000000081
 40
0.5
  0
CIRCLE
  5
2E9
100
AcDbEntity
  8
universal_board
  6
ByLayer
 62
  256
370
   -1
100
AcDbCircle
 10
126.3599999999929
 20
-73.22000000000078
 40
0.5
  0
CIRCLE
  5
2EA
100
AcDbEntity
  8
universal_board
  6
ByLayer
 62
  256
370
   -1
100
AcDbCircle
 10
128.8999999999928
 20
-73.22000000000078
 40
0.5
  0
CIRCLE
  5
2EB
100
AcDbEntity
  8
universal_board
  6
ByLayer
 62
  256
370
   -1
100
AcDbCircle
 10
111.1199999999936
 20
-73.22000000000084
 40
0.5
  0
CIRCLE
  5
2EC
100
AcDbEntity
  8
universal_board
  6
ByLayer
 62
  256
370
   -1
100
AcDbCircle
 10
131.4399999999927
 20
-73.22000000000078
 40
0.5
  0
CIRCLE
  5
2ED
100
AcDbEntity
  8
universal_board
  6
ByLayer
 62
  256
370
   -1
100
AcDbCircle
 10
133.9799999999926
 20
-73.22000000000078
 40
0.5
  0
CIRCLE
  5
2EE
100
AcDbEntity
  8
universal_board
  6
ByLayer
 62
  256
370
   -1
100
AcDbCircle
 10
136.5199999999924
 20
-73.22000000000078
 40
0.5
  0
CIRCLE
  5
2EF
100
AcDbEntity
  8
universal_board
  6
ByLayer
 62
  256
370
   -1
100
AcDbCircle
 10
139.0599999999923
 20
-73.22000000000078
 40
0.5
  0
CIRCLE
  5
2F0
100
AcDbEntity
  8
universal_board
  6
ByLayer
 62
  256
370
   -1
100
AcDbCircle
 10
141.5999999999921
 20
-73.22000000000078
 40
0.5
  0
CIRCLE
  5
2F1
100
AcDbEntity
  8
universal_board
  6
ByLayer
 62
  256
370
   -1
100
AcDbCircle
 10
144.139999999992
 20
-73.22000000000078
 40
0.5
  0
CIRCLE
  5
2F2
100
AcDbEntity
  8
universal_board
  6
ByLayer
 62
  256
370
   -1
100
AcDbCircle
 10
146.6799999999919
 20
-73.22000000000078
 40
0.5
  0
CIRCLE
  5
2F3
100
AcDbEntity
  8
universal_board
  6
ByLayer
 62
  256
370
   -1
100
AcDbCircle
 10
149.2199999999917
 20
-73.22000000000078
 40
0.5
  0
CIRCLE
  5
2F4
100
AcDbEntity
  8
universal_board
  6
ByLayer
 62
  256
370
   -1
100
AcDbCircle
 10
113.6599999999935
 20
-75.76000000000087
 40
0.5
  0
CIRCLE
  5
2F5
100
AcDbEntity
  8
universal_board
  6
ByLayer
 62
  256
370
   -1
100
AcDbCircle
 10
116.1999999999934
 20
-75.76000000000087
 40
0.5
  0
CIRCLE
  5
2F6
100
AcDbEntity
  8
universal_board
  6
ByLayer
 62
  256
370
   -1
100
AcDbCircle
 10
118.7399999999933
 20
-75.76000000000083
 40
0.5
  0
CIRCLE
  5
2F7
100
AcDbEntity
  8
universal_board
  6
ByLayer
 62
  256
370
   -1
100
AcDbCircle
 10
121.2799999999931
 20
-75.76000000000083
 40
0.5
  0
CIRCLE
  5
2F8
100
AcDbEntity
  8
universal_board
  6
ByLayer
 62
  256
370
   -1
100
AcDbCircle
 10
123.819999999993
 20
-75.76000000000083
 40
0.5
  0
CIRCLE
  5
2F9
100
AcDbEntity
  8
universal_board
  6
ByLayer
 62
  256
370
   -1
100
AcDbCircle
 10
126.3599999999929
 20
-75.76000000000083
 40
0.5
  0
CIRCLE
  5
2FA
100
AcDbEntity
  8
universal_board
  6
ByLayer
 62
  256
370
   -1
100
AcDbCircle
 10
128.8999999999928
 20
-75.76000000000083
 40
0.5
  0
CIRCLE
  5
2FB
100
AcDbEntity
  8
universal_board
  6
ByLayer
 62
  256
370
   -1
100
AcDbCircle
 10
111.1199999999936
 20
-75.76000000000089
 40
0.5
  0
CIRCLE
  5
2FC
100
AcDbEntity
  8
universal_board
  6
ByLayer
 62
  256
370
   -1
100
AcDbCircle
 10
131.4399999999927
 20
-75.76000000000083
 40
0.5
  0
CIRCLE
  5
2FD
100
AcDbEntity
  8
universal_board
  6
ByLayer
 62
  256
370
   -1
100
AcDbCircle
 10
133.9799999999926
 20
-75.76000000000083
 40
0.5
  0
CIRCLE
  5
2FE
100
AcDbEntity
  8
universal_board
  6
ByLayer
 62
  256
370
   -1
100
AcDbCircle
 10
136.5199999999924
 20
-75.76000000000083
 40
0.5
  0
CIRCLE
  5
2FF
100
AcDbEntity
  8
universal_board
  6
ByLayer
 62
  256
370
   -1
100
AcDbCircle
 10
139.0599999999923
 20
-75.76000000000083
 40
0.5
  0
CIRCLE
  5
300
100
AcDbEntity
  8
universal_board
  6
ByLayer
 62
  256
370
   -1
100
AcDbCircle
 10
141.5999999999921
 20
-75.76000000000083
 40
0.5
  0
CIRCLE
  5
301
100
AcDbEntity
  8
universal_board
  6
ByLayer
 62
  256
370
   -1
100
AcDbCircle
 10
144.139999999992
 20
-75.76000000000083
 40
0.5
  0
CIRCLE
  5
302
100
AcDbEntity
  8
universal_board
  6
ByLayer
 62
  256
370
   -1
100
AcDbCircle
 10
146.6799999999919
 20
-75.76000000000083
 40
0.5
  0
CIRCLE
  5
303
100
AcDbEntity
  8
universal_board
  6
ByLayer
 62
  256
370
   -1
100
AcDbCircle
 10
149.2199999999917
 20
-75.76000000000083
 40
0.5
  0
LINE
  5
304
100
AcDbEntity
  8
universal_board
  6
ByLayer
 62
  256
370
   -1
100
AcDbLine
 10
109.849999999994
 20
-77.03000000000107
 11
109.849999999994
 21
-44.17000000000087
  0
LINE
  5
305
100
AcDbEntity
  8
universal_board
  6
ByLayer
 62
  256
370
   -1
100
AcDbLine
 10
109.849999999994
 20
-77.03000000000107
 11
150.3299999999926
 21
-77.03000000000107
  0
LINE
  5
306
100
AcDbEntity
  8
universal_board
  6
ByLayer
 62
  256
370
   -1
100
AcDbLine
 10
150.489999999992
 20
-77.03000000000104
 11
150.489999999992
 21
-44.01000000000076
  0
LINE
  5
307
100
AcDbEntity
  8
universal_board
  6
ByLayer
 62
  256
370
   -1
100
AcDbLine
 10
109.849999999994
 20
-44.01000000000076
 11
150.489999999992
 21
-44.01000000000076
  0
LINE
  5
308
100
AcDbEntity
  8
universal_board
  6
ByLayer
 62
  256
370
   -1
100
AcDbLine
 10
112.3899999999939
 20
-77.03000000000107
 11
112.3899999999939
 21
-44.17000000000087
  0
LINE
  5
309
100
AcDbEntity
  8
universal_board
  6
ByLayer
 62
  256
370
   -1
100
AcDbLine
 10
114.9299999999937
 20
-77.03000000000107
 11
114.9299999999937
 21
-44.17000000000087
  0
LINE
  5
30A
100
AcDbEntity
  8
universal_board
  6
ByLayer
 62
  256
370
   -1
100
AcDbLine
 10
117.4699999999936
 20
-77.03000000000107
 11
117.4699999999936
 21
-44.17000000000087
  0
LINE
  5
30B
100
AcDbEntity
  8
universal_board
  6
ByLayer
 62
  256
370
   -1
100
AcDbLine
 10
120.0099999999935
 20
-77.03000000000107
 11
120.0099999999935
 21
-44.17000000000087
  0
LINE
  5
30C
100
AcDbEntity
  8
universal_board
  6
ByLayer
 62
  256
370
   -1
100
AcDbLine
 10
122.5499999999934
 20
-77.03000000000107
 11
122.5499999999934
 21
-44.17000000000087
  0
LINE
  5
30D
100
AcDbEntity
  8
universal_board
  6
ByLayer
 62
  256
370
   -1
100
AcDbLine
 10
125.0899999999933
 20
-77.03000000000107
 11
125.0899999999933
 21
-44.17000000000087
  0
LINE
  5
30E
100
AcDbEntity
  8
universal_board
  6
ByLayer
 62
  256
370
   -1
100
AcDbLine
 10
127.6299999999931
 20
-77.03000000000107
 11
127.6299999999931
 21
-44.17000000000087
  0
LINE
  5
30F
100
AcDbEntity
  8
universal_board
  6
ByLayer
 62
  256
370
   -1
100
AcDbLine
 10
130.169999999993
 20
-77.03000000000107
 11
130.169999999993
 21
-44.17000000000087
  0
LINE
  5
310
100
AcDbEntity
  8
universal_board
  6
ByLayer
 62
  256
370
   -1
100
AcDbLine
 10
132.7099999999929
 20
-77.03000000000107
 11
132.7099999999929
 21
-44.17000000000087
  0
LINE
  5
311
100
AcDbEntity
  8
universal_board
  6
ByLayer
 62
  256
370
   -1
100
AcDbLine
 10
135.2499999999928
 20
-77.03000000000107
 11
135.2499999999928
 21
-44.17000000000087
  0
LINE
  5
312
100
AcDbEntity
  8
universal_board
  6
ByLayer
 62
  256
370
   -1
100
AcDbLine
 10
137.7899999999926
 20
-77.03000000000107
 11
137.7899999999926
 21
-44.17000000000087
  0
LINE
  5
313
100
AcDbEntity
  8
universal_board
  6
ByLayer
 62
  256
370
   -1
100
AcDbLine
 10
140.3299999999925
 20
-77.03000000000107
 11
140.3299999999925
 21
-44.17000000000087
  0
LINE
  5
314
100
AcDbEntity
  8
universal_board
  6
ByLayer
 62
  256
370
   -1
100
AcDbLine
 10
142.8699999999924
 20
-77.03000000000107
 11
142.8699999999924
 21
-44.17000000000087
  0
LINE
  5
315
100
AcDbEntity
  8
universal_board
  6
ByLayer
 62
  256
370
   -1
100
AcDbLine
 10
145.4099999999923
 20
-77.03000000000107
 11
145.4099999999923
 21
-44.17000000000087
  0
LINE
  5
316
100
AcDbEntity
  8
universal_board
  6
ByLayer
 62
  256
370
   -1
100
AcDbLine
 10
147.9499999999921
 20
-77.03000000000107
 11
147.9499999999921
 21
-44.17000000000087
  0
LINE
  5
317
100
AcDbEntity
  8
universal_board
  6
ByLayer
 62
  256
370
   -1
100
AcDbLine
 10
109.849999999994
 20
-74.49000000000103
 11
150.3299999999926
 21
-74.49000000000103
  0
LINE
  5
318
100
AcDbEntity
  8
universal_board
  6
ByLayer
 62
  256
370
   -1
100
AcDbLine
 10
109.849999999994
 20
-71.950000000001
 11
150.3299999999926
 21
-71.950000000001
  0
LINE
  5
319
100
AcDbEntity
  8
universal_board
  6
ByLayer
 62
  256
370
   -1
100
AcDbLine
 10
109.849999999994
 20
-69.41000000000096
 11
150.3299999999926
 21
-69.41000000000096
  0
LINE
  5
31A
100
AcDbEntity
  8
universal_board
  6
ByLayer
 62
  256
370
   -1
100
AcDbLine
 10
109.849999999994
 20
-66.87000000000093
 11
150.3299999999926
 21
-66.87000000000093
  0
LINE
  5
31B
100
AcDbEntity
  8
universal_board
  6
ByLayer
 62
  256
370
   -1
100
AcDbLine
 10
109.849999999994
 20
-64.33000000000089
 11
150.3299999999926
 21
-64.33000000000089
  0
LINE
  5
31C
100
AcDbEntity
  8
universal_board
  6
ByLayer
 62
  256
370
   -1
100
AcDbLine
 10
109.849999999994
 20
-61.79000000000086
 11
150.3299999999926
 21
-61.79000000000086
  0
LINE
  5
31D
100
AcDbEntity
  8
universal_board
  6
ByLayer
 62
  256
370
   -1
100
AcDbLine
 10
109.849999999994
 20
-59.25000000000082
 11
150.3299999999926
 21
-59.25000000000082
  0
LINE
  5
31E
100
AcDbEntity
  8
universal_board
  6
ByLayer
 62
  256
370
   -1
100
AcDbLine
 10
109.849999999994
 20
-56.71000000000079
 11
150.3299999999926
 21
-56.71000000000079
  0
LINE
  5
31F
100
AcDbEntity
  8
universal_board
  6
ByLayer
 62
  256
370
   -1
100
AcDbLine
 10
109.849999999994
 20
-54.17000000000075
 11
150.3299999999926
 21
-54.17000000000075
  0
LINE
  5
320
100
AcDbEntity
  8
universal_board
  6
ByLayer
 62
  256
370
   -1
100
AcDbLine
 10
109.849999999994
 20
-51.63000000000072
 11
150.3299999999926
 21
-51.63000000000072
  0
LINE
  5
321
100
AcDbEntity
  8
universal_board
  6
ByLayer
 62
  256
370
   -1
100
AcDbLine
 10
109.849999999994
 20
-49.09000000000069
 11
150.3299999999926
 21
-49.09000000000069
  0
LINE
  5
322
100
AcDbEntity
  8
universal_board
  6
ByLayer
 62
  256
370
   -1
100
AcDbLine
 10
109.849999999994
 20
-46.55000000000065
 11
150.3299999999926
 21
-46.55000000000065
  0
LINE
  5
323
100
AcDbEntity
  8
0_GND
  6
ByLayer
 62
  256
370
   -1
100
AcDbLine
 10
116.1999999999934
 20
-30.04000000000035
 11
113.6599999999935
 21
-30.04000000000037
  0
LINE
  5
324
100
AcDbEntity
  8
0_wire
  6
ByLayer
 62
  256
370
   -1
100
AcDbLine
 10
118.7399999999933
 20
-17.3400000000002
 11
121.2799999999931
 21
-17.34000000000019
  0
SPLINE
  5
325
100
AcDbEntity
  8
resister
  6
ByLayer
 62
  256
370
   -1
100
AcDbSpline
210
0
220
0
230
0
 70
    8
 71
    2
 72
    6
 73
    3
 74
    0
 42
1e-07
 43
1e-07
 40
0
 40
0
 40
0
 40
1
 40
1
 40
1
 10
139.0599999999923
 20
-14.80000000000014
 30
0
 10
130.1614806109224
 20
-12.80562068636398
 30
0
 10
121.2799999999931
 20
-14.80000000000016
 30
0
  0
LINE
  5
326
100
AcDbEntity
  8
0_wire
  6
ByLayer
 62
  256
370
   -1
100
AcDbLine
 10
139.0599999999923
 20
-30.0400000000003
 11
139.0599999999923
 21
-14.80000000000014
  0
MTEXT
  5
327
100
AcDbEntity
  8
socket_header
  6
ByLayer
 62
  256
370
   -1
100
AcDbMText
 10
121.2799999999933
 20
-22.42000000000052
 30
0
 40
1
 41
2.126666666666667
 71
    5
 72
    1
  1
DB6\PDB4\P-\P-\PR/W\PVLC\PVdd
  7
kst32b
210
0
220
0
230
1
 50
360
 73
    2
 44
1.54
  0
MTEXT
  5
328
100
AcDbEntity
  8
socket_header
  6
ByLayer
 62
  256
370
   -1
100
AcDbMText
 10
115.4816666666596
 20
-22.00000000000015
 30
0
 40
1
 41
2.091111111111111
 71
    5
 72
    1
  1
DB7\PDB5\P-\P-\PE\PRS\PVss
  7
kst32b
210
0
220
0
230
1
 50
360
 73
    2
 44
1.54
  0
SPLINE
  5
329
100
AcDbEntity
  8
resister
  6
ByLayer
 62
  256
370
   -1
100
AcDbSpline
210
0
220
0
230
0
 70
    8
 71
    2
 72
    6
 73
    3
 74
    0
 42
1e-07
 43
1e-07
 40
0
 40
0
 40
0
 40
1
 40
1
 40
1
 10
121.2799999999931
 20
-22.42000000000025
 30
0
 10
123.2346836693662
 20
-24.59664282040178
 30
0
 10
123.819999999993
 20
-27.50000000000029
 30
0
  0
LINE
  5
32A
100
AcDbEntity
  8
0_wire
  6
ByLayer
 62
  256
370
   -1
100
AcDbLine
 10
121.2799999999931
 20
-22.42000000000025
 11
116.1999999999934
 21
-22.42000000000026
  0
SPLINE
  5
32B
100
AcDbEntity
  8
resister
  6
ByLayer
 62
  256
370
   -1
100
AcDbSpline
210
0
220
0
230
0
 70
    8
 71
    2
 72
    6
 73
    3
 74
    0
 42
1e-07
 43
1e-07
 40
0
 40
0
 40
0
 40
1
 40
1
 40
1
 10
121.2799999999931
 20
-19.88000000000022
 30
0
 10
126.4699390438242
 20
-25.39164038443995
 30
0
 10
128.8999999999928
 20
-32.58000000000034
 30
0
  0
LINE
  5
32C
100
AcDbEntity
  8
0_wire
  6
ByLayer
 62
  256
370
   -1
100
AcDbLine
 10
133.9799999999926
 20
-32.58000000000034
 11
128.8999999999928
 21
-32.58000000000035
  0
LINE
  5
32D
100
AcDbEntity
  8
0_wire
  6
ByLayer
 62
  256
370
   -1
100
AcDbLine
 10
121.2799999999931
 20
-19.88000000000023
 11
116.1999999999934
 21
-19.88000000000025
  0
LINE
  5
32E
100
AcDbEntity
  8
0_wire
  6
ByLayer
 62
  256
370
   -1
100
AcDbLine
 10
116.1999999999934
 20
-9.720000000000134
 11
118.7399999999933
 21
-9.720000000000113
  0
LINE
  5
32F
100
AcDbEntity
  8
0_wire
  6
ByLayer
 62
  256
370
   -1
100
AcDbLine
 10
118.7399999999933
 20
-9.720000000000113
 11
118.7399999999933
 21
-12.26000000000014
  0
LINE
  5
330
100
AcDbEntity
  8
0_wire
  6
ByLayer
 62
  256
370
   -1
100
AcDbLine
 10
118.7399999999933
 20
-12.26000000000014
 11
123.819999999993
 21
-12.26000000000014
  0
LINE
  5
331
100
AcDbEntity
  8
0_wire
  6
ByLayer
 62
  256
370
   -1
100
AcDbLine
 10
123.819999999993
 20
-12.26000000000014
 11
123.819999999993
 21
-22.42000000000025
  0
LINE
  5
332
100
AcDbEntity
  8
0_wire
  6
ByLayer
 62
  256
370
   -1
100
AcDbLine
 10
123.819999999993
 20
-22.42000000000025
 11
126.3599999999929
 21
-22.42000000000023
  0
LINE
  5
333
100
AcDbEntity
  8
0_wire
  6
ByLayer
 62
  256
370
   -1
100
AcDbLine
 10
126.3599999999929
 20
-19.8800000000002
 11
128.8999999999928
 21
-19.8800000000002
  0
LINE
  5
334
100
AcDbEntity
  8
0_wire
  6
ByLayer
 62
  256
370
   -1
100
AcDbLine
 10
126.3599999999929
 20
-9.720000000000084
 11
121.2799999999931
 21
-9.720000000000105
  0
LINE
  5
335
100
AcDbEntity
  8
0_wire
  6
ByLayer
 62
  256
370
   -1
100
AcDbLine
 10
121.2799999999931
 20
-9.720000000000105
 11
121.2799999999931
 21
-7.180000000000078
  0
LINE
  5
336
100
AcDbEntity
  8
0_wire
  6
ByLayer
 62
  256
370
   -1
100
AcDbLine
 10
113.6599999999935
 20
-7.180000000000121
 11
121.2799999999931
 21
-7.180000000000082
  0
LINE
  5
337
100
AcDbEntity
  8
0_wire
  6
ByLayer
 62
  256
370
   -1
100
AcDbLine
 10
126.3599999999929
 20
-9.720000000000084
 11
126.3599999999929
 21
-19.8800000000002
  0
SPLINE
  5
338
100
AcDbEntity
  8
resister
  6
ByLayer
 62
  256
370
   -1
100
AcDbSpline
210
0
220
0
230
0
 70
    8
 71
    2
 72
    7
 73
    4
 74
    0
 42
1e-07
 43
1e-07
 40
0
 40
0
 40
0
 40
0.5
 40
1
 40
1
 40
1
 10
111.1199999999936
 20
-12.26000000000019
 30
0
 10
114.7434105152279
 20
-11.0411093147271
 30
0
 10
121.1165029933671
 20
-8.610552877098243
 30
0
 10
123.819999999993
 20
-7.180000000000078
 30
0
  0
LINE
  5
339
100
AcDbEntity
  8
0_wire
  6
ByLayer
 62
  256
370
   -1
100
AcDbLine
 10
141.5999999999921
 20
-27.50000000000028
 11
144.139999999992
 21
-27.50000000000028
  0
LINE
  5
33A
100
AcDbEntity
  8
0_wire
  6
ByLayer
 62
  256
370
   -1
100
AcDbLine
 10
131.4399999999927
 20
-14.80000000000014
 11
128.8999999999928
 21
-14.80000000000014
  0
LINE
  5
33B
100
AcDbEntity
  8
0_wire
  6
ByLayer
 62
  256
370
   -1
100
AcDbLine
 10
128.8999999999928
 20
-14.80000000000014
 11
128.8999999999928
 21
-17.34000000000017
  0
SPLINE
  5
33C
100
AcDbEntity
  8
resister
  6
ByLayer
 62
  256
370
   -1
100
AcDbSpline
210
0
220
0
230
0
 70
    8
 71
    2
 72
    6
 73
    3
 74
    0
 42
1e-07
 43
1e-07
 40
0
 40
0
 40
0
 40
1
 40
1
 40
1
 10
121.2799999999931
 20
-17.34000000000018
 30
0
 10
125.0602325113203
 20
-15.56948874701547
 30
0
 10
128.8999999999928
 20
-17.34000000000017
 30
0
  0
SPLINE
  5
33D
100
AcDbEntity
  8
resister
  6
ByLayer
 62
  256
370
   -1
100
AcDbSpline
210
0
220
0
230
0
 70
    8
 71
    2
 72
    6
 73
    3
 74
    0
 42
1e-07
 43
1e-07
 40
0
 40
0
 40
0
 40
1
 40
1
 40
1
 10
116.1999999999934
 20
-12.26000000000017
 30
0
 10
122.4754857901901
 20
-10.32628648854559
 30
0
 10
128.8999999999928
 20
-12.26000000000012
 30
0
  0
LINE
  5
33E
100
AcDbEntity
  8
condenser
  6
ByLayer
 62
  256
370
   -1
100
AcDbLine
 10
127.5099999999942
 20
-38.23999999999717
 11
127.5099999999942
 21
-34.53999999999737
  0
LINE
  5
33F
100
AcDbEntity
  8
condenser
  6
ByLayer
 62
  256
370
   -1
100
AcDbLine
 10
127.5099999999942
 20
-34.53999999999737
 11
125.2099999999915
 21
-34.53999999999737
  0
LINE
  5
340
100
AcDbEntity
  8
condenser
  6
ByLayer
 62
  256
370
   -1
100
AcDbLine
 10
125.2099999999915
 20
-34.53999999999737
 11
125.2099999999915
 21
-38.23999999999717
  0
LINE
  5
341
100
AcDbEntity
  8
condenser
  6
ByLayer
 62
  256
370
   -1
100
AcDbLine
 10
125.2099999999915
 20
-38.23999999999717
 11
127.5099999999942
 21
-38.23999999999717
  0
LINE
  5
342
100
AcDbEntity
  8
condenser
  6
ByLayer
 62
  256
370
   -1
100
AcDbLine
 10
126.3599999999928
 20
-35.12000000000037
 11
126.3599999999928
 21
-34.53999999999737
  0
LINE
  5
343
100
AcDbEntity
  8
condenser
  6
ByLayer
 62
  256
370
   -1
100
AcDbLine
 10
126.3599999999929
 20
-38.23999999999717
 11
126.3599999999929
 21
-37.66000000000042
  0
SPLINE
  5
344
100
AcDbEntity
  8
resister
  6
ByLayer
 62
  256
370
   -1
100
AcDbSpline
210
0
220
0
230
0
 70
    8
 71
    2
 72
    8
 73
    5
 74
    0
 42
1e-07
 43
1e-07
 40
0
 40
0
 40
0
 40
0.3333333333333333
 40
0.6666666666666666
 40
1
 40
1
 40
1
 10
113.6599999999935
 20
-12.26000000000018
 30
0
 10
118.2873959173076
 20
-10.58703810759716
 30
0
 10
122.3026636923669
 20
-8.727966580935652
 30
0
 10
126.0057081247527
 20
-8.810134324483858
 30
0
 10
128.8999999999928
 20
-9.720000000000084
 30
0
  0
MTEXT
  5
345
100
AcDbEntity
  8
resister
  6
ByLayer
 62
  256
370
   -1
100
AcDbMText
 10
127.2669218937378
 20
-8.588921313394069
 30
0
 40
1
 41
5.25111111111111
 71
    4
 72
    1
  1
2:15.5mm
  7
kst32b
210
0
220
0
230
1
 50
0
 73
    2
 44
1.54
  0
MTEXT
  5
346
100
AcDbEntity
  8
resister
  6
ByLayer
 62
  256
370
   -1
100
AcDbMText
 10
128.833819700911
 20
-11.49058391927044
 30
0
 40
1
 41
4.973333333333333
 71
    4
 72
    1
  1
1:12.5mm
  7
kst32b
210
0
220
0
230
1
 50
0
 73
    2
 44
1.54
  0
MTEXT
  5
347
100
AcDbEntity
  8
resister
  6
ByLayer
 62
  256
370
   -1
100
AcDbMText
 10
122.1599957073954
 20
-6.847923749868244
 30
0
 40
1
 41
5.25111111111111
 71
    4
 72
    1
  1
3:13.7mm
  7
kst32b
210
0
220
0
230
1
 50
0
 73
    2
 44
1.54
  0
MTEXT
  5
348
100
AcDbEntity
  8
resister
  6
ByLayer
 62
  256
370
   -1
100
AcDbMText
 10
122.6822949764531
 20
-28.37826028547094
 30
0
 40
1
 41
4.362222222222222
 71
    4
 72
    1
  1
1:5.7mm
  7
kst32b
210
0
220
0
230
1
 50
0
 73
    2
 44
1.54
  0
MTEXT
  5
349
100
AcDbEntity
  8
resister
  6
ByLayer
 62
  256
370
   -1
100
AcDbMText
 10
126.1642901035048
 20
-25.88283044441726
 30
0
 40
1
 41
5.322222222222222
 71
    4
 72
    1
  1
2:14.8mm
  7
kst32b
210
0
220
0
230
1
 50
0
 73
    2
 44
1.54
  0
MTEXT
  5
34A
100
AcDbEntity
  8
resister
  6
ByLayer
 62
  256
370
   -1
100
AcDbMText
 10
111.6559770741229
 20
-19.15097319878407
 30
0
 40
1
 41
3.735555555555555
 71
    4
 72
    1
  1

  7
kst32b
210
0
220
0
230
1
 50
0
 73
    2
 44
1.54
  0
LINE
  5
34B
100
AcDbEntity
  8
5V line
  6
ByLayer
 62
  256
370
   -1
100
AcDbLine
 10
111.1199999999936
 20
-27.50000000000034
 11
111.1199999999936
 21
-30.04000000000039
  0
LINE
  5
34C
100
AcDbEntity
  8
0_wire
  6
ByLayer
 62
  256
370
   -1
100
AcDbLine
 10
144.139999999992
 20
-27.50000000000028
 11
146.6799999999919
 21
-27.50000000000028
  0
LINE
  5
34D
100
AcDbEntity
  8
0_wire
  6
ByLayer
 62
  256
370
   -1
100
AcDbLine
 10
144.139999999992
 20
-24.96000000000025
 11
144.139999999992
 21
-12.26000000000012
  0
LINE
  5
34E
100
AcDbEntity
  8
0_wire
  6
ByLayer
 62
  256
370
   -1
100
AcDbLine
 10
146.6799999999919
 20
-27.50000000000028
 11
146.6799999999919
 21
-9.720000000000081
  0
SPLINE
  5
34F
100
AcDbEntity
  8
resister
  6
ByLayer
 62
  256
370
   -1
100
AcDbSpline
210
0
220
0
230
0
 70
    8
 71
    2
 72
    6
 73
    3
 74
    0
 42
1e-07
 43
1e-07
 40
0
 40
0
 40
0
 40
1
 40
1
 40
1
 10
139.0599999999923
 20
-12.26000000000012
 30
0
 10
141.569961134296
 20
-10.71205854483935
 30
0
 10
144.139999999992
 20
-12.26000000000012
 30
0
  0
SPLINE
  5
350
100
AcDbEntity
  8
resister
  6
ByLayer
 62
  256
370
   -1
100
AcDbSpline
210
0
220
0
230
0
 70
    8
 71
    2
 72
    6
 73
    3
 74
    0
 42
1e-07
 43
1e-07
 40
0
 40
0
 40
0
 40
1
 40
1
 40
1
 10
139.0599999999923
 20
-9.720000000000084
 30
0
 10
141.6118009410998
 20
-8.045985493918796
 30
0
 10
144.139999999992
 20
-9.720000000000084
 30
0
  0
LINE
  5
351
100
AcDbEntity
  8
0_wire
  6
ByLayer
 62
  256
370
   -1
100
AcDbLine
 10
139.0599999999923
 20
-9.720000000000084
 11
128.8999999999928
 21
-9.720000000000084
  0
LINE
  5
352
100
AcDbEntity
  8
0_wire
  6
ByLayer
 62
  256
370
   -1
100
AcDbLine
 10
139.0599999999923
 20
-12.26000000000012
 11
128.8999999999928
 21
-12.26000000000012
  0
LINE
  5
353
100
AcDbEntity
  8
0_wire
  6
ByLayer
 62
  256
370
   -1
100
AcDbLine
 10
146.6799999999919
 20
-9.720000000000084
 11
144.139999999992
 21
-9.720000000000084
  0
LINE
  5
354
100
AcDbEntity
  8
0_GND
  6
ByLayer
 62
  256
370
   -1
100
AcDbLine
 10
141.5999999999921
 20
-7.180000000000057
 11
141.5999999999921
 21
-17.34000000000017
  0
LINE
  5
355
100
AcDbEntity
  8
0_GND
  6
ByLayer
 62
  256
370
   -1
100
AcDbLine
 10
123.819999999993
 20
-7.180000000000078
 11
141.5999999999921
 21
-7.180000000000061
  0
LINE
  5
356
100
AcDbEntity
  8
0_GND
  6
ByLayer
 62
  256
370
   -1
100
AcDbLine
 10
141.5999999999921
 20
-7.180000000000057
 11
149.2199999999917
 21
-7.180000000000057
  0
LINE
  5
357
100
AcDbEntity
  8
0_GND
  6
ByLayer
 62
  256
370
   -1
100
AcDbLine
 10
149.2199999999917
 20
-7.180000000000057
 11
149.2199999999917
 21
-35.12000000000037
  0
LINE
  5
358
100
AcDbEntity
  8
0_GND
  6
ByLayer
 62
  256
370
   -1
100
AcDbLine
 10
149.2199999999917
 20
-35.12000000000037
 11
146.6799999999919
 21
-35.12000000000037
  0
LINE
  5
359
100
AcDbEntity
  8
resister
  6
ByLayer
 62
  256
370
   -1
100
AcDbLine
 10
117.8799999999933
 20
-38.02000000000028
 11
124.6799999999928
 21
-38.02000000000028
  0
LINE
  5
35A
100
AcDbEntity
  8
resister
  6
ByLayer
 62
  256
370
   -1
100
AcDbLine
 10
124.6799999999928
 20
-31.92000000000053
 11
117.8799999999933
 21
-31.92000000000052
  0
MTEXT
  5
35B
100
AcDbEntity
  8
resister
  6
ByLayer
 62
  256
370
   -1
100
AcDbMText
 10
121.2125821739954
 20
-33.53491183814337
 30
0
 40
1
 41
0.4522222222222222
 71
    5
 72
    1
  1
3\P2\P1
  7
azomix
210
0
220
0
230
1
 50
270
 73
    2
 44
1.54
  0
LINE
  5
35C
100
AcDbEntity
  8
resister
  6
ByLayer
 62
  256
370
   -1
100
AcDbLine
 10
117.8799999999933
 20
-31.92000000000052
 11
117.8799999999933
 21
-38.02000000000028
  0
LINE
  5
35D
100
AcDbEntity
  8
resister
  6
ByLayer
 62
  256
370
   -1
100
AcDbLine
 10
124.6799999999928
 20
-38.02000000000028
 11
124.6799999999928
 21
-31.92000000000053
  0
MTEXT
  5
35E
100
AcDbEntity
  8
resister
  6
ByLayer
 62
  256
370
   -1
100
AcDbMText
 10
122.3455379696911
 20
-36.98414816954431
 30
0
 40
1
 41
1.715555555555555
 71
    5
 72
    1
  1
RN1
  7
azomix
210
0
220
0
230
1
 50
0
 73
    2
 44
1.54
  0
CIRCLE
  5
35F
100
AcDbEntity
  8
resister
  6
ByLayer
 62
  256
370
   -1
100
AcDbCircle
 10
118.7399999999932
 20
-35.12000000000036
 40
0.25
  0
CIRCLE
  5
360
100
AcDbEntity
  8
resister
  6
ByLayer
 62
  256
370
   -1
100
AcDbCircle
 10
123.819999999993
 20
-35.12000000000035
 40
0.25
  0
CIRCLE
  5
361
100
AcDbEntity
  8
resister
  6
ByLayer
 62
  256
370
   -1
100
AcDbCircle
 10
121.2799999999931
 20
-32.58000000000035
 40
0.25
  0
LINE
  5
362
100
AcDbEntity
  8
5V line
  6
ByLayer
 62
  256
370
   -1
100
AcDbLine
 10
118.7399999999932
 20
-35.12000000000037
 11
118.7399999999932
 21
-37.66000000000042
  0
LINE
  5
363
100
AcDbEntity
  8
0_wire
  6
ByLayer
 62
  256
370
   -1
100
AcDbLine
 10
121.2799999999931
 20
-27.50000000000029
 11
121.2799999999931
 21
-32.58000000000035
  0
LINE
  5
364
100
AcDbEntity
  8
0_GND
  6
ByLayer
 62
  256
370
   -1
100
AcDbLine
 10
123.819999999993
 20
-35.12000000000038
 11
128.8999999999928
 21
-35.12000000000037
  0
LINE
  5
365
100
AcDbEntity
  8
5V line
  6
ByLayer
 62
  256
370
   -1
100
AcDbLine
 10
118.7399999999933
 20
-30.04000000000033
 11
118.7399999999932
 21
-35.12000000000036
  0
LINE
  5
366
100
AcDbEntity
  8
5V line
  6
ByLayer
 62
  256
370
   -1
100
AcDbLine
 10
111.1199999999936
 20
-30.04000000000037
 11
111.1199999999936
 21
-32.5800000000004
  0
SPLINE
  5
367
100
AcDbEntity
  8
resister
  6
ByLayer
 62
  256
370
   -1
100
AcDbSpline
210
0
220
0
230
0
 70
    8
 71
    2
 72
    6
 73
    3
 74
    0
 42
1e-07
 43
1e-07
 40
0
 40
0
 40
0
 40
1
 40
1
 40
1
 10
111.1199999999936
 20
-32.5800000000004
 30
0
 10
113.6878702990362
 20
-30.87008904311387
 30
0
 10
116.1999999999934
 20
-32.58000000000039
 30
0
  0
LINE
  5
368
100
AcDbEntity
  8
5V line
  6
ByLayer
 62
  256
370
   -1
100
AcDbLine
 10
116.1999999999934
 20
-32.58000000000039
 11
118.7399999999933
 21
-32.58000000000035
  0
LINE
  5
369
100
AcDbEntity
  8
5V line
  6
ByLayer
 62
  256
370
   -1
100
AcDbLine
 10
128.8999999999928
 20
-37.66000000000041
 11
118.7399999999932
 21
-37.66000000000044
  0
SPLINE
  5
36A
100
AcDbEntity
  8
resister
  6
ByLayer
 62
  256
370
   -1
100
AcDbSpline
210
0
220
0
230
0
 70
    8
 71
    2
 72
    8
 73
    5
 74
    0
 42
1e-07
 43
1e-07
 40
0
 40
0
 40
0
 40
0.3333333333333333
 40
0.6666666666666666
 40
1
 40
1
 40
1
 10
111.1199999999936
 20
-19.88000000000027
 30
0
 10
114.7303057911213
 20
-19.79661735344117
 30
0
 10
114.3642734088069
 20
-24.34578831267983
 30
0
 10
112.0746679493592
 20
-27.58138788633657
 30
0
 10
113.6599999999935
 20
-30.04000000000037
 30
0
  0
LINE
  5
36B
100
AcDbEntity
  8
0_wire
  6
ByLayer
 62
  256
370
  200
100
AcDbLine
 10
141.5999999999927
 20
-65.60000000000072
 11
139.0599999999929
 21
-65.6000000000007
  0
LINE
  5
36C
100
AcDbEntity
  8
0_wire
  6
ByLayer
 62
  256
370
  200
100
AcDbLine
 10
144.1399999999926
 20
-60.52000000000068
 11
144.1399999999926
 21
-63.06000000000071
  0
LINE
  5
36D
100
AcDbEntity
  8
5V line
  6
ByLayer
 62
  256
370
  200
100
AcDbLine
 10
126.3599999999934
 20
-55.44000000000058
 11
128.8999999999933
 21
-55.44000000000058
  0
LINE
  5
36E
100
AcDbEntity
  8
0_wire
  6
ByLayer
 62
  256
370
  200
100
AcDbLine
 10
128.8999999999933
 20
-65.60000000000069
 11
128.8999999999933
 21
-63.06000000000066
  0
LINE
  5
36F
100
AcDbEntity
  8
0_wire
  6
ByLayer
 62
  256
370
  200
100
AcDbLine
 10
126.3599999999934
 20
-65.60000000000069
 11
128.8999999999933
 21
-65.6000000000007
  0
LINE
  5
370
100
AcDbEntity
  8
0_wire
  6
ByLayer
 62
  256
370
  200
100
AcDbLine
 10
118.7399999999939
 20
-70.68000000000075
 11
123.8199999999936
 21
-70.68000000000075
  0
LINE
  5
371
100
AcDbEntity
  8
0_wire
  6
ByLayer
 62
  256
370
  200
100
AcDbLine
 10
123.8199999999936
 20
-70.68000000000075
 11
123.8199999999936
 21
-52.90000000000055
  0
LINE
  5
372
100
AcDbEntity
  8
0_wire
  6
ByLayer
 62
  256
370
  200
100
AcDbLine
 10
118.7399999999939
 20
-68.14000000000071
 11
121.2799999999937
 21
-68.14000000000071
  0
LINE
  5
373
100
AcDbEntity
  8
0_wire
  6
ByLayer
 62
  256
370
  200
100
AcDbLine
 10
126.3599999999934
 20
-60.52000000000061
 11
133.9799999999931
 21
-60.52000000000064
  0
LINE
  5
374
100
AcDbEntity
  8
0_wire
  6
ByLayer
 62
  256
370
  200
100
AcDbLine
 10
118.7399999999939
 20
-63.06000000000066
 11
116.199999999994
 21
-63.06000000000066
  0
LINE
  5
375
100
AcDbEntity
  8
0_wire
  6
ByLayer
 62
  256
370
  200
100
AcDbLine
 10
144.1399999999926
 20
-57.98000000000066
 11
144.1399999999926
 21
-55.44000000000064
  0
LINE
  5
376
100
AcDbEntity
  8
0_wire
  6
ByLayer
 62
  256
370
  200
100
AcDbLine
 10
144.1399999999926
 20
-65.60000000000075
 11
146.6799999999925
 21
-65.60000000000076
  0
CIRCLE
  5
377
100
AcDbEntity
  8
0_wire
  6
ByLayer
 62
  256
370
  200
100
AcDbCircle
 10
149.2199999999924
 20
-63.06000000000074
 40
0.4
  0
LINE
  5
378
100
AcDbEntity
  8
0_wire
  6
ByLayer
 62
  256
370
  200
100
AcDbLine
 10
144.1399999999926
 20
-50.36000000000058
 11
144.1399999999926
 21
-52.9000000000006
  0
LINE
  5
379
100
AcDbEntity
  8
0_wire
  6
ByLayer
 62
  256
370
  200
100
AcDbLine
 10
146.6799999999925
 20
-50.36000000000057
 11
146.6799999999925
 21
-65.60000000000073
  0
LINE
  5
37A
100
AcDbEntity
  8
0_GND
  6
ByLayer
 62
  256
370
  200
100
AcDbLine
 10
149.2199999999924
 20
-50.3600000000006
 11
149.2199999999924
 21
-60.52000000000071
  0
LINE
  5
37B
100
AcDbEntity
  8
0_wire
  6
ByLayer
 62
  256
370
  200
100
AcDbLine
 10
131.4399999999932
 20
-65.60000000000069
 11
131.4399999999932
 21
-68.14000000000071
  0
LINE
  5
37C
100
AcDbEntity
  8
0_wire
  6
ByLayer
 62
  256
370
  200
100
AcDbLine
 10
126.3599999999934
 20
-68.14000000000071
 11
131.4399999999932
 21
-68.14000000000071
  0
LINE
  5
37D
100
AcDbEntity
  8
0_wire
  6
ByLayer
 62
  256
370
  200
100
AcDbLine
 10
131.4399999999932
 20
-65.60000000000068
 11
136.519999999993
 21
-65.6000000000007
  0
LINE
  5
37E
100
AcDbEntity
  8
0_wire
  6
ByLayer
 62
  256
370
  200
100
AcDbLine
 10
128.8999999999933
 20
-63.06000000000066
 11
141.5999999999927
 21
-63.06000000000066
  0
LINE
  5
37F
100
AcDbEntity
  8
0_wire
  6
ByLayer
 62
  256
370
  200
100
AcDbLine
 10
126.3599999999934
 20
-57.98000000000059
 11
131.4399999999932
 21
-57.9800000000006
  0
LINE
  5
380
100
AcDbEntity
  8
0_wire
  6
ByLayer
 62
  256
370
  200
100
AcDbLine
 10
123.8199999999936
 20
-52.90000000000055
 11
128.8999999999933
 21
-52.90000000000055
  0
CIRCLE
  5
381
100
AcDbEntity
  8
0_wire
  6
ByLayer
 62
  256
370
  200
100
AcDbCircle
 10
118.7399999999939
 20
-57.98000000000062
 40
0.4
  0
CIRCLE
  5
382
100
AcDbEntity
  8
0_wire
  6
ByLayer
 62
  256
370
  200
100
AcDbCircle
 10
118.7399999999939
 20
-60.52000000000064
 40
0.4
  0
CIRCLE
  5
383
100
AcDbEntity
  8
0_wire
  6
ByLayer
 62
  256
370
  200
100
AcDbCircle
 10
126.3599999999934
 20
-63.06000000000067
 40
0.4
  0
LINE
  5
384
100
AcDbEntity
  8
0_wire
  6
ByLayer
 62
  256
370
  200
100
AcDbLine
 10
139.0599999999929
 20
-52.90000000000057
 11
141.5999999999927
 21
-52.90000000000058
  0
LINE
  5
385
100
AcDbEntity
  8
0_wire
  6
ByLayer
 62
  256
370
  200
100
AcDbLine
 10
149.2199999999924
 20
-45.28000000000054
 11
146.6799999999925
 21
-45.28000000000053
  0
LINE
  5
386
100
AcDbEntity
  8
0_wire
  6
ByLayer
 62
  256
370
  200
100
AcDbLine
 10
144.1399999999926
 20
-47.82000000000055
 11
149.2199999999924
 21
-47.82000000000057
  0
LINE
  5
387
100
AcDbEntity
  8
5V line
  6
ByLayer
 62
  256
370
  200
100
AcDbLine
 10
128.8999999999933
 20
-75.76000000000082
 11
131.4399999999932
 21
-75.76000000000082
  0
LINE
  5
388
100
AcDbEntity
  8
0_GND
  6
ByLayer
 62
  256
370
  200
100
AcDbLine
 10
131.4399999999932
 20
-73.22000000000078
 11
113.6599999999941
 21
-73.22000000000078
  0
LINE
  5
389
100
AcDbEntity
  8
0_GND
  6
ByLayer
 62
  256
370
  200
100
AcDbLine
 10
144.1399999999926
 20
-68.14000000000077
 11
146.6799999999925
 21
-68.14000000000078
  0
LINE
  5
38A
100
AcDbEntity
  8
0_wire
  6
ByLayer
 62
  256
370
  200
100
AcDbLine
 10
141.5999999999927
 20
-55.44000000000061
 11
139.0599999999929
 21
-55.44000000000061
  0
LINE
  5
38B
100
AcDbEntity
  8
0_wire
  6
ByLayer
 62
  256
370
  200
100
AcDbLine
 10
121.2799999999937
 20
-68.14000000000071
 11
121.2799999999937
 21
-52.90000000000055
  0
LINE
  5
38C
100
AcDbEntity
  8
0_wire
  6
ByLayer
 62
  256
370
  200
100
AcDbLine
 10
139.0599999999929
 20
-60.52000000000066
 11
144.1399999999926
 21
-60.52000000000068
  0
LINE
  5
38D
100
AcDbEntity
  8
0_wire
  6
ByLayer
 62
  256
370
  200
100
AcDbLine
 10
126.3599999999934
 20
-70.68000000000075
 11
131.4399999999932
 21
-70.68000000000076
  0
LINE
  5
38E
100
AcDbEntity
  8
0_wire
  6
ByLayer
 62
  256
370
  200
100
AcDbLine
 10
139.0599999999929
 20
-57.98000000000064
 11
144.1399999999926
 21
-57.98000000000066
  0
LINE
  5
38F
100
AcDbEntity
  8
0_wire
  6
ByLayer
 62
  256
370
  200
100
AcDbLine
 10
144.1399999999926
 20
-47.82000000000055
 11
141.5999999999927
 21
-47.82000000000053
  0
LINE
  5
390
100
AcDbEntity
  8
0_wire
  6
ByLayer
 62
  256
370
  200
100
AcDbLine
 10
141.5999999999927
 20
-47.82000000000053
 11
141.5999999999927
 21
-50.36000000000055
  0
LINE
  5
391
100
AcDbEntity
  8
0_wire
  6
ByLayer
 62
  256
370
  200
100
AcDbLine
 10
141.5999999999927
 20
-50.36000000000055
 11
136.519999999993
 21
-50.36000000000055
  0
LINE
  5
392
100
AcDbEntity
  8
0_wire
  6
ByLayer
 62
  256
370
  200
100
AcDbLine
 10
136.519999999993
 20
-50.36000000000055
 11
136.519999999993
 21
-60.52000000000066
  0
LINE
  5
393
100
AcDbEntity
  8
0_wire
  6
ByLayer
 62
  256
370
  200
100
AcDbLine
 10
136.519999999993
 20
-60.52000000000066
 11
133.9799999999931
 21
-60.52000000000064
  0
LINE
  5
394
100
AcDbEntity
  8
0_wire
  6
ByLayer
 62
  256
370
  200
100
AcDbLine
 10
133.9799999999931
 20
-57.98000000000062
 11
131.4399999999932
 21
-57.98000000000062
  0
LINE
  5
395
100
AcDbEntity
  8
0_wire
  6
ByLayer
 62
  256
370
  200
100
AcDbLine
 10
133.9799999999931
 20
-47.8200000000005
 11
139.0599999999929
 21
-47.82000000000052
  0
LINE
  5
396
100
AcDbEntity
  8
0_wire
  6
ByLayer
 62
  256
370
  200
100
AcDbLine
 10
139.0599999999929
 20
-47.82000000000052
 11
139.0599999999929
 21
-45.28000000000049
  0
LINE
  5
397
100
AcDbEntity
  8
0_wire
  6
ByLayer
 62
  256
370
  200
100
AcDbLine
 10
146.6799999999925
 20
-45.28000000000053
 11
139.0599999999929
 21
-45.2800000000005
  0
LINE
  5
398
100
AcDbEntity
  8
0_wire
  6
ByLayer
 62
  256
370
  200
100
AcDbLine
 10
133.9799999999931
 20
-47.8200000000005
 11
133.9799999999931
 21
-57.98000000000062
  0
LINE
  5
399
100
AcDbEntity
  8
0_wire
  6
ByLayer
 62
  256
370
  200
100
AcDbLine
 10
118.7399999999939
 20
-65.60000000000069
 11
116.199999999994
 21
-65.60000000000069
  0
LINE
  5
39A
100
AcDbEntity
  8
0_wire
  6
ByLayer
 62
  256
370
  200
100
AcDbLine
 10
128.8999999999933
 20
-52.90000000000055
 11
131.4399999999932
 21
-52.90000000000055
  0
LINE
  5
39B
100
AcDbEntity
  8
0_wire
  6
ByLayer
 62
  256
370
  200
100
AcDbLine
 10
131.4399999999932
 20
-52.90000000000055
 11
131.4399999999932
 21
-55.44000000000058
  0
LINE
  5
39C
100
AcDbEntity
  8
5V line
  6
ByLayer
 62
  256
370
  200
100
AcDbLine
 10
149.2199999999924
 20
-65.60000000000076
 11
149.2199999999924
 21
-68.14000000000081
  0
LINE
  5
39D
100
AcDbEntity
  8
0_wire
  6
ByLayer
 62
  256
370
  200
100
AcDbLine
 10
116.199999999994
 20
-65.60000000000069
 11
113.6599999999941
 21
-65.60000000000069
  0
LINE
  5
39E
100
AcDbEntity
  8
0_wire
  6
ByLayer
 62
  256
370
  200
100
AcDbLine
 10
116.199999999994
 20
-63.06000000000066
 11
116.199999999994
 21
-50.36000000000053
  0
LINE
  5
39F
100
AcDbEntity
  8
0_wire
  6
ByLayer
 62
  256
370
  200
100
AcDbLine
 10
113.6599999999941
 20
-65.60000000000069
 11
113.6599999999941
 21
-47.82000000000049
  0
LINE
  5
3A0
100
AcDbEntity
  8
0_wire
  6
ByLayer
 62
  256
370
  200
100
AcDbLine
 10
121.2799999999937
 20
-47.8200000000005
 11
131.4399999999932
 21
-47.8200000000005
  0
LINE
  5
3A1
100
AcDbEntity
  8
0_wire
  6
ByLayer
 62
  256
370
  200
100
AcDbLine
 10
121.2799999999937
 20
-50.36000000000053
 11
131.4399999999932
 21
-50.36000000000053
  0
LINE
  5
3A2
100
AcDbEntity
  8
0_wire
  6
ByLayer
 62
  256
370
  200
100
AcDbLine
 10
113.6599999999941
 20
-47.8200000000005
 11
116.199999999994
 21
-47.8200000000005
  0
LINE
  5
3A3
100
AcDbEntity
  8
0_GND
  6
ByLayer
 62
  256
370
  200
100
AcDbLine
 10
118.7399999999939
 20
-45.28000000000047
 11
118.7399999999939
 21
-55.44000000000058
  0
LINE
  5
3A4
100
AcDbEntity
  8
0_GND
  6
ByLayer
 62
  256
370
  200
100
AcDbLine
 10
136.519999999993
 20
-45.28000000000049
 11
118.7399999999939
 21
-45.28000000000048
  0
LINE
  5
3A5
100
AcDbEntity
  8
0_GND
  6
ByLayer
 62
  256
370
  200
100
AcDbLine
 10
118.7399999999939
 20
-45.28000000000047
 11
111.1199999999943
 21
-45.28000000000047
  0
LINE
  5
3A6
100
AcDbEntity
  8
0_GND
  6
ByLayer
 62
  256
370
  200
100
AcDbLine
 10
111.1199999999943
 20
-45.28000000000047
 11
111.1199999999943
 21
-73.22000000000078
  0
LINE
  5
3A7
100
AcDbEntity
  8
0_GND
  6
ByLayer
 62
  256
370
  200
100
AcDbLine
 10
111.1199999999943
 20
-73.22000000000078
 11
113.6599999999941
 21
-73.22000000000078
  0
LINE
  5
3A8
100
AcDbEntity
  8
5V line
  6
ByLayer
 62
  256
370
  200
100
AcDbLine
 10
141.5999999999928
 20
-73.22000000000078
 11
141.5999999999928
 21
-75.76000000000084
  0
LINE
  5
3A9
100
AcDbEntity
  8
0_wire
  6
ByLayer
 62
  256
370
  200
100
AcDbLine
 10
139.0599999999929
 20
-65.6000000000007
 11
139.0599999999929
 21
-70.68000000000076
  0
LINE
  5
3AA
100
AcDbEntity
  8
0_GND
  6
ByLayer
 62
  256
370
  200
100
AcDbLine
 10
136.519999999993
 20
-73.22000000000079
 11
131.4399999999932
 21
-73.22000000000078
  0
LINE
  5
3AB
100
AcDbEntity
  8
5V line
  6
ByLayer
 62
  256
370
  200
100
AcDbLine
 10
141.5999999999927
 20
-68.14000000000074
 11
141.5999999999928
 21
-73.22000000000077
  0
LINE
  5
3AC
100
AcDbEntity
  8
5V line
  6
ByLayer
 62
  256
370
  200
100
AcDbLine
 10
149.2199999999924
 20
-68.14000000000078
 11
149.2199999999924
 21
-70.68000000000082
  0
LINE
  5
3AD
100
AcDbEntity
  8
5V line
  6
ByLayer
 62
  256
370
  200
100
AcDbLine
 10
144.1399999999926
 20
-70.6800000000008
 11
141.5999999999927
 21
-70.68000000000076
  0
LINE
  5
3AE
100
AcDbEntity
  8
5V line
  6
ByLayer
 62
  256
370
  200
100
AcDbLine
 10
131.4399999999932
 20
-75.76000000000082
 11
141.5999999999928
 21
-75.76000000000084
  0
MTEXT
  5
3AF
100
AcDbEntity
  8
0
  6
ByLayer
 62
  256
370
   -1
100
AcDbMText
 10
82.62095399781167
 20
-20.24980497748634
 30
0
 40
1
 41
22.48
 71
    4
 72
    1
  3
C1     : 0.22uF\PC2: 1.5uF\PJ1     :  2P\PJ2     :  3P\PJ3     :  2x2P\PJ4     :  2x3P\PJ5     : IC  14P\PRN1    : 20k\PU2     : PIC16F18323\PUB1    : 
  1
 16x13P
  7
kst32b
210
0
220
0
230
1
 50
0
 73
    2
 44
1.54
  0
MTEXT
  5
3B0
100
AcDbEntity
  8
condenser
  6
ByLayer
 62
  256
370
   -1
100
AcDbMText
 10
126.0482235992702
 20
-36.44488232980741
 30
0
 40
1
 41
1.306666666666667
 71
    4
 72
    1
  1
C2
  7
kst32b
210
0
220
0
230
1
 50
0
 73
    2
 44
1.54
  0
ENDSEC
  0
SECTION
  2
OBJECTS
  0
DICTIONARY
  5
C
330
0
100
AcDbDictionary
281
    1
  3
ACAD_GROUP
350
D
  0
DICTIONARY
  5
D
330
C
100
AcDbDictionary
281
    1
  0
PLOTSETTINGS
  5
3B1
100
AcDbPlotSettings
  6
1x1
 40
5
 41
5
 42
5
 43
5
  0
ENDSEC
  0
EOF
