999
dxfrw 0.6.3
  0
SECTION
  2
HEADER
  9
$ACADVER
  1
AC1021
  9
$DWGCODEPAGE
  3
ANSI_1252
  9
$INSBASE
 10
0
 20
0
 30
0
  9
$EXTMIN
 10
6.234031087440766
 20
1.709999999999582
 30
0
  9
$EXTMAX
 10
84.44999999999527
 20
79.35138263638781
 30
0
  9
$LIMMIN
 10
0
 20
0
  9
$LIMMAX
 10
420
 20
297
  9
$ORTHOMODE
 70
    0
  9
$REGENMODE
 70
    1
  9
$FILLMODE
 70
    1
  9
$QTEXTMODE
 70
    0
  9
$MIRRTEXT
 70
    0
  9
$LTSCALE
 40
1
  9
$ATTMODE
 70
    0
  9
$TEXTSIZE
 40
2.5
  9
$TRACEWID
 40
15.68
  9
$TEXTSTYLE
  7
STANDARD
  9
$CLAYER
  8
0_GND
  9
$CELTYPE
  6
BYLAYER
  9
$CECOLOR
 62
  256
  9
$CELTSCALE
 40
1
  9
$DISPSILH
 70
    0
  9
$DIMSCALE
 40
1
  9
$DIMASZ
 40
2.5
  9
$DIMEXO
 40
0.625
  9
$DIMDLI
 40
3.75
  9
$DIMRND
 40
0
  9
$DIMDLE
 40
0
  9
$DIMEXE
 40
1.25
  9
$DIMTP
 40
0
  9
$DIMTM
 40
0
  9
$DIMTXT
 40
2.5
  9
$DIMCEN
 40
2.5
  9
$DIMTSZ
 40
0
  9
$DIMTOL
 70
    0
  9
$DIMLIM
 70
    0
  9
$DIMTIH
 70
    0
  9
$DIMTOH
 70
    0
  9
$DIMSE1
 70
    0
  9
$DIMSE2
 70
    0
  9
$DIMTAD
 70
    1
  9
$DIMZIN
 70
    8
  9
$DIMBLK
  1

  9
$DIMASO
 70
    1
  9
$DIMSHO
 70
    1
  9
$DIMPOST
  1

  9
$DIMAPOST
  1

  9
$DIMALT
 70
    0
  9
$DIMALTD
 70
    3
  9
$DIMALTF
 40
0.03937
  9
$DIMLFAC
 40
1
  9
$DIMTOFL
 70
    1
  9
$DIMTVP
 40
0
  9
$DIMTIX
 70
    0
  9
$DIMSOXD
 70
    0
  9
$DIMSAH
 70
    0
  9
$DIMBLK1
  1

  9
$DIMBLK2
  1

  9
$DIMSTYLE
  2
STANDARD
  9
$DIMCLRD
 70
    0
  9
$DIMCLRE
 70
    0
  9
$DIMCLRT
 70
    0
  9
$DIMTFAC
 40
1
  9
$DIMGAP
 40
0.625
  9
$DIMJUST
 70
    0
  9
$DIMSD1
 70
    0
  9
$DIMSD2
 70
    0
  9
$DIMTOLJ
 70
    0
  9
$DIMTZIN
 70
    8
  9
$DIMALTZ
 70
    0
  9
$DIMALTTZ
 70
    0
  9
$DIMUPT
 70
    0
  9
$DIMDEC
 70
    2
  9
$DIMTDEC
 70
    2
  9
$DIMALTU
 70
    2
  9
$DIMALTTD
 70
    3
  9
$DIMTXSTY
  7
standard
  9
$DIMAUNIT
 70
    0
  9
$DIMADEC
 70
    0
  9
$DIMALTRND
 40
0
  9
$DIMAZIN
 70
    0
  9
$DIMDSEP
 70
   44
  9
$DIMATFIT
 70
    3
  9
$DIMFRAC
 70
    0
  9
$DIMLDRBLK
  1
STANDARD
  9
$DIMLUNIT
 70
    2
  9
$DIMLWD
 70
   -2
  9
$DIMLWE
 70
   -2
  9
$DIMTMOVE
 70
    0
  9
$DIMFXL
 40
1
  9
$DIMFXLON
 70
    0
  9
$DIMJOGANG
 40
0.7854
  9
$DIMTFILL
 70
    0
  9
$DIMTFILLCLR
 70
    0
  9
$DIMARCSYM
 70
    0
  9
$DIMLTYPE
  6

  9
$DIMLTEX1
  6

  9
$DIMLTEX2
  6

  9
$LUNITS
 70
    2
  9
$LUPREC
 70
    4
  9
$SKETCHINC
 40
1
  9
$FILLETRAD
 40
0
  9
$AUNITS
 70
    0
  9
$AUPREC
 70
    2
  9
$MENU
  1
.
  9
$ELEVATION
 40
0
  9
$PELEVATION
 40
0
  9
$THICKNESS
 40
0
  9
$LIMCHECK
 70
    0
  9
$CHAMFERA
 40
0
  9
$CHAMFERB
 40
0
  9
$CHAMFERC
 40
0
  9
$CHAMFERD
 40
0
  9
$SKPOLY
 70
    0
  9
$USRTIMER
 70
    1
  9
$ANGBASE
 50
0
  9
$ANGDIR
 70
    0
  9
$PDMODE
 70
   34
  9
$PDSIZE
 40
0
  9
$PLINEWID
 40
0
  9
$SPLFRAME
 70
    0
  9
$SPLINETYPE
 70
    2
  9
$SPLINESEGS
 70
    8
  9
$HANDSEED
  5
20000
  9
$SURFTAB1
 70
    6
  9
$SURFTAB2
 70
    6
  9
$SURFTYPE
 70
    6
  9
$SURFU
 70
    6
  9
$SURFV
 70
    6
  9
$UCSBASE
  2

  9
$UCSNAME
  2

  9
$UCSORG
 10
0
 20
0
 30
0
  9
$UCSXDIR
 10
1
 20
0
 30
0
  9
$UCSYDIR
 10
0
 20
1
 30
0
  9
$UCSORTHOREF
  2

  9
$UCSORTHOVIEW
 70
    0
  9
$UCSORGTOP
 10
0
 20
0
 30
0
  9
$UCSORGBOTTOM
 10
0
 20
0
 30
0
  9
$UCSORGLEFT
 10
0
 20
0
 30
0
  9
$UCSORGRIGHT
 10
0
 20
0
 30
0
  9
$UCSORGFRONT
 10
0
 20
0
 30
0
  9
$UCSORGBACK
 10
0
 20
0
 30
0
  9
$PUCSBASE
  2

  9
$PUCSNAME
  2

  9
$PUCSORG
 10
0
 20
0
 30
0
  9
$PUCSXDIR
 10
1
 20
0
 30
0
  9
$PUCSYDIR
 10
0
 20
1
 30
0
  9
$PUCSORTHOREF
  2

  9
$PUCSORTHOVIEW
 70
    0
  9
$PUCSORGTOP
 10
0
 20
0
 30
0
  9
$PUCSORGBOTTOM
 10
0
 20
0
 30
0
  9
$PUCSORGLEFT
 10
0
 20
0
 30
0
  9
$PUCSORGRIGHT
 10
0
 20
0
 30
0
  9
$PUCSORGFRONT
 10
0
 20
0
 30
0
  9
$PUCSORGBACK
 10
0
 20
0
 30
0
  9
$USERI1
 70
    0
  9
$USERI2
 70
    0
  9
$USERI3
 70
    0
  9
$USERI4
 70
    0
  9
$USERI5
 70
    0
  9
$USERR1
 40
0
  9
$USERR2
 40
0
  9
$USERR3
 40
0
  9
$USERR4
 40
0
  9
$USERR5
 40
0
  9
$WORLDVIEW
 70
    1
  9
$SHADEDGE
 70
    3
  9
$SHADEDIF
 70
   70
  9
$TILEMODE
 70
    1
  9
$MAXACTVP
 70
   64
  9
$PINSBASE
 10
35.14496114070496
 20
3.673271704515755
 30
0
  9
$PLIMCHECK
 70
    0
  9
$PEXTMIN
 10
0
 20
0
 30
0
  9
$PEXTMAX
 10
0
 20
0
 30
0
  9
$GRIDMODE
 70
    0
  9
$SNAPSTYLE
 70
    0
  9
$GRIDUNIT
 10
0
 20
0
  9
$PLIMMIN
 10
0
 20
0
  9
$PLIMMAX
 10
297
 20
210
  9
$UNITMODE
 70
    0
  9
$VISRETAIN
 70
    1
  9
$PLINEGEN
 70
    0
  9
$PSLTSCALE
 70
    1
  9
$TREEDEPTH
 70
 3020
  9
$CMLSTYLE
  2
Standard
  9
$CMLJUST
 70
    0
  9
$CMLSCALE
 40
20
  9
$PROXYGRAPHICS
 70
    1
  9
$MEASUREMENT
 70
    1
  9
$CELWEIGHT
370
   -1
  9
$ENDCAPS
280
    0
  9
$JOINSTYLE
280
    0
  9
$LWDISPLAY
290
    0
  9
$INSUNITS
 70
    0
  9
$HYPERLINKBASE
  1

  9
$STYLESHEET
  1

  9
$XEDIT
290
    1
  9
$CEPSNTYPE
380
    0
  9
$PSTYLEMODE
290
    1
  9
$EXTNAMES
290
    1
  9
$PSVPSCALE
 40
2.5
  9
$OLESTARTUP
290
    0
  9
$SORTENTS
280
  127
  9
$INDEXCTL
280
    0
  9
$HIDETEXT
280
    1
  9
$XCLIPFRAME
290
    0
  9
$HALOGAP
280
    0
  9
$OBSCOLOR
 70
  257
  9
$OBSLTYPE
280
    0
  9
$INTERSECTIONDISPLAY
280
    0
  9
$INTERSECTIONCOLOR
 70
  257
  9
$DIMASSOC
280
    1
  9
$PROJECTNAME
  1

  9
$CAMERADISPLAY
290
    0
  9
$LENSLENGTH
 40
50
  9
$CAMERAHEIGHT
 40
0
  9
$STEPSPERSEC
 40
2
  9
$STEPSIZE
 40
50
  9
$3DDWFPREC
 40
2
  9
$PSOLWIDTH
 40
5
  9
$PSOLHEIGHT
 40
80
  9
$LOFTANG1
 40
1.570796326794897
  9
$LOFTANG2
 40
1.570796326794897
  9
$LOFTMAG1
 40
0
  9
$LOFTMAG2
 40
0
  9
$LOFTPARAM
 70
    7
  9
$LOFTNORMALS
280
    1
  9
$LATITUDE
 40
1
  9
$LONGITUDE
 40
1
  9
$NORTHDIRECTION
 40
0
  9
$TIMEZONE
 70
-8000
  9
$LIGHTGLYPHDISPLAY
280
    1
  9
$TILEMODELIGHTSYNCH
280
    1
  9
$SOLIDHIST
280
    1
  9
$SHOWHIST
280
    1
  9
$DWFFRAME
280
    2
  9
$DGNFRAME
280
    0
  9
$REALWORLDSCALE
290
    1
  9
$INTERFERECOLOR
 62
    1
  9
$CSHADOW
280
    0
  9
$SHADOWPLANELOCATION
 40
0
  0
ENDSEC
  0
SECTION
  2
CLASSES
  0
ENDSEC
  0
SECTION
  2
TABLES
  0
TABLE
  2
VPORT
  5
8
330
0
100
AcDbSymbolTable
 70
    1
  0
VPORT
  5
31
330
2
100
AcDbSymbolTableRecord
100
AcDbViewportTableRecord
  2
*ACTIVE
 70
    0
 10
0
 20
0
 11
1
 21
1
 12
55.91534369286282
 22
43.1200705366013
 13
0
 23
0
 14
10
 24
10
 15
10
 25
10
 16
0
 26
0
 36
1
 17
0
 27
0
 37
0
 40
81.8897482000737
 41
1.526041666666667
 42
50
 43
0
 44
0
 50
0
 51
0
 71
    0
 72
  100
 73
    1
 74
    3
 75
    0
 76
    0
 77
    0
 78
    0
281
    0
 65
    1
110
0
120
0
130
0
111
1
121
0
131
0
112
0
122
1
132
0
 79
    0
146
0
348
10020
 60
    7
 61
    5
292
1
282
    1
141
0
142
0
 63
  250
421
3358443
  0
ENDTAB
  0
TABLE
  2
LTYPE
  5
5
330
0
100
AcDbSymbolTable
 70
    4
  0
LTYPE
  5
14
330
5
100
AcDbSymbolTableRecord
100
AcDbLinetypeTableRecord
  2
ByBlock
 70
    0
  3

 72
   65
 73
    0
 40
0
  0
LTYPE
  5
15
330
5
100
AcDbSymbolTableRecord
100
AcDbLinetypeTableRecord
  2
ByLayer
 70
    0
  3

 72
   65
 73
    0
 40
0
  0
LTYPE
  5
16
330
5
100
AcDbSymbolTableRecord
100
AcDbLinetypeTableRecord
  2
Continuous
 70
    0
  3
Solid line
 72
   65
 73
    0
 40
0
  0
LTYPE
  5
32
330
5
100
AcDbSymbolTableRecord
100
AcDbLinetypeTableRecord
  2
DOT
 70
    0
  3
Dot . . . . . . . . . . . . . . . . . . . . . .
 72
   65
 73
    2
 40
6.35
 49
0
 74
    0
 49
-6.35
 74
    0
  0
LTYPE
  5
33
330
5
100
AcDbSymbolTableRecord
100
AcDbLinetypeTableRecord
  2
DOTTINY
 70
    0
  3
Dot (.15x) .....................................
 72
   65
 73
    2
 40
0.9525
 49
0
 74
    0
 49
-0.9525
 74
    0
  0
LTYPE
  5
34
330
5
100
AcDbSymbolTableRecord
100
AcDbLinetypeTableRecord
  2
DOT2
 70
    0
  3
Dot (.5x) .....................................
 72
   65
 73
    2
 40
3.175
 49
0
 74
    0
 49
-3.175
 74
    0
  0
LTYPE
  5
35
330
5
100
AcDbSymbolTableRecord
100
AcDbLinetypeTableRecord
  2
DOTX2
 70
    0
  3
Dot (2x) .  .  .  .  .  .  .  .  .  .  .  .  .
 72
   65
 73
    2
 40
12.7
 49
0
 74
    0
 49
-12.7
 74
    0
  0
LTYPE
  5
36
330
5
100
AcDbSymbolTableRecord
100
AcDbLinetypeTableRecord
  2
DASHED
 70
    0
  3
Dashed _ _ _ _ _ _ _ _ _ _ _ _ _ _ _ _ _
 72
   65
 73
    2
 40
19.05
 49
12.7
 74
    0
 49
-6.35
 74
    0
  0
LTYPE
  5
37
330
5
100
AcDbSymbolTableRecord
100
AcDbLinetypeTableRecord
  2
DASHEDTINY
 70
    0
  3
Dashed (.15x) _ _ _ _ _ _ _ _ _ _ _ _ _ _ _ _ _
 72
   65
 73
    2
 40
2.8575
 49
1.905
 74
    0
 49
-0.9525
 74
    0
  0
LTYPE
  5
38
330
5
100
AcDbSymbolTableRecord
100
AcDbLinetypeTableRecord
  2
DASHED2
 70
    0
  3
Dashed (.5x) _ _ _ _ _ _ _ _ _ _ _ _ _ _ _ _ _
 72
   65
 73
    2
 40
9.524999999999999
 49
6.35
 74
    0
 49
-3.175
 74
    0
  0
LTYPE
  5
39
330
5
100
AcDbSymbolTableRecord
100
AcDbLinetypeTableRecord
  2
DASHEDX2
 70
    0
  3
Dashed (2x) ____  ____  ____  ____  ____  ___
 72
   65
 73
    2
 40
38.09999999999999
 49
25.4
 74
    0
 49
-12.7
 74
    0
  0
LTYPE
  5
3A
330
5
100
AcDbSymbolTableRecord
100
AcDbLinetypeTableRecord
  2
DASHDOT
 70
    0
  3
Dash dot __ . __ . __ . __ . __ . __ . __ . __
 72
   65
 73
    4
 40
25.4
 49
12.7
 74
    0
 49
-6.35
 74
    0
 49
0
 74
    0
 49
-6.35
 74
    0
  0
LTYPE
  5
3B
330
5
100
AcDbSymbolTableRecord
100
AcDbLinetypeTableRecord
  2
DASHDOTTINY
 70
    0
  3
Dash dot (.15x) _._._._._._._._._._._._._._._.
 72
   65
 73
    4
 40
3.81
 49
1.905
 74
    0
 49
-0.9525
 74
    0
 49
0
 74
    0
 49
-0.9525
 74
    0
  0
LTYPE
  5
3C
330
5
100
AcDbSymbolTableRecord
100
AcDbLinetypeTableRecord
  2
DASHDOT2
 70
    0
  3
Dash dot (.5x) _._._._._._._._._._._._._._._.
 72
   65
 73
    4
 40
12.7
 49
6.35
 74
    0
 49
-3.175
 74
    0
 49
0
 74
    0
 49
-3.175
 74
    0
  0
LTYPE
  5
3D
330
5
100
AcDbSymbolTableRecord
100
AcDbLinetypeTableRecord
  2
DASHDOTX2
 70
    0
  3
Dash dot (2x) ____  .  ____  .  ____  .  ___
 72
   65
 73
    4
 40
50.8
 49
25.4
 74
    0
 49
-12.7
 74
    0
 49
0
 74
    0
 49
-12.7
 74
    0
  0
LTYPE
  5
3E
330
5
100
AcDbSymbolTableRecord
100
AcDbLinetypeTableRecord
  2
DIVIDE
 70
    0
  3
Divide ____ . . ____ . . ____ . . ____ . . ____
 72
   65
 73
    6
 40
31.75
 49
12.7
 74
    0
 49
-6.35
 74
    0
 49
0
 74
    0
 49
-6.35
 74
    0
 49
0
 74
    0
 49
-6.35
 74
    0
  0
LTYPE
  5
3F
330
5
100
AcDbSymbolTableRecord
100
AcDbLinetypeTableRecord
  2
DIVIDETINY
 70
    0
  3
Divide (.15x) __..__..__..__..__..__..__..__.._
 72
   65
 73
    6
 40
4.7625
 49
1.905
 74
    0
 49
-0.9525
 74
    0
 49
0
 74
    0
 49
-0.9525
 74
    0
 49
0
 74
    0
 49
-0.9525
 74
    0
  0
LTYPE
  5
40
330
5
100
AcDbSymbolTableRecord
100
AcDbLinetypeTableRecord
  2
DIVIDE2
 70
    0
  3
Divide (.5x) __..__..__..__..__..__..__..__.._
 72
   65
 73
    6
 40
15.875
 49
6.35
 74
    0
 49
-3.175
 74
    0
 49
0
 74
    0
 49
-3.175
 74
    0
 49
0
 74
    0
 49
-3.175
 74
    0
  0
LTYPE
  5
41
330
5
100
AcDbSymbolTableRecord
100
AcDbLinetypeTableRecord
  2
DIVIDEX2
 70
    0
  3
Divide (2x) ________  .  .  ________  .  .  _
 72
   65
 73
    6
 40
63.5
 49
25.4
 74
    0
 49
-12.7
 74
    0
 49
0
 74
    0
 49
-12.7
 74
    0
 49
0
 74
    0
 49
-12.7
 74
    0
  0
LTYPE
  5
42
330
5
100
AcDbSymbolTableRecord
100
AcDbLinetypeTableRecord
  2
BORDER
 70
    0
  3
Border __ __ . __ __ . __ __ . __ __ . __ __ .
 72
   65
 73
    6
 40
44.45
 49
12.7
 74
    0
 49
-6.35
 74
    0
 49
12.7
 74
    0
 49
-6.35
 74
    0
 49
0
 74
    0
 49
-6.35
 74
    0
  0
LTYPE
  5
43
330
5
100
AcDbSymbolTableRecord
100
AcDbLinetypeTableRecord
  2
BORDERTINY
 70
    0
  3
Border (.15x) __.__.__.__.__.__.__.__.__.__.__.
 72
   65
 73
    6
 40
6.6675
 49
1.905
 74
    0
 49
-0.9525
 74
    0
 49
1.905
 74
    0
 49
-0.9525
 74
    0
 49
0
 74
    0
 49
-0.9525
 74
    0
  0
LTYPE
  5
44
330
5
100
AcDbSymbolTableRecord
100
AcDbLinetypeTableRecord
  2
BORDER2
 70
    0
  3
Border (.5x) __.__.__.__.__.__.__.__.__.__.__.
 72
   65
 73
    6
 40
22.225
 49
6.35
 74
    0
 49
-3.175
 74
    0
 49
6.35
 74
    0
 49
-3.175
 74
    0
 49
0
 74
    0
 49
-3.175
 74
    0
  0
LTYPE
  5
45
330
5
100
AcDbSymbolTableRecord
100
AcDbLinetypeTableRecord
  2
BORDERX2
 70
    0
  3
Border (2x) ____  ____  .  ____  ____  .  ___
 72
   65
 73
    6
 40
88.89999999999999
 49
25.4
 74
    0
 49
-12.7
 74
    0
 49
25.4
 74
    0
 49
-12.7
 74
    0
 49
0
 74
    0
 49
-12.7
 74
    0
  0
LTYPE
  5
46
330
5
100
AcDbSymbolTableRecord
100
AcDbLinetypeTableRecord
  2
CENTER
 70
    0
  3
Center ____ _ ____ _ ____ _ ____ _ ____ _ ____
 72
   65
 73
    4
 40
50.8
 49
31.75
 74
    0
 49
-6.35
 74
    0
 49
6.35
 74
    0
 49
-6.35
 74
    0
  0
LTYPE
  5
47
330
5
100
AcDbSymbolTableRecord
100
AcDbLinetypeTableRecord
  2
CENTERTINY
 70
    0
  3
Center (.15x) ___ _ ___ _ ___ _ ___ _ ___ _ ___
 72
   65
 73
    4
 40
7.619999999999999
 49
4.7625
 74
    0
 49
-0.9525
 74
    0
 49
0.9525
 74
    0
 49
-0.9525
 74
    0
  0
LTYPE
  5
48
330
5
100
AcDbSymbolTableRecord
100
AcDbLinetypeTableRecord
  2
CENTER2
 70
    0
  3
Center (.5x) ___ _ ___ _ ___ _ ___ _ ___ _ ___
 72
   65
 73
    4
 40
28.575
 49
19.05
 74
    0
 49
-3.175
 74
    0
 49
3.175
 74
    0
 49
-3.175
 74
    0
  0
LTYPE
  5
49
330
5
100
AcDbSymbolTableRecord
100
AcDbLinetypeTableRecord
  2
CENTERX2
 70
    0
  3
Center (2x) ________  __  ________  __  _____
 72
   65
 73
    4
 40
101.6
 49
63.5
 74
    0
 49
-12.7
 74
    0
 49
12.7
 74
    0
 49
-12.7
 74
    0
  0
ENDTAB
  0
TABLE
  2
LAYER
  5
2
330
0
100
AcDbSymbolTable
 70
    1
  0
LAYER
  5
10
330
2
100
AcDbSymbolTableRecord
100
AcDbLayerTableRecord
  2
0
 70
    0
 62
    7
  6
CONTINUOUS
370
    9
390
F
  0
LAYER
  5
4A
330
2
100
AcDbSymbolTableRecord
100
AcDbLayerTableRecord
  2
0_GND
 70
    0
 62
    7
  6
CONTINUOUS
370
   15
390
F
  0
LAYER
  5
4B
330
2
100
AcDbSymbolTableRecord
100
AcDbLayerTableRecord
  2
0_draft
 70
    0
 62
    7
  6
DOTTINY
370
   -3
390
F
1001
LibreCad
1070
    1
  0
LAYER
  5
4C
330
2
100
AcDbSymbolTableRecord
100
AcDbLayerTableRecord
  2
0_wire
 70
    0
 62
   92
420
56832
  6
CONTINUOUS
370
   15
390
F
  0
LAYER
  5
4D
330
2
100
AcDbSymbolTableRecord
100
AcDbLayerTableRecord
  2
1_wire
 70
    0
 62
    2
  6
CONTINUOUS
370
   15
390
F
  0
LAYER
  5
4E
330
2
100
AcDbSymbolTableRecord
100
AcDbLayerTableRecord
  2
3.3V line
 70
    0
 62
   40
420
16755200
  6
CONTINUOUS
370
   15
390
F
  0
LAYER
  5
4F
330
2
100
AcDbSymbolTableRecord
100
AcDbLayerTableRecord
  2
5V line
 70
    0
 62
    1
  6
CONTINUOUS
370
   15
390
F
  0
LAYER
  5
50
330
2
100
AcDbSymbolTableRecord
100
AcDbLayerTableRecord
  2
condenser
 70
    0
 62
    5
  6
CONTINUOUS
370
   15
390
F
  0
LAYER
  5
51
330
2
100
AcDbSymbolTableRecord
100
AcDbLayerTableRecord
  2
crystal
 70
    0
 62
   96
420
32768
  6
CONTINUOUS
370
   15
390
F
  0
LAYER
  5
52
330
2
100
AcDbSymbolTableRecord
100
AcDbLayerTableRecord
  2
diode
 70
    0
 62
    6
  6
CONTINUOUS
370
   15
390
F
  0
LAYER
  5
53
330
2
100
AcDbSymbolTableRecord
100
AcDbLayerTableRecord
  2
kakou
 70
    0
 62
  176
420
  128
  6
CONTINUOUS
370
   15
390
F
  0
LAYER
  5
54
330
2
100
AcDbSymbolTableRecord
100
AcDbLayerTableRecord
  2
micon
 70
    0
 62
  216
420
8388736
  6
CONTINUOUS
370
   15
390
F
  0
LAYER
  5
55
330
2
100
AcDbSymbolTableRecord
100
AcDbLayerTableRecord
  2
resister
 70
    0
 62
  132
420
51143
  6
CONTINUOUS
370
   18
390
F
  0
LAYER
  5
56
330
2
100
AcDbSymbolTableRecord
100
AcDbLayerTableRecord
  2
socket_header
 70
    0
 62
   56
420
8421376
  6
CONTINUOUS
370
   15
390
F
  0
LAYER
  5
57
330
2
100
AcDbSymbolTableRecord
100
AcDbLayerTableRecord
  2
switch
 70
    0
 62
  136
420
32896
  6
CONTINUOUS
370
   15
390
F
  0
LAYER
  5
58
330
2
100
AcDbSymbolTableRecord
100
AcDbLayerTableRecord
  2
terminal
 70
    0
 62
   16
420
8388608
  6
CONTINUOUS
370
   15
390
F
  0
LAYER
  5
59
330
2
100
AcDbSymbolTableRecord
100
AcDbLayerTableRecord
  2
universal_board
 70
    4
 62
  253
420
10526884
  6
CONTINUOUS
370
   15
390
F
  0
ENDTAB
  0
TABLE
  2
STYLE
  5
3
330
0
100
AcDbSymbolTable
 70
    3
  0
STYLE
  5
5A
330
2
100
AcDbSymbolTableRecord
100
AcDbTextStyleTableRecord
  2
unicode
 70
    0
 40
0
 41
1
 50
0
 71
    0
 42
1
  3
unicode
  4

  0
STYLE
  5
5B
330
2
100
AcDbSymbolTableRecord
100
AcDbTextStyleTableRecord
  2
STANDARD
 70
    0
 40
0
 41
1
 50
0
 71
    0
 42
1
  3
STANDARD
  4

  0
STYLE
  5
5C
330
2
100
AcDbSymbolTableRecord
100
AcDbTextStyleTableRecord
  2
iso
 70
    0
 40
0
 41
1
 50
0
 71
    0
 42
1
  3
iso
  4

  0
STYLE
  5
5D
330
2
100
AcDbSymbolTableRecord
100
AcDbTextStyleTableRecord
  2
azomix
 70
    0
 40
0
 41
1
 50
0
 71
    0
 42
1
  3
azomix
  4

  0
ENDTAB
  0
TABLE
  2
VIEW
  5
6
330
0
100
AcDbSymbolTable
 70
    0
  0
ENDTAB
  0
TABLE
  2
UCS
  5
7
330
0
100
AcDbSymbolTable
 70
    0
  0
ENDTAB
  0
TABLE
  2
APPID
  5
9
330
0
100
AcDbSymbolTable
 70
    1
  0
APPID
  5
12
330
9
100
AcDbSymbolTableRecord
100
AcDbRegAppTableRecord
  2
ACAD
 70
    0
  0
APPID
  5
5E
330
9
100
AcDbSymbolTableRecord
100
AcDbRegAppTableRecord
  2
LibreCad
 70
    0
  0
ENDTAB
  0
TABLE
  2
DIMSTYLE
  5
A
330
0
100
AcDbSymbolTable
 70
    1
100
AcDbDimStyleTable
 71
    1
  0
DIMSTYLE
105
5F
330
A
100
AcDbSymbolTableRecord
100
AcDbDimStyleTableRecord
  2
Standard
 70
    0
 40
1
 41
2.5
 42
0.625
 43
0.38
 44
1.25
 45
0
 46
0
 47
0
 48
0
 49
1
140
2.5
141
0.09
142
0
143
25.4
144
1
145
0
146
1
147
0.625
148
0
 71
    0
 72
    0
 73
    0
 74
    1
 75
    0
 76
    0
 77
    0
 78
    8
 79
    0
170
    0
171
    2
172
    0
173
    0
174
    0
175
    0
176
    0
177
    0
178
    0
179
    0
271
    2
272
    4
273
    2
274
    2
275
    0
276
    0
277
    2
278
   44
279
    0
280
    0
281
    0
282
    0
283
    1
284
    0
285
    0
286
    0
288
    0
289
    3
340
5B
  0
ENDTAB
  0
TABLE
  2
BLOCK_RECORD
  5
1
330
0
100
AcDbSymbolTable
 70
    2
  0
BLOCK_RECORD
  5
1F
330
1
100
AcDbSymbolTableRecord
100
AcDbBlockTableRecord
  2
*Model_Space
 70
    0
280
    1
281
    0
  0
BLOCK_RECORD
  5
1E
330
1
100
AcDbSymbolTableRecord
100
AcDbBlockTableRecord
  2
*Paper_Space
 70
    0
280
    1
281
    0
  0
BLOCK_RECORD
  5
60
330
1
100
AcDbSymbolTableRecord
100
AcDbBlockTableRecord
  2
2227MC-08-03
 70
    0
280
    1
281
    0
  0
BLOCK_RECORD
  5
63
330
1
100
AcDbSymbolTableRecord
100
AcDbBlockTableRecord
  2
PIC16F15325
 70
    0
280
    1
281
    0
  0
BLOCK_RECORD
  5
66
330
1
100
AcDbSymbolTableRecord
100
AcDbBlockTableRecord
  2
2227MC-28-03
 70
    0
280
    1
281
    0
  0
BLOCK_RECORD
  5
69
330
1
100
AcDbSymbolTableRecord
100
AcDbBlockTableRecord
  2
HUSG-16.000-20
 70
    0
280
    1
281
    0
  0
BLOCK_RECORD
  5
6C
330
1
100
AcDbSymbolTableRecord
100
AcDbBlockTableRecord
  2
ATmega328P
 70
    0
280
    1
281
    0
  0
BLOCK_RECORD
  5
6F
330
1
100
AcDbSymbolTableRecord
100
AcDbBlockTableRecord
  2
DTS-63-N-V-BLK
 70
    0
280
    1
281
    0
  0
BLOCK_RECORD
  5
72
330
1
100
AcDbSymbolTableRecord
100
AcDbBlockTableRecord
  2
2227MC-14-03
 70
    0
280
    1
281
    0
  0
BLOCK_RECORD
  5
75
330
1
100
AcDbSymbolTableRecord
100
AcDbBlockTableRecord
  2
C_0.01uF
 70
    0
280
    1
281
    0
  0
BLOCK_RECORD
  5
78
330
1
100
AcDbSymbolTableRecord
100
AcDbBlockTableRecord
  2
R300
 70
    0
280
    1
281
    0
  0
BLOCK_RECORD
  5
7B
330
1
100
AcDbSymbolTableRecord
100
AcDbBlockTableRecord
  2
R10k
 70
    0
280
    1
281
    0
  0
BLOCK_RECORD
  5
7E
330
1
100
AcDbSymbolTableRecord
100
AcDbBlockTableRecord
  2
R0
 70
    0
280
    1
281
    0
  0
ENDTAB
  0
ENDSEC
  0
SECTION
  2
BLOCKS
  0
BLOCK
  5
20
330
1F
100
AcDbEntity
  8
0
100
AcDbBlockBegin
  2
*Model_Space
 70
    0
 10
0
 20
0
 30
0
  3
*Model_Space
  1

  0
ENDBLK
  5
21
330
1F
100
AcDbEntity
  8
0
100
AcDbBlockEnd
  0
BLOCK
  5
1C
330
1B
100
AcDbEntity
  8
0
100
AcDbBlockBegin
  2
*Paper_Space
 70
    0
 10
0
 20
0
 30
0
  3
*Paper_Space
  1

  0
ENDBLK
  5
1D
330
1F
100
AcDbEntity
  8
0
100
AcDbBlockEnd
  0
BLOCK
  5
61
330
60
100
AcDbEntity
  8
0
100
AcDbBlockBegin
  2
2227MC-08-03
 70
    0
 10
0
 20
0
  3
2227MC-08-03
  1

  0
LINE
  5
81
100
AcDbEntity
  8
socket_header
  6
ByLayer
 62
  256
370
   -1
100
AcDbLine
 10
-1.270000000000131
 20
-8.890000110779171
 11
-1.270000000000131
 21
1.269999889220831
  0
LINE
  5
82
100
AcDbEntity
  8
socket_header
  6
ByLayer
 62
  256
370
   -1
100
AcDbLine
 10
-1.270000000000131
 20
1.269999889220831
 11
8.890000394687402
 21
1.269999889220831
  0
LINE
  5
83
100
AcDbEntity
  8
socket_header
  6
ByLayer
 62
  256
370
   -1
100
AcDbLine
 10
8.890000394687402
 20
1.269999889220831
 11
8.88999999999989
 21
-8.890000110779171
  0
LINE
  5
84
100
AcDbEntity
  8
socket_header
  6
ByLayer
 62
  256
370
   -1
100
AcDbLine
 10
8.88999999999989
 20
-8.890000110779171
 11
-1.270000000000131
 21
-8.890000110779171
  0
CIRCLE
  5
85
100
AcDbEntity
  8
socket_header
  6
ByLayer
 62
  256
370
   -1
100
AcDbCircle
 10
2.539999999999878
 20
1.06581410364015e-14
 40
0.6
  0
CIRCLE
  5
86
100
AcDbEntity
  8
socket_header
  6
ByLayer
 62
  256
370
   -1
100
AcDbCircle
 10
2.539999999999893
 20
-7.620000000000061
 40
0.6
  0
CIRCLE
  5
87
100
AcDbEntity
  8
socket_header
  6
ByLayer
 62
  256
370
   -1
100
AcDbCircle
 10
0
 20
0
 40
0.6
  0
CIRCLE
  5
88
100
AcDbEntity
  8
socket_header
  6
ByLayer
 62
  256
370
   -1
100
AcDbCircle
 10
7.105427357601002e-15
 20
-7.620000000000072
 40
0.6
  0
CIRCLE
  5
89
100
AcDbEntity
  8
socket_header
  6
ByLayer
 62
  256
370
   -1
100
AcDbCircle
 10
5.079999999999757
 20
2.842170943040401e-14
 40
0.6
  0
CIRCLE
  5
8A
100
AcDbEntity
  8
socket_header
  6
ByLayer
 62
  256
370
   -1
100
AcDbCircle
 10
5.079999999999771
 20
-7.620000000000051
 40
0.6
  0
CIRCLE
  5
8B
100
AcDbEntity
  8
socket_header
  6
ByLayer
 62
  256
370
   -1
100
AcDbCircle
 10
7.619999999999639
 20
3.907985046680551e-14
 40
0.6
  0
CIRCLE
  5
8C
100
AcDbEntity
  8
socket_header
  6
ByLayer
 62
  256
370
   -1
100
AcDbCircle
 10
7.61999999999966
 20
-7.62000000000004
 40
0.6
  0
MTEXT
  5
8D
100
AcDbEntity
  8
socket_header
  6
ByLayer
 62
  256
370
   -1
100
AcDbMText
 10
3.950796119092651
 20
-1.713679173150673
 30
0
 40
1
 41
9.222222222222346
 71
    5
 72
    1
  1
2227MC-08-03
  7
STANDARD
210
0
220
0
230
1
 50
0
 73
    2
 44
1
  0
ENDBLK
  5
62
330
60
100
AcDbEntity
  8
0
100
AcDbBlockEnd
  0
BLOCK
  5
64
330
63
100
AcDbEntity
  8
0
100
AcDbBlockBegin
  2
PIC16F15325
 70
    0
 10
0
 20
0
  3
PIC16F15325
  1

  0
ENDBLK
  5
65
330
63
100
AcDbEntity
  8
0
100
AcDbBlockEnd
  0
BLOCK
  5
67
330
66
100
AcDbEntity
  8
0
100
AcDbBlockBegin
  2
2227MC-28-03
 70
    0
 10
0
 20
0
  3
2227MC-28-03
  1

  0
ENDBLK
  5
68
330
66
100
AcDbEntity
  8
0
100
AcDbBlockEnd
  0
BLOCK
  5
6A
330
69
100
AcDbEntity
  8
0
100
AcDbBlockBegin
  2
HUSG-16.000-20
 70
    0
 10
0
 20
0
  3
HUSG-16.000-20
  1

  0
ENDBLK
  5
6B
330
69
100
AcDbEntity
  8
0
100
AcDbBlockEnd
  0
BLOCK
  5
6D
330
6C
100
AcDbEntity
  8
0
100
AcDbBlockBegin
  2
ATmega328P
 70
    0
 10
0
 20
0
  3
ATmega328P
  1

  0
ENDBLK
  5
6E
330
6C
100
AcDbEntity
  8
0
100
AcDbBlockEnd
  0
BLOCK
  5
70
330
6F
100
AcDbEntity
  8
0
100
AcDbBlockBegin
  2
DTS-63-N-V-BLK
 70
    0
 10
0
 20
0
  3
DTS-63-N-V-BLK
  1

  0
ENDBLK
  5
71
330
6F
100
AcDbEntity
  8
0
100
AcDbBlockEnd
  0
BLOCK
  5
73
330
72
100
AcDbEntity
  8
0
100
AcDbBlockBegin
  2
2227MC-14-03
 70
    0
 10
0
 20
0
  3
2227MC-14-03
  1

  0
ENDBLK
  5
74
330
72
100
AcDbEntity
  8
0
100
AcDbBlockEnd
  0
BLOCK
  5
76
330
75
100
AcDbEntity
  8
0
100
AcDbBlockBegin
  2
C_0.01uF
 70
    0
 10
0
 20
0
  3
C_0.01uF
  1

  0
LWPOLYLINE
  5
8E
100
AcDbEntity
  8
condenser
  6
ByLayer
 62
  256
370
   -1
100
AcDbPolyline
 90
    4
 70
    1
 43
0
 10
1.499999999999972
 20
5.039999999999822
 10
1.499999999999972
 20
0.03999999999992099
 10
-1.50000000000005
 20
0.03999999999992099
 10
-1.50000000000005
 20
5.039999999999822
  0
MTEXT
  5
8F
100
AcDbEntity
  8
condenser
  6
ByLayer
 62
  256
370
   -1
100
AcDbMText
 10
2.336701583810211
 20
2.491803864245341
 30
0
 40
1
 41
3.666666666666713
 71
    5
 72
    1
  1
0.01uF
  7
STANDARD
210
0
220
0
230
1
 50
270
 73
    2
 44
1
  0
CIRCLE
  5
90
100
AcDbEntity
  8
condenser
  6
ByLayer
 62
  256
370
   -1
100
AcDbCircle
 10
0
 20
0
 40
0.4
  0
CIRCLE
  5
91
100
AcDbEntity
  8
condenser
  6
ByLayer
 62
  256
370
   -1
100
AcDbCircle
 10
-6.927791673660977e-14
 20
5.080000000000041
 40
0.4
  0
ENDBLK
  5
77
330
75
100
AcDbEntity
  8
0
100
AcDbBlockEnd
  0
BLOCK
  5
79
330
78
100
AcDbEntity
  8
0
100
AcDbBlockBegin
  2
R300
 70
    0
 10
0
 20
0
  3
R300
  1

  0
LWPOLYLINE
  5
92
100
AcDbEntity
  8
resister
  6
ByLayer
 62
  256
370
   -1
100
AcDbPolyline
 90
    4
 70
    1
 43
0
 10
-1.150000000000091
 20
0.6599999999995898
 10
-1.15000000000008
 20
6.959999999999511
 10
1.150000000000126
 20
6.959999999999511
 10
1.150000000000119
 20
0.6599999999995898
  0
CIRCLE
  5
93
100
AcDbEntity
  8
resister
  6
ByLayer
 62
  256
370
   -1
100
AcDbCircle
 10
1.953992523340276e-14
 20
7.619999999999639
 40
0.3
  0
LINE
  5
94
100
AcDbEntity
  8
resister
  6
ByLayer
 62
  256
370
   -1
100
AcDbLine
 10
1.953992523340276e-14
 20
0.2999999999998604
 11
1.031014139840636e-06
 21
0.6599999999995898
  0
LINE
  5
95
100
AcDbEntity
  8
resister
  6
ByLayer
 62
  256
370
   -1
100
AcDbLine
 10
3.907985046680551e-14
 20
6.959999999999511
 11
3.907985046680551e-14
 21
7.320000000000348
  0
MTEXT
  5
96
100
AcDbEntity
  8
resister
  6
ByLayer
 62
  256
370
   -1
100
AcDbMText
 10
-0.02409769535478112
 20
3.951579464078229
 30
0
 40
1
 41
2.888888888888951
 71
    5
 72
    1
  1
R300
  7
STANDARD
210
0
220
0
230
1
 50
90
 73
    2
 44
1
  0
CIRCLE
  5
97
100
AcDbEntity
  8
resister
  6
ByLayer
 62
  256
370
   -1
100
AcDbCircle
 10
0
 20
0
 40
0.25
  0
ENDBLK
  5
7A
330
78
100
AcDbEntity
  8
0
100
AcDbBlockEnd
  0
BLOCK
  5
7C
330
7B
100
AcDbEntity
  8
0
100
AcDbBlockBegin
  2
R10k
 70
    0
 10
0
 20
0
  3
R10k
  1

  0
CIRCLE
  5
98
100
AcDbEntity
  8
resister
  6
ByLayer
 62
  256
370
   -1
100
AcDbCircle
 10
0
 20
0
 40
0.3
  0
LINE
  5
99
100
AcDbEntity
  8
resister
  6
ByLayer
 62
  256
370
   -1
100
AcDbLine
 10
-0.659999999999485
 20
1.150000000000098
 11
-0.659999999999485
 21
-1.150000000000059
  0
LINE
  5
9A
100
AcDbEntity
  8
resister
  6
ByLayer
 62
  256
370
   -1
100
AcDbLine
 10
-6.959999999999557
 20
-1.150000000000041
 11
-0.659999999999485
 21
-1.150000000000059
  0
LINE
  5
9B
100
AcDbEntity
  8
resister
  6
ByLayer
 62
  256
370
   -1
100
AcDbLine
 10
-0.659999999999485
 20
1.150000000000098
 11
-6.959999999999557
 21
1.150000000000098
  0
LINE
  5
9C
100
AcDbEntity
  8
resister
  6
ByLayer
 62
  256
370
   -1
100
AcDbLine
 10
-6.959999999999557
 20
1.150000000000098
 11
-6.959999999999557
 21
-1.150000000000041
  0
CIRCLE
  5
9D
100
AcDbEntity
  8
resister
  6
ByLayer
 62
  256
370
   -1
100
AcDbCircle
 10
-7.619999999999408
 20
2.131628207280301e-14
 40
0.25
  0
MTEXT
  5
9E
100
AcDbEntity
  8
resister
  6
ByLayer
 62
  256
370
   -1
100
AcDbMText
 10
-3.991855261194459
 20
0.08749576228997924
 30
0
 40
1
 41
2.666666666666667
 71
    5
 72
    1
  1
R10k
  7
unicode
210
0
220
0
230
1
 50
0
 73
    2
 44
1
  0
LINE
  5
9F
100
AcDbEntity
  8
resister
  6
ByLayer
 62
  256
370
   -1
100
AcDbLine
 10
-0.2499999999985789
 20
2.131628207280301e-14
 11
-0.659999999999485
 21
2.131628207280301e-14
  0
LINE
  5
A0
100
AcDbEntity
  8
resister
  6
ByLayer
 62
  256
370
   -1
100
AcDbLine
 10
-7.369999999999898
 20
1.06581410364015e-14
 11
-6.959999999999557
 21
1.06581410364015e-14
  0
ENDBLK
  5
7D
330
7B
100
AcDbEntity
  8
0
100
AcDbBlockEnd
  0
BLOCK
  5
7F
330
7E
100
AcDbEntity
  8
0
100
AcDbBlockBegin
  2
R0
 70
    0
 10
0
 20
0
  3
R0
  1

  0
LINE
  5
A1
100
AcDbEntity
  8
resister
  6
ByLayer
 62
  256
370
   -1
100
AcDbLine
 10
-0.6599999999999611
 20
1.149999999999959
 11
-0.6599999999999611
 21
-1.14999999999997
  0
LINE
  5
A2
100
AcDbEntity
  8
resister
  6
ByLayer
 62
  256
370
   -1
100
AcDbLine
 10
-0.6599999999999611
 20
-1.14999999999997
 11
-6.959999999999834
 21
-1.14999999999997
  0
LINE
  5
A3
100
AcDbEntity
  8
resister
  6
ByLayer
 62
  256
370
   -1
100
AcDbLine
 10
-6.959999999999834
 20
-1.14999999999997
 11
-6.95999999999982
 21
1.149999999999959
  0
LINE
  5
A4
100
AcDbEntity
  8
resister
  6
ByLayer
 62
  256
370
   -1
100
AcDbLine
 10
-6.95999999999982
 20
1.149999999999959
 11
-0.6599999999999611
 21
1.149999999999959
  0
LINE
  5
A5
100
AcDbEntity
  8
resister
  6
ByLayer
 62
  256
370
   -1
100
AcDbLine
 10
-6.95999999999982
 20
0
 11
-7.61999999999966
 21
0
  0
LINE
  5
A6
100
AcDbEntity
  8
resister
  6
ByLayer
 62
  256
370
   -1
100
AcDbLine
 10
3.694822225952521e-13
 20
0
 11
-0.6599999999999611
 21
0
  0
MTEXT
  5
A7
100
AcDbEntity
  8
resister
  6
ByLayer
 62
  256
370
   -1
100
AcDbMText
 10
-4.132042899777453
 20
0.05377778633712005
 30
0
 40
1
 41
1.333333333333333
 71
    5
 72
    1
  1
R0
  7
STANDARD
210
0
220
0
230
1
 50
270
 73
    2
 44
1
  0
ENDBLK
  5
80
330
7E
100
AcDbEntity
  8
0
100
AcDbBlockEnd
  0
ENDSEC
  0
SECTION
  2
ENTITIES
  0
CIRCLE
  5
A8
100
AcDbEntity
  8
universal_board
  6
ByLayer
 62
  256
370
   -1
100
AcDbCircle
 10
67.93999999999566
 20
43.62000000000032
 40
0.5
  0
CIRCLE
  5
A9
100
AcDbEntity
  8
universal_board
  6
ByLayer
 62
  256
370
   -1
100
AcDbCircle
 10
70.47999999999556
 20
43.62000000000033
 40
0.5
  0
CIRCLE
  5
AA
100
AcDbEntity
  8
universal_board
  6
ByLayer
 62
  256
370
   -1
100
AcDbCircle
 10
73.01999999999546
 20
43.62000000000035
 40
0.5
  0
CIRCLE
  5
AB
100
AcDbEntity
  8
universal_board
  6
ByLayer
 62
  256
370
   -1
100
AcDbCircle
 10
75.55999999999534
 20
43.62000000000036
 40
0.5
  0
CIRCLE
  5
AC
100
AcDbEntity
  8
universal_board
  6
ByLayer
 62
  256
370
   -1
100
AcDbCircle
 10
78.09999999999525
 20
43.62000000000036
 40
0.5
  0
CIRCLE
  5
AD
100
AcDbEntity
  8
universal_board
  6
ByLayer
 62
  256
370
   -1
100
AcDbCircle
 10
80.63999999999513
 20
43.62000000000038
 40
0.5
  0
CIRCLE
  5
AE
100
AcDbEntity
  8
universal_board
  6
ByLayer
 62
  256
370
   -1
100
AcDbCircle
 10
83.17999999999503
 20
43.62000000000038
 40
0.5
  0
CIRCLE
  5
AF
100
AcDbEntity
  8
universal_board
  6
ByLayer
 62
  256
370
   -1
100
AcDbCircle
 10
65.39999999999579
 20
43.62000000000031
 40
0.5
  0
CIRCLE
  5
B0
100
AcDbEntity
  8
universal_board
  6
ByLayer
 62
  256
370
   -1
100
AcDbCircle
 10
62.85999999999591
 20
43.62000000000033
 40
0.5
  0
CIRCLE
  5
B1
100
AcDbEntity
  8
universal_board
  6
ByLayer
 62
  256
370
   -1
100
AcDbCircle
 10
60.31999999999605
 20
43.62000000000031
 40
0.5
  0
CIRCLE
  5
B2
100
AcDbEntity
  8
universal_board
  6
ByLayer
 62
  256
370
   -1
100
AcDbCircle
 10
57.77999999999616
 20
43.6200000000003
 40
0.5
  0
CIRCLE
  5
B3
100
AcDbEntity
  8
universal_board
  6
ByLayer
 62
  256
370
   -1
100
AcDbCircle
 10
55.23999999999628
 20
43.6200000000003
 40
0.5
  0
CIRCLE
  5
B4
100
AcDbEntity
  8
universal_board
  6
ByLayer
 62
  256
370
   -1
100
AcDbCircle
 10
52.69999999999639
 20
43.62000000000028
 40
0.5
  0
CIRCLE
  5
B5
100
AcDbEntity
  8
universal_board
  6
ByLayer
 62
  256
370
   -1
100
AcDbCircle
 10
50.15999999999651
 20
43.62000000000031
 40
0.5
  0
CIRCLE
  5
B6
100
AcDbEntity
  8
universal_board
  6
ByLayer
 62
  256
370
   -1
100
AcDbCircle
 10
67.93999999999568
 20
46.16000000000034
 40
0.5
  0
CIRCLE
  5
B7
100
AcDbEntity
  8
universal_board
  6
ByLayer
 62
  256
370
   -1
100
AcDbCircle
 10
70.47999999999557
 20
46.16000000000035
 40
0.5
  0
CIRCLE
  5
B8
100
AcDbEntity
  8
universal_board
  6
ByLayer
 62
  256
370
   -1
100
AcDbCircle
 10
73.01999999999546
 20
46.16000000000035
 40
0.5
  0
CIRCLE
  5
B9
100
AcDbEntity
  8
universal_board
  6
ByLayer
 62
  256
370
   -1
100
AcDbCircle
 10
75.55999999999536
 20
46.16000000000038
 40
0.5
  0
CIRCLE
  5
BA
100
AcDbEntity
  8
universal_board
  6
ByLayer
 62
  256
370
   -1
100
AcDbCircle
 10
78.09999999999525
 20
46.16000000000038
 40
0.5
  0
CIRCLE
  5
BB
100
AcDbEntity
  8
universal_board
  6
ByLayer
 62
  256
370
   -1
100
AcDbCircle
 10
80.63999999999514
 20
46.16000000000038
 40
0.5
  0
CIRCLE
  5
BC
100
AcDbEntity
  8
universal_board
  6
ByLayer
 62
  256
370
   -1
100
AcDbCircle
 10
83.17999999999503
 20
46.16000000000041
 40
0.5
  0
CIRCLE
  5
BD
100
AcDbEntity
  8
universal_board
  6
ByLayer
 62
  256
370
   -1
100
AcDbCircle
 10
65.3999999999958
 20
46.16000000000033
 40
0.5
  0
CIRCLE
  5
BE
100
AcDbEntity
  8
universal_board
  6
ByLayer
 62
  256
370
   -1
100
AcDbCircle
 10
62.85999999999591
 20
46.16000000000033
 40
0.5
  0
CIRCLE
  5
BF
100
AcDbEntity
  8
universal_board
  6
ByLayer
 62
  256
370
   -1
100
AcDbCircle
 10
60.31999999999605
 20
46.16000000000033
 40
0.5
  0
CIRCLE
  5
C0
100
AcDbEntity
  8
universal_board
  6
ByLayer
 62
  256
370
   -1
100
AcDbCircle
 10
57.77999999999616
 20
46.16000000000032
 40
0.5
  0
CIRCLE
  5
C1
100
AcDbEntity
  8
universal_board
  6
ByLayer
 62
  256
370
   -1
100
AcDbCircle
 10
55.23999999999629
 20
46.16000000000032
 40
0.5
  0
CIRCLE
  5
C2
100
AcDbEntity
  8
universal_board
  6
ByLayer
 62
  256
370
   -1
100
AcDbCircle
 10
52.69999999999641
 20
46.1600000000003
 40
0.5
  0
CIRCLE
  5
C3
100
AcDbEntity
  8
universal_board
  6
ByLayer
 62
  256
370
   -1
100
AcDbCircle
 10
50.15999999999653
 20
46.16000000000033
 40
0.5
  0
CIRCLE
  5
C4
100
AcDbEntity
  8
universal_board
  6
ByLayer
 62
  256
370
   -1
100
AcDbCircle
 10
67.93999999999568
 20
48.70000000000034
 40
0.5
  0
CIRCLE
  5
C5
100
AcDbEntity
  8
universal_board
  6
ByLayer
 62
  256
370
   -1
100
AcDbCircle
 10
70.47999999999557
 20
48.70000000000037
 40
0.5
  0
CIRCLE
  5
C6
100
AcDbEntity
  8
universal_board
  6
ByLayer
 62
  256
370
   -1
100
AcDbCircle
 10
73.01999999999546
 20
48.70000000000039
 40
0.5
  0
CIRCLE
  5
C7
100
AcDbEntity
  8
universal_board
  6
ByLayer
 62
  256
370
   -1
100
AcDbCircle
 10
75.55999999999534
 20
48.70000000000039
 40
0.5
  0
CIRCLE
  5
C8
100
AcDbEntity
  8
universal_board
  6
ByLayer
 62
  256
370
   -1
100
AcDbCircle
 10
78.09999999999525
 20
48.7000000000004
 40
0.5
  0
CIRCLE
  5
C9
100
AcDbEntity
  8
universal_board
  6
ByLayer
 62
  256
370
   -1
100
AcDbCircle
 10
80.63999999999513
 20
48.7000000000004
 40
0.5
  0
CIRCLE
  5
CA
100
AcDbEntity
  8
universal_board
  6
ByLayer
 62
  256
370
   -1
100
AcDbCircle
 10
83.17999999999503
 20
48.70000000000043
 40
0.5
  0
CIRCLE
  5
CB
100
AcDbEntity
  8
universal_board
  6
ByLayer
 62
  256
370
   -1
100
AcDbCircle
 10
65.3999999999958
 20
48.70000000000037
 40
0.5
  0
CIRCLE
  5
CC
100
AcDbEntity
  8
universal_board
  6
ByLayer
 62
  256
370
   -1
100
AcDbCircle
 10
62.85999999999591
 20
48.70000000000036
 40
0.5
  0
CIRCLE
  5
CD
100
AcDbEntity
  8
universal_board
  6
ByLayer
 62
  256
370
   -1
100
AcDbCircle
 10
60.31999999999604
 20
48.70000000000033
 40
0.5
  0
CIRCLE
  5
CE
100
AcDbEntity
  8
universal_board
  6
ByLayer
 62
  256
370
   -1
100
AcDbCircle
 10
57.77999999999616
 20
48.70000000000034
 40
0.5
  0
CIRCLE
  5
CF
100
AcDbEntity
  8
universal_board
  6
ByLayer
 62
  256
370
   -1
100
AcDbCircle
 10
55.23999999999626
 20
48.70000000000034
 40
0.5
  0
CIRCLE
  5
D0
100
AcDbEntity
  8
universal_board
  6
ByLayer
 62
  256
370
   -1
100
AcDbCircle
 10
52.69999999999641
 20
48.70000000000034
 40
0.5
  0
CIRCLE
  5
D1
100
AcDbEntity
  8
universal_board
  6
ByLayer
 62
  256
370
   -1
100
AcDbCircle
 10
50.15999999999653
 20
48.70000000000034
 40
0.5
  0
CIRCLE
  5
D2
100
AcDbEntity
  8
universal_board
  6
ByLayer
 62
  256
370
   -1
100
AcDbCircle
 10
67.93999999999566
 20
51.24000000000038
 40
0.5
  0
CIRCLE
  5
D3
100
AcDbEntity
  8
universal_board
  6
ByLayer
 62
  256
370
   -1
100
AcDbCircle
 10
70.47999999999556
 20
51.24000000000039
 40
0.5
  0
CIRCLE
  5
D4
100
AcDbEntity
  8
universal_board
  6
ByLayer
 62
  256
370
   -1
100
AcDbCircle
 10
73.01999999999545
 20
51.24000000000039
 40
0.5
  0
CIRCLE
  5
D5
100
AcDbEntity
  8
universal_board
  6
ByLayer
 62
  256
370
   -1
100
AcDbCircle
 10
75.55999999999534
 20
51.24000000000041
 40
0.5
  0
CIRCLE
  5
D6
100
AcDbEntity
  8
universal_board
  6
ByLayer
 62
  256
370
   -1
100
AcDbCircle
 10
78.09999999999523
 20
51.24000000000042
 40
0.5
  0
CIRCLE
  5
D7
100
AcDbEntity
  8
universal_board
  6
ByLayer
 62
  256
370
   -1
100
AcDbCircle
 10
80.63999999999513
 20
51.24000000000042
 40
0.5
  0
CIRCLE
  5
D8
100
AcDbEntity
  8
universal_board
  6
ByLayer
 62
  256
370
   -1
100
AcDbCircle
 10
83.17999999999502
 20
51.24000000000045
 40
0.5
  0
CIRCLE
  5
D9
100
AcDbEntity
  8
universal_board
  6
ByLayer
 62
  256
370
   -1
100
AcDbCircle
 10
65.39999999999579
 20
51.24000000000039
 40
0.5
  0
CIRCLE
  5
DA
100
AcDbEntity
  8
universal_board
  6
ByLayer
 62
  256
370
   -1
100
AcDbCircle
 10
62.85999999999591
 20
51.24000000000038
 40
0.5
  0
CIRCLE
  5
DB
100
AcDbEntity
  8
universal_board
  6
ByLayer
 62
  256
370
   -1
100
AcDbCircle
 10
60.31999999999603
 20
51.24000000000037
 40
0.5
  0
CIRCLE
  5
DC
100
AcDbEntity
  8
universal_board
  6
ByLayer
 62
  256
370
   -1
100
AcDbCircle
 10
57.77999999999615
 20
51.24000000000037
 40
0.5
  0
CIRCLE
  5
DD
100
AcDbEntity
  8
universal_board
  6
ByLayer
 62
  256
370
   -1
100
AcDbCircle
 10
55.23999999999626
 20
51.24000000000036
 40
0.5
  0
CIRCLE
  5
DE
100
AcDbEntity
  8
universal_board
  6
ByLayer
 62
  256
370
   -1
100
AcDbCircle
 10
52.69999999999639
 20
51.24000000000037
 40
0.5
  0
CIRCLE
  5
DF
100
AcDbEntity
  8
universal_board
  6
ByLayer
 62
  256
370
   -1
100
AcDbCircle
 10
50.15999999999651
 20
51.24000000000034
 40
0.5
  0
CIRCLE
  5
E0
100
AcDbEntity
  8
universal_board
  6
ByLayer
 62
  256
370
   -1
100
AcDbCircle
 10
67.93999999999565
 20
53.7800000000004
 40
0.5
  0
CIRCLE
  5
E1
100
AcDbEntity
  8
universal_board
  6
ByLayer
 62
  256
370
   -1
100
AcDbCircle
 10
70.47999999999556
 20
53.78000000000041
 40
0.5
  0
CIRCLE
  5
E2
100
AcDbEntity
  8
universal_board
  6
ByLayer
 62
  256
370
   -1
100
AcDbCircle
 10
73.01999999999543
 20
53.78000000000041
 40
0.5
  0
CIRCLE
  5
E3
100
AcDbEntity
  8
universal_board
  6
ByLayer
 62
  256
370
   -1
100
AcDbCircle
 10
75.55999999999534
 20
53.78000000000043
 40
0.5
  0
CIRCLE
  5
E4
100
AcDbEntity
  8
universal_board
  6
ByLayer
 62
  256
370
   -1
100
AcDbCircle
 10
78.09999999999522
 20
53.78000000000044
 40
0.5
  0
CIRCLE
  5
E5
100
AcDbEntity
  8
universal_board
  6
ByLayer
 62
  256
370
   -1
100
AcDbCircle
 10
80.63999999999513
 20
53.78000000000044
 40
0.5
  0
CIRCLE
  5
E6
100
AcDbEntity
  8
universal_board
  6
ByLayer
 62
  256
370
   -1
100
AcDbCircle
 10
83.17999999999502
 20
53.78000000000047
 40
0.5
  0
CIRCLE
  5
E7
100
AcDbEntity
  8
universal_board
  6
ByLayer
 62
  256
370
   -1
100
AcDbCircle
 10
65.39999999999577
 20
53.78000000000041
 40
0.5
  0
CIRCLE
  5
E8
100
AcDbEntity
  8
universal_board
  6
ByLayer
 62
  256
370
   -1
100
AcDbCircle
 10
62.8599999999959
 20
53.7800000000004
 40
0.5
  0
CIRCLE
  5
E9
100
AcDbEntity
  8
universal_board
  6
ByLayer
 62
  256
370
   -1
100
AcDbCircle
 10
60.31999999999601
 20
53.78000000000039
 40
0.5
  0
CIRCLE
  5
EA
100
AcDbEntity
  8
universal_board
  6
ByLayer
 62
  256
370
   -1
100
AcDbCircle
 10
57.77999999999615
 20
53.78000000000039
 40
0.5
  0
CIRCLE
  5
EB
100
AcDbEntity
  8
universal_board
  6
ByLayer
 62
  256
370
   -1
100
AcDbCircle
 10
55.23999999999626
 20
53.78000000000038
 40
0.5
  0
CIRCLE
  5
EC
100
AcDbEntity
  8
universal_board
  6
ByLayer
 62
  256
370
   -1
100
AcDbCircle
 10
52.69999999999639
 20
53.78000000000039
 40
0.5
  0
CIRCLE
  5
ED
100
AcDbEntity
  8
universal_board
  6
ByLayer
 62
  256
370
   -1
100
AcDbCircle
 10
50.15999999999651
 20
53.78000000000036
 40
0.5
  0
CIRCLE
  5
EE
100
AcDbEntity
  8
universal_board
  6
ByLayer
 62
  256
370
   -1
100
AcDbCircle
 10
67.93999999999566
 20
56.32000000000041
 40
0.5
  0
CIRCLE
  5
EF
100
AcDbEntity
  8
universal_board
  6
ByLayer
 62
  256
370
   -1
100
AcDbCircle
 10
70.47999999999556
 20
56.32000000000043
 40
0.5
  0
CIRCLE
  5
F0
100
AcDbEntity
  8
universal_board
  6
ByLayer
 62
  256
370
   -1
100
AcDbCircle
 10
73.01999999999545
 20
56.32000000000044
 40
0.5
  0
CIRCLE
  5
F1
100
AcDbEntity
  8
universal_board
  6
ByLayer
 62
  256
370
   -1
100
AcDbCircle
 10
75.55999999999534
 20
56.32000000000044
 40
0.5
  0
CIRCLE
  5
F2
100
AcDbEntity
  8
universal_board
  6
ByLayer
 62
  256
370
   -1
100
AcDbCircle
 10
78.09999999999523
 20
56.32000000000046
 40
0.5
  0
CIRCLE
  5
F3
100
AcDbEntity
  8
universal_board
  6
ByLayer
 62
  256
370
   -1
100
AcDbCircle
 10
80.63999999999513
 20
56.32000000000047
 40
0.5
  0
CIRCLE
  5
F4
100
AcDbEntity
  8
universal_board
  6
ByLayer
 62
  256
370
   -1
100
AcDbCircle
 10
83.17999999999502
 20
56.32000000000047
 40
0.5
  0
CIRCLE
  5
F5
100
AcDbEntity
  8
universal_board
  6
ByLayer
 62
  256
370
   -1
100
AcDbCircle
 10
65.39999999999579
 20
56.32000000000043
 40
0.5
  0
CIRCLE
  5
F6
100
AcDbEntity
  8
universal_board
  6
ByLayer
 62
  256
370
   -1
100
AcDbCircle
 10
62.85999999999591
 20
56.32000000000042
 40
0.5
  0
CIRCLE
  5
F7
100
AcDbEntity
  8
universal_board
  6
ByLayer
 62
  256
370
   -1
100
AcDbCircle
 10
60.31999999999603
 20
56.32000000000042
 40
0.5
  0
CIRCLE
  5
F8
100
AcDbEntity
  8
universal_board
  6
ByLayer
 62
  256
370
   -1
100
AcDbCircle
 10
57.77999999999615
 20
56.32000000000041
 40
0.5
  0
CIRCLE
  5
F9
100
AcDbEntity
  8
universal_board
  6
ByLayer
 62
  256
370
   -1
100
AcDbCircle
 10
55.23999999999628
 20
56.3200000000004
 40
0.5
  0
CIRCLE
  5
FA
100
AcDbEntity
  8
universal_board
  6
ByLayer
 62
  256
370
   -1
100
AcDbCircle
 10
52.69999999999639
 20
56.32000000000041
 40
0.5
  0
CIRCLE
  5
FB
100
AcDbEntity
  8
universal_board
  6
ByLayer
 62
  256
370
   -1
100
AcDbCircle
 10
50.15999999999651
 20
56.32000000000039
 40
0.5
  0
CIRCLE
  5
FC
100
AcDbEntity
  8
universal_board
  6
ByLayer
 62
  256
370
   -1
100
AcDbCircle
 10
67.93999999999565
 20
58.86000000000043
 40
0.5
  0
CIRCLE
  5
FD
100
AcDbEntity
  8
universal_board
  6
ByLayer
 62
  256
370
   -1
100
AcDbCircle
 10
70.47999999999556
 20
58.86000000000043
 40
0.5
  0
CIRCLE
  5
FE
100
AcDbEntity
  8
universal_board
  6
ByLayer
 62
  256
370
   -1
100
AcDbCircle
 10
73.01999999999543
 20
58.86000000000046
 40
0.5
  0
CIRCLE
  5
FF
100
AcDbEntity
  8
universal_board
  6
ByLayer
 62
  256
370
   -1
100
AcDbCircle
 10
75.55999999999534
 20
58.86000000000046
 40
0.5
  0
CIRCLE
  5
100
100
AcDbEntity
  8
universal_board
  6
ByLayer
 62
  256
370
   -1
100
AcDbCircle
 10
78.09999999999522
 20
58.86000000000048
 40
0.5
  0
CIRCLE
  5
101
100
AcDbEntity
  8
universal_board
  6
ByLayer
 62
  256
370
   -1
100
AcDbCircle
 10
80.63999999999513
 20
58.86000000000049
 40
0.5
  0
CIRCLE
  5
102
100
AcDbEntity
  8
universal_board
  6
ByLayer
 62
  256
370
   -1
100
AcDbCircle
 10
83.179999999995
 20
58.86000000000049
 40
0.5
  0
CIRCLE
  5
103
100
AcDbEntity
  8
universal_board
  6
ByLayer
 62
  256
370
   -1
100
AcDbCircle
 10
65.39999999999579
 20
58.86000000000045
 40
0.5
  0
CIRCLE
  5
104
100
AcDbEntity
  8
universal_board
  6
ByLayer
 62
  256
370
   -1
100
AcDbCircle
 10
62.85999999999591
 20
58.86000000000044
 40
0.5
  0
CIRCLE
  5
105
100
AcDbEntity
  8
universal_board
  6
ByLayer
 62
  256
370
   -1
100
AcDbCircle
 10
60.31999999999601
 20
58.86000000000044
 40
0.5
  0
CIRCLE
  5
106
100
AcDbEntity
  8
universal_board
  6
ByLayer
 62
  256
370
   -1
100
AcDbCircle
 10
57.77999999999615
 20
58.86000000000043
 40
0.5
  0
CIRCLE
  5
107
100
AcDbEntity
  8
universal_board
  6
ByLayer
 62
  256
370
   -1
100
AcDbCircle
 10
55.23999999999626
 20
58.86000000000042
 40
0.5
  0
CIRCLE
  5
108
100
AcDbEntity
  8
universal_board
  6
ByLayer
 62
  256
370
   -1
100
AcDbCircle
 10
52.69999999999638
 20
58.86000000000043
 40
0.5
  0
CIRCLE
  5
109
100
AcDbEntity
  8
universal_board
  6
ByLayer
 62
  256
370
   -1
100
AcDbCircle
 10
50.15999999999651
 20
58.86000000000041
 40
0.5
  0
CIRCLE
  5
10A
100
AcDbEntity
  8
universal_board
  6
ByLayer
 62
  256
370
   -1
100
AcDbCircle
 10
67.93999999999565
 20
61.40000000000045
 40
0.5
  0
CIRCLE
  5
10B
100
AcDbEntity
  8
universal_board
  6
ByLayer
 62
  256
370
   -1
100
AcDbCircle
 10
70.47999999999556
 20
61.40000000000047
 40
0.5
  0
CIRCLE
  5
10C
100
AcDbEntity
  8
universal_board
  6
ByLayer
 62
  256
370
   -1
100
AcDbCircle
 10
73.01999999999543
 20
61.40000000000048
 40
0.5
  0
CIRCLE
  5
10D
100
AcDbEntity
  8
universal_board
  6
ByLayer
 62
  256
370
   -1
100
AcDbCircle
 10
75.55999999999533
 20
61.40000000000048
 40
0.5
  0
CIRCLE
  5
10E
100
AcDbEntity
  8
universal_board
  6
ByLayer
 62
  256
370
   -1
100
AcDbCircle
 10
78.09999999999522
 20
61.4000000000005
 40
0.5
  0
CIRCLE
  5
10F
100
AcDbEntity
  8
universal_board
  6
ByLayer
 62
  256
370
   -1
100
AcDbCircle
 10
80.6399999999951
 20
61.40000000000051
 40
0.5
  0
CIRCLE
  5
110
100
AcDbEntity
  8
universal_board
  6
ByLayer
 62
  256
370
   -1
100
AcDbCircle
 10
83.179999999995
 20
61.40000000000051
 40
0.5
  0
CIRCLE
  5
111
100
AcDbEntity
  8
universal_board
  6
ByLayer
 62
  256
370
   -1
100
AcDbCircle
 10
65.39999999999577
 20
61.40000000000045
 40
0.5
  0
CIRCLE
  5
112
100
AcDbEntity
  8
universal_board
  6
ByLayer
 62
  256
370
   -1
100
AcDbCircle
 10
62.8599999999959
 20
61.40000000000045
 40
0.5
  0
CIRCLE
  5
113
100
AcDbEntity
  8
universal_board
  6
ByLayer
 62
  256
370
   -1
100
AcDbCircle
 10
60.31999999999601
 20
61.40000000000046
 40
0.5
  0
CIRCLE
  5
114
100
AcDbEntity
  8
universal_board
  6
ByLayer
 62
  256
370
   -1
100
AcDbCircle
 10
57.77999999999614
 20
61.40000000000045
 40
0.5
  0
CIRCLE
  5
115
100
AcDbEntity
  8
universal_board
  6
ByLayer
 62
  256
370
   -1
100
AcDbCircle
 10
55.23999999999626
 20
61.40000000000044
 40
0.5
  0
CIRCLE
  5
116
100
AcDbEntity
  8
universal_board
  6
ByLayer
 62
  256
370
   -1
100
AcDbCircle
 10
52.69999999999638
 20
61.40000000000045
 40
0.5
  0
CIRCLE
  5
117
100
AcDbEntity
  8
universal_board
  6
ByLayer
 62
  256
370
   -1
100
AcDbCircle
 10
50.15999999999649
 20
61.40000000000043
 40
0.5
  0
CIRCLE
  5
118
100
AcDbEntity
  8
universal_board
  6
ByLayer
 62
  256
370
   -1
100
AcDbCircle
 10
67.93999999999566
 20
63.94000000000049
 40
0.5
  0
CIRCLE
  5
119
100
AcDbEntity
  8
universal_board
  6
ByLayer
 62
  256
370
   -1
100
AcDbCircle
 10
70.47999999999556
 20
63.94000000000049
 40
0.5
  0
CIRCLE
  5
11A
100
AcDbEntity
  8
universal_board
  6
ByLayer
 62
  256
370
   -1
100
AcDbCircle
 10
73.01999999999543
 20
63.94000000000052
 40
0.5
  0
CIRCLE
  5
11B
100
AcDbEntity
  8
universal_board
  6
ByLayer
 62
  256
370
   -1
100
AcDbCircle
 10
75.55999999999534
 20
63.94000000000052
 40
0.5
  0
CIRCLE
  5
11C
100
AcDbEntity
  8
universal_board
  6
ByLayer
 62
  256
370
   -1
100
AcDbCircle
 10
78.09999999999522
 20
63.94000000000052
 40
0.5
  0
CIRCLE
  5
11D
100
AcDbEntity
  8
universal_board
  6
ByLayer
 62
  256
370
   -1
100
AcDbCircle
 10
80.63999999999513
 20
63.94000000000055
 40
0.5
  0
CIRCLE
  5
11E
100
AcDbEntity
  8
universal_board
  6
ByLayer
 62
  256
370
   -1
100
AcDbCircle
 10
83.179999999995
 20
63.94000000000055
 40
0.5
  0
CIRCLE
  5
11F
100
AcDbEntity
  8
universal_board
  6
ByLayer
 62
  256
370
   -1
100
AcDbCircle
 10
65.39999999999577
 20
63.94000000000047
 40
0.5
  0
CIRCLE
  5
120
100
AcDbEntity
  8
universal_board
  6
ByLayer
 62
  256
370
   -1
100
AcDbCircle
 10
62.8599999999959
 20
63.94000000000048
 40
0.5
  0
CIRCLE
  5
121
100
AcDbEntity
  8
universal_board
  6
ByLayer
 62
  256
370
   -1
100
AcDbCircle
 10
60.31999999999601
 20
63.94000000000048
 40
0.5
  0
CIRCLE
  5
122
100
AcDbEntity
  8
universal_board
  6
ByLayer
 62
  256
370
   -1
100
AcDbCircle
 10
57.77999999999614
 20
63.94000000000047
 40
0.5
  0
CIRCLE
  5
123
100
AcDbEntity
  8
universal_board
  6
ByLayer
 62
  256
370
   -1
100
AcDbCircle
 10
55.23999999999626
 20
63.94000000000046
 40
0.5
  0
CIRCLE
  5
124
100
AcDbEntity
  8
universal_board
  6
ByLayer
 62
  256
370
   -1
100
AcDbCircle
 10
52.69999999999639
 20
63.94000000000045
 40
0.5
  0
CIRCLE
  5
125
100
AcDbEntity
  8
universal_board
  6
ByLayer
 62
  256
370
   -1
100
AcDbCircle
 10
50.15999999999651
 20
63.94000000000045
 40
0.5
  0
CIRCLE
  5
126
100
AcDbEntity
  8
universal_board
  6
ByLayer
 62
  256
370
   -1
100
AcDbCircle
 10
67.93999999999565
 20
66.48000000000052
 40
0.5
  0
CIRCLE
  5
127
100
AcDbEntity
  8
universal_board
  6
ByLayer
 62
  256
370
   -1
100
AcDbCircle
 10
70.47999999999556
 20
66.48000000000052
 40
0.5
  0
CIRCLE
  5
128
100
AcDbEntity
  8
universal_board
  6
ByLayer
 62
  256
370
   -1
100
AcDbCircle
 10
73.01999999999543
 20
66.48000000000052
 40
0.5
  0
CIRCLE
  5
129
100
AcDbEntity
  8
universal_board
  6
ByLayer
 62
  256
370
   -1
100
AcDbCircle
 10
75.55999999999533
 20
66.48000000000052
 40
0.5
  0
CIRCLE
  5
12A
100
AcDbEntity
  8
universal_board
  6
ByLayer
 62
  256
370
   -1
100
AcDbCircle
 10
78.09999999999522
 20
66.48000000000054
 40
0.5
  0
CIRCLE
  5
12B
100
AcDbEntity
  8
universal_board
  6
ByLayer
 62
  256
370
   -1
100
AcDbCircle
 10
80.63999999999511
 20
66.48000000000054
 40
0.5
  0
CIRCLE
  5
12C
100
AcDbEntity
  8
universal_board
  6
ByLayer
 62
  256
370
   -1
100
AcDbCircle
 10
83.179999999995
 20
66.48000000000057
 40
0.5
  0
CIRCLE
  5
12D
100
AcDbEntity
  8
universal_board
  6
ByLayer
 62
  256
370
   -1
100
AcDbCircle
 10
65.39999999999577
 20
66.48000000000049
 40
0.5
  0
CIRCLE
  5
12E
100
AcDbEntity
  8
universal_board
  6
ByLayer
 62
  256
370
   -1
100
AcDbCircle
 10
62.8599999999959
 20
66.4800000000005
 40
0.5
  0
CIRCLE
  5
12F
100
AcDbEntity
  8
universal_board
  6
ByLayer
 62
  256
370
   -1
100
AcDbCircle
 10
60.31999999999601
 20
66.48000000000049
 40
0.5
  0
CIRCLE
  5
130
100
AcDbEntity
  8
universal_board
  6
ByLayer
 62
  256
370
   -1
100
AcDbCircle
 10
57.77999999999614
 20
66.48000000000049
 40
0.5
  0
CIRCLE
  5
131
100
AcDbEntity
  8
universal_board
  6
ByLayer
 62
  256
370
   -1
100
AcDbCircle
 10
55.23999999999626
 20
66.48000000000049
 40
0.5
  0
CIRCLE
  5
132
100
AcDbEntity
  8
universal_board
  6
ByLayer
 62
  256
370
   -1
100
AcDbCircle
 10
52.69999999999638
 20
66.48000000000047
 40
0.5
  0
CIRCLE
  5
133
100
AcDbEntity
  8
universal_board
  6
ByLayer
 62
  256
370
   -1
100
AcDbCircle
 10
50.15999999999649
 20
66.48000000000049
 40
0.5
  0
CIRCLE
  5
134
100
AcDbEntity
  8
universal_board
  6
ByLayer
 62
  256
370
   -1
100
AcDbCircle
 10
47.61999999999658
 20
43.62000000000025
 40
0.5
  0
CIRCLE
  5
135
100
AcDbEntity
  8
universal_board
  6
ByLayer
 62
  256
370
   -1
100
AcDbCircle
 10
45.07999999999669
 20
43.62000000000025
 40
0.5
  0
CIRCLE
  5
136
100
AcDbEntity
  8
universal_board
  6
ByLayer
 62
  256
370
   -1
100
AcDbCircle
 10
42.53999999999683
 20
43.62000000000024
 40
0.5
  0
CIRCLE
  5
137
100
AcDbEntity
  8
universal_board
  6
ByLayer
 62
  256
370
   -1
100
AcDbCircle
 10
39.99999999999694
 20
43.62000000000023
 40
0.5
  0
CIRCLE
  5
138
100
AcDbEntity
  8
universal_board
  6
ByLayer
 62
  256
370
   -1
100
AcDbCircle
 10
47.61999999999658
 20
46.16000000000027
 40
0.5
  0
CIRCLE
  5
139
100
AcDbEntity
  8
universal_board
  6
ByLayer
 62
  256
370
   -1
100
AcDbCircle
 10
45.07999999999671
 20
46.16000000000027
 40
0.5
  0
CIRCLE
  5
13A
100
AcDbEntity
  8
universal_board
  6
ByLayer
 62
  256
370
   -1
100
AcDbCircle
 10
42.53999999999683
 20
46.16000000000026
 40
0.5
  0
CIRCLE
  5
13B
100
AcDbEntity
  8
universal_board
  6
ByLayer
 62
  256
370
   -1
100
AcDbCircle
 10
39.99999999999694
 20
46.16000000000026
 40
0.5
  0
CIRCLE
  5
13C
100
AcDbEntity
  8
universal_board
  6
ByLayer
 62
  256
370
   -1
100
AcDbCircle
 10
47.61999999999658
 20
48.7000000000003
 40
0.5
  0
CIRCLE
  5
13D
100
AcDbEntity
  8
universal_board
  6
ByLayer
 62
  256
370
   -1
100
AcDbCircle
 10
45.07999999999669
 20
48.7000000000003
 40
0.5
  0
CIRCLE
  5
13E
100
AcDbEntity
  8
universal_board
  6
ByLayer
 62
  256
370
   -1
100
AcDbCircle
 10
42.53999999999681
 20
48.7000000000003
 40
0.5
  0
CIRCLE
  5
13F
100
AcDbEntity
  8
universal_board
  6
ByLayer
 62
  256
370
   -1
100
AcDbCircle
 10
39.99999999999694
 20
48.70000000000028
 40
0.5
  0
CIRCLE
  5
140
100
AcDbEntity
  8
universal_board
  6
ByLayer
 62
  256
370
   -1
100
AcDbCircle
 10
47.61999999999658
 20
51.24000000000032
 40
0.5
  0
CIRCLE
  5
141
100
AcDbEntity
  8
universal_board
  6
ByLayer
 62
  256
370
   -1
100
AcDbCircle
 10
45.07999999999669
 20
51.24000000000031
 40
0.5
  0
CIRCLE
  5
142
100
AcDbEntity
  8
universal_board
  6
ByLayer
 62
  256
370
   -1
100
AcDbCircle
 10
42.53999999999681
 20
51.2400000000003
 40
0.5
  0
CIRCLE
  5
143
100
AcDbEntity
  8
universal_board
  6
ByLayer
 62
  256
370
   -1
100
AcDbCircle
 10
39.99999999999692
 20
51.24000000000032
 40
0.5
  0
CIRCLE
  5
144
100
AcDbEntity
  8
universal_board
  6
ByLayer
 62
  256
370
   -1
100
AcDbCircle
 10
47.61999999999656
 20
53.78000000000034
 40
0.5
  0
CIRCLE
  5
145
100
AcDbEntity
  8
universal_board
  6
ByLayer
 62
  256
370
   -1
100
AcDbCircle
 10
45.07999999999669
 20
53.78000000000033
 40
0.5
  0
CIRCLE
  5
146
100
AcDbEntity
  8
universal_board
  6
ByLayer
 62
  256
370
   -1
100
AcDbCircle
 10
42.53999999999681
 20
53.78000000000032
 40
0.5
  0
CIRCLE
  5
147
100
AcDbEntity
  8
universal_board
  6
ByLayer
 62
  256
370
   -1
100
AcDbCircle
 10
39.99999999999692
 20
53.78000000000034
 40
0.5
  0
CIRCLE
  5
148
100
AcDbEntity
  8
universal_board
  6
ByLayer
 62
  256
370
   -1
100
AcDbCircle
 10
47.61999999999657
 20
56.32000000000038
 40
0.5
  0
CIRCLE
  5
149
100
AcDbEntity
  8
universal_board
  6
ByLayer
 62
  256
370
   -1
100
AcDbCircle
 10
45.07999999999669
 20
56.32000000000035
 40
0.5
  0
CIRCLE
  5
14A
100
AcDbEntity
  8
universal_board
  6
ByLayer
 62
  256
370
   -1
100
AcDbCircle
 10
42.53999999999683
 20
56.32000000000034
 40
0.5
  0
CIRCLE
  5
14B
100
AcDbEntity
  8
universal_board
  6
ByLayer
 62
  256
370
   -1
100
AcDbCircle
 10
39.99999999999692
 20
56.32000000000036
 40
0.5
  0
CIRCLE
  5
14C
100
AcDbEntity
  8
universal_board
  6
ByLayer
 62
  256
370
   -1
100
AcDbCircle
 10
47.61999999999657
 20
58.8600000000004
 40
0.5
  0
CIRCLE
  5
14D
100
AcDbEntity
  8
universal_board
  6
ByLayer
 62
  256
370
   -1
100
AcDbCircle
 10
45.07999999999669
 20
58.86000000000037
 40
0.5
  0
CIRCLE
  5
14E
100
AcDbEntity
  8
universal_board
  6
ByLayer
 62
  256
370
   -1
100
AcDbCircle
 10
42.53999999999681
 20
58.86000000000036
 40
0.5
  0
CIRCLE
  5
14F
100
AcDbEntity
  8
universal_board
  6
ByLayer
 62
  256
370
   -1
100
AcDbCircle
 10
39.99999999999692
 20
58.86000000000037
 40
0.5
  0
CIRCLE
  5
150
100
AcDbEntity
  8
universal_board
  6
ByLayer
 62
  256
370
   -1
100
AcDbCircle
 10
47.61999999999656
 20
61.40000000000042
 40
0.5
  0
CIRCLE
  5
151
100
AcDbEntity
  8
universal_board
  6
ByLayer
 62
  256
370
   -1
100
AcDbCircle
 10
45.07999999999668
 20
61.4000000000004
 40
0.5
  0
CIRCLE
  5
152
100
AcDbEntity
  8
universal_board
  6
ByLayer
 62
  256
370
   -1
100
AcDbCircle
 10
42.53999999999679
 20
61.4000000000004
 40
0.5
  0
CIRCLE
  5
153
100
AcDbEntity
  8
universal_board
  6
ByLayer
 62
  256
370
   -1
100
AcDbCircle
 10
39.99999999999692
 20
61.40000000000039
 40
0.5
  0
CIRCLE
  5
154
100
AcDbEntity
  8
universal_board
  6
ByLayer
 62
  256
370
   -1
100
AcDbCircle
 10
47.61999999999656
 20
63.94000000000043
 40
0.5
  0
CIRCLE
  5
155
100
AcDbEntity
  8
universal_board
  6
ByLayer
 62
  256
370
   -1
100
AcDbCircle
 10
45.07999999999668
 20
63.94000000000041
 40
0.5
  0
CIRCLE
  5
156
100
AcDbEntity
  8
universal_board
  6
ByLayer
 62
  256
370
   -1
100
AcDbCircle
 10
42.53999999999681
 20
63.94000000000042
 40
0.5
  0
CIRCLE
  5
157
100
AcDbEntity
  8
universal_board
  6
ByLayer
 62
  256
370
   -1
100
AcDbCircle
 10
39.99999999999692
 20
63.94000000000041
 40
0.5
  0
CIRCLE
  5
158
100
AcDbEntity
  8
universal_board
  6
ByLayer
 62
  256
370
   -1
100
AcDbCircle
 10
47.61999999999654
 20
66.48000000000046
 40
0.5
  0
CIRCLE
  5
159
100
AcDbEntity
  8
universal_board
  6
ByLayer
 62
  256
370
   -1
100
AcDbCircle
 10
45.07999999999668
 20
66.48000000000043
 40
0.5
  0
CIRCLE
  5
15A
100
AcDbEntity
  8
universal_board
  6
ByLayer
 62
  256
370
   -1
100
AcDbCircle
 10
42.53999999999679
 20
66.48000000000043
 40
0.5
  0
CIRCLE
  5
15B
100
AcDbEntity
  8
universal_board
  6
ByLayer
 62
  256
370
   -1
100
AcDbCircle
 10
39.99999999999692
 20
66.48000000000042
 40
0.5
  0
CIRCLE
  5
15C
100
AcDbEntity
  8
universal_board
  6
ByLayer
 62
  256
370
   -1
100
AcDbCircle
 10
67.93999999999563
 20
69.02000000000054
 40
0.5
  0
CIRCLE
  5
15D
100
AcDbEntity
  8
universal_board
  6
ByLayer
 62
  256
370
   -1
100
AcDbCircle
 10
70.47999999999553
 20
69.02000000000054
 40
0.5
  0
CIRCLE
  5
15E
100
AcDbEntity
  8
universal_board
  6
ByLayer
 62
  256
370
   -1
100
AcDbCircle
 10
73.01999999999542
 20
69.02000000000054
 40
0.5
  0
CIRCLE
  5
15F
100
AcDbEntity
  8
universal_board
  6
ByLayer
 62
  256
370
   -1
100
AcDbCircle
 10
75.55999999999531
 20
69.02000000000054
 40
0.5
  0
CIRCLE
  5
160
100
AcDbEntity
  8
universal_board
  6
ByLayer
 62
  256
370
   -1
100
AcDbCircle
 10
78.09999999999522
 20
69.02000000000056
 40
0.5
  0
CIRCLE
  5
161
100
AcDbEntity
  8
universal_board
  6
ByLayer
 62
  256
370
   -1
100
AcDbCircle
 10
80.6399999999951
 20
69.02000000000056
 40
0.5
  0
CIRCLE
  5
162
100
AcDbEntity
  8
universal_board
  6
ByLayer
 62
  256
370
   -1
100
AcDbCircle
 10
83.17999999999499
 20
69.02000000000059
 40
0.5
  0
CIRCLE
  5
163
100
AcDbEntity
  8
universal_board
  6
ByLayer
 62
  256
370
   -1
100
AcDbCircle
 10
65.39999999999576
 20
69.02000000000051
 40
0.5
  0
CIRCLE
  5
164
100
AcDbEntity
  8
universal_board
  6
ByLayer
 62
  256
370
   -1
100
AcDbCircle
 10
62.85999999999588
 20
69.02000000000051
 40
0.5
  0
CIRCLE
  5
165
100
AcDbEntity
  8
universal_board
  6
ByLayer
 62
  256
370
   -1
100
AcDbCircle
 10
60.319999999996
 20
69.02000000000051
 40
0.5
  0
CIRCLE
  5
166
100
AcDbEntity
  8
universal_board
  6
ByLayer
 62
  256
370
   -1
100
AcDbCircle
 10
57.77999999999611
 20
69.02000000000051
 40
0.5
  0
CIRCLE
  5
167
100
AcDbEntity
  8
universal_board
  6
ByLayer
 62
  256
370
   -1
100
AcDbCircle
 10
55.23999999999624
 20
69.02000000000051
 40
0.5
  0
CIRCLE
  5
168
100
AcDbEntity
  8
universal_board
  6
ByLayer
 62
  256
370
   -1
100
AcDbCircle
 10
52.69999999999636
 20
69.02000000000048
 40
0.5
  0
CIRCLE
  5
169
100
AcDbEntity
  8
universal_board
  6
ByLayer
 62
  256
370
   -1
100
AcDbCircle
 10
50.15999999999649
 20
69.02000000000051
 40
0.5
  0
CIRCLE
  5
16A
100
AcDbEntity
  8
universal_board
  6
ByLayer
 62
  256
370
   -1
100
AcDbCircle
 10
47.61999999999654
 20
69.02000000000048
 40
0.5
  0
CIRCLE
  5
16B
100
AcDbEntity
  8
universal_board
  6
ByLayer
 62
  256
370
   -1
100
AcDbCircle
 10
45.07999999999666
 20
69.02000000000045
 40
0.5
  0
CIRCLE
  5
16C
100
AcDbEntity
  8
universal_board
  6
ByLayer
 62
  256
370
   -1
100
AcDbCircle
 10
42.53999999999677
 20
69.02000000000045
 40
0.5
  0
CIRCLE
  5
16D
100
AcDbEntity
  8
universal_board
  6
ByLayer
 62
  256
370
   -1
100
AcDbCircle
 10
39.99999999999691
 20
69.02000000000045
 40
0.5
  0
CIRCLE
  5
16E
100
AcDbEntity
  8
universal_board
  6
ByLayer
 62
  256
370
   -1
100
AcDbCircle
 10
67.93999999999562
 20
71.56000000000051
 40
0.5
  0
CIRCLE
  5
16F
100
AcDbEntity
  8
universal_board
  6
ByLayer
 62
  256
370
   -1
100
AcDbCircle
 10
70.47999999999551
 20
71.56000000000054
 40
0.5
  0
CIRCLE
  5
170
100
AcDbEntity
  8
universal_board
  6
ByLayer
 62
  256
370
   -1
100
AcDbCircle
 10
73.01999999999541
 20
71.56000000000054
 40
0.5
  0
CIRCLE
  5
171
100
AcDbEntity
  8
universal_board
  6
ByLayer
 62
  256
370
   -1
100
AcDbCircle
 10
75.5599999999953
 20
71.56000000000057
 40
0.5
  0
CIRCLE
  5
172
100
AcDbEntity
  8
universal_board
  6
ByLayer
 62
  256
370
   -1
100
AcDbCircle
 10
78.09999999999519
 20
71.56000000000057
 40
0.5
  0
CIRCLE
  5
173
100
AcDbEntity
  8
universal_board
  6
ByLayer
 62
  256
370
   -1
100
AcDbCircle
 10
80.63999999999508
 20
71.56000000000057
 40
0.5
  0
CIRCLE
  5
174
100
AcDbEntity
  8
universal_board
  6
ByLayer
 62
  256
370
   -1
100
AcDbCircle
 10
83.17999999999498
 20
71.5600000000006
 40
0.5
  0
CIRCLE
  5
175
100
AcDbEntity
  8
universal_board
  6
ByLayer
 62
  256
370
   -1
100
AcDbCircle
 10
65.39999999999574
 20
71.56000000000051
 40
0.5
  0
CIRCLE
  5
176
100
AcDbEntity
  8
universal_board
  6
ByLayer
 62
  256
370
   -1
100
AcDbCircle
 10
62.85999999999586
 20
71.56000000000053
 40
0.5
  0
CIRCLE
  5
177
100
AcDbEntity
  8
universal_board
  6
ByLayer
 62
  256
370
   -1
100
AcDbCircle
 10
60.31999999999599
 20
71.56000000000051
 40
0.5
  0
CIRCLE
  5
178
100
AcDbEntity
  8
universal_board
  6
ByLayer
 62
  256
370
   -1
100
AcDbCircle
 10
57.77999999999611
 20
71.56000000000051
 40
0.5
  0
CIRCLE
  5
179
100
AcDbEntity
  8
universal_board
  6
ByLayer
 62
  256
370
   -1
100
AcDbCircle
 10
55.23999999999623
 20
71.56000000000051
 40
0.5
  0
CIRCLE
  5
17A
100
AcDbEntity
  8
universal_board
  6
ByLayer
 62
  256
370
   -1
100
AcDbCircle
 10
52.69999999999634
 20
71.5600000000005
 40
0.5
  0
CIRCLE
  5
17B
100
AcDbEntity
  8
universal_board
  6
ByLayer
 62
  256
370
   -1
100
AcDbCircle
 10
50.15999999999648
 20
71.56000000000051
 40
0.5
  0
CIRCLE
  5
17C
100
AcDbEntity
  8
universal_board
  6
ByLayer
 62
  256
370
   -1
100
AcDbCircle
 10
47.61999999999653
 20
71.56000000000049
 40
0.5
  0
CIRCLE
  5
17D
100
AcDbEntity
  8
universal_board
  6
ByLayer
 62
  256
370
   -1
100
AcDbCircle
 10
45.07999999999664
 20
71.56000000000046
 40
0.5
  0
CIRCLE
  5
17E
100
AcDbEntity
  8
universal_board
  6
ByLayer
 62
  256
370
   -1
100
AcDbCircle
 10
42.53999999999677
 20
71.56000000000046
 40
0.5
  0
CIRCLE
  5
17F
100
AcDbEntity
  8
universal_board
  6
ByLayer
 62
  256
370
   -1
100
AcDbCircle
 10
39.99999999999689
 20
71.56000000000047
 40
0.5
  0
CIRCLE
  5
180
100
AcDbEntity
  8
universal_board
  6
ByLayer
 62
  256
370
   -1
100
AcDbCircle
 10
67.93999999999562
 20
74.10000000000052
 40
0.5
  0
CIRCLE
  5
181
100
AcDbEntity
  8
universal_board
  6
ByLayer
 62
  256
370
   -1
100
AcDbCircle
 10
70.47999999999551
 20
74.10000000000055
 40
0.5
  0
CIRCLE
  5
182
100
AcDbEntity
  8
universal_board
  6
ByLayer
 62
  256
370
   -1
100
AcDbCircle
 10
73.01999999999541
 20
74.10000000000055
 40
0.5
  0
CIRCLE
  5
183
100
AcDbEntity
  8
universal_board
  6
ByLayer
 62
  256
370
   -1
100
AcDbCircle
 10
75.5599999999953
 20
74.10000000000058
 40
0.5
  0
CIRCLE
  5
184
100
AcDbEntity
  8
universal_board
  6
ByLayer
 62
  256
370
   -1
100
AcDbCircle
 10
78.09999999999519
 20
74.10000000000058
 40
0.5
  0
CIRCLE
  5
185
100
AcDbEntity
  8
universal_board
  6
ByLayer
 62
  256
370
   -1
100
AcDbCircle
 10
80.63999999999508
 20
74.10000000000058
 40
0.5
  0
CIRCLE
  5
186
100
AcDbEntity
  8
universal_board
  6
ByLayer
 62
  256
370
   -1
100
AcDbCircle
 10
83.17999999999498
 20
74.10000000000061
 40
0.5
  0
CIRCLE
  5
187
100
AcDbEntity
  8
universal_board
  6
ByLayer
 62
  256
370
   -1
100
AcDbCircle
 10
65.39999999999574
 20
74.10000000000052
 40
0.5
  0
CIRCLE
  5
188
100
AcDbEntity
  8
universal_board
  6
ByLayer
 62
  256
370
   -1
100
AcDbCircle
 10
62.85999999999586
 20
74.10000000000055
 40
0.5
  0
CIRCLE
  5
189
100
AcDbEntity
  8
universal_board
  6
ByLayer
 62
  256
370
   -1
100
AcDbCircle
 10
60.31999999999599
 20
74.10000000000052
 40
0.5
  0
CIRCLE
  5
18A
100
AcDbEntity
  8
universal_board
  6
ByLayer
 62
  256
370
   -1
100
AcDbCircle
 10
57.77999999999611
 20
74.10000000000052
 40
0.5
  0
CIRCLE
  5
18B
100
AcDbEntity
  8
universal_board
  6
ByLayer
 62
  256
370
   -1
100
AcDbCircle
 10
55.23999999999623
 20
74.10000000000052
 40
0.5
  0
CIRCLE
  5
18C
100
AcDbEntity
  8
universal_board
  6
ByLayer
 62
  256
370
   -1
100
AcDbCircle
 10
52.69999999999634
 20
74.10000000000052
 40
0.5
  0
CIRCLE
  5
18D
100
AcDbEntity
  8
universal_board
  6
ByLayer
 62
  256
370
   -1
100
AcDbCircle
 10
50.15999999999648
 20
74.10000000000052
 40
0.5
  0
CIRCLE
  5
18E
100
AcDbEntity
  8
universal_board
  6
ByLayer
 62
  256
370
   -1
100
AcDbCircle
 10
47.61999999999653
 20
74.10000000000049
 40
0.5
  0
CIRCLE
  5
18F
100
AcDbEntity
  8
universal_board
  6
ByLayer
 62
  256
370
   -1
100
AcDbCircle
 10
45.07999999999664
 20
74.10000000000046
 40
0.5
  0
CIRCLE
  5
190
100
AcDbEntity
  8
universal_board
  6
ByLayer
 62
  256
370
   -1
100
AcDbCircle
 10
42.53999999999677
 20
74.10000000000046
 40
0.5
  0
CIRCLE
  5
191
100
AcDbEntity
  8
universal_board
  6
ByLayer
 62
  256
370
   -1
100
AcDbCircle
 10
39.99999999999689
 20
74.10000000000049
 40
0.5
  0
CIRCLE
  5
192
100
AcDbEntity
  8
universal_board
  6
ByLayer
 62
  256
370
   -1
100
AcDbCircle
 10
67.93999999999561
 20
76.64000000000054
 40
0.5
  0
CIRCLE
  5
193
100
AcDbEntity
  8
universal_board
  6
ByLayer
 62
  256
370
   -1
100
AcDbCircle
 10
70.4799999999955
 20
76.64000000000057
 40
0.5
  0
CIRCLE
  5
194
100
AcDbEntity
  8
universal_board
  6
ByLayer
 62
  256
370
   -1
100
AcDbCircle
 10
73.01999999999539
 20
76.64000000000057
 40
0.5
  0
CIRCLE
  5
195
100
AcDbEntity
  8
universal_board
  6
ByLayer
 62
  256
370
   -1
100
AcDbCircle
 10
75.55999999999528
 20
76.64000000000057
 40
0.5
  0
CIRCLE
  5
196
100
AcDbEntity
  8
universal_board
  6
ByLayer
 62
  256
370
   -1
100
AcDbCircle
 10
78.09999999999519
 20
76.6400000000006
 40
0.5
  0
CIRCLE
  5
197
100
AcDbEntity
  8
universal_board
  6
ByLayer
 62
  256
370
   -1
100
AcDbCircle
 10
80.63999999999507
 20
76.6400000000006
 40
0.5
  0
CIRCLE
  5
198
100
AcDbEntity
  8
universal_board
  6
ByLayer
 62
  256
370
   -1
100
AcDbCircle
 10
83.17999999999496
 20
76.64000000000063
 40
0.5
  0
CIRCLE
  5
199
100
AcDbEntity
  8
universal_board
  6
ByLayer
 62
  256
370
   -1
100
AcDbCircle
 10
65.39999999999573
 20
76.64000000000054
 40
0.5
  0
CIRCLE
  5
19A
100
AcDbEntity
  8
universal_board
  6
ByLayer
 62
  256
370
   -1
100
AcDbCircle
 10
62.85999999999585
 20
76.64000000000055
 40
0.5
  0
CIRCLE
  5
19B
100
AcDbEntity
  8
universal_board
  6
ByLayer
 62
  256
370
   -1
100
AcDbCircle
 10
60.31999999999596
 20
76.64000000000054
 40
0.5
  0
CIRCLE
  5
19C
100
AcDbEntity
  8
universal_board
  6
ByLayer
 62
  256
370
   -1
100
AcDbCircle
 10
57.77999999999609
 20
76.64000000000054
 40
0.5
  0
CIRCLE
  5
19D
100
AcDbEntity
  8
universal_board
  6
ByLayer
 62
  256
370
   -1
100
AcDbCircle
 10
55.23999999999621
 20
76.64000000000054
 40
0.5
  0
CIRCLE
  5
19E
100
AcDbEntity
  8
universal_board
  6
ByLayer
 62
  256
370
   -1
100
AcDbCircle
 10
52.69999999999634
 20
76.64000000000053
 40
0.5
  0
CIRCLE
  5
19F
100
AcDbEntity
  8
universal_board
  6
ByLayer
 62
  256
370
   -1
100
AcDbCircle
 10
50.15999999999646
 20
76.64000000000054
 40
0.5
  0
CIRCLE
  5
1A0
100
AcDbEntity
  8
universal_board
  6
ByLayer
 62
  256
370
   -1
100
AcDbCircle
 10
47.61999999999651
 20
76.64000000000051
 40
0.5
  0
CIRCLE
  5
1A1
100
AcDbEntity
  8
universal_board
  6
ByLayer
 62
  256
370
   -1
100
AcDbCircle
 10
45.07999999999662
 20
76.64000000000048
 40
0.5
  0
CIRCLE
  5
1A2
100
AcDbEntity
  8
universal_board
  6
ByLayer
 62
  256
370
   -1
100
AcDbCircle
 10
42.53999999999676
 20
76.64000000000048
 40
0.5
  0
CIRCLE
  5
1A3
100
AcDbEntity
  8
universal_board
  6
ByLayer
 62
  256
370
   -1
100
AcDbCircle
 10
39.99999999999687
 20
76.6400000000005
 40
0.5
  0
CIRCLE
  5
1A4
100
AcDbEntity
  8
universal_board
  6
ByLayer
 62
  256
370
   -1
100
AcDbCircle
 10
37.45999999999704
 20
69.02000000000046
 40
0.5
  0
CIRCLE
  5
1A5
100
AcDbEntity
  8
universal_board
  6
ByLayer
 62
  256
370
   -1
100
AcDbCircle
 10
37.45999999999704
 20
71.5600000000005
 40
0.5
  0
CIRCLE
  5
1A6
100
AcDbEntity
  8
universal_board
  6
ByLayer
 62
  256
370
   -1
100
AcDbCircle
 10
37.45999999999704
 20
74.10000000000053
 40
0.5
  0
CIRCLE
  5
1A7
100
AcDbEntity
  8
universal_board
  6
ByLayer
 62
  256
370
   -1
100
AcDbCircle
 10
37.45999999999705
 20
43.62000000000023
 40
0.5
  0
CIRCLE
  5
1A8
100
AcDbEntity
  8
universal_board
  6
ByLayer
 62
  256
370
   -1
100
AcDbCircle
 10
37.45999999999707
 20
46.16000000000026
 40
0.5
  0
CIRCLE
  5
1A9
100
AcDbEntity
  8
universal_board
  6
ByLayer
 62
  256
370
   -1
100
AcDbCircle
 10
37.45999999999707
 20
48.70000000000028
 40
0.5
  0
CIRCLE
  5
1AA
100
AcDbEntity
  8
universal_board
  6
ByLayer
 62
  256
370
   -1
100
AcDbCircle
 10
37.45999999999705
 20
51.24000000000031
 40
0.5
  0
CIRCLE
  5
1AB
100
AcDbEntity
  8
universal_board
  6
ByLayer
 62
  256
370
   -1
100
AcDbCircle
 10
37.45999999999704
 20
53.78000000000033
 40
0.5
  0
CIRCLE
  5
1AC
100
AcDbEntity
  8
universal_board
  6
ByLayer
 62
  256
370
   -1
100
AcDbCircle
 10
37.45999999999705
 20
56.32000000000035
 40
0.5
  0
CIRCLE
  5
1AD
100
AcDbEntity
  8
universal_board
  6
ByLayer
 62
  256
370
   -1
100
AcDbCircle
 10
37.45999999999705
 20
58.86000000000036
 40
0.5
  0
CIRCLE
  5
1AE
100
AcDbEntity
  8
universal_board
  6
ByLayer
 62
  256
370
   -1
100
AcDbCircle
 10
37.45999999999704
 20
61.40000000000038
 40
0.5
  0
CIRCLE
  5
1AF
100
AcDbEntity
  8
universal_board
  6
ByLayer
 62
  256
370
   -1
100
AcDbCircle
 10
37.45999999999705
 20
63.9400000000004
 40
0.5
  0
CIRCLE
  5
1B0
100
AcDbEntity
  8
universal_board
  6
ByLayer
 62
  256
370
   -1
100
AcDbCircle
 10
37.45999999999704
 20
66.48000000000043
 40
0.5
  0
CIRCLE
  5
1B1
100
AcDbEntity
  8
universal_board
  6
ByLayer
 62
  256
370
   -1
100
AcDbCircle
 10
37.45999999999702
 20
76.64000000000057
 40
0.5
  0
LINE
  5
1B2
100
AcDbEntity
  8
universal_board
  6
ByLayer
 62
  256
370
   -1
100
AcDbLine
 10
84.44999999999459
 20
77.91000000000012
 11
84.44999999999472
 21
42.35000000000012
  0
CIRCLE
  5
1B3
100
AcDbEntity
  8
universal_board
  6
ByLayer
 62
  256
370
   -1
100
AcDbCircle
 10
67.93999999999571
 20
2.97999999999989
 40
0.5
  0
CIRCLE
  5
1B4
100
AcDbEntity
  8
universal_board
  6
ByLayer
 62
  256
370
   -1
100
AcDbCircle
 10
70.4799999999956
 20
2.979999999999905
 40
0.5
  0
CIRCLE
  5
1B5
100
AcDbEntity
  8
universal_board
  6
ByLayer
 62
  256
370
   -1
100
AcDbCircle
 10
73.01999999999551
 20
2.979999999999919
 40
0.5
  0
CIRCLE
  5
1B6
100
AcDbEntity
  8
universal_board
  6
ByLayer
 62
  256
370
   -1
100
AcDbCircle
 10
75.55999999999538
 20
2.979999999999933
 40
0.5
  0
CIRCLE
  5
1B7
100
AcDbEntity
  8
universal_board
  6
ByLayer
 62
  256
370
   -1
100
AcDbCircle
 10
78.09999999999529
 20
2.979999999999933
 40
0.5
  0
CIRCLE
  5
1B8
100
AcDbEntity
  8
universal_board
  6
ByLayer
 62
  256
370
   -1
100
AcDbCircle
 10
80.63999999999517
 20
2.979999999999954
 40
0.5
  0
CIRCLE
  5
1B9
100
AcDbEntity
  8
universal_board
  6
ByLayer
 62
  256
370
   -1
100
AcDbCircle
 10
83.17999999999508
 20
2.979999999999954
 40
0.5
  0
CIRCLE
  5
1BA
100
AcDbEntity
  8
universal_board
  6
ByLayer
 62
  256
370
   -1
100
AcDbCircle
 10
65.39999999999583
 20
2.979999999999883
 40
0.5
  0
CIRCLE
  5
1BB
100
AcDbEntity
  8
universal_board
  6
ByLayer
 62
  256
370
   -1
100
AcDbCircle
 10
62.85999999999595
 20
2.979999999999905
 40
0.5
  0
CIRCLE
  5
1BC
100
AcDbEntity
  8
universal_board
  6
ByLayer
 62
  256
370
   -1
100
AcDbCircle
 10
60.31999999999609
 20
2.979999999999883
 40
0.5
  0
CIRCLE
  5
1BD
100
AcDbEntity
  8
universal_board
  6
ByLayer
 62
  256
370
   -1
100
AcDbCircle
 10
57.7799999999962
 20
2.979999999999869
 40
0.5
  0
CIRCLE
  5
1BE
100
AcDbEntity
  8
universal_board
  6
ByLayer
 62
  256
370
   -1
100
AcDbCircle
 10
55.23999999999632
 20
2.979999999999869
 40
0.5
  0
CIRCLE
  5
1BF
100
AcDbEntity
  8
universal_board
  6
ByLayer
 62
  256
370
   -1
100
AcDbCircle
 10
52.69999999999644
 20
2.979999999999855
 40
0.5
  0
CIRCLE
  5
1C0
100
AcDbEntity
  8
universal_board
  6
ByLayer
 62
  256
370
   -1
100
AcDbCircle
 10
50.15999999999656
 20
2.979999999999883
 40
0.5
  0
CIRCLE
  5
1C1
100
AcDbEntity
  8
universal_board
  6
ByLayer
 62
  256
370
   -1
100
AcDbCircle
 10
67.93999999999572
 20
5.519999999999911
 40
0.5
  0
CIRCLE
  5
1C2
100
AcDbEntity
  8
universal_board
  6
ByLayer
 62
  256
370
   -1
100
AcDbCircle
 10
70.47999999999561
 20
5.519999999999925
 40
0.5
  0
CIRCLE
  5
1C3
100
AcDbEntity
  8
universal_board
  6
ByLayer
 62
  256
370
   -1
100
AcDbCircle
 10
73.01999999999551
 20
5.519999999999925
 40
0.5
  0
CIRCLE
  5
1C4
100
AcDbEntity
  8
universal_board
  6
ByLayer
 62
  256
370
   -1
100
AcDbCircle
 10
75.5599999999954
 20
5.519999999999953
 40
0.5
  0
CIRCLE
  5
1C5
100
AcDbEntity
  8
universal_board
  6
ByLayer
 62
  256
370
   -1
100
AcDbCircle
 10
78.09999999999529
 20
5.519999999999953
 40
0.5
  0
CIRCLE
  5
1C6
100
AcDbEntity
  8
universal_board
  6
ByLayer
 62
  256
370
   -1
100
AcDbCircle
 10
80.63999999999518
 20
5.519999999999953
 40
0.5
  0
CIRCLE
  5
1C7
100
AcDbEntity
  8
universal_board
  6
ByLayer
 62
  256
370
   -1
100
AcDbCircle
 10
83.17999999999508
 20
5.519999999999982
 40
0.5
  0
CIRCLE
  5
1C8
100
AcDbEntity
  8
universal_board
  6
ByLayer
 62
  256
370
   -1
100
AcDbCircle
 10
65.39999999999584
 20
5.519999999999904
 40
0.5
  0
CIRCLE
  5
1C9
100
AcDbEntity
  8
universal_board
  6
ByLayer
 62
  256
370
   -1
100
AcDbCircle
 10
62.85999999999596
 20
5.519999999999904
 40
0.5
  0
CIRCLE
  5
1CA
100
AcDbEntity
  8
universal_board
  6
ByLayer
 62
  256
370
   -1
100
AcDbCircle
 10
60.31999999999609
 20
5.519999999999904
 40
0.5
  0
CIRCLE
  5
1CB
100
AcDbEntity
  8
universal_board
  6
ByLayer
 62
  256
370
   -1
100
AcDbCircle
 10
57.77999999999621
 20
5.519999999999889
 40
0.5
  0
CIRCLE
  5
1CC
100
AcDbEntity
  8
universal_board
  6
ByLayer
 62
  256
370
   -1
100
AcDbCircle
 10
55.23999999999633
 20
5.519999999999889
 40
0.5
  0
CIRCLE
  5
1CD
100
AcDbEntity
  8
universal_board
  6
ByLayer
 62
  256
370
   -1
100
AcDbCircle
 10
52.69999999999645
 20
5.519999999999875
 40
0.5
  0
CIRCLE
  5
1CE
100
AcDbEntity
  8
universal_board
  6
ByLayer
 62
  256
370
   -1
100
AcDbCircle
 10
50.15999999999657
 20
5.519999999999904
 40
0.5
  0
CIRCLE
  5
1CF
100
AcDbEntity
  8
universal_board
  6
ByLayer
 62
  256
370
   -1
100
AcDbCircle
 10
67.93999999999572
 20
8.05999999999991
 40
0.5
  0
CIRCLE
  5
1D0
100
AcDbEntity
  8
universal_board
  6
ByLayer
 62
  256
370
   -1
100
AcDbCircle
 10
70.47999999999561
 20
8.059999999999945
 40
0.5
  0
CIRCLE
  5
1D1
100
AcDbEntity
  8
universal_board
  6
ByLayer
 62
  256
370
   -1
100
AcDbCircle
 10
73.01999999999551
 20
8.05999999999996
 40
0.5
  0
CIRCLE
  5
1D2
100
AcDbEntity
  8
universal_board
  6
ByLayer
 62
  256
370
   -1
100
AcDbCircle
 10
75.55999999999538
 20
8.05999999999996
 40
0.5
  0
CIRCLE
  5
1D3
100
AcDbEntity
  8
universal_board
  6
ByLayer
 62
  256
370
   -1
100
AcDbCircle
 10
78.09999999999529
 20
8.059999999999974
 40
0.5
  0
CIRCLE
  5
1D4
100
AcDbEntity
  8
universal_board
  6
ByLayer
 62
  256
370
   -1
100
AcDbCircle
 10
80.63999999999517
 20
8.059999999999974
 40
0.5
  0
CIRCLE
  5
1D5
100
AcDbEntity
  8
universal_board
  6
ByLayer
 62
  256
370
   -1
100
AcDbCircle
 10
83.17999999999508
 20
8.060000000000002
 40
0.5
  0
CIRCLE
  5
1D6
100
AcDbEntity
  8
universal_board
  6
ByLayer
 62
  256
370
   -1
100
AcDbCircle
 10
65.39999999999584
 20
8.059999999999945
 40
0.5
  0
CIRCLE
  5
1D7
100
AcDbEntity
  8
universal_board
  6
ByLayer
 62
  256
370
   -1
100
AcDbCircle
 10
62.85999999999596
 20
8.059999999999931
 40
0.5
  0
CIRCLE
  5
1D8
100
AcDbEntity
  8
universal_board
  6
ByLayer
 62
  256
370
   -1
100
AcDbCircle
 10
60.31999999999608
 20
8.059999999999903
 40
0.5
  0
CIRCLE
  5
1D9
100
AcDbEntity
  8
universal_board
  6
ByLayer
 62
  256
370
   -1
100
AcDbCircle
 10
57.7799999999962
 20
8.05999999999991
 40
0.5
  0
CIRCLE
  5
1DA
100
AcDbEntity
  8
universal_board
  6
ByLayer
 62
  256
370
   -1
100
AcDbCircle
 10
55.23999999999631
 20
8.05999999999991
 40
0.5
  0
CIRCLE
  5
1DB
100
AcDbEntity
  8
universal_board
  6
ByLayer
 62
  256
370
   -1
100
AcDbCircle
 10
52.69999999999645
 20
8.05999999999991
 40
0.5
  0
CIRCLE
  5
1DC
100
AcDbEntity
  8
universal_board
  6
ByLayer
 62
  256
370
   -1
100
AcDbCircle
 10
50.15999999999657
 20
8.05999999999991
 40
0.5
  0
CIRCLE
  5
1DD
100
AcDbEntity
  8
universal_board
  6
ByLayer
 62
  256
370
   -1
100
AcDbCircle
 10
67.93999999999571
 20
10.59999999999995
 40
0.5
  0
CIRCLE
  5
1DE
100
AcDbEntity
  8
universal_board
  6
ByLayer
 62
  256
370
   -1
100
AcDbCircle
 10
70.4799999999956
 20
10.59999999999996
 40
0.5
  0
CIRCLE
  5
1DF
100
AcDbEntity
  8
universal_board
  6
ByLayer
 62
  256
370
   -1
100
AcDbCircle
 10
73.01999999999549
 20
10.59999999999996
 40
0.5
  0
CIRCLE
  5
1E0
100
AcDbEntity
  8
universal_board
  6
ByLayer
 62
  256
370
   -1
100
AcDbCircle
 10
75.55999999999538
 20
10.59999999999998
 40
0.5
  0
CIRCLE
  5
1E1
100
AcDbEntity
  8
universal_board
  6
ByLayer
 62
  256
370
   -1
100
AcDbCircle
 10
78.09999999999528
 20
10.59999999999999
 40
0.5
  0
CIRCLE
  5
1E2
100
AcDbEntity
  8
universal_board
  6
ByLayer
 62
  256
370
   -1
100
AcDbCircle
 10
80.63999999999517
 20
10.59999999999999
 40
0.5
  0
CIRCLE
  5
1E3
100
AcDbEntity
  8
universal_board
  6
ByLayer
 62
  256
370
   -1
100
AcDbCircle
 10
83.17999999999506
 20
10.60000000000002
 40
0.5
  0
CIRCLE
  5
1E4
100
AcDbEntity
  8
universal_board
  6
ByLayer
 62
  256
370
   -1
100
AcDbCircle
 10
65.39999999999583
 20
10.59999999999996
 40
0.5
  0
CIRCLE
  5
1E5
100
AcDbEntity
  8
universal_board
  6
ByLayer
 62
  256
370
   -1
100
AcDbCircle
 10
62.85999999999595
 20
10.59999999999995
 40
0.5
  0
CIRCLE
  5
1E6
100
AcDbEntity
  8
universal_board
  6
ByLayer
 62
  256
370
   -1
100
AcDbCircle
 10
60.31999999999607
 20
10.59999999999994
 40
0.5
  0
CIRCLE
  5
1E7
100
AcDbEntity
  8
universal_board
  6
ByLayer
 62
  256
370
   -1
100
AcDbCircle
 10
57.77999999999619
 20
10.59999999999994
 40
0.5
  0
CIRCLE
  5
1E8
100
AcDbEntity
  8
universal_board
  6
ByLayer
 62
  256
370
   -1
100
AcDbCircle
 10
55.23999999999631
 20
10.59999999999993
 40
0.5
  0
CIRCLE
  5
1E9
100
AcDbEntity
  8
universal_board
  6
ByLayer
 62
  256
370
   -1
100
AcDbCircle
 10
52.69999999999644
 20
10.59999999999994
 40
0.5
  0
CIRCLE
  5
1EA
100
AcDbEntity
  8
universal_board
  6
ByLayer
 62
  256
370
   -1
100
AcDbCircle
 10
50.15999999999656
 20
10.59999999999991
 40
0.5
  0
CIRCLE
  5
1EB
100
AcDbEntity
  8
universal_board
  6
ByLayer
 62
  256
370
   -1
100
AcDbCircle
 10
67.93999999999569
 20
13.13999999999997
 40
0.5
  0
CIRCLE
  5
1EC
100
AcDbEntity
  8
universal_board
  6
ByLayer
 62
  256
370
   -1
100
AcDbCircle
 10
70.4799999999956
 20
13.13999999999998
 40
0.5
  0
CIRCLE
  5
1ED
100
AcDbEntity
  8
universal_board
  6
ByLayer
 62
  256
370
   -1
100
AcDbCircle
 10
73.01999999999548
 20
13.13999999999998
 40
0.5
  0
CIRCLE
  5
1EE
100
AcDbEntity
  8
universal_board
  6
ByLayer
 62
  256
370
   -1
100
AcDbCircle
 10
75.55999999999538
 20
13.14
 40
0.5
  0
CIRCLE
  5
1EF
100
AcDbEntity
  8
universal_board
  6
ByLayer
 62
  256
370
   -1
100
AcDbCircle
 10
78.09999999999526
 20
13.14000000000001
 40
0.5
  0
CIRCLE
  5
1F0
100
AcDbEntity
  8
universal_board
  6
ByLayer
 62
  256
370
   -1
100
AcDbCircle
 10
80.63999999999517
 20
13.14000000000001
 40
0.5
  0
CIRCLE
  5
1F1
100
AcDbEntity
  8
universal_board
  6
ByLayer
 62
  256
370
   -1
100
AcDbCircle
 10
83.17999999999506
 20
13.14000000000004
 40
0.5
  0
CIRCLE
  5
1F2
100
AcDbEntity
  8
universal_board
  6
ByLayer
 62
  256
370
   -1
100
AcDbCircle
 10
65.39999999999581
 20
13.13999999999998
 40
0.5
  0
CIRCLE
  5
1F3
100
AcDbEntity
  8
universal_board
  6
ByLayer
 62
  256
370
   -1
100
AcDbCircle
 10
62.85999999999594
 20
13.13999999999997
 40
0.5
  0
CIRCLE
  5
1F4
100
AcDbEntity
  8
universal_board
  6
ByLayer
 62
  256
370
   -1
100
AcDbCircle
 10
60.31999999999606
 20
13.13999999999997
 40
0.5
  0
CIRCLE
  5
1F5
100
AcDbEntity
  8
universal_board
  6
ByLayer
 62
  256
370
   -1
100
AcDbCircle
 10
57.77999999999619
 20
13.13999999999997
 40
0.5
  0
CIRCLE
  5
1F6
100
AcDbEntity
  8
universal_board
  6
ByLayer
 62
  256
370
   -1
100
AcDbCircle
 10
55.23999999999631
 20
13.13999999999995
 40
0.5
  0
CIRCLE
  5
1F7
100
AcDbEntity
  8
universal_board
  6
ByLayer
 62
  256
370
   -1
100
AcDbCircle
 10
52.69999999999643
 20
13.13999999999997
 40
0.5
  0
CIRCLE
  5
1F8
100
AcDbEntity
  8
universal_board
  6
ByLayer
 62
  256
370
   -1
100
AcDbCircle
 10
50.15999999999655
 20
13.13999999999993
 40
0.5
  0
CIRCLE
  5
1F9
100
AcDbEntity
  8
universal_board
  6
ByLayer
 62
  256
370
   -1
100
AcDbCircle
 10
67.93999999999571
 20
15.67999999999999
 40
0.5
  0
CIRCLE
  5
1FA
100
AcDbEntity
  8
universal_board
  6
ByLayer
 62
  256
370
   -1
100
AcDbCircle
 10
70.4799999999956
 20
15.68
 40
0.5
  0
CIRCLE
  5
1FB
100
AcDbEntity
  8
universal_board
  6
ByLayer
 62
  256
370
   -1
100
AcDbCircle
 10
73.01999999999549
 20
15.68000000000001
 40
0.5
  0
CIRCLE
  5
1FC
100
AcDbEntity
  8
universal_board
  6
ByLayer
 62
  256
370
   -1
100
AcDbCircle
 10
75.55999999999538
 20
15.68000000000001
 40
0.5
  0
CIRCLE
  5
1FD
100
AcDbEntity
  8
universal_board
  6
ByLayer
 62
  256
370
   -1
100
AcDbCircle
 10
78.09999999999528
 20
15.68000000000004
 40
0.5
  0
CIRCLE
  5
1FE
100
AcDbEntity
  8
universal_board
  6
ByLayer
 62
  256
370
   -1
100
AcDbCircle
 10
80.63999999999517
 20
15.68000000000004
 40
0.5
  0
CIRCLE
  5
1FF
100
AcDbEntity
  8
universal_board
  6
ByLayer
 62
  256
370
   -1
100
AcDbCircle
 10
83.17999999999506
 20
15.68000000000004
 40
0.5
  0
CIRCLE
  5
200
100
AcDbEntity
  8
universal_board
  6
ByLayer
 62
  256
370
   -1
100
AcDbCircle
 10
65.39999999999583
 20
15.68
 40
0.5
  0
CIRCLE
  5
201
100
AcDbEntity
  8
universal_board
  6
ByLayer
 62
  256
370
   -1
100
AcDbCircle
 10
62.85999999999595
 20
15.67999999999999
 40
0.5
  0
CIRCLE
  5
202
100
AcDbEntity
  8
universal_board
  6
ByLayer
 62
  256
370
   -1
100
AcDbCircle
 10
60.31999999999607
 20
15.67999999999999
 40
0.5
  0
CIRCLE
  5
203
100
AcDbEntity
  8
universal_board
  6
ByLayer
 62
  256
370
   -1
100
AcDbCircle
 10
57.77999999999619
 20
15.67999999999999
 40
0.5
  0
CIRCLE
  5
204
100
AcDbEntity
  8
universal_board
  6
ByLayer
 62
  256
370
   -1
100
AcDbCircle
 10
55.23999999999632
 20
15.67999999999997
 40
0.5
  0
CIRCLE
  5
205
100
AcDbEntity
  8
universal_board
  6
ByLayer
 62
  256
370
   -1
100
AcDbCircle
 10
52.69999999999644
 20
15.67999999999999
 40
0.5
  0
CIRCLE
  5
206
100
AcDbEntity
  8
universal_board
  6
ByLayer
 62
  256
370
   -1
100
AcDbCircle
 10
50.15999999999656
 20
15.67999999999996
 40
0.5
  0
CIRCLE
  5
207
100
AcDbEntity
  8
universal_board
  6
ByLayer
 62
  256
370
   -1
100
AcDbCircle
 10
67.93999999999569
 20
18.22
 40
0.5
  0
CIRCLE
  5
208
100
AcDbEntity
  8
universal_board
  6
ByLayer
 62
  256
370
   -1
100
AcDbCircle
 10
70.4799999999956
 20
18.22
 40
0.5
  0
CIRCLE
  5
209
100
AcDbEntity
  8
universal_board
  6
ByLayer
 62
  256
370
   -1
100
AcDbCircle
 10
73.01999999999548
 20
18.22000000000003
 40
0.5
  0
CIRCLE
  5
20A
100
AcDbEntity
  8
universal_board
  6
ByLayer
 62
  256
370
   -1
100
AcDbCircle
 10
75.55999999999538
 20
18.22000000000003
 40
0.5
  0
CIRCLE
  5
20B
100
AcDbEntity
  8
universal_board
  6
ByLayer
 62
  256
370
   -1
100
AcDbCircle
 10
78.09999999999526
 20
18.22000000000005
 40
0.5
  0
CIRCLE
  5
20C
100
AcDbEntity
  8
universal_board
  6
ByLayer
 62
  256
370
   -1
100
AcDbCircle
 10
80.63999999999517
 20
18.22000000000006
 40
0.5
  0
CIRCLE
  5
20D
100
AcDbEntity
  8
universal_board
  6
ByLayer
 62
  256
370
   -1
100
AcDbCircle
 10
83.17999999999505
 20
18.22000000000006
 40
0.5
  0
CIRCLE
  5
20E
100
AcDbEntity
  8
universal_board
  6
ByLayer
 62
  256
370
   -1
100
AcDbCircle
 10
65.39999999999583
 20
18.22000000000002
 40
0.5
  0
CIRCLE
  5
20F
100
AcDbEntity
  8
universal_board
  6
ByLayer
 62
  256
370
   -1
100
AcDbCircle
 10
62.85999999999595
 20
18.22000000000001
 40
0.5
  0
CIRCLE
  5
210
100
AcDbEntity
  8
universal_board
  6
ByLayer
 62
  256
370
   -1
100
AcDbCircle
 10
60.31999999999606
 20
18.22000000000001
 40
0.5
  0
CIRCLE
  5
211
100
AcDbEntity
  8
universal_board
  6
ByLayer
 62
  256
370
   -1
100
AcDbCircle
 10
57.77999999999619
 20
18.22
 40
0.5
  0
CIRCLE
  5
212
100
AcDbEntity
  8
universal_board
  6
ByLayer
 62
  256
370
   -1
100
AcDbCircle
 10
55.23999999999631
 20
18.21999999999999
 40
0.5
  0
CIRCLE
  5
213
100
AcDbEntity
  8
universal_board
  6
ByLayer
 62
  256
370
   -1
100
AcDbCircle
 10
52.69999999999642
 20
18.22
 40
0.5
  0
CIRCLE
  5
214
100
AcDbEntity
  8
universal_board
  6
ByLayer
 62
  256
370
   -1
100
AcDbCircle
 10
50.15999999999656
 20
18.21999999999998
 40
0.5
  0
CIRCLE
  5
215
100
AcDbEntity
  8
universal_board
  6
ByLayer
 62
  256
370
   -1
100
AcDbCircle
 10
67.93999999999569
 20
20.76000000000002
 40
0.5
  0
CIRCLE
  5
216
100
AcDbEntity
  8
universal_board
  6
ByLayer
 62
  256
370
   -1
100
AcDbCircle
 10
70.4799999999956
 20
20.76000000000004
 40
0.5
  0
CIRCLE
  5
217
100
AcDbEntity
  8
universal_board
  6
ByLayer
 62
  256
370
   -1
100
AcDbCircle
 10
73.01999999999548
 20
20.76000000000005
 40
0.5
  0
CIRCLE
  5
218
100
AcDbEntity
  8
universal_board
  6
ByLayer
 62
  256
370
   -1
100
AcDbCircle
 10
75.55999999999537
 20
20.76000000000005
 40
0.5
  0
CIRCLE
  5
219
100
AcDbEntity
  8
universal_board
  6
ByLayer
 62
  256
370
   -1
100
AcDbCircle
 10
78.09999999999526
 20
20.76000000000007
 40
0.5
  0
CIRCLE
  5
21A
100
AcDbEntity
  8
universal_board
  6
ByLayer
 62
  256
370
   -1
100
AcDbCircle
 10
80.63999999999514
 20
20.76000000000008
 40
0.5
  0
CIRCLE
  5
21B
100
AcDbEntity
  8
universal_board
  6
ByLayer
 62
  256
370
   -1
100
AcDbCircle
 10
83.17999999999505
 20
20.76000000000008
 40
0.5
  0
CIRCLE
  5
21C
100
AcDbEntity
  8
universal_board
  6
ByLayer
 62
  256
370
   -1
100
AcDbCircle
 10
65.39999999999581
 20
20.76000000000002
 40
0.5
  0
CIRCLE
  5
21D
100
AcDbEntity
  8
universal_board
  6
ByLayer
 62
  256
370
   -1
100
AcDbCircle
 10
62.85999999999594
 20
20.76000000000002
 40
0.5
  0
CIRCLE
  5
21E
100
AcDbEntity
  8
universal_board
  6
ByLayer
 62
  256
370
   -1
100
AcDbCircle
 10
60.31999999999606
 20
20.76000000000003
 40
0.5
  0
CIRCLE
  5
21F
100
AcDbEntity
  8
universal_board
  6
ByLayer
 62
  256
370
   -1
100
AcDbCircle
 10
57.77999999999618
 20
20.76000000000002
 40
0.5
  0
CIRCLE
  5
220
100
AcDbEntity
  8
universal_board
  6
ByLayer
 62
  256
370
   -1
100
AcDbCircle
 10
55.2399999999963
 20
20.76000000000001
 40
0.5
  0
CIRCLE
  5
221
100
AcDbEntity
  8
universal_board
  6
ByLayer
 62
  256
370
   -1
100
AcDbCircle
 10
52.69999999999642
 20
20.76000000000002
 40
0.5
  0
CIRCLE
  5
222
100
AcDbEntity
  8
universal_board
  6
ByLayer
 62
  256
370
   -1
100
AcDbCircle
 10
50.15999999999654
 20
20.76000000000001
 40
0.5
  0
CIRCLE
  5
223
100
AcDbEntity
  8
universal_board
  6
ByLayer
 62
  256
370
   -1
100
AcDbCircle
 10
67.93999999999571
 20
23.30000000000006
 40
0.5
  0
CIRCLE
  5
224
100
AcDbEntity
  8
universal_board
  6
ByLayer
 62
  256
370
   -1
100
AcDbCircle
 10
70.4799999999956
 20
23.30000000000006
 40
0.5
  0
CIRCLE
  5
225
100
AcDbEntity
  8
universal_board
  6
ByLayer
 62
  256
370
   -1
100
AcDbCircle
 10
73.01999999999548
 20
23.30000000000009
 40
0.5
  0
CIRCLE
  5
226
100
AcDbEntity
  8
universal_board
  6
ByLayer
 62
  256
370
   -1
100
AcDbCircle
 10
75.55999999999538
 20
23.30000000000009
 40
0.5
  0
CIRCLE
  5
227
100
AcDbEntity
  8
universal_board
  6
ByLayer
 62
  256
370
   -1
100
AcDbCircle
 10
78.09999999999526
 20
23.30000000000009
 40
0.5
  0
CIRCLE
  5
228
100
AcDbEntity
  8
universal_board
  6
ByLayer
 62
  256
370
   -1
100
AcDbCircle
 10
80.63999999999517
 20
23.30000000000013
 40
0.5
  0
CIRCLE
  5
229
100
AcDbEntity
  8
universal_board
  6
ByLayer
 62
  256
370
   -1
100
AcDbCircle
 10
83.17999999999505
 20
23.30000000000013
 40
0.5
  0
CIRCLE
  5
22A
100
AcDbEntity
  8
universal_board
  6
ByLayer
 62
  256
370
   -1
100
AcDbCircle
 10
65.39999999999581
 20
23.30000000000004
 40
0.5
  0
CIRCLE
  5
22B
100
AcDbEntity
  8
universal_board
  6
ByLayer
 62
  256
370
   -1
100
AcDbCircle
 10
62.85999999999594
 20
23.30000000000005
 40
0.5
  0
CIRCLE
  5
22C
100
AcDbEntity
  8
universal_board
  6
ByLayer
 62
  256
370
   -1
100
AcDbCircle
 10
60.31999999999606
 20
23.30000000000005
 40
0.5
  0
CIRCLE
  5
22D
100
AcDbEntity
  8
universal_board
  6
ByLayer
 62
  256
370
   -1
100
AcDbCircle
 10
57.77999999999618
 20
23.30000000000004
 40
0.5
  0
CIRCLE
  5
22E
100
AcDbEntity
  8
universal_board
  6
ByLayer
 62
  256
370
   -1
100
AcDbCircle
 10
55.23999999999631
 20
23.30000000000003
 40
0.5
  0
CIRCLE
  5
22F
100
AcDbEntity
  8
universal_board
  6
ByLayer
 62
  256
370
   -1
100
AcDbCircle
 10
52.69999999999644
 20
23.30000000000003
 40
0.5
  0
CIRCLE
  5
230
100
AcDbEntity
  8
universal_board
  6
ByLayer
 62
  256
370
   -1
100
AcDbCircle
 10
50.15999999999655
 20
23.30000000000003
 40
0.5
  0
CIRCLE
  5
231
100
AcDbEntity
  8
universal_board
  6
ByLayer
 62
  256
370
   -1
100
AcDbCircle
 10
67.93999999999569
 20
25.84000000000009
 40
0.5
  0
CIRCLE
  5
232
100
AcDbEntity
  8
universal_board
  6
ByLayer
 62
  256
370
   -1
100
AcDbCircle
 10
70.4799999999956
 20
25.84000000000009
 40
0.5
  0
CIRCLE
  5
233
100
AcDbEntity
  8
universal_board
  6
ByLayer
 62
  256
370
   -1
100
AcDbCircle
 10
73.01999999999548
 20
25.84000000000009
 40
0.5
  0
CIRCLE
  5
234
100
AcDbEntity
  8
universal_board
  6
ByLayer
 62
  256
370
   -1
100
AcDbCircle
 10
75.55999999999537
 20
25.84000000000009
 40
0.5
  0
CIRCLE
  5
235
100
AcDbEntity
  8
universal_board
  6
ByLayer
 62
  256
370
   -1
100
AcDbCircle
 10
78.09999999999526
 20
25.84000000000012
 40
0.5
  0
CIRCLE
  5
236
100
AcDbEntity
  8
universal_board
  6
ByLayer
 62
  256
370
   -1
100
AcDbCircle
 10
80.63999999999515
 20
25.84000000000012
 40
0.5
  0
CIRCLE
  5
237
100
AcDbEntity
  8
universal_board
  6
ByLayer
 62
  256
370
   -1
100
AcDbCircle
 10
83.17999999999505
 20
25.84000000000015
 40
0.5
  0
CIRCLE
  5
238
100
AcDbEntity
  8
universal_board
  6
ByLayer
 62
  256
370
   -1
100
AcDbCircle
 10
65.39999999999581
 20
25.84000000000006
 40
0.5
  0
CIRCLE
  5
239
100
AcDbEntity
  8
universal_board
  6
ByLayer
 62
  256
370
   -1
100
AcDbCircle
 10
62.85999999999594
 20
25.84000000000007
 40
0.5
  0
CIRCLE
  5
23A
100
AcDbEntity
  8
universal_board
  6
ByLayer
 62
  256
370
   -1
100
AcDbCircle
 10
60.31999999999606
 20
25.84000000000006
 40
0.5
  0
CIRCLE
  5
23B
100
AcDbEntity
  8
universal_board
  6
ByLayer
 62
  256
370
   -1
100
AcDbCircle
 10
57.77999999999618
 20
25.84000000000006
 40
0.5
  0
CIRCLE
  5
23C
100
AcDbEntity
  8
universal_board
  6
ByLayer
 62
  256
370
   -1
100
AcDbCircle
 10
55.2399999999963
 20
25.84000000000006
 40
0.5
  0
CIRCLE
  5
23D
100
AcDbEntity
  8
universal_board
  6
ByLayer
 62
  256
370
   -1
100
AcDbCircle
 10
52.69999999999642
 20
25.84000000000005
 40
0.5
  0
CIRCLE
  5
23E
100
AcDbEntity
  8
universal_board
  6
ByLayer
 62
  256
370
   -1
100
AcDbCircle
 10
50.15999999999654
 20
25.84000000000006
 40
0.5
  0
CIRCLE
  5
23F
100
AcDbEntity
  8
universal_board
  6
ByLayer
 62
  256
370
   -1
100
AcDbCircle
 10
47.61999999999662
 20
2.979999999999819
 40
0.5
  0
CIRCLE
  5
240
100
AcDbEntity
  8
universal_board
  6
ByLayer
 62
  256
370
   -1
100
AcDbCircle
 10
45.07999999999674
 20
2.979999999999819
 40
0.5
  0
CIRCLE
  5
241
100
AcDbEntity
  8
universal_board
  6
ByLayer
 62
  256
370
   -1
100
AcDbCircle
 10
42.53999999999687
 20
2.979999999999812
 40
0.5
  0
CIRCLE
  5
242
100
AcDbEntity
  8
universal_board
  6
ByLayer
 62
  256
370
   -1
100
AcDbCircle
 10
39.99999999999699
 20
2.979999999999805
 40
0.5
  0
CIRCLE
  5
243
100
AcDbEntity
  8
universal_board
  6
ByLayer
 62
  256
370
   -1
100
AcDbCircle
 10
47.61999999999662
 20
5.51999999999984
 40
0.5
  0
CIRCLE
  5
244
100
AcDbEntity
  8
universal_board
  6
ByLayer
 62
  256
370
   -1
100
AcDbCircle
 10
45.07999999999675
 20
5.51999999999984
 40
0.5
  0
CIRCLE
  5
245
100
AcDbEntity
  8
universal_board
  6
ByLayer
 62
  256
370
   -1
100
AcDbCircle
 10
42.53999999999687
 20
5.519999999999833
 40
0.5
  0
CIRCLE
  5
246
100
AcDbEntity
  8
universal_board
  6
ByLayer
 62
  256
370
   -1
100
AcDbCircle
 10
39.99999999999699
 20
5.519999999999833
 40
0.5
  0
CIRCLE
  5
247
100
AcDbEntity
  8
universal_board
  6
ByLayer
 62
  256
370
   -1
100
AcDbCircle
 10
47.61999999999662
 20
8.059999999999874
 40
0.5
  0
CIRCLE
  5
248
100
AcDbEntity
  8
universal_board
  6
ByLayer
 62
  256
370
   -1
100
AcDbCircle
 10
45.07999999999674
 20
8.059999999999874
 40
0.5
  0
CIRCLE
  5
249
100
AcDbEntity
  8
universal_board
  6
ByLayer
 62
  256
370
   -1
100
AcDbCircle
 10
42.53999999999685
 20
8.059999999999874
 40
0.5
  0
CIRCLE
  5
24A
100
AcDbEntity
  8
universal_board
  6
ByLayer
 62
  256
370
   -1
100
AcDbCircle
 10
39.99999999999699
 20
8.059999999999853
 40
0.5
  0
CIRCLE
  5
24B
100
AcDbEntity
  8
universal_board
  6
ByLayer
 62
  256
370
   -1
100
AcDbCircle
 10
47.61999999999662
 20
10.59999999999989
 40
0.5
  0
CIRCLE
  5
24C
100
AcDbEntity
  8
universal_board
  6
ByLayer
 62
  256
370
   -1
100
AcDbCircle
 10
45.07999999999673
 20
10.59999999999988
 40
0.5
  0
CIRCLE
  5
24D
100
AcDbEntity
  8
universal_board
  6
ByLayer
 62
  256
370
   -1
100
AcDbCircle
 10
42.53999999999685
 20
10.59999999999987
 40
0.5
  0
CIRCLE
  5
24E
100
AcDbEntity
  8
universal_board
  6
ByLayer
 62
  256
370
   -1
100
AcDbCircle
 10
39.99999999999697
 20
10.59999999999989
 40
0.5
  0
CIRCLE
  5
24F
100
AcDbEntity
  8
universal_board
  6
ByLayer
 62
  256
370
   -1
100
AcDbCircle
 10
47.6199999999966
 20
13.13999999999992
 40
0.5
  0
CIRCLE
  5
250
100
AcDbEntity
  8
universal_board
  6
ByLayer
 62
  256
370
   -1
100
AcDbCircle
 10
45.07999999999673
 20
13.1399999999999
 40
0.5
  0
CIRCLE
  5
251
100
AcDbEntity
  8
universal_board
  6
ByLayer
 62
  256
370
   -1
100
AcDbCircle
 10
42.53999999999685
 20
13.13999999999989
 40
0.5
  0
CIRCLE
  5
252
100
AcDbEntity
  8
universal_board
  6
ByLayer
 62
  256
370
   -1
100
AcDbCircle
 10
39.99999999999697
 20
13.13999999999992
 40
0.5
  0
CIRCLE
  5
253
100
AcDbEntity
  8
universal_board
  6
ByLayer
 62
  256
370
   -1
100
AcDbCircle
 10
47.61999999999661
 20
15.67999999999995
 40
0.5
  0
CIRCLE
  5
254
100
AcDbEntity
  8
universal_board
  6
ByLayer
 62
  256
370
   -1
100
AcDbCircle
 10
45.07999999999673
 20
15.67999999999992
 40
0.5
  0
CIRCLE
  5
255
100
AcDbEntity
  8
universal_board
  6
ByLayer
 62
  256
370
   -1
100
AcDbCircle
 10
42.53999999999687
 20
15.67999999999991
 40
0.5
  0
CIRCLE
  5
256
100
AcDbEntity
  8
universal_board
  6
ByLayer
 62
  256
370
   -1
100
AcDbCircle
 10
39.99999999999697
 20
15.67999999999993
 40
0.5
  0
CIRCLE
  5
257
100
AcDbEntity
  8
universal_board
  6
ByLayer
 62
  256
370
   -1
100
AcDbCircle
 10
47.61999999999661
 20
18.21999999999997
 40
0.5
  0
CIRCLE
  5
258
100
AcDbEntity
  8
universal_board
  6
ByLayer
 62
  256
370
   -1
100
AcDbCircle
 10
45.07999999999673
 20
18.21999999999994
 40
0.5
  0
CIRCLE
  5
259
100
AcDbEntity
  8
universal_board
  6
ByLayer
 62
  256
370
   -1
100
AcDbCircle
 10
42.53999999999685
 20
18.21999999999993
 40
0.5
  0
CIRCLE
  5
25A
100
AcDbEntity
  8
universal_board
  6
ByLayer
 62
  256
370
   -1
100
AcDbCircle
 10
39.99999999999696
 20
18.21999999999994
 40
0.5
  0
CIRCLE
  5
25B
100
AcDbEntity
  8
universal_board
  6
ByLayer
 62
  256
370
   -1
100
AcDbCircle
 10
47.6199999999966
 20
20.75999999999999
 40
0.5
  0
CIRCLE
  5
25C
100
AcDbEntity
  8
universal_board
  6
ByLayer
 62
  256
370
   -1
100
AcDbCircle
 10
45.07999999999672
 20
20.75999999999997
 40
0.5
  0
CIRCLE
  5
25D
100
AcDbEntity
  8
universal_board
  6
ByLayer
 62
  256
370
   -1
100
AcDbCircle
 10
42.53999999999684
 20
20.75999999999997
 40
0.5
  0
CIRCLE
  5
25E
100
AcDbEntity
  8
universal_board
  6
ByLayer
 62
  256
370
   -1
100
AcDbCircle
 10
39.99999999999696
 20
20.75999999999996
 40
0.5
  0
CIRCLE
  5
25F
100
AcDbEntity
  8
universal_board
  6
ByLayer
 62
  256
370
   -1
100
AcDbCircle
 10
47.6199999999966
 20
23.3
 40
0.5
  0
CIRCLE
  5
260
100
AcDbEntity
  8
universal_board
  6
ByLayer
 62
  256
370
   -1
100
AcDbCircle
 10
45.07999999999672
 20
23.29999999999998
 40
0.5
  0
CIRCLE
  5
261
100
AcDbEntity
  8
universal_board
  6
ByLayer
 62
  256
370
   -1
100
AcDbCircle
 10
42.53999999999685
 20
23.29999999999999
 40
0.5
  0
CIRCLE
  5
262
100
AcDbEntity
  8
universal_board
  6
ByLayer
 62
  256
370
   -1
100
AcDbCircle
 10
39.99999999999697
 20
23.29999999999998
 40
0.5
  0
CIRCLE
  5
263
100
AcDbEntity
  8
universal_board
  6
ByLayer
 62
  256
370
   -1
100
AcDbCircle
 10
47.61999999999659
 20
25.84000000000003
 40
0.5
  0
CIRCLE
  5
264
100
AcDbEntity
  8
universal_board
  6
ByLayer
 62
  256
370
   -1
100
AcDbCircle
 10
45.07999999999672
 20
25.84
 40
0.5
  0
CIRCLE
  5
265
100
AcDbEntity
  8
universal_board
  6
ByLayer
 62
  256
370
   -1
100
AcDbCircle
 10
42.53999999999684
 20
25.84
 40
0.5
  0
CIRCLE
  5
266
100
AcDbEntity
  8
universal_board
  6
ByLayer
 62
  256
370
   -1
100
AcDbCircle
 10
39.99999999999696
 20
25.83999999999999
 40
0.5
  0
CIRCLE
  5
267
100
AcDbEntity
  8
universal_board
  6
ByLayer
 62
  256
370
   -1
100
AcDbCircle
 10
67.93999999999568
 20
28.38000000000011
 40
0.5
  0
CIRCLE
  5
268
100
AcDbEntity
  8
universal_board
  6
ByLayer
 62
  256
370
   -1
100
AcDbCircle
 10
70.47999999999557
 20
28.38000000000011
 40
0.5
  0
CIRCLE
  5
269
100
AcDbEntity
  8
universal_board
  6
ByLayer
 62
  256
370
   -1
100
AcDbCircle
 10
73.01999999999546
 20
28.38000000000011
 40
0.5
  0
CIRCLE
  5
26A
100
AcDbEntity
  8
universal_board
  6
ByLayer
 62
  256
370
   -1
100
AcDbCircle
 10
75.55999999999536
 20
28.38000000000011
 40
0.5
  0
CIRCLE
  5
26B
100
AcDbEntity
  8
universal_board
  6
ByLayer
 62
  256
370
   -1
100
AcDbCircle
 10
78.09999999999526
 20
28.38000000000014
 40
0.5
  0
CIRCLE
  5
26C
100
AcDbEntity
  8
universal_board
  6
ByLayer
 62
  256
370
   -1
100
AcDbCircle
 10
80.63999999999514
 20
28.38000000000014
 40
0.5
  0
CIRCLE
  5
26D
100
AcDbEntity
  8
universal_board
  6
ByLayer
 62
  256
370
   -1
100
AcDbCircle
 10
83.17999999999503
 20
28.38000000000017
 40
0.5
  0
CIRCLE
  5
26E
100
AcDbEntity
  8
universal_board
  6
ByLayer
 62
  256
370
   -1
100
AcDbCircle
 10
65.3999999999958
 20
28.38000000000008
 40
0.5
  0
CIRCLE
  5
26F
100
AcDbEntity
  8
universal_board
  6
ByLayer
 62
  256
370
   -1
100
AcDbCircle
 10
62.85999999999592
 20
28.38000000000008
 40
0.5
  0
CIRCLE
  5
270
100
AcDbEntity
  8
universal_board
  6
ByLayer
 62
  256
370
   -1
100
AcDbCircle
 10
60.31999999999604
 20
28.38000000000008
 40
0.5
  0
CIRCLE
  5
271
100
AcDbEntity
  8
universal_board
  6
ByLayer
 62
  256
370
   -1
100
AcDbCircle
 10
57.77999999999616
 20
28.38000000000008
 40
0.5
  0
CIRCLE
  5
272
100
AcDbEntity
  8
universal_board
  6
ByLayer
 62
  256
370
   -1
100
AcDbCircle
 10
55.23999999999629
 20
28.38000000000008
 40
0.5
  0
CIRCLE
  5
273
100
AcDbEntity
  8
universal_board
  6
ByLayer
 62
  256
370
   -1
100
AcDbCircle
 10
52.69999999999641
 20
28.38000000000005
 40
0.5
  0
CIRCLE
  5
274
100
AcDbEntity
  8
universal_board
  6
ByLayer
 62
  256
370
   -1
100
AcDbCircle
 10
50.15999999999653
 20
28.38000000000008
 40
0.5
  0
CIRCLE
  5
275
100
AcDbEntity
  8
universal_board
  6
ByLayer
 62
  256
370
   -1
100
AcDbCircle
 10
47.61999999999658
 20
28.38000000000005
 40
0.5
  0
CIRCLE
  5
276
100
AcDbEntity
  8
universal_board
  6
ByLayer
 62
  256
370
   -1
100
AcDbCircle
 10
45.0799999999967
 20
28.38000000000002
 40
0.5
  0
CIRCLE
  5
277
100
AcDbEntity
  8
universal_board
  6
ByLayer
 62
  256
370
   -1
100
AcDbCircle
 10
42.53999999999682
 20
28.38000000000002
 40
0.5
  0
CIRCLE
  5
278
100
AcDbEntity
  8
universal_board
  6
ByLayer
 62
  256
370
   -1
100
AcDbCircle
 10
39.99999999999695
 20
28.38000000000002
 40
0.5
  0
CIRCLE
  5
279
100
AcDbEntity
  8
universal_board
  6
ByLayer
 62
  256
370
   -1
100
AcDbCircle
 10
67.93999999999566
 20
30.92000000000009
 40
0.5
  0
CIRCLE
  5
27A
100
AcDbEntity
  8
universal_board
  6
ByLayer
 62
  256
370
   -1
100
AcDbCircle
 10
70.47999999999556
 20
30.92000000000012
 40
0.5
  0
CIRCLE
  5
27B
100
AcDbEntity
  8
universal_board
  6
ByLayer
 62
  256
370
   -1
100
AcDbCircle
 10
73.01999999999545
 20
30.92000000000012
 40
0.5
  0
CIRCLE
  5
27C
100
AcDbEntity
  8
universal_board
  6
ByLayer
 62
  256
370
   -1
100
AcDbCircle
 10
75.55999999999534
 20
30.92000000000014
 40
0.5
  0
CIRCLE
  5
27D
100
AcDbEntity
  8
universal_board
  6
ByLayer
 62
  256
370
   -1
100
AcDbCircle
 10
78.09999999999523
 20
30.92000000000014
 40
0.5
  0
CIRCLE
  5
27E
100
AcDbEntity
  8
universal_board
  6
ByLayer
 62
  256
370
   -1
100
AcDbCircle
 10
80.63999999999513
 20
30.92000000000014
 40
0.5
  0
CIRCLE
  5
27F
100
AcDbEntity
  8
universal_board
  6
ByLayer
 62
  256
370
   -1
100
AcDbCircle
 10
83.17999999999502
 20
30.92000000000017
 40
0.5
  0
CIRCLE
  5
280
100
AcDbEntity
  8
universal_board
  6
ByLayer
 62
  256
370
   -1
100
AcDbCircle
 10
65.39999999999579
 20
30.92000000000009
 40
0.5
  0
CIRCLE
  5
281
100
AcDbEntity
  8
universal_board
  6
ByLayer
 62
  256
370
   -1
100
AcDbCircle
 10
62.85999999999591
 20
30.9200000000001
 40
0.5
  0
CIRCLE
  5
282
100
AcDbEntity
  8
universal_board
  6
ByLayer
 62
  256
370
   -1
100
AcDbCircle
 10
60.31999999999603
 20
30.92000000000009
 40
0.5
  0
CIRCLE
  5
283
100
AcDbEntity
  8
universal_board
  6
ByLayer
 62
  256
370
   -1
100
AcDbCircle
 10
57.77999999999615
 20
30.92000000000009
 40
0.5
  0
CIRCLE
  5
284
100
AcDbEntity
  8
universal_board
  6
ByLayer
 62
  256
370
   -1
100
AcDbCircle
 10
55.23999999999627
 20
30.92000000000009
 40
0.5
  0
CIRCLE
  5
285
100
AcDbEntity
  8
universal_board
  6
ByLayer
 62
  256
370
   -1
100
AcDbCircle
 10
52.69999999999639
 20
30.92000000000007
 40
0.5
  0
CIRCLE
  5
286
100
AcDbEntity
  8
universal_board
  6
ByLayer
 62
  256
370
   -1
100
AcDbCircle
 10
50.15999999999652
 20
30.92000000000009
 40
0.5
  0
CIRCLE
  5
287
100
AcDbEntity
  8
universal_board
  6
ByLayer
 62
  256
370
   -1
100
AcDbCircle
 10
47.61999999999657
 20
30.92000000000006
 40
0.5
  0
CIRCLE
  5
288
100
AcDbEntity
  8
universal_board
  6
ByLayer
 62
  256
370
   -1
100
AcDbCircle
 10
45.07999999999669
 20
30.92000000000003
 40
0.5
  0
CIRCLE
  5
289
100
AcDbEntity
  8
universal_board
  6
ByLayer
 62
  256
370
   -1
100
AcDbCircle
 10
42.53999999999681
 20
30.92000000000003
 40
0.5
  0
CIRCLE
  5
28A
100
AcDbEntity
  8
universal_board
  6
ByLayer
 62
  256
370
   -1
100
AcDbCircle
 10
39.99999999999693
 20
30.92000000000004
 40
0.5
  0
CIRCLE
  5
28B
100
AcDbEntity
  8
universal_board
  6
ByLayer
 62
  256
370
   -1
100
AcDbCircle
 10
67.93999999999566
 20
33.46000000000009
 40
0.5
  0
CIRCLE
  5
28C
100
AcDbEntity
  8
universal_board
  6
ByLayer
 62
  256
370
   -1
100
AcDbCircle
 10
70.47999999999556
 20
33.46000000000012
 40
0.5
  0
CIRCLE
  5
28D
100
AcDbEntity
  8
universal_board
  6
ByLayer
 62
  256
370
   -1
100
AcDbCircle
 10
73.01999999999545
 20
33.46000000000012
 40
0.5
  0
CIRCLE
  5
28E
100
AcDbEntity
  8
universal_board
  6
ByLayer
 62
  256
370
   -1
100
AcDbCircle
 10
75.55999999999534
 20
33.46000000000015
 40
0.5
  0
CIRCLE
  5
28F
100
AcDbEntity
  8
universal_board
  6
ByLayer
 62
  256
370
   -1
100
AcDbCircle
 10
78.09999999999523
 20
33.46000000000015
 40
0.5
  0
CIRCLE
  5
290
100
AcDbEntity
  8
universal_board
  6
ByLayer
 62
  256
370
   -1
100
AcDbCircle
 10
80.63999999999513
 20
33.46000000000015
 40
0.5
  0
CIRCLE
  5
291
100
AcDbEntity
  8
universal_board
  6
ByLayer
 62
  256
370
   -1
100
AcDbCircle
 10
83.17999999999502
 20
33.46000000000018
 40
0.5
  0
CIRCLE
  5
292
100
AcDbEntity
  8
universal_board
  6
ByLayer
 62
  256
370
   -1
100
AcDbCircle
 10
65.39999999999579
 20
33.46000000000009
 40
0.5
  0
CIRCLE
  5
293
100
AcDbEntity
  8
universal_board
  6
ByLayer
 62
  256
370
   -1
100
AcDbCircle
 10
62.85999999999591
 20
33.46000000000012
 40
0.5
  0
CIRCLE
  5
294
100
AcDbEntity
  8
universal_board
  6
ByLayer
 62
  256
370
   -1
100
AcDbCircle
 10
60.31999999999603
 20
33.46000000000009
 40
0.5
  0
CIRCLE
  5
295
100
AcDbEntity
  8
universal_board
  6
ByLayer
 62
  256
370
   -1
100
AcDbCircle
 10
57.77999999999615
 20
33.46000000000009
 40
0.5
  0
CIRCLE
  5
296
100
AcDbEntity
  8
universal_board
  6
ByLayer
 62
  256
370
   -1
100
AcDbCircle
 10
55.23999999999627
 20
33.46000000000009
 40
0.5
  0
CIRCLE
  5
297
100
AcDbEntity
  8
universal_board
  6
ByLayer
 62
  256
370
   -1
100
AcDbCircle
 10
52.69999999999639
 20
33.46000000000009
 40
0.5
  0
CIRCLE
  5
298
100
AcDbEntity
  8
universal_board
  6
ByLayer
 62
  256
370
   -1
100
AcDbCircle
 10
50.15999999999652
 20
33.46000000000009
 40
0.5
  0
CIRCLE
  5
299
100
AcDbEntity
  8
universal_board
  6
ByLayer
 62
  256
370
   -1
100
AcDbCircle
 10
47.61999999999657
 20
33.46000000000006
 40
0.5
  0
CIRCLE
  5
29A
100
AcDbEntity
  8
universal_board
  6
ByLayer
 62
  256
370
   -1
100
AcDbCircle
 10
45.07999999999669
 20
33.46000000000004
 40
0.5
  0
CIRCLE
  5
29B
100
AcDbEntity
  8
universal_board
  6
ByLayer
 62
  256
370
   -1
100
AcDbCircle
 10
42.53999999999681
 20
33.46000000000004
 40
0.5
  0
CIRCLE
  5
29C
100
AcDbEntity
  8
universal_board
  6
ByLayer
 62
  256
370
   -1
100
AcDbCircle
 10
39.99999999999693
 20
33.46000000000006
 40
0.5
  0
CIRCLE
  5
29D
100
AcDbEntity
  8
universal_board
  6
ByLayer
 62
  256
370
   -1
100
AcDbCircle
 10
67.93999999999565
 20
36.00000000000011
 40
0.5
  0
CIRCLE
  5
29E
100
AcDbEntity
  8
universal_board
  6
ByLayer
 62
  256
370
   -1
100
AcDbCircle
 10
70.47999999999554
 20
36.00000000000014
 40
0.5
  0
CIRCLE
  5
29F
100
AcDbEntity
  8
universal_board
  6
ByLayer
 62
  256
370
   -1
100
AcDbCircle
 10
73.01999999999543
 20
36.00000000000014
 40
0.5
  0
CIRCLE
  5
2A0
100
AcDbEntity
  8
universal_board
  6
ByLayer
 62
  256
370
   -1
100
AcDbCircle
 10
75.55999999999533
 20
36.00000000000014
 40
0.5
  0
CIRCLE
  5
2A1
100
AcDbEntity
  8
universal_board
  6
ByLayer
 62
  256
370
   -1
100
AcDbCircle
 10
78.09999999999523
 20
36.00000000000017
 40
0.5
  0
CIRCLE
  5
2A2
100
AcDbEntity
  8
universal_board
  6
ByLayer
 62
  256
370
   -1
100
AcDbCircle
 10
80.63999999999511
 20
36.00000000000017
 40
0.5
  0
CIRCLE
  5
2A3
100
AcDbEntity
  8
universal_board
  6
ByLayer
 62
  256
370
   -1
100
AcDbCircle
 10
83.179999999995
 20
36.0000000000002
 40
0.5
  0
CIRCLE
  5
2A4
100
AcDbEntity
  8
universal_board
  6
ByLayer
 62
  256
370
   -1
100
AcDbCircle
 10
65.39999999999577
 20
36.00000000000011
 40
0.5
  0
CIRCLE
  5
2A5
100
AcDbEntity
  8
universal_board
  6
ByLayer
 62
  256
370
   -1
100
AcDbCircle
 10
62.85999999999589
 20
36.00000000000013
 40
0.5
  0
CIRCLE
  5
2A6
100
AcDbEntity
  8
universal_board
  6
ByLayer
 62
  256
370
   -1
100
AcDbCircle
 10
60.31999999999601
 20
36.00000000000011
 40
0.5
  0
CIRCLE
  5
2A7
100
AcDbEntity
  8
universal_board
  6
ByLayer
 62
  256
370
   -1
100
AcDbCircle
 10
57.77999999999614
 20
36.00000000000011
 40
0.5
  0
CIRCLE
  5
2A8
100
AcDbEntity
  8
universal_board
  6
ByLayer
 62
  256
370
   -1
100
AcDbCircle
 10
55.23999999999626
 20
36.00000000000011
 40
0.5
  0
CIRCLE
  5
2A9
100
AcDbEntity
  8
universal_board
  6
ByLayer
 62
  256
370
   -1
100
AcDbCircle
 10
52.69999999999638
 20
36.0000000000001
 40
0.5
  0
CIRCLE
  5
2AA
100
AcDbEntity
  8
universal_board
  6
ByLayer
 62
  256
370
   -1
100
AcDbCircle
 10
50.1599999999965
 20
36.00000000000011
 40
0.5
  0
CIRCLE
  5
2AB
100
AcDbEntity
  8
universal_board
  6
ByLayer
 62
  256
370
   -1
100
AcDbCircle
 10
47.61999999999655
 20
36.00000000000009
 40
0.5
  0
CIRCLE
  5
2AC
100
AcDbEntity
  8
universal_board
  6
ByLayer
 62
  256
370
   -1
100
AcDbCircle
 10
45.07999999999667
 20
36.00000000000006
 40
0.5
  0
CIRCLE
  5
2AD
100
AcDbEntity
  8
universal_board
  6
ByLayer
 62
  256
370
   -1
100
AcDbCircle
 10
42.5399999999968
 20
36.00000000000006
 40
0.5
  0
CIRCLE
  5
2AE
100
AcDbEntity
  8
universal_board
  6
ByLayer
 62
  256
370
   -1
100
AcDbCircle
 10
39.99999999999692
 20
36.00000000000007
 40
0.5
  0
CIRCLE
  5
2AF
100
AcDbEntity
  8
universal_board
  6
ByLayer
 62
  256
370
   -1
100
AcDbCircle
 10
37.45999999999708
 20
28.38000000000004
 40
0.5
  0
CIRCLE
  5
2B0
100
AcDbEntity
  8
universal_board
  6
ByLayer
 62
  256
370
   -1
100
AcDbCircle
 10
37.45999999999708
 20
30.92000000000007
 40
0.5
  0
CIRCLE
  5
2B1
100
AcDbEntity
  8
universal_board
  6
ByLayer
 62
  256
370
   -1
100
AcDbCircle
 10
37.45999999999708
 20
33.46000000000011
 40
0.5
  0
CIRCLE
  5
2B2
100
AcDbEntity
  8
universal_board
  6
ByLayer
 62
  256
370
   -1
100
AcDbCircle
 10
37.45999999999709
 20
2.979999999999805
 40
0.5
  0
CIRCLE
  5
2B3
100
AcDbEntity
  8
universal_board
  6
ByLayer
 62
  256
370
   -1
100
AcDbCircle
 10
37.45999999999711
 20
5.519999999999833
 40
0.5
  0
CIRCLE
  5
2B4
100
AcDbEntity
  8
universal_board
  6
ByLayer
 62
  256
370
   -1
100
AcDbCircle
 10
37.45999999999711
 20
8.059999999999853
 40
0.5
  0
CIRCLE
  5
2B5
100
AcDbEntity
  8
universal_board
  6
ByLayer
 62
  256
370
   -1
100
AcDbCircle
 10
37.45999999999709
 20
10.59999999999988
 40
0.5
  0
CIRCLE
  5
2B6
100
AcDbEntity
  8
universal_board
  6
ByLayer
 62
  256
370
   -1
100
AcDbCircle
 10
37.45999999999708
 20
13.1399999999999
 40
0.5
  0
CIRCLE
  5
2B7
100
AcDbEntity
  8
universal_board
  6
ByLayer
 62
  256
370
   -1
100
AcDbCircle
 10
37.45999999999709
 20
15.67999999999992
 40
0.5
  0
CIRCLE
  5
2B8
100
AcDbEntity
  8
universal_board
  6
ByLayer
 62
  256
370
   -1
100
AcDbCircle
 10
37.45999999999709
 20
18.21999999999993
 40
0.5
  0
CIRCLE
  5
2B9
100
AcDbEntity
  8
universal_board
  6
ByLayer
 62
  256
370
   -1
100
AcDbCircle
 10
37.45999999999708
 20
20.75999999999996
 40
0.5
  0
CIRCLE
  5
2BA
100
AcDbEntity
  8
universal_board
  6
ByLayer
 62
  256
370
   -1
100
AcDbCircle
 10
37.45999999999709
 20
23.29999999999997
 40
0.5
  0
CIRCLE
  5
2BB
100
AcDbEntity
  8
universal_board
  6
ByLayer
 62
  256
370
   -1
100
AcDbCircle
 10
37.45999999999708
 20
25.84
 40
0.5
  0
CIRCLE
  5
2BC
100
AcDbEntity
  8
universal_board
  6
ByLayer
 62
  256
370
   -1
100
AcDbCircle
 10
37.45999999999707
 20
36.00000000000014
 40
0.5
  0
LINE
  5
2BD
100
AcDbEntity
  8
universal_board
  6
ByLayer
 62
  256
370
   -1
100
AcDbLine
 10
84.44999999999463
 20
37.2699999999997
 11
84.44999999999476
 21
1.709999999999695
  0
LINE
  5
2BE
100
AcDbEntity
  8
universal_board
  6
ByLayer
 62
  256
370
   -1
100
AcDbLine
 10
36.18999999999701
 20
37.2699999999999
 11
36.18999999999715
 21
1.709999999999582
  0
LINE
  5
2BF
100
AcDbEntity
  8
universal_board
  6
ByLayer
 62
  256
370
   -1
100
AcDbLine
 10
38.72999999999691
 20
37.2699999999999
 11
38.72999999999704
 21
1.709999999999582
  0
LINE
  5
2C0
100
AcDbEntity
  8
universal_board
  6
ByLayer
 62
  256
370
   -1
100
AcDbLine
 10
41.2699999999968
 20
37.2699999999999
 11
41.26999999999693
 21
1.709999999999582
  0
LINE
  5
2C1
100
AcDbEntity
  8
universal_board
  6
ByLayer
 62
  256
370
   -1
100
AcDbLine
 10
43.80999999999669
 20
37.2699999999999
 11
43.80999999999683
 21
1.709999999999582
  0
LINE
  5
2C2
100
AcDbEntity
  8
universal_board
  6
ByLayer
 62
  256
370
   -1
100
AcDbLine
 10
46.34999999999658
 20
37.2699999999999
 11
46.34999999999672
 21
1.709999999999582
  0
LINE
  5
2C3
100
AcDbEntity
  8
universal_board
  6
ByLayer
 62
  256
370
   -1
100
AcDbLine
 10
48.88999999999648
 20
37.2699999999999
 11
48.88999999999661
 21
1.709999999999582
  0
LINE
  5
2C4
100
AcDbEntity
  8
universal_board
  6
ByLayer
 62
  256
370
   -1
100
AcDbLine
 10
51.42999999999637
 20
37.2699999999999
 11
51.4299999999965
 21
1.709999999999582
  0
LINE
  5
2C5
100
AcDbEntity
  8
universal_board
  6
ByLayer
 62
  256
370
   -1
100
AcDbLine
 10
53.96999999999626
 20
37.2699999999999
 11
53.9699999999964
 21
1.709999999999582
  0
LINE
  5
2C6
100
AcDbEntity
  8
universal_board
  6
ByLayer
 62
  256
370
   -1
100
AcDbLine
 10
56.50999999999615
 20
37.2699999999999
 11
56.50999999999629
 21
1.709999999999582
  0
LINE
  5
2C7
100
AcDbEntity
  8
universal_board
  6
ByLayer
 62
  256
370
   -1
100
AcDbLine
 10
59.04999999999605
 20
37.2699999999999
 11
59.04999999999618
 21
1.709999999999582
  0
LINE
  5
2C8
100
AcDbEntity
  8
universal_board
  6
ByLayer
 62
  256
370
   -1
100
AcDbLine
 10
61.58999999999594
 20
37.2699999999999
 11
61.58999999999607
 21
1.709999999999582
  0
LINE
  5
2C9
100
AcDbEntity
  8
universal_board
  6
ByLayer
 62
  256
370
   -1
100
AcDbLine
 10
64.12999999999583
 20
37.2699999999999
 11
64.12999999999596
 21
1.709999999999582
  0
LINE
  5
2CA
100
AcDbEntity
  8
universal_board
  6
ByLayer
 62
  256
370
   -1
100
AcDbLine
 10
66.66999999999572
 20
37.2699999999999
 11
66.66999999999587
 21
1.709999999999582
  0
LINE
  5
2CB
100
AcDbEntity
  8
universal_board
  6
ByLayer
 62
  256
370
   -1
100
AcDbLine
 10
69.20999999999562
 20
37.2699999999999
 11
69.20999999999574
 21
1.709999999999582
  0
LINE
  5
2CC
100
AcDbEntity
  8
universal_board
  6
ByLayer
 62
  256
370
   -1
100
AcDbLine
 10
71.74999999999551
 20
37.2699999999999
 11
71.74999999999565
 21
1.709999999999582
  0
LINE
  5
2CD
100
AcDbEntity
  8
universal_board
  6
ByLayer
 62
  256
370
   -1
100
AcDbLine
 10
74.2899999999954
 20
37.2699999999999
 11
74.28999999999553
 21
1.709999999999582
  0
LINE
  5
2CE
100
AcDbEntity
  8
universal_board
  6
ByLayer
 62
  256
370
   -1
100
AcDbLine
 10
76.82999999999529
 20
37.2699999999999
 11
76.82999999999544
 21
1.709999999999582
  0
LINE
  5
2CF
100
AcDbEntity
  8
universal_board
  6
ByLayer
 62
  256
370
   -1
100
AcDbLine
 10
79.36999999999519
 20
37.2699999999999
 11
79.36999999999531
 21
1.709999999999582
  0
LINE
  5
2D0
100
AcDbEntity
  8
universal_board
  6
ByLayer
 62
  256
370
   -1
100
AcDbLine
 10
81.90999999999508
 20
37.2699999999999
 11
81.90999999999522
 21
1.709999999999582
  0
LINE
  5
2D1
100
AcDbEntity
  8
socket_header
  6
ByLayer
 62
  256
370
   -1
100
AcDbLine
 10
81.90999999999516
 20
75.37000000000036
 11
81.90999999999516
 21
77.91000000000076
  0
LINE
  5
2D2
100
AcDbEntity
  8
socket_header
  6
ByLayer
 62
  256
370
   -1
100
AcDbLine
 10
81.90999999999516
 20
72.83000000000034
 11
81.90999999999516
 21
75.37000000000074
  0
LINE
  5
2D3
100
AcDbEntity
  8
socket_header
  6
ByLayer
 62
  256
370
   -1
100
AcDbLine
 10
81.90999999999528
 20
60.13000000000022
 11
81.90999999999528
 21
62.67000000000064
  0
LINE
  5
2D4
100
AcDbEntity
  8
socket_header
  6
ByLayer
 62
  256
370
   -1
100
AcDbLine
 10
81.90999999999528
 20
57.59000000000021
 11
81.90999999999528
 21
60.13000000000063
  0
LINE
  5
2D5
100
AcDbEntity
  8
socket_header
  6
ByLayer
 62
  256
370
   -1
100
AcDbLine
 10
81.90999999999528
 20
55.05000000000019
 11
81.90999999999528
 21
57.5900000000006
  0
LINE
  5
2D6
100
AcDbEntity
  8
socket_header
  6
ByLayer
 62
  256
370
   -1
100
AcDbLine
 10
81.90999999999528
 20
52.51000000000018
 11
81.90999999999528
 21
55.05000000000058
  0
LINE
  5
2D7
100
AcDbEntity
  8
socket_header
  6
ByLayer
 62
  256
370
   -1
100
AcDbLine
 10
81.90999999999536
 20
49.97000000000016
 11
81.90999999999536
 21
52.51000000000056
  0
LINE
  5
2D8
100
AcDbEntity
  8
socket_header
  6
ByLayer
 62
  256
370
   -1
100
AcDbLine
 10
81.90999999999536
 20
47.43000000000013
 11
81.90999999999536
 21
49.97000000000056
  0
LINE
  5
2D9
100
AcDbEntity
  8
socket_header
  6
ByLayer
 62
  256
370
   -1
100
AcDbLine
 10
81.90999999999536
 20
44.89000000000011
 11
81.90999999999536
 21
47.43000000000053
  0
LINE
  5
2DA
100
AcDbEntity
  8
socket_header
  6
ByLayer
 62
  256
370
   -1
100
AcDbLine
 10
84.44999999999507
 20
75.37000000000033
 11
84.44999999999507
 21
77.91000000000072
  0
LINE
  5
2DB
100
AcDbEntity
  8
socket_header
  6
ByLayer
 62
  256
370
   -1
100
AcDbLine
 10
84.44999999999507
 20
77.91000000000072
 11
81.90999999999468
 21
77.91000000000072
  0
LINE
  5
2DC
100
AcDbEntity
  8
socket_header
  6
ByLayer
 62
  256
370
   -1
100
AcDbLine
 10
81.90999999999468
 20
77.91000000000072
 11
81.90999999999468
 21
75.37000000000033
  0
LINE
  5
2DD
100
AcDbEntity
  8
socket_header
  6
ByLayer
 62
  256
370
   -1
100
AcDbLine
 10
81.90999999999468
 20
75.37000000000033
 11
84.44999999999507
 21
75.37000000000033
  0
CIRCLE
  5
2DE
100
AcDbEntity
  8
socket_header
  6
ByLayer
 62
  256
370
   -1
100
AcDbCircle
 10
83.17999999999486
 20
76.64000000000051
 40
0.3
  0
LINE
  5
2DF
100
AcDbEntity
  8
socket_header
  6
ByLayer
 62
  256
370
   -1
100
AcDbLine
 10
84.44999999999507
 20
72.83000000000031
 11
84.44999999999507
 21
75.3700000000007
  0
LINE
  5
2E0
100
AcDbEntity
  8
socket_header
  6
ByLayer
 62
  256
370
   -1
100
AcDbLine
 10
81.90999999999468
 20
75.3700000000007
 11
81.90999999999468
 21
72.83000000000031
  0
LINE
  5
2E1
100
AcDbEntity
  8
socket_header
  6
ByLayer
 62
  256
370
   -1
100
AcDbLine
 10
81.90999999999468
 20
72.83000000000031
 11
84.44999999999507
 21
72.83000000000031
  0
CIRCLE
  5
2E2
100
AcDbEntity
  8
socket_header
  6
ByLayer
 62
  256
370
   -1
100
AcDbCircle
 10
83.17999999999486
 20
74.10000000000049
 40
0.3
  0
LINE
  5
2E3
100
AcDbEntity
  8
socket_header
  6
ByLayer
 62
  256
370
   -1
100
AcDbLine
 10
81.90999999999477
 20
62.67000000000021
 11
84.44999999999516
 21
62.67000000000021
  0
LINE
  5
2E4
100
AcDbEntity
  8
socket_header
  6
ByLayer
 62
  256
370
   -1
100
AcDbLine
 10
84.44999999999516
 20
60.13000000000019
 11
84.44999999999516
 21
62.67000000000063
  0
LINE
  5
2E5
100
AcDbEntity
  8
socket_header
  6
ByLayer
 62
  256
370
   -1
100
AcDbLine
 10
81.90999999999477
 20
62.67000000000063
 11
81.90999999999477
 21
60.13000000000019
  0
LINE
  5
2E6
100
AcDbEntity
  8
socket_header
  6
ByLayer
 62
  256
370
   -1
100
AcDbLine
 10
81.90999999999477
 20
60.13000000000019
 11
84.44999999999516
 21
60.13000000000019
  0
CIRCLE
  5
2E7
100
AcDbEntity
  8
socket_header
  6
ByLayer
 62
  256
370
   -1
100
AcDbCircle
 10
83.17999999999498
 20
61.40000000000042
 40
0.3
  0
LINE
  5
2E8
100
AcDbEntity
  8
socket_header
  6
ByLayer
 62
  256
370
   -1
100
AcDbLine
 10
84.44999999999516
 20
57.59000000000018
 11
84.44999999999516
 21
60.13000000000061
  0
LINE
  5
2E9
100
AcDbEntity
  8
socket_header
  6
ByLayer
 62
  256
370
   -1
100
AcDbLine
 10
81.90999999999477
 20
60.13000000000061
 11
81.90999999999477
 21
57.59000000000018
  0
LINE
  5
2EA
100
AcDbEntity
  8
socket_header
  6
ByLayer
 62
  256
370
   -1
100
AcDbLine
 10
81.90999999999477
 20
57.59000000000018
 11
84.44999999999516
 21
57.59000000000018
  0
CIRCLE
  5
2EB
100
AcDbEntity
  8
socket_header
  6
ByLayer
 62
  256
370
   -1
100
AcDbCircle
 10
83.17999999999498
 20
58.8600000000004
 40
0.3
  0
LINE
  5
2EC
100
AcDbEntity
  8
socket_header
  6
ByLayer
 62
  256
370
   -1
100
AcDbLine
 10
84.44999999999516
 20
55.05000000000017
 11
84.44999999999516
 21
57.59000000000056
  0
LINE
  5
2ED
100
AcDbEntity
  8
socket_header
  6
ByLayer
 62
  256
370
   -1
100
AcDbLine
 10
81.90999999999477
 20
57.59000000000056
 11
81.90999999999477
 21
55.05000000000017
  0
LINE
  5
2EE
100
AcDbEntity
  8
socket_header
  6
ByLayer
 62
  256
370
   -1
100
AcDbLine
 10
81.90999999999477
 20
55.05000000000017
 11
84.44999999999516
 21
55.05000000000017
  0
CIRCLE
  5
2EF
100
AcDbEntity
  8
socket_header
  6
ByLayer
 62
  256
370
   -1
100
AcDbCircle
 10
83.17999999999498
 20
56.32000000000038
 40
0.3
  0
LINE
  5
2F0
100
AcDbEntity
  8
socket_header
  6
ByLayer
 62
  256
370
   -1
100
AcDbLine
 10
84.44999999999516
 20
52.51000000000015
 11
84.44999999999516
 21
55.05000000000055
  0
LINE
  5
2F1
100
AcDbEntity
  8
socket_header
  6
ByLayer
 62
  256
370
   -1
100
AcDbLine
 10
81.90999999999477
 20
55.05000000000055
 11
81.90999999999477
 21
52.51000000000015
  0
LINE
  5
2F2
100
AcDbEntity
  8
socket_header
  6
ByLayer
 62
  256
370
   -1
100
AcDbLine
 10
81.90999999999477
 20
52.51000000000015
 11
84.44999999999516
 21
52.51000000000015
  0
CIRCLE
  5
2F3
100
AcDbEntity
  8
socket_header
  6
ByLayer
 62
  256
370
   -1
100
AcDbCircle
 10
83.17999999999498
 20
53.78000000000035
 40
0.3
  0
LINE
  5
2F4
100
AcDbEntity
  8
socket_header
  6
ByLayer
 62
  256
370
   -1
100
AcDbLine
 10
84.44999999999527
 20
49.97000000000013
 11
84.44999999999527
 21
52.51000000000053
  0
LINE
  5
2F5
100
AcDbEntity
  8
socket_header
  6
ByLayer
 62
  256
370
   -1
100
AcDbLine
 10
81.90999999999488
 20
52.51000000000053
 11
81.90999999999488
 21
49.97000000000013
  0
LINE
  5
2F6
100
AcDbEntity
  8
socket_header
  6
ByLayer
 62
  256
370
   -1
100
AcDbLine
 10
81.90999999999488
 20
49.97000000000013
 11
84.44999999999527
 21
49.97000000000013
  0
CIRCLE
  5
2F7
100
AcDbEntity
  8
socket_header
  6
ByLayer
 62
  256
370
   -1
100
AcDbCircle
 10
83.17999999999506
 20
51.24000000000031
 40
0.3
  0
LINE
  5
2F8
100
AcDbEntity
  8
socket_header
  6
ByLayer
 62
  256
370
   -1
100
AcDbLine
 10
84.44999999999527
 20
47.43000000000012
 11
84.44999999999527
 21
49.97000000000052
  0
LINE
  5
2F9
100
AcDbEntity
  8
socket_header
  6
ByLayer
 62
  256
370
   -1
100
AcDbLine
 10
81.90999999999488
 20
49.97000000000052
 11
81.90999999999488
 21
47.43000000000012
  0
LINE
  5
2FA
100
AcDbEntity
  8
socket_header
  6
ByLayer
 62
  256
370
   -1
100
AcDbLine
 10
81.90999999999488
 20
47.43000000000012
 11
84.44999999999527
 21
47.43000000000012
  0
CIRCLE
  5
2FB
100
AcDbEntity
  8
socket_header
  6
ByLayer
 62
  256
370
   -1
100
AcDbCircle
 10
83.17999999999506
 20
48.7000000000003
 40
0.3
  0
LINE
  5
2FC
100
AcDbEntity
  8
socket_header
  6
ByLayer
 62
  256
370
   -1
100
AcDbLine
 10
84.44999999999527
 20
44.8900000000001
 11
84.44999999999527
 21
47.4300000000005
  0
LINE
  5
2FD
100
AcDbEntity
  8
socket_header
  6
ByLayer
 62
  256
370
   -1
100
AcDbLine
 10
81.90999999999488
 20
47.4300000000005
 11
81.90999999999488
 21
44.8900000000001
  0
LINE
  5
2FE
100
AcDbEntity
  8
socket_header
  6
ByLayer
 62
  256
370
   -1
100
AcDbLine
 10
81.90999999999488
 20
44.8900000000001
 11
84.44999999999527
 21
44.8900000000001
  0
CIRCLE
  5
2FF
100
AcDbEntity
  8
socket_header
  6
ByLayer
 62
  256
370
   -1
100
AcDbCircle
 10
83.17999999999506
 20
46.1600000000003
 40
0.3
  0
LINE
  5
300
100
AcDbEntity
  8
socket_header
  6
ByLayer
 62
  256
370
   -1
100
AcDbLine
 10
84.44999999999527
 20
42.35000000000007
 11
84.44999999999527
 21
44.89000000000048
  0
LINE
  5
301
100
AcDbEntity
  8
socket_header
  6
ByLayer
 62
  256
370
   -1
100
AcDbLine
 10
81.90999999999488
 20
44.89000000000048
 11
81.90999999999488
 21
42.35000000000007
  0
LINE
  5
302
100
AcDbEntity
  8
socket_header
  6
ByLayer
 62
  256
370
   -1
100
AcDbLine
 10
81.90999999999488
 20
42.35000000000007
 11
84.44999999999527
 21
42.35000000000007
  0
CIRCLE
  5
303
100
AcDbEntity
  8
socket_header
  6
ByLayer
 62
  256
370
   -1
100
AcDbCircle
 10
83.17999999999506
 20
43.62000000000027
 40
0.3
  0
LINE
  5
304
100
AcDbEntity
  8
socket_header
  6
ByLayer
 62
  256
370
   -1
100
AcDbLine
 10
46.34999999999647
 20
44.89000000000001
 11
48.88999999999687
 21
44.89000000000001
  0
LINE
  5
305
100
AcDbEntity
  8
socket_header
  6
ByLayer
 62
  256
370
   -1
100
AcDbLine
 10
48.88999999999687
 20
42.34999999999999
 11
48.88999999999687
 21
44.89000000000041
  0
LINE
  5
306
100
AcDbEntity
  8
socket_header
  6
ByLayer
 62
  256
370
   -1
100
AcDbLine
 10
46.34999999999647
 20
44.89000000000041
 11
46.34999999999647
 21
42.34999999999999
  0
LINE
  5
307
100
AcDbEntity
  8
socket_header
  6
ByLayer
 62
  256
370
   -1
100
AcDbLine
 10
46.34999999999647
 20
42.34999999999999
 11
48.88999999999687
 21
42.34999999999999
  0
CIRCLE
  5
308
100
AcDbEntity
  8
socket_header
  6
ByLayer
 62
  256
370
   -1
100
AcDbCircle
 10
47.61999999999666
 20
43.62000000000021
 40
0.3
  0
LINE
  5
309
100
AcDbEntity
  8
socket_header
  6
ByLayer
 62
  256
370
   -1
100
AcDbLine
 10
46.34999999999647
 20
47.43000000000004
 11
48.88999999999687
 21
47.43000000000004
  0
LINE
  5
30A
100
AcDbEntity
  8
socket_header
  6
ByLayer
 62
  256
370
   -1
100
AcDbLine
 10
48.88999999999687
 20
44.89000000000001
 11
48.88999999999687
 21
47.43000000000044
  0
LINE
  5
30B
100
AcDbEntity
  8
socket_header
  6
ByLayer
 62
  256
370
   -1
100
AcDbLine
 10
46.34999999999647
 20
47.43000000000044
 11
46.34999999999647
 21
44.89000000000001
  0
LINE
  5
30C
100
AcDbEntity
  8
socket_header
  6
ByLayer
 62
  256
370
   -1
100
AcDbLine
 10
46.34999999999647
 20
44.89000000000001
 11
48.88999999999687
 21
44.89000000000001
  0
CIRCLE
  5
30D
100
AcDbEntity
  8
socket_header
  6
ByLayer
 62
  256
370
   -1
100
AcDbCircle
 10
47.61999999999666
 20
46.16000000000022
 40
0.3
  0
LINE
  5
30E
100
AcDbEntity
  8
socket_header
  6
ByLayer
 62
  256
370
   -1
100
AcDbLine
 10
48.88999999999616
 20
77.91000000000068
 11
48.88999999999616
 21
75.37000000000026
  0
LINE
  5
30F
100
AcDbEntity
  8
socket_header
  6
ByLayer
 62
  256
370
   -1
100
AcDbLine
 10
46.34999999999637
 20
72.83000000000023
 11
48.88999999999677
 21
72.83000000000023
  0
LINE
  5
310
100
AcDbEntity
  8
socket_header
  6
ByLayer
 62
  256
370
   -1
100
AcDbLine
 10
46.34999999999637
 20
72.83000000000023
 11
48.88999999999687
 21
72.83000000000023
  0
LINE
  5
311
100
AcDbEntity
  8
socket_header
  6
ByLayer
 62
  256
370
   -1
100
AcDbLine
 10
46.34999999999637
 20
75.37000000000025
 11
48.88999999999677
 21
75.37000000000025
  0
LINE
  5
312
100
AcDbEntity
  8
socket_header
  6
ByLayer
 62
  256
370
   -1
100
AcDbLine
 10
48.88999999999677
 20
72.83000000000023
 11
48.88999999999677
 21
75.37000000000064
  0
LINE
  5
313
100
AcDbEntity
  8
socket_header
  6
ByLayer
 62
  256
370
   -1
100
AcDbLine
 10
46.34999999999637
 20
72.83000000000023
 11
48.88999999999677
 21
72.83000000000023
  0
CIRCLE
  5
314
100
AcDbEntity
  8
socket_header
  6
ByLayer
 62
  256
370
   -1
100
AcDbCircle
 10
47.61999999999657
 20
74.10000000000043
 40
0.3
  0
LINE
  5
315
100
AcDbEntity
  8
socket_header
  6
ByLayer
 62
  256
370
   -1
100
AcDbLine
 10
46.34999999999637
 20
75.37000000000025
 11
48.88999999999677
 21
75.37000000000025
  0
LINE
  5
316
100
AcDbEntity
  8
socket_header
  6
ByLayer
 62
  256
370
   -1
100
AcDbLine
 10
46.34999999999637
 20
77.91000000000066
 11
46.34999999999637
 21
75.37000000000025
  0
LINE
  5
317
100
AcDbEntity
  8
socket_header
  6
ByLayer
 62
  256
370
   -1
100
AcDbLine
 10
46.34999999999637
 20
75.37000000000025
 11
48.88999999999677
 21
75.37000000000025
  0
CIRCLE
  5
318
100
AcDbEntity
  8
socket_header
  6
ByLayer
 62
  256
370
   -1
100
AcDbCircle
 10
47.61999999999657
 20
76.64000000000046
 40
0.3
  0
LINE
  5
319
100
AcDbEntity
  8
socket_header
  6
ByLayer
 62
  256
370
   -1
100
AcDbLine
 10
46.34999999999637
 20
77.91000000000027
 11
48.88999999999677
 21
77.91000000000027
  0
CIRCLE
  5
31A
100
AcDbEntity
  8
0_wire
  6
ByLayer
 62
  256
370
   -1
100
AcDbCircle
 10
47.61999999999657
 20
74.10000000000043
 40
0.4
  0
CIRCLE
  5
31B
100
AcDbEntity
  8
0_wire
  6
ByLayer
 62
  256
370
   -1
100
AcDbCircle
 10
47.61999999999666
 20
46.16000000000022
 40
0.4
  0
CIRCLE
  5
31C
100
AcDbEntity
  8
0_wire
  6
ByLayer
 62
  256
370
   -1
100
AcDbCircle
 10
83.17999999999498
 20
58.86000000000049
 40
0.4
  0
CIRCLE
  5
31D
100
AcDbEntity
  8
0_wire
  6
ByLayer
 62
  256
370
   -1
100
AcDbCircle
 10
83.17999999999486
 20
76.64000000000051
 40
0.4
  0
CIRCLE
  5
31E
100
AcDbEntity
  8
0_wire
  6
ByLayer
 62
  256
370
   -1
100
AcDbCircle
 10
83.17999999999498
 20
74.10000000000061
 40
0.4
  0
CIRCLE
  5
31F
100
AcDbEntity
  8
0_wire
  6
ByLayer
 62
  256
370
   -1
100
AcDbCircle
 10
83.17999999999506
 20
43.62000000000027
 40
0.4
  0
MTEXT
  5
320
100
AcDbEntity
  8
socket_header
  6
ByLayer
 62
  256
370
   -1
100
AcDbMText
 10
81.66311746301707
 20
40.80341844292722
 30
0
 40
1
 41
1.785555555555556
 71
    4
 72
    1
  1
PS2
  7
azomix
210
0
220
0
230
1
 50
0
 73
    2
 44
1.54
  0
LINE
  5
321
100
AcDbEntity
  8
socket_header
  6
ByLayer
 62
  256
370
   -1
100
AcDbLine
 10
56.50999999999581
 20
77.91000000000076
 11
56.50999999999581
 21
75.37000000000035
  0
LINE
  5
322
100
AcDbEntity
  8
socket_header
  6
ByLayer
 62
  256
370
   -1
100
AcDbLine
 10
53.96999999999601
 20
77.91000000000075
 11
53.96999999999601
 21
75.37000000000033
  0
LINE
  5
323
100
AcDbEntity
  8
socket_header
  6
ByLayer
 62
  256
370
   -1
100
AcDbLine
 10
53.96999999999601
 20
75.37000000000033
 11
56.50999999999642
 21
75.37000000000033
  0
LINE
  5
324
100
AcDbEntity
  8
socket_header
  6
ByLayer
 62
  256
370
   -1
100
AcDbLine
 10
53.96999999999601
 20
77.91000000000035
 11
56.50999999999642
 21
77.91000000000035
  0
LINE
  5
325
100
AcDbEntity
  8
socket_header
  6
ByLayer
 62
  256
370
   -1
100
AcDbLine
 10
59.04999999999569
 20
77.91000000000076
 11
59.04999999999569
 21
75.37000000000035
  0
LINE
  5
326
100
AcDbEntity
  8
socket_header
  6
ByLayer
 62
  256
370
   -1
100
AcDbLine
 10
56.5099999999959
 20
77.91000000000075
 11
56.5099999999959
 21
75.37000000000033
  0
LINE
  5
327
100
AcDbEntity
  8
socket_header
  6
ByLayer
 62
  256
370
   -1
100
AcDbLine
 10
56.5099999999959
 20
75.37000000000033
 11
59.0499999999963
 21
75.37000000000033
  0
LINE
  5
328
100
AcDbEntity
  8
socket_header
  6
ByLayer
 62
  256
370
   -1
100
AcDbLine
 10
56.5099999999959
 20
77.91000000000035
 11
59.0499999999963
 21
77.91000000000035
  0
LINE
  5
329
100
AcDbEntity
  8
0_wire
  6
ByLayer
 62
  256
370
   -1
100
AcDbLine
 10
55.23999999999617
 20
76.64000000000046
 11
47.61999999999666
 21
76.64000000000041
  0
MTEXT
  5
32A
100
AcDbEntity
  8
socket_header
  6
ByLayer
 62
  256
370
   -1
100
AcDbMText
 10
44.66059419774287
 20
76.56101862470206
 30
0
 40
1
 41
2.334134290444941
 71
    4
 72
    1
  1
RST
  7
unicode
210
0
220
0
230
1
 50
0
 73
    2
 44
1.54
  0
LINE
  5
32B
100
AcDbEntity
  8
0_wire
  6
ByLayer
 62
  256
370
   -1
100
AcDbLine
 10
60.31999999999596
 20
76.64000000000054
 11
60.31999999999599
 21
74.10000000000052
  0
LINE
  5
32C
100
AcDbEntity
  8
0_wire
  6
ByLayer
 62
  256
370
   -1
100
AcDbLine
 10
57.77999999999609
 20
76.64000000000054
 11
60.31999999999596
 21
76.64000000000054
  0
LINE
  5
32D
100
AcDbEntity
  8
0_wire
  6
ByLayer
 62
  256
370
   -1
100
AcDbLine
 10
45.07999999999668
 20
66.48000000000043
 11
47.61999999999654
 21
66.48000000000046
  0
LINE
  5
32E
100
AcDbEntity
  8
0_wire
  6
ByLayer
 62
  256
370
   -1
100
AcDbLine
 10
73.01999999999546
 20
46.16000000000035
 11
75.55999999999536
 21
46.16000000000038
  0
LINE
  5
32F
100
AcDbEntity
  8
0_wire
  6
ByLayer
 62
  256
370
   -1
100
AcDbLine
 10
80.63999999999513
 20
53.78000000000035
 11
83.17999999999498
 21
53.78000000000035
  0
LINE
  5
330
100
AcDbEntity
  8
0_wire
  6
ByLayer
 62
  256
370
   -1
100
AcDbLine
 10
80.63999999999513
 20
51.24000000000035
 11
83.17999999999498
 21
51.24000000000035
  0
LINE
  5
331
100
AcDbEntity
  8
0_wire
  6
ByLayer
 62
  256
370
   -1
100
AcDbLine
 10
80.63999999999513
 20
48.70000000000032
 11
83.17999999999498
 21
48.70000000000032
  0
LINE
  5
332
100
AcDbEntity
  8
0_wire
  6
ByLayer
 62
  256
370
   -1
100
AcDbLine
 10
83.17999999999506
 20
46.1600000000003
 11
80.63999999999513
 21
46.1600000000003
  0
MTEXT
  5
333
100
AcDbEntity
  8
socket_header
  6
ByLayer
 62
  256
370
   -1
100
AcDbMText
 10
80.30229391933008
 20
45.13292443781575
 30
0
 40
1
 41
1.446046358667659
 71
    4
 72
    1
  1
SS
  7
unicode
210
0
220
0
230
1
 50
0
 73
    2
 44
1.54
  0
CIRCLE
  5
334
100
AcDbEntity
  8
0_wire
  6
ByLayer
 62
  256
370
   -1
100
AcDbCircle
 10
47.61999999999658
 20
43.62000000000025
 40
0.4
  0
MTEXT
  5
335
100
AcDbEntity
  8
terminal
  6
ByLayer
 62
  256
370
   -1
100
AcDbMText
 10
31.44238753164765
 20
62.77735639509392
 30
0
 40
1
 41
0.8888888888889508
 71
    4
 72
    1
  1
J1
  7
iso
210
0
220
0
230
1
 50
0
 73
    2
 44
1.54
  0
CIRCLE
  5
336
100
AcDbEntity
  8
terminal
  6
ByLayer
 62
  256
370
   -1
100
AcDbCircle
 10
44.53999999999765
 20
61.40000000000042
 40
0.46
  0
CIRCLE
  5
337
100
AcDbEntity
  8
terminal
  6
ByLayer
 62
  256
370
   -1
100
AcDbCircle
 10
44.54000010777185
 20
63.90000000000251
 40
0.46
  0
CIRCLE
  5
338
100
AcDbEntity
  8
terminal
  6
ByLayer
 62
  256
370
   -1
100
AcDbCircle
 10
42.53999999999681
 20
61.40000000000042
 40
0.46
  0
CIRCLE
  5
339
100
AcDbEntity
  8
terminal
  6
ByLayer
 62
  256
370
   -1
100
AcDbCircle
 10
42.54000010777102
 20
63.90000000000251
 40
0.46
  0
CIRCLE
  5
33A
100
AcDbEntity
  8
terminal
  6
ByLayer
 62
  256
370
   -1
100
AcDbCircle
 10
39.83999999999679
 20
56.63000000000188
 40
1.15
  0
CIRCLE
  5
33B
100
AcDbEntity
  8
terminal
  6
ByLayer
 62
  256
370
   -1
100
AcDbCircle
 10
39.83999999999679
 20
68.67000000000101
 40
1.15
  0
LINE
  5
33C
100
AcDbEntity
  8
terminal
  6
ByLayer
 62
  256
370
   -1
100
AcDbLine
 10
29.55999999999679
 20
56.63000152986616
 11
45.55999999999685
 21
56.63000152986616
  0
LINE
  5
33D
100
AcDbEntity
  8
terminal
  6
ByLayer
 62
  256
370
   -1
100
AcDbLine
 10
45.55999999999685
 20
56.63000152986616
 11
45.55999999999685
 21
68.67000152986569
  0
LINE
  5
33E
100
AcDbEntity
  8
terminal
  6
ByLayer
 62
  256
370
   -1
100
AcDbLine
 10
45.55999999999685
 20
68.67000152986569
 11
29.55999999999679
 21
68.67000152986569
  0
LINE
  5
33F
100
AcDbEntity
  8
terminal
  6
ByLayer
 62
  256
370
   -1
100
AcDbLine
 10
29.55999999999679
 20
68.67000152986569
 11
29.55999999999679
 21
56.63000152986616
  0
LINE
  5
340
100
AcDbEntity
  8
0_GND
  6
ByLayer
 62
  256
370
   -1
100
AcDbLine
 10
42.53999999999681
 20
61.4000000000004
 11
42.53999999999681
 21
58.86000000000038
  0
LINE
  5
341
100
AcDbEntity
  8
0_wire
  6
ByLayer
 62
  256
370
   -1
100
AcDbLine
 10
42.53999999999681
 20
63.94000000000042
 11
42.53999999999681
 21
66.48000000000042
  0
LINE
  5
342
100
AcDbEntity
  8
0_GND
  6
ByLayer
 62
  256
370
   -1
100
AcDbLine
 10
42.53999999999681
 20
56.32000000000036
 11
42.53999999999681
 21
58.86000000000038
  0
LINE
  5
343
100
AcDbEntity
  8
0_GND
  6
ByLayer
 62
  256
370
   -1
100
AcDbLine
 10
42.53999999999678
 20
69.02000000000046
 11
42.53999999999675
 21
71.56000000000049
  0
MTEXT
  5
344
100
AcDbEntity
  8
terminal
  6
ByLayer
 62
  256
370
   -1
100
AcDbMText
 10
42.21633079468186
 20
59.92313428148663
 30
0
 40
1
 41
2.333333333333519
 71
    5
 72
    1
  1
GND\PV
  7
iso
210
0
220
0
230
1
 50
90
 73
    2
 44
1.54
  0
MTEXT
  5
345
100
AcDbEntity
  8
terminal
  6
ByLayer
 62
  256
370
   -1
100
AcDbMText
 10
42.82881894367947
 20
65.23312570683211
 30
0
 40
1
 41
1.333333333333395
 71
    5
 72
    1
  1
D+\PD-
  7
iso
210
0
220
0
230
1
 50
90
 73
    2
 44
1.54
  0
LINE
  5
346
100
AcDbEntity
  8
0_GND
  6
ByLayer
 62
  256
370
   -1
100
AcDbLine
 10
42.53999999999677
 20
71.56000000000049
 11
37.45999999999704
 21
71.56000000000051
  0
LINE
  5
347
100
AcDbEntity
  8
0_GND
  6
ByLayer
 62
  256
370
   -1
100
AcDbLine
 10
37.45999999999704
 20
71.56000000000051
 11
37.45999999999704
 21
69.02000000000049
  0
LINE
  5
348
100
AcDbEntity
  8
0_GND
  6
ByLayer
 62
  256
370
   -1
100
AcDbLine
 10
42.5399999999968
 20
56.32000000000037
 11
42.5399999999968
 21
53.78000000000035
  0
LINE
  5
349
100
AcDbEntity
  8
0_GND
  6
ByLayer
 62
  256
370
   -1
100
AcDbLine
 10
42.5399999999968
 20
53.78000000000035
 11
37.45999999999704
 21
53.78000000000035
  0
LINE
  5
34A
100
AcDbEntity
  8
0_GND
  6
ByLayer
 62
  256
370
   -1
100
AcDbLine
 10
37.45999999999704
 20
53.78000000000035
 11
37.45999999999707
 21
56.32000000000037
  0
LINE
  5
34B
100
AcDbEntity
  8
0_GND
  6
ByLayer
 62
  256
370
   -1
100
AcDbLine
 10
37.45999999999704
 20
69.02000000000049
 11
37.45999999999707
 21
56.32000000000037
  0
LINE
  5
34C
100
AcDbEntity
  8
0_wire
  6
ByLayer
 62
  256
370
   -1
100
AcDbLine
 10
42.53999999999681
 20
66.48000000000043
 11
45.07999999999667
 21
66.48000000000043
  0
LINE
  5
34D
100
AcDbEntity
  8
0_GND
  6
ByLayer
 62
  256
370
   -1
100
AcDbLine
 10
42.53999999999681
 20
58.86000000000035
 11
47.61999999999666
 21
58.86000000000032
  0
LINE
  5
34E
100
AcDbEntity
  8
0_wire
  6
ByLayer
 62
  256
370
   -1
100
AcDbLine
 10
45.07999999999666
 20
63.94000000000041
 11
47.61999999999656
 21
63.94000000000043
  0
LINE
  5
34F
100
AcDbEntity
  8
5V line
  6
ByLayer
 62
  256
370
   -1
100
AcDbLine
 10
45.07999999999666
 20
61.40000000000038
 11
47.61999999999666
 21
61.40000000000036
  0
LINE
  5
350
100
AcDbEntity
  8
socket_header
  6
ByLayer
 62
  256
370
   -1
100
AcDbLine
 10
46.34999999999637
 20
75.37000000000025
 11
46.34999999999637
 21
72.83000000000023
  0
LINE
  5
351
100
AcDbEntity
  8
resister
  6
ByLayer
 62
  256
370
   -1
100
AcDbLine
 10
49.0599999999957
 20
65.46999999999926
 11
49.0599999999957
 21
59.86999999999925
  0
LINE
  5
352
100
AcDbEntity
  8
resister
  6
ByLayer
 62
  256
370
   -1
100
AcDbLine
 10
49.0599999999957
 20
59.86999999999925
 11
51.2599999999953
 21
59.86999999999925
  0
LINE
  5
353
100
AcDbEntity
  8
resister
  6
ByLayer
 62
  256
370
   -1
100
AcDbLine
 10
51.2599999999953
 20
59.86999999999925
 11
51.2599999999954
 21
65.46999999999926
  0
LINE
  5
354
100
AcDbEntity
  8
resister
  6
ByLayer
 62
  256
370
   -1
100
AcDbLine
 10
49.0599999999957
 20
65.46999999999926
 11
51.2599999999954
 21
65.46999999999926
  0
LINE
  5
355
100
AcDbEntity
  8
resister
  6
ByLayer
 62
  256
370
   -1
100
AcDbLine
 10
50.1599999999966
 20
65.46999999999926
 11
50.15999999999675
 21
63.94000000000045
  0
LINE
  5
356
100
AcDbEntity
  8
resister
  6
ByLayer
 62
  256
370
   -1
100
AcDbLine
 10
50.15999999999675
 20
61.40000000000038
 11
50.1599999999966
 21
59.86999999999925
  0
LINE
  5
357
100
AcDbEntity
  8
5V line
  6
ByLayer
 62
  256
370
   -1
100
AcDbLine
 10
47.61999999999666
 20
61.40000000000036
 11
50.15999999999675
 21
61.40000000000037
  0
LINE
  5
358
100
AcDbEntity
  8
diode
  6
ByLayer
 62
  256
370
   -1
100
AcDbLine
 10
53.19999999999691
 20
63.91999999999925
 11
52.19999999999582
 21
63.91999999999925
  0
LINE
  5
359
100
AcDbEntity
  8
diode
  6
ByLayer
 62
  256
370
   -1
100
AcDbLine
 10
52.19999999999582
 20
63.91999999999925
 11
52.19999999999582
 21
61.42000000000009
  0
LINE
  5
35A
100
AcDbEntity
  8
diode
  6
ByLayer
 62
  256
370
   -1
100
AcDbLine
 10
52.19999999999582
 20
61.42000000000009
 11
53.19999999999691
 21
61.42000000000009
  0
LINE
  5
35B
100
AcDbEntity
  8
diode
  6
ByLayer
 62
  256
370
   -1
100
AcDbLine
 10
53.19999999999691
 20
61.42000000000009
 11
53.19999999999691
 21
63.91999999999925
  0
LINE
  5
35C
100
AcDbEntity
  8
diode
  6
ByLayer
 62
  256
370
   -1
100
AcDbLine
 10
52.69999999999638
 20
66.48000000000047
 11
52.69999999999639
 21
63.94000000000045
  0
LINE
  5
35D
100
AcDbEntity
  8
diode
  6
ByLayer
 62
  256
370
   -1
100
AcDbLine
 10
52.69999999999638
 20
61.40000000000045
 11
52.69999999999638
 21
58.86000000000043
  0
LINE
  5
35E
100
AcDbEntity
  8
diode
  6
ByLayer
 62
  256
370
   -1
100
AcDbLine
 10
55.73999999999679
 20
62.64999999999916
 11
54.7399999999957
 21
62.64999999999916
  0
LINE
  5
35F
100
AcDbEntity
  8
diode
  6
ByLayer
 62
  256
370
   -1
100
AcDbLine
 10
54.7399999999957
 20
62.64999999999916
 11
54.7399999999957
 21
60.15
  0
LINE
  5
360
100
AcDbEntity
  8
diode
  6
ByLayer
 62
  256
370
   -1
100
AcDbLine
 10
54.7399999999957
 20
60.15
 11
55.73999999999679
 21
60.15
  0
LINE
  5
361
100
AcDbEntity
  8
diode
  6
ByLayer
 62
  256
370
   -1
100
AcDbLine
 10
55.73999999999679
 20
60.15
 11
55.73999999999679
 21
62.64999999999916
  0
LINE
  5
362
100
AcDbEntity
  8
diode
  6
ByLayer
 62
  256
370
   -1
100
AcDbLine
 10
55.23999999999629
 20
62.67000000000024
 11
55.23999999999626
 21
63.94000000000046
  0
LINE
  5
363
100
AcDbEntity
  8
diode
  6
ByLayer
 62
  256
370
   -1
100
AcDbLine
 10
55.23999999999629
 20
60.13000000000036
 11
55.23999999999629
 21
58.86000000000042
  0
LINE
  5
364
100
AcDbEntity
  8
0_GND
  6
ByLayer
 62
  256
370
   -1
100
AcDbLine
 10
55.23999999999626
 20
58.86000000000042
 11
55.23999999999626
 21
48.70000000000034
  0
LINE
  5
365
100
AcDbEntity
  8
0_GND
  6
ByLayer
 62
  256
370
   -1
100
AcDbLine
 10
55.23999999999626
 20
48.70000000000034
 11
57.77999999999616
 21
48.70000000000034
  0
LINE
  5
366
100
AcDbEntity
  8
0_GND
  6
ByLayer
 62
  256
370
   -1
100
AcDbLine
 10
57.77999999999614
 20
61.40000000000045
 11
55.23999999999626
 21
61.40000000000044
  0
LINE
  5
367
100
AcDbEntity
  8
0_GND
  6
ByLayer
 62
  256
370
   -1
100
AcDbLine
 10
55.23999999999626
 20
61.40000000000044
 11
55.23999999999626
 21
58.86000000000042
  0
LINE
  5
368
100
AcDbEntity
  8
0_GND
  6
ByLayer
 62
  256
370
   -1
100
AcDbLine
 10
47.61999999999666
 20
58.8600000000003
 11
55.23999999999626
 21
58.86000000000033
  0
LINE
  5
369
100
AcDbEntity
  8
resister
  6
ByLayer
 62
  256
370
   -1
100
AcDbLine
 10
56.67999999999533
 20
61.65999999999943
 11
56.67999999999533
 21
56.05999999999942
  0
LINE
  5
36A
100
AcDbEntity
  8
resister
  6
ByLayer
 62
  256
370
   -1
100
AcDbLine
 10
56.67999999999533
 20
56.05999999999942
 11
58.87999999999494
 21
56.05999999999942
  0
LINE
  5
36B
100
AcDbEntity
  8
resister
  6
ByLayer
 62
  256
370
   -1
100
AcDbLine
 10
58.87999999999494
 20
56.05999999999942
 11
58.87999999999504
 21
61.65999999999943
  0
LINE
  5
36C
100
AcDbEntity
  8
resister
  6
ByLayer
 62
  256
370
   -1
100
AcDbLine
 10
56.67999999999533
 20
61.65999999999943
 11
58.87999999999504
 21
61.65999999999943
  0
LINE
  5
36D
100
AcDbEntity
  8
resister
  6
ByLayer
 62
  256
370
   -1
100
AcDbLine
 10
57.77999999999601
 20
63.94000000000047
 11
57.77999999999624
 21
61.65999999999943
  0
LINE
  5
36E
100
AcDbEntity
  8
resister
  6
ByLayer
 62
  256
370
   -1
100
AcDbLine
 10
57.77999999999624
 20
56.05999999999942
 11
57.77999999999601
 21
53.78000000000038
  0
LINE
  5
36F
100
AcDbEntity
  8
0_wire
  6
ByLayer
 62
  256
370
   -1
100
AcDbLine
 10
47.61999999999656
 20
63.94000000000043
 11
57.77999999999601
 21
63.94000000000047
  0
LINE
  5
370
100
AcDbEntity
  8
resister
  6
ByLayer
 62
  256
370
   -1
100
AcDbLine
 10
59.2199999999952
 20
61.65999999999944
 11
59.2199999999952
 21
56.05999999999943
  0
LINE
  5
371
100
AcDbEntity
  8
resister
  6
ByLayer
 62
  256
370
   -1
100
AcDbLine
 10
59.2199999999952
 20
56.05999999999943
 11
61.4199999999948
 21
56.05999999999943
  0
LINE
  5
372
100
AcDbEntity
  8
resister
  6
ByLayer
 62
  256
370
   -1
100
AcDbLine
 10
61.4199999999948
 20
56.05999999999943
 11
61.4199999999949
 21
61.65999999999944
  0
LINE
  5
373
100
AcDbEntity
  8
resister
  6
ByLayer
 62
  256
370
   -1
100
AcDbLine
 10
59.2199999999952
 20
61.65999999999944
 11
61.4199999999949
 21
61.65999999999944
  0
LINE
  5
374
100
AcDbEntity
  8
resister
  6
ByLayer
 62
  256
370
   -1
100
AcDbLine
 10
60.31999999999562
 20
66.48000000000049
 11
60.3199999999961
 21
61.65999999999944
  0
LINE
  5
375
100
AcDbEntity
  8
resister
  6
ByLayer
 62
  256
370
   -1
100
AcDbLine
 10
60.3199999999961
 20
56.05999999999943
 11
60.31999999999562
 21
51.24000000000031
  0
LINE
  5
376
100
AcDbEntity
  8
0_wire
  6
ByLayer
 62
  256
370
   -1
100
AcDbLine
 10
47.61999999999654
 20
66.48000000000046
 11
60.31999999999562
 21
66.48000000000049
  0
LINE
  5
377
100
AcDbEntity
  8
socket_header
  6
ByLayer
 62
  256
370
   -1
100
AcDbLine
 10
69.20999999999529
 20
57.59000000000022
 11
71.74999999999568
 21
57.59000000000022
  0
LINE
  5
378
100
AcDbEntity
  8
socket_header
  6
ByLayer
 62
  256
370
   -1
100
AcDbLine
 10
61.5899999999957
 20
57.59000000000017
 11
64.12999999999609
 21
57.59000000000017
  0
LINE
  5
379
100
AcDbEntity
  8
socket_header
  6
ByLayer
 62
  256
370
   -1
100
AcDbLine
 10
69.20999999999529
 20
57.59000000000061
 11
69.20999999999529
 21
55.0500000000002
  0
LINE
  5
37A
100
AcDbEntity
  8
socket_header
  6
ByLayer
 62
  256
370
   -1
100
AcDbLine
 10
69.20999999999529
 20
55.0500000000002
 11
71.74999999999568
 21
55.0500000000002
  0
CIRCLE
  5
37B
100
AcDbEntity
  8
socket_header
  6
ByLayer
 62
  256
370
   -1
100
AcDbCircle
 10
70.4799999999955
 20
56.32000000000041
 40
0.3
  0
LINE
  5
37C
100
AcDbEntity
  8
socket_header
  6
ByLayer
 62
  256
370
   -1
100
AcDbLine
 10
64.12999999999609
 20
55.05000000000015
 11
64.12999999999609
 21
57.59000000000057
  0
LINE
  5
37D
100
AcDbEntity
  8
socket_header
  6
ByLayer
 62
  256
370
   -1
100
AcDbLine
 10
61.5899999999957
 20
57.59000000000057
 11
61.5899999999957
 21
55.05000000000015
  0
LINE
  5
37E
100
AcDbEntity
  8
socket_header
  6
ByLayer
 62
  256
370
   -1
100
AcDbLine
 10
61.5899999999957
 20
55.05000000000015
 11
64.12999999999609
 21
55.05000000000015
  0
CIRCLE
  5
37F
100
AcDbEntity
  8
socket_header
  6
ByLayer
 62
  256
370
   -1
100
AcDbCircle
 10
62.85999999999589
 20
56.32000000000036
 40
0.3
  0
LINE
  5
380
100
AcDbEntity
  8
socket_header
  6
ByLayer
 62
  256
370
   -1
100
AcDbLine
 10
69.20999999999529
 20
55.05000000000059
 11
69.20999999999529
 21
52.51000000000019
  0
LINE
  5
381
100
AcDbEntity
  8
socket_header
  6
ByLayer
 62
  256
370
   -1
100
AcDbLine
 10
69.20999999999529
 20
52.51000000000019
 11
71.74999999999568
 21
52.51000000000019
  0
CIRCLE
  5
382
100
AcDbEntity
  8
socket_header
  6
ByLayer
 62
  256
370
   -1
100
AcDbCircle
 10
70.4799999999955
 20
53.78000000000039
 40
0.3
  0
LINE
  5
383
100
AcDbEntity
  8
socket_header
  6
ByLayer
 62
  256
370
   -1
100
AcDbLine
 10
64.12999999999609
 20
52.51000000000013
 11
64.12999999999609
 21
55.05000000000055
  0
LINE
  5
384
100
AcDbEntity
  8
socket_header
  6
ByLayer
 62
  256
370
   -1
100
AcDbLine
 10
61.5899999999957
 20
55.05000000000055
 11
61.5899999999957
 21
52.51000000000013
  0
LINE
  5
385
100
AcDbEntity
  8
socket_header
  6
ByLayer
 62
  256
370
   -1
100
AcDbLine
 10
61.5899999999957
 20
52.51000000000013
 11
64.12999999999609
 21
52.51000000000013
  0
CIRCLE
  5
386
100
AcDbEntity
  8
socket_header
  6
ByLayer
 62
  256
370
   -1
100
AcDbCircle
 10
62.85999999999589
 20
53.78000000000034
 40
0.3
  0
LINE
  5
387
100
AcDbEntity
  8
socket_header
  6
ByLayer
 62
  256
370
   -1
100
AcDbLine
 10
69.20999999999529
 20
52.51000000000057
 11
69.20999999999529
 21
49.97000000000017
  0
LINE
  5
388
100
AcDbEntity
  8
socket_header
  6
ByLayer
 62
  256
370
   -1
100
AcDbLine
 10
69.20999999999529
 20
49.97000000000017
 11
71.74999999999579
 21
49.97000000000017
  0
CIRCLE
  5
389
100
AcDbEntity
  8
socket_header
  6
ByLayer
 62
  256
370
   -1
100
AcDbCircle
 10
70.47999999999558
 20
51.24000000000036
 40
0.3
  0
LINE
  5
38A
100
AcDbEntity
  8
socket_header
  6
ByLayer
 62
  256
370
   -1
100
AcDbLine
 10
64.12999999999609
 20
49.97000000000011
 11
64.12999999999609
 21
52.51000000000053
  0
LINE
  5
38B
100
AcDbEntity
  8
socket_header
  6
ByLayer
 62
  256
370
   -1
100
AcDbLine
 10
61.5899999999957
 20
52.51000000000053
 11
61.5899999999957
 21
49.97000000000011
  0
LINE
  5
38C
100
AcDbEntity
  8
socket_header
  6
ByLayer
 62
  256
370
   -1
100
AcDbLine
 10
61.5899999999957
 20
49.97000000000011
 11
64.12999999999609
 21
49.97000000000011
  0
CIRCLE
  5
38D
100
AcDbEntity
  8
socket_header
  6
ByLayer
 62
  256
370
   -1
100
AcDbCircle
 10
62.85999999999589
 20
51.24000000000032
 40
0.3
  0
LINE
  5
38E
100
AcDbEntity
  8
socket_header
  6
ByLayer
 62
  256
370
   -1
100
AcDbLine
 10
69.2099999999954
 20
49.97000000000057
 11
69.2099999999954
 21
47.43000000000014
  0
CIRCLE
  5
38F
100
AcDbEntity
  8
socket_header
  6
ByLayer
 62
  256
370
   -1
100
AcDbCircle
 10
70.47999999999558
 20
48.70000000000034
 40
0.3
  0
LINE
  5
390
100
AcDbEntity
  8
socket_header
  6
ByLayer
 62
  256
370
   -1
100
AcDbLine
 10
64.12999999999609
 20
47.43000000000009
 11
64.12999999999609
 21
49.97000000000052
  0
LINE
  5
391
100
AcDbEntity
  8
socket_header
  6
ByLayer
 62
  256
370
   -1
100
AcDbLine
 10
61.5899999999957
 20
49.97000000000052
 11
61.5899999999957
 21
47.43000000000009
  0
CIRCLE
  5
392
100
AcDbEntity
  8
socket_header
  6
ByLayer
 62
  256
370
   -1
100
AcDbCircle
 10
62.85999999999589
 20
48.7000000000003
 40
0.3
  0
LINE
  5
393
100
AcDbEntity
  8
socket_header
  6
ByLayer
 62
  256
370
   -1
100
AcDbLine
 10
64.12999999999609
 20
57.59000000000017
 11
69.20999999999529
 21
57.59000000000061
  0
LINE
  5
394
100
AcDbEntity
  8
socket_header
  6
ByLayer
 62
  256
370
   -1
100
AcDbLine
 10
71.74999999999568
 20
57.59000000000022
 11
71.74999999999568
 21
55.0500000000002
  0
LINE
  5
395
100
AcDbEntity
  8
socket_header
  6
ByLayer
 62
  256
370
   -1
100
AcDbLine
 10
71.74999999999568
 20
55.0500000000002
 11
71.74999999999568
 21
52.51000000000019
  0
LINE
  5
396
100
AcDbEntity
  8
socket_header
  6
ByLayer
 62
  256
370
   -1
100
AcDbLine
 10
71.74999999999568
 20
52.51000000000019
 11
71.74999999999579
 21
49.97000000000017
  0
LINE
  5
397
100
AcDbEntity
  8
socket_header
  6
ByLayer
 62
  256
370
   -1
100
AcDbLine
 10
71.74999999999579
 20
49.97000000000017
 11
71.74999999999568
 21
47.43000000000009
  0
LINE
  5
398
100
AcDbEntity
  8
socket_header
  6
ByLayer
 62
  256
370
   -1
100
AcDbLine
 10
71.74999999999568
 20
47.43000000000009
 11
69.2099999999954
 21
47.43000000000014
  0
LINE
  5
399
100
AcDbEntity
  8
socket_header
  6
ByLayer
 62
  256
370
   -1
100
AcDbLine
 10
69.2099999999954
 20
47.43000000000014
 11
64.12999999999609
 21
47.43000000000009
  0
LINE
  5
39A
100
AcDbEntity
  8
socket_header
  6
ByLayer
 62
  256
370
   -1
100
AcDbLine
 10
64.12999999999609
 20
47.43000000000009
 11
61.5899999999957
 21
47.43000000000009
  0
SPLINE
  5
39B
100
AcDbEntity
  8
socket_header
  6
ByLayer
 62
  256
370
   -1
100
AcDbSpline
210
0
220
0
230
0
 70
    8
 71
    2
 72
    6
 73
    3
 74
    0
 42
1e-07
 43
1e-07
 40
0
 40
0
 40
0
 40
1
 40
1
 40
1
 10
65.56802679068542
 20
57.5900000000003
 30
0
 10
66.62674664051764
 20
56.12951536742933
 30
0
 10
67.81230793710066
 20
57.59000000000049
 30
0
  0
MTEXT
  5
39C
100
AcDbEntity
  8
socket_header
  6
ByLayer
 62
  256
370
   -1
100
AcDbMText
 10
71.69312655999535
 20
52.10379571254552
 30
0
 40
1
 41
2.778578734889385
 71
    4
 72
    1
  1
5V\PSCK\PMISO\PMOSI
  7
unicode
210
0
220
0
230
1
 50
0
 73
    2
 44
1.54
  0
MTEXT
  5
39D
100
AcDbEntity
  8
socket_header
  6
ByLayer
 62
  256
370
   -1
100
AcDbMText
 10
58.42619550943598
 20
52.31441694202898
 30
0
 40
1
 41
4.891692238779515
 71
    4
 72
    1
  1
SS/RST\PD-\PD+\PGND
  7
unicode
210
0
220
0
230
1
 50
0
 73
    2
 44
1.54
  0
LINE
  5
39E
100
AcDbEntity
  8
0_wire
  6
ByLayer
 62
  256
370
   -1
100
AcDbLine
 10
62.85999999999589
 20
56.32000000000036
 11
67.93999999999568
 21
56.32000000000044
  0
LINE
  5
39F
100
AcDbEntity
  8
5V line
  6
ByLayer
 62
  256
370
   -1
100
AcDbLine
 10
73.01999999999546
 20
56.32000000000046
 11
70.47999999999557
 21
56.32000000000046
  0
LINE
  5
3A0
100
AcDbEntity
  8
0_wire
  6
ByLayer
 62
  256
370
   -1
100
AcDbLine
 10
73.01999999999546
 20
53.78000000000044
 11
70.47999999999556
 21
53.78000000000043
  0
LINE
  5
3A1
100
AcDbEntity
  8
0_wire
  6
ByLayer
 62
  256
370
   -1
100
AcDbLine
 10
73.01999999999546
 20
51.24000000000042
 11
70.47999999999558
 21
51.24000000000036
  0
LINE
  5
3A2
100
AcDbEntity
  8
0_wire
  6
ByLayer
 62
  256
370
   -1
100
AcDbLine
 10
73.01999999999546
 20
48.7000000000004
 11
70.47999999999558
 21
48.7000000000004
  0
LINE
  5
3A3
100
AcDbEntity
  8
micon
  6
ByLayer
 62
  256
370
   -1
100
AcDbLine
 10
62.85999999999591
 20
57.00999999999962
 11
62.86999999999723
 21
48.00999999999954
  0
LINE
  5
3A4
100
AcDbEntity
  8
micon
  6
ByLayer
 62
  256
370
   -1
100
AcDbLine
 10
62.86999999999723
 20
48.00999999999954
 11
70.46999999999655
 21
48.00999999999954
  0
LINE
  5
3A5
100
AcDbEntity
  8
micon
  6
ByLayer
 62
  256
370
   -1
100
AcDbLine
 10
70.46999999999655
 20
48.00999999999954
 11
70.47999999999557
 21
57.00999999999962
  0
LINE
  5
3A6
100
AcDbEntity
  8
micon
  6
ByLayer
 62
  256
370
   -1
100
AcDbLine
 10
70.47999999999557
 20
57.00999999999962
 11
62.86999999999723
 21
57.00999999999962
  0
SPLINE
  5
3A7
100
AcDbEntity
  8
micon
  6
ByLayer
 62
  256
370
   -1
100
AcDbSpline
210
0
220
0
230
0
 70
    8
 71
    2
 72
    6
 73
    3
 74
    0
 42
1e-07
 43
1e-07
 40
0
 40
0
 40
0
 40
1
 40
1
 40
1
 10
65.63779103007057
 20
57.02376298318954
 30
0
 10
66.59678863583318
 20
55.10194870085296
 30
0
 10
67.66287393195385
 20
57.00769089666666
 30
0
  0
SPLINE
  5
3A8
100
AcDbEntity
  8
resister
  6
ByLayer
 62
  256
370
   -1
100
AcDbSpline
210
0
220
0
230
0
 70
    8
 71
    2
 72
    6
 73
    3
 74
    0
 42
1e-07
 43
1e-07
 40
0
 40
0
 40
0
 40
1
 40
1
 40
1
 10
62.85999999999589
 20
63.94000000000046
 30
0
 10
64.63823545838538
 20
61.39084283611196
 30
0
 10
62.85999999999591
 20
58.86000000000044
 30
0
  0
LINE
  5
3A9
100
AcDbEntity
  8
0_wire
  6
ByLayer
 62
  256
370
   -1
100
AcDbLine
 10
62.85999999999586
 20
74.10000000000051
 11
62.85999999999589
 21
63.94000000000046
  0
LINE
  5
3AA
100
AcDbEntity
  8
0_wire
  6
ByLayer
 62
  256
370
   -1
100
AcDbLine
 10
62.85999999999591
 20
58.86000000000044
 11
62.85999999999591
 21
56.32000000000042
  0
LINE
  5
3AB
100
AcDbEntity
  8
0_wire
  6
ByLayer
 62
  256
370
   -1
100
AcDbLine
 10
60.31999999999599
 20
74.10000000000052
 11
62.85999999999586
 21
74.10000000000052
  0
LINE
  5
3AC
100
AcDbEntity
  8
condenser
  6
ByLayer
 62
  256
370
   -1
100
AcDbLine
 10
69.9999999999953
 20
57.95999999999973
 11
73.49999999999575
 21
57.95999999999973
  0
LINE
  5
3AD
100
AcDbEntity
  8
condenser
  6
ByLayer
 62
  256
370
   -1
100
AcDbLine
 10
69.99999999999538
 20
59.76000000000054
 11
69.99999999999537
 21
57.95999999999973
  0
LINE
  5
3AE
100
AcDbEntity
  8
condenser
  6
ByLayer
 62
  256
370
   -1
100
AcDbLine
 10
73.49999999999581
 20
57.95999999999973
 11
73.49999999999581
 21
59.76000000000054
  0
LINE
  5
3AF
100
AcDbEntity
  8
condenser
  6
ByLayer
 62
  256
370
   -1
100
AcDbLine
 10
73.49999999999581
 20
59.76000000000054
 11
69.99999999999538
 21
59.76000000000054
  0
LINE
  5
3B0
100
AcDbEntity
  8
condenser
  6
ByLayer
 62
  256
370
   -1
100
AcDbLine
 10
73.01999999999596
 20
58.86000000000043
 11
73.49999999999581
 21
58.86000000000043
  0
LINE
  5
3B1
100
AcDbEntity
  8
condenser
  6
ByLayer
 62
  256
370
   -1
100
AcDbLine
 10
69.99999999999537
 20
58.86000000000043
 11
70.47999999999544
 21
58.86000000000043
  0
LINE
  5
3B2
100
AcDbEntity
  8
5V line
  6
ByLayer
 62
  256
370
   -1
100
AcDbLine
 10
70.47999999999556
 20
58.86000000000043
 11
70.47999999999556
 21
61.40000000000045
  0
LINE
  5
3B3
100
AcDbEntity
  8
0_GND
  6
ByLayer
 62
  256
370
   -1
100
AcDbLine
 10
73.01999999999545
 20
61.40000000000045
 11
73.01999999999546
 21
58.86000000000043
  0
LINE
  5
3B4
100
AcDbEntity
  8
condenser
  6
ByLayer
 62
  256
370
   -1
100
AcDbLine
 10
69.99999999999528
 20
60.49999999999975
 11
73.49999999999574
 21
60.49999999999975
  0
LINE
  5
3B5
100
AcDbEntity
  8
condenser
  6
ByLayer
 62
  256
370
   -1
100
AcDbLine
 10
69.99999999999537
 20
62.30000000000056
 11
69.99999999999535
 21
60.49999999999975
  0
LINE
  5
3B6
100
AcDbEntity
  8
condenser
  6
ByLayer
 62
  256
370
   -1
100
AcDbLine
 10
73.49999999999579
 20
60.49999999999975
 11
73.49999999999579
 21
62.30000000000056
  0
LINE
  5
3B7
100
AcDbEntity
  8
condenser
  6
ByLayer
 62
  256
370
   -1
100
AcDbLine
 10
73.49999999999579
 20
62.30000000000056
 11
69.99999999999537
 21
62.30000000000056
  0
LINE
  5
3B8
100
AcDbEntity
  8
condenser
  6
ByLayer
 62
  256
370
   -1
100
AcDbLine
 10
73.01999999999595
 20
61.40000000000045
 11
73.49999999999579
 21
61.40000000000045
  0
LINE
  5
3B9
100
AcDbEntity
  8
condenser
  6
ByLayer
 62
  256
370
   -1
100
AcDbLine
 10
69.99999999999535
 20
61.40000000000045
 11
70.47999999999543
 21
61.40000000000045
  0
SPLINE
  5
3BA
100
AcDbEntity
  8
resister
  6
ByLayer
 62
  256
370
   -1
100
AcDbSpline
210
0
220
0
230
0
 70
    8
 71
    2
 72
    6
 73
    3
 74
    0
 42
1e-07
 43
1e-07
 40
0
 40
0
 40
0
 40
1
 40
1
 40
1
 10
70.47999999999553
 20
69.02000000000054
 30
0
 10
71.95221801097949
 20
66.49882493568899
 30
0
 10
70.47999999999554
 20
63.94000000000052
 30
0
  0
LINE
  5
3BB
100
AcDbEntity
  8
5V line
  6
ByLayer
 62
  256
370
   -1
100
AcDbLine
 10
70.47999999999556
 20
63.94000000000049
 11
70.47999999999556
 21
61.40000000000047
  0
LINE
  5
3BC
100
AcDbEntity
  8
5V line
  6
ByLayer
 62
  256
370
   -1
100
AcDbLine
 10
70.47999999999556
 20
58.86000000000043
 11
70.47999999999556
 21
56.32000000000043
  0
LINE
  5
3BD
100
AcDbEntity
  8
0_GND
  6
ByLayer
 62
  256
370
   -1
100
AcDbLine
 10
57.77999999999614
 20
61.40000000000045
 11
67.93999999999565
 21
61.40000000000045
  0
LINE
  5
3BE
100
AcDbEntity
  8
0_GND
  6
ByLayer
 62
  256
370
   -1
100
AcDbLine
 10
67.93999999999565
 20
61.40000000000045
 11
67.93999999999565
 21
66.48000000000052
  0
LINE
  5
3BF
100
AcDbEntity
  8
0_GND
  6
ByLayer
 62
  256
370
   -1
100
AcDbLine
 10
67.93999999999565
 20
66.48000000000052
 11
70.47999999999556
 21
66.48000000000052
  0
LINE
  5
3C0
100
AcDbEntity
  8
socket_header
  6
ByLayer
 62
  256
370
   -1
100
AcDbLine
 10
76.82999999999493
 20
47.43000000000059
 11
76.82999999999493
 21
44.89000000000017
  0
LINE
  5
3C1
100
AcDbEntity
  8
socket_header
  6
ByLayer
 62
  256
370
   -1
100
AcDbLine
 10
74.28999999999513
 20
47.43000000000058
 11
74.28999999999513
 21
44.89000000000016
  0
LINE
  5
3C2
100
AcDbEntity
  8
socket_header
  6
ByLayer
 62
  256
370
   -1
100
AcDbLine
 10
74.28999999999513
 20
44.89000000000016
 11
76.82999999999555
 21
44.89000000000016
  0
LINE
  5
3C3
100
AcDbEntity
  8
socket_header
  6
ByLayer
 62
  256
370
   -1
100
AcDbLine
 10
74.28999999999513
 20
47.43000000000018
 11
76.82999999999555
 21
47.43000000000018
  0
LINE
  5
3C4
100
AcDbEntity
  8
socket_header
  6
ByLayer
 62
  256
370
   -1
100
AcDbLine
 10
79.36999999999482
 20
47.43000000000059
 11
79.36999999999482
 21
44.89000000000017
  0
LINE
  5
3C5
100
AcDbEntity
  8
socket_header
  6
ByLayer
 62
  256
370
   -1
100
AcDbLine
 10
76.82999999999502
 20
47.43000000000058
 11
76.82999999999502
 21
44.89000000000016
  0
LINE
  5
3C6
100
AcDbEntity
  8
socket_header
  6
ByLayer
 62
  256
370
   -1
100
AcDbLine
 10
76.82999999999502
 20
44.89000000000016
 11
79.36999999999543
 21
44.89000000000016
  0
LINE
  5
3C7
100
AcDbEntity
  8
socket_header
  6
ByLayer
 62
  256
370
   -1
100
AcDbLine
 10
76.82999999999502
 20
47.43000000000018
 11
79.36999999999543
 21
47.43000000000018
  0
LINE
  5
3C8
100
AcDbEntity
  8
0_wire
  6
ByLayer
 62
  256
370
   -1
100
AcDbLine
 10
80.63999999999514
 20
46.16000000000038
 11
78.09999999999525
 21
46.16000000000038
  0
LINE
  5
3C9
100
AcDbEntity
  8
0_wire
  6
ByLayer
 62
  256
370
   -1
100
AcDbLine
 10
67.93999999999566
 20
56.32000000000041
 11
67.93999999999568
 21
46.16000000000034
  0
LINE
  5
3CA
100
AcDbEntity
  8
0_wire
  6
ByLayer
 62
  256
370
   -1
100
AcDbLine
 10
67.93999999999568
 20
46.16000000000034
 11
73.01999999999546
 21
46.16000000000035
  0
LINE
  5
3CB
100
AcDbEntity
  8
0_wire
  6
ByLayer
 62
  256
370
   -1
100
AcDbLine
 10
80.63999999999513
 20
53.78000000000044
 11
73.01999999999543
 21
53.78000000000041
  0
LINE
  5
3CC
100
AcDbEntity
  8
0_wire
  6
ByLayer
 62
  256
370
   -1
100
AcDbLine
 10
73.01999999999545
 20
51.24000000000039
 11
80.63999999999513
 21
51.24000000000042
  0
LINE
  5
3CD
100
AcDbEntity
  8
0_wire
  6
ByLayer
 62
  256
370
   -1
100
AcDbLine
 10
80.63999999999513
 20
48.7000000000004
 11
73.01999999999546
 21
48.70000000000039
  0
LINE
  5
3CE
100
AcDbEntity
  8
0_wire
  6
ByLayer
 62
  256
370
   -1
100
AcDbLine
 10
62.85999999999591
 20
53.78000000000036
 11
57.77999999999601
 21
53.78000000000043
  0
LINE
  5
3CF
100
AcDbEntity
  8
0_wire
  6
ByLayer
 62
  256
370
   -1
100
AcDbLine
 10
62.85999999999591
 20
51.24000000000033
 11
60.31999999999562
 21
51.24000000000035
  0
LINE
  5
3D0
100
AcDbEntity
  8
0_GND
  6
ByLayer
 62
  256
370
   -1
100
AcDbLine
 10
62.85999999999591
 20
48.7000000000003
 11
57.77999999999616
 21
48.70000000000034
  0
LINE
  5
3D1
100
AcDbEntity
  8
0_GND
  6
ByLayer
 62
  256
370
   -1
100
AcDbLine
 10
73.01999999999543
 20
66.48000000000052
 11
73.01999999999543
 21
61.40000000000048
  0
LINE
  5
3D2
100
AcDbEntity
  8
0_GND
  6
ByLayer
 62
  256
370
   -1
100
AcDbLine
 10
73.01999999999543
 20
66.48000000000052
 11
70.47999999999556
 21
66.48000000000052
  0
LINE
  5
3D3
100
AcDbEntity
  8
0_GND
  6
ByLayer
 62
  256
370
   -1
100
AcDbLine
 10
73.01999999999543
 20
61.40000000000042
 11
83.17999999999498
 21
61.40000000000042
  0
LINE
  5
3D4
100
AcDbEntity
  8
universal_board
  6
ByLayer
 62
  256
370
   -1
100
AcDbLine
 10
36.18999999999694
 20
77.91000000000031
 11
36.18999999999707
 21
42.34999999999999
  0
LINE
  5
3D5
100
AcDbEntity
  8
universal_board
  6
ByLayer
 62
  256
370
   -1
100
AcDbLine
 10
84.44999999999479
 20
77.91000000000045
 11
36.18999999999694
 21
77.91000000000035
  0
LINE
  5
3D6
100
AcDbEntity
  8
universal_board
  6
ByLayer
 62
  256
370
   -1
100
AcDbLine
 10
84.4499999999948
 20
42.35000000000012
 11
36.18999999999708
 21
42.35000000000002
  0
SPLINE
  5
3D7
100
AcDbEntity
  8
resister
  6
ByLayer
 62
  256
370
   -1
100
AcDbSpline
210
0
220
0
230
0
 70
    8
 71
    2
 72
    6
 73
    3
 74
    0
 42
1e-07
 43
1e-07
 40
0
 40
0
 40
0
 40
1
 40
1
 40
1
 10
47.61999999999656
 20
61.40000000000042
 30
0
 10
49.90247908030437
 20
65.18624841559101
 30
0
 10
47.61999999999654
 20
69.02000000000048
 30
0
  0
LINE
  5
3D8
100
AcDbEntity
  8
5V line
  6
ByLayer
 62
  256
370
   -1
100
AcDbLine
 10
47.61999999999654
 20
69.02000000000048
 11
50.15999999999649
 21
69.02000000000051
  0
LINE
  5
3D9
100
AcDbEntity
  8
5V line
  6
ByLayer
 62
  256
370
   -1
100
AcDbLine
 10
50.15999999999649
 20
69.02000000000051
 11
52.69999999999636
 21
69.02000000000048
  0
LINE
  5
3DA
100
AcDbEntity
  8
resister
  6
ByLayer
 62
  256
370
   -1
100
AcDbLine
 10
51.25999999999824
 20
70.03000000000242
 11
51.25999999999824
 21
75.63000000000247
  0
LINE
  5
3DB
100
AcDbEntity
  8
resister
  6
ByLayer
 62
  256
370
   -1
100
AcDbLine
 10
51.25999999999824
 20
75.63000000000247
 11
49.05999999999853
 21
75.63000000000247
  0
LINE
  5
3DC
100
AcDbEntity
  8
resister
  6
ByLayer
 62
  256
370
   -1
100
AcDbLine
 10
49.05999999999853
 20
75.63000000000247
 11
49.05999999999853
 21
70.03000000000242
  0
LINE
  5
3DD
100
AcDbEntity
  8
resister
  6
ByLayer
 62
  256
370
   -1
100
AcDbLine
 10
49.05999999999853
 20
70.03000000000242
 11
51.25999999999824
 21
70.03000000000242
  0
LINE
  5
3DE
100
AcDbEntity
  8
resister
  6
ByLayer
 62
  256
370
   -1
100
AcDbLine
 10
50.15999999999721
 20
69.02000000000051
 11
50.15999999999743
 21
70.03000000000242
  0
LINE
  5
3DF
100
AcDbEntity
  8
resister
  6
ByLayer
 62
  256
370
   -1
100
AcDbLine
 10
50.15999999999721
 20
76.64000000000043
 11
50.15999999999743
 21
75.63000000000247
  0
LINE
  5
3E0
100
AcDbEntity
  8
5V line
  6
ByLayer
 62
  256
370
   -1
100
AcDbLine
 10
70.47999999999553
 20
69.02000000000054
 11
67.93999999999563
 21
69.02000000000054
  0
SPLINE
  5
3E1
100
AcDbEntity
  8
resister
  6
ByLayer
 62
  256
370
   -1
100
AcDbSpline
210
0
220
0
230
0
 70
    8
 71
    2
 72
    6
 73
    3
 74
    0
 42
1e-07
 43
1e-07
 40
0
 40
0
 40
0
 40
1
 40
1
 40
1
 10
52.69999999999636
 20
69.02000000000048
 30
0
 10
60.3120236134984
 20
70.41436952055128
 30
0
 10
67.93999999999563
 20
69.02000000000054
 30
0
  0
SPLINE
  5
3E2
100
AcDbEntity
  8
resister
  6
ByLayer
 62
  256
370
   -1
100
AcDbSpline
210
0
220
0
230
0
 70
    8
 71
    2
 72
    6
 73
    3
 74
    0
 42
1e-07
 43
1e-07
 40
0
 40
0
 40
0
 40
1
 40
1
 40
1
 10
73.01999999999545
 20
56.32000000000044
 30
0
 10
76.80704958236868
 20
57.71433893549413
 30
0
 10
80.63999999999513
 20
56.32000000000047
 30
0
  0
LINE
  5
3E3
100
AcDbEntity
  8
5V line
  6
ByLayer
 62
  256
370
   -1
100
AcDbLine
 10
80.63999999999513
 20
56.32000000000047
 11
83.17999999999498
 21
56.32000000000038
  0
MTEXT
  5
3E4
100
AcDbEntity
  8
socket_header
  6
ByLayer
 62
  256
370
   -1
100
AcDbMText
 10
46.46183188306627
 20
78.73821557767945
 30
0
 40
1
 41
1.112312546778522
 71
    4
 72
    1
  1
S1
  7
unicode
210
0
220
0
230
1
 50
0
 73
    2
 44
1.54
  0
MTEXT
  5
3E5
100
AcDbEntity
  8
socket_header
  6
ByLayer
 62
  256
370
   -1
100
AcDbMText
 10
46.2961075694981
 20
48.20629293646459
 30
0
 40
1
 41
1.153333333333333
 71
    4
 72
    1
  1
S2
  7
azomix
210
0
220
0
230
1
 50
0
 73
    2
 44
1.54
  0
MTEXT
  5
3E6
100
AcDbEntity
  8
socket_header
  6
ByLayer
 62
  256
370
   -1
100
AcDbMText
 10
79.84040726572913
 20
77.00310353645115
 30
0
 40
1
 41
1.334534769000745
 71
    4
 72
    1
  1
S3
  7
unicode
210
0
220
0
230
1
 50
0
 73
    2
 44
1.54
  0
MTEXT
  5
3E7
100
AcDbEntity
  8
socket_header
  6
ByLayer
 62
  256
370
   -1
100
AcDbMText
 10
82.14984053374609
 20
63.80634200492567
 30
0
 40
1
 41
1.445645880111856
 71
    4
 72
    1
  1
S4
  7
unicode
210
0
220
0
230
1
 50
0
 73
    2
 44
1.54
  0
MTEXT
  5
3E8
100
AcDbEntity
  8
resister
  6
ByLayer
 62
  256
370
   -1
100
AcDbMText
 10
49.75179097385104
 20
72.64817223104774
 30
0
 40
1
 41
1.333333333333333
 71
    4
 72
    1
  1
R5
  7
unicode
210
0
220
0
230
1
 50
0
 73
    2
 44
1.54
  0
MTEXT
  5
3E9
100
AcDbEntity
  8
resister
  6
ByLayer
 62
  256
370
   -1
100
AcDbMText
 10
49.61982335853578
 20
62.81658489006126
 30
0
 40
1
 41
1.333333333333333
 71
    4
 72
    1
  1
R3
  7
unicode
210
0
220
0
230
1
 50
0
 73
    2
 44
1.54
  0
MTEXT
  5
3EA
100
AcDbEntity
  8
diode
  6
ByLayer
 62
  256
370
   -1
100
AcDbMText
 10
53.15184958270793
 20
65.23011531213245
 30
0
 40
1
 41
1.111111111111111
 71
    4
 72
    1
  1
D1
  7
unicode
210
0
220
0
230
1
 50
0
 73
    2
 44
1.54
  0
MTEXT
  5
3EB
100
AcDbEntity
  8
diode
  6
ByLayer
 62
  256
370
   -1
100
AcDbMText
 10
53.44688420267817
 20
59.84731354546803
 30
0
 40
1
 41
1.333333333333333
 71
    4
 72
    1
  1
D2
  7
unicode
210
0
220
0
230
1
 50
0
 73
    2
 44
1.54
  0
MTEXT
  5
3EC
100
AcDbEntity
  8
socket_header
  6
ByLayer
 62
  256
370
   -1
100
AcDbMText
 10
56.15222031664089
 20
74.29776742248842
 30
0
 40
1
 41
1.111111111111111
 71
    4
 72
    1
  1
H1
  7
unicode
210
0
220
0
230
1
 50
0
 73
    2
 44
1.54
  0
LINE
  5
3ED
100
AcDbEntity
  8
universal_board
  6
ByLayer
 62
  256
370
   -1
100
AcDbLine
 10
84.44999999999483
 20
37.27000000000002
 11
36.18999999999701
 21
37.26999999999992
  0
LINE
  5
3EE
100
AcDbEntity
  8
universal_board
  6
ByLayer
 62
  256
370
   -1
100
AcDbLine
 10
84.44999999999503
 20
34.73000000000005
 11
36.18999999999703
 21
34.72999999999995
  0
LINE
  5
3EF
100
AcDbEntity
  8
universal_board
  6
ByLayer
 62
  256
370
   -1
100
AcDbLine
 10
84.44999999999501
 20
32.19000000000003
 11
36.18999999999703
 21
32.18999999999993
  0
LINE
  5
3F0
100
AcDbEntity
  8
universal_board
  6
ByLayer
 62
  256
370
   -1
100
AcDbLine
 10
84.449999999995
 20
29.65
 11
36.18999999999704
 21
29.64999999999989
  0
LINE
  5
3F1
100
AcDbEntity
  8
universal_board
  6
ByLayer
 62
  256
370
   -1
100
AcDbLine
 10
84.44999999999499
 20
27.10999999999997
 11
36.18999999999706
 21
27.10999999999987
  0
LINE
  5
3F2
100
AcDbEntity
  8
universal_board
  6
ByLayer
 62
  256
370
   -1
100
AcDbLine
 10
84.44999999999497
 20
24.56999999999994
 11
36.18999999999706
 21
24.56999999999984
  0
LINE
  5
3F3
100
AcDbEntity
  8
universal_board
  6
ByLayer
 62
  256
370
   -1
100
AcDbLine
 10
84.44999999999496
 20
22.02999999999992
 11
36.18999999999707
 21
22.02999999999981
  0
LINE
  5
3F4
100
AcDbEntity
  8
universal_board
  6
ByLayer
 62
  256
370
   -1
100
AcDbLine
 10
84.44999999999494
 20
19.48999999999989
 11
36.18999999999708
 21
19.48999999999978
  0
LINE
  5
3F5
100
AcDbEntity
  8
universal_board
  6
ByLayer
 62
  256
370
   -1
100
AcDbLine
 10
84.44999999999493
 20
16.94999999999986
 11
36.18999999999708
 21
16.94999999999976
  0
LINE
  5
3F6
100
AcDbEntity
  8
universal_board
  6
ByLayer
 62
  256
370
   -1
100
AcDbLine
 10
84.44999999999492
 20
14.40999999999983
 11
36.18999999999711
 21
14.40999999999973
  0
LINE
  5
3F7
100
AcDbEntity
  8
universal_board
  6
ByLayer
 62
  256
370
   -1
100
AcDbLine
 10
84.4499999999949
 20
11.86999999999981
 11
36.18999999999711
 21
11.8699999999997
  0
LINE
  5
3F8
100
AcDbEntity
  8
universal_board
  6
ByLayer
 62
  256
370
   -1
100
AcDbLine
 10
84.44999999999489
 20
9.329999999999778
 11
36.18999999999712
 21
9.329999999999675
  0
LINE
  5
3F9
100
AcDbEntity
  8
universal_board
  6
ByLayer
 62
  256
370
   -1
100
AcDbLine
 10
84.44999999999487
 20
6.78999999999975
 11
36.18999999999713
 21
6.789999999999647
  0
LINE
  5
3FA
100
AcDbEntity
  8
universal_board
  6
ByLayer
 62
  256
370
   -1
100
AcDbLine
 10
84.44999999999486
 20
4.249999999999723
 11
36.18999999999715
 21
4.24999999999962
  0
LINE
  5
3FB
100
AcDbEntity
  8
universal_board
  6
ByLayer
 62
  256
370
   -1
100
AcDbLine
 10
84.44999999999484
 20
1.709999999999695
 11
36.18999999999715
 21
1.709999999999593
  0
MTEXT
  5
3FC
100
AcDbEntity
  8
resister
  6
ByLayer
 62
  256
370
   -1
100
AcDbMText
 10
57.3399288544782
 20
58.59362119997312
 30
0
 40
1
 41
1.333333333333333
 71
    4
 72
    1
  1
R2
  7
unicode
210
0
220
0
230
1
 50
0
 73
    2
 44
1.54
  0
MTEXT
  5
3FD
100
AcDbEntity
  8
resister
  6
ByLayer
 62
  256
370
   -1
100
AcDbMText
 10
59.78132973781042
 20
59.05550785357651
 30
0
 40
1
 41
1.111111111111111
 71
    4
 72
    1
  1
R1
  7
unicode
210
0
220
0
230
1
 50
0
 73
    2
 44
1.54
  0
MTEXT
  5
3FE
100
AcDbEntity
  8
micon
  6
ByLayer
 62
  256
370
   -1
100
AcDbMText
 10
64.5527673892264
 20
55.08083837731627
 30
0
 40
1
 41
1.111111111111111
 71
    4
 72
    1
  1
U1
  7
unicode
210
0
220
0
230
1
 50
0
 73
    2
 44
1.54
  0
MTEXT
  5
3FF
100
AcDbEntity
  8
condenser
  6
ByLayer
 62
  256
370
   -1
100
AcDbMText
 10
71.28636621285919
 20
58.94143503619907
 30
0
 40
1
 41
0.9999999999999999
 71
    4
 72
    1
  1
C1
  7
unicode
210
0
220
0
230
1
 50
0
 73
    2
 44
1.54
  0
MTEXT
  5
400
100
AcDbEntity
  8
condenser
  6
ByLayer
 62
  256
370
   -1
100
AcDbMText
 10
71.2492621814894
 20
61.23706138916782
 30
0
 40
1
 41
1.222222222222222
 71
    4
 72
    1
  1
C2
  7
unicode
210
0
220
0
230
1
 50
0
 73
    2
 44
1.54
  0
MTEXT
  5
401
100
AcDbEntity
  8
socket_header
  6
ByLayer
 62
  256
370
   -1
100
AcDbMText
 10
75.94173752065394
 20
43.83865307705693
 30
0
 40
1
 41
1.333333333333333
 71
    4
 72
    1
  1
H2
  7
unicode
210
0
220
0
230
1
 50
0
 73
    2
 44
1.54
  0
MTEXT
  5
402
100
AcDbEntity
  8
universal_board
  6
ByLayer
 62
  256
370
   -1
100
AcDbMText
 10
38.7952682097849
 20
78.85138263638781
 30
0
 40
1
 41
1.111111111111111
 71
    4
 72
    1
  1
B1
  7
unicode
210
0
220
0
230
1
 50
0
 73
    2
 44
1.54
  0
CIRCLE
  5
403
100
AcDbEntity
  8
0_wire
  6
ByLayer
 62
  256
370
  200
100
AcDbCircle
 10
73.01999999999541
 20
33.46000000000008
 40
0.4
  0
CIRCLE
  5
404
100
AcDbEntity
  8
0_wire
  6
ByLayer
 62
  256
370
  200
100
AcDbCircle
 10
73.01999999999546
 20
5.519999999999861
 40
0.4
  0
CIRCLE
  5
405
100
AcDbEntity
  8
0_wire
  6
ByLayer
 62
  256
370
  200
100
AcDbCircle
 10
37.45999999999707
 20
18.21999999999994
 40
0.4
  0
CIRCLE
  5
406
100
AcDbEntity
  8
0_wire
  6
ByLayer
 62
  256
370
  200
100
AcDbCircle
 10
37.45999999999709
 20
35.99999999999997
 40
0.4
  0
CIRCLE
  5
407
100
AcDbEntity
  8
0_wire
  6
ByLayer
 62
  256
370
  200
100
AcDbCircle
 10
37.459999999997
 20
33.46000000000006
 40
0.4
  0
CIRCLE
  5
408
100
AcDbEntity
  8
0_wire
  6
ByLayer
 62
  256
370
  200
100
AcDbCircle
 10
37.45999999999707
 20
2.979999999999713
 40
0.4
  0
LINE
  5
409
100
AcDbEntity
  8
0_wire
  6
ByLayer
 62
  256
370
  200
100
AcDbLine
 10
65.39999999999579
 20
36.00000000000006
 11
73.01999999999529
 21
36.00000000000006
  0
LINE
  5
40A
100
AcDbEntity
  8
0_wire
  6
ByLayer
 62
  256
370
  200
100
AcDbLine
 10
60.319999999996
 20
36.00000000000011
 11
60.31999999999598
 21
33.46000000000009
  0
LINE
  5
40B
100
AcDbEntity
  8
0_wire
  6
ByLayer
 62
  256
370
  200
100
AcDbLine
 10
62.85999999999586
 20
36.00000000000013
 11
60.319999999996
 21
36.00000000000011
  0
LINE
  5
40C
100
AcDbEntity
  8
0_wire
  6
ByLayer
 62
  256
370
  200
100
AcDbLine
 10
75.55999999999534
 20
25.84000000000009
 11
73.01999999999548
 21
25.8400000000001
  0
LINE
  5
40D
100
AcDbEntity
  8
0_wire
  6
ByLayer
 62
  256
370
  200
100
AcDbLine
 10
47.61999999999665
 20
5.519999999999861
 11
45.07999999999676
 21
5.519999999999882
  0
LINE
  5
40E
100
AcDbEntity
  8
0_wire
  6
ByLayer
 62
  256
370
  200
100
AcDbLine
 10
39.99999999999694
 20
13.13999999999982
 11
37.45999999999709
 21
13.13999999999981
  0
LINE
  5
40F
100
AcDbEntity
  8
0_wire
  6
ByLayer
 62
  256
370
  200
100
AcDbLine
 10
39.99999999999696
 20
10.59999999999983
 11
37.45999999999711
 21
10.59999999999982
  0
LINE
  5
410
100
AcDbEntity
  8
0_wire
  6
ByLayer
 62
  256
370
  200
100
AcDbLine
 10
39.99999999999697
 20
8.059999999999796
 11
37.45999999999712
 21
8.059999999999789
  0
LINE
  5
411
100
AcDbEntity
  8
0_wire
  6
ByLayer
 62
  256
370
  200
100
AcDbLine
 10
37.45999999999705
 20
5.519999999999762
 11
39.99999999999699
 21
5.519999999999776
  0
CIRCLE
  5
412
100
AcDbEntity
  8
0_wire
  6
ByLayer
 62
  256
370
  200
100
AcDbCircle
 10
73.01999999999555
 20
2.979999999999897
 40
0.4
  0
LINE
  5
413
100
AcDbEntity
  8
0_GND
  6
ByLayer
 62
  256
370
  200
100
AcDbLine
 10
78.09999999999523
 20
20.76000000000007
 11
78.09999999999523
 21
18.22000000000004
  0
LINE
  5
414
100
AcDbEntity
  8
0_wire
  6
ByLayer
 62
  256
370
  200
100
AcDbLine
 10
78.09999999999522
 20
23.30000000000008
 11
78.09999999999521
 21
25.84000000000009
  0
LINE
  5
415
100
AcDbEntity
  8
0_GND
  6
ByLayer
 62
  256
370
  200
100
AcDbLine
 10
78.09999999999525
 20
15.68000000000004
 11
78.09999999999523
 21
18.22000000000004
  0
LINE
  5
416
100
AcDbEntity
  8
0_GND
  6
ByLayer
 62
  256
370
  200
100
AcDbLine
 10
78.09999999999522
 20
28.38000000000013
 11
78.09999999999523
 21
30.92000000000015
  0
LINE
  5
417
100
AcDbEntity
  8
0_GND
  6
ByLayer
 62
  256
370
  200
100
AcDbLine
 10
78.09999999999522
 20
30.92000000000015
 11
83.17999999999495
 21
30.92000000000021
  0
LINE
  5
418
100
AcDbEntity
  8
0_GND
  6
ByLayer
 62
  256
370
  200
100
AcDbLine
 10
83.17999999999495
 20
30.92000000000021
 11
83.17999999999496
 21
28.38000000000019
  0
LINE
  5
419
100
AcDbEntity
  8
0_GND
  6
ByLayer
 62
  256
370
  200
100
AcDbLine
 10
78.09999999999525
 20
15.68000000000004
 11
78.09999999999528
 21
13.14000000000001
  0
LINE
  5
41A
100
AcDbEntity
  8
0_GND
  6
ByLayer
 62
  256
370
  200
100
AcDbLine
 10
78.09999999999528
 20
13.14000000000001
 11
83.17999999999503
 21
13.14000000000004
  0
LINE
  5
41B
100
AcDbEntity
  8
0_GND
  6
ByLayer
 62
  256
370
  200
100
AcDbLine
 10
83.17999999999503
 20
13.14000000000004
 11
83.17999999999498
 21
15.68000000000006
  0
LINE
  5
41C
100
AcDbEntity
  8
0_GND
  6
ByLayer
 62
  256
370
  200
100
AcDbLine
 10
83.17999999999496
 20
28.38000000000019
 11
83.17999999999498
 21
15.68000000000006
  0
LINE
  5
41D
100
AcDbEntity
  8
0_wire
  6
ByLayer
 62
  256
370
  200
100
AcDbLine
 10
78.09999999999521
 20
25.8400000000001
 11
75.55999999999534
 21
25.84000000000009
  0
LINE
  5
41E
100
AcDbEntity
  8
0_GND
  6
ByLayer
 62
  256
370
  200
100
AcDbLine
 10
78.09999999999523
 20
18.22000000000001
 11
73.01999999999538
 21
18.21999999999997
  0
LINE
  5
41F
100
AcDbEntity
  8
0_wire
  6
ByLayer
 62
  256
370
  200
100
AcDbLine
 10
75.55999999999537
 20
23.30000000000007
 11
73.01999999999546
 21
23.30000000000007
  0
LINE
  5
420
100
AcDbEntity
  8
5V line
  6
ByLayer
 62
  256
370
  200
100
AcDbLine
 10
75.55999999999538
 20
20.76000000000004
 11
73.01999999999538
 21
20.76000000000001
  0
LINE
  5
421
100
AcDbEntity
  8
5V line
  6
ByLayer
 62
  256
370
  200
100
AcDbLine
 10
73.01999999999538
 20
20.76000000000001
 11
70.4799999999953
 21
20.76
  0
LINE
  5
422
100
AcDbEntity
  8
0_GND
  6
ByLayer
 62
  256
370
  200
100
AcDbLine
 10
65.39999999999579
 20
18.22000000000002
 11
65.39999999999584
 21
8.059999999999945
  0
LINE
  5
423
100
AcDbEntity
  8
0_GND
  6
ByLayer
 62
  256
370
  200
100
AcDbLine
 10
65.39999999999584
 20
8.059999999999945
 11
62.85999999999594
 21
8.059999999999931
  0
LINE
  5
424
100
AcDbEntity
  8
0_GND
  6
ByLayer
 62
  256
370
  200
100
AcDbLine
 10
62.8599999999959
 20
20.76000000000004
 11
65.39999999999579
 21
20.76000000000005
  0
LINE
  5
425
100
AcDbEntity
  8
0_GND
  6
ByLayer
 62
  256
370
  200
100
AcDbLine
 10
65.39999999999579
 20
20.76000000000005
 11
65.39999999999579
 21
18.22000000000002
  0
LINE
  5
426
100
AcDbEntity
  8
0_GND
  6
ByLayer
 62
  256
370
  200
100
AcDbLine
 10
73.01999999999538
 20
18.21999999999995
 11
65.39999999999579
 21
18.21999999999994
  0
LINE
  5
427
100
AcDbEntity
  8
0_wire
  6
ByLayer
 62
  256
370
  200
100
AcDbLine
 10
73.01999999999546
 20
23.30000000000007
 11
62.85999999999602
 21
23.30000000000005
  0
LINE
  5
428
100
AcDbEntity
  8
0_wire
  6
ByLayer
 62
  256
370
  200
100
AcDbLine
 10
73.01999999999548
 20
25.8400000000001
 11
60.31999999999639
 21
25.84000000000006
  0
LINE
  5
429
100
AcDbEntity
  8
0_wire
  6
ByLayer
 62
  256
370
  200
100
AcDbLine
 10
57.77999999999616
 20
15.67999999999993
 11
52.69999999999638
 21
15.67999999999998
  0
LINE
  5
42A
100
AcDbEntity
  8
5V line
  6
ByLayer
 62
  256
370
  200
100
AcDbLine
 10
47.61999999999659
 20
15.67999999999997
 11
50.15999999999649
 21
15.67999999999999
  0
LINE
  5
42B
100
AcDbEntity
  8
0_wire
  6
ByLayer
 62
  256
370
  200
100
AcDbLine
 10
47.61999999999661
 20
13.13999999999995
 11
50.15999999999651
 21
13.13999999999995
  0
LINE
  5
42C
100
AcDbEntity
  8
0_wire
  6
ByLayer
 62
  256
370
  200
100
AcDbLine
 10
47.61999999999662
 20
10.59999999999992
 11
50.1599999999965
 21
10.59999999999988
  0
LINE
  5
42D
100
AcDbEntity
  8
0_wire
  6
ByLayer
 62
  256
370
  200
100
AcDbLine
 10
47.61999999999664
 20
8.059999999999917
 11
50.15999999999651
 21
8.059999999999931
  0
LINE
  5
42E
100
AcDbEntity
  8
0_wire
  6
ByLayer
 62
  256
370
  200
100
AcDbLine
 10
57.77999999999611
 20
33.46000000000006
 11
57.77999999999614
 21
23.30000000000002
  0
LINE
  5
42F
100
AcDbEntity
  8
0_wire
  6
ByLayer
 62
  256
370
  200
100
AcDbLine
 10
57.77999999999614
 20
18.22
 11
57.77999999999615
 21
15.67999999999999
  0
LINE
  5
430
100
AcDbEntity
  8
0_wire
  6
ByLayer
 62
  256
370
  200
100
AcDbLine
 10
60.31999999999598
 20
33.46000000000009
 11
57.77999999999611
 21
33.46000000000008
  0
LINE
  5
431
100
AcDbEntity
  8
5V line
  6
ByLayer
 62
  256
370
  200
100
AcDbLine
 10
50.15999999999649
 20
18.21999999999996
 11
50.15999999999649
 21
20.75999999999998
  0
LINE
  5
432
100
AcDbEntity
  8
0_GND
  6
ByLayer
 62
  256
370
  200
100
AcDbLine
 10
47.61999999999659
 20
20.75999999999997
 11
47.61999999999658
 21
18.21999999999994
  0
LINE
  5
433
100
AcDbEntity
  8
5V line
  6
ByLayer
 62
  256
370
  200
100
AcDbLine
 10
50.15999999999647
 20
23.3
 11
50.15999999999649
 21
20.75999999999999
  0
LINE
  5
434
100
AcDbEntity
  8
5V line
  6
ByLayer
 62
  256
370
  200
100
AcDbLine
 10
50.15999999999649
 20
18.21999999999996
 11
50.1599999999965
 21
15.67999999999995
  0
LINE
  5
435
100
AcDbEntity
  8
0_GND
  6
ByLayer
 62
  256
370
  200
100
AcDbLine
 10
62.8599999999959
 20
20.76000000000004
 11
52.69999999999639
 21
20.75999999999999
  0
LINE
  5
436
100
AcDbEntity
  8
0_GND
  6
ByLayer
 62
  256
370
  200
100
AcDbLine
 10
52.69999999999639
 20
20.75999999999999
 11
52.69999999999636
 21
25.84000000000005
  0
LINE
  5
437
100
AcDbEntity
  8
0_GND
  6
ByLayer
 62
  256
370
  200
100
AcDbLine
 10
52.69999999999636
 20
25.84000000000005
 11
50.15999999999646
 21
25.84000000000004
  0
LINE
  5
438
100
AcDbEntity
  8
0_wire
  6
ByLayer
 62
  256
370
  200
100
AcDbLine
 10
39.99999999999697
 20
5.519999999999854
 11
42.53999999999687
 21
5.519999999999868
  0
LINE
  5
439
100
AcDbEntity
  8
0_wire
  6
ByLayer
 62
  256
370
  200
100
AcDbLine
 10
52.69999999999639
 20
15.67999999999995
 11
52.69999999999644
 21
5.519999999999875
  0
LINE
  5
43A
100
AcDbEntity
  8
0_wire
  6
ByLayer
 62
  256
370
  200
100
AcDbLine
 10
52.69999999999644
 20
5.519999999999875
 11
47.61999999999665
 21
5.519999999999861
  0
LINE
  5
43B
100
AcDbEntity
  8
0_wire
  6
ByLayer
 62
  256
370
  200
100
AcDbLine
 10
39.99999999999694
 20
13.13999999999992
 11
47.61999999999664
 21
13.13999999999992
  0
LINE
  5
43C
100
AcDbEntity
  8
0_wire
  6
ByLayer
 62
  256
370
  200
100
AcDbLine
 10
47.61999999999664
 20
10.5999999999999
 11
39.99999999999696
 21
10.59999999999989
  0
LINE
  5
43D
100
AcDbEntity
  8
0_wire
  6
ByLayer
 62
  256
370
  200
100
AcDbLine
 10
39.99999999999697
 20
8.059999999999881
 11
47.61999999999664
 21
8.059999999999896
  0
LINE
  5
43E
100
AcDbEntity
  8
0_wire
  6
ByLayer
 62
  256
370
  200
100
AcDbLine
 10
57.77999999999616
 20
13.13999999999993
 11
62.85999999999606
 21
13.14000000000001
  0
LINE
  5
43F
100
AcDbEntity
  8
0_wire
  6
ByLayer
 62
  256
370
  200
100
AcDbLine
 10
57.77999999999618
 20
10.59999999999989
 11
60.31999999999646
 21
10.59999999999993
  0
LINE
  5
440
100
AcDbEntity
  8
0_GND
  6
ByLayer
 62
  256
370
  200
100
AcDbLine
 10
57.77999999999619
 20
8.059999999999867
 11
62.85999999999594
 21
8.059999999999931
  0
LINE
  5
441
100
AcDbEntity
  8
0_GND
  6
ByLayer
 62
  256
370
  200
100
AcDbLine
 10
47.61999999999658
 20
25.84000000000002
 11
47.61999999999661
 21
20.75999999999999
  0
LINE
  5
442
100
AcDbEntity
  8
0_GND
  6
ByLayer
 62
  256
370
  200
100
AcDbLine
 10
47.61999999999658
 20
25.84000000000002
 11
50.15999999999646
 21
25.84000000000004
  0
LINE
  5
443
100
AcDbEntity
  8
0_GND
  6
ByLayer
 62
  256
370
  200
100
AcDbLine
 10
47.61999999999661
 20
20.75999999999993
 11
37.45999999999707
 21
20.75999999999988
  0
LINE
  5
444
100
AcDbEntity
  8
5V line
  6
ByLayer
 62
  256
370
  200
100
AcDbLine
 10
73.01999999999546
 20
28.38000000000012
 11
70.47999999999551
 21
28.38000000000013
  0
LINE
  5
445
100
AcDbEntity
  8
5V line
  6
ByLayer
 62
  256
370
  200
100
AcDbLine
 10
70.47999999999551
 20
28.38000000000013
 11
67.93999999999565
 21
28.38000000000009
  0
LINE
  5
446
100
AcDbEntity
  8
5V line
  6
ByLayer
 62
  256
370
  200
100
AcDbLine
 10
50.15999999999647
 20
28.38000000000005
 11
52.69999999999636
 21
28.38000000000007
  0
LINE
  5
447
100
AcDbEntity
  8
5V line
  6
ByLayer
 62
  256
370
  200
100
AcDbLine
 10
39.99999999999693
 20
15.67999999999995
 11
37.45999999999708
 21
15.67999999999984
  0
LINE
  5
448
100
AcDbEntity
  8
0_GND
  6
ByLayer
 62
  256
370
   -1
100
AcDbLine
 10
60.31999999999606
 20
20.76000000000003
 11
60.31999999999606
 21
23.30000000000005
  0
LINE
  5
449
100
AcDbEntity
  8
0_GND
  6
ByLayer
 62
  256
370
   -1
100
AcDbLine
 10
55.2399999999963
 20
20.76000000000001
 11
55.23999999999631
 21
18.21999999999999
  0
LINE
  5
44A
100
AcDbEntity
  8
0_GND
  6
ByLayer
 62
  256
370
   -1
100
AcDbLine
 10
55.23999999999631
 20
18.21999999999999
 11
52.69999999999642
 21
18.22
  0
LINE
  5
44B
100
AcDbEntity
  8
0_GND
  6
ByLayer
 62
  256
370
   -1
100
AcDbLine
 10
52.69999999999642
 20
18.22
 11
52.69999999999642
 21
20.76000000000002
  0
LINE
  5
44C
100
AcDbEntity
  8
0_GND
  6
ByLayer
 62
  256
370
   -1
100
AcDbLine
 10
45.07999999999672
 20
20.75999999999997
 11
45.07999999999673
 21
15.67999999999992
  0
LINE
  5
44D
100
AcDbEntity
  8
0_GND
  6
ByLayer
 62
  256
370
   -1
100
AcDbLine
 10
45.07999999999673
 20
15.67999999999992
 11
42.53999999999687
 21
15.67999999999991
  0
LINE
  5
44E
100
AcDbEntity
  8
0_GND
  6
ByLayer
 62
  256
370
   -1
100
AcDbLine
 10
42.53999999999687
 20
15.67999999999991
 11
42.53999999999685
 21
18.21999999999993
  0
LINE
  5
44F
100
AcDbEntity
  8
0_GND
  6
ByLayer
 62
  256
370
   -1
100
AcDbLine
 10
42.53999999999685
 20
18.21999999999993
 11
39.99999999999696
 21
18.21999999999994
  0
LINE
  5
450
100
AcDbEntity
  8
0_GND
  6
ByLayer
 62
  256
370
   -1
100
AcDbLine
 10
39.99999999999696
 20
18.21999999999994
 11
39.99999999999696
 21
20.75999999999996
  0
LINE
  5
451
100
AcDbEntity
  8
0_GND
  6
ByLayer
 62
  256
370
   -1
100
AcDbLine
 10
55.23999999999631
 20
13.13999999999995
 11
55.23999999999631
 21
8.05999999999991
  0
LINE
  5
452
100
AcDbEntity
  8
0_GND
  6
ByLayer
 62
  256
370
   -1
100
AcDbLine
 10
55.23999999999631
 20
8.05999999999991
 11
57.7799999999962
 21
8.05999999999991
  0
LINE
  5
453
100
AcDbEntity
  8
0_GND
  6
ByLayer
 62
  256
370
   -1
100
AcDbLine
 10
57.7799999999962
 20
8.05999999999991
 11
55.23999999999631
 21
8.05999999999991
  0
LINE
  5
454
100
AcDbEntity
  8
0_GND
  6
ByLayer
 62
  256
370
   -1
100
AcDbLine
 10
55.23999999999631
 20
8.05999999999991
 11
55.23999999999632
 21
2.979999999999869
  0
LINE
  5
455
100
AcDbEntity
  8
0_GND
  6
ByLayer
 62
  256
370
   -1
100
AcDbLine
 10
55.23999999999632
 20
2.979999999999869
 11
39.99999999999699
 21
2.979999999999805
  0
LINE
  5
456
100
AcDbEntity
  8
0_GND
  6
ByLayer
 62
  256
370
   -1
100
AcDbLine
 10
62.85999999999596
 20
8.059999999999931
 11
62.85999999999595
 21
10.59999999999995
  0
LINE
  5
457
100
AcDbEntity
  8
0_GND
  6
ByLayer
 62
  256
370
   -1
100
AcDbLine
 10
60.31999999999606
 20
20.76000000000003
 11
60.31999999999607
 21
15.67999999999999
  0
LINE
  5
458
100
AcDbEntity
  8
0_GND
  6
ByLayer
 62
  256
370
   -1
100
AcDbLine
 10
60.31999999999607
 20
15.67999999999999
 11
62.85999999999595
 21
15.67999999999999
  0
LINE
  5
459
100
AcDbEntity
  8
0_GND
  6
ByLayer
 62
  256
370
   -1
100
AcDbLine
 10
62.85999999999595
 20
15.67999999999999
 11
62.85999999999594
 21
20.76000000000002
  0
LINE
  5
45A
100
AcDbEntity
  8
0_GND
  6
ByLayer
 62
  256
370
   -1
100
AcDbLine
 10
65.39999999999581
 20
20.76000000000002
 11
67.93999999999569
 21
20.76000000000002
  0
LINE
  5
45B
100
AcDbEntity
  8
0_GND
  6
ByLayer
 62
  256
370
   -1
100
AcDbLine
 10
67.93999999999569
 20
20.76000000000002
 11
67.93999999999569
 21
18.22
  0
LINE
  5
45C
100
AcDbEntity
  8
0_GND
  6
ByLayer
 62
  256
370
   -1
100
AcDbLine
 10
80.63999999999517
 20
13.14000000000001
 11
80.63999999999513
 21
30.92000000000014
  0
MTEXT
  5
45D
100
AcDbEntity
  8
socket_header
  6
ByLayer
 62
  256
370
   -1
100
AcDbMText
 10
62.04450835665937
 20
46.51462537016785
 30
0
 40
1
 41
1.334534769000745
 71
    4
 72
    1
  1
S5
  7
unicode
210
0
220
0
230
1
 50
0
 73
    2
 44
1.54
  0
MTEXT
  5
45E
100
AcDbEntity
  8
0
  6
ByLayer
 62
  256
370
   -1
100
AcDbMText
 10
6.234031087440766
 20
51.74736435755189
 30
0
 40
1
 41
20.22222222222222
 71
    4
 72
    1
  3
B1  :  14x19P\PC1,2: 0.1uF \PD1,2:  3.6V\PH1,2:  2P\PJ1  : USB B \PR1,2: 27\PR3  : 1.2k\PR5  : 10k\PS1-3:  2P\PS4  :  
  1
8P\PS5  : IC  8P\PU1  : ATTiny85-20PU
  7
unicode
210
0
220
0
230
1
 50
0
 73
    2
 44
1.54
  0
ENDSEC
  0
SECTION
  2
OBJECTS
  0
DICTIONARY
  5
C
330
0
100
AcDbDictionary
281
    1
  3
ACAD_GROUP
350
D
  0
DICTIONARY
  5
D
330
C
100
AcDbDictionary
281
    1
  0
PLOTSETTINGS
  5
45F
100
AcDbPlotSettings
  6
1x1
 40
5
 41
5
 42
5
 43
5
  0
ENDSEC
  0
EOF
