999
dxfrw 0.6.3
  0
SECTION
  2
HEADER
  9
$ACADVER
  1
AC1021
  9
$DWGCODEPAGE
  3
ANSI_1252
  9
$INSBASE
 10
0
 20
0
 30
0
  9
$EXTMIN
 10
-144.2887464407712
 20
-0.8300000000011352
 30
0
  9
$EXTMAX
 10
-77.70177898448974
 20
77.40667801524205
 30
0
  9
$LIMMIN
 10
0
 20
0
  9
$LIMMAX
 10
420
 20
297
  9
$ORTHOMODE
 70
    0
  9
$REGENMODE
 70
    1
  9
$FILLMODE
 70
    1
  9
$QTEXTMODE
 70
    0
  9
$MIRRTEXT
 70
    0
  9
$LTSCALE
 40
1
  9
$ATTMODE
 70
    0
  9
$TEXTSIZE
 40
2.5
  9
$TRACEWID
 40
15.68
  9
$TEXTSTYLE
  7
STANDARD
  9
$CLAYER
  8
5V line
  9
$CELTYPE
  6
BYLAYER
  9
$CECOLOR
 62
  256
  9
$CELTSCALE
 40
1
  9
$DISPSILH
 70
    0
  9
$DIMSCALE
 40
1
  9
$DIMASZ
 40
2.5
  9
$DIMEXO
 40
0.625
  9
$DIMDLI
 40
3.75
  9
$DIMRND
 40
0
  9
$DIMDLE
 40
0
  9
$DIMEXE
 40
1.25
  9
$DIMTP
 40
0
  9
$DIMTM
 40
0
  9
$DIMTXT
 40
2.5
  9
$DIMCEN
 40
2.5
  9
$DIMTSZ
 40
0
  9
$DIMTOL
 70
    0
  9
$DIMLIM
 70
    0
  9
$DIMTIH
 70
    0
  9
$DIMTOH
 70
    0
  9
$DIMSE1
 70
    0
  9
$DIMSE2
 70
    0
  9
$DIMTAD
 70
    1
  9
$DIMZIN
 70
    8
  9
$DIMBLK
  1

  9
$DIMASO
 70
    1
  9
$DIMSHO
 70
    1
  9
$DIMPOST
  1

  9
$DIMAPOST
  1

  9
$DIMALT
 70
    0
  9
$DIMALTD
 70
    3
  9
$DIMALTF
 40
0.03937
  9
$DIMLFAC
 40
1
  9
$DIMTOFL
 70
    1
  9
$DIMTVP
 40
0
  9
$DIMTIX
 70
    0
  9
$DIMSOXD
 70
    0
  9
$DIMSAH
 70
    0
  9
$DIMBLK1
  1

  9
$DIMBLK2
  1

  9
$DIMSTYLE
  2
STANDARD
  9
$DIMCLRD
 70
    0
  9
$DIMCLRE
 70
    0
  9
$DIMCLRT
 70
    0
  9
$DIMTFAC
 40
1
  9
$DIMGAP
 40
0.625
  9
$DIMJUST
 70
    0
  9
$DIMSD1
 70
    0
  9
$DIMSD2
 70
    0
  9
$DIMTOLJ
 70
    0
  9
$DIMTZIN
 70
    8
  9
$DIMALTZ
 70
    0
  9
$DIMALTTZ
 70
    0
  9
$DIMUPT
 70
    0
  9
$DIMDEC
 70
    2
  9
$DIMTDEC
 70
    2
  9
$DIMALTU
 70
    2
  9
$DIMALTTD
 70
    3
  9
$DIMTXSTY
  7
STANDARD
  9
$DIMAUNIT
 70
    0
  9
$DIMADEC
 70
    0
  9
$DIMALTRND
 40
0
  9
$DIMAZIN
 70
    0
  9
$DIMDSEP
 70
   44
  9
$DIMATFIT
 70
    3
  9
$DIMFRAC
 70
    0
  9
$DIMLDRBLK
  1
STANDARD
  9
$DIMLUNIT
 70
    2
  9
$DIMLWD
 70
   -2
  9
$DIMLWE
 70
   -2
  9
$DIMTMOVE
 70
    0
  9
$DIMFXL
 40
1
  9
$DIMFXLON
 70
    0
  9
$DIMJOGANG
 40
0.7854
  9
$DIMTFILL
 70
    0
  9
$DIMTFILLCLR
 70
    0
  9
$DIMARCSYM
 70
    0
  9
$DIMLTYPE
  6

  9
$DIMLTEX1
  6

  9
$DIMLTEX2
  6

  9
$LUNITS
 70
    2
  9
$LUPREC
 70
    4
  9
$SKETCHINC
 40
1
  9
$FILLETRAD
 40
0
  9
$AUNITS
 70
    0
  9
$AUPREC
 70
    2
  9
$MENU
  1
.
  9
$ELEVATION
 40
0
  9
$PELEVATION
 40
0
  9
$THICKNESS
 40
0
  9
$LIMCHECK
 70
    0
  9
$CHAMFERA
 40
0
  9
$CHAMFERB
 40
0
  9
$CHAMFERC
 40
0
  9
$CHAMFERD
 40
0
  9
$SKPOLY
 70
    0
  9
$USRTIMER
 70
    1
  9
$ANGBASE
 50
0
  9
$ANGDIR
 70
    0
  9
$PDMODE
 70
   34
  9
$PDSIZE
 40
0
  9
$PLINEWID
 40
0
  9
$SPLFRAME
 70
    0
  9
$SPLINETYPE
 70
    2
  9
$SPLINESEGS
 70
    8
  9
$HANDSEED
  5
20000
  9
$SURFTAB1
 70
    6
  9
$SURFTAB2
 70
    6
  9
$SURFTYPE
 70
    6
  9
$SURFU
 70
    6
  9
$SURFV
 70
    6
  9
$UCSBASE
  2

  9
$UCSNAME
  2

  9
$UCSORG
 10
0
 20
0
 30
0
  9
$UCSXDIR
 10
1
 20
0
 30
0
  9
$UCSYDIR
 10
0
 20
1
 30
0
  9
$UCSORTHOREF
  2

  9
$UCSORTHOVIEW
 70
    0
  9
$UCSORGTOP
 10
0
 20
0
 30
0
  9
$UCSORGBOTTOM
 10
0
 20
0
 30
0
  9
$UCSORGLEFT
 10
0
 20
0
 30
0
  9
$UCSORGRIGHT
 10
0
 20
0
 30
0
  9
$UCSORGFRONT
 10
0
 20
0
 30
0
  9
$UCSORGBACK
 10
0
 20
0
 30
0
  9
$PUCSBASE
  2

  9
$PUCSNAME
  2

  9
$PUCSORG
 10
0
 20
0
 30
0
  9
$PUCSXDIR
 10
1
 20
0
 30
0
  9
$PUCSYDIR
 10
0
 20
1
 30
0
  9
$PUCSORTHOREF
  2

  9
$PUCSORTHOVIEW
 70
    0
  9
$PUCSORGTOP
 10
0
 20
0
 30
0
  9
$PUCSORGBOTTOM
 10
0
 20
0
 30
0
  9
$PUCSORGLEFT
 10
0
 20
0
 30
0
  9
$PUCSORGRIGHT
 10
0
 20
0
 30
0
  9
$PUCSORGFRONT
 10
0
 20
0
 30
0
  9
$PUCSORGBACK
 10
0
 20
0
 30
0
  9
$USERI1
 70
    0
  9
$USERI2
 70
    0
  9
$USERI3
 70
    0
  9
$USERI4
 70
    0
  9
$USERI5
 70
    0
  9
$USERR1
 40
0
  9
$USERR2
 40
0
  9
$USERR3
 40
0
  9
$USERR4
 40
0
  9
$USERR5
 40
0
  9
$WORLDVIEW
 70
    1
  9
$SHADEDGE
 70
    3
  9
$SHADEDIF
 70
   70
  9
$TILEMODE
 70
    1
  9
$MAXACTVP
 70
   64
  9
$PINSBASE
 10
425.9881567815762
 20
9.279152480948859
 30
0
  9
$PLIMCHECK
 70
    0
  9
$PEXTMIN
 10
0
 20
0
 30
0
  9
$PEXTMAX
 10
0
 20
0
 30
0
  9
$GRIDMODE
 70
    0
  9
$SNAPSTYLE
 70
    0
  9
$PLIMMIN
 10
0
 20
0
  9
$PLIMMAX
 10
297
 20
210
  9
$UNITMODE
 70
    0
  9
$VISRETAIN
 70
    1
  9
$PLINEGEN
 70
    0
  9
$PSLTSCALE
 70
    1
  9
$TREEDEPTH
 70
 3020
  9
$CMLSTYLE
  2
Standard
  9
$CMLJUST
 70
    0
  9
$CMLSCALE
 40
20
  9
$PROXYGRAPHICS
 70
    1
  9
$MEASUREMENT
 70
    1
  9
$CELWEIGHT
370
   -1
  9
$ENDCAPS
280
    0
  9
$JOINSTYLE
280
    0
  9
$LWDISPLAY
290
    0
  9
$INSUNITS
 70
    0
  9
$HYPERLINKBASE
  1

  9
$STYLESHEET
  1

  9
$XEDIT
290
    1
  9
$CEPSNTYPE
380
    0
  9
$PSTYLEMODE
290
    1
  9
$EXTNAMES
290
    1
  9
$PSVPSCALE
 40
2.5
  9
$OLESTARTUP
290
    0
  9
$SORTENTS
280
  127
  9
$INDEXCTL
280
    0
  9
$HIDETEXT
280
    1
  9
$XCLIPFRAME
290
    0
  9
$HALOGAP
280
    0
  9
$OBSCOLOR
 70
  257
  9
$OBSLTYPE
280
    0
  9
$INTERSECTIONDISPLAY
280
    0
  9
$INTERSECTIONCOLOR
 70
  257
  9
$DIMASSOC
280
    1
  9
$PROJECTNAME
  1

  9
$CAMERADISPLAY
290
    0
  9
$LENSLENGTH
 40
50
  9
$CAMERAHEIGHT
 40
0
  9
$STEPSPERSEC
 40
2
  9
$STEPSIZE
 40
50
  9
$3DDWFPREC
 40
2
  9
$PSOLWIDTH
 40
5
  9
$PSOLHEIGHT
 40
80
  9
$LOFTANG1
 40
1.570796326794897
  9
$LOFTANG2
 40
1.570796326794897
  9
$LOFTMAG1
 40
0
  9
$LOFTMAG2
 40
0
  9
$LOFTPARAM
 70
    7
  9
$LOFTNORMALS
280
    1
  9
$LATITUDE
 40
1
  9
$LONGITUDE
 40
1
  9
$NORTHDIRECTION
 40
0
  9
$TIMEZONE
 70
-8000
  9
$LIGHTGLYPHDISPLAY
280
    1
  9
$TILEMODELIGHTSYNCH
280
    1
  9
$SOLIDHIST
280
    1
  9
$SHOWHIST
280
    1
  9
$DWFFRAME
280
    2
  9
$DGNFRAME
280
    0
  9
$REALWORLDSCALE
290
    1
  9
$INTERFERECOLOR
 62
    1
  9
$CSHADOW
280
    0
  9
$SHADOWPLANELOCATION
 40
0
  0
ENDSEC
  0
SECTION
  2
CLASSES
  0
ENDSEC
  0
SECTION
  2
TABLES
  0
TABLE
  2
VPORT
  5
8
330
0
100
AcDbSymbolTable
 70
    1
  0
VPORT
  5
31
330
2
100
AcDbSymbolTableRecord
100
AcDbViewportTableRecord
  2
*ACTIVE
 70
    0
 10
0
 20
0
 11
1
 21
1
 12
-14.54466466114469
 22
40.70586017376468
 13
0
 23
0
 14
10
 24
10
 15
10
 25
10
 16
0
 26
0
 36
1
 17
0
 27
0
 37
0
 40
92.83624242460009
 41
1.600827300930713
 42
50
 43
0
 44
0
 50
0
 51
0
 71
    0
 72
  100
 73
    1
 74
    3
 75
    0
 76
    0
 77
    0
 78
    0
281
    0
 65
    1
110
0
120
0
130
0
111
1
121
0
131
0
112
0
122
1
132
0
 79
    0
146
0
348
10020
 60
    7
 61
    5
292
1
282
    1
141
0
142
0
 63
  250
421
3358443
  0
ENDTAB
  0
TABLE
  2
LTYPE
  5
5
330
0
100
AcDbSymbolTable
 70
    4
  0
LTYPE
  5
14
330
5
100
AcDbSymbolTableRecord
100
AcDbLinetypeTableRecord
  2
ByBlock
 70
    0
  3

 72
   65
 73
    0
 40
0
  0
LTYPE
  5
15
330
5
100
AcDbSymbolTableRecord
100
AcDbLinetypeTableRecord
  2
ByLayer
 70
    0
  3

 72
   65
 73
    0
 40
0
  0
LTYPE
  5
16
330
5
100
AcDbSymbolTableRecord
100
AcDbLinetypeTableRecord
  2
Continuous
 70
    0
  3
Solid line
 72
   65
 73
    0
 40
0
  0
LTYPE
  5
32
330
5
100
AcDbSymbolTableRecord
100
AcDbLinetypeTableRecord
  2
DOT
 70
    0
  3
Dot . . . . . . . . . . . . . . . . . . . . . .
 72
   65
 73
    2
 40
6.35
 49
0
 74
    0
 49
-6.35
 74
    0
  0
LTYPE
  5
33
330
5
100
AcDbSymbolTableRecord
100
AcDbLinetypeTableRecord
  2
DOTTINY
 70
    0
  3
Dot (.15x) .....................................
 72
   65
 73
    2
 40
0.9525
 49
0
 74
    0
 49
-0.9525
 74
    0
  0
LTYPE
  5
34
330
5
100
AcDbSymbolTableRecord
100
AcDbLinetypeTableRecord
  2
DOT2
 70
    0
  3
Dot (.5x) .....................................
 72
   65
 73
    2
 40
3.175
 49
0
 74
    0
 49
-3.175
 74
    0
  0
LTYPE
  5
35
330
5
100
AcDbSymbolTableRecord
100
AcDbLinetypeTableRecord
  2
DOTX2
 70
    0
  3
Dot (2x) .  .  .  .  .  .  .  .  .  .  .  .  .
 72
   65
 73
    2
 40
12.7
 49
0
 74
    0
 49
-12.7
 74
    0
  0
LTYPE
  5
36
330
5
100
AcDbSymbolTableRecord
100
AcDbLinetypeTableRecord
  2
DASHED
 70
    0
  3
Dashed _ _ _ _ _ _ _ _ _ _ _ _ _ _ _ _ _
 72
   65
 73
    2
 40
19.05
 49
12.7
 74
    0
 49
-6.35
 74
    0
  0
LTYPE
  5
37
330
5
100
AcDbSymbolTableRecord
100
AcDbLinetypeTableRecord
  2
DASHEDTINY
 70
    0
  3
Dashed (.15x) _ _ _ _ _ _ _ _ _ _ _ _ _ _ _ _ _
 72
   65
 73
    2
 40
2.8575
 49
1.905
 74
    0
 49
-0.9525
 74
    0
  0
LTYPE
  5
38
330
5
100
AcDbSymbolTableRecord
100
AcDbLinetypeTableRecord
  2
DASHED2
 70
    0
  3
Dashed (.5x) _ _ _ _ _ _ _ _ _ _ _ _ _ _ _ _ _
 72
   65
 73
    2
 40
9.524999999999999
 49
6.35
 74
    0
 49
-3.175
 74
    0
  0
LTYPE
  5
39
330
5
100
AcDbSymbolTableRecord
100
AcDbLinetypeTableRecord
  2
DASHEDX2
 70
    0
  3
Dashed (2x) ____  ____  ____  ____  ____  ___
 72
   65
 73
    2
 40
38.09999999999999
 49
25.4
 74
    0
 49
-12.7
 74
    0
  0
LTYPE
  5
3A
330
5
100
AcDbSymbolTableRecord
100
AcDbLinetypeTableRecord
  2
DASHDOT
 70
    0
  3
Dash dot __ . __ . __ . __ . __ . __ . __ . __
 72
   65
 73
    4
 40
25.4
 49
12.7
 74
    0
 49
-6.35
 74
    0
 49
0
 74
    0
 49
-6.35
 74
    0
  0
LTYPE
  5
3B
330
5
100
AcDbSymbolTableRecord
100
AcDbLinetypeTableRecord
  2
DASHDOTTINY
 70
    0
  3
Dash dot (.15x) _._._._._._._._._._._._._._._.
 72
   65
 73
    4
 40
3.81
 49
1.905
 74
    0
 49
-0.9525
 74
    0
 49
0
 74
    0
 49
-0.9525
 74
    0
  0
LTYPE
  5
3C
330
5
100
AcDbSymbolTableRecord
100
AcDbLinetypeTableRecord
  2
DASHDOT2
 70
    0
  3
Dash dot (.5x) _._._._._._._._._._._._._._._.
 72
   65
 73
    4
 40
12.7
 49
6.35
 74
    0
 49
-3.175
 74
    0
 49
0
 74
    0
 49
-3.175
 74
    0
  0
LTYPE
  5
3D
330
5
100
AcDbSymbolTableRecord
100
AcDbLinetypeTableRecord
  2
DASHDOTX2
 70
    0
  3
Dash dot (2x) ____  .  ____  .  ____  .  ___
 72
   65
 73
    4
 40
50.8
 49
25.4
 74
    0
 49
-12.7
 74
    0
 49
0
 74
    0
 49
-12.7
 74
    0
  0
LTYPE
  5
3E
330
5
100
AcDbSymbolTableRecord
100
AcDbLinetypeTableRecord
  2
DIVIDE
 70
    0
  3
Divide ____ . . ____ . . ____ . . ____ . . ____
 72
   65
 73
    6
 40
31.75
 49
12.7
 74
    0
 49
-6.35
 74
    0
 49
0
 74
    0
 49
-6.35
 74
    0
 49
0
 74
    0
 49
-6.35
 74
    0
  0
LTYPE
  5
3F
330
5
100
AcDbSymbolTableRecord
100
AcDbLinetypeTableRecord
  2
DIVIDETINY
 70
    0
  3
Divide (.15x) __..__..__..__..__..__..__..__.._
 72
   65
 73
    6
 40
4.7625
 49
1.905
 74
    0
 49
-0.9525
 74
    0
 49
0
 74
    0
 49
-0.9525
 74
    0
 49
0
 74
    0
 49
-0.9525
 74
    0
  0
LTYPE
  5
40
330
5
100
AcDbSymbolTableRecord
100
AcDbLinetypeTableRecord
  2
DIVIDE2
 70
    0
  3
Divide (.5x) __..__..__..__..__..__..__..__.._
 72
   65
 73
    6
 40
15.875
 49
6.35
 74
    0
 49
-3.175
 74
    0
 49
0
 74
    0
 49
-3.175
 74
    0
 49
0
 74
    0
 49
-3.175
 74
    0
  0
LTYPE
  5
41
330
5
100
AcDbSymbolTableRecord
100
AcDbLinetypeTableRecord
  2
DIVIDEX2
 70
    0
  3
Divide (2x) ________  .  .  ________  .  .  _
 72
   65
 73
    6
 40
63.5
 49
25.4
 74
    0
 49
-12.7
 74
    0
 49
0
 74
    0
 49
-12.7
 74
    0
 49
0
 74
    0
 49
-12.7
 74
    0
  0
LTYPE
  5
42
330
5
100
AcDbSymbolTableRecord
100
AcDbLinetypeTableRecord
  2
BORDER
 70
    0
  3
Border __ __ . __ __ . __ __ . __ __ . __ __ .
 72
   65
 73
    6
 40
44.45
 49
12.7
 74
    0
 49
-6.35
 74
    0
 49
12.7
 74
    0
 49
-6.35
 74
    0
 49
0
 74
    0
 49
-6.35
 74
    0
  0
LTYPE
  5
43
330
5
100
AcDbSymbolTableRecord
100
AcDbLinetypeTableRecord
  2
BORDERTINY
 70
    0
  3
Border (.15x) __.__.__.__.__.__.__.__.__.__.__.
 72
   65
 73
    6
 40
6.6675
 49
1.905
 74
    0
 49
-0.9525
 74
    0
 49
1.905
 74
    0
 49
-0.9525
 74
    0
 49
0
 74
    0
 49
-0.9525
 74
    0
  0
LTYPE
  5
44
330
5
100
AcDbSymbolTableRecord
100
AcDbLinetypeTableRecord
  2
BORDER2
 70
    0
  3
Border (.5x) __.__.__.__.__.__.__.__.__.__.__.
 72
   65
 73
    6
 40
22.225
 49
6.35
 74
    0
 49
-3.175
 74
    0
 49
6.35
 74
    0
 49
-3.175
 74
    0
 49
0
 74
    0
 49
-3.175
 74
    0
  0
LTYPE
  5
45
330
5
100
AcDbSymbolTableRecord
100
AcDbLinetypeTableRecord
  2
BORDERX2
 70
    0
  3
Border (2x) ____  ____  .  ____  ____  .  ___
 72
   65
 73
    6
 40
88.89999999999999
 49
25.4
 74
    0
 49
-12.7
 74
    0
 49
25.4
 74
    0
 49
-12.7
 74
    0
 49
0
 74
    0
 49
-12.7
 74
    0
  0
LTYPE
  5
46
330
5
100
AcDbSymbolTableRecord
100
AcDbLinetypeTableRecord
  2
CENTER
 70
    0
  3
Center ____ _ ____ _ ____ _ ____ _ ____ _ ____
 72
   65
 73
    4
 40
50.8
 49
31.75
 74
    0
 49
-6.35
 74
    0
 49
6.35
 74
    0
 49
-6.35
 74
    0
  0
LTYPE
  5
47
330
5
100
AcDbSymbolTableRecord
100
AcDbLinetypeTableRecord
  2
CENTERTINY
 70
    0
  3
Center (.15x) ___ _ ___ _ ___ _ ___ _ ___ _ ___
 72
   65
 73
    4
 40
7.619999999999999
 49
4.7625
 74
    0
 49
-0.9525
 74
    0
 49
0.9525
 74
    0
 49
-0.9525
 74
    0
  0
LTYPE
  5
48
330
5
100
AcDbSymbolTableRecord
100
AcDbLinetypeTableRecord
  2
CENTER2
 70
    0
  3
Center (.5x) ___ _ ___ _ ___ _ ___ _ ___ _ ___
 72
   65
 73
    4
 40
28.575
 49
19.05
 74
    0
 49
-3.175
 74
    0
 49
3.175
 74
    0
 49
-3.175
 74
    0
  0
LTYPE
  5
49
330
5
100
AcDbSymbolTableRecord
100
AcDbLinetypeTableRecord
  2
CENTERX2
 70
    0
  3
Center (2x) ________  __  ________  __  _____
 72
   65
 73
    4
 40
101.6
 49
63.5
 74
    0
 49
-12.7
 74
    0
 49
12.7
 74
    0
 49
-12.7
 74
    0
  0
ENDTAB
  0
TABLE
  2
LAYER
  5
2
330
0
100
AcDbSymbolTable
 70
    1
  0
LAYER
  5
10
330
2
100
AcDbSymbolTableRecord
100
AcDbLayerTableRecord
  2
0
 70
    0
 62
    7
  6
CONTINUOUS
370
   13
390
F
  0
LAYER
  5
4A
330
2
100
AcDbSymbolTableRecord
100
AcDbLayerTableRecord
  2
0_GND
 70
    0
 62
    7
  6
CONTINUOUS
370
   15
390
F
  0
LAYER
  5
4B
330
2
100
AcDbSymbolTableRecord
100
AcDbLayerTableRecord
  2
0_draft
 70
    0
 62
    7
  6
DOTTINY
370
   -3
390
F
1001
LibreCad
1070
    1
  0
LAYER
  5
4C
330
2
100
AcDbSymbolTableRecord
100
AcDbLayerTableRecord
  2
0_wire
 70
    0
 62
    3
  6
CONTINUOUS
370
   15
390
F
  0
LAYER
  5
4D
330
2
100
AcDbSymbolTableRecord
100
AcDbLayerTableRecord
  2
1_wire
 70
    0
 62
    2
  6
CONTINUOUS
370
   15
390
F
  0
LAYER
  5
4E
330
2
100
AcDbSymbolTableRecord
100
AcDbLayerTableRecord
  2
3.3V line
 70
    0
 62
   40
420
16755200
  6
CONTINUOUS
370
   15
390
F
  0
LAYER
  5
4F
330
2
100
AcDbSymbolTableRecord
100
AcDbLayerTableRecord
  2
5V line
 70
    0
 62
    1
  6
CONTINUOUS
370
   15
390
F
  0
LAYER
  5
50
330
2
100
AcDbSymbolTableRecord
100
AcDbLayerTableRecord
  2
condenser
 70
    0
 62
    5
  6
CONTINUOUS
370
   15
390
F
  0
LAYER
  5
51
330
2
100
AcDbSymbolTableRecord
100
AcDbLayerTableRecord
  2
crystal
 70
    0
 62
   96
420
32768
  6
CONTINUOUS
370
   15
390
F
  0
LAYER
  5
52
330
2
100
AcDbSymbolTableRecord
100
AcDbLayerTableRecord
  2
diode
 70
    0
 62
    6
  6
CONTINUOUS
370
   15
390
F
  0
LAYER
  5
53
330
2
100
AcDbSymbolTableRecord
100
AcDbLayerTableRecord
  2
kakou
 70
    0
 62
  176
420
  128
  6
CONTINUOUS
370
   15
390
F
  0
LAYER
  5
54
330
2
100
AcDbSymbolTableRecord
100
AcDbLayerTableRecord
  2
micon_ic
 70
    0
 62
  216
420
8388736
  6
CONTINUOUS
370
   15
390
F
  0
LAYER
  5
55
330
2
100
AcDbSymbolTableRecord
100
AcDbLayerTableRecord
  2
resister
 70
    0
 62
  132
420
53456
  6
CONTINUOUS
370
   15
390
F
  0
LAYER
  5
56
330
2
100
AcDbSymbolTableRecord
100
AcDbLayerTableRecord
  2
socket_header
 70
    0
 62
   56
420
8421376
  6
CONTINUOUS
370
   15
390
F
  0
LAYER
  5
57
330
2
100
AcDbSymbolTableRecord
100
AcDbLayerTableRecord
  2
switch
 70
    0
 62
  136
420
32896
  6
CONTINUOUS
370
   15
390
F
  0
LAYER
  5
58
330
2
100
AcDbSymbolTableRecord
100
AcDbLayerTableRecord
  2
terminal
 70
    0
 62
   16
420
8388608
  6
CONTINUOUS
370
   15
390
F
  0
LAYER
  5
59
330
2
100
AcDbSymbolTableRecord
100
AcDbLayerTableRecord
  2
universal_board
 70
    4
 62
  253
420
10526884
  6
CONTINUOUS
370
   15
390
F
  0
ENDTAB
  0
TABLE
  2
STYLE
  5
3
330
0
100
AcDbSymbolTable
 70
    3
  0
STYLE
  5
5A
330
2
100
AcDbSymbolTableRecord
100
AcDbTextStyleTableRecord
  2
azomix
 70
    0
 40
0
 41
1
 50
0
 71
    0
 42
1
  3
azomix
  4

  0
STYLE
  5
5B
330
2
100
AcDbSymbolTableRecord
100
AcDbTextStyleTableRecord
  2
iso
 70
    0
 40
0
 41
1
 50
0
 71
    0
 42
1
  3
iso
  4

  0
STYLE
  5
5C
330
2
100
AcDbSymbolTableRecord
100
AcDbTextStyleTableRecord
  2
unicode
 70
    0
 40
0
 41
1
 50
0
 71
    0
 42
1
  3
unicode
  4

  0
STYLE
  5
5D
330
2
100
AcDbSymbolTableRecord
100
AcDbTextStyleTableRecord
  2
kst32b
 70
    0
 40
0
 41
1
 50
0
 71
    0
 42
1
  3
kst32b
  4

  0
STYLE
  5
5E
330
2
100
AcDbSymbolTableRecord
100
AcDbTextStyleTableRecord
  2
STANDARD
 70
    0
 40
0
 41
1
 50
0
 71
    0
 42
1
  3
STANDARD
  4

  0
ENDTAB
  0
TABLE
  2
VIEW
  5
6
330
0
100
AcDbSymbolTable
 70
    0
  0
ENDTAB
  0
TABLE
  2
UCS
  5
7
330
0
100
AcDbSymbolTable
 70
    0
  0
ENDTAB
  0
TABLE
  2
APPID
  5
9
330
0
100
AcDbSymbolTable
 70
    1
  0
APPID
  5
12
330
9
100
AcDbSymbolTableRecord
100
AcDbRegAppTableRecord
  2
ACAD
 70
    0
  0
APPID
  5
5F
330
9
100
AcDbSymbolTableRecord
100
AcDbRegAppTableRecord
  2
LibreCad
 70
    0
  0
ENDTAB
  0
TABLE
  2
DIMSTYLE
  5
A
330
0
100
AcDbSymbolTable
 70
    1
100
AcDbDimStyleTable
 71
    1
  0
DIMSTYLE
105
60
330
A
100
AcDbSymbolTableRecord
100
AcDbDimStyleTableRecord
  2
Standard
 70
    0
 40
1
 41
2.5
 42
0.625
 43
0.38
 44
1.25
 45
0
 46
0
 47
0
 48
0
 49
1
140
2.5
141
0.09
142
0
143
25.4
144
1
145
0
146
1
147
0.625
148
0
 71
    0
 72
    0
 73
    0
 74
    1
 75
    0
 76
    0
 77
    0
 78
    8
 79
    0
170
    0
171
    2
172
    0
173
    0
174
    0
175
    0
176
    0
177
    0
178
    0
179
    0
271
    2
272
    4
273
    2
274
    2
275
    0
276
    0
277
    2
278
   44
279
    0
280
    0
281
    0
282
    0
283
    1
284
    0
285
    0
286
    0
288
    0
289
    3
340
5E
  0
ENDTAB
  0
TABLE
  2
BLOCK_RECORD
  5
1
330
0
100
AcDbSymbolTable
 70
    2
  0
BLOCK_RECORD
  5
1F
330
1
100
AcDbSymbolTableRecord
100
AcDbBlockTableRecord
  2
*Model_Space
 70
    0
280
    1
281
    0
  0
BLOCK_RECORD
  5
1E
330
1
100
AcDbSymbolTableRecord
100
AcDbBlockTableRecord
  2
*Paper_Space
 70
    0
280
    1
281
    0
  0
BLOCK_RECORD
  5
61
330
1
100
AcDbSymbolTableRecord
100
AcDbBlockTableRecord
  2
2227MC-08-03
 70
    0
280
    1
281
    0
  0
BLOCK_RECORD
  5
64
330
1
100
AcDbSymbolTableRecord
100
AcDbBlockTableRecord
  2
PIC16F15325
 70
    0
280
    1
281
    0
  0
BLOCK_RECORD
  5
67
330
1
100
AcDbSymbolTableRecord
100
AcDbBlockTableRecord
  2
2227MC-28-03
 70
    0
280
    1
281
    0
  0
BLOCK_RECORD
  5
6A
330
1
100
AcDbSymbolTableRecord
100
AcDbBlockTableRecord
  2
HUSG-16.000-20
 70
    0
280
    1
281
    0
  0
BLOCK_RECORD
  5
6D
330
1
100
AcDbSymbolTableRecord
100
AcDbBlockTableRecord
  2
ATmega328P
 70
    0
280
    1
281
    0
  0
BLOCK_RECORD
  5
70
330
1
100
AcDbSymbolTableRecord
100
AcDbBlockTableRecord
  2
DTS-63-N-V-BLK
 70
    0
280
    1
281
    0
  0
BLOCK_RECORD
  5
73
330
1
100
AcDbSymbolTableRecord
100
AcDbBlockTableRecord
  2
2227MC-14-03
 70
    0
280
    1
281
    0
  0
BLOCK_RECORD
  5
76
330
1
100
AcDbSymbolTableRecord
100
AcDbBlockTableRecord
  2
C_0.01uF
 70
    0
280
    1
281
    0
  0
BLOCK_RECORD
  5
79
330
1
100
AcDbSymbolTableRecord
100
AcDbBlockTableRecord
  2
R300
 70
    0
280
    1
281
    0
  0
BLOCK_RECORD
  5
7C
330
1
100
AcDbSymbolTableRecord
100
AcDbBlockTableRecord
  2
R10k
 70
    0
280
    1
281
    0
  0
BLOCK_RECORD
  5
7F
330
1
100
AcDbSymbolTableRecord
100
AcDbBlockTableRecord
  2
R0
 70
    0
280
    1
281
    0
  0
ENDTAB
  0
ENDSEC
  0
SECTION
  2
BLOCKS
  0
BLOCK
  5
20
330
1F
100
AcDbEntity
  8
0
100
AcDbBlockBegin
  2
*Model_Space
 70
    0
 10
0
 20
0
 30
0
  3
*Model_Space
  1

  0
ENDBLK
  5
21
330
1F
100
AcDbEntity
  8
0
100
AcDbBlockEnd
  0
BLOCK
  5
1C
330
1B
100
AcDbEntity
  8
0
100
AcDbBlockBegin
  2
*Paper_Space
 70
    0
 10
0
 20
0
 30
0
  3
*Paper_Space
  1

  0
ENDBLK
  5
1D
330
1F
100
AcDbEntity
  8
0
100
AcDbBlockEnd
  0
BLOCK
  5
62
330
61
100
AcDbEntity
  8
0
100
AcDbBlockBegin
  2
2227MC-08-03
 70
    0
 10
0
 20
0
  3
2227MC-08-03
  1

  0
LINE
  5
82
100
AcDbEntity
  8
socket_header
  6
ByLayer
 62
  256
370
   -1
100
AcDbLine
 10
-1.270000000000131
 20
-8.890000110779171
 11
-1.270000000000131
 21
1.269999889220831
  0
LINE
  5
83
100
AcDbEntity
  8
socket_header
  6
ByLayer
 62
  256
370
   -1
100
AcDbLine
 10
-1.270000000000131
 20
1.269999889220831
 11
8.890000394687402
 21
1.269999889220831
  0
LINE
  5
84
100
AcDbEntity
  8
socket_header
  6
ByLayer
 62
  256
370
   -1
100
AcDbLine
 10
8.890000394687402
 20
1.269999889220831
 11
8.88999999999989
 21
-8.890000110779171
  0
LINE
  5
85
100
AcDbEntity
  8
socket_header
  6
ByLayer
 62
  256
370
   -1
100
AcDbLine
 10
8.88999999999989
 20
-8.890000110779171
 11
-1.270000000000131
 21
-8.890000110779171
  0
CIRCLE
  5
86
100
AcDbEntity
  8
socket_header
  6
ByLayer
 62
  256
370
   -1
100
AcDbCircle
 10
2.539999999999878
 20
1.06581410364015e-14
 40
0.6
  0
CIRCLE
  5
87
100
AcDbEntity
  8
socket_header
  6
ByLayer
 62
  256
370
   -1
100
AcDbCircle
 10
2.539999999999893
 20
-7.620000000000061
 40
0.6
  0
CIRCLE
  5
88
100
AcDbEntity
  8
socket_header
  6
ByLayer
 62
  256
370
   -1
100
AcDbCircle
 10
0
 20
0
 40
0.6
  0
CIRCLE
  5
89
100
AcDbEntity
  8
socket_header
  6
ByLayer
 62
  256
370
   -1
100
AcDbCircle
 10
7.105427357601002e-15
 20
-7.620000000000072
 40
0.6
  0
CIRCLE
  5
8A
100
AcDbEntity
  8
socket_header
  6
ByLayer
 62
  256
370
   -1
100
AcDbCircle
 10
5.079999999999757
 20
2.842170943040401e-14
 40
0.6
  0
CIRCLE
  5
8B
100
AcDbEntity
  8
socket_header
  6
ByLayer
 62
  256
370
   -1
100
AcDbCircle
 10
5.079999999999771
 20
-7.620000000000051
 40
0.6
  0
CIRCLE
  5
8C
100
AcDbEntity
  8
socket_header
  6
ByLayer
 62
  256
370
   -1
100
AcDbCircle
 10
7.619999999999639
 20
3.907985046680551e-14
 40
0.6
  0
CIRCLE
  5
8D
100
AcDbEntity
  8
socket_header
  6
ByLayer
 62
  256
370
   -1
100
AcDbCircle
 10
7.61999999999966
 20
-7.62000000000004
 40
0.6
  0
MTEXT
  5
8E
100
AcDbEntity
  8
socket_header
  6
ByLayer
 62
  256
370
   -1
100
AcDbMText
 10
3.950796119092651
 20
-1.713679173150673
 30
0
 40
1
 41
9.222222222222346
 71
    5
 72
    1
  1
2227MC-08-03
  7
STANDARD
210
0
220
0
230
1
 50
0
 73
    2
 44
1
  0
ENDBLK
  5
63
330
61
100
AcDbEntity
  8
0
100
AcDbBlockEnd
  0
BLOCK
  5
65
330
64
100
AcDbEntity
  8
0
100
AcDbBlockBegin
  2
PIC16F15325
 70
    0
 10
0
 20
0
  3
PIC16F15325
  1

  0
ENDBLK
  5
66
330
64
100
AcDbEntity
  8
0
100
AcDbBlockEnd
  0
BLOCK
  5
68
330
67
100
AcDbEntity
  8
0
100
AcDbBlockBegin
  2
2227MC-28-03
 70
    0
 10
0
 20
0
  3
2227MC-28-03
  1

  0
ENDBLK
  5
69
330
67
100
AcDbEntity
  8
0
100
AcDbBlockEnd
  0
BLOCK
  5
6B
330
6A
100
AcDbEntity
  8
0
100
AcDbBlockBegin
  2
HUSG-16.000-20
 70
    0
 10
0
 20
0
  3
HUSG-16.000-20
  1

  0
ENDBLK
  5
6C
330
6A
100
AcDbEntity
  8
0
100
AcDbBlockEnd
  0
BLOCK
  5
6E
330
6D
100
AcDbEntity
  8
0
100
AcDbBlockBegin
  2
ATmega328P
 70
    0
 10
0
 20
0
  3
ATmega328P
  1

  0
ENDBLK
  5
6F
330
6D
100
AcDbEntity
  8
0
100
AcDbBlockEnd
  0
BLOCK
  5
71
330
70
100
AcDbEntity
  8
0
100
AcDbBlockBegin
  2
DTS-63-N-V-BLK
 70
    0
 10
0
 20
0
  3
DTS-63-N-V-BLK
  1

  0
ENDBLK
  5
72
330
70
100
AcDbEntity
  8
0
100
AcDbBlockEnd
  0
BLOCK
  5
74
330
73
100
AcDbEntity
  8
0
100
AcDbBlockBegin
  2
2227MC-14-03
 70
    0
 10
0
 20
0
  3
2227MC-14-03
  1

  0
ENDBLK
  5
75
330
73
100
AcDbEntity
  8
0
100
AcDbBlockEnd
  0
BLOCK
  5
77
330
76
100
AcDbEntity
  8
0
100
AcDbBlockBegin
  2
C_0.01uF
 70
    0
 10
0
 20
0
  3
C_0.01uF
  1

  0
LWPOLYLINE
  5
8F
100
AcDbEntity
  8
condenser
  6
ByLayer
 62
  256
370
   -1
100
AcDbPolyline
 90
    4
 70
    1
 43
0
 10
1.499999999999972
 20
5.039999999999822
 10
1.499999999999972
 20
0.03999999999992099
 10
-1.50000000000005
 20
0.03999999999992099
 10
-1.50000000000005
 20
5.039999999999822
  0
MTEXT
  5
90
100
AcDbEntity
  8
condenser
  6
ByLayer
 62
  256
370
   -1
100
AcDbMText
 10
2.336701583810211
 20
2.491803864245341
 30
0
 40
1
 41
3.666666666666713
 71
    5
 72
    1
  1
0.01uF
  7
STANDARD
210
0
220
0
230
1
 50
270
 73
    2
 44
1
  0
CIRCLE
  5
91
100
AcDbEntity
  8
condenser
  6
ByLayer
 62
  256
370
   -1
100
AcDbCircle
 10
0
 20
0
 40
0.4
  0
CIRCLE
  5
92
100
AcDbEntity
  8
condenser
  6
ByLayer
 62
  256
370
   -1
100
AcDbCircle
 10
-6.927791673660977e-14
 20
5.080000000000041
 40
0.4
  0
ENDBLK
  5
78
330
76
100
AcDbEntity
  8
0
100
AcDbBlockEnd
  0
BLOCK
  5
7A
330
79
100
AcDbEntity
  8
0
100
AcDbBlockBegin
  2
R300
 70
    0
 10
0
 20
0
  3
R300
  1

  0
LWPOLYLINE
  5
93
100
AcDbEntity
  8
resister
  6
ByLayer
 62
  256
370
   -1
100
AcDbPolyline
 90
    4
 70
    1
 43
0
 10
-1.150000000000091
 20
0.6599999999995898
 10
-1.15000000000008
 20
6.959999999999511
 10
1.150000000000126
 20
6.959999999999511
 10
1.150000000000119
 20
0.6599999999995898
  0
CIRCLE
  5
94
100
AcDbEntity
  8
resister
  6
ByLayer
 62
  256
370
   -1
100
AcDbCircle
 10
1.953992523340276e-14
 20
7.619999999999639
 40
0.3
  0
LINE
  5
95
100
AcDbEntity
  8
resister
  6
ByLayer
 62
  256
370
   -1
100
AcDbLine
 10
1.953992523340276e-14
 20
0.2999999999998604
 11
1.031014139840636e-06
 21
0.6599999999995898
  0
LINE
  5
96
100
AcDbEntity
  8
resister
  6
ByLayer
 62
  256
370
   -1
100
AcDbLine
 10
3.907985046680551e-14
 20
6.959999999999511
 11
3.907985046680551e-14
 21
7.320000000000348
  0
MTEXT
  5
97
100
AcDbEntity
  8
resister
  6
ByLayer
 62
  256
370
   -1
100
AcDbMText
 10
-0.02409769535478112
 20
3.951579464078229
 30
0
 40
1
 41
2.888888888888951
 71
    5
 72
    1
  1
R300
  7
STANDARD
210
0
220
0
230
1
 50
90
 73
    2
 44
1
  0
CIRCLE
  5
98
100
AcDbEntity
  8
resister
  6
ByLayer
 62
  256
370
   -1
100
AcDbCircle
 10
0
 20
0
 40
0.25
  0
ENDBLK
  5
7B
330
79
100
AcDbEntity
  8
0
100
AcDbBlockEnd
  0
BLOCK
  5
7D
330
7C
100
AcDbEntity
  8
0
100
AcDbBlockBegin
  2
R10k
 70
    0
 10
0
 20
0
  3
R10k
  1

  0
CIRCLE
  5
99
100
AcDbEntity
  8
resister
  6
ByLayer
 62
  256
370
   -1
100
AcDbCircle
 10
0
 20
0
 40
0.3
  0
LINE
  5
9A
100
AcDbEntity
  8
resister
  6
ByLayer
 62
  256
370
   -1
100
AcDbLine
 10
-0.659999999999485
 20
1.150000000000098
 11
-0.659999999999485
 21
-1.150000000000059
  0
LINE
  5
9B
100
AcDbEntity
  8
resister
  6
ByLayer
 62
  256
370
   -1
100
AcDbLine
 10
-6.959999999999557
 20
-1.150000000000041
 11
-0.659999999999485
 21
-1.150000000000059
  0
LINE
  5
9C
100
AcDbEntity
  8
resister
  6
ByLayer
 62
  256
370
   -1
100
AcDbLine
 10
-0.659999999999485
 20
1.150000000000098
 11
-6.959999999999557
 21
1.150000000000098
  0
LINE
  5
9D
100
AcDbEntity
  8
resister
  6
ByLayer
 62
  256
370
   -1
100
AcDbLine
 10
-6.959999999999557
 20
1.150000000000098
 11
-6.959999999999557
 21
-1.150000000000041
  0
CIRCLE
  5
9E
100
AcDbEntity
  8
resister
  6
ByLayer
 62
  256
370
   -1
100
AcDbCircle
 10
-7.619999999999408
 20
2.131628207280301e-14
 40
0.25
  0
MTEXT
  5
9F
100
AcDbEntity
  8
resister
  6
ByLayer
 62
  256
370
   -1
100
AcDbMText
 10
-3.991855261194459
 20
0.08749576228997924
 30
0
 40
1
 41
2.666666666666667
 71
    5
 72
    1
  1
R10k
  7
unicode
210
0
220
0
230
1
 50
0
 73
    2
 44
1
  0
LINE
  5
A0
100
AcDbEntity
  8
resister
  6
ByLayer
 62
  256
370
   -1
100
AcDbLine
 10
-0.2499999999985789
 20
2.131628207280301e-14
 11
-0.659999999999485
 21
2.131628207280301e-14
  0
LINE
  5
A1
100
AcDbEntity
  8
resister
  6
ByLayer
 62
  256
370
   -1
100
AcDbLine
 10
-7.369999999999898
 20
1.06581410364015e-14
 11
-6.959999999999557
 21
1.06581410364015e-14
  0
ENDBLK
  5
7E
330
7C
100
AcDbEntity
  8
0
100
AcDbBlockEnd
  0
BLOCK
  5
80
330
7F
100
AcDbEntity
  8
0
100
AcDbBlockBegin
  2
R0
 70
    0
 10
0
 20
0
  3
R0
  1

  0
LINE
  5
A2
100
AcDbEntity
  8
resister
  6
ByLayer
 62
  256
370
   -1
100
AcDbLine
 10
-0.6599999999999611
 20
1.149999999999959
 11
-0.6599999999999611
 21
-1.14999999999997
  0
LINE
  5
A3
100
AcDbEntity
  8
resister
  6
ByLayer
 62
  256
370
   -1
100
AcDbLine
 10
-0.6599999999999611
 20
-1.14999999999997
 11
-6.959999999999834
 21
-1.14999999999997
  0
LINE
  5
A4
100
AcDbEntity
  8
resister
  6
ByLayer
 62
  256
370
   -1
100
AcDbLine
 10
-6.959999999999834
 20
-1.14999999999997
 11
-6.95999999999982
 21
1.149999999999959
  0
LINE
  5
A5
100
AcDbEntity
  8
resister
  6
ByLayer
 62
  256
370
   -1
100
AcDbLine
 10
-6.95999999999982
 20
1.149999999999959
 11
-0.6599999999999611
 21
1.149999999999959
  0
LINE
  5
A6
100
AcDbEntity
  8
resister
  6
ByLayer
 62
  256
370
   -1
100
AcDbLine
 10
-6.95999999999982
 20
0
 11
-7.61999999999966
 21
0
  0
LINE
  5
A7
100
AcDbEntity
  8
resister
  6
ByLayer
 62
  256
370
   -1
100
AcDbLine
 10
3.694822225952521e-13
 20
0
 11
-0.6599999999999611
 21
0
  0
MTEXT
  5
A8
100
AcDbEntity
  8
resister
  6
ByLayer
 62
  256
370
   -1
100
AcDbMText
 10
-4.132042899777453
 20
0.05377778633712005
 30
0
 40
1
 41
1.333333333333333
 71
    5
 72
    1
  1
R0
  7
STANDARD
210
0
220
0
230
1
 50
270
 73
    2
 44
1
  0
ENDBLK
  5
81
330
7F
100
AcDbEntity
  8
0
100
AcDbBlockEnd
  0
ENDSEC
  0
SECTION
  2
ENTITIES
  0
CIRCLE
  5
A9
100
AcDbEntity
  8
universal_board
  6
ByLayer
 62
  256
370
   -1
100
AcDbCircle
 10
-97.15999999999684
 20
41.0799999999995
 40
0.5
  0
CIRCLE
  5
AA
100
AcDbEntity
  8
universal_board
  6
ByLayer
 62
  256
370
   -1
100
AcDbCircle
 10
-94.61999999999694
 20
41.07999999999952
 40
0.5
  0
CIRCLE
  5
AB
100
AcDbEntity
  8
universal_board
  6
ByLayer
 62
  256
370
   -1
100
AcDbCircle
 10
-92.07999999999704
 20
41.07999999999952
 40
0.5
  0
CIRCLE
  5
AC
100
AcDbEntity
  8
universal_board
  6
ByLayer
 62
  256
370
   -1
100
AcDbCircle
 10
-89.53999999999716
 20
41.07999999999954
 40
0.5
  0
CIRCLE
  5
AD
100
AcDbEntity
  8
universal_board
  6
ByLayer
 62
  256
370
   -1
100
AcDbCircle
 10
-86.99999999999727
 20
41.07999999999954
 40
0.5
  0
CIRCLE
  5
AE
100
AcDbEntity
  8
universal_board
  6
ByLayer
 62
  256
370
   -1
100
AcDbCircle
 10
-84.45999999999736
 20
41.07999999999955
 40
0.5
  0
CIRCLE
  5
AF
100
AcDbEntity
  8
universal_board
  6
ByLayer
 62
  256
370
   -1
100
AcDbCircle
 10
-81.91999999999747
 20
41.07999999999957
 40
0.5
  0
CIRCLE
  5
B0
100
AcDbEntity
  8
universal_board
  6
ByLayer
 62
  256
370
   -1
100
AcDbCircle
 10
-99.69999999999669
 20
41.07999999999949
 40
0.5
  0
CIRCLE
  5
B1
100
AcDbEntity
  8
universal_board
  6
ByLayer
 62
  256
370
   -1
100
AcDbCircle
 10
-102.2399999999966
 20
41.07999999999949
 40
0.5
  0
CIRCLE
  5
B2
100
AcDbEntity
  8
universal_board
  6
ByLayer
 62
  256
370
   -1
100
AcDbCircle
 10
-104.7799999999965
 20
41.07999999999948
 40
0.5
  0
CIRCLE
  5
B3
100
AcDbEntity
  8
universal_board
  6
ByLayer
 62
  256
370
   -1
100
AcDbCircle
 10
-107.3199999999963
 20
41.07999999999948
 40
0.5
  0
CIRCLE
  5
B4
100
AcDbEntity
  8
universal_board
  6
ByLayer
 62
  256
370
   -1
100
AcDbCircle
 10
-109.8599999999962
 20
41.07999999999948
 40
0.5
  0
CIRCLE
  5
B5
100
AcDbEntity
  8
universal_board
  6
ByLayer
 62
  256
370
   -1
100
AcDbCircle
 10
-112.3999999999961
 20
41.07999999999947
 40
0.5
  0
CIRCLE
  5
B6
100
AcDbEntity
  8
universal_board
  6
ByLayer
 62
  256
370
   -1
100
AcDbCircle
 10
-114.939999999996
 20
41.07999999999948
 40
0.5
  0
CIRCLE
  5
B7
100
AcDbEntity
  8
universal_board
  6
ByLayer
 62
  256
370
   -1
100
AcDbCircle
 10
-97.15999999999684
 20
43.61999999999952
 40
0.5
  0
CIRCLE
  5
B8
100
AcDbEntity
  8
universal_board
  6
ByLayer
 62
  256
370
   -1
100
AcDbCircle
 10
-94.61999999999694
 20
43.61999999999952
 40
0.5
  0
CIRCLE
  5
B9
100
AcDbEntity
  8
universal_board
  6
ByLayer
 62
  256
370
   -1
100
AcDbCircle
 10
-92.07999999999704
 20
43.61999999999954
 40
0.5
  0
CIRCLE
  5
BA
100
AcDbEntity
  8
universal_board
  6
ByLayer
 62
  256
370
   -1
100
AcDbCircle
 10
-89.53999999999716
 20
43.61999999999955
 40
0.5
  0
CIRCLE
  5
BB
100
AcDbEntity
  8
universal_board
  6
ByLayer
 62
  256
370
   -1
100
AcDbCircle
 10
-86.99999999999727
 20
43.61999999999956
 40
0.5
  0
CIRCLE
  5
BC
100
AcDbEntity
  8
universal_board
  6
ByLayer
 62
  256
370
   -1
100
AcDbCircle
 10
-84.45999999999738
 20
43.61999999999959
 40
0.5
  0
CIRCLE
  5
BD
100
AcDbEntity
  8
universal_board
  6
ByLayer
 62
  256
370
   -1
100
AcDbCircle
 10
-81.91999999999749
 20
43.61999999999959
 40
0.5
  0
CIRCLE
  5
BE
100
AcDbEntity
  8
universal_board
  6
ByLayer
 62
  256
370
   -1
100
AcDbCircle
 10
-99.69999999999672
 20
43.61999999999951
 40
0.5
  0
CIRCLE
  5
BF
100
AcDbEntity
  8
universal_board
  6
ByLayer
 62
  256
370
   -1
100
AcDbCircle
 10
-102.2399999999966
 20
43.61999999999951
 40
0.5
  0
CIRCLE
  5
C0
100
AcDbEntity
  8
universal_board
  6
ByLayer
 62
  256
370
   -1
100
AcDbCircle
 10
-104.7799999999965
 20
43.61999999999951
 40
0.5
  0
CIRCLE
  5
C1
100
AcDbEntity
  8
universal_board
  6
ByLayer
 62
  256
370
   -1
100
AcDbCircle
 10
-107.3199999999964
 20
43.6199999999995
 40
0.5
  0
CIRCLE
  5
C2
100
AcDbEntity
  8
universal_board
  6
ByLayer
 62
  256
370
   -1
100
AcDbCircle
 10
-109.8599999999962
 20
43.6199999999995
 40
0.5
  0
CIRCLE
  5
C3
100
AcDbEntity
  8
universal_board
  6
ByLayer
 62
  256
370
   -1
100
AcDbCircle
 10
-112.3999999999961
 20
43.61999999999949
 40
0.5
  0
CIRCLE
  5
C4
100
AcDbEntity
  8
universal_board
  6
ByLayer
 62
  256
370
   -1
100
AcDbCircle
 10
-114.939999999996
 20
43.61999999999949
 40
0.5
  0
CIRCLE
  5
C5
100
AcDbEntity
  8
universal_board
  6
ByLayer
 62
  256
370
   -1
100
AcDbCircle
 10
-97.15999999999684
 20
46.15999999999956
 40
0.5
  0
CIRCLE
  5
C6
100
AcDbEntity
  8
universal_board
  6
ByLayer
 62
  256
370
   -1
100
AcDbCircle
 10
-94.61999999999694
 20
46.15999999999956
 40
0.5
  0
CIRCLE
  5
C7
100
AcDbEntity
  8
universal_board
  6
ByLayer
 62
  256
370
   -1
100
AcDbCircle
 10
-92.07999999999706
 20
46.15999999999956
 40
0.5
  0
CIRCLE
  5
C8
100
AcDbEntity
  8
universal_board
  6
ByLayer
 62
  256
370
   -1
100
AcDbCircle
 10
-89.53999999999716
 20
46.15999999999957
 40
0.5
  0
CIRCLE
  5
C9
100
AcDbEntity
  8
universal_board
  6
ByLayer
 62
  256
370
   -1
100
AcDbCircle
 10
-86.99999999999727
 20
46.15999999999958
 40
0.5
  0
CIRCLE
  5
CA
100
AcDbEntity
  8
universal_board
  6
ByLayer
 62
  256
370
   -1
100
AcDbCircle
 10
-84.45999999999736
 20
46.15999999999961
 40
0.5
  0
CIRCLE
  5
CB
100
AcDbEntity
  8
universal_board
  6
ByLayer
 62
  256
370
   -1
100
AcDbCircle
 10
-81.91999999999749
 20
46.15999999999961
 40
0.5
  0
CIRCLE
  5
CC
100
AcDbEntity
  8
universal_board
  6
ByLayer
 62
  256
370
   -1
100
AcDbCircle
 10
-99.69999999999672
 20
46.15999999999956
 40
0.5
  0
CIRCLE
  5
CD
100
AcDbEntity
  8
universal_board
  6
ByLayer
 62
  256
370
   -1
100
AcDbCircle
 10
-102.2399999999966
 20
46.15999999999953
 40
0.5
  0
CIRCLE
  5
CE
100
AcDbEntity
  8
universal_board
  6
ByLayer
 62
  256
370
   -1
100
AcDbCircle
 10
-104.7799999999965
 20
46.15999999999953
 40
0.5
  0
CIRCLE
  5
CF
100
AcDbEntity
  8
universal_board
  6
ByLayer
 62
  256
370
   -1
100
AcDbCircle
 10
-107.3199999999963
 20
46.15999999999952
 40
0.5
  0
CIRCLE
  5
D0
100
AcDbEntity
  8
universal_board
  6
ByLayer
 62
  256
370
   -1
100
AcDbCircle
 10
-109.8599999999962
 20
46.15999999999952
 40
0.5
  0
CIRCLE
  5
D1
100
AcDbEntity
  8
universal_board
  6
ByLayer
 62
  256
370
   -1
100
AcDbCircle
 10
-112.3999999999961
 20
46.15999999999952
 40
0.5
  0
CIRCLE
  5
D2
100
AcDbEntity
  8
universal_board
  6
ByLayer
 62
  256
370
   -1
100
AcDbCircle
 10
-114.939999999996
 20
46.15999999999951
 40
0.5
  0
CIRCLE
  5
D3
100
AcDbEntity
  8
universal_board
  6
ByLayer
 62
  256
370
   -1
100
AcDbCircle
 10
-97.15999999999684
 20
48.69999999999958
 40
0.5
  0
CIRCLE
  5
D4
100
AcDbEntity
  8
universal_board
  6
ByLayer
 62
  256
370
   -1
100
AcDbCircle
 10
-94.61999999999694
 20
48.69999999999958
 40
0.5
  0
CIRCLE
  5
D5
100
AcDbEntity
  8
universal_board
  6
ByLayer
 62
  256
370
   -1
100
AcDbCircle
 10
-92.07999999999706
 20
48.69999999999959
 40
0.5
  0
CIRCLE
  5
D6
100
AcDbEntity
  8
universal_board
  6
ByLayer
 62
  256
370
   -1
100
AcDbCircle
 10
-89.53999999999718
 20
48.6999999999996
 40
0.5
  0
CIRCLE
  5
D7
100
AcDbEntity
  8
universal_board
  6
ByLayer
 62
  256
370
   -1
100
AcDbCircle
 10
-86.99999999999727
 20
48.6999999999996
 40
0.5
  0
CIRCLE
  5
D8
100
AcDbEntity
  8
universal_board
  6
ByLayer
 62
  256
370
   -1
100
AcDbCircle
 10
-84.45999999999738
 20
48.69999999999963
 40
0.5
  0
CIRCLE
  5
D9
100
AcDbEntity
  8
universal_board
  6
ByLayer
 62
  256
370
   -1
100
AcDbCircle
 10
-81.91999999999749
 20
48.69999999999963
 40
0.5
  0
CIRCLE
  5
DA
100
AcDbEntity
  8
universal_board
  6
ByLayer
 62
  256
370
   -1
100
AcDbCircle
 10
-99.69999999999672
 20
48.69999999999958
 40
0.5
  0
CIRCLE
  5
DB
100
AcDbEntity
  8
universal_board
  6
ByLayer
 62
  256
370
   -1
100
AcDbCircle
 10
-102.2399999999966
 20
48.69999999999956
 40
0.5
  0
CIRCLE
  5
DC
100
AcDbEntity
  8
universal_board
  6
ByLayer
 62
  256
370
   -1
100
AcDbCircle
 10
-104.7799999999965
 20
48.69999999999953
 40
0.5
  0
CIRCLE
  5
DD
100
AcDbEntity
  8
universal_board
  6
ByLayer
 62
  256
370
   -1
100
AcDbCircle
 10
-107.3199999999964
 20
48.69999999999954
 40
0.5
  0
CIRCLE
  5
DE
100
AcDbEntity
  8
universal_board
  6
ByLayer
 62
  256
370
   -1
100
AcDbCircle
 10
-109.8599999999962
 20
48.69999999999954
 40
0.5
  0
CIRCLE
  5
DF
100
AcDbEntity
  8
universal_board
  6
ByLayer
 62
  256
370
   -1
100
AcDbCircle
 10
-112.3999999999961
 20
48.69999999999954
 40
0.5
  0
CIRCLE
  5
E0
100
AcDbEntity
  8
universal_board
  6
ByLayer
 62
  256
370
   -1
100
AcDbCircle
 10
-114.939999999996
 20
48.69999999999954
 40
0.5
  0
CIRCLE
  5
E1
100
AcDbEntity
  8
universal_board
  6
ByLayer
 62
  256
370
   -1
100
AcDbCircle
 10
-97.15999999999684
 20
51.23999999999958
 40
0.5
  0
CIRCLE
  5
E2
100
AcDbEntity
  8
universal_board
  6
ByLayer
 62
  256
370
   -1
100
AcDbCircle
 10
-94.61999999999694
 20
51.23999999999959
 40
0.5
  0
CIRCLE
  5
E3
100
AcDbEntity
  8
universal_board
  6
ByLayer
 62
  256
370
   -1
100
AcDbCircle
 10
-92.07999999999706
 20
51.23999999999961
 40
0.5
  0
CIRCLE
  5
E4
100
AcDbEntity
  8
universal_board
  6
ByLayer
 62
  256
370
   -1
100
AcDbCircle
 10
-89.53999999999716
 20
51.23999999999963
 40
0.5
  0
CIRCLE
  5
E5
100
AcDbEntity
  8
universal_board
  6
ByLayer
 62
  256
370
   -1
100
AcDbCircle
 10
-86.99999999999727
 20
51.23999999999963
 40
0.5
  0
CIRCLE
  5
E6
100
AcDbEntity
  8
universal_board
  6
ByLayer
 62
  256
370
   -1
100
AcDbCircle
 10
-84.45999999999736
 20
51.23999999999965
 40
0.5
  0
CIRCLE
  5
E7
100
AcDbEntity
  8
universal_board
  6
ByLayer
 62
  256
370
   -1
100
AcDbCircle
 10
-81.91999999999749
 20
51.23999999999965
 40
0.5
  0
CIRCLE
  5
E8
100
AcDbEntity
  8
universal_board
  6
ByLayer
 62
  256
370
   -1
100
AcDbCircle
 10
-99.69999999999672
 20
51.23999999999958
 40
0.5
  0
CIRCLE
  5
E9
100
AcDbEntity
  8
universal_board
  6
ByLayer
 62
  256
370
   -1
100
AcDbCircle
 10
-102.2399999999966
 20
51.23999999999958
 40
0.5
  0
CIRCLE
  5
EA
100
AcDbEntity
  8
universal_board
  6
ByLayer
 62
  256
370
   -1
100
AcDbCircle
 10
-104.7799999999965
 20
51.23999999999955
 40
0.5
  0
CIRCLE
  5
EB
100
AcDbEntity
  8
universal_board
  6
ByLayer
 62
  256
370
   -1
100
AcDbCircle
 10
-107.3199999999964
 20
51.23999999999958
 40
0.5
  0
CIRCLE
  5
EC
100
AcDbEntity
  8
universal_board
  6
ByLayer
 62
  256
370
   -1
100
AcDbCircle
 10
-109.8599999999962
 20
51.23999999999956
 40
0.5
  0
CIRCLE
  5
ED
100
AcDbEntity
  8
universal_board
  6
ByLayer
 62
  256
370
   -1
100
AcDbCircle
 10
-112.3999999999961
 20
51.23999999999958
 40
0.5
  0
CIRCLE
  5
EE
100
AcDbEntity
  8
universal_board
  6
ByLayer
 62
  256
370
   -1
100
AcDbCircle
 10
-114.939999999996
 20
51.23999999999954
 40
0.5
  0
CIRCLE
  5
EF
100
AcDbEntity
  8
universal_board
  6
ByLayer
 62
  256
370
   -1
100
AcDbCircle
 10
-97.15999999999684
 20
53.7799999999996
 40
0.5
  0
CIRCLE
  5
F0
100
AcDbEntity
  8
universal_board
  6
ByLayer
 62
  256
370
   -1
100
AcDbCircle
 10
-94.61999999999696
 20
53.77999999999961
 40
0.5
  0
CIRCLE
  5
F1
100
AcDbEntity
  8
universal_board
  6
ByLayer
 62
  256
370
   -1
100
AcDbCircle
 10
-92.07999999999707
 20
53.77999999999961
 40
0.5
  0
CIRCLE
  5
F2
100
AcDbEntity
  8
universal_board
  6
ByLayer
 62
  256
370
   -1
100
AcDbCircle
 10
-89.53999999999718
 20
53.77999999999963
 40
0.5
  0
CIRCLE
  5
F3
100
AcDbEntity
  8
universal_board
  6
ByLayer
 62
  256
370
   -1
100
AcDbCircle
 10
-86.99999999999727
 20
53.77999999999965
 40
0.5
  0
CIRCLE
  5
F4
100
AcDbEntity
  8
universal_board
  6
ByLayer
 62
  256
370
   -1
100
AcDbCircle
 10
-84.45999999999738
 20
53.77999999999967
 40
0.5
  0
CIRCLE
  5
F5
100
AcDbEntity
  8
universal_board
  6
ByLayer
 62
  256
370
   -1
100
AcDbCircle
 10
-81.91999999999749
 20
53.77999999999967
 40
0.5
  0
CIRCLE
  5
F6
100
AcDbEntity
  8
universal_board
  6
ByLayer
 62
  256
370
   -1
100
AcDbCircle
 10
-99.69999999999672
 20
53.7799999999996
 40
0.5
  0
CIRCLE
  5
F7
100
AcDbEntity
  8
universal_board
  6
ByLayer
 62
  256
370
   -1
100
AcDbCircle
 10
-102.2399999999966
 20
53.7799999999996
 40
0.5
  0
CIRCLE
  5
F8
100
AcDbEntity
  8
universal_board
  6
ByLayer
 62
  256
370
   -1
100
AcDbCircle
 10
-104.7799999999965
 20
53.77999999999957
 40
0.5
  0
CIRCLE
  5
F9
100
AcDbEntity
  8
universal_board
  6
ByLayer
 62
  256
370
   -1
100
AcDbCircle
 10
-107.3199999999964
 20
53.7799999999996
 40
0.5
  0
CIRCLE
  5
FA
100
AcDbEntity
  8
universal_board
  6
ByLayer
 62
  256
370
   -1
100
AcDbCircle
 10
-109.8599999999962
 20
53.77999999999958
 40
0.5
  0
CIRCLE
  5
FB
100
AcDbEntity
  8
universal_board
  6
ByLayer
 62
  256
370
   -1
100
AcDbCircle
 10
-112.3999999999961
 20
53.77999999999958
 40
0.5
  0
CIRCLE
  5
FC
100
AcDbEntity
  8
universal_board
  6
ByLayer
 62
  256
370
   -1
100
AcDbCircle
 10
-114.939999999996
 20
53.77999999999956
 40
0.5
  0
CIRCLE
  5
FD
100
AcDbEntity
  8
universal_board
  6
ByLayer
 62
  256
370
   -1
100
AcDbCircle
 10
-97.15999999999684
 20
56.31999999999962
 40
0.5
  0
CIRCLE
  5
FE
100
AcDbEntity
  8
universal_board
  6
ByLayer
 62
  256
370
   -1
100
AcDbCircle
 10
-94.61999999999696
 20
56.31999999999962
 40
0.5
  0
CIRCLE
  5
FF
100
AcDbEntity
  8
universal_board
  6
ByLayer
 62
  256
370
   -1
100
AcDbCircle
 10
-92.07999999999707
 20
56.31999999999965
 40
0.5
  0
CIRCLE
  5
100
100
AcDbEntity
  8
universal_board
  6
ByLayer
 62
  256
370
   -1
100
AcDbCircle
 10
-89.53999999999718
 20
56.31999999999965
 40
0.5
  0
CIRCLE
  5
101
100
AcDbEntity
  8
universal_board
  6
ByLayer
 62
  256
370
   -1
100
AcDbCircle
 10
-86.99999999999727
 20
56.31999999999965
 40
0.5
  0
CIRCLE
  5
102
100
AcDbEntity
  8
universal_board
  6
ByLayer
 62
  256
370
   -1
100
AcDbCircle
 10
-84.45999999999738
 20
56.31999999999967
 40
0.5
  0
CIRCLE
  5
103
100
AcDbEntity
  8
universal_board
  6
ByLayer
 62
  256
370
   -1
100
AcDbCircle
 10
-81.91999999999749
 20
56.31999999999967
 40
0.5
  0
CIRCLE
  5
104
100
AcDbEntity
  8
universal_board
  6
ByLayer
 62
  256
370
   -1
100
AcDbCircle
 10
-99.69999999999672
 20
56.31999999999963
 40
0.5
  0
CIRCLE
  5
105
100
AcDbEntity
  8
universal_board
  6
ByLayer
 62
  256
370
   -1
100
AcDbCircle
 10
-102.2399999999966
 20
56.31999999999962
 40
0.5
  0
CIRCLE
  5
106
100
AcDbEntity
  8
universal_board
  6
ByLayer
 62
  256
370
   -1
100
AcDbCircle
 10
-104.7799999999965
 20
56.31999999999962
 40
0.5
  0
CIRCLE
  5
107
100
AcDbEntity
  8
universal_board
  6
ByLayer
 62
  256
370
   -1
100
AcDbCircle
 10
-107.3199999999964
 20
56.31999999999962
 40
0.5
  0
CIRCLE
  5
108
100
AcDbEntity
  8
universal_board
  6
ByLayer
 62
  256
370
   -1
100
AcDbCircle
 10
-109.8599999999962
 20
56.3199999999996
 40
0.5
  0
CIRCLE
  5
109
100
AcDbEntity
  8
universal_board
  6
ByLayer
 62
  256
370
   -1
100
AcDbCircle
 10
-112.3999999999961
 20
56.3199999999996
 40
0.5
  0
CIRCLE
  5
10A
100
AcDbEntity
  8
universal_board
  6
ByLayer
 62
  256
370
   -1
100
AcDbCircle
 10
-114.939999999996
 20
56.3199999999996
 40
0.5
  0
CIRCLE
  5
10B
100
AcDbEntity
  8
universal_board
  6
ByLayer
 62
  256
370
   -1
100
AcDbCircle
 10
-97.15999999999687
 20
58.85999999999963
 40
0.5
  0
CIRCLE
  5
10C
100
AcDbEntity
  8
universal_board
  6
ByLayer
 62
  256
370
   -1
100
AcDbCircle
 10
-94.61999999999696
 20
58.85999999999965
 40
0.5
  0
CIRCLE
  5
10D
100
AcDbEntity
  8
universal_board
  6
ByLayer
 62
  256
370
   -1
100
AcDbCircle
 10
-92.07999999999707
 20
58.85999999999967
 40
0.5
  0
CIRCLE
  5
10E
100
AcDbEntity
  8
universal_board
  6
ByLayer
 62
  256
370
   -1
100
AcDbCircle
 10
-89.53999999999718
 20
58.85999999999967
 40
0.5
  0
CIRCLE
  5
10F
100
AcDbEntity
  8
universal_board
  6
ByLayer
 62
  256
370
   -1
100
AcDbCircle
 10
-86.9999999999973
 20
58.85999999999968
 40
0.5
  0
CIRCLE
  5
110
100
AcDbEntity
  8
universal_board
  6
ByLayer
 62
  256
370
   -1
100
AcDbCircle
 10
-84.45999999999739
 20
58.85999999999969
 40
0.5
  0
CIRCLE
  5
111
100
AcDbEntity
  8
universal_board
  6
ByLayer
 62
  256
370
   -1
100
AcDbCircle
 10
-81.9199999999975
 20
58.8599999999997
 40
0.5
  0
CIRCLE
  5
112
100
AcDbEntity
  8
universal_board
  6
ByLayer
 62
  256
370
   -1
100
AcDbCircle
 10
-99.69999999999672
 20
58.85999999999965
 40
0.5
  0
CIRCLE
  5
113
100
AcDbEntity
  8
universal_board
  6
ByLayer
 62
  256
370
   -1
100
AcDbCircle
 10
-102.2399999999966
 20
58.85999999999964
 40
0.5
  0
CIRCLE
  5
114
100
AcDbEntity
  8
universal_board
  6
ByLayer
 62
  256
370
   -1
100
AcDbCircle
 10
-104.7799999999965
 20
58.85999999999964
 40
0.5
  0
CIRCLE
  5
115
100
AcDbEntity
  8
universal_board
  6
ByLayer
 62
  256
370
   -1
100
AcDbCircle
 10
-107.3199999999964
 20
58.85999999999963
 40
0.5
  0
CIRCLE
  5
116
100
AcDbEntity
  8
universal_board
  6
ByLayer
 62
  256
370
   -1
100
AcDbCircle
 10
-109.8599999999963
 20
58.85999999999962
 40
0.5
  0
CIRCLE
  5
117
100
AcDbEntity
  8
universal_board
  6
ByLayer
 62
  256
370
   -1
100
AcDbCircle
 10
-112.3999999999961
 20
58.85999999999962
 40
0.5
  0
CIRCLE
  5
118
100
AcDbEntity
  8
universal_board
  6
ByLayer
 62
  256
370
   -1
100
AcDbCircle
 10
-114.939999999996
 20
58.85999999999962
 40
0.5
  0
CIRCLE
  5
119
100
AcDbEntity
  8
universal_board
  6
ByLayer
 62
  256
370
   -1
100
AcDbCircle
 10
-97.15999999999684
 20
61.39999999999965
 40
0.5
  0
CIRCLE
  5
11A
100
AcDbEntity
  8
universal_board
  6
ByLayer
 62
  256
370
   -1
100
AcDbCircle
 10
-94.61999999999696
 20
61.39999999999965
 40
0.5
  0
CIRCLE
  5
11B
100
AcDbEntity
  8
universal_board
  6
ByLayer
 62
  256
370
   -1
100
AcDbCircle
 10
-92.07999999999707
 20
61.39999999999969
 40
0.5
  0
CIRCLE
  5
11C
100
AcDbEntity
  8
universal_board
  6
ByLayer
 62
  256
370
   -1
100
AcDbCircle
 10
-89.53999999999718
 20
61.39999999999969
 40
0.5
  0
CIRCLE
  5
11D
100
AcDbEntity
  8
universal_board
  6
ByLayer
 62
  256
370
   -1
100
AcDbCircle
 10
-86.99999999999727
 20
61.3999999999997
 40
0.5
  0
CIRCLE
  5
11E
100
AcDbEntity
  8
universal_board
  6
ByLayer
 62
  256
370
   -1
100
AcDbCircle
 10
-84.45999999999739
 20
61.39999999999971
 40
0.5
  0
CIRCLE
  5
11F
100
AcDbEntity
  8
universal_board
  6
ByLayer
 62
  256
370
   -1
100
AcDbCircle
 10
-81.9199999999975
 20
61.39999999999971
 40
0.5
  0
CIRCLE
  5
120
100
AcDbEntity
  8
universal_board
  6
ByLayer
 62
  256
370
   -1
100
AcDbCircle
 10
-99.69999999999675
 20
61.39999999999965
 40
0.5
  0
CIRCLE
  5
121
100
AcDbEntity
  8
universal_board
  6
ByLayer
 62
  256
370
   -1
100
AcDbCircle
 10
-102.2399999999966
 20
61.39999999999966
 40
0.5
  0
CIRCLE
  5
122
100
AcDbEntity
  8
universal_board
  6
ByLayer
 62
  256
370
   -1
100
AcDbCircle
 10
-104.7799999999965
 20
61.39999999999966
 40
0.5
  0
CIRCLE
  5
123
100
AcDbEntity
  8
universal_board
  6
ByLayer
 62
  256
370
   -1
100
AcDbCircle
 10
-107.3199999999964
 20
61.39999999999965
 40
0.5
  0
CIRCLE
  5
124
100
AcDbEntity
  8
universal_board
  6
ByLayer
 62
  256
370
   -1
100
AcDbCircle
 10
-109.8599999999963
 20
61.39999999999964
 40
0.5
  0
CIRCLE
  5
125
100
AcDbEntity
  8
universal_board
  6
ByLayer
 62
  256
370
   -1
100
AcDbCircle
 10
-112.3999999999961
 20
61.39999999999964
 40
0.5
  0
CIRCLE
  5
126
100
AcDbEntity
  8
universal_board
  6
ByLayer
 62
  256
370
   -1
100
AcDbCircle
 10
-114.939999999996
 20
61.39999999999964
 40
0.5
  0
CIRCLE
  5
127
100
AcDbEntity
  8
universal_board
  6
ByLayer
 62
  256
370
   -1
100
AcDbCircle
 10
-97.15999999999687
 20
63.93999999999969
 40
0.5
  0
CIRCLE
  5
128
100
AcDbEntity
  8
universal_board
  6
ByLayer
 62
  256
370
   -1
100
AcDbCircle
 10
-94.61999999999696
 20
63.93999999999969
 40
0.5
  0
CIRCLE
  5
129
100
AcDbEntity
  8
universal_board
  6
ByLayer
 62
  256
370
   -1
100
AcDbCircle
 10
-92.07999999999709
 20
63.93999999999972
 40
0.5
  0
CIRCLE
  5
12A
100
AcDbEntity
  8
universal_board
  6
ByLayer
 62
  256
370
   -1
100
AcDbCircle
 10
-89.53999999999718
 20
63.93999999999972
 40
0.5
  0
CIRCLE
  5
12B
100
AcDbEntity
  8
universal_board
  6
ByLayer
 62
  256
370
   -1
100
AcDbCircle
 10
-86.9999999999973
 20
63.93999999999973
 40
0.5
  0
CIRCLE
  5
12C
100
AcDbEntity
  8
universal_board
  6
ByLayer
 62
  256
370
   -1
100
AcDbCircle
 10
-84.45999999999739
 20
63.93999999999976
 40
0.5
  0
CIRCLE
  5
12D
100
AcDbEntity
  8
universal_board
  6
ByLayer
 62
  256
370
   -1
100
AcDbCircle
 10
-81.91999999999751
 20
63.93999999999976
 40
0.5
  0
CIRCLE
  5
12E
100
AcDbEntity
  8
universal_board
  6
ByLayer
 62
  256
370
   -1
100
AcDbCircle
 10
-99.69999999999675
 20
63.93999999999967
 40
0.5
  0
CIRCLE
  5
12F
100
AcDbEntity
  8
universal_board
  6
ByLayer
 62
  256
370
   -1
100
AcDbCircle
 10
-102.2399999999966
 20
63.93999999999969
 40
0.5
  0
CIRCLE
  5
130
100
AcDbEntity
  8
universal_board
  6
ByLayer
 62
  256
370
   -1
100
AcDbCircle
 10
-104.7799999999965
 20
63.93999999999967
 40
0.5
  0
CIRCLE
  5
131
100
AcDbEntity
  8
universal_board
  6
ByLayer
 62
  256
370
   -1
100
AcDbCircle
 10
-107.3199999999964
 20
63.93999999999967
 40
0.5
  0
CIRCLE
  5
132
100
AcDbEntity
  8
universal_board
  6
ByLayer
 62
  256
370
   -1
100
AcDbCircle
 10
-109.8599999999963
 20
63.93999999999966
 40
0.5
  0
CIRCLE
  5
133
100
AcDbEntity
  8
universal_board
  6
ByLayer
 62
  256
370
   -1
100
AcDbCircle
 10
-112.3999999999961
 20
63.93999999999966
 40
0.5
  0
CIRCLE
  5
134
100
AcDbEntity
  8
universal_board
  6
ByLayer
 62
  256
370
   -1
100
AcDbCircle
 10
-114.939999999996
 20
63.93999999999966
 40
0.5
  0
CIRCLE
  5
135
100
AcDbEntity
  8
universal_board
  6
ByLayer
 62
  256
370
   -1
100
AcDbCircle
 10
-97.15999999999687
 20
66.47999999999969
 40
0.5
  0
CIRCLE
  5
136
100
AcDbEntity
  8
universal_board
  6
ByLayer
 62
  256
370
   -1
100
AcDbCircle
 10
-94.61999999999696
 20
66.47999999999972
 40
0.5
  0
CIRCLE
  5
137
100
AcDbEntity
  8
universal_board
  6
ByLayer
 62
  256
370
   -1
100
AcDbCircle
 10
-92.07999999999709
 20
66.47999999999972
 40
0.5
  0
CIRCLE
  5
138
100
AcDbEntity
  8
universal_board
  6
ByLayer
 62
  256
370
   -1
100
AcDbCircle
 10
-89.53999999999718
 20
66.47999999999975
 40
0.5
  0
CIRCLE
  5
139
100
AcDbEntity
  8
universal_board
  6
ByLayer
 62
  256
370
   -1
100
AcDbCircle
 10
-86.99999999999727
 20
66.47999999999975
 40
0.5
  0
CIRCLE
  5
13A
100
AcDbEntity
  8
universal_board
  6
ByLayer
 62
  256
370
   -1
100
AcDbCircle
 10
-84.45999999999739
 20
66.47999999999975
 40
0.5
  0
CIRCLE
  5
13B
100
AcDbEntity
  8
universal_board
  6
ByLayer
 62
  256
370
   -1
100
AcDbCircle
 10
-81.91999999999751
 20
66.47999999999978
 40
0.5
  0
CIRCLE
  5
13C
100
AcDbEntity
  8
universal_board
  6
ByLayer
 62
  256
370
   -1
100
AcDbCircle
 10
-99.69999999999675
 20
66.47999999999969
 40
0.5
  0
CIRCLE
  5
13D
100
AcDbEntity
  8
universal_board
  6
ByLayer
 62
  256
370
   -1
100
AcDbCircle
 10
-102.2399999999966
 20
66.47999999999969
 40
0.5
  0
CIRCLE
  5
13E
100
AcDbEntity
  8
universal_board
  6
ByLayer
 62
  256
370
   -1
100
AcDbCircle
 10
-104.7799999999965
 20
66.47999999999969
 40
0.5
  0
CIRCLE
  5
13F
100
AcDbEntity
  8
universal_board
  6
ByLayer
 62
  256
370
   -1
100
AcDbCircle
 10
-107.3199999999964
 20
66.47999999999969
 40
0.5
  0
CIRCLE
  5
140
100
AcDbEntity
  8
universal_board
  6
ByLayer
 62
  256
370
   -1
100
AcDbCircle
 10
-109.8599999999963
 20
66.47999999999969
 40
0.5
  0
CIRCLE
  5
141
100
AcDbEntity
  8
universal_board
  6
ByLayer
 62
  256
370
   -1
100
AcDbCircle
 10
-112.3999999999961
 20
66.47999999999966
 40
0.5
  0
CIRCLE
  5
142
100
AcDbEntity
  8
universal_board
  6
ByLayer
 62
  256
370
   -1
100
AcDbCircle
 10
-114.939999999996
 20
66.47999999999969
 40
0.5
  0
CIRCLE
  5
143
100
AcDbEntity
  8
universal_board
  6
ByLayer
 62
  256
370
   -1
100
AcDbCircle
 10
-117.4799999999959
 20
41.07999999999942
 40
0.5
  0
CIRCLE
  5
144
100
AcDbEntity
  8
universal_board
  6
ByLayer
 62
  256
370
   -1
100
AcDbCircle
 10
-117.4799999999959
 20
43.61999999999945
 40
0.5
  0
CIRCLE
  5
145
100
AcDbEntity
  8
universal_board
  6
ByLayer
 62
  256
370
   -1
100
AcDbCircle
 10
-117.4799999999959
 20
46.15999999999947
 40
0.5
  0
CIRCLE
  5
146
100
AcDbEntity
  8
universal_board
  6
ByLayer
 62
  256
370
   -1
100
AcDbCircle
 10
-117.4799999999959
 20
48.69999999999947
 40
0.5
  0
CIRCLE
  5
147
100
AcDbEntity
  8
universal_board
  6
ByLayer
 62
  256
370
   -1
100
AcDbCircle
 10
-117.4799999999959
 20
51.23999999999951
 40
0.5
  0
CIRCLE
  5
148
100
AcDbEntity
  8
universal_board
  6
ByLayer
 62
  256
370
   -1
100
AcDbCircle
 10
-117.479999999996
 20
53.77999999999953
 40
0.5
  0
CIRCLE
  5
149
100
AcDbEntity
  8
universal_board
  6
ByLayer
 62
  256
370
   -1
100
AcDbCircle
 10
-117.479999999996
 20
56.31999999999956
 40
0.5
  0
CIRCLE
  5
14A
100
AcDbEntity
  8
universal_board
  6
ByLayer
 62
  256
370
   -1
100
AcDbCircle
 10
-117.479999999996
 20
58.85999999999957
 40
0.5
  0
CIRCLE
  5
14B
100
AcDbEntity
  8
universal_board
  6
ByLayer
 62
  256
370
   -1
100
AcDbCircle
 10
-117.479999999996
 20
61.3999999999996
 40
0.5
  0
CIRCLE
  5
14C
100
AcDbEntity
  8
universal_board
  6
ByLayer
 62
  256
370
   -1
100
AcDbCircle
 10
-117.479999999996
 20
63.93999999999961
 40
0.5
  0
CIRCLE
  5
14D
100
AcDbEntity
  8
universal_board
  6
ByLayer
 62
  256
370
   -1
100
AcDbCircle
 10
-117.479999999996
 20
66.47999999999963
 40
0.5
  0
CIRCLE
  5
14E
100
AcDbEntity
  8
universal_board
  6
ByLayer
 62
  256
370
   -1
100
AcDbCircle
 10
-97.15999999999687
 20
69.01999999999971
 40
0.5
  0
CIRCLE
  5
14F
100
AcDbEntity
  8
universal_board
  6
ByLayer
 62
  256
370
   -1
100
AcDbCircle
 10
-94.61999999999699
 20
69.01999999999974
 40
0.5
  0
CIRCLE
  5
150
100
AcDbEntity
  8
universal_board
  6
ByLayer
 62
  256
370
   -1
100
AcDbCircle
 10
-92.07999999999709
 20
69.01999999999974
 40
0.5
  0
CIRCLE
  5
151
100
AcDbEntity
  8
universal_board
  6
ByLayer
 62
  256
370
   -1
100
AcDbCircle
 10
-89.53999999999721
 20
69.01999999999974
 40
0.5
  0
CIRCLE
  5
152
100
AcDbEntity
  8
universal_board
  6
ByLayer
 62
  256
370
   -1
100
AcDbCircle
 10
-86.9999999999973
 20
69.01999999999977
 40
0.5
  0
CIRCLE
  5
153
100
AcDbEntity
  8
universal_board
  6
ByLayer
 62
  256
370
   -1
100
AcDbCircle
 10
-84.45999999999742
 20
69.01999999999977
 40
0.5
  0
CIRCLE
  5
154
100
AcDbEntity
  8
universal_board
  6
ByLayer
 62
  256
370
   -1
100
AcDbCircle
 10
-81.91999999999751
 20
69.0199999999998
 40
0.5
  0
CIRCLE
  5
155
100
AcDbEntity
  8
universal_board
  6
ByLayer
 62
  256
370
   -1
100
AcDbCircle
 10
-99.69999999999675
 20
69.01999999999971
 40
0.5
  0
CIRCLE
  5
156
100
AcDbEntity
  8
universal_board
  6
ByLayer
 62
  256
370
   -1
100
AcDbCircle
 10
-102.2399999999966
 20
69.01999999999971
 40
0.5
  0
CIRCLE
  5
157
100
AcDbEntity
  8
universal_board
  6
ByLayer
 62
  256
370
   -1
100
AcDbCircle
 10
-104.7799999999965
 20
69.01999999999971
 40
0.5
  0
CIRCLE
  5
158
100
AcDbEntity
  8
universal_board
  6
ByLayer
 62
  256
370
   -1
100
AcDbCircle
 10
-107.3199999999964
 20
69.01999999999971
 40
0.5
  0
CIRCLE
  5
159
100
AcDbEntity
  8
universal_board
  6
ByLayer
 62
  256
370
   -1
100
AcDbCircle
 10
-109.8599999999963
 20
69.01999999999968
 40
0.5
  0
CIRCLE
  5
15A
100
AcDbEntity
  8
universal_board
  6
ByLayer
 62
  256
370
   -1
100
AcDbCircle
 10
-112.3999999999961
 20
69.01999999999968
 40
0.5
  0
CIRCLE
  5
15B
100
AcDbEntity
  8
universal_board
  6
ByLayer
 62
  256
370
   -1
100
AcDbCircle
 10
-114.939999999996
 20
69.01999999999971
 40
0.5
  0
CIRCLE
  5
15C
100
AcDbEntity
  8
universal_board
  6
ByLayer
 62
  256
370
   -1
100
AcDbCircle
 10
-117.479999999996
 20
69.01999999999965
 40
0.5
  0
CIRCLE
  5
15D
100
AcDbEntity
  8
universal_board
  6
ByLayer
 62
  256
370
   -1
100
AcDbCircle
 10
-97.15999999999687
 20
71.5599999999997
 40
0.5
  0
CIRCLE
  5
15E
100
AcDbEntity
  8
universal_board
  6
ByLayer
 62
  256
370
   -1
100
AcDbCircle
 10
-94.61999999999699
 20
71.55999999999973
 40
0.5
  0
CIRCLE
  5
15F
100
AcDbEntity
  8
universal_board
  6
ByLayer
 62
  256
370
   -1
100
AcDbCircle
 10
-92.07999999999711
 20
71.55999999999973
 40
0.5
  0
CIRCLE
  5
160
100
AcDbEntity
  8
universal_board
  6
ByLayer
 62
  256
370
   -1
100
AcDbCircle
 10
-89.53999999999721
 20
71.55999999999976
 40
0.5
  0
CIRCLE
  5
161
100
AcDbEntity
  8
universal_board
  6
ByLayer
 62
  256
370
   -1
100
AcDbCircle
 10
-86.99999999999731
 20
71.55999999999976
 40
0.5
  0
CIRCLE
  5
162
100
AcDbEntity
  8
universal_board
  6
ByLayer
 62
  256
370
   -1
100
AcDbCircle
 10
-84.45999999999742
 20
71.55999999999976
 40
0.5
  0
CIRCLE
  5
163
100
AcDbEntity
  8
universal_board
  6
ByLayer
 62
  256
370
   -1
100
AcDbCircle
 10
-81.91999999999753
 20
71.55999999999979
 40
0.5
  0
CIRCLE
  5
164
100
AcDbEntity
  8
universal_board
  6
ByLayer
 62
  256
370
   -1
100
AcDbCircle
 10
-99.69999999999676
 20
71.5599999999997
 40
0.5
  0
CIRCLE
  5
165
100
AcDbEntity
  8
universal_board
  6
ByLayer
 62
  256
370
   -1
100
AcDbCircle
 10
-102.2399999999966
 20
71.55999999999973
 40
0.5
  0
CIRCLE
  5
166
100
AcDbEntity
  8
universal_board
  6
ByLayer
 62
  256
370
   -1
100
AcDbCircle
 10
-104.7799999999965
 20
71.5599999999997
 40
0.5
  0
CIRCLE
  5
167
100
AcDbEntity
  8
universal_board
  6
ByLayer
 62
  256
370
   -1
100
AcDbCircle
 10
-107.3199999999964
 20
71.5599999999997
 40
0.5
  0
CIRCLE
  5
168
100
AcDbEntity
  8
universal_board
  6
ByLayer
 62
  256
370
   -1
100
AcDbCircle
 10
-109.8599999999963
 20
71.55999999999968
 40
0.5
  0
CIRCLE
  5
169
100
AcDbEntity
  8
universal_board
  6
ByLayer
 62
  256
370
   -1
100
AcDbCircle
 10
-112.3999999999962
 20
71.5599999999997
 40
0.5
  0
CIRCLE
  5
16A
100
AcDbEntity
  8
universal_board
  6
ByLayer
 62
  256
370
   -1
100
AcDbCircle
 10
-114.939999999996
 20
71.5599999999997
 40
0.5
  0
CIRCLE
  5
16B
100
AcDbEntity
  8
universal_board
  6
ByLayer
 62
  256
370
   -1
100
AcDbCircle
 10
-117.479999999996
 20
71.55999999999965
 40
0.5
  0
CIRCLE
  5
16C
100
AcDbEntity
  8
universal_board
  6
ByLayer
 62
  256
370
   -1
100
AcDbCircle
 10
-97.1599999999969
 20
74.09999999999972
 40
0.5
  0
CIRCLE
  5
16D
100
AcDbEntity
  8
universal_board
  6
ByLayer
 62
  256
370
   -1
100
AcDbCircle
 10
-94.61999999999699
 20
74.09999999999975
 40
0.5
  0
CIRCLE
  5
16E
100
AcDbEntity
  8
universal_board
  6
ByLayer
 62
  256
370
   -1
100
AcDbCircle
 10
-92.07999999999711
 20
74.09999999999975
 40
0.5
  0
CIRCLE
  5
16F
100
AcDbEntity
  8
universal_board
  6
ByLayer
 62
  256
370
   -1
100
AcDbCircle
 10
-89.53999999999724
 20
74.09999999999978
 40
0.5
  0
CIRCLE
  5
170
100
AcDbEntity
  8
universal_board
  6
ByLayer
 62
  256
370
   -1
100
AcDbCircle
 10
-86.99999999999733
 20
74.09999999999978
 40
0.5
  0
CIRCLE
  5
171
100
AcDbEntity
  8
universal_board
  6
ByLayer
 62
  256
370
   -1
100
AcDbCircle
 10
-84.45999999999742
 20
74.09999999999978
 40
0.5
  0
CIRCLE
  5
172
100
AcDbEntity
  8
universal_board
  6
ByLayer
 62
  256
370
   -1
100
AcDbCircle
 10
-81.91999999999754
 20
74.09999999999981
 40
0.5
  0
CIRCLE
  5
173
100
AcDbEntity
  8
universal_board
  6
ByLayer
 62
  256
370
   -1
100
AcDbCircle
 10
-99.69999999999678
 20
74.09999999999972
 40
0.5
  0
CIRCLE
  5
174
100
AcDbEntity
  8
universal_board
  6
ByLayer
 62
  256
370
   -1
100
AcDbCircle
 10
-102.2399999999967
 20
74.09999999999975
 40
0.5
  0
CIRCLE
  5
175
100
AcDbEntity
  8
universal_board
  6
ByLayer
 62
  256
370
   -1
100
AcDbCircle
 10
-104.7799999999965
 20
74.09999999999972
 40
0.5
  0
CIRCLE
  5
176
100
AcDbEntity
  8
universal_board
  6
ByLayer
 62
  256
370
   -1
100
AcDbCircle
 10
-107.3199999999964
 20
74.09999999999972
 40
0.5
  0
CIRCLE
  5
177
100
AcDbEntity
  8
universal_board
  6
ByLayer
 62
  256
370
   -1
100
AcDbCircle
 10
-109.8599999999963
 20
74.0999999999997
 40
0.5
  0
CIRCLE
  5
178
100
AcDbEntity
  8
universal_board
  6
ByLayer
 62
  256
370
   -1
100
AcDbCircle
 10
-112.3999999999962
 20
74.09999999999972
 40
0.5
  0
CIRCLE
  5
179
100
AcDbEntity
  8
universal_board
  6
ByLayer
 62
  256
370
   -1
100
AcDbCircle
 10
-114.939999999996
 20
74.09999999999972
 40
0.5
  0
CIRCLE
  5
17A
100
AcDbEntity
  8
universal_board
  6
ByLayer
 62
  256
370
   -1
100
AcDbCircle
 10
-117.479999999996
 20
74.09999999999967
 40
0.5
  0
LINE
  5
17B
100
AcDbEntity
  8
universal_board
  6
ByLayer
 62
  256
370
   -1
100
AcDbLine
 10
-80.64999999999756
 20
39.80999999999942
 11
-80.64999999999773
 21
75.36999999999962
  0
MTEXT
  5
17C
100
AcDbEntity
  8
universal_board
  6
ByLayer
 62
  256
370
   -1
100
AcDbMText
 10
-111.3071776108563
 20
76.90667801524205
 30
0
 40
1
 41
2
 71
    6
 72
    1
  1
UB1
  7
iso
210
0
220
0
230
1
 50
2.035554996136651e-13
 73
    2
 44
1.54
  0
MTEXT
  5
17D
100
AcDbEntity
  8
0
  6
ByLayer
 62
  256
370
   -1
100
AcDbMText
 10
-80.03511231782326
 20
57.66826394862806
 30
0
 40
1
 41
2.33333333333352
 71
    4
 72
    1
  1
8\P7\P6\P5\P3V3\PGND\PGND\PVCC\P4\P3\P2\P1\P0\PRST
  7
iso
210
0
220
0
230
1
 50
0
 73
    2
 44
1.54
  0
LINE
  5
17E
100
AcDbEntity
  8
terminal
  6
ByLayer
 62
  256
370
   -1
100
AcDbLine
 10
-109.6699999999957
 20
38.72999999999947
 11
-109.6699999999957
 21
44.47999999999957
  0
LINE
  5
17F
100
AcDbEntity
  8
terminal
  6
ByLayer
 62
  256
370
   -1
100
AcDbLine
 10
-109.6699999999957
 20
44.47999999999957
 11
-92.26999999999558
 21
44.47999999999957
  0
LINE
  5
180
100
AcDbEntity
  8
terminal
  6
ByLayer
 62
  256
370
   -1
100
AcDbLine
 10
-92.26999999999558
 20
44.47999999999957
 11
-92.26999999999558
 21
38.72999999999947
  0
LINE
  5
181
100
AcDbEntity
  8
terminal
  6
ByLayer
 62
  256
370
   -1
100
AcDbLine
 10
-92.26999999999558
 20
38.72999999999947
 11
-109.6699999999957
 21
38.72999999999947
  0
CIRCLE
  5
182
100
AcDbEntity
  8
terminal
  6
ByLayer
 62
  256
370
   -1
100
AcDbCircle
 10
-107.3199999999968
 20
41.07999999999949
 40
0.5
  0
CIRCLE
  5
183
100
AcDbEntity
  8
terminal
  6
ByLayer
 62
  256
370
   -1
100
AcDbCircle
 10
-104.7799999999968
 20
41.07999999999949
 40
0.5
  0
CIRCLE
  5
184
100
AcDbEntity
  8
terminal
  6
ByLayer
 62
  256
370
   -1
100
AcDbCircle
 10
-102.2399999999968
 20
41.07999999999949
 40
0.5
  0
CIRCLE
  5
185
100
AcDbEntity
  8
terminal
  6
ByLayer
 62
  256
370
   -1
100
AcDbCircle
 10
-99.69999999999669
 20
41.07999999999949
 40
0.5
  0
CIRCLE
  5
186
100
AcDbEntity
  8
terminal
  6
ByLayer
 62
  256
370
   -1
100
AcDbCircle
 10
-97.1599999999967
 20
41.07999999999949
 40
0.5
  0
CIRCLE
  5
187
100
AcDbEntity
  8
terminal
  6
ByLayer
 62
  256
370
   -1
100
AcDbCircle
 10
-94.61999999999671
 20
41.07999999999949
 40
0.5
  0
MTEXT
  5
188
100
AcDbEntity
  8
terminal
  6
ByLayer
 62
  256
370
   -1
100
AcDbMText
 10
-112.4714128305747
 20
39.06701849408872
 30
0
 40
1
 41
2.111111111111111
 71
    4
 72
    1
  1
XH1
  7
iso
210
0
220
0
230
1
 50
0
 73
    2
 44
1.54
  0
LINE
  5
189
100
AcDbEntity
  8
0_GND
  6
ByLayer
 62
  256
370
   -1
100
AcDbLine
 10
-117.479999999996
 20
56.31999999999956
 11
-114.939999999996
 21
56.3199999999996
  0
LINE
  5
18A
100
AcDbEntity
  8
0_GND
  6
ByLayer
 62
  256
370
   -1
100
AcDbLine
 10
-114.939999999996
 20
56.3199999999996
 11
-114.939999999996
 21
51.23999999999954
  0
LINE
  5
18B
100
AcDbEntity
  8
0_GND
  6
ByLayer
 62
  256
370
   -1
100
AcDbLine
 10
-114.939999999996
 20
51.23999999999954
 11
-109.8599999999962
 21
51.23999999999956
  0
LINE
  5
18C
100
AcDbEntity
  8
0_GND
  6
ByLayer
 62
  256
370
   -1
100
AcDbLine
 10
-109.8599999999962
 20
51.23999999999956
 11
-107.3199999999964
 21
51.23999999999958
  0
LINE
  5
18D
100
AcDbEntity
  8
5V line
  6
ByLayer
 62
  256
370
   -1
100
AcDbLine
 10
-117.479999999996
 20
61.3999999999996
 11
-114.939999999996
 21
61.39999999999964
  0
LINE
  5
18E
100
AcDbEntity
  8
0_wire
  6
ByLayer
 62
  256
370
   -1
100
AcDbLine
 10
-99.69999999999669
 20
41.07999999999949
 11
-99.69999999999672
 21
43.61999999999951
  0
LINE
  5
18F
100
AcDbEntity
  8
0_wire
  6
ByLayer
 62
  256
370
   -1
100
AcDbLine
 10
-99.69999999999672
 20
43.61999999999951
 11
-92.07999999999704
 21
43.61999999999954
  0
LINE
  5
190
100
AcDbEntity
  8
0_wire
  6
ByLayer
 62
  256
370
   -1
100
AcDbLine
 10
-102.2399999999966
 20
46.15999999999956
 11
-102.2399999999966
 21
41.07999999999949
  0
LINE
  5
191
100
AcDbEntity
  8
0_GND
  6
ByLayer
 62
  256
370
   -1
100
AcDbLine
 10
-107.3199999999964
 20
48.69999999999954
 11
-107.3199999999964
 21
51.23999999999958
  0
LINE
  5
192
100
AcDbEntity
  8
0_wire
  6
ByLayer
 62
  256
370
   -1
100
AcDbLine
 10
-99.69999999999669
 20
41.07999999999949
 11
-97.15999999999684
 21
41.0799999999995
  0
LINE
  5
193
100
AcDbEntity
  8
0_wire
  6
ByLayer
 62
  256
370
   -1
100
AcDbLine
 10
-102.2399999999966
 20
41.07999999999949
 11
-104.7799999999965
 21
41.07999999999948
  0
LINE
  5
194
100
AcDbEntity
  8
0_GND
  6
ByLayer
 62
  256
370
   -1
100
AcDbLine
 10
-107.3199999999968
 20
41.07999999999949
 11
-107.3199999999964
 21
48.69999999999954
  0
LINE
  5
195
100
AcDbEntity
  8
0_GND
  6
ByLayer
 62
  256
370
   -1
100
AcDbLine
 10
-81.9199999999975
 20
58.8599999999997
 11
-84.45999999999739
 21
58.85999999999969
  0
LINE
  5
196
100
AcDbEntity
  8
0_GND
  6
ByLayer
 62
  256
370
   -1
100
AcDbLine
 10
-84.45999999999736
 20
41.07999999999955
 11
-94.61999999999671
 21
41.07999999999949
  0
LINE
  5
197
100
AcDbEntity
  8
0_wire
  6
ByLayer
 62
  256
370
   -1
100
AcDbLine
 10
-112.3999999999961
 20
48.69999999999954
 11
-109.8599999999962
 21
48.69999999999954
  0
LINE
  5
198
100
AcDbEntity
  8
resister
  6
ByLayer
 62
  256
370
   -1
100
AcDbLine
 10
-95.6299999999982
 20
47.26000000000041
 11
-101.2299999999983
 21
47.26000000000041
  0
LINE
  5
199
100
AcDbEntity
  8
resister
  6
ByLayer
 62
  256
370
   -1
100
AcDbLine
 10
-101.2299999999983
 20
47.26000000000041
 11
-101.2299999999983
 21
45.06000000000072
  0
LINE
  5
19A
100
AcDbEntity
  8
resister
  6
ByLayer
 62
  256
370
   -1
100
AcDbLine
 10
-101.2299999999983
 20
45.06000000000072
 11
-95.6299999999982
 21
45.06000000000072
  0
LINE
  5
19B
100
AcDbEntity
  8
resister
  6
ByLayer
 62
  256
370
   -1
100
AcDbLine
 10
-95.6299999999982
 20
45.06000000000072
 11
-95.6299999999982
 21
47.26000000000041
  0
LINE
  5
19C
100
AcDbEntity
  8
resister
  6
ByLayer
 62
  256
370
   -1
100
AcDbLine
 10
-101.2299999999983
 20
46.15999999999952
 11
-102.2399999999971
 21
46.15999999999952
  0
LINE
  5
19D
100
AcDbEntity
  8
resister
  6
ByLayer
 62
  256
370
   -1
100
AcDbLine
 10
-95.6299999999982
 20
46.15999999999952
 11
-94.61999999999699
 21
46.15999999999952
  0
LINE
  5
19E
100
AcDbEntity
  8
0_GND
  6
ByLayer
 62
  256
370
   -1
100
AcDbLine
 10
-84.45999999999739
 20
58.85999999999969
 11
-84.45999999999736
 21
51.23999999999965
  0
LINE
  5
19F
100
AcDbEntity
  8
0_wire
  6
ByLayer
 62
  256
370
   -1
100
AcDbLine
 10
-89.53999999999716
 20
43.61999999999955
 11
-92.07999999999704
 21
43.61999999999954
  0
LINE
  5
1A0
100
AcDbEntity
  8
0_wire
  6
ByLayer
 62
  256
370
   -1
100
AcDbLine
 10
-94.61999999999694
 20
46.15999999999956
 11
-92.07999999999706
 21
46.15999999999956
  0
LINE
  5
1A1
100
AcDbEntity
  8
0_wire
  6
ByLayer
 62
  256
370
   -1
100
AcDbLine
 10
-81.91999999999749
 20
48.69999999999963
 11
-86.99999999999727
 21
48.6999999999996
  0
LINE
  5
1A2
100
AcDbEntity
  8
micon_ic
  6
ByLayer
 62
  256
370
   -1
100
AcDbLine
 10
-109.2499999999957
 20
69.01999999999968
 11
-109.8599999999962
 21
69.01999999999968
  0
LINE
  5
1A3
100
AcDbEntity
  8
micon_ic
  6
ByLayer
 62
  256
370
   -1
100
AcDbLine
 10
-109.2499999999957
 20
66.47999999999968
 11
-109.8599999999962
 21
66.47999999999966
  0
LINE
  5
1A4
100
AcDbEntity
  8
micon_ic
  6
ByLayer
 62
  256
370
   -1
100
AcDbLine
 10
-109.2499999999957
 20
63.93999999999967
 11
-109.8599999999962
 21
63.93999999999967
  0
LINE
  5
1A5
100
AcDbEntity
  8
micon_ic
  6
ByLayer
 62
  256
370
   -1
100
AcDbLine
 10
-109.2499999999957
 20
61.39999999999966
 11
-109.8599999999962
 21
61.39999999999965
  0
LINE
  5
1A6
100
AcDbEntity
  8
micon_ic
  6
ByLayer
 62
  256
370
   -1
100
AcDbLine
 10
-109.2499999999957
 20
58.85999999999966
 11
-109.8599999999962
 21
58.85999999999966
  0
LINE
  5
1A7
100
AcDbEntity
  8
micon_ic
  6
ByLayer
 62
  256
370
   -1
100
AcDbLine
 10
-109.2499999999957
 20
56.31999999999965
 11
-109.8599999999962
 21
56.31999999999964
  0
LINE
  5
1A8
100
AcDbEntity
  8
micon_ic
  6
ByLayer
 62
  256
370
   -1
100
AcDbLine
 10
-109.2499999999957
 20
53.77999999999965
 11
-109.8599999999962
 21
53.77999999999965
  0
LINE
  5
1A9
100
AcDbEntity
  8
micon_ic
  6
ByLayer
 62
  256
370
   -1
100
AcDbLine
 10
-102.8499999999955
 20
69.01999999999971
 11
-102.2399999999966
 21
69.01999999999971
  0
LINE
  5
1AA
100
AcDbEntity
  8
micon_ic
  6
ByLayer
 62
  256
370
   -1
100
AcDbLine
 10
-102.8499999999955
 20
66.47999999999969
 11
-102.2399999999966
 21
66.47999999999969
  0
LINE
  5
1AB
100
AcDbEntity
  8
micon_ic
  6
ByLayer
 62
  256
370
   -1
100
AcDbLine
 10
-102.8499999999955
 20
63.9399999999997
 11
-102.2399999999966
 21
63.9399999999997
  0
LINE
  5
1AC
100
AcDbEntity
  8
micon_ic
  6
ByLayer
 62
  256
370
   -1
100
AcDbLine
 10
-102.8499999999955
 20
61.39999999999968
 11
-102.2399999999966
 21
61.39999999999968
  0
LINE
  5
1AD
100
AcDbEntity
  8
micon_ic
  6
ByLayer
 62
  256
370
   -1
100
AcDbLine
 10
-102.8499999999955
 20
58.85999999999969
 11
-102.2399999999966
 21
58.85999999999969
  0
LINE
  5
1AE
100
AcDbEntity
  8
micon_ic
  6
ByLayer
 62
  256
370
   -1
100
AcDbLine
 10
-102.8499999999955
 20
56.31999999999967
 11
-102.2399999999966
 21
56.31999999999967
  0
LINE
  5
1AF
100
AcDbEntity
  8
micon_ic
  6
ByLayer
 62
  256
370
   -1
100
AcDbLine
 10
-102.8499999999955
 20
53.77999999999967
 11
-102.2399999999966
 21
53.77999999999967
  0
LINE
  5
1B0
100
AcDbEntity
  8
micon_ic
  6
ByLayer
 62
  256
370
   -1
100
AcDbLine
 10
-109.2499999999957
 20
52.79499999999962
 11
-102.8499999999955
 21
52.79499999999962
  0
LINE
  5
1B1
100
AcDbEntity
  8
micon_ic
  6
ByLayer
 62
  256
370
   -1
100
AcDbLine
 10
-102.8499999999955
 20
52.79499999999962
 11
-102.8499999999955
 21
72.54499999999972
  0
LINE
  5
1B2
100
AcDbEntity
  8
micon_ic
  6
ByLayer
 62
  256
370
   -1
100
AcDbLine
 10
-102.8499999999955
 20
72.54499999999972
 11
-109.2499999999957
 21
72.54499999999972
  0
LINE
  5
1B3
100
AcDbEntity
  8
micon_ic
  6
ByLayer
 62
  256
370
   -1
100
AcDbLine
 10
-109.2499999999957
 20
72.54499999999972
 11
-109.2499999999957
 21
52.79499999999962
  0
ARC
  5
1B4
100
AcDbEntity
  8
micon_ic
  6
ByLayer
 62
  256
370
   -1
100
AcDbCircle
 10
-106.0499999999956
 20
72.54499999999972
 40
1
100
AcDbArc
 50
180
 51
0
  0
MTEXT
  5
1B5
100
AcDbEntity
  8
micon_ic
  6
ByLayer
 62
  256
370
   -1
100
AcDbMText
 10
-109.0148191742992
 20
62.45309287206193
 30
0
 40
1
 41
2.33333333333352
 71
    4
 72
    1
  1
QB\PQC\PQD\PQE\PQF\PQG\PQH\PGND
  7
iso
210
0
220
0
230
1
 50
0
 73
    2
 44
1.54
  0
LINE
  5
1B6
100
AcDbEntity
  8
micon_ic
  6
ByLayer
 62
  256
370
   -1
100
AcDbLine
 10
-109.2499999999957
 20
71.5599999999997
 11
-109.8599999999962
 21
71.5599999999997
  0
MTEXT
  5
1B7
100
AcDbEntity
  8
micon_ic
  6
ByLayer
 62
  256
370
   -1
100
AcDbMText
 10
-106.2072126148249
 20
62.52204018936455
 30
0
 40
1
 41
3.888888888889013
 71
    4
 72
    1
  1
VCC\PQA\PG\PRCk\PCKKEN\PCCK\PCCCR\PRCO
  7
iso
210
0
220
0
230
1
 50
0
 73
    2
 44
1.54
  0
LINE
  5
1B8
100
AcDbEntity
  8
micon_ic
  6
ByLayer
 62
  256
370
   -1
100
AcDbLine
 10
-102.8499999999955
 20
71.5599999999997
 11
-102.2399999999966
 21
71.5599999999997
  0
LINE
  5
1B9
100
AcDbEntity
  8
micon_ic
  6
ByLayer
 62
  256
370
   -1
100
AcDbLine
 10
-109.2499999999957
 20
63.93999999999967
 11
-109.8599999999962
 21
63.93999999999967
  0
LINE
  5
1BA
100
AcDbEntity
  8
micon_ic
  6
ByLayer
 62
  256
370
   -1
100
AcDbLine
 10
-102.8499999999955
 20
63.9399999999997
 11
-102.2399999999966
 21
63.9399999999997
  0
LINE
  5
1BB
100
AcDbEntity
  8
micon_ic
  6
ByLayer
 62
  256
370
   -1
100
AcDbLine
 10
-109.2499999999957
 20
58.85999999999963
 11
-109.8599999999962
 21
58.85999999999963
  0
LINE
  5
1BC
100
AcDbEntity
  8
micon_ic
  6
ByLayer
 62
  256
370
   -1
100
AcDbLine
 10
-102.8499999999955
 20
58.85999999999966
 11
-102.2399999999966
 21
58.85999999999966
  0
LINE
  5
1BD
100
AcDbEntity
  8
micon_ic
  6
ByLayer
 62
  256
370
   -1
100
AcDbLine
 10
-109.2499999999957
 20
58.85999999999963
 11
-109.8599999999962
 21
58.85999999999963
  0
LINE
  5
1BE
100
AcDbEntity
  8
micon_ic
  6
ByLayer
 62
  256
370
   -1
100
AcDbLine
 10
-102.8499999999955
 20
58.85999999999966
 11
-102.2399999999966
 21
58.85999999999966
  0
LINE
  5
1BF
100
AcDbEntity
  8
micon_ic
  6
ByLayer
 62
  256
370
   -1
100
AcDbLine
 10
-94.00999999999648
 20
54.06499999999966
 11
-87.60999999999623
 21
54.06499999999966
  0
LINE
  5
1C0
100
AcDbEntity
  8
micon_ic
  6
ByLayer
 62
  256
370
   -1
100
AcDbLine
 10
-87.60999999999623
 20
54.06499999999966
 11
-87.60999999999623
 21
73.81499999999976
  0
LINE
  5
1C1
100
AcDbEntity
  8
micon_ic
  6
ByLayer
 62
  256
370
   -1
100
AcDbLine
 10
-87.60999999999623
 20
73.81499999999976
 11
-94.00999999999648
 21
73.81499999999976
  0
LINE
  5
1C2
100
AcDbEntity
  8
micon_ic
  6
ByLayer
 62
  256
370
   -1
100
AcDbLine
 10
-94.00999999999648
 20
73.81499999999976
 11
-94.00999999999648
 21
54.06499999999966
  0
ARC
  5
1C3
100
AcDbEntity
  8
micon_ic
  6
ByLayer
 62
  256
370
   -1
100
AcDbCircle
 10
-90.80999999999635
 20
73.81499999999976
 40
1
100
AcDbArc
 50
180
 51
0
  0
MTEXT
  5
1C4
100
AcDbEntity
  8
micon_ic
  6
ByLayer
 62
  256
370
   -1
100
AcDbMText
 10
-93.77481917429998
 20
63.72309287206196
 30
0
 40
1
 41
2.33333333333352
 71
    4
 72
    1
  1
1A\P1Y\P2A\P2Y\P3A\P3Y\PGND
  7
iso
210
0
220
0
230
1
 50
0
 73
    2
 44
1.54
  0
MTEXT
  5
1C5
100
AcDbEntity
  8
micon_ic
  6
ByLayer
 62
  256
370
   -1
100
AcDbMText
 10
-90.17729877421074
 20
63.89983110141672
 30
0
 40
1
 41
2.222222222222284
 71
    4
 72
    1
  1
VCC\P6A\P6Y\P5A\P5Y\P4A\P4Y
  7
iso
210
0
220
0
230
1
 50
0
 73
    2
 44
1.54
  0
LINE
  5
1C6
100
AcDbEntity
  8
micon_ic
  6
ByLayer
 62
  256
370
   -1
100
AcDbLine
 10
-94.00999999999648
 20
71.55999999999976
 11
-94.61999999999698
 21
71.55999999999973
  0
LINE
  5
1C7
100
AcDbEntity
  8
micon_ic
  6
ByLayer
 62
  256
370
   -1
100
AcDbLine
 10
-94.00999999999648
 20
69.01999999999974
 11
-94.61999999999698
 21
69.01999999999973
  0
LINE
  5
1C8
100
AcDbEntity
  8
micon_ic
  6
ByLayer
 62
  256
370
   -1
100
AcDbLine
 10
-94.00999999999648
 20
66.47999999999973
 11
-94.61999999999696
 21
66.47999999999973
  0
LINE
  5
1C9
100
AcDbEntity
  8
micon_ic
  6
ByLayer
 62
  256
370
   -1
100
AcDbLine
 10
-94.00999999999648
 20
63.93999999999973
 11
-94.61999999999695
 21
63.93999999999972
  0
LINE
  5
1CA
100
AcDbEntity
  8
micon_ic
  6
ByLayer
 62
  256
370
   -1
100
AcDbLine
 10
-94.00999999999648
 20
61.39999999999972
 11
-94.61999999999695
 21
61.39999999999971
  0
LINE
  5
1CB
100
AcDbEntity
  8
micon_ic
  6
ByLayer
 62
  256
370
   -1
100
AcDbLine
 10
-94.00999999999648
 20
58.85999999999972
 11
-94.61999999999695
 21
58.85999999999971
  0
LINE
  5
1CC
100
AcDbEntity
  8
micon_ic
  6
ByLayer
 62
  256
370
   -1
100
AcDbLine
 10
-94.00999999999648
 20
56.31999999999971
 11
-94.61999999999694
 21
56.3199999999997
  0
LINE
  5
1CD
100
AcDbEntity
  8
micon_ic
  6
ByLayer
 62
  256
370
   -1
100
AcDbLine
 10
-87.60999999999623
 20
71.55999999999976
 11
-86.99999999999737
 21
71.55999999999976
  0
LINE
  5
1CE
100
AcDbEntity
  8
micon_ic
  6
ByLayer
 62
  256
370
   -1
100
AcDbLine
 10
-87.60999999999623
 20
69.01999999999975
 11
-86.99999999999737
 21
69.01999999999975
  0
LINE
  5
1CF
100
AcDbEntity
  8
micon_ic
  6
ByLayer
 62
  256
370
   -1
100
AcDbLine
 10
-87.60999999999623
 20
66.47999999999976
 11
-86.99999999999737
 21
66.47999999999976
  0
LINE
  5
1D0
100
AcDbEntity
  8
micon_ic
  6
ByLayer
 62
  256
370
   -1
100
AcDbLine
 10
-87.60999999999623
 20
63.93999999999975
 11
-86.99999999999737
 21
63.93999999999975
  0
LINE
  5
1D1
100
AcDbEntity
  8
micon_ic
  6
ByLayer
 62
  256
370
   -1
100
AcDbLine
 10
-87.60999999999623
 20
61.39999999999974
 11
-86.99999999999737
 21
61.39999999999974
  0
LINE
  5
1D2
100
AcDbEntity
  8
micon_ic
  6
ByLayer
 62
  256
370
   -1
100
AcDbLine
 10
-87.60999999999623
 20
58.85999999999974
 11
-86.99999999999737
 21
58.85999999999974
  0
LINE
  5
1D3
100
AcDbEntity
  8
micon_ic
  6
ByLayer
 62
  256
370
   -1
100
AcDbLine
 10
-87.60999999999623
 20
56.31999999999973
 11
-86.99999999999737
 21
56.31999999999973
  0
LINE
  5
1D4
100
AcDbEntity
  8
5V line
  6
ByLayer
 62
  256
370
   -1
100
AcDbLine
 10
-114.939999999996
 20
74.09999999999972
 11
-102.2399999999967
 21
74.09999999999975
  0
LINE
  5
1D5
100
AcDbEntity
  8
5V line
  6
ByLayer
 62
  256
370
   -1
100
AcDbLine
 10
-114.939999999996
 20
61.39999999999964
 11
-114.939999999996
 21
74.09999999999972
  0
LINE
  5
1D6
100
AcDbEntity
  8
5V line
  6
ByLayer
 62
  256
370
   -1
100
AcDbLine
 10
-102.2399999999967
 20
74.09999999999975
 11
-102.2399999999966
 21
71.55999999999973
  0
LINE
  5
1D7
100
AcDbEntity
  8
5V line
  6
ByLayer
 62
  256
370
   -1
100
AcDbLine
 10
-102.2399999999967
 20
74.09999999999975
 11
-86.99999999999733
 21
74.09999999999978
  0
LINE
  5
1D8
100
AcDbEntity
  8
5V line
  6
ByLayer
 62
  256
370
   -1
100
AcDbLine
 10
-86.99999999999733
 20
74.09999999999978
 11
-86.99999999999731
 21
71.55999999999976
  0
LINE
  5
1D9
100
AcDbEntity
  8
5V line
  6
ByLayer
 62
  256
370
   -1
100
AcDbLine
 10
-99.69999999999675
 20
66.47999999999969
 11
-99.69999999999678
 21
74.09999999999972
  0
LINE
  5
1DA
100
AcDbEntity
  8
5V line
  6
ByLayer
 62
  256
370
   -1
100
AcDbLine
 10
-99.69999999999672
 20
56.31999999999963
 11
-102.2399999999966
 21
56.31999999999962
  0
LINE
  5
1DB
100
AcDbEntity
  8
0_wire
  6
ByLayer
 62
  256
370
   -1
100
AcDbLine
 10
-109.8599999999962
 20
56.3199999999996
 11
-112.3999999999961
 21
56.3199999999996
  0
LINE
  5
1DC
100
AcDbEntity
  8
0_GND
  6
ByLayer
 62
  256
370
   -1
100
AcDbLine
 10
-107.3199999999964
 20
66.47999999999969
 11
-102.2399999999966
 21
66.47999999999971
  0
LINE
  5
1DD
100
AcDbEntity
  8
0_GND
  6
ByLayer
 62
  256
370
   -1
100
AcDbLine
 10
-102.2399999999966
 20
61.39999999999966
 11
-107.3199999999964
 21
61.39999999999965
  0
LINE
  5
1DE
100
AcDbEntity
  8
0_GND
  6
ByLayer
 62
  256
370
   -1
100
AcDbLine
 10
-107.3199999999964
 20
51.23999999999958
 11
-107.3199999999964
 21
66.47999999999971
  0
LINE
  5
1DF
100
AcDbEntity
  8
resister
  6
ByLayer
 62
  256
370
   -1
100
AcDbLine
 10
-96.05999999999598
 20
64.95000000000135
 11
-96.05999999999598
 21
70.55000000000146
  0
LINE
  5
1E0
100
AcDbEntity
  8
resister
  6
ByLayer
 62
  256
370
   -1
100
AcDbLine
 10
-96.05999999999598
 20
70.55000000000146
 11
-98.25999999999567
 21
70.55000000000146
  0
LINE
  5
1E1
100
AcDbEntity
  8
resister
  6
ByLayer
 62
  256
370
   -1
100
AcDbLine
 10
-98.25999999999567
 20
70.55000000000146
 11
-98.25999999999567
 21
64.95000000000135
  0
LINE
  5
1E2
100
AcDbEntity
  8
resister
  6
ByLayer
 62
  256
370
   -1
100
AcDbLine
 10
-98.25999999999567
 20
64.95000000000135
 11
-96.05999999999598
 21
64.95000000000135
  0
LINE
  5
1E3
100
AcDbEntity
  8
resister
  6
ByLayer
 62
  256
370
   -1
100
AcDbLine
 10
-97.15999999999687
 20
70.55000000000146
 11
-97.15999999999687
 21
71.56000000000026
  0
LINE
  5
1E4
100
AcDbEntity
  8
resister
  6
ByLayer
 62
  256
370
   -1
100
AcDbLine
 10
-97.15999999999687
 20
64.95000000000135
 11
-97.15999999999687
 21
63.93999999999967
  0
LINE
  5
1E5
100
AcDbEntity
  8
0_wire
  6
ByLayer
 62
  256
370
   -1
100
AcDbLine
 10
-94.61999999999699
 20
71.55999999999973
 11
-97.15999999999687
 21
71.5599999999997
  0
LINE
  5
1E6
100
AcDbEntity
  8
0_wire
  6
ByLayer
 62
  256
370
   -1
100
AcDbLine
 10
-89.53999999999722
 20
71.55999999999979
 11
-89.53999999999716
 21
43.61999999999955
  0
LINE
  5
1E7
100
AcDbEntity
  8
0_wire
  6
ByLayer
 62
  256
370
   -1
100
AcDbLine
 10
-89.53999999999721
 20
71.55999999999976
 11
-94.61999999999699
 21
71.55999999999973
  0
LINE
  5
1E8
100
AcDbEntity
  8
0_wire
  6
ByLayer
 62
  256
370
   -1
100
AcDbLine
 10
-94.61999999999699
 20
69.01999999999974
 11
-97.15999999999687
 21
69.01999999999971
  0
LINE
  5
1E9
100
AcDbEntity
  8
0_wire
  6
ByLayer
 62
  256
370
   -1
100
AcDbLine
 10
-97.15999999999687
 20
69.01999999999971
 11
-97.15999999999687
 21
63.93999999999969
  0
LINE
  5
1EA
100
AcDbEntity
  8
0_wire
  6
ByLayer
 62
  256
370
   -1
100
AcDbLine
 10
-92.07999999999706
 20
46.15999999999956
 11
-92.0799999999971
 21
69.01999999999977
  0
LINE
  5
1EB
100
AcDbEntity
  8
0_wire
  6
ByLayer
 62
  256
370
   -1
100
AcDbLine
 10
-92.07999999999709
 20
69.01999999999974
 11
-94.61999999999699
 21
69.01999999999974
  0
LINE
  5
1EC
100
AcDbEntity
  8
0_wire
  6
ByLayer
 62
  256
370
   -1
100
AcDbLine
 10
-97.15999999999687
 20
63.93999999999969
 11
-102.2399999999966
 21
63.93999999999969
  0
LINE
  5
1ED
100
AcDbEntity
  8
0_wire
  6
ByLayer
 62
  256
370
   -1
100
AcDbLine
 10
-97.15999999999687
 20
63.93999999999969
 11
-97.15999999999687
 21
58.85999999999963
  0
LINE
  5
1EE
100
AcDbEntity
  8
0_wire
  6
ByLayer
 62
  256
370
   -1
100
AcDbLine
 10
-97.15999999999687
 20
58.85999999999963
 11
-102.2399999999966
 21
58.85999999999964
  0
LINE
  5
1EF
100
AcDbEntity
  8
0_GND
  6
ByLayer
 62
  256
370
   -1
100
AcDbLine
 10
-107.3199999999964
 20
53.7799999999996
 11
-109.8599999999962
 21
53.77999999999958
  0
LINE
  5
1F0
100
AcDbEntity
  8
0_GND
  6
ByLayer
 62
  256
370
   -1
100
AcDbLine
 10
-94.61999999999696
 20
56.31999999999962
 11
-94.61999999999694
 21
51.23999999999959
  0
LINE
  5
1F1
100
AcDbEntity
  8
0_GND
  6
ByLayer
 62
  256
370
   -1
100
AcDbLine
 10
-107.3199999999964
 20
51.23999999999958
 11
-94.61999999999694
 21
51.23999999999959
  0
MTEXT
  5
1F2
100
AcDbEntity
  8
resister
  6
ByLayer
 62
  256
370
   -1
100
AcDbMText
 10
-97.45445656948644
 20
69.75365982748828
 30
0
 40
1
 41
1.111111111111111
 71
    4
 72
    1
  1
R1
  7
iso
210
0
220
0
230
1
 50
0
 73
    2
 44
1.54
  0
MTEXT
  5
1F3
100
AcDbEntity
  8
resister
  6
ByLayer
 62
  256
370
   -1
100
AcDbMText
 10
-99.94098478097288
 20
46.19707677130087
 30
0
 40
1
 41
1.333333333333333
 71
    4
 72
    1
  1
R2
  7
iso
210
0
220
0
230
1
 50
0
 73
    2
 44
1.54
  0
MTEXT
  5
1F4
100
AcDbEntity
  8
micon_ic
  6
ByLayer
 62
  256
370
   -1
100
AcDbMText
 10
-89.20332194148956
 20
72.97407240116695
 30
0
 40
1
 41
1.111111111111111
 71
    4
 72
    1
  1
U1
  7
iso
210
0
220
0
230
1
 50
0
 73
    2
 44
1.54
  0
MTEXT
  5
1F5
100
AcDbEntity
  8
terminal
  6
ByLayer
 62
  256
370
   -1
100
AcDbMText
 10
-100.9231739473289
 20
36.99256005860443
 30
0
 40
1
 41
3.555555555555555
 71
    4
 72
    1
  1
GND\PC2\PY1-1Y\PY1-1A\PC1\PGND
  7
iso
210
0
220
0
230
1
 50
90
 73
    2
 44
1.54
  0
LINE
  5
1F6
100
AcDbEntity
  8
socket_header
  6
ByLayer
 62
  256
370
   -1
100
AcDbLine
 10
-118.7499999999961
 20
75.36999999999955
 11
-116.2099999999982
 21
75.36999999999955
  0
LINE
  5
1F7
100
AcDbEntity
  8
socket_header
  6
ByLayer
 62
  256
370
   -1
100
AcDbLine
 10
-116.2099999999982
 20
75.36999999999955
 11
-116.2099999999982
 21
72.8300000000005
  0
LINE
  5
1F8
100
AcDbEntity
  8
socket_header
  6
ByLayer
 62
  256
370
   -1
100
AcDbLine
 10
-116.2099999999982
 20
72.8300000000005
 11
-118.7499999999961
 21
72.8300000000005
  0
LINE
  5
1F9
100
AcDbEntity
  8
socket_header
  6
ByLayer
 62
  256
370
   -1
100
AcDbLine
 10
-118.7499999999961
 20
72.8300000000005
 11
-118.7499999999961
 21
75.36999999999955
  0
LINE
  5
1FA
100
AcDbEntity
  8
socket_header
  6
ByLayer
 62
  256
370
   -1
100
AcDbLine
 10
-118.7499999999961
 20
72.82999999999953
 11
-116.2099999999982
 21
72.82999999999953
  0
LINE
  5
1FB
100
AcDbEntity
  8
socket_header
  6
ByLayer
 62
  256
370
   -1
100
AcDbLine
 10
-116.2099999999982
 20
72.82999999999953
 11
-116.2099999999982
 21
70.29000000000048
  0
LINE
  5
1FC
100
AcDbEntity
  8
socket_header
  6
ByLayer
 62
  256
370
   -1
100
AcDbLine
 10
-116.2099999999982
 20
70.29000000000048
 11
-118.7499999999961
 21
70.29000000000048
  0
LINE
  5
1FD
100
AcDbEntity
  8
socket_header
  6
ByLayer
 62
  256
370
   -1
100
AcDbLine
 10
-118.7499999999961
 20
70.29000000000048
 11
-118.7499999999961
 21
72.82999999999953
  0
LINE
  5
1FE
100
AcDbEntity
  8
socket_header
  6
ByLayer
 62
  256
370
   -1
100
AcDbLine
 10
-118.749999999996
 20
62.66999999999948
 11
-116.2099999999982
 21
62.66999999999948
  0
LINE
  5
1FF
100
AcDbEntity
  8
socket_header
  6
ByLayer
 62
  256
370
   -1
100
AcDbLine
 10
-116.2099999999982
 20
62.66999999999948
 11
-116.2099999999982
 21
60.13000000000043
  0
LINE
  5
200
100
AcDbEntity
  8
socket_header
  6
ByLayer
 62
  256
370
   -1
100
AcDbLine
 10
-116.2099999999982
 20
60.13000000000043
 11
-118.749999999996
 21
60.13000000000043
  0
LINE
  5
201
100
AcDbEntity
  8
socket_header
  6
ByLayer
 62
  256
370
   -1
100
AcDbLine
 10
-118.749999999996
 20
60.12999999999946
 11
-116.2099999999982
 21
60.12999999999946
  0
LINE
  5
202
100
AcDbEntity
  8
socket_header
  6
ByLayer
 62
  256
370
   -1
100
AcDbLine
 10
-116.2099999999982
 20
60.12999999999946
 11
-116.2099999999982
 21
57.5900000000004
  0
LINE
  5
203
100
AcDbEntity
  8
socket_header
  6
ByLayer
 62
  256
370
   -1
100
AcDbLine
 10
-116.2099999999982
 20
57.5900000000004
 11
-118.749999999996
 21
57.5900000000004
  0
LINE
  5
204
100
AcDbEntity
  8
socket_header
  6
ByLayer
 62
  256
370
   -1
100
AcDbLine
 10
-118.749999999996
 20
57.58999999999943
 11
-116.2099999999982
 21
57.58999999999943
  0
LINE
  5
205
100
AcDbEntity
  8
socket_header
  6
ByLayer
 62
  256
370
   -1
100
AcDbLine
 10
-116.2099999999982
 20
57.58999999999943
 11
-116.2099999999982
 21
55.05000000000037
  0
LINE
  5
206
100
AcDbEntity
  8
socket_header
  6
ByLayer
 62
  256
370
   -1
100
AcDbLine
 10
-116.2099999999982
 20
55.05000000000037
 11
-118.749999999996
 21
55.05000000000037
  0
LINE
  5
207
100
AcDbEntity
  8
socket_header
  6
ByLayer
 62
  256
370
   -1
100
AcDbLine
 10
-118.749999999996
 20
60.13000000000043
 11
-118.749999999996
 21
62.66999999999948
  0
LINE
  5
208
100
AcDbEntity
  8
socket_header
  6
ByLayer
 62
  256
370
   -1
100
AcDbLine
 10
-118.749999999996
 20
57.5900000000004
 11
-118.749999999996
 21
60.12999999999946
  0
LINE
  5
209
100
AcDbEntity
  8
socket_header
  6
ByLayer
 62
  256
370
   -1
100
AcDbLine
 10
-118.749999999996
 20
55.05000000000037
 11
-118.749999999996
 21
57.58999999999943
  0
LINE
  5
20A
100
AcDbEntity
  8
socket_header
  6
ByLayer
 62
  256
370
   -1
100
AcDbLine
 10
-116.2099999999982
 20
44.89000000000029
 11
-118.749999999996
 21
44.89000000000029
  0
LINE
  5
20B
100
AcDbEntity
  8
socket_header
  6
ByLayer
 62
  256
370
   -1
100
AcDbLine
 10
-116.2099999999982
 20
44.88999999999932
 11
-116.2099999999982
 21
42.35000000000026
  0
LINE
  5
20C
100
AcDbEntity
  8
socket_header
  6
ByLayer
 62
  256
370
   -1
100
AcDbLine
 10
-116.2099999999982
 20
42.35000000000026
 11
-118.749999999996
 21
42.35000000000026
  0
LINE
  5
20D
100
AcDbEntity
  8
socket_header
  6
ByLayer
 62
  256
370
   -1
100
AcDbLine
 10
-118.749999999996
 20
42.35000000000026
 11
-118.749999999996
 21
44.88999999999932
  0
LINE
  5
20E
100
AcDbEntity
  8
socket_header
  6
ByLayer
 62
  256
370
   -1
100
AcDbLine
 10
-116.2099999999982
 20
42.35000000000026
 11
-118.749999999996
 21
42.35000000000026
  0
LINE
  5
20F
100
AcDbEntity
  8
socket_header
  6
ByLayer
 62
  256
370
   -1
100
AcDbLine
 10
-116.2099999999982
 20
42.34999999999929
 11
-116.2099999999982
 21
39.81000000000024
  0
LINE
  5
210
100
AcDbEntity
  8
socket_header
  6
ByLayer
 62
  256
370
   -1
100
AcDbLine
 10
-116.2099999999982
 20
39.81000000000024
 11
-118.749999999996
 21
39.81000000000024
  0
LINE
  5
211
100
AcDbEntity
  8
socket_header
  6
ByLayer
 62
  256
370
   -1
100
AcDbLine
 10
-118.749999999996
 20
39.81000000000024
 11
-118.749999999996
 21
42.34999999999929
  0
LINE
  5
212
100
AcDbEntity
  8
socket_header
  6
ByLayer
 62
  256
370
   -1
100
AcDbLine
 10
-83.18999999999762
 20
75.36999999999969
 11
-80.64999999999981
 21
75.36999999999969
  0
LINE
  5
213
100
AcDbEntity
  8
socket_header
  6
ByLayer
 62
  256
370
   -1
100
AcDbLine
 10
-80.64999999999981
 20
75.36999999999969
 11
-80.64999999999981
 21
72.83000000000064
  0
LINE
  5
214
100
AcDbEntity
  8
socket_header
  6
ByLayer
 62
  256
370
   -1
100
AcDbLine
 10
-80.64999999999981
 20
72.83000000000064
 11
-83.18999999999762
 21
72.83000000000064
  0
LINE
  5
215
100
AcDbEntity
  8
socket_header
  6
ByLayer
 62
  256
370
   -1
100
AcDbLine
 10
-83.18999999999762
 20
72.83000000000064
 11
-83.18999999999762
 21
75.36999999999969
  0
LINE
  5
216
100
AcDbEntity
  8
socket_header
  6
ByLayer
 62
  256
370
   -1
100
AcDbLine
 10
-83.18999999999762
 20
72.82999999999967
 11
-80.64999999999981
 21
72.82999999999967
  0
LINE
  5
217
100
AcDbEntity
  8
socket_header
  6
ByLayer
 62
  256
370
   -1
100
AcDbLine
 10
-80.64999999999981
 20
72.82999999999967
 11
-80.64999999999981
 21
70.29000000000062
  0
LINE
  5
218
100
AcDbEntity
  8
socket_header
  6
ByLayer
 62
  256
370
   -1
100
AcDbLine
 10
-80.64999999999981
 20
70.29000000000062
 11
-83.18999999999762
 21
70.29000000000062
  0
LINE
  5
219
100
AcDbEntity
  8
socket_header
  6
ByLayer
 62
  256
370
   -1
100
AcDbLine
 10
-83.18999999999762
 20
70.29000000000062
 11
-83.18999999999762
 21
72.82999999999967
  0
LINE
  5
21A
100
AcDbEntity
  8
socket_header
  6
ByLayer
 62
  256
370
   -1
100
AcDbLine
 10
-80.64999999999978
 20
62.67000000000056
 11
-83.1899999999976
 21
62.67000000000056
  0
LINE
  5
21B
100
AcDbEntity
  8
socket_header
  6
ByLayer
 62
  256
370
   -1
100
AcDbLine
 10
-80.64999999999978
 20
62.6699999999996
 11
-80.64999999999978
 21
60.13000000000054
  0
LINE
  5
21C
100
AcDbEntity
  8
socket_header
  6
ByLayer
 62
  256
370
   -1
100
AcDbLine
 10
-80.64999999999978
 20
60.13000000000054
 11
-83.1899999999976
 21
60.13000000000054
  0
LINE
  5
21D
100
AcDbEntity
  8
socket_header
  6
ByLayer
 62
  256
370
   -1
100
AcDbLine
 10
-83.1899999999976
 20
60.13000000000054
 11
-83.1899999999976
 21
62.6699999999996
  0
LINE
  5
21E
100
AcDbEntity
  8
socket_header
  6
ByLayer
 62
  256
370
   -1
100
AcDbLine
 10
-80.64999999999978
 20
60.13000000000055
 11
-83.1899999999976
 21
60.13000000000055
  0
LINE
  5
21F
100
AcDbEntity
  8
socket_header
  6
ByLayer
 62
  256
370
   -1
100
AcDbLine
 10
-80.64999999999978
 20
60.12999999999958
 11
-80.64999999999978
 21
57.59000000000053
  0
LINE
  5
220
100
AcDbEntity
  8
socket_header
  6
ByLayer
 62
  256
370
   -1
100
AcDbLine
 10
-80.64999999999978
 20
57.59000000000053
 11
-83.1899999999976
 21
57.59000000000053
  0
LINE
  5
221
100
AcDbEntity
  8
socket_header
  6
ByLayer
 62
  256
370
   -1
100
AcDbLine
 10
-83.1899999999976
 20
57.59000000000053
 11
-83.1899999999976
 21
60.12999999999958
  0
LINE
  5
222
100
AcDbEntity
  8
socket_header
  6
ByLayer
 62
  256
370
   -1
100
AcDbLine
 10
-80.64999999999976
 20
49.97000000000048
 11
-83.18999999999758
 21
49.97000000000048
  0
LINE
  5
223
100
AcDbEntity
  8
socket_header
  6
ByLayer
 62
  256
370
   -1
100
AcDbLine
 10
-80.64999999999976
 20
49.96999999999952
 11
-80.64999999999976
 21
47.43000000000046
  0
LINE
  5
224
100
AcDbEntity
  8
socket_header
  6
ByLayer
 62
  256
370
   -1
100
AcDbLine
 10
-80.64999999999976
 20
47.43000000000046
 11
-83.18999999999758
 21
47.43000000000046
  0
LINE
  5
225
100
AcDbEntity
  8
socket_header
  6
ByLayer
 62
  256
370
   -1
100
AcDbLine
 10
-83.18999999999758
 20
47.43000000000046
 11
-83.18999999999758
 21
49.96999999999952
  0
LINE
  5
226
100
AcDbEntity
  8
socket_header
  6
ByLayer
 62
  256
370
   -1
100
AcDbLine
 10
-80.64999999999976
 20
47.43000000000046
 11
-83.18999999999758
 21
47.43000000000046
  0
LINE
  5
227
100
AcDbEntity
  8
socket_header
  6
ByLayer
 62
  256
370
   -1
100
AcDbLine
 10
-80.64999999999976
 20
47.4299999999995
 11
-80.64999999999976
 21
44.89000000000044
  0
LINE
  5
228
100
AcDbEntity
  8
socket_header
  6
ByLayer
 62
  256
370
   -1
100
AcDbLine
 10
-80.64999999999976
 20
44.89000000000044
 11
-83.18999999999758
 21
44.89000000000044
  0
LINE
  5
229
100
AcDbEntity
  8
socket_header
  6
ByLayer
 62
  256
370
   -1
100
AcDbLine
 10
-83.18999999999758
 20
44.89000000000044
 11
-83.18999999999758
 21
47.4299999999995
  0
LINE
  5
22A
100
AcDbEntity
  8
socket_header
  6
ByLayer
 62
  256
370
   -1
100
AcDbLine
 10
-80.64999999999976
 20
44.89000000000044
 11
-83.18999999999758
 21
44.89000000000044
  0
LINE
  5
22B
100
AcDbEntity
  8
socket_header
  6
ByLayer
 62
  256
370
   -1
100
AcDbLine
 10
-80.64999999999976
 20
44.88999999999947
 11
-80.64999999999976
 21
42.35000000000042
  0
LINE
  5
22C
100
AcDbEntity
  8
socket_header
  6
ByLayer
 62
  256
370
   -1
100
AcDbLine
 10
-80.64999999999976
 20
42.35000000000042
 11
-83.18999999999758
 21
42.35000000000042
  0
LINE
  5
22D
100
AcDbEntity
  8
socket_header
  6
ByLayer
 62
  256
370
   -1
100
AcDbLine
 10
-83.18999999999758
 20
42.35000000000042
 11
-83.18999999999758
 21
44.88999999999947
  0
LINE
  5
22E
100
AcDbEntity
  8
socket_header
  6
ByLayer
 62
  256
370
   -1
100
AcDbLine
 10
-80.64999999999976
 20
42.35000000000042
 11
-83.18999999999758
 21
42.35000000000042
  0
LINE
  5
22F
100
AcDbEntity
  8
socket_header
  6
ByLayer
 62
  256
370
   -1
100
AcDbLine
 10
-80.64999999999976
 20
42.34999999999945
 11
-80.64999999999976
 21
39.8100000000004
  0
LINE
  5
230
100
AcDbEntity
  8
socket_header
  6
ByLayer
 62
  256
370
   -1
100
AcDbLine
 10
-80.64999999999976
 20
39.8100000000004
 11
-83.18999999999758
 21
39.8100000000004
  0
LINE
  5
231
100
AcDbEntity
  8
socket_header
  6
ByLayer
 62
  256
370
   -1
100
AcDbLine
 10
-83.18999999999758
 20
39.8100000000004
 11
-83.18999999999758
 21
42.34999999999945
  0
LINE
  5
232
100
AcDbEntity
  8
0_GND
  6
ByLayer
 62
  256
370
   -1
100
AcDbLine
 10
-81.9199999999975
 20
61.39999999999971
 11
-84.45999999999739
 21
61.39999999999971
  0
LINE
  5
233
100
AcDbEntity
  8
0_GND
  6
ByLayer
 62
  256
370
   -1
100
AcDbLine
 10
-84.45999999999739
 20
61.39999999999971
 11
-84.45999999999739
 21
58.85999999999969
  0
MTEXT
  5
234
100
AcDbEntity
  8
micon_ic
  6
ByLayer
 62
  256
370
   -1
100
AcDbMText
 10
-109.1106107332051
 20
73.70051847520709
 30
0
 40
1
 41
1.333333333333333
 71
    4
 72
    1
  1
U2
  7
iso
210
0
220
0
230
1
 50
0
 73
    2
 44
1.54
  0
MTEXT
  5
235
100
AcDbEntity
  8
socket_header
  6
ByLayer
 62
  256
370
   -1
100
AcDbMText
 10
-118.1472158748527
 20
76.58420962198092
 30
0
 40
1
 41
1.111111111111111
 71
    4
 72
    1
  1
H1
  7
iso
210
0
220
0
230
1
 50
0
 73
    2
 44
1.54
  0
MTEXT
  5
236
100
AcDbEntity
  8
socket_header
  6
ByLayer
 62
  256
370
   -1
100
AcDbMText
 10
-82.1109051617115
 20
76.80978903176583
 30
0
 40
1
 41
1.333333333333333
 71
    4
 72
    1
  1
H2
  7
iso
210
0
220
0
230
1
 50
0
 73
    2
 44
1.54
  0
MTEXT
  5
237
100
AcDbEntity
  8
socket_header
  6
ByLayer
 62
  256
370
   -1
100
AcDbMText
 10
-117.8652416126216
 20
46.30017385835518
 30
0
 40
1
 41
1.333333333333395
 71
    4
 72
    1
  1
H3
  7
iso
210
0
220
0
230
1
 50
0
 73
    2
 44
1.54
  0
MTEXT
  5
238
100
AcDbEntity
  8
socket_header
  6
ByLayer
 62
  256
370
   -1
100
AcDbMText
 10
-82.39287942394265
 20
63.61339355934792
 30
0
 40
1
 41
1.444444444444444
 71
    4
 72
    1
  1
H4
  7
iso
210
0
220
0
230
1
 50
0
 73
    2
 44
1.54
  0
MTEXT
  5
239
100
AcDbEntity
  8
socket_header
  6
ByLayer
 62
  256
370
   -1
100
AcDbMText
 10
-117.4140827930517
 20
63.89536782157907
 30
0
 40
1
 41
1.333333333333395
 71
    4
 72
    1
  1
H5
  7
iso
210
0
220
0
230
1
 50
0
 73
    2
 44
1.54
  0
MTEXT
  5
23A
100
AcDbEntity
  8
socket_header
  6
ByLayer
 62
  256
370
   -1
100
AcDbMText
 10
-82.57897566164695
 20
38.84432644435583
 30
0
 40
1
 41
1.333333333333395
 71
    4
 72
    1
  1
H6
  7
iso
210
0
220
0
230
1
 50
0
 73
    2
 44
1.54
  0
LINE
  5
23B
100
AcDbEntity
  8
socket_header
  6
ByLayer
 62
  256
370
   -1
100
AcDbLine
 10
-80.64999999999976
 20
52.5100000000005
 11
-83.18999999999758
 21
52.5100000000005
  0
LINE
  5
23C
100
AcDbEntity
  8
socket_header
  6
ByLayer
 62
  256
370
   -1
100
AcDbLine
 10
-80.64999999999976
 20
52.50999999999954
 11
-80.64999999999976
 21
49.97000000000047
  0
LINE
  5
23D
100
AcDbEntity
  8
socket_header
  6
ByLayer
 62
  256
370
   -1
100
AcDbLine
 10
-83.18999999999758
 20
49.97000000000047
 11
-83.18999999999758
 21
52.50999999999954
  0
LINE
  5
23E
100
AcDbEntity
  8
socket_header
  6
ByLayer
 62
  256
370
   -1
100
AcDbLine
 10
-80.64999999999976
 20
49.97000000000047
 11
-83.18999999999758
 21
49.97000000000047
  0
MTEXT
  5
23F
100
AcDbEntity
  8
0
  6
ByLayer
 62
  256
370
   -1
100
AcDbMText
 10
-118.479999999996
 20
58.07666666666623
 30
0
 40
1
 41
3.222222222222284
 71
    4
 72
    1
  1
9\P10\P11\P12\P13\PAVCC\PAREF\PGND\PA0\PA1\PA2\PA3\PA4\PA5
  7
iso
210
0
220
0
230
1
 50
0
 73
    2
 44
1.54
  0
CIRCLE
  5
240
100
AcDbEntity
  8
universal_board
  6
ByLayer
 62
  256
370
   -1
100
AcDbCircle
 10
-120.0199999999958
 20
41.07999999999937
 40
0.5
  0
CIRCLE
  5
241
100
AcDbEntity
  8
universal_board
  6
ByLayer
 62
  256
370
   -1
100
AcDbCircle
 10
-120.0199999999958
 20
43.61999999999939
 40
0.5
  0
CIRCLE
  5
242
100
AcDbEntity
  8
universal_board
  6
ByLayer
 62
  256
370
   -1
100
AcDbCircle
 10
-120.0199999999958
 20
46.15999999999941
 40
0.5
  0
CIRCLE
  5
243
100
AcDbEntity
  8
universal_board
  6
ByLayer
 62
  256
370
   -1
100
AcDbCircle
 10
-120.0199999999958
 20
48.69999999999941
 40
0.5
  0
CIRCLE
  5
244
100
AcDbEntity
  8
universal_board
  6
ByLayer
 62
  256
370
   -1
100
AcDbCircle
 10
-120.0199999999958
 20
51.23999999999945
 40
0.5
  0
CIRCLE
  5
245
100
AcDbEntity
  8
universal_board
  6
ByLayer
 62
  256
370
   -1
100
AcDbCircle
 10
-120.0199999999959
 20
53.77999999999948
 40
0.5
  0
CIRCLE
  5
246
100
AcDbEntity
  8
universal_board
  6
ByLayer
 62
  256
370
   -1
100
AcDbCircle
 10
-120.0199999999959
 20
56.3199999999995
 40
0.5
  0
CIRCLE
  5
247
100
AcDbEntity
  8
universal_board
  6
ByLayer
 62
  256
370
   -1
100
AcDbCircle
 10
-120.0199999999959
 20
58.85999999999952
 40
0.5
  0
CIRCLE
  5
248
100
AcDbEntity
  8
universal_board
  6
ByLayer
 62
  256
370
   -1
100
AcDbCircle
 10
-120.0199999999959
 20
61.39999999999954
 40
0.5
  0
CIRCLE
  5
249
100
AcDbEntity
  8
universal_board
  6
ByLayer
 62
  256
370
   -1
100
AcDbCircle
 10
-120.0199999999959
 20
63.93999999999955
 40
0.5
  0
CIRCLE
  5
24A
100
AcDbEntity
  8
universal_board
  6
ByLayer
 62
  256
370
   -1
100
AcDbCircle
 10
-120.0199999999959
 20
66.47999999999958
 40
0.5
  0
CIRCLE
  5
24B
100
AcDbEntity
  8
universal_board
  6
ByLayer
 62
  256
370
   -1
100
AcDbCircle
 10
-120.0199999999959
 20
69.0199999999996
 40
0.5
  0
CIRCLE
  5
24C
100
AcDbEntity
  8
universal_board
  6
ByLayer
 62
  256
370
   -1
100
AcDbCircle
 10
-120.0199999999959
 20
71.55999999999959
 40
0.5
  0
CIRCLE
  5
24D
100
AcDbEntity
  8
universal_board
  6
ByLayer
 62
  256
370
   -1
100
AcDbCircle
 10
-120.0199999999959
 20
74.09999999999961
 40
0.5
  0
CIRCLE
  5
24E
100
AcDbEntity
  8
universal_board
  6
ByLayer
 62
  256
370
   -1
100
AcDbCircle
 10
-122.5599999999957
 20
41.07999999999931
 40
0.5
  0
CIRCLE
  5
24F
100
AcDbEntity
  8
universal_board
  6
ByLayer
 62
  256
370
   -1
100
AcDbCircle
 10
-122.5599999999957
 20
43.61999999999934
 40
0.5
  0
CIRCLE
  5
250
100
AcDbEntity
  8
universal_board
  6
ByLayer
 62
  256
370
   -1
100
AcDbCircle
 10
-122.5599999999957
 20
46.15999999999936
 40
0.5
  0
CIRCLE
  5
251
100
AcDbEntity
  8
universal_board
  6
ByLayer
 62
  256
370
   -1
100
AcDbCircle
 10
-122.5599999999957
 20
48.69999999999936
 40
0.5
  0
CIRCLE
  5
252
100
AcDbEntity
  8
universal_board
  6
ByLayer
 62
  256
370
   -1
100
AcDbCircle
 10
-122.5599999999957
 20
51.2399999999994
 40
0.5
  0
CIRCLE
  5
253
100
AcDbEntity
  8
universal_board
  6
ByLayer
 62
  256
370
   -1
100
AcDbCircle
 10
-122.5599999999958
 20
53.77999999999942
 40
0.5
  0
CIRCLE
  5
254
100
AcDbEntity
  8
universal_board
  6
ByLayer
 62
  256
370
   -1
100
AcDbCircle
 10
-122.5599999999958
 20
56.31999999999945
 40
0.5
  0
CIRCLE
  5
255
100
AcDbEntity
  8
universal_board
  6
ByLayer
 62
  256
370
   -1
100
AcDbCircle
 10
-122.5599999999958
 20
58.85999999999946
 40
0.5
  0
CIRCLE
  5
256
100
AcDbEntity
  8
universal_board
  6
ByLayer
 62
  256
370
   -1
100
AcDbCircle
 10
-122.5599999999958
 20
61.39999999999949
 40
0.5
  0
CIRCLE
  5
257
100
AcDbEntity
  8
universal_board
  6
ByLayer
 62
  256
370
   -1
100
AcDbCircle
 10
-122.5599999999958
 20
63.93999999999949
 40
0.5
  0
CIRCLE
  5
258
100
AcDbEntity
  8
universal_board
  6
ByLayer
 62
  256
370
   -1
100
AcDbCircle
 10
-122.5599999999958
 20
66.47999999999952
 40
0.5
  0
CIRCLE
  5
259
100
AcDbEntity
  8
universal_board
  6
ByLayer
 62
  256
370
   -1
100
AcDbCircle
 10
-122.5599999999958
 20
69.01999999999954
 40
0.5
  0
CIRCLE
  5
25A
100
AcDbEntity
  8
universal_board
  6
ByLayer
 62
  256
370
   -1
100
AcDbCircle
 10
-122.5599999999958
 20
71.55999999999953
 40
0.5
  0
CIRCLE
  5
25B
100
AcDbEntity
  8
universal_board
  6
ByLayer
 62
  256
370
   -1
100
AcDbCircle
 10
-122.5599999999958
 20
74.09999999999955
 40
0.5
  0
LINE
  5
25C
100
AcDbEntity
  8
universal_board
  6
ByLayer
 62
  256
370
   -1
100
AcDbLine
 10
-123.8299999999958
 20
75.36999999999942
 11
-123.8299999999957
 21
39.8099999999992
  0
LINE
  5
25D
100
AcDbEntity
  8
universal_board
  6
ByLayer
 62
  256
370
   -1
100
AcDbLine
 10
-80.64999999999773
 20
39.80999999999942
 11
-123.8299999999957
 21
39.8099999999993
  0
LINE
  5
25E
100
AcDbEntity
  8
universal_board
  6
ByLayer
 62
  256
370
   -1
100
AcDbLine
 10
-80.64999999999773
 20
75.36999999999964
 11
-123.8299999999958
 21
75.36999999999954
  0
LINE
  5
25F
100
AcDbEntity
  8
socket_header
  6
ByLayer
 62
  256
370
   -1
100
AcDbLine
 10
-121.289999999998
 20
44.89000000000018
 11
-123.8299999999958
 21
44.89000000000018
  0
LINE
  5
260
100
AcDbEntity
  8
socket_header
  6
ByLayer
 62
  256
370
   -1
100
AcDbLine
 10
-121.289999999998
 20
44.8899999999992
 11
-121.289999999998
 21
42.35000000000014
  0
LINE
  5
261
100
AcDbEntity
  8
socket_header
  6
ByLayer
 62
  256
370
   -1
100
AcDbLine
 10
-123.8299999999958
 20
42.35000000000014
 11
-123.8299999999958
 21
44.8899999999992
  0
LINE
  5
262
100
AcDbEntity
  8
socket_header
  6
ByLayer
 62
  256
370
   -1
100
AcDbLine
 10
-121.289999999998
 20
42.35000000000014
 11
-123.8299999999958
 21
42.35000000000014
  0
LINE
  5
263
100
AcDbEntity
  8
socket_header
  6
ByLayer
 62
  256
370
   -1
100
AcDbLine
 10
-121.289999999998
 20
42.35000000000015
 11
-123.8299999999958
 21
42.35000000000015
  0
LINE
  5
264
100
AcDbEntity
  8
socket_header
  6
ByLayer
 62
  256
370
   -1
100
AcDbLine
 10
-121.289999999998
 20
42.34999999999918
 11
-121.289999999998
 21
39.81000000000012
  0
LINE
  5
265
100
AcDbEntity
  8
socket_header
  6
ByLayer
 62
  256
370
   -1
100
AcDbLine
 10
-123.8299999999958
 20
39.81000000000012
 11
-123.8299999999958
 21
42.34999999999918
  0
LINE
  5
266
100
AcDbEntity
  8
socket_header
  6
ByLayer
 62
  256
370
   -1
100
AcDbLine
 10
-121.289999999998
 20
39.81000000000012
 11
-123.8299999999958
 21
39.81000000000012
  0
LINE
  5
267
100
AcDbEntity
  8
socket_header
  6
ByLayer
 62
  256
370
   -1
100
AcDbLine
 10
-121.2899999999981
 20
57.59000000000029
 11
-123.8299999999959
 21
57.59000000000029
  0
LINE
  5
268
100
AcDbEntity
  8
socket_header
  6
ByLayer
 62
  256
370
   -1
100
AcDbLine
 10
-121.2899999999981
 20
57.58999999999931
 11
-121.2899999999981
 21
55.05000000000025
  0
LINE
  5
269
100
AcDbEntity
  8
socket_header
  6
ByLayer
 62
  256
370
   -1
100
AcDbLine
 10
-123.8299999999959
 20
55.05000000000025
 11
-123.8299999999959
 21
57.58999999999931
  0
LINE
  5
26A
100
AcDbEntity
  8
socket_header
  6
ByLayer
 62
  256
370
   -1
100
AcDbLine
 10
-121.2899999999981
 20
55.05000000000025
 11
-123.8299999999959
 21
55.05000000000025
  0
LINE
  5
26B
100
AcDbEntity
  8
socket_header
  6
ByLayer
 62
  256
370
   -1
100
AcDbLine
 10
-121.2899999999981
 20
60.1300000000003
 11
-123.8299999999959
 21
60.1300000000003
  0
LINE
  5
26C
100
AcDbEntity
  8
socket_header
  6
ByLayer
 62
  256
370
   -1
100
AcDbLine
 10
-121.2899999999981
 20
60.12999999999933
 11
-121.2899999999981
 21
57.59000000000027
  0
LINE
  5
26D
100
AcDbEntity
  8
socket_header
  6
ByLayer
 62
  256
370
   -1
100
AcDbLine
 10
-123.8299999999959
 20
57.59000000000027
 11
-123.8299999999959
 21
60.12999999999933
  0
LINE
  5
26E
100
AcDbEntity
  8
socket_header
  6
ByLayer
 62
  256
370
   -1
100
AcDbLine
 10
-121.2899999999981
 20
57.59000000000027
 11
-123.8299999999959
 21
57.59000000000027
  0
LINE
  5
26F
100
AcDbEntity
  8
socket_header
  6
ByLayer
 62
  256
370
   -1
100
AcDbLine
 10
-121.2899999999981
 20
62.67000000000031
 11
-123.8299999999959
 21
62.67000000000031
  0
LINE
  5
270
100
AcDbEntity
  8
socket_header
  6
ByLayer
 62
  256
370
   -1
100
AcDbLine
 10
-121.2899999999981
 20
62.66999999999934
 11
-121.2899999999981
 21
60.13000000000028
  0
LINE
  5
271
100
AcDbEntity
  8
socket_header
  6
ByLayer
 62
  256
370
   -1
100
AcDbLine
 10
-123.8299999999959
 20
60.13000000000028
 11
-123.8299999999959
 21
62.66999999999934
  0
LINE
  5
272
100
AcDbEntity
  8
socket_header
  6
ByLayer
 62
  256
370
   -1
100
AcDbLine
 10
-121.2899999999981
 20
60.13000000000028
 11
-123.8299999999959
 21
60.13000000000028
  0
LINE
  5
273
100
AcDbEntity
  8
5V line
  6
ByLayer
 62
  256
370
   -1
100
AcDbLine
 10
-117.479999999996
 20
61.3999999999996
 11
-122.5599999999958
 21
61.39999999999949
  0
LINE
  5
274
100
AcDbEntity
  8
0_GND
  6
ByLayer
 62
  256
370
   -1
100
AcDbLine
 10
-117.479999999996
 20
56.31999999999956
 11
-122.5599999999958
 21
56.31999999999945
  0
LINE
  5
275
100
AcDbEntity
  8
0_wire
  6
ByLayer
 62
  256
370
   -1
100
AcDbLine
 10
-117.4799999999959
 20
43.61999999999945
 11
-122.5599999999957
 21
43.61999999999934
  0
LINE
  5
276
100
AcDbEntity
  8
0_wire
  6
ByLayer
 62
  256
370
   -1
100
AcDbLine
 10
-117.4799999999959
 20
41.07999999999942
 11
-122.5599999999957
 21
41.07999999999931
  0
CIRCLE
  5
277
100
AcDbEntity
  8
0_wire
  6
ByLayer
 62
  256
370
   -1
100
AcDbCircle
 10
-102.24
 20
53.78
 40
0.4
  0
CIRCLE
  5
278
100
AcDbEntity
  8
0_wire
  6
ByLayer
 62
  256
370
   -1
100
AcDbCircle
 10
-102.24
 20
69.02
 40
0.4
  0
CIRCLE
  5
279
100
AcDbEntity
  8
0_wire
  6
ByLayer
 62
  256
370
   -1
100
AcDbCircle
 10
-117.479999999996
 20
74.09999999999967
 40
0.4
  0
CIRCLE
  5
27A
100
AcDbEntity
  8
0_wire
  6
ByLayer
 62
  256
370
   -1
100
AcDbCircle
 10
-117.479999999996
 20
71.55999999999965
 40
0.4
  0
CIRCLE
  5
27B
100
AcDbEntity
  8
0_wire
  6
ByLayer
 62
  256
370
   -1
100
AcDbCircle
 10
-117.479999999996
 20
58.85999999999957
 40
0.4
  0
CIRCLE
  5
27C
100
AcDbEntity
  8
0_wire
  6
ByLayer
 62
  256
370
   -1
100
AcDbCircle
 10
-109.8599999999963
 20
71.55999999999968
 40
0.4
  0
CIRCLE
  5
27D
100
AcDbEntity
  8
0_wire
  6
ByLayer
 62
  256
370
   -1
100
AcDbCircle
 10
-109.8599999999963
 20
69.01999999999968
 40
0.4
  0
CIRCLE
  5
27E
100
AcDbEntity
  8
0_wire
  6
ByLayer
 62
  256
370
   -1
100
AcDbCircle
 10
-109.8599999999963
 20
66.47999999999969
 40
0.4
  0
CIRCLE
  5
27F
100
AcDbEntity
  8
0_wire
  6
ByLayer
 62
  256
370
   -1
100
AcDbCircle
 10
-109.8599999999963
 20
63.93999999999966
 40
0.4
  0
CIRCLE
  5
280
100
AcDbEntity
  8
0_wire
  6
ByLayer
 62
  256
370
   -1
100
AcDbCircle
 10
-109.8599999999963
 20
61.39999999999964
 40
0.4
  0
CIRCLE
  5
281
100
AcDbEntity
  8
0_wire
  6
ByLayer
 62
  256
370
   -1
100
AcDbCircle
 10
-109.8599999999963
 20
58.85999999999962
 40
0.4
  0
CIRCLE
  5
282
100
AcDbEntity
  8
0_wire
  6
ByLayer
 62
  256
370
   -1
100
AcDbCircle
 10
-94.61999999999696
 20
66.47999999999972
 40
0.4
  0
CIRCLE
  5
283
100
AcDbEntity
  8
0_wire
  6
ByLayer
 62
  256
370
   -1
100
AcDbCircle
 10
-94.61999999999696
 20
63.93999999999969
 40
0.4
  0
CIRCLE
  5
284
100
AcDbEntity
  8
0_wire
  6
ByLayer
 62
  256
370
   -1
100
AcDbCircle
 10
-94.61999999999696
 20
61.39999999999965
 40
0.4
  0
CIRCLE
  5
285
100
AcDbEntity
  8
0_wire
  6
ByLayer
 62
  256
370
   -1
100
AcDbCircle
 10
-94.61999999999696
 20
58.85999999999965
 40
0.4
  0
CIRCLE
  5
286
100
AcDbEntity
  8
0_wire
  6
ByLayer
 62
  256
370
   -1
100
AcDbCircle
 10
-86.9999999999973
 20
69.01999999999977
 40
0.4
  0
CIRCLE
  5
287
100
AcDbEntity
  8
0_wire
  6
ByLayer
 62
  256
370
   -1
100
AcDbCircle
 10
-86.99999999999727
 20
66.47999999999975
 40
0.4
  0
CIRCLE
  5
288
100
AcDbEntity
  8
0_wire
  6
ByLayer
 62
  256
370
   -1
100
AcDbCircle
 10
-86.9999999999973
 20
63.93999999999973
 40
0.4
  0
CIRCLE
  5
289
100
AcDbEntity
  8
0_wire
  6
ByLayer
 62
  256
370
   -1
100
AcDbCircle
 10
-86.99999999999727
 20
61.3999999999997
 40
0.4
  0
CIRCLE
  5
28A
100
AcDbEntity
  8
0_wire
  6
ByLayer
 62
  256
370
   -1
100
AcDbCircle
 10
-86.9999999999973
 20
58.85999999999968
 40
0.4
  0
CIRCLE
  5
28B
100
AcDbEntity
  8
0_wire
  6
ByLayer
 62
  256
370
   -1
100
AcDbCircle
 10
-86.99999999999727
 20
56.31999999999965
 40
0.4
  0
CIRCLE
  5
28C
100
AcDbEntity
  8
0_wire
  6
ByLayer
 62
  256
370
   -1
100
AcDbCircle
 10
-81.91999999999754
 20
74.09999999999981
 40
0.4
  0
CIRCLE
  5
28D
100
AcDbEntity
  8
0_wire
  6
ByLayer
 62
  256
370
   -1
100
AcDbCircle
 10
-81.91999999999753
 20
71.55999999999979
 40
0.4
  0
CIRCLE
  5
28E
100
AcDbEntity
  8
0_wire
  6
ByLayer
 62
  256
370
   -1
100
AcDbCircle
 10
-81.91999999999749
 20
51.23999999999965
 40
0.4
  0
CIRCLE
  5
28F
100
AcDbEntity
  8
0_wire
  6
ByLayer
 62
  256
370
   -1
100
AcDbCircle
 10
-81.91999999999749
 20
46.15999999999961
 40
0.4
  0
CIRCLE
  5
290
100
AcDbEntity
  8
0_wire
  6
ByLayer
 62
  256
370
   -1
100
AcDbCircle
 10
-81.91999999999749
 20
43.61999999999959
 40
0.4
  0
CIRCLE
  5
291
100
AcDbEntity
  8
0_wire
  6
ByLayer
 62
  256
370
   -1
100
AcDbCircle
 10
-81.91999999999747
 20
41.07999999999957
 40
0.4
  0
CIRCLE
  5
292
100
AcDbEntity
  8
0_wire
  6
ByLayer
 62
  256
370
   -1
100
AcDbCircle
 10
-122.5599999999958
 20
58.85999999999946
 40
0.4
  0
MTEXT
  5
293
100
AcDbEntity
  8
socket_header
  6
ByLayer
 62
  256
370
   -1
100
AcDbMText
 10
-122.586779620944
 20
63.53372926933647
 30
0
 40
1
 41
1.153333333333333
 71
    5
 72
    1
  1
H7
  7
azomix
210
0
220
0
230
1
 50
0
 73
    2
 44
1.54
  0
MTEXT
  5
294
100
AcDbEntity
  8
socket_header
  6
ByLayer
 62
  256
370
   -1
100
AcDbMText
 10
-122.586779620944
 20
45.66845819992992
 30
0
 40
1
 41
1.153333333333333
 71
    5
 72
    1
  1
H8
  7
azomix
210
0
220
0
230
1
 50
0
 73
    2
 44
1.54
  0
SPLINE
  5
295
100
AcDbEntity
  8
resister
  6
ByLayer
 62
  256
370
   -1
100
AcDbSpline
210
0
220
0
230
0
 70
    8
 71
    2
 72
    6
 73
    3
 74
    0
 42
1e-07
 43
1e-07
 40
0
 40
0
 40
0
 40
1
 40
1
 40
1
 10
-112.3999999999961
 20
48.69999999999954
 30
0
 10
-113.6533523150299
 20
51.25165199927572
 30
0
 10
-112.3999999999961
 20
53.77999999999958
 30
0
  0
LINE
  5
296
100
AcDbEntity
  8
0_wire
  6
ByLayer
 62
  256
370
   -1
100
AcDbLine
 10
-112.3999999999961
 20
56.3199999999996
 11
-112.3999999999961
 21
53.77999999999958
  0
SPLINE
  5
297
100
AcDbEntity
  8
resister
  6
ByLayer
 62
  256
370
   -1
100
AcDbSpline
210
0
220
0
230
0
 70
    8
 71
    2
 72
    7
 73
    4
 74
    0
 42
1e-07
 43
1e-07
 40
0
 40
0
 40
0
 40
0.5
 40
1
 40
1
 40
1
 10
-99.69999999999672
 20
56.31999999999963
 30
0
 10
-98.85065894986253
 20
58.85236786382735
 30
0
 10
-98.74908401552091
 20
64.1071147281269
 30
0
 10
-99.69999999999675
 20
66.47999999999969
 30
0
  0
SPLINE
  5
298
100
AcDbEntity
  8
resister
  6
ByLayer
 62
  256
370
   -1
100
AcDbSpline
210
0
220
0
230
0
 70
    8
 71
    2
 72
    6
 73
    3
 74
    0
 42
1e-07
 43
1e-07
 40
0
 40
0
 40
0
 40
1
 40
1
 40
1
 10
-109.8599999999962
 20
48.69999999999954
 30
0
 10
-107.3300823963115
 20
50.02149899028686
 30
0
 10
-104.7799999999965
 20
48.69999999999953
 30
0
  0
LINE
  5
299
100
AcDbEntity
  8
0_wire
  6
ByLayer
 62
  256
370
   -1
100
AcDbLine
 10
-104.7799999999965
 20
48.69999999999953
 11
-94.61999999999694
 21
48.69999999999958
  0
SPLINE
  5
29A
100
AcDbEntity
  8
resister
  6
ByLayer
 62
  256
370
   -1
100
AcDbSpline
210
0
220
0
230
0
 70
    8
 71
    2
 72
    7
 73
    4
 74
    0
 42
1e-07
 43
1e-07
 40
0
 40
0
 40
0
 40
0.5
 40
1
 40
1
 40
1
 10
-94.61999999999694
 20
48.69999999999958
 30
0
 10
-92.76341299446422
 20
49.53997225497297
 30
0
 10
-88.79894543018202
 20
49.50155754003804
 30
0
 10
-86.99999999999727
 20
48.6999999999996
 30
0
  0
LINE
  5
29B
100
AcDbEntity
  8
0_GND
  6
ByLayer
 62
  256
370
   -1
100
AcDbLine
 10
-84.45999999999739
 20
46.15999999999956
 11
-84.45999999999736
 21
41.07999999999955
  0
SPLINE
  5
29C
100
AcDbEntity
  8
resister
  6
ByLayer
 62
  256
370
   -1
100
AcDbSpline
210
0
220
0
230
0
 70
    8
 71
    2
 72
    6
 73
    3
 74
    0
 42
1e-07
 43
1e-07
 40
0
 40
0
 40
0
 40
1
 40
1
 40
1
 10
-84.45999999999736
 20
51.23999999999965
 30
0
 10
-82.87801584970934
 20
48.70998071400737
 30
0
 10
-84.45999999999736
 20
46.15999999999961
 30
0
  0
LINE
  5
29D
100
AcDbEntity
  8
0_GND
  6
ByLayer
 62
  256
370
   -1
100
AcDbLine
 10
-114.939999999996
 20
56.3199999999996
 11
-114.939999999996
 21
58.85999999999962
  0
LINE
  5
29E
100
AcDbEntity
  8
0_GND
  6
ByLayer
 62
  256
370
   -1
100
AcDbLine
 10
-114.939999999996
 20
58.85999999999962
 11
-112.3999999999961
 21
58.85999999999962
  0
LINE
  5
29F
100
AcDbEntity
  8
0_GND
  6
ByLayer
 62
  256
370
   -1
100
AcDbLine
 10
-112.3999999999961
 20
58.85999999999962
 11
-112.3999999999961
 21
61.39999999999964
  0
CIRCLE
  5
2A0
100
AcDbEntity
  8
condenser
  6
ByLayer
 62
  256
370
   -1
100
AcDbCircle
 10
-113.669999999994
 20
61.39999999999966
 40
1.6
  0
CIRCLE
  5
2A1
100
AcDbEntity
  8
condenser
  6
ByLayer
 62
  256
370
   -1
100
AcDbCircle
 10
-114.939999999996
 20
61.39999999999964
 40
0.2
  0
CIRCLE
  5
2A2
100
AcDbEntity
  8
condenser
  6
ByLayer
 62
  256
370
   -1
100
AcDbCircle
 10
-112.3999999999961
 20
61.39999999999964
 40
0.2
  0
MTEXT
  5
2A3
100
AcDbEntity
  8
condenser
  6
ByLayer
 62
  256
370
   -1
100
AcDbMText
 10
-113.669999999994
 20
61.39999999999966
 30
0
 40
1
 41
0.9111111111111111
 71
    5
 72
    1
  1
C1
  7
azomix
210
0
220
0
230
1
 50
0
 73
    2
 44
1.54
  0
MTEXT
  5
2A4
100
AcDbEntity
  8
0
  6
ByLayer
 62
  256
370
   -1
100
AcDbMText
 10
-144.2887464407712
 20
58.26809784494807
 30
0
 40
1
 41
20.30111111111111
 71
    4
 72
    1
  3
C1:    1uF\PH1-4: Header, 2 pin\PH5:   Header, 3 pin\PH6:   Header, 5 pin\PH7:    3P\PH8:    2P\PR1:   1M ohm\PR2:   1k ohm\PU1:   TC74HCU04AP\PU2:   TC74HC590AP\PUB1:   17x14P\PXH1:  XH header, 6
  1
 pin
  7
kst32b
210
0
220
0
230
1
 50
0
 73
    2
 44
1.54
  0
CIRCLE
  5
2A5
100
AcDbEntity
  8
universal_board
  6
ByLayer
 62
  256
370
   -1
100
AcDbCircle
 10
-97.15999999999664
 20
0.4399999999991664
 40
0.5
  0
CIRCLE
  5
2A6
100
AcDbEntity
  8
universal_board
  6
ByLayer
 62
  256
370
   -1
100
AcDbCircle
 10
-94.61999999999674
 20
0.4399999999991877
 40
0.5
  0
CIRCLE
  5
2A7
100
AcDbEntity
  8
universal_board
  6
ByLayer
 62
  256
370
   -1
100
AcDbCircle
 10
-92.07999999999684
 20
0.4399999999991877
 40
0.5
  0
CIRCLE
  5
2A8
100
AcDbEntity
  8
universal_board
  6
ByLayer
 62
  256
370
   -1
100
AcDbCircle
 10
-89.53999999999697
 20
0.439999999999209
 40
0.5
  0
CIRCLE
  5
2A9
100
AcDbEntity
  8
universal_board
  6
ByLayer
 62
  256
370
   -1
100
AcDbCircle
 10
-86.99999999999707
 20
0.439999999999209
 40
0.5
  0
CIRCLE
  5
2AA
100
AcDbEntity
  8
universal_board
  6
ByLayer
 62
  256
370
   -1
100
AcDbCircle
 10
-84.45999999999717
 20
0.4399999999992161
 40
0.5
  0
CIRCLE
  5
2AB
100
AcDbEntity
  8
universal_board
  6
ByLayer
 62
  256
370
   -1
100
AcDbCircle
 10
-81.91999999999727
 20
0.4399999999992374
 40
0.5
  0
CIRCLE
  5
2AC
100
AcDbEntity
  8
universal_board
  6
ByLayer
 62
  256
370
   -1
100
AcDbCircle
 10
-99.69999999999649
 20
0.4399999999991522
 40
0.5
  0
CIRCLE
  5
2AD
100
AcDbEntity
  8
universal_board
  6
ByLayer
 62
  256
370
   -1
100
AcDbCircle
 10
-102.2399999999964
 20
0.4399999999991522
 40
0.5
  0
CIRCLE
  5
2AE
100
AcDbEntity
  8
universal_board
  6
ByLayer
 62
  256
370
   -1
100
AcDbCircle
 10
-104.7799999999963
 20
0.4399999999991451
 40
0.5
  0
CIRCLE
  5
2AF
100
AcDbEntity
  8
universal_board
  6
ByLayer
 62
  256
370
   -1
100
AcDbCircle
 10
-107.3199999999961
 20
0.4399999999991451
 40
0.5
  0
CIRCLE
  5
2B0
100
AcDbEntity
  8
universal_board
  6
ByLayer
 62
  256
370
   -1
100
AcDbCircle
 10
-109.859999999996
 20
0.4399999999991451
 40
0.5
  0
CIRCLE
  5
2B1
100
AcDbEntity
  8
universal_board
  6
ByLayer
 62
  256
370
   -1
100
AcDbCircle
 10
-112.3999999999959
 20
0.439999999999138
 40
0.5
  0
CIRCLE
  5
2B2
100
AcDbEntity
  8
universal_board
  6
ByLayer
 62
  256
370
   -1
100
AcDbCircle
 10
-114.9399999999958
 20
0.4399999999991451
 40
0.5
  0
CIRCLE
  5
2B3
100
AcDbEntity
  8
universal_board
  6
ByLayer
 62
  256
370
   -1
100
AcDbCircle
 10
-97.15999999999664
 20
2.979999999999187
 40
0.5
  0
CIRCLE
  5
2B4
100
AcDbEntity
  8
universal_board
  6
ByLayer
 62
  256
370
   -1
100
AcDbCircle
 10
-94.61999999999674
 20
2.979999999999187
 40
0.5
  0
CIRCLE
  5
2B5
100
AcDbEntity
  8
universal_board
  6
ByLayer
 62
  256
370
   -1
100
AcDbCircle
 10
-92.07999999999684
 20
2.979999999999208
 40
0.5
  0
CIRCLE
  5
2B6
100
AcDbEntity
  8
universal_board
  6
ByLayer
 62
  256
370
   -1
100
AcDbCircle
 10
-89.53999999999697
 20
2.979999999999215
 40
0.5
  0
CIRCLE
  5
2B7
100
AcDbEntity
  8
universal_board
  6
ByLayer
 62
  256
370
   -1
100
AcDbCircle
 10
-86.99999999999707
 20
2.979999999999222
 40
0.5
  0
CIRCLE
  5
2B8
100
AcDbEntity
  8
universal_board
  6
ByLayer
 62
  256
370
   -1
100
AcDbCircle
 10
-84.45999999999718
 20
2.979999999999258
 40
0.5
  0
CIRCLE
  5
2B9
100
AcDbEntity
  8
universal_board
  6
ByLayer
 62
  256
370
   -1
100
AcDbCircle
 10
-81.91999999999729
 20
2.979999999999258
 40
0.5
  0
CIRCLE
  5
2BA
100
AcDbEntity
  8
universal_board
  6
ByLayer
 62
  256
370
   -1
100
AcDbCircle
 10
-99.69999999999652
 20
2.979999999999173
 40
0.5
  0
CIRCLE
  5
2BB
100
AcDbEntity
  8
universal_board
  6
ByLayer
 62
  256
370
   -1
100
AcDbCircle
 10
-102.2399999999964
 20
2.979999999999173
 40
0.5
  0
CIRCLE
  5
2BC
100
AcDbEntity
  8
universal_board
  6
ByLayer
 62
  256
370
   -1
100
AcDbCircle
 10
-104.7799999999963
 20
2.979999999999173
 40
0.5
  0
CIRCLE
  5
2BD
100
AcDbEntity
  8
universal_board
  6
ByLayer
 62
  256
370
   -1
100
AcDbCircle
 10
-107.3199999999962
 20
2.979999999999166
 40
0.5
  0
CIRCLE
  5
2BE
100
AcDbEntity
  8
universal_board
  6
ByLayer
 62
  256
370
   -1
100
AcDbCircle
 10
-109.859999999996
 20
2.979999999999166
 40
0.5
  0
CIRCLE
  5
2BF
100
AcDbEntity
  8
universal_board
  6
ByLayer
 62
  256
370
   -1
100
AcDbCircle
 10
-112.3999999999959
 20
2.979999999999158
 40
0.5
  0
CIRCLE
  5
2C0
100
AcDbEntity
  8
universal_board
  6
ByLayer
 62
  256
370
   -1
100
AcDbCircle
 10
-114.9399999999958
 20
2.979999999999158
 40
0.5
  0
CIRCLE
  5
2C1
100
AcDbEntity
  8
universal_board
  6
ByLayer
 62
  256
370
   -1
100
AcDbCircle
 10
-97.15999999999664
 20
5.519999999999229
 40
0.5
  0
CIRCLE
  5
2C2
100
AcDbEntity
  8
universal_board
  6
ByLayer
 62
  256
370
   -1
100
AcDbCircle
 10
-94.61999999999674
 20
5.519999999999229
 40
0.5
  0
CIRCLE
  5
2C3
100
AcDbEntity
  8
universal_board
  6
ByLayer
 62
  256
370
   -1
100
AcDbCircle
 10
-92.07999999999686
 20
5.519999999999229
 40
0.5
  0
CIRCLE
  5
2C4
100
AcDbEntity
  8
universal_board
  6
ByLayer
 62
  256
370
   -1
100
AcDbCircle
 10
-89.53999999999697
 20
5.519999999999236
 40
0.5
  0
CIRCLE
  5
2C5
100
AcDbEntity
  8
universal_board
  6
ByLayer
 62
  256
370
   -1
100
AcDbCircle
 10
-86.99999999999707
 20
5.519999999999243
 40
0.5
  0
CIRCLE
  5
2C6
100
AcDbEntity
  8
universal_board
  6
ByLayer
 62
  256
370
   -1
100
AcDbCircle
 10
-84.45999999999717
 20
5.519999999999278
 40
0.5
  0
CIRCLE
  5
2C7
100
AcDbEntity
  8
universal_board
  6
ByLayer
 62
  256
370
   -1
100
AcDbCircle
 10
-81.91999999999729
 20
5.519999999999278
 40
0.5
  0
CIRCLE
  5
2C8
100
AcDbEntity
  8
universal_board
  6
ByLayer
 62
  256
370
   -1
100
AcDbCircle
 10
-99.69999999999652
 20
5.519999999999229
 40
0.5
  0
CIRCLE
  5
2C9
100
AcDbEntity
  8
universal_board
  6
ByLayer
 62
  256
370
   -1
100
AcDbCircle
 10
-102.2399999999964
 20
5.519999999999193
 40
0.5
  0
CIRCLE
  5
2CA
100
AcDbEntity
  8
universal_board
  6
ByLayer
 62
  256
370
   -1
100
AcDbCircle
 10
-104.7799999999963
 20
5.519999999999193
 40
0.5
  0
CIRCLE
  5
2CB
100
AcDbEntity
  8
universal_board
  6
ByLayer
 62
  256
370
   -1
100
AcDbCircle
 10
-107.3199999999961
 20
5.519999999999186
 40
0.5
  0
CIRCLE
  5
2CC
100
AcDbEntity
  8
universal_board
  6
ByLayer
 62
  256
370
   -1
100
AcDbCircle
 10
-109.859999999996
 20
5.519999999999186
 40
0.5
  0
CIRCLE
  5
2CD
100
AcDbEntity
  8
universal_board
  6
ByLayer
 62
  256
370
   -1
100
AcDbCircle
 10
-112.3999999999959
 20
5.519999999999186
 40
0.5
  0
CIRCLE
  5
2CE
100
AcDbEntity
  8
universal_board
  6
ByLayer
 62
  256
370
   -1
100
AcDbCircle
 10
-114.9399999999958
 20
5.519999999999179
 40
0.5
  0
CIRCLE
  5
2CF
100
AcDbEntity
  8
universal_board
  6
ByLayer
 62
  256
370
   -1
100
AcDbCircle
 10
-97.15999999999664
 20
8.059999999999242
 40
0.5
  0
CIRCLE
  5
2D0
100
AcDbEntity
  8
universal_board
  6
ByLayer
 62
  256
370
   -1
100
AcDbCircle
 10
-94.61999999999674
 20
8.059999999999242
 40
0.5
  0
CIRCLE
  5
2D1
100
AcDbEntity
  8
universal_board
  6
ByLayer
 62
  256
370
   -1
100
AcDbCircle
 10
-92.07999999999686
 20
8.059999999999256
 40
0.5
  0
CIRCLE
  5
2D2
100
AcDbEntity
  8
universal_board
  6
ByLayer
 62
  256
370
   -1
100
AcDbCircle
 10
-89.53999999999698
 20
8.059999999999263
 40
0.5
  0
CIRCLE
  5
2D3
100
AcDbEntity
  8
universal_board
  6
ByLayer
 62
  256
370
   -1
100
AcDbCircle
 10
-86.99999999999707
 20
8.059999999999263
 40
0.5
  0
CIRCLE
  5
2D4
100
AcDbEntity
  8
universal_board
  6
ByLayer
 62
  256
370
   -1
100
AcDbCircle
 10
-84.45999999999718
 20
8.059999999999299
 40
0.5
  0
CIRCLE
  5
2D5
100
AcDbEntity
  8
universal_board
  6
ByLayer
 62
  256
370
   -1
100
AcDbCircle
 10
-81.91999999999729
 20
8.059999999999299
 40
0.5
  0
CIRCLE
  5
2D6
100
AcDbEntity
  8
universal_board
  6
ByLayer
 62
  256
370
   -1
100
AcDbCircle
 10
-99.69999999999652
 20
8.059999999999242
 40
0.5
  0
CIRCLE
  5
2D7
100
AcDbEntity
  8
universal_board
  6
ByLayer
 62
  256
370
   -1
100
AcDbCircle
 10
-102.2399999999964
 20
8.059999999999228
 40
0.5
  0
CIRCLE
  5
2D8
100
AcDbEntity
  8
universal_board
  6
ByLayer
 62
  256
370
   -1
100
AcDbCircle
 10
-104.7799999999963
 20
8.059999999999192
 40
0.5
  0
CIRCLE
  5
2D9
100
AcDbEntity
  8
universal_board
  6
ByLayer
 62
  256
370
   -1
100
AcDbCircle
 10
-107.3199999999962
 20
8.059999999999206
 40
0.5
  0
CIRCLE
  5
2DA
100
AcDbEntity
  8
universal_board
  6
ByLayer
 62
  256
370
   -1
100
AcDbCircle
 10
-109.859999999996
 20
8.059999999999206
 40
0.5
  0
CIRCLE
  5
2DB
100
AcDbEntity
  8
universal_board
  6
ByLayer
 62
  256
370
   -1
100
AcDbCircle
 10
-112.3999999999959
 20
8.059999999999206
 40
0.5
  0
CIRCLE
  5
2DC
100
AcDbEntity
  8
universal_board
  6
ByLayer
 62
  256
370
   -1
100
AcDbCircle
 10
-114.9399999999958
 20
8.059999999999206
 40
0.5
  0
CIRCLE
  5
2DD
100
AcDbEntity
  8
universal_board
  6
ByLayer
 62
  256
370
   -1
100
AcDbCircle
 10
-97.15999999999664
 20
10.59999999999925
 40
0.5
  0
CIRCLE
  5
2DE
100
AcDbEntity
  8
universal_board
  6
ByLayer
 62
  256
370
   -1
100
AcDbCircle
 10
-94.61999999999674
 20
10.59999999999926
 40
0.5
  0
CIRCLE
  5
2DF
100
AcDbEntity
  8
universal_board
  6
ByLayer
 62
  256
370
   -1
100
AcDbCircle
 10
-92.07999999999686
 20
10.59999999999928
 40
0.5
  0
CIRCLE
  5
2E0
100
AcDbEntity
  8
universal_board
  6
ByLayer
 62
  256
370
   -1
100
AcDbCircle
 10
-89.53999999999697
 20
10.5999999999993
 40
0.5
  0
CIRCLE
  5
2E1
100
AcDbEntity
  8
universal_board
  6
ByLayer
 62
  256
370
   -1
100
AcDbCircle
 10
-86.99999999999707
 20
10.5999999999993
 40
0.5
  0
CIRCLE
  5
2E2
100
AcDbEntity
  8
universal_board
  6
ByLayer
 62
  256
370
   -1
100
AcDbCircle
 10
-84.45999999999717
 20
10.59999999999931
 40
0.5
  0
CIRCLE
  5
2E3
100
AcDbEntity
  8
universal_board
  6
ByLayer
 62
  256
370
   -1
100
AcDbCircle
 10
-81.91999999999729
 20
10.59999999999931
 40
0.5
  0
CIRCLE
  5
2E4
100
AcDbEntity
  8
universal_board
  6
ByLayer
 62
  256
370
   -1
100
AcDbCircle
 10
-99.69999999999652
 20
10.59999999999925
 40
0.5
  0
CIRCLE
  5
2E5
100
AcDbEntity
  8
universal_board
  6
ByLayer
 62
  256
370
   -1
100
AcDbCircle
 10
-102.2399999999964
 20
10.59999999999925
 40
0.5
  0
CIRCLE
  5
2E6
100
AcDbEntity
  8
universal_board
  6
ByLayer
 62
  256
370
   -1
100
AcDbCircle
 10
-104.7799999999963
 20
10.59999999999921
 40
0.5
  0
CIRCLE
  5
2E7
100
AcDbEntity
  8
universal_board
  6
ByLayer
 62
  256
370
   -1
100
AcDbCircle
 10
-107.3199999999962
 20
10.59999999999925
 40
0.5
  0
CIRCLE
  5
2E8
100
AcDbEntity
  8
universal_board
  6
ByLayer
 62
  256
370
   -1
100
AcDbCircle
 10
-109.859999999996
 20
10.59999999999923
 40
0.5
  0
CIRCLE
  5
2E9
100
AcDbEntity
  8
universal_board
  6
ByLayer
 62
  256
370
   -1
100
AcDbCircle
 10
-112.3999999999959
 20
10.59999999999925
 40
0.5
  0
CIRCLE
  5
2EA
100
AcDbEntity
  8
universal_board
  6
ByLayer
 62
  256
370
   -1
100
AcDbCircle
 10
-114.9399999999958
 20
10.59999999999921
 40
0.5
  0
CIRCLE
  5
2EB
100
AcDbEntity
  8
universal_board
  6
ByLayer
 62
  256
370
   -1
100
AcDbCircle
 10
-97.15999999999664
 20
13.13999999999927
 40
0.5
  0
CIRCLE
  5
2EC
100
AcDbEntity
  8
universal_board
  6
ByLayer
 62
  256
370
   -1
100
AcDbCircle
 10
-94.61999999999676
 20
13.13999999999928
 40
0.5
  0
CIRCLE
  5
2ED
100
AcDbEntity
  8
universal_board
  6
ByLayer
 62
  256
370
   -1
100
AcDbCircle
 10
-92.07999999999687
 20
13.13999999999928
 40
0.5
  0
CIRCLE
  5
2EE
100
AcDbEntity
  8
universal_board
  6
ByLayer
 62
  256
370
   -1
100
AcDbCircle
 10
-89.53999999999698
 20
13.1399999999993
 40
0.5
  0
CIRCLE
  5
2EF
100
AcDbEntity
  8
universal_board
  6
ByLayer
 62
  256
370
   -1
100
AcDbCircle
 10
-86.99999999999707
 20
13.13999999999932
 40
0.5
  0
CIRCLE
  5
2F0
100
AcDbEntity
  8
universal_board
  6
ByLayer
 62
  256
370
   -1
100
AcDbCircle
 10
-84.45999999999718
 20
13.13999999999933
 40
0.5
  0
CIRCLE
  5
2F1
100
AcDbEntity
  8
universal_board
  6
ByLayer
 62
  256
370
   -1
100
AcDbCircle
 10
-81.91999999999729
 20
13.13999999999933
 40
0.5
  0
CIRCLE
  5
2F2
100
AcDbEntity
  8
universal_board
  6
ByLayer
 62
  256
370
   -1
100
AcDbCircle
 10
-99.69999999999652
 20
13.13999999999927
 40
0.5
  0
CIRCLE
  5
2F3
100
AcDbEntity
  8
universal_board
  6
ByLayer
 62
  256
370
   -1
100
AcDbCircle
 10
-102.2399999999964
 20
13.13999999999927
 40
0.5
  0
CIRCLE
  5
2F4
100
AcDbEntity
  8
universal_board
  6
ByLayer
 62
  256
370
   -1
100
AcDbCircle
 10
-104.7799999999963
 20
13.13999999999923
 40
0.5
  0
CIRCLE
  5
2F5
100
AcDbEntity
  8
universal_board
  6
ByLayer
 62
  256
370
   -1
100
AcDbCircle
 10
-107.3199999999962
 20
13.13999999999927
 40
0.5
  0
CIRCLE
  5
2F6
100
AcDbEntity
  8
universal_board
  6
ByLayer
 62
  256
370
   -1
100
AcDbCircle
 10
-109.859999999996
 20
13.13999999999925
 40
0.5
  0
CIRCLE
  5
2F7
100
AcDbEntity
  8
universal_board
  6
ByLayer
 62
  256
370
   -1
100
AcDbCircle
 10
-112.3999999999959
 20
13.13999999999925
 40
0.5
  0
CIRCLE
  5
2F8
100
AcDbEntity
  8
universal_board
  6
ByLayer
 62
  256
370
   -1
100
AcDbCircle
 10
-114.9399999999958
 20
13.13999999999923
 40
0.5
  0
CIRCLE
  5
2F9
100
AcDbEntity
  8
universal_board
  6
ByLayer
 62
  256
370
   -1
100
AcDbCircle
 10
-97.15999999999664
 20
15.67999999999928
 40
0.5
  0
CIRCLE
  5
2FA
100
AcDbEntity
  8
universal_board
  6
ByLayer
 62
  256
370
   -1
100
AcDbCircle
 10
-94.61999999999676
 20
15.67999999999928
 40
0.5
  0
CIRCLE
  5
2FB
100
AcDbEntity
  8
universal_board
  6
ByLayer
 62
  256
370
   -1
100
AcDbCircle
 10
-92.07999999999687
 20
15.67999999999932
 40
0.5
  0
CIRCLE
  5
2FC
100
AcDbEntity
  8
universal_board
  6
ByLayer
 62
  256
370
   -1
100
AcDbCircle
 10
-89.53999999999698
 20
15.67999999999932
 40
0.5
  0
CIRCLE
  5
2FD
100
AcDbEntity
  8
universal_board
  6
ByLayer
 62
  256
370
   -1
100
AcDbCircle
 10
-86.99999999999707
 20
15.67999999999932
 40
0.5
  0
CIRCLE
  5
2FE
100
AcDbEntity
  8
universal_board
  6
ByLayer
 62
  256
370
   -1
100
AcDbCircle
 10
-84.45999999999718
 20
15.67999999999934
 40
0.5
  0
CIRCLE
  5
2FF
100
AcDbEntity
  8
universal_board
  6
ByLayer
 62
  256
370
   -1
100
AcDbCircle
 10
-81.91999999999729
 20
15.67999999999934
 40
0.5
  0
CIRCLE
  5
300
100
AcDbEntity
  8
universal_board
  6
ByLayer
 62
  256
370
   -1
100
AcDbCircle
 10
-99.69999999999652
 20
15.6799999999993
 40
0.5
  0
CIRCLE
  5
301
100
AcDbEntity
  8
universal_board
  6
ByLayer
 62
  256
370
   -1
100
AcDbCircle
 10
-102.2399999999964
 20
15.67999999999928
 40
0.5
  0
CIRCLE
  5
302
100
AcDbEntity
  8
universal_board
  6
ByLayer
 62
  256
370
   -1
100
AcDbCircle
 10
-104.7799999999963
 20
15.67999999999928
 40
0.5
  0
CIRCLE
  5
303
100
AcDbEntity
  8
universal_board
  6
ByLayer
 62
  256
370
   -1
100
AcDbCircle
 10
-107.3199999999962
 20
15.67999999999928
 40
0.5
  0
CIRCLE
  5
304
100
AcDbEntity
  8
universal_board
  6
ByLayer
 62
  256
370
   -1
100
AcDbCircle
 10
-109.859999999996
 20
15.67999999999927
 40
0.5
  0
CIRCLE
  5
305
100
AcDbEntity
  8
universal_board
  6
ByLayer
 62
  256
370
   -1
100
AcDbCircle
 10
-112.3999999999959
 20
15.67999999999927
 40
0.5
  0
CIRCLE
  5
306
100
AcDbEntity
  8
universal_board
  6
ByLayer
 62
  256
370
   -1
100
AcDbCircle
 10
-114.9399999999958
 20
15.67999999999927
 40
0.5
  0
CIRCLE
  5
307
100
AcDbEntity
  8
universal_board
  6
ByLayer
 62
  256
370
   -1
100
AcDbCircle
 10
-97.15999999999667
 20
18.2199999999993
 40
0.5
  0
CIRCLE
  5
308
100
AcDbEntity
  8
universal_board
  6
ByLayer
 62
  256
370
   -1
100
AcDbCircle
 10
-94.61999999999676
 20
18.21999999999932
 40
0.5
  0
CIRCLE
  5
309
100
AcDbEntity
  8
universal_board
  6
ByLayer
 62
  256
370
   -1
100
AcDbCircle
 10
-92.07999999999687
 20
18.21999999999934
 40
0.5
  0
CIRCLE
  5
30A
100
AcDbEntity
  8
universal_board
  6
ByLayer
 62
  256
370
   -1
100
AcDbCircle
 10
-89.53999999999698
 20
18.21999999999934
 40
0.5
  0
CIRCLE
  5
30B
100
AcDbEntity
  8
universal_board
  6
ByLayer
 62
  256
370
   -1
100
AcDbCircle
 10
-86.9999999999971
 20
18.21999999999935
 40
0.5
  0
CIRCLE
  5
30C
100
AcDbEntity
  8
universal_board
  6
ByLayer
 62
  256
370
   -1
100
AcDbCircle
 10
-84.45999999999719
 20
18.21999999999935
 40
0.5
  0
CIRCLE
  5
30D
100
AcDbEntity
  8
universal_board
  6
ByLayer
 62
  256
370
   -1
100
AcDbCircle
 10
-81.9199999999973
 20
18.21999999999937
 40
0.5
  0
CIRCLE
  5
30E
100
AcDbEntity
  8
universal_board
  6
ByLayer
 62
  256
370
   -1
100
AcDbCircle
 10
-99.69999999999652
 20
18.21999999999932
 40
0.5
  0
CIRCLE
  5
30F
100
AcDbEntity
  8
universal_board
  6
ByLayer
 62
  256
370
   -1
100
AcDbCircle
 10
-102.2399999999964
 20
18.2199999999993
 40
0.5
  0
CIRCLE
  5
310
100
AcDbEntity
  8
universal_board
  6
ByLayer
 62
  256
370
   -1
100
AcDbCircle
 10
-104.7799999999963
 20
18.2199999999993
 40
0.5
  0
CIRCLE
  5
311
100
AcDbEntity
  8
universal_board
  6
ByLayer
 62
  256
370
   -1
100
AcDbCircle
 10
-107.3199999999962
 20
18.2199999999993
 40
0.5
  0
CIRCLE
  5
312
100
AcDbEntity
  8
universal_board
  6
ByLayer
 62
  256
370
   -1
100
AcDbCircle
 10
-109.8599999999961
 20
18.21999999999929
 40
0.5
  0
CIRCLE
  5
313
100
AcDbEntity
  8
universal_board
  6
ByLayer
 62
  256
370
   -1
100
AcDbCircle
 10
-112.3999999999959
 20
18.21999999999929
 40
0.5
  0
CIRCLE
  5
314
100
AcDbEntity
  8
universal_board
  6
ByLayer
 62
  256
370
   -1
100
AcDbCircle
 10
-114.9399999999958
 20
18.21999999999929
 40
0.5
  0
CIRCLE
  5
315
100
AcDbEntity
  8
universal_board
  6
ByLayer
 62
  256
370
   -1
100
AcDbCircle
 10
-97.15999999999664
 20
20.75999999999932
 40
0.5
  0
CIRCLE
  5
316
100
AcDbEntity
  8
universal_board
  6
ByLayer
 62
  256
370
   -1
100
AcDbCircle
 10
-94.61999999999676
 20
20.75999999999932
 40
0.5
  0
CIRCLE
  5
317
100
AcDbEntity
  8
universal_board
  6
ByLayer
 62
  256
370
   -1
100
AcDbCircle
 10
-92.07999999999687
 20
20.75999999999936
 40
0.5
  0
CIRCLE
  5
318
100
AcDbEntity
  8
universal_board
  6
ByLayer
 62
  256
370
   -1
100
AcDbCircle
 10
-89.53999999999698
 20
20.75999999999936
 40
0.5
  0
CIRCLE
  5
319
100
AcDbEntity
  8
universal_board
  6
ByLayer
 62
  256
370
   -1
100
AcDbCircle
 10
-86.99999999999707
 20
20.75999999999937
 40
0.5
  0
CIRCLE
  5
31A
100
AcDbEntity
  8
universal_board
  6
ByLayer
 62
  256
370
   -1
100
AcDbCircle
 10
-84.45999999999719
 20
20.75999999999937
 40
0.5
  0
CIRCLE
  5
31B
100
AcDbEntity
  8
universal_board
  6
ByLayer
 62
  256
370
   -1
100
AcDbCircle
 10
-81.9199999999973
 20
20.75999999999937
 40
0.5
  0
CIRCLE
  5
31C
100
AcDbEntity
  8
universal_board
  6
ByLayer
 62
  256
370
   -1
100
AcDbCircle
 10
-99.69999999999655
 20
20.75999999999932
 40
0.5
  0
CIRCLE
  5
31D
100
AcDbEntity
  8
universal_board
  6
ByLayer
 62
  256
370
   -1
100
AcDbCircle
 10
-102.2399999999964
 20
20.75999999999932
 40
0.5
  0
CIRCLE
  5
31E
100
AcDbEntity
  8
universal_board
  6
ByLayer
 62
  256
370
   -1
100
AcDbCircle
 10
-104.7799999999963
 20
20.75999999999932
 40
0.5
  0
CIRCLE
  5
31F
100
AcDbEntity
  8
universal_board
  6
ByLayer
 62
  256
370
   -1
100
AcDbCircle
 10
-107.3199999999962
 20
20.75999999999932
 40
0.5
  0
CIRCLE
  5
320
100
AcDbEntity
  8
universal_board
  6
ByLayer
 62
  256
370
   -1
100
AcDbCircle
 10
-109.8599999999961
 20
20.75999999999931
 40
0.5
  0
CIRCLE
  5
321
100
AcDbEntity
  8
universal_board
  6
ByLayer
 62
  256
370
   -1
100
AcDbCircle
 10
-112.3999999999959
 20
20.75999999999931
 40
0.5
  0
CIRCLE
  5
322
100
AcDbEntity
  8
universal_board
  6
ByLayer
 62
  256
370
   -1
100
AcDbCircle
 10
-114.9399999999958
 20
20.75999999999931
 40
0.5
  0
CIRCLE
  5
323
100
AcDbEntity
  8
universal_board
  6
ByLayer
 62
  256
370
   -1
100
AcDbCircle
 10
-97.15999999999667
 20
23.29999999999936
 40
0.5
  0
CIRCLE
  5
324
100
AcDbEntity
  8
universal_board
  6
ByLayer
 62
  256
370
   -1
100
AcDbCircle
 10
-94.61999999999676
 20
23.29999999999936
 40
0.5
  0
CIRCLE
  5
325
100
AcDbEntity
  8
universal_board
  6
ByLayer
 62
  256
370
   -1
100
AcDbCircle
 10
-92.07999999999689
 20
23.29999999999939
 40
0.5
  0
CIRCLE
  5
326
100
AcDbEntity
  8
universal_board
  6
ByLayer
 62
  256
370
   -1
100
AcDbCircle
 10
-89.53999999999698
 20
23.29999999999939
 40
0.5
  0
CIRCLE
  5
327
100
AcDbEntity
  8
universal_board
  6
ByLayer
 62
  256
370
   -1
100
AcDbCircle
 10
-86.9999999999971
 20
23.29999999999939
 40
0.5
  0
CIRCLE
  5
328
100
AcDbEntity
  8
universal_board
  6
ByLayer
 62
  256
370
   -1
100
AcDbCircle
 10
-84.45999999999719
 20
23.29999999999943
 40
0.5
  0
CIRCLE
  5
329
100
AcDbEntity
  8
universal_board
  6
ByLayer
 62
  256
370
   -1
100
AcDbCircle
 10
-81.91999999999732
 20
23.29999999999943
 40
0.5
  0
CIRCLE
  5
32A
100
AcDbEntity
  8
universal_board
  6
ByLayer
 62
  256
370
   -1
100
AcDbCircle
 10
-99.69999999999655
 20
23.29999999999934
 40
0.5
  0
CIRCLE
  5
32B
100
AcDbEntity
  8
universal_board
  6
ByLayer
 62
  256
370
   -1
100
AcDbCircle
 10
-102.2399999999964
 20
23.29999999999936
 40
0.5
  0
CIRCLE
  5
32C
100
AcDbEntity
  8
universal_board
  6
ByLayer
 62
  256
370
   -1
100
AcDbCircle
 10
-104.7799999999963
 20
23.29999999999934
 40
0.5
  0
CIRCLE
  5
32D
100
AcDbEntity
  8
universal_board
  6
ByLayer
 62
  256
370
   -1
100
AcDbCircle
 10
-107.3199999999962
 20
23.29999999999934
 40
0.5
  0
CIRCLE
  5
32E
100
AcDbEntity
  8
universal_board
  6
ByLayer
 62
  256
370
   -1
100
AcDbCircle
 10
-109.8599999999961
 20
23.29999999999932
 40
0.5
  0
CIRCLE
  5
32F
100
AcDbEntity
  8
universal_board
  6
ByLayer
 62
  256
370
   -1
100
AcDbCircle
 10
-112.3999999999959
 20
23.29999999999932
 40
0.5
  0
CIRCLE
  5
330
100
AcDbEntity
  8
universal_board
  6
ByLayer
 62
  256
370
   -1
100
AcDbCircle
 10
-114.9399999999958
 20
23.29999999999932
 40
0.5
  0
CIRCLE
  5
331
100
AcDbEntity
  8
universal_board
  6
ByLayer
 62
  256
370
   -1
100
AcDbCircle
 10
-97.15999999999667
 20
25.83999999999936
 40
0.5
  0
CIRCLE
  5
332
100
AcDbEntity
  8
universal_board
  6
ByLayer
 62
  256
370
   -1
100
AcDbCircle
 10
-94.61999999999676
 20
25.83999999999939
 40
0.5
  0
CIRCLE
  5
333
100
AcDbEntity
  8
universal_board
  6
ByLayer
 62
  256
370
   -1
100
AcDbCircle
 10
-92.07999999999689
 20
25.83999999999939
 40
0.5
  0
CIRCLE
  5
334
100
AcDbEntity
  8
universal_board
  6
ByLayer
 62
  256
370
   -1
100
AcDbCircle
 10
-89.53999999999698
 20
25.83999999999941
 40
0.5
  0
CIRCLE
  5
335
100
AcDbEntity
  8
universal_board
  6
ByLayer
 62
  256
370
   -1
100
AcDbCircle
 10
-86.99999999999707
 20
25.83999999999941
 40
0.5
  0
CIRCLE
  5
336
100
AcDbEntity
  8
universal_board
  6
ByLayer
 62
  256
370
   -1
100
AcDbCircle
 10
-84.45999999999719
 20
25.83999999999941
 40
0.5
  0
CIRCLE
  5
337
100
AcDbEntity
  8
universal_board
  6
ByLayer
 62
  256
370
   -1
100
AcDbCircle
 10
-81.91999999999732
 20
25.83999999999944
 40
0.5
  0
CIRCLE
  5
338
100
AcDbEntity
  8
universal_board
  6
ByLayer
 62
  256
370
   -1
100
AcDbCircle
 10
-99.69999999999655
 20
25.83999999999936
 40
0.5
  0
CIRCLE
  5
339
100
AcDbEntity
  8
universal_board
  6
ByLayer
 62
  256
370
   -1
100
AcDbCircle
 10
-102.2399999999964
 20
25.83999999999936
 40
0.5
  0
CIRCLE
  5
33A
100
AcDbEntity
  8
universal_board
  6
ByLayer
 62
  256
370
   -1
100
AcDbCircle
 10
-104.7799999999963
 20
25.83999999999936
 40
0.5
  0
CIRCLE
  5
33B
100
AcDbEntity
  8
universal_board
  6
ByLayer
 62
  256
370
   -1
100
AcDbCircle
 10
-107.3199999999962
 20
25.83999999999936
 40
0.5
  0
CIRCLE
  5
33C
100
AcDbEntity
  8
universal_board
  6
ByLayer
 62
  256
370
   -1
100
AcDbCircle
 10
-109.8599999999961
 20
25.83999999999936
 40
0.5
  0
CIRCLE
  5
33D
100
AcDbEntity
  8
universal_board
  6
ByLayer
 62
  256
370
   -1
100
AcDbCircle
 10
-112.3999999999959
 20
25.83999999999933
 40
0.5
  0
CIRCLE
  5
33E
100
AcDbEntity
  8
universal_board
  6
ByLayer
 62
  256
370
   -1
100
AcDbCircle
 10
-114.9399999999958
 20
25.83999999999936
 40
0.5
  0
CIRCLE
  5
33F
100
AcDbEntity
  8
universal_board
  6
ByLayer
 62
  256
370
   -1
100
AcDbCircle
 10
-117.4799999999957
 20
0.4399999999990882
 40
0.5
  0
CIRCLE
  5
340
100
AcDbEntity
  8
universal_board
  6
ByLayer
 62
  256
370
   -1
100
AcDbCircle
 10
-117.4799999999957
 20
2.979999999999116
 40
0.5
  0
CIRCLE
  5
341
100
AcDbEntity
  8
universal_board
  6
ByLayer
 62
  256
370
   -1
100
AcDbCircle
 10
-117.4799999999957
 20
5.519999999999136
 40
0.5
  0
CIRCLE
  5
342
100
AcDbEntity
  8
universal_board
  6
ByLayer
 62
  256
370
   -1
100
AcDbCircle
 10
-117.4799999999957
 20
8.059999999999135
 40
0.5
  0
CIRCLE
  5
343
100
AcDbEntity
  8
universal_board
  6
ByLayer
 62
  256
370
   -1
100
AcDbCircle
 10
-117.4799999999957
 20
10.59999999999918
 40
0.5
  0
CIRCLE
  5
344
100
AcDbEntity
  8
universal_board
  6
ByLayer
 62
  256
370
   -1
100
AcDbCircle
 10
-117.4799999999958
 20
13.1399999999992
 40
0.5
  0
CIRCLE
  5
345
100
AcDbEntity
  8
universal_board
  6
ByLayer
 62
  256
370
   -1
100
AcDbCircle
 10
-117.4799999999958
 20
15.67999999999923
 40
0.5
  0
CIRCLE
  5
346
100
AcDbEntity
  8
universal_board
  6
ByLayer
 62
  256
370
   -1
100
AcDbCircle
 10
-117.4799999999958
 20
18.21999999999924
 40
0.5
  0
CIRCLE
  5
347
100
AcDbEntity
  8
universal_board
  6
ByLayer
 62
  256
370
   -1
100
AcDbCircle
 10
-117.4799999999958
 20
20.75999999999927
 40
0.5
  0
CIRCLE
  5
348
100
AcDbEntity
  8
universal_board
  6
ByLayer
 62
  256
370
   -1
100
AcDbCircle
 10
-117.4799999999958
 20
23.29999999999927
 40
0.5
  0
CIRCLE
  5
349
100
AcDbEntity
  8
universal_board
  6
ByLayer
 62
  256
370
   -1
100
AcDbCircle
 10
-117.4799999999958
 20
25.8399999999993
 40
0.5
  0
CIRCLE
  5
34A
100
AcDbEntity
  8
universal_board
  6
ByLayer
 62
  256
370
   -1
100
AcDbCircle
 10
-97.15999999999667
 20
28.37999999999938
 40
0.5
  0
CIRCLE
  5
34B
100
AcDbEntity
  8
universal_board
  6
ByLayer
 62
  256
370
   -1
100
AcDbCircle
 10
-94.61999999999679
 20
28.37999999999941
 40
0.5
  0
CIRCLE
  5
34C
100
AcDbEntity
  8
universal_board
  6
ByLayer
 62
  256
370
   -1
100
AcDbCircle
 10
-92.07999999999689
 20
28.37999999999941
 40
0.5
  0
CIRCLE
  5
34D
100
AcDbEntity
  8
universal_board
  6
ByLayer
 62
  256
370
   -1
100
AcDbCircle
 10
-89.53999999999701
 20
28.37999999999941
 40
0.5
  0
CIRCLE
  5
34E
100
AcDbEntity
  8
universal_board
  6
ByLayer
 62
  256
370
   -1
100
AcDbCircle
 10
-86.9999999999971
 20
28.37999999999943
 40
0.5
  0
CIRCLE
  5
34F
100
AcDbEntity
  8
universal_board
  6
ByLayer
 62
  256
370
   -1
100
AcDbCircle
 10
-84.45999999999722
 20
28.37999999999943
 40
0.5
  0
CIRCLE
  5
350
100
AcDbEntity
  8
universal_board
  6
ByLayer
 62
  256
370
   -1
100
AcDbCircle
 10
-81.91999999999732
 20
28.37999999999946
 40
0.5
  0
CIRCLE
  5
351
100
AcDbEntity
  8
universal_board
  6
ByLayer
 62
  256
370
   -1
100
AcDbCircle
 10
-99.69999999999655
 20
28.37999999999938
 40
0.5
  0
CIRCLE
  5
352
100
AcDbEntity
  8
universal_board
  6
ByLayer
 62
  256
370
   -1
100
AcDbCircle
 10
-102.2399999999964
 20
28.37999999999938
 40
0.5
  0
CIRCLE
  5
353
100
AcDbEntity
  8
universal_board
  6
ByLayer
 62
  256
370
   -1
100
AcDbCircle
 10
-104.7799999999963
 20
28.37999999999938
 40
0.5
  0
CIRCLE
  5
354
100
AcDbEntity
  8
universal_board
  6
ByLayer
 62
  256
370
   -1
100
AcDbCircle
 10
-107.3199999999962
 20
28.37999999999938
 40
0.5
  0
CIRCLE
  5
355
100
AcDbEntity
  8
universal_board
  6
ByLayer
 62
  256
370
   -1
100
AcDbCircle
 10
-109.8599999999961
 20
28.37999999999935
 40
0.5
  0
CIRCLE
  5
356
100
AcDbEntity
  8
universal_board
  6
ByLayer
 62
  256
370
   -1
100
AcDbCircle
 10
-112.3999999999959
 20
28.37999999999935
 40
0.5
  0
CIRCLE
  5
357
100
AcDbEntity
  8
universal_board
  6
ByLayer
 62
  256
370
   -1
100
AcDbCircle
 10
-114.9399999999958
 20
28.37999999999938
 40
0.5
  0
CIRCLE
  5
358
100
AcDbEntity
  8
universal_board
  6
ByLayer
 62
  256
370
   -1
100
AcDbCircle
 10
-117.4799999999958
 20
28.37999999999932
 40
0.5
  0
CIRCLE
  5
359
100
AcDbEntity
  8
universal_board
  6
ByLayer
 62
  256
370
   -1
100
AcDbCircle
 10
-97.15999999999667
 20
30.91999999999937
 40
0.5
  0
CIRCLE
  5
35A
100
AcDbEntity
  8
universal_board
  6
ByLayer
 62
  256
370
   -1
100
AcDbCircle
 10
-94.61999999999679
 20
30.9199999999994
 40
0.5
  0
CIRCLE
  5
35B
100
AcDbEntity
  8
universal_board
  6
ByLayer
 62
  256
370
   -1
100
AcDbCircle
 10
-92.07999999999691
 20
30.9199999999994
 40
0.5
  0
CIRCLE
  5
35C
100
AcDbEntity
  8
universal_board
  6
ByLayer
 62
  256
370
   -1
100
AcDbCircle
 10
-89.53999999999701
 20
30.91999999999943
 40
0.5
  0
CIRCLE
  5
35D
100
AcDbEntity
  8
universal_board
  6
ByLayer
 62
  256
370
   -1
100
AcDbCircle
 10
-86.99999999999712
 20
30.91999999999943
 40
0.5
  0
CIRCLE
  5
35E
100
AcDbEntity
  8
universal_board
  6
ByLayer
 62
  256
370
   -1
100
AcDbCircle
 10
-84.45999999999722
 20
30.91999999999943
 40
0.5
  0
CIRCLE
  5
35F
100
AcDbEntity
  8
universal_board
  6
ByLayer
 62
  256
370
   -1
100
AcDbCircle
 10
-81.91999999999733
 20
30.91999999999945
 40
0.5
  0
CIRCLE
  5
360
100
AcDbEntity
  8
universal_board
  6
ByLayer
 62
  256
370
   -1
100
AcDbCircle
 10
-99.69999999999656
 20
30.91999999999937
 40
0.5
  0
CIRCLE
  5
361
100
AcDbEntity
  8
universal_board
  6
ByLayer
 62
  256
370
   -1
100
AcDbCircle
 10
-102.2399999999964
 20
30.9199999999994
 40
0.5
  0
CIRCLE
  5
362
100
AcDbEntity
  8
universal_board
  6
ByLayer
 62
  256
370
   -1
100
AcDbCircle
 10
-104.7799999999963
 20
30.91999999999937
 40
0.5
  0
CIRCLE
  5
363
100
AcDbEntity
  8
universal_board
  6
ByLayer
 62
  256
370
   -1
100
AcDbCircle
 10
-107.3199999999962
 20
30.91999999999937
 40
0.5
  0
CIRCLE
  5
364
100
AcDbEntity
  8
universal_board
  6
ByLayer
 62
  256
370
   -1
100
AcDbCircle
 10
-109.8599999999961
 20
30.91999999999934
 40
0.5
  0
CIRCLE
  5
365
100
AcDbEntity
  8
universal_board
  6
ByLayer
 62
  256
370
   -1
100
AcDbCircle
 10
-112.399999999996
 20
30.91999999999937
 40
0.5
  0
CIRCLE
  5
366
100
AcDbEntity
  8
universal_board
  6
ByLayer
 62
  256
370
   -1
100
AcDbCircle
 10
-114.9399999999958
 20
30.91999999999937
 40
0.5
  0
CIRCLE
  5
367
100
AcDbEntity
  8
universal_board
  6
ByLayer
 62
  256
370
   -1
100
AcDbCircle
 10
-117.4799999999958
 20
30.91999999999931
 40
0.5
  0
CIRCLE
  5
368
100
AcDbEntity
  8
universal_board
  6
ByLayer
 62
  256
370
   -1
100
AcDbCircle
 10
-97.1599999999967
 20
33.45999999999939
 40
0.5
  0
CIRCLE
  5
369
100
AcDbEntity
  8
universal_board
  6
ByLayer
 62
  256
370
   -1
100
AcDbCircle
 10
-94.61999999999679
 20
33.45999999999942
 40
0.5
  0
CIRCLE
  5
36A
100
AcDbEntity
  8
universal_board
  6
ByLayer
 62
  256
370
   -1
100
AcDbCircle
 10
-92.07999999999691
 20
33.45999999999942
 40
0.5
  0
CIRCLE
  5
36B
100
AcDbEntity
  8
universal_board
  6
ByLayer
 62
  256
370
   -1
100
AcDbCircle
 10
-89.53999999999704
 20
33.45999999999945
 40
0.5
  0
CIRCLE
  5
36C
100
AcDbEntity
  8
universal_board
  6
ByLayer
 62
  256
370
   -1
100
AcDbCircle
 10
-86.99999999999713
 20
33.45999999999945
 40
0.5
  0
CIRCLE
  5
36D
100
AcDbEntity
  8
universal_board
  6
ByLayer
 62
  256
370
   -1
100
AcDbCircle
 10
-84.45999999999722
 20
33.45999999999945
 40
0.5
  0
CIRCLE
  5
36E
100
AcDbEntity
  8
universal_board
  6
ByLayer
 62
  256
370
   -1
100
AcDbCircle
 10
-81.91999999999734
 20
33.45999999999948
 40
0.5
  0
CIRCLE
  5
36F
100
AcDbEntity
  8
universal_board
  6
ByLayer
 62
  256
370
   -1
100
AcDbCircle
 10
-99.69999999999658
 20
33.45999999999939
 40
0.5
  0
CIRCLE
  5
370
100
AcDbEntity
  8
universal_board
  6
ByLayer
 62
  256
370
   -1
100
AcDbCircle
 10
-102.2399999999965
 20
33.45999999999942
 40
0.5
  0
CIRCLE
  5
371
100
AcDbEntity
  8
universal_board
  6
ByLayer
 62
  256
370
   -1
100
AcDbCircle
 10
-104.7799999999963
 20
33.45999999999939
 40
0.5
  0
CIRCLE
  5
372
100
AcDbEntity
  8
universal_board
  6
ByLayer
 62
  256
370
   -1
100
AcDbCircle
 10
-107.3199999999962
 20
33.45999999999939
 40
0.5
  0
CIRCLE
  5
373
100
AcDbEntity
  8
universal_board
  6
ByLayer
 62
  256
370
   -1
100
AcDbCircle
 10
-109.8599999999961
 20
33.45999999999936
 40
0.5
  0
CIRCLE
  5
374
100
AcDbEntity
  8
universal_board
  6
ByLayer
 62
  256
370
   -1
100
AcDbCircle
 10
-112.399999999996
 20
33.45999999999939
 40
0.5
  0
CIRCLE
  5
375
100
AcDbEntity
  8
universal_board
  6
ByLayer
 62
  256
370
   -1
100
AcDbCircle
 10
-114.9399999999958
 20
33.45999999999939
 40
0.5
  0
CIRCLE
  5
376
100
AcDbEntity
  8
universal_board
  6
ByLayer
 62
  256
370
   -1
100
AcDbCircle
 10
-117.4799999999958
 20
33.45999999999933
 40
0.5
  0
LINE
  5
377
100
AcDbEntity
  8
universal_board
  6
ByLayer
 62
  256
370
   -1
100
AcDbLine
 10
-80.64999999999736
 20
-0.8300000000009149
 11
-80.64999999999753
 21
34.72999999999929
  0
CIRCLE
  5
378
100
AcDbEntity
  8
universal_board
  6
ByLayer
 62
  256
370
   -1
100
AcDbCircle
 10
-120.0199999999956
 20
0.4399999999990314
 40
0.5
  0
CIRCLE
  5
379
100
AcDbEntity
  8
universal_board
  6
ByLayer
 62
  256
370
   -1
100
AcDbCircle
 10
-120.0199999999956
 20
2.979999999999059
 40
0.5
  0
CIRCLE
  5
37A
100
AcDbEntity
  8
universal_board
  6
ByLayer
 62
  256
370
   -1
100
AcDbCircle
 10
-120.0199999999956
 20
5.519999999999079
 40
0.5
  0
CIRCLE
  5
37B
100
AcDbEntity
  8
universal_board
  6
ByLayer
 62
  256
370
   -1
100
AcDbCircle
 10
-120.0199999999956
 20
8.059999999999079
 40
0.5
  0
CIRCLE
  5
37C
100
AcDbEntity
  8
universal_board
  6
ByLayer
 62
  256
370
   -1
100
AcDbCircle
 10
-120.0199999999956
 20
10.59999999999912
 40
0.5
  0
CIRCLE
  5
37D
100
AcDbEntity
  8
universal_board
  6
ByLayer
 62
  256
370
   -1
100
AcDbCircle
 10
-120.0199999999957
 20
13.13999999999914
 40
0.5
  0
CIRCLE
  5
37E
100
AcDbEntity
  8
universal_board
  6
ByLayer
 62
  256
370
   -1
100
AcDbCircle
 10
-120.0199999999957
 20
15.67999999999917
 40
0.5
  0
CIRCLE
  5
37F
100
AcDbEntity
  8
universal_board
  6
ByLayer
 62
  256
370
   -1
100
AcDbCircle
 10
-120.0199999999957
 20
18.21999999999918
 40
0.5
  0
CIRCLE
  5
380
100
AcDbEntity
  8
universal_board
  6
ByLayer
 62
  256
370
   -1
100
AcDbCircle
 10
-120.0199999999957
 20
20.75999999999921
 40
0.5
  0
CIRCLE
  5
381
100
AcDbEntity
  8
universal_board
  6
ByLayer
 62
  256
370
   -1
100
AcDbCircle
 10
-120.0199999999957
 20
23.29999999999922
 40
0.5
  0
CIRCLE
  5
382
100
AcDbEntity
  8
universal_board
  6
ByLayer
 62
  256
370
   -1
100
AcDbCircle
 10
-120.0199999999957
 20
25.83999999999924
 40
0.5
  0
CIRCLE
  5
383
100
AcDbEntity
  8
universal_board
  6
ByLayer
 62
  256
370
   -1
100
AcDbCircle
 10
-120.0199999999957
 20
28.37999999999926
 40
0.5
  0
CIRCLE
  5
384
100
AcDbEntity
  8
universal_board
  6
ByLayer
 62
  256
370
   -1
100
AcDbCircle
 10
-120.0199999999957
 20
30.91999999999926
 40
0.5
  0
CIRCLE
  5
385
100
AcDbEntity
  8
universal_board
  6
ByLayer
 62
  256
370
   -1
100
AcDbCircle
 10
-120.0199999999957
 20
33.45999999999928
 40
0.5
  0
CIRCLE
  5
386
100
AcDbEntity
  8
universal_board
  6
ByLayer
 62
  256
370
   -1
100
AcDbCircle
 10
-122.5599999999955
 20
0.4399999999989745
 40
0.5
  0
CIRCLE
  5
387
100
AcDbEntity
  8
universal_board
  6
ByLayer
 62
  256
370
   -1
100
AcDbCircle
 10
-122.5599999999955
 20
2.979999999999002
 40
0.5
  0
CIRCLE
  5
388
100
AcDbEntity
  8
universal_board
  6
ByLayer
 62
  256
370
   -1
100
AcDbCircle
 10
-122.5599999999955
 20
5.519999999999023
 40
0.5
  0
CIRCLE
  5
389
100
AcDbEntity
  8
universal_board
  6
ByLayer
 62
  256
370
   -1
100
AcDbCircle
 10
-122.5599999999955
 20
8.059999999999022
 40
0.5
  0
CIRCLE
  5
38A
100
AcDbEntity
  8
universal_board
  6
ByLayer
 62
  256
370
   -1
100
AcDbCircle
 10
-122.5599999999955
 20
10.59999999999906
 40
0.5
  0
CIRCLE
  5
38B
100
AcDbEntity
  8
universal_board
  6
ByLayer
 62
  256
370
   -1
100
AcDbCircle
 10
-122.5599999999956
 20
13.13999999999908
 40
0.5
  0
CIRCLE
  5
38C
100
AcDbEntity
  8
universal_board
  6
ByLayer
 62
  256
370
   -1
100
AcDbCircle
 10
-122.5599999999956
 20
15.67999999999911
 40
0.5
  0
CIRCLE
  5
38D
100
AcDbEntity
  8
universal_board
  6
ByLayer
 62
  256
370
   -1
100
AcDbCircle
 10
-122.5599999999956
 20
18.21999999999912
 40
0.5
  0
CIRCLE
  5
38E
100
AcDbEntity
  8
universal_board
  6
ByLayer
 62
  256
370
   -1
100
AcDbCircle
 10
-122.5599999999956
 20
20.75999999999915
 40
0.5
  0
CIRCLE
  5
38F
100
AcDbEntity
  8
universal_board
  6
ByLayer
 62
  256
370
   -1
100
AcDbCircle
 10
-122.5599999999956
 20
23.29999999999916
 40
0.5
  0
CIRCLE
  5
390
100
AcDbEntity
  8
universal_board
  6
ByLayer
 62
  256
370
   -1
100
AcDbCircle
 10
-122.5599999999956
 20
25.83999999999919
 40
0.5
  0
CIRCLE
  5
391
100
AcDbEntity
  8
universal_board
  6
ByLayer
 62
  256
370
   -1
100
AcDbCircle
 10
-122.5599999999956
 20
28.37999999999921
 40
0.5
  0
CIRCLE
  5
392
100
AcDbEntity
  8
universal_board
  6
ByLayer
 62
  256
370
   -1
100
AcDbCircle
 10
-122.5599999999956
 20
30.9199999999992
 40
0.5
  0
CIRCLE
  5
393
100
AcDbEntity
  8
universal_board
  6
ByLayer
 62
  256
370
   -1
100
AcDbCircle
 10
-122.5599999999956
 20
33.45999999999922
 40
0.5
  0
LINE
  5
394
100
AcDbEntity
  8
universal_board
  6
ByLayer
 62
  256
370
   -1
100
AcDbLine
 10
-123.8299999999956
 20
34.72999999999909
 11
-123.8299999999955
 21
-0.8300000000011352
  0
LINE
  5
395
100
AcDbEntity
  8
universal_board
  6
ByLayer
 62
  256
370
   -1
100
AcDbLine
 10
-80.64999999999753
 20
-0.8300000000009149
 11
-123.8299999999955
 21
-0.8300000000010357
  0
LINE
  5
396
100
AcDbEntity
  8
universal_board
  6
ByLayer
 62
  256
370
   -1
100
AcDbLine
 10
-80.64999999999753
 20
34.7299999999993
 11
-123.8299999999956
 21
34.7299999999992
  0
LINE
  5
397
100
AcDbEntity
  8
0_GND
  6
ByLayer
 62
  256
370
  200
100
AcDbLine
 10
-86.99999999999709
 20
15.67999999999931
 11
-89.53999999999708
 21
15.67999999999935
  0
LINE
  5
398
100
AcDbEntity
  8
0_GND
  6
ByLayer
 62
  256
370
  200
100
AcDbLine
 10
-89.53999999999708
 20
15.67999999999935
 11
-89.53999999999705
 21
10.59999999999928
  0
LINE
  5
399
100
AcDbEntity
  8
0_GND
  6
ByLayer
 62
  256
370
  200
100
AcDbLine
 10
-89.53999999999705
 20
10.59999999999928
 11
-94.61999999999685
 21
10.59999999999928
  0
LINE
  5
39A
100
AcDbEntity
  8
0_GND
  6
ByLayer
 62
  256
370
  200
100
AcDbLine
 10
-94.61999999999685
 20
10.59999999999928
 11
-97.15999999999666
 21
10.59999999999928
  0
LINE
  5
39B
100
AcDbEntity
  8
5V line
  6
ByLayer
 62
  256
370
  200
100
AcDbLine
 10
-86.99999999999712
 20
20.75999999999936
 11
-89.53999999999711
 21
20.75999999999938
  0
LINE
  5
39C
100
AcDbEntity
  8
0_wire
  6
ByLayer
 62
  256
370
  200
100
AcDbLine
 10
-104.7799999999963
 20
0.439999999999138
 11
-104.7799999999963
 21
2.979999999999158
  0
LINE
  5
39D
100
AcDbEntity
  8
0_wire
  6
ByLayer
 62
  256
370
  200
100
AcDbLine
 10
-104.7799999999963
 20
2.979999999999158
 11
-112.399999999996
 21
2.979999999999151
  0
LINE
  5
39E
100
AcDbEntity
  8
0_wire
  6
ByLayer
 62
  256
370
  200
100
AcDbLine
 10
-102.2399999999964
 20
5.519999999999229
 11
-102.2399999999964
 21
0.4399999999991522
  0
LINE
  5
39F
100
AcDbEntity
  8
0_GND
  6
ByLayer
 62
  256
370
  200
100
AcDbLine
 10
-97.15999999999666
 20
8.059999999999235
 11
-97.15999999999666
 21
10.59999999999928
  0
LINE
  5
3A0
100
AcDbEntity
  8
0_wire
  6
ByLayer
 62
  256
370
  200
100
AcDbLine
 10
-104.7799999999963
 20
0.439999999999138
 11
-107.3199999999962
 21
0.439999999999138
  0
LINE
  5
3A1
100
AcDbEntity
  8
0_wire
  6
ByLayer
 62
  256
370
  200
100
AcDbLine
 10
-102.2399999999964
 20
0.4399999999991522
 11
-99.69999999999649
 21
0.4399999999991593
  0
LINE
  5
3A2
100
AcDbEntity
  8
0_GND
  6
ByLayer
 62
  256
370
  200
100
AcDbLine
 10
-97.1599999999962
 20
0.4399999999991806
 11
-97.15999999999666
 21
8.059999999999235
  0
LINE
  5
3A3
100
AcDbEntity
  8
0_GND
  6
ByLayer
 62
  256
370
  200
100
AcDbLine
 10
-122.5599999999956
 20
18.21999999999925
 11
-120.0199999999957
 21
18.21999999999925
  0
LINE
  5
3A4
100
AcDbEntity
  8
0_GND
  6
ByLayer
 62
  256
370
  200
100
AcDbLine
 10
-120.0199999999956
 20
0.4399999999991024
 11
-109.8599999999963
 21
0.4399999999991095
  0
LINE
  5
3A5
100
AcDbEntity
  8
0_wire
  6
ByLayer
 62
  256
370
  200
100
AcDbLine
 10
-92.07999999999696
 20
8.05999999999927
 11
-94.61999999999685
 21
8.059999999999256
  0
LINE
  5
3A6
100
AcDbEntity
  8
0_GND
  6
ByLayer
 62
  256
370
  200
100
AcDbLine
 10
-120.0199999999957
 20
18.21999999999925
 11
-120.0199999999957
 21
10.59999999999921
  0
LINE
  5
3A7
100
AcDbEntity
  8
0_wire
  6
ByLayer
 62
  256
370
  200
100
AcDbLine
 10
-114.9399999999959
 20
2.979999999999144
 11
-112.399999999996
 21
2.979999999999151
  0
LINE
  5
3A8
100
AcDbEntity
  8
0_wire
  6
ByLayer
 62
  256
370
  200
100
AcDbLine
 10
-109.8599999999961
 20
5.519999999999186
 11
-112.399999999996
 21
5.519999999999172
  0
LINE
  5
3A9
100
AcDbEntity
  8
0_wire
  6
ByLayer
 62
  256
370
  200
100
AcDbLine
 10
-122.5599999999956
 20
8.059999999999178
 11
-117.4799999999958
 21
8.059999999999171
  0
LINE
  5
3AA
100
AcDbEntity
  8
5V line
  6
ByLayer
 62
  256
370
  200
100
AcDbLine
 10
-89.53999999999719
 20
33.45999999999946
 11
-102.2399999999965
 21
33.45999999999942
  0
LINE
  5
3AB
100
AcDbEntity
  8
5V line
  6
ByLayer
 62
  256
370
  200
100
AcDbLine
 10
-89.53999999999711
 20
20.75999999999938
 11
-89.53999999999719
 21
33.45999999999946
  0
LINE
  5
3AC
100
AcDbEntity
  8
5V line
  6
ByLayer
 62
  256
370
  200
100
AcDbLine
 10
-102.2399999999965
 20
33.45999999999942
 11
-102.2399999999966
 21
30.9199999999994
  0
LINE
  5
3AD
100
AcDbEntity
  8
5V line
  6
ByLayer
 62
  256
370
  200
100
AcDbLine
 10
-102.2399999999965
 20
33.45999999999942
 11
-117.4799999999959
 21
33.45999999999936
  0
LINE
  5
3AE
100
AcDbEntity
  8
5V line
  6
ByLayer
 62
  256
370
  200
100
AcDbLine
 10
-117.4799999999959
 20
33.45999999999936
 11
-117.4799999999959
 21
30.91999999999933
  0
LINE
  5
3AF
100
AcDbEntity
  8
5V line
  6
ByLayer
 62
  256
370
  200
100
AcDbLine
 10
-104.7799999999964
 20
25.83999999999934
 11
-104.7799999999964
 21
33.45999999999938
  0
LINE
  5
3B0
100
AcDbEntity
  8
5V line
  6
ByLayer
 62
  256
370
  200
100
AcDbLine
 10
-104.7799999999964
 20
15.67999999999928
 11
-102.2399999999965
 21
15.67999999999928
  0
LINE
  5
3B1
100
AcDbEntity
  8
0_wire
  6
ByLayer
 62
  256
370
  200
100
AcDbLine
 10
-94.61999999999688
 20
15.67999999999932
 11
-92.07999999999699
 21
15.67999999999933
  0
LINE
  5
3B2
100
AcDbEntity
  8
0_GND
  6
ByLayer
 62
  256
370
  200
100
AcDbLine
 10
-97.15999999999674
 20
25.83999999999939
 11
-102.2399999999965
 21
25.83999999999937
  0
LINE
  5
3B3
100
AcDbEntity
  8
0_GND
  6
ByLayer
 62
  256
370
  200
100
AcDbLine
 10
-102.2399999999965
 20
20.75999999999932
 11
-97.15999999999671
 21
20.75999999999934
  0
LINE
  5
3B4
100
AcDbEntity
  8
0_GND
  6
ByLayer
 62
  256
370
  200
100
AcDbLine
 10
-97.15999999999666
 20
10.59999999999928
 11
-97.15999999999674
 21
25.8399999999994
  0
LINE
  5
3B5
100
AcDbEntity
  8
0_wire
  6
ByLayer
 62
  256
370
  200
100
AcDbLine
 10
-109.8599999999962
 20
30.91999999999936
 11
-107.3199999999963
 21
30.91999999999934
  0
LINE
  5
3B6
100
AcDbEntity
  8
0_wire
  6
ByLayer
 62
  256
370
  200
100
AcDbLine
 10
-114.9399999999959
 20
30.91999999999938
 11
-114.9399999999959
 21
2.979999999999144
  0
LINE
  5
3B7
100
AcDbEntity
  8
0_wire
  6
ByLayer
 62
  256
370
  200
100
AcDbLine
 10
-114.939999999996
 20
30.91999999999935
 11
-109.8599999999962
 21
30.91999999999936
  0
LINE
  5
3B8
100
AcDbEntity
  8
0_wire
  6
ByLayer
 62
  256
370
  200
100
AcDbLine
 10
-109.8599999999962
 20
28.37999999999936
 11
-107.3199999999963
 21
28.37999999999935
  0
LINE
  5
3B9
100
AcDbEntity
  8
0_wire
  6
ByLayer
 62
  256
370
  200
100
AcDbLine
 10
-107.3199999999963
 20
28.37999999999935
 11
-107.3199999999963
 21
23.29999999999933
  0
LINE
  5
3BA
100
AcDbEntity
  8
0_wire
  6
ByLayer
 62
  256
370
  200
100
AcDbLine
 10
-112.399999999996
 20
5.519999999999172
 11
-112.3999999999961
 21
28.37999999999937
  0
LINE
  5
3BB
100
AcDbEntity
  8
0_wire
  6
ByLayer
 62
  256
370
  200
100
AcDbLine
 10
-112.3999999999961
 20
28.37999999999934
 11
-109.8599999999962
 21
28.37999999999936
  0
LINE
  5
3BC
100
AcDbEntity
  8
0_wire
  6
ByLayer
 62
  256
370
  200
100
AcDbLine
 10
-107.3199999999963
 20
23.29999999999933
 11
-102.2399999999965
 21
23.29999999999936
  0
LINE
  5
3BD
100
AcDbEntity
  8
0_wire
  6
ByLayer
 62
  256
370
  200
100
AcDbLine
 10
-107.3199999999963
 20
23.29999999999933
 11
-107.3199999999962
 21
18.21999999999927
  0
LINE
  5
3BE
100
AcDbEntity
  8
0_wire
  6
ByLayer
 62
  256
370
  200
100
AcDbLine
 10
-107.3199999999962
 20
18.21999999999927
 11
-102.2399999999965
 21
18.2199999999993
  0
LINE
  5
3BF
100
AcDbEntity
  8
0_GND
  6
ByLayer
 62
  256
370
  200
100
AcDbLine
 10
-97.15999999999669
 20
13.13999999999929
 11
-94.61999999999688
 21
13.13999999999929
  0
LINE
  5
3C0
100
AcDbEntity
  8
0_GND
  6
ByLayer
 62
  256
370
  200
100
AcDbLine
 10
-109.8599999999961
 20
15.67999999999924
 11
-109.8599999999961
 21
10.59999999999921
  0
LINE
  5
3C1
100
AcDbEntity
  8
0_GND
  6
ByLayer
 62
  256
370
  200
100
AcDbLine
 10
-97.15999999999666
 20
10.59999999999928
 11
-109.8599999999961
 21
10.59999999999921
  0
LINE
  5
3C2
100
AcDbEntity
  8
0_GND
  6
ByLayer
 62
  256
370
  200
100
AcDbLine
 10
-122.5599999999956
 20
20.75999999999925
 11
-120.0199999999957
 21
20.75999999999927
  0
LINE
  5
3C3
100
AcDbEntity
  8
0_GND
  6
ByLayer
 62
  256
370
  200
100
AcDbLine
 10
-120.0199999999957
 20
20.75999999999927
 11
-120.0199999999957
 21
18.21999999999925
  0
LINE
  5
3C4
100
AcDbEntity
  8
5V line
  6
ByLayer
 62
  256
370
  200
100
AcDbLine
 10
-86.99999999999712
 20
20.75999999999936
 11
-81.91999999999733
 21
20.75999999999928
  0
LINE
  5
3C5
100
AcDbEntity
  8
0_GND
  6
ByLayer
 62
  256
370
  200
100
AcDbLine
 10
-86.99999999999709
 20
15.67999999999931
 11
-81.9199999999973
 21
15.67999999999923
  0
LINE
  5
3C6
100
AcDbEntity
  8
0_wire
  6
ByLayer
 62
  256
370
  200
100
AcDbLine
 10
-86.99999999999713
 20
2.979999999999201
 11
-81.91999999999734
 21
2.97999999999913
  0
LINE
  5
3C7
100
AcDbEntity
  8
0_wire
  6
ByLayer
 62
  256
370
  200
100
AcDbLine
 10
-86.9999999999971
 20
0.4399999999991877
 11
-81.91999999999732
 21
0.4399999999990882
  0
CIRCLE
  5
3C8
100
AcDbEntity
  8
0_wire
  6
ByLayer
 62
  256
370
  200
100
AcDbCircle
 10
-102.2399999999931
 20
13.13999999999967
 40
0.4
  0
CIRCLE
  5
3C9
100
AcDbEntity
  8
0_wire
  6
ByLayer
 62
  256
370
  200
100
AcDbCircle
 10
-102.2399999999932
 20
28.37999999999966
 40
0.4
  0
CIRCLE
  5
3CA
100
AcDbEntity
  8
0_wire
  6
ByLayer
 62
  256
370
  200
100
AcDbCircle
 10
-86.9999999999972
 20
33.45999999999942
 40
0.4
  0
CIRCLE
  5
3CB
100
AcDbEntity
  8
0_wire
  6
ByLayer
 62
  256
370
  200
100
AcDbCircle
 10
-86.99999999999717
 20
30.9199999999994
 40
0.4
  0
CIRCLE
  5
3CC
100
AcDbEntity
  8
0_wire
  6
ByLayer
 62
  256
370
  200
100
AcDbCircle
 10
-86.99999999999712
 20
18.21999999999933
 40
0.4
  0
CIRCLE
  5
3CD
100
AcDbEntity
  8
0_wire
  6
ByLayer
 62
  256
370
  200
100
AcDbCircle
 10
-94.61999999999686
 20
30.91999999999938
 40
0.4
  0
CIRCLE
  5
3CE
100
AcDbEntity
  8
0_wire
  6
ByLayer
 62
  256
370
  200
100
AcDbCircle
 10
-94.61999999999686
 20
28.37999999999939
 40
0.4
  0
CIRCLE
  5
3CF
100
AcDbEntity
  8
0_wire
  6
ByLayer
 62
  256
370
  200
100
AcDbCircle
 10
-94.61999999999684
 20
25.8399999999994
 40
0.4
  0
CIRCLE
  5
3D0
100
AcDbEntity
  8
0_wire
  6
ByLayer
 62
  256
370
  200
100
AcDbCircle
 10
-94.61999999999684
 20
23.29999999999936
 40
0.4
  0
CIRCLE
  5
3D1
100
AcDbEntity
  8
0_wire
  6
ByLayer
 62
  256
370
  200
100
AcDbCircle
 10
-94.61999999999681
 20
20.75999999999935
 40
0.4
  0
CIRCLE
  5
3D2
100
AcDbEntity
  8
0_wire
  6
ByLayer
 62
  256
370
  200
100
AcDbCircle
 10
-94.61999999999681
 20
18.21999999999933
 40
0.4
  0
CIRCLE
  5
3D3
100
AcDbEntity
  8
0_wire
  6
ByLayer
 62
  256
370
  200
100
AcDbCircle
 10
-109.8599999999962
 20
25.83999999999934
 40
0.4
  0
CIRCLE
  5
3D4
100
AcDbEntity
  8
0_wire
  6
ByLayer
 62
  256
370
  200
100
AcDbCircle
 10
-109.8599999999962
 20
23.29999999999932
 40
0.4
  0
CIRCLE
  5
3D5
100
AcDbEntity
  8
0_wire
  6
ByLayer
 62
  256
370
  200
100
AcDbCircle
 10
-109.8599999999961
 20
20.75999999999927
 40
0.4
  0
CIRCLE
  5
3D6
100
AcDbEntity
  8
0_wire
  6
ByLayer
 62
  256
370
  200
100
AcDbCircle
 10
-109.8599999999961
 20
18.21999999999927
 40
0.4
  0
CIRCLE
  5
3D7
100
AcDbEntity
  8
0_wire
  6
ByLayer
 62
  256
370
  200
100
AcDbCircle
 10
-117.4799999999959
 20
28.37999999999934
 40
0.4
  0
CIRCLE
  5
3D8
100
AcDbEntity
  8
0_wire
  6
ByLayer
 62
  256
370
  200
100
AcDbCircle
 10
-117.4799999999959
 20
25.83999999999932
 40
0.4
  0
CIRCLE
  5
3D9
100
AcDbEntity
  8
0_wire
  6
ByLayer
 62
  256
370
  200
100
AcDbCircle
 10
-117.4799999999958
 20
23.29999999999929
 40
0.4
  0
CIRCLE
  5
3DA
100
AcDbEntity
  8
0_wire
  6
ByLayer
 62
  256
370
  200
100
AcDbCircle
 10
-117.4799999999958
 20
20.75999999999927
 40
0.4
  0
CIRCLE
  5
3DB
100
AcDbEntity
  8
0_wire
  6
ByLayer
 62
  256
370
  200
100
AcDbCircle
 10
-117.4799999999958
 20
18.21999999999925
 40
0.4
  0
CIRCLE
  5
3DC
100
AcDbEntity
  8
0_wire
  6
ByLayer
 62
  256
370
  200
100
AcDbCircle
 10
-117.4799999999958
 20
15.67999999999923
 40
0.4
  0
CIRCLE
  5
3DD
100
AcDbEntity
  8
0_wire
  6
ByLayer
 62
  256
370
  200
100
AcDbCircle
 10
-122.5599999999957
 20
33.45999999999935
 40
0.4
  0
CIRCLE
  5
3DE
100
AcDbEntity
  8
0_wire
  6
ByLayer
 62
  256
370
  200
100
AcDbCircle
 10
-122.5599999999956
 20
30.91999999999933
 40
0.4
  0
CIRCLE
  5
3DF
100
AcDbEntity
  8
0_wire
  6
ByLayer
 62
  256
370
  200
100
AcDbCircle
 10
-122.5599999999956
 20
10.59999999999919
 40
0.4
  0
CIRCLE
  5
3E0
100
AcDbEntity
  8
0_wire
  6
ByLayer
 62
  256
370
  200
100
AcDbCircle
 10
-122.5599999999955
 20
5.51999999999915
 40
0.4
  0
CIRCLE
  5
3E1
100
AcDbEntity
  8
0_wire
  6
ByLayer
 62
  256
370
  200
100
AcDbCircle
 10
-122.5599999999955
 20
2.97999999999913
 40
0.4
  0
CIRCLE
  5
3E2
100
AcDbEntity
  8
0_wire
  6
ByLayer
 62
  256
370
  200
100
AcDbCircle
 10
-122.5599999999955
 20
0.4399999999991095
 40
0.4
  0
CIRCLE
  5
3E3
100
AcDbEntity
  8
0_wire
  6
ByLayer
 62
  256
370
  200
100
AcDbCircle
 10
-81.91999999999733
 20
18.21999999999925
 40
0.4
  0
LINE
  5
3E4
100
AcDbEntity
  8
0_wire
  6
ByLayer
 62
  256
370
  200
100
AcDbLine
 10
-92.07999999999699
 20
15.67999999999933
 11
-92.07999999999699
 21
13.1399999999993
  0
LINE
  5
3E5
100
AcDbEntity
  8
0_wire
  6
ByLayer
 62
  256
370
  200
100
AcDbLine
 10
-99.69999999999655
 20
8.059999999999214
 11
-109.8599999999961
 21
8.059999999999192
  0
LINE
  5
3E6
100
AcDbEntity
  8
0_GND
  6
ByLayer
 62
  256
370
  200
100
AcDbLine
 10
-120.0199999999956
 20
5.519999999999122
 11
-120.0199999999956
 21
0.4399999999991024
  0
LINE
  5
3E7
100
AcDbEntity
  8
0_GND
  6
ByLayer
 62
  256
370
  200
100
AcDbLine
 10
-89.53999999999708
 20
15.67999999999935
 11
-89.53999999999711
 21
18.21999999999936
  0
LINE
  5
3E8
100
AcDbEntity
  8
0_GND
  6
ByLayer
 62
  256
370
  200
100
AcDbLine
 10
-89.53999999999711
 20
18.21999999999936
 11
-92.07999999999701
 21
18.21999999999935
  0
LINE
  5
3E9
100
AcDbEntity
  8
0_GND
  6
ByLayer
 62
  256
370
  200
100
AcDbLine
 10
-92.07999999999701
 20
18.21999999999935
 11
-92.07999999999701
 21
20.75999999999937
  0
LINE
  5
3EA
100
AcDbEntity
  8
universal_board
  6
ByLayer
 62
  256
370
   -1
100
AcDbLine
 10
-121.2899999999957
 20
34.72999999999914
 11
-121.2899999999956
 21
-0.8300000000010783
  0
LINE
  5
3EB
100
AcDbEntity
  8
universal_board
  6
ByLayer
 62
  256
370
   -1
100
AcDbLine
 10
-118.7499999999958
 20
34.7299999999992
 11
-118.7499999999957
 21
-0.8300000000010215
  0
LINE
  5
3EC
100
AcDbEntity
  8
universal_board
  6
ByLayer
 62
  256
370
   -1
100
AcDbLine
 10
-116.2099999999959
 20
34.72999999999926
 11
-116.2099999999958
 21
-0.8300000000009646
  0
LINE
  5
3ED
100
AcDbEntity
  8
universal_board
  6
ByLayer
 62
  256
370
   -1
100
AcDbLine
 10
-113.669999999996
 20
34.72999999999931
 11
-113.6699999999959
 21
-0.8300000000009078
  0
LINE
  5
3EE
100
AcDbEntity
  8
universal_board
  6
ByLayer
 62
  256
370
   -1
100
AcDbLine
 10
-111.1299999999961
 20
34.72999999999937
 11
-111.129999999996
 21
-0.8300000000008509
  0
LINE
  5
3EF
100
AcDbEntity
  8
universal_board
  6
ByLayer
 62
  256
370
   -1
100
AcDbLine
 10
-108.5899999999962
 20
34.72999999999943
 11
-108.5899999999961
 21
-0.8300000000007941
  0
LINE
  5
3F0
100
AcDbEntity
  8
universal_board
  6
ByLayer
 62
  256
370
   -1
100
AcDbLine
 10
-106.0499999999963
 20
34.72999999999949
 11
-106.0499999999962
 21
-0.8300000000007373
  0
LINE
  5
3F1
100
AcDbEntity
  8
universal_board
  6
ByLayer
 62
  256
370
   -1
100
AcDbLine
 10
-103.5099999999965
 20
34.72999999999954
 11
-103.5099999999963
 21
-0.8300000000006804
  0
LINE
  5
3F2
100
AcDbEntity
  8
universal_board
  6
ByLayer
 62
  256
370
   -1
100
AcDbLine
 10
-100.9699999999966
 20
34.7299999999996
 11
-100.9699999999964
 21
-0.8300000000006236
  0
LINE
  5
3F3
100
AcDbEntity
  8
universal_board
  6
ByLayer
 62
  256
370
   -1
100
AcDbLine
 10
-98.42999999999667
 20
34.72999999999966
 11
-98.42999999999655
 21
-0.8300000000005667
  0
LINE
  5
3F4
100
AcDbEntity
  8
universal_board
  6
ByLayer
 62
  256
370
   -1
100
AcDbLine
 10
-95.88999999999677
 20
34.72999999999971
 11
-95.88999999999666
 21
-0.8300000000005099
  0
LINE
  5
3F5
100
AcDbEntity
  8
universal_board
  6
ByLayer
 62
  256
370
   -1
100
AcDbLine
 10
-93.34999999999688
 20
34.72999999999977
 11
-93.34999999999677
 21
-0.830000000000453
  0
LINE
  5
3F6
100
AcDbEntity
  8
universal_board
  6
ByLayer
 62
  256
370
   -1
100
AcDbLine
 10
-90.80999999999699
 20
34.72999999999983
 11
-90.80999999999688
 21
-0.8300000000003962
  0
LINE
  5
3F7
100
AcDbEntity
  8
universal_board
  6
ByLayer
 62
  256
370
   -1
100
AcDbLine
 10
-88.2699999999971
 20
34.72999999999988
 11
-88.26999999999698
 21
-0.8300000000003394
  0
LINE
  5
3F8
100
AcDbEntity
  8
universal_board
  6
ByLayer
 62
  256
370
   -1
100
AcDbLine
 10
-85.7299999999972
 20
34.72999999999994
 11
-85.72999999999709
 21
-0.8300000000002825
  0
LINE
  5
3F9
100
AcDbEntity
  8
universal_board
  6
ByLayer
 62
  256
370
   -1
100
AcDbLine
 10
-83.18999999999731
 20
34.73
 11
-83.1899999999972
 21
-0.8300000000002257
  0
LINE
  5
3FA
100
AcDbEntity
  8
universal_board
  6
ByLayer
 62
  256
370
   -1
100
AcDbLine
 10
-80.64999999999753
 20
1.709999999999106
 11
-123.8299999999955
 21
1.709999999998985
  0
LINE
  5
3FB
100
AcDbEntity
  8
universal_board
  6
ByLayer
 62
  256
370
   -1
100
AcDbLine
 10
-80.64999999999753
 20
4.249999999999126
 11
-123.8299999999955
 21
4.249999999999005
  0
LINE
  5
3FC
100
AcDbEntity
  8
universal_board
  6
ByLayer
 62
  256
370
   -1
100
AcDbLine
 10
-80.64999999999753
 20
6.789999999999146
 11
-123.8299999999955
 21
6.789999999999026
  0
LINE
  5
3FD
100
AcDbEntity
  8
universal_board
  6
ByLayer
 62
  256
370
   -1
100
AcDbLine
 10
-80.64999999999753
 20
9.329999999999167
 11
-123.8299999999955
 21
9.329999999999046
  0
LINE
  5
3FE
100
AcDbEntity
  8
universal_board
  6
ByLayer
 62
  256
370
   -1
100
AcDbLine
 10
-80.64999999999753
 20
11.86999999999919
 11
-123.8299999999955
 21
11.86999999999907
  0
LINE
  5
3FF
100
AcDbEntity
  8
universal_board
  6
ByLayer
 62
  256
370
   -1
100
AcDbLine
 10
-80.64999999999753
 20
14.40999999999921
 11
-123.8299999999955
 21
14.40999999999909
  0
LINE
  5
400
100
AcDbEntity
  8
universal_board
  6
ByLayer
 62
  256
370
   -1
100
AcDbLine
 10
-80.64999999999753
 20
16.94999999999923
 11
-123.8299999999955
 21
16.94999999999911
  0
LINE
  5
401
100
AcDbEntity
  8
universal_board
  6
ByLayer
 62
  256
370
   -1
100
AcDbLine
 10
-80.64999999999753
 20
19.48999999999925
 11
-123.8299999999955
 21
19.48999999999913
  0
LINE
  5
402
100
AcDbEntity
  8
universal_board
  6
ByLayer
 62
  256
370
   -1
100
AcDbLine
 10
-80.64999999999753
 20
22.02999999999927
 11
-123.8299999999955
 21
22.02999999999915
  0
LINE
  5
403
100
AcDbEntity
  8
universal_board
  6
ByLayer
 62
  256
370
   -1
100
AcDbLine
 10
-80.64999999999753
 20
24.56999999999929
 11
-123.8299999999955
 21
24.56999999999917
  0
LINE
  5
404
100
AcDbEntity
  8
universal_board
  6
ByLayer
 62
  256
370
   -1
100
AcDbLine
 10
-80.64999999999753
 20
27.10999999999931
 11
-123.8299999999955
 21
27.10999999999919
  0
LINE
  5
405
100
AcDbEntity
  8
universal_board
  6
ByLayer
 62
  256
370
   -1
100
AcDbLine
 10
-80.64999999999753
 20
29.64999999999933
 11
-123.8299999999955
 21
29.64999999999921
  0
LINE
  5
406
100
AcDbEntity
  8
universal_board
  6
ByLayer
 62
  256
370
   -1
100
AcDbLine
 10
-80.64999999999753
 20
32.18999999999935
 11
-123.8299999999955
 21
32.18999999999923
  0
LINE
  5
407
100
AcDbEntity
  8
5V line
  6
ByLayer
 62
  256
370
   -1
100
AcDbLine
 10
-102.2399999999964
 20
30.9199999999994
 11
-97.15999999999667
 21
30.91999999999937
  0
LINE
  5
408
100
AcDbEntity
  8
5V line
  6
ByLayer
 62
  256
370
   -1
100
AcDbLine
 10
-97.15999999999667
 20
30.91999999999937
 11
-97.15999999999667
 21
28.37999999999938
  0
LINE
  5
409
100
AcDbEntity
  8
5V line
  6
ByLayer
 62
  256
370
   -1
100
AcDbLine
 10
-97.15999999999667
 20
28.37999999999938
 11
-99.69999999999655
 21
28.37999999999938
  0
LINE
  5
40A
100
AcDbEntity
  8
5V line
  6
ByLayer
 62
  256
370
   -1
100
AcDbLine
 10
-99.69999999999655
 20
28.37999999999938
 11
-99.69999999999656
 21
30.91999999999937
  0
ENDSEC
  0
SECTION
  2
OBJECTS
  0
DICTIONARY
  5
C
330
0
100
AcDbDictionary
281
    1
  3
ACAD_GROUP
350
D
  0
DICTIONARY
  5
D
330
C
100
AcDbDictionary
281
    1
  0
PLOTSETTINGS
  5
40B
100
AcDbPlotSettings
  6
1x1
 40
0
 41
0
 42
0
 43
0
  0
ENDSEC
  0
EOF
