999
dxfrw 0.6.3
  0
SECTION
  2
HEADER
  9
$ACADVER
  1
AC1021
  9
$DWGCODEPAGE
  3
ANSI_1252
  9
$INSBASE
 10
0
 20
0
 30
0
  9
$EXTMIN
 10
-41.77999999999933
 20
4.249999999999797
 30
0
  9
$EXTMAX
 10
56.50999999999624
 20
99.9729660431108
 30
0
  9
$LIMMIN
 10
0
 20
0
  9
$LIMMAX
 10
420
 20
297
  9
$ORTHOMODE
 70
    0
  9
$REGENMODE
 70
    1
  9
$FILLMODE
 70
    1
  9
$QTEXTMODE
 70
    0
  9
$MIRRTEXT
 70
    0
  9
$LTSCALE
 40
1
  9
$ATTMODE
 70
    0
  9
$TEXTSIZE
 40
2.5
  9
$TRACEWID
 40
15.68
  9
$TEXTSTYLE
  7
STANDARD
  9
$CLAYER
  8
0
  9
$CELTYPE
  6
BYLAYER
  9
$CECOLOR
 62
  256
  9
$CELTSCALE
 40
1
  9
$DISPSILH
 70
    0
  9
$DIMSCALE
 40
1
  9
$DIMASZ
 40
2.5
  9
$DIMEXO
 40
0.625
  9
$DIMDLI
 40
3.75
  9
$DIMRND
 40
0
  9
$DIMDLE
 40
0
  9
$DIMEXE
 40
1.25
  9
$DIMTP
 40
0
  9
$DIMTM
 40
0
  9
$DIMTXT
 40
2.5
  9
$DIMCEN
 40
2.5
  9
$DIMTSZ
 40
0
  9
$DIMTOL
 70
    0
  9
$DIMLIM
 70
    0
  9
$DIMTIH
 70
    0
  9
$DIMTOH
 70
    0
  9
$DIMSE1
 70
    0
  9
$DIMSE2
 70
    0
  9
$DIMTAD
 70
    1
  9
$DIMZIN
 70
    8
  9
$DIMBLK
  1

  9
$DIMASO
 70
    1
  9
$DIMSHO
 70
    1
  9
$DIMPOST
  1

  9
$DIMAPOST
  1

  9
$DIMALT
 70
    0
  9
$DIMALTD
 70
    3
  9
$DIMALTF
 40
0.03937
  9
$DIMLFAC
 40
1
  9
$DIMTOFL
 70
    1
  9
$DIMTVP
 40
0
  9
$DIMTIX
 70
    0
  9
$DIMSOXD
 70
    0
  9
$DIMSAH
 70
    0
  9
$DIMBLK1
  1

  9
$DIMBLK2
  1

  9
$DIMSTYLE
  2
STANDARD
  9
$DIMCLRD
 70
    0
  9
$DIMCLRE
 70
    0
  9
$DIMCLRT
 70
    0
  9
$DIMTFAC
 40
1
  9
$DIMGAP
 40
0.625
  9
$DIMJUST
 70
    0
  9
$DIMSD1
 70
    0
  9
$DIMSD2
 70
    0
  9
$DIMTOLJ
 70
    0
  9
$DIMTZIN
 70
    8
  9
$DIMALTZ
 70
    0
  9
$DIMALTTZ
 70
    0
  9
$DIMUPT
 70
    0
  9
$DIMDEC
 70
    2
  9
$DIMTDEC
 70
    2
  9
$DIMALTU
 70
    2
  9
$DIMALTTD
 70
    3
  9
$DIMTXSTY
  7
STANDARD
  9
$DIMAUNIT
 70
    0
  9
$DIMADEC
 70
    0
  9
$DIMALTRND
 40
0
  9
$DIMAZIN
 70
    0
  9
$DIMDSEP
 70
   44
  9
$DIMATFIT
 70
    3
  9
$DIMFRAC
 70
    0
  9
$DIMLDRBLK
  1
STANDARD
  9
$DIMLUNIT
 70
    2
  9
$DIMLWD
 70
   -2
  9
$DIMLWE
 70
   -2
  9
$DIMTMOVE
 70
    0
  9
$DIMFXL
 40
1
  9
$DIMFXLON
 70
    0
  9
$DIMJOGANG
 40
0.7854
  9
$DIMTFILL
 70
    0
  9
$DIMTFILLCLR
 70
    0
  9
$DIMARCSYM
 70
    0
  9
$DIMLTYPE
  6

  9
$DIMLTEX1
  6

  9
$DIMLTEX2
  6

  9
$LUNITS
 70
    2
  9
$LUPREC
 70
    4
  9
$SKETCHINC
 40
1
  9
$FILLETRAD
 40
0
  9
$AUNITS
 70
    0
  9
$AUPREC
 70
    2
  9
$MENU
  1
.
  9
$ELEVATION
 40
0
  9
$PELEVATION
 40
0
  9
$THICKNESS
 40
0
  9
$LIMCHECK
 70
    0
  9
$CHAMFERA
 40
0
  9
$CHAMFERB
 40
0
  9
$CHAMFERC
 40
0
  9
$CHAMFERD
 40
0
  9
$SKPOLY
 70
    0
  9
$USRTIMER
 70
    1
  9
$ANGBASE
 50
0
  9
$ANGDIR
 70
    0
  9
$PDMODE
 70
   34
  9
$PDSIZE
 40
0
  9
$PLINEWID
 40
0
  9
$SPLFRAME
 70
    0
  9
$SPLINETYPE
 70
    2
  9
$SPLINESEGS
 70
    8
  9
$HANDSEED
  5
20000
  9
$SURFTAB1
 70
    6
  9
$SURFTAB2
 70
    6
  9
$SURFTYPE
 70
    6
  9
$SURFU
 70
    6
  9
$SURFV
 70
    6
  9
$UCSBASE
  2

  9
$UCSNAME
  2

  9
$UCSORG
 10
0
 20
0
 30
0
  9
$UCSXDIR
 10
1
 20
0
 30
0
  9
$UCSYDIR
 10
0
 20
1
 30
0
  9
$UCSORTHOREF
  2

  9
$UCSORTHOVIEW
 70
    0
  9
$UCSORGTOP
 10
0
 20
0
 30
0
  9
$UCSORGBOTTOM
 10
0
 20
0
 30
0
  9
$UCSORGLEFT
 10
0
 20
0
 30
0
  9
$UCSORGRIGHT
 10
0
 20
0
 30
0
  9
$UCSORGFRONT
 10
0
 20
0
 30
0
  9
$UCSORGBACK
 10
0
 20
0
 30
0
  9
$PUCSBASE
  2

  9
$PUCSNAME
  2

  9
$PUCSORG
 10
0
 20
0
 30
0
  9
$PUCSXDIR
 10
1
 20
0
 30
0
  9
$PUCSYDIR
 10
0
 20
1
 30
0
  9
$PUCSORTHOREF
  2

  9
$PUCSORTHOVIEW
 70
    0
  9
$PUCSORGTOP
 10
0
 20
0
 30
0
  9
$PUCSORGBOTTOM
 10
0
 20
0
 30
0
  9
$PUCSORGLEFT
 10
0
 20
0
 30
0
  9
$PUCSORGRIGHT
 10
0
 20
0
 30
0
  9
$PUCSORGFRONT
 10
0
 20
0
 30
0
  9
$PUCSORGBACK
 10
0
 20
0
 30
0
  9
$USERI1
 70
    0
  9
$USERI2
 70
    0
  9
$USERI3
 70
    0
  9
$USERI4
 70
    0
  9
$USERI5
 70
    0
  9
$USERR1
 40
0
  9
$USERR2
 40
0
  9
$USERR3
 40
0
  9
$USERR4
 40
0
  9
$USERR5
 40
0
  9
$WORLDVIEW
 70
    1
  9
$SHADEDGE
 70
    3
  9
$SHADEDIF
 70
   70
  9
$TILEMODE
 70
    1
  9
$MAXACTVP
 70
   64
  9
$PINSBASE
 10
201.9375
 20
0
 30
0
  9
$PLIMCHECK
 70
    0
  9
$PEXTMIN
 10
0
 20
0
 30
0
  9
$PEXTMAX
 10
0
 20
0
 30
0
  9
$GRIDMODE
 70
    0
  9
$SNAPSTYLE
 70
    0
  9
$PLIMMIN
 10
0
 20
0
  9
$PLIMMAX
 10
210
 20
297
  9
$UNITMODE
 70
    0
  9
$VISRETAIN
 70
    1
  9
$PLINEGEN
 70
    0
  9
$PSLTSCALE
 70
    1
  9
$TREEDEPTH
 70
 3020
  9
$CMLSTYLE
  2
Standard
  9
$CMLJUST
 70
    0
  9
$CMLSCALE
 40
20
  9
$PROXYGRAPHICS
 70
    1
  9
$MEASUREMENT
 70
    1
  9
$CELWEIGHT
370
   -1
  9
$ENDCAPS
280
    0
  9
$JOINSTYLE
280
    0
  9
$LWDISPLAY
290
    0
  9
$INSUNITS
 70
    0
  9
$HYPERLINKBASE
  1

  9
$STYLESHEET
  1

  9
$XEDIT
290
    1
  9
$CEPSNTYPE
380
    0
  9
$PSTYLEMODE
290
    1
  9
$EXTNAMES
290
    1
  9
$PSVPSCALE
 40
4.125
  9
$OLESTARTUP
290
    0
  9
$SORTENTS
280
  127
  9
$INDEXCTL
280
    0
  9
$HIDETEXT
280
    1
  9
$XCLIPFRAME
290
    0
  9
$HALOGAP
280
    0
  9
$OBSCOLOR
 70
  257
  9
$OBSLTYPE
280
    0
  9
$INTERSECTIONDISPLAY
280
    0
  9
$INTERSECTIONCOLOR
 70
  257
  9
$DIMASSOC
280
    1
  9
$PROJECTNAME
  1

  9
$CAMERADISPLAY
290
    0
  9
$LENSLENGTH
 40
50
  9
$CAMERAHEIGHT
 40
0
  9
$STEPSPERSEC
 40
2
  9
$STEPSIZE
 40
50
  9
$3DDWFPREC
 40
2
  9
$PSOLWIDTH
 40
5
  9
$PSOLHEIGHT
 40
80
  9
$LOFTANG1
 40
1.570796326794897
  9
$LOFTANG2
 40
1.570796326794897
  9
$LOFTMAG1
 40
0
  9
$LOFTMAG2
 40
0
  9
$LOFTPARAM
 70
    7
  9
$LOFTNORMALS
280
    1
  9
$LATITUDE
 40
1
  9
$LONGITUDE
 40
1
  9
$NORTHDIRECTION
 40
0
  9
$TIMEZONE
 70
-8000
  9
$LIGHTGLYPHDISPLAY
280
    1
  9
$TILEMODELIGHTSYNCH
280
    1
  9
$SOLIDHIST
280
    1
  9
$SHOWHIST
280
    1
  9
$DWFFRAME
280
    2
  9
$DGNFRAME
280
    0
  9
$REALWORLDSCALE
290
    1
  9
$INTERFERECOLOR
 62
    1
  9
$CSHADOW
280
    0
  9
$SHADOWPLANELOCATION
 40
0
  0
ENDSEC
  0
SECTION
  2
CLASSES
  0
ENDSEC
  0
SECTION
  2
TABLES
  0
TABLE
  2
VPORT
  5
8
330
0
100
AcDbSymbolTable
 70
    1
  0
VPORT
  5
31
330
2
100
AcDbSymbolTableRecord
100
AcDbViewportTableRecord
  2
*ACTIVE
 70
    0
 10
0
 20
0
 11
1
 21
1
 12
29.86107437027189
 22
52.19343593897381
 13
0
 23
0
 14
10
 24
10
 15
10
 25
10
 16
0
 26
0
 36
1
 17
0
 27
0
 37
0
 40
55.54892965952372
 41
1.496446700507614
 42
50
 43
0
 44
0
 50
0
 51
0
 71
    0
 72
  100
 73
    1
 74
    3
 75
    0
 76
    0
 77
    0
 78
    0
281
    0
 65
    1
110
0
120
0
130
0
111
1
121
0
131
0
112
0
122
1
132
0
 79
    0
146
0
348
10020
 60
    7
 61
    5
292
1
282
    1
141
0
142
0
 63
  250
421
3358443
  0
ENDTAB
  0
TABLE
  2
LTYPE
  5
5
330
0
100
AcDbSymbolTable
 70
    4
  0
LTYPE
  5
14
330
5
100
AcDbSymbolTableRecord
100
AcDbLinetypeTableRecord
  2
ByBlock
 70
    0
  3

 72
   65
 73
    0
 40
0
  0
LTYPE
  5
15
330
5
100
AcDbSymbolTableRecord
100
AcDbLinetypeTableRecord
  2
ByLayer
 70
    0
  3

 72
   65
 73
    0
 40
0
  0
LTYPE
  5
16
330
5
100
AcDbSymbolTableRecord
100
AcDbLinetypeTableRecord
  2
Continuous
 70
    0
  3
Solid line
 72
   65
 73
    0
 40
0
  0
LTYPE
  5
32
330
5
100
AcDbSymbolTableRecord
100
AcDbLinetypeTableRecord
  2
DOT
 70
    0
  3
Dot . . . . . . . . . . . . . . . . . . . . . .
 72
   65
 73
    2
 40
6.35
 49
0
 74
    0
 49
-6.35
 74
    0
  0
LTYPE
  5
33
330
5
100
AcDbSymbolTableRecord
100
AcDbLinetypeTableRecord
  2
DOTTINY
 70
    0
  3
Dot (.15x) .....................................
 72
   65
 73
    2
 40
0.9525
 49
0
 74
    0
 49
-0.9525
 74
    0
  0
LTYPE
  5
34
330
5
100
AcDbSymbolTableRecord
100
AcDbLinetypeTableRecord
  2
DOT2
 70
    0
  3
Dot (.5x) .....................................
 72
   65
 73
    2
 40
3.175
 49
0
 74
    0
 49
-3.175
 74
    0
  0
LTYPE
  5
35
330
5
100
AcDbSymbolTableRecord
100
AcDbLinetypeTableRecord
  2
DOTX2
 70
    0
  3
Dot (2x) .  .  .  .  .  .  .  .  .  .  .  .  .
 72
   65
 73
    2
 40
12.7
 49
0
 74
    0
 49
-12.7
 74
    0
  0
LTYPE
  5
36
330
5
100
AcDbSymbolTableRecord
100
AcDbLinetypeTableRecord
  2
DASHED
 70
    0
  3
Dashed _ _ _ _ _ _ _ _ _ _ _ _ _ _ _ _ _
 72
   65
 73
    2
 40
19.05
 49
12.7
 74
    0
 49
-6.35
 74
    0
  0
LTYPE
  5
37
330
5
100
AcDbSymbolTableRecord
100
AcDbLinetypeTableRecord
  2
DASHEDTINY
 70
    0
  3
Dashed (.15x) _ _ _ _ _ _ _ _ _ _ _ _ _ _ _ _ _
 72
   65
 73
    2
 40
2.8575
 49
1.905
 74
    0
 49
-0.9525
 74
    0
  0
LTYPE
  5
38
330
5
100
AcDbSymbolTableRecord
100
AcDbLinetypeTableRecord
  2
DASHED2
 70
    0
  3
Dashed (.5x) _ _ _ _ _ _ _ _ _ _ _ _ _ _ _ _ _
 72
   65
 73
    2
 40
9.524999999999999
 49
6.35
 74
    0
 49
-3.175
 74
    0
  0
LTYPE
  5
39
330
5
100
AcDbSymbolTableRecord
100
AcDbLinetypeTableRecord
  2
DASHEDX2
 70
    0
  3
Dashed (2x) ____  ____  ____  ____  ____  ___
 72
   65
 73
    2
 40
38.09999999999999
 49
25.4
 74
    0
 49
-12.7
 74
    0
  0
LTYPE
  5
3A
330
5
100
AcDbSymbolTableRecord
100
AcDbLinetypeTableRecord
  2
DASHDOT
 70
    0
  3
Dash dot __ . __ . __ . __ . __ . __ . __ . __
 72
   65
 73
    4
 40
25.4
 49
12.7
 74
    0
 49
-6.35
 74
    0
 49
0
 74
    0
 49
-6.35
 74
    0
  0
LTYPE
  5
3B
330
5
100
AcDbSymbolTableRecord
100
AcDbLinetypeTableRecord
  2
DASHDOTTINY
 70
    0
  3
Dash dot (.15x) _._._._._._._._._._._._._._._.
 72
   65
 73
    4
 40
3.81
 49
1.905
 74
    0
 49
-0.9525
 74
    0
 49
0
 74
    0
 49
-0.9525
 74
    0
  0
LTYPE
  5
3C
330
5
100
AcDbSymbolTableRecord
100
AcDbLinetypeTableRecord
  2
DASHDOT2
 70
    0
  3
Dash dot (.5x) _._._._._._._._._._._._._._._.
 72
   65
 73
    4
 40
12.7
 49
6.35
 74
    0
 49
-3.175
 74
    0
 49
0
 74
    0
 49
-3.175
 74
    0
  0
LTYPE
  5
3D
330
5
100
AcDbSymbolTableRecord
100
AcDbLinetypeTableRecord
  2
DASHDOTX2
 70
    0
  3
Dash dot (2x) ____  .  ____  .  ____  .  ___
 72
   65
 73
    4
 40
50.8
 49
25.4
 74
    0
 49
-12.7
 74
    0
 49
0
 74
    0
 49
-12.7
 74
    0
  0
LTYPE
  5
3E
330
5
100
AcDbSymbolTableRecord
100
AcDbLinetypeTableRecord
  2
DIVIDE
 70
    0
  3
Divide ____ . . ____ . . ____ . . ____ . . ____
 72
   65
 73
    6
 40
31.75
 49
12.7
 74
    0
 49
-6.35
 74
    0
 49
0
 74
    0
 49
-6.35
 74
    0
 49
0
 74
    0
 49
-6.35
 74
    0
  0
LTYPE
  5
3F
330
5
100
AcDbSymbolTableRecord
100
AcDbLinetypeTableRecord
  2
DIVIDETINY
 70
    0
  3
Divide (.15x) __..__..__..__..__..__..__..__.._
 72
   65
 73
    6
 40
4.7625
 49
1.905
 74
    0
 49
-0.9525
 74
    0
 49
0
 74
    0
 49
-0.9525
 74
    0
 49
0
 74
    0
 49
-0.9525
 74
    0
  0
LTYPE
  5
40
330
5
100
AcDbSymbolTableRecord
100
AcDbLinetypeTableRecord
  2
DIVIDE2
 70
    0
  3
Divide (.5x) __..__..__..__..__..__..__..__.._
 72
   65
 73
    6
 40
15.875
 49
6.35
 74
    0
 49
-3.175
 74
    0
 49
0
 74
    0
 49
-3.175
 74
    0
 49
0
 74
    0
 49
-3.175
 74
    0
  0
LTYPE
  5
41
330
5
100
AcDbSymbolTableRecord
100
AcDbLinetypeTableRecord
  2
DIVIDEX2
 70
    0
  3
Divide (2x) ________  .  .  ________  .  .  _
 72
   65
 73
    6
 40
63.5
 49
25.4
 74
    0
 49
-12.7
 74
    0
 49
0
 74
    0
 49
-12.7
 74
    0
 49
0
 74
    0
 49
-12.7
 74
    0
  0
LTYPE
  5
42
330
5
100
AcDbSymbolTableRecord
100
AcDbLinetypeTableRecord
  2
BORDER
 70
    0
  3
Border __ __ . __ __ . __ __ . __ __ . __ __ .
 72
   65
 73
    6
 40
44.45
 49
12.7
 74
    0
 49
-6.35
 74
    0
 49
12.7
 74
    0
 49
-6.35
 74
    0
 49
0
 74
    0
 49
-6.35
 74
    0
  0
LTYPE
  5
43
330
5
100
AcDbSymbolTableRecord
100
AcDbLinetypeTableRecord
  2
BORDERTINY
 70
    0
  3
Border (.15x) __.__.__.__.__.__.__.__.__.__.__.
 72
   65
 73
    6
 40
6.6675
 49
1.905
 74
    0
 49
-0.9525
 74
    0
 49
1.905
 74
    0
 49
-0.9525
 74
    0
 49
0
 74
    0
 49
-0.9525
 74
    0
  0
LTYPE
  5
44
330
5
100
AcDbSymbolTableRecord
100
AcDbLinetypeTableRecord
  2
BORDER2
 70
    0
  3
Border (.5x) __.__.__.__.__.__.__.__.__.__.__.
 72
   65
 73
    6
 40
22.225
 49
6.35
 74
    0
 49
-3.175
 74
    0
 49
6.35
 74
    0
 49
-3.175
 74
    0
 49
0
 74
    0
 49
-3.175
 74
    0
  0
LTYPE
  5
45
330
5
100
AcDbSymbolTableRecord
100
AcDbLinetypeTableRecord
  2
BORDERX2
 70
    0
  3
Border (2x) ____  ____  .  ____  ____  .  ___
 72
   65
 73
    6
 40
88.89999999999999
 49
25.4
 74
    0
 49
-12.7
 74
    0
 49
25.4
 74
    0
 49
-12.7
 74
    0
 49
0
 74
    0
 49
-12.7
 74
    0
  0
LTYPE
  5
46
330
5
100
AcDbSymbolTableRecord
100
AcDbLinetypeTableRecord
  2
CENTER
 70
    0
  3
Center ____ _ ____ _ ____ _ ____ _ ____ _ ____
 72
   65
 73
    4
 40
50.8
 49
31.75
 74
    0
 49
-6.35
 74
    0
 49
6.35
 74
    0
 49
-6.35
 74
    0
  0
LTYPE
  5
47
330
5
100
AcDbSymbolTableRecord
100
AcDbLinetypeTableRecord
  2
CENTERTINY
 70
    0
  3
Center (.15x) ___ _ ___ _ ___ _ ___ _ ___ _ ___
 72
   65
 73
    4
 40
7.619999999999999
 49
4.7625
 74
    0
 49
-0.9525
 74
    0
 49
0.9525
 74
    0
 49
-0.9525
 74
    0
  0
LTYPE
  5
48
330
5
100
AcDbSymbolTableRecord
100
AcDbLinetypeTableRecord
  2
CENTER2
 70
    0
  3
Center (.5x) ___ _ ___ _ ___ _ ___ _ ___ _ ___
 72
   65
 73
    4
 40
28.575
 49
19.05
 74
    0
 49
-3.175
 74
    0
 49
3.175
 74
    0
 49
-3.175
 74
    0
  0
LTYPE
  5
49
330
5
100
AcDbSymbolTableRecord
100
AcDbLinetypeTableRecord
  2
CENTERX2
 70
    0
  3
Center (2x) ________  __  ________  __  _____
 72
   65
 73
    4
 40
101.6
 49
63.5
 74
    0
 49
-12.7
 74
    0
 49
12.7
 74
    0
 49
-12.7
 74
    0
  0
ENDTAB
  0
TABLE
  2
LAYER
  5
2
330
0
100
AcDbSymbolTable
 70
    1
  0
LAYER
  5
10
330
2
100
AcDbSymbolTableRecord
100
AcDbLayerTableRecord
  2
0
 70
    0
 62
    7
  6
CONTINUOUS
370
   13
390
F
  0
LAYER
  5
4A
330
2
100
AcDbSymbolTableRecord
100
AcDbLayerTableRecord
  2
0_GND
 70
    0
 62
    7
  6
CONTINUOUS
370
   15
390
F
  0
LAYER
  5
4B
330
2
100
AcDbSymbolTableRecord
100
AcDbLayerTableRecord
  2
0_wire
 70
    0
 62
    3
  6
CONTINUOUS
370
   15
390
F
  0
LAYER
  5
4C
330
2
100
AcDbSymbolTableRecord
100
AcDbLayerTableRecord
  2
12V line
 70
    0
 62
    2
  6
CONTINUOUS
370
   15
390
F
  0
LAYER
  5
4D
330
2
100
AcDbSymbolTableRecord
100
AcDbLayerTableRecord
  2
3.3V line
 70
    0
 62
   40
420
16755200
  6
CONTINUOUS
370
   15
390
F
  0
LAYER
  5
4E
330
2
100
AcDbSymbolTableRecord
100
AcDbLayerTableRecord
  2
5V line
 70
    0
 62
    1
  6
CONTINUOUS
370
   15
390
F
  0
LAYER
  5
4F
330
2
100
AcDbSymbolTableRecord
100
AcDbLayerTableRecord
  2
Regulator
 70
    0
 62
  162
420
18906
  6
CONTINUOUS
370
   15
390
F
  0
LAYER
  5
50
330
2
100
AcDbSymbolTableRecord
100
AcDbLayerTableRecord
  2
condenser
 70
    0
 62
    5
  6
CONTINUOUS
370
   15
390
F
  0
LAYER
  5
51
330
2
100
AcDbSymbolTableRecord
100
AcDbLayerTableRecord
  2
draft
 70
    1
 62
    7
  6
DOTTINY
370
   -3
390
F
1001
LibreCad
1070
    1
  0
LAYER
  5
52
330
2
100
AcDbSymbolTableRecord
100
AcDbLayerTableRecord
  2
kakou
 70
    0
 62
  176
420
  128
  6
CONTINUOUS
370
   15
390
F
  0
LAYER
  5
53
330
2
100
AcDbSymbolTableRecord
100
AcDbLayerTableRecord
  2
micon
 70
    0
 62
  216
420
8388736
  6
CONTINUOUS
370
   15
390
F
  0
LAYER
  5
54
330
2
100
AcDbSymbolTableRecord
100
AcDbLayerTableRecord
  2
pin socket
 70
    0
 62
   56
420
8421376
  6
CONTINUOUS
370
   15
390
F
  0
LAYER
  5
55
330
2
100
AcDbSymbolTableRecord
100
AcDbLayerTableRecord
  2
resister
 70
    0
 62
  137
420
3439252
  6
CONTINUOUS
370
   18
390
F
  0
LAYER
  5
56
330
2
100
AcDbSymbolTableRecord
100
AcDbLayerTableRecord
  2
switch
 70
    0
 62
  136
420
32896
  6
CONTINUOUS
370
   15
390
F
  0
LAYER
  5
57
330
2
100
AcDbSymbolTableRecord
100
AcDbLayerTableRecord
  2
terminal
 70
    0
 62
   16
420
8388608
  6
CONTINUOUS
370
   15
390
F
  0
LAYER
  5
58
330
2
100
AcDbSymbolTableRecord
100
AcDbLayerTableRecord
  2
universal board
 70
    0
 62
  253
420
10526884
  6
CONTINUOUS
370
   15
390
F
  0
ENDTAB
  0
TABLE
  2
STYLE
  5
3
330
0
100
AcDbSymbolTable
 70
    3
  0
STYLE
  5
59
330
2
100
AcDbSymbolTableRecord
100
AcDbTextStyleTableRecord
  2
iso
 70
    0
 40
0
 41
1
 50
0
 71
    0
 42
1
  3
iso
  4

  0
STYLE
  5
5A
330
2
100
AcDbSymbolTableRecord
100
AcDbTextStyleTableRecord
  2
unicode
 70
    0
 40
0
 41
1
 50
0
 71
    0
 42
1
  3
unicode
  4

  0
STYLE
  5
5B
330
2
100
AcDbSymbolTableRecord
100
AcDbTextStyleTableRecord
  2
STANDARD
 70
    0
 40
0
 41
1
 50
0
 71
    0
 42
1
  3
STANDARD
  4

  0
ENDTAB
  0
TABLE
  2
VIEW
  5
6
330
0
100
AcDbSymbolTable
 70
    0
  0
ENDTAB
  0
TABLE
  2
UCS
  5
7
330
0
100
AcDbSymbolTable
 70
    0
  0
ENDTAB
  0
TABLE
  2
APPID
  5
9
330
0
100
AcDbSymbolTable
 70
    1
  0
APPID
  5
12
330
9
100
AcDbSymbolTableRecord
100
AcDbRegAppTableRecord
  2
ACAD
 70
    0
  0
APPID
  5
5C
330
9
100
AcDbSymbolTableRecord
100
AcDbRegAppTableRecord
  2
LibreCad
 70
    0
  0
ENDTAB
  0
TABLE
  2
DIMSTYLE
  5
A
330
0
100
AcDbSymbolTable
 70
    1
100
AcDbDimStyleTable
 71
    1
  0
DIMSTYLE
105
5D
330
A
100
AcDbSymbolTableRecord
100
AcDbDimStyleTableRecord
  2
Standard
 70
    0
 40
1
 41
2.5
 42
0.625
 43
0.38
 44
1.25
 45
0
 46
0
 47
0
 48
0
 49
1
140
2.5
141
0.09
142
0
143
25.4
144
1
145
0
146
1
147
0.625
148
0
 71
    0
 72
    0
 73
    0
 74
    1
 75
    0
 76
    0
 77
    0
 78
    8
 79
    0
170
    0
171
    2
172
    0
173
    0
174
    0
175
    0
176
    0
177
    0
178
    0
179
    0
271
    2
272
    4
273
    2
274
    2
275
    0
276
    0
277
    2
278
   44
279
    0
280
    0
281
    0
282
    0
283
    1
284
    0
285
    0
286
    0
288
    0
289
    3
340
STANDARD
341

371
   -2
372
   -2
  0
ENDTAB
  0
TABLE
  2
BLOCK_RECORD
  5
1
330
0
100
AcDbSymbolTable
 70
    2
  0
BLOCK_RECORD
  5
1F
330
1
100
AcDbSymbolTableRecord
100
AcDbBlockTableRecord
  2
*Model_Space
 70
    0
280
    1
281
    0
  0
BLOCK_RECORD
  5
1E
330
1
100
AcDbSymbolTableRecord
100
AcDbBlockTableRecord
  2
*Paper_Space
 70
    0
280
    1
281
    0
  0
BLOCK_RECORD
  5
5E
330
1
100
AcDbSymbolTableRecord
100
AcDbBlockTableRecord
  2
2227MC-08-03
 70
    0
280
    1
281
    0
  0
BLOCK_RECORD
  5
61
330
1
100
AcDbSymbolTableRecord
100
AcDbBlockTableRecord
  2
PIC16F15325
 70
    0
280
    1
281
    0
  0
BLOCK_RECORD
  5
64
330
1
100
AcDbSymbolTableRecord
100
AcDbBlockTableRecord
  2
2227MC-28-03
 70
    0
280
    1
281
    0
  0
BLOCK_RECORD
  5
67
330
1
100
AcDbSymbolTableRecord
100
AcDbBlockTableRecord
  2
HUSG-16.000-20
 70
    0
280
    1
281
    0
  0
BLOCK_RECORD
  5
6A
330
1
100
AcDbSymbolTableRecord
100
AcDbBlockTableRecord
  2
ATmega328P
 70
    0
280
    1
281
    0
  0
BLOCK_RECORD
  5
6D
330
1
100
AcDbSymbolTableRecord
100
AcDbBlockTableRecord
  2
DTS-63-N-V-BLK
 70
    0
280
    1
281
    0
  0
BLOCK_RECORD
  5
70
330
1
100
AcDbSymbolTableRecord
100
AcDbBlockTableRecord
  2
2227MC-14-03
 70
    0
280
    1
281
    0
  0
BLOCK_RECORD
  5
73
330
1
100
AcDbSymbolTableRecord
100
AcDbBlockTableRecord
  2
C_0.01uF
 70
    0
280
    1
281
    0
  0
BLOCK_RECORD
  5
76
330
1
100
AcDbSymbolTableRecord
100
AcDbBlockTableRecord
  2
R300
 70
    0
280
    1
281
    0
  0
BLOCK_RECORD
  5
79
330
1
100
AcDbSymbolTableRecord
100
AcDbBlockTableRecord
  2
R10k
 70
    0
280
    1
281
    0
  0
BLOCK_RECORD
  5
7C
330
1
100
AcDbSymbolTableRecord
100
AcDbBlockTableRecord
  2
R0
 70
    0
280
    1
281
    0
  0
ENDTAB
  0
ENDSEC
  0
SECTION
  2
BLOCKS
  0
BLOCK
  5
20
330
1F
100
AcDbEntity
  8
0
100
AcDbBlockBegin
  2
*Model_Space
 70
    0
 10
0
 20
0
 30
0
  3
*Model_Space
  1

  0
ENDBLK
  5
21
330
1F
100
AcDbEntity
  8
0
100
AcDbBlockEnd
  0
BLOCK
  5
1C
330
1B
100
AcDbEntity
  8
0
100
AcDbBlockBegin
  2
*Paper_Space
 70
    0
 10
0
 20
0
 30
0
  3
*Paper_Space
  1

  0
ENDBLK
  5
1D
330
1F
100
AcDbEntity
  8
0
100
AcDbBlockEnd
  0
BLOCK
  5
5F
330
5E
100
AcDbEntity
  8
0
100
AcDbBlockBegin
  2
2227MC-08-03
 70
    0
 10
0
 20
0
  3
2227MC-08-03
  1

  0
LINE
  5
7F
100
AcDbEntity
  8
pin socket
  6
ByLayer
 62
  256
370
   -1
100
AcDbLine
 10
-1.270000000000131
 20
-8.890000110779171
 11
-1.270000000000131
 21
1.269999889220831
  0
LINE
  5
80
100
AcDbEntity
  8
pin socket
  6
ByLayer
 62
  256
370
   -1
100
AcDbLine
 10
-1.270000000000131
 20
1.269999889220831
 11
8.890000394687402
 21
1.269999889220831
  0
LINE
  5
81
100
AcDbEntity
  8
pin socket
  6
ByLayer
 62
  256
370
   -1
100
AcDbLine
 10
8.890000394687402
 20
1.269999889220831
 11
8.88999999999989
 21
-8.890000110779171
  0
LINE
  5
82
100
AcDbEntity
  8
pin socket
  6
ByLayer
 62
  256
370
   -1
100
AcDbLine
 10
8.88999999999989
 20
-8.890000110779171
 11
-1.270000000000131
 21
-8.890000110779171
  0
CIRCLE
  5
83
100
AcDbEntity
  8
pin socket
  6
ByLayer
 62
  256
370
   -1
100
AcDbCircle
 10
2.539999999999878
 20
1.06581410364015e-14
 40
0.6
  0
CIRCLE
  5
84
100
AcDbEntity
  8
pin socket
  6
ByLayer
 62
  256
370
   -1
100
AcDbCircle
 10
2.539999999999893
 20
-7.620000000000061
 40
0.6
  0
CIRCLE
  5
85
100
AcDbEntity
  8
pin socket
  6
ByLayer
 62
  256
370
   -1
100
AcDbCircle
 10
0
 20
0
 40
0.6
  0
CIRCLE
  5
86
100
AcDbEntity
  8
pin socket
  6
ByLayer
 62
  256
370
   -1
100
AcDbCircle
 10
7.105427357601002e-15
 20
-7.620000000000072
 40
0.6
  0
CIRCLE
  5
87
100
AcDbEntity
  8
pin socket
  6
ByLayer
 62
  256
370
   -1
100
AcDbCircle
 10
5.079999999999757
 20
2.842170943040401e-14
 40
0.6
  0
CIRCLE
  5
88
100
AcDbEntity
  8
pin socket
  6
ByLayer
 62
  256
370
   -1
100
AcDbCircle
 10
5.079999999999771
 20
-7.620000000000051
 40
0.6
  0
CIRCLE
  5
89
100
AcDbEntity
  8
pin socket
  6
ByLayer
 62
  256
370
   -1
100
AcDbCircle
 10
7.619999999999639
 20
3.907985046680551e-14
 40
0.6
  0
CIRCLE
  5
8A
100
AcDbEntity
  8
pin socket
  6
ByLayer
 62
  256
370
   -1
100
AcDbCircle
 10
7.61999999999966
 20
-7.62000000000004
 40
0.6
  0
MTEXT
  5
8B
100
AcDbEntity
  8
pin socket
  6
ByLayer
 62
  256
370
   -1
100
AcDbMText
 10
3.950796119092651
 20
-1.713679173150673
 30
0
 40
1
 41
9.222222222222284
 71
    5
 72
    1
  1
2227MC-08-03
  7
STANDARD
210
0
220
0
230
1
 50
0
 73
    2
 44
1
  0
ENDBLK
  5
60
330
5E
100
AcDbEntity
  8
0
100
AcDbBlockEnd
  0
BLOCK
  5
62
330
61
100
AcDbEntity
  8
0
100
AcDbBlockBegin
  2
PIC16F15325
 70
    0
 10
0
 20
0
  3
PIC16F15325
  1

  0
ENDBLK
  5
63
330
61
100
AcDbEntity
  8
0
100
AcDbBlockEnd
  0
BLOCK
  5
65
330
64
100
AcDbEntity
  8
0
100
AcDbBlockBegin
  2
2227MC-28-03
 70
    0
 10
0
 20
0
  3
2227MC-28-03
  1

  0
ENDBLK
  5
66
330
64
100
AcDbEntity
  8
0
100
AcDbBlockEnd
  0
BLOCK
  5
68
330
67
100
AcDbEntity
  8
0
100
AcDbBlockBegin
  2
HUSG-16.000-20
 70
    0
 10
0
 20
0
  3
HUSG-16.000-20
  1

  0
ENDBLK
  5
69
330
67
100
AcDbEntity
  8
0
100
AcDbBlockEnd
  0
BLOCK
  5
6B
330
6A
100
AcDbEntity
  8
0
100
AcDbBlockBegin
  2
ATmega328P
 70
    0
 10
0
 20
0
  3
ATmega328P
  1

  0
ENDBLK
  5
6C
330
6A
100
AcDbEntity
  8
0
100
AcDbBlockEnd
  0
BLOCK
  5
6E
330
6D
100
AcDbEntity
  8
0
100
AcDbBlockBegin
  2
DTS-63-N-V-BLK
 70
    0
 10
0
 20
0
  3
DTS-63-N-V-BLK
  1

  0
ENDBLK
  5
6F
330
6D
100
AcDbEntity
  8
0
100
AcDbBlockEnd
  0
BLOCK
  5
71
330
70
100
AcDbEntity
  8
0
100
AcDbBlockBegin
  2
2227MC-14-03
 70
    0
 10
0
 20
0
  3
2227MC-14-03
  1

  0
ENDBLK
  5
72
330
70
100
AcDbEntity
  8
0
100
AcDbBlockEnd
  0
BLOCK
  5
74
330
73
100
AcDbEntity
  8
0
100
AcDbBlockBegin
  2
C_0.01uF
 70
    0
 10
0
 20
0
  3
C_0.01uF
  1

  0
LWPOLYLINE
  5
8C
100
AcDbEntity
  8
condenser
  6
ByLayer
 62
  256
370
   -1
100
AcDbPolyline
 90
    4
 70
    1
 43
0
 10
1.499999999999972
 20
5.039999999999822
 10
1.499999999999972
 20
0.03999999999992099
 10
-1.50000000000005
 20
0.03999999999992099
 10
-1.50000000000005
 20
5.039999999999822
  0
MTEXT
  5
8D
100
AcDbEntity
  8
condenser
  6
ByLayer
 62
  256
370
   -1
100
AcDbMText
 10
2.336701583810211
 20
2.491803864245341
 30
0
 40
1
 41
3.666666666666667
 71
    5
 72
    1
  1
0.01uF
  7
STANDARD
210
0
220
0
230
1
 50
270
 73
    2
 44
1
  0
CIRCLE
  5
8E
100
AcDbEntity
  8
condenser
  6
ByLayer
 62
  256
370
   -1
100
AcDbCircle
 10
0
 20
0
 40
0.4
  0
CIRCLE
  5
8F
100
AcDbEntity
  8
condenser
  6
ByLayer
 62
  256
370
   -1
100
AcDbCircle
 10
-6.927791673660977e-14
 20
5.080000000000041
 40
0.4
  0
ENDBLK
  5
75
330
73
100
AcDbEntity
  8
0
100
AcDbBlockEnd
  0
BLOCK
  5
77
330
76
100
AcDbEntity
  8
0
100
AcDbBlockBegin
  2
R300
 70
    0
 10
0
 20
0
  3
R300
  1

  0
LWPOLYLINE
  5
90
100
AcDbEntity
  8
resister
  6
ByLayer
 62
  256
370
   -1
100
AcDbPolyline
 90
    4
 70
    1
 43
0
 10
-1.150000000000091
 20
0.6599999999995898
 10
-1.15000000000008
 20
6.959999999999511
 10
1.150000000000126
 20
6.959999999999511
 10
1.150000000000119
 20
0.6599999999995898
  0
CIRCLE
  5
91
100
AcDbEntity
  8
resister
  6
ByLayer
 62
  256
370
   -1
100
AcDbCircle
 10
1.953992523340276e-14
 20
7.619999999999639
 40
0.3
  0
LINE
  5
92
100
AcDbEntity
  8
resister
  6
ByLayer
 62
  256
370
   -1
100
AcDbLine
 10
1.953992523340276e-14
 20
0.2999999999998604
 11
1.031014139840636e-06
 21
0.6599999999995898
  0
LINE
  5
93
100
AcDbEntity
  8
resister
  6
ByLayer
 62
  256
370
   -1
100
AcDbLine
 10
3.907985046680551e-14
 20
6.959999999999511
 11
3.907985046680551e-14
 21
7.320000000000348
  0
MTEXT
  5
94
100
AcDbEntity
  8
resister
  6
ByLayer
 62
  256
370
   -1
100
AcDbMText
 10
-0.02409769535478112
 20
3.951579464078229
 30
0
 40
1
 41
2.888888888888951
 71
    5
 72
    1
  1
R300
  7
STANDARD
210
0
220
0
230
1
 50
90
 73
    2
 44
1
  0
CIRCLE
  5
95
100
AcDbEntity
  8
resister
  6
ByLayer
 62
  256
370
   -1
100
AcDbCircle
 10
0
 20
0
 40
0.25
  0
ENDBLK
  5
78
330
76
100
AcDbEntity
  8
0
100
AcDbBlockEnd
  0
BLOCK
  5
7A
330
79
100
AcDbEntity
  8
0
100
AcDbBlockBegin
  2
R10k
 70
    0
 10
0
 20
0
  3
R10k
  1

  0
CIRCLE
  5
96
100
AcDbEntity
  8
resister
  6
ByLayer
 62
  256
370
   -1
100
AcDbCircle
 10
0
 20
0
 40
0.3
  0
LINE
  5
97
100
AcDbEntity
  8
resister
  6
ByLayer
 62
  256
370
   -1
100
AcDbLine
 10
-0.659999999999485
 20
1.150000000000098
 11
-0.659999999999485
 21
-1.150000000000059
  0
LINE
  5
98
100
AcDbEntity
  8
resister
  6
ByLayer
 62
  256
370
   -1
100
AcDbLine
 10
-6.959999999999557
 20
-1.150000000000041
 11
-0.659999999999485
 21
-1.150000000000059
  0
LINE
  5
99
100
AcDbEntity
  8
resister
  6
ByLayer
 62
  256
370
   -1
100
AcDbLine
 10
-0.659999999999485
 20
1.150000000000098
 11
-6.959999999999557
 21
1.150000000000098
  0
LINE
  5
9A
100
AcDbEntity
  8
resister
  6
ByLayer
 62
  256
370
   -1
100
AcDbLine
 10
-6.959999999999557
 20
1.150000000000098
 11
-6.959999999999557
 21
-1.150000000000041
  0
CIRCLE
  5
9B
100
AcDbEntity
  8
resister
  6
ByLayer
 62
  256
370
   -1
100
AcDbCircle
 10
-7.619999999999408
 20
2.131628207280301e-14
 40
0.25
  0
MTEXT
  5
9C
100
AcDbEntity
  8
resister
  6
ByLayer
 62
  256
370
   -1
100
AcDbMText
 10
-3.991855261194459
 20
0.08749576228997924
 30
0
 40
1
 41
2.666666666666667
 71
    5
 72
    1
  1
R10k
  7
unicode
210
0
220
0
230
1
 50
0
 73
    2
 44
1
  0
LINE
  5
9D
100
AcDbEntity
  8
resister
  6
ByLayer
 62
  256
370
   -1
100
AcDbLine
 10
-0.2499999999985789
 20
2.131628207280301e-14
 11
-0.659999999999485
 21
2.131628207280301e-14
  0
LINE
  5
9E
100
AcDbEntity
  8
resister
  6
ByLayer
 62
  256
370
   -1
100
AcDbLine
 10
-7.369999999999898
 20
1.06581410364015e-14
 11
-6.959999999999557
 21
1.06581410364015e-14
  0
ENDBLK
  5
7B
330
79
100
AcDbEntity
  8
0
100
AcDbBlockEnd
  0
BLOCK
  5
7D
330
7C
100
AcDbEntity
  8
0
100
AcDbBlockBegin
  2
R0
 70
    0
 10
0
 20
0
  3
R0
  1

  0
LINE
  5
9F
100
AcDbEntity
  8
resister
  6
ByLayer
 62
  256
370
   -1
100
AcDbLine
 10
-0.6599999999999611
 20
1.149999999999959
 11
-0.6599999999999611
 21
-1.14999999999997
  0
LINE
  5
A0
100
AcDbEntity
  8
resister
  6
ByLayer
 62
  256
370
   -1
100
AcDbLine
 10
-0.6599999999999611
 20
-1.14999999999997
 11
-6.959999999999834
 21
-1.14999999999997
  0
LINE
  5
A1
100
AcDbEntity
  8
resister
  6
ByLayer
 62
  256
370
   -1
100
AcDbLine
 10
-6.959999999999834
 20
-1.14999999999997
 11
-6.95999999999982
 21
1.149999999999959
  0
LINE
  5
A2
100
AcDbEntity
  8
resister
  6
ByLayer
 62
  256
370
   -1
100
AcDbLine
 10
-6.95999999999982
 20
1.149999999999959
 11
-0.6599999999999611
 21
1.149999999999959
  0
LINE
  5
A3
100
AcDbEntity
  8
resister
  6
ByLayer
 62
  256
370
   -1
100
AcDbLine
 10
-6.95999999999982
 20
0
 11
-7.61999999999966
 21
0
  0
LINE
  5
A4
100
AcDbEntity
  8
resister
  6
ByLayer
 62
  256
370
   -1
100
AcDbLine
 10
3.694822225952521e-13
 20
0
 11
-0.6599999999999611
 21
0
  0
MTEXT
  5
A5
100
AcDbEntity
  8
resister
  6
ByLayer
 62
  256
370
   -1
100
AcDbMText
 10
-4.132042899777453
 20
0.05377778633712005
 30
0
 40
1
 41
1.333333333333333
 71
    5
 72
    1
  1
R0
  7
STANDARD
210
0
220
0
230
1
 50
270
 73
    2
 44
1
  0
ENDBLK
  5
7E
330
7C
100
AcDbEntity
  8
0
100
AcDbBlockEnd
  0
ENDSEC
  0
SECTION
  2
ENTITIES
  0
CIRCLE
  5
A6
100
AcDbEntity
  8
universal board
  6
ByLayer
 62
  256
370
   -1
100
AcDbCircle
 10
-23.50000000000001
 20
38.54000000000002
 40
0.5
  0
CIRCLE
  5
A7
100
AcDbEntity
  8
universal board
  6
ByLayer
 62
  256
370
   -1
100
AcDbCircle
 10
-26.0399999999999
 20
38.54000000000002
 40
0.5
  0
CIRCLE
  5
A8
100
AcDbEntity
  8
universal board
  6
ByLayer
 62
  256
370
   -1
100
AcDbCircle
 10
-28.57999999999979
 20
38.54000000000002
 40
0.5
  0
CIRCLE
  5
A9
100
AcDbEntity
  8
universal board
  6
ByLayer
 62
  256
370
   -1
100
AcDbCircle
 10
-31.11999999999968
 20
38.54000000000002
 40
0.5
  0
CIRCLE
  5
AA
100
AcDbEntity
  8
universal board
  6
ByLayer
 62
  256
370
   -1
100
AcDbCircle
 10
-33.65999999999958
 20
38.54000000000002
 40
0.5
  0
CIRCLE
  5
AB
100
AcDbEntity
  8
universal board
  6
ByLayer
 62
  256
370
   -1
100
AcDbCircle
 10
-36.19999999999947
 20
38.54000000000002
 40
0.5
  0
CIRCLE
  5
AC
100
AcDbEntity
  8
universal board
  6
ByLayer
 62
  256
370
   -1
100
AcDbCircle
 10
-20.96000000000013
 20
38.54000000000003
 40
0.5
  0
CIRCLE
  5
AD
100
AcDbEntity
  8
universal board
  6
ByLayer
 62
  256
370
   -1
100
AcDbCircle
 10
-18.42000000000025
 20
38.54000000000003
 40
0.5
  0
CIRCLE
  5
AE
100
AcDbEntity
  8
universal board
  6
ByLayer
 62
  256
370
   -1
100
AcDbCircle
 10
-15.88000000000037
 20
38.54000000000004
 40
0.5
  0
CIRCLE
  5
AF
100
AcDbEntity
  8
universal board
  6
ByLayer
 62
  256
370
   -1
100
AcDbCircle
 10
-13.34000000000049
 20
38.54000000000005
 40
0.5
  0
CIRCLE
  5
B0
100
AcDbEntity
  8
universal board
  6
ByLayer
 62
  256
370
   -1
100
AcDbCircle
 10
-10.80000000000062
 20
38.54000000000006
 40
0.5
  0
CIRCLE
  5
B1
100
AcDbEntity
  8
universal board
  6
ByLayer
 62
  256
370
   -1
100
AcDbCircle
 10
-8.260000000000741
 20
38.54000000000006
 40
0.5
  0
CIRCLE
  5
B2
100
AcDbEntity
  8
universal board
  6
ByLayer
 62
  256
370
   -1
100
AcDbCircle
 10
-5.72000000000086
 20
38.54000000000007
 40
0.5
  0
CIRCLE
  5
B3
100
AcDbEntity
  8
universal board
  6
ByLayer
 62
  256
370
   -1
100
AcDbCircle
 10
-23.50000000000001
 20
41.08000000000004
 40
0.5
  0
CIRCLE
  5
B4
100
AcDbEntity
  8
universal board
  6
ByLayer
 62
  256
370
   -1
100
AcDbCircle
 10
-26.03999999999991
 20
41.08000000000004
 40
0.5
  0
CIRCLE
  5
B5
100
AcDbEntity
  8
universal board
  6
ByLayer
 62
  256
370
   -1
100
AcDbCircle
 10
-28.5799999999998
 20
41.08000000000004
 40
0.5
  0
CIRCLE
  5
B6
100
AcDbEntity
  8
universal board
  6
ByLayer
 62
  256
370
   -1
100
AcDbCircle
 10
-31.11999999999969
 20
41.08000000000004
 40
0.5
  0
CIRCLE
  5
B7
100
AcDbEntity
  8
universal board
  6
ByLayer
 62
  256
370
   -1
100
AcDbCircle
 10
-33.65999999999958
 20
41.08000000000004
 40
0.5
  0
CIRCLE
  5
B8
100
AcDbEntity
  8
universal board
  6
ByLayer
 62
  256
370
   -1
100
AcDbCircle
 10
-36.19999999999948
 20
41.08000000000004
 40
0.5
  0
CIRCLE
  5
B9
100
AcDbEntity
  8
universal board
  6
ByLayer
 62
  256
370
   -1
100
AcDbCircle
 10
-20.96000000000014
 20
41.08000000000005
 40
0.5
  0
CIRCLE
  5
BA
100
AcDbEntity
  8
universal board
  6
ByLayer
 62
  256
370
   -1
100
AcDbCircle
 10
-18.42000000000026
 20
41.08000000000006
 40
0.5
  0
CIRCLE
  5
BB
100
AcDbEntity
  8
universal board
  6
ByLayer
 62
  256
370
   -1
100
AcDbCircle
 10
-15.88000000000038
 20
41.08000000000006
 40
0.5
  0
CIRCLE
  5
BC
100
AcDbEntity
  8
universal board
  6
ByLayer
 62
  256
370
   -1
100
AcDbCircle
 10
-13.3400000000005
 20
41.08000000000007
 40
0.5
  0
CIRCLE
  5
BD
100
AcDbEntity
  8
universal board
  6
ByLayer
 62
  256
370
   -1
100
AcDbCircle
 10
-10.80000000000062
 20
41.08000000000008
 40
0.5
  0
CIRCLE
  5
BE
100
AcDbEntity
  8
universal board
  6
ByLayer
 62
  256
370
   -1
100
AcDbCircle
 10
-8.260000000000741
 20
41.08000000000008
 40
0.5
  0
CIRCLE
  5
BF
100
AcDbEntity
  8
universal board
  6
ByLayer
 62
  256
370
   -1
100
AcDbCircle
 10
-5.720000000000869
 20
41.08000000000009
 40
0.5
  0
CIRCLE
  5
C0
100
AcDbEntity
  8
universal board
  6
ByLayer
 62
  256
370
   -1
100
AcDbCircle
 10
-23.50000000000002
 20
43.62000000000006
 40
0.5
  0
CIRCLE
  5
C1
100
AcDbEntity
  8
universal board
  6
ByLayer
 62
  256
370
   -1
100
AcDbCircle
 10
-26.03999999999991
 20
43.62000000000006
 40
0.5
  0
CIRCLE
  5
C2
100
AcDbEntity
  8
universal board
  6
ByLayer
 62
  256
370
   -1
100
AcDbCircle
 10
-28.57999999999981
 20
43.62000000000006
 40
0.5
  0
CIRCLE
  5
C3
100
AcDbEntity
  8
universal board
  6
ByLayer
 62
  256
370
   -1
100
AcDbCircle
 10
-31.1199999999997
 20
43.62000000000006
 40
0.5
  0
CIRCLE
  5
C4
100
AcDbEntity
  8
universal board
  6
ByLayer
 62
  256
370
   -1
100
AcDbCircle
 10
-33.65999999999959
 20
43.62000000000006
 40
0.5
  0
CIRCLE
  5
C5
100
AcDbEntity
  8
universal board
  6
ByLayer
 62
  256
370
   -1
100
AcDbCircle
 10
-36.19999999999948
 20
43.62000000000006
 40
0.5
  0
CIRCLE
  5
C6
100
AcDbEntity
  8
universal board
  6
ByLayer
 62
  256
370
   -1
100
AcDbCircle
 10
-20.96000000000014
 20
43.62000000000007
 40
0.5
  0
CIRCLE
  5
C7
100
AcDbEntity
  8
universal board
  6
ByLayer
 62
  256
370
   -1
100
AcDbCircle
 10
-18.42000000000026
 20
43.62000000000008
 40
0.5
  0
CIRCLE
  5
C8
100
AcDbEntity
  8
universal board
  6
ByLayer
 62
  256
370
   -1
100
AcDbCircle
 10
-15.88000000000039
 20
43.62000000000008
 40
0.5
  0
CIRCLE
  5
C9
100
AcDbEntity
  8
universal board
  6
ByLayer
 62
  256
370
   -1
100
AcDbCircle
 10
-13.34000000000051
 20
43.62000000000009
 40
0.5
  0
CIRCLE
  5
CA
100
AcDbEntity
  8
universal board
  6
ByLayer
 62
  256
370
   -1
100
AcDbCircle
 10
-10.80000000000063
 20
43.6200000000001
 40
0.5
  0
CIRCLE
  5
CB
100
AcDbEntity
  8
universal board
  6
ByLayer
 62
  256
370
   -1
100
AcDbCircle
 10
-8.260000000000751
 20
43.6200000000001
 40
0.5
  0
CIRCLE
  5
CC
100
AcDbEntity
  8
universal board
  6
ByLayer
 62
  256
370
   -1
100
AcDbCircle
 10
-5.720000000000869
 20
43.62000000000011
 40
0.5
  0
CIRCLE
  5
CD
100
AcDbEntity
  8
universal board
  6
ByLayer
 62
  256
370
   -1
100
AcDbCircle
 10
-23.50000000000003
 20
46.16000000000008
 40
0.5
  0
CIRCLE
  5
CE
100
AcDbEntity
  8
universal board
  6
ByLayer
 62
  256
370
   -1
100
AcDbCircle
 10
-26.03999999999992
 20
46.16000000000008
 40
0.5
  0
CIRCLE
  5
CF
100
AcDbEntity
  8
universal board
  6
ByLayer
 62
  256
370
   -1
100
AcDbCircle
 10
-28.57999999999981
 20
46.16000000000008
 40
0.5
  0
CIRCLE
  5
D0
100
AcDbEntity
  8
universal board
  6
ByLayer
 62
  256
370
   -1
100
AcDbCircle
 10
-31.11999999999971
 20
46.16000000000008
 40
0.5
  0
CIRCLE
  5
D1
100
AcDbEntity
  8
universal board
  6
ByLayer
 62
  256
370
   -1
100
AcDbCircle
 10
-33.6599999999996
 20
46.16000000000008
 40
0.5
  0
CIRCLE
  5
D2
100
AcDbEntity
  8
universal board
  6
ByLayer
 62
  256
370
   -1
100
AcDbCircle
 10
-36.19999999999949
 20
46.16000000000008
 40
0.5
  0
CIRCLE
  5
D3
100
AcDbEntity
  8
universal board
  6
ByLayer
 62
  256
370
   -1
100
AcDbCircle
 10
-20.96000000000015
 20
46.16000000000009
 40
0.5
  0
CIRCLE
  5
D4
100
AcDbEntity
  8
universal board
  6
ByLayer
 62
  256
370
   -1
100
AcDbCircle
 10
-18.42000000000027
 20
46.1600000000001
 40
0.5
  0
CIRCLE
  5
D5
100
AcDbEntity
  8
universal board
  6
ByLayer
 62
  256
370
   -1
100
AcDbCircle
 10
-15.88000000000039
 20
46.1600000000001
 40
0.5
  0
CIRCLE
  5
D6
100
AcDbEntity
  8
universal board
  6
ByLayer
 62
  256
370
   -1
100
AcDbCircle
 10
-13.34000000000052
 20
46.16000000000011
 40
0.5
  0
CIRCLE
  5
D7
100
AcDbEntity
  8
universal board
  6
ByLayer
 62
  256
370
   -1
100
AcDbCircle
 10
-10.80000000000064
 20
46.16000000000012
 40
0.5
  0
CIRCLE
  5
D8
100
AcDbEntity
  8
universal board
  6
ByLayer
 62
  256
370
   -1
100
AcDbCircle
 10
-8.260000000000758
 20
46.16000000000012
 40
0.5
  0
CIRCLE
  5
D9
100
AcDbEntity
  8
universal board
  6
ByLayer
 62
  256
370
   -1
100
AcDbCircle
 10
-5.72000000000088
 20
46.16000000000013
 40
0.5
  0
CIRCLE
  5
DA
100
AcDbEntity
  8
universal board
  6
ByLayer
 62
  256
370
   -1
100
AcDbCircle
 10
-23.50000000000004
 20
48.7000000000001
 40
0.5
  0
CIRCLE
  5
DB
100
AcDbEntity
  8
universal board
  6
ByLayer
 62
  256
370
   -1
100
AcDbCircle
 10
-26.03999999999993
 20
48.7000000000001
 40
0.5
  0
CIRCLE
  5
DC
100
AcDbEntity
  8
universal board
  6
ByLayer
 62
  256
370
   -1
100
AcDbCircle
 10
-28.57999999999982
 20
48.7000000000001
 40
0.5
  0
CIRCLE
  5
DD
100
AcDbEntity
  8
universal board
  6
ByLayer
 62
  256
370
   -1
100
AcDbCircle
 10
-31.11999999999971
 20
48.7000000000001
 40
0.5
  0
CIRCLE
  5
DE
100
AcDbEntity
  8
universal board
  6
ByLayer
 62
  256
370
   -1
100
AcDbCircle
 10
-33.65999999999961
 20
48.7000000000001
 40
0.5
  0
CIRCLE
  5
DF
100
AcDbEntity
  8
universal board
  6
ByLayer
 62
  256
370
   -1
100
AcDbCircle
 10
-36.1999999999995
 20
48.7000000000001
 40
0.5
  0
CIRCLE
  5
E0
100
AcDbEntity
  8
universal board
  6
ByLayer
 62
  256
370
   -1
100
AcDbCircle
 10
-20.96000000000016
 20
48.70000000000011
 40
0.5
  0
CIRCLE
  5
E1
100
AcDbEntity
  8
universal board
  6
ByLayer
 62
  256
370
   -1
100
AcDbCircle
 10
-18.42000000000028
 20
48.70000000000012
 40
0.5
  0
CIRCLE
  5
E2
100
AcDbEntity
  8
universal board
  6
ByLayer
 62
  256
370
   -1
100
AcDbCircle
 10
-15.8800000000004
 20
48.70000000000012
 40
0.5
  0
CIRCLE
  5
E3
100
AcDbEntity
  8
universal board
  6
ByLayer
 62
  256
370
   -1
100
AcDbCircle
 10
-13.34000000000052
 20
48.70000000000013
 40
0.5
  0
CIRCLE
  5
E4
100
AcDbEntity
  8
universal board
  6
ByLayer
 62
  256
370
   -1
100
AcDbCircle
 10
-10.80000000000064
 20
48.70000000000014
 40
0.5
  0
CIRCLE
  5
E5
100
AcDbEntity
  8
universal board
  6
ByLayer
 62
  256
370
   -1
100
AcDbCircle
 10
-8.260000000000769
 20
48.70000000000014
 40
0.5
  0
CIRCLE
  5
E6
100
AcDbEntity
  8
universal board
  6
ByLayer
 62
  256
370
   -1
100
AcDbCircle
 10
-5.720000000000891
 20
48.70000000000015
 40
0.5
  0
CIRCLE
  5
E7
100
AcDbEntity
  8
universal board
  6
ByLayer
 62
  256
370
   -1
100
AcDbCircle
 10
-23.50000000000004
 20
51.24000000000012
 40
0.5
  0
CIRCLE
  5
E8
100
AcDbEntity
  8
universal board
  6
ByLayer
 62
  256
370
   -1
100
AcDbCircle
 10
-26.03999999999994
 20
51.24000000000012
 40
0.5
  0
CIRCLE
  5
E9
100
AcDbEntity
  8
universal board
  6
ByLayer
 62
  256
370
   -1
100
AcDbCircle
 10
-28.57999999999983
 20
51.24000000000012
 40
0.5
  0
CIRCLE
  5
EA
100
AcDbEntity
  8
universal board
  6
ByLayer
 62
  256
370
   -1
100
AcDbCircle
 10
-31.11999999999972
 20
51.24000000000012
 40
0.5
  0
CIRCLE
  5
EB
100
AcDbEntity
  8
universal board
  6
ByLayer
 62
  256
370
   -1
100
AcDbCircle
 10
-33.65999999999961
 20
51.24000000000012
 40
0.5
  0
CIRCLE
  5
EC
100
AcDbEntity
  8
universal board
  6
ByLayer
 62
  256
370
   -1
100
AcDbCircle
 10
-36.19999999999951
 20
51.24000000000012
 40
0.5
  0
CIRCLE
  5
ED
100
AcDbEntity
  8
universal board
  6
ByLayer
 62
  256
370
   -1
100
AcDbCircle
 10
-20.96000000000016
 20
51.24000000000013
 40
0.5
  0
CIRCLE
  5
EE
100
AcDbEntity
  8
universal board
  6
ByLayer
 62
  256
370
   -1
100
AcDbCircle
 10
-18.42000000000029
 20
51.24000000000014
 40
0.5
  0
CIRCLE
  5
EF
100
AcDbEntity
  8
universal board
  6
ByLayer
 62
  256
370
   -1
100
AcDbCircle
 10
-15.88000000000041
 20
51.24000000000014
 40
0.5
  0
CIRCLE
  5
F0
100
AcDbEntity
  8
universal board
  6
ByLayer
 62
  256
370
   -1
100
AcDbCircle
 10
-13.34000000000053
 20
51.24000000000015
 40
0.5
  0
CIRCLE
  5
F1
100
AcDbEntity
  8
universal board
  6
ByLayer
 62
  256
370
   -1
100
AcDbCircle
 10
-10.80000000000065
 20
51.24000000000016
 40
0.5
  0
CIRCLE
  5
F2
100
AcDbEntity
  8
universal board
  6
ByLayer
 62
  256
370
   -1
100
AcDbCircle
 10
-8.260000000000769
 20
51.24000000000017
 40
0.5
  0
CIRCLE
  5
F3
100
AcDbEntity
  8
universal board
  6
ByLayer
 62
  256
370
   -1
100
AcDbCircle
 10
-5.720000000000891
 20
51.24000000000017
 40
0.5
  0
CIRCLE
  5
F4
100
AcDbEntity
  8
universal board
  6
ByLayer
 62
  256
370
   -1
100
AcDbCircle
 10
-23.50000000000005
 20
53.78000000000014
 40
0.5
  0
CIRCLE
  5
F5
100
AcDbEntity
  8
universal board
  6
ByLayer
 62
  256
370
   -1
100
AcDbCircle
 10
-26.03999999999994
 20
53.78000000000014
 40
0.5
  0
CIRCLE
  5
F6
100
AcDbEntity
  8
universal board
  6
ByLayer
 62
  256
370
   -1
100
AcDbCircle
 10
-28.57999999999983
 20
53.78000000000014
 40
0.5
  0
CIRCLE
  5
F7
100
AcDbEntity
  8
universal board
  6
ByLayer
 62
  256
370
   -1
100
AcDbCircle
 10
-31.11999999999973
 20
53.78000000000014
 40
0.5
  0
CIRCLE
  5
F8
100
AcDbEntity
  8
universal board
  6
ByLayer
 62
  256
370
   -1
100
AcDbCircle
 10
-33.65999999999962
 20
53.78000000000014
 40
0.5
  0
CIRCLE
  5
F9
100
AcDbEntity
  8
universal board
  6
ByLayer
 62
  256
370
   -1
100
AcDbCircle
 10
-36.19999999999951
 20
53.78000000000014
 40
0.5
  0
CIRCLE
  5
FA
100
AcDbEntity
  8
universal board
  6
ByLayer
 62
  256
370
   -1
100
AcDbCircle
 10
-20.96000000000017
 20
53.78000000000015
 40
0.5
  0
CIRCLE
  5
FB
100
AcDbEntity
  8
universal board
  6
ByLayer
 62
  256
370
   -1
100
AcDbCircle
 10
-18.42000000000029
 20
53.78000000000016
 40
0.5
  0
CIRCLE
  5
FC
100
AcDbEntity
  8
universal board
  6
ByLayer
 62
  256
370
   -1
100
AcDbCircle
 10
-15.88000000000041
 20
53.78000000000016
 40
0.5
  0
CIRCLE
  5
FD
100
AcDbEntity
  8
universal board
  6
ByLayer
 62
  256
370
   -1
100
AcDbCircle
 10
-13.34000000000054
 20
53.78000000000017
 40
0.5
  0
CIRCLE
  5
FE
100
AcDbEntity
  8
universal board
  6
ByLayer
 62
  256
370
   -1
100
AcDbCircle
 10
-10.80000000000066
 20
53.78000000000018
 40
0.5
  0
CIRCLE
  5
FF
100
AcDbEntity
  8
universal board
  6
ByLayer
 62
  256
370
   -1
100
AcDbCircle
 10
-8.26000000000078
 20
53.78000000000019
 40
0.5
  0
CIRCLE
  5
100
100
AcDbEntity
  8
universal board
  6
ByLayer
 62
  256
370
   -1
100
AcDbCircle
 10
-5.720000000000899
 20
53.78000000000019
 40
0.5
  0
CIRCLE
  5
101
100
AcDbEntity
  8
universal board
  6
ByLayer
 62
  256
370
   -1
100
AcDbCircle
 10
-23.50000000000006
 20
56.32000000000016
 40
0.5
  0
CIRCLE
  5
102
100
AcDbEntity
  8
universal board
  6
ByLayer
 62
  256
370
   -1
100
AcDbCircle
 10
-26.03999999999995
 20
56.32000000000016
 40
0.5
  0
CIRCLE
  5
103
100
AcDbEntity
  8
universal board
  6
ByLayer
 62
  256
370
   -1
100
AcDbCircle
 10
-28.57999999999984
 20
56.32000000000016
 40
0.5
  0
CIRCLE
  5
104
100
AcDbEntity
  8
universal board
  6
ByLayer
 62
  256
370
   -1
100
AcDbCircle
 10
-31.11999999999973
 20
56.32000000000016
 40
0.5
  0
CIRCLE
  5
105
100
AcDbEntity
  8
universal board
  6
ByLayer
 62
  256
370
   -1
100
AcDbCircle
 10
-33.65999999999963
 20
56.32000000000016
 40
0.5
  0
CIRCLE
  5
106
100
AcDbEntity
  8
universal board
  6
ByLayer
 62
  256
370
   -1
100
AcDbCircle
 10
-36.19999999999952
 20
56.32000000000016
 40
0.5
  0
CIRCLE
  5
107
100
AcDbEntity
  8
universal board
  6
ByLayer
 62
  256
370
   -1
100
AcDbCircle
 10
-20.96000000000018
 20
56.32000000000017
 40
0.5
  0
CIRCLE
  5
108
100
AcDbEntity
  8
universal board
  6
ByLayer
 62
  256
370
   -1
100
AcDbCircle
 10
-18.4200000000003
 20
56.32000000000018
 40
0.5
  0
CIRCLE
  5
109
100
AcDbEntity
  8
universal board
  6
ByLayer
 62
  256
370
   -1
100
AcDbCircle
 10
-15.88000000000042
 20
56.32000000000019
 40
0.5
  0
CIRCLE
  5
10A
100
AcDbEntity
  8
universal board
  6
ByLayer
 62
  256
370
   -1
100
AcDbCircle
 10
-13.34000000000054
 20
56.32000000000019
 40
0.5
  0
CIRCLE
  5
10B
100
AcDbEntity
  8
universal board
  6
ByLayer
 62
  256
370
   -1
100
AcDbCircle
 10
-10.80000000000067
 20
56.3200000000002
 40
0.5
  0
CIRCLE
  5
10C
100
AcDbEntity
  8
universal board
  6
ByLayer
 62
  256
370
   -1
100
AcDbCircle
 10
-8.26000000000079
 20
56.32000000000021
 40
0.5
  0
CIRCLE
  5
10D
100
AcDbEntity
  8
universal board
  6
ByLayer
 62
  256
370
   -1
100
AcDbCircle
 10
-5.72000000000091
 20
56.32000000000021
 40
0.5
  0
CIRCLE
  5
10E
100
AcDbEntity
  8
universal board
  6
ByLayer
 62
  256
370
   -1
100
AcDbCircle
 10
-23.50000000000008
 20
63.94000000000023
 40
0.5
  0
CIRCLE
  5
10F
100
AcDbEntity
  8
universal board
  6
ByLayer
 62
  256
370
   -1
100
AcDbCircle
 10
-26.03999999999997
 20
63.94000000000023
 40
0.5
  0
CIRCLE
  5
110
100
AcDbEntity
  8
universal board
  6
ByLayer
 62
  256
370
   -1
100
AcDbCircle
 10
-28.57999999999986
 20
63.94000000000023
 40
0.5
  0
CIRCLE
  5
111
100
AcDbEntity
  8
universal board
  6
ByLayer
 62
  256
370
   -1
100
AcDbCircle
 10
-31.11999999999976
 20
63.94000000000023
 40
0.5
  0
CIRCLE
  5
112
100
AcDbEntity
  8
universal board
  6
ByLayer
 62
  256
370
   -1
100
AcDbCircle
 10
-33.65999999999965
 20
63.94000000000023
 40
0.5
  0
CIRCLE
  5
113
100
AcDbEntity
  8
universal board
  6
ByLayer
 62
  256
370
   -1
100
AcDbCircle
 10
-36.19999999999954
 20
63.94000000000023
 40
0.5
  0
CIRCLE
  5
114
100
AcDbEntity
  8
universal board
  6
ByLayer
 62
  256
370
   -1
100
AcDbCircle
 10
-38.73999999999943
 20
63.94000000000023
 40
0.5
  0
CIRCLE
  5
115
100
AcDbEntity
  8
universal board
  6
ByLayer
 62
  256
370
   -1
100
AcDbCircle
 10
-41.27999999999933
 20
63.94000000000023
 40
0.5
  0
CIRCLE
  5
116
100
AcDbEntity
  8
universal board
  6
ByLayer
 62
  256
370
   -1
100
AcDbCircle
 10
-20.9600000000002
 20
63.94000000000023
 40
0.5
  0
CIRCLE
  5
117
100
AcDbEntity
  8
universal board
  6
ByLayer
 62
  256
370
   -1
100
AcDbCircle
 10
-18.42000000000032
 20
63.94000000000024
 40
0.5
  0
CIRCLE
  5
118
100
AcDbEntity
  8
universal board
  6
ByLayer
 62
  256
370
   -1
100
AcDbCircle
 10
-15.88000000000044
 20
63.94000000000025
 40
0.5
  0
CIRCLE
  5
119
100
AcDbEntity
  8
universal board
  6
ByLayer
 62
  256
370
   -1
100
AcDbCircle
 10
-13.34000000000056
 20
63.94000000000025
 40
0.5
  0
CIRCLE
  5
11A
100
AcDbEntity
  8
universal board
  6
ByLayer
 62
  256
370
   -1
100
AcDbCircle
 10
-10.80000000000069
 20
63.94000000000026
 40
0.5
  0
CIRCLE
  5
11B
100
AcDbEntity
  8
universal board
  6
ByLayer
 62
  256
370
   -1
100
AcDbCircle
 10
-8.260000000000812
 20
63.94000000000027
 40
0.5
  0
CIRCLE
  5
11C
100
AcDbEntity
  8
universal board
  6
ByLayer
 62
  256
370
   -1
100
AcDbCircle
 10
-5.72000000000093
 20
63.94000000000027
 40
0.5
  0
CIRCLE
  5
11D
100
AcDbEntity
  8
universal board
  6
ByLayer
 62
  256
370
   -1
100
AcDbCircle
 10
-23.50000000000009
 20
66.48000000000025
 40
0.5
  0
CIRCLE
  5
11E
100
AcDbEntity
  8
universal board
  6
ByLayer
 62
  256
370
   -1
100
AcDbCircle
 10
-26.03999999999998
 20
66.48000000000025
 40
0.5
  0
CIRCLE
  5
11F
100
AcDbEntity
  8
universal board
  6
ByLayer
 62
  256
370
   -1
100
AcDbCircle
 10
-28.57999999999987
 20
66.48000000000025
 40
0.5
  0
CIRCLE
  5
120
100
AcDbEntity
  8
universal board
  6
ByLayer
 62
  256
370
   -1
100
AcDbCircle
 10
-31.11999999999976
 20
66.48000000000025
 40
0.5
  0
CIRCLE
  5
121
100
AcDbEntity
  8
universal board
  6
ByLayer
 62
  256
370
   -1
100
AcDbCircle
 10
-33.65999999999966
 20
66.48000000000025
 40
0.5
  0
CIRCLE
  5
122
100
AcDbEntity
  8
universal board
  6
ByLayer
 62
  256
370
   -1
100
AcDbCircle
 10
-36.19999999999955
 20
66.48000000000025
 40
0.5
  0
CIRCLE
  5
123
100
AcDbEntity
  8
universal board
  6
ByLayer
 62
  256
370
   -1
100
AcDbCircle
 10
-38.73999999999944
 20
66.48000000000025
 40
0.5
  0
CIRCLE
  5
124
100
AcDbEntity
  8
universal board
  6
ByLayer
 62
  256
370
   -1
100
AcDbCircle
 10
-41.27999999999933
 20
66.48000000000025
 40
0.5
  0
CIRCLE
  5
125
100
AcDbEntity
  8
universal board
  6
ByLayer
 62
  256
370
   -1
100
AcDbCircle
 10
-20.96000000000021
 20
66.48000000000025
 40
0.5
  0
CIRCLE
  5
126
100
AcDbEntity
  8
universal board
  6
ByLayer
 62
  256
370
   -1
100
AcDbCircle
 10
-18.42000000000033
 20
66.48000000000026
 40
0.5
  0
CIRCLE
  5
127
100
AcDbEntity
  8
universal board
  6
ByLayer
 62
  256
370
   -1
100
AcDbCircle
 10
-15.88000000000045
 20
66.48000000000027
 40
0.5
  0
CIRCLE
  5
128
100
AcDbEntity
  8
universal board
  6
ByLayer
 62
  256
370
   -1
100
AcDbCircle
 10
-13.34000000000057
 20
66.48000000000027
 40
0.5
  0
CIRCLE
  5
129
100
AcDbEntity
  8
universal board
  6
ByLayer
 62
  256
370
   -1
100
AcDbCircle
 10
-10.80000000000069
 20
66.48000000000027
 40
0.5
  0
CIRCLE
  5
12A
100
AcDbEntity
  8
universal board
  6
ByLayer
 62
  256
370
   -1
100
AcDbCircle
 10
-8.260000000000819
 20
66.48000000000029
 40
0.5
  0
CIRCLE
  5
12B
100
AcDbEntity
  8
universal board
  6
ByLayer
 62
  256
370
   -1
100
AcDbCircle
 10
-5.72000000000094
 20
66.4800000000003
 40
0.5
  0
CIRCLE
  5
12C
100
AcDbEntity
  8
universal board
  6
ByLayer
 62
  256
370
   -1
100
AcDbCircle
 10
-23.5
 20
30.91999999999997
 40
0.5
  0
CIRCLE
  5
12D
100
AcDbEntity
  8
universal board
  6
ByLayer
 62
  256
370
   -1
100
AcDbCircle
 10
-26.03999999999989
 20
30.91999999999997
 40
0.5
  0
CIRCLE
  5
12E
100
AcDbEntity
  8
universal board
  6
ByLayer
 62
  256
370
   -1
100
AcDbCircle
 10
-28.57999999999979
 20
30.91999999999997
 40
0.5
  0
CIRCLE
  5
12F
100
AcDbEntity
  8
universal board
  6
ByLayer
 62
  256
370
   -1
100
AcDbCircle
 10
-31.11999999999968
 20
30.91999999999997
 40
0.5
  0
CIRCLE
  5
130
100
AcDbEntity
  8
universal board
  6
ByLayer
 62
  256
370
   -1
100
AcDbCircle
 10
-33.65999999999957
 20
30.91999999999997
 40
0.5
  0
CIRCLE
  5
131
100
AcDbEntity
  8
universal board
  6
ByLayer
 62
  256
370
   -1
100
AcDbCircle
 10
-36.19999999999946
 20
30.91999999999997
 40
0.5
  0
CIRCLE
  5
132
100
AcDbEntity
  8
universal board
  6
ByLayer
 62
  256
370
   -1
100
AcDbCircle
 10
-38.73999999999936
 20
30.91999999999997
 40
0.5
  0
CIRCLE
  5
133
100
AcDbEntity
  8
universal board
  6
ByLayer
 62
  256
370
   -1
100
AcDbCircle
 10
-20.96000000000012
 20
30.91999999999998
 40
0.5
  0
CIRCLE
  5
134
100
AcDbEntity
  8
universal board
  6
ByLayer
 62
  256
370
   -1
100
AcDbCircle
 10
-18.42000000000024
 20
30.91999999999999
 40
0.5
  0
CIRCLE
  5
135
100
AcDbEntity
  8
universal board
  6
ByLayer
 62
  256
370
   -1
100
AcDbCircle
 10
-15.88000000000036
 20
30.91999999999999
 40
0.5
  0
CIRCLE
  5
136
100
AcDbEntity
  8
universal board
  6
ByLayer
 62
  256
370
   -1
100
AcDbCircle
 10
-13.34000000000049
 20
30.92
 40
0.5
  0
CIRCLE
  5
137
100
AcDbEntity
  8
universal board
  6
ByLayer
 62
  256
370
   -1
100
AcDbCircle
 10
-10.80000000000061
 20
30.92000000000001
 40
0.5
  0
CIRCLE
  5
138
100
AcDbEntity
  8
universal board
  6
ByLayer
 62
  256
370
   -1
100
AcDbCircle
 10
-8.26000000000073
 20
30.92000000000002
 40
0.5
  0
CIRCLE
  5
139
100
AcDbEntity
  8
universal board
  6
ByLayer
 62
  256
370
   -1
100
AcDbCircle
 10
-5.72000000000085
 20
30.92000000000002
 40
0.5
  0
CIRCLE
  5
13A
100
AcDbEntity
  8
universal board
  6
ByLayer
 62
  256
370
   -1
100
AcDbCircle
 10
-23.5
 20
28.37999999999996
 40
0.5
  0
CIRCLE
  5
13B
100
AcDbEntity
  8
universal board
  6
ByLayer
 62
  256
370
   -1
100
AcDbCircle
 10
-26.03999999999989
 20
28.37999999999996
 40
0.5
  0
CIRCLE
  5
13C
100
AcDbEntity
  8
universal board
  6
ByLayer
 62
  256
370
   -1
100
AcDbCircle
 10
-28.57999999999979
 20
28.37999999999996
 40
0.5
  0
CIRCLE
  5
13D
100
AcDbEntity
  8
universal board
  6
ByLayer
 62
  256
370
   -1
100
AcDbCircle
 10
-31.11999999999968
 20
28.37999999999996
 40
0.5
  0
CIRCLE
  5
13E
100
AcDbEntity
  8
universal board
  6
ByLayer
 62
  256
370
   -1
100
AcDbCircle
 10
-33.65999999999957
 20
28.37999999999996
 40
0.5
  0
CIRCLE
  5
13F
100
AcDbEntity
  8
universal board
  6
ByLayer
 62
  256
370
   -1
100
AcDbCircle
 10
-36.19999999999946
 20
28.37999999999996
 40
0.5
  0
CIRCLE
  5
140
100
AcDbEntity
  8
universal board
  6
ByLayer
 62
  256
370
   -1
100
AcDbCircle
 10
-38.73999999999936
 20
28.37999999999996
 40
0.5
  0
CIRCLE
  5
141
100
AcDbEntity
  8
universal board
  6
ByLayer
 62
  256
370
   -1
100
AcDbCircle
 10
-20.96000000000012
 20
28.37999999999997
 40
0.5
  0
CIRCLE
  5
142
100
AcDbEntity
  8
universal board
  6
ByLayer
 62
  256
370
   -1
100
AcDbCircle
 10
-18.42000000000024
 20
28.37999999999997
 40
0.5
  0
CIRCLE
  5
143
100
AcDbEntity
  8
universal board
  6
ByLayer
 62
  256
370
   -1
100
AcDbCircle
 10
-15.88000000000036
 20
28.37999999999998
 40
0.5
  0
CIRCLE
  5
144
100
AcDbEntity
  8
universal board
  6
ByLayer
 62
  256
370
   -1
100
AcDbCircle
 10
-13.34000000000049
 20
28.37999999999999
 40
0.5
  0
CIRCLE
  5
145
100
AcDbEntity
  8
universal board
  6
ByLayer
 62
  256
370
   -1
100
AcDbCircle
 10
-10.80000000000061
 20
28.38
 40
0.5
  0
CIRCLE
  5
146
100
AcDbEntity
  8
universal board
  6
ByLayer
 62
  256
370
   -1
100
AcDbCircle
 10
-8.26000000000073
 20
28.38
 40
0.5
  0
CIRCLE
  5
147
100
AcDbEntity
  8
universal board
  6
ByLayer
 62
  256
370
   -1
100
AcDbCircle
 10
-5.72000000000085
 20
28.38000000000001
 40
0.5
  0
CIRCLE
  5
148
100
AcDbEntity
  8
universal board
  6
ByLayer
 62
  256
370
   -1
100
AcDbCircle
 10
-23.5
 20
25.83999999999995
 40
0.5
  0
CIRCLE
  5
149
100
AcDbEntity
  8
universal board
  6
ByLayer
 62
  256
370
   -1
100
AcDbCircle
 10
-26.03999999999989
 20
25.83999999999995
 40
0.5
  0
CIRCLE
  5
14A
100
AcDbEntity
  8
universal board
  6
ByLayer
 62
  256
370
   -1
100
AcDbCircle
 10
-28.57999999999979
 20
25.83999999999995
 40
0.5
  0
CIRCLE
  5
14B
100
AcDbEntity
  8
universal board
  6
ByLayer
 62
  256
370
   -1
100
AcDbCircle
 10
-31.11999999999968
 20
25.83999999999995
 40
0.5
  0
CIRCLE
  5
14C
100
AcDbEntity
  8
universal board
  6
ByLayer
 62
  256
370
   -1
100
AcDbCircle
 10
-33.65999999999957
 20
25.83999999999995
 40
0.5
  0
CIRCLE
  5
14D
100
AcDbEntity
  8
universal board
  6
ByLayer
 62
  256
370
   -1
100
AcDbCircle
 10
-36.19999999999946
 20
25.83999999999995
 40
0.5
  0
CIRCLE
  5
14E
100
AcDbEntity
  8
universal board
  6
ByLayer
 62
  256
370
   -1
100
AcDbCircle
 10
-38.73999999999936
 20
25.83999999999995
 40
0.5
  0
CIRCLE
  5
14F
100
AcDbEntity
  8
universal board
  6
ByLayer
 62
  256
370
   -1
100
AcDbCircle
 10
-20.96000000000012
 20
25.83999999999995
 40
0.5
  0
CIRCLE
  5
150
100
AcDbEntity
  8
universal board
  6
ByLayer
 62
  256
370
   -1
100
AcDbCircle
 10
-18.42000000000024
 20
25.83999999999996
 40
0.5
  0
CIRCLE
  5
151
100
AcDbEntity
  8
universal board
  6
ByLayer
 62
  256
370
   -1
100
AcDbCircle
 10
-15.88000000000036
 20
25.83999999999997
 40
0.5
  0
CIRCLE
  5
152
100
AcDbEntity
  8
universal board
  6
ByLayer
 62
  256
370
   -1
100
AcDbCircle
 10
-13.34000000000049
 20
25.83999999999997
 40
0.5
  0
CIRCLE
  5
153
100
AcDbEntity
  8
universal board
  6
ByLayer
 62
  256
370
   -1
100
AcDbCircle
 10
-10.80000000000061
 20
25.83999999999998
 40
0.5
  0
CIRCLE
  5
154
100
AcDbEntity
  8
universal board
  6
ByLayer
 62
  256
370
   -1
100
AcDbCircle
 10
-8.26000000000073
 20
25.83999999999999
 40
0.5
  0
CIRCLE
  5
155
100
AcDbEntity
  8
universal board
  6
ByLayer
 62
  256
370
   -1
100
AcDbCircle
 10
-5.72000000000085
 20
25.84
 40
0.5
  0
CIRCLE
  5
156
100
AcDbEntity
  8
universal board
  6
ByLayer
 62
  256
370
   -1
100
AcDbCircle
 10
-23.5
 20
23.29999999999993
 40
0.5
  0
CIRCLE
  5
157
100
AcDbEntity
  8
universal board
  6
ByLayer
 62
  256
370
   -1
100
AcDbCircle
 10
-26.03999999999989
 20
23.29999999999993
 40
0.5
  0
CIRCLE
  5
158
100
AcDbEntity
  8
universal board
  6
ByLayer
 62
  256
370
   -1
100
AcDbCircle
 10
-28.57999999999979
 20
23.29999999999993
 40
0.5
  0
CIRCLE
  5
159
100
AcDbEntity
  8
universal board
  6
ByLayer
 62
  256
370
   -1
100
AcDbCircle
 10
-31.11999999999968
 20
23.29999999999993
 40
0.5
  0
CIRCLE
  5
15A
100
AcDbEntity
  8
universal board
  6
ByLayer
 62
  256
370
   -1
100
AcDbCircle
 10
-33.65999999999957
 20
23.29999999999993
 40
0.5
  0
CIRCLE
  5
15B
100
AcDbEntity
  8
universal board
  6
ByLayer
 62
  256
370
   -1
100
AcDbCircle
 10
-36.19999999999946
 20
23.29999999999993
 40
0.5
  0
CIRCLE
  5
15C
100
AcDbEntity
  8
universal board
  6
ByLayer
 62
  256
370
   -1
100
AcDbCircle
 10
-38.73999999999936
 20
23.29999999999993
 40
0.5
  0
CIRCLE
  5
15D
100
AcDbEntity
  8
universal board
  6
ByLayer
 62
  256
370
   -1
100
AcDbCircle
 10
-20.96000000000012
 20
23.29999999999994
 40
0.5
  0
CIRCLE
  5
15E
100
AcDbEntity
  8
universal board
  6
ByLayer
 62
  256
370
   -1
100
AcDbCircle
 10
-18.42000000000024
 20
23.29999999999995
 40
0.5
  0
CIRCLE
  5
15F
100
AcDbEntity
  8
universal board
  6
ByLayer
 62
  256
370
   -1
100
AcDbCircle
 10
-15.88000000000036
 20
23.29999999999995
 40
0.5
  0
CIRCLE
  5
160
100
AcDbEntity
  8
universal board
  6
ByLayer
 62
  256
370
   -1
100
AcDbCircle
 10
-13.34000000000049
 20
23.29999999999996
 40
0.5
  0
CIRCLE
  5
161
100
AcDbEntity
  8
universal board
  6
ByLayer
 62
  256
370
   -1
100
AcDbCircle
 10
-10.80000000000061
 20
23.29999999999997
 40
0.5
  0
CIRCLE
  5
162
100
AcDbEntity
  8
universal board
  6
ByLayer
 62
  256
370
   -1
100
AcDbCircle
 10
-8.26000000000073
 20
23.29999999999998
 40
0.5
  0
CIRCLE
  5
163
100
AcDbEntity
  8
universal board
  6
ByLayer
 62
  256
370
   -1
100
AcDbCircle
 10
-5.72000000000085
 20
23.29999999999998
 40
0.5
  0
CIRCLE
  5
164
100
AcDbEntity
  8
universal board
  6
ByLayer
 62
  256
370
   -1
100
AcDbCircle
 10
-23.5
 20
20.75999999999992
 40
0.5
  0
CIRCLE
  5
165
100
AcDbEntity
  8
universal board
  6
ByLayer
 62
  256
370
   -1
100
AcDbCircle
 10
-26.03999999999989
 20
20.75999999999992
 40
0.5
  0
CIRCLE
  5
166
100
AcDbEntity
  8
universal board
  6
ByLayer
 62
  256
370
   -1
100
AcDbCircle
 10
-28.57999999999979
 20
20.75999999999992
 40
0.5
  0
CIRCLE
  5
167
100
AcDbEntity
  8
universal board
  6
ByLayer
 62
  256
370
   -1
100
AcDbCircle
 10
-31.11999999999968
 20
20.75999999999992
 40
0.5
  0
CIRCLE
  5
168
100
AcDbEntity
  8
universal board
  6
ByLayer
 62
  256
370
   -1
100
AcDbCircle
 10
-33.65999999999957
 20
20.75999999999992
 40
0.5
  0
CIRCLE
  5
169
100
AcDbEntity
  8
universal board
  6
ByLayer
 62
  256
370
   -1
100
AcDbCircle
 10
-36.19999999999946
 20
20.75999999999992
 40
0.5
  0
CIRCLE
  5
16A
100
AcDbEntity
  8
universal board
  6
ByLayer
 62
  256
370
   -1
100
AcDbCircle
 10
-38.73999999999936
 20
20.75999999999992
 40
0.5
  0
CIRCLE
  5
16B
100
AcDbEntity
  8
universal board
  6
ByLayer
 62
  256
370
   -1
100
AcDbCircle
 10
-20.96000000000012
 20
20.75999999999993
 40
0.5
  0
CIRCLE
  5
16C
100
AcDbEntity
  8
universal board
  6
ByLayer
 62
  256
370
   -1
100
AcDbCircle
 10
-18.42000000000024
 20
20.75999999999993
 40
0.5
  0
CIRCLE
  5
16D
100
AcDbEntity
  8
universal board
  6
ByLayer
 62
  256
370
   -1
100
AcDbCircle
 10
-15.88000000000036
 20
20.75999999999994
 40
0.5
  0
CIRCLE
  5
16E
100
AcDbEntity
  8
universal board
  6
ByLayer
 62
  256
370
   -1
100
AcDbCircle
 10
-13.34000000000049
 20
20.75999999999995
 40
0.5
  0
CIRCLE
  5
16F
100
AcDbEntity
  8
universal board
  6
ByLayer
 62
  256
370
   -1
100
AcDbCircle
 10
-10.80000000000061
 20
20.75999999999996
 40
0.5
  0
CIRCLE
  5
170
100
AcDbEntity
  8
universal board
  6
ByLayer
 62
  256
370
   -1
100
AcDbCircle
 10
-8.26000000000073
 20
20.75999999999996
 40
0.5
  0
CIRCLE
  5
171
100
AcDbEntity
  8
universal board
  6
ByLayer
 62
  256
370
   -1
100
AcDbCircle
 10
-5.72000000000085
 20
20.75999999999997
 40
0.5
  0
CIRCLE
  5
172
100
AcDbEntity
  8
universal board
  6
ByLayer
 62
  256
370
   -1
100
AcDbCircle
 10
-23.5
 20
18.21999999999991
 40
0.5
  0
CIRCLE
  5
173
100
AcDbEntity
  8
universal board
  6
ByLayer
 62
  256
370
   -1
100
AcDbCircle
 10
-26.03999999999989
 20
18.21999999999991
 40
0.5
  0
CIRCLE
  5
174
100
AcDbEntity
  8
universal board
  6
ByLayer
 62
  256
370
   -1
100
AcDbCircle
 10
-28.57999999999979
 20
18.21999999999991
 40
0.5
  0
CIRCLE
  5
175
100
AcDbEntity
  8
universal board
  6
ByLayer
 62
  256
370
   -1
100
AcDbCircle
 10
-31.11999999999968
 20
18.21999999999991
 40
0.5
  0
CIRCLE
  5
176
100
AcDbEntity
  8
universal board
  6
ByLayer
 62
  256
370
   -1
100
AcDbCircle
 10
-33.65999999999957
 20
18.21999999999991
 40
0.5
  0
CIRCLE
  5
177
100
AcDbEntity
  8
universal board
  6
ByLayer
 62
  256
370
   -1
100
AcDbCircle
 10
-36.19999999999946
 20
18.21999999999991
 40
0.5
  0
CIRCLE
  5
178
100
AcDbEntity
  8
universal board
  6
ByLayer
 62
  256
370
   -1
100
AcDbCircle
 10
-38.73999999999936
 20
18.21999999999991
 40
0.5
  0
CIRCLE
  5
179
100
AcDbEntity
  8
universal board
  6
ByLayer
 62
  256
370
   -1
100
AcDbCircle
 10
-20.96000000000012
 20
18.21999999999991
 40
0.5
  0
CIRCLE
  5
17A
100
AcDbEntity
  8
universal board
  6
ByLayer
 62
  256
370
   -1
100
AcDbCircle
 10
-18.42000000000024
 20
18.21999999999992
 40
0.5
  0
CIRCLE
  5
17B
100
AcDbEntity
  8
universal board
  6
ByLayer
 62
  256
370
   -1
100
AcDbCircle
 10
-15.88000000000036
 20
18.21999999999993
 40
0.5
  0
CIRCLE
  5
17C
100
AcDbEntity
  8
universal board
  6
ByLayer
 62
  256
370
   -1
100
AcDbCircle
 10
-13.34000000000049
 20
18.21999999999993
 40
0.5
  0
CIRCLE
  5
17D
100
AcDbEntity
  8
universal board
  6
ByLayer
 62
  256
370
   -1
100
AcDbCircle
 10
-10.80000000000061
 20
18.21999999999994
 40
0.5
  0
CIRCLE
  5
17E
100
AcDbEntity
  8
universal board
  6
ByLayer
 62
  256
370
   -1
100
AcDbCircle
 10
-8.26000000000073
 20
18.21999999999995
 40
0.5
  0
CIRCLE
  5
17F
100
AcDbEntity
  8
universal board
  6
ByLayer
 62
  256
370
   -1
100
AcDbCircle
 10
-5.72000000000085
 20
18.21999999999996
 40
0.5
  0
CIRCLE
  5
180
100
AcDbEntity
  8
universal board
  6
ByLayer
 62
  256
370
   -1
100
AcDbCircle
 10
-23.5
 20
15.67999999999989
 40
0.5
  0
CIRCLE
  5
181
100
AcDbEntity
  8
universal board
  6
ByLayer
 62
  256
370
   -1
100
AcDbCircle
 10
-26.03999999999989
 20
15.67999999999989
 40
0.5
  0
CIRCLE
  5
182
100
AcDbEntity
  8
universal board
  6
ByLayer
 62
  256
370
   -1
100
AcDbCircle
 10
-28.57999999999979
 20
15.67999999999989
 40
0.5
  0
CIRCLE
  5
183
100
AcDbEntity
  8
universal board
  6
ByLayer
 62
  256
370
   -1
100
AcDbCircle
 10
-31.11999999999968
 20
15.67999999999989
 40
0.5
  0
CIRCLE
  5
184
100
AcDbEntity
  8
universal board
  6
ByLayer
 62
  256
370
   -1
100
AcDbCircle
 10
-33.65999999999957
 20
15.67999999999989
 40
0.5
  0
CIRCLE
  5
185
100
AcDbEntity
  8
universal board
  6
ByLayer
 62
  256
370
   -1
100
AcDbCircle
 10
-36.19999999999946
 20
15.67999999999989
 40
0.5
  0
CIRCLE
  5
186
100
AcDbEntity
  8
universal board
  6
ByLayer
 62
  256
370
   -1
100
AcDbCircle
 10
-38.73999999999936
 20
15.67999999999989
 40
0.5
  0
CIRCLE
  5
187
100
AcDbEntity
  8
universal board
  6
ByLayer
 62
  256
370
   -1
100
AcDbCircle
 10
-20.96000000000012
 20
15.6799999999999
 40
0.5
  0
CIRCLE
  5
188
100
AcDbEntity
  8
universal board
  6
ByLayer
 62
  256
370
   -1
100
AcDbCircle
 10
-18.42000000000024
 20
15.67999999999991
 40
0.5
  0
CIRCLE
  5
189
100
AcDbEntity
  8
universal board
  6
ByLayer
 62
  256
370
   -1
100
AcDbCircle
 10
-15.88000000000036
 20
15.67999999999991
 40
0.5
  0
CIRCLE
  5
18A
100
AcDbEntity
  8
universal board
  6
ByLayer
 62
  256
370
   -1
100
AcDbCircle
 10
-13.34000000000049
 20
15.67999999999992
 40
0.5
  0
CIRCLE
  5
18B
100
AcDbEntity
  8
universal board
  6
ByLayer
 62
  256
370
   -1
100
AcDbCircle
 10
-10.80000000000061
 20
15.67999999999993
 40
0.5
  0
CIRCLE
  5
18C
100
AcDbEntity
  8
universal board
  6
ByLayer
 62
  256
370
   -1
100
AcDbCircle
 10
-8.26000000000073
 20
15.67999999999994
 40
0.5
  0
CIRCLE
  5
18D
100
AcDbEntity
  8
universal board
  6
ByLayer
 62
  256
370
   -1
100
AcDbCircle
 10
-5.72000000000085
 20
15.67999999999994
 40
0.5
  0
CIRCLE
  5
18E
100
AcDbEntity
  8
universal board
  6
ByLayer
 62
  256
370
   -1
100
AcDbCircle
 10
-23.5
 20
13.13999999999988
 40
0.5
  0
CIRCLE
  5
18F
100
AcDbEntity
  8
universal board
  6
ByLayer
 62
  256
370
   -1
100
AcDbCircle
 10
-26.03999999999989
 20
13.13999999999988
 40
0.5
  0
CIRCLE
  5
190
100
AcDbEntity
  8
universal board
  6
ByLayer
 62
  256
370
   -1
100
AcDbCircle
 10
-28.57999999999979
 20
13.13999999999988
 40
0.5
  0
CIRCLE
  5
191
100
AcDbEntity
  8
universal board
  6
ByLayer
 62
  256
370
   -1
100
AcDbCircle
 10
-31.11999999999968
 20
13.13999999999988
 40
0.5
  0
CIRCLE
  5
192
100
AcDbEntity
  8
universal board
  6
ByLayer
 62
  256
370
   -1
100
AcDbCircle
 10
-33.65999999999957
 20
13.13999999999988
 40
0.5
  0
CIRCLE
  5
193
100
AcDbEntity
  8
universal board
  6
ByLayer
 62
  256
370
   -1
100
AcDbCircle
 10
-36.19999999999946
 20
13.13999999999988
 40
0.5
  0
CIRCLE
  5
194
100
AcDbEntity
  8
universal board
  6
ByLayer
 62
  256
370
   -1
100
AcDbCircle
 10
-38.73999999999936
 20
13.13999999999988
 40
0.5
  0
CIRCLE
  5
195
100
AcDbEntity
  8
universal board
  6
ByLayer
 62
  256
370
   -1
100
AcDbCircle
 10
-20.96000000000012
 20
13.13999999999989
 40
0.5
  0
CIRCLE
  5
196
100
AcDbEntity
  8
universal board
  6
ByLayer
 62
  256
370
   -1
100
AcDbCircle
 10
-18.42000000000024
 20
13.13999999999989
 40
0.5
  0
CIRCLE
  5
197
100
AcDbEntity
  8
universal board
  6
ByLayer
 62
  256
370
   -1
100
AcDbCircle
 10
-15.88000000000036
 20
13.1399999999999
 40
0.5
  0
CIRCLE
  5
198
100
AcDbEntity
  8
universal board
  6
ByLayer
 62
  256
370
   -1
100
AcDbCircle
 10
-13.34000000000049
 20
13.13999999999991
 40
0.5
  0
CIRCLE
  5
199
100
AcDbEntity
  8
universal board
  6
ByLayer
 62
  256
370
   -1
100
AcDbCircle
 10
-10.80000000000061
 20
13.13999999999992
 40
0.5
  0
CIRCLE
  5
19A
100
AcDbEntity
  8
universal board
  6
ByLayer
 62
  256
370
   -1
100
AcDbCircle
 10
-8.26000000000073
 20
13.13999999999992
 40
0.5
  0
CIRCLE
  5
19B
100
AcDbEntity
  8
universal board
  6
ByLayer
 62
  256
370
   -1
100
AcDbCircle
 10
-5.72000000000085
 20
13.13999999999993
 40
0.5
  0
CIRCLE
  5
19C
100
AcDbEntity
  8
universal board
  6
ByLayer
 62
  256
370
   -1
100
AcDbCircle
 10
-23.5
 20
10.59999999999987
 40
0.5
  0
CIRCLE
  5
19D
100
AcDbEntity
  8
universal board
  6
ByLayer
 62
  256
370
   -1
100
AcDbCircle
 10
-26.03999999999989
 20
10.59999999999987
 40
0.5
  0
CIRCLE
  5
19E
100
AcDbEntity
  8
universal board
  6
ByLayer
 62
  256
370
   -1
100
AcDbCircle
 10
-28.57999999999979
 20
10.59999999999987
 40
0.5
  0
CIRCLE
  5
19F
100
AcDbEntity
  8
universal board
  6
ByLayer
 62
  256
370
   -1
100
AcDbCircle
 10
-31.11999999999968
 20
10.59999999999987
 40
0.5
  0
CIRCLE
  5
1A0
100
AcDbEntity
  8
universal board
  6
ByLayer
 62
  256
370
   -1
100
AcDbCircle
 10
-33.65999999999957
 20
10.59999999999987
 40
0.5
  0
CIRCLE
  5
1A1
100
AcDbEntity
  8
universal board
  6
ByLayer
 62
  256
370
   -1
100
AcDbCircle
 10
-36.19999999999946
 20
10.59999999999987
 40
0.5
  0
CIRCLE
  5
1A2
100
AcDbEntity
  8
universal board
  6
ByLayer
 62
  256
370
   -1
100
AcDbCircle
 10
-38.73999999999936
 20
10.59999999999987
 40
0.5
  0
CIRCLE
  5
1A3
100
AcDbEntity
  8
universal board
  6
ByLayer
 62
  256
370
   -1
100
AcDbCircle
 10
-20.96000000000012
 20
10.59999999999987
 40
0.5
  0
CIRCLE
  5
1A4
100
AcDbEntity
  8
universal board
  6
ByLayer
 62
  256
370
   -1
100
AcDbCircle
 10
-18.42000000000024
 20
10.59999999999988
 40
0.5
  0
CIRCLE
  5
1A5
100
AcDbEntity
  8
universal board
  6
ByLayer
 62
  256
370
   -1
100
AcDbCircle
 10
-15.88000000000036
 20
10.59999999999989
 40
0.5
  0
CIRCLE
  5
1A6
100
AcDbEntity
  8
universal board
  6
ByLayer
 62
  256
370
   -1
100
AcDbCircle
 10
-13.34000000000049
 20
10.59999999999989
 40
0.5
  0
CIRCLE
  5
1A7
100
AcDbEntity
  8
universal board
  6
ByLayer
 62
  256
370
   -1
100
AcDbCircle
 10
-10.80000000000061
 20
10.5999999999999
 40
0.5
  0
CIRCLE
  5
1A8
100
AcDbEntity
  8
universal board
  6
ByLayer
 62
  256
370
   -1
100
AcDbCircle
 10
-8.26000000000073
 20
10.59999999999991
 40
0.5
  0
CIRCLE
  5
1A9
100
AcDbEntity
  8
universal board
  6
ByLayer
 62
  256
370
   -1
100
AcDbCircle
 10
-5.72000000000085
 20
10.59999999999992
 40
0.5
  0
CIRCLE
  5
1AA
100
AcDbEntity
  8
universal board
  6
ByLayer
 62
  256
370
   -1
100
AcDbCircle
 10
-23.5
 20
8.059999999999853
 40
0.5
  0
CIRCLE
  5
1AB
100
AcDbEntity
  8
universal board
  6
ByLayer
 62
  256
370
   -1
100
AcDbCircle
 10
-26.03999999999989
 20
8.059999999999853
 40
0.5
  0
CIRCLE
  5
1AC
100
AcDbEntity
  8
universal board
  6
ByLayer
 62
  256
370
   -1
100
AcDbCircle
 10
-28.57999999999979
 20
8.059999999999853
 40
0.5
  0
CIRCLE
  5
1AD
100
AcDbEntity
  8
universal board
  6
ByLayer
 62
  256
370
   -1
100
AcDbCircle
 10
-31.11999999999968
 20
8.059999999999853
 40
0.5
  0
CIRCLE
  5
1AE
100
AcDbEntity
  8
universal board
  6
ByLayer
 62
  256
370
   -1
100
AcDbCircle
 10
-33.65999999999957
 20
8.059999999999853
 40
0.5
  0
CIRCLE
  5
1AF
100
AcDbEntity
  8
universal board
  6
ByLayer
 62
  256
370
   -1
100
AcDbCircle
 10
-36.19999999999946
 20
8.059999999999853
 40
0.5
  0
CIRCLE
  5
1B0
100
AcDbEntity
  8
universal board
  6
ByLayer
 62
  256
370
   -1
100
AcDbCircle
 10
-38.73999999999936
 20
8.059999999999853
 40
0.5
  0
CIRCLE
  5
1B1
100
AcDbEntity
  8
universal board
  6
ByLayer
 62
  256
370
   -1
100
AcDbCircle
 10
-20.96000000000012
 20
8.05999999999986
 40
0.5
  0
CIRCLE
  5
1B2
100
AcDbEntity
  8
universal board
  6
ByLayer
 62
  256
370
   -1
100
AcDbCircle
 10
-18.42000000000024
 20
8.059999999999867
 40
0.5
  0
CIRCLE
  5
1B3
100
AcDbEntity
  8
universal board
  6
ByLayer
 62
  256
370
   -1
100
AcDbCircle
 10
-15.88000000000036
 20
8.059999999999874
 40
0.5
  0
CIRCLE
  5
1B4
100
AcDbEntity
  8
universal board
  6
ByLayer
 62
  256
370
   -1
100
AcDbCircle
 10
-13.34000000000049
 20
8.059999999999881
 40
0.5
  0
CIRCLE
  5
1B5
100
AcDbEntity
  8
universal board
  6
ByLayer
 62
  256
370
   -1
100
AcDbCircle
 10
-10.80000000000061
 20
8.059999999999889
 40
0.5
  0
CIRCLE
  5
1B6
100
AcDbEntity
  8
universal board
  6
ByLayer
 62
  256
370
   -1
100
AcDbCircle
 10
-8.26000000000073
 20
8.059999999999896
 40
0.5
  0
CIRCLE
  5
1B7
100
AcDbEntity
  8
universal board
  6
ByLayer
 62
  256
370
   -1
100
AcDbCircle
 10
-5.72000000000085
 20
8.059999999999903
 40
0.5
  0
CIRCLE
  5
1B8
100
AcDbEntity
  8
universal board
  6
ByLayer
 62
  256
370
   -1
100
AcDbCircle
 10
-23.5
 20
5.51999999999984
 40
0.5
  0
CIRCLE
  5
1B9
100
AcDbEntity
  8
universal board
  6
ByLayer
 62
  256
370
   -1
100
AcDbCircle
 10
-26.03999999999989
 20
5.51999999999984
 40
0.5
  0
CIRCLE
  5
1BA
100
AcDbEntity
  8
universal board
  6
ByLayer
 62
  256
370
   -1
100
AcDbCircle
 10
-28.57999999999979
 20
5.51999999999984
 40
0.5
  0
CIRCLE
  5
1BB
100
AcDbEntity
  8
universal board
  6
ByLayer
 62
  256
370
   -1
100
AcDbCircle
 10
-31.11999999999968
 20
5.51999999999984
 40
0.5
  0
CIRCLE
  5
1BC
100
AcDbEntity
  8
universal board
  6
ByLayer
 62
  256
370
   -1
100
AcDbCircle
 10
-33.65999999999957
 20
5.51999999999984
 40
0.5
  0
CIRCLE
  5
1BD
100
AcDbEntity
  8
universal board
  6
ByLayer
 62
  256
370
   -1
100
AcDbCircle
 10
-36.19999999999946
 20
5.51999999999984
 40
0.5
  0
CIRCLE
  5
1BE
100
AcDbEntity
  8
universal board
  6
ByLayer
 62
  256
370
   -1
100
AcDbCircle
 10
-20.96000000000012
 20
5.519999999999847
 40
0.5
  0
CIRCLE
  5
1BF
100
AcDbEntity
  8
universal board
  6
ByLayer
 62
  256
370
   -1
100
AcDbCircle
 10
-18.42000000000024
 20
5.519999999999854
 40
0.5
  0
CIRCLE
  5
1C0
100
AcDbEntity
  8
universal board
  6
ByLayer
 62
  256
370
   -1
100
AcDbCircle
 10
-15.88000000000036
 20
5.519999999999861
 40
0.5
  0
CIRCLE
  5
1C1
100
AcDbEntity
  8
universal board
  6
ByLayer
 62
  256
370
   -1
100
AcDbCircle
 10
-13.34000000000049
 20
5.519999999999868
 40
0.5
  0
CIRCLE
  5
1C2
100
AcDbEntity
  8
universal board
  6
ByLayer
 62
  256
370
   -1
100
AcDbCircle
 10
-10.80000000000061
 20
5.519999999999875
 40
0.5
  0
CIRCLE
  5
1C3
100
AcDbEntity
  8
universal board
  6
ByLayer
 62
  256
370
   -1
100
AcDbCircle
 10
-8.26000000000073
 20
5.519999999999882
 40
0.5
  0
CIRCLE
  5
1C4
100
AcDbEntity
  8
universal board
  6
ByLayer
 62
  256
370
   -1
100
AcDbCircle
 10
-5.72000000000085
 20
5.519999999999889
 40
0.5
  0
CIRCLE
  5
1C5
100
AcDbEntity
  8
universal board
  6
ByLayer
 62
  256
370
   -1
100
AcDbCircle
 10
1.899999999998849
 20
36.00000000000004
 40
0.5
  0
CIRCLE
  5
1C6
100
AcDbEntity
  8
universal board
  6
ByLayer
 62
  256
370
   -1
100
AcDbCircle
 10
4.439999999998729
 20
36.00000000000004
 40
0.5
  0
CIRCLE
  5
1C7
100
AcDbEntity
  8
universal board
  6
ByLayer
 62
  256
370
   -1
100
AcDbCircle
 10
6.97999999999861
 20
36.00000000000005
 40
0.5
  0
CIRCLE
  5
1C8
100
AcDbEntity
  8
universal board
  6
ByLayer
 62
  256
370
   -1
100
AcDbCircle
 10
1.899999999998839
 20
38.54000000000006
 40
0.5
  0
CIRCLE
  5
1C9
100
AcDbEntity
  8
universal board
  6
ByLayer
 62
  256
370
   -1
100
AcDbCircle
 10
4.439999999998719
 20
38.54000000000006
 40
0.5
  0
CIRCLE
  5
1CA
100
AcDbEntity
  8
universal board
  6
ByLayer
 62
  256
370
   -1
100
AcDbCircle
 10
6.979999999998599
 20
38.54000000000007
 40
0.5
  0
CIRCLE
  5
1CB
100
AcDbEntity
  8
universal board
  6
ByLayer
 62
  256
370
   -1
100
AcDbCircle
 10
1.899999999998839
 20
41.08000000000008
 40
0.5
  0
CIRCLE
  5
1CC
100
AcDbEntity
  8
universal board
  6
ByLayer
 62
  256
370
   -1
100
AcDbCircle
 10
4.439999999998719
 20
41.08000000000008
 40
0.5
  0
CIRCLE
  5
1CD
100
AcDbEntity
  8
universal board
  6
ByLayer
 62
  256
370
   -1
100
AcDbCircle
 10
6.97999999999859
 20
41.08000000000009
 40
0.5
  0
CIRCLE
  5
1CE
100
AcDbEntity
  8
universal board
  6
ByLayer
 62
  256
370
   -1
100
AcDbCircle
 10
1.89999999999883
 20
43.6200000000001
 40
0.5
  0
CIRCLE
  5
1CF
100
AcDbEntity
  8
universal board
  6
ByLayer
 62
  256
370
   -1
100
AcDbCircle
 10
4.439999999998708
 20
43.6200000000001
 40
0.5
  0
CIRCLE
  5
1D0
100
AcDbEntity
  8
universal board
  6
ByLayer
 62
  256
370
   -1
100
AcDbCircle
 10
6.97999999999859
 20
43.62000000000011
 40
0.5
  0
CIRCLE
  5
1D1
100
AcDbEntity
  8
universal board
  6
ByLayer
 62
  256
370
   -1
100
AcDbCircle
 10
1.899999999998819
 20
46.16000000000012
 40
0.5
  0
CIRCLE
  5
1D2
100
AcDbEntity
  8
universal board
  6
ByLayer
 62
  256
370
   -1
100
AcDbCircle
 10
4.439999999998701
 20
46.16000000000012
 40
0.5
  0
CIRCLE
  5
1D3
100
AcDbEntity
  8
universal board
  6
ByLayer
 62
  256
370
   -1
100
AcDbCircle
 10
6.979999999998579
 20
46.16000000000013
 40
0.5
  0
CIRCLE
  5
1D4
100
AcDbEntity
  8
universal board
  6
ByLayer
 62
  256
370
   -1
100
AcDbCircle
 10
1.899999999998819
 20
48.70000000000014
 40
0.5
  0
CIRCLE
  5
1D5
100
AcDbEntity
  8
universal board
  6
ByLayer
 62
  256
370
   -1
100
AcDbCircle
 10
4.43999999999869
 20
48.70000000000014
 40
0.5
  0
CIRCLE
  5
1D6
100
AcDbEntity
  8
universal board
  6
ByLayer
 62
  256
370
   -1
100
AcDbCircle
 10
6.979999999998569
 20
48.70000000000015
 40
0.5
  0
CIRCLE
  5
1D7
100
AcDbEntity
  8
universal board
  6
ByLayer
 62
  256
370
   -1
100
AcDbCircle
 10
1.899999999998808
 20
51.24000000000016
 40
0.5
  0
CIRCLE
  5
1D8
100
AcDbEntity
  8
universal board
  6
ByLayer
 62
  256
370
   -1
100
AcDbCircle
 10
4.43999999999869
 20
51.24000000000017
 40
0.5
  0
CIRCLE
  5
1D9
100
AcDbEntity
  8
universal board
  6
ByLayer
 62
  256
370
   -1
100
AcDbCircle
 10
6.979999999998569
 20
51.24000000000017
 40
0.5
  0
CIRCLE
  5
1DA
100
AcDbEntity
  8
universal board
  6
ByLayer
 62
  256
370
   -1
100
AcDbCircle
 10
1.8999999999988
 20
53.78000000000018
 40
0.5
  0
CIRCLE
  5
1DB
100
AcDbEntity
  8
universal board
  6
ByLayer
 62
  256
370
   -1
100
AcDbCircle
 10
4.43999999999868
 20
53.78000000000019
 40
0.5
  0
CIRCLE
  5
1DC
100
AcDbEntity
  8
universal board
  6
ByLayer
 62
  256
370
   -1
100
AcDbCircle
 10
6.979999999998561
 20
53.78000000000019
 40
0.5
  0
CIRCLE
  5
1DD
100
AcDbEntity
  8
universal board
  6
ByLayer
 62
  256
370
   -1
100
AcDbCircle
 10
1.899999999998789
 20
56.3200000000002
 40
0.5
  0
CIRCLE
  5
1DE
100
AcDbEntity
  8
universal board
  6
ByLayer
 62
  256
370
   -1
100
AcDbCircle
 10
4.439999999998669
 20
56.32000000000021
 40
0.5
  0
CIRCLE
  5
1DF
100
AcDbEntity
  8
universal board
  6
ByLayer
 62
  256
370
   -1
100
AcDbCircle
 10
6.979999999998549
 20
56.32000000000021
 40
0.5
  0
CIRCLE
  5
1E0
100
AcDbEntity
  8
universal board
  6
ByLayer
 62
  256
370
   -1
100
AcDbCircle
 10
1.899999999998789
 20
58.86000000000022
 40
0.5
  0
CIRCLE
  5
1E1
100
AcDbEntity
  8
universal board
  6
ByLayer
 62
  256
370
   -1
100
AcDbCircle
 10
4.439999999998669
 20
58.86000000000023
 40
0.5
  0
CIRCLE
  5
1E2
100
AcDbEntity
  8
universal board
  6
ByLayer
 62
  256
370
   -1
100
AcDbCircle
 10
6.979999999998538
 20
58.86000000000023
 40
0.5
  0
CIRCLE
  5
1E3
100
AcDbEntity
  8
universal board
  6
ByLayer
 62
  256
370
   -1
100
AcDbCircle
 10
1.89999999999878
 20
61.40000000000024
 40
0.5
  0
CIRCLE
  5
1E4
100
AcDbEntity
  8
universal board
  6
ByLayer
 62
  256
370
   -1
100
AcDbCircle
 10
4.439999999998658
 20
61.40000000000025
 40
0.5
  0
CIRCLE
  5
1E5
100
AcDbEntity
  8
universal board
  6
ByLayer
 62
  256
370
   -1
100
AcDbCircle
 10
6.979999999998538
 20
61.40000000000025
 40
0.5
  0
CIRCLE
  5
1E6
100
AcDbEntity
  8
universal board
  6
ByLayer
 62
  256
370
   -1
100
AcDbCircle
 10
-3.18000000000098
 20
63.94000000000025
 40
0.5
  0
CIRCLE
  5
1E7
100
AcDbEntity
  8
universal board
  6
ByLayer
 62
  256
370
   -1
100
AcDbCircle
 10
-0.6400000000011001
 20
63.94000000000025
 40
0.5
  0
CIRCLE
  5
1E8
100
AcDbEntity
  8
universal board
  6
ByLayer
 62
  256
370
   -1
100
AcDbCircle
 10
1.899999999998769
 20
63.94000000000026
 40
0.5
  0
CIRCLE
  5
1E9
100
AcDbEntity
  8
universal board
  6
ByLayer
 62
  256
370
   -1
100
AcDbCircle
 10
4.439999999998648
 20
63.94000000000027
 40
0.5
  0
CIRCLE
  5
1EA
100
AcDbEntity
  8
universal board
  6
ByLayer
 62
  256
370
   -1
100
AcDbCircle
 10
6.97999999999853
 20
63.94000000000027
 40
0.5
  0
CIRCLE
  5
1EB
100
AcDbEntity
  8
universal board
  6
ByLayer
 62
  256
370
   -1
100
AcDbCircle
 10
-3.180000000000991
 20
66.48000000000027
 40
0.5
  0
CIRCLE
  5
1EC
100
AcDbEntity
  8
universal board
  6
ByLayer
 62
  256
370
   -1
100
AcDbCircle
 10
-0.6400000000011108
 20
66.48000000000027
 40
0.5
  0
CIRCLE
  5
1ED
100
AcDbEntity
  8
universal board
  6
ByLayer
 62
  256
370
   -1
100
AcDbCircle
 10
1.899999999998769
 20
66.48000000000027
 40
0.5
  0
CIRCLE
  5
1EE
100
AcDbEntity
  8
universal board
  6
ByLayer
 62
  256
370
   -1
100
AcDbCircle
 10
4.439999999998641
 20
66.48000000000029
 40
0.5
  0
CIRCLE
  5
1EF
100
AcDbEntity
  8
universal board
  6
ByLayer
 62
  256
370
   -1
100
AcDbCircle
 10
6.979999999998519
 20
66.4800000000003
 40
0.5
  0
CIRCLE
  5
1F0
100
AcDbEntity
  8
universal board
  6
ByLayer
 62
  256
370
   -1
100
AcDbCircle
 10
1.899999999998849
 20
33.46000000000002
 40
0.5
  0
CIRCLE
  5
1F1
100
AcDbEntity
  8
universal board
  6
ByLayer
 62
  256
370
   -1
100
AcDbCircle
 10
4.439999999998729
 20
33.46000000000003
 40
0.5
  0
CIRCLE
  5
1F2
100
AcDbEntity
  8
universal board
  6
ByLayer
 62
  256
370
   -1
100
AcDbCircle
 10
6.97999999999861
 20
33.46000000000004
 40
0.5
  0
CIRCLE
  5
1F3
100
AcDbEntity
  8
universal board
  6
ByLayer
 62
  256
370
   -1
100
AcDbCircle
 10
-3.1800000000009
 20
30.91999999999999
 40
0.5
  0
CIRCLE
  5
1F4
100
AcDbEntity
  8
universal board
  6
ByLayer
 62
  256
370
   -1
100
AcDbCircle
 10
-0.6400000000010309
 20
30.92
 40
0.5
  0
CIRCLE
  5
1F5
100
AcDbEntity
  8
universal board
  6
ByLayer
 62
  256
370
   -1
100
AcDbCircle
 10
1.899999999998849
 20
30.92000000000001
 40
0.5
  0
CIRCLE
  5
1F6
100
AcDbEntity
  8
universal board
  6
ByLayer
 62
  256
370
   -1
100
AcDbCircle
 10
4.439999999998729
 20
30.92000000000002
 40
0.5
  0
CIRCLE
  5
1F7
100
AcDbEntity
  8
universal board
  6
ByLayer
 62
  256
370
   -1
100
AcDbCircle
 10
-3.1800000000009
 20
28.37999999999998
 40
0.5
  0
CIRCLE
  5
1F8
100
AcDbEntity
  8
universal board
  6
ByLayer
 62
  256
370
   -1
100
AcDbCircle
 10
-0.6400000000010309
 20
28.37999999999999
 40
0.5
  0
CIRCLE
  5
1F9
100
AcDbEntity
  8
universal board
  6
ByLayer
 62
  256
370
   -1
100
AcDbCircle
 10
1.899999999998849
 20
28.38
 40
0.5
  0
CIRCLE
  5
1FA
100
AcDbEntity
  8
universal board
  6
ByLayer
 62
  256
370
   -1
100
AcDbCircle
 10
4.439999999998729
 20
28.38
 40
0.5
  0
CIRCLE
  5
1FB
100
AcDbEntity
  8
universal board
  6
ByLayer
 62
  256
370
   -1
100
AcDbCircle
 10
-3.1800000000009
 20
25.83999999999997
 40
0.5
  0
CIRCLE
  5
1FC
100
AcDbEntity
  8
universal board
  6
ByLayer
 62
  256
370
   -1
100
AcDbCircle
 10
-0.6400000000010309
 20
25.83999999999997
 40
0.5
  0
CIRCLE
  5
1FD
100
AcDbEntity
  8
universal board
  6
ByLayer
 62
  256
370
   -1
100
AcDbCircle
 10
1.899999999998849
 20
25.83999999999998
 40
0.5
  0
CIRCLE
  5
1FE
100
AcDbEntity
  8
universal board
  6
ByLayer
 62
  256
370
   -1
100
AcDbCircle
 10
4.439999999998729
 20
25.83999999999999
 40
0.5
  0
CIRCLE
  5
1FF
100
AcDbEntity
  8
universal board
  6
ByLayer
 62
  256
370
   -1
100
AcDbCircle
 10
-3.1800000000009
 20
23.29999999999995
 40
0.5
  0
CIRCLE
  5
200
100
AcDbEntity
  8
universal board
  6
ByLayer
 62
  256
370
   -1
100
AcDbCircle
 10
-0.6400000000010309
 20
23.29999999999996
 40
0.5
  0
CIRCLE
  5
201
100
AcDbEntity
  8
universal board
  6
ByLayer
 62
  256
370
   -1
100
AcDbCircle
 10
1.899999999998849
 20
23.29999999999997
 40
0.5
  0
CIRCLE
  5
202
100
AcDbEntity
  8
universal board
  6
ByLayer
 62
  256
370
   -1
100
AcDbCircle
 10
4.439999999998729
 20
23.29999999999998
 40
0.5
  0
CIRCLE
  5
203
100
AcDbEntity
  8
universal board
  6
ByLayer
 62
  256
370
   -1
100
AcDbCircle
 10
-3.1800000000009
 20
20.75999999999994
 40
0.5
  0
CIRCLE
  5
204
100
AcDbEntity
  8
universal board
  6
ByLayer
 62
  256
370
   -1
100
AcDbCircle
 10
-0.6400000000010309
 20
20.75999999999995
 40
0.5
  0
CIRCLE
  5
205
100
AcDbEntity
  8
universal board
  6
ByLayer
 62
  256
370
   -1
100
AcDbCircle
 10
1.899999999998849
 20
20.75999999999996
 40
0.5
  0
CIRCLE
  5
206
100
AcDbEntity
  8
universal board
  6
ByLayer
 62
  256
370
   -1
100
AcDbCircle
 10
4.439999999998729
 20
20.75999999999996
 40
0.5
  0
CIRCLE
  5
207
100
AcDbEntity
  8
universal board
  6
ByLayer
 62
  256
370
   -1
100
AcDbCircle
 10
-3.1800000000009
 20
18.21999999999993
 40
0.5
  0
CIRCLE
  5
208
100
AcDbEntity
  8
universal board
  6
ByLayer
 62
  256
370
   -1
100
AcDbCircle
 10
-0.6400000000010309
 20
18.21999999999993
 40
0.5
  0
CIRCLE
  5
209
100
AcDbEntity
  8
universal board
  6
ByLayer
 62
  256
370
   -1
100
AcDbCircle
 10
1.899999999998849
 20
18.21999999999994
 40
0.5
  0
CIRCLE
  5
20A
100
AcDbEntity
  8
universal board
  6
ByLayer
 62
  256
370
   -1
100
AcDbCircle
 10
4.439999999998729
 20
18.21999999999995
 40
0.5
  0
CIRCLE
  5
20B
100
AcDbEntity
  8
universal board
  6
ByLayer
 62
  256
370
   -1
100
AcDbCircle
 10
-3.1800000000009
 20
15.67999999999991
 40
0.5
  0
CIRCLE
  5
20C
100
AcDbEntity
  8
universal board
  6
ByLayer
 62
  256
370
   -1
100
AcDbCircle
 10
-0.6400000000010309
 20
15.67999999999992
 40
0.5
  0
CIRCLE
  5
20D
100
AcDbEntity
  8
universal board
  6
ByLayer
 62
  256
370
   -1
100
AcDbCircle
 10
1.899999999998849
 20
15.67999999999993
 40
0.5
  0
CIRCLE
  5
20E
100
AcDbEntity
  8
universal board
  6
ByLayer
 62
  256
370
   -1
100
AcDbCircle
 10
4.439999999998729
 20
15.67999999999994
 40
0.5
  0
CIRCLE
  5
20F
100
AcDbEntity
  8
universal board
  6
ByLayer
 62
  256
370
   -1
100
AcDbCircle
 10
-3.1800000000009
 20
13.1399999999999
 40
0.5
  0
CIRCLE
  5
210
100
AcDbEntity
  8
universal board
  6
ByLayer
 62
  256
370
   -1
100
AcDbCircle
 10
-0.6400000000010309
 20
13.13999999999991
 40
0.5
  0
CIRCLE
  5
211
100
AcDbEntity
  8
universal board
  6
ByLayer
 62
  256
370
   -1
100
AcDbCircle
 10
1.899999999998849
 20
13.13999999999992
 40
0.5
  0
CIRCLE
  5
212
100
AcDbEntity
  8
universal board
  6
ByLayer
 62
  256
370
   -1
100
AcDbCircle
 10
4.439999999998729
 20
13.13999999999992
 40
0.5
  0
CIRCLE
  5
213
100
AcDbEntity
  8
universal board
  6
ByLayer
 62
  256
370
   -1
100
AcDbCircle
 10
-3.1800000000009
 20
10.59999999999989
 40
0.5
  0
CIRCLE
  5
214
100
AcDbEntity
  8
universal board
  6
ByLayer
 62
  256
370
   -1
100
AcDbCircle
 10
-0.6400000000010309
 20
10.59999999999989
 40
0.5
  0
CIRCLE
  5
215
100
AcDbEntity
  8
universal board
  6
ByLayer
 62
  256
370
   -1
100
AcDbCircle
 10
1.899999999998849
 20
10.5999999999999
 40
0.5
  0
CIRCLE
  5
216
100
AcDbEntity
  8
universal board
  6
ByLayer
 62
  256
370
   -1
100
AcDbCircle
 10
4.439999999998729
 20
10.59999999999991
 40
0.5
  0
CIRCLE
  5
217
100
AcDbEntity
  8
universal board
  6
ByLayer
 62
  256
370
   -1
100
AcDbCircle
 10
-3.1800000000009
 20
8.059999999999874
 40
0.5
  0
CIRCLE
  5
218
100
AcDbEntity
  8
universal board
  6
ByLayer
 62
  256
370
   -1
100
AcDbCircle
 10
-0.6400000000010309
 20
8.059999999999881
 40
0.5
  0
CIRCLE
  5
219
100
AcDbEntity
  8
universal board
  6
ByLayer
 62
  256
370
   -1
100
AcDbCircle
 10
1.899999999998849
 20
8.059999999999889
 40
0.5
  0
CIRCLE
  5
21A
100
AcDbEntity
  8
universal board
  6
ByLayer
 62
  256
370
   -1
100
AcDbCircle
 10
4.439999999998729
 20
8.059999999999896
 40
0.5
  0
CIRCLE
  5
21B
100
AcDbEntity
  8
universal board
  6
ByLayer
 62
  256
370
   -1
100
AcDbCircle
 10
-3.1800000000009
 20
5.519999999999861
 40
0.5
  0
CIRCLE
  5
21C
100
AcDbEntity
  8
universal board
  6
ByLayer
 62
  256
370
   -1
100
AcDbCircle
 10
-0.6400000000010309
 20
5.519999999999868
 40
0.5
  0
CIRCLE
  5
21D
100
AcDbEntity
  8
universal board
  6
ByLayer
 62
  256
370
   -1
100
AcDbCircle
 10
1.899999999998849
 20
5.519999999999875
 40
0.5
  0
CIRCLE
  5
21E
100
AcDbEntity
  8
universal board
  6
ByLayer
 62
  256
370
   -1
100
AcDbCircle
 10
-38.73999999999936
 20
5.51999999999984
 40
0.5
  0
LINE
  5
21F
100
AcDbEntity
  8
universal board
  6
ByLayer
 62
  256
370
   -1
100
AcDbLine
 10
-41.27999999999925
 20
32.18999999999962
 11
6.97999999999861
 21
32.18999999999967
  0
CIRCLE
  5
220
100
AcDbEntity
  8
universal board
  6
ByLayer
 62
  256
370
   -1
100
AcDbCircle
 10
4.439999999998729
 20
5.519999999999881
 40
0.5
  0
LINE
  5
221
100
AcDbEntity
  8
universal board
  6
ByLayer
 62
  256
370
   -1
100
AcDbLine
 10
-40.00999999999927
 20
4.249999999999797
 11
-40.00999999999927
 21
32.18999999999961
  0
CIRCLE
  5
222
100
AcDbEntity
  8
universal board
  6
ByLayer
 62
  256
370
   -1
100
AcDbCircle
 10
-23.50000000000009
 20
69.02000000000027
 40
0.5
  0
CIRCLE
  5
223
100
AcDbEntity
  8
universal board
  6
ByLayer
 62
  256
370
   -1
100
AcDbCircle
 10
-26.03999999999998
 20
69.02000000000027
 40
0.5
  0
CIRCLE
  5
224
100
AcDbEntity
  8
universal board
  6
ByLayer
 62
  256
370
   -1
100
AcDbCircle
 10
-28.57999999999987
 20
69.02000000000027
 40
0.5
  0
CIRCLE
  5
225
100
AcDbEntity
  8
universal board
  6
ByLayer
 62
  256
370
   -1
100
AcDbCircle
 10
-31.11999999999976
 20
69.02000000000027
 40
0.5
  0
CIRCLE
  5
226
100
AcDbEntity
  8
universal board
  6
ByLayer
 62
  256
370
   -1
100
AcDbCircle
 10
-33.65999999999966
 20
69.02000000000027
 40
0.5
  0
CIRCLE
  5
227
100
AcDbEntity
  8
universal board
  6
ByLayer
 62
  256
370
   -1
100
AcDbCircle
 10
-36.19999999999955
 20
69.02000000000027
 40
0.5
  0
CIRCLE
  5
228
100
AcDbEntity
  8
universal board
  6
ByLayer
 62
  256
370
   -1
100
AcDbCircle
 10
-38.73999999999944
 20
69.02000000000027
 40
0.5
  0
CIRCLE
  5
229
100
AcDbEntity
  8
universal board
  6
ByLayer
 62
  256
370
   -1
100
AcDbCircle
 10
-41.27999999999933
 20
69.02000000000027
 40
0.5
  0
CIRCLE
  5
22A
100
AcDbEntity
  8
universal board
  6
ByLayer
 62
  256
370
   -1
100
AcDbCircle
 10
-20.96000000000021
 20
69.02000000000027
 40
0.5
  0
CIRCLE
  5
22B
100
AcDbEntity
  8
universal board
  6
ByLayer
 62
  256
370
   -1
100
AcDbCircle
 10
-18.42000000000033
 20
69.02000000000028
 40
0.5
  0
CIRCLE
  5
22C
100
AcDbEntity
  8
universal board
  6
ByLayer
 62
  256
370
   -1
100
AcDbCircle
 10
-15.88000000000045
 20
69.02000000000029
 40
0.5
  0
CIRCLE
  5
22D
100
AcDbEntity
  8
universal board
  6
ByLayer
 62
  256
370
   -1
100
AcDbCircle
 10
-13.34000000000057
 20
69.02000000000029
 40
0.5
  0
CIRCLE
  5
22E
100
AcDbEntity
  8
universal board
  6
ByLayer
 62
  256
370
   -1
100
AcDbCircle
 10
-10.80000000000069
 20
69.02000000000029
 40
0.5
  0
CIRCLE
  5
22F
100
AcDbEntity
  8
universal board
  6
ByLayer
 62
  256
370
   -1
100
AcDbCircle
 10
-8.260000000000819
 20
69.02000000000031
 40
0.5
  0
CIRCLE
  5
230
100
AcDbEntity
  8
universal board
  6
ByLayer
 62
  256
370
   -1
100
AcDbCircle
 10
-5.72000000000094
 20
69.02000000000032
 40
0.5
  0
CIRCLE
  5
231
100
AcDbEntity
  8
universal board
  6
ByLayer
 62
  256
370
   -1
100
AcDbCircle
 10
-3.180000000000991
 20
69.02000000000029
 40
0.5
  0
CIRCLE
  5
232
100
AcDbEntity
  8
universal board
  6
ByLayer
 62
  256
370
   -1
100
AcDbCircle
 10
-0.6400000000011108
 20
69.02000000000029
 40
0.5
  0
CIRCLE
  5
233
100
AcDbEntity
  8
universal board
  6
ByLayer
 62
  256
370
   -1
100
AcDbCircle
 10
1.899999999998769
 20
69.02000000000029
 40
0.5
  0
CIRCLE
  5
234
100
AcDbEntity
  8
universal board
  6
ByLayer
 62
  256
370
   -1
100
AcDbCircle
 10
4.439999999998641
 20
69.02000000000031
 40
0.5
  0
CIRCLE
  5
235
100
AcDbEntity
  8
universal board
  6
ByLayer
 62
  256
370
   -1
100
AcDbCircle
 10
6.979999999998519
 20
69.02000000000032
 40
0.5
  0
CIRCLE
  5
236
100
AcDbEntity
  8
universal board
  6
ByLayer
 62
  256
370
   -1
100
AcDbCircle
 10
-23.50000000000009
 20
71.56000000000029
 40
0.5
  0
CIRCLE
  5
237
100
AcDbEntity
  8
universal board
  6
ByLayer
 62
  256
370
   -1
100
AcDbCircle
 10
-26.03999999999998
 20
71.56000000000029
 40
0.5
  0
CIRCLE
  5
238
100
AcDbEntity
  8
universal board
  6
ByLayer
 62
  256
370
   -1
100
AcDbCircle
 10
-28.57999999999987
 20
71.56000000000029
 40
0.5
  0
CIRCLE
  5
239
100
AcDbEntity
  8
universal board
  6
ByLayer
 62
  256
370
   -1
100
AcDbCircle
 10
-31.11999999999976
 20
71.56000000000029
 40
0.5
  0
CIRCLE
  5
23A
100
AcDbEntity
  8
universal board
  6
ByLayer
 62
  256
370
   -1
100
AcDbCircle
 10
-33.65999999999966
 20
71.56000000000029
 40
0.5
  0
CIRCLE
  5
23B
100
AcDbEntity
  8
universal board
  6
ByLayer
 62
  256
370
   -1
100
AcDbCircle
 10
-36.19999999999955
 20
71.56000000000029
 40
0.5
  0
CIRCLE
  5
23C
100
AcDbEntity
  8
universal board
  6
ByLayer
 62
  256
370
   -1
100
AcDbCircle
 10
-38.73999999999944
 20
71.56000000000029
 40
0.5
  0
CIRCLE
  5
23D
100
AcDbEntity
  8
universal board
  6
ByLayer
 62
  256
370
   -1
100
AcDbCircle
 10
-41.27999999999933
 20
71.56000000000029
 40
0.5
  0
CIRCLE
  5
23E
100
AcDbEntity
  8
universal board
  6
ByLayer
 62
  256
370
   -1
100
AcDbCircle
 10
-20.96000000000021
 20
71.56000000000029
 40
0.5
  0
CIRCLE
  5
23F
100
AcDbEntity
  8
universal board
  6
ByLayer
 62
  256
370
   -1
100
AcDbCircle
 10
-18.42000000000033
 20
71.5600000000003
 40
0.5
  0
CIRCLE
  5
240
100
AcDbEntity
  8
universal board
  6
ByLayer
 62
  256
370
   -1
100
AcDbCircle
 10
-15.88000000000045
 20
71.56000000000031
 40
0.5
  0
CIRCLE
  5
241
100
AcDbEntity
  8
universal board
  6
ByLayer
 62
  256
370
   -1
100
AcDbCircle
 10
-13.34000000000057
 20
71.56000000000031
 40
0.5
  0
CIRCLE
  5
242
100
AcDbEntity
  8
universal board
  6
ByLayer
 62
  256
370
   -1
100
AcDbCircle
 10
-10.80000000000069
 20
71.56000000000031
 40
0.5
  0
CIRCLE
  5
243
100
AcDbEntity
  8
universal board
  6
ByLayer
 62
  256
370
   -1
100
AcDbCircle
 10
-8.260000000000819
 20
71.56000000000033
 40
0.5
  0
CIRCLE
  5
244
100
AcDbEntity
  8
universal board
  6
ByLayer
 62
  256
370
   -1
100
AcDbCircle
 10
-23.50000000000009
 20
74.10000000000031
 40
0.5
  0
CIRCLE
  5
245
100
AcDbEntity
  8
universal board
  6
ByLayer
 62
  256
370
   -1
100
AcDbCircle
 10
-26.03999999999998
 20
74.10000000000031
 40
0.5
  0
CIRCLE
  5
246
100
AcDbEntity
  8
universal board
  6
ByLayer
 62
  256
370
   -1
100
AcDbCircle
 10
-28.57999999999987
 20
74.10000000000031
 40
0.5
  0
CIRCLE
  5
247
100
AcDbEntity
  8
universal board
  6
ByLayer
 62
  256
370
   -1
100
AcDbCircle
 10
-31.11999999999976
 20
74.10000000000031
 40
0.5
  0
CIRCLE
  5
248
100
AcDbEntity
  8
universal board
  6
ByLayer
 62
  256
370
   -1
100
AcDbCircle
 10
-33.65999999999966
 20
74.10000000000031
 40
0.5
  0
CIRCLE
  5
249
100
AcDbEntity
  8
universal board
  6
ByLayer
 62
  256
370
   -1
100
AcDbCircle
 10
-36.19999999999955
 20
74.10000000000031
 40
0.5
  0
CIRCLE
  5
24A
100
AcDbEntity
  8
universal board
  6
ByLayer
 62
  256
370
   -1
100
AcDbCircle
 10
-38.73999999999944
 20
74.10000000000031
 40
0.5
  0
CIRCLE
  5
24B
100
AcDbEntity
  8
universal board
  6
ByLayer
 62
  256
370
   -1
100
AcDbCircle
 10
-41.27999999999933
 20
74.10000000000031
 40
0.5
  0
CIRCLE
  5
24C
100
AcDbEntity
  8
universal board
  6
ByLayer
 62
  256
370
   -1
100
AcDbCircle
 10
-20.96000000000021
 20
74.10000000000031
 40
0.5
  0
CIRCLE
  5
24D
100
AcDbEntity
  8
universal board
  6
ByLayer
 62
  256
370
   -1
100
AcDbCircle
 10
-18.42000000000033
 20
74.10000000000032
 40
0.5
  0
CIRCLE
  5
24E
100
AcDbEntity
  8
universal board
  6
ByLayer
 62
  256
370
   -1
100
AcDbCircle
 10
-15.88000000000045
 20
74.10000000000034
 40
0.5
  0
CIRCLE
  5
24F
100
AcDbEntity
  8
universal board
  6
ByLayer
 62
  256
370
   -1
100
AcDbCircle
 10
-13.34000000000057
 20
74.10000000000034
 40
0.5
  0
CIRCLE
  5
250
100
AcDbEntity
  8
universal board
  6
ByLayer
 62
  256
370
   -1
100
AcDbCircle
 10
-10.80000000000069
 20
74.10000000000034
 40
0.5
  0
CIRCLE
  5
251
100
AcDbEntity
  8
universal board
  6
ByLayer
 62
  256
370
   -1
100
AcDbCircle
 10
-8.260000000000819
 20
74.10000000000035
 40
0.5
  0
CIRCLE
  5
252
100
AcDbEntity
  8
universal board
  6
ByLayer
 62
  256
370
   -1
100
AcDbCircle
 10
-3.180000000000991
 20
74.10000000000034
 40
0.5
  0
CIRCLE
  5
253
100
AcDbEntity
  8
universal board
  6
ByLayer
 62
  256
370
   -1
100
AcDbCircle
 10
-0.6400000000011108
 20
74.10000000000034
 40
0.5
  0
CIRCLE
  5
254
100
AcDbEntity
  8
universal board
  6
ByLayer
 62
  256
370
   -1
100
AcDbCircle
 10
1.899999999998769
 20
74.10000000000034
 40
0.5
  0
CIRCLE
  5
255
100
AcDbEntity
  8
universal board
  6
ByLayer
 62
  256
370
   -1
100
AcDbCircle
 10
4.439999999998641
 20
74.10000000000035
 40
0.5
  0
CIRCLE
  5
256
100
AcDbEntity
  8
universal board
  6
ByLayer
 62
  256
370
   -1
100
AcDbCircle
 10
6.979999999998519
 20
74.10000000000036
 40
0.5
  0
CIRCLE
  5
257
100
AcDbEntity
  8
universal board
  6
ByLayer
 62
  256
370
   -1
100
AcDbCircle
 10
-23.50000000000009
 20
76.64000000000033
 40
0.5
  0
CIRCLE
  5
258
100
AcDbEntity
  8
universal board
  6
ByLayer
 62
  256
370
   -1
100
AcDbCircle
 10
-26.03999999999998
 20
76.64000000000033
 40
0.5
  0
CIRCLE
  5
259
100
AcDbEntity
  8
universal board
  6
ByLayer
 62
  256
370
   -1
100
AcDbCircle
 10
-28.57999999999987
 20
76.64000000000033
 40
0.5
  0
CIRCLE
  5
25A
100
AcDbEntity
  8
universal board
  6
ByLayer
 62
  256
370
   -1
100
AcDbCircle
 10
-31.11999999999976
 20
76.64000000000033
 40
0.5
  0
CIRCLE
  5
25B
100
AcDbEntity
  8
universal board
  6
ByLayer
 62
  256
370
   -1
100
AcDbCircle
 10
-33.65999999999966
 20
76.64000000000033
 40
0.5
  0
CIRCLE
  5
25C
100
AcDbEntity
  8
universal board
  6
ByLayer
 62
  256
370
   -1
100
AcDbCircle
 10
-36.19999999999955
 20
76.64000000000033
 40
0.5
  0
CIRCLE
  5
25D
100
AcDbEntity
  8
universal board
  6
ByLayer
 62
  256
370
   -1
100
AcDbCircle
 10
-38.73999999999944
 20
76.64000000000033
 40
0.5
  0
CIRCLE
  5
25E
100
AcDbEntity
  8
universal board
  6
ByLayer
 62
  256
370
   -1
100
AcDbCircle
 10
-41.27999999999933
 20
76.64000000000033
 40
0.5
  0
CIRCLE
  5
25F
100
AcDbEntity
  8
universal board
  6
ByLayer
 62
  256
370
   -1
100
AcDbCircle
 10
-20.96000000000021
 20
76.64000000000033
 40
0.5
  0
CIRCLE
  5
260
100
AcDbEntity
  8
universal board
  6
ByLayer
 62
  256
370
   -1
100
AcDbCircle
 10
-18.42000000000033
 20
76.64000000000034
 40
0.5
  0
CIRCLE
  5
261
100
AcDbEntity
  8
universal board
  6
ByLayer
 62
  256
370
   -1
100
AcDbCircle
 10
-15.88000000000045
 20
76.64000000000036
 40
0.5
  0
CIRCLE
  5
262
100
AcDbEntity
  8
universal board
  6
ByLayer
 62
  256
370
   -1
100
AcDbCircle
 10
-13.34000000000057
 20
76.64000000000036
 40
0.5
  0
CIRCLE
  5
263
100
AcDbEntity
  8
universal board
  6
ByLayer
 62
  256
370
   -1
100
AcDbCircle
 10
-10.80000000000069
 20
76.64000000000036
 40
0.5
  0
CIRCLE
  5
264
100
AcDbEntity
  8
universal board
  6
ByLayer
 62
  256
370
   -1
100
AcDbCircle
 10
-8.260000000000819
 20
76.64000000000037
 40
0.5
  0
CIRCLE
  5
265
100
AcDbEntity
  8
universal board
  6
ByLayer
 62
  256
370
   -1
100
AcDbCircle
 10
-3.180000000000991
 20
76.64000000000036
 40
0.5
  0
CIRCLE
  5
266
100
AcDbEntity
  8
universal board
  6
ByLayer
 62
  256
370
   -1
100
AcDbCircle
 10
-0.6400000000011108
 20
76.64000000000036
 40
0.5
  0
CIRCLE
  5
267
100
AcDbEntity
  8
universal board
  6
ByLayer
 62
  256
370
   -1
100
AcDbCircle
 10
1.899999999998769
 20
76.64000000000036
 40
0.5
  0
CIRCLE
  5
268
100
AcDbEntity
  8
universal board
  6
ByLayer
 62
  256
370
   -1
100
AcDbCircle
 10
4.439999999998641
 20
76.64000000000037
 40
0.5
  0
CIRCLE
  5
269
100
AcDbEntity
  8
universal board
  6
ByLayer
 62
  256
370
   -1
100
AcDbCircle
 10
6.979999999998519
 20
76.64000000000038
 40
0.5
  0
CIRCLE
  5
26A
100
AcDbEntity
  8
universal board
  6
ByLayer
 62
  256
370
   -1
100
AcDbCircle
 10
-23.50000000000009
 20
79.18000000000035
 40
0.5
  0
CIRCLE
  5
26B
100
AcDbEntity
  8
universal board
  6
ByLayer
 62
  256
370
   -1
100
AcDbCircle
 10
-26.03999999999998
 20
79.18000000000035
 40
0.5
  0
CIRCLE
  5
26C
100
AcDbEntity
  8
universal board
  6
ByLayer
 62
  256
370
   -1
100
AcDbCircle
 10
-28.57999999999987
 20
79.18000000000035
 40
0.5
  0
CIRCLE
  5
26D
100
AcDbEntity
  8
universal board
  6
ByLayer
 62
  256
370
   -1
100
AcDbCircle
 10
-31.11999999999976
 20
79.18000000000035
 40
0.5
  0
CIRCLE
  5
26E
100
AcDbEntity
  8
universal board
  6
ByLayer
 62
  256
370
   -1
100
AcDbCircle
 10
-33.65999999999966
 20
79.18000000000035
 40
0.5
  0
CIRCLE
  5
26F
100
AcDbEntity
  8
universal board
  6
ByLayer
 62
  256
370
   -1
100
AcDbCircle
 10
-36.19999999999955
 20
79.18000000000035
 40
0.5
  0
CIRCLE
  5
270
100
AcDbEntity
  8
universal board
  6
ByLayer
 62
  256
370
   -1
100
AcDbCircle
 10
-38.73999999999944
 20
79.18000000000035
 40
0.5
  0
CIRCLE
  5
271
100
AcDbEntity
  8
universal board
  6
ByLayer
 62
  256
370
   -1
100
AcDbCircle
 10
-41.27999999999933
 20
79.18000000000035
 40
0.5
  0
CIRCLE
  5
272
100
AcDbEntity
  8
universal board
  6
ByLayer
 62
  256
370
   -1
100
AcDbCircle
 10
-20.96000000000021
 20
79.18000000000035
 40
0.5
  0
CIRCLE
  5
273
100
AcDbEntity
  8
universal board
  6
ByLayer
 62
  256
370
   -1
100
AcDbCircle
 10
-18.42000000000033
 20
79.18000000000036
 40
0.5
  0
CIRCLE
  5
274
100
AcDbEntity
  8
universal board
  6
ByLayer
 62
  256
370
   -1
100
AcDbCircle
 10
-15.88000000000045
 20
79.18000000000038
 40
0.5
  0
CIRCLE
  5
275
100
AcDbEntity
  8
universal board
  6
ByLayer
 62
  256
370
   -1
100
AcDbCircle
 10
-13.34000000000057
 20
79.18000000000038
 40
0.5
  0
CIRCLE
  5
276
100
AcDbEntity
  8
universal board
  6
ByLayer
 62
  256
370
   -1
100
AcDbCircle
 10
-10.80000000000069
 20
79.18000000000038
 40
0.5
  0
CIRCLE
  5
277
100
AcDbEntity
  8
universal board
  6
ByLayer
 62
  256
370
   -1
100
AcDbCircle
 10
-8.260000000000819
 20
79.18000000000039
 40
0.5
  0
CIRCLE
  5
278
100
AcDbEntity
  8
universal board
  6
ByLayer
 62
  256
370
   -1
100
AcDbCircle
 10
-3.180000000000991
 20
79.18000000000038
 40
0.5
  0
CIRCLE
  5
279
100
AcDbEntity
  8
universal board
  6
ByLayer
 62
  256
370
   -1
100
AcDbCircle
 10
-0.6400000000011108
 20
79.18000000000038
 40
0.5
  0
CIRCLE
  5
27A
100
AcDbEntity
  8
universal board
  6
ByLayer
 62
  256
370
   -1
100
AcDbCircle
 10
1.899999999998769
 20
79.18000000000038
 40
0.5
  0
CIRCLE
  5
27B
100
AcDbEntity
  8
universal board
  6
ByLayer
 62
  256
370
   -1
100
AcDbCircle
 10
4.439999999998641
 20
79.18000000000039
 40
0.5
  0
CIRCLE
  5
27C
100
AcDbEntity
  8
universal board
  6
ByLayer
 62
  256
370
   -1
100
AcDbCircle
 10
6.979999999998519
 20
79.1800000000004
 40
0.5
  0
CIRCLE
  5
27D
100
AcDbEntity
  8
universal board
  6
ByLayer
 62
  256
370
   -1
100
AcDbCircle
 10
-23.50000000000009
 20
81.72000000000037
 40
0.5
  0
CIRCLE
  5
27E
100
AcDbEntity
  8
universal board
  6
ByLayer
 62
  256
370
   -1
100
AcDbCircle
 10
-26.03999999999998
 20
81.72000000000037
 40
0.5
  0
CIRCLE
  5
27F
100
AcDbEntity
  8
universal board
  6
ByLayer
 62
  256
370
   -1
100
AcDbCircle
 10
-28.57999999999987
 20
81.72000000000037
 40
0.5
  0
CIRCLE
  5
280
100
AcDbEntity
  8
universal board
  6
ByLayer
 62
  256
370
   -1
100
AcDbCircle
 10
-31.11999999999976
 20
81.72000000000037
 40
0.5
  0
CIRCLE
  5
281
100
AcDbEntity
  8
universal board
  6
ByLayer
 62
  256
370
   -1
100
AcDbCircle
 10
-33.65999999999966
 20
81.72000000000037
 40
0.5
  0
CIRCLE
  5
282
100
AcDbEntity
  8
universal board
  6
ByLayer
 62
  256
370
   -1
100
AcDbCircle
 10
-36.19999999999955
 20
81.72000000000037
 40
0.5
  0
CIRCLE
  5
283
100
AcDbEntity
  8
universal board
  6
ByLayer
 62
  256
370
   -1
100
AcDbCircle
 10
-38.73999999999944
 20
81.72000000000037
 40
0.5
  0
CIRCLE
  5
284
100
AcDbEntity
  8
universal board
  6
ByLayer
 62
  256
370
   -1
100
AcDbCircle
 10
-41.27999999999933
 20
81.72000000000037
 40
0.5
  0
CIRCLE
  5
285
100
AcDbEntity
  8
universal board
  6
ByLayer
 62
  256
370
   -1
100
AcDbCircle
 10
-20.96000000000021
 20
81.72000000000037
 40
0.5
  0
CIRCLE
  5
286
100
AcDbEntity
  8
universal board
  6
ByLayer
 62
  256
370
   -1
100
AcDbCircle
 10
-18.42000000000033
 20
81.72000000000038
 40
0.5
  0
CIRCLE
  5
287
100
AcDbEntity
  8
universal board
  6
ByLayer
 62
  256
370
   -1
100
AcDbCircle
 10
-15.88000000000045
 20
81.7200000000004
 40
0.5
  0
CIRCLE
  5
288
100
AcDbEntity
  8
universal board
  6
ByLayer
 62
  256
370
   -1
100
AcDbCircle
 10
-13.34000000000057
 20
81.7200000000004
 40
0.5
  0
CIRCLE
  5
289
100
AcDbEntity
  8
universal board
  6
ByLayer
 62
  256
370
   -1
100
AcDbCircle
 10
-10.80000000000069
 20
81.7200000000004
 40
0.5
  0
CIRCLE
  5
28A
100
AcDbEntity
  8
universal board
  6
ByLayer
 62
  256
370
   -1
100
AcDbCircle
 10
-8.260000000000819
 20
81.72000000000041
 40
0.5
  0
CIRCLE
  5
28B
100
AcDbEntity
  8
universal board
  6
ByLayer
 62
  256
370
   -1
100
AcDbCircle
 10
-3.180000000000991
 20
81.7200000000004
 40
0.5
  0
CIRCLE
  5
28C
100
AcDbEntity
  8
universal board
  6
ByLayer
 62
  256
370
   -1
100
AcDbCircle
 10
-0.6400000000011108
 20
81.7200000000004
 40
0.5
  0
CIRCLE
  5
28D
100
AcDbEntity
  8
universal board
  6
ByLayer
 62
  256
370
   -1
100
AcDbCircle
 10
1.899999999998769
 20
81.7200000000004
 40
0.5
  0
CIRCLE
  5
28E
100
AcDbEntity
  8
universal board
  6
ByLayer
 62
  256
370
   -1
100
AcDbCircle
 10
4.439999999998641
 20
81.72000000000041
 40
0.5
  0
CIRCLE
  5
28F
100
AcDbEntity
  8
universal board
  6
ByLayer
 62
  256
370
   -1
100
AcDbCircle
 10
6.979999999998519
 20
81.72000000000043
 40
0.5
  0
CIRCLE
  5
290
100
AcDbEntity
  8
universal board
  6
ByLayer
 62
  256
370
   -1
100
AcDbCircle
 10
-23.50000000000009
 20
84.26000000000039
 40
0.5
  0
CIRCLE
  5
291
100
AcDbEntity
  8
universal board
  6
ByLayer
 62
  256
370
   -1
100
AcDbCircle
 10
-26.03999999999998
 20
84.26000000000039
 40
0.5
  0
CIRCLE
  5
292
100
AcDbEntity
  8
universal board
  6
ByLayer
 62
  256
370
   -1
100
AcDbCircle
 10
-28.57999999999987
 20
84.26000000000039
 40
0.5
  0
CIRCLE
  5
293
100
AcDbEntity
  8
universal board
  6
ByLayer
 62
  256
370
   -1
100
AcDbCircle
 10
-31.11999999999976
 20
84.26000000000039
 40
0.5
  0
CIRCLE
  5
294
100
AcDbEntity
  8
universal board
  6
ByLayer
 62
  256
370
   -1
100
AcDbCircle
 10
-33.65999999999966
 20
84.26000000000039
 40
0.5
  0
CIRCLE
  5
295
100
AcDbEntity
  8
universal board
  6
ByLayer
 62
  256
370
   -1
100
AcDbCircle
 10
-36.19999999999955
 20
84.26000000000039
 40
0.5
  0
CIRCLE
  5
296
100
AcDbEntity
  8
universal board
  6
ByLayer
 62
  256
370
   -1
100
AcDbCircle
 10
-38.73999999999944
 20
84.26000000000039
 40
0.5
  0
CIRCLE
  5
297
100
AcDbEntity
  8
universal board
  6
ByLayer
 62
  256
370
   -1
100
AcDbCircle
 10
-41.27999999999933
 20
84.26000000000039
 40
0.5
  0
CIRCLE
  5
298
100
AcDbEntity
  8
universal board
  6
ByLayer
 62
  256
370
   -1
100
AcDbCircle
 10
-20.96000000000021
 20
84.26000000000039
 40
0.5
  0
CIRCLE
  5
299
100
AcDbEntity
  8
universal board
  6
ByLayer
 62
  256
370
   -1
100
AcDbCircle
 10
-18.42000000000033
 20
84.2600000000004
 40
0.5
  0
CIRCLE
  5
29A
100
AcDbEntity
  8
universal board
  6
ByLayer
 62
  256
370
   -1
100
AcDbCircle
 10
-15.88000000000045
 20
84.26000000000042
 40
0.5
  0
CIRCLE
  5
29B
100
AcDbEntity
  8
universal board
  6
ByLayer
 62
  256
370
   -1
100
AcDbCircle
 10
-13.34000000000057
 20
84.26000000000042
 40
0.5
  0
CIRCLE
  5
29C
100
AcDbEntity
  8
universal board
  6
ByLayer
 62
  256
370
   -1
100
AcDbCircle
 10
-10.80000000000069
 20
84.26000000000042
 40
0.5
  0
CIRCLE
  5
29D
100
AcDbEntity
  8
universal board
  6
ByLayer
 62
  256
370
   -1
100
AcDbCircle
 10
-8.260000000000819
 20
84.26000000000043
 40
0.5
  0
CIRCLE
  5
29E
100
AcDbEntity
  8
universal board
  6
ByLayer
 62
  256
370
   -1
100
AcDbCircle
 10
-3.180000000000991
 20
84.26000000000042
 40
0.5
  0
CIRCLE
  5
29F
100
AcDbEntity
  8
universal board
  6
ByLayer
 62
  256
370
   -1
100
AcDbCircle
 10
-0.6400000000011108
 20
84.26000000000042
 40
0.5
  0
CIRCLE
  5
2A0
100
AcDbEntity
  8
universal board
  6
ByLayer
 62
  256
370
   -1
100
AcDbCircle
 10
1.899999999998769
 20
84.26000000000042
 40
0.5
  0
CIRCLE
  5
2A1
100
AcDbEntity
  8
universal board
  6
ByLayer
 62
  256
370
   -1
100
AcDbCircle
 10
4.439999999998641
 20
84.26000000000043
 40
0.5
  0
CIRCLE
  5
2A2
100
AcDbEntity
  8
universal board
  6
ByLayer
 62
  256
370
   -1
100
AcDbCircle
 10
6.979999999998519
 20
84.26000000000045
 40
0.5
  0
CIRCLE
  5
2A3
100
AcDbEntity
  8
universal board
  6
ByLayer
 62
  256
370
   -1
100
AcDbCircle
 10
-23.50000000000009
 20
86.80000000000041
 40
0.5
  0
CIRCLE
  5
2A4
100
AcDbEntity
  8
universal board
  6
ByLayer
 62
  256
370
   -1
100
AcDbCircle
 10
-26.03999999999998
 20
86.80000000000041
 40
0.5
  0
CIRCLE
  5
2A5
100
AcDbEntity
  8
universal board
  6
ByLayer
 62
  256
370
   -1
100
AcDbCircle
 10
-28.57999999999987
 20
86.80000000000041
 40
0.5
  0
CIRCLE
  5
2A6
100
AcDbEntity
  8
universal board
  6
ByLayer
 62
  256
370
   -1
100
AcDbCircle
 10
-31.11999999999976
 20
86.80000000000041
 40
0.5
  0
CIRCLE
  5
2A7
100
AcDbEntity
  8
universal board
  6
ByLayer
 62
  256
370
   -1
100
AcDbCircle
 10
-33.65999999999966
 20
86.80000000000041
 40
0.5
  0
CIRCLE
  5
2A8
100
AcDbEntity
  8
universal board
  6
ByLayer
 62
  256
370
   -1
100
AcDbCircle
 10
-36.19999999999955
 20
86.80000000000041
 40
0.5
  0
CIRCLE
  5
2A9
100
AcDbEntity
  8
universal board
  6
ByLayer
 62
  256
370
   -1
100
AcDbCircle
 10
-38.73999999999944
 20
86.80000000000041
 40
0.5
  0
CIRCLE
  5
2AA
100
AcDbEntity
  8
universal board
  6
ByLayer
 62
  256
370
   -1
100
AcDbCircle
 10
-41.27999999999933
 20
86.80000000000041
 40
0.5
  0
CIRCLE
  5
2AB
100
AcDbEntity
  8
universal board
  6
ByLayer
 62
  256
370
   -1
100
AcDbCircle
 10
-20.96000000000021
 20
86.80000000000041
 40
0.5
  0
CIRCLE
  5
2AC
100
AcDbEntity
  8
universal board
  6
ByLayer
 62
  256
370
   -1
100
AcDbCircle
 10
-18.42000000000033
 20
86.80000000000042
 40
0.5
  0
CIRCLE
  5
2AD
100
AcDbEntity
  8
universal board
  6
ByLayer
 62
  256
370
   -1
100
AcDbCircle
 10
-15.88000000000045
 20
86.80000000000044
 40
0.5
  0
CIRCLE
  5
2AE
100
AcDbEntity
  8
universal board
  6
ByLayer
 62
  256
370
   -1
100
AcDbCircle
 10
-13.34000000000057
 20
86.80000000000044
 40
0.5
  0
CIRCLE
  5
2AF
100
AcDbEntity
  8
universal board
  6
ByLayer
 62
  256
370
   -1
100
AcDbCircle
 10
-10.80000000000069
 20
86.80000000000044
 40
0.5
  0
CIRCLE
  5
2B0
100
AcDbEntity
  8
universal board
  6
ByLayer
 62
  256
370
   -1
100
AcDbCircle
 10
-8.260000000000819
 20
86.80000000000045
 40
0.5
  0
CIRCLE
  5
2B1
100
AcDbEntity
  8
universal board
  6
ByLayer
 62
  256
370
   -1
100
AcDbCircle
 10
-3.180000000000991
 20
86.80000000000044
 40
0.5
  0
CIRCLE
  5
2B2
100
AcDbEntity
  8
universal board
  6
ByLayer
 62
  256
370
   -1
100
AcDbCircle
 10
-0.6400000000011108
 20
86.80000000000044
 40
0.5
  0
CIRCLE
  5
2B3
100
AcDbEntity
  8
universal board
  6
ByLayer
 62
  256
370
   -1
100
AcDbCircle
 10
1.899999999998769
 20
86.80000000000044
 40
0.5
  0
CIRCLE
  5
2B4
100
AcDbEntity
  8
universal board
  6
ByLayer
 62
  256
370
   -1
100
AcDbCircle
 10
4.439999999998641
 20
86.80000000000045
 40
0.5
  0
CIRCLE
  5
2B5
100
AcDbEntity
  8
universal board
  6
ByLayer
 62
  256
370
   -1
100
AcDbCircle
 10
6.979999999998519
 20
86.80000000000047
 40
0.5
  0
CIRCLE
  5
2B6
100
AcDbEntity
  8
universal board
  6
ByLayer
 62
  256
370
   -1
100
AcDbCircle
 10
-23.50000000000009
 20
89.34000000000043
 40
0.5
  0
CIRCLE
  5
2B7
100
AcDbEntity
  8
universal board
  6
ByLayer
 62
  256
370
   -1
100
AcDbCircle
 10
-26.03999999999998
 20
89.34000000000043
 40
0.5
  0
CIRCLE
  5
2B8
100
AcDbEntity
  8
universal board
  6
ByLayer
 62
  256
370
   -1
100
AcDbCircle
 10
-28.57999999999987
 20
89.34000000000043
 40
0.5
  0
CIRCLE
  5
2B9
100
AcDbEntity
  8
universal board
  6
ByLayer
 62
  256
370
   -1
100
AcDbCircle
 10
-31.11999999999976
 20
89.34000000000043
 40
0.5
  0
CIRCLE
  5
2BA
100
AcDbEntity
  8
universal board
  6
ByLayer
 62
  256
370
   -1
100
AcDbCircle
 10
-33.65999999999966
 20
89.34000000000043
 40
0.5
  0
CIRCLE
  5
2BB
100
AcDbEntity
  8
universal board
  6
ByLayer
 62
  256
370
   -1
100
AcDbCircle
 10
-36.19999999999955
 20
89.34000000000043
 40
0.5
  0
CIRCLE
  5
2BC
100
AcDbEntity
  8
universal board
  6
ByLayer
 62
  256
370
   -1
100
AcDbCircle
 10
-38.73999999999944
 20
89.34000000000043
 40
0.5
  0
CIRCLE
  5
2BD
100
AcDbEntity
  8
universal board
  6
ByLayer
 62
  256
370
   -1
100
AcDbCircle
 10
-41.27999999999933
 20
89.34000000000043
 40
0.5
  0
CIRCLE
  5
2BE
100
AcDbEntity
  8
universal board
  6
ByLayer
 62
  256
370
   -1
100
AcDbCircle
 10
-20.96000000000021
 20
89.34000000000043
 40
0.5
  0
CIRCLE
  5
2BF
100
AcDbEntity
  8
universal board
  6
ByLayer
 62
  256
370
   -1
100
AcDbCircle
 10
-18.42000000000033
 20
89.34000000000044
 40
0.5
  0
CIRCLE
  5
2C0
100
AcDbEntity
  8
universal board
  6
ByLayer
 62
  256
370
   -1
100
AcDbCircle
 10
-15.88000000000045
 20
89.34000000000046
 40
0.5
  0
CIRCLE
  5
2C1
100
AcDbEntity
  8
universal board
  6
ByLayer
 62
  256
370
   -1
100
AcDbCircle
 10
-13.34000000000057
 20
89.34000000000046
 40
0.5
  0
CIRCLE
  5
2C2
100
AcDbEntity
  8
universal board
  6
ByLayer
 62
  256
370
   -1
100
AcDbCircle
 10
-10.80000000000069
 20
89.34000000000046
 40
0.5
  0
CIRCLE
  5
2C3
100
AcDbEntity
  8
universal board
  6
ByLayer
 62
  256
370
   -1
100
AcDbCircle
 10
-8.260000000000819
 20
89.34000000000047
 40
0.5
  0
CIRCLE
  5
2C4
100
AcDbEntity
  8
universal board
  6
ByLayer
 62
  256
370
   -1
100
AcDbCircle
 10
-23.50000000000009
 20
91.88000000000045
 40
0.5
  0
CIRCLE
  5
2C5
100
AcDbEntity
  8
universal board
  6
ByLayer
 62
  256
370
   -1
100
AcDbCircle
 10
-26.03999999999998
 20
91.88000000000045
 40
0.5
  0
CIRCLE
  5
2C6
100
AcDbEntity
  8
universal board
  6
ByLayer
 62
  256
370
   -1
100
AcDbCircle
 10
-28.57999999999987
 20
91.88000000000045
 40
0.5
  0
CIRCLE
  5
2C7
100
AcDbEntity
  8
universal board
  6
ByLayer
 62
  256
370
   -1
100
AcDbCircle
 10
-31.11999999999976
 20
91.88000000000045
 40
0.5
  0
CIRCLE
  5
2C8
100
AcDbEntity
  8
universal board
  6
ByLayer
 62
  256
370
   -1
100
AcDbCircle
 10
-33.65999999999966
 20
91.88000000000045
 40
0.5
  0
CIRCLE
  5
2C9
100
AcDbEntity
  8
universal board
  6
ByLayer
 62
  256
370
   -1
100
AcDbCircle
 10
-36.19999999999955
 20
91.88000000000045
 40
0.5
  0
CIRCLE
  5
2CA
100
AcDbEntity
  8
universal board
  6
ByLayer
 62
  256
370
   -1
100
AcDbCircle
 10
-38.73999999999944
 20
91.88000000000045
 40
0.5
  0
CIRCLE
  5
2CB
100
AcDbEntity
  8
universal board
  6
ByLayer
 62
  256
370
   -1
100
AcDbCircle
 10
-41.27999999999933
 20
91.88000000000045
 40
0.5
  0
CIRCLE
  5
2CC
100
AcDbEntity
  8
universal board
  6
ByLayer
 62
  256
370
   -1
100
AcDbCircle
 10
-20.96000000000021
 20
91.88000000000045
 40
0.5
  0
CIRCLE
  5
2CD
100
AcDbEntity
  8
universal board
  6
ByLayer
 62
  256
370
   -1
100
AcDbCircle
 10
-18.42000000000033
 20
91.88000000000046
 40
0.5
  0
CIRCLE
  5
2CE
100
AcDbEntity
  8
universal board
  6
ByLayer
 62
  256
370
   -1
100
AcDbCircle
 10
-15.88000000000045
 20
91.88000000000048
 40
0.5
  0
CIRCLE
  5
2CF
100
AcDbEntity
  8
universal board
  6
ByLayer
 62
  256
370
   -1
100
AcDbCircle
 10
-13.34000000000057
 20
91.88000000000048
 40
0.5
  0
CIRCLE
  5
2D0
100
AcDbEntity
  8
universal board
  6
ByLayer
 62
  256
370
   -1
100
AcDbCircle
 10
-10.80000000000069
 20
91.88000000000048
 40
0.5
  0
CIRCLE
  5
2D1
100
AcDbEntity
  8
universal board
  6
ByLayer
 62
  256
370
   -1
100
AcDbCircle
 10
-8.260000000000819
 20
91.88000000000049
 40
0.5
  0
LINE
  5
2D2
100
AcDbEntity
  8
universal board
  6
ByLayer
 62
  256
370
   -1
100
AcDbLine
 10
-37.46999999999944
 20
37.26999999999966
 11
-4.450000000000884
 21
37.26999999999969
  0
LINE
  5
2D3
100
AcDbEntity
  8
universal board
  6
ByLayer
 62
  256
370
   -1
100
AcDbLine
 10
-37.46999999999944
 20
37.26999999999966
 11
-37.46999999999944
 21
57.58999999999981
  0
LINE
  5
2D4
100
AcDbEntity
  8
universal board
  6
ByLayer
 62
  256
370
   -1
100
AcDbLine
 10
-4.450000000000884
 20
37.26999999999969
 11
-4.450000000000884
 21
57.58999999999985
  0
MTEXT
  5
2D5
100
AcDbEntity
  8
universal board
  6
ByLayer
 62
  256
370
   -1
100
AcDbMText
 10
-36.16371732143142
 20
37.82140279575518
 30
0
 40
1
 41
2
 71
    5
 72
    1
  1
UB1
  7
iso
210
0
220
0
230
1
 50
0
 73
    2
 44
1.54
  0
LINE
  5
2D6
100
AcDbEntity
  8
draft
  6
ByLayer
 62
  256
370
   -1
100
AcDbLine
 10
-17.15000000000072
 20
79.18000000000036
 11
-17.15000000000072
 21
89.18000000000036
  0
LINE
  5
2D7
100
AcDbEntity
  8
draft
  6
ByLayer
 62
  256
370
   -1
100
AcDbLine
 10
-31.11999999999976
 20
71.56000000000029
 11
-31.11999999999976
 21
81.56000000000029
  0
LINE
  5
2D8
100
AcDbEntity
  8
draft
  6
ByLayer
 62
  256
370
   -1
100
AcDbLine
 10
-23.16999847013602
 20
94.16000010777535
 11
-23.16999847013602
 21
104.1600001077753
  0
LINE
  5
2D9
100
AcDbEntity
  8
draft
  6
ByLayer
 62
  256
370
   -1
100
AcDbLine
 10
-11.12999847013649
 20
94.16000010777535
 11
-11.12999847013649
 21
104.1600001077753
  0
CIRCLE
  5
2DA
100
AcDbEntity
  8
terminal
  6
ByLayer
 62
  256
370
   -1
100
AcDbCircle
 10
-18.40000000000175
 20
79.71999999999959
 40
0.46
  0
CIRCLE
  5
2DB
100
AcDbEntity
  8
terminal
  6
ByLayer
 62
  256
370
   -1
100
AcDbCircle
 10
-15.89999999999967
 20
79.71999989222537
 40
0.46
  0
CIRCLE
  5
2DC
100
AcDbEntity
  8
terminal
  6
ByLayer
 62
  256
370
   -1
100
AcDbCircle
 10
-18.40000000000175
 20
81.7200000000004
 40
0.46
  0
CIRCLE
  5
2DD
100
AcDbEntity
  8
terminal
  6
ByLayer
 62
  256
370
   -1
100
AcDbCircle
 10
-15.89999999999967
 20
81.71999989222618
 40
0.46
  0
CIRCLE
  5
2DE
100
AcDbEntity
  8
terminal
  6
ByLayer
 62
  256
370
   -1
100
AcDbCircle
 10
-23.1700000000003
 20
84.4200000000004
 40
1.15
  0
CIRCLE
  5
2DF
100
AcDbEntity
  8
terminal
  6
ByLayer
 62
  256
370
   -1
100
AcDbCircle
 10
-11.13000000000115
 20
84.42000000000041
 40
1.15
  0
LINE
  5
2E0
100
AcDbEntity
  8
terminal
  6
ByLayer
 62
  256
370
   -1
100
AcDbLine
 10
-23.16999847013602
 20
94.70000000000036
 11
-23.16999847013602
 21
78.70000000000037
  0
LINE
  5
2E1
100
AcDbEntity
  8
terminal
  6
ByLayer
 62
  256
370
   -1
100
AcDbLine
 10
-23.16999847013602
 20
78.70000000000037
 11
-11.12999847013649
 21
78.70000000000037
  0
LINE
  5
2E2
100
AcDbEntity
  8
terminal
  6
ByLayer
 62
  256
370
   -1
100
AcDbLine
 10
-11.12999847013649
 20
78.70000000000037
 11
-11.12999847013649
 21
94.70000000000036
  0
LINE
  5
2E3
100
AcDbEntity
  8
terminal
  6
ByLayer
 62
  256
370
   -1
100
AcDbLine
 10
-11.12999847013649
 20
94.70000000000036
 11
-23.16999847013602
 21
94.70000000000036
  0
CIRCLE
  5
2E4
100
AcDbEntity
  8
kakou
  6
ByLayer
 62
  256
370
   -1
100
AcDbCircle
 10
-18.42000000000033
 20
79.18000000000036
 40
1
  0
CIRCLE
  5
2E5
100
AcDbEntity
  8
kakou
  6
ByLayer
 62
  256
370
   -1
100
AcDbCircle
 10
-15.88000000000045
 20
79.18000000000038
 40
1
  0
MTEXT
  5
2E6
100
AcDbEntity
  8
kakou
  6
ByLayer
 62
  256
370
   -1
100
AcDbMText
 10
-16.79911561079145
 20
77.30079308010059
 30
0
 40
1
 41
4.444444444444599
 71
    5
 72
    1
  1
D2.0mm
  7
iso
210
0
220
0
230
1
 50
0
 73
    2
 44
1.54
  0
MTEXT
  5
2E7
100
AcDbEntity
  8
terminal
  6
ByLayer
 62
  256
370
   -1
100
AcDbMText
 10
-16.39216512717943
 20
93.57629296327748
 30
0
 40
1
 41
12.69444444444454
 71
    5
 72
    1
  1
XM7B-0442, Omron
  7
iso
210
0
220
0
230
1
 50
0
 73
    2
 44
1.54
  0
CIRCLE
  5
2E8
100
AcDbEntity
  8
kakou
  6
ByLayer
 62
  256
370
   -1
100
AcDbCircle
 10
-23.50000000000009
 20
84.26000000000039
 40
1.4
  0
CIRCLE
  5
2E9
100
AcDbEntity
  8
kakou
  6
ByLayer
 62
  256
370
   -1
100
AcDbCircle
 10
-10.80000000000069
 20
84.26000000000042
 40
1.4
  0
MTEXT
  5
2EA
100
AcDbEntity
  8
kakou
  6
ByLayer
 62
  256
370
   -1
100
AcDbMText
 10
-22.98261025876903
 20
86.76768430784716
 30
0
 40
1
 41
4.444444444444599
 71
    5
 72
    1
  1
D2.8mm
  7
iso
210
0
220
0
230
1
 50
0
 73
    2
 44
1.54
  0
CIRCLE
  5
2EB
100
AcDbEntity
  8
terminal
  6
ByLayer
 62
  256
370
   -1
100
AcDbCircle
 10
1.919999999997348
 20
79.71999999999962
 40
0.46
  0
CIRCLE
  5
2EC
100
AcDbEntity
  8
terminal
  6
ByLayer
 62
  256
370
   -1
100
AcDbCircle
 10
4.419999999999428
 20
79.7199998922254
 40
0.46
  0
CIRCLE
  5
2ED
100
AcDbEntity
  8
terminal
  6
ByLayer
 62
  256
370
   -1
100
AcDbCircle
 10
1.919999999997348
 20
81.72000000000043
 40
0.46
  0
CIRCLE
  5
2EE
100
AcDbEntity
  8
terminal
  6
ByLayer
 62
  256
370
   -1
100
AcDbCircle
 10
4.419999999999428
 20
81.71999989222621
 40
0.46
  0
CIRCLE
  5
2EF
100
AcDbEntity
  8
terminal
  6
ByLayer
 62
  256
370
   -1
100
AcDbCircle
 10
-2.850000000001202
 20
84.42000000000043
 40
1.15
  0
CIRCLE
  5
2F0
100
AcDbEntity
  8
terminal
  6
ByLayer
 62
  256
370
   -1
100
AcDbCircle
 10
9.189999999997948
 20
84.42000000000044
 40
1.15
  0
LINE
  5
2F1
100
AcDbEntity
  8
terminal
  6
ByLayer
 62
  256
370
   -1
100
AcDbLine
 10
-2.849998470136921
 20
94.70000000000039
 11
-2.849998470136921
 21
78.7000000000004
  0
LINE
  5
2F2
100
AcDbEntity
  8
terminal
  6
ByLayer
 62
  256
370
   -1
100
AcDbLine
 10
-2.849998470136921
 20
78.7000000000004
 11
9.190001529862608
 21
78.7000000000004
  0
LINE
  5
2F3
100
AcDbEntity
  8
terminal
  6
ByLayer
 62
  256
370
   -1
100
AcDbLine
 10
9.190001529862608
 20
78.7000000000004
 11
9.190001529862608
 21
94.70000000000039
  0
LINE
  5
2F4
100
AcDbEntity
  8
terminal
  6
ByLayer
 62
  256
370
   -1
100
AcDbLine
 10
9.190001529862608
 20
94.70000000000039
 11
-2.849998470136921
 21
94.70000000000039
  0
CIRCLE
  5
2F5
100
AcDbEntity
  8
kakou
  6
ByLayer
 62
  256
370
   -1
100
AcDbCircle
 10
1.899999999998769
 20
79.18000000000039
 40
1
  0
CIRCLE
  5
2F6
100
AcDbEntity
  8
kakou
  6
ByLayer
 62
  256
370
   -1
100
AcDbCircle
 10
4.439999999998648
 20
79.1800000000004
 40
1
  0
MTEXT
  5
2F7
100
AcDbEntity
  8
terminal
  6
ByLayer
 62
  256
370
   -1
100
AcDbMText
 10
3.927834872819666
 20
93.57629296327751
 30
0
 40
1
 41
12.69444444444454
 71
    5
 72
    1
  1
XM7B-0442, Omron
  7
iso
210
0
220
0
230
1
 50
0
 73
    2
 44
1.54
  0
CIRCLE
  5
2F8
100
AcDbEntity
  8
kakou
  6
ByLayer
 62
  256
370
   -1
100
AcDbCircle
 10
-3.180000000000991
 20
84.26000000000042
 40
1.4
  0
CIRCLE
  5
2F9
100
AcDbEntity
  8
kakou
  6
ByLayer
 62
  256
370
   -1
100
AcDbCircle
 10
9.519999999998408
 20
84.26000000000045
 40
1.4
  0
CIRCLE
  5
2FA
100
AcDbEntity
  8
universal board
  6
ByLayer
 62
  256
370
   -1
100
AcDbCircle
 10
9.519999999998408
 20
63.94000000000028
 40
0.5
  0
CIRCLE
  5
2FB
100
AcDbEntity
  8
universal board
  6
ByLayer
 62
  256
370
   -1
100
AcDbCircle
 10
9.519999999998397
 20
66.48000000000032
 40
0.5
  0
CIRCLE
  5
2FC
100
AcDbEntity
  8
universal board
  6
ByLayer
 62
  256
370
   -1
100
AcDbCircle
 10
9.519999999998397
 20
69.02000000000034
 40
0.5
  0
CIRCLE
  5
2FD
100
AcDbEntity
  8
universal board
  6
ByLayer
 62
  256
370
   -1
100
AcDbCircle
 10
9.519999999998397
 20
74.10000000000038
 40
0.5
  0
CIRCLE
  5
2FE
100
AcDbEntity
  8
universal board
  6
ByLayer
 62
  256
370
   -1
100
AcDbCircle
 10
9.519999999998397
 20
76.6400000000004
 40
0.5
  0
CIRCLE
  5
2FF
100
AcDbEntity
  8
universal board
  6
ByLayer
 62
  256
370
   -1
100
AcDbCircle
 10
9.519999999998397
 20
79.18000000000042
 40
0.5
  0
CIRCLE
  5
300
100
AcDbEntity
  8
universal board
  6
ByLayer
 62
  256
370
   -1
100
AcDbCircle
 10
9.519999999998397
 20
81.72000000000044
 40
0.5
  0
CIRCLE
  5
301
100
AcDbEntity
  8
universal board
  6
ByLayer
 62
  256
370
   -1
100
AcDbCircle
 10
9.519999999998397
 20
84.26000000000046
 40
0.5
  0
CIRCLE
  5
302
100
AcDbEntity
  8
universal board
  6
ByLayer
 62
  256
370
   -1
100
AcDbCircle
 10
9.519999999998397
 20
86.80000000000048
 40
0.5
  0
CIRCLE
  5
303
100
AcDbEntity
  8
universal board
  6
ByLayer
 62
  256
370
   -1
100
AcDbCircle
 10
12.05999999999829
 20
63.9400000000003
 40
0.5
  0
CIRCLE
  5
304
100
AcDbEntity
  8
universal board
  6
ByLayer
 62
  256
370
   -1
100
AcDbCircle
 10
12.05999999999828
 20
66.48000000000033
 40
0.5
  0
CIRCLE
  5
305
100
AcDbEntity
  8
universal board
  6
ByLayer
 62
  256
370
   -1
100
AcDbCircle
 10
12.05999999999828
 20
69.02000000000035
 40
0.5
  0
CIRCLE
  5
306
100
AcDbEntity
  8
universal board
  6
ByLayer
 62
  256
370
   -1
100
AcDbCircle
 10
14.59999999999816
 20
63.94000000000031
 40
0.5
  0
CIRCLE
  5
307
100
AcDbEntity
  8
universal board
  6
ByLayer
 62
  256
370
   -1
100
AcDbCircle
 10
14.59999999999815
 20
66.48000000000035
 40
0.5
  0
CIRCLE
  5
308
100
AcDbEntity
  8
universal board
  6
ByLayer
 62
  256
370
   -1
100
AcDbCircle
 10
17.13999999999804
 20
63.94000000000032
 40
0.5
  0
CIRCLE
  5
309
100
AcDbEntity
  8
universal board
  6
ByLayer
 62
  256
370
   -1
100
AcDbCircle
 10
17.13999999999803
 20
66.48000000000036
 40
0.5
  0
CIRCLE
  5
30A
100
AcDbEntity
  8
universal board
  6
ByLayer
 62
  256
370
   -1
100
AcDbCircle
 10
17.13999999999803
 20
74.10000000000042
 40
0.5
  0
CIRCLE
  5
30B
100
AcDbEntity
  8
universal board
  6
ByLayer
 62
  256
370
   -1
100
AcDbCircle
 10
17.13999999999803
 20
76.64000000000044
 40
0.5
  0
CIRCLE
  5
30C
100
AcDbEntity
  8
universal board
  6
ByLayer
 62
  256
370
   -1
100
AcDbCircle
 10
17.13999999999803
 20
79.18000000000046
 40
0.5
  0
CIRCLE
  5
30D
100
AcDbEntity
  8
universal board
  6
ByLayer
 62
  256
370
   -1
100
AcDbCircle
 10
17.13999999999803
 20
81.72000000000048
 40
0.5
  0
CIRCLE
  5
30E
100
AcDbEntity
  8
universal board
  6
ByLayer
 62
  256
370
   -1
100
AcDbCircle
 10
17.13999999999803
 20
84.2600000000005
 40
0.5
  0
CIRCLE
  5
30F
100
AcDbEntity
  8
universal board
  6
ByLayer
 62
  256
370
   -1
100
AcDbCircle
 10
17.13999999999803
 20
86.80000000000052
 40
0.5
  0
CIRCLE
  5
310
100
AcDbEntity
  8
universal board
  6
ByLayer
 62
  256
370
   -1
100
AcDbCircle
 10
19.67999999999792
 20
63.94000000000034
 40
0.5
  0
CIRCLE
  5
311
100
AcDbEntity
  8
universal board
  6
ByLayer
 62
  256
370
   -1
100
AcDbCircle
 10
19.67999999999791
 20
66.48000000000037
 40
0.5
  0
CIRCLE
  5
312
100
AcDbEntity
  8
universal board
  6
ByLayer
 62
  256
370
   -1
100
AcDbCircle
 10
19.67999999999791
 20
74.10000000000043
 40
0.5
  0
CIRCLE
  5
313
100
AcDbEntity
  8
universal board
  6
ByLayer
 62
  256
370
   -1
100
AcDbCircle
 10
19.67999999999791
 20
76.64000000000046
 40
0.5
  0
CIRCLE
  5
314
100
AcDbEntity
  8
universal board
  6
ByLayer
 62
  256
370
   -1
100
AcDbCircle
 10
19.67999999999791
 20
79.18000000000048
 40
0.5
  0
CIRCLE
  5
315
100
AcDbEntity
  8
universal board
  6
ByLayer
 62
  256
370
   -1
100
AcDbCircle
 10
19.67999999999791
 20
81.7200000000005
 40
0.5
  0
CIRCLE
  5
316
100
AcDbEntity
  8
universal board
  6
ByLayer
 62
  256
370
   -1
100
AcDbCircle
 10
19.67999999999791
 20
84.26000000000052
 40
0.5
  0
CIRCLE
  5
317
100
AcDbEntity
  8
universal board
  6
ByLayer
 62
  256
370
   -1
100
AcDbCircle
 10
19.67999999999791
 20
86.80000000000054
 40
0.5
  0
CIRCLE
  5
318
100
AcDbEntity
  8
universal board
  6
ByLayer
 62
  256
370
   -1
100
AcDbCircle
 10
22.2199999999978
 20
63.94000000000035
 40
0.5
  0
CIRCLE
  5
319
100
AcDbEntity
  8
universal board
  6
ByLayer
 62
  256
370
   -1
100
AcDbCircle
 10
22.21999999999779
 20
66.48000000000039
 40
0.5
  0
CIRCLE
  5
31A
100
AcDbEntity
  8
universal board
  6
ByLayer
 62
  256
370
   -1
100
AcDbCircle
 10
22.21999999999779
 20
74.10000000000045
 40
0.5
  0
CIRCLE
  5
31B
100
AcDbEntity
  8
universal board
  6
ByLayer
 62
  256
370
   -1
100
AcDbCircle
 10
22.21999999999779
 20
76.64000000000047
 40
0.5
  0
CIRCLE
  5
31C
100
AcDbEntity
  8
universal board
  6
ByLayer
 62
  256
370
   -1
100
AcDbCircle
 10
22.21999999999779
 20
79.18000000000049
 40
0.5
  0
CIRCLE
  5
31D
100
AcDbEntity
  8
universal board
  6
ByLayer
 62
  256
370
   -1
100
AcDbCircle
 10
22.21999999999779
 20
81.72000000000051
 40
0.5
  0
CIRCLE
  5
31E
100
AcDbEntity
  8
universal board
  6
ByLayer
 62
  256
370
   -1
100
AcDbCircle
 10
22.21999999999779
 20
84.26000000000053
 40
0.5
  0
CIRCLE
  5
31F
100
AcDbEntity
  8
universal board
  6
ByLayer
 62
  256
370
   -1
100
AcDbCircle
 10
22.21999999999779
 20
86.80000000000055
 40
0.5
  0
CIRCLE
  5
320
100
AcDbEntity
  8
universal board
  6
ByLayer
 62
  256
370
   -1
100
AcDbCircle
 10
24.75999999999768
 20
63.94000000000037
 40
0.5
  0
CIRCLE
  5
321
100
AcDbEntity
  8
universal board
  6
ByLayer
 62
  256
370
   -1
100
AcDbCircle
 10
24.75999999999767
 20
66.4800000000004
 40
0.5
  0
CIRCLE
  5
322
100
AcDbEntity
  8
universal board
  6
ByLayer
 62
  256
370
   -1
100
AcDbCircle
 10
24.75999999999767
 20
74.10000000000046
 40
0.5
  0
CIRCLE
  5
323
100
AcDbEntity
  8
universal board
  6
ByLayer
 62
  256
370
   -1
100
AcDbCircle
 10
24.75999999999767
 20
76.64000000000048
 40
0.5
  0
CIRCLE
  5
324
100
AcDbEntity
  8
universal board
  6
ByLayer
 62
  256
370
   -1
100
AcDbCircle
 10
24.75999999999767
 20
79.1800000000005
 40
0.5
  0
CIRCLE
  5
325
100
AcDbEntity
  8
universal board
  6
ByLayer
 62
  256
370
   -1
100
AcDbCircle
 10
24.75999999999767
 20
81.72000000000052
 40
0.5
  0
CIRCLE
  5
326
100
AcDbEntity
  8
universal board
  6
ByLayer
 62
  256
370
   -1
100
AcDbCircle
 10
24.75999999999767
 20
84.26000000000055
 40
0.5
  0
CIRCLE
  5
327
100
AcDbEntity
  8
universal board
  6
ByLayer
 62
  256
370
   -1
100
AcDbCircle
 10
24.75999999999767
 20
86.80000000000057
 40
0.5
  0
CIRCLE
  5
328
100
AcDbEntity
  8
universal board
  6
ByLayer
 62
  256
370
   -1
100
AcDbCircle
 10
27.29999999999756
 20
63.94000000000038
 40
0.5
  0
CIRCLE
  5
329
100
AcDbEntity
  8
universal board
  6
ByLayer
 62
  256
370
   -1
100
AcDbCircle
 10
27.29999999999755
 20
66.48000000000042
 40
0.5
  0
CIRCLE
  5
32A
100
AcDbEntity
  8
universal board
  6
ByLayer
 62
  256
370
   -1
100
AcDbCircle
 10
27.29999999999755
 20
74.10000000000048
 40
0.5
  0
CIRCLE
  5
32B
100
AcDbEntity
  8
universal board
  6
ByLayer
 62
  256
370
   -1
100
AcDbCircle
 10
27.29999999999755
 20
76.6400000000005
 40
0.5
  0
CIRCLE
  5
32C
100
AcDbEntity
  8
universal board
  6
ByLayer
 62
  256
370
   -1
100
AcDbCircle
 10
27.29999999999755
 20
79.18000000000052
 40
0.5
  0
CIRCLE
  5
32D
100
AcDbEntity
  8
universal board
  6
ByLayer
 62
  256
370
   -1
100
AcDbCircle
 10
27.29999999999755
 20
81.72000000000054
 40
0.5
  0
CIRCLE
  5
32E
100
AcDbEntity
  8
universal board
  6
ByLayer
 62
  256
370
   -1
100
AcDbCircle
 10
27.29999999999755
 20
84.26000000000056
 40
0.5
  0
CIRCLE
  5
32F
100
AcDbEntity
  8
universal board
  6
ByLayer
 62
  256
370
   -1
100
AcDbCircle
 10
27.29999999999755
 20
86.80000000000058
 40
0.5
  0
CIRCLE
  5
330
100
AcDbEntity
  8
universal board
  6
ByLayer
 62
  256
370
   -1
100
AcDbCircle
 10
29.83999999999743
 20
63.9400000000004
 40
0.5
  0
CIRCLE
  5
331
100
AcDbEntity
  8
universal board
  6
ByLayer
 62
  256
370
   -1
100
AcDbCircle
 10
29.83999999999742
 20
66.48000000000043
 40
0.5
  0
CIRCLE
  5
332
100
AcDbEntity
  8
universal board
  6
ByLayer
 62
  256
370
   -1
100
AcDbCircle
 10
29.83999999999742
 20
74.10000000000049
 40
0.5
  0
CIRCLE
  5
333
100
AcDbEntity
  8
universal board
  6
ByLayer
 62
  256
370
   -1
100
AcDbCircle
 10
29.83999999999742
 20
76.64000000000051
 40
0.5
  0
CIRCLE
  5
334
100
AcDbEntity
  8
universal board
  6
ByLayer
 62
  256
370
   -1
100
AcDbCircle
 10
29.83999999999742
 20
79.18000000000053
 40
0.5
  0
CIRCLE
  5
335
100
AcDbEntity
  8
universal board
  6
ByLayer
 62
  256
370
   -1
100
AcDbCircle
 10
29.83999999999742
 20
81.72000000000055
 40
0.5
  0
CIRCLE
  5
336
100
AcDbEntity
  8
universal board
  6
ByLayer
 62
  256
370
   -1
100
AcDbCircle
 10
29.83999999999742
 20
84.26000000000057
 40
0.5
  0
CIRCLE
  5
337
100
AcDbEntity
  8
universal board
  6
ByLayer
 62
  256
370
   -1
100
AcDbCircle
 10
29.83999999999742
 20
86.80000000000059
 40
0.5
  0
CIRCLE
  5
338
100
AcDbEntity
  8
universal board
  6
ByLayer
 62
  256
370
   -1
100
AcDbCircle
 10
32.37999999999731
 20
63.94000000000041
 40
0.5
  0
CIRCLE
  5
339
100
AcDbEntity
  8
universal board
  6
ByLayer
 62
  256
370
   -1
100
AcDbCircle
 10
32.3799999999973
 20
66.48000000000044
 40
0.5
  0
MTEXT
  5
33A
100
AcDbEntity
  8
terminal
  6
ByLayer
 62
  256
370
   -1
100
AcDbMText
 10
-0.949701490425636
 20
80.90269571563387
 30
0
 40
1
 41
4.777777777777839
 71
    5
 72
    1
  1
1_V\P4_GND
  7
iso
210
0
220
0
230
1
 50
0
 73
    2
 44
1.54
  0
MTEXT
  5
33B
100
AcDbEntity
  8
terminal
  6
ByLayer
 62
  256
370
   -1
100
AcDbMText
 10
7.241473864495474
 20
81.05108657351288
 30
0
 40
1
 41
3.66666666666679
 71
    5
 72
    1
  1
2_D-\P3_D+
  7
iso
210
0
220
0
230
1
 50
0
 73
    2
 44
1.54
  0
LINE
  5
33C
100
AcDbEntity
  8
5V line
  6
ByLayer
 62
  256
370
   -1
100
AcDbLine
 10
1.899999999998769
 20
81.7200000000004
 11
-0.6400000000011108
 21
81.7200000000004
  0
LINE
  5
33D
100
AcDbEntity
  8
5V line
  6
ByLayer
 62
  256
370
   -1
100
AcDbLine
 10
-0.6400000000011108
 20
81.7200000000004
 11
-0.6400000000011108
 21
79.18000000000038
  0
LINE
  5
33E
100
AcDbEntity
  8
5V line
  6
ByLayer
 62
  256
370
   -1
100
AcDbLine
 10
-0.6400000000011108
 20
79.18000000000038
 11
-0.6400000000011108
 21
76.64000000000036
  0
LINE
  5
33F
100
AcDbEntity
  8
pin socket
  6
ByLayer
 62
  256
370
   -1
100
AcDbLine
 10
3.169999999998218
 20
77.91000000000061
 11
3.169999999998218
 21
75.37000000000013
  0
LINE
  5
340
100
AcDbEntity
  8
pin socket
  6
ByLayer
 62
  256
370
   -1
100
AcDbLine
 10
3.169999999998218
 20
75.37000000000013
 11
5.709999999999077
 21
75.37000000000013
  0
LINE
  5
341
100
AcDbEntity
  8
pin socket
  6
ByLayer
 62
  256
370
   -1
100
AcDbLine
 10
5.709999999999077
 20
75.37000000000013
 11
5.709999999999077
 21
77.91000000000061
  0
LINE
  5
342
100
AcDbEntity
  8
pin socket
  6
ByLayer
 62
  256
370
   -1
100
AcDbLine
 10
5.709999999999077
 20
77.91000000000061
 11
3.169999999998218
 21
77.91000000000061
  0
LINE
  5
343
100
AcDbEntity
  8
pin socket
  6
ByLayer
 62
  256
370
   -1
100
AcDbLine
 10
0.6299999999983386
 20
77.91000000000061
 11
0.6299999999983386
 21
75.37000000000013
  0
LINE
  5
344
100
AcDbEntity
  8
pin socket
  6
ByLayer
 62
  256
370
   -1
100
AcDbLine
 10
0.6299999999983386
 20
75.37000000000013
 11
3.169999999999197
 21
75.37000000000013
  0
LINE
  5
345
100
AcDbEntity
  8
pin socket
  6
ByLayer
 62
  256
370
   -1
100
AcDbLine
 10
3.169999999999197
 20
75.37000000000013
 11
3.169999999999197
 21
77.91000000000061
  0
LINE
  5
346
100
AcDbEntity
  8
pin socket
  6
ByLayer
 62
  256
370
   -1
100
AcDbLine
 10
3.169999999999197
 20
77.91000000000061
 11
0.6299999999983386
 21
77.91000000000061
  0
LINE
  5
347
100
AcDbEntity
  8
pin socket
  6
ByLayer
 62
  256
370
   -1
100
AcDbLine
 10
8.249999999997968
 20
77.91000000000064
 11
8.249999999997968
 21
75.37000000000016
  0
LINE
  5
348
100
AcDbEntity
  8
pin socket
  6
ByLayer
 62
  256
370
   -1
100
AcDbLine
 10
8.249999999997968
 20
75.37000000000016
 11
10.78999999999883
 21
75.37000000000016
  0
LINE
  5
349
100
AcDbEntity
  8
pin socket
  6
ByLayer
 62
  256
370
   -1
100
AcDbLine
 10
10.78999999999883
 20
75.37000000000016
 11
10.78999999999883
 21
77.91000000000064
  0
LINE
  5
34A
100
AcDbEntity
  8
pin socket
  6
ByLayer
 62
  256
370
   -1
100
AcDbLine
 10
10.78999999999883
 20
77.91000000000064
 11
8.249999999997968
 21
77.91000000000064
  0
LINE
  5
34B
100
AcDbEntity
  8
pin socket
  6
ByLayer
 62
  256
370
   -1
100
AcDbLine
 10
5.709999999998088
 20
77.91000000000064
 11
5.709999999998088
 21
75.37000000000016
  0
LINE
  5
34C
100
AcDbEntity
  8
pin socket
  6
ByLayer
 62
  256
370
   -1
100
AcDbLine
 10
5.709999999998088
 20
75.37000000000016
 11
8.249999999998947
 21
75.37000000000016
  0
LINE
  5
34D
100
AcDbEntity
  8
pin socket
  6
ByLayer
 62
  256
370
   -1
100
AcDbLine
 10
8.249999999998947
 20
75.37000000000016
 11
8.249999999998947
 21
77.91000000000064
  0
LINE
  5
34E
100
AcDbEntity
  8
pin socket
  6
ByLayer
 62
  256
370
   -1
100
AcDbLine
 10
8.249999999998947
 20
77.91000000000064
 11
5.709999999998088
 21
77.91000000000064
  0
LINE
  5
34F
100
AcDbEntity
  8
0_GND
  6
ByLayer
 62
  256
370
   -1
100
AcDbLine
 10
1.899999999998769
 20
79.18000000000038
 11
1.899999999998769
 21
76.64000000000036
  0
LINE
  5
350
100
AcDbEntity
  8
0_wire
  6
ByLayer
 62
  256
370
   -1
100
AcDbLine
 10
4.439999999998641
 20
79.18000000000039
 11
4.439999999998641
 21
76.64000000000037
  0
LINE
  5
351
100
AcDbEntity
  8
3.3V line
  6
ByLayer
 62
  256
370
   -1
100
AcDbLine
 10
4.439999999998641
 20
81.72000000000041
 11
6.979999999998519
 21
81.72000000000043
  0
LINE
  5
352
100
AcDbEntity
  8
3.3V line
  6
ByLayer
 62
  256
370
   -1
100
AcDbLine
 10
6.979999999998519
 20
81.72000000000043
 11
6.979999999998519
 21
76.64000000000038
  0
LINE
  5
353
100
AcDbEntity
  8
5V line
  6
ByLayer
 62
  256
370
   -1
100
AcDbLine
 10
-0.6400000000011108
 20
76.64000000000036
 11
-0.6400000000011108
 21
74.10000000000034
  0
LINE
  5
354
100
AcDbEntity
  8
5V line
  6
ByLayer
 62
  256
370
   -1
100
AcDbLine
 10
-0.6400000000011108
 20
74.10000000000034
 11
9.519999999998397
 21
74.10000000000038
  0
LINE
  5
355
100
AcDbEntity
  8
5V line
  6
ByLayer
 62
  256
370
   -1
100
AcDbLine
 10
9.519999999998397
 20
74.10000000000038
 11
9.519999999998397
 21
76.6400000000004
  0
LINE
  5
356
100
AcDbEntity
  8
universal board
  6
ByLayer
 62
  256
370
   -1
100
AcDbLine
 10
-4.450000000000973
 20
72.83
 11
-4.450000000000973
 21
88.07000000000012
  0
LINE
  5
357
100
AcDbEntity
  8
universal board
  6
ByLayer
 62
  256
370
   -1
100
AcDbLine
 10
10.78999999999836
 20
72.83000000000001
 11
10.78999999999837
 21
88.07000000000014
  0
LINE
  5
358
100
AcDbEntity
  8
universal board
  6
ByLayer
 62
  256
370
   -1
100
AcDbLine
 10
-4.450000000000973
 20
88.07000000000011
 11
10.78999999999836
 21
88.07000000000014
  0
LINE
  5
359
100
AcDbEntity
  8
universal board
  6
ByLayer
 62
  256
370
   -1
100
AcDbLine
 10
-4.450000000000973
 20
72.83
 11
10.78999999999836
 21
72.83000000000001
  0
CIRCLE
  5
35A
100
AcDbEntity
  8
terminal
  6
ByLayer
 62
  256
370
   -1
100
AcDbCircle
 10
22.1799999999987
 20
79.71999967667713
 40
0.46
  0
CIRCLE
  5
35B
100
AcDbEntity
  8
terminal
  6
ByLayer
 62
  256
370
   -1
100
AcDbCircle
 10
24.68000000000078
 20
79.71999956890292
 40
0.46
  0
CIRCLE
  5
35C
100
AcDbEntity
  8
terminal
  6
ByLayer
 62
  256
370
   -1
100
AcDbCircle
 10
22.1799999999987
 20
81.71999967667794
 40
0.46
  0
CIRCLE
  5
35D
100
AcDbEntity
  8
terminal
  6
ByLayer
 62
  256
370
   -1
100
AcDbCircle
 10
24.68000000000078
 20
81.71999956890373
 40
0.46
  0
CIRCLE
  5
35E
100
AcDbEntity
  8
terminal
  6
ByLayer
 62
  256
370
   -1
100
AcDbCircle
 10
17.41000000000015
 20
84.41999967667795
 40
1.15
  0
CIRCLE
  5
35F
100
AcDbEntity
  8
terminal
  6
ByLayer
 62
  256
370
   -1
100
AcDbCircle
 10
29.4499999999993
 20
84.41999967667796
 40
1.15
  0
LINE
  5
360
100
AcDbEntity
  8
terminal
  6
ByLayer
 62
  256
370
   -1
100
AcDbLine
 10
17.41000152986443
 20
94.6999996766779
 11
17.41000152986443
 21
78.69999967667792
  0
LINE
  5
361
100
AcDbEntity
  8
terminal
  6
ByLayer
 62
  256
370
   -1
100
AcDbLine
 10
17.41000152986443
 20
78.69999967667792
 11
29.45000152986396
 21
78.69999967667792
  0
LINE
  5
362
100
AcDbEntity
  8
terminal
  6
ByLayer
 62
  256
370
   -1
100
AcDbLine
 10
29.45000152986396
 20
78.69999967667792
 11
29.45000152986396
 21
94.6999996766779
  0
LINE
  5
363
100
AcDbEntity
  8
terminal
  6
ByLayer
 62
  256
370
   -1
100
AcDbLine
 10
29.45000152986396
 20
94.6999996766779
 11
17.41000152986443
 21
94.6999996766779
  0
CIRCLE
  5
364
100
AcDbEntity
  8
kakou
  6
ByLayer
 62
  256
370
   -1
100
AcDbCircle
 10
22.16000000000012
 20
79.17999967667791
 40
1
  0
CIRCLE
  5
365
100
AcDbEntity
  8
kakou
  6
ByLayer
 62
  256
370
   -1
100
AcDbCircle
 10
24.7
 20
79.17999967667792
 40
1
  0
MTEXT
  5
366
100
AcDbEntity
  8
terminal
  6
ByLayer
 62
  256
370
   -1
100
AcDbMText
 10
24.18783487282102
 20
93.57629263995503
 30
0
 40
1
 41
12.69444444444454
 71
    5
 72
    1
  1
XM7B-0442, Omron
  7
iso
210
0
220
0
230
1
 50
0
 73
    2
 44
1.54
  0
CIRCLE
  5
367
100
AcDbEntity
  8
kakou
  6
ByLayer
 62
  256
370
   -1
100
AcDbCircle
 10
17.08000000000036
 20
84.25999967667794
 40
1.4
  0
CIRCLE
  5
368
100
AcDbEntity
  8
kakou
  6
ByLayer
 62
  256
370
   -1
100
AcDbCircle
 10
29.77999999999976
 20
84.25999967667796
 40
1.4
  0
MTEXT
  5
369
100
AcDbEntity
  8
terminal
  6
ByLayer
 62
  256
370
   -1
100
AcDbMText
 10
19.31029850957572
 20
80.90269539231139
 30
0
 40
1
 41
4.777777777777839
 71
    5
 72
    1
  1
1_V\P4_GND
  7
iso
210
0
220
0
230
1
 50
0
 73
    2
 44
1.54
  0
MTEXT
  5
36A
100
AcDbEntity
  8
terminal
  6
ByLayer
 62
  256
370
   -1
100
AcDbMText
 10
27.50147386449683
 20
81.05108625019039
 30
0
 40
1
 41
3.66666666666679
 71
    5
 72
    1
  1
2_D-\P3_D+
  7
iso
210
0
220
0
230
1
 50
0
 73
    2
 44
1.54
  0
LINE
  5
36B
100
AcDbEntity
  8
0_GND
  6
ByLayer
 62
  256
370
   -1
100
AcDbLine
 10
22.16000000000012
 20
79.17999967667789
 11
19.62000000000025
 21
79.17999967667788
  0
LINE
  5
36C
100
AcDbEntity
  8
0_GND
  6
ByLayer
 62
  256
370
   -1
100
AcDbLine
 10
19.62000000000025
 20
79.17999967667788
 11
19.62000000000025
 21
76.63999967667786
  0
LINE
  5
36D
100
AcDbEntity
  8
0_wire
  6
ByLayer
 62
  256
370
   -1
100
AcDbLine
 10
24.7
 20
79.17999967667791
 11
24.7
 21
76.63999967667789
  0
LINE
  5
36E
100
AcDbEntity
  8
0_wire
  6
ByLayer
 62
  256
370
   -1
100
AcDbLine
 10
24.7
 20
76.63999967667789
 11
22.16000000000012
 21
76.63999967667787
  0
LINE
  5
36F
100
AcDbEntity
  8
0_wire
  6
ByLayer
 62
  256
370
   -1
100
AcDbLine
 10
22.16000000000012
 20
76.63999967667787
 11
22.16000000000012
 21
74.09999967667785
  0
LINE
  5
370
100
AcDbEntity
  8
0_GND
  6
ByLayer
 62
  256
370
   -1
100
AcDbLine
 10
19.62000000000025
 20
76.63999967667786
 11
19.62000000000025
 21
74.09999967667784
  0
LINE
  5
371
100
AcDbEntity
  8
3.3V line
  6
ByLayer
 62
  256
370
   -1
100
AcDbLine
 10
24.68000000000078
 20
81.71999956890373
 11
27.23999999999988
 21
81.71999967667794
  0
LINE
  5
372
100
AcDbEntity
  8
3.3V line
  6
ByLayer
 62
  256
370
   -1
100
AcDbLine
 10
27.23999999999988
 20
81.71999967667794
 11
27.23999999999988
 21
76.6399996766779
  0
LINE
  5
373
100
AcDbEntity
  8
0_GND
  6
ByLayer
 62
  256
370
   -1
100
AcDbLine
 10
19.62000000000025
 20
74.09999967667784
 11
19.62000000000025
 21
71.55999967667782
  0
LINE
  5
374
100
AcDbEntity
  8
0_wire
  6
ByLayer
 62
  256
370
   -1
100
AcDbLine
 10
22.16000000000012
 20
74.09999967667785
 11
22.16000000000012
 21
71.55999967667783
  0
LINE
  5
375
100
AcDbEntity
  8
3.3V line
  6
ByLayer
 62
  256
370
   -1
100
AcDbLine
 10
27.23999999999988
 20
76.6399996766779
 11
27.23999999999988
 21
74.09999967667788
  0
LINE
  5
376
100
AcDbEntity
  8
3.3V line
  6
ByLayer
 62
  256
370
   -1
100
AcDbLine
 10
27.23999999999988
 20
74.09999967667788
 11
24.7
 21
74.09999967667787
  0
LINE
  5
377
100
AcDbEntity
  8
3.3V line
  6
ByLayer
 62
  256
370
   -1
100
AcDbLine
 10
24.7
 20
74.09999967667787
 11
24.7
 21
71.55999967667785
  0
LINE
  5
378
100
AcDbEntity
  8
5V line
  6
ByLayer
 62
  256
370
   -1
100
AcDbLine
 10
22.16000000000012
 20
81.71999967667792
 11
17.08000000000037
 21
81.71999967667789
  0
LINE
  5
379
100
AcDbEntity
  8
5V line
  6
ByLayer
 62
  256
370
   -1
100
AcDbLine
 10
17.08000000000037
 20
81.71999967667789
 11
17.08000000000037
 21
76.63999967667785
  0
LINE
  5
37A
100
AcDbEntity
  8
5V line
  6
ByLayer
 62
  256
370
   -1
100
AcDbLine
 10
29.77999999999976
 20
76.63999967667792
 11
29.77999999999976
 21
71.55999967667788
  0
LINE
  5
37B
100
AcDbEntity
  8
resister
  6
ByLayer
 62
  256
370
   -1
100
AcDbLine
 10
26.22999999999947
 20
77.73999967668003
 11
20.62999999999944
 21
77.73999967668003
  0
LINE
  5
37C
100
AcDbEntity
  8
resister
  6
ByLayer
 62
  256
370
   -1
100
AcDbLine
 10
20.62999999999944
 20
77.73999967668003
 11
20.62999999999944
 21
75.53999967668037
  0
LINE
  5
37D
100
AcDbEntity
  8
resister
  6
ByLayer
 62
  256
370
   -1
100
AcDbLine
 10
20.62999999999944
 20
75.53999967668037
 11
26.22999999999947
 21
75.53999967668037
  0
LINE
  5
37E
100
AcDbEntity
  8
resister
  6
ByLayer
 62
  256
370
   -1
100
AcDbLine
 10
26.22999999999947
 20
75.53999967668037
 11
26.22999999999947
 21
77.73999967668003
  0
CIRCLE
  5
37F
100
AcDbEntity
  8
resister
  6
ByLayer
 62
  256
370
   -1
100
AcDbCircle
 10
17.07999999999949
 20
76.63999967668016
 40
0.25
  0
CIRCLE
  5
380
100
AcDbEntity
  8
resister
  6
ByLayer
 62
  256
370
   -1
100
AcDbCircle
 10
29.77999999999976
 20
76.63999967667792
 40
0.25
  0
LINE
  5
381
100
AcDbEntity
  8
resister
  6
ByLayer
 62
  256
370
   -1
100
AcDbLine
 10
29.77999999999976
 20
76.63999967668018
 11
26.22999999999947
 21
76.63999967668018
  0
LINE
  5
382
100
AcDbEntity
  8
resister
  6
ByLayer
 62
  256
370
   -1
100
AcDbLine
 10
20.62999999999944
 20
76.63999967668018
 11
17.08000000000037
 21
76.63999967668018
  0
LINE
  5
383
100
AcDbEntity
  8
universal board
  6
ByLayer
 62
  256
370
   -1
100
AcDbLine
 10
15.86999999999805
 20
88.07000000000023
 11
31.10999999999739
 21
88.07000000000025
  0
LINE
  5
384
100
AcDbEntity
  8
universal board
  6
ByLayer
 62
  256
370
   -1
100
AcDbLine
 10
15.86999999999805
 20
70.29000000000009
 11
31.10999999999739
 21
70.29000000000011
  0
LINE
  5
385
100
AcDbEntity
  8
universal board
  6
ByLayer
 62
  256
370
   -1
100
AcDbLine
 10
15.86999999999812
 20
70.29000000000009
 11
15.86999999999812
 21
88.07000000000016
  0
LINE
  5
386
100
AcDbEntity
  8
universal board
  6
ByLayer
 62
  256
370
   -1
100
AcDbLine
 10
31.10999999999739
 20
70.29000000000011
 11
31.10999999999739
 21
88.07000000000025
  0
CIRCLE
  5
387
100
AcDbEntity
  8
universal board
  6
ByLayer
 62
  256
370
   -1
100
AcDbCircle
 10
39.999999999997
 20
74.10000000000048
 40
0.5
  0
CIRCLE
  5
388
100
AcDbEntity
  8
universal board
  6
ByLayer
 62
  256
370
   -1
100
AcDbCircle
 10
39.999999999997
 20
76.6400000000005
 40
0.5
  0
CIRCLE
  5
389
100
AcDbEntity
  8
universal board
  6
ByLayer
 62
  256
370
   -1
100
AcDbCircle
 10
39.999999999997
 20
79.18000000000052
 40
0.5
  0
CIRCLE
  5
38A
100
AcDbEntity
  8
universal board
  6
ByLayer
 62
  256
370
   -1
100
AcDbCircle
 10
39.999999999997
 20
81.72000000000054
 40
0.5
  0
CIRCLE
  5
38B
100
AcDbEntity
  8
universal board
  6
ByLayer
 62
  256
370
   -1
100
AcDbCircle
 10
39.999999999997
 20
84.26000000000056
 40
0.5
  0
CIRCLE
  5
38C
100
AcDbEntity
  8
universal board
  6
ByLayer
 62
  256
370
   -1
100
AcDbCircle
 10
39.999999999997
 20
86.80000000000058
 40
0.5
  0
CIRCLE
  5
38D
100
AcDbEntity
  8
universal board
  6
ByLayer
 62
  256
370
   -1
100
AcDbCircle
 10
42.53999999999688
 20
74.10000000000049
 40
0.5
  0
CIRCLE
  5
38E
100
AcDbEntity
  8
universal board
  6
ByLayer
 62
  256
370
   -1
100
AcDbCircle
 10
42.53999999999688
 20
76.64000000000051
 40
0.5
  0
CIRCLE
  5
38F
100
AcDbEntity
  8
universal board
  6
ByLayer
 62
  256
370
   -1
100
AcDbCircle
 10
42.53999999999688
 20
79.18000000000053
 40
0.5
  0
CIRCLE
  5
390
100
AcDbEntity
  8
universal board
  6
ByLayer
 62
  256
370
   -1
100
AcDbCircle
 10
42.53999999999688
 20
81.72000000000055
 40
0.5
  0
CIRCLE
  5
391
100
AcDbEntity
  8
universal board
  6
ByLayer
 62
  256
370
   -1
100
AcDbCircle
 10
42.53999999999688
 20
84.26000000000057
 40
0.5
  0
CIRCLE
  5
392
100
AcDbEntity
  8
universal board
  6
ByLayer
 62
  256
370
   -1
100
AcDbCircle
 10
42.53999999999688
 20
86.80000000000059
 40
0.5
  0
CIRCLE
  5
393
100
AcDbEntity
  8
universal board
  6
ByLayer
 62
  256
370
   -1
100
AcDbCircle
 10
45.07999999999676
 20
74.10000000000051
 40
0.5
  0
CIRCLE
  5
394
100
AcDbEntity
  8
universal board
  6
ByLayer
 62
  256
370
   -1
100
AcDbCircle
 10
45.07999999999676
 20
76.64000000000053
 40
0.5
  0
CIRCLE
  5
395
100
AcDbEntity
  8
universal board
  6
ByLayer
 62
  256
370
   -1
100
AcDbCircle
 10
45.07999999999676
 20
79.18000000000055
 40
0.5
  0
CIRCLE
  5
396
100
AcDbEntity
  8
universal board
  6
ByLayer
 62
  256
370
   -1
100
AcDbCircle
 10
45.07999999999676
 20
81.72000000000057
 40
0.5
  0
CIRCLE
  5
397
100
AcDbEntity
  8
universal board
  6
ByLayer
 62
  256
370
   -1
100
AcDbCircle
 10
45.07999999999676
 20
84.26000000000059
 40
0.5
  0
CIRCLE
  5
398
100
AcDbEntity
  8
universal board
  6
ByLayer
 62
  256
370
   -1
100
AcDbCircle
 10
45.07999999999676
 20
86.80000000000061
 40
0.5
  0
CIRCLE
  5
399
100
AcDbEntity
  8
universal board
  6
ByLayer
 62
  256
370
   -1
100
AcDbCircle
 10
47.61999999999664
 20
74.10000000000052
 40
0.5
  0
CIRCLE
  5
39A
100
AcDbEntity
  8
universal board
  6
ByLayer
 62
  256
370
   -1
100
AcDbCircle
 10
47.61999999999664
 20
76.64000000000054
 40
0.5
  0
CIRCLE
  5
39B
100
AcDbEntity
  8
universal board
  6
ByLayer
 62
  256
370
   -1
100
AcDbCircle
 10
47.61999999999664
 20
79.18000000000056
 40
0.5
  0
CIRCLE
  5
39C
100
AcDbEntity
  8
universal board
  6
ByLayer
 62
  256
370
   -1
100
AcDbCircle
 10
47.61999999999664
 20
81.72000000000058
 40
0.5
  0
CIRCLE
  5
39D
100
AcDbEntity
  8
universal board
  6
ByLayer
 62
  256
370
   -1
100
AcDbCircle
 10
47.61999999999664
 20
84.2600000000006
 40
0.5
  0
CIRCLE
  5
39E
100
AcDbEntity
  8
universal board
  6
ByLayer
 62
  256
370
   -1
100
AcDbCircle
 10
47.61999999999664
 20
86.80000000000062
 40
0.5
  0
CIRCLE
  5
39F
100
AcDbEntity
  8
universal board
  6
ByLayer
 62
  256
370
   -1
100
AcDbCircle
 10
50.15999999999651
 20
74.10000000000053
 40
0.5
  0
CIRCLE
  5
3A0
100
AcDbEntity
  8
universal board
  6
ByLayer
 62
  256
370
   -1
100
AcDbCircle
 10
50.15999999999651
 20
76.64000000000055
 40
0.5
  0
CIRCLE
  5
3A1
100
AcDbEntity
  8
universal board
  6
ByLayer
 62
  256
370
   -1
100
AcDbCircle
 10
50.15999999999651
 20
79.18000000000058
 40
0.5
  0
CIRCLE
  5
3A2
100
AcDbEntity
  8
universal board
  6
ByLayer
 62
  256
370
   -1
100
AcDbCircle
 10
50.15999999999651
 20
81.7200000000006
 40
0.5
  0
CIRCLE
  5
3A3
100
AcDbEntity
  8
universal board
  6
ByLayer
 62
  256
370
   -1
100
AcDbCircle
 10
50.15999999999651
 20
84.26000000000062
 40
0.5
  0
CIRCLE
  5
3A4
100
AcDbEntity
  8
universal board
  6
ByLayer
 62
  256
370
   -1
100
AcDbCircle
 10
50.15999999999651
 20
86.80000000000064
 40
0.5
  0
CIRCLE
  5
3A5
100
AcDbEntity
  8
universal board
  6
ByLayer
 62
  256
370
   -1
100
AcDbCircle
 10
52.69999999999639
 20
74.10000000000055
 40
0.5
  0
CIRCLE
  5
3A6
100
AcDbEntity
  8
universal board
  6
ByLayer
 62
  256
370
   -1
100
AcDbCircle
 10
52.69999999999639
 20
76.64000000000057
 40
0.5
  0
CIRCLE
  5
3A7
100
AcDbEntity
  8
universal board
  6
ByLayer
 62
  256
370
   -1
100
AcDbCircle
 10
52.69999999999639
 20
79.18000000000059
 40
0.5
  0
CIRCLE
  5
3A8
100
AcDbEntity
  8
universal board
  6
ByLayer
 62
  256
370
   -1
100
AcDbCircle
 10
52.69999999999639
 20
81.72000000000061
 40
0.5
  0
CIRCLE
  5
3A9
100
AcDbEntity
  8
universal board
  6
ByLayer
 62
  256
370
   -1
100
AcDbCircle
 10
52.69999999999639
 20
84.26000000000063
 40
0.5
  0
CIRCLE
  5
3AA
100
AcDbEntity
  8
universal board
  6
ByLayer
 62
  256
370
   -1
100
AcDbCircle
 10
52.69999999999639
 20
86.80000000000065
 40
0.5
  0
CIRCLE
  5
3AB
100
AcDbEntity
  8
terminal
  6
ByLayer
 62
  256
370
   -1
100
AcDbCircle
 10
45.03999999999768
 20
79.71999967667719
 40
0.46
  0
CIRCLE
  5
3AC
100
AcDbEntity
  8
terminal
  6
ByLayer
 62
  256
370
   -1
100
AcDbCircle
 10
47.53999999999975
 20
79.71999956890298
 40
0.46
  0
CIRCLE
  5
3AD
100
AcDbEntity
  8
terminal
  6
ByLayer
 62
  256
370
   -1
100
AcDbCircle
 10
45.03999999999768
 20
81.719999676678
 40
0.46
  0
CIRCLE
  5
3AE
100
AcDbEntity
  8
terminal
  6
ByLayer
 62
  256
370
   -1
100
AcDbCircle
 10
47.53999999999975
 20
81.71999956890379
 40
0.46
  0
CIRCLE
  5
3AF
100
AcDbEntity
  8
terminal
  6
ByLayer
 62
  256
370
   -1
100
AcDbCircle
 10
40.26999999999913
 20
84.419999676678
 40
1.15
  0
CIRCLE
  5
3B0
100
AcDbEntity
  8
terminal
  6
ByLayer
 62
  256
370
   -1
100
AcDbCircle
 10
52.30999999999828
 20
84.41999967667802
 40
1.15
  0
LINE
  5
3B1
100
AcDbEntity
  8
terminal
  6
ByLayer
 62
  256
370
   -1
100
AcDbLine
 10
40.27000152986341
 20
94.69999967667796
 11
40.27000152986341
 21
78.69999967667798
  0
LINE
  5
3B2
100
AcDbEntity
  8
terminal
  6
ByLayer
 62
  256
370
   -1
100
AcDbLine
 10
40.27000152986341
 20
78.69999967667798
 11
52.31000152986293
 21
78.69999967667798
  0
LINE
  5
3B3
100
AcDbEntity
  8
terminal
  6
ByLayer
 62
  256
370
   -1
100
AcDbLine
 10
52.31000152986293
 20
78.69999967667798
 11
52.31000152986293
 21
94.69999967667796
  0
LINE
  5
3B4
100
AcDbEntity
  8
terminal
  6
ByLayer
 62
  256
370
   -1
100
AcDbLine
 10
52.31000152986293
 20
94.69999967667796
 11
40.27000152986341
 21
94.69999967667796
  0
CIRCLE
  5
3B5
100
AcDbEntity
  8
kakou
  6
ByLayer
 62
  256
370
   -1
100
AcDbCircle
 10
45.0199999999991
 20
79.17999967667797
 40
1
  0
CIRCLE
  5
3B6
100
AcDbEntity
  8
kakou
  6
ByLayer
 62
  256
370
   -1
100
AcDbCircle
 10
47.55999999999898
 20
79.17999967667798
 40
1
  0
MTEXT
  5
3B7
100
AcDbEntity
  8
terminal
  6
ByLayer
 62
  256
370
   -1
100
AcDbMText
 10
47.04783487281999
 20
93.57629263995508
 30
0
 40
1
 41
12.69444444444454
 71
    5
 72
    1
  1
XM7B-0442, Omron
  7
iso
210
0
220
0
230
1
 50
0
 73
    2
 44
1.54
  0
CIRCLE
  5
3B8
100
AcDbEntity
  8
kakou
  6
ByLayer
 62
  256
370
   -1
100
AcDbCircle
 10
39.93999999999934
 20
84.25999967667799
 40
1.4
  0
CIRCLE
  5
3B9
100
AcDbEntity
  8
kakou
  6
ByLayer
 62
  256
370
   -1
100
AcDbCircle
 10
52.63999999999874
 20
84.25999967667802
 40
1.4
  0
MTEXT
  5
3BA
100
AcDbEntity
  8
terminal
  6
ByLayer
 62
  256
370
   -1
100
AcDbMText
 10
42.17029850957469
 20
80.90269539231144
 30
0
 40
1
 41
4.777777777777839
 71
    5
 72
    1
  1
1_V\P4_GND
  7
iso
210
0
220
0
230
1
 50
0
 73
    2
 44
1.54
  0
MTEXT
  5
3BB
100
AcDbEntity
  8
terminal
  6
ByLayer
 62
  256
370
   -1
100
AcDbMText
 10
50.36147386449581
 20
81.05108625019045
 30
0
 40
1
 41
3.66666666666679
 71
    5
 72
    1
  1
2_D-\P3_D+
  7
iso
210
0
220
0
230
1
 50
0
 73
    2
 44
1.54
  0
LINE
  5
3BC
100
AcDbEntity
  8
pin socket
  6
ByLayer
 62
  256
370
   -1
100
AcDbLine
 10
43.74999999999866
 20
72.82999967667813
 11
43.74999999999866
 21
70.28999967667765
  0
LINE
  5
3BD
100
AcDbEntity
  8
pin socket
  6
ByLayer
 62
  256
370
   -1
100
AcDbLine
 10
43.74999999999866
 20
70.28999967667765
 11
46.28999999999952
 21
70.28999967667765
  0
LINE
  5
3BE
100
AcDbEntity
  8
pin socket
  6
ByLayer
 62
  256
370
   -1
100
AcDbLine
 10
46.28999999999952
 20
70.28999967667765
 11
46.28999999999952
 21
72.82999967667813
  0
LINE
  5
3BF
100
AcDbEntity
  8
pin socket
  6
ByLayer
 62
  256
370
   -1
100
AcDbLine
 10
41.20999999999879
 20
72.82999967667813
 11
41.20999999999879
 21
70.28999967667765
  0
LINE
  5
3C0
100
AcDbEntity
  8
pin socket
  6
ByLayer
 62
  256
370
   -1
100
AcDbLine
 10
41.20999999999879
 20
70.28999967667765
 11
43.74999999999964
 21
70.28999967667765
  0
LINE
  5
3C1
100
AcDbEntity
  8
pin socket
  6
ByLayer
 62
  256
370
   -1
100
AcDbLine
 10
43.74999999999964
 20
70.28999967667765
 11
43.74999999999964
 21
72.82999967667813
  0
LINE
  5
3C2
100
AcDbEntity
  8
pin socket
  6
ByLayer
 62
  256
370
   -1
100
AcDbLine
 10
48.82999999999842
 20
72.82999967667816
 11
48.82999999999842
 21
70.28999967667768
  0
LINE
  5
3C3
100
AcDbEntity
  8
pin socket
  6
ByLayer
 62
  256
370
   -1
100
AcDbLine
 10
48.82999999999842
 20
70.28999967667768
 11
51.36999999999928
 21
70.28999967667768
  0
LINE
  5
3C4
100
AcDbEntity
  8
pin socket
  6
ByLayer
 62
  256
370
   -1
100
AcDbLine
 10
51.36999999999928
 20
70.28999967667768
 11
51.36999999999928
 21
72.82999967667816
  0
LINE
  5
3C5
100
AcDbEntity
  8
pin socket
  6
ByLayer
 62
  256
370
   -1
100
AcDbLine
 10
46.28999999999854
 20
72.82999967667816
 11
46.28999999999854
 21
70.28999967667768
  0
LINE
  5
3C6
100
AcDbEntity
  8
pin socket
  6
ByLayer
 62
  256
370
   -1
100
AcDbLine
 10
46.28999999999854
 20
70.28999967667768
 11
48.8299999999994
 21
70.28999967667768
  0
LINE
  5
3C7
100
AcDbEntity
  8
pin socket
  6
ByLayer
 62
  256
370
   -1
100
AcDbLine
 10
48.8299999999994
 20
70.28999967667768
 11
48.8299999999994
 21
72.82999967667816
  0
CIRCLE
  5
3C8
100
AcDbEntity
  8
universal board
  6
ByLayer
 62
  256
370
   -1
100
AcDbCircle
 10
37.45999999999712
 20
74.10000000000046
 40
0.5
  0
CIRCLE
  5
3C9
100
AcDbEntity
  8
universal board
  6
ByLayer
 62
  256
370
   -1
100
AcDbCircle
 10
37.45999999999712
 20
76.64000000000048
 40
0.5
  0
CIRCLE
  5
3CA
100
AcDbEntity
  8
universal board
  6
ByLayer
 62
  256
370
   -1
100
AcDbCircle
 10
37.45999999999712
 20
79.1800000000005
 40
0.5
  0
CIRCLE
  5
3CB
100
AcDbEntity
  8
universal board
  6
ByLayer
 62
  256
370
   -1
100
AcDbCircle
 10
37.45999999999712
 20
81.72000000000052
 40
0.5
  0
CIRCLE
  5
3CC
100
AcDbEntity
  8
universal board
  6
ByLayer
 62
  256
370
   -1
100
AcDbCircle
 10
37.45999999999712
 20
84.26000000000055
 40
0.5
  0
CIRCLE
  5
3CD
100
AcDbEntity
  8
universal board
  6
ByLayer
 62
  256
370
   -1
100
AcDbCircle
 10
37.45999999999712
 20
86.80000000000057
 40
0.5
  0
CIRCLE
  5
3CE
100
AcDbEntity
  8
universal board
  6
ByLayer
 62
  256
370
   -1
100
AcDbCircle
 10
55.23999999999627
 20
74.10000000000056
 40
0.5
  0
CIRCLE
  5
3CF
100
AcDbEntity
  8
universal board
  6
ByLayer
 62
  256
370
   -1
100
AcDbCircle
 10
55.23999999999627
 20
76.64000000000058
 40
0.5
  0
CIRCLE
  5
3D0
100
AcDbEntity
  8
universal board
  6
ByLayer
 62
  256
370
   -1
100
AcDbCircle
 10
55.23999999999627
 20
79.1800000000006
 40
0.5
  0
CIRCLE
  5
3D1
100
AcDbEntity
  8
universal board
  6
ByLayer
 62
  256
370
   -1
100
AcDbCircle
 10
55.23999999999627
 20
81.72000000000062
 40
0.5
  0
CIRCLE
  5
3D2
100
AcDbEntity
  8
universal board
  6
ByLayer
 62
  256
370
   -1
100
AcDbCircle
 10
55.23999999999627
 20
84.26000000000064
 40
0.5
  0
CIRCLE
  5
3D3
100
AcDbEntity
  8
universal board
  6
ByLayer
 62
  256
370
   -1
100
AcDbCircle
 10
55.23999999999627
 20
86.80000000000067
 40
0.5
  0
LINE
  5
3D4
100
AcDbEntity
  8
5V line
  6
ByLayer
 62
  256
370
   -1
100
AcDbLine
 10
45.07999999999676
 20
81.72000000000057
 11
42.53999999999688
 21
81.72000000000055
  0
LINE
  5
3D5
100
AcDbEntity
  8
5V line
  6
ByLayer
 62
  256
370
   -1
100
AcDbLine
 10
42.53999999999688
 20
81.72000000000055
 11
42.53999999999688
 21
76.64000000000051
  0
LINE
  5
3D6
100
AcDbEntity
  8
3.3V line
  6
ByLayer
 62
  256
370
   -1
100
AcDbLine
 10
47.61999999999664
 20
81.72000000000058
 11
47.61999999999664
 21
86.80000000000062
  0
LINE
  5
3D7
100
AcDbEntity
  8
3.3V line
  6
ByLayer
 62
  256
370
   -1
100
AcDbLine
 10
47.61999999999664
 20
86.80000000000062
 11
37.45999999999712
 21
86.80000000000057
  0
LINE
  5
3D8
100
AcDbEntity
  8
0_GND
  6
ByLayer
 62
  256
370
   -1
100
AcDbLine
 10
45.07999999999676
 20
79.18000000000055
 11
45.07999999999676
 21
76.64000000000053
  0
LINE
  5
3D9
100
AcDbEntity
  8
0_wire
  6
ByLayer
 62
  256
370
   -1
100
AcDbLine
 10
47.61999999999664
 20
79.18000000000056
 11
47.61999999999664
 21
76.64000000000054
  0
MTEXT
  5
3DA
100
AcDbEntity
  8
resister
  6
ByLayer
 62
  256
370
   -1
100
AcDbMText
 10
22.82749997178448
 20
76.6867342463015
 30
0
 40
1
 41
1.222222222222284
 71
    5
 72
    1
  1
RJ
  7
iso
210
0
220
0
230
1
 50
0
 73
    2
 44
1.54
  0
LINE
  5
3DB
100
AcDbEntity
  8
draft
  6
ByLayer
 62
  256
370
   -1
100
AcDbLine
 10
39.999999999997
 20
74.10000000000048
 11
39.999999999997
 21
84.10000000000048
  0
LINE
  5
3DC
100
AcDbEntity
  8
draft
  6
ByLayer
 62
  256
370
   -1
100
AcDbLine
 10
47.61999999999664
 20
74.10000000000052
 11
47.61999999999664
 21
84.10000000000052
  0
LINE
  5
3DD
100
AcDbEntity
  8
resister
  6
ByLayer
 62
  256
370
   -1
100
AcDbLine
 10
44.00999999999868
 20
75.19999967668004
 11
38.40999999999866
 21
75.19999967668004
  0
LINE
  5
3DE
100
AcDbEntity
  8
resister
  6
ByLayer
 62
  256
370
   -1
100
AcDbLine
 10
38.40999999999866
 20
75.19999967668004
 11
38.40999999999866
 21
72.99999967668037
  0
LINE
  5
3DF
100
AcDbEntity
  8
resister
  6
ByLayer
 62
  256
370
   -1
100
AcDbLine
 10
38.40999999999866
 20
72.99999967668037
 11
44.00999999999868
 21
72.99999967668037
  0
LINE
  5
3E0
100
AcDbEntity
  8
resister
  6
ByLayer
 62
  256
370
   -1
100
AcDbLine
 10
44.00999999999868
 20
72.99999967668037
 11
44.00999999999868
 21
75.19999967668004
  0
CIRCLE
  5
3E1
100
AcDbEntity
  8
resister
  6
ByLayer
 62
  256
370
   -1
100
AcDbCircle
 10
37.45999999999712
 20
74.10000000000046
 40
0.2
  0
CIRCLE
  5
3E2
100
AcDbEntity
  8
resister
  6
ByLayer
 62
  256
370
   -1
100
AcDbCircle
 10
45.07999999999676
 20
74.10000000000051
 40
0.2
  0
LINE
  5
3E3
100
AcDbEntity
  8
resister
  6
ByLayer
 62
  256
370
   -1
100
AcDbLine
 10
38.40999999999866
 20
74.09999967668018
 11
37.45999999999712
 21
74.09999967668018
  0
LINE
  5
3E4
100
AcDbEntity
  8
resister
  6
ByLayer
 62
  256
370
   -1
100
AcDbLine
 10
45.07999999999676
 20
74.09999967668018
 11
44.00999999999868
 21
74.09999967668018
  0
MTEXT
  5
3E5
100
AcDbEntity
  8
resister
  6
ByLayer
 62
  256
370
   -1
100
AcDbMText
 10
40.6074999717837
 20
74.14673424630151
 30
0
 40
1
 41
1.222222222222284
 71
    5
 72
    1
  1
RJ
  7
iso
210
0
220
0
230
1
 50
0
 73
    2
 44
1.54
  0
LINE
  5
3E6
100
AcDbEntity
  8
resister
  6
ByLayer
 62
  256
370
   -1
100
AcDbLine
 10
51.62999999999832
 20
77.7399996766801
 11
46.0299999999983
 21
77.7399996766801
  0
LINE
  5
3E7
100
AcDbEntity
  8
resister
  6
ByLayer
 62
  256
370
   -1
100
AcDbLine
 10
46.0299999999983
 20
77.7399996766801
 11
46.0299999999983
 21
75.53999967668044
  0
LINE
  5
3E8
100
AcDbEntity
  8
resister
  6
ByLayer
 62
  256
370
   -1
100
AcDbLine
 10
46.0299999999983
 20
75.53999967668044
 11
51.62999999999832
 21
75.53999967668044
  0
LINE
  5
3E9
100
AcDbEntity
  8
resister
  6
ByLayer
 62
  256
370
   -1
100
AcDbLine
 10
51.62999999999832
 20
75.53999967668044
 11
51.62999999999832
 21
77.7399996766801
  0
CIRCLE
  5
3EA
100
AcDbEntity
  8
resister
  6
ByLayer
 62
  256
370
   -1
100
AcDbCircle
 10
45.07999999999676
 20
76.64000000000053
 40
0.2
  0
CIRCLE
  5
3EB
100
AcDbEntity
  8
resister
  6
ByLayer
 62
  256
370
   -1
100
AcDbCircle
 10
52.69999999999639
 20
76.64000000000057
 40
0.2
  0
LINE
  5
3EC
100
AcDbEntity
  8
resister
  6
ByLayer
 62
  256
370
   -1
100
AcDbLine
 10
46.0299999999983
 20
76.63999967668025
 11
45.07999999999676
 21
76.63999967668025
  0
LINE
  5
3ED
100
AcDbEntity
  8
resister
  6
ByLayer
 62
  256
370
   -1
100
AcDbLine
 10
52.69999999999639
 20
76.63999967668025
 11
51.62999999999832
 21
76.63999967668025
  0
MTEXT
  5
3EE
100
AcDbEntity
  8
resister
  6
ByLayer
 62
  256
370
   -1
100
AcDbMText
 10
48.22749997178333
 20
76.68673424630157
 30
0
 40
1
 41
1.222222222222284
 71
    5
 72
    1
  1
RJ
  7
iso
210
0
220
0
230
1
 50
0
 73
    2
 44
1.54
  0
LINE
  5
3EF
100
AcDbEntity
  8
3.3V line
  6
ByLayer
 62
  256
370
   -1
100
AcDbLine
 10
37.45999999999712
 20
86.80000000000057
 11
37.45999999999712
 21
74.09999967668018
  0
LINE
  5
3F0
100
AcDbEntity
  8
universal board
  6
ByLayer
 62
  256
370
   -1
100
AcDbLine
 10
36.18999999999721
 20
70.29000000000013
 11
36.18999999999722
 21
88.07000000000021
  0
LINE
  5
3F1
100
AcDbEntity
  8
universal board
  6
ByLayer
 62
  256
370
   -1
100
AcDbLine
 10
56.50999999999624
 20
70.29000000000018
 11
56.50999999999624
 21
88.07000000000032
  0
LINE
  5
3F2
100
AcDbEntity
  8
universal board
  6
ByLayer
 62
  256
370
   -1
100
AcDbLine
 10
36.18999999999722
 20
88.07000000000031
 11
56.50999999999624
 21
88.07000000000032
  0
LINE
  5
3F3
100
AcDbEntity
  8
universal board
  6
ByLayer
 62
  256
370
   -1
100
AcDbLine
 10
36.18999999999721
 20
70.29000000000015
 11
56.50999999999624
 21
70.29000000000018
  0
LINE
  5
3F4
100
AcDbEntity
  8
draft
  6
ByLayer
 62
  256
370
   -1
100
AcDbLine
 10
37.45999999999712
 20
79.1800000000005
 11
37.45999999999712
 21
89.1800000000005
  0
LINE
  5
3F5
100
AcDbEntity
  8
draft
  6
ByLayer
 62
  256
370
   -1
100
AcDbLine
 10
37.39999999999947
 20
71.55999967667785
 11
47.39999999999947
 21
71.55999967667785
  0
LINE
  5
3F6
100
AcDbEntity
  8
pin socket
  6
ByLayer
 62
  256
370
   -1
100
AcDbLine
 10
46.34999999999718
 20
72.82999967667813
 11
43.80999999999632
 21
72.82999967667813
  0
LINE
  5
3F7
100
AcDbEntity
  8
pin socket
  6
ByLayer
 62
  256
370
   -1
100
AcDbLine
 10
43.8099999999973
 20
72.82999967667813
 11
41.26999999999644
 21
72.82999967667813
  0
LINE
  5
3F8
100
AcDbEntity
  8
pin socket
  6
ByLayer
 62
  256
370
   -1
100
AcDbLine
 10
51.42999999999694
 20
72.82999967667816
 11
48.88999999999608
 21
72.82999967667816
  0
LINE
  5
3F9
100
AcDbEntity
  8
pin socket
  6
ByLayer
 62
  256
370
   -1
100
AcDbLine
 10
48.88999999999706
 20
72.82999967667816
 11
46.3499999999962
 21
72.82999967667816
  0
CIRCLE
  5
3FA
100
AcDbEntity
  8
pin socket
  6
ByLayer
 62
  256
370
   -1
100
AcDbCircle
 10
42.53999999999688
 20
71.55999967667788
 40
0.4
  0
CIRCLE
  5
3FB
100
AcDbEntity
  8
pin socket
  6
ByLayer
 62
  256
370
   -1
100
AcDbCircle
 10
45.07999999999676
 20
71.55999967667789
 40
0.4
  0
CIRCLE
  5
3FC
100
AcDbEntity
  8
pin socket
  6
ByLayer
 62
  256
370
   -1
100
AcDbCircle
 10
47.61999999999664
 20
71.5599996766779
 40
0.4
  0
CIRCLE
  5
3FD
100
AcDbEntity
  8
pin socket
  6
ByLayer
 62
  256
370
   -1
100
AcDbCircle
 10
50.15999999999651
 20
71.55999967667792
 40
0.4
  0
CIRCLE
  5
3FE
100
AcDbEntity
  8
universal board
  6
ByLayer
 62
  256
370
   -1
100
AcDbCircle
 10
39.999999999997
 20
71.55999967667786
 40
0.5
  0
CIRCLE
  5
3FF
100
AcDbEntity
  8
universal board
  6
ByLayer
 62
  256
370
   -1
100
AcDbCircle
 10
42.53999999999688
 20
71.55999967667788
 40
0.5
  0
CIRCLE
  5
400
100
AcDbEntity
  8
universal board
  6
ByLayer
 62
  256
370
   -1
100
AcDbCircle
 10
45.07999999999676
 20
71.55999967667789
 40
0.5
  0
CIRCLE
  5
401
100
AcDbEntity
  8
universal board
  6
ByLayer
 62
  256
370
   -1
100
AcDbCircle
 10
47.61999999999664
 20
71.5599996766779
 40
0.5
  0
CIRCLE
  5
402
100
AcDbEntity
  8
universal board
  6
ByLayer
 62
  256
370
   -1
100
AcDbCircle
 10
50.15999999999651
 20
71.55999967667792
 40
0.5
  0
CIRCLE
  5
403
100
AcDbEntity
  8
universal board
  6
ByLayer
 62
  256
370
   -1
100
AcDbCircle
 10
52.69999999999639
 20
71.55999967667793
 40
0.5
  0
CIRCLE
  5
404
100
AcDbEntity
  8
universal board
  6
ByLayer
 62
  256
370
   -1
100
AcDbCircle
 10
37.45999999999712
 20
71.55999967667785
 40
0.5
  0
CIRCLE
  5
405
100
AcDbEntity
  8
universal board
  6
ByLayer
 62
  256
370
   -1
100
AcDbCircle
 10
55.23999999999627
 20
71.55999967667795
 40
0.5
  0
LINE
  5
406
100
AcDbEntity
  8
0_GND
  6
ByLayer
 62
  256
370
   -1
100
AcDbLine
 10
52.69999999999639
 20
71.55999967667793
 11
50.15999999999651
 21
71.55999967667792
  0
LINE
  5
407
100
AcDbEntity
  8
0_GND
  6
ByLayer
 62
  256
370
   -1
100
AcDbLine
 10
52.69999999999639
 20
76.64000000000057
 11
52.69999999999639
 21
71.55999967667793
  0
LINE
  5
408
100
AcDbEntity
  8
0_wire
  6
ByLayer
 62
  256
370
   -1
100
AcDbLine
 10
47.61999999999664
 20
76.64000000000054
 11
47.61999999999664
 21
71.5599996766779
  0
LINE
  5
409
100
AcDbEntity
  8
3.3V line
  6
ByLayer
 62
  256
370
   -1
100
AcDbLine
 10
45.07999999999676
 20
74.10000000000051
 11
45.07999999999676
 21
71.55999967667789
  0
LINE
  5
40A
100
AcDbEntity
  8
5V line
  6
ByLayer
 62
  256
370
   -1
100
AcDbLine
 10
42.53999999999688
 20
76.64000000000051
 11
42.53999999999688
 21
71.55999967667788
  0
LINE
  5
40B
100
AcDbEntity
  8
draft
  6
ByLayer
 62
  256
370
   -1
100
AcDbLine
 10
29.83999999999742
 20
74.10000000000049
 11
29.83999999999742
 21
84.10000000000049
  0
LINE
  5
40C
100
AcDbEntity
  8
pin socket
  6
ByLayer
 62
  256
370
   -1
100
AcDbLine
 10
20.94999999999736
 20
72.82999967667804
 11
20.94999999999736
 21
70.28999967667757
  0
LINE
  5
40D
100
AcDbEntity
  8
pin socket
  6
ByLayer
 62
  256
370
   -1
100
AcDbLine
 10
20.94999999999736
 20
70.28999967667757
 11
23.48999999999822
 21
70.28999967667757
  0
LINE
  5
40E
100
AcDbEntity
  8
pin socket
  6
ByLayer
 62
  256
370
   -1
100
AcDbLine
 10
23.48999999999822
 20
70.28999967667757
 11
23.48999999999822
 21
72.82999967667804
  0
LINE
  5
40F
100
AcDbEntity
  8
pin socket
  6
ByLayer
 62
  256
370
   -1
100
AcDbLine
 10
23.48999999999822
 20
72.82999967667804
 11
20.94999999999736
 21
72.82999967667804
  0
LINE
  5
410
100
AcDbEntity
  8
pin socket
  6
ByLayer
 62
  256
370
   -1
100
AcDbLine
 10
18.40999999999748
 20
72.82999967667804
 11
18.40999999999748
 21
70.28999967667757
  0
LINE
  5
411
100
AcDbEntity
  8
pin socket
  6
ByLayer
 62
  256
370
   -1
100
AcDbLine
 10
18.40999999999748
 20
70.28999967667757
 11
20.94999999999834
 21
70.28999967667757
  0
LINE
  5
412
100
AcDbEntity
  8
pin socket
  6
ByLayer
 62
  256
370
   -1
100
AcDbLine
 10
20.94999999999834
 20
70.28999967667757
 11
20.94999999999834
 21
72.82999967667804
  0
LINE
  5
413
100
AcDbEntity
  8
pin socket
  6
ByLayer
 62
  256
370
   -1
100
AcDbLine
 10
20.94999999999834
 20
72.82999967667804
 11
18.40999999999748
 21
72.82999967667804
  0
LINE
  5
414
100
AcDbEntity
  8
pin socket
  6
ByLayer
 62
  256
370
   -1
100
AcDbLine
 10
26.02999999999711
 20
72.82999967667807
 11
26.02999999999711
 21
70.2899996766776
  0
LINE
  5
415
100
AcDbEntity
  8
pin socket
  6
ByLayer
 62
  256
370
   -1
100
AcDbLine
 10
26.02999999999711
 20
70.2899996766776
 11
28.56999999999797
 21
70.2899996766776
  0
LINE
  5
416
100
AcDbEntity
  8
pin socket
  6
ByLayer
 62
  256
370
   -1
100
AcDbLine
 10
28.56999999999797
 20
70.2899996766776
 11
28.56999999999797
 21
72.82999967667807
  0
LINE
  5
417
100
AcDbEntity
  8
pin socket
  6
ByLayer
 62
  256
370
   -1
100
AcDbLine
 10
28.56999999999797
 20
72.82999967667807
 11
26.02999999999711
 21
72.82999967667807
  0
LINE
  5
418
100
AcDbEntity
  8
pin socket
  6
ByLayer
 62
  256
370
   -1
100
AcDbLine
 10
23.48999999999723
 20
72.82999967667807
 11
23.48999999999723
 21
70.2899996766776
  0
LINE
  5
419
100
AcDbEntity
  8
pin socket
  6
ByLayer
 62
  256
370
   -1
100
AcDbLine
 10
23.48999999999723
 20
70.2899996766776
 11
26.02999999999809
 21
70.2899996766776
  0
LINE
  5
41A
100
AcDbEntity
  8
pin socket
  6
ByLayer
 62
  256
370
   -1
100
AcDbLine
 10
26.02999999999809
 20
70.2899996766776
 11
26.02999999999809
 21
72.82999967667807
  0
LINE
  5
41B
100
AcDbEntity
  8
pin socket
  6
ByLayer
 62
  256
370
   -1
100
AcDbLine
 10
26.02999999999809
 20
72.82999967667807
 11
23.48999999999723
 21
72.82999967667807
  0
CIRCLE
  5
41C
100
AcDbEntity
  8
pin socket
  6
ByLayer
 62
  256
370
   -1
100
AcDbCircle
 10
19.67999999999791
 20
71.55999967667779
 40
0.4
  0
CIRCLE
  5
41D
100
AcDbEntity
  8
pin socket
  6
ByLayer
 62
  256
370
   -1
100
AcDbCircle
 10
22.21999999999779
 20
71.5599996766778
 40
0.4
  0
CIRCLE
  5
41E
100
AcDbEntity
  8
pin socket
  6
ByLayer
 62
  256
370
   -1
100
AcDbCircle
 10
24.75999999999767
 20
71.55999967667782
 40
0.4
  0
CIRCLE
  5
41F
100
AcDbEntity
  8
pin socket
  6
ByLayer
 62
  256
370
   -1
100
AcDbCircle
 10
27.29999999999755
 20
71.55999967667783
 40
0.4
  0
LINE
  5
420
100
AcDbEntity
  8
5V line
  6
ByLayer
 62
  256
370
   -1
100
AcDbLine
 10
29.83999999999742
 20
71.55999967667785
 11
27.29999999999755
 21
71.55999967667783
  0
CIRCLE
  5
421
100
AcDbEntity
  8
universal board
  6
ByLayer
 62
  256
370
   -1
100
AcDbCircle
 10
17.13999999999803
 20
71.55999967667778
 40
0.5
  0
CIRCLE
  5
422
100
AcDbEntity
  8
universal board
  6
ByLayer
 62
  256
370
   -1
100
AcDbCircle
 10
19.67999999999791
 20
71.55999967667779
 40
0.5
  0
CIRCLE
  5
423
100
AcDbEntity
  8
universal board
  6
ByLayer
 62
  256
370
   -1
100
AcDbCircle
 10
22.21999999999779
 20
71.5599996766778
 40
0.5
  0
CIRCLE
  5
424
100
AcDbEntity
  8
universal board
  6
ByLayer
 62
  256
370
   -1
100
AcDbCircle
 10
24.75999999999767
 20
71.55999967667782
 40
0.5
  0
CIRCLE
  5
425
100
AcDbEntity
  8
universal board
  6
ByLayer
 62
  256
370
   -1
100
AcDbCircle
 10
27.29999999999755
 20
71.55999967667783
 40
0.5
  0
CIRCLE
  5
426
100
AcDbEntity
  8
universal board
  6
ByLayer
 62
  256
370
   -1
100
AcDbCircle
 10
29.83999999999742
 20
71.55999967667785
 40
0.5
  0
CIRCLE
  5
427
100
AcDbEntity
  8
pin socket
  6
ByLayer
 62
  256
370
   -1
100
AcDbCircle
 10
1.899999999998769
 20
76.64000000000036
 40
0.3
  0
CIRCLE
  5
428
100
AcDbEntity
  8
pin socket
  6
ByLayer
 62
  256
370
   -1
100
AcDbCircle
 10
4.439999999998641
 20
76.64000000000037
 40
0.3
  0
CIRCLE
  5
429
100
AcDbEntity
  8
pin socket
  6
ByLayer
 62
  256
370
   -1
100
AcDbCircle
 10
6.979999999998519
 20
76.64000000000038
 40
0.3
  0
CIRCLE
  5
42A
100
AcDbEntity
  8
pin socket
  6
ByLayer
 62
  256
370
   -1
100
AcDbCircle
 10
9.519999999998397
 20
76.6400000000004
 40
0.3
  0
MTEXT
  5
42B
100
AcDbEntity
  8
pin socket
  6
ByLayer
 62
  256
370
   -1
100
AcDbMText
 10
11.5193146934123
 20
77.08057229899831
 30
0
 40
1
 41
0.5555555555555556
 71
    5
 72
    1
  1
P
  7
iso
210
0
220
0
230
1
 50
0
 73
    2
 44
1.54
  0
MTEXT
  5
42C
100
AcDbEntity
  8
pin socket
  6
ByLayer
 62
  256
370
   -1
100
AcDbMText
 10
17.92660706512208
 20
72.28469477526345
 30
0
 40
1
 41
0.5555555555555556
 71
    5
 72
    1
  1
P
  7
iso
210
0
220
0
230
1
 50
0
 73
    2
 44
1.54
  0
MTEXT
  5
42D
100
AcDbEntity
  8
pin socket
  6
ByLayer
 62
  256
370
   -1
100
AcDbMText
 10
40.17947877525185
 20
72.05449265412418
 30
0
 40
1
 41
0.5555555555555556
 71
    5
 72
    1
  1
P
  7
iso
210
0
220
0
230
1
 50
0
 73
    2
 44
1.54
  0
MTEXT
  5
42E
100
AcDbEntity
  8
0
  6
ByLayer
 62
  256
370
   -1
100
AcDbMText
 10
-2.932097720240272
 20
98.18963270977747
 30
0
 40
1
 41
17.3055553435535
 71
    4
 72
    1
  1
P : Pin Socket or Header\PRJ: Jumper
  7
iso
210
0
220
0
230
1
 50
0
 73
    2
 44
1.54
  0
ENDSEC
  0
SECTION
  2
OBJECTS
  0
DICTIONARY
  5
C
330
0
100
AcDbDictionary
281
    1
  3
ACAD_GROUP
350
D
  0
DICTIONARY
  5
D
330
C
100
AcDbDictionary
281
    1
  0
PLOTSETTINGS
  5
42F
100
AcDbPlotSettings
  6
1x1
 40
0
 41
0
 42
0
 43
0
  0
ENDSEC
  0
EOF
