999
dxfrw 0.6.3
  0
SECTION
  2
HEADER
  9
$ACADVER
  1
AC1021
  9
$DWGCODEPAGE
  3
ANSI_1252
  9
$INSBASE
 10
0
 20
0
 30
0
  9
$EXTMIN
 10
-22.82539495378444
 20
96.53371106623493
 30
0
  9
$EXTMAX
 10
48.88999999999643
 20
137.8800000000008
 30
0
  9
$LIMMIN
 10
0
 20
0
  9
$LIMMAX
 10
420
 20
297
  9
$ORTHOMODE
 70
    0
  9
$REGENMODE
 70
    1
  9
$FILLMODE
 70
    1
  9
$QTEXTMODE
 70
    0
  9
$MIRRTEXT
 70
    0
  9
$LTSCALE
 40
1
  9
$ATTMODE
 70
    0
  9
$TEXTSIZE
 40
2.5
  9
$TRACEWID
 40
15.68
  9
$TEXTSTYLE
  7
STANDARD
  9
$CLAYER
  8
resister
  9
$CELTYPE
  6
BYLAYER
  9
$CECOLOR
 62
  256
  9
$CELTSCALE
 40
1
  9
$DISPSILH
 70
    0
  9
$DIMSCALE
 40
1
  9
$DIMASZ
 40
2.5
  9
$DIMEXO
 40
0.625
  9
$DIMDLI
 40
3.75
  9
$DIMRND
 40
0
  9
$DIMDLE
 40
0
  9
$DIMEXE
 40
1.25
  9
$DIMTP
 40
0
  9
$DIMTM
 40
0
  9
$DIMTXT
 40
2.5
  9
$DIMCEN
 40
2.5
  9
$DIMTSZ
 40
0
  9
$DIMTOL
 70
    0
  9
$DIMLIM
 70
    0
  9
$DIMTIH
 70
    0
  9
$DIMTOH
 70
    0
  9
$DIMSE1
 70
    0
  9
$DIMSE2
 70
    0
  9
$DIMTAD
 70
    1
  9
$DIMZIN
 70
    8
  9
$DIMBLK
  1

  9
$DIMASO
 70
    1
  9
$DIMSHO
 70
    1
  9
$DIMPOST
  1

  9
$DIMAPOST
  1

  9
$DIMALT
 70
    0
  9
$DIMALTD
 70
    3
  9
$DIMALTF
 40
0.03937
  9
$DIMLFAC
 40
1
  9
$DIMTOFL
 70
    1
  9
$DIMTVP
 40
0
  9
$DIMTIX
 70
    0
  9
$DIMSOXD
 70
    0
  9
$DIMSAH
 70
    0
  9
$DIMBLK1
  1

  9
$DIMBLK2
  1

  9
$DIMSTYLE
  2
STANDARD
  9
$DIMCLRD
 70
    0
  9
$DIMCLRE
 70
    0
  9
$DIMCLRT
 70
    0
  9
$DIMTFAC
 40
1
  9
$DIMGAP
 40
0.625
  9
$DIMJUST
 70
    0
  9
$DIMSD1
 70
    0
  9
$DIMSD2
 70
    0
  9
$DIMTOLJ
 70
    0
  9
$DIMTZIN
 70
    8
  9
$DIMALTZ
 70
    0
  9
$DIMALTTZ
 70
    0
  9
$DIMUPT
 70
    0
  9
$DIMDEC
 70
    2
  9
$DIMTDEC
 70
    2
  9
$DIMALTU
 70
    2
  9
$DIMALTTD
 70
    3
  9
$DIMTXSTY
  7
standard
  9
$DIMAUNIT
 70
    0
  9
$DIMADEC
 70
    0
  9
$DIMALTRND
 40
0
  9
$DIMAZIN
 70
    0
  9
$DIMDSEP
 70
   44
  9
$DIMATFIT
 70
    3
  9
$DIMFRAC
 70
    0
  9
$DIMLDRBLK
  1
STANDARD
  9
$DIMLUNIT
 70
    2
  9
$DIMLWD
 70
   -2
  9
$DIMLWE
 70
   -2
  9
$DIMTMOVE
 70
    0
  9
$DIMFXL
 40
1
  9
$DIMFXLON
 70
    0
  9
$DIMJOGANG
 40
0.7854
  9
$DIMTFILL
 70
    0
  9
$DIMTFILLCLR
 70
    0
  9
$DIMARCSYM
 70
    0
  9
$DIMLTYPE
  6

  9
$DIMLTEX1
  6

  9
$DIMLTEX2
  6

  9
$LUNITS
 70
    2
  9
$LUPREC
 70
    4
  9
$SKETCHINC
 40
1
  9
$FILLETRAD
 40
0
  9
$AUNITS
 70
    0
  9
$AUPREC
 70
    2
  9
$MENU
  1
.
  9
$ELEVATION
 40
0
  9
$PELEVATION
 40
0
  9
$THICKNESS
 40
0
  9
$LIMCHECK
 70
    0
  9
$CHAMFERA
 40
0
  9
$CHAMFERB
 40
0
  9
$CHAMFERC
 40
0
  9
$CHAMFERD
 40
0
  9
$SKPOLY
 70
    0
  9
$USRTIMER
 70
    1
  9
$ANGBASE
 50
0
  9
$ANGDIR
 70
    0
  9
$PDMODE
 70
   34
  9
$PDSIZE
 40
0
  9
$PLINEWID
 40
0
  9
$SPLFRAME
 70
    0
  9
$SPLINETYPE
 70
    2
  9
$SPLINESEGS
 70
    8
  9
$HANDSEED
  5
20000
  9
$SURFTAB1
 70
    6
  9
$SURFTAB2
 70
    6
  9
$SURFTYPE
 70
    6
  9
$SURFU
 70
    6
  9
$SURFV
 70
    6
  9
$UCSBASE
  2

  9
$UCSNAME
  2

  9
$UCSORG
 10
0
 20
0
 30
0
  9
$UCSXDIR
 10
1
 20
0
 30
0
  9
$UCSYDIR
 10
0
 20
1
 30
0
  9
$UCSORTHOREF
  2

  9
$UCSORTHOVIEW
 70
    0
  9
$UCSORGTOP
 10
0
 20
0
 30
0
  9
$UCSORGBOTTOM
 10
0
 20
0
 30
0
  9
$UCSORGLEFT
 10
0
 20
0
 30
0
  9
$UCSORGRIGHT
 10
0
 20
0
 30
0
  9
$UCSORGFRONT
 10
0
 20
0
 30
0
  9
$UCSORGBACK
 10
0
 20
0
 30
0
  9
$PUCSBASE
  2

  9
$PUCSNAME
  2

  9
$PUCSORG
 10
0
 20
0
 30
0
  9
$PUCSXDIR
 10
1
 20
0
 30
0
  9
$PUCSYDIR
 10
0
 20
1
 30
0
  9
$PUCSORTHOREF
  2

  9
$PUCSORTHOVIEW
 70
    0
  9
$PUCSORGTOP
 10
0
 20
0
 30
0
  9
$PUCSORGBOTTOM
 10
0
 20
0
 30
0
  9
$PUCSORGLEFT
 10
0
 20
0
 30
0
  9
$PUCSORGRIGHT
 10
0
 20
0
 30
0
  9
$PUCSORGFRONT
 10
0
 20
0
 30
0
  9
$PUCSORGBACK
 10
0
 20
0
 30
0
  9
$USERI1
 70
    0
  9
$USERI2
 70
    0
  9
$USERI3
 70
    0
  9
$USERI4
 70
    0
  9
$USERI5
 70
    0
  9
$USERR1
 40
0
  9
$USERR2
 40
0
  9
$USERR3
 40
0
  9
$USERR4
 40
0
  9
$USERR5
 40
0
  9
$WORLDVIEW
 70
    1
  9
$SHADEDGE
 70
    3
  9
$SHADEDIF
 70
   70
  9
$TILEMODE
 70
    1
  9
$MAXACTVP
 70
   64
  9
$PINSBASE
 10
96.3456358423188
 20
-364.0536468450613
 30
0
  9
$PLIMCHECK
 70
    0
  9
$PEXTMIN
 10
0
 20
0
 30
0
  9
$PEXTMAX
 10
0
 20
0
 30
0
  9
$GRIDMODE
 70
    0
  9
$SNAPSTYLE
 70
    0
  9
$GRIDUNIT
 10
0
 20
0
  9
$PLIMMIN
 10
0
 20
0
  9
$PLIMMAX
 10
297
 20
210
  9
$UNITMODE
 70
    0
  9
$VISRETAIN
 70
    1
  9
$PLINEGEN
 70
    0
  9
$PSLTSCALE
 70
    1
  9
$TREEDEPTH
 70
 3020
  9
$CMLSTYLE
  2
Standard
  9
$CMLJUST
 70
    0
  9
$CMLSCALE
 40
20
  9
$PROXYGRAPHICS
 70
    1
  9
$MEASUREMENT
 70
    1
  9
$CELWEIGHT
370
   -1
  9
$ENDCAPS
280
    0
  9
$JOINSTYLE
280
    0
  9
$LWDISPLAY
290
    0
  9
$INSUNITS
 70
    0
  9
$HYPERLINKBASE
  1

  9
$STYLESHEET
  1

  9
$XEDIT
290
    1
  9
$CEPSNTYPE
380
    0
  9
$PSTYLEMODE
290
    1
  9
$EXTNAMES
290
    1
  9
$PSVPSCALE
 40
4.001930132086224
  9
$OLESTARTUP
290
    0
  9
$SORTENTS
280
  127
  9
$INDEXCTL
280
    0
  9
$HIDETEXT
280
    1
  9
$XCLIPFRAME
290
    0
  9
$HALOGAP
280
    0
  9
$OBSCOLOR
 70
  257
  9
$OBSLTYPE
280
    0
  9
$INTERSECTIONDISPLAY
280
    0
  9
$INTERSECTIONCOLOR
 70
  257
  9
$DIMASSOC
280
    1
  9
$PROJECTNAME
  1

  9
$CAMERADISPLAY
290
    0
  9
$LENSLENGTH
 40
50
  9
$CAMERAHEIGHT
 40
0
  9
$STEPSPERSEC
 40
2
  9
$STEPSIZE
 40
50
  9
$3DDWFPREC
 40
2
  9
$PSOLWIDTH
 40
5
  9
$PSOLHEIGHT
 40
80
  9
$LOFTANG1
 40
1.570796326794897
  9
$LOFTANG2
 40
1.570796326794897
  9
$LOFTMAG1
 40
0
  9
$LOFTMAG2
 40
0
  9
$LOFTPARAM
 70
    7
  9
$LOFTNORMALS
280
    1
  9
$LATITUDE
 40
1
  9
$LONGITUDE
 40
1
  9
$NORTHDIRECTION
 40
0
  9
$TIMEZONE
 70
-8000
  9
$LIGHTGLYPHDISPLAY
280
    1
  9
$TILEMODELIGHTSYNCH
280
    1
  9
$SOLIDHIST
280
    1
  9
$SHOWHIST
280
    1
  9
$DWFFRAME
280
    2
  9
$DGNFRAME
280
    0
  9
$REALWORLDSCALE
290
    1
  9
$INTERFERECOLOR
 62
    1
  9
$CSHADOW
280
    0
  9
$SHADOWPLANELOCATION
 40
0
  0
ENDSEC
  0
SECTION
  2
CLASSES
  0
ENDSEC
  0
SECTION
  2
TABLES
  0
TABLE
  2
VPORT
  5
8
330
0
100
AcDbSymbolTable
 70
    1
  0
VPORT
  5
31
330
2
100
AcDbSymbolTableRecord
100
AcDbViewportTableRecord
  2
*ACTIVE
 70
    0
 10
0
 20
0
 11
1
 21
1
 12
30.8672032382553
 22
74.63139634437567
 13
0
 23
0
 14
10
 24
10
 15
10
 25
10
 16
0
 26
0
 36
1
 17
0
 27
0
 37
0
 40
58.67824774004967
 41
1.644791666666667
 42
50
 43
0
 44
0
 50
0
 51
0
 71
    0
 72
  100
 73
    1
 74
    3
 75
    0
 76
    0
 77
    0
 78
    0
281
    0
 65
    1
110
0
120
0
130
0
111
1
121
0
131
0
112
0
122
1
132
0
 79
    0
146
0
348
10020
 60
    7
 61
    5
292
1
282
    1
141
0
142
0
 63
  250
421
3358443
  0
ENDTAB
  0
TABLE
  2
LTYPE
  5
5
330
0
100
AcDbSymbolTable
 70
    4
  0
LTYPE
  5
14
330
5
100
AcDbSymbolTableRecord
100
AcDbLinetypeTableRecord
  2
ByBlock
 70
    0
  3

 72
   65
 73
    0
 40
0
  0
LTYPE
  5
15
330
5
100
AcDbSymbolTableRecord
100
AcDbLinetypeTableRecord
  2
ByLayer
 70
    0
  3

 72
   65
 73
    0
 40
0
  0
LTYPE
  5
16
330
5
100
AcDbSymbolTableRecord
100
AcDbLinetypeTableRecord
  2
Continuous
 70
    0
  3
Solid line
 72
   65
 73
    0
 40
0
  0
LTYPE
  5
32
330
5
100
AcDbSymbolTableRecord
100
AcDbLinetypeTableRecord
  2
DOT
 70
    0
  3
Dot . . . . . . . . . . . . . . . . . . . . . .
 72
   65
 73
    2
 40
6.35
 49
0
 74
    0
 49
-6.35
 74
    0
  0
LTYPE
  5
33
330
5
100
AcDbSymbolTableRecord
100
AcDbLinetypeTableRecord
  2
DOTTINY
 70
    0
  3
Dot (.15x) .....................................
 72
   65
 73
    2
 40
0.9525
 49
0
 74
    0
 49
-0.9525
 74
    0
  0
LTYPE
  5
34
330
5
100
AcDbSymbolTableRecord
100
AcDbLinetypeTableRecord
  2
DOT2
 70
    0
  3
Dot (.5x) .....................................
 72
   65
 73
    2
 40
3.175
 49
0
 74
    0
 49
-3.175
 74
    0
  0
LTYPE
  5
35
330
5
100
AcDbSymbolTableRecord
100
AcDbLinetypeTableRecord
  2
DOTX2
 70
    0
  3
Dot (2x) .  .  .  .  .  .  .  .  .  .  .  .  .
 72
   65
 73
    2
 40
12.7
 49
0
 74
    0
 49
-12.7
 74
    0
  0
LTYPE
  5
36
330
5
100
AcDbSymbolTableRecord
100
AcDbLinetypeTableRecord
  2
DASHED
 70
    0
  3
Dashed _ _ _ _ _ _ _ _ _ _ _ _ _ _ _ _ _
 72
   65
 73
    2
 40
19.05
 49
12.7
 74
    0
 49
-6.35
 74
    0
  0
LTYPE
  5
37
330
5
100
AcDbSymbolTableRecord
100
AcDbLinetypeTableRecord
  2
DASHEDTINY
 70
    0
  3
Dashed (.15x) _ _ _ _ _ _ _ _ _ _ _ _ _ _ _ _ _
 72
   65
 73
    2
 40
2.8575
 49
1.905
 74
    0
 49
-0.9525
 74
    0
  0
LTYPE
  5
38
330
5
100
AcDbSymbolTableRecord
100
AcDbLinetypeTableRecord
  2
DASHED2
 70
    0
  3
Dashed (.5x) _ _ _ _ _ _ _ _ _ _ _ _ _ _ _ _ _
 72
   65
 73
    2
 40
9.524999999999999
 49
6.35
 74
    0
 49
-3.175
 74
    0
  0
LTYPE
  5
39
330
5
100
AcDbSymbolTableRecord
100
AcDbLinetypeTableRecord
  2
DASHEDX2
 70
    0
  3
Dashed (2x) ____  ____  ____  ____  ____  ___
 72
   65
 73
    2
 40
38.09999999999999
 49
25.4
 74
    0
 49
-12.7
 74
    0
  0
LTYPE
  5
3A
330
5
100
AcDbSymbolTableRecord
100
AcDbLinetypeTableRecord
  2
DASHDOT
 70
    0
  3
Dash dot __ . __ . __ . __ . __ . __ . __ . __
 72
   65
 73
    4
 40
25.4
 49
12.7
 74
    0
 49
-6.35
 74
    0
 49
0
 74
    0
 49
-6.35
 74
    0
  0
LTYPE
  5
3B
330
5
100
AcDbSymbolTableRecord
100
AcDbLinetypeTableRecord
  2
DASHDOTTINY
 70
    0
  3
Dash dot (.15x) _._._._._._._._._._._._._._._.
 72
   65
 73
    4
 40
3.81
 49
1.905
 74
    0
 49
-0.9525
 74
    0
 49
0
 74
    0
 49
-0.9525
 74
    0
  0
LTYPE
  5
3C
330
5
100
AcDbSymbolTableRecord
100
AcDbLinetypeTableRecord
  2
DASHDOT2
 70
    0
  3
Dash dot (.5x) _._._._._._._._._._._._._._._.
 72
   65
 73
    4
 40
12.7
 49
6.35
 74
    0
 49
-3.175
 74
    0
 49
0
 74
    0
 49
-3.175
 74
    0
  0
LTYPE
  5
3D
330
5
100
AcDbSymbolTableRecord
100
AcDbLinetypeTableRecord
  2
DASHDOTX2
 70
    0
  3
Dash dot (2x) ____  .  ____  .  ____  .  ___
 72
   65
 73
    4
 40
50.8
 49
25.4
 74
    0
 49
-12.7
 74
    0
 49
0
 74
    0
 49
-12.7
 74
    0
  0
LTYPE
  5
3E
330
5
100
AcDbSymbolTableRecord
100
AcDbLinetypeTableRecord
  2
DIVIDE
 70
    0
  3
Divide ____ . . ____ . . ____ . . ____ . . ____
 72
   65
 73
    6
 40
31.75
 49
12.7
 74
    0
 49
-6.35
 74
    0
 49
0
 74
    0
 49
-6.35
 74
    0
 49
0
 74
    0
 49
-6.35
 74
    0
  0
LTYPE
  5
3F
330
5
100
AcDbSymbolTableRecord
100
AcDbLinetypeTableRecord
  2
DIVIDETINY
 70
    0
  3
Divide (.15x) __..__..__..__..__..__..__..__.._
 72
   65
 73
    6
 40
4.7625
 49
1.905
 74
    0
 49
-0.9525
 74
    0
 49
0
 74
    0
 49
-0.9525
 74
    0
 49
0
 74
    0
 49
-0.9525
 74
    0
  0
LTYPE
  5
40
330
5
100
AcDbSymbolTableRecord
100
AcDbLinetypeTableRecord
  2
DIVIDE2
 70
    0
  3
Divide (.5x) __..__..__..__..__..__..__..__.._
 72
   65
 73
    6
 40
15.875
 49
6.35
 74
    0
 49
-3.175
 74
    0
 49
0
 74
    0
 49
-3.175
 74
    0
 49
0
 74
    0
 49
-3.175
 74
    0
  0
LTYPE
  5
41
330
5
100
AcDbSymbolTableRecord
100
AcDbLinetypeTableRecord
  2
DIVIDEX2
 70
    0
  3
Divide (2x) ________  .  .  ________  .  .  _
 72
   65
 73
    6
 40
63.5
 49
25.4
 74
    0
 49
-12.7
 74
    0
 49
0
 74
    0
 49
-12.7
 74
    0
 49
0
 74
    0
 49
-12.7
 74
    0
  0
LTYPE
  5
42
330
5
100
AcDbSymbolTableRecord
100
AcDbLinetypeTableRecord
  2
BORDER
 70
    0
  3
Border __ __ . __ __ . __ __ . __ __ . __ __ .
 72
   65
 73
    6
 40
44.45
 49
12.7
 74
    0
 49
-6.35
 74
    0
 49
12.7
 74
    0
 49
-6.35
 74
    0
 49
0
 74
    0
 49
-6.35
 74
    0
  0
LTYPE
  5
43
330
5
100
AcDbSymbolTableRecord
100
AcDbLinetypeTableRecord
  2
BORDERTINY
 70
    0
  3
Border (.15x) __.__.__.__.__.__.__.__.__.__.__.
 72
   65
 73
    6
 40
6.6675
 49
1.905
 74
    0
 49
-0.9525
 74
    0
 49
1.905
 74
    0
 49
-0.9525
 74
    0
 49
0
 74
    0
 49
-0.9525
 74
    0
  0
LTYPE
  5
44
330
5
100
AcDbSymbolTableRecord
100
AcDbLinetypeTableRecord
  2
BORDER2
 70
    0
  3
Border (.5x) __.__.__.__.__.__.__.__.__.__.__.
 72
   65
 73
    6
 40
22.225
 49
6.35
 74
    0
 49
-3.175
 74
    0
 49
6.35
 74
    0
 49
-3.175
 74
    0
 49
0
 74
    0
 49
-3.175
 74
    0
  0
LTYPE
  5
45
330
5
100
AcDbSymbolTableRecord
100
AcDbLinetypeTableRecord
  2
BORDERX2
 70
    0
  3
Border (2x) ____  ____  .  ____  ____  .  ___
 72
   65
 73
    6
 40
88.89999999999999
 49
25.4
 74
    0
 49
-12.7
 74
    0
 49
25.4
 74
    0
 49
-12.7
 74
    0
 49
0
 74
    0
 49
-12.7
 74
    0
  0
LTYPE
  5
46
330
5
100
AcDbSymbolTableRecord
100
AcDbLinetypeTableRecord
  2
CENTER
 70
    0
  3
Center ____ _ ____ _ ____ _ ____ _ ____ _ ____
 72
   65
 73
    4
 40
50.8
 49
31.75
 74
    0
 49
-6.35
 74
    0
 49
6.35
 74
    0
 49
-6.35
 74
    0
  0
LTYPE
  5
47
330
5
100
AcDbSymbolTableRecord
100
AcDbLinetypeTableRecord
  2
CENTERTINY
 70
    0
  3
Center (.15x) ___ _ ___ _ ___ _ ___ _ ___ _ ___
 72
   65
 73
    4
 40
7.619999999999999
 49
4.7625
 74
    0
 49
-0.9525
 74
    0
 49
0.9525
 74
    0
 49
-0.9525
 74
    0
  0
LTYPE
  5
48
330
5
100
AcDbSymbolTableRecord
100
AcDbLinetypeTableRecord
  2
CENTER2
 70
    0
  3
Center (.5x) ___ _ ___ _ ___ _ ___ _ ___ _ ___
 72
   65
 73
    4
 40
28.575
 49
19.05
 74
    0
 49
-3.175
 74
    0
 49
3.175
 74
    0
 49
-3.175
 74
    0
  0
LTYPE
  5
49
330
5
100
AcDbSymbolTableRecord
100
AcDbLinetypeTableRecord
  2
CENTERX2
 70
    0
  3
Center (2x) ________  __  ________  __  _____
 72
   65
 73
    4
 40
101.6
 49
63.5
 74
    0
 49
-12.7
 74
    0
 49
12.7
 74
    0
 49
-12.7
 74
    0
  0
ENDTAB
  0
TABLE
  2
LAYER
  5
2
330
0
100
AcDbSymbolTable
 70
    1
  0
LAYER
  5
10
330
2
100
AcDbSymbolTableRecord
100
AcDbLayerTableRecord
  2
0
 70
    0
 62
    7
  6
CONTINUOUS
370
    9
390
F
  0
LAYER
  5
4A
330
2
100
AcDbSymbolTableRecord
100
AcDbLayerTableRecord
  2
0_GND
 70
    0
 62
    7
  6
CONTINUOUS
370
   15
390
F
  0
LAYER
  5
4B
330
2
100
AcDbSymbolTableRecord
100
AcDbLayerTableRecord
  2
0_draft
 70
    0
 62
    7
  6
DOTTINY
370
   -3
390
F
1001
LibreCad
1070
    1
  0
LAYER
  5
4C
330
2
100
AcDbSymbolTableRecord
100
AcDbLayerTableRecord
  2
0_wire
 70
    0
 62
   92
420
51200
  6
CONTINUOUS
370
   15
390
F
  0
LAYER
  5
4D
330
2
100
AcDbSymbolTableRecord
100
AcDbLayerTableRecord
  2
1_wire
 70
    0
 62
    2
  6
CONTINUOUS
370
   15
390
F
  0
LAYER
  5
4E
330
2
100
AcDbSymbolTableRecord
100
AcDbLayerTableRecord
  2
3.3V line
 70
    0
 62
   40
420
16755200
  6
CONTINUOUS
370
   15
390
F
  0
LAYER
  5
4F
330
2
100
AcDbSymbolTableRecord
100
AcDbLayerTableRecord
  2
5V line
 70
    0
 62
    1
  6
CONTINUOUS
370
   15
390
F
  0
LAYER
  5
50
330
2
100
AcDbSymbolTableRecord
100
AcDbLayerTableRecord
  2
condenser
 70
    0
 62
    5
  6
CONTINUOUS
370
   15
390
F
  0
LAYER
  5
51
330
2
100
AcDbSymbolTableRecord
100
AcDbLayerTableRecord
  2
crystal
 70
    0
 62
   96
420
32768
  6
CONTINUOUS
370
   15
390
F
  0
LAYER
  5
52
330
2
100
AcDbSymbolTableRecord
100
AcDbLayerTableRecord
  2
diode
 70
    0
 62
    6
  6
CONTINUOUS
370
   15
390
F
  0
LAYER
  5
53
330
2
100
AcDbSymbolTableRecord
100
AcDbLayerTableRecord
  2
kakou
 70
    0
 62
  176
420
  128
  6
CONTINUOUS
370
   15
390
F
  0
LAYER
  5
54
330
2
100
AcDbSymbolTableRecord
100
AcDbLayerTableRecord
  2
micon
 70
    0
 62
  216
420
8388736
  6
CONTINUOUS
370
   15
390
F
  0
LAYER
  5
55
330
2
100
AcDbSymbolTableRecord
100
AcDbLayerTableRecord
  2
resister
 70
    0
 62
  132
420
57054
  6
CONTINUOUS
370
   15
390
F
  0
LAYER
  5
56
330
2
100
AcDbSymbolTableRecord
100
AcDbLayerTableRecord
  2
socket_header
 70
    0
 62
   56
420
8421376
  6
CONTINUOUS
370
   15
390
F
  0
LAYER
  5
57
330
2
100
AcDbSymbolTableRecord
100
AcDbLayerTableRecord
  2
switch
 70
    0
 62
  136
420
32896
  6
CONTINUOUS
370
   15
390
F
  0
LAYER
  5
58
330
2
100
AcDbSymbolTableRecord
100
AcDbLayerTableRecord
  2
terminal
 70
    0
 62
   16
420
8388608
  6
CONTINUOUS
370
   15
390
F
  0
LAYER
  5
59
330
2
100
AcDbSymbolTableRecord
100
AcDbLayerTableRecord
  2
universal_board
 70
    4
 62
  253
420
10526884
  6
CONTINUOUS
370
   15
390
F
  0
ENDTAB
  0
TABLE
  2
STYLE
  5
3
330
0
100
AcDbSymbolTable
 70
    3
  0
STYLE
  5
5A
330
2
100
AcDbSymbolTableRecord
100
AcDbTextStyleTableRecord
  2
iso
 70
    0
 40
0
 41
1
 50
0
 71
    0
 42
1
  3
iso
  4

  0
STYLE
  5
5B
330
2
100
AcDbSymbolTableRecord
100
AcDbTextStyleTableRecord
  2
kst32b
 70
    0
 40
0
 41
1
 50
0
 71
    0
 42
1
  3
kst32b
  4

  0
STYLE
  5
5C
330
2
100
AcDbSymbolTableRecord
100
AcDbTextStyleTableRecord
  2
STANDARD
 70
    0
 40
0
 41
1
 50
0
 71
    0
 42
1
  3
STANDARD
  4

  0
STYLE
  5
5D
330
2
100
AcDbSymbolTableRecord
100
AcDbTextStyleTableRecord
  2
unicode
 70
    0
 40
0
 41
1
 50
0
 71
    0
 42
1
  3
unicode
  4

  0
ENDTAB
  0
TABLE
  2
VIEW
  5
6
330
0
100
AcDbSymbolTable
 70
    0
  0
ENDTAB
  0
TABLE
  2
UCS
  5
7
330
0
100
AcDbSymbolTable
 70
    0
  0
ENDTAB
  0
TABLE
  2
APPID
  5
9
330
0
100
AcDbSymbolTable
 70
    1
  0
APPID
  5
12
330
9
100
AcDbSymbolTableRecord
100
AcDbRegAppTableRecord
  2
ACAD
 70
    0
  0
APPID
  5
5E
330
9
100
AcDbSymbolTableRecord
100
AcDbRegAppTableRecord
  2
LibreCad
 70
    0
  0
ENDTAB
  0
TABLE
  2
DIMSTYLE
  5
A
330
0
100
AcDbSymbolTable
 70
    1
100
AcDbDimStyleTable
 71
    1
  0
DIMSTYLE
105
5F
330
A
100
AcDbSymbolTableRecord
100
AcDbDimStyleTableRecord
  2
Standard
 70
    0
 40
1
 41
2.5
 42
0.625
 43
0.38
 44
1.25
 45
0
 46
0
 47
0
 48
0
 49
1
140
2.5
141
0.09
142
0
143
25.4
144
1
145
0
146
1
147
0.625
148
0
 71
    0
 72
    0
 73
    0
 74
    1
 75
    0
 76
    0
 77
    0
 78
    8
 79
    0
170
    0
171
    2
172
    0
173
    0
174
    0
175
    0
176
    0
177
    0
178
    0
179
    0
271
    2
272
    4
273
    2
274
    2
275
    0
276
    0
277
    2
278
   44
279
    0
280
    0
281
    0
282
    0
283
    1
284
    0
285
    0
286
    0
288
    0
289
    3
340
5C
  0
ENDTAB
  0
TABLE
  2
BLOCK_RECORD
  5
1
330
0
100
AcDbSymbolTable
 70
    2
  0
BLOCK_RECORD
  5
1F
330
1
100
AcDbSymbolTableRecord
100
AcDbBlockTableRecord
  2
*Model_Space
 70
    0
280
    1
281
    0
  0
BLOCK_RECORD
  5
1E
330
1
100
AcDbSymbolTableRecord
100
AcDbBlockTableRecord
  2
*Paper_Space
 70
    0
280
    1
281
    0
  0
BLOCK_RECORD
  5
60
330
1
100
AcDbSymbolTableRecord
100
AcDbBlockTableRecord
  2
2227MC-08-03
 70
    0
280
    1
281
    0
  0
BLOCK_RECORD
  5
63
330
1
100
AcDbSymbolTableRecord
100
AcDbBlockTableRecord
  2
PIC16F15325
 70
    0
280
    1
281
    0
  0
BLOCK_RECORD
  5
66
330
1
100
AcDbSymbolTableRecord
100
AcDbBlockTableRecord
  2
2227MC-28-03
 70
    0
280
    1
281
    0
  0
BLOCK_RECORD
  5
69
330
1
100
AcDbSymbolTableRecord
100
AcDbBlockTableRecord
  2
HUSG-16.000-20
 70
    0
280
    1
281
    0
  0
BLOCK_RECORD
  5
6C
330
1
100
AcDbSymbolTableRecord
100
AcDbBlockTableRecord
  2
ATmega328P
 70
    0
280
    1
281
    0
  0
BLOCK_RECORD
  5
6F
330
1
100
AcDbSymbolTableRecord
100
AcDbBlockTableRecord
  2
DTS-63-N-V-BLK
 70
    0
280
    1
281
    0
  0
BLOCK_RECORD
  5
72
330
1
100
AcDbSymbolTableRecord
100
AcDbBlockTableRecord
  2
2227MC-14-03
 70
    0
280
    1
281
    0
  0
BLOCK_RECORD
  5
75
330
1
100
AcDbSymbolTableRecord
100
AcDbBlockTableRecord
  2
C_0.01uF
 70
    0
280
    1
281
    0
  0
BLOCK_RECORD
  5
78
330
1
100
AcDbSymbolTableRecord
100
AcDbBlockTableRecord
  2
R300
 70
    0
280
    1
281
    0
  0
BLOCK_RECORD
  5
7B
330
1
100
AcDbSymbolTableRecord
100
AcDbBlockTableRecord
  2
R10k
 70
    0
280
    1
281
    0
  0
BLOCK_RECORD
  5
7E
330
1
100
AcDbSymbolTableRecord
100
AcDbBlockTableRecord
  2
R0
 70
    0
280
    1
281
    0
  0
ENDTAB
  0
ENDSEC
  0
SECTION
  2
BLOCKS
  0
BLOCK
  5
20
330
1F
100
AcDbEntity
  8
0
100
AcDbBlockBegin
  2
*Model_Space
 70
    0
 10
0
 20
0
 30
0
  3
*Model_Space
  1

  0
ENDBLK
  5
21
330
1F
100
AcDbEntity
  8
0
100
AcDbBlockEnd
  0
BLOCK
  5
1C
330
1B
100
AcDbEntity
  8
0
100
AcDbBlockBegin
  2
*Paper_Space
 70
    0
 10
0
 20
0
 30
0
  3
*Paper_Space
  1

  0
ENDBLK
  5
1D
330
1F
100
AcDbEntity
  8
0
100
AcDbBlockEnd
  0
BLOCK
  5
61
330
60
100
AcDbEntity
  8
0
100
AcDbBlockBegin
  2
2227MC-08-03
 70
    0
 10
0
 20
0
  3
2227MC-08-03
  1

  0
LINE
  5
81
100
AcDbEntity
  8
socket_header
  6
ByLayer
 62
  256
370
   -1
100
AcDbLine
 10
-1.270000000000131
 20
-8.890000110779171
 11
-1.270000000000131
 21
1.269999889220831
  0
LINE
  5
82
100
AcDbEntity
  8
socket_header
  6
ByLayer
 62
  256
370
   -1
100
AcDbLine
 10
-1.270000000000131
 20
1.269999889220831
 11
8.890000394687402
 21
1.269999889220831
  0
LINE
  5
83
100
AcDbEntity
  8
socket_header
  6
ByLayer
 62
  256
370
   -1
100
AcDbLine
 10
8.890000394687402
 20
1.269999889220831
 11
8.88999999999989
 21
-8.890000110779171
  0
LINE
  5
84
100
AcDbEntity
  8
socket_header
  6
ByLayer
 62
  256
370
   -1
100
AcDbLine
 10
8.88999999999989
 20
-8.890000110779171
 11
-1.270000000000131
 21
-8.890000110779171
  0
CIRCLE
  5
85
100
AcDbEntity
  8
socket_header
  6
ByLayer
 62
  256
370
   -1
100
AcDbCircle
 10
2.539999999999878
 20
1.06581410364015e-14
 40
0.6
  0
CIRCLE
  5
86
100
AcDbEntity
  8
socket_header
  6
ByLayer
 62
  256
370
   -1
100
AcDbCircle
 10
2.539999999999893
 20
-7.620000000000061
 40
0.6
  0
CIRCLE
  5
87
100
AcDbEntity
  8
socket_header
  6
ByLayer
 62
  256
370
   -1
100
AcDbCircle
 10
0
 20
0
 40
0.6
  0
CIRCLE
  5
88
100
AcDbEntity
  8
socket_header
  6
ByLayer
 62
  256
370
   -1
100
AcDbCircle
 10
7.105427357601002e-15
 20
-7.620000000000072
 40
0.6
  0
CIRCLE
  5
89
100
AcDbEntity
  8
socket_header
  6
ByLayer
 62
  256
370
   -1
100
AcDbCircle
 10
5.079999999999757
 20
2.842170943040401e-14
 40
0.6
  0
CIRCLE
  5
8A
100
AcDbEntity
  8
socket_header
  6
ByLayer
 62
  256
370
   -1
100
AcDbCircle
 10
5.079999999999771
 20
-7.620000000000051
 40
0.6
  0
CIRCLE
  5
8B
100
AcDbEntity
  8
socket_header
  6
ByLayer
 62
  256
370
   -1
100
AcDbCircle
 10
7.619999999999639
 20
3.907985046680551e-14
 40
0.6
  0
CIRCLE
  5
8C
100
AcDbEntity
  8
socket_header
  6
ByLayer
 62
  256
370
   -1
100
AcDbCircle
 10
7.61999999999966
 20
-7.62000000000004
 40
0.6
  0
MTEXT
  5
8D
100
AcDbEntity
  8
socket_header
  6
ByLayer
 62
  256
370
   -1
100
AcDbMText
 10
3.950796119092651
 20
-1.713679173150673
 30
0
 40
1
 41
9.222222222222346
 71
    5
 72
    1
  1
2227MC-08-03
  7
STANDARD
210
0
220
0
230
1
 50
0
 73
    2
 44
1
  0
ENDBLK
  5
62
330
60
100
AcDbEntity
  8
0
100
AcDbBlockEnd
  0
BLOCK
  5
64
330
63
100
AcDbEntity
  8
0
100
AcDbBlockBegin
  2
PIC16F15325
 70
    0
 10
0
 20
0
  3
PIC16F15325
  1

  0
ENDBLK
  5
65
330
63
100
AcDbEntity
  8
0
100
AcDbBlockEnd
  0
BLOCK
  5
67
330
66
100
AcDbEntity
  8
0
100
AcDbBlockBegin
  2
2227MC-28-03
 70
    0
 10
0
 20
0
  3
2227MC-28-03
  1

  0
ENDBLK
  5
68
330
66
100
AcDbEntity
  8
0
100
AcDbBlockEnd
  0
BLOCK
  5
6A
330
69
100
AcDbEntity
  8
0
100
AcDbBlockBegin
  2
HUSG-16.000-20
 70
    0
 10
0
 20
0
  3
HUSG-16.000-20
  1

  0
ENDBLK
  5
6B
330
69
100
AcDbEntity
  8
0
100
AcDbBlockEnd
  0
BLOCK
  5
6D
330
6C
100
AcDbEntity
  8
0
100
AcDbBlockBegin
  2
ATmega328P
 70
    0
 10
0
 20
0
  3
ATmega328P
  1

  0
ENDBLK
  5
6E
330
6C
100
AcDbEntity
  8
0
100
AcDbBlockEnd
  0
BLOCK
  5
70
330
6F
100
AcDbEntity
  8
0
100
AcDbBlockBegin
  2
DTS-63-N-V-BLK
 70
    0
 10
0
 20
0
  3
DTS-63-N-V-BLK
  1

  0
ENDBLK
  5
71
330
6F
100
AcDbEntity
  8
0
100
AcDbBlockEnd
  0
BLOCK
  5
73
330
72
100
AcDbEntity
  8
0
100
AcDbBlockBegin
  2
2227MC-14-03
 70
    0
 10
0
 20
0
  3
2227MC-14-03
  1

  0
ENDBLK
  5
74
330
72
100
AcDbEntity
  8
0
100
AcDbBlockEnd
  0
BLOCK
  5
76
330
75
100
AcDbEntity
  8
0
100
AcDbBlockBegin
  2
C_0.01uF
 70
    0
 10
0
 20
0
  3
C_0.01uF
  1

  0
LWPOLYLINE
  5
8E
100
AcDbEntity
  8
condenser
  6
ByLayer
 62
  256
370
   -1
100
AcDbPolyline
 90
    4
 70
    1
 43
0
 10
1.499999999999972
 20
5.039999999999822
 10
1.499999999999972
 20
0.03999999999992099
 10
-1.50000000000005
 20
0.03999999999992099
 10
-1.50000000000005
 20
5.039999999999822
  0
MTEXT
  5
8F
100
AcDbEntity
  8
condenser
  6
ByLayer
 62
  256
370
   -1
100
AcDbMText
 10
2.336701583810211
 20
2.491803864245341
 30
0
 40
1
 41
3.666666666666713
 71
    5
 72
    1
  1
0.01uF
  7
STANDARD
210
0
220
0
230
1
 50
270
 73
    2
 44
1
  0
CIRCLE
  5
90
100
AcDbEntity
  8
condenser
  6
ByLayer
 62
  256
370
   -1
100
AcDbCircle
 10
0
 20
0
 40
0.4
  0
CIRCLE
  5
91
100
AcDbEntity
  8
condenser
  6
ByLayer
 62
  256
370
   -1
100
AcDbCircle
 10
-6.927791673660977e-14
 20
5.080000000000041
 40
0.4
  0
ENDBLK
  5
77
330
75
100
AcDbEntity
  8
0
100
AcDbBlockEnd
  0
BLOCK
  5
79
330
78
100
AcDbEntity
  8
0
100
AcDbBlockBegin
  2
R300
 70
    0
 10
0
 20
0
  3
R300
  1

  0
LWPOLYLINE
  5
92
100
AcDbEntity
  8
resister
  6
ByLayer
 62
  256
370
   -1
100
AcDbPolyline
 90
    4
 70
    1
 43
0
 10
-1.150000000000091
 20
0.6599999999995898
 10
-1.15000000000008
 20
6.959999999999511
 10
1.150000000000126
 20
6.959999999999511
 10
1.150000000000119
 20
0.6599999999995898
  0
CIRCLE
  5
93
100
AcDbEntity
  8
resister
  6
ByLayer
 62
  256
370
   -1
100
AcDbCircle
 10
1.953992523340276e-14
 20
7.619999999999639
 40
0.3
  0
LINE
  5
94
100
AcDbEntity
  8
resister
  6
ByLayer
 62
  256
370
   -1
100
AcDbLine
 10
1.953992523340276e-14
 20
0.2999999999998604
 11
1.031014139840636e-06
 21
0.6599999999995898
  0
LINE
  5
95
100
AcDbEntity
  8
resister
  6
ByLayer
 62
  256
370
   -1
100
AcDbLine
 10
3.907985046680551e-14
 20
6.959999999999511
 11
3.907985046680551e-14
 21
7.320000000000348
  0
MTEXT
  5
96
100
AcDbEntity
  8
resister
  6
ByLayer
 62
  256
370
   -1
100
AcDbMText
 10
-0.02409769535478112
 20
3.951579464078229
 30
0
 40
1
 41
2.888888888888951
 71
    5
 72
    1
  1
R300
  7
STANDARD
210
0
220
0
230
1
 50
90
 73
    2
 44
1
  0
CIRCLE
  5
97
100
AcDbEntity
  8
resister
  6
ByLayer
 62
  256
370
   -1
100
AcDbCircle
 10
0
 20
0
 40
0.25
  0
ENDBLK
  5
7A
330
78
100
AcDbEntity
  8
0
100
AcDbBlockEnd
  0
BLOCK
  5
7C
330
7B
100
AcDbEntity
  8
0
100
AcDbBlockBegin
  2
R10k
 70
    0
 10
0
 20
0
  3
R10k
  1

  0
CIRCLE
  5
98
100
AcDbEntity
  8
resister
  6
ByLayer
 62
  256
370
   -1
100
AcDbCircle
 10
0
 20
0
 40
0.3
  0
LINE
  5
99
100
AcDbEntity
  8
resister
  6
ByLayer
 62
  256
370
   -1
100
AcDbLine
 10
-0.659999999999485
 20
1.150000000000098
 11
-0.659999999999485
 21
-1.150000000000059
  0
LINE
  5
9A
100
AcDbEntity
  8
resister
  6
ByLayer
 62
  256
370
   -1
100
AcDbLine
 10
-6.959999999999557
 20
-1.150000000000041
 11
-0.659999999999485
 21
-1.150000000000059
  0
LINE
  5
9B
100
AcDbEntity
  8
resister
  6
ByLayer
 62
  256
370
   -1
100
AcDbLine
 10
-0.659999999999485
 20
1.150000000000098
 11
-6.959999999999557
 21
1.150000000000098
  0
LINE
  5
9C
100
AcDbEntity
  8
resister
  6
ByLayer
 62
  256
370
   -1
100
AcDbLine
 10
-6.959999999999557
 20
1.150000000000098
 11
-6.959999999999557
 21
-1.150000000000041
  0
CIRCLE
  5
9D
100
AcDbEntity
  8
resister
  6
ByLayer
 62
  256
370
   -1
100
AcDbCircle
 10
-7.619999999999408
 20
2.131628207280301e-14
 40
0.25
  0
MTEXT
  5
9E
100
AcDbEntity
  8
resister
  6
ByLayer
 62
  256
370
   -1
100
AcDbMText
 10
-3.991855261194459
 20
0.08749576228997924
 30
0
 40
1
 41
2.666666666666667
 71
    5
 72
    1
  1
R10k
  7
unicode
210
0
220
0
230
1
 50
0
 73
    2
 44
1
  0
LINE
  5
9F
100
AcDbEntity
  8
resister
  6
ByLayer
 62
  256
370
   -1
100
AcDbLine
 10
-0.2499999999985789
 20
2.131628207280301e-14
 11
-0.659999999999485
 21
2.131628207280301e-14
  0
LINE
  5
A0
100
AcDbEntity
  8
resister
  6
ByLayer
 62
  256
370
   -1
100
AcDbLine
 10
-7.369999999999898
 20
1.06581410364015e-14
 11
-6.959999999999557
 21
1.06581410364015e-14
  0
ENDBLK
  5
7D
330
7B
100
AcDbEntity
  8
0
100
AcDbBlockEnd
  0
BLOCK
  5
7F
330
7E
100
AcDbEntity
  8
0
100
AcDbBlockBegin
  2
R0
 70
    0
 10
0
 20
0
  3
R0
  1

  0
LINE
  5
A1
100
AcDbEntity
  8
resister
  6
ByLayer
 62
  256
370
   -1
100
AcDbLine
 10
-0.6599999999999611
 20
1.149999999999959
 11
-0.6599999999999611
 21
-1.14999999999997
  0
LINE
  5
A2
100
AcDbEntity
  8
resister
  6
ByLayer
 62
  256
370
   -1
100
AcDbLine
 10
-0.6599999999999611
 20
-1.14999999999997
 11
-6.959999999999834
 21
-1.14999999999997
  0
LINE
  5
A3
100
AcDbEntity
  8
resister
  6
ByLayer
 62
  256
370
   -1
100
AcDbLine
 10
-6.959999999999834
 20
-1.14999999999997
 11
-6.95999999999982
 21
1.149999999999959
  0
LINE
  5
A4
100
AcDbEntity
  8
resister
  6
ByLayer
 62
  256
370
   -1
100
AcDbLine
 10
-6.95999999999982
 20
1.149999999999959
 11
-0.6599999999999611
 21
1.149999999999959
  0
LINE
  5
A5
100
AcDbEntity
  8
resister
  6
ByLayer
 62
  256
370
   -1
100
AcDbLine
 10
-6.95999999999982
 20
0
 11
-7.61999999999966
 21
0
  0
LINE
  5
A6
100
AcDbEntity
  8
resister
  6
ByLayer
 62
  256
370
   -1
100
AcDbLine
 10
3.694822225952521e-13
 20
0
 11
-0.6599999999999611
 21
0
  0
MTEXT
  5
A7
100
AcDbEntity
  8
resister
  6
ByLayer
 62
  256
370
   -1
100
AcDbMText
 10
-4.132042899777453
 20
0.05377778633712005
 30
0
 40
1
 41
1.333333333333333
 71
    5
 72
    1
  1
R0
  7
STANDARD
210
0
220
0
230
1
 50
270
 73
    2
 44
1
  0
ENDBLK
  5
80
330
7E
100
AcDbEntity
  8
0
100
AcDbBlockEnd
  0
ENDSEC
  0
SECTION
  2
ENTITIES
  0
CIRCLE
  5
A8
100
AcDbEntity
  8
universal_board
  6
ByLayer
 62
  256
370
   -1
100
AcDbCircle
 10
9.519999999998209
 20
99.50000000000051
 40
0.5
  0
CIRCLE
  5
A9
100
AcDbEntity
  8
universal_board
  6
ByLayer
 62
  256
370
   -1
100
AcDbCircle
 10
9.519999999998209
 20
102.0400000000005
 40
0.5
  0
CIRCLE
  5
AA
100
AcDbEntity
  8
universal_board
  6
ByLayer
 62
  256
370
   -1
100
AcDbCircle
 10
9.519999999998188
 20
104.5800000000006
 40
0.5
  0
CIRCLE
  5
AB
100
AcDbEntity
  8
universal_board
  6
ByLayer
 62
  256
370
   -1
100
AcDbCircle
 10
9.519999999998177
 20
107.1200000000006
 40
0.5
  0
CIRCLE
  5
AC
100
AcDbEntity
  8
universal_board
  6
ByLayer
 62
  256
370
   -1
100
AcDbCircle
 10
9.519999999998177
 20
109.6600000000006
 40
0.5
  0
CIRCLE
  5
AD
100
AcDbEntity
  8
universal_board
  6
ByLayer
 62
  256
370
   -1
100
AcDbCircle
 10
9.519999999998177
 20
112.2000000000006
 40
0.5
  0
CIRCLE
  5
AE
100
AcDbEntity
  8
universal_board
  6
ByLayer
 62
  256
370
   -1
100
AcDbCircle
 10
9.519999999998159
 20
114.7400000000006
 40
0.5
  0
CIRCLE
  5
AF
100
AcDbEntity
  8
universal_board
  6
ByLayer
 62
  256
370
   -1
100
AcDbCircle
 10
9.519999999998149
 20
117.2800000000007
 40
0.5
  0
CIRCLE
  5
B0
100
AcDbEntity
  8
universal_board
  6
ByLayer
 62
  256
370
   -1
100
AcDbCircle
 10
9.519999999998149
 20
119.8200000000007
 40
0.5
  0
CIRCLE
  5
B1
100
AcDbEntity
  8
universal_board
  6
ByLayer
 62
  256
370
   -1
100
AcDbCircle
 10
9.519999999998138
 20
122.3600000000007
 40
0.5
  0
CIRCLE
  5
B2
100
AcDbEntity
  8
universal_board
  6
ByLayer
 62
  256
370
   -1
100
AcDbCircle
 10
9.519999999998127
 20
124.9000000000007
 40
0.5
  0
CIRCLE
  5
B3
100
AcDbEntity
  8
universal_board
  6
ByLayer
 62
  256
370
   -1
100
AcDbCircle
 10
6.979999999998248
 20
127.4400000000007
 40
0.5
  0
CIRCLE
  5
B4
100
AcDbEntity
  8
universal_board
  6
ByLayer
 62
  256
370
   -1
100
AcDbCircle
 10
9.519999999998127
 20
127.4400000000008
 40
0.5
  0
CIRCLE
  5
B5
100
AcDbEntity
  8
universal_board
  6
ByLayer
 62
  256
370
   -1
100
AcDbCircle
 10
6.979999999998237
 20
129.9800000000008
 40
0.5
  0
CIRCLE
  5
B6
100
AcDbEntity
  8
universal_board
  6
ByLayer
 62
  256
370
   -1
100
AcDbCircle
 10
9.519999999998117
 20
129.9800000000008
 40
0.5
  0
CIRCLE
  5
B7
100
AcDbEntity
  8
universal_board
  6
ByLayer
 62
  256
370
   -1
100
AcDbCircle
 10
6.979999999998337
 20
99.50000000000051
 40
0.5
  0
CIRCLE
  5
B8
100
AcDbEntity
  8
universal_board
  6
ByLayer
 62
  256
370
   -1
100
AcDbCircle
 10
6.979999999998337
 20
102.0400000000005
 40
0.5
  0
CIRCLE
  5
B9
100
AcDbEntity
  8
universal_board
  6
ByLayer
 62
  256
370
   -1
100
AcDbCircle
 10
6.979999999998317
 20
104.5800000000005
 40
0.5
  0
CIRCLE
  5
BA
100
AcDbEntity
  8
universal_board
  6
ByLayer
 62
  256
370
   -1
100
AcDbCircle
 10
6.979999999998307
 20
107.1200000000005
 40
0.5
  0
CIRCLE
  5
BB
100
AcDbEntity
  8
universal_board
  6
ByLayer
 62
  256
370
   -1
100
AcDbCircle
 10
6.979999999998307
 20
109.6600000000006
 40
0.5
  0
CIRCLE
  5
BC
100
AcDbEntity
  8
universal_board
  6
ByLayer
 62
  256
370
   -1
100
AcDbCircle
 10
6.979999999998307
 20
112.2000000000006
 40
0.5
  0
CIRCLE
  5
BD
100
AcDbEntity
  8
universal_board
  6
ByLayer
 62
  256
370
   -1
100
AcDbCircle
 10
6.979999999998287
 20
114.7400000000006
 40
0.5
  0
CIRCLE
  5
BE
100
AcDbEntity
  8
universal_board
  6
ByLayer
 62
  256
370
   -1
100
AcDbCircle
 10
6.979999999998276
 20
117.2800000000006
 40
0.5
  0
CIRCLE
  5
BF
100
AcDbEntity
  8
universal_board
  6
ByLayer
 62
  256
370
   -1
100
AcDbCircle
 10
6.979999999998276
 20
119.8200000000006
 40
0.5
  0
CIRCLE
  5
C0
100
AcDbEntity
  8
universal_board
  6
ByLayer
 62
  256
370
   -1
100
AcDbCircle
 10
6.979999999998266
 20
122.3600000000007
 40
0.5
  0
CIRCLE
  5
C1
100
AcDbEntity
  8
universal_board
  6
ByLayer
 62
  256
370
   -1
100
AcDbCircle
 10
6.979999999998257
 20
124.9000000000007
 40
0.5
  0
CIRCLE
  5
C2
100
AcDbEntity
  8
universal_board
  6
ByLayer
 62
  256
370
   -1
100
AcDbCircle
 10
12.05999999999809
 20
99.50000000000051
 40
0.5
  0
CIRCLE
  5
C3
100
AcDbEntity
  8
universal_board
  6
ByLayer
 62
  256
370
   -1
100
AcDbCircle
 10
12.05999999999809
 20
102.0400000000005
 40
0.5
  0
CIRCLE
  5
C4
100
AcDbEntity
  8
universal_board
  6
ByLayer
 62
  256
370
   -1
100
AcDbCircle
 10
12.05999999999807
 20
104.5800000000006
 40
0.5
  0
CIRCLE
  5
C5
100
AcDbEntity
  8
universal_board
  6
ByLayer
 62
  256
370
   -1
100
AcDbCircle
 10
12.05999999999806
 20
107.1200000000006
 40
0.5
  0
CIRCLE
  5
C6
100
AcDbEntity
  8
universal_board
  6
ByLayer
 62
  256
370
   -1
100
AcDbCircle
 10
12.05999999999806
 20
109.6600000000006
 40
0.5
  0
CIRCLE
  5
C7
100
AcDbEntity
  8
universal_board
  6
ByLayer
 62
  256
370
   -1
100
AcDbCircle
 10
12.05999999999806
 20
112.2000000000006
 40
0.5
  0
CIRCLE
  5
C8
100
AcDbEntity
  8
universal_board
  6
ByLayer
 62
  256
370
   -1
100
AcDbCircle
 10
12.05999999999804
 20
114.7400000000006
 40
0.5
  0
CIRCLE
  5
C9
100
AcDbEntity
  8
universal_board
  6
ByLayer
 62
  256
370
   -1
100
AcDbCircle
 10
12.05999999999803
 20
117.2800000000007
 40
0.5
  0
CIRCLE
  5
CA
100
AcDbEntity
  8
universal_board
  6
ByLayer
 62
  256
370
   -1
100
AcDbCircle
 10
12.05999999999803
 20
119.8200000000007
 40
0.5
  0
CIRCLE
  5
CB
100
AcDbEntity
  8
universal_board
  6
ByLayer
 62
  256
370
   -1
100
AcDbCircle
 10
12.05999999999802
 20
122.3600000000007
 40
0.5
  0
CIRCLE
  5
CC
100
AcDbEntity
  8
universal_board
  6
ByLayer
 62
  256
370
   -1
100
AcDbCircle
 10
12.05999999999801
 20
124.9000000000007
 40
0.5
  0
CIRCLE
  5
CD
100
AcDbEntity
  8
universal_board
  6
ByLayer
 62
  256
370
   -1
100
AcDbCircle
 10
12.05999999999801
 20
127.4400000000008
 40
0.5
  0
CIRCLE
  5
CE
100
AcDbEntity
  8
universal_board
  6
ByLayer
 62
  256
370
   -1
100
AcDbCircle
 10
12.059999999998
 20
129.9800000000008
 40
0.5
  0
CIRCLE
  5
CF
100
AcDbEntity
  8
universal_board
  6
ByLayer
 62
  256
370
   -1
100
AcDbCircle
 10
14.59999999999798
 20
99.50000000000051
 40
0.5
  0
CIRCLE
  5
D0
100
AcDbEntity
  8
universal_board
  6
ByLayer
 62
  256
370
   -1
100
AcDbCircle
 10
14.59999999999798
 20
102.0400000000005
 40
0.5
  0
CIRCLE
  5
D1
100
AcDbEntity
  8
universal_board
  6
ByLayer
 62
  256
370
   -1
100
AcDbCircle
 10
14.59999999999796
 20
104.5800000000006
 40
0.5
  0
CIRCLE
  5
D2
100
AcDbEntity
  8
universal_board
  6
ByLayer
 62
  256
370
   -1
100
AcDbCircle
 10
14.59999999999795
 20
107.1200000000006
 40
0.5
  0
CIRCLE
  5
D3
100
AcDbEntity
  8
universal_board
  6
ByLayer
 62
  256
370
   -1
100
AcDbCircle
 10
14.59999999999795
 20
109.6600000000006
 40
0.5
  0
CIRCLE
  5
D4
100
AcDbEntity
  8
universal_board
  6
ByLayer
 62
  256
370
   -1
100
AcDbCircle
 10
14.59999999999795
 20
112.2000000000006
 40
0.5
  0
CIRCLE
  5
D5
100
AcDbEntity
  8
universal_board
  6
ByLayer
 62
  256
370
   -1
100
AcDbCircle
 10
14.59999999999793
 20
114.7400000000006
 40
0.5
  0
CIRCLE
  5
D6
100
AcDbEntity
  8
universal_board
  6
ByLayer
 62
  256
370
   -1
100
AcDbCircle
 10
14.59999999999792
 20
117.2800000000007
 40
0.5
  0
CIRCLE
  5
D7
100
AcDbEntity
  8
universal_board
  6
ByLayer
 62
  256
370
   -1
100
AcDbCircle
 10
14.59999999999792
 20
119.8200000000007
 40
0.5
  0
CIRCLE
  5
D8
100
AcDbEntity
  8
universal_board
  6
ByLayer
 62
  256
370
   -1
100
AcDbCircle
 10
14.59999999999791
 20
122.3600000000007
 40
0.5
  0
CIRCLE
  5
D9
100
AcDbEntity
  8
universal_board
  6
ByLayer
 62
  256
370
   -1
100
AcDbCircle
 10
14.5999999999979
 20
124.9000000000007
 40
0.5
  0
CIRCLE
  5
DA
100
AcDbEntity
  8
universal_board
  6
ByLayer
 62
  256
370
   -1
100
AcDbCircle
 10
14.5999999999979
 20
127.4400000000008
 40
0.5
  0
CIRCLE
  5
DB
100
AcDbEntity
  8
universal_board
  6
ByLayer
 62
  256
370
   -1
100
AcDbCircle
 10
14.59999999999789
 20
129.9800000000008
 40
0.5
  0
CIRCLE
  5
DC
100
AcDbEntity
  8
universal_board
  6
ByLayer
 62
  256
370
   -1
100
AcDbCircle
 10
17.13999999999787
 20
99.50000000000051
 40
0.5
  0
CIRCLE
  5
DD
100
AcDbEntity
  8
universal_board
  6
ByLayer
 62
  256
370
   -1
100
AcDbCircle
 10
17.13999999999787
 20
102.0400000000005
 40
0.5
  0
CIRCLE
  5
DE
100
AcDbEntity
  8
universal_board
  6
ByLayer
 62
  256
370
   -1
100
AcDbCircle
 10
17.13999999999784
 20
104.5800000000006
 40
0.5
  0
CIRCLE
  5
DF
100
AcDbEntity
  8
universal_board
  6
ByLayer
 62
  256
370
   -1
100
AcDbCircle
 10
17.13999999999783
 20
107.1200000000006
 40
0.5
  0
CIRCLE
  5
E0
100
AcDbEntity
  8
universal_board
  6
ByLayer
 62
  256
370
   -1
100
AcDbCircle
 10
17.13999999999783
 20
109.6600000000006
 40
0.5
  0
CIRCLE
  5
E1
100
AcDbEntity
  8
universal_board
  6
ByLayer
 62
  256
370
   -1
100
AcDbCircle
 10
17.13999999999783
 20
112.2000000000006
 40
0.5
  0
CIRCLE
  5
E2
100
AcDbEntity
  8
universal_board
  6
ByLayer
 62
  256
370
   -1
100
AcDbCircle
 10
17.13999999999782
 20
114.7400000000006
 40
0.5
  0
CIRCLE
  5
E3
100
AcDbEntity
  8
universal_board
  6
ByLayer
 62
  256
370
   -1
100
AcDbCircle
 10
17.1399999999978
 20
117.2800000000007
 40
0.5
  0
CIRCLE
  5
E4
100
AcDbEntity
  8
universal_board
  6
ByLayer
 62
  256
370
   -1
100
AcDbCircle
 10
17.1399999999978
 20
119.8200000000007
 40
0.5
  0
CIRCLE
  5
E5
100
AcDbEntity
  8
universal_board
  6
ByLayer
 62
  256
370
   -1
100
AcDbCircle
 10
17.13999999999779
 20
122.3600000000007
 40
0.5
  0
CIRCLE
  5
E6
100
AcDbEntity
  8
universal_board
  6
ByLayer
 62
  256
370
   -1
100
AcDbCircle
 10
17.13999999999778
 20
124.9000000000007
 40
0.5
  0
CIRCLE
  5
E7
100
AcDbEntity
  8
universal_board
  6
ByLayer
 62
  256
370
   -1
100
AcDbCircle
 10
17.13999999999778
 20
127.4400000000008
 40
0.5
  0
CIRCLE
  5
E8
100
AcDbEntity
  8
universal_board
  6
ByLayer
 62
  256
370
   -1
100
AcDbCircle
 10
17.13999999999777
 20
129.9800000000008
 40
0.5
  0
CIRCLE
  5
E9
100
AcDbEntity
  8
universal_board
  6
ByLayer
 62
  256
370
   -1
100
AcDbCircle
 10
19.67999999999775
 20
99.50000000000051
 40
0.5
  0
CIRCLE
  5
EA
100
AcDbEntity
  8
universal_board
  6
ByLayer
 62
  256
370
   -1
100
AcDbCircle
 10
19.67999999999775
 20
102.0400000000005
 40
0.5
  0
CIRCLE
  5
EB
100
AcDbEntity
  8
universal_board
  6
ByLayer
 62
  256
370
   -1
100
AcDbCircle
 10
19.67999999999772
 20
104.5800000000006
 40
0.5
  0
CIRCLE
  5
EC
100
AcDbEntity
  8
universal_board
  6
ByLayer
 62
  256
370
   -1
100
AcDbCircle
 10
19.67999999999771
 20
107.1200000000006
 40
0.5
  0
CIRCLE
  5
ED
100
AcDbEntity
  8
universal_board
  6
ByLayer
 62
  256
370
   -1
100
AcDbCircle
 10
19.67999999999771
 20
109.6600000000006
 40
0.5
  0
CIRCLE
  5
EE
100
AcDbEntity
  8
universal_board
  6
ByLayer
 62
  256
370
   -1
100
AcDbCircle
 10
19.67999999999771
 20
112.2000000000006
 40
0.5
  0
CIRCLE
  5
EF
100
AcDbEntity
  8
universal_board
  6
ByLayer
 62
  256
370
   -1
100
AcDbCircle
 10
19.6799999999977
 20
114.7400000000006
 40
0.5
  0
CIRCLE
  5
F0
100
AcDbEntity
  8
universal_board
  6
ByLayer
 62
  256
370
   -1
100
AcDbCircle
 10
19.67999999999768
 20
117.2800000000007
 40
0.5
  0
CIRCLE
  5
F1
100
AcDbEntity
  8
universal_board
  6
ByLayer
 62
  256
370
   -1
100
AcDbCircle
 10
19.67999999999768
 20
119.8200000000007
 40
0.5
  0
CIRCLE
  5
F2
100
AcDbEntity
  8
universal_board
  6
ByLayer
 62
  256
370
   -1
100
AcDbCircle
 10
19.67999999999767
 20
122.3600000000007
 40
0.5
  0
CIRCLE
  5
F3
100
AcDbEntity
  8
universal_board
  6
ByLayer
 62
  256
370
   -1
100
AcDbCircle
 10
19.67999999999766
 20
124.9000000000007
 40
0.5
  0
CIRCLE
  5
F4
100
AcDbEntity
  8
universal_board
  6
ByLayer
 62
  256
370
   -1
100
AcDbCircle
 10
19.67999999999766
 20
127.4400000000008
 40
0.5
  0
CIRCLE
  5
F5
100
AcDbEntity
  8
universal_board
  6
ByLayer
 62
  256
370
   -1
100
AcDbCircle
 10
19.67999999999765
 20
129.9800000000008
 40
0.5
  0
CIRCLE
  5
F6
100
AcDbEntity
  8
universal_board
  6
ByLayer
 62
  256
370
   -1
100
AcDbCircle
 10
22.21999999999763
 20
99.50000000000051
 40
0.5
  0
CIRCLE
  5
F7
100
AcDbEntity
  8
universal_board
  6
ByLayer
 62
  256
370
   -1
100
AcDbCircle
 10
22.21999999999763
 20
102.0400000000005
 40
0.5
  0
CIRCLE
  5
F8
100
AcDbEntity
  8
universal_board
  6
ByLayer
 62
  256
370
   -1
100
AcDbCircle
 10
22.2199999999976
 20
104.5800000000006
 40
0.5
  0
CIRCLE
  5
F9
100
AcDbEntity
  8
universal_board
  6
ByLayer
 62
  256
370
   -1
100
AcDbCircle
 10
22.21999999999759
 20
107.1200000000006
 40
0.5
  0
CIRCLE
  5
FA
100
AcDbEntity
  8
universal_board
  6
ByLayer
 62
  256
370
   -1
100
AcDbCircle
 10
22.21999999999759
 20
109.6600000000006
 40
0.5
  0
CIRCLE
  5
FB
100
AcDbEntity
  8
universal_board
  6
ByLayer
 62
  256
370
   -1
100
AcDbCircle
 10
22.21999999999759
 20
112.2000000000006
 40
0.5
  0
CIRCLE
  5
FC
100
AcDbEntity
  8
universal_board
  6
ByLayer
 62
  256
370
   -1
100
AcDbCircle
 10
22.21999999999758
 20
114.7400000000006
 40
0.5
  0
CIRCLE
  5
FD
100
AcDbEntity
  8
universal_board
  6
ByLayer
 62
  256
370
   -1
100
AcDbCircle
 10
22.21999999999757
 20
117.2800000000007
 40
0.5
  0
CIRCLE
  5
FE
100
AcDbEntity
  8
universal_board
  6
ByLayer
 62
  256
370
   -1
100
AcDbCircle
 10
22.21999999999757
 20
119.8200000000007
 40
0.5
  0
CIRCLE
  5
FF
100
AcDbEntity
  8
universal_board
  6
ByLayer
 62
  256
370
   -1
100
AcDbCircle
 10
22.21999999999755
 20
122.3600000000007
 40
0.5
  0
CIRCLE
  5
100
100
AcDbEntity
  8
universal_board
  6
ByLayer
 62
  256
370
   -1
100
AcDbCircle
 10
22.21999999999754
 20
124.9000000000007
 40
0.5
  0
CIRCLE
  5
101
100
AcDbEntity
  8
universal_board
  6
ByLayer
 62
  256
370
   -1
100
AcDbCircle
 10
22.21999999999754
 20
127.4400000000008
 40
0.5
  0
CIRCLE
  5
102
100
AcDbEntity
  8
universal_board
  6
ByLayer
 62
  256
370
   -1
100
AcDbCircle
 10
22.21999999999753
 20
129.9800000000008
 40
0.5
  0
LINE
  5
103
100
AcDbEntity
  8
3.3V line
  6
ByLayer
 62
  256
370
   -1
100
AcDbLine
 10
19.67999999999765
 20
107.1200000000006
 11
22.21999999999759
 21
107.1200000000006
  0
LINE
  5
104
100
AcDbEntity
  8
micon
  6
ByLayer
 62
  256
370
   -1
100
AcDbLine
 10
16.50499999999632
 20
116.6450000000008
 11
16.50499999999632
 21
97.59500000000048
  0
LINE
  5
105
100
AcDbEntity
  8
micon
  6
ByLayer
 62
  256
370
   -1
100
AcDbLine
 10
10.15499999999613
 20
97.59500000000048
 11
10.15499999999613
 21
116.6450000000008
  0
LINE
  5
106
100
AcDbEntity
  8
micon
  6
ByLayer
 62
  256
370
   -1
100
AcDbLine
 10
9.519999999998127
 20
112.2000000000007
 11
10.15499999999613
 21
112.2000000000007
  0
LINE
  5
107
100
AcDbEntity
  8
micon
  6
ByLayer
 62
  256
370
   -1
100
AcDbLine
 10
9.519999999998127
 20
109.6600000000007
 11
10.15499999999613
 21
109.6600000000007
  0
LINE
  5
108
100
AcDbEntity
  8
micon
  6
ByLayer
 62
  256
370
   -1
100
AcDbLine
 10
9.519999999998127
 20
107.1200000000006
 11
10.15499999999613
 21
107.1200000000006
  0
LINE
  5
109
100
AcDbEntity
  8
micon
  6
ByLayer
 62
  256
370
   -1
100
AcDbLine
 10
9.519999999998127
 20
104.5800000000006
 11
10.15499999999613
 21
104.5800000000006
  0
LINE
  5
10A
100
AcDbEntity
  8
micon
  6
ByLayer
 62
  256
370
   -1
100
AcDbLine
 10
9.519999999998127
 20
102.0400000000006
 11
10.15499999999613
 21
102.0400000000006
  0
LINE
  5
10B
100
AcDbEntity
  8
micon
  6
ByLayer
 62
  256
370
   -1
100
AcDbLine
 10
9.519999999998127
 20
99.50000000000057
 11
10.15499999999613
 21
99.50000000000057
  0
LINE
  5
10C
100
AcDbEntity
  8
micon
  6
ByLayer
 62
  256
370
   -1
100
AcDbLine
 10
16.50499999999632
 20
99.50000000000057
 11
17.13999999999777
 21
99.50000000000057
  0
LINE
  5
10D
100
AcDbEntity
  8
micon
  6
ByLayer
 62
  256
370
   -1
100
AcDbLine
 10
16.50499999999632
 20
102.0400000000006
 11
17.13999999999777
 21
102.0400000000006
  0
LINE
  5
10E
100
AcDbEntity
  8
micon
  6
ByLayer
 62
  256
370
   -1
100
AcDbLine
 10
16.50499999999632
 20
104.5800000000006
 11
17.13999999999777
 21
104.5800000000006
  0
LINE
  5
10F
100
AcDbEntity
  8
micon
  6
ByLayer
 62
  256
370
   -1
100
AcDbLine
 10
16.50499999999632
 20
107.1200000000006
 11
17.13999999999777
 21
107.1200000000006
  0
LINE
  5
110
100
AcDbEntity
  8
micon
  6
ByLayer
 62
  256
370
   -1
100
AcDbLine
 10
16.50499999999632
 20
109.6600000000007
 11
17.13999999999777
 21
109.6600000000007
  0
LINE
  5
111
100
AcDbEntity
  8
micon
  6
ByLayer
 62
  256
370
   -1
100
AcDbLine
 10
16.50499999999632
 20
112.2000000000007
 11
17.13999999999777
 21
112.2000000000007
  0
LINE
  5
112
100
AcDbEntity
  8
micon
  6
ByLayer
 62
  256
370
   -1
100
AcDbLine
 10
16.50499999999632
 20
114.7400000000007
 11
17.13999999999777
 21
114.7400000000007
  0
ARC
  5
113
100
AcDbEntity
  8
micon
  6
ByLayer
 62
  256
370
   -1
100
AcDbCircle
 10
13.32999999999623
 20
116.6450000000008
 40
1.27
100
AcDbArc
 50
179.9999999999987
 51
0
  0
LINE
  5
114
100
AcDbEntity
  8
socket_header
  6
ByLayer
 62
  256
370
   -1
100
AcDbLine
 10
8.249999999996916
 20
116.01
 11
8.249999999996916
 21
98.22999999999988
  0
LINE
  5
115
100
AcDbEntity
  8
socket_header
  6
ByLayer
 62
  256
370
   -1
100
AcDbLine
 10
18.40999999999644
 20
116.01
 11
8.249999999996916
 21
116.01
  0
LINE
  5
116
100
AcDbEntity
  8
socket_header
  6
ByLayer
 62
  256
370
   -1
100
AcDbLine
 10
10.78999999999679
 20
116.01
 11
10.78999999999679
 21
98.22999999999988
  0
LINE
  5
117
100
AcDbEntity
  8
socket_header
  6
ByLayer
 62
  256
370
   -1
100
AcDbLine
 10
10.78999999999679
 20
113.4699999999999
 11
8.249999999996916
 21
113.4699999999999
  0
LINE
  5
118
100
AcDbEntity
  8
socket_header
  6
ByLayer
 62
  256
370
   -1
100
AcDbLine
 10
10.78999999999679
 20
110.93
 11
8.249999999996916
 21
110.93
  0
LINE
  5
119
100
AcDbEntity
  8
socket_header
  6
ByLayer
 62
  256
370
   -1
100
AcDbLine
 10
10.78999999999679
 20
108.39
 11
8.249999999996916
 21
108.39
  0
LINE
  5
11A
100
AcDbEntity
  8
socket_header
  6
ByLayer
 62
  256
370
   -1
100
AcDbLine
 10
10.78999999999679
 20
105.85
 11
8.249999999996916
 21
105.85
  0
LINE
  5
11B
100
AcDbEntity
  8
socket_header
  6
ByLayer
 62
  256
370
   -1
100
AcDbLine
 10
10.78999999999679
 20
103.3099999999999
 11
8.249999999996916
 21
103.3099999999999
  0
LINE
  5
11C
100
AcDbEntity
  8
socket_header
  6
ByLayer
 62
  256
370
   -1
100
AcDbLine
 10
10.78999999999679
 20
100.7699999999999
 11
8.249999999996916
 21
100.7699999999999
  0
LINE
  5
11D
100
AcDbEntity
  8
socket_header
  6
ByLayer
 62
  256
370
   -1
100
AcDbLine
 10
18.40999999999644
 20
113.4699999999999
 11
15.86999999999655
 21
113.4699999999999
  0
LINE
  5
11E
100
AcDbEntity
  8
socket_header
  6
ByLayer
 62
  256
370
   -1
100
AcDbLine
 10
18.40999999999644
 20
110.93
 11
15.86999999999655
 21
110.93
  0
LINE
  5
11F
100
AcDbEntity
  8
socket_header
  6
ByLayer
 62
  256
370
   -1
100
AcDbLine
 10
18.40999999999644
 20
108.39
 11
15.86999999999655
 21
108.39
  0
LINE
  5
120
100
AcDbEntity
  8
socket_header
  6
ByLayer
 62
  256
370
   -1
100
AcDbLine
 10
18.40999999999644
 20
105.85
 11
15.86999999999655
 21
105.85
  0
LINE
  5
121
100
AcDbEntity
  8
socket_header
  6
ByLayer
 62
  256
370
   -1
100
AcDbLine
 10
18.40999999999644
 20
103.3099999999999
 11
15.86999999999655
 21
103.3099999999999
  0
LINE
  5
122
100
AcDbEntity
  8
socket_header
  6
ByLayer
 62
  256
370
   -1
100
AcDbLine
 10
18.40999999999644
 20
100.7699999999999
 11
15.86999999999655
 21
100.7699999999999
  0
LINE
  5
123
100
AcDbEntity
  8
micon
  6
ByLayer
 62
  256
370
   -1
100
AcDbLine
 10
10.15499999999613
 20
116.6450000000008
 11
16.50499999999632
 21
116.6450000000008
  0
LINE
  5
124
100
AcDbEntity
  8
socket_header
  6
ByLayer
 62
  256
370
   -1
100
AcDbLine
 10
15.86999999999657
 20
100.7699999999999
 11
15.86999999999657
 21
116.01
  0
LINE
  5
125
100
AcDbEntity
  8
socket_header
  6
ByLayer
 62
  256
370
   -1
100
AcDbLine
 10
15.86999999999655
 20
100.7699999999999
 11
15.86999999999655
 21
98.22999999999988
  0
LINE
  5
126
100
AcDbEntity
  8
socket_header
  6
ByLayer
 62
  256
370
   -1
100
AcDbLine
 10
8.249999999996916
 20
98.22999999999988
 11
15.86999999999655
 21
98.22999999999988
  0
LINE
  5
127
100
AcDbEntity
  8
socket_header
  6
ByLayer
 62
  256
370
   -1
100
AcDbLine
 10
15.86999999999655
 20
98.22999999999988
 11
18.40999999999644
 21
98.22999999999988
  0
LINE
  5
128
100
AcDbEntity
  8
socket_header
  6
ByLayer
 62
  256
370
   -1
100
AcDbLine
 10
8.249999999996859
 20
116.01
 11
8.249999999996859
 21
113.47
  0
LINE
  5
129
100
AcDbEntity
  8
socket_header
  6
ByLayer
 62
  256
370
   -1
100
AcDbLine
 10
8.249999999996879
 20
113.47
 11
8.249999999996879
 21
110.93
  0
LINE
  5
12A
100
AcDbEntity
  8
socket_header
  6
ByLayer
 62
  256
370
   -1
100
AcDbLine
 10
8.249999999996879
 20
108.39
 11
8.249999999996879
 21
105.8499999999999
  0
LINE
  5
12B
100
AcDbEntity
  8
micon
  6
ByLayer
 62
  256
370
   -1
100
AcDbLine
 10
10.15499999999961
 20
97.59500000000045
 11
16.50499999999961
 21
97.59500000000045
  0
LINE
  5
12C
100
AcDbEntity
  8
0_wire
  6
ByLayer
 62
  256
370
   -1
100
AcDbLine
 10
14.59999999999795
 20
109.6600000000006
 11
17.13999999999783
 21
109.6600000000006
  0
LINE
  5
12D
100
AcDbEntity
  8
0_GND
  6
ByLayer
 62
  256
370
   -1
100
AcDbLine
 10
14.59999999999787
 20
127.4400000000008
 11
9.519999999998102
 21
127.4400000000008
  0
LINE
  5
12E
100
AcDbEntity
  8
0_GND
  6
ByLayer
 62
  256
370
   -1
100
AcDbLine
 10
14.59999999999787
 20
127.4400000000008
 11
14.59999999999787
 21
129.9800000000008
  0
LINE
  5
12F
100
AcDbEntity
  8
0_GND
  6
ByLayer
 62
  256
370
   -1
100
AcDbLine
 10
9.51999999999811
 20
129.9800000000008
 11
9.519999999998117
 21
127.4400000000007
  0
LINE
  5
130
100
AcDbEntity
  8
0_GND
  6
ByLayer
 62
  256
370
   -1
100
AcDbLine
 10
9.519999999998117
 20
127.4400000000007
 11
9.519999999998127
 21
124.9000000000007
  0
LINE
  5
131
100
AcDbEntity
  8
0_GND
  6
ByLayer
 62
  256
370
   -1
100
AcDbLine
 10
9.51999999999811
 20
129.9800000000008
 11
6.979999999998239
 21
129.9800000000007
  0
CIRCLE
  5
132
100
AcDbEntity
  8
terminal
  6
ByLayer
 62
  256
370
   -1
100
AcDbCircle
 10
12.07999999999657
 20
122.9
 40
0.46
  0
CIRCLE
  5
133
100
AcDbEntity
  8
terminal
  6
ByLayer
 62
  256
370
   -1
100
AcDbCircle
 10
14.57999999999864
 20
122.8999998922258
 40
0.46
  0
CIRCLE
  5
134
100
AcDbEntity
  8
terminal
  6
ByLayer
 62
  256
370
   -1
100
AcDbCircle
 10
12.07999999999657
 20
124.9000000000008
 40
0.46
  0
CIRCLE
  5
135
100
AcDbEntity
  8
terminal
  6
ByLayer
 62
  256
370
   -1
100
AcDbCircle
 10
14.57999999999864
 20
124.8999998922266
 40
0.46
  0
CIRCLE
  5
136
100
AcDbEntity
  8
terminal
  6
ByLayer
 62
  256
370
   -1
100
AcDbCircle
 10
7.30999999999802
 20
127.6000000000008
 40
1.15
  0
CIRCLE
  5
137
100
AcDbEntity
  8
terminal
  6
ByLayer
 62
  256
370
   -1
100
AcDbCircle
 10
19.34999999999717
 20
127.6000000000008
 40
1.15
  0
LINE
  5
138
100
AcDbEntity
  8
terminal
  6
ByLayer
 62
  256
370
   -1
100
AcDbLine
 10
7.310001529862298
 20
137.8800000000008
 11
7.310001529862298
 21
121.8800000000008
  0
LINE
  5
139
100
AcDbEntity
  8
terminal
  6
ByLayer
 62
  256
370
   -1
100
AcDbLine
 10
7.310001529862298
 20
121.8800000000008
 11
19.35000152986183
 21
121.8800000000008
  0
LINE
  5
13A
100
AcDbEntity
  8
terminal
  6
ByLayer
 62
  256
370
   -1
100
AcDbLine
 10
19.35000152986183
 20
121.8800000000008
 11
19.35000152986183
 21
137.8800000000008
  0
LINE
  5
13B
100
AcDbEntity
  8
terminal
  6
ByLayer
 62
  256
370
   -1
100
AcDbLine
 10
19.35000152986183
 20
137.8800000000008
 11
7.310001529862298
 21
137.8800000000008
  0
MTEXT
  5
13C
100
AcDbEntity
  8
terminal
  6
ByLayer
 62
  256
370
   -1
100
AcDbMText
 10
9.21029850957358
 20
124.0826957156342
 30
0
 40
1
 41
2.333333333333519
 71
    5
 72
    1
  1
GND\PV
  7
iso
210
0
220
0
230
1
 50
0
 73
    2
 44
1.54
  0
MTEXT
  5
13D
100
AcDbEntity
  8
terminal
  6
ByLayer
 62
  256
370
   -1
100
AcDbMText
 10
17.4014738644947
 20
124.2310865735132
 30
0
 40
1
 41
1.333333333333395
 71
    5
 72
    1
  1
D+\PD-
  7
iso
210
0
220
0
230
1
 50
0
 73
    2
 44
1.54
  0
LINE
  5
13E
100
AcDbEntity
  8
0_wire
  6
ByLayer
 62
  256
370
   -1
100
AcDbLine
 10
14.59999999999788
 20
124.9000000000007
 11
17.13999999999777
 21
124.9000000000007
  0
LINE
  5
13F
100
AcDbEntity
  8
0_GND
  6
ByLayer
 62
  256
370
   -1
100
AcDbLine
 10
14.59999999999787
 20
129.9800000000008
 11
19.67999999999765
 21
129.9800000000008
  0
LINE
  5
140
100
AcDbEntity
  8
0_GND
  6
ByLayer
 62
  256
370
   -1
100
AcDbLine
 10
12.05999999999799
 20
127.4400000000007
 11
12.059999999998
 21
124.9000000000007
  0
MTEXT
  5
141
100
AcDbEntity
  8
terminal
  6
ByLayer
 62
  256
370
   -1
100
AcDbMText
 10
14.08783487281888
 20
136.7562929632779
 30
0
 40
1
 41
0.8888888888889508
 71
    5
 72
    1
  1
J1
  7
iso
210
0
220
0
230
1
 50
0
 73
    2
 44
1.54
  0
LINE
  5
142
100
AcDbEntity
  8
0_GND
  6
ByLayer
 62
  256
370
   -1
100
AcDbLine
 10
14.59999999999787
 20
129.9800000000008
 11
9.519999999998124
 21
129.9800000000007
  0
LINE
  5
143
100
AcDbEntity
  8
0_GND
  6
ByLayer
 62
  256
370
   -1
100
AcDbLine
 10
6.979999999998257
 20
122.3600000000007
 11
6.979999999998248
 21
124.9000000000007
  0
LINE
  5
144
100
AcDbEntity
  8
0_GND
  6
ByLayer
 62
  256
370
   -1
100
AcDbLine
 10
14.59999999999787
 20
127.4400000000008
 11
17.13999999999776
 21
127.4400000000008
  0
LINE
  5
145
100
AcDbEntity
  8
0_GND
  6
ByLayer
 62
  256
370
   -1
100
AcDbLine
 10
19.67999999999765
 20
129.9800000000008
 11
22.21999999999753
 21
129.9800000000008
  0
LINE
  5
146
100
AcDbEntity
  8
0_GND
  6
ByLayer
 62
  256
370
   -1
100
AcDbLine
 10
22.21999999999753
 20
129.9800000000008
 11
22.21999999999754
 21
124.9000000000007
  0
LINE
  5
147
100
AcDbEntity
  8
5V line
  6
ByLayer
 62
  256
370
   -1
100
AcDbLine
 10
9.519999999998149
 20
119.8200000000007
 11
9.519999999998159
 21
114.7400000000006
  0
LINE
  5
148
100
AcDbEntity
  8
5V line
  6
ByLayer
 62
  256
370
   -1
100
AcDbLine
 10
9.519999999998159
 20
114.7400000000006
 11
6.979999999998287
 21
114.7400000000006
  0
LINE
  5
149
100
AcDbEntity
  8
0_wire
  6
ByLayer
 62
  256
370
   -1
100
AcDbLine
 10
14.5999999999979
 20
122.3600000000007
 11
14.59999999999791
 21
119.8200000000007
  0
LINE
  5
14A
100
AcDbEntity
  8
0_wire
  6
ByLayer
 62
  256
370
   -1
100
AcDbLine
 10
17.13999999999778
 20
124.9000000000007
 11
17.1399999999978
 21
117.2800000000007
  0
LINE
  5
14B
100
AcDbEntity
  8
0_wire
  6
ByLayer
 62
  256
370
   -1
100
AcDbLine
 10
17.1399999999978
 20
117.2800000000007
 11
14.59999999999792
 21
117.2800000000007
  0
LINE
  5
14C
100
AcDbEntity
  8
0_wire
  6
ByLayer
 62
  256
370
   -1
100
AcDbLine
 10
14.59999999999795
 20
112.2000000000006
 11
17.13999999999783
 21
112.2000000000006
  0
LINE
  5
14D
100
AcDbEntity
  8
0_GND
  6
ByLayer
 62
  256
370
   -1
100
AcDbLine
 10
22.21999999999754
 20
124.9000000000007
 11
19.67999999999766
 21
124.9000000000007
  0
LINE
  5
14E
100
AcDbEntity
  8
0_GND
  6
ByLayer
 62
  256
370
   -1
100
AcDbLine
 10
19.67999999999766
 20
124.9000000000007
 11
19.6799999999977
 21
114.7400000000006
  0
LINE
  5
14F
100
AcDbEntity
  8
0_GND
  6
ByLayer
 62
  256
370
   -1
100
AcDbLine
 10
19.6799999999977
 20
114.7400000000006
 11
17.13999999999782
 21
114.7400000000006
  0
LINE
  5
150
100
AcDbEntity
  8
3.3V line
  6
ByLayer
 62
  256
370
   -1
100
AcDbLine
 10
17.13999999999783
 20
107.1200000000006
 11
19.67999999999771
 21
107.1200000000006
  0
LINE
  5
151
100
AcDbEntity
  8
socket_header
  6
ByLayer
 62
  256
370
   -1
100
AcDbLine
 10
8.249999999996852
 20
116.01
 11
8.249999999996852
 21
113.47
  0
LINE
  5
152
100
AcDbEntity
  8
socket_header
  6
ByLayer
 62
  256
370
   -1
100
AcDbLine
 10
5.709999999996966
 20
116.01
 11
5.709999999996966
 21
113.47
  0
LINE
  5
153
100
AcDbEntity
  8
socket_header
  6
ByLayer
 62
  256
370
   -1
100
AcDbLine
 10
5.709999999996966
 20
113.47
 11
8.249999999996852
 21
113.47
  0
LINE
  5
154
100
AcDbEntity
  8
socket_header
  6
ByLayer
 62
  256
370
   -1
100
AcDbLine
 10
5.709999999996954
 20
116.01
 11
8.249999999996842
 21
116.01
  0
LINE
  5
155
100
AcDbEntity
  8
socket_header
  6
ByLayer
 62
  256
370
   -1
100
AcDbLine
 10
8.249999999996863
 20
113.47
 11
8.249999999996863
 21
110.9299999999999
  0
LINE
  5
156
100
AcDbEntity
  8
socket_header
  6
ByLayer
 62
  256
370
   -1
100
AcDbLine
 10
5.709999999996977
 20
113.47
 11
5.709999999996977
 21
110.9299999999999
  0
LINE
  5
157
100
AcDbEntity
  8
socket_header
  6
ByLayer
 62
  256
370
   -1
100
AcDbLine
 10
5.709999999996977
 20
110.9299999999999
 11
8.249999999996863
 21
110.9299999999999
  0
LINE
  5
158
100
AcDbEntity
  8
socket_header
  6
ByLayer
 62
  256
370
   -1
100
AcDbLine
 10
5.709999999996965
 20
113.4699999999999
 11
8.249999999996852
 21
113.4699999999999
  0
LINE
  5
159
100
AcDbEntity
  8
socket_header
  6
ByLayer
 62
  256
370
   -1
100
AcDbLine
 10
8.249999999996881
 20
105.8499999999999
 11
8.249999999996881
 21
103.3099999999999
  0
LINE
  5
15A
100
AcDbEntity
  8
socket_header
  6
ByLayer
 62
  256
370
   -1
100
AcDbLine
 10
5.709999999996995
 20
105.8499999999999
 11
5.709999999996995
 21
103.3099999999999
  0
LINE
  5
15B
100
AcDbEntity
  8
socket_header
  6
ByLayer
 62
  256
370
   -1
100
AcDbLine
 10
5.709999999996995
 20
103.3099999999999
 11
8.249999999996881
 21
103.3099999999999
  0
LINE
  5
15C
100
AcDbEntity
  8
socket_header
  6
ByLayer
 62
  256
370
   -1
100
AcDbLine
 10
5.709999999996985
 20
105.8499999999999
 11
8.24999999999687
 21
105.8499999999999
  0
LINE
  5
15D
100
AcDbEntity
  8
socket_header
  6
ByLayer
 62
  256
370
   -1
100
AcDbLine
 10
8.249999999996891
 20
103.3099999999999
 11
8.249999999996891
 21
100.7699999999999
  0
LINE
  5
15E
100
AcDbEntity
  8
socket_header
  6
ByLayer
 62
  256
370
   -1
100
AcDbLine
 10
5.709999999997007
 20
103.3099999999999
 11
5.709999999997007
 21
100.7699999999999
  0
LINE
  5
15F
100
AcDbEntity
  8
socket_header
  6
ByLayer
 62
  256
370
   -1
100
AcDbLine
 10
5.709999999997007
 20
100.7699999999999
 11
8.249999999996891
 21
100.7699999999999
  0
LINE
  5
160
100
AcDbEntity
  8
socket_header
  6
ByLayer
 62
  256
370
   -1
100
AcDbLine
 10
5.709999999996995
 20
103.3099999999999
 11
8.249999999996881
 21
103.3099999999999
  0
LINE
  5
161
100
AcDbEntity
  8
socket_header
  6
ByLayer
 62
  256
370
   -1
100
AcDbLine
 10
8.249999999996902
 20
100.7699999999999
 11
8.249999999996902
 21
98.22999999999985
  0
LINE
  5
162
100
AcDbEntity
  8
socket_header
  6
ByLayer
 62
  256
370
   -1
100
AcDbLine
 10
5.709999999997017
 20
100.7699999999999
 11
5.709999999997017
 21
98.22999999999985
  0
LINE
  5
163
100
AcDbEntity
  8
socket_header
  6
ByLayer
 62
  256
370
   -1
100
AcDbLine
 10
5.709999999997017
 20
98.22999999999985
 11
8.249999999996902
 21
98.22999999999985
  0
LINE
  5
164
100
AcDbEntity
  8
socket_header
  6
ByLayer
 62
  256
370
   -1
100
AcDbLine
 10
5.709999999997006
 20
100.7699999999998
 11
8.249999999996891
 21
100.7699999999998
  0
LINE
  5
165
100
AcDbEntity
  8
socket_header
  6
ByLayer
 62
  256
370
   -1
100
AcDbLine
 10
8.24999999999687
 20
110.9299999999999
 11
8.24999999999687
 21
108.3899999999999
  0
LINE
  5
166
100
AcDbEntity
  8
socket_header
  6
ByLayer
 62
  256
370
   -1
100
AcDbLine
 10
5.709999999996985
 20
110.9299999999999
 11
5.709999999996985
 21
108.3899999999999
  0
LINE
  5
167
100
AcDbEntity
  8
socket_header
  6
ByLayer
 62
  256
370
   -1
100
AcDbLine
 10
5.709999999996985
 20
108.3899999999999
 11
8.24999999999687
 21
108.3899999999999
  0
LINE
  5
168
100
AcDbEntity
  8
socket_header
  6
ByLayer
 62
  256
370
   -1
100
AcDbLine
 10
5.709999999996973
 20
110.9299999999999
 11
8.249999999996859
 21
110.9299999999999
  0
LINE
  5
169
100
AcDbEntity
  8
socket_header
  6
ByLayer
 62
  256
370
   -1
100
AcDbLine
 10
8.249999999996877
 20
108.3899999999999
 11
8.249999999996877
 21
105.8499999999999
  0
LINE
  5
16A
100
AcDbEntity
  8
socket_header
  6
ByLayer
 62
  256
370
   -1
100
AcDbLine
 10
5.709999999996993
 20
108.3899999999999
 11
5.709999999996993
 21
105.8499999999999
  0
LINE
  5
16B
100
AcDbEntity
  8
socket_header
  6
ByLayer
 62
  256
370
   -1
100
AcDbLine
 10
5.709999999996993
 20
105.8499999999999
 11
8.249999999996877
 21
105.8499999999999
  0
LINE
  5
16C
100
AcDbEntity
  8
socket_header
  6
ByLayer
 62
  256
370
   -1
100
AcDbLine
 10
5.709999999996981
 20
108.3899999999999
 11
8.249999999996867
 21
108.3899999999999
  0
LINE
  5
16D
100
AcDbEntity
  8
socket_header
  6
ByLayer
 62
  256
370
   -1
100
AcDbLine
 10
20.94999999999632
 20
103.3099999999999
 11
20.94999999999632
 21
100.7699999999999
  0
LINE
  5
16E
100
AcDbEntity
  8
socket_header
  6
ByLayer
 62
  256
370
   -1
100
AcDbLine
 10
20.9499999999963
 20
105.8499999999999
 11
20.9499999999963
 21
103.3099999999999
  0
LINE
  5
16F
100
AcDbEntity
  8
socket_header
  6
ByLayer
 62
  256
370
   -1
100
AcDbLine
 10
20.94999999999628
 20
108.3899999999999
 11
20.94999999999628
 21
105.8499999999999
  0
LINE
  5
170
100
AcDbEntity
  8
socket_header
  6
ByLayer
 62
  256
370
   -1
100
AcDbLine
 10
20.94999999999628
 20
116.01
 11
20.94999999999628
 21
113.47
  0
LINE
  5
171
100
AcDbEntity
  8
socket_header
  6
ByLayer
 62
  256
370
   -1
100
AcDbLine
 10
20.94999999999632
 20
100.7699999999999
 11
20.94999999999632
 21
98.22999999999985
  0
LINE
  5
172
100
AcDbEntity
  8
socket_header
  6
ByLayer
 62
  256
370
   -1
100
AcDbLine
 10
23.4899999999962
 20
103.3099999999999
 11
20.94999999999632
 21
103.3099999999999
  0
LINE
  5
173
100
AcDbEntity
  8
socket_header
  6
ByLayer
 62
  256
370
   -1
100
AcDbLine
 10
23.4899999999962
 20
103.3099999999999
 11
23.4899999999962
 21
100.7699999999999
  0
LINE
  5
174
100
AcDbEntity
  8
socket_header
  6
ByLayer
 62
  256
370
   -1
100
AcDbLine
 10
20.94999999999632
 20
100.7699999999999
 11
23.4899999999962
 21
100.7699999999999
  0
LINE
  5
175
100
AcDbEntity
  8
socket_header
  6
ByLayer
 62
  256
370
   -1
100
AcDbLine
 10
23.48999999999618
 20
105.8499999999999
 11
20.9499999999963
 21
105.8499999999999
  0
LINE
  5
176
100
AcDbEntity
  8
socket_header
  6
ByLayer
 62
  256
370
   -1
100
AcDbLine
 10
23.48999999999618
 20
105.8499999999999
 11
23.48999999999618
 21
103.3099999999999
  0
LINE
  5
177
100
AcDbEntity
  8
socket_header
  6
ByLayer
 62
  256
370
   -1
100
AcDbLine
 10
20.9499999999963
 20
103.3099999999999
 11
23.48999999999618
 21
103.3099999999999
  0
LINE
  5
178
100
AcDbEntity
  8
socket_header
  6
ByLayer
 62
  256
370
   -1
100
AcDbLine
 10
23.48999999999616
 20
108.3899999999999
 11
20.94999999999628
 21
108.3899999999999
  0
LINE
  5
179
100
AcDbEntity
  8
socket_header
  6
ByLayer
 62
  256
370
   -1
100
AcDbLine
 10
23.48999999999616
 20
108.3899999999999
 11
23.48999999999616
 21
105.8499999999999
  0
LINE
  5
17A
100
AcDbEntity
  8
socket_header
  6
ByLayer
 62
  256
370
   -1
100
AcDbLine
 10
20.94999999999628
 20
105.8499999999999
 11
23.48999999999616
 21
105.8499999999999
  0
LINE
  5
17B
100
AcDbEntity
  8
socket_header
  6
ByLayer
 62
  256
370
   -1
100
AcDbLine
 10
23.48999999999616
 20
110.93
 11
23.48999999999616
 21
108.39
  0
LINE
  5
17C
100
AcDbEntity
  8
socket_header
  6
ByLayer
 62
  256
370
   -1
100
AcDbLine
 10
20.94999999999628
 20
108.39
 11
23.48999999999616
 21
108.39
  0
LINE
  5
17D
100
AcDbEntity
  8
socket_header
  6
ByLayer
 62
  256
370
   -1
100
AcDbLine
 10
20.94999999999628
 20
110.93
 11
23.48999999999616
 21
110.93
  0
LINE
  5
17E
100
AcDbEntity
  8
socket_header
  6
ByLayer
 62
  256
370
   -1
100
AcDbLine
 10
23.48999999999616
 20
113.47
 11
23.48999999999616
 21
110.93
  0
LINE
  5
17F
100
AcDbEntity
  8
socket_header
  6
ByLayer
 62
  256
370
   -1
100
AcDbLine
 10
20.94999999999628
 20
113.47
 11
20.94999999999628
 21
110.93
  0
LINE
  5
180
100
AcDbEntity
  8
socket_header
  6
ByLayer
 62
  256
370
   -1
100
AcDbLine
 10
20.94999999999628
 20
110.93
 11
23.48999999999616
 21
110.93
  0
LINE
  5
181
100
AcDbEntity
  8
socket_header
  6
ByLayer
 62
  256
370
   -1
100
AcDbLine
 10
20.94999999999628
 20
113.47
 11
23.48999999999616
 21
113.47
  0
LINE
  5
182
100
AcDbEntity
  8
socket_header
  6
ByLayer
 62
  256
370
   -1
100
AcDbLine
 10
23.48999999999616
 20
116.01
 11
23.48999999999616
 21
113.47
  0
LINE
  5
183
100
AcDbEntity
  8
socket_header
  6
ByLayer
 62
  256
370
   -1
100
AcDbLine
 10
20.94999999999628
 20
113.47
 11
23.48999999999616
 21
113.47
  0
LINE
  5
184
100
AcDbEntity
  8
socket_header
  6
ByLayer
 62
  256
370
   -1
100
AcDbLine
 10
20.94999999999628
 20
116.01
 11
23.48999999999616
 21
116.01
  0
LINE
  5
185
100
AcDbEntity
  8
socket_header
  6
ByLayer
 62
  256
370
   -1
100
AcDbLine
 10
23.4899999999962
 20
100.7699999999999
 11
23.4899999999962
 21
98.22999999999985
  0
LINE
  5
186
100
AcDbEntity
  8
socket_header
  6
ByLayer
 62
  256
370
   -1
100
AcDbLine
 10
20.94999999999632
 20
98.22999999999985
 11
23.4899999999962
 21
98.22999999999985
  0
LINE
  5
187
100
AcDbEntity
  8
socket_header
  6
ByLayer
 62
  256
370
   -1
100
AcDbLine
 10
20.9499999999963
 20
100.7699999999999
 11
23.48999999999618
 21
100.7699999999999
  0
LINE
  5
188
100
AcDbEntity
  8
socket_header
  6
ByLayer
 62
  256
370
   -1
100
AcDbLine
 10
18.40999999999644
 20
100.7699999999999
 11
18.40999999999644
 21
116.01
  0
LINE
  5
189
100
AcDbEntity
  8
socket_header
  6
ByLayer
 62
  256
370
   -1
100
AcDbLine
 10
18.40999999999644
 20
100.7699999999999
 11
18.40999999999644
 21
98.22999999999988
  0
LINE
  5
18A
100
AcDbEntity
  8
socket_header
  6
ByLayer
 62
  256
370
   -1
100
AcDbLine
 10
20.94999999999628
 20
110.93
 11
20.94999999999628
 21
108.39
  0
LINE
  5
18B
100
AcDbEntity
  8
condenser
  6
ByLayer
 62
  256
370
   -1
100
AcDbLine
 10
6.499999999997513
 20
118.1800000000006
 11
6.499999999997513
 21
116.3799999999998
  0
LINE
  5
18C
100
AcDbEntity
  8
condenser
  6
ByLayer
 62
  256
370
   -1
100
AcDbLine
 10
6.499999999997513
 20
116.3799999999998
 11
9.999999999998025
 21
116.3799999999998
  0
LINE
  5
18D
100
AcDbEntity
  8
condenser
  6
ByLayer
 62
  256
370
   -1
100
AcDbLine
 10
9.999999999998025
 20
116.3799999999998
 11
9.999999999998025
 21
118.1800000000006
  0
LINE
  5
18E
100
AcDbEntity
  8
condenser
  6
ByLayer
 62
  256
370
   -1
100
AcDbLine
 10
9.999999999998025
 20
118.1800000000006
 11
6.499999999997513
 21
118.1800000000006
  0
LINE
  5
18F
100
AcDbEntity
  8
condenser
  6
ByLayer
 62
  256
370
   -1
100
AcDbLine
 10
9.519999999997836
 20
117.2800000000005
 11
9.999999999998025
 21
117.2800000000005
  0
LINE
  5
190
100
AcDbEntity
  8
condenser
  6
ByLayer
 62
  256
370
   -1
100
AcDbLine
 10
6.499999999997513
 20
117.2800000000005
 11
6.979999999998014
 21
117.2800000000005
  0
LINE
  5
191
100
AcDbEntity
  8
0_GND
  6
ByLayer
 62
  256
370
   -1
100
AcDbLine
 10
19.6799999999977
 20
114.7400000000006
 11
22.21999999999758
 21
114.7400000000006
  0
LINE
  5
192
100
AcDbEntity
  8
0_wire
  6
ByLayer
 62
  256
370
   -1
100
AcDbLine
 10
17.13999999999784
 20
104.5800000000006
 11
22.2199999999976
 21
104.5800000000006
  0
LINE
  5
193
100
AcDbEntity
  8
0_wire
  6
ByLayer
 62
  256
370
   -1
100
AcDbLine
 10
17.13999999999784
 20
102.0400000000006
 11
22.21999999999761
 21
102.0400000000006
  0
LINE
  5
194
100
AcDbEntity
  8
0_GND
  6
ByLayer
 62
  256
370
   -1
100
AcDbLine
 10
6.979999999998266
 20
122.3600000000007
 11
6.979999999998276
 21
117.2800000000006
  0
LINE
  5
195
100
AcDbEntity
  8
0_GND
  6
ByLayer
 62
  256
370
   -1
100
AcDbLine
 10
9.519999999998127
 20
124.9000000000007
 11
6.979999999998257
 21
124.9000000000007
  0
LINE
  5
196
100
AcDbEntity
  8
5V line
  6
ByLayer
 62
  256
370
   -1
100
AcDbLine
 10
12.05999999999802
 20
122.3600000000007
 11
9.519999999998138
 21
122.3600000000007
  0
LINE
  5
197
100
AcDbEntity
  8
5V line
  6
ByLayer
 62
  256
370
   -1
100
AcDbLine
 10
9.519999999998138
 20
122.3600000000007
 11
9.519999999998149
 21
119.8200000000007
  0
LINE
  5
198
100
AcDbEntity
  8
0_wire
  6
ByLayer
 62
  256
370
   -1
100
AcDbLine
 10
14.59999999999792
 20
119.8200000000007
 11
12.05999999999803
 21
119.8200000000007
  0
LINE
  5
199
100
AcDbEntity
  8
0_wire
  6
ByLayer
 62
  256
370
   -1
100
AcDbLine
 10
12.05999999999803
 20
119.8200000000007
 11
12.05999999999803
 21
117.2800000000007
  0
LINE
  5
19A
100
AcDbEntity
  8
0_GND
  6
ByLayer
 62
  256
370
   -1
100
AcDbLine
 10
22.21999999999758
 20
114.7400000000006
 11
22.21999999999759
 21
109.6600000000006
  0
LINE
  5
19B
100
AcDbEntity
  8
universal_board
  6
ByLayer
 62
  256
370
   -1
100
AcDbLine
 10
5.709999999998445
 20
98.23000000000037
 11
23.48999999999761
 21
98.23000000000039
  0
LINE
  5
19C
100
AcDbEntity
  8
universal_board
  6
ByLayer
 62
  256
370
   -1
100
AcDbLine
 10
5.709999999998431
 20
131.2500000000006
 11
23.48999999999761
 21
131.2500000000006
  0
LINE
  5
19D
100
AcDbEntity
  8
universal_board
  6
ByLayer
 62
  256
370
   -1
100
AcDbLine
 10
5.709999999998438
 20
131.2500000000006
 11
5.709999999998438
 21
98.23000000000039
  0
LINE
  5
19E
100
AcDbEntity
  8
universal_board
  6
ByLayer
 62
  256
370
   -1
100
AcDbLine
 10
23.48999999999761
 20
131.2500000000006
 11
23.48999999999761
 21
98.23000000000039
  0
MTEXT
  5
19F
100
AcDbEntity
  8
universal_board
  6
ByLayer
 62
  256
370
   -1
100
AcDbMText
 10
7.032614946964868
 20
133.0134299557313
 30
0
 40
1
 41
1.111111111111111
 71
    4
 72
    1
  1
B1
  7
unicode
210
0
220
0
230
1
 50
0
 73
    2
 44
1.54
  0
MTEXT
  5
1A0
100
AcDbEntity
  8
socket_header
  6
ByLayer
 62
  256
370
   -1
100
AcDbMText
 10
9.28444521285153
 20
97.51411296185387
 30
0
 40
1
 41
1.112312546778522
 71
    5
 72
    1
  1
S1
  7
unicode
210
0
220
0
230
1
 50
0
 73
    2
 44
1
  0
MTEXT
  5
1A1
100
AcDbEntity
  8
micon
  6
ByLayer
 62
  256
370
   -1
100
AcDbMText
 10
10.49912711716366
 20
115.8726733104398
 30
0
 40
1
 41
1.111111111111111
 71
    4
 72
    1
  1
U1
  7
iso
210
0
220
0
230
1
 50
0
 73
    2
 44
1.54
  0
MTEXT
  5
1A2
100
AcDbEntity
  8
condenser
  6
ByLayer
 62
  256
370
   -1
100
AcDbMText
 10
7.331069493746864
 20
117.3089845421183
 30
0
 40
1
 41
0.9999999999999999
 71
    4
 72
    1
  1
C1
  7
unicode
210
0
220
0
230
1
 50
0
 73
    2
 44
1.54
  0
MTEXT
  5
1A3
100
AcDbEntity
  8
socket_header
  6
ByLayer
 62
  256
370
   -1
100
AcDbMText
 10
5.913411803178453
 20
97.24874501772565
 30
0
 40
1
 41
1.334534769000745
 71
    4
 72
    1
  1
S2
  7
unicode
210
0
220
0
230
1
 50
0
 73
    2
 44
1.54
  0
MTEXT
  5
1A4
100
AcDbEntity
  8
socket_header
  6
ByLayer
 62
  256
370
   -1
100
AcDbMText
 10
21.50331564792165
 20
97.03371186124643
 30
0
 40
1
 41
1.334534769000745
 71
    4
 72
    1
  1
S3
  7
unicode
210
0
220
0
230
1
 50
0
 73
    2
 44
1.54
  0
SPLINE
  5
1A5
100
AcDbEntity
  8
resister
  6
DOTTINY
 62
  256
370
   -1
100
AcDbSpline
210
0
220
0
230
0
 70
    8
 71
    2
 72
    6
 73
    3
 74
    0
 42
1e-07
 43
1e-07
 40
0
 40
0
 40
0
 40
1
 40
1
 40
1
 10
14.59999999999792
 20
117.2800000000007
 30
0
 10
13.14627090094238
 20
114.7094780532016
 30
0
 10
14.59999999999795
 20
112.2000000000006
 30
0
  0
LINE
  5
1A6
100
AcDbEntity
  8
0_wire
  6
ByLayer
 62
  256
370
   -1
100
AcDbLine
 10
9.519999999998177
 20
112.2000000000006
 11
6.979999999998307
 21
112.2000000000006
  0
LINE
  5
1A7
100
AcDbEntity
  8
0_wire
  6
ByLayer
 62
  256
370
   -1
100
AcDbLine
 10
9.519999999998177
 20
109.6600000000006
 11
6.979999999998307
 21
109.6600000000006
  0
LINE
  5
1A8
100
AcDbEntity
  8
0_wire
  6
ByLayer
 62
  256
370
   -1
100
AcDbLine
 10
9.519999999998177
 20
107.1200000000006
 11
6.979999999998307
 21
107.1200000000005
  0
LINE
  5
1A9
100
AcDbEntity
  8
0_wire
  6
ByLayer
 62
  256
370
   -1
100
AcDbLine
 10
17.13999999999787
 20
99.50000000000051
 11
22.21999999999763
 21
99.50000000000051
  0
LINE
  5
1AA
100
AcDbEntity
  8
condenser
  6
ByLayer
 62
  256
370
   -1
100
AcDbLine
 10
20.82999999999902
 20
107.810000000003
 11
20.82999999999902
 21
111.5100000000028
  0
LINE
  5
1AB
100
AcDbEntity
  8
condenser
  6
ByLayer
 62
  256
370
   -1
100
AcDbLine
 10
20.82999999999902
 20
111.5100000000028
 11
18.52999999999637
 21
111.5100000000028
  0
LINE
  5
1AC
100
AcDbEntity
  8
condenser
  6
ByLayer
 62
  256
370
   -1
100
AcDbLine
 10
18.52999999999637
 20
111.5100000000028
 11
18.52999999999637
 21
107.810000000003
  0
LINE
  5
1AD
100
AcDbEntity
  8
condenser
  6
ByLayer
 62
  256
370
   -1
100
AcDbLine
 10
18.52999999999637
 20
107.810000000003
 11
20.82999999999902
 21
107.810000000003
  0
LINE
  5
1AE
100
AcDbEntity
  8
condenser
  6
ByLayer
 62
  256
370
   -1
100
AcDbLine
 10
19.6799999999977
 20
111.5100000000028
 11
19.6799999999977
 21
112.2000000000006
  0
LINE
  5
1AF
100
AcDbEntity
  8
condenser
  6
ByLayer
 62
  256
370
   -1
100
AcDbLine
 10
19.67999999999771
 20
107.1200000000006
 11
19.67999999999771
 21
107.810000000003
  0
LINE
  5
1B0
100
AcDbEntity
  8
0_GND
  6
ByLayer
 62
  256
370
   -1
100
AcDbLine
 10
19.6799999999977
 20
114.7400000000006
 11
19.67999999999771
 21
112.2000000000006
  0
LINE
  5
1B1
100
AcDbEntity
  8
0_wire
  6
ByLayer
 62
  256
370
   -1
100
AcDbLine
 10
9.519999999998181
 20
104.5800000000006
 11
6.979999999998272
 21
104.5800000000006
  0
LINE
  5
1B2
100
AcDbEntity
  8
0_wire
  6
ByLayer
 62
  256
370
   -1
100
AcDbLine
 10
9.519999999998186
 20
102.0400000000006
 11
6.979999999998272
 21
102.0400000000006
  0
LINE
  5
1B3
100
AcDbEntity
  8
0_wire
  6
ByLayer
 62
  256
370
   -1
100
AcDbLine
 10
9.519999999998191
 20
99.50000000000051
 11
6.979999999998271
 21
99.50000000000051
  0
MTEXT
  5
1B4
100
AcDbEntity
  8
condenser
  6
ByLayer
 62
  256
370
   -1
100
AcDbMText
 10
19.23765038938089
 20
110.578967154531
 30
0
 40
1
 41
1.222222222222222
 71
    4
 72
    1
  1
C2
  7
unicode
210
0
220
0
230
1
 50
0
 73
    2
 44
1.54
  0
MTEXT
  5
1B5
100
AcDbEntity
  8
condenser
  6
ByLayer
 62
  256
370
   -1
100
AcDbMText
 10
18.92645310367032
 20
108.862468674026
 30
0
 40
1
 41
3.735555555555555
 71
    4
 72
    1
  1

  7
kst32b
210
0
220
0
230
1
 50
0
 73
    2
 44
1.54
  0
MTEXT
  5
1B6
100
AcDbEntity
  8
socket_header
  6
ByLayer
 62
  256
370
   -1
100
AcDbMText
 10
-1.229301246363176
 20
107.0910508850997
 30
0
 40
1
 41
6.766666666666667
 71
    4
 72
    1
  1
5V\PTargetCLK\PTargetDAT\PProgRST\PRX\PTX\PTargetRST
  7
kst32b
210
0
220
0
230
1
 50
0
 73
    2
 44
1.54
  0
MTEXT
  5
1B7
100
AcDbEntity
  8
socket_header
  6
ByLayer
 62
  256
370
   -1
100
AcDbMText
 10
23.98824958409764
 20
107.0037649987277
 30
0
 40
1
 41
5.162222222222222
 71
    4
 72
    1
  1
GND\PGND\PGND\P3V3\PProgDAT\PProgCLK\PLED
  7
kst32b
210
0
220
0
230
1
 50
0
 73
    2
 44
1.54
  0
MTEXT
  5
1B8
100
AcDbEntity
  8
micon
  6
ByLayer
 62
  256
370
   -1
100
AcDbMText
 10
8.947935222491834
 20
107.4037303505281
 30
0
 40
1
 41
3.111111111111174
 71
    4
 72
    1
  1
VDD\PRA5\PRA4\PMCLR\PRC5\PRC4\PRC3
  7
iso
210
0
220
0
230
1
 50
0
 73
    2
 44
1.54
  0
MTEXT
  5
1B9
100
AcDbEntity
  8
micon
  6
ByLayer
 62
  256
370
   -1
100
AcDbMText
 10
14.95847612499691
 20
108.5806119493466
 30
0
 40
1
 41
2.33333333333352
 71
    4
 72
    1
  1
GND\PD+\PD-\P3V3\PRC0\PRC1\PRC2
  7
iso
210
0
220
0
230
1
 50
0
 73
    2
 44
1.54
  0
SPLINE
  5
1BA
100
AcDbEntity
  8
resister
  6
DOTTINY
 62
  256
370
   -1
100
AcDbSpline
210
0
220
0
230
0
 70
    8
 71
    2
 72
    6
 73
    3
 74
    0
 42
1e-07
 43
1e-07
 40
0
 40
0
 40
0
 40
1
 40
1
 40
1
 10
12.06
 20
117.28
 30
0
 10
8.25
 20
108.39
 30
0
 10
14.6
 20
109.66
 30
0
  0
MTEXT
  5
1BB
100
AcDbEntity
  8
0
  6
ByLayer
 62
  256
370
   -1
100
AcDbMText
 10
-22.82539495378444
 20
115.8417107378574
 30
0
 40
1
 41
19.55555555555556
 71
    4
 72
    1
  3
B1  :  7x13P\PC1  :  0.22uF\PC2  :  1.5uF \PJ1  : USB B \PS1  : IC  14P\PS2,3:  7P\PU1  : PIC16F1454/5\P\PC2 \P\P
  1
\P
  7
unicode
210
0
220
0
230
1
 50
0
 73
    2
 44
1.54
  0
CIRCLE
  5
1BC
100
AcDbEntity
  8
universal_board
  6
ByLayer
 62
  256
370
   -1
100
AcDbCircle
 10
34.91999999999703
 20
99.50000000000051
 40
0.5
  0
CIRCLE
  5
1BD
100
AcDbEntity
  8
universal_board
  6
ByLayer
 62
  256
370
   -1
100
AcDbCircle
 10
34.91999999999703
 20
102.0400000000005
 40
0.5
  0
CIRCLE
  5
1BE
100
AcDbEntity
  8
universal_board
  6
ByLayer
 62
  256
370
   -1
100
AcDbCircle
 10
34.919999999997
 20
104.5800000000006
 40
0.5
  0
CIRCLE
  5
1BF
100
AcDbEntity
  8
universal_board
  6
ByLayer
 62
  256
370
   -1
100
AcDbCircle
 10
34.91999999999699
 20
107.1200000000006
 40
0.5
  0
CIRCLE
  5
1C0
100
AcDbEntity
  8
universal_board
  6
ByLayer
 62
  256
370
   -1
100
AcDbCircle
 10
34.91999999999699
 20
109.6600000000006
 40
0.5
  0
CIRCLE
  5
1C1
100
AcDbEntity
  8
universal_board
  6
ByLayer
 62
  256
370
   -1
100
AcDbCircle
 10
34.91999999999699
 20
112.2000000000006
 40
0.5
  0
CIRCLE
  5
1C2
100
AcDbEntity
  8
universal_board
  6
ByLayer
 62
  256
370
   -1
100
AcDbCircle
 10
34.91999999999697
 20
114.7400000000006
 40
0.5
  0
CIRCLE
  5
1C3
100
AcDbEntity
  8
universal_board
  6
ByLayer
 62
  256
370
   -1
100
AcDbCircle
 10
34.91999999999696
 20
117.2800000000007
 40
0.5
  0
CIRCLE
  5
1C4
100
AcDbEntity
  8
universal_board
  6
ByLayer
 62
  256
370
   -1
100
AcDbCircle
 10
34.91999999999696
 20
119.8200000000007
 40
0.5
  0
CIRCLE
  5
1C5
100
AcDbEntity
  8
universal_board
  6
ByLayer
 62
  256
370
   -1
100
AcDbCircle
 10
34.91999999999696
 20
122.3600000000007
 40
0.5
  0
CIRCLE
  5
1C6
100
AcDbEntity
  8
universal_board
  6
ByLayer
 62
  256
370
   -1
100
AcDbCircle
 10
34.91999999999695
 20
124.9000000000007
 40
0.5
  0
CIRCLE
  5
1C7
100
AcDbEntity
  8
universal_board
  6
ByLayer
 62
  256
370
   -1
100
AcDbCircle
 10
32.37999999999707
 20
127.4400000000007
 40
0.5
  0
CIRCLE
  5
1C8
100
AcDbEntity
  8
universal_board
  6
ByLayer
 62
  256
370
   -1
100
AcDbCircle
 10
34.91999999999695
 20
127.4400000000008
 40
0.5
  0
CIRCLE
  5
1C9
100
AcDbEntity
  8
universal_board
  6
ByLayer
 62
  256
370
   -1
100
AcDbCircle
 10
32.37999999999705
 20
129.9800000000008
 40
0.5
  0
CIRCLE
  5
1CA
100
AcDbEntity
  8
universal_board
  6
ByLayer
 62
  256
370
   -1
100
AcDbCircle
 10
34.91999999999693
 20
129.9800000000008
 40
0.5
  0
CIRCLE
  5
1CB
100
AcDbEntity
  8
universal_board
  6
ByLayer
 62
  256
370
   -1
100
AcDbCircle
 10
32.37999999999715
 20
99.50000000000051
 40
0.5
  0
CIRCLE
  5
1CC
100
AcDbEntity
  8
universal_board
  6
ByLayer
 62
  256
370
   -1
100
AcDbCircle
 10
32.37999999999715
 20
102.0400000000005
 40
0.5
  0
CIRCLE
  5
1CD
100
AcDbEntity
  8
universal_board
  6
ByLayer
 62
  256
370
   -1
100
AcDbCircle
 10
32.37999999999713
 20
104.5800000000005
 40
0.5
  0
CIRCLE
  5
1CE
100
AcDbEntity
  8
universal_board
  6
ByLayer
 62
  256
370
   -1
100
AcDbCircle
 10
32.37999999999712
 20
107.1200000000005
 40
0.5
  0
CIRCLE
  5
1CF
100
AcDbEntity
  8
universal_board
  6
ByLayer
 62
  256
370
   -1
100
AcDbCircle
 10
32.37999999999712
 20
109.6600000000006
 40
0.5
  0
CIRCLE
  5
1D0
100
AcDbEntity
  8
universal_board
  6
ByLayer
 62
  256
370
   -1
100
AcDbCircle
 10
32.37999999999712
 20
112.2000000000006
 40
0.5
  0
CIRCLE
  5
1D1
100
AcDbEntity
  8
universal_board
  6
ByLayer
 62
  256
370
   -1
100
AcDbCircle
 10
32.3799999999971
 20
114.7400000000006
 40
0.5
  0
CIRCLE
  5
1D2
100
AcDbEntity
  8
universal_board
  6
ByLayer
 62
  256
370
   -1
100
AcDbCircle
 10
32.3799999999971
 20
117.2800000000006
 40
0.5
  0
CIRCLE
  5
1D3
100
AcDbEntity
  8
universal_board
  6
ByLayer
 62
  256
370
   -1
100
AcDbCircle
 10
32.3799999999971
 20
119.8200000000006
 40
0.5
  0
CIRCLE
  5
1D4
100
AcDbEntity
  8
universal_board
  6
ByLayer
 62
  256
370
   -1
100
AcDbCircle
 10
32.37999999999708
 20
122.3600000000007
 40
0.5
  0
CIRCLE
  5
1D5
100
AcDbEntity
  8
universal_board
  6
ByLayer
 62
  256
370
   -1
100
AcDbCircle
 10
32.37999999999707
 20
124.9000000000007
 40
0.5
  0
CIRCLE
  5
1D6
100
AcDbEntity
  8
universal_board
  6
ByLayer
 62
  256
370
   -1
100
AcDbCircle
 10
37.45999999999691
 20
99.50000000000051
 40
0.5
  0
CIRCLE
  5
1D7
100
AcDbEntity
  8
universal_board
  6
ByLayer
 62
  256
370
   -1
100
AcDbCircle
 10
37.45999999999691
 20
102.0400000000005
 40
0.5
  0
CIRCLE
  5
1D8
100
AcDbEntity
  8
universal_board
  6
ByLayer
 62
  256
370
   -1
100
AcDbCircle
 10
37.45999999999688
 20
104.5800000000006
 40
0.5
  0
CIRCLE
  5
1D9
100
AcDbEntity
  8
universal_board
  6
ByLayer
 62
  256
370
   -1
100
AcDbCircle
 10
37.45999999999688
 20
107.1200000000006
 40
0.5
  0
CIRCLE
  5
1DA
100
AcDbEntity
  8
universal_board
  6
ByLayer
 62
  256
370
   -1
100
AcDbCircle
 10
37.45999999999688
 20
109.6600000000006
 40
0.5
  0
CIRCLE
  5
1DB
100
AcDbEntity
  8
universal_board
  6
ByLayer
 62
  256
370
   -1
100
AcDbCircle
 10
37.45999999999688
 20
112.2000000000006
 40
0.5
  0
CIRCLE
  5
1DC
100
AcDbEntity
  8
universal_board
  6
ByLayer
 62
  256
370
   -1
100
AcDbCircle
 10
37.45999999999685
 20
114.7400000000006
 40
0.5
  0
CIRCLE
  5
1DD
100
AcDbEntity
  8
universal_board
  6
ByLayer
 62
  256
370
   -1
100
AcDbCircle
 10
37.45999999999685
 20
117.2800000000007
 40
0.5
  0
CIRCLE
  5
1DE
100
AcDbEntity
  8
universal_board
  6
ByLayer
 62
  256
370
   -1
100
AcDbCircle
 10
37.45999999999685
 20
119.8200000000007
 40
0.5
  0
CIRCLE
  5
1DF
100
AcDbEntity
  8
universal_board
  6
ByLayer
 62
  256
370
   -1
100
AcDbCircle
 10
37.45999999999684
 20
122.3600000000007
 40
0.5
  0
CIRCLE
  5
1E0
100
AcDbEntity
  8
universal_board
  6
ByLayer
 62
  256
370
   -1
100
AcDbCircle
 10
37.45999999999682
 20
124.9000000000007
 40
0.5
  0
CIRCLE
  5
1E1
100
AcDbEntity
  8
universal_board
  6
ByLayer
 62
  256
370
   -1
100
AcDbCircle
 10
37.45999999999682
 20
127.4400000000008
 40
0.5
  0
CIRCLE
  5
1E2
100
AcDbEntity
  8
universal_board
  6
ByLayer
 62
  256
370
   -1
100
AcDbCircle
 10
37.45999999999681
 20
129.9800000000008
 40
0.5
  0
CIRCLE
  5
1E3
100
AcDbEntity
  8
universal_board
  6
ByLayer
 62
  256
370
   -1
100
AcDbCircle
 10
39.9999999999968
 20
99.50000000000051
 40
0.5
  0
CIRCLE
  5
1E4
100
AcDbEntity
  8
universal_board
  6
ByLayer
 62
  256
370
   -1
100
AcDbCircle
 10
39.9999999999968
 20
102.0400000000005
 40
0.5
  0
CIRCLE
  5
1E5
100
AcDbEntity
  8
universal_board
  6
ByLayer
 62
  256
370
   -1
100
AcDbCircle
 10
39.99999999999677
 20
104.5800000000006
 40
0.5
  0
CIRCLE
  5
1E6
100
AcDbEntity
  8
universal_board
  6
ByLayer
 62
  256
370
   -1
100
AcDbCircle
 10
39.99999999999676
 20
107.1200000000006
 40
0.5
  0
CIRCLE
  5
1E7
100
AcDbEntity
  8
universal_board
  6
ByLayer
 62
  256
370
   -1
100
AcDbCircle
 10
39.99999999999676
 20
109.6600000000006
 40
0.5
  0
CIRCLE
  5
1E8
100
AcDbEntity
  8
universal_board
  6
ByLayer
 62
  256
370
   -1
100
AcDbCircle
 10
39.99999999999676
 20
112.2000000000006
 40
0.5
  0
CIRCLE
  5
1E9
100
AcDbEntity
  8
universal_board
  6
ByLayer
 62
  256
370
   -1
100
AcDbCircle
 10
39.99999999999675
 20
114.7400000000006
 40
0.5
  0
CIRCLE
  5
1EA
100
AcDbEntity
  8
universal_board
  6
ByLayer
 62
  256
370
   -1
100
AcDbCircle
 10
39.99999999999673
 20
117.2800000000007
 40
0.5
  0
CIRCLE
  5
1EB
100
AcDbEntity
  8
universal_board
  6
ByLayer
 62
  256
370
   -1
100
AcDbCircle
 10
39.99999999999673
 20
119.8200000000007
 40
0.5
  0
CIRCLE
  5
1EC
100
AcDbEntity
  8
universal_board
  6
ByLayer
 62
  256
370
   -1
100
AcDbCircle
 10
39.99999999999673
 20
122.3600000000007
 40
0.5
  0
CIRCLE
  5
1ED
100
AcDbEntity
  8
universal_board
  6
ByLayer
 62
  256
370
   -1
100
AcDbCircle
 10
39.99999999999672
 20
124.9000000000007
 40
0.5
  0
CIRCLE
  5
1EE
100
AcDbEntity
  8
universal_board
  6
ByLayer
 62
  256
370
   -1
100
AcDbCircle
 10
39.99999999999672
 20
127.4400000000008
 40
0.5
  0
CIRCLE
  5
1EF
100
AcDbEntity
  8
universal_board
  6
ByLayer
 62
  256
370
   -1
100
AcDbCircle
 10
39.9999999999967
 20
129.9800000000008
 40
0.5
  0
CIRCLE
  5
1F0
100
AcDbEntity
  8
universal_board
  6
ByLayer
 62
  256
370
   -1
100
AcDbCircle
 10
42.53999999999668
 20
99.50000000000051
 40
0.5
  0
CIRCLE
  5
1F1
100
AcDbEntity
  8
universal_board
  6
ByLayer
 62
  256
370
   -1
100
AcDbCircle
 10
42.53999999999668
 20
102.0400000000005
 40
0.5
  0
CIRCLE
  5
1F2
100
AcDbEntity
  8
universal_board
  6
ByLayer
 62
  256
370
   -1
100
AcDbCircle
 10
42.53999999999665
 20
104.5800000000006
 40
0.5
  0
CIRCLE
  5
1F3
100
AcDbEntity
  8
universal_board
  6
ByLayer
 62
  256
370
   -1
100
AcDbCircle
 10
42.53999999999665
 20
107.1200000000006
 40
0.5
  0
CIRCLE
  5
1F4
100
AcDbEntity
  8
universal_board
  6
ByLayer
 62
  256
370
   -1
100
AcDbCircle
 10
42.53999999999665
 20
109.6600000000006
 40
0.5
  0
CIRCLE
  5
1F5
100
AcDbEntity
  8
universal_board
  6
ByLayer
 62
  256
370
   -1
100
AcDbCircle
 10
42.53999999999665
 20
112.2000000000006
 40
0.5
  0
CIRCLE
  5
1F6
100
AcDbEntity
  8
universal_board
  6
ByLayer
 62
  256
370
   -1
100
AcDbCircle
 10
42.53999999999664
 20
114.7400000000006
 40
0.5
  0
CIRCLE
  5
1F7
100
AcDbEntity
  8
universal_board
  6
ByLayer
 62
  256
370
   -1
100
AcDbCircle
 10
42.53999999999662
 20
117.2800000000007
 40
0.5
  0
CIRCLE
  5
1F8
100
AcDbEntity
  8
universal_board
  6
ByLayer
 62
  256
370
   -1
100
AcDbCircle
 10
42.53999999999662
 20
119.8200000000007
 40
0.5
  0
CIRCLE
  5
1F9
100
AcDbEntity
  8
universal_board
  6
ByLayer
 62
  256
370
   -1
100
AcDbCircle
 10
42.53999999999661
 20
122.3600000000007
 40
0.5
  0
CIRCLE
  5
1FA
100
AcDbEntity
  8
universal_board
  6
ByLayer
 62
  256
370
   -1
100
AcDbCircle
 10
42.5399999999966
 20
124.9000000000007
 40
0.5
  0
CIRCLE
  5
1FB
100
AcDbEntity
  8
universal_board
  6
ByLayer
 62
  256
370
   -1
100
AcDbCircle
 10
42.5399999999966
 20
127.4400000000008
 40
0.5
  0
CIRCLE
  5
1FC
100
AcDbEntity
  8
universal_board
  6
ByLayer
 62
  256
370
   -1
100
AcDbCircle
 10
42.53999999999658
 20
129.9800000000008
 40
0.5
  0
CIRCLE
  5
1FD
100
AcDbEntity
  8
universal_board
  6
ByLayer
 62
  256
370
   -1
100
AcDbCircle
 10
45.07999999999657
 20
99.50000000000051
 40
0.5
  0
CIRCLE
  5
1FE
100
AcDbEntity
  8
universal_board
  6
ByLayer
 62
  256
370
   -1
100
AcDbCircle
 10
45.07999999999657
 20
102.0400000000005
 40
0.5
  0
CIRCLE
  5
1FF
100
AcDbEntity
  8
universal_board
  6
ByLayer
 62
  256
370
   -1
100
AcDbCircle
 10
45.07999999999653
 20
104.5800000000006
 40
0.5
  0
CIRCLE
  5
200
100
AcDbEntity
  8
universal_board
  6
ByLayer
 62
  256
370
   -1
100
AcDbCircle
 10
45.07999999999653
 20
107.1200000000006
 40
0.5
  0
CIRCLE
  5
201
100
AcDbEntity
  8
universal_board
  6
ByLayer
 62
  256
370
   -1
100
AcDbCircle
 10
45.07999999999653
 20
109.6600000000006
 40
0.5
  0
CIRCLE
  5
202
100
AcDbEntity
  8
universal_board
  6
ByLayer
 62
  256
370
   -1
100
AcDbCircle
 10
45.07999999999653
 20
112.2000000000006
 40
0.5
  0
CIRCLE
  5
203
100
AcDbEntity
  8
universal_board
  6
ByLayer
 62
  256
370
   -1
100
AcDbCircle
 10
45.07999999999652
 20
114.7400000000006
 40
0.5
  0
CIRCLE
  5
204
100
AcDbEntity
  8
universal_board
  6
ByLayer
 62
  256
370
   -1
100
AcDbCircle
 10
45.0799999999965
 20
117.2800000000007
 40
0.5
  0
CIRCLE
  5
205
100
AcDbEntity
  8
universal_board
  6
ByLayer
 62
  256
370
   -1
100
AcDbCircle
 10
45.0799999999965
 20
119.8200000000007
 40
0.5
  0
CIRCLE
  5
206
100
AcDbEntity
  8
universal_board
  6
ByLayer
 62
  256
370
   -1
100
AcDbCircle
 10
45.07999999999649
 20
122.3600000000007
 40
0.5
  0
CIRCLE
  5
207
100
AcDbEntity
  8
universal_board
  6
ByLayer
 62
  256
370
   -1
100
AcDbCircle
 10
45.07999999999647
 20
124.9000000000007
 40
0.5
  0
CIRCLE
  5
208
100
AcDbEntity
  8
universal_board
  6
ByLayer
 62
  256
370
   -1
100
AcDbCircle
 10
45.07999999999647
 20
127.4400000000008
 40
0.5
  0
CIRCLE
  5
209
100
AcDbEntity
  8
universal_board
  6
ByLayer
 62
  256
370
   -1
100
AcDbCircle
 10
45.07999999999647
 20
129.9800000000008
 40
0.5
  0
CIRCLE
  5
20A
100
AcDbEntity
  8
universal_board
  6
ByLayer
 62
  256
370
   -1
100
AcDbCircle
 10
47.61999999999645
 20
99.50000000000051
 40
0.5
  0
CIRCLE
  5
20B
100
AcDbEntity
  8
universal_board
  6
ByLayer
 62
  256
370
   -1
100
AcDbCircle
 10
47.61999999999645
 20
102.0400000000005
 40
0.5
  0
CIRCLE
  5
20C
100
AcDbEntity
  8
universal_board
  6
ByLayer
 62
  256
370
   -1
100
AcDbCircle
 10
47.61999999999642
 20
104.5800000000006
 40
0.5
  0
CIRCLE
  5
20D
100
AcDbEntity
  8
universal_board
  6
ByLayer
 62
  256
370
   -1
100
AcDbCircle
 10
47.61999999999641
 20
107.1200000000006
 40
0.5
  0
CIRCLE
  5
20E
100
AcDbEntity
  8
universal_board
  6
ByLayer
 62
  256
370
   -1
100
AcDbCircle
 10
47.61999999999641
 20
109.6600000000006
 40
0.5
  0
CIRCLE
  5
20F
100
AcDbEntity
  8
universal_board
  6
ByLayer
 62
  256
370
   -1
100
AcDbCircle
 10
47.61999999999641
 20
112.2000000000006
 40
0.5
  0
CIRCLE
  5
210
100
AcDbEntity
  8
universal_board
  6
ByLayer
 62
  256
370
   -1
100
AcDbCircle
 10
47.61999999999639
 20
114.7400000000006
 40
0.5
  0
CIRCLE
  5
211
100
AcDbEntity
  8
universal_board
  6
ByLayer
 62
  256
370
   -1
100
AcDbCircle
 10
47.61999999999638
 20
117.2800000000007
 40
0.5
  0
CIRCLE
  5
212
100
AcDbEntity
  8
universal_board
  6
ByLayer
 62
  256
370
   -1
100
AcDbCircle
 10
47.61999999999638
 20
119.8200000000007
 40
0.5
  0
CIRCLE
  5
213
100
AcDbEntity
  8
universal_board
  6
ByLayer
 62
  256
370
   -1
100
AcDbCircle
 10
47.61999999999637
 20
122.3600000000007
 40
0.5
  0
CIRCLE
  5
214
100
AcDbEntity
  8
universal_board
  6
ByLayer
 62
  256
370
   -1
100
AcDbCircle
 10
47.61999999999635
 20
124.9000000000007
 40
0.5
  0
CIRCLE
  5
215
100
AcDbEntity
  8
universal_board
  6
ByLayer
 62
  256
370
   -1
100
AcDbCircle
 10
47.61999999999635
 20
127.4400000000008
 40
0.5
  0
CIRCLE
  5
216
100
AcDbEntity
  8
universal_board
  6
ByLayer
 62
  256
370
   -1
100
AcDbCircle
 10
47.61999999999635
 20
129.9800000000008
 40
0.5
  0
LINE
  5
217
100
AcDbEntity
  8
universal_board
  6
ByLayer
 62
  256
370
   -1
100
AcDbLine
 10
31.10999999999726
 20
98.23000000000037
 11
48.88999999999643
 21
98.23000000000039
  0
LINE
  5
218
100
AcDbEntity
  8
universal_board
  6
ByLayer
 62
  256
370
   -1
100
AcDbLine
 10
31.10999999999725
 20
131.2500000000006
 11
48.88999999999643
 21
131.2500000000006
  0
LINE
  5
219
100
AcDbEntity
  8
universal_board
  6
ByLayer
 62
  256
370
   -1
100
AcDbLine
 10
31.10999999999725
 20
131.2500000000006
 11
31.10999999999725
 21
98.23000000000039
  0
LINE
  5
21A
100
AcDbEntity
  8
universal_board
  6
ByLayer
 62
  256
370
   -1
100
AcDbLine
 10
48.88999999999643
 20
131.2500000000006
 11
48.88999999999643
 21
98.23000000000039
  0
LINE
  5
21B
100
AcDbEntity
  8
3.3V line
  6
ByLayer
 62
  256
370
  200
100
AcDbLine
 10
34.91999999999709
 20
107.1200000000006
 11
32.37999999999715
 21
107.1200000000005
  0
LINE
  5
21C
100
AcDbEntity
  8
0_wire
  6
ByLayer
 62
  256
370
  200
100
AcDbLine
 10
39.99999999999677
 20
109.6600000000006
 11
37.45999999999688
 21
109.6600000000006
  0
LINE
  5
21D
100
AcDbEntity
  8
0_GND
  6
ByLayer
 62
  256
370
  200
100
AcDbLine
 10
39.99999999999673
 20
127.4400000000008
 11
45.0799999999965
 21
127.4400000000008
  0
LINE
  5
21E
100
AcDbEntity
  8
0_GND
  6
ByLayer
 62
  256
370
  200
100
AcDbLine
 10
39.99999999999673
 20
127.4400000000008
 11
39.99999999999672
 21
129.9800000000008
  0
LINE
  5
21F
100
AcDbEntity
  8
0_GND
  6
ByLayer
 62
  256
370
  200
100
AcDbLine
 10
45.07999999999647
 20
129.9800000000009
 11
45.07999999999649
 21
127.4400000000007
  0
LINE
  5
220
100
AcDbEntity
  8
0_GND
  6
ByLayer
 62
  256
370
  200
100
AcDbLine
 10
45.07999999999649
 20
127.4400000000007
 11
45.07999999999649
 21
124.9000000000007
  0
LINE
  5
221
100
AcDbEntity
  8
0_GND
  6
ByLayer
 62
  256
370
  200
100
AcDbLine
 10
45.07999999999647
 20
129.9800000000009
 11
47.61999999999635
 21
129.9800000000008
  0
LINE
  5
222
100
AcDbEntity
  8
0_wire
  6
ByLayer
 62
  256
370
  200
100
AcDbLine
 10
39.99999999999673
 20
124.9000000000007
 11
37.45999999999685
 21
124.9000000000007
  0
LINE
  5
223
100
AcDbEntity
  8
0_GND
  6
ByLayer
 62
  256
370
  200
100
AcDbLine
 10
39.99999999999672
 20
129.9800000000008
 11
34.91999999999693
 21
129.9800000000008
  0
LINE
  5
224
100
AcDbEntity
  8
0_GND
  6
ByLayer
 62
  256
370
  200
100
AcDbLine
 10
42.53999999999661
 20
127.4400000000007
 11
42.53999999999662
 21
124.9000000000007
  0
LINE
  5
225
100
AcDbEntity
  8
0_GND
  6
ByLayer
 62
  256
370
  200
100
AcDbLine
 10
39.99999999999672
 20
129.9800000000008
 11
45.07999999999646
 21
129.9800000000008
  0
LINE
  5
226
100
AcDbEntity
  8
0_GND
  6
ByLayer
 62
  256
370
  200
100
AcDbLine
 10
47.61999999999639
 20
122.3600000000008
 11
47.61999999999637
 21
124.9000000000008
  0
LINE
  5
227
100
AcDbEntity
  8
0_GND
  6
ByLayer
 62
  256
370
  200
100
AcDbLine
 10
39.99999999999673
 20
127.4400000000008
 11
37.45999999999684
 21
127.4400000000008
  0
LINE
  5
228
100
AcDbEntity
  8
0_GND
  6
ByLayer
 62
  256
370
  200
100
AcDbLine
 10
34.91999999999693
 20
129.9800000000008
 11
32.37999999999705
 21
129.9800000000008
  0
LINE
  5
229
100
AcDbEntity
  8
0_GND
  6
ByLayer
 62
  256
370
  200
100
AcDbLine
 10
32.37999999999705
 20
129.9800000000008
 11
32.37999999999708
 21
124.9000000000006
  0
LINE
  5
22A
100
AcDbEntity
  8
5V line
  6
ByLayer
 62
  256
370
  200
100
AcDbLine
 10
45.07999999999652
 20
119.8200000000007
 11
45.07999999999653
 21
114.7400000000006
  0
LINE
  5
22B
100
AcDbEntity
  8
5V line
  6
ByLayer
 62
  256
370
  200
100
AcDbLine
 10
45.07999999999653
 20
114.7400000000006
 11
47.6199999999964
 21
114.7400000000007
  0
LINE
  5
22C
100
AcDbEntity
  8
0_wire
  6
ByLayer
 62
  256
370
  200
100
AcDbLine
 10
39.99999999999675
 20
122.3600000000007
 11
39.99999999999675
 21
119.8200000000007
  0
LINE
  5
22D
100
AcDbEntity
  8
0_wire
  6
ByLayer
 62
  256
370
  200
100
AcDbLine
 10
37.45999999999684
 20
124.9000000000007
 11
37.45999999999687
 21
117.2800000000007
  0
LINE
  5
22E
100
AcDbEntity
  8
0_wire
  6
ByLayer
 62
  256
370
  200
100
AcDbLine
 10
37.45999999999687
 20
117.2800000000007
 11
39.99999999999676
 21
117.2800000000007
  0
LINE
  5
22F
100
AcDbEntity
  8
0_wire
  6
ByLayer
 62
  256
370
  200
100
AcDbLine
 10
39.99999999999676
 20
112.2000000000006
 11
37.45999999999687
 21
112.2000000000006
  0
LINE
  5
230
100
AcDbEntity
  8
0_GND
  6
ByLayer
 62
  256
370
  200
100
AcDbLine
 10
32.37999999999708
 20
124.9000000000006
 11
34.91999999999696
 21
124.9000000000007
  0
LINE
  5
231
100
AcDbEntity
  8
0_GND
  6
ByLayer
 62
  256
370
  200
100
AcDbLine
 10
34.91999999999696
 20
124.9000000000007
 11
34.91999999999699
 21
114.7400000000006
  0
LINE
  5
232
100
AcDbEntity
  8
0_GND
  6
ByLayer
 62
  256
370
  200
100
AcDbLine
 10
34.91999999999699
 20
114.7400000000006
 11
37.45999999999687
 21
114.7400000000006
  0
LINE
  5
233
100
AcDbEntity
  8
3.3V line
  6
ByLayer
 62
  256
370
  200
100
AcDbLine
 10
37.4599999999969
 20
107.1200000000006
 11
34.91999999999703
 21
107.1200000000006
  0
LINE
  5
234
100
AcDbEntity
  8
0_GND
  6
ByLayer
 62
  256
370
  200
100
AcDbLine
 10
34.91999999999699
 20
114.7400000000006
 11
32.37999999999711
 21
114.7400000000005
  0
LINE
  5
235
100
AcDbEntity
  8
0_wire
  6
ByLayer
 62
  256
370
  200
100
AcDbLine
 10
37.45999999999692
 20
104.5800000000006
 11
32.37999999999715
 21
104.5800000000005
  0
LINE
  5
236
100
AcDbEntity
  8
0_wire
  6
ByLayer
 62
  256
370
  200
100
AcDbLine
 10
37.45999999999694
 20
102.0400000000006
 11
32.37999999999717
 21
102.0400000000005
  0
LINE
  5
237
100
AcDbEntity
  8
0_GND
  6
ByLayer
 62
  256
370
  200
100
AcDbLine
 10
47.61999999999638
 20
122.3600000000008
 11
47.61999999999639
 21
117.2800000000007
  0
LINE
  5
238
100
AcDbEntity
  8
0_GND
  6
ByLayer
 62
  256
370
  200
100
AcDbLine
 10
45.07999999999649
 20
124.9000000000007
 11
47.61999999999637
 21
124.9000000000008
  0
LINE
  5
239
100
AcDbEntity
  8
5V line
  6
ByLayer
 62
  256
370
  200
100
AcDbLine
 10
42.53999999999662
 20
122.3600000000007
 11
45.0799999999965
 21
122.3600000000007
  0
LINE
  5
23A
100
AcDbEntity
  8
5V line
  6
ByLayer
 62
  256
370
  200
100
AcDbLine
 10
45.0799999999965
 20
122.3600000000007
 11
45.07999999999652
 21
119.8200000000007
  0
LINE
  5
23B
100
AcDbEntity
  8
0_wire
  6
ByLayer
 62
  256
370
  200
100
AcDbLine
 10
39.99999999999675
 20
119.8200000000007
 11
42.53999999999662
 21
119.8200000000007
  0
LINE
  5
23C
100
AcDbEntity
  8
0_wire
  6
ByLayer
 62
  256
370
  200
100
AcDbLine
 10
42.53999999999662
 20
119.8200000000007
 11
42.53999999999664
 21
117.2800000000007
  0
LINE
  5
23D
100
AcDbEntity
  8
0_GND
  6
ByLayer
 62
  256
370
  200
100
AcDbLine
 10
32.37999999999711
 20
114.7400000000005
 11
32.37999999999712
 21
109.6600000000005
  0
LINE
  5
23E
100
AcDbEntity
  8
0_wire
  6
ByLayer
 62
  256
370
  200
100
AcDbLine
 10
45.07999999999653
 20
112.2000000000006
 11
47.61999999999639
 21
112.2000000000007
  0
LINE
  5
23F
100
AcDbEntity
  8
0_wire
  6
ByLayer
 62
  256
370
  200
100
AcDbLine
 10
45.07999999999655
 20
109.6600000000006
 11
47.61999999999641
 21
109.6600000000007
  0
LINE
  5
240
100
AcDbEntity
  8
0_wire
  6
ByLayer
 62
  256
370
  200
100
AcDbLine
 10
45.07999999999656
 20
107.1200000000006
 11
47.61999999999644
 21
107.1200000000006
  0
LINE
  5
241
100
AcDbEntity
  8
0_wire
  6
ByLayer
 62
  256
370
  200
100
AcDbLine
 10
37.45999999999692
 20
99.50000000000051
 11
32.37999999999715
 21
99.50000000000045
  0
LINE
  5
242
100
AcDbEntity
  8
0_GND
  6
ByLayer
 62
  256
370
  200
100
AcDbLine
 10
34.91999999999699
 20
114.7400000000006
 11
34.91999999999699
 21
112.2000000000006
  0
LINE
  5
243
100
AcDbEntity
  8
0_wire
  6
ByLayer
 62
  256
370
  200
100
AcDbLine
 10
45.07999999999657
 20
104.5800000000006
 11
47.61999999999649
 21
104.5800000000007
  0
LINE
  5
244
100
AcDbEntity
  8
0_wire
  6
ByLayer
 62
  256
370
  200
100
AcDbLine
 10
45.07999999999659
 20
102.0400000000006
 11
47.61999999999651
 21
102.0400000000007
  0
LINE
  5
245
100
AcDbEntity
  8
0_wire
  6
ByLayer
 62
  256
370
  200
100
AcDbLine
 10
45.0799999999966
 20
99.50000000000054
 11
47.61999999999652
 21
99.50000000000057
  0
LINE
  5
246
100
AcDbEntity
  8
universal_board
  6
ByLayer
 62
  256
370
   -1
100
AcDbLine
 10
33.64999999999712
 20
131.2500000000007
 11
33.64999999999712
 21
98.23000000000049
  0
LINE
  5
247
100
AcDbEntity
  8
universal_board
  6
ByLayer
 62
  256
370
   -1
100
AcDbLine
 10
36.18999999999699
 20
131.2500000000008
 11
36.18999999999699
 21
98.23000000000059
  0
LINE
  5
248
100
AcDbEntity
  8
universal_board
  6
ByLayer
 62
  256
370
   -1
100
AcDbLine
 10
38.72999999999685
 20
131.2500000000009
 11
38.72999999999685
 21
98.23000000000069
  0
LINE
  5
249
100
AcDbEntity
  8
universal_board
  6
ByLayer
 62
  256
370
   -1
100
AcDbLine
 10
41.26999999999671
 20
131.250000000001
 11
41.26999999999671
 21
98.23000000000079
  0
LINE
  5
24A
100
AcDbEntity
  8
universal_board
  6
ByLayer
 62
  256
370
   -1
100
AcDbLine
 10
43.80999999999658
 20
131.2500000000011
 11
43.80999999999658
 21
98.23000000000089
  0
LINE
  5
24B
100
AcDbEntity
  8
universal_board
  6
ByLayer
 62
  256
370
   -1
100
AcDbLine
 10
46.34999999999644
 20
131.2500000000012
 11
46.34999999999644
 21
98.23000000000098
  0
LINE
  5
24C
100
AcDbEntity
  8
universal_board
  6
ByLayer
 62
  256
370
   -1
100
AcDbLine
 10
31.10999999999726
 20
100.7700000000004
 11
48.88999999999643
 21
100.7700000000004
  0
LINE
  5
24D
100
AcDbEntity
  8
universal_board
  6
ByLayer
 62
  256
370
   -1
100
AcDbLine
 10
31.10999999999726
 20
103.3100000000004
 11
48.88999999999643
 21
103.3100000000004
  0
LINE
  5
24E
100
AcDbEntity
  8
universal_board
  6
ByLayer
 62
  256
370
   -1
100
AcDbLine
 10
31.10999999999726
 20
105.8500000000003
 11
48.88999999999643
 21
105.8500000000004
  0
LINE
  5
24F
100
AcDbEntity
  8
universal_board
  6
ByLayer
 62
  256
370
   -1
100
AcDbLine
 10
31.10999999999726
 20
108.3900000000003
 11
48.88999999999643
 21
108.3900000000004
  0
LINE
  5
250
100
AcDbEntity
  8
universal_board
  6
ByLayer
 62
  256
370
   -1
100
AcDbLine
 10
31.10999999999726
 20
110.9300000000003
 11
48.88999999999643
 21
110.9300000000003
  0
LINE
  5
251
100
AcDbEntity
  8
universal_board
  6
ByLayer
 62
  256
370
   -1
100
AcDbLine
 10
31.10999999999726
 20
113.4700000000003
 11
48.88999999999643
 21
113.4700000000003
  0
LINE
  5
252
100
AcDbEntity
  8
universal_board
  6
ByLayer
 62
  256
370
   -1
100
AcDbLine
 10
31.10999999999726
 20
116.0100000000003
 11
48.88999999999643
 21
116.0100000000003
  0
LINE
  5
253
100
AcDbEntity
  8
universal_board
  6
ByLayer
 62
  256
370
   -1
100
AcDbLine
 10
31.10999999999726
 20
118.5500000000003
 11
48.88999999999643
 21
118.5500000000003
  0
LINE
  5
254
100
AcDbEntity
  8
universal_board
  6
ByLayer
 62
  256
370
   -1
100
AcDbLine
 10
31.10999999999726
 20
121.0900000000003
 11
48.88999999999643
 21
121.0900000000003
  0
LINE
  5
255
100
AcDbEntity
  8
universal_board
  6
ByLayer
 62
  256
370
   -1
100
AcDbLine
 10
31.10999999999726
 20
123.6300000000003
 11
48.88999999999643
 21
123.6300000000003
  0
LINE
  5
256
100
AcDbEntity
  8
universal_board
  6
ByLayer
 62
  256
370
   -1
100
AcDbLine
 10
31.10999999999726
 20
126.1700000000003
 11
48.88999999999643
 21
126.1700000000003
  0
LINE
  5
257
100
AcDbEntity
  8
universal_board
  6
ByLayer
 62
  256
370
   -1
100
AcDbLine
 10
31.10999999999726
 20
128.7100000000003
 11
48.88999999999643
 21
128.7100000000003
  0
ENDSEC
  0
SECTION
  2
OBJECTS
  0
DICTIONARY
  5
C
330
0
100
AcDbDictionary
281
    1
  3
ACAD_GROUP
350
D
  0
DICTIONARY
  5
D
330
C
100
AcDbDictionary
281
    1
  0
PLOTSETTINGS
  5
258
100
AcDbPlotSettings
  6
1x1
 40
5
 41
5
 42
5
 43
5
  0
ENDSEC
  0
EOF
