999
dxfrw 0.6.3
  0
SECTION
  2
HEADER
  9
$ACADVER
  1
AC1021
  9
$DWGCODEPAGE
  3
ANSI_1252
  9
$INSBASE
 10
0
 20
0
 30
0
  9
$EXTMIN
 10
1.77921407377427
 20
36.61187126644391
 30
0
  9
$EXTMAX
 10
138.3699999999905
 20
97.14343676065467
 30
0
  9
$LIMMIN
 10
0
 20
0
  9
$LIMMAX
 10
420
 20
297
  9
$ORTHOMODE
 70
    0
  9
$REGENMODE
 70
    1
  9
$FILLMODE
 70
    1
  9
$QTEXTMODE
 70
    0
  9
$MIRRTEXT
 70
    0
  9
$LTSCALE
 40
1
  9
$ATTMODE
 70
    0
  9
$TEXTSIZE
 40
2.5
  9
$TRACEWID
 40
15.68
  9
$TEXTSTYLE
  7
STANDARD
  9
$CLAYER
  8
micon
  9
$CELTYPE
  6
BYLAYER
  9
$CECOLOR
 62
  256
  9
$CELTSCALE
 40
1
  9
$DISPSILH
 70
    0
  9
$DIMSCALE
 40
1
  9
$DIMASZ
 40
2.5
  9
$DIMEXO
 40
0.625
  9
$DIMDLI
 40
3.75
  9
$DIMRND
 40
0
  9
$DIMDLE
 40
0
  9
$DIMEXE
 40
1.25
  9
$DIMTP
 40
0
  9
$DIMTM
 40
0
  9
$DIMTXT
 40
2.5
  9
$DIMCEN
 40
2.5
  9
$DIMTSZ
 40
0
  9
$DIMTOL
 70
    0
  9
$DIMLIM
 70
    0
  9
$DIMTIH
 70
    0
  9
$DIMTOH
 70
    0
  9
$DIMSE1
 70
    0
  9
$DIMSE2
 70
    0
  9
$DIMTAD
 70
    1
  9
$DIMZIN
 70
    8
  9
$DIMBLK
  1

  9
$DIMASO
 70
    1
  9
$DIMSHO
 70
    1
  9
$DIMPOST
  1

  9
$DIMAPOST
  1

  9
$DIMALT
 70
    0
  9
$DIMALTD
 70
    3
  9
$DIMALTF
 40
0.03937
  9
$DIMLFAC
 40
1
  9
$DIMTOFL
 70
    1
  9
$DIMTVP
 40
0
  9
$DIMTIX
 70
    0
  9
$DIMSOXD
 70
    0
  9
$DIMSAH
 70
    0
  9
$DIMBLK1
  1

  9
$DIMBLK2
  1

  9
$DIMSTYLE
  2
STANDARD
  9
$DIMCLRD
 70
    0
  9
$DIMCLRE
 70
    0
  9
$DIMCLRT
 70
    0
  9
$DIMTFAC
 40
1
  9
$DIMGAP
 40
0.625
  9
$DIMJUST
 70
    0
  9
$DIMSD1
 70
    0
  9
$DIMSD2
 70
    0
  9
$DIMTOLJ
 70
    0
  9
$DIMTZIN
 70
    8
  9
$DIMALTZ
 70
    0
  9
$DIMALTTZ
 70
    0
  9
$DIMUPT
 70
    0
  9
$DIMDEC
 70
    2
  9
$DIMTDEC
 70
    2
  9
$DIMALTU
 70
    2
  9
$DIMALTTD
 70
    3
  9
$DIMTXSTY
  7
STANDARD
  9
$DIMAUNIT
 70
    0
  9
$DIMADEC
 70
    0
  9
$DIMALTRND
 40
0
  9
$DIMAZIN
 70
    0
  9
$DIMDSEP
 70
   44
  9
$DIMATFIT
 70
    3
  9
$DIMFRAC
 70
    0
  9
$DIMLDRBLK
  1
STANDARD
  9
$DIMLUNIT
 70
    2
  9
$DIMLWD
 70
   -2
  9
$DIMLWE
 70
   -2
  9
$DIMTMOVE
 70
    0
  9
$DIMFXL
 40
1
  9
$DIMFXLON
 70
    0
  9
$DIMJOGANG
 40
0.7854
  9
$DIMTFILL
 70
    0
  9
$DIMTFILLCLR
 70
    0
  9
$DIMARCSYM
 70
    0
  9
$DIMLTYPE
  6

  9
$DIMLTEX1
  6

  9
$DIMLTEX2
  6

  9
$LUNITS
 70
    2
  9
$LUPREC
 70
    4
  9
$SKETCHINC
 40
1
  9
$FILLETRAD
 40
0
  9
$AUNITS
 70
    0
  9
$AUPREC
 70
    2
  9
$MENU
  1
.
  9
$ELEVATION
 40
0
  9
$PELEVATION
 40
0
  9
$THICKNESS
 40
0
  9
$LIMCHECK
 70
    0
  9
$CHAMFERA
 40
0
  9
$CHAMFERB
 40
0
  9
$CHAMFERC
 40
0
  9
$CHAMFERD
 40
0
  9
$SKPOLY
 70
    0
  9
$USRTIMER
 70
    1
  9
$ANGBASE
 50
0
  9
$ANGDIR
 70
    0
  9
$PDMODE
 70
   34
  9
$PDSIZE
 40
0
  9
$PLINEWID
 40
0
  9
$SPLFRAME
 70
    0
  9
$SPLINETYPE
 70
    2
  9
$SPLINESEGS
 70
    8
  9
$HANDSEED
  5
20000
  9
$SURFTAB1
 70
    6
  9
$SURFTAB2
 70
    6
  9
$SURFTYPE
 70
    6
  9
$SURFU
 70
    6
  9
$SURFV
 70
    6
  9
$UCSBASE
  2

  9
$UCSNAME
  2

  9
$UCSORG
 10
0
 20
0
 30
0
  9
$UCSXDIR
 10
1
 20
0
 30
0
  9
$UCSYDIR
 10
0
 20
1
 30
0
  9
$UCSORTHOREF
  2

  9
$UCSORTHOVIEW
 70
    0
  9
$UCSORGTOP
 10
0
 20
0
 30
0
  9
$UCSORGBOTTOM
 10
0
 20
0
 30
0
  9
$UCSORGLEFT
 10
0
 20
0
 30
0
  9
$UCSORGRIGHT
 10
0
 20
0
 30
0
  9
$UCSORGFRONT
 10
0
 20
0
 30
0
  9
$UCSORGBACK
 10
0
 20
0
 30
0
  9
$PUCSBASE
  2

  9
$PUCSNAME
  2

  9
$PUCSORG
 10
0
 20
0
 30
0
  9
$PUCSXDIR
 10
1
 20
0
 30
0
  9
$PUCSYDIR
 10
0
 20
1
 30
0
  9
$PUCSORTHOREF
  2

  9
$PUCSORTHOVIEW
 70
    0
  9
$PUCSORGTOP
 10
0
 20
0
 30
0
  9
$PUCSORGBOTTOM
 10
0
 20
0
 30
0
  9
$PUCSORGLEFT
 10
0
 20
0
 30
0
  9
$PUCSORGRIGHT
 10
0
 20
0
 30
0
  9
$PUCSORGFRONT
 10
0
 20
0
 30
0
  9
$PUCSORGBACK
 10
0
 20
0
 30
0
  9
$USERI1
 70
    0
  9
$USERI2
 70
    0
  9
$USERI3
 70
    0
  9
$USERI4
 70
    0
  9
$USERI5
 70
    0
  9
$USERR1
 40
0
  9
$USERR2
 40
0
  9
$USERR3
 40
0
  9
$USERR4
 40
0
  9
$USERR5
 40
0
  9
$WORLDVIEW
 70
    1
  9
$SHADEDGE
 70
    3
  9
$SHADEDIF
 70
   70
  9
$TILEMODE
 70
    1
  9
$MAXACTVP
 70
   64
  9
$PINSBASE
 10
201.9375
 20
0
 30
0
  9
$PLIMCHECK
 70
    0
  9
$PEXTMIN
 10
0
 20
0
 30
0
  9
$PEXTMAX
 10
0
 20
0
 30
0
  9
$GRIDMODE
 70
    0
  9
$SNAPSTYLE
 70
    0
  9
$PLIMMIN
 10
0
 20
0
  9
$PLIMMAX
 10
210
 20
297
  9
$UNITMODE
 70
    0
  9
$VISRETAIN
 70
    1
  9
$PLINEGEN
 70
    0
  9
$PSLTSCALE
 70
    1
  9
$TREEDEPTH
 70
 3020
  9
$CMLSTYLE
  2
Standard
  9
$CMLJUST
 70
    0
  9
$CMLSCALE
 40
20
  9
$PROXYGRAPHICS
 70
    1
  9
$MEASUREMENT
 70
    1
  9
$CELWEIGHT
370
   -1
  9
$ENDCAPS
280
    0
  9
$JOINSTYLE
280
    0
  9
$LWDISPLAY
290
    0
  9
$INSUNITS
 70
    0
  9
$HYPERLINKBASE
  1

  9
$STYLESHEET
  1

  9
$XEDIT
290
    1
  9
$CEPSNTYPE
380
    0
  9
$PSTYLEMODE
290
    1
  9
$EXTNAMES
290
    1
  9
$PSVPSCALE
 40
4.125
  9
$OLESTARTUP
290
    0
  9
$SORTENTS
280
  127
  9
$INDEXCTL
280
    0
  9
$HIDETEXT
280
    1
  9
$XCLIPFRAME
290
    0
  9
$HALOGAP
280
    0
  9
$OBSCOLOR
 70
  257
  9
$OBSLTYPE
280
    0
  9
$INTERSECTIONDISPLAY
280
    0
  9
$INTERSECTIONCOLOR
 70
  257
  9
$DIMASSOC
280
    1
  9
$PROJECTNAME
  1

  9
$CAMERADISPLAY
290
    0
  9
$LENSLENGTH
 40
50
  9
$CAMERAHEIGHT
 40
0
  9
$STEPSPERSEC
 40
2
  9
$STEPSIZE
 40
50
  9
$3DDWFPREC
 40
2
  9
$PSOLWIDTH
 40
5
  9
$PSOLHEIGHT
 40
80
  9
$LOFTANG1
 40
1.570796326794897
  9
$LOFTANG2
 40
1.570796326794897
  9
$LOFTMAG1
 40
0
  9
$LOFTMAG2
 40
0
  9
$LOFTPARAM
 70
    7
  9
$LOFTNORMALS
280
    1
  9
$LATITUDE
 40
1
  9
$LONGITUDE
 40
1
  9
$NORTHDIRECTION
 40
0
  9
$TIMEZONE
 70
-8000
  9
$LIGHTGLYPHDISPLAY
280
    1
  9
$TILEMODELIGHTSYNCH
280
    1
  9
$SOLIDHIST
280
    1
  9
$SHOWHIST
280
    1
  9
$DWFFRAME
280
    2
  9
$DGNFRAME
280
    0
  9
$REALWORLDSCALE
290
    1
  9
$INTERFERECOLOR
 62
    1
  9
$CSHADOW
280
    0
  9
$SHADOWPLANELOCATION
 40
0
  0
ENDSEC
  0
SECTION
  2
CLASSES
  0
ENDSEC
  0
SECTION
  2
TABLES
  0
TABLE
  2
VPORT
  5
8
330
0
100
AcDbSymbolTable
 70
    1
  0
VPORT
  5
31
330
2
100
AcDbSymbolTableRecord
100
AcDbViewportTableRecord
  2
*ACTIVE
 70
    0
 10
0
 20
0
 11
1
 21
1
 12
81.91092602895166
 22
45.49397698658225
 13
0
 23
0
 14
10
 24
10
 15
10
 25
10
 16
0
 26
0
 36
1
 17
0
 27
0
 37
0
 40
42.96895242656141
 41
1.526849037487335
 42
50
 43
0
 44
0
 50
0
 51
0
 71
    0
 72
  100
 73
    1
 74
    3
 75
    0
 76
    0
 77
    0
 78
    0
281
    0
 65
    1
110
0
120
0
130
0
111
1
121
0
131
0
112
0
122
1
132
0
 79
    0
146
0
348
10020
 60
    7
 61
    5
292
1
282
    1
141
0
142
0
 63
  250
421
3358443
  0
ENDTAB
  0
TABLE
  2
LTYPE
  5
5
330
0
100
AcDbSymbolTable
 70
    4
  0
LTYPE
  5
14
330
5
100
AcDbSymbolTableRecord
100
AcDbLinetypeTableRecord
  2
ByBlock
 70
    0
  3

 72
   65
 73
    0
 40
0
  0
LTYPE
  5
15
330
5
100
AcDbSymbolTableRecord
100
AcDbLinetypeTableRecord
  2
ByLayer
 70
    0
  3

 72
   65
 73
    0
 40
0
  0
LTYPE
  5
16
330
5
100
AcDbSymbolTableRecord
100
AcDbLinetypeTableRecord
  2
Continuous
 70
    0
  3
Solid line
 72
   65
 73
    0
 40
0
  0
LTYPE
  5
32
330
5
100
AcDbSymbolTableRecord
100
AcDbLinetypeTableRecord
  2
DOT
 70
    0
  3
Dot . . . . . . . . . . . . . . . . . . . . . .
 72
   65
 73
    2
 40
6.35
 49
0
 74
    0
 49
-6.35
 74
    0
  0
LTYPE
  5
33
330
5
100
AcDbSymbolTableRecord
100
AcDbLinetypeTableRecord
  2
DOTTINY
 70
    0
  3
Dot (.15x) .....................................
 72
   65
 73
    2
 40
0.9525
 49
0
 74
    0
 49
-0.9525
 74
    0
  0
LTYPE
  5
34
330
5
100
AcDbSymbolTableRecord
100
AcDbLinetypeTableRecord
  2
DOT2
 70
    0
  3
Dot (.5x) .....................................
 72
   65
 73
    2
 40
3.175
 49
0
 74
    0
 49
-3.175
 74
    0
  0
LTYPE
  5
35
330
5
100
AcDbSymbolTableRecord
100
AcDbLinetypeTableRecord
  2
DOTX2
 70
    0
  3
Dot (2x) .  .  .  .  .  .  .  .  .  .  .  .  .
 72
   65
 73
    2
 40
12.7
 49
0
 74
    0
 49
-12.7
 74
    0
  0
LTYPE
  5
36
330
5
100
AcDbSymbolTableRecord
100
AcDbLinetypeTableRecord
  2
DASHED
 70
    0
  3
Dashed _ _ _ _ _ _ _ _ _ _ _ _ _ _ _ _ _
 72
   65
 73
    2
 40
19.05
 49
12.7
 74
    0
 49
-6.35
 74
    0
  0
LTYPE
  5
37
330
5
100
AcDbSymbolTableRecord
100
AcDbLinetypeTableRecord
  2
DASHEDTINY
 70
    0
  3
Dashed (.15x) _ _ _ _ _ _ _ _ _ _ _ _ _ _ _ _ _
 72
   65
 73
    2
 40
2.8575
 49
1.905
 74
    0
 49
-0.9525
 74
    0
  0
LTYPE
  5
38
330
5
100
AcDbSymbolTableRecord
100
AcDbLinetypeTableRecord
  2
DASHED2
 70
    0
  3
Dashed (.5x) _ _ _ _ _ _ _ _ _ _ _ _ _ _ _ _ _
 72
   65
 73
    2
 40
9.524999999999999
 49
6.35
 74
    0
 49
-3.175
 74
    0
  0
LTYPE
  5
39
330
5
100
AcDbSymbolTableRecord
100
AcDbLinetypeTableRecord
  2
DASHEDX2
 70
    0
  3
Dashed (2x) ____  ____  ____  ____  ____  ___
 72
   65
 73
    2
 40
38.09999999999999
 49
25.4
 74
    0
 49
-12.7
 74
    0
  0
LTYPE
  5
3A
330
5
100
AcDbSymbolTableRecord
100
AcDbLinetypeTableRecord
  2
DASHDOT
 70
    0
  3
Dash dot __ . __ . __ . __ . __ . __ . __ . __
 72
   65
 73
    4
 40
25.4
 49
12.7
 74
    0
 49
-6.35
 74
    0
 49
0
 74
    0
 49
-6.35
 74
    0
  0
LTYPE
  5
3B
330
5
100
AcDbSymbolTableRecord
100
AcDbLinetypeTableRecord
  2
DASHDOTTINY
 70
    0
  3
Dash dot (.15x) _._._._._._._._._._._._._._._.
 72
   65
 73
    4
 40
3.81
 49
1.905
 74
    0
 49
-0.9525
 74
    0
 49
0
 74
    0
 49
-0.9525
 74
    0
  0
LTYPE
  5
3C
330
5
100
AcDbSymbolTableRecord
100
AcDbLinetypeTableRecord
  2
DASHDOT2
 70
    0
  3
Dash dot (.5x) _._._._._._._._._._._._._._._.
 72
   65
 73
    4
 40
12.7
 49
6.35
 74
    0
 49
-3.175
 74
    0
 49
0
 74
    0
 49
-3.175
 74
    0
  0
LTYPE
  5
3D
330
5
100
AcDbSymbolTableRecord
100
AcDbLinetypeTableRecord
  2
DASHDOTX2
 70
    0
  3
Dash dot (2x) ____  .  ____  .  ____  .  ___
 72
   65
 73
    4
 40
50.8
 49
25.4
 74
    0
 49
-12.7
 74
    0
 49
0
 74
    0
 49
-12.7
 74
    0
  0
LTYPE
  5
3E
330
5
100
AcDbSymbolTableRecord
100
AcDbLinetypeTableRecord
  2
DIVIDE
 70
    0
  3
Divide ____ . . ____ . . ____ . . ____ . . ____
 72
   65
 73
    6
 40
31.75
 49
12.7
 74
    0
 49
-6.35
 74
    0
 49
0
 74
    0
 49
-6.35
 74
    0
 49
0
 74
    0
 49
-6.35
 74
    0
  0
LTYPE
  5
3F
330
5
100
AcDbSymbolTableRecord
100
AcDbLinetypeTableRecord
  2
DIVIDETINY
 70
    0
  3
Divide (.15x) __..__..__..__..__..__..__..__.._
 72
   65
 73
    6
 40
4.7625
 49
1.905
 74
    0
 49
-0.9525
 74
    0
 49
0
 74
    0
 49
-0.9525
 74
    0
 49
0
 74
    0
 49
-0.9525
 74
    0
  0
LTYPE
  5
40
330
5
100
AcDbSymbolTableRecord
100
AcDbLinetypeTableRecord
  2
DIVIDE2
 70
    0
  3
Divide (.5x) __..__..__..__..__..__..__..__.._
 72
   65
 73
    6
 40
15.875
 49
6.35
 74
    0
 49
-3.175
 74
    0
 49
0
 74
    0
 49
-3.175
 74
    0
 49
0
 74
    0
 49
-3.175
 74
    0
  0
LTYPE
  5
41
330
5
100
AcDbSymbolTableRecord
100
AcDbLinetypeTableRecord
  2
DIVIDEX2
 70
    0
  3
Divide (2x) ________  .  .  ________  .  .  _
 72
   65
 73
    6
 40
63.5
 49
25.4
 74
    0
 49
-12.7
 74
    0
 49
0
 74
    0
 49
-12.7
 74
    0
 49
0
 74
    0
 49
-12.7
 74
    0
  0
LTYPE
  5
42
330
5
100
AcDbSymbolTableRecord
100
AcDbLinetypeTableRecord
  2
BORDER
 70
    0
  3
Border __ __ . __ __ . __ __ . __ __ . __ __ .
 72
   65
 73
    6
 40
44.45
 49
12.7
 74
    0
 49
-6.35
 74
    0
 49
12.7
 74
    0
 49
-6.35
 74
    0
 49
0
 74
    0
 49
-6.35
 74
    0
  0
LTYPE
  5
43
330
5
100
AcDbSymbolTableRecord
100
AcDbLinetypeTableRecord
  2
BORDERTINY
 70
    0
  3
Border (.15x) __.__.__.__.__.__.__.__.__.__.__.
 72
   65
 73
    6
 40
6.6675
 49
1.905
 74
    0
 49
-0.9525
 74
    0
 49
1.905
 74
    0
 49
-0.9525
 74
    0
 49
0
 74
    0
 49
-0.9525
 74
    0
  0
LTYPE
  5
44
330
5
100
AcDbSymbolTableRecord
100
AcDbLinetypeTableRecord
  2
BORDER2
 70
    0
  3
Border (.5x) __.__.__.__.__.__.__.__.__.__.__.
 72
   65
 73
    6
 40
22.225
 49
6.35
 74
    0
 49
-3.175
 74
    0
 49
6.35
 74
    0
 49
-3.175
 74
    0
 49
0
 74
    0
 49
-3.175
 74
    0
  0
LTYPE
  5
45
330
5
100
AcDbSymbolTableRecord
100
AcDbLinetypeTableRecord
  2
BORDERX2
 70
    0
  3
Border (2x) ____  ____  .  ____  ____  .  ___
 72
   65
 73
    6
 40
88.89999999999999
 49
25.4
 74
    0
 49
-12.7
 74
    0
 49
25.4
 74
    0
 49
-12.7
 74
    0
 49
0
 74
    0
 49
-12.7
 74
    0
  0
LTYPE
  5
46
330
5
100
AcDbSymbolTableRecord
100
AcDbLinetypeTableRecord
  2
CENTER
 70
    0
  3
Center ____ _ ____ _ ____ _ ____ _ ____ _ ____
 72
   65
 73
    4
 40
50.8
 49
31.75
 74
    0
 49
-6.35
 74
    0
 49
6.35
 74
    0
 49
-6.35
 74
    0
  0
LTYPE
  5
47
330
5
100
AcDbSymbolTableRecord
100
AcDbLinetypeTableRecord
  2
CENTERTINY
 70
    0
  3
Center (.15x) ___ _ ___ _ ___ _ ___ _ ___ _ ___
 72
   65
 73
    4
 40
7.619999999999999
 49
4.7625
 74
    0
 49
-0.9525
 74
    0
 49
0.9525
 74
    0
 49
-0.9525
 74
    0
  0
LTYPE
  5
48
330
5
100
AcDbSymbolTableRecord
100
AcDbLinetypeTableRecord
  2
CENTER2
 70
    0
  3
Center (.5x) ___ _ ___ _ ___ _ ___ _ ___ _ ___
 72
   65
 73
    4
 40
28.575
 49
19.05
 74
    0
 49
-3.175
 74
    0
 49
3.175
 74
    0
 49
-3.175
 74
    0
  0
LTYPE
  5
49
330
5
100
AcDbSymbolTableRecord
100
AcDbLinetypeTableRecord
  2
CENTERX2
 70
    0
  3
Center (2x) ________  __  ________  __  _____
 72
   65
 73
    4
 40
101.6
 49
63.5
 74
    0
 49
-12.7
 74
    0
 49
12.7
 74
    0
 49
-12.7
 74
    0
  0
ENDTAB
  0
TABLE
  2
LAYER
  5
2
330
0
100
AcDbSymbolTable
 70
    1
  0
LAYER
  5
10
330
2
100
AcDbSymbolTableRecord
100
AcDbLayerTableRecord
  2
0
 70
    0
 62
    7
  6
CONTINUOUS
370
   13
390
F
  0
LAYER
  5
4A
330
2
100
AcDbSymbolTableRecord
100
AcDbLayerTableRecord
  2
0_GND
 70
    0
 62
    7
  6
CONTINUOUS
370
   15
390
F
  0
LAYER
  5
4B
330
2
100
AcDbSymbolTableRecord
100
AcDbLayerTableRecord
  2
0_draft
 70
    0
 62
    7
  6
DOTTINY
370
   -3
390
F
1001
LibreCad
1070
    1
  0
LAYER
  5
4C
330
2
100
AcDbSymbolTableRecord
100
AcDbLayerTableRecord
  2
0_wire
 70
    0
 62
    3
  6
CONTINUOUS
370
   15
390
F
  0
LAYER
  5
4D
330
2
100
AcDbSymbolTableRecord
100
AcDbLayerTableRecord
  2
12V line
 70
    0
 62
    2
  6
CONTINUOUS
370
   15
390
F
  0
LAYER
  5
4E
330
2
100
AcDbSymbolTableRecord
100
AcDbLayerTableRecord
  2
3.3V line
 70
    0
 62
   40
420
16755200
  6
CONTINUOUS
370
   15
390
F
  0
LAYER
  5
4F
330
2
100
AcDbSymbolTableRecord
100
AcDbLayerTableRecord
  2
5V line
 70
    0
 62
    1
  6
CONTINUOUS
370
   15
390
F
  0
LAYER
  5
50
330
2
100
AcDbSymbolTableRecord
100
AcDbLayerTableRecord
  2
Regulator
 70
    0
 62
  162
420
18906
  6
CONTINUOUS
370
   15
390
F
  0
LAYER
  5
51
330
2
100
AcDbSymbolTableRecord
100
AcDbLayerTableRecord
  2
condenser
 70
    0
 62
    5
  6
CONTINUOUS
370
   15
390
F
  0
LAYER
  5
52
330
2
100
AcDbSymbolTableRecord
100
AcDbLayerTableRecord
  2
diode
 70
    0
 62
    6
  6
CONTINUOUS
370
   15
390
F
  0
LAYER
  5
53
330
2
100
AcDbSymbolTableRecord
100
AcDbLayerTableRecord
  2
micon
 70
    0
 62
  216
420
8388736
  6
CONTINUOUS
370
   15
390
F
  0
LAYER
  5
54
330
2
100
AcDbSymbolTableRecord
100
AcDbLayerTableRecord
  2
pin socket
 70
    0
 62
   56
420
8421376
  6
CONTINUOUS
370
   15
390
F
  0
LAYER
  5
55
330
2
100
AcDbSymbolTableRecord
100
AcDbLayerTableRecord
  2
resister
 70
    0
 62
  137
420
3439252
  6
CONTINUOUS
370
   18
390
F
  0
LAYER
  5
56
330
2
100
AcDbSymbolTableRecord
100
AcDbLayerTableRecord
  2
switch
 70
    0
 62
  136
420
32896
  6
CONTINUOUS
370
   15
390
F
  0
LAYER
  5
57
330
2
100
AcDbSymbolTableRecord
100
AcDbLayerTableRecord
  2
terminal
 70
    0
 62
   16
420
8388608
  6
CONTINUOUS
370
   15
390
F
  0
LAYER
  5
58
330
2
100
AcDbSymbolTableRecord
100
AcDbLayerTableRecord
  2
universal board
 70
    4
 62
  253
420
10526884
  6
CONTINUOUS
370
   15
390
F
  0
ENDTAB
  0
TABLE
  2
STYLE
  5
3
330
0
100
AcDbSymbolTable
 70
    3
  0
STYLE
  5
59
330
2
100
AcDbSymbolTableRecord
100
AcDbTextStyleTableRecord
  2
STANDARD
 70
    0
 40
0
 41
1
 50
0
 71
    0
 42
1
  3
STANDARD
  4

  0
STYLE
  5
5A
330
2
100
AcDbSymbolTableRecord
100
AcDbTextStyleTableRecord
  2
unicode
 70
    0
 40
0
 41
1
 50
0
 71
    0
 42
1
  3
unicode
  4

  0
STYLE
  5
5B
330
2
100
AcDbSymbolTableRecord
100
AcDbTextStyleTableRecord
  2
iso
 70
    0
 40
0
 41
1
 50
0
 71
    0
 42
1
  3
iso
  4

  0
ENDTAB
  0
TABLE
  2
VIEW
  5
6
330
0
100
AcDbSymbolTable
 70
    0
  0
ENDTAB
  0
TABLE
  2
UCS
  5
7
330
0
100
AcDbSymbolTable
 70
    0
  0
ENDTAB
  0
TABLE
  2
APPID
  5
9
330
0
100
AcDbSymbolTable
 70
    1
  0
APPID
  5
12
330
9
100
AcDbSymbolTableRecord
100
AcDbRegAppTableRecord
  2
ACAD
 70
    0
  0
APPID
  5
5C
330
9
100
AcDbSymbolTableRecord
100
AcDbRegAppTableRecord
  2
LibreCad
 70
    0
  0
ENDTAB
  0
TABLE
  2
DIMSTYLE
  5
A
330
0
100
AcDbSymbolTable
 70
    1
100
AcDbDimStyleTable
 71
    1
  0
DIMSTYLE
105
5D
330
A
100
AcDbSymbolTableRecord
100
AcDbDimStyleTableRecord
  2
Standard
 70
    0
 40
1
 41
2.5
 42
0.625
 43
0.38
 44
1.25
 45
0
 46
0
 47
0
 48
0
 49
1
140
2.5
141
0.09
142
0
143
25.4
144
1
145
0
146
1
147
0.625
148
0
 71
    0
 72
    0
 73
    0
 74
    1
 75
    0
 76
    0
 77
    0
 78
    8
 79
    0
170
    0
171
    2
172
    0
173
    0
174
    0
175
    0
176
    0
177
    0
178
    0
179
    0
271
    2
272
    4
273
    2
274
    2
275
    0
276
    0
277
    2
278
   44
279
    0
280
    0
281
    0
282
    0
283
    1
284
    0
285
    0
286
    0
288
    0
289
    3
340
STANDARD
341

371
   -2
372
   -2
  0
ENDTAB
  0
TABLE
  2
BLOCK_RECORD
  5
1
330
0
100
AcDbSymbolTable
 70
    2
  0
BLOCK_RECORD
  5
1F
330
1
100
AcDbSymbolTableRecord
100
AcDbBlockTableRecord
  2
*Model_Space
 70
    0
280
    1
281
    0
  0
BLOCK_RECORD
  5
1E
330
1
100
AcDbSymbolTableRecord
100
AcDbBlockTableRecord
  2
*Paper_Space
 70
    0
280
    1
281
    0
  0
BLOCK_RECORD
  5
5E
330
1
100
AcDbSymbolTableRecord
100
AcDbBlockTableRecord
  2
2227MC-08-03
 70
    0
280
    1
281
    0
  0
BLOCK_RECORD
  5
61
330
1
100
AcDbSymbolTableRecord
100
AcDbBlockTableRecord
  2
PIC16F15325
 70
    0
280
    1
281
    0
  0
BLOCK_RECORD
  5
64
330
1
100
AcDbSymbolTableRecord
100
AcDbBlockTableRecord
  2
2227MC-28-03
 70
    0
280
    1
281
    0
  0
BLOCK_RECORD
  5
67
330
1
100
AcDbSymbolTableRecord
100
AcDbBlockTableRecord
  2
HUSG-16.000-20
 70
    0
280
    1
281
    0
  0
BLOCK_RECORD
  5
6A
330
1
100
AcDbSymbolTableRecord
100
AcDbBlockTableRecord
  2
ATmega328P
 70
    0
280
    1
281
    0
  0
BLOCK_RECORD
  5
6D
330
1
100
AcDbSymbolTableRecord
100
AcDbBlockTableRecord
  2
DTS-63-N-V-BLK
 70
    0
280
    1
281
    0
  0
BLOCK_RECORD
  5
70
330
1
100
AcDbSymbolTableRecord
100
AcDbBlockTableRecord
  2
2227MC-14-03
 70
    0
280
    1
281
    0
  0
BLOCK_RECORD
  5
73
330
1
100
AcDbSymbolTableRecord
100
AcDbBlockTableRecord
  2
C_0.01uF
 70
    0
280
    1
281
    0
  0
BLOCK_RECORD
  5
76
330
1
100
AcDbSymbolTableRecord
100
AcDbBlockTableRecord
  2
R300
 70
    0
280
    1
281
    0
  0
BLOCK_RECORD
  5
79
330
1
100
AcDbSymbolTableRecord
100
AcDbBlockTableRecord
  2
R10k
 70
    0
280
    1
281
    0
  0
BLOCK_RECORD
  5
7C
330
1
100
AcDbSymbolTableRecord
100
AcDbBlockTableRecord
  2
R0
 70
    0
280
    1
281
    0
  0
ENDTAB
  0
ENDSEC
  0
SECTION
  2
BLOCKS
  0
BLOCK
  5
20
330
1F
100
AcDbEntity
  8
0
100
AcDbBlockBegin
  2
*Model_Space
 70
    0
 10
0
 20
0
 30
0
  3
*Model_Space
  1

  0
ENDBLK
  5
21
330
1F
100
AcDbEntity
  8
0
100
AcDbBlockEnd
  0
BLOCK
  5
1C
330
1B
100
AcDbEntity
  8
0
100
AcDbBlockBegin
  2
*Paper_Space
 70
    0
 10
0
 20
0
 30
0
  3
*Paper_Space
  1

  0
ENDBLK
  5
1D
330
1F
100
AcDbEntity
  8
0
100
AcDbBlockEnd
  0
BLOCK
  5
5F
330
5E
100
AcDbEntity
  8
0
100
AcDbBlockBegin
  2
2227MC-08-03
 70
    0
 10
0
 20
0
  3
2227MC-08-03
  1

  0
LINE
  5
7F
100
AcDbEntity
  8
pin socket
  6
ByLayer
 62
  256
370
   -1
100
AcDbLine
 10
-1.270000000000131
 20
-8.890000110779171
 11
-1.270000000000131
 21
1.269999889220831
  0
LINE
  5
80
100
AcDbEntity
  8
pin socket
  6
ByLayer
 62
  256
370
   -1
100
AcDbLine
 10
-1.270000000000131
 20
1.269999889220831
 11
8.890000394687402
 21
1.269999889220831
  0
LINE
  5
81
100
AcDbEntity
  8
pin socket
  6
ByLayer
 62
  256
370
   -1
100
AcDbLine
 10
8.890000394687402
 20
1.269999889220831
 11
8.88999999999989
 21
-8.890000110779171
  0
LINE
  5
82
100
AcDbEntity
  8
pin socket
  6
ByLayer
 62
  256
370
   -1
100
AcDbLine
 10
8.88999999999989
 20
-8.890000110779171
 11
-1.270000000000131
 21
-8.890000110779171
  0
CIRCLE
  5
83
100
AcDbEntity
  8
pin socket
  6
ByLayer
 62
  256
370
   -1
100
AcDbCircle
 10
2.539999999999878
 20
1.06581410364015e-14
 40
0.6
  0
CIRCLE
  5
84
100
AcDbEntity
  8
pin socket
  6
ByLayer
 62
  256
370
   -1
100
AcDbCircle
 10
2.539999999999893
 20
-7.620000000000061
 40
0.6
  0
CIRCLE
  5
85
100
AcDbEntity
  8
pin socket
  6
ByLayer
 62
  256
370
   -1
100
AcDbCircle
 10
0
 20
0
 40
0.6
  0
CIRCLE
  5
86
100
AcDbEntity
  8
pin socket
  6
ByLayer
 62
  256
370
   -1
100
AcDbCircle
 10
7.105427357601002e-15
 20
-7.620000000000072
 40
0.6
  0
CIRCLE
  5
87
100
AcDbEntity
  8
pin socket
  6
ByLayer
 62
  256
370
   -1
100
AcDbCircle
 10
5.079999999999757
 20
2.842170943040401e-14
 40
0.6
  0
CIRCLE
  5
88
100
AcDbEntity
  8
pin socket
  6
ByLayer
 62
  256
370
   -1
100
AcDbCircle
 10
5.079999999999771
 20
-7.620000000000051
 40
0.6
  0
CIRCLE
  5
89
100
AcDbEntity
  8
pin socket
  6
ByLayer
 62
  256
370
   -1
100
AcDbCircle
 10
7.619999999999639
 20
3.907985046680551e-14
 40
0.6
  0
CIRCLE
  5
8A
100
AcDbEntity
  8
pin socket
  6
ByLayer
 62
  256
370
   -1
100
AcDbCircle
 10
7.61999999999966
 20
-7.62000000000004
 40
0.6
  0
MTEXT
  5
8B
100
AcDbEntity
  8
pin socket
  6
ByLayer
 62
  256
370
   -1
100
AcDbMText
 10
3.950796119092651
 20
-1.713679173150673
 30
0
 40
1
 41
9.222222222222284
 71
    5
 72
    1
  1
2227MC-08-03
  7
STANDARD
210
0
220
0
230
1
 50
0
 73
    2
 44
1
  0
ENDBLK
  5
60
330
5E
100
AcDbEntity
  8
0
100
AcDbBlockEnd
  0
BLOCK
  5
62
330
61
100
AcDbEntity
  8
0
100
AcDbBlockBegin
  2
PIC16F15325
 70
    0
 10
0
 20
0
  3
PIC16F15325
  1

  0
ENDBLK
  5
63
330
61
100
AcDbEntity
  8
0
100
AcDbBlockEnd
  0
BLOCK
  5
65
330
64
100
AcDbEntity
  8
0
100
AcDbBlockBegin
  2
2227MC-28-03
 70
    0
 10
0
 20
0
  3
2227MC-28-03
  1

  0
ENDBLK
  5
66
330
64
100
AcDbEntity
  8
0
100
AcDbBlockEnd
  0
BLOCK
  5
68
330
67
100
AcDbEntity
  8
0
100
AcDbBlockBegin
  2
HUSG-16.000-20
 70
    0
 10
0
 20
0
  3
HUSG-16.000-20
  1

  0
ENDBLK
  5
69
330
67
100
AcDbEntity
  8
0
100
AcDbBlockEnd
  0
BLOCK
  5
6B
330
6A
100
AcDbEntity
  8
0
100
AcDbBlockBegin
  2
ATmega328P
 70
    0
 10
0
 20
0
  3
ATmega328P
  1

  0
ENDBLK
  5
6C
330
6A
100
AcDbEntity
  8
0
100
AcDbBlockEnd
  0
BLOCK
  5
6E
330
6D
100
AcDbEntity
  8
0
100
AcDbBlockBegin
  2
DTS-63-N-V-BLK
 70
    0
 10
0
 20
0
  3
DTS-63-N-V-BLK
  1

  0
ENDBLK
  5
6F
330
6D
100
AcDbEntity
  8
0
100
AcDbBlockEnd
  0
BLOCK
  5
71
330
70
100
AcDbEntity
  8
0
100
AcDbBlockBegin
  2
2227MC-14-03
 70
    0
 10
0
 20
0
  3
2227MC-14-03
  1

  0
ENDBLK
  5
72
330
70
100
AcDbEntity
  8
0
100
AcDbBlockEnd
  0
BLOCK
  5
74
330
73
100
AcDbEntity
  8
0
100
AcDbBlockBegin
  2
C_0.01uF
 70
    0
 10
0
 20
0
  3
C_0.01uF
  1

  0
LWPOLYLINE
  5
8C
100
AcDbEntity
  8
condenser
  6
ByLayer
 62
  256
370
   -1
100
AcDbPolyline
 90
    4
 70
    1
 43
0
 10
1.499999999999972
 20
5.039999999999822
 10
1.499999999999972
 20
0.03999999999992099
 10
-1.50000000000005
 20
0.03999999999992099
 10
-1.50000000000005
 20
5.039999999999822
  0
MTEXT
  5
8D
100
AcDbEntity
  8
condenser
  6
ByLayer
 62
  256
370
   -1
100
AcDbMText
 10
2.336701583810211
 20
2.491803864245341
 30
0
 40
1
 41
3.666666666666667
 71
    5
 72
    1
  1
0.01uF
  7
STANDARD
210
0
220
0
230
1
 50
270
 73
    2
 44
1
  0
CIRCLE
  5
8E
100
AcDbEntity
  8
condenser
  6
ByLayer
 62
  256
370
   -1
100
AcDbCircle
 10
0
 20
0
 40
0.4
  0
CIRCLE
  5
8F
100
AcDbEntity
  8
condenser
  6
ByLayer
 62
  256
370
   -1
100
AcDbCircle
 10
-6.927791673660977e-14
 20
5.080000000000041
 40
0.4
  0
ENDBLK
  5
75
330
73
100
AcDbEntity
  8
0
100
AcDbBlockEnd
  0
BLOCK
  5
77
330
76
100
AcDbEntity
  8
0
100
AcDbBlockBegin
  2
R300
 70
    0
 10
0
 20
0
  3
R300
  1

  0
LWPOLYLINE
  5
90
100
AcDbEntity
  8
resister
  6
ByLayer
 62
  256
370
   -1
100
AcDbPolyline
 90
    4
 70
    1
 43
0
 10
-1.150000000000091
 20
0.6599999999995898
 10
-1.15000000000008
 20
6.959999999999511
 10
1.150000000000126
 20
6.959999999999511
 10
1.150000000000119
 20
0.6599999999995898
  0
CIRCLE
  5
91
100
AcDbEntity
  8
resister
  6
ByLayer
 62
  256
370
   -1
100
AcDbCircle
 10
1.953992523340276e-14
 20
7.619999999999639
 40
0.3
  0
LINE
  5
92
100
AcDbEntity
  8
resister
  6
ByLayer
 62
  256
370
   -1
100
AcDbLine
 10
1.953992523340276e-14
 20
0.2999999999998604
 11
1.031014139840636e-06
 21
0.6599999999995898
  0
LINE
  5
93
100
AcDbEntity
  8
resister
  6
ByLayer
 62
  256
370
   -1
100
AcDbLine
 10
3.907985046680551e-14
 20
6.959999999999511
 11
3.907985046680551e-14
 21
7.320000000000348
  0
MTEXT
  5
94
100
AcDbEntity
  8
resister
  6
ByLayer
 62
  256
370
   -1
100
AcDbMText
 10
-0.02409769535478112
 20
3.951579464078229
 30
0
 40
1
 41
2.888888888888951
 71
    5
 72
    1
  1
R300
  7
STANDARD
210
0
220
0
230
1
 50
90
 73
    2
 44
1
  0
CIRCLE
  5
95
100
AcDbEntity
  8
resister
  6
ByLayer
 62
  256
370
   -1
100
AcDbCircle
 10
0
 20
0
 40
0.25
  0
ENDBLK
  5
78
330
76
100
AcDbEntity
  8
0
100
AcDbBlockEnd
  0
BLOCK
  5
7A
330
79
100
AcDbEntity
  8
0
100
AcDbBlockBegin
  2
R10k
 70
    0
 10
0
 20
0
  3
R10k
  1

  0
CIRCLE
  5
96
100
AcDbEntity
  8
resister
  6
ByLayer
 62
  256
370
   -1
100
AcDbCircle
 10
0
 20
0
 40
0.3
  0
LINE
  5
97
100
AcDbEntity
  8
resister
  6
ByLayer
 62
  256
370
   -1
100
AcDbLine
 10
-0.659999999999485
 20
1.150000000000098
 11
-0.659999999999485
 21
-1.150000000000059
  0
LINE
  5
98
100
AcDbEntity
  8
resister
  6
ByLayer
 62
  256
370
   -1
100
AcDbLine
 10
-6.959999999999557
 20
-1.150000000000041
 11
-0.659999999999485
 21
-1.150000000000059
  0
LINE
  5
99
100
AcDbEntity
  8
resister
  6
ByLayer
 62
  256
370
   -1
100
AcDbLine
 10
-0.659999999999485
 20
1.150000000000098
 11
-6.959999999999557
 21
1.150000000000098
  0
LINE
  5
9A
100
AcDbEntity
  8
resister
  6
ByLayer
 62
  256
370
   -1
100
AcDbLine
 10
-6.959999999999557
 20
1.150000000000098
 11
-6.959999999999557
 21
-1.150000000000041
  0
CIRCLE
  5
9B
100
AcDbEntity
  8
resister
  6
ByLayer
 62
  256
370
   -1
100
AcDbCircle
 10
-7.619999999999408
 20
2.131628207280301e-14
 40
0.25
  0
MTEXT
  5
9C
100
AcDbEntity
  8
resister
  6
ByLayer
 62
  256
370
   -1
100
AcDbMText
 10
-3.991855261194459
 20
0.08749576228997924
 30
0
 40
1
 41
2.666666666666667
 71
    5
 72
    1
  1
R10k
  7
unicode
210
0
220
0
230
1
 50
0
 73
    2
 44
1
  0
LINE
  5
9D
100
AcDbEntity
  8
resister
  6
ByLayer
 62
  256
370
   -1
100
AcDbLine
 10
-0.2499999999985789
 20
2.131628207280301e-14
 11
-0.659999999999485
 21
2.131628207280301e-14
  0
LINE
  5
9E
100
AcDbEntity
  8
resister
  6
ByLayer
 62
  256
370
   -1
100
AcDbLine
 10
-7.369999999999898
 20
1.06581410364015e-14
 11
-6.959999999999557
 21
1.06581410364015e-14
  0
ENDBLK
  5
7B
330
79
100
AcDbEntity
  8
0
100
AcDbBlockEnd
  0
BLOCK
  5
7D
330
7C
100
AcDbEntity
  8
0
100
AcDbBlockBegin
  2
R0
 70
    0
 10
0
 20
0
  3
R0
  1

  0
LINE
  5
9F
100
AcDbEntity
  8
resister
  6
ByLayer
 62
  256
370
   -1
100
AcDbLine
 10
-0.6599999999999611
 20
1.149999999999959
 11
-0.6599999999999611
 21
-1.14999999999997
  0
LINE
  5
A0
100
AcDbEntity
  8
resister
  6
ByLayer
 62
  256
370
   -1
100
AcDbLine
 10
-0.6599999999999611
 20
-1.14999999999997
 11
-6.959999999999834
 21
-1.14999999999997
  0
LINE
  5
A1
100
AcDbEntity
  8
resister
  6
ByLayer
 62
  256
370
   -1
100
AcDbLine
 10
-6.959999999999834
 20
-1.14999999999997
 11
-6.95999999999982
 21
1.149999999999959
  0
LINE
  5
A2
100
AcDbEntity
  8
resister
  6
ByLayer
 62
  256
370
   -1
100
AcDbLine
 10
-6.95999999999982
 20
1.149999999999959
 11
-0.6599999999999611
 21
1.149999999999959
  0
LINE
  5
A3
100
AcDbEntity
  8
resister
  6
ByLayer
 62
  256
370
   -1
100
AcDbLine
 10
-6.95999999999982
 20
0
 11
-7.61999999999966
 21
0
  0
LINE
  5
A4
100
AcDbEntity
  8
resister
  6
ByLayer
 62
  256
370
   -1
100
AcDbLine
 10
3.694822225952521e-13
 20
0
 11
-0.6599999999999611
 21
0
  0
MTEXT
  5
A5
100
AcDbEntity
  8
resister
  6
ByLayer
 62
  256
370
   -1
100
AcDbMText
 10
-4.132042899777453
 20
0.05377778633712005
 30
0
 40
1
 41
1.333333333333333
 71
    5
 72
    1
  1
R0
  7
STANDARD
210
0
220
0
230
1
 50
270
 73
    2
 44
1
  0
ENDBLK
  5
7E
330
7C
100
AcDbEntity
  8
0
100
AcDbBlockEnd
  0
ENDSEC
  0
SECTION
  2
ENTITIES
  0
MTEXT
  5
A6
100
AcDbEntity
  8
0
  6
ByLayer
 62
  256
370
   -1
100
AcDbMText
 10
1.779214073774332
 20
76.11010342732133
 30
0
 40
1
 41
19.72222273650973
 71
    4
 72
    1
  3
Lower part\PC1   : 0.1uF\PIS1  : IC socket 8P\PM    : PIC12F1840\PPH1  : Pin header 3P\PPS1,2: Pin socket 4P\PR1   : Volume 500 ohm\PR2-5 : 300 ohm\PUB1  : Universal board 12x7\PXH1  : XH header 2P\P\PUpper part\PJR1,2: Jumper register 0 ohm\PPH2,3: 
  1
Pin header 4P\PSW1  : Toggle switch\PSW2  : Rotary switch\PUB2  : Universal board 8x7
  7
iso
210
0
220
0
230
1
 50
0
 73
    2
 44
1.54
  0
CIRCLE
  5
A7
100
AcDbEntity
  8
universal board
  6
ByLayer
 62
  256
370
   -1
100
AcDbCircle
 10
116.1999999999932
 20
81.72000000000112
 40
0.5
  0
CIRCLE
  5
A8
100
AcDbEntity
  8
universal board
  6
ByLayer
 62
  256
370
   -1
100
AcDbCircle
 10
116.1999999999932
 20
79.18000000000109
 40
0.5
  0
CIRCLE
  5
A9
100
AcDbEntity
  8
universal board
  6
ByLayer
 62
  256
370
   -1
100
AcDbCircle
 10
116.1999999999932
 20
76.64000000000105
 40
0.5
  0
CIRCLE
  5
AA
100
AcDbEntity
  8
universal board
  6
ByLayer
 62
  256
370
   -1
100
AcDbCircle
 10
116.1999999999932
 20
74.10000000000102
 40
0.5
  0
CIRCLE
  5
AB
100
AcDbEntity
  8
universal board
  6
ByLayer
 62
  256
370
   -1
100
AcDbCircle
 10
116.1999999999932
 20
71.56000000000098
 40
0.5
  0
CIRCLE
  5
AC
100
AcDbEntity
  8
universal board
  6
ByLayer
 62
  256
370
   -1
100
AcDbCircle
 10
116.1999999999932
 20
69.02000000000095
 40
0.5
  0
CIRCLE
  5
AD
100
AcDbEntity
  8
universal board
  6
ByLayer
 62
  256
370
   -1
100
AcDbCircle
 10
116.1999999999932
 20
66.48000000000091
 40
0.5
  0
CIRCLE
  5
AE
100
AcDbEntity
  8
universal board
  6
ByLayer
 62
  256
370
   -1
100
AcDbCircle
 10
116.1999999999932
 20
63.94000000000088
 40
0.5
  0
CIRCLE
  5
AF
100
AcDbEntity
  8
universal board
  6
ByLayer
 62
  256
370
   -1
100
AcDbCircle
 10
116.1999999999932
 20
61.40000000000084
 40
0.5
  0
CIRCLE
  5
B0
100
AcDbEntity
  8
universal board
  6
ByLayer
 62
  256
370
   -1
100
AcDbCircle
 10
116.1999999999932
 20
58.86000000000081
 40
0.5
  0
CIRCLE
  5
B1
100
AcDbEntity
  8
universal board
  6
ByLayer
 62
  256
370
   -1
100
AcDbCircle
 10
118.7399999999931
 20
81.72000000000114
 40
0.5
  0
CIRCLE
  5
B2
100
AcDbEntity
  8
universal board
  6
ByLayer
 62
  256
370
   -1
100
AcDbCircle
 10
118.7399999999931
 20
79.1800000000011
 40
0.5
  0
CIRCLE
  5
B3
100
AcDbEntity
  8
universal board
  6
ByLayer
 62
  256
370
   -1
100
AcDbCircle
 10
118.7399999999931
 20
76.64000000000107
 40
0.5
  0
CIRCLE
  5
B4
100
AcDbEntity
  8
universal board
  6
ByLayer
 62
  256
370
   -1
100
AcDbCircle
 10
118.7399999999931
 20
74.10000000000103
 40
0.5
  0
CIRCLE
  5
B5
100
AcDbEntity
  8
universal board
  6
ByLayer
 62
  256
370
   -1
100
AcDbCircle
 10
118.7399999999931
 20
71.560000000001
 40
0.5
  0
CIRCLE
  5
B6
100
AcDbEntity
  8
universal board
  6
ByLayer
 62
  256
370
   -1
100
AcDbCircle
 10
118.7399999999931
 20
69.02000000000096
 40
0.5
  0
CIRCLE
  5
B7
100
AcDbEntity
  8
universal board
  6
ByLayer
 62
  256
370
   -1
100
AcDbCircle
 10
118.7399999999931
 20
66.48000000000093
 40
0.5
  0
CIRCLE
  5
B8
100
AcDbEntity
  8
universal board
  6
ByLayer
 62
  256
370
   -1
100
AcDbCircle
 10
118.7399999999931
 20
63.94000000000089
 40
0.5
  0
CIRCLE
  5
B9
100
AcDbEntity
  8
universal board
  6
ByLayer
 62
  256
370
   -1
100
AcDbCircle
 10
118.7399999999931
 20
61.40000000000086
 40
0.5
  0
CIRCLE
  5
BA
100
AcDbEntity
  8
universal board
  6
ByLayer
 62
  256
370
   -1
100
AcDbCircle
 10
118.7399999999931
 20
58.86000000000082
 40
0.5
  0
CIRCLE
  5
BB
100
AcDbEntity
  8
universal board
  6
ByLayer
 62
  256
370
   -1
100
AcDbCircle
 10
121.279999999993
 20
81.72000000000115
 40
0.5
  0
CIRCLE
  5
BC
100
AcDbEntity
  8
universal board
  6
ByLayer
 62
  256
370
   -1
100
AcDbCircle
 10
121.279999999993
 20
79.18000000000112
 40
0.5
  0
CIRCLE
  5
BD
100
AcDbEntity
  8
universal board
  6
ByLayer
 62
  256
370
   -1
100
AcDbCircle
 10
121.279999999993
 20
76.64000000000108
 40
0.5
  0
CIRCLE
  5
BE
100
AcDbEntity
  8
universal board
  6
ByLayer
 62
  256
370
   -1
100
AcDbCircle
 10
121.279999999993
 20
74.10000000000105
 40
0.5
  0
CIRCLE
  5
BF
100
AcDbEntity
  8
universal board
  6
ByLayer
 62
  256
370
   -1
100
AcDbCircle
 10
121.279999999993
 20
71.56000000000101
 40
0.5
  0
CIRCLE
  5
C0
100
AcDbEntity
  8
universal board
  6
ByLayer
 62
  256
370
   -1
100
AcDbCircle
 10
121.279999999993
 20
69.02000000000098
 40
0.5
  0
CIRCLE
  5
C1
100
AcDbEntity
  8
universal board
  6
ByLayer
 62
  256
370
   -1
100
AcDbCircle
 10
121.279999999993
 20
66.48000000000094
 40
0.5
  0
CIRCLE
  5
C2
100
AcDbEntity
  8
universal board
  6
ByLayer
 62
  256
370
   -1
100
AcDbCircle
 10
121.279999999993
 20
63.94000000000091
 40
0.5
  0
CIRCLE
  5
C3
100
AcDbEntity
  8
universal board
  6
ByLayer
 62
  256
370
   -1
100
AcDbCircle
 10
121.279999999993
 20
61.40000000000087
 40
0.5
  0
CIRCLE
  5
C4
100
AcDbEntity
  8
universal board
  6
ByLayer
 62
  256
370
   -1
100
AcDbCircle
 10
121.279999999993
 20
58.86000000000084
 40
0.5
  0
CIRCLE
  5
C5
100
AcDbEntity
  8
universal board
  6
ByLayer
 62
  256
370
   -1
100
AcDbCircle
 10
123.8199999999929
 20
81.72000000000116
 40
0.5
  0
CIRCLE
  5
C6
100
AcDbEntity
  8
universal board
  6
ByLayer
 62
  256
370
   -1
100
AcDbCircle
 10
123.8199999999929
 20
79.18000000000113
 40
0.5
  0
CIRCLE
  5
C7
100
AcDbEntity
  8
universal board
  6
ByLayer
 62
  256
370
   -1
100
AcDbCircle
 10
123.8199999999929
 20
76.64000000000109
 40
0.5
  0
CIRCLE
  5
C8
100
AcDbEntity
  8
universal board
  6
ByLayer
 62
  256
370
   -1
100
AcDbCircle
 10
123.8199999999929
 20
74.10000000000106
 40
0.5
  0
CIRCLE
  5
C9
100
AcDbEntity
  8
universal board
  6
ByLayer
 62
  256
370
   -1
100
AcDbCircle
 10
123.8199999999929
 20
71.56000000000103
 40
0.5
  0
CIRCLE
  5
CA
100
AcDbEntity
  8
universal board
  6
ByLayer
 62
  256
370
   -1
100
AcDbCircle
 10
123.8199999999929
 20
69.02000000000099
 40
0.5
  0
CIRCLE
  5
CB
100
AcDbEntity
  8
universal board
  6
ByLayer
 62
  256
370
   -1
100
AcDbCircle
 10
123.8199999999929
 20
66.48000000000096
 40
0.5
  0
CIRCLE
  5
CC
100
AcDbEntity
  8
universal board
  6
ByLayer
 62
  256
370
   -1
100
AcDbCircle
 10
123.8199999999929
 20
63.94000000000092
 40
0.5
  0
CIRCLE
  5
CD
100
AcDbEntity
  8
universal board
  6
ByLayer
 62
  256
370
   -1
100
AcDbCircle
 10
123.8199999999929
 20
61.40000000000089
 40
0.5
  0
CIRCLE
  5
CE
100
AcDbEntity
  8
universal board
  6
ByLayer
 62
  256
370
   -1
100
AcDbCircle
 10
123.8199999999929
 20
58.86000000000085
 40
0.5
  0
CIRCLE
  5
CF
100
AcDbEntity
  8
universal board
  6
ByLayer
 62
  256
370
   -1
100
AcDbCircle
 10
126.3599999999927
 20
81.72000000000118
 40
0.5
  0
CIRCLE
  5
D0
100
AcDbEntity
  8
universal board
  6
ByLayer
 62
  256
370
   -1
100
AcDbCircle
 10
126.3599999999928
 20
79.18000000000114
 40
0.5
  0
CIRCLE
  5
D1
100
AcDbEntity
  8
universal board
  6
ByLayer
 62
  256
370
   -1
100
AcDbCircle
 10
126.3599999999928
 20
76.64000000000111
 40
0.5
  0
CIRCLE
  5
D2
100
AcDbEntity
  8
universal board
  6
ByLayer
 62
  256
370
   -1
100
AcDbCircle
 10
126.3599999999928
 20
74.10000000000107
 40
0.5
  0
CIRCLE
  5
D3
100
AcDbEntity
  8
universal board
  6
ByLayer
 62
  256
370
   -1
100
AcDbCircle
 10
126.3599999999928
 20
71.56000000000104
 40
0.5
  0
CIRCLE
  5
D4
100
AcDbEntity
  8
universal board
  6
ByLayer
 62
  256
370
   -1
100
AcDbCircle
 10
126.3599999999928
 20
69.020000000001
 40
0.5
  0
CIRCLE
  5
D5
100
AcDbEntity
  8
universal board
  6
ByLayer
 62
  256
370
   -1
100
AcDbCircle
 10
126.3599999999928
 20
66.48000000000097
 40
0.5
  0
CIRCLE
  5
D6
100
AcDbEntity
  8
universal board
  6
ByLayer
 62
  256
370
   -1
100
AcDbCircle
 10
126.3599999999928
 20
63.94000000000094
 40
0.5
  0
CIRCLE
  5
D7
100
AcDbEntity
  8
universal board
  6
ByLayer
 62
  256
370
   -1
100
AcDbCircle
 10
126.3599999999928
 20
61.4000000000009
 40
0.5
  0
CIRCLE
  5
D8
100
AcDbEntity
  8
universal board
  6
ByLayer
 62
  256
370
   -1
100
AcDbCircle
 10
126.3599999999928
 20
58.86000000000087
 40
0.5
  0
CIRCLE
  5
D9
100
AcDbEntity
  8
universal board
  6
ByLayer
 62
  256
370
   -1
100
AcDbCircle
 10
128.8999999999926
 20
81.72000000000119
 40
0.5
  0
CIRCLE
  5
DA
100
AcDbEntity
  8
universal board
  6
ByLayer
 62
  256
370
   -1
100
AcDbCircle
 10
128.8999999999926
 20
79.18000000000116
 40
0.5
  0
CIRCLE
  5
DB
100
AcDbEntity
  8
universal board
  6
ByLayer
 62
  256
370
   -1
100
AcDbCircle
 10
128.8999999999926
 20
76.64000000000112
 40
0.5
  0
CIRCLE
  5
DC
100
AcDbEntity
  8
universal board
  6
ByLayer
 62
  256
370
   -1
100
AcDbCircle
 10
128.8999999999926
 20
74.10000000000109
 40
0.5
  0
CIRCLE
  5
DD
100
AcDbEntity
  8
universal board
  6
ByLayer
 62
  256
370
   -1
100
AcDbCircle
 10
128.8999999999926
 20
71.56000000000105
 40
0.5
  0
CIRCLE
  5
DE
100
AcDbEntity
  8
universal board
  6
ByLayer
 62
  256
370
   -1
100
AcDbCircle
 10
128.8999999999926
 20
69.02000000000102
 40
0.5
  0
CIRCLE
  5
DF
100
AcDbEntity
  8
universal board
  6
ByLayer
 62
  256
370
   -1
100
AcDbCircle
 10
128.8999999999926
 20
66.48000000000098
 40
0.5
  0
CIRCLE
  5
E0
100
AcDbEntity
  8
universal board
  6
ByLayer
 62
  256
370
   -1
100
AcDbCircle
 10
128.8999999999926
 20
63.94000000000095
 40
0.5
  0
CIRCLE
  5
E1
100
AcDbEntity
  8
universal board
  6
ByLayer
 62
  256
370
   -1
100
AcDbCircle
 10
128.8999999999926
 20
61.40000000000092
 40
0.5
  0
CIRCLE
  5
E2
100
AcDbEntity
  8
universal board
  6
ByLayer
 62
  256
370
   -1
100
AcDbCircle
 10
128.8999999999926
 20
58.86000000000088
 40
0.5
  0
CIRCLE
  5
E3
100
AcDbEntity
  8
universal board
  6
ByLayer
 62
  256
370
   -1
100
AcDbCircle
 10
131.4399999999925
 20
81.72000000000121
 40
0.5
  0
CIRCLE
  5
E4
100
AcDbEntity
  8
universal board
  6
ByLayer
 62
  256
370
   -1
100
AcDbCircle
 10
131.4399999999925
 20
79.18000000000117
 40
0.5
  0
CIRCLE
  5
E5
100
AcDbEntity
  8
universal board
  6
ByLayer
 62
  256
370
   -1
100
AcDbCircle
 10
131.4399999999925
 20
76.64000000000114
 40
0.5
  0
CIRCLE
  5
E6
100
AcDbEntity
  8
universal board
  6
ByLayer
 62
  256
370
   -1
100
AcDbCircle
 10
131.4399999999925
 20
74.1000000000011
 40
0.5
  0
CIRCLE
  5
E7
100
AcDbEntity
  8
universal board
  6
ByLayer
 62
  256
370
   -1
100
AcDbCircle
 10
131.4399999999925
 20
71.56000000000107
 40
0.5
  0
CIRCLE
  5
E8
100
AcDbEntity
  8
universal board
  6
ByLayer
 62
  256
370
   -1
100
AcDbCircle
 10
131.4399999999925
 20
69.02000000000103
 40
0.5
  0
CIRCLE
  5
E9
100
AcDbEntity
  8
universal board
  6
ByLayer
 62
  256
370
   -1
100
AcDbCircle
 10
131.4399999999925
 20
66.480000000001
 40
0.5
  0
CIRCLE
  5
EA
100
AcDbEntity
  8
universal board
  6
ByLayer
 62
  256
370
   -1
100
AcDbCircle
 10
131.4399999999925
 20
63.94000000000096
 40
0.5
  0
CIRCLE
  5
EB
100
AcDbEntity
  8
universal board
  6
ByLayer
 62
  256
370
   -1
100
AcDbCircle
 10
131.4399999999925
 20
61.40000000000093
 40
0.5
  0
CIRCLE
  5
EC
100
AcDbEntity
  8
universal board
  6
ByLayer
 62
  256
370
   -1
100
AcDbCircle
 10
131.4399999999925
 20
58.86000000000089
 40
0.5
  0
CIRCLE
  5
ED
100
AcDbEntity
  8
universal board
  6
ByLayer
 62
  256
370
   -1
100
AcDbCircle
 10
133.9799999999924
 20
81.72000000000122
 40
0.5
  0
CIRCLE
  5
EE
100
AcDbEntity
  8
universal board
  6
ByLayer
 62
  256
370
   -1
100
AcDbCircle
 10
133.9799999999924
 20
79.18000000000119
 40
0.5
  0
CIRCLE
  5
EF
100
AcDbEntity
  8
universal board
  6
ByLayer
 62
  256
370
   -1
100
AcDbCircle
 10
133.9799999999924
 20
76.64000000000115
 40
0.5
  0
CIRCLE
  5
F0
100
AcDbEntity
  8
universal board
  6
ByLayer
 62
  256
370
   -1
100
AcDbCircle
 10
133.9799999999924
 20
74.10000000000112
 40
0.5
  0
CIRCLE
  5
F1
100
AcDbEntity
  8
universal board
  6
ByLayer
 62
  256
370
   -1
100
AcDbCircle
 10
133.9799999999924
 20
71.56000000000108
 40
0.5
  0
CIRCLE
  5
F2
100
AcDbEntity
  8
universal board
  6
ByLayer
 62
  256
370
   -1
100
AcDbCircle
 10
133.9799999999924
 20
69.02000000000105
 40
0.5
  0
CIRCLE
  5
F3
100
AcDbEntity
  8
universal board
  6
ByLayer
 62
  256
370
   -1
100
AcDbCircle
 10
133.9799999999924
 20
66.48000000000101
 40
0.5
  0
CIRCLE
  5
F4
100
AcDbEntity
  8
universal board
  6
ByLayer
 62
  256
370
   -1
100
AcDbCircle
 10
133.9799999999924
 20
63.94000000000098
 40
0.5
  0
CIRCLE
  5
F5
100
AcDbEntity
  8
universal board
  6
ByLayer
 62
  256
370
   -1
100
AcDbCircle
 10
133.9799999999924
 20
61.40000000000094
 40
0.5
  0
CIRCLE
  5
F6
100
AcDbEntity
  8
universal board
  6
ByLayer
 62
  256
370
   -1
100
AcDbCircle
 10
133.9799999999924
 20
58.86000000000091
 40
0.5
  0
CIRCLE
  5
F7
100
AcDbEntity
  8
universal board
  6
ByLayer
 62
  256
370
   -1
100
AcDbCircle
 10
136.5199999999923
 20
81.72000000000124
 40
0.5
  0
CIRCLE
  5
F8
100
AcDbEntity
  8
universal board
  6
ByLayer
 62
  256
370
   -1
100
AcDbCircle
 10
136.5199999999923
 20
79.1800000000012
 40
0.5
  0
CIRCLE
  5
F9
100
AcDbEntity
  8
universal board
  6
ByLayer
 62
  256
370
   -1
100
AcDbCircle
 10
136.5199999999923
 20
76.64000000000117
 40
0.5
  0
CIRCLE
  5
FA
100
AcDbEntity
  8
universal board
  6
ByLayer
 62
  256
370
   -1
100
AcDbCircle
 10
136.5199999999923
 20
74.10000000000113
 40
0.5
  0
CIRCLE
  5
FB
100
AcDbEntity
  8
universal board
  6
ByLayer
 62
  256
370
   -1
100
AcDbCircle
 10
136.5199999999923
 20
71.5600000000011
 40
0.5
  0
CIRCLE
  5
FC
100
AcDbEntity
  8
universal board
  6
ByLayer
 62
  256
370
   -1
100
AcDbCircle
 10
136.5199999999923
 20
69.02000000000106
 40
0.5
  0
CIRCLE
  5
FD
100
AcDbEntity
  8
universal board
  6
ByLayer
 62
  256
370
   -1
100
AcDbCircle
 10
136.5199999999923
 20
66.48000000000103
 40
0.5
  0
CIRCLE
  5
FE
100
AcDbEntity
  8
universal board
  6
ByLayer
 62
  256
370
   -1
100
AcDbCircle
 10
136.5199999999923
 20
63.94000000000099
 40
0.5
  0
CIRCLE
  5
FF
100
AcDbEntity
  8
universal board
  6
ByLayer
 62
  256
370
   -1
100
AcDbCircle
 10
136.5199999999923
 20
61.40000000000096
 40
0.5
  0
CIRCLE
  5
100
100
AcDbEntity
  8
universal board
  6
ByLayer
 62
  256
370
   -1
100
AcDbCircle
 10
136.5199999999923
 20
58.86000000000092
 40
0.5
  0
LINE
  5
101
100
AcDbEntity
  8
pin socket
  6
ByLayer
 62
  256
370
   -1
100
AcDbLine
 10
130.1699999999928
 20
72.83000000000061
 11
130.1699999999928
 21
75.37000000000104
  0
LINE
  5
102
100
AcDbEntity
  8
pin socket
  6
ByLayer
 62
  256
370
   -1
100
AcDbLine
 10
130.1699999999928
 20
70.29000000000057
 11
130.1699999999928
 21
72.83000000000101
  0
LINE
  5
103
100
AcDbEntity
  8
pin socket
  6
ByLayer
 62
  256
370
   -1
100
AcDbLine
 10
130.1699999999928
 20
67.75000000000054
 11
130.1699999999928
 21
70.29000000000097
  0
LINE
  5
104
100
AcDbEntity
  8
pin socket
  6
ByLayer
 62
  256
370
   -1
100
AcDbLine
 10
130.1699999999928
 20
65.21000000000051
 11
130.1699999999928
 21
67.75000000000094
  0
LINE
  5
105
100
AcDbEntity
  8
micon
  6
ByLayer
 62
  256
370
   -1
100
AcDbLine
 10
121.914999999994
 20
83.6250000000006
 11
128.26499999999
 21
83.6250000000006
  0
LINE
  5
106
100
AcDbEntity
  8
micon
  6
ByLayer
 62
  256
370
   -1
100
AcDbLine
 10
128.26499999999
 20
83.6250000000006
 11
128.26499999999
 21
64.57500000000149
  0
LINE
  5
107
100
AcDbEntity
  8
micon
  6
ByLayer
 62
  256
370
   -1
100
AcDbLine
 10
128.26499999999
 20
64.57500000000149
 11
121.914999999994
 21
64.57500000000149
  0
LINE
  5
108
100
AcDbEntity
  8
micon
  6
ByLayer
 62
  256
370
   -1
100
AcDbLine
 10
121.914999999994
 20
64.57500000000149
 11
121.914999999994
 21
83.6250000000006
  0
LINE
  5
109
100
AcDbEntity
  8
micon
  6
ByLayer
 62
  256
370
   -1
100
AcDbLine
 10
121.279999999993
 20
81.72000000000115
 11
121.914999999994
 21
81.72000000000115
  0
LINE
  5
10A
100
AcDbEntity
  8
micon
  6
ByLayer
 62
  256
370
   -1
100
AcDbLine
 10
128.26499999999
 20
81.72000000000119
 11
128.8999999999926
 21
81.72000000000119
  0
LINE
  5
10B
100
AcDbEntity
  8
micon
  6
ByLayer
 62
  256
370
   -1
100
AcDbLine
 10
121.279999999993
 20
79.18000000000112
 11
121.914999999994
 21
79.18000000000112
  0
LINE
  5
10C
100
AcDbEntity
  8
micon
  6
ByLayer
 62
  256
370
   -1
100
AcDbLine
 10
128.26499999999
 20
79.18000000000116
 11
128.8999999999926
 21
79.18000000000116
  0
LINE
  5
10D
100
AcDbEntity
  8
micon
  6
ByLayer
 62
  256
370
   -1
100
AcDbLine
 10
121.279999999993
 20
76.64000000000108
 11
121.914999999994
 21
76.64000000000108
  0
LINE
  5
10E
100
AcDbEntity
  8
micon
  6
ByLayer
 62
  256
370
   -1
100
AcDbLine
 10
128.2649999999901
 20
76.64000000000112
 11
128.8999999999926
 21
76.64000000000112
  0
LINE
  5
10F
100
AcDbEntity
  8
micon
  6
ByLayer
 62
  256
370
   -1
100
AcDbLine
 10
121.279999999993
 20
74.10000000000105
 11
121.914999999994
 21
74.10000000000105
  0
LINE
  5
110
100
AcDbEntity
  8
micon
  6
ByLayer
 62
  256
370
   -1
100
AcDbLine
 10
128.2649999999901
 20
74.10000000000109
 11
128.8999999999926
 21
74.10000000000109
  0
LINE
  5
111
100
AcDbEntity
  8
micon
  6
ByLayer
 62
  256
370
   -1
100
AcDbLine
 10
121.279999999993
 20
71.56000000000101
 11
121.9149999999941
 21
71.56000000000101
  0
LINE
  5
112
100
AcDbEntity
  8
micon
  6
ByLayer
 62
  256
370
   -1
100
AcDbLine
 10
128.2649999999901
 20
71.56000000000105
 11
128.8999999999927
 21
71.56000000000105
  0
LINE
  5
113
100
AcDbEntity
  8
micon
  6
ByLayer
 62
  256
370
   -1
100
AcDbLine
 10
121.2799999999931
 20
69.02000000000098
 11
121.9149999999941
 21
69.02000000000098
  0
LINE
  5
114
100
AcDbEntity
  8
micon
  6
ByLayer
 62
  256
370
   -1
100
AcDbLine
 10
128.2649999999901
 20
69.02000000000102
 11
128.8999999999927
 21
69.02000000000102
  0
LINE
  5
115
100
AcDbEntity
  8
micon
  6
ByLayer
 62
  256
370
   -1
100
AcDbLine
 10
121.2799999999931
 20
66.48000000000094
 11
121.9149999999941
 21
66.48000000000094
  0
LINE
  5
116
100
AcDbEntity
  8
micon
  6
ByLayer
 62
  256
370
   -1
100
AcDbLine
 10
128.2649999999901
 20
66.48000000000098
 11
128.8999999999927
 21
66.48000000000098
  0
ARC
  5
117
100
AcDbEntity
  8
micon
  6
ByLayer
 62
  256
370
   -1
100
AcDbCircle
 10
125.089999999992
 20
83.6250000000006
 40
1.000000000005898
100
AcDbArc
 50
179.9999999999992
 51
0
  0
LINE
  5
118
100
AcDbEntity
  8
pin socket
  6
ByLayer
 62
  256
370
   -1
100
AcDbLine
 10
120.0099999999927
 20
80.45000000000067
 11
122.5499999999931
 21
80.45000000000067
  0
LINE
  5
119
100
AcDbEntity
  8
pin socket
  6
ByLayer
 62
  256
370
   -1
100
AcDbLine
 10
122.5499999999931
 20
80.45000000000067
 11
122.5499999999931
 21
82.9900000000011
  0
LINE
  5
11A
100
AcDbEntity
  8
pin socket
  6
ByLayer
 62
  256
370
   -1
100
AcDbLine
 10
120.0099999999927
 20
82.99000000000056
 11
122.5499999999931
 21
82.99000000000056
  0
LINE
  5
11B
100
AcDbEntity
  8
pin socket
  6
ByLayer
 62
  256
370
   -1
100
AcDbLine
 10
120.0099999999927
 20
77.91000000000064
 11
122.5499999999931
 21
77.91000000000064
  0
LINE
  5
11C
100
AcDbEntity
  8
pin socket
  6
ByLayer
 62
  256
370
   -1
100
AcDbLine
 10
122.5499999999931
 20
77.91000000000064
 11
122.5499999999931
 21
80.45000000000107
  0
LINE
  5
11D
100
AcDbEntity
  8
pin socket
  6
ByLayer
 62
  256
370
   -1
100
AcDbLine
 10
120.0099999999927
 20
80.45000000000053
 11
122.5499999999931
 21
80.45000000000053
  0
LINE
  5
11E
100
AcDbEntity
  8
pin socket
  6
ByLayer
 62
  256
370
   -1
100
AcDbLine
 10
120.0099999999933
 20
75.3700000000006
 11
120.0099999999933
 21
77.91000000000103
  0
LINE
  5
11F
100
AcDbEntity
  8
pin socket
  6
ByLayer
 62
  256
370
   -1
100
AcDbLine
 10
120.0099999999927
 20
75.3700000000006
 11
122.5499999999931
 21
75.3700000000006
  0
LINE
  5
120
100
AcDbEntity
  8
pin socket
  6
ByLayer
 62
  256
370
   -1
100
AcDbLine
 10
122.5499999999931
 20
75.3700000000006
 11
122.5499999999931
 21
77.91000000000103
  0
LINE
  5
121
100
AcDbEntity
  8
pin socket
  6
ByLayer
 62
  256
370
   -1
100
AcDbLine
 10
120.0099999999927
 20
77.91000000000049
 11
122.5499999999931
 21
77.91000000000049
  0
LINE
  5
122
100
AcDbEntity
  8
pin socket
  6
ByLayer
 62
  256
370
   -1
100
AcDbLine
 10
120.0099999999933
 20
72.83000000000057
 11
120.0099999999933
 21
75.370000000001
  0
LINE
  5
123
100
AcDbEntity
  8
pin socket
  6
ByLayer
 62
  256
370
   -1
100
AcDbLine
 10
120.0099999999927
 20
72.83000000000057
 11
122.5499999999931
 21
72.83000000000057
  0
LINE
  5
124
100
AcDbEntity
  8
pin socket
  6
ByLayer
 62
  256
370
   -1
100
AcDbLine
 10
122.5499999999931
 20
72.83000000000057
 11
122.5499999999931
 21
75.370000000001
  0
LINE
  5
125
100
AcDbEntity
  8
pin socket
  6
ByLayer
 62
  256
370
   -1
100
AcDbLine
 10
120.0099999999927
 20
75.37000000000046
 11
122.5499999999931
 21
75.37000000000046
  0
LINE
  5
126
100
AcDbEntity
  8
pin socket
  6
ByLayer
 62
  256
370
   -1
100
AcDbLine
 10
120.0099999999933
 20
70.29000000000053
 11
120.0099999999933
 21
72.83000000000096
  0
LINE
  5
127
100
AcDbEntity
  8
pin socket
  6
ByLayer
 62
  256
370
   -1
100
AcDbLine
 10
120.0099999999927
 20
70.29000000000053
 11
122.5499999999932
 21
70.29000000000053
  0
LINE
  5
128
100
AcDbEntity
  8
pin socket
  6
ByLayer
 62
  256
370
   -1
100
AcDbLine
 10
122.5499999999932
 20
70.29000000000053
 11
122.5499999999932
 21
72.83000000000096
  0
LINE
  5
129
100
AcDbEntity
  8
pin socket
  6
ByLayer
 62
  256
370
   -1
100
AcDbLine
 10
120.0099999999927
 20
72.83000000000042
 11
122.5499999999932
 21
72.83000000000042
  0
LINE
  5
12A
100
AcDbEntity
  8
pin socket
  6
ByLayer
 62
  256
370
   -1
100
AcDbLine
 10
120.0099999999933
 20
67.7500000000005
 11
120.0099999999933
 21
70.29000000000093
  0
LINE
  5
12B
100
AcDbEntity
  8
pin socket
  6
ByLayer
 62
  256
370
   -1
100
AcDbLine
 10
120.0099999999928
 20
67.7500000000005
 11
122.5499999999932
 21
67.7500000000005
  0
LINE
  5
12C
100
AcDbEntity
  8
pin socket
  6
ByLayer
 62
  256
370
   -1
100
AcDbLine
 10
122.5499999999932
 20
67.7500000000005
 11
122.5499999999932
 21
70.29000000000093
  0
LINE
  5
12D
100
AcDbEntity
  8
pin socket
  6
ByLayer
 62
  256
370
   -1
100
AcDbLine
 10
120.0099999999928
 20
70.29000000000039
 11
122.5499999999932
 21
70.29000000000039
  0
LINE
  5
12E
100
AcDbEntity
  8
pin socket
  6
ByLayer
 62
  256
370
   -1
100
AcDbLine
 10
120.0099999999933
 20
65.21000000000046
 11
120.0099999999933
 21
67.7500000000009
  0
LINE
  5
12F
100
AcDbEntity
  8
pin socket
  6
ByLayer
 62
  256
370
   -1
100
AcDbLine
 10
120.0099999999928
 20
65.21000000000046
 11
122.5499999999932
 21
65.21000000000046
  0
LINE
  5
130
100
AcDbEntity
  8
pin socket
  6
ByLayer
 62
  256
370
   -1
100
AcDbLine
 10
122.5499999999932
 20
65.21000000000046
 11
122.5499999999932
 21
67.7500000000009
  0
LINE
  5
131
100
AcDbEntity
  8
pin socket
  6
ByLayer
 62
  256
370
   -1
100
AcDbLine
 10
120.0099999999928
 20
67.75000000000036
 11
122.5499999999932
 21
67.75000000000036
  0
LINE
  5
132
100
AcDbEntity
  8
pin socket
  6
ByLayer
 62
  256
370
   -1
100
AcDbLine
 10
127.6299999999929
 20
80.45000000000071
 11
127.6299999999929
 21
82.99000000000115
  0
LINE
  5
133
100
AcDbEntity
  8
pin socket
  6
ByLayer
 62
  256
370
   -1
100
AcDbLine
 10
127.6299999999923
 20
80.45000000000071
 11
130.1699999999927
 21
80.45000000000071
  0
LINE
  5
134
100
AcDbEntity
  8
pin socket
  6
ByLayer
 62
  256
370
   -1
100
AcDbLine
 10
127.6299999999923
 20
82.99000000000061
 11
130.1699999999927
 21
82.99000000000061
  0
LINE
  5
135
100
AcDbEntity
  8
pin socket
  6
ByLayer
 62
  256
370
   -1
100
AcDbLine
 10
127.6299999999929
 20
77.91000000000068
 11
127.6299999999929
 21
80.45000000000111
  0
LINE
  5
136
100
AcDbEntity
  8
pin socket
  6
ByLayer
 62
  256
370
   -1
100
AcDbLine
 10
127.6299999999923
 20
77.91000000000068
 11
130.1699999999927
 21
77.91000000000068
  0
LINE
  5
137
100
AcDbEntity
  8
pin socket
  6
ByLayer
 62
  256
370
   -1
100
AcDbLine
 10
127.6299999999923
 20
80.45000000000057
 11
130.1699999999927
 21
80.45000000000057
  0
LINE
  5
138
100
AcDbEntity
  8
pin socket
  6
ByLayer
 62
  256
370
   -1
100
AcDbLine
 10
127.6299999999929
 20
75.37000000000064
 11
127.6299999999929
 21
77.91000000000108
  0
LINE
  5
139
100
AcDbEntity
  8
pin socket
  6
ByLayer
 62
  256
370
   -1
100
AcDbLine
 10
127.6299999999924
 20
75.37000000000064
 11
130.1699999999928
 21
75.37000000000064
  0
LINE
  5
13A
100
AcDbEntity
  8
pin socket
  6
ByLayer
 62
  256
370
   -1
100
AcDbLine
 10
127.6299999999924
 20
77.91000000000054
 11
130.1699999999928
 21
77.91000000000054
  0
LINE
  5
13B
100
AcDbEntity
  8
pin socket
  6
ByLayer
 62
  256
370
   -1
100
AcDbLine
 10
127.6299999999929
 20
72.83000000000061
 11
127.6299999999929
 21
75.37000000000104
  0
LINE
  5
13C
100
AcDbEntity
  8
pin socket
  6
ByLayer
 62
  256
370
   -1
100
AcDbLine
 10
127.6299999999924
 20
72.83000000000061
 11
130.1699999999928
 21
72.83000000000061
  0
LINE
  5
13D
100
AcDbEntity
  8
pin socket
  6
ByLayer
 62
  256
370
   -1
100
AcDbLine
 10
127.6299999999924
 20
75.3700000000005
 11
130.1699999999928
 21
75.3700000000005
  0
LINE
  5
13E
100
AcDbEntity
  8
pin socket
  6
ByLayer
 62
  256
370
   -1
100
AcDbLine
 10
127.6299999999929
 20
70.29000000000057
 11
127.6299999999929
 21
72.83000000000101
  0
LINE
  5
13F
100
AcDbEntity
  8
pin socket
  6
ByLayer
 62
  256
370
   -1
100
AcDbLine
 10
127.6299999999924
 20
70.29000000000057
 11
130.1699999999928
 21
70.29000000000057
  0
LINE
  5
140
100
AcDbEntity
  8
pin socket
  6
ByLayer
 62
  256
370
   -1
100
AcDbLine
 10
127.6299999999924
 20
72.83000000000047
 11
130.1699999999928
 21
72.83000000000047
  0
LINE
  5
141
100
AcDbEntity
  8
pin socket
  6
ByLayer
 62
  256
370
   -1
100
AcDbLine
 10
127.6299999999929
 20
67.75000000000054
 11
127.6299999999929
 21
70.29000000000097
  0
LINE
  5
142
100
AcDbEntity
  8
pin socket
  6
ByLayer
 62
  256
370
   -1
100
AcDbLine
 10
127.6299999999924
 20
67.75000000000054
 11
130.1699999999928
 21
67.75000000000054
  0
LINE
  5
143
100
AcDbEntity
  8
pin socket
  6
ByLayer
 62
  256
370
   -1
100
AcDbLine
 10
127.6299999999924
 20
70.29000000000043
 11
130.1699999999928
 21
70.29000000000043
  0
LINE
  5
144
100
AcDbEntity
  8
pin socket
  6
ByLayer
 62
  256
370
   -1
100
AcDbLine
 10
127.6299999999929
 20
65.21000000000051
 11
127.6299999999929
 21
67.75000000000094
  0
LINE
  5
145
100
AcDbEntity
  8
pin socket
  6
ByLayer
 62
  256
370
   -1
100
AcDbLine
 10
127.6299999999924
 20
65.21000000000051
 11
130.1699999999928
 21
65.21000000000051
  0
LINE
  5
146
100
AcDbEntity
  8
pin socket
  6
ByLayer
 62
  256
370
   -1
100
AcDbLine
 10
127.6299999999924
 20
67.7500000000004
 11
130.1699999999928
 21
67.7500000000004
  0
LINE
  5
147
100
AcDbEntity
  8
pin socket
  6
ByLayer
 62
  256
370
   -1
100
AcDbLine
 10
122.5499999999931
 20
82.99000000000056
 11
127.6299999999929
 21
82.99000000000061
  0
LINE
  5
148
100
AcDbEntity
  8
pin socket
  6
ByLayer
 62
  256
370
   -1
100
AcDbLine
 10
122.5499999999932
 20
65.21000000000046
 11
127.6299999999929
 21
65.21000000000051
  0
MTEXT
  5
149
100
AcDbEntity
  8
micon
  6
ByLayer
 62
  256
370
   -1
100
AcDbMText
 10
122.2174571637239
 20
73.92227073990665
 30
0
 40
1
 41
2.444444444444569
 71
    4
 72
    1
  1
VDD\PRA5\PRA4\PRA3\PRC5\PRC4\PRC3
  7
iso
210
0
220
0
230
1
 50
0
 73
    2
 44
1.54
  0
MTEXT
  5
14A
100
AcDbEntity
  8
micon
  6
ByLayer
 62
  256
370
   -1
100
AcDbMText
 10
125.4390402230602
 20
73.87873583369939
 30
0
 40
1
 41
2.444444020440146
 71
    4
 72
    1
  1
VSS\PRA0\PRA1\PRA2\PRC0\PRC1\PRC2
  7
iso
210
0
220
0
230
1
 50
0
 73
    2
 44
1.54
  0
CIRCLE
  5
14B
100
AcDbEntity
  8
0_wire
  6
ByLayer
 62
  256
370
   -1
100
AcDbCircle
 10
121.279999999993
 20
79.18000000000112
 40
1
  0
CIRCLE
  5
14C
100
AcDbEntity
  8
0_wire
  6
ByLayer
 62
  256
370
   -1
100
AcDbCircle
 10
121.279999999993
 20
74.10000000000105
 40
1
  0
CIRCLE
  5
14D
100
AcDbEntity
  8
0_wire
  6
ByLayer
 62
  256
370
   -1
100
AcDbCircle
 10
121.279999999993
 20
71.56000000000101
 40
1
  0
CIRCLE
  5
14E
100
AcDbEntity
  8
0_wire
  6
ByLayer
 62
  256
370
   -1
100
AcDbCircle
 10
128.8999999999926
 20
79.18000000000116
 40
1
  0
CIRCLE
  5
14F
100
AcDbEntity
  8
0_wire
  6
ByLayer
 62
  256
370
   -1
100
AcDbCircle
 10
128.8999999999926
 20
76.64000000000112
 40
1
  0
CIRCLE
  5
150
100
AcDbEntity
  8
0_wire
  6
ByLayer
 62
  256
370
   -1
100
AcDbCircle
 10
128.8999999999926
 20
74.10000000000109
 40
1
  0
LINE
  5
151
100
AcDbEntity
  8
resister
  6
ByLayer
 62
  256
370
   -1
100
AcDbLine
 10
135.4199999999924
 20
70.55000000000113
 11
135.4199999999924
 21
64.95000000000111
  0
LINE
  5
152
100
AcDbEntity
  8
resister
  6
ByLayer
 62
  256
370
   -1
100
AcDbLine
 10
135.4199999999924
 20
64.95000000000111
 11
137.619999999992
 21
64.95000000000111
  0
LINE
  5
153
100
AcDbEntity
  8
resister
  6
ByLayer
 62
  256
370
   -1
100
AcDbLine
 10
137.619999999992
 20
64.95000000000111
 11
137.619999999992
 21
70.55000000000113
  0
LINE
  5
154
100
AcDbEntity
  8
resister
  6
ByLayer
 62
  256
370
   -1
100
AcDbLine
 10
137.619999999992
 20
70.55000000000113
 11
135.4199999999924
 21
70.55000000000113
  0
LINE
  5
155
100
AcDbEntity
  8
resister
  6
ByLayer
 62
  256
370
   -1
100
AcDbLine
 10
136.5199999999923
 20
71.5600000000011
 11
136.5199999999923
 21
70.55000000000113
  0
LINE
  5
156
100
AcDbEntity
  8
resister
  6
ByLayer
 62
  256
370
   -1
100
AcDbLine
 10
136.5199999999923
 20
64.95000000000111
 11
136.5199999999923
 21
63.94000000000105
  0
LINE
  5
157
100
AcDbEntity
  8
0_wire
  6
ByLayer
 62
  256
370
   -1
100
AcDbLine
 10
128.8999999999926
 20
71.56000000000105
 11
136.5199999999923
 21
71.5600000000011
  0
LINE
  5
158
100
AcDbEntity
  8
0_wire
  6
ByLayer
 62
  256
370
   -1
100
AcDbLine
 10
136.5199999999923
 20
63.94000000000099
 11
136.5199999999923
 21
61.40000000000096
  0
CIRCLE
  5
159
100
AcDbEntity
  8
pin socket
  6
ByLayer
 62
  256
370
   -1
100
AcDbCircle
 10
136.5199999999923
 20
60.13000000000025
 40
1.65
  0
CIRCLE
  5
15A
100
AcDbEntity
  8
pin socket
  6
ByLayer
 62
  256
370
   -1
100
AcDbCircle
 10
131.4399999999925
 20
60.13000000000022
 40
1.65
  0
CIRCLE
  5
15B
100
AcDbEntity
  8
pin socket
  6
ByLayer
 62
  256
370
   -1
100
AcDbCircle
 10
126.3599999999927
 20
60.13000000000019
 40
1.65
  0
CIRCLE
  5
15C
100
AcDbEntity
  8
pin socket
  6
ByLayer
 62
  256
370
   -1
100
AcDbCircle
 10
121.279999999993
 20
60.13000000000017
 40
1.65
  0
CIRCLE
  5
15D
100
AcDbEntity
  8
pin socket
  6
ByLayer
 62
  256
370
   -1
100
AcDbCircle
 10
116.1999999999932
 20
60.13000000000014
 40
1.65
  0
LINE
  5
15E
100
AcDbEntity
  8
diode
  6
ByLayer
 62
  256
370
   -1
100
AcDbLine
 10
134.669999999994
 20
62.22999999999938
 11
134.669999999994
 21
58.03000000000109
  0
LINE
  5
15F
100
AcDbEntity
  8
diode
  6
ByLayer
 62
  256
370
   -1
100
AcDbLine
 10
134.669999999994
 20
58.03000000000109
 11
138.3699999999905
 21
58.03000000000109
  0
LINE
  5
160
100
AcDbEntity
  8
diode
  6
ByLayer
 62
  256
370
   -1
100
AcDbLine
 10
138.3699999999905
 20
58.03000000000109
 11
138.3699999999905
 21
62.22999999999938
  0
LINE
  5
161
100
AcDbEntity
  8
diode
  6
ByLayer
 62
  256
370
   -1
100
AcDbLine
 10
138.3699999999905
 20
62.22999999999938
 11
134.669999999994
 21
62.22999999999938
  0
LINE
  5
162
100
AcDbEntity
  8
diode
  6
ByLayer
 62
  256
370
   -1
100
AcDbLine
 10
129.5899999999942
 20
62.22999999999935
 11
129.5899999999942
 21
58.03000000000106
  0
LINE
  5
163
100
AcDbEntity
  8
diode
  6
ByLayer
 62
  256
370
   -1
100
AcDbLine
 10
129.5899999999942
 20
58.03000000000106
 11
133.2899999999907
 21
58.03000000000106
  0
LINE
  5
164
100
AcDbEntity
  8
diode
  6
ByLayer
 62
  256
370
   -1
100
AcDbLine
 10
133.2899999999907
 20
58.03000000000106
 11
133.2899999999907
 21
62.22999999999935
  0
LINE
  5
165
100
AcDbEntity
  8
diode
  6
ByLayer
 62
  256
370
   -1
100
AcDbLine
 10
133.2899999999907
 20
62.22999999999935
 11
129.5899999999942
 21
62.22999999999935
  0
LINE
  5
166
100
AcDbEntity
  8
diode
  6
ByLayer
 62
  256
370
   -1
100
AcDbLine
 10
124.5099999999944
 20
62.22999999999932
 11
124.5099999999944
 21
58.03000000000103
  0
LINE
  5
167
100
AcDbEntity
  8
diode
  6
ByLayer
 62
  256
370
   -1
100
AcDbLine
 10
124.5099999999944
 20
58.03000000000103
 11
128.209999999991
 21
58.03000000000103
  0
LINE
  5
168
100
AcDbEntity
  8
diode
  6
ByLayer
 62
  256
370
   -1
100
AcDbLine
 10
128.209999999991
 20
58.03000000000103
 11
128.209999999991
 21
62.22999999999932
  0
LINE
  5
169
100
AcDbEntity
  8
diode
  6
ByLayer
 62
  256
370
   -1
100
AcDbLine
 10
128.209999999991
 20
62.22999999999932
 11
124.5099999999944
 21
62.22999999999932
  0
LINE
  5
16A
100
AcDbEntity
  8
diode
  6
ByLayer
 62
  256
370
   -1
100
AcDbLine
 10
119.4299999999947
 20
62.22999999999929
 11
119.4299999999947
 21
58.030000000001
  0
LINE
  5
16B
100
AcDbEntity
  8
diode
  6
ByLayer
 62
  256
370
   -1
100
AcDbLine
 10
119.4299999999947
 20
58.030000000001
 11
123.1299999999912
 21
58.030000000001
  0
LINE
  5
16C
100
AcDbEntity
  8
diode
  6
ByLayer
 62
  256
370
   -1
100
AcDbLine
 10
123.1299999999912
 20
58.030000000001
 11
123.1299999999912
 21
62.22999999999929
  0
LINE
  5
16D
100
AcDbEntity
  8
diode
  6
ByLayer
 62
  256
370
   -1
100
AcDbLine
 10
123.1299999999912
 20
62.22999999999929
 11
119.4299999999947
 21
62.22999999999929
  0
LINE
  5
16E
100
AcDbEntity
  8
diode
  6
ByLayer
 62
  256
370
   -1
100
AcDbLine
 10
114.3499999999949
 20
62.22999999999927
 11
114.3499999999949
 21
58.03000000000097
  0
LINE
  5
16F
100
AcDbEntity
  8
diode
  6
ByLayer
 62
  256
370
   -1
100
AcDbLine
 10
114.3499999999949
 20
58.03000000000097
 11
118.0499999999915
 21
58.03000000000097
  0
LINE
  5
170
100
AcDbEntity
  8
diode
  6
ByLayer
 62
  256
370
   -1
100
AcDbLine
 10
118.0499999999915
 20
58.03000000000097
 11
118.0499999999915
 21
62.22999999999927
  0
LINE
  5
171
100
AcDbEntity
  8
diode
  6
ByLayer
 62
  256
370
   -1
100
AcDbLine
 10
118.0499999999915
 20
62.22999999999927
 11
114.3499999999949
 21
62.22999999999927
  0
CIRCLE
  5
172
100
AcDbEntity
  8
diode
  6
ByLayer
 62
  256
370
   -1
100
AcDbCircle
 10
136.5199999999923
 20
61.40000000000096
 40
0.3
  0
CIRCLE
  5
173
100
AcDbEntity
  8
diode
  6
ByLayer
 62
  256
370
   -1
100
AcDbCircle
 10
136.5199999999923
 20
58.86000000000092
 40
0.3
  0
CIRCLE
  5
174
100
AcDbEntity
  8
diode
  6
ByLayer
 62
  256
370
   -1
100
AcDbCircle
 10
131.4399999999925
 20
61.40000000000093
 40
0.3
  0
CIRCLE
  5
175
100
AcDbEntity
  8
diode
  6
ByLayer
 62
  256
370
   -1
100
AcDbCircle
 10
131.4399999999925
 20
58.86000000000089
 40
0.3
  0
CIRCLE
  5
176
100
AcDbEntity
  8
diode
  6
ByLayer
 62
  256
370
   -1
100
AcDbCircle
 10
126.3599999999928
 20
61.4000000000009
 40
0.3
  0
CIRCLE
  5
177
100
AcDbEntity
  8
diode
  6
ByLayer
 62
  256
370
   -1
100
AcDbCircle
 10
126.3599999999928
 20
58.86000000000087
 40
0.3
  0
CIRCLE
  5
178
100
AcDbEntity
  8
diode
  6
ByLayer
 62
  256
370
   -1
100
AcDbCircle
 10
121.279999999993
 20
61.40000000000087
 40
0.3
  0
CIRCLE
  5
179
100
AcDbEntity
  8
diode
  6
ByLayer
 62
  256
370
   -1
100
AcDbCircle
 10
121.279999999993
 20
58.86000000000084
 40
0.3
  0
CIRCLE
  5
17A
100
AcDbEntity
  8
diode
  6
ByLayer
 62
  256
370
   -1
100
AcDbCircle
 10
116.1999999999932
 20
61.40000000000084
 40
0.3
  0
CIRCLE
  5
17B
100
AcDbEntity
  8
diode
  6
ByLayer
 62
  256
370
   -1
100
AcDbCircle
 10
116.1999999999932
 20
58.86000000000081
 40
0.3
  0
LINE
  5
17C
100
AcDbEntity
  8
0_wire
  6
ByLayer
 62
  256
370
   -1
100
AcDbLine
 10
121.279999999993
 20
69.02000000000098
 11
116.1999999999932
 21
69.02000000000109
  0
CIRCLE
  5
17D
100
AcDbEntity
  8
resister
  6
ByLayer
 62
  256
370
   -1
100
AcDbCircle
 10
118.7399999999931
 20
63.94000000000089
 40
0.3
  0
LINE
  5
17E
100
AcDbEntity
  8
resister
  6
ByLayer
 62
  256
370
   -1
100
AcDbLine
 10
119.839999999993
 20
63.94000000000089
 11
119.839999999993
 21
66.48000000000093
  0
LINE
  5
17F
100
AcDbEntity
  8
resister
  6
ByLayer
 62
  256
370
   -1
100
AcDbLine
 10
117.6399999999933
 20
66.48000000000093
 11
117.6399999999933
 21
63.94000000000089
  0
LINE
  5
180
100
AcDbEntity
  8
resister
  6
ByLayer
 62
  256
370
   -1
100
AcDbLine
 10
119.839999999993
 20
63.94000000000089
 11
117.6399999999933
 21
63.94000000000089
  0
LINE
  5
181
100
AcDbEntity
  8
resister
  6
ByLayer
 62
  256
370
   -1
100
AcDbLine
 10
117.6399999999933
 20
66.48000000000093
 11
119.839999999993
 21
66.48000000000093
  0
CIRCLE
  5
182
100
AcDbEntity
  8
resister
  6
ByLayer
 62
  256
370
   -1
100
AcDbCircle
 10
118.7399999999931
 20
66.48000000000093
 40
0.3
  0
LINE
  5
183
100
AcDbEntity
  8
0_wire
  6
ByLayer
 62
  256
370
   -1
100
AcDbLine
 10
121.279999999993
 20
66.48000000000094
 11
118.7399999999931
 21
66.48000000000093
  0
LINE
  5
184
100
AcDbEntity
  8
0_wire
  6
ByLayer
 62
  256
370
   -1
100
AcDbLine
 10
118.7399999999931
 20
63.94000000000089
 11
118.7399999999931
 21
61.40000000000086
  0
LINE
  5
185
100
AcDbEntity
  8
0_wire
  6
ByLayer
 62
  256
370
   -1
100
AcDbLine
 10
118.7399999999931
 20
61.40000000000086
 11
121.279999999993
 21
61.40000000000087
  0
LINE
  5
186
100
AcDbEntity
  8
0_wire
  6
ByLayer
 62
  256
370
   -1
100
AcDbLine
 10
133.9799999999924
 20
61.40000000000094
 11
131.4399999999925
 21
61.40000000000093
  0
CIRCLE
  5
187
100
AcDbEntity
  8
resister
  6
ByLayer
 62
  256
370
   -1
100
AcDbCircle
 10
131.4399999999925
 20
63.94000000000111
 40
0.3
  0
LINE
  5
188
100
AcDbEntity
  8
resister
  6
ByLayer
 62
  256
370
   -1
100
AcDbLine
 10
132.5399999999923
 20
63.94000000000111
 11
132.5399999999923
 21
66.48000000000114
  0
LINE
  5
189
100
AcDbEntity
  8
resister
  6
ByLayer
 62
  256
370
   -1
100
AcDbLine
 10
130.3399999999927
 20
66.48000000000114
 11
130.3399999999927
 21
63.94000000000111
  0
LINE
  5
18A
100
AcDbEntity
  8
resister
  6
ByLayer
 62
  256
370
   -1
100
AcDbLine
 10
132.5399999999923
 20
63.94000000000111
 11
130.3399999999927
 21
63.94000000000111
  0
LINE
  5
18B
100
AcDbEntity
  8
resister
  6
ByLayer
 62
  256
370
   -1
100
AcDbLine
 10
130.3399999999927
 20
66.48000000000114
 11
132.5399999999923
 21
66.48000000000114
  0
CIRCLE
  5
18C
100
AcDbEntity
  8
resister
  6
ByLayer
 62
  256
370
   -1
100
AcDbCircle
 10
131.4399999999925
 20
66.48000000000114
 40
0.3
  0
LINE
  5
18D
100
AcDbEntity
  8
0_wire
  6
ByLayer
 62
  256
370
   -1
100
AcDbLine
 10
128.8999999999926
 20
66.48000000000098
 11
131.4399999999925
 21
66.48000000000114
  0
LINE
  5
18E
100
AcDbEntity
  8
0_wire
  6
ByLayer
 62
  256
370
   -1
100
AcDbLine
 10
131.4399999999925
 20
63.94000000000096
 11
126.3599999999928
 21
63.94000000000094
  0
LINE
  5
18F
100
AcDbEntity
  8
0_wire
  6
ByLayer
 62
  256
370
   -1
100
AcDbLine
 10
126.3599999999928
 20
63.94000000000094
 11
126.3599999999928
 21
61.4000000000009
  0
LINE
  5
190
100
AcDbEntity
  8
pin socket
  6
ByLayer
 62
  256
370
   -1
100
AcDbLine
 10
130.1699999999927
 20
75.37000000000064
 11
130.1699999999927
 21
77.91000000000108
  0
LINE
  5
191
100
AcDbEntity
  8
0_GND
  6
ByLayer
 62
  256
370
   -1
100
AcDbLine
 10
128.8999999999926
 20
81.72000000000119
 11
123.8199999999929
 21
81.72000000000116
  0
LINE
  5
192
100
AcDbEntity
  8
0_GND
  6
ByLayer
 62
  256
370
   -1
100
AcDbLine
 10
123.8199999999929
 20
81.72000000000116
 11
123.8199999999929
 21
58.86000000000085
  0
LINE
  5
193
100
AcDbEntity
  8
0_GND
  6
ByLayer
 62
  256
370
   -1
100
AcDbLine
 10
123.8199999999929
 20
58.86000000000085
 11
121.279999999993
 21
58.86000000000084
  0
LINE
  5
194
100
AcDbEntity
  8
0_GND
  6
ByLayer
 62
  256
370
   -1
100
AcDbLine
 10
121.279999999993
 20
58.86000000000084
 11
116.1999999999932
 21
58.86000000000081
  0
LINE
  5
195
100
AcDbEntity
  8
0_GND
  6
ByLayer
 62
  256
370
   -1
100
AcDbLine
 10
123.8199999999929
 20
58.86000000000085
 11
126.3599999999928
 21
58.86000000000087
  0
LINE
  5
196
100
AcDbEntity
  8
0_GND
  6
ByLayer
 62
  256
370
   -1
100
AcDbLine
 10
126.3599999999928
 20
58.86000000000087
 11
131.4399999999925
 21
58.86000000000089
  0
LINE
  5
197
100
AcDbEntity
  8
0_GND
  6
ByLayer
 62
  256
370
   -1
100
AcDbLine
 10
131.4399999999925
 20
58.86000000000089
 11
136.5199999999923
 21
58.86000000000092
  0
LINE
  5
198
100
AcDbEntity
  8
pin socket
  6
ByLayer
 62
  256
370
   -1
100
AcDbLine
 10
120.0099999999932
 20
80.45000000000067
 11
120.0099999999932
 21
82.9900000000011
  0
LINE
  5
199
100
AcDbEntity
  8
pin socket
  6
ByLayer
 62
  256
370
   -1
100
AcDbLine
 10
120.0099999999932
 20
77.91000000000064
 11
120.0099999999932
 21
80.45000000000107
  0
LINE
  5
19A
100
AcDbEntity
  8
pin socket
  6
ByLayer
 62
  256
370
   -1
100
AcDbLine
 10
117.4699999999933
 20
80.45000000000066
 11
117.4699999999933
 21
82.99000000000109
  0
LINE
  5
19B
100
AcDbEntity
  8
pin socket
  6
ByLayer
 62
  256
370
   -1
100
AcDbLine
 10
117.4699999999934
 20
77.91000000000062
 11
117.4699999999934
 21
80.45000000000105
  0
LINE
  5
19C
100
AcDbEntity
  8
pin socket
  6
ByLayer
 62
  256
370
   -1
100
AcDbLine
 10
114.9299999999935
 20
80.45000000000064
 11
114.9299999999935
 21
82.99000000000107
  0
LINE
  5
19D
100
AcDbEntity
  8
pin socket
  6
ByLayer
 62
  256
370
   -1
100
AcDbLine
 10
114.9299999999929
 20
80.45000000000064
 11
117.4699999999933
 21
80.45000000000064
  0
LINE
  5
19E
100
AcDbEntity
  8
pin socket
  6
ByLayer
 62
  256
370
   -1
100
AcDbLine
 10
114.9299999999929
 20
82.99000000000053
 11
117.4699999999933
 21
82.99000000000053
  0
LINE
  5
19F
100
AcDbEntity
  8
pin socket
  6
ByLayer
 62
  256
370
   -1
100
AcDbLine
 10
114.9299999999935
 20
77.91000000000061
 11
114.9299999999935
 21
80.45000000000104
  0
LINE
  5
1A0
100
AcDbEntity
  8
pin socket
  6
ByLayer
 62
  256
370
   -1
100
AcDbLine
 10
117.4699999999934
 20
75.37000000000059
 11
117.4699999999934
 21
77.91000000000102
  0
LINE
  5
1A1
100
AcDbEntity
  8
pin socket
  6
ByLayer
 62
  256
370
   -1
100
AcDbLine
 10
114.9299999999935
 20
75.37000000000057
 11
114.9299999999935
 21
77.91000000000101
  0
LINE
  5
1A2
100
AcDbEntity
  8
pin socket
  6
ByLayer
 62
  256
370
   -1
100
AcDbLine
 10
114.9299999999929
 20
77.91000000000047
 11
117.4699999999934
 21
77.91000000000047
  0
LINE
  5
1A3
100
AcDbEntity
  8
pin socket
  6
ByLayer
 62
  256
370
   -1
100
AcDbLine
 10
114.929999999993
 20
75.37000000000043
 11
117.4699999999934
 21
75.37000000000043
  0
LINE
  5
1A4
100
AcDbEntity
  8
5V line
  6
ByLayer
 62
  256
370
   -1
100
AcDbLine
 10
121.279999999993
 20
81.72000000000115
 11
116.1999999999932
 21
81.72000000000109
  0
LINE
  5
1A5
100
AcDbEntity
  8
0_wire
  6
ByLayer
 62
  256
370
   -1
100
AcDbLine
 10
121.279999999993
 20
76.64000000000108
 11
116.1999999999932
 21
76.64000000000105
  0
CIRCLE
  5
1A6
100
AcDbEntity
  8
0_wire
  6
ByLayer
 62
  256
370
   -1
100
AcDbCircle
 10
116.1999999999932
 20
79.18000000000109
 40
1
  0
LINE
  5
1A7
100
AcDbEntity
  8
pin socket
  6
ByLayer
 62
  256
370
   -1
100
AcDbLine
 10
132.7099999999926
 20
80.45000000000073
 11
132.7099999999926
 21
82.99000000000116
  0
LINE
  5
1A8
100
AcDbEntity
  8
pin socket
  6
ByLayer
 62
  256
370
   -1
100
AcDbLine
 10
132.7099999999926
 20
77.91000000000069
 11
132.7099999999926
 21
80.45000000000113
  0
LINE
  5
1A9
100
AcDbEntity
  8
pin socket
  6
ByLayer
 62
  256
370
   -1
100
AcDbLine
 10
132.7099999999926
 20
75.37000000000066
 11
132.7099999999926
 21
77.91000000000109
  0
LINE
  5
1AA
100
AcDbEntity
  8
pin socket
  6
ByLayer
 62
  256
370
   -1
100
AcDbLine
 10
135.2499999999925
 20
80.45000000000074
 11
135.2499999999925
 21
82.99000000000117
  0
LINE
  5
1AB
100
AcDbEntity
  8
pin socket
  6
ByLayer
 62
  256
370
   -1
100
AcDbLine
 10
135.2499999999925
 20
77.91000000000071
 11
135.2499999999925
 21
80.45000000000114
  0
LINE
  5
1AC
100
AcDbEntity
  8
pin socket
  6
ByLayer
 62
  256
370
   -1
100
AcDbLine
 10
132.7099999999921
 20
80.45000000000074
 11
135.2499999999925
 21
80.45000000000074
  0
LINE
  5
1AD
100
AcDbEntity
  8
pin socket
  6
ByLayer
 62
  256
370
   -1
100
AcDbLine
 10
132.7099999999921
 20
82.99000000000063
 11
135.2499999999925
 21
82.99000000000063
  0
LINE
  5
1AE
100
AcDbEntity
  8
pin socket
  6
ByLayer
 62
  256
370
   -1
100
AcDbLine
 10
135.2499999999925
 20
75.37000000000067
 11
135.2499999999925
 21
77.91000000000111
  0
LINE
  5
1AF
100
AcDbEntity
  8
pin socket
  6
ByLayer
 62
  256
370
   -1
100
AcDbLine
 10
132.7099999999921
 20
77.91000000000071
 11
135.2499999999925
 21
77.91000000000071
  0
LINE
  5
1B0
100
AcDbEntity
  8
pin socket
  6
ByLayer
 62
  256
370
   -1
100
AcDbLine
 10
132.7099999999921
 20
75.37000000000067
 11
135.2499999999925
 21
75.37000000000067
  0
LINE
  5
1B1
100
AcDbEntity
  8
pin socket
  6
ByLayer
 62
  256
370
   -1
100
AcDbLine
 10
130.1699999999927
 20
80.45000000000071
 11
130.1699999999927
 21
82.99000000000115
  0
LINE
  5
1B2
100
AcDbEntity
  8
pin socket
  6
ByLayer
 62
  256
370
   -1
100
AcDbLine
 10
130.1699999999927
 20
77.91000000000068
 11
130.1699999999927
 21
80.45000000000111
  0
LINE
  5
1B3
100
AcDbEntity
  8
0_GND
  6
ByLayer
 62
  256
370
   -1
100
AcDbLine
 10
133.9799999999924
 20
81.72000000000122
 11
128.8999999999926
 21
81.72000000000119
  0
CIRCLE
  5
1B4
100
AcDbEntity
  8
condenser
  6
ByLayer
 62
  256
370
   -1
100
AcDbCircle
 10
136.5199999999922
 20
79.18000000000117
 40
0.25
  0
CIRCLE
  5
1B5
100
AcDbEntity
  8
condenser
  6
ByLayer
 62
  256
370
   -1
100
AcDbCircle
 10
136.5199999999922
 20
81.72000000000122
 40
0.25
  0
LINE
  5
1B6
100
AcDbEntity
  8
condenser
  6
ByLayer
 62
  256
370
   -1
100
AcDbLine
 10
135.5199999999991
 20
78.45000000000182
 11
135.5199999999991
 21
82.44999999999936
  0
LINE
  5
1B7
100
AcDbEntity
  8
condenser
  6
ByLayer
 62
  256
370
   -1
100
AcDbLine
 10
137.5199999999853
 20
82.44999999999935
 11
137.5199999999853
 21
78.45000000000181
  0
LINE
  5
1B8
100
AcDbEntity
  8
condenser
  6
ByLayer
 62
  256
370
   -1
100
AcDbLine
 10
135.5199999999991
 20
82.44999999999936
 11
137.5199999999853
 21
82.44999999999936
  0
LINE
  5
1B9
100
AcDbEntity
  8
condenser
  6
ByLayer
 62
  256
370
   -1
100
AcDbLine
 10
137.5199999999853
 20
78.45000000000182
 11
135.5199999999991
 21
78.45000000000182
  0
LINE
  5
1BA
100
AcDbEntity
  8
0_GND
  6
ByLayer
 62
  256
370
   -1
100
AcDbLine
 10
136.5199999999922
 20
81.72000000000122
 11
133.9799999999924
 21
81.72000000000122
  0
LINE
  5
1BB
100
AcDbEntity
  8
5V line
  6
ByLayer
 62
  256
370
   -1
100
AcDbLine
 10
136.5199999999922
 20
79.18000000000117
 11
133.9799999999924
 21
79.18000000000119
  0
CIRCLE
  5
1BC
100
AcDbEntity
  8
0_wire
  6
ByLayer
 62
  256
370
   -1
100
AcDbCircle
 10
133.9799999999924
 20
76.64000000000115
 40
1
  0
LINE
  5
1BD
100
AcDbEntity
  8
universal board
  6
ByLayer
 62
  256
370
   -1
100
AcDbLine
 10
114.9299999999935
 20
82.99000000000053
 11
137.7899999999924
 21
82.99000000000053
  0
LINE
  5
1BE
100
AcDbEntity
  8
universal board
  6
ByLayer
 62
  256
370
   -1
100
AcDbLine
 10
114.9299999999935
 20
57.59000000000017
 11
137.7899999999924
 21
57.59000000000017
  0
LINE
  5
1BF
100
AcDbEntity
  8
universal board
  6
ByLayer
 62
  256
370
   -1
100
AcDbLine
 10
114.9299999999935
 20
82.99000000000053
 11
114.9299999999935
 21
57.59000000000017
  0
LINE
  5
1C0
100
AcDbEntity
  8
universal board
  6
ByLayer
 62
  256
370
   -1
100
AcDbLine
 10
137.7899999999924
 20
82.99000000000066
 11
137.7899999999924
 21
57.59000000000017
  0
CIRCLE
  5
1C1
100
AcDbEntity
  8
universal board
  6
ByLayer
 62
  256
370
   -1
100
AcDbCircle
 10
116.1999999999932
 20
51.24000000000071
 40
0.5
  0
CIRCLE
  5
1C2
100
AcDbEntity
  8
universal board
  6
ByLayer
 62
  256
370
   -1
100
AcDbCircle
 10
118.7399999999931
 20
51.24000000000073
 40
0.5
  0
CIRCLE
  5
1C3
100
AcDbEntity
  8
universal board
  6
ByLayer
 62
  256
370
   -1
100
AcDbCircle
 10
121.279999999993
 20
51.24000000000074
 40
0.5
  0
CIRCLE
  5
1C4
100
AcDbEntity
  8
universal board
  6
ByLayer
 62
  256
370
   -1
100
AcDbCircle
 10
123.8199999999929
 20
51.24000000000075
 40
0.5
  0
CIRCLE
  5
1C5
100
AcDbEntity
  8
universal board
  6
ByLayer
 62
  256
370
   -1
100
AcDbCircle
 10
126.3599999999928
 20
51.24000000000077
 40
0.5
  0
CIRCLE
  5
1C6
100
AcDbEntity
  8
universal board
  6
ByLayer
 62
  256
370
   -1
100
AcDbCircle
 10
128.8999999999926
 20
51.24000000000078
 40
0.5
  0
CIRCLE
  5
1C7
100
AcDbEntity
  8
universal board
  6
ByLayer
 62
  256
370
   -1
100
AcDbCircle
 10
131.4399999999925
 20
51.2400000000008
 40
0.5
  0
CIRCLE
  5
1C8
100
AcDbEntity
  8
universal board
  6
ByLayer
 62
  256
370
   -1
100
AcDbCircle
 10
133.9799999999924
 20
51.24000000000081
 40
0.5
  0
CIRCLE
  5
1C9
100
AcDbEntity
  8
universal board
  6
ByLayer
 62
  256
370
   -1
100
AcDbCircle
 10
116.1999999999932
 20
48.70000000000068
 40
0.5
  0
CIRCLE
  5
1CA
100
AcDbEntity
  8
universal board
  6
ByLayer
 62
  256
370
   -1
100
AcDbCircle
 10
118.7399999999931
 20
48.70000000000069
 40
0.5
  0
CIRCLE
  5
1CB
100
AcDbEntity
  8
universal board
  6
ByLayer
 62
  256
370
   -1
100
AcDbCircle
 10
121.279999999993
 20
48.70000000000071
 40
0.5
  0
CIRCLE
  5
1CC
100
AcDbEntity
  8
universal board
  6
ByLayer
 62
  256
370
   -1
100
AcDbCircle
 10
123.8199999999929
 20
48.70000000000072
 40
0.5
  0
CIRCLE
  5
1CD
100
AcDbEntity
  8
universal board
  6
ByLayer
 62
  256
370
   -1
100
AcDbCircle
 10
126.3599999999928
 20
48.70000000000073
 40
0.5
  0
CIRCLE
  5
1CE
100
AcDbEntity
  8
universal board
  6
ByLayer
 62
  256
370
   -1
100
AcDbCircle
 10
128.8999999999926
 20
48.70000000000075
 40
0.5
  0
CIRCLE
  5
1CF
100
AcDbEntity
  8
universal board
  6
ByLayer
 62
  256
370
   -1
100
AcDbCircle
 10
131.4399999999925
 20
48.70000000000076
 40
0.5
  0
CIRCLE
  5
1D0
100
AcDbEntity
  8
universal board
  6
ByLayer
 62
  256
370
   -1
100
AcDbCircle
 10
133.9799999999924
 20
48.70000000000078
 40
0.5
  0
CIRCLE
  5
1D1
100
AcDbEntity
  8
universal board
  6
ByLayer
 62
  256
370
   -1
100
AcDbCircle
 10
116.1999999999932
 20
46.16000000000064
 40
0.5
  0
CIRCLE
  5
1D2
100
AcDbEntity
  8
universal board
  6
ByLayer
 62
  256
370
   -1
100
AcDbCircle
 10
118.7399999999931
 20
46.16000000000066
 40
0.5
  0
CIRCLE
  5
1D3
100
AcDbEntity
  8
universal board
  6
ByLayer
 62
  256
370
   -1
100
AcDbCircle
 10
121.279999999993
 20
46.16000000000067
 40
0.5
  0
CIRCLE
  5
1D4
100
AcDbEntity
  8
universal board
  6
ByLayer
 62
  256
370
   -1
100
AcDbCircle
 10
123.8199999999929
 20
46.16000000000068
 40
0.5
  0
CIRCLE
  5
1D5
100
AcDbEntity
  8
universal board
  6
ByLayer
 62
  256
370
   -1
100
AcDbCircle
 10
126.3599999999928
 20
46.1600000000007
 40
0.5
  0
CIRCLE
  5
1D6
100
AcDbEntity
  8
universal board
  6
ByLayer
 62
  256
370
   -1
100
AcDbCircle
 10
128.8999999999926
 20
46.16000000000071
 40
0.5
  0
CIRCLE
  5
1D7
100
AcDbEntity
  8
universal board
  6
ByLayer
 62
  256
370
   -1
100
AcDbCircle
 10
131.4399999999925
 20
46.16000000000073
 40
0.5
  0
CIRCLE
  5
1D8
100
AcDbEntity
  8
universal board
  6
ByLayer
 62
  256
370
   -1
100
AcDbCircle
 10
133.9799999999924
 20
46.16000000000074
 40
0.5
  0
CIRCLE
  5
1D9
100
AcDbEntity
  8
universal board
  6
ByLayer
 62
  256
370
   -1
100
AcDbCircle
 10
116.1999999999932
 20
43.62000000000061
 40
0.5
  0
CIRCLE
  5
1DA
100
AcDbEntity
  8
universal board
  6
ByLayer
 62
  256
370
   -1
100
AcDbCircle
 10
118.7399999999931
 20
43.62000000000062
 40
0.5
  0
CIRCLE
  5
1DB
100
AcDbEntity
  8
universal board
  6
ByLayer
 62
  256
370
   -1
100
AcDbCircle
 10
121.279999999993
 20
43.62000000000064
 40
0.5
  0
CIRCLE
  5
1DC
100
AcDbEntity
  8
universal board
  6
ByLayer
 62
  256
370
   -1
100
AcDbCircle
 10
123.8199999999929
 20
43.62000000000065
 40
0.5
  0
CIRCLE
  5
1DD
100
AcDbEntity
  8
universal board
  6
ByLayer
 62
  256
370
   -1
100
AcDbCircle
 10
126.3599999999928
 20
43.62000000000066
 40
0.5
  0
CIRCLE
  5
1DE
100
AcDbEntity
  8
universal board
  6
ByLayer
 62
  256
370
   -1
100
AcDbCircle
 10
128.8999999999926
 20
43.62000000000068
 40
0.5
  0
CIRCLE
  5
1DF
100
AcDbEntity
  8
universal board
  6
ByLayer
 62
  256
370
   -1
100
AcDbCircle
 10
131.4399999999925
 20
43.62000000000069
 40
0.5
  0
CIRCLE
  5
1E0
100
AcDbEntity
  8
universal board
  6
ByLayer
 62
  256
370
   -1
100
AcDbCircle
 10
133.9799999999924
 20
43.62000000000071
 40
0.5
  0
CIRCLE
  5
1E1
100
AcDbEntity
  8
universal board
  6
ByLayer
 62
  256
370
   -1
100
AcDbCircle
 10
116.1999999999932
 20
41.08000000000057
 40
0.5
  0
CIRCLE
  5
1E2
100
AcDbEntity
  8
universal board
  6
ByLayer
 62
  256
370
   -1
100
AcDbCircle
 10
118.7399999999931
 20
41.08000000000059
 40
0.5
  0
CIRCLE
  5
1E3
100
AcDbEntity
  8
universal board
  6
ByLayer
 62
  256
370
   -1
100
AcDbCircle
 10
121.279999999993
 20
41.0800000000006
 40
0.5
  0
CIRCLE
  5
1E4
100
AcDbEntity
  8
universal board
  6
ByLayer
 62
  256
370
   -1
100
AcDbCircle
 10
123.8199999999929
 20
41.08000000000062
 40
0.5
  0
CIRCLE
  5
1E5
100
AcDbEntity
  8
universal board
  6
ByLayer
 62
  256
370
   -1
100
AcDbCircle
 10
126.3599999999928
 20
41.08000000000063
 40
0.5
  0
CIRCLE
  5
1E6
100
AcDbEntity
  8
universal board
  6
ByLayer
 62
  256
370
   -1
100
AcDbCircle
 10
128.8999999999926
 20
41.08000000000064
 40
0.5
  0
CIRCLE
  5
1E7
100
AcDbEntity
  8
universal board
  6
ByLayer
 62
  256
370
   -1
100
AcDbCircle
 10
131.4399999999925
 20
41.08000000000066
 40
0.5
  0
CIRCLE
  5
1E8
100
AcDbEntity
  8
universal board
  6
ByLayer
 62
  256
370
   -1
100
AcDbCircle
 10
133.9799999999924
 20
41.08000000000067
 40
0.5
  0
LINE
  5
1E9
100
AcDbEntity
  8
terminal
  6
ByLayer
 62
  256
370
   -1
100
AcDbLine
 10
121.3899999999926
 20
46.3500000000009
 11
121.3899999999926
 21
52.1000000000007
  0
LINE
  5
1EA
100
AcDbEntity
  8
terminal
  6
ByLayer
 62
  256
370
   -1
100
AcDbLine
 10
121.3899999999926
 20
52.1000000000007
 11
128.7899999999926
 21
52.1000000000008
  0
LINE
  5
1EB
100
AcDbEntity
  8
terminal
  6
ByLayer
 62
  256
370
   -1
100
AcDbLine
 10
128.7899999999926
 20
52.1000000000008
 11
128.7899999999926
 21
46.35000000000098
  0
LINE
  5
1EC
100
AcDbEntity
  8
terminal
  6
ByLayer
 62
  256
370
   -1
100
AcDbLine
 10
128.7899999999926
 20
46.35000000000098
 11
121.3899999999926
 21
46.3500000000009
  0
CIRCLE
  5
1ED
100
AcDbEntity
  8
terminal
  6
ByLayer
 62
  256
370
   -1
100
AcDbCircle
 10
126.3599999999925
 20
48.70000000000076
 40
0.3
  0
CIRCLE
  5
1EE
100
AcDbEntity
  8
terminal
  6
ByLayer
 62
  256
370
   -1
100
AcDbCircle
 10
123.8199999999926
 20
48.70000000000073
 40
0.3
  0
LINE
  5
1EF
100
AcDbEntity
  8
pin socket
  6
ByLayer
 62
  256
370
   -1
100
AcDbLine
 10
114.9299999999935
 20
49.97000000000023
 11
114.9299999999935
 21
52.51000000000066
  0
LINE
  5
1F0
100
AcDbEntity
  8
pin socket
  6
ByLayer
 62
  256
370
   -1
100
AcDbLine
 10
114.9299999999929
 20
49.97000000000023
 11
117.4699999999934
 21
49.97000000000023
  0
LINE
  5
1F1
100
AcDbEntity
  8
pin socket
  6
ByLayer
 62
  256
370
   -1
100
AcDbLine
 10
114.9299999999929
 20
52.51000000000012
 11
117.4699999999934
 21
52.51000000000012
  0
LINE
  5
1F2
100
AcDbEntity
  8
pin socket
  6
ByLayer
 62
  256
370
   -1
100
AcDbLine
 10
114.9299999999935
 20
47.4300000000002
 11
114.9299999999935
 21
49.97000000000063
  0
LINE
  5
1F3
100
AcDbEntity
  8
pin socket
  6
ByLayer
 62
  256
370
   -1
100
AcDbLine
 10
114.929999999993
 20
49.97000000000009
 11
117.4699999999934
 21
49.97000000000009
  0
LINE
  5
1F4
100
AcDbEntity
  8
pin socket
  6
ByLayer
 62
  256
370
   -1
100
AcDbLine
 10
114.929999999993
 20
47.43000000000006
 11
117.4699999999934
 21
47.43000000000006
  0
LINE
  5
1F5
100
AcDbEntity
  8
pin socket
  6
ByLayer
 62
  256
370
   -1
100
AcDbLine
 10
117.4699999999933
 20
49.97000000000025
 11
117.4699999999933
 21
52.51000000000068
  0
LINE
  5
1F6
100
AcDbEntity
  8
pin socket
  6
ByLayer
 62
  256
370
   -1
100
AcDbLine
 10
117.4699999999934
 20
47.43000000000021
 11
117.4699999999934
 21
49.97000000000064
  0
MTEXT
  5
1F7
100
AcDbEntity
  8
pin socket
  6
ByLayer
 62
  256
370
   -1
100
AcDbMText
 10
112.8914637605863
 20
51.18116672388781
 30
0
 40
1
 41
2.444444444444569
 71
    4
 72
    1
  1
VDD
  7
iso
210
0
220
0
230
1
 50
0
 73
    2
 44
1.54
  0
LINE
  5
1F8
100
AcDbEntity
  8
pin socket
  6
ByLayer
 62
  256
370
   -1
100
AcDbLine
 10
114.9299999999929
 20
47.4300000000002
 11
117.4699999999934
 21
47.4300000000002
  0
LINE
  5
1F9
100
AcDbEntity
  8
pin socket
  6
ByLayer
 62
  256
370
   -1
100
AcDbLine
 10
114.9299999999935
 20
44.89000000000016
 11
114.9299999999935
 21
47.4300000000006
  0
LINE
  5
1FA
100
AcDbEntity
  8
pin socket
  6
ByLayer
 62
  256
370
   -1
100
AcDbLine
 10
114.929999999993
 20
47.43000000000006
 11
117.4699999999934
 21
47.43000000000006
  0
LINE
  5
1FB
100
AcDbEntity
  8
pin socket
  6
ByLayer
 62
  256
370
   -1
100
AcDbLine
 10
114.929999999993
 20
44.89000000000002
 11
117.4699999999934
 21
44.89000000000002
  0
LINE
  5
1FC
100
AcDbEntity
  8
pin socket
  6
ByLayer
 62
  256
370
   -1
100
AcDbLine
 10
117.4699999999934
 20
44.89000000000018
 11
117.4699999999934
 21
47.43000000000061
  0
LINE
  5
1FD
100
AcDbEntity
  8
0_GND
  6
ByLayer
 62
  256
370
   -1
100
AcDbLine
 10
126.3599999999928
 20
51.24000000000077
 11
126.3599999999928
 21
48.70000000000073
  0
LINE
  5
1FE
100
AcDbEntity
  8
5V line
  6
ByLayer
 62
  256
370
   -1
100
AcDbLine
 10
116.1999999999932
 20
51.24000000000071
 11
123.8199999999929
 21
51.24000000000075
  0
LINE
  5
1FF
100
AcDbEntity
  8
5V line
  6
ByLayer
 62
  256
370
   -1
100
AcDbLine
 10
123.8199999999929
 20
51.24000000000075
 11
123.8199999999926
 21
48.70000000000073
  0
LINE
  5
200
100
AcDbEntity
  8
5V line
  6
ByLayer
 62
  256
370
   -1
100
AcDbLine
 10
123.8199999999926
 20
48.70000000000073
 11
123.8199999999929
 21
46.16000000000068
  0
LINE
  5
201
100
AcDbEntity
  8
5V line
  6
ByLayer
 62
  256
370
   -1
100
AcDbLine
 10
123.8199999999929
 20
46.16000000000068
 11
128.8999999999926
 21
46.16000000000071
  0
LINE
  5
202
100
AcDbEntity
  8
5V line
  6
ByLayer
 62
  256
370
   -1
100
AcDbLine
 10
128.8999999999926
 20
46.16000000000071
 11
128.8999999999926
 21
48.70000000000075
  0
ARC
  5
203
100
AcDbEntity
  8
micon
  6
ByLayer
 62
  256
370
   -1
100
AcDbCircle
 10
123.0199999999914
 20
41.37999999999972
 40
1.5
100
AcDbArc
 50
90
 51
180
  0
ARC
  5
204
100
AcDbEntity
  8
micon
  6
ByLayer
 62
  256
370
   -1
100
AcDbCircle
 10
124.6199999999944
 20
41.37999999999969
 40
1.5
100
AcDbArc
 50
0
 51
90
  0
LINE
  5
205
100
AcDbEntity
  8
micon
  6
ByLayer
 62
  256
370
   -1
100
AcDbLine
 10
124.6199988230986
 20
42.87999999999969
 11
123.020002287013
 21
42.87999999999972
  0
LINE
  5
206
100
AcDbEntity
  8
micon
  6
ByLayer
 62
  256
370
   -1
100
AcDbLine
 10
121.5199999999914
 20
41.37999999999972
 11
121.5199999999914
 21
39.78000000000151
  0
LINE
  5
207
100
AcDbEntity
  8
micon
  6
ByLayer
 62
  256
370
   -1
100
AcDbLine
 10
121.5199999999914
 20
39.78000000000151
 11
122.0199999999914
 21
39.28000000000151
  0
LINE
  5
208
100
AcDbEntity
  8
micon
  6
ByLayer
 62
  256
370
   -1
100
AcDbLine
 10
122.0199999999914
 20
39.28000000000151
 11
125.6199999999943
 21
39.28000000000151
  0
LINE
  5
209
100
AcDbEntity
  8
micon
  6
ByLayer
 62
  256
370
   -1
100
AcDbLine
 10
126.1199999999943
 20
39.78000000000151
 11
126.1199999999943
 21
41.37999999999969
  0
LINE
  5
20A
100
AcDbEntity
  8
micon
  6
ByLayer
 62
  256
370
   -1
100
AcDbLine
 10
125.6199999999943
 20
39.28000000000151
 11
126.1199999999943
 21
39.78000000000151
  0
CIRCLE
  5
20B
100
AcDbEntity
  8
micon
  6
ByLayer
 62
  256
370
   -1
100
AcDbCircle
 10
123.8199999999929
 20
41.08000000000062
 40
0.3
  0
CIRCLE
  5
20C
100
AcDbEntity
  8
micon
  6
ByLayer
 62
  256
370
   -1
100
AcDbCircle
 10
121.279999999993
 20
41.0800000000006
 40
0.3
  0
CIRCLE
  5
20D
100
AcDbEntity
  8
micon
  6
ByLayer
 62
  256
370
   -1
100
AcDbCircle
 10
126.3599999999928
 20
41.08000000000063
 40
0.3
  0
MTEXT
  5
20E
100
AcDbEntity
  8
micon
  6
ByLayer
 62
  256
370
   -1
100
AcDbMText
 10
123.9363561066113
 20
36.61187126644397
 30
0
 40
1
 41
3.333333333333333
 71
    4
 72
    1
  1
VDD\PVOUT\PGND
  7
iso
210
0
220
0
230
1
 50
90
 73
    2
 44
1.54
  0
LINE
  5
20F
100
AcDbEntity
  8
0_wire
  6
ByLayer
 62
  256
370
   -1
100
AcDbLine
 10
123.8199999999929
 20
43.62000000000065
 11
123.8199999999929
 21
41.08000000000062
  0
LINE
  5
210
100
AcDbEntity
  8
5V line
  6
ByLayer
 62
  256
370
   -1
100
AcDbLine
 10
118.7399999999931
 20
41.08000000000059
 11
121.279999999993
 21
41.0800000000006
  0
LINE
  5
211
100
AcDbEntity
  8
resister
  6
ByLayer
 62
  256
370
   -1
100
AcDbLine
 10
117.6399999999933
 20
47.69000000000073
 11
117.6399999999933
 21
42.09000000000071
  0
LINE
  5
212
100
AcDbEntity
  8
resister
  6
ByLayer
 62
  256
370
   -1
100
AcDbLine
 10
117.6399999999933
 20
42.09000000000071
 11
119.8399999999929
 21
42.09000000000071
  0
LINE
  5
213
100
AcDbEntity
  8
resister
  6
ByLayer
 62
  256
370
   -1
100
AcDbLine
 10
119.8399999999929
 20
42.09000000000071
 11
119.8399999999929
 21
47.69000000000073
  0
LINE
  5
214
100
AcDbEntity
  8
resister
  6
ByLayer
 62
  256
370
   -1
100
AcDbLine
 10
119.8399999999929
 20
47.69000000000073
 11
117.6399999999933
 21
47.69000000000073
  0
LINE
  5
215
100
AcDbEntity
  8
resister
  6
ByLayer
 62
  256
370
   -1
100
AcDbLine
 10
118.7399999999931
 20
48.70000000000069
 11
118.7399999999931
 21
47.69000000000073
  0
LINE
  5
216
100
AcDbEntity
  8
resister
  6
ByLayer
 62
  256
370
   -1
100
AcDbLine
 10
118.7399999999931
 20
42.09000000000071
 11
118.7399999999931
 21
41.08000000000064
  0
LINE
  5
217
100
AcDbEntity
  8
5V line
  6
ByLayer
 62
  256
370
   -1
100
AcDbLine
 10
118.7399999999931
 20
48.70000000000069
 11
118.7399999999931
 21
51.24000000000073
  0
LINE
  5
218
100
AcDbEntity
  8
pin socket
  6
ByLayer
 62
  256
370
   -1
100
AcDbLine
 10
135.2499999999926
 20
49.97000000000033
 11
135.2499999999926
 21
52.51000000000076
  0
LINE
  5
219
100
AcDbEntity
  8
pin socket
  6
ByLayer
 62
  256
370
   -1
100
AcDbLine
 10
135.2499999999926
 20
47.4300000000003
 11
135.2499999999926
 21
49.97000000000073
  0
LINE
  5
21A
100
AcDbEntity
  8
pin socket
  6
ByLayer
 62
  256
370
   -1
100
AcDbLine
 10
132.7099999999921
 20
49.97000000000033
 11
135.2499999999926
 21
49.97000000000033
  0
LINE
  5
21B
100
AcDbEntity
  8
pin socket
  6
ByLayer
 62
  256
370
   -1
100
AcDbLine
 10
132.7099999999921
 20
52.51000000000022
 11
135.2499999999926
 21
52.51000000000022
  0
LINE
  5
21C
100
AcDbEntity
  8
pin socket
  6
ByLayer
 62
  256
370
   -1
100
AcDbLine
 10
132.7099999999921
 20
47.4300000000003
 11
135.2499999999926
 21
47.4300000000003
  0
LINE
  5
21D
100
AcDbEntity
  8
pin socket
  6
ByLayer
 62
  256
370
   -1
100
AcDbLine
 10
132.7099999999921
 20
49.97000000000019
 11
135.2499999999926
 21
49.97000000000019
  0
LINE
  5
21E
100
AcDbEntity
  8
pin socket
  6
ByLayer
 62
  256
370
   -1
100
AcDbLine
 10
132.7099999999921
 20
47.43000000000015
 11
135.2499999999926
 21
47.43000000000015
  0
LINE
  5
21F
100
AcDbEntity
  8
pin socket
  6
ByLayer
 62
  256
370
   -1
100
AcDbLine
 10
132.7099999999926
 20
49.97000000000032
 11
132.7099999999926
 21
52.51000000000075
  0
MTEXT
  5
220
100
AcDbEntity
  8
pin socket
  6
ByLayer
 62
  256
370
   -1
100
AcDbMText
 10
135.2496009495183
 20
51.29372787821313
 30
0
 40
1
 41
2.444444020440146
 71
    4
 72
    1
  1
VSS
  7
iso
210
0
220
0
230
1
 50
0
 73
    2
 44
1.54
  0
LINE
  5
221
100
AcDbEntity
  8
pin socket
  6
ByLayer
 62
  256
370
   -1
100
AcDbLine
 10
132.7099999999921
 20
47.4300000000003
 11
135.2499999999925
 21
47.4300000000003
  0
LINE
  5
222
100
AcDbEntity
  8
pin socket
  6
ByLayer
 62
  256
370
   -1
100
AcDbLine
 10
132.7099999999926
 20
44.89000000000026
 11
132.7099999999926
 21
47.43000000000069
  0
LINE
  5
223
100
AcDbEntity
  8
pin socket
  6
ByLayer
 62
  256
370
   -1
100
AcDbLine
 10
132.7099999999921
 20
47.43000000000015
 11
135.2499999999926
 21
47.43000000000015
  0
LINE
  5
224
100
AcDbEntity
  8
pin socket
  6
ByLayer
 62
  256
370
   -1
100
AcDbLine
 10
132.7099999999921
 20
44.89000000000012
 11
135.2499999999926
 21
44.89000000000012
  0
LINE
  5
225
100
AcDbEntity
  8
pin socket
  6
ByLayer
 62
  256
370
   -1
100
AcDbLine
 10
135.2499999999925
 20
44.89000000000028
 11
135.2499999999925
 21
47.43000000000071
  0
LINE
  5
226
100
AcDbEntity
  8
pin socket
  6
ByLayer
 62
  256
370
   -1
100
AcDbLine
 10
132.7099999999926
 20
47.43000000000028
 11
132.7099999999926
 21
49.97000000000072
  0
LINE
  5
227
100
AcDbEntity
  8
5V line
  6
ByLayer
 62
  256
370
   -1
100
AcDbLine
 10
128.8999999999926
 20
48.70000000000075
 11
133.9799999999924
 21
48.70000000000078
  0
LINE
  5
228
100
AcDbEntity
  8
0_GND
  6
ByLayer
 62
  256
370
   -1
100
AcDbLine
 10
133.9799999999924
 20
51.24000000000081
 11
126.3599999999928
 21
51.24000000000076
  0
LINE
  5
229
100
AcDbEntity
  8
resister
  6
ByLayer
 62
  256
370
   -1
100
AcDbLine
 10
130.3399999999926
 20
50.23000000000083
 11
130.3399999999926
 21
44.63000000000081
  0
LINE
  5
22A
100
AcDbEntity
  8
resister
  6
ByLayer
 62
  256
370
   -1
100
AcDbLine
 10
130.3399999999926
 20
44.63000000000081
 11
132.5399999999923
 21
44.63000000000081
  0
LINE
  5
22B
100
AcDbEntity
  8
resister
  6
ByLayer
 62
  256
370
   -1
100
AcDbLine
 10
132.5399999999923
 20
44.63000000000081
 11
132.5399999999923
 21
50.23000000000083
  0
LINE
  5
22C
100
AcDbEntity
  8
resister
  6
ByLayer
 62
  256
370
   -1
100
AcDbLine
 10
132.5399999999923
 20
50.23000000000083
 11
130.3399999999926
 21
50.23000000000083
  0
LINE
  5
22D
100
AcDbEntity
  8
resister
  6
ByLayer
 62
  256
370
   -1
100
AcDbLine
 10
131.4399999999925
 20
51.2400000000008
 11
131.4399999999925
 21
50.23000000000083
  0
LINE
  5
22E
100
AcDbEntity
  8
resister
  6
ByLayer
 62
  256
370
   -1
100
AcDbLine
 10
131.4399999999925
 20
44.63000000000081
 11
131.4399999999925
 21
43.62000000000075
  0
LINE
  5
22F
100
AcDbEntity
  8
0_GND
  6
ByLayer
 62
  256
370
   -1
100
AcDbLine
 10
131.4399999999925
 20
43.62000000000069
 11
126.3599999999928
 21
43.62000000000066
  0
LINE
  5
230
100
AcDbEntity
  8
0_GND
  6
ByLayer
 62
  256
370
   -1
100
AcDbLine
 10
126.3599999999928
 20
43.62000000000066
 11
126.3599999999928
 21
41.08000000000063
  0
CIRCLE
  5
231
100
AcDbEntity
  8
0_wire
  6
ByLayer
 62
  256
370
   -1
100
AcDbCircle
 10
133.9799999999924
 20
46.16000000000074
 40
1
  0
CIRCLE
  5
232
100
AcDbEntity
  8
0_wire
  6
ByLayer
 62
  256
370
   -1
100
AcDbCircle
 10
116.1999999999932
 20
48.70000000000068
 40
1
  0
LINE
  5
233
100
AcDbEntity
  8
0_wire
  6
ByLayer
 62
  256
370
   -1
100
AcDbLine
 10
116.1999999999932
 20
46.16000000000064
 11
118.7399999999931
 21
46.16000000000066
  0
LINE
  5
234
100
AcDbEntity
  8
0_wire
  6
ByLayer
 62
  256
370
   -1
100
AcDbLine
 10
118.7399999999931
 20
46.16000000000066
 11
118.7399999999931
 21
43.62000000000062
  0
LINE
  5
235
100
AcDbEntity
  8
0_wire
  6
ByLayer
 62
  256
370
   -1
100
AcDbLine
 10
118.7399999999931
 20
43.62000000000062
 11
123.8199999999929
 21
43.62000000000065
  0
LINE
  5
236
100
AcDbEntity
  8
universal board
  6
ByLayer
 62
  256
370
   -1
100
AcDbLine
 10
114.9299999999935
 20
52.51000000000013
 11
114.9299999999935
 21
39.80999999999995
  0
LINE
  5
237
100
AcDbEntity
  8
universal board
  6
ByLayer
 62
  256
370
   -1
100
AcDbLine
 10
135.2499999999925
 20
52.51000000000024
 11
135.2499999999925
 21
39.81000000000007
  0
LINE
  5
238
100
AcDbEntity
  8
universal board
  6
ByLayer
 62
  256
370
   -1
100
AcDbLine
 10
114.9299999999935
 20
52.51000000000012
 11
135.2499999999925
 21
52.51000000000013
  0
LINE
  5
239
100
AcDbEntity
  8
universal board
  6
ByLayer
 62
  256
370
   -1
100
AcDbLine
 10
114.9299999999935
 20
39.80999999999995
 11
135.2499999999925
 21
39.80999999999995
  0
MTEXT
  5
23A
100
AcDbEntity
  8
condenser
  6
ByLayer
 62
  256
370
   -1
100
AcDbMText
 10
136.5366801965833
 20
83.29525420071859
 30
0
 40
1
 41
1.000000000000062
 71
    4
 72
    1
  1
C1
  7
iso
210
0
220
0
230
1
 50
0
 73
    2
 44
1.54
  0
MTEXT
  5
23B
100
AcDbEntity
  8
pin socket
  6
ByLayer
 62
  256
370
   -1
100
AcDbMText
 10
114.8686579889639
 20
84.1394628581583
 30
0
 40
1
 41
2
 71
    4
 72
    1
  1
PH1
  7
iso
210
0
220
0
230
1
 50
0
 73
    2
 44
1.54
  0
MTEXT
  5
23C
100
AcDbEntity
  8
pin socket
  6
ByLayer
 62
  256
370
   -1
100
AcDbMText
 10
133.384967875475
 20
83.91434054950771
 30
0
 40
1
 41
2.222222222222222
 71
    4
 72
    1
  1
PH2
  7
iso
210
0
220
0
230
1
 50
0
 73
    2
 44
1.54
  0
LINE
  5
23D
100
AcDbEntity
  8
resister
  6
ByLayer
 62
  256
370
   -1
100
AcDbLine
 10
132.8799999999925
 20
68.01000000000109
 11
132.8799999999925
 21
62.41000000000106
  0
LINE
  5
23E
100
AcDbEntity
  8
resister
  6
ByLayer
 62
  256
370
   -1
100
AcDbLine
 10
132.8799999999925
 20
62.41000000000106
 11
135.0799999999921
 21
62.41000000000106
  0
LINE
  5
23F
100
AcDbEntity
  8
resister
  6
ByLayer
 62
  256
370
   -1
100
AcDbLine
 10
135.0799999999921
 20
62.41000000000106
 11
135.0799999999921
 21
68.01000000000109
  0
LINE
  5
240
100
AcDbEntity
  8
resister
  6
ByLayer
 62
  256
370
   -1
100
AcDbLine
 10
135.0799999999921
 20
68.01000000000109
 11
132.8799999999925
 21
68.01000000000109
  0
LINE
  5
241
100
AcDbEntity
  8
resister
  6
ByLayer
 62
  256
370
   -1
100
AcDbLine
 10
133.9799999999924
 20
69.02000000000105
 11
133.9799999999924
 21
68.01000000000109
  0
LINE
  5
242
100
AcDbEntity
  8
resister
  6
ByLayer
 62
  256
370
   -1
100
AcDbLine
 10
133.9799999999924
 20
62.41000000000106
 11
133.9799999999924
 21
61.400000000001
  0
LINE
  5
243
100
AcDbEntity
  8
0_wire
  6
ByLayer
 62
  256
370
   -1
100
AcDbLine
 10
128.8999999999926
 20
69.02000000000102
 11
133.9799999999924
 21
69.02000000000108
  0
LINE
  5
244
100
AcDbEntity
  8
resister
  6
ByLayer
 62
  256
370
   -1
100
AcDbLine
 10
115.0999999999933
 20
70.55000000000102
 11
115.0999999999933
 21
64.950000000001
  0
LINE
  5
245
100
AcDbEntity
  8
resister
  6
ByLayer
 62
  256
370
   -1
100
AcDbLine
 10
115.0999999999933
 20
64.950000000001
 11
117.2999999999929
 21
64.950000000001
  0
LINE
  5
246
100
AcDbEntity
  8
resister
  6
ByLayer
 62
  256
370
   -1
100
AcDbLine
 10
117.2999999999929
 20
64.950000000001
 11
117.2999999999929
 21
70.55000000000102
  0
LINE
  5
247
100
AcDbEntity
  8
resister
  6
ByLayer
 62
  256
370
   -1
100
AcDbLine
 10
117.2999999999929
 20
70.55000000000102
 11
115.0999999999933
 21
70.55000000000102
  0
LINE
  5
248
100
AcDbEntity
  8
resister
  6
ByLayer
 62
  256
370
   -1
100
AcDbLine
 10
116.1999999999932
 20
71.56000000000098
 11
116.1999999999932
 21
70.55000000000102
  0
LINE
  5
249
100
AcDbEntity
  8
resister
  6
ByLayer
 62
  256
370
   -1
100
AcDbLine
 10
116.1999999999932
 20
64.950000000001
 11
116.1999999999932
 21
63.94000000000094
  0
LINE
  5
24A
100
AcDbEntity
  8
0_wire
  6
ByLayer
 62
  256
370
   -1
100
AcDbLine
 10
116.1999999999932
 20
63.94000000000089
 11
116.1999999999932
 21
61.40000000000084
  0
LINE
  5
24B
100
AcDbEntity
  8
0_wire
  6
ByLayer
 62
  256
370
   -1
100
AcDbLine
 10
116.1999999999932
 20
69.02000000000095
 11
116.1999999999932
 21
71.56000000000098
  0
MTEXT
  5
24C
100
AcDbEntity
  8
pin socket
  6
ByLayer
 62
  256
370
   -1
100
AcDbMText
 10
120.7222949127202
 20
83.93529916758906
 30
0
 40
1
 41
1.444444232442295
 71
    4
 72
    1
  1
IS1
  7
iso
210
0
220
0
230
1
 50
0
 73
    2
 44
1.54
  0
MTEXT
  5
24D
100
AcDbEntity
  8
micon
  6
ByLayer
 62
  256
370
   -1
100
AcDbMText
 10
125.6852742203473
 20
84.54478785449064
 30
0
 40
1
 41
1.222222222222222
 71
    4
 72
    1
  1
M1
  7
iso
210
0
220
0
230
1
 50
0
 73
    2
 44
1.54
  0
ENDSEC
  0
SECTION
  2
OBJECTS
  0
DICTIONARY
  5
C
330
0
100
AcDbDictionary
281
    1
  3
ACAD_GROUP
350
D
  0
DICTIONARY
  5
D
330
C
100
AcDbDictionary
281
    1
  0
PLOTSETTINGS
  5
24E
100
AcDbPlotSettings
  6
1x1
 40
0
 41
0
 42
0
 43
0
  0
ENDSEC
  0
EOF
