999
dxfrw 0.6.3
  0
SECTION
  2
HEADER
  9
$ACADVER
  1
AC1021
  9
$DWGCODEPAGE
  3
ANSI_1252
  9
$INSBASE
 10
0
 20
0
 30
0
  9
$EXTMIN
 10
1.77921407377427
 20
52.50999999999999
 30
0
  9
$EXTMAX
 10
89.52999999999462
 20
97.14343676065467
 30
0
  9
$LIMMIN
 10
0
 20
0
  9
$LIMMAX
 10
420
 20
297
  9
$ORTHOMODE
 70
    0
  9
$REGENMODE
 70
    1
  9
$FILLMODE
 70
    1
  9
$QTEXTMODE
 70
    0
  9
$MIRRTEXT
 70
    0
  9
$LTSCALE
 40
1
  9
$ATTMODE
 70
    0
  9
$TEXTSIZE
 40
2.5
  9
$TRACEWID
 40
15.68
  9
$TEXTSTYLE
  7
STANDARD
  9
$CLAYER
  8
5V line
  9
$CELTYPE
  6
BYLAYER
  9
$CECOLOR
 62
  256
  9
$CELTSCALE
 40
1
  9
$DISPSILH
 70
    0
  9
$DIMSCALE
 40
1
  9
$DIMASZ
 40
2.5
  9
$DIMEXO
 40
0.625
  9
$DIMDLI
 40
3.75
  9
$DIMRND
 40
0
  9
$DIMDLE
 40
0
  9
$DIMEXE
 40
1.25
  9
$DIMTP
 40
0
  9
$DIMTM
 40
0
  9
$DIMTXT
 40
2.5
  9
$DIMCEN
 40
2.5
  9
$DIMTSZ
 40
0
  9
$DIMTOL
 70
    0
  9
$DIMLIM
 70
    0
  9
$DIMTIH
 70
    0
  9
$DIMTOH
 70
    0
  9
$DIMSE1
 70
    0
  9
$DIMSE2
 70
    0
  9
$DIMTAD
 70
    1
  9
$DIMZIN
 70
    8
  9
$DIMBLK
  1

  9
$DIMASO
 70
    1
  9
$DIMSHO
 70
    1
  9
$DIMPOST
  1

  9
$DIMAPOST
  1

  9
$DIMALT
 70
    0
  9
$DIMALTD
 70
    3
  9
$DIMALTF
 40
0.03937
  9
$DIMLFAC
 40
1
  9
$DIMTOFL
 70
    1
  9
$DIMTVP
 40
0
  9
$DIMTIX
 70
    0
  9
$DIMSOXD
 70
    0
  9
$DIMSAH
 70
    0
  9
$DIMBLK1
  1

  9
$DIMBLK2
  1

  9
$DIMSTYLE
  2
STANDARD
  9
$DIMCLRD
 70
    0
  9
$DIMCLRE
 70
    0
  9
$DIMCLRT
 70
    0
  9
$DIMTFAC
 40
1
  9
$DIMGAP
 40
0.625
  9
$DIMJUST
 70
    0
  9
$DIMSD1
 70
    0
  9
$DIMSD2
 70
    0
  9
$DIMTOLJ
 70
    0
  9
$DIMTZIN
 70
    8
  9
$DIMALTZ
 70
    0
  9
$DIMALTTZ
 70
    0
  9
$DIMUPT
 70
    0
  9
$DIMDEC
 70
    2
  9
$DIMTDEC
 70
    2
  9
$DIMALTU
 70
    2
  9
$DIMALTTD
 70
    3
  9
$DIMTXSTY
  7
STANDARD
  9
$DIMAUNIT
 70
    0
  9
$DIMADEC
 70
    0
  9
$DIMALTRND
 40
0
  9
$DIMAZIN
 70
    0
  9
$DIMDSEP
 70
   44
  9
$DIMATFIT
 70
    3
  9
$DIMFRAC
 70
    0
  9
$DIMLDRBLK
  1
STANDARD
  9
$DIMLUNIT
 70
    2
  9
$DIMLWD
 70
   -2
  9
$DIMLWE
 70
   -2
  9
$DIMTMOVE
 70
    0
  9
$DIMFXL
 40
1
  9
$DIMFXLON
 70
    0
  9
$DIMJOGANG
 40
0.7854
  9
$DIMTFILL
 70
    0
  9
$DIMTFILLCLR
 70
    0
  9
$DIMARCSYM
 70
    0
  9
$DIMLTYPE
  6

  9
$DIMLTEX1
  6

  9
$DIMLTEX2
  6

  9
$LUNITS
 70
    2
  9
$LUPREC
 70
    4
  9
$SKETCHINC
 40
1
  9
$FILLETRAD
 40
0
  9
$AUNITS
 70
    0
  9
$AUPREC
 70
    2
  9
$MENU
  1
.
  9
$ELEVATION
 40
0
  9
$PELEVATION
 40
0
  9
$THICKNESS
 40
0
  9
$LIMCHECK
 70
    0
  9
$CHAMFERA
 40
0
  9
$CHAMFERB
 40
0
  9
$CHAMFERC
 40
0
  9
$CHAMFERD
 40
0
  9
$SKPOLY
 70
    0
  9
$USRTIMER
 70
    1
  9
$ANGBASE
 50
0
  9
$ANGDIR
 70
    0
  9
$PDMODE
 70
   34
  9
$PDSIZE
 40
0
  9
$PLINEWID
 40
0
  9
$SPLFRAME
 70
    0
  9
$SPLINETYPE
 70
    2
  9
$SPLINESEGS
 70
    8
  9
$HANDSEED
  5
20000
  9
$SURFTAB1
 70
    6
  9
$SURFTAB2
 70
    6
  9
$SURFTYPE
 70
    6
  9
$SURFU
 70
    6
  9
$SURFV
 70
    6
  9
$UCSBASE
  2

  9
$UCSNAME
  2

  9
$UCSORG
 10
0
 20
0
 30
0
  9
$UCSXDIR
 10
1
 20
0
 30
0
  9
$UCSYDIR
 10
0
 20
1
 30
0
  9
$UCSORTHOREF
  2

  9
$UCSORTHOVIEW
 70
    0
  9
$UCSORGTOP
 10
0
 20
0
 30
0
  9
$UCSORGBOTTOM
 10
0
 20
0
 30
0
  9
$UCSORGLEFT
 10
0
 20
0
 30
0
  9
$UCSORGRIGHT
 10
0
 20
0
 30
0
  9
$UCSORGFRONT
 10
0
 20
0
 30
0
  9
$UCSORGBACK
 10
0
 20
0
 30
0
  9
$PUCSBASE
  2

  9
$PUCSNAME
  2

  9
$PUCSORG
 10
0
 20
0
 30
0
  9
$PUCSXDIR
 10
1
 20
0
 30
0
  9
$PUCSYDIR
 10
0
 20
1
 30
0
  9
$PUCSORTHOREF
  2

  9
$PUCSORTHOVIEW
 70
    0
  9
$PUCSORGTOP
 10
0
 20
0
 30
0
  9
$PUCSORGBOTTOM
 10
0
 20
0
 30
0
  9
$PUCSORGLEFT
 10
0
 20
0
 30
0
  9
$PUCSORGRIGHT
 10
0
 20
0
 30
0
  9
$PUCSORGFRONT
 10
0
 20
0
 30
0
  9
$PUCSORGBACK
 10
0
 20
0
 30
0
  9
$USERI1
 70
    0
  9
$USERI2
 70
    0
  9
$USERI3
 70
    0
  9
$USERI4
 70
    0
  9
$USERI5
 70
    0
  9
$USERR1
 40
0
  9
$USERR2
 40
0
  9
$USERR3
 40
0
  9
$USERR4
 40
0
  9
$USERR5
 40
0
  9
$WORLDVIEW
 70
    1
  9
$SHADEDGE
 70
    3
  9
$SHADEDIF
 70
   70
  9
$TILEMODE
 70
    1
  9
$MAXACTVP
 70
   64
  9
$PINSBASE
 10
201.9375
 20
0
 30
0
  9
$PLIMCHECK
 70
    0
  9
$PEXTMIN
 10
0
 20
0
 30
0
  9
$PEXTMAX
 10
0
 20
0
 30
0
  9
$GRIDMODE
 70
    0
  9
$SNAPSTYLE
 70
    0
  9
$PLIMMIN
 10
0
 20
0
  9
$PLIMMAX
 10
210
 20
297
  9
$UNITMODE
 70
    0
  9
$VISRETAIN
 70
    1
  9
$PLINEGEN
 70
    0
  9
$PSLTSCALE
 70
    1
  9
$TREEDEPTH
 70
 3020
  9
$CMLSTYLE
  2
Standard
  9
$CMLJUST
 70
    0
  9
$CMLSCALE
 40
20
  9
$PROXYGRAPHICS
 70
    1
  9
$MEASUREMENT
 70
    1
  9
$CELWEIGHT
370
   -1
  9
$ENDCAPS
280
    0
  9
$JOINSTYLE
280
    0
  9
$LWDISPLAY
290
    0
  9
$INSUNITS
 70
    0
  9
$HYPERLINKBASE
  1

  9
$STYLESHEET
  1

  9
$XEDIT
290
    1
  9
$CEPSNTYPE
380
    0
  9
$PSTYLEMODE
290
    1
  9
$EXTNAMES
290
    1
  9
$PSVPSCALE
 40
4.125
  9
$OLESTARTUP
290
    0
  9
$SORTENTS
280
  127
  9
$INDEXCTL
280
    0
  9
$HIDETEXT
280
    1
  9
$XCLIPFRAME
290
    0
  9
$HALOGAP
280
    0
  9
$OBSCOLOR
 70
  257
  9
$OBSLTYPE
280
    0
  9
$INTERSECTIONDISPLAY
280
    0
  9
$INTERSECTIONCOLOR
 70
  257
  9
$DIMASSOC
280
    1
  9
$PROJECTNAME
  1

  9
$CAMERADISPLAY
290
    0
  9
$LENSLENGTH
 40
50
  9
$CAMERAHEIGHT
 40
0
  9
$STEPSPERSEC
 40
2
  9
$STEPSIZE
 40
50
  9
$3DDWFPREC
 40
2
  9
$PSOLWIDTH
 40
5
  9
$PSOLHEIGHT
 40
80
  9
$LOFTANG1
 40
1.570796326794897
  9
$LOFTANG2
 40
1.570796326794897
  9
$LOFTMAG1
 40
0
  9
$LOFTMAG2
 40
0
  9
$LOFTPARAM
 70
    7
  9
$LOFTNORMALS
280
    1
  9
$LATITUDE
 40
1
  9
$LONGITUDE
 40
1
  9
$NORTHDIRECTION
 40
0
  9
$TIMEZONE
 70
-8000
  9
$LIGHTGLYPHDISPLAY
280
    1
  9
$TILEMODELIGHTSYNCH
280
    1
  9
$SOLIDHIST
280
    1
  9
$SHOWHIST
280
    1
  9
$DWFFRAME
280
    2
  9
$DGNFRAME
280
    0
  9
$REALWORLDSCALE
290
    1
  9
$INTERFERECOLOR
 62
    1
  9
$CSHADOW
280
    0
  9
$SHADOWPLANELOCATION
 40
0
  0
ENDSEC
  0
SECTION
  2
CLASSES
  0
ENDSEC
  0
SECTION
  2
TABLES
  0
TABLE
  2
VPORT
  5
8
330
0
100
AcDbSymbolTable
 70
    1
  0
VPORT
  5
31
330
2
100
AcDbSymbolTableRecord
100
AcDbViewportTableRecord
  2
*ACTIVE
 70
    0
 10
0
 20
0
 11
1
 21
1
 12
47.12322731647267
 22
50.68716887822271
 13
0
 23
0
 14
10
 24
10
 15
10
 25
10
 16
0
 26
0
 36
1
 17
0
 27
0
 37
0
 40
48.85569890899005
 41
1.526849037487335
 42
50
 43
0
 44
0
 50
0
 51
0
 71
    0
 72
  100
 73
    1
 74
    3
 75
    0
 76
    0
 77
    0
 78
    0
281
    0
 65
    1
110
0
120
0
130
0
111
1
121
0
131
0
112
0
122
1
132
0
 79
    0
146
0
348
10020
 60
    7
 61
    5
292
1
282
    1
141
0
142
0
 63
  250
421
3358443
  0
ENDTAB
  0
TABLE
  2
LTYPE
  5
5
330
0
100
AcDbSymbolTable
 70
    4
  0
LTYPE
  5
14
330
5
100
AcDbSymbolTableRecord
100
AcDbLinetypeTableRecord
  2
ByBlock
 70
    0
  3

 72
   65
 73
    0
 40
0
  0
LTYPE
  5
15
330
5
100
AcDbSymbolTableRecord
100
AcDbLinetypeTableRecord
  2
ByLayer
 70
    0
  3

 72
   65
 73
    0
 40
0
  0
LTYPE
  5
16
330
5
100
AcDbSymbolTableRecord
100
AcDbLinetypeTableRecord
  2
Continuous
 70
    0
  3
Solid line
 72
   65
 73
    0
 40
0
  0
LTYPE
  5
32
330
5
100
AcDbSymbolTableRecord
100
AcDbLinetypeTableRecord
  2
DOT
 70
    0
  3
Dot . . . . . . . . . . . . . . . . . . . . . .
 72
   65
 73
    2
 40
6.35
 49
0
 74
    0
 49
-6.35
 74
    0
  0
LTYPE
  5
33
330
5
100
AcDbSymbolTableRecord
100
AcDbLinetypeTableRecord
  2
DOTTINY
 70
    0
  3
Dot (.15x) .....................................
 72
   65
 73
    2
 40
0.9525
 49
0
 74
    0
 49
-0.9525
 74
    0
  0
LTYPE
  5
34
330
5
100
AcDbSymbolTableRecord
100
AcDbLinetypeTableRecord
  2
DOT2
 70
    0
  3
Dot (.5x) .....................................
 72
   65
 73
    2
 40
3.175
 49
0
 74
    0
 49
-3.175
 74
    0
  0
LTYPE
  5
35
330
5
100
AcDbSymbolTableRecord
100
AcDbLinetypeTableRecord
  2
DOTX2
 70
    0
  3
Dot (2x) .  .  .  .  .  .  .  .  .  .  .  .  .
 72
   65
 73
    2
 40
12.7
 49
0
 74
    0
 49
-12.7
 74
    0
  0
LTYPE
  5
36
330
5
100
AcDbSymbolTableRecord
100
AcDbLinetypeTableRecord
  2
DASHED
 70
    0
  3
Dashed _ _ _ _ _ _ _ _ _ _ _ _ _ _ _ _ _
 72
   65
 73
    2
 40
19.05
 49
12.7
 74
    0
 49
-6.35
 74
    0
  0
LTYPE
  5
37
330
5
100
AcDbSymbolTableRecord
100
AcDbLinetypeTableRecord
  2
DASHEDTINY
 70
    0
  3
Dashed (.15x) _ _ _ _ _ _ _ _ _ _ _ _ _ _ _ _ _
 72
   65
 73
    2
 40
2.8575
 49
1.905
 74
    0
 49
-0.9525
 74
    0
  0
LTYPE
  5
38
330
5
100
AcDbSymbolTableRecord
100
AcDbLinetypeTableRecord
  2
DASHED2
 70
    0
  3
Dashed (.5x) _ _ _ _ _ _ _ _ _ _ _ _ _ _ _ _ _
 72
   65
 73
    2
 40
9.524999999999999
 49
6.35
 74
    0
 49
-3.175
 74
    0
  0
LTYPE
  5
39
330
5
100
AcDbSymbolTableRecord
100
AcDbLinetypeTableRecord
  2
DASHEDX2
 70
    0
  3
Dashed (2x) ____  ____  ____  ____  ____  ___
 72
   65
 73
    2
 40
38.09999999999999
 49
25.4
 74
    0
 49
-12.7
 74
    0
  0
LTYPE
  5
3A
330
5
100
AcDbSymbolTableRecord
100
AcDbLinetypeTableRecord
  2
DASHDOT
 70
    0
  3
Dash dot __ . __ . __ . __ . __ . __ . __ . __
 72
   65
 73
    4
 40
25.4
 49
12.7
 74
    0
 49
-6.35
 74
    0
 49
0
 74
    0
 49
-6.35
 74
    0
  0
LTYPE
  5
3B
330
5
100
AcDbSymbolTableRecord
100
AcDbLinetypeTableRecord
  2
DASHDOTTINY
 70
    0
  3
Dash dot (.15x) _._._._._._._._._._._._._._._.
 72
   65
 73
    4
 40
3.81
 49
1.905
 74
    0
 49
-0.9525
 74
    0
 49
0
 74
    0
 49
-0.9525
 74
    0
  0
LTYPE
  5
3C
330
5
100
AcDbSymbolTableRecord
100
AcDbLinetypeTableRecord
  2
DASHDOT2
 70
    0
  3
Dash dot (.5x) _._._._._._._._._._._._._._._.
 72
   65
 73
    4
 40
12.7
 49
6.35
 74
    0
 49
-3.175
 74
    0
 49
0
 74
    0
 49
-3.175
 74
    0
  0
LTYPE
  5
3D
330
5
100
AcDbSymbolTableRecord
100
AcDbLinetypeTableRecord
  2
DASHDOTX2
 70
    0
  3
Dash dot (2x) ____  .  ____  .  ____  .  ___
 72
   65
 73
    4
 40
50.8
 49
25.4
 74
    0
 49
-12.7
 74
    0
 49
0
 74
    0
 49
-12.7
 74
    0
  0
LTYPE
  5
3E
330
5
100
AcDbSymbolTableRecord
100
AcDbLinetypeTableRecord
  2
DIVIDE
 70
    0
  3
Divide ____ . . ____ . . ____ . . ____ . . ____
 72
   65
 73
    6
 40
31.75
 49
12.7
 74
    0
 49
-6.35
 74
    0
 49
0
 74
    0
 49
-6.35
 74
    0
 49
0
 74
    0
 49
-6.35
 74
    0
  0
LTYPE
  5
3F
330
5
100
AcDbSymbolTableRecord
100
AcDbLinetypeTableRecord
  2
DIVIDETINY
 70
    0
  3
Divide (.15x) __..__..__..__..__..__..__..__.._
 72
   65
 73
    6
 40
4.7625
 49
1.905
 74
    0
 49
-0.9525
 74
    0
 49
0
 74
    0
 49
-0.9525
 74
    0
 49
0
 74
    0
 49
-0.9525
 74
    0
  0
LTYPE
  5
40
330
5
100
AcDbSymbolTableRecord
100
AcDbLinetypeTableRecord
  2
DIVIDE2
 70
    0
  3
Divide (.5x) __..__..__..__..__..__..__..__.._
 72
   65
 73
    6
 40
15.875
 49
6.35
 74
    0
 49
-3.175
 74
    0
 49
0
 74
    0
 49
-3.175
 74
    0
 49
0
 74
    0
 49
-3.175
 74
    0
  0
LTYPE
  5
41
330
5
100
AcDbSymbolTableRecord
100
AcDbLinetypeTableRecord
  2
DIVIDEX2
 70
    0
  3
Divide (2x) ________  .  .  ________  .  .  _
 72
   65
 73
    6
 40
63.5
 49
25.4
 74
    0
 49
-12.7
 74
    0
 49
0
 74
    0
 49
-12.7
 74
    0
 49
0
 74
    0
 49
-12.7
 74
    0
  0
LTYPE
  5
42
330
5
100
AcDbSymbolTableRecord
100
AcDbLinetypeTableRecord
  2
BORDER
 70
    0
  3
Border __ __ . __ __ . __ __ . __ __ . __ __ .
 72
   65
 73
    6
 40
44.45
 49
12.7
 74
    0
 49
-6.35
 74
    0
 49
12.7
 74
    0
 49
-6.35
 74
    0
 49
0
 74
    0
 49
-6.35
 74
    0
  0
LTYPE
  5
43
330
5
100
AcDbSymbolTableRecord
100
AcDbLinetypeTableRecord
  2
BORDERTINY
 70
    0
  3
Border (.15x) __.__.__.__.__.__.__.__.__.__.__.
 72
   65
 73
    6
 40
6.6675
 49
1.905
 74
    0
 49
-0.9525
 74
    0
 49
1.905
 74
    0
 49
-0.9525
 74
    0
 49
0
 74
    0
 49
-0.9525
 74
    0
  0
LTYPE
  5
44
330
5
100
AcDbSymbolTableRecord
100
AcDbLinetypeTableRecord
  2
BORDER2
 70
    0
  3
Border (.5x) __.__.__.__.__.__.__.__.__.__.__.
 72
   65
 73
    6
 40
22.225
 49
6.35
 74
    0
 49
-3.175
 74
    0
 49
6.35
 74
    0
 49
-3.175
 74
    0
 49
0
 74
    0
 49
-3.175
 74
    0
  0
LTYPE
  5
45
330
5
100
AcDbSymbolTableRecord
100
AcDbLinetypeTableRecord
  2
BORDERX2
 70
    0
  3
Border (2x) ____  ____  .  ____  ____  .  ___
 72
   65
 73
    6
 40
88.89999999999999
 49
25.4
 74
    0
 49
-12.7
 74
    0
 49
25.4
 74
    0
 49
-12.7
 74
    0
 49
0
 74
    0
 49
-12.7
 74
    0
  0
LTYPE
  5
46
330
5
100
AcDbSymbolTableRecord
100
AcDbLinetypeTableRecord
  2
CENTER
 70
    0
  3
Center ____ _ ____ _ ____ _ ____ _ ____ _ ____
 72
   65
 73
    4
 40
50.8
 49
31.75
 74
    0
 49
-6.35
 74
    0
 49
6.35
 74
    0
 49
-6.35
 74
    0
  0
LTYPE
  5
47
330
5
100
AcDbSymbolTableRecord
100
AcDbLinetypeTableRecord
  2
CENTERTINY
 70
    0
  3
Center (.15x) ___ _ ___ _ ___ _ ___ _ ___ _ ___
 72
   65
 73
    4
 40
7.619999999999999
 49
4.7625
 74
    0
 49
-0.9525
 74
    0
 49
0.9525
 74
    0
 49
-0.9525
 74
    0
  0
LTYPE
  5
48
330
5
100
AcDbSymbolTableRecord
100
AcDbLinetypeTableRecord
  2
CENTER2
 70
    0
  3
Center (.5x) ___ _ ___ _ ___ _ ___ _ ___ _ ___
 72
   65
 73
    4
 40
28.575
 49
19.05
 74
    0
 49
-3.175
 74
    0
 49
3.175
 74
    0
 49
-3.175
 74
    0
  0
LTYPE
  5
49
330
5
100
AcDbSymbolTableRecord
100
AcDbLinetypeTableRecord
  2
CENTERX2
 70
    0
  3
Center (2x) ________  __  ________  __  _____
 72
   65
 73
    4
 40
101.6
 49
63.5
 74
    0
 49
-12.7
 74
    0
 49
12.7
 74
    0
 49
-12.7
 74
    0
  0
ENDTAB
  0
TABLE
  2
LAYER
  5
2
330
0
100
AcDbSymbolTable
 70
    1
  0
LAYER
  5
10
330
2
100
AcDbSymbolTableRecord
100
AcDbLayerTableRecord
  2
0
 70
    0
 62
    7
  6
CONTINUOUS
370
   13
390
F
  0
LAYER
  5
4A
330
2
100
AcDbSymbolTableRecord
100
AcDbLayerTableRecord
  2
0_GND
 70
    0
 62
    7
  6
CONTINUOUS
370
   15
390
F
  0
LAYER
  5
4B
330
2
100
AcDbSymbolTableRecord
100
AcDbLayerTableRecord
  2
0_draft
 70
    0
 62
    7
  6
DOTTINY
370
   -3
390
F
1001
LibreCad
1070
    1
  0
LAYER
  5
4C
330
2
100
AcDbSymbolTableRecord
100
AcDbLayerTableRecord
  2
0_wire
 70
    0
 62
    3
  6
CONTINUOUS
370
   15
390
F
  0
LAYER
  5
4D
330
2
100
AcDbSymbolTableRecord
100
AcDbLayerTableRecord
  2
12V line
 70
    0
 62
    2
  6
CONTINUOUS
370
   15
390
F
  0
LAYER
  5
4E
330
2
100
AcDbSymbolTableRecord
100
AcDbLayerTableRecord
  2
3.3V line
 70
    0
 62
   40
420
16755200
  6
CONTINUOUS
370
   15
390
F
  0
LAYER
  5
4F
330
2
100
AcDbSymbolTableRecord
100
AcDbLayerTableRecord
  2
5V line
 70
    0
 62
    1
  6
CONTINUOUS
370
   15
390
F
  0
LAYER
  5
50
330
2
100
AcDbSymbolTableRecord
100
AcDbLayerTableRecord
  2
Regulator
 70
    0
 62
  162
420
18906
  6
CONTINUOUS
370
   15
390
F
  0
LAYER
  5
51
330
2
100
AcDbSymbolTableRecord
100
AcDbLayerTableRecord
  2
condenser
 70
    0
 62
    5
  6
CONTINUOUS
370
   15
390
F
  0
LAYER
  5
52
330
2
100
AcDbSymbolTableRecord
100
AcDbLayerTableRecord
  2
micon
 70
    0
 62
  216
420
8388736
  6
CONTINUOUS
370
   15
390
F
  0
LAYER
  5
53
330
2
100
AcDbSymbolTableRecord
100
AcDbLayerTableRecord
  2
pin socket
 70
    0
 62
   56
420
8421376
  6
CONTINUOUS
370
   15
390
F
  0
LAYER
  5
54
330
2
100
AcDbSymbolTableRecord
100
AcDbLayerTableRecord
  2
resister
 70
    0
 62
  137
420
3439252
  6
CONTINUOUS
370
   18
390
F
  0
LAYER
  5
55
330
2
100
AcDbSymbolTableRecord
100
AcDbLayerTableRecord
  2
switch
 70
    0
 62
  136
420
32896
  6
CONTINUOUS
370
   15
390
F
  0
LAYER
  5
56
330
2
100
AcDbSymbolTableRecord
100
AcDbLayerTableRecord
  2
terminal
 70
    0
 62
   16
420
8388608
  6
CONTINUOUS
370
   15
390
F
  0
LAYER
  5
57
330
2
100
AcDbSymbolTableRecord
100
AcDbLayerTableRecord
  2
universal board
 70
    4
 62
  253
420
10526884
  6
CONTINUOUS
370
   15
390
F
  0
ENDTAB
  0
TABLE
  2
STYLE
  5
3
330
0
100
AcDbSymbolTable
 70
    3
  0
STYLE
  5
58
330
2
100
AcDbSymbolTableRecord
100
AcDbTextStyleTableRecord
  2
STANDARD
 70
    0
 40
0
 41
1
 50
0
 71
    0
 42
1
  3
STANDARD
  4

  0
STYLE
  5
59
330
2
100
AcDbSymbolTableRecord
100
AcDbTextStyleTableRecord
  2
unicode
 70
    0
 40
0
 41
1
 50
0
 71
    0
 42
1
  3
unicode
  4

  0
STYLE
  5
5A
330
2
100
AcDbSymbolTableRecord
100
AcDbTextStyleTableRecord
  2
iso
 70
    0
 40
0
 41
1
 50
0
 71
    0
 42
1
  3
iso
  4

  0
ENDTAB
  0
TABLE
  2
VIEW
  5
6
330
0
100
AcDbSymbolTable
 70
    0
  0
ENDTAB
  0
TABLE
  2
UCS
  5
7
330
0
100
AcDbSymbolTable
 70
    0
  0
ENDTAB
  0
TABLE
  2
APPID
  5
9
330
0
100
AcDbSymbolTable
 70
    1
  0
APPID
  5
12
330
9
100
AcDbSymbolTableRecord
100
AcDbRegAppTableRecord
  2
ACAD
 70
    0
  0
APPID
  5
5B
330
9
100
AcDbSymbolTableRecord
100
AcDbRegAppTableRecord
  2
LibreCad
 70
    0
  0
ENDTAB
  0
TABLE
  2
DIMSTYLE
  5
A
330
0
100
AcDbSymbolTable
 70
    1
100
AcDbDimStyleTable
 71
    1
  0
DIMSTYLE
105
5C
330
A
100
AcDbSymbolTableRecord
100
AcDbDimStyleTableRecord
  2
Standard
 70
    0
 40
1
 41
2.5
 42
0.625
 43
0.38
 44
1.25
 45
0
 46
0
 47
0
 48
0
 49
1
140
2.5
141
0.09
142
0
143
25.4
144
1
145
0
146
1
147
0.625
148
0
 71
    0
 72
    0
 73
    0
 74
    1
 75
    0
 76
    0
 77
    0
 78
    8
 79
    0
170
    0
171
    2
172
    0
173
    0
174
    0
175
    0
176
    0
177
    0
178
    0
179
    0
271
    2
272
    4
273
    2
274
    2
275
    0
276
    0
277
    2
278
   44
279
    0
280
    0
281
    0
282
    0
283
    1
284
    0
285
    0
286
    0
288
    0
289
    3
340
STANDARD
341

371
   -2
372
   -2
  0
ENDTAB
  0
TABLE
  2
BLOCK_RECORD
  5
1
330
0
100
AcDbSymbolTable
 70
    2
  0
BLOCK_RECORD
  5
1F
330
1
100
AcDbSymbolTableRecord
100
AcDbBlockTableRecord
  2
*Model_Space
 70
    0
280
    1
281
    0
  0
BLOCK_RECORD
  5
1E
330
1
100
AcDbSymbolTableRecord
100
AcDbBlockTableRecord
  2
*Paper_Space
 70
    0
280
    1
281
    0
  0
BLOCK_RECORD
  5
5D
330
1
100
AcDbSymbolTableRecord
100
AcDbBlockTableRecord
  2
2227MC-08-03
 70
    0
280
    1
281
    0
  0
BLOCK_RECORD
  5
60
330
1
100
AcDbSymbolTableRecord
100
AcDbBlockTableRecord
  2
PIC16F15325
 70
    0
280
    1
281
    0
  0
BLOCK_RECORD
  5
63
330
1
100
AcDbSymbolTableRecord
100
AcDbBlockTableRecord
  2
2227MC-28-03
 70
    0
280
    1
281
    0
  0
BLOCK_RECORD
  5
66
330
1
100
AcDbSymbolTableRecord
100
AcDbBlockTableRecord
  2
HUSG-16.000-20
 70
    0
280
    1
281
    0
  0
BLOCK_RECORD
  5
69
330
1
100
AcDbSymbolTableRecord
100
AcDbBlockTableRecord
  2
ATmega328P
 70
    0
280
    1
281
    0
  0
BLOCK_RECORD
  5
6C
330
1
100
AcDbSymbolTableRecord
100
AcDbBlockTableRecord
  2
DTS-63-N-V-BLK
 70
    0
280
    1
281
    0
  0
BLOCK_RECORD
  5
6F
330
1
100
AcDbSymbolTableRecord
100
AcDbBlockTableRecord
  2
2227MC-14-03
 70
    0
280
    1
281
    0
  0
BLOCK_RECORD
  5
72
330
1
100
AcDbSymbolTableRecord
100
AcDbBlockTableRecord
  2
C_0.01uF
 70
    0
280
    1
281
    0
  0
BLOCK_RECORD
  5
75
330
1
100
AcDbSymbolTableRecord
100
AcDbBlockTableRecord
  2
R300
 70
    0
280
    1
281
    0
  0
BLOCK_RECORD
  5
78
330
1
100
AcDbSymbolTableRecord
100
AcDbBlockTableRecord
  2
R10k
 70
    0
280
    1
281
    0
  0
BLOCK_RECORD
  5
7B
330
1
100
AcDbSymbolTableRecord
100
AcDbBlockTableRecord
  2
R0
 70
    0
280
    1
281
    0
  0
ENDTAB
  0
ENDSEC
  0
SECTION
  2
BLOCKS
  0
BLOCK
  5
20
330
1F
100
AcDbEntity
  8
0
100
AcDbBlockBegin
  2
*Model_Space
 70
    0
 10
0
 20
0
 30
0
  3
*Model_Space
  1

  0
ENDBLK
  5
21
330
1F
100
AcDbEntity
  8
0
100
AcDbBlockEnd
  0
BLOCK
  5
1C
330
1B
100
AcDbEntity
  8
0
100
AcDbBlockBegin
  2
*Paper_Space
 70
    0
 10
0
 20
0
 30
0
  3
*Paper_Space
  1

  0
ENDBLK
  5
1D
330
1F
100
AcDbEntity
  8
0
100
AcDbBlockEnd
  0
BLOCK
  5
5E
330
5D
100
AcDbEntity
  8
0
100
AcDbBlockBegin
  2
2227MC-08-03
 70
    0
 10
0
 20
0
  3
2227MC-08-03
  1

  0
LINE
  5
7E
100
AcDbEntity
  8
pin socket
  6
ByLayer
 62
  256
370
   -1
100
AcDbLine
 10
-1.270000000000131
 20
-8.890000110779171
 11
-1.270000000000131
 21
1.269999889220831
  0
LINE
  5
7F
100
AcDbEntity
  8
pin socket
  6
ByLayer
 62
  256
370
   -1
100
AcDbLine
 10
-1.270000000000131
 20
1.269999889220831
 11
8.890000394687402
 21
1.269999889220831
  0
LINE
  5
80
100
AcDbEntity
  8
pin socket
  6
ByLayer
 62
  256
370
   -1
100
AcDbLine
 10
8.890000394687402
 20
1.269999889220831
 11
8.88999999999989
 21
-8.890000110779171
  0
LINE
  5
81
100
AcDbEntity
  8
pin socket
  6
ByLayer
 62
  256
370
   -1
100
AcDbLine
 10
8.88999999999989
 20
-8.890000110779171
 11
-1.270000000000131
 21
-8.890000110779171
  0
CIRCLE
  5
82
100
AcDbEntity
  8
pin socket
  6
ByLayer
 62
  256
370
   -1
100
AcDbCircle
 10
2.539999999999878
 20
1.06581410364015e-14
 40
0.6
  0
CIRCLE
  5
83
100
AcDbEntity
  8
pin socket
  6
ByLayer
 62
  256
370
   -1
100
AcDbCircle
 10
2.539999999999893
 20
-7.620000000000061
 40
0.6
  0
CIRCLE
  5
84
100
AcDbEntity
  8
pin socket
  6
ByLayer
 62
  256
370
   -1
100
AcDbCircle
 10
0
 20
0
 40
0.6
  0
CIRCLE
  5
85
100
AcDbEntity
  8
pin socket
  6
ByLayer
 62
  256
370
   -1
100
AcDbCircle
 10
7.105427357601002e-15
 20
-7.620000000000072
 40
0.6
  0
CIRCLE
  5
86
100
AcDbEntity
  8
pin socket
  6
ByLayer
 62
  256
370
   -1
100
AcDbCircle
 10
5.079999999999757
 20
2.842170943040401e-14
 40
0.6
  0
CIRCLE
  5
87
100
AcDbEntity
  8
pin socket
  6
ByLayer
 62
  256
370
   -1
100
AcDbCircle
 10
5.079999999999771
 20
-7.620000000000051
 40
0.6
  0
CIRCLE
  5
88
100
AcDbEntity
  8
pin socket
  6
ByLayer
 62
  256
370
   -1
100
AcDbCircle
 10
7.619999999999639
 20
3.907985046680551e-14
 40
0.6
  0
CIRCLE
  5
89
100
AcDbEntity
  8
pin socket
  6
ByLayer
 62
  256
370
   -1
100
AcDbCircle
 10
7.61999999999966
 20
-7.62000000000004
 40
0.6
  0
MTEXT
  5
8A
100
AcDbEntity
  8
pin socket
  6
ByLayer
 62
  256
370
   -1
100
AcDbMText
 10
3.950796119092651
 20
-1.713679173150673
 30
0
 40
1
 41
9.222222222222284
 71
    5
 72
    1
  1
2227MC-08-03
  7
STANDARD
210
0
220
0
230
1
 50
0
 73
    2
 44
1
  0
ENDBLK
  5
5F
330
5D
100
AcDbEntity
  8
0
100
AcDbBlockEnd
  0
BLOCK
  5
61
330
60
100
AcDbEntity
  8
0
100
AcDbBlockBegin
  2
PIC16F15325
 70
    0
 10
0
 20
0
  3
PIC16F15325
  1

  0
ENDBLK
  5
62
330
60
100
AcDbEntity
  8
0
100
AcDbBlockEnd
  0
BLOCK
  5
64
330
63
100
AcDbEntity
  8
0
100
AcDbBlockBegin
  2
2227MC-28-03
 70
    0
 10
0
 20
0
  3
2227MC-28-03
  1

  0
ENDBLK
  5
65
330
63
100
AcDbEntity
  8
0
100
AcDbBlockEnd
  0
BLOCK
  5
67
330
66
100
AcDbEntity
  8
0
100
AcDbBlockBegin
  2
HUSG-16.000-20
 70
    0
 10
0
 20
0
  3
HUSG-16.000-20
  1

  0
ENDBLK
  5
68
330
66
100
AcDbEntity
  8
0
100
AcDbBlockEnd
  0
BLOCK
  5
6A
330
69
100
AcDbEntity
  8
0
100
AcDbBlockBegin
  2
ATmega328P
 70
    0
 10
0
 20
0
  3
ATmega328P
  1

  0
ENDBLK
  5
6B
330
69
100
AcDbEntity
  8
0
100
AcDbBlockEnd
  0
BLOCK
  5
6D
330
6C
100
AcDbEntity
  8
0
100
AcDbBlockBegin
  2
DTS-63-N-V-BLK
 70
    0
 10
0
 20
0
  3
DTS-63-N-V-BLK
  1

  0
ENDBLK
  5
6E
330
6C
100
AcDbEntity
  8
0
100
AcDbBlockEnd
  0
BLOCK
  5
70
330
6F
100
AcDbEntity
  8
0
100
AcDbBlockBegin
  2
2227MC-14-03
 70
    0
 10
0
 20
0
  3
2227MC-14-03
  1

  0
ENDBLK
  5
71
330
6F
100
AcDbEntity
  8
0
100
AcDbBlockEnd
  0
BLOCK
  5
73
330
72
100
AcDbEntity
  8
0
100
AcDbBlockBegin
  2
C_0.01uF
 70
    0
 10
0
 20
0
  3
C_0.01uF
  1

  0
LWPOLYLINE
  5
8B
100
AcDbEntity
  8
condenser
  6
ByLayer
 62
  256
370
   -1
100
AcDbPolyline
 90
    4
 70
    1
 43
0
 10
1.499999999999972
 20
5.039999999999822
 10
1.499999999999972
 20
0.03999999999992099
 10
-1.50000000000005
 20
0.03999999999992099
 10
-1.50000000000005
 20
5.039999999999822
  0
MTEXT
  5
8C
100
AcDbEntity
  8
condenser
  6
ByLayer
 62
  256
370
   -1
100
AcDbMText
 10
2.336701583810211
 20
2.491803864245341
 30
0
 40
1
 41
3.666666666666667
 71
    5
 72
    1
  1
0.01uF
  7
STANDARD
210
0
220
0
230
1
 50
270
 73
    2
 44
1
  0
CIRCLE
  5
8D
100
AcDbEntity
  8
condenser
  6
ByLayer
 62
  256
370
   -1
100
AcDbCircle
 10
0
 20
0
 40
0.4
  0
CIRCLE
  5
8E
100
AcDbEntity
  8
condenser
  6
ByLayer
 62
  256
370
   -1
100
AcDbCircle
 10
-6.927791673660977e-14
 20
5.080000000000041
 40
0.4
  0
ENDBLK
  5
74
330
72
100
AcDbEntity
  8
0
100
AcDbBlockEnd
  0
BLOCK
  5
76
330
75
100
AcDbEntity
  8
0
100
AcDbBlockBegin
  2
R300
 70
    0
 10
0
 20
0
  3
R300
  1

  0
LWPOLYLINE
  5
8F
100
AcDbEntity
  8
resister
  6
ByLayer
 62
  256
370
   -1
100
AcDbPolyline
 90
    4
 70
    1
 43
0
 10
-1.150000000000091
 20
0.6599999999995898
 10
-1.15000000000008
 20
6.959999999999511
 10
1.150000000000126
 20
6.959999999999511
 10
1.150000000000119
 20
0.6599999999995898
  0
CIRCLE
  5
90
100
AcDbEntity
  8
resister
  6
ByLayer
 62
  256
370
   -1
100
AcDbCircle
 10
1.953992523340276e-14
 20
7.619999999999639
 40
0.3
  0
LINE
  5
91
100
AcDbEntity
  8
resister
  6
ByLayer
 62
  256
370
   -1
100
AcDbLine
 10
1.953992523340276e-14
 20
0.2999999999998604
 11
1.031014139840636e-06
 21
0.6599999999995898
  0
LINE
  5
92
100
AcDbEntity
  8
resister
  6
ByLayer
 62
  256
370
   -1
100
AcDbLine
 10
3.907985046680551e-14
 20
6.959999999999511
 11
3.907985046680551e-14
 21
7.320000000000348
  0
MTEXT
  5
93
100
AcDbEntity
  8
resister
  6
ByLayer
 62
  256
370
   -1
100
AcDbMText
 10
-0.02409769535478112
 20
3.951579464078229
 30
0
 40
1
 41
2.888888888888951
 71
    5
 72
    1
  1
R300
  7
STANDARD
210
0
220
0
230
1
 50
90
 73
    2
 44
1
  0
CIRCLE
  5
94
100
AcDbEntity
  8
resister
  6
ByLayer
 62
  256
370
   -1
100
AcDbCircle
 10
0
 20
0
 40
0.25
  0
ENDBLK
  5
77
330
75
100
AcDbEntity
  8
0
100
AcDbBlockEnd
  0
BLOCK
  5
79
330
78
100
AcDbEntity
  8
0
100
AcDbBlockBegin
  2
R10k
 70
    0
 10
0
 20
0
  3
R10k
  1

  0
CIRCLE
  5
95
100
AcDbEntity
  8
resister
  6
ByLayer
 62
  256
370
   -1
100
AcDbCircle
 10
0
 20
0
 40
0.3
  0
LINE
  5
96
100
AcDbEntity
  8
resister
  6
ByLayer
 62
  256
370
   -1
100
AcDbLine
 10
-0.659999999999485
 20
1.150000000000098
 11
-0.659999999999485
 21
-1.150000000000059
  0
LINE
  5
97
100
AcDbEntity
  8
resister
  6
ByLayer
 62
  256
370
   -1
100
AcDbLine
 10
-6.959999999999557
 20
-1.150000000000041
 11
-0.659999999999485
 21
-1.150000000000059
  0
LINE
  5
98
100
AcDbEntity
  8
resister
  6
ByLayer
 62
  256
370
   -1
100
AcDbLine
 10
-0.659999999999485
 20
1.150000000000098
 11
-6.959999999999557
 21
1.150000000000098
  0
LINE
  5
99
100
AcDbEntity
  8
resister
  6
ByLayer
 62
  256
370
   -1
100
AcDbLine
 10
-6.959999999999557
 20
1.150000000000098
 11
-6.959999999999557
 21
-1.150000000000041
  0
CIRCLE
  5
9A
100
AcDbEntity
  8
resister
  6
ByLayer
 62
  256
370
   -1
100
AcDbCircle
 10
-7.619999999999408
 20
2.131628207280301e-14
 40
0.25
  0
MTEXT
  5
9B
100
AcDbEntity
  8
resister
  6
ByLayer
 62
  256
370
   -1
100
AcDbMText
 10
-3.991855261194459
 20
0.08749576228997924
 30
0
 40
1
 41
2.666666666666667
 71
    5
 72
    1
  1
R10k
  7
unicode
210
0
220
0
230
1
 50
0
 73
    2
 44
1
  0
LINE
  5
9C
100
AcDbEntity
  8
resister
  6
ByLayer
 62
  256
370
   -1
100
AcDbLine
 10
-0.2499999999985789
 20
2.131628207280301e-14
 11
-0.659999999999485
 21
2.131628207280301e-14
  0
LINE
  5
9D
100
AcDbEntity
  8
resister
  6
ByLayer
 62
  256
370
   -1
100
AcDbLine
 10
-7.369999999999898
 20
1.06581410364015e-14
 11
-6.959999999999557
 21
1.06581410364015e-14
  0
ENDBLK
  5
7A
330
78
100
AcDbEntity
  8
0
100
AcDbBlockEnd
  0
BLOCK
  5
7C
330
7B
100
AcDbEntity
  8
0
100
AcDbBlockBegin
  2
R0
 70
    0
 10
0
 20
0
  3
R0
  1

  0
LINE
  5
9E
100
AcDbEntity
  8
resister
  6
ByLayer
 62
  256
370
   -1
100
AcDbLine
 10
-0.6599999999999611
 20
1.149999999999959
 11
-0.6599999999999611
 21
-1.14999999999997
  0
LINE
  5
9F
100
AcDbEntity
  8
resister
  6
ByLayer
 62
  256
370
   -1
100
AcDbLine
 10
-0.6599999999999611
 20
-1.14999999999997
 11
-6.959999999999834
 21
-1.14999999999997
  0
LINE
  5
A0
100
AcDbEntity
  8
resister
  6
ByLayer
 62
  256
370
   -1
100
AcDbLine
 10
-6.959999999999834
 20
-1.14999999999997
 11
-6.95999999999982
 21
1.149999999999959
  0
LINE
  5
A1
100
AcDbEntity
  8
resister
  6
ByLayer
 62
  256
370
   -1
100
AcDbLine
 10
-6.95999999999982
 20
1.149999999999959
 11
-0.6599999999999611
 21
1.149999999999959
  0
LINE
  5
A2
100
AcDbEntity
  8
resister
  6
ByLayer
 62
  256
370
   -1
100
AcDbLine
 10
-6.95999999999982
 20
0
 11
-7.61999999999966
 21
0
  0
LINE
  5
A3
100
AcDbEntity
  8
resister
  6
ByLayer
 62
  256
370
   -1
100
AcDbLine
 10
3.694822225952521e-13
 20
0
 11
-0.6599999999999611
 21
0
  0
MTEXT
  5
A4
100
AcDbEntity
  8
resister
  6
ByLayer
 62
  256
370
   -1
100
AcDbMText
 10
-4.132042899777453
 20
0.05377778633712005
 30
0
 40
1
 41
1.333333333333333
 71
    5
 72
    1
  1
R0
  7
STANDARD
210
0
220
0
230
1
 50
270
 73
    2
 44
1
  0
ENDBLK
  5
7D
330
7B
100
AcDbEntity
  8
0
100
AcDbBlockEnd
  0
ENDSEC
  0
SECTION
  2
ENTITIES
  0
CIRCLE
  5
A5
100
AcDbEntity
  8
universal board
  6
ByLayer
 62
  256
370
   -1
100
AcDbCircle
 10
24.75999999999756
 20
91.88000000000075
 40
0.5
  0
CIRCLE
  5
A6
100
AcDbEntity
  8
universal board
  6
ByLayer
 62
  256
370
   -1
100
AcDbCircle
 10
27.29999999999744
 20
91.88000000000076
 40
0.5
  0
CIRCLE
  5
A7
100
AcDbEntity
  8
universal board
  6
ByLayer
 62
  256
370
   -1
100
AcDbCircle
 10
29.83999999999732
 20
91.88000000000078
 40
0.5
  0
CIRCLE
  5
A8
100
AcDbEntity
  8
universal board
  6
ByLayer
 62
  256
370
   -1
100
AcDbCircle
 10
32.3799999999972
 20
91.88000000000079
 40
0.5
  0
CIRCLE
  5
A9
100
AcDbEntity
  8
universal board
  6
ByLayer
 62
  256
370
   -1
100
AcDbCircle
 10
34.91999999999707
 20
91.88000000000081
 40
0.5
  0
CIRCLE
  5
AA
100
AcDbEntity
  8
universal board
  6
ByLayer
 62
  256
370
   -1
100
AcDbCircle
 10
37.45999999999695
 20
91.88000000000082
 40
0.5
  0
CIRCLE
  5
AB
100
AcDbEntity
  8
universal board
  6
ByLayer
 62
  256
370
   -1
100
AcDbCircle
 10
39.99999999999683
 20
91.88000000000083
 40
0.5
  0
CIRCLE
  5
AC
100
AcDbEntity
  8
universal board
  6
ByLayer
 62
  256
370
   -1
100
AcDbCircle
 10
42.53999999999671
 20
91.88000000000085
 40
0.5
  0
CIRCLE
  5
AD
100
AcDbEntity
  8
universal board
  6
ByLayer
 62
  256
370
   -1
100
AcDbCircle
 10
45.07999999999659
 20
91.88000000000086
 40
0.5
  0
CIRCLE
  5
AE
100
AcDbEntity
  8
universal board
  6
ByLayer
 62
  256
370
   -1
100
AcDbCircle
 10
47.61999999999647
 20
91.88000000000088
 40
0.5
  0
CIRCLE
  5
AF
100
AcDbEntity
  8
universal board
  6
ByLayer
 62
  256
370
   -1
100
AcDbCircle
 10
50.15999999999634
 20
91.88000000000089
 40
0.5
  0
CIRCLE
  5
B0
100
AcDbEntity
  8
universal board
  6
ByLayer
 62
  256
370
   -1
100
AcDbCircle
 10
52.69999999999622
 20
91.8800000000009
 40
0.5
  0
CIRCLE
  5
B1
100
AcDbEntity
  8
universal board
  6
ByLayer
 62
  256
370
   -1
100
AcDbCircle
 10
24.75999999999757
 20
89.34000000000071
 40
0.5
  0
CIRCLE
  5
B2
100
AcDbEntity
  8
universal board
  6
ByLayer
 62
  256
370
   -1
100
AcDbCircle
 10
27.29999999999745
 20
89.34000000000073
 40
0.5
  0
CIRCLE
  5
B3
100
AcDbEntity
  8
universal board
  6
ByLayer
 62
  256
370
   -1
100
AcDbCircle
 10
29.83999999999733
 20
89.34000000000074
 40
0.5
  0
CIRCLE
  5
B4
100
AcDbEntity
  8
universal board
  6
ByLayer
 62
  256
370
   -1
100
AcDbCircle
 10
32.37999999999721
 20
89.34000000000076
 40
0.5
  0
CIRCLE
  5
B5
100
AcDbEntity
  8
universal board
  6
ByLayer
 62
  256
370
   -1
100
AcDbCircle
 10
34.91999999999709
 20
89.34000000000077
 40
0.5
  0
CIRCLE
  5
B6
100
AcDbEntity
  8
universal board
  6
ByLayer
 62
  256
370
   -1
100
AcDbCircle
 10
37.45999999999697
 20
89.34000000000079
 40
0.5
  0
CIRCLE
  5
B7
100
AcDbEntity
  8
universal board
  6
ByLayer
 62
  256
370
   -1
100
AcDbCircle
 10
39.99999999999685
 20
89.3400000000008
 40
0.5
  0
CIRCLE
  5
B8
100
AcDbEntity
  8
universal board
  6
ByLayer
 62
  256
370
   -1
100
AcDbCircle
 10
42.53999999999672
 20
89.34000000000081
 40
0.5
  0
CIRCLE
  5
B9
100
AcDbEntity
  8
universal board
  6
ByLayer
 62
  256
370
   -1
100
AcDbCircle
 10
45.0799999999966
 20
89.34000000000083
 40
0.5
  0
CIRCLE
  5
BA
100
AcDbEntity
  8
universal board
  6
ByLayer
 62
  256
370
   -1
100
AcDbCircle
 10
47.61999999999648
 20
89.34000000000084
 40
0.5
  0
CIRCLE
  5
BB
100
AcDbEntity
  8
universal board
  6
ByLayer
 62
  256
370
   -1
100
AcDbCircle
 10
50.15999999999636
 20
89.34000000000086
 40
0.5
  0
CIRCLE
  5
BC
100
AcDbEntity
  8
universal board
  6
ByLayer
 62
  256
370
   -1
100
AcDbCircle
 10
52.69999999999624
 20
89.34000000000087
 40
0.5
  0
CIRCLE
  5
BD
100
AcDbEntity
  8
universal board
  6
ByLayer
 62
  256
370
   -1
100
AcDbCircle
 10
24.75999999999758
 20
86.80000000000068
 40
0.5
  0
CIRCLE
  5
BE
100
AcDbEntity
  8
universal board
  6
ByLayer
 62
  256
370
   -1
100
AcDbCircle
 10
27.29999999999746
 20
86.80000000000069
 40
0.5
  0
CIRCLE
  5
BF
100
AcDbEntity
  8
universal board
  6
ByLayer
 62
  256
370
   -1
100
AcDbCircle
 10
29.83999999999734
 20
86.80000000000071
 40
0.5
  0
CIRCLE
  5
C0
100
AcDbEntity
  8
universal board
  6
ByLayer
 62
  256
370
   -1
100
AcDbCircle
 10
32.37999999999721
 20
86.80000000000072
 40
0.5
  0
CIRCLE
  5
C1
100
AcDbEntity
  8
universal board
  6
ByLayer
 62
  256
370
   -1
100
AcDbCircle
 10
34.91999999999709
 20
86.80000000000074
 40
0.5
  0
CIRCLE
  5
C2
100
AcDbEntity
  8
universal board
  6
ByLayer
 62
  256
370
   -1
100
AcDbCircle
 10
37.45999999999697
 20
86.80000000000075
 40
0.5
  0
CIRCLE
  5
C3
100
AcDbEntity
  8
universal board
  6
ByLayer
 62
  256
370
   -1
100
AcDbCircle
 10
39.99999999999685
 20
86.80000000000076
 40
0.5
  0
CIRCLE
  5
C4
100
AcDbEntity
  8
universal board
  6
ByLayer
 62
  256
370
   -1
100
AcDbCircle
 10
42.53999999999672
 20
86.80000000000078
 40
0.5
  0
CIRCLE
  5
C5
100
AcDbEntity
  8
universal board
  6
ByLayer
 62
  256
370
   -1
100
AcDbCircle
 10
45.0799999999966
 20
86.80000000000079
 40
0.5
  0
CIRCLE
  5
C6
100
AcDbEntity
  8
universal board
  6
ByLayer
 62
  256
370
   -1
100
AcDbCircle
 10
47.61999999999648
 20
86.80000000000081
 40
0.5
  0
CIRCLE
  5
C7
100
AcDbEntity
  8
universal board
  6
ByLayer
 62
  256
370
   -1
100
AcDbCircle
 10
50.15999999999636
 20
86.80000000000082
 40
0.5
  0
CIRCLE
  5
C8
100
AcDbEntity
  8
universal board
  6
ByLayer
 62
  256
370
   -1
100
AcDbCircle
 10
52.69999999999624
 20
86.80000000000084
 40
0.5
  0
CIRCLE
  5
C9
100
AcDbEntity
  8
universal board
  6
ByLayer
 62
  256
370
   -1
100
AcDbCircle
 10
24.75999999999759
 20
84.26000000000064
 40
0.5
  0
CIRCLE
  5
CA
100
AcDbEntity
  8
universal board
  6
ByLayer
 62
  256
370
   -1
100
AcDbCircle
 10
27.29999999999747
 20
84.26000000000066
 40
0.5
  0
CIRCLE
  5
CB
100
AcDbEntity
  8
universal board
  6
ByLayer
 62
  256
370
   -1
100
AcDbCircle
 10
29.83999999999735
 20
84.26000000000067
 40
0.5
  0
CIRCLE
  5
CC
100
AcDbEntity
  8
universal board
  6
ByLayer
 62
  256
370
   -1
100
AcDbCircle
 10
32.37999999999722
 20
84.26000000000069
 40
0.5
  0
CIRCLE
  5
CD
100
AcDbEntity
  8
universal board
  6
ByLayer
 62
  256
370
   -1
100
AcDbCircle
 10
34.9199999999971
 20
84.2600000000007
 40
0.5
  0
CIRCLE
  5
CE
100
AcDbEntity
  8
universal board
  6
ByLayer
 62
  256
370
   -1
100
AcDbCircle
 10
37.45999999999698
 20
84.26000000000072
 40
0.5
  0
CIRCLE
  5
CF
100
AcDbEntity
  8
universal board
  6
ByLayer
 62
  256
370
   -1
100
AcDbCircle
 10
39.99999999999686
 20
84.26000000000073
 40
0.5
  0
CIRCLE
  5
D0
100
AcDbEntity
  8
universal board
  6
ByLayer
 62
  256
370
   -1
100
AcDbCircle
 10
42.53999999999674
 20
84.26000000000074
 40
0.5
  0
CIRCLE
  5
D1
100
AcDbEntity
  8
universal board
  6
ByLayer
 62
  256
370
   -1
100
AcDbCircle
 10
45.07999999999662
 20
84.26000000000076
 40
0.5
  0
CIRCLE
  5
D2
100
AcDbEntity
  8
universal board
  6
ByLayer
 62
  256
370
   -1
100
AcDbCircle
 10
47.61999999999649
 20
84.26000000000077
 40
0.5
  0
CIRCLE
  5
D3
100
AcDbEntity
  8
universal board
  6
ByLayer
 62
  256
370
   -1
100
AcDbCircle
 10
50.15999999999637
 20
84.26000000000079
 40
0.5
  0
CIRCLE
  5
D4
100
AcDbEntity
  8
universal board
  6
ByLayer
 62
  256
370
   -1
100
AcDbCircle
 10
52.69999999999625
 20
84.2600000000008
 40
0.5
  0
CIRCLE
  5
D5
100
AcDbEntity
  8
universal board
  6
ByLayer
 62
  256
370
   -1
100
AcDbCircle
 10
24.7599999999976
 20
81.72000000000061
 40
0.5
  0
CIRCLE
  5
D6
100
AcDbEntity
  8
universal board
  6
ByLayer
 62
  256
370
   -1
100
AcDbCircle
 10
27.29999999999748
 20
81.72000000000062
 40
0.5
  0
CIRCLE
  5
D7
100
AcDbEntity
  8
universal board
  6
ByLayer
 62
  256
370
   -1
100
AcDbCircle
 10
29.83999999999736
 20
81.72000000000064
 40
0.5
  0
CIRCLE
  5
D8
100
AcDbEntity
  8
universal board
  6
ByLayer
 62
  256
370
   -1
100
AcDbCircle
 10
32.37999999999724
 20
81.72000000000065
 40
0.5
  0
CIRCLE
  5
D9
100
AcDbEntity
  8
universal board
  6
ByLayer
 62
  256
370
   -1
100
AcDbCircle
 10
34.91999999999712
 20
81.72000000000067
 40
0.5
  0
CIRCLE
  5
DA
100
AcDbEntity
  8
universal board
  6
ByLayer
 62
  256
370
   -1
100
AcDbCircle
 10
37.459999999997
 20
81.72000000000068
 40
0.5
  0
CIRCLE
  5
DB
100
AcDbEntity
  8
universal board
  6
ByLayer
 62
  256
370
   -1
100
AcDbCircle
 10
39.99999999999687
 20
81.7200000000007
 40
0.5
  0
CIRCLE
  5
DC
100
AcDbEntity
  8
universal board
  6
ByLayer
 62
  256
370
   -1
100
AcDbCircle
 10
42.53999999999675
 20
81.72000000000071
 40
0.5
  0
CIRCLE
  5
DD
100
AcDbEntity
  8
universal board
  6
ByLayer
 62
  256
370
   -1
100
AcDbCircle
 10
45.07999999999663
 20
81.72000000000072
 40
0.5
  0
CIRCLE
  5
DE
100
AcDbEntity
  8
universal board
  6
ByLayer
 62
  256
370
   -1
100
AcDbCircle
 10
47.61999999999651
 20
81.72000000000074
 40
0.5
  0
CIRCLE
  5
DF
100
AcDbEntity
  8
universal board
  6
ByLayer
 62
  256
370
   -1
100
AcDbCircle
 10
50.15999999999639
 20
81.72000000000075
 40
0.5
  0
CIRCLE
  5
E0
100
AcDbEntity
  8
universal board
  6
ByLayer
 62
  256
370
   -1
100
AcDbCircle
 10
52.69999999999627
 20
81.72000000000077
 40
0.5
  0
CIRCLE
  5
E1
100
AcDbEntity
  8
universal board
  6
ByLayer
 62
  256
370
   -1
100
AcDbCircle
 10
24.75999999999761
 20
79.18000000000058
 40
0.5
  0
CIRCLE
  5
E2
100
AcDbEntity
  8
universal board
  6
ByLayer
 62
  256
370
   -1
100
AcDbCircle
 10
27.29999999999749
 20
79.18000000000059
 40
0.5
  0
CIRCLE
  5
E3
100
AcDbEntity
  8
universal board
  6
ByLayer
 62
  256
370
   -1
100
AcDbCircle
 10
29.83999999999737
 20
79.1800000000006
 40
0.5
  0
CIRCLE
  5
E4
100
AcDbEntity
  8
universal board
  6
ByLayer
 62
  256
370
   -1
100
AcDbCircle
 10
32.37999999999725
 20
79.18000000000062
 40
0.5
  0
CIRCLE
  5
E5
100
AcDbEntity
  8
universal board
  6
ByLayer
 62
  256
370
   -1
100
AcDbCircle
 10
34.91999999999713
 20
79.18000000000063
 40
0.5
  0
CIRCLE
  5
E6
100
AcDbEntity
  8
universal board
  6
ByLayer
 62
  256
370
   -1
100
AcDbCircle
 10
37.45999999999701
 20
79.18000000000065
 40
0.5
  0
CIRCLE
  5
E7
100
AcDbEntity
  8
universal board
  6
ByLayer
 62
  256
370
   -1
100
AcDbCircle
 10
39.99999999999689
 20
79.18000000000066
 40
0.5
  0
CIRCLE
  5
E8
100
AcDbEntity
  8
universal board
  6
ByLayer
 62
  256
370
   -1
100
AcDbCircle
 10
42.53999999999677
 20
79.18000000000067
 40
0.5
  0
CIRCLE
  5
E9
100
AcDbEntity
  8
universal board
  6
ByLayer
 62
  256
370
   -1
100
AcDbCircle
 10
45.07999999999664
 20
79.18000000000069
 40
0.5
  0
CIRCLE
  5
EA
100
AcDbEntity
  8
universal board
  6
ByLayer
 62
  256
370
   -1
100
AcDbCircle
 10
47.61999999999652
 20
79.1800000000007
 40
0.5
  0
CIRCLE
  5
EB
100
AcDbEntity
  8
universal board
  6
ByLayer
 62
  256
370
   -1
100
AcDbCircle
 10
50.1599999999964
 20
79.18000000000072
 40
0.5
  0
CIRCLE
  5
EC
100
AcDbEntity
  8
universal board
  6
ByLayer
 62
  256
370
   -1
100
AcDbCircle
 10
52.69999999999628
 20
79.18000000000073
 40
0.5
  0
CIRCLE
  5
ED
100
AcDbEntity
  8
universal board
  6
ByLayer
 62
  256
370
   -1
100
AcDbCircle
 10
24.75999999999762
 20
76.64000000000054
 40
0.5
  0
CIRCLE
  5
EE
100
AcDbEntity
  8
universal board
  6
ByLayer
 62
  256
370
   -1
100
AcDbCircle
 10
27.2999999999975
 20
76.64000000000055
 40
0.5
  0
CIRCLE
  5
EF
100
AcDbEntity
  8
universal board
  6
ByLayer
 62
  256
370
   -1
100
AcDbCircle
 10
29.83999999999738
 20
76.64000000000057
 40
0.5
  0
CIRCLE
  5
F0
100
AcDbEntity
  8
universal board
  6
ByLayer
 62
  256
370
   -1
100
AcDbCircle
 10
32.37999999999725
 20
76.64000000000058
 40
0.5
  0
CIRCLE
  5
F1
100
AcDbEntity
  8
universal board
  6
ByLayer
 62
  256
370
   -1
100
AcDbCircle
 10
34.91999999999713
 20
76.6400000000006
 40
0.5
  0
CIRCLE
  5
F2
100
AcDbEntity
  8
universal board
  6
ByLayer
 62
  256
370
   -1
100
AcDbCircle
 10
37.45999999999701
 20
76.64000000000061
 40
0.5
  0
CIRCLE
  5
F3
100
AcDbEntity
  8
universal board
  6
ByLayer
 62
  256
370
   -1
100
AcDbCircle
 10
39.99999999999689
 20
76.64000000000063
 40
0.5
  0
CIRCLE
  5
F4
100
AcDbEntity
  8
universal board
  6
ByLayer
 62
  256
370
   -1
100
AcDbCircle
 10
42.53999999999677
 20
76.64000000000064
 40
0.5
  0
CIRCLE
  5
F5
100
AcDbEntity
  8
universal board
  6
ByLayer
 62
  256
370
   -1
100
AcDbCircle
 10
45.07999999999664
 20
76.64000000000065
 40
0.5
  0
CIRCLE
  5
F6
100
AcDbEntity
  8
universal board
  6
ByLayer
 62
  256
370
   -1
100
AcDbCircle
 10
47.61999999999652
 20
76.64000000000067
 40
0.5
  0
CIRCLE
  5
F7
100
AcDbEntity
  8
universal board
  6
ByLayer
 62
  256
370
   -1
100
AcDbCircle
 10
50.1599999999964
 20
76.64000000000068
 40
0.5
  0
CIRCLE
  5
F8
100
AcDbEntity
  8
universal board
  6
ByLayer
 62
  256
370
   -1
100
AcDbCircle
 10
52.69999999999628
 20
76.6400000000007
 40
0.5
  0
LINE
  5
F9
100
AcDbEntity
  8
micon
  6
ByLayer
 62
  256
370
   -1
100
AcDbLine
 10
33.01499999999696
 20
90.16550000000025
 11
39.36499999999718
 21
90.16550000000025
  0
LINE
  5
FA
100
AcDbEntity
  8
micon
  6
ByLayer
 62
  256
370
   -1
100
AcDbLine
 10
39.36499999999718
 20
90.16550000000025
 11
39.36499999999718
 21
80.89450000000032
  0
LINE
  5
FB
100
AcDbEntity
  8
micon
  6
ByLayer
 62
  256
370
   -1
100
AcDbLine
 10
39.36499999999718
 20
80.89450000000032
 11
33.01499999999696
 21
80.89450000000032
  0
LINE
  5
FC
100
AcDbEntity
  8
micon
  6
ByLayer
 62
  256
370
   -1
100
AcDbLine
 10
33.01499999999696
 20
80.89450000000032
 11
33.01499999999696
 21
90.16550000000025
  0
CIRCLE
  5
FD
100
AcDbEntity
  8
micon
  6
ByLayer
 62
  256
370
   -1
100
AcDbCircle
 10
32.37999999999725
 20
89.34000000000071
 40
0.3
  0
CIRCLE
  5
FE
100
AcDbEntity
  8
micon
  6
ByLayer
 62
  256
370
   -1
100
AcDbCircle
 10
32.37999999999725
 20
86.80000000000069
 40
0.3
  0
CIRCLE
  5
FF
100
AcDbEntity
  8
micon
  6
ByLayer
 62
  256
370
   -1
100
AcDbCircle
 10
32.37999999999727
 20
84.26000000000067
 40
0.3
  0
CIRCLE
  5
100
100
AcDbEntity
  8
micon
  6
ByLayer
 62
  256
370
   -1
100
AcDbCircle
 10
32.37999999999728
 20
81.72000000000064
 40
0.3
  0
CIRCLE
  5
101
100
AcDbEntity
  8
micon
  6
ByLayer
 62
  256
370
   -1
100
AcDbCircle
 10
39.9999999999969
 20
81.72000000000067
 40
0.3
  0
CIRCLE
  5
102
100
AcDbEntity
  8
micon
  6
ByLayer
 62
  256
370
   -1
100
AcDbCircle
 10
39.9999999999969
 20
84.26000000000069
 40
0.3
  0
CIRCLE
  5
103
100
AcDbEntity
  8
micon
  6
ByLayer
 62
  256
370
   -1
100
AcDbCircle
 10
39.9999999999969
 20
86.80000000000071
 40
0.3
  0
CIRCLE
  5
104
100
AcDbEntity
  8
micon
  6
ByLayer
 62
  256
370
   -1
100
AcDbCircle
 10
39.99999999999689
 20
89.34000000000071
 40
0.3
  0
ARC
  5
105
100
AcDbEntity
  8
micon
  6
ByLayer
 62
  256
370
   -1
100
AcDbCircle
 10
36.19000062911685
 20
90.16550000000025
 40
1
100
AcDbArc
 50
180
 51
0
  0
MTEXT
  5
106
100
AcDbEntity
  8
micon
  6
ByLayer
 62
  256
370
   -1
100
AcDbMText
 10
34.50215443843
 20
85.701218425596
 30
0
 40
1
 41
2.444444444444569
 71
    5
 72
    1
  1
VDD\PRA5\PRA4\PRA3
  7
iso
210
0
220
0
230
1
 50
0
 73
    2
 44
1.54
  0
MTEXT
  5
107
100
AcDbEntity
  8
micon
  6
ByLayer
 62
  256
370
   -1
100
AcDbMText
 10
37.72085751231728
 20
85.52583926734373
 30
0
 40
1
 41
2.444444020440145
 71
    5
 72
    1
  1
VSS\PRA0\PRA1\PRA2
  7
iso
210
0
220
0
230
1
 50
0
 73
    2
 44
1.54
  0
LINE
  5
108
100
AcDbEntity
  8
pin socket
  6
ByLayer
 62
  256
370
   -1
100
AcDbLine
 10
31.10999999999703
 20
90.61000000000092
 11
31.10999999999703
 21
80.45000000000083
  0
LINE
  5
109
100
AcDbEntity
  8
pin socket
  6
ByLayer
 62
  256
370
   -1
100
AcDbLine
 10
41.26999999999654
 20
90.61000000000097
 11
41.26999999999656
 21
80.45000000000083
  0
LINE
  5
10A
100
AcDbEntity
  8
pin socket
  6
ByLayer
 62
  256
370
   -1
100
AcDbLine
 10
41.26999999999656
 20
80.45000000000083
 11
31.10999999999706
 21
80.45000000000083
  0
LINE
  5
10B
100
AcDbEntity
  8
pin socket
  6
ByLayer
 62
  256
370
   -1
100
AcDbLine
 10
31.10999999999703
 20
90.61000000000092
 11
41.26999999999656
 21
90.61000000000092
  0
LINE
  5
10C
100
AcDbEntity
  8
pin socket
  6
ByLayer
 62
  256
370
   -1
100
AcDbLine
 10
33.64999999999692
 20
90.61000000000092
 11
33.64999999999692
 21
80.45000000000086
  0
LINE
  5
10D
100
AcDbEntity
  8
pin socket
  6
ByLayer
 62
  256
370
   -1
100
AcDbLine
 10
38.72999999999666
 20
90.61000000000097
 11
38.72999999999668
 21
80.45000000000083
  0
MTEXT
  5
10E
100
AcDbEntity
  8
pin socket
  6
ByLayer
 62
  256
370
   -1
100
AcDbMText
 10
31.9744305281705
 20
91.31057989962585
 30
0
 40
1
 41
1.444444232442295
 71
    5
 72
    1
  1
IS1
  7
iso
210
0
220
0
230
1
 50
0
 73
    2
 44
1.54
  0
MTEXT
  5
10F
100
AcDbEntity
  8
micon
  6
ByLayer
 62
  256
370
   -1
100
AcDbMText
 10
34.33008883378848
 20
90.96159348397875
 30
0
 40
1
 41
1.222222222222222
 71
    5
 72
    1
  1
M1
  7
iso
210
0
220
0
230
1
 50
0
 73
    2
 44
1.54
  0
LINE
  5
110
100
AcDbEntity
  8
pin socket
  6
ByLayer
 62
  256
370
   -1
100
AcDbLine
 10
23.48999999999776
 20
88.07000000000026
 11
23.48999999999776
 21
90.6100000000007
  0
LINE
  5
111
100
AcDbEntity
  8
pin socket
  6
ByLayer
 62
  256
370
   -1
100
AcDbLine
 10
23.48999999999722
 20
88.07000000000026
 11
26.02999999999764
 21
88.07000000000026
  0
LINE
  5
112
100
AcDbEntity
  8
pin socket
  6
ByLayer
 62
  256
370
   -1
100
AcDbLine
 10
26.02999999999764
 20
88.07000000000026
 11
26.02999999999764
 21
90.6100000000007
  0
LINE
  5
113
100
AcDbEntity
  8
pin socket
  6
ByLayer
 62
  256
370
   -1
100
AcDbLine
 10
23.48999999999722
 20
90.61000000000016
 11
26.02999999999764
 21
90.61000000000016
  0
LINE
  5
114
100
AcDbEntity
  8
pin socket
  6
ByLayer
 62
  256
370
   -1
100
AcDbLine
 10
23.48999999999776
 20
85.53000000000024
 11
23.48999999999776
 21
88.07000000000068
  0
LINE
  5
115
100
AcDbEntity
  8
pin socket
  6
ByLayer
 62
  256
370
   -1
100
AcDbLine
 10
23.48999999999722
 20
85.53000000000024
 11
26.02999999999764
 21
85.53000000000024
  0
LINE
  5
116
100
AcDbEntity
  8
pin socket
  6
ByLayer
 62
  256
370
   -1
100
AcDbLine
 10
26.02999999999764
 20
85.53000000000024
 11
26.02999999999764
 21
88.07000000000068
  0
LINE
  5
117
100
AcDbEntity
  8
pin socket
  6
ByLayer
 62
  256
370
   -1
100
AcDbLine
 10
23.48999999999722
 20
88.07000000000014
 11
26.02999999999764
 21
88.07000000000014
  0
LINE
  5
118
100
AcDbEntity
  8
pin socket
  6
ByLayer
 62
  256
370
   -1
100
AcDbLine
 10
23.48999999999776
 20
82.99000000000022
 11
23.48999999999776
 21
85.53000000000065
  0
LINE
  5
119
100
AcDbEntity
  8
pin socket
  6
ByLayer
 62
  256
370
   -1
100
AcDbLine
 10
23.48999999999722
 20
82.99000000000022
 11
26.02999999999764
 21
82.99000000000022
  0
LINE
  5
11A
100
AcDbEntity
  8
pin socket
  6
ByLayer
 62
  256
370
   -1
100
AcDbLine
 10
26.02999999999764
 20
82.99000000000022
 11
26.02999999999764
 21
85.53000000000065
  0
LINE
  5
11B
100
AcDbEntity
  8
pin socket
  6
ByLayer
 62
  256
370
   -1
100
AcDbLine
 10
23.48999999999722
 20
85.53000000000011
 11
26.02999999999764
 21
85.53000000000011
  0
LINE
  5
11C
100
AcDbEntity
  8
pin socket
  6
ByLayer
 62
  256
370
   -1
100
AcDbLine
 10
23.48999999999776
 20
80.4500000000002
 11
23.48999999999776
 21
82.99000000000063
  0
LINE
  5
11D
100
AcDbEntity
  8
pin socket
  6
ByLayer
 62
  256
370
   -1
100
AcDbLine
 10
23.48999999999722
 20
80.4500000000002
 11
26.02999999999764
 21
80.4500000000002
  0
LINE
  5
11E
100
AcDbEntity
  8
pin socket
  6
ByLayer
 62
  256
370
   -1
100
AcDbLine
 10
26.02999999999764
 20
80.4500000000002
 11
26.02999999999764
 21
82.99000000000063
  0
LINE
  5
11F
100
AcDbEntity
  8
pin socket
  6
ByLayer
 62
  256
370
   -1
100
AcDbLine
 10
23.48999999999722
 20
82.99000000000009
 11
26.02999999999764
 21
82.99000000000009
  0
LINE
  5
120
100
AcDbEntity
  8
pin socket
  6
ByLayer
 62
  256
370
   -1
100
AcDbLine
 10
41.2699999999969
 20
88.07000000000036
 11
41.2699999999969
 21
90.6100000000008
  0
LINE
  5
121
100
AcDbEntity
  8
pin socket
  6
ByLayer
 62
  256
370
   -1
100
AcDbLine
 10
41.26999999999637
 20
88.07000000000036
 11
43.80999999999679
 21
88.07000000000036
  0
LINE
  5
122
100
AcDbEntity
  8
pin socket
  6
ByLayer
 62
  256
370
   -1
100
AcDbLine
 10
43.80999999999679
 20
88.07000000000036
 11
43.80999999999679
 21
90.6100000000008
  0
LINE
  5
123
100
AcDbEntity
  8
pin socket
  6
ByLayer
 62
  256
370
   -1
100
AcDbLine
 10
41.26999999999637
 20
90.61000000000026
 11
43.80999999999679
 21
90.61000000000026
  0
LINE
  5
124
100
AcDbEntity
  8
pin socket
  6
ByLayer
 62
  256
370
   -1
100
AcDbLine
 10
41.2699999999969
 20
85.53000000000034
 11
41.2699999999969
 21
88.07000000000077
  0
LINE
  5
125
100
AcDbEntity
  8
pin socket
  6
ByLayer
 62
  256
370
   -1
100
AcDbLine
 10
41.26999999999637
 20
85.53000000000034
 11
43.80999999999679
 21
85.53000000000034
  0
LINE
  5
126
100
AcDbEntity
  8
pin socket
  6
ByLayer
 62
  256
370
   -1
100
AcDbLine
 10
43.80999999999679
 20
85.53000000000034
 11
43.80999999999679
 21
88.07000000000077
  0
LINE
  5
127
100
AcDbEntity
  8
pin socket
  6
ByLayer
 62
  256
370
   -1
100
AcDbLine
 10
41.26999999999637
 20
88.07000000000023
 11
43.80999999999679
 21
88.07000000000023
  0
LINE
  5
128
100
AcDbEntity
  8
pin socket
  6
ByLayer
 62
  256
370
   -1
100
AcDbLine
 10
41.2699999999969
 20
82.99000000000032
 11
41.2699999999969
 21
85.53000000000075
  0
LINE
  5
129
100
AcDbEntity
  8
pin socket
  6
ByLayer
 62
  256
370
   -1
100
AcDbLine
 10
41.26999999999637
 20
82.99000000000032
 11
43.80999999999679
 21
82.99000000000032
  0
LINE
  5
12A
100
AcDbEntity
  8
pin socket
  6
ByLayer
 62
  256
370
   -1
100
AcDbLine
 10
43.80999999999679
 20
82.99000000000032
 11
43.80999999999679
 21
85.53000000000075
  0
LINE
  5
12B
100
AcDbEntity
  8
pin socket
  6
ByLayer
 62
  256
370
   -1
100
AcDbLine
 10
41.26999999999637
 20
85.53000000000021
 11
43.80999999999679
 21
85.53000000000021
  0
LINE
  5
12C
100
AcDbEntity
  8
pin socket
  6
ByLayer
 62
  256
370
   -1
100
AcDbLine
 10
41.2699999999969
 20
80.4500000000003
 11
41.2699999999969
 21
82.99000000000073
  0
LINE
  5
12D
100
AcDbEntity
  8
pin socket
  6
ByLayer
 62
  256
370
   -1
100
AcDbLine
 10
41.26999999999637
 20
80.4500000000003
 11
43.80999999999679
 21
80.4500000000003
  0
LINE
  5
12E
100
AcDbEntity
  8
pin socket
  6
ByLayer
 62
  256
370
   -1
100
AcDbLine
 10
43.80999999999679
 20
80.4500000000003
 11
43.80999999999679
 21
82.99000000000073
  0
LINE
  5
12F
100
AcDbEntity
  8
pin socket
  6
ByLayer
 62
  256
370
   -1
100
AcDbLine
 10
41.26999999999637
 20
82.99000000000019
 11
43.80999999999679
 21
82.99000000000019
  0
LINE
  5
130
100
AcDbEntity
  8
5V line
  6
ByLayer
 62
  256
370
   -1
100
AcDbLine
 10
32.37999999999725
 20
89.34000000000071
 11
24.75999999999757
 21
89.34000000000071
  0
LINE
  5
131
100
AcDbEntity
  8
0_wire
  6
ByLayer
 62
  256
370
   -1
100
AcDbLine
 10
32.37999999999727
 20
84.26000000000067
 11
24.75999999999759
 21
84.26000000000064
  0
LINE
  5
132
100
AcDbEntity
  8
0_GND
  6
ByLayer
 62
  256
370
   -1
100
AcDbLine
 10
39.99999999999685
 20
89.3400000000008
 11
42.53999999999672
 21
89.34000000000081
  0
LINE
  5
133
100
AcDbEntity
  8
0_wire
  6
ByLayer
 62
  256
370
   -1
100
AcDbLine
 10
39.99999999999685
 20
86.80000000000076
 11
42.53999999999672
 21
86.80000000000078
  0
LINE
  5
134
100
AcDbEntity
  8
0_wire
  6
ByLayer
 62
  256
370
   -1
100
AcDbLine
 10
39.99999999999686
 20
84.26000000000073
 11
42.53999999999674
 21
84.26000000000074
  0
LINE
  5
135
100
AcDbEntity
  8
0_wire
  6
ByLayer
 62
  256
370
   -1
100
AcDbLine
 10
39.99999999999687
 20
81.7200000000007
 11
42.53999999999675
 21
81.72000000000071
  0
LINE
  5
136
100
AcDbEntity
  8
5V line
  6
ByLayer
 62
  256
370
   -1
100
AcDbLine
 10
34.91999999999707
 20
91.88000000000081
 11
34.91999999999709
 21
89.34000000000077
  0
LINE
  5
137
100
AcDbEntity
  8
5V line
  6
ByLayer
 62
  256
370
   -1
100
AcDbLine
 10
34.91999999999709
 20
89.34000000000077
 11
32.37999999999725
 21
89.34000000000071
  0
LINE
  5
138
100
AcDbEntity
  8
terminal
  6
ByLayer
 62
  256
370
   -1
100
AcDbLine
 10
47.80999999999655
 20
86.91000000000085
 11
53.55999999999635
 21
86.91000000000085
  0
LINE
  5
139
100
AcDbEntity
  8
terminal
  6
ByLayer
 62
  256
370
   -1
100
AcDbLine
 10
53.55999999999635
 20
86.91000000000085
 11
53.55999999999636
 21
94.31000000000085
  0
LINE
  5
13A
100
AcDbEntity
  8
terminal
  6
ByLayer
 62
  256
370
   -1
100
AcDbLine
 10
53.55999999999636
 20
94.31000000000085
 11
47.80999999999655
 21
94.31000000000085
  0
LINE
  5
13B
100
AcDbEntity
  8
terminal
  6
ByLayer
 62
  256
370
   -1
100
AcDbLine
 10
47.80999999999655
 20
94.31000000000085
 11
47.80999999999655
 21
86.91000000000085
  0
CIRCLE
  5
13C
100
AcDbEntity
  8
terminal
  6
ByLayer
 62
  256
370
   -1
100
AcDbCircle
 10
50.15999999999636
 20
91.88000000000075
 40
0.3
  0
CIRCLE
  5
13D
100
AcDbEntity
  8
terminal
  6
ByLayer
 62
  256
370
   -1
100
AcDbCircle
 10
50.15999999999636
 20
89.34000000000086
 40
0.3
  0
LINE
  5
13E
100
AcDbEntity
  8
5V line
  6
ByLayer
 62
  256
370
   -1
100
AcDbLine
 10
50.15999999999636
 20
91.88000000000089
 11
34.91999999999707
 21
91.88000000000081
  0
LINE
  5
13F
100
AcDbEntity
  8
0_GND
  6
ByLayer
 62
  256
370
   -1
100
AcDbLine
 10
42.53999999999672
 20
89.34000000000081
 11
50.15999999999636
 21
89.34000000000086
  0
LINE
  5
140
100
AcDbEntity
  8
condenser
  6
ByLayer
 62
  256
370
   -1
100
AcDbLine
 10
43.80999999999703
 20
93.11000000000084
 11
46.34999999999614
 21
93.11000000000084
  0
LINE
  5
141
100
AcDbEntity
  8
condenser
  6
ByLayer
 62
  256
370
   -1
100
AcDbLine
 10
46.34999999999614
 20
93.11000000000084
 11
46.34999999999614
 21
88.11000000000094
  0
LINE
  5
142
100
AcDbEntity
  8
condenser
  6
ByLayer
 62
  256
370
   -1
100
AcDbLine
 10
46.34999999999614
 20
88.11000000000094
 11
43.80999999999703
 21
88.11000000000094
  0
LINE
  5
143
100
AcDbEntity
  8
condenser
  6
ByLayer
 62
  256
370
   -1
100
AcDbLine
 10
43.80999999999703
 20
88.11000000000094
 11
43.80999999999703
 21
93.11000000000084
  0
CIRCLE
  5
144
100
AcDbEntity
  8
condenser
  6
ByLayer
 62
  256
370
   -1
100
AcDbCircle
 10
45.07999999999659
 20
91.88000000000086
 40
0.25
  0
CIRCLE
  5
145
100
AcDbEntity
  8
condenser
  6
ByLayer
 62
  256
370
   -1
100
AcDbCircle
 10
45.0799999999966
 20
89.34000000000081
 40
0.25
  0
CIRCLE
  5
146
100
AcDbEntity
  8
resister
  6
ByLayer
 62
  256
370
   -1
100
AcDbCircle
 10
50.15999999999639
 20
81.72000000000075
 40
3.3
  0
CIRCLE
  5
147
100
AcDbEntity
  8
resister
  6
ByLayer
 62
  256
370
   -1
100
AcDbCircle
 10
50.15999999999639
 20
81.72000000000075
 40
0.3
  0
CIRCLE
  5
148
100
AcDbEntity
  8
resister
  6
ByLayer
 62
  256
370
   -1
100
AcDbCircle
 10
47.61999999999637
 20
79.18000000000087
 40
0.3
  0
LINE
  5
149
100
AcDbEntity
  8
0_wire
  6
ByLayer
 62
  256
370
   -1
100
AcDbLine
 10
42.53999999999672
 20
86.80000000000078
 11
47.61999999999648
 21
86.80000000000081
  0
LINE
  5
14A
100
AcDbEntity
  8
pin socket
  6
ByLayer
 62
  256
370
   -1
100
AcDbLine
 10
46.34999999999623
 20
75.37000000000022
 11
48.88999999999665
 21
75.37000000000022
  0
LINE
  5
14B
100
AcDbEntity
  8
pin socket
  6
ByLayer
 62
  256
370
   -1
100
AcDbLine
 10
48.88999999999665
 20
75.37000000000022
 11
48.88999999999665
 21
77.91000000000065
  0
LINE
  5
14C
100
AcDbEntity
  8
pin socket
  6
ByLayer
 62
  256
370
   -1
100
AcDbLine
 10
46.34999999999623
 20
77.91000000000065
 11
46.34999999999623
 21
75.37000000000022
  0
LINE
  5
14D
100
AcDbEntity
  8
pin socket
  6
ByLayer
 62
  256
370
   -1
100
AcDbLine
 10
46.34999999999623
 20
77.91000000000011
 11
48.88999999999665
 21
77.91000000000011
  0
LINE
  5
14E
100
AcDbEntity
  8
pin socket
  6
ByLayer
 62
  256
370
   -1
100
AcDbLine
 10
48.88999999999611
 20
75.37000000000022
 11
51.42999999999653
 21
75.37000000000022
  0
LINE
  5
14F
100
AcDbEntity
  8
pin socket
  6
ByLayer
 62
  256
370
   -1
100
AcDbLine
 10
51.42999999999653
 20
75.37000000000022
 11
51.42999999999653
 21
77.91000000000065
  0
LINE
  5
150
100
AcDbEntity
  8
pin socket
  6
ByLayer
 62
  256
370
   -1
100
AcDbLine
 10
48.88999999999611
 20
77.91000000000065
 11
48.88999999999611
 21
75.37000000000022
  0
LINE
  5
151
100
AcDbEntity
  8
pin socket
  6
ByLayer
 62
  256
370
   -1
100
AcDbLine
 10
48.88999999999611
 20
77.91000000000011
 11
51.42999999999653
 21
77.91000000000011
  0
LINE
  5
152
100
AcDbEntity
  8
pin socket
  6
ByLayer
 62
  256
370
   -1
100
AcDbLine
 10
51.42999999999599
 20
75.37000000000022
 11
53.9699999999964
 21
75.37000000000022
  0
LINE
  5
153
100
AcDbEntity
  8
pin socket
  6
ByLayer
 62
  256
370
   -1
100
AcDbLine
 10
53.9699999999964
 20
75.37000000000022
 11
53.9699999999964
 21
77.91000000000065
  0
LINE
  5
154
100
AcDbEntity
  8
pin socket
  6
ByLayer
 62
  256
370
   -1
100
AcDbLine
 10
51.42999999999599
 20
77.91000000000065
 11
51.42999999999599
 21
75.37000000000022
  0
LINE
  5
155
100
AcDbEntity
  8
pin socket
  6
ByLayer
 62
  256
370
   -1
100
AcDbLine
 10
51.42999999999599
 20
77.91000000000011
 11
53.9699999999964
 21
77.91000000000011
  0
MTEXT
  5
156
100
AcDbEntity
  8
pin socket
  6
ByLayer
 62
  256
370
   -1
100
AcDbMText
 10
46.51999516543961
 20
78.65538290397689
 30
0
 40
1
 41
2
 71
    4
 72
    1
  1
PH1
  7
iso
210
0
220
0
230
1
 50
0
 73
    2
 44
1.54
  0
LINE
  5
157
100
AcDbEntity
  8
0_GND
  6
ByLayer
 62
  256
370
   -1
100
AcDbLine
 10
39.99999999999685
 20
89.3400000000008
 11
37.45999999999697
 21
89.34000000000079
  0
LINE
  5
158
100
AcDbEntity
  8
0_GND
  6
ByLayer
 62
  256
370
   -1
100
AcDbLine
 10
37.45999999999697
 20
89.34000000000079
 11
37.45999999999701
 21
76.64000000000061
  0
LINE
  5
159
100
AcDbEntity
  8
0_GND
  6
ByLayer
 62
  256
370
   -1
100
AcDbLine
 10
37.45999999999701
 20
76.64000000000061
 11
47.61999999999652
 21
76.64000000000067
  0
LINE
  5
15A
100
AcDbEntity
  8
0_wire
  6
ByLayer
 62
  256
370
   -1
100
AcDbLine
 10
52.69999999999628
 20
79.18000000000073
 11
52.69999999999628
 21
76.6400000000007
  0
CIRCLE
  5
15B
100
AcDbEntity
  8
0_wire
  6
ByLayer
 62
  256
370
   -1
100
AcDbCircle
 10
50.1599999999964
 20
76.64000000000068
 40
0.635
  0
MTEXT
  5
15C
100
AcDbEntity
  8
resister
  6
ByLayer
 62
  256
370
   -1
100
AcDbMText
 10
49.52390369373953
 20
79.511105588142
 30
0
 40
1
 41
1.111111111111111
 71
    4
 72
    1
  1
R1
  7
iso
210
0
220
0
230
1
 50
0
 73
    2
 44
1.54
  0
LINE
  5
15D
100
AcDbEntity
  8
resister
  6
ByLayer
 62
  256
370
   -1
100
AcDbLine
 10
43.97999999999676
 20
83.2500000000008
 11
43.97999999999676
 21
77.65000000000077
  0
LINE
  5
15E
100
AcDbEntity
  8
resister
  6
ByLayer
 62
  256
370
   -1
100
AcDbLine
 10
43.97999999999676
 20
77.65000000000077
 11
46.17999999999641
 21
77.65000000000077
  0
LINE
  5
15F
100
AcDbEntity
  8
resister
  6
ByLayer
 62
  256
370
   -1
100
AcDbLine
 10
46.17999999999641
 20
77.65000000000077
 11
46.17999999999641
 21
83.2500000000008
  0
LINE
  5
160
100
AcDbEntity
  8
resister
  6
ByLayer
 62
  256
370
   -1
100
AcDbLine
 10
46.17999999999641
 20
83.2500000000008
 11
43.97999999999676
 21
83.2500000000008
  0
LINE
  5
161
100
AcDbEntity
  8
resister
  6
ByLayer
 62
  256
370
   -1
100
AcDbLine
 10
45.0799999999966
 20
84.26000000000076
 11
45.0799999999966
 21
83.2500000000008
  0
LINE
  5
162
100
AcDbEntity
  8
resister
  6
ByLayer
 62
  256
370
   -1
100
AcDbLine
 10
45.0799999999966
 20
77.65000000000077
 11
45.0799999999966
 21
76.64000000000071
  0
MTEXT
  5
163
100
AcDbEntity
  8
resister
  6
ByLayer
 62
  256
370
   -1
100
AcDbMText
 10
44.53629319368663
 20
80.65091957968556
 30
0
 40
1
 41
1.333333333333333
 71
    4
 72
    1
  1
R2
  7
iso
210
0
220
0
230
1
 50
0
 73
    2
 44
1.54
  0
LINE
  5
164
100
AcDbEntity
  8
0_wire
  6
ByLayer
 62
  256
370
   -1
100
AcDbLine
 10
42.53999999999675
 20
81.72000000000071
 11
42.53999999999677
 21
79.18000000000067
  0
LINE
  5
165
100
AcDbEntity
  8
0_GND
  6
ByLayer
 62
  256
370
   -1
100
AcDbLine
 10
34.91999999999716
 20
76.64000000000058
 11
29.83999999999737
 21
76.64000000000058
  0
LINE
  5
166
100
AcDbEntity
  8
0_GND
  6
ByLayer
 62
  256
370
   -1
100
AcDbLine
 10
34.91999999999713
 20
76.6400000000006
 11
37.45999999999701
 21
76.64000000000061
  0
LINE
  5
167
100
AcDbEntity
  8
0_GND
  6
ByLayer
 62
  256
370
   -1
100
AcDbLine
 10
29.83999999999737
 20
76.64000000000058
 11
27.2999999999975
 21
76.64000000000055
  0
LINE
  5
168
100
AcDbEntity
  8
resister
  6
ByLayer
 62
  256
370
   -1
100
AcDbLine
 10
26.19999999999762
 20
83.2500000000007
 11
26.19999999999762
 21
77.65000000000067
  0
LINE
  5
169
100
AcDbEntity
  8
resister
  6
ByLayer
 62
  256
370
   -1
100
AcDbLine
 10
26.19999999999762
 20
77.65000000000067
 11
28.39999999999727
 21
77.65000000000067
  0
LINE
  5
16A
100
AcDbEntity
  8
resister
  6
ByLayer
 62
  256
370
   -1
100
AcDbLine
 10
28.39999999999727
 20
77.65000000000067
 11
28.39999999999727
 21
83.2500000000007
  0
LINE
  5
16B
100
AcDbEntity
  8
resister
  6
ByLayer
 62
  256
370
   -1
100
AcDbLine
 10
28.39999999999727
 20
83.2500000000007
 11
26.19999999999762
 21
83.2500000000007
  0
LINE
  5
16C
100
AcDbEntity
  8
resister
  6
ByLayer
 62
  256
370
   -1
100
AcDbLine
 10
27.29999999999746
 20
84.26000000000066
 11
27.29999999999746
 21
83.2500000000007
  0
LINE
  5
16D
100
AcDbEntity
  8
resister
  6
ByLayer
 62
  256
370
   -1
100
AcDbLine
 10
27.29999999999746
 20
77.65000000000067
 11
27.29999999999746
 21
76.64000000000061
  0
MTEXT
  5
16E
100
AcDbEntity
  8
resister
  6
ByLayer
 62
  256
370
   -1
100
AcDbMText
 10
26.87321180611689
 20
80.22830572613138
 30
0
 40
1
 41
1.444444444444444
 71
    4
 72
    1
  1
R4
  7
iso
210
0
220
0
230
1
 50
0
 73
    2
 44
1.54
  0
LINE
  5
16F
100
AcDbEntity
  8
0_wire
  6
ByLayer
 62
  256
370
   -1
100
AcDbLine
 10
42.53999999999674
 20
84.26000000000074
 11
45.07999999999662
 21
84.26000000000076
  0
CIRCLE
  5
170
100
AcDbEntity
  8
resister
  6
ByLayer
 62
  256
370
   -1
100
AcDbCircle
 10
52.69999999999628
 20
79.18000000000073
 40
0.3
  0
LINE
  5
171
100
AcDbEntity
  8
0_wire
  6
ByLayer
 62
  256
370
   -1
100
AcDbLine
 10
47.61999999999648
 20
86.80000000000081
 11
47.61999999999637
 21
79.18000000000087
  0
LINE
  5
172
100
AcDbEntity
  8
0_wire
  6
ByLayer
 62
  256
370
   -1
100
AcDbLine
 10
50.15999999999639
 20
81.72000000000075
 11
52.69999999999627
 21
81.72000000000077
  0
LINE
  5
173
100
AcDbEntity
  8
0_wire
  6
ByLayer
 62
  256
370
   -1
100
AcDbLine
 10
52.69999999999627
 20
81.72000000000077
 11
52.69999999999628
 21
79.18000000000073
  0
LINE
  5
174
100
AcDbEntity
  8
0_wire
  6
ByLayer
 62
  256
370
   -1
100
AcDbLine
 10
32.37999999999725
 20
86.80000000000069
 11
24.75999999999758
 21
86.80000000000068
  0
LINE
  5
175
100
AcDbEntity
  8
universal board
  6
ByLayer
 62
  256
370
   -1
100
AcDbLine
 10
23.48999999999761
 20
93.15000000000053
 11
53.96999999999623
 21
93.15000000000056
  0
LINE
  5
176
100
AcDbEntity
  8
universal board
  6
ByLayer
 62
  256
370
   -1
100
AcDbLine
 10
23.48999999999761
 20
75.3700000000003
 11
53.9699999999963
 21
75.37000000000032
  0
LINE
  5
177
100
AcDbEntity
  8
universal board
  6
ByLayer
 62
  256
370
   -1
100
AcDbLine
 10
53.96999999999615
 20
75.37000000000086
 11
53.96999999999613
 21
93.15000000000056
  0
LINE
  5
178
100
AcDbEntity
  8
universal board
  6
ByLayer
 62
  256
370
   -1
100
AcDbLine
 10
23.48999999999767
 20
75.3700000000003
 11
23.48999999999767
 21
93.15000000000052
  0
MTEXT
  5
179
100
AcDbEntity
  8
universal board
  6
ByLayer
 62
  256
370
   -1
100
AcDbMText
 10
24.35360067195806
 20
94.23207959756274
 30
0
 40
1
 41
2
 71
    4
 72
    1
  1
UB1
  7
iso
210
0
220
0
230
1
 50
0
 73
    2
 44
1.54
  0
MTEXT
  5
17A
100
AcDbEntity
  8
pin socket
  6
ByLayer
 62
  256
370
   -1
100
AcDbMText
 10
21.56497247082983
 20
91.31518016579871
 30
0
 40
1
 41
1.99999978799785
 71
    4
 72
    1
  1
PS1
  7
iso
210
0
220
0
230
1
 50
0
 73
    2
 44
1.54
  0
MTEXT
  5
17B
100
AcDbEntity
  8
pin socket
  6
ByLayer
 62
  256
370
   -1
100
AcDbMText
 10
41.51410975696884
 20
91.18320962969366
 30
0
 40
1
 41
2.222222010220073
 71
    4
 72
    1
  1
PS2
  7
iso
210
0
220
0
230
1
 50
0
 73
    2
 44
1.54
  0
MTEXT
  5
17C
100
AcDbEntity
  8
condenser
  6
ByLayer
 62
  256
370
   -1
100
AcDbMText
 10
44.79741848725626
 20
93.99186250144437
 30
0
 40
1
 41
1.000000000000062
 71
    4
 72
    1
  1
C1
  7
iso
210
0
220
0
230
1
 50
0
 73
    2
 44
1.54
  0
MTEXT
  5
17D
100
AcDbEntity
  8
terminal
  6
ByLayer
 62
  256
370
   -1
100
AcDbMText
 10
50.63109591902724
 20
87.89697563242991
 30
0
 40
1
 41
2.111111111111111
 71
    4
 72
    1
  1
XH1
  7
iso
210
0
220
0
230
1
 50
0
 73
    2
 44
1.54
  0
CIRCLE
  5
17E
100
AcDbEntity
  8
universal board
  6
ByLayer
 62
  256
370
   -1
100
AcDbCircle
 10
24.75999999999768
 20
61.40000000000035
 40
0.5
  0
CIRCLE
  5
17F
100
AcDbEntity
  8
universal board
  6
ByLayer
 62
  256
370
   -1
100
AcDbCircle
 10
24.75999999999767
 20
63.94000000000038
 40
0.5
  0
CIRCLE
  5
180
100
AcDbEntity
  8
universal board
  6
ByLayer
 62
  256
370
   -1
100
AcDbCircle
 10
24.75999999999767
 20
66.4800000000004
 40
0.5
  0
CIRCLE
  5
181
100
AcDbEntity
  8
universal board
  6
ByLayer
 62
  256
370
   -1
100
AcDbCircle
 10
27.29999999999756
 20
61.40000000000036
 40
0.5
  0
CIRCLE
  5
182
100
AcDbEntity
  8
universal board
  6
ByLayer
 62
  256
370
   -1
100
AcDbCircle
 10
27.29999999999755
 20
63.9400000000004
 40
0.5
  0
CIRCLE
  5
183
100
AcDbEntity
  8
universal board
  6
ByLayer
 62
  256
370
   -1
100
AcDbCircle
 10
27.29999999999755
 20
66.48000000000042
 40
0.5
  0
CIRCLE
  5
184
100
AcDbEntity
  8
universal board
  6
ByLayer
 62
  256
370
   -1
100
AcDbCircle
 10
29.83999999999743
 20
61.40000000000038
 40
0.5
  0
CIRCLE
  5
185
100
AcDbEntity
  8
universal board
  6
ByLayer
 62
  256
370
   -1
100
AcDbCircle
 10
29.83999999999742
 20
63.94000000000041
 40
0.5
  0
CIRCLE
  5
186
100
AcDbEntity
  8
universal board
  6
ByLayer
 62
  256
370
   -1
100
AcDbCircle
 10
29.83999999999742
 20
66.48000000000043
 40
0.5
  0
CIRCLE
  5
187
100
AcDbEntity
  8
universal board
  6
ByLayer
 62
  256
370
   -1
100
AcDbCircle
 10
32.37999999999731
 20
61.40000000000039
 40
0.5
  0
CIRCLE
  5
188
100
AcDbEntity
  8
universal board
  6
ByLayer
 62
  256
370
   -1
100
AcDbCircle
 10
32.3799999999973
 20
63.94000000000042
 40
0.5
  0
CIRCLE
  5
189
100
AcDbEntity
  8
universal board
  6
ByLayer
 62
  256
370
   -1
100
AcDbCircle
 10
32.3799999999973
 20
66.48000000000044
 40
0.5
  0
CIRCLE
  5
18A
100
AcDbEntity
  8
universal board
  6
ByLayer
 62
  256
370
   -1
100
AcDbCircle
 10
34.91999999999719
 20
61.4000000000004
 40
0.5
  0
CIRCLE
  5
18B
100
AcDbEntity
  8
universal board
  6
ByLayer
 62
  256
370
   -1
100
AcDbCircle
 10
34.91999999999718
 20
63.94000000000044
 40
0.5
  0
CIRCLE
  5
18C
100
AcDbEntity
  8
universal board
  6
ByLayer
 62
  256
370
   -1
100
AcDbCircle
 10
34.91999999999718
 20
66.48000000000046
 40
0.5
  0
CIRCLE
  5
18D
100
AcDbEntity
  8
universal board
  6
ByLayer
 62
  256
370
   -1
100
AcDbCircle
 10
37.45999999999707
 20
61.40000000000042
 40
0.5
  0
CIRCLE
  5
18E
100
AcDbEntity
  8
universal board
  6
ByLayer
 62
  256
370
   -1
100
AcDbCircle
 10
37.45999999999706
 20
63.94000000000045
 40
0.5
  0
CIRCLE
  5
18F
100
AcDbEntity
  8
universal board
  6
ByLayer
 62
  256
370
   -1
100
AcDbCircle
 10
37.45999999999706
 20
66.48000000000047
 40
0.5
  0
CIRCLE
  5
190
100
AcDbEntity
  8
universal board
  6
ByLayer
 62
  256
370
   -1
100
AcDbCircle
 10
39.99999999999694
 20
61.40000000000043
 40
0.5
  0
CIRCLE
  5
191
100
AcDbEntity
  8
universal board
  6
ByLayer
 62
  256
370
   -1
100
AcDbCircle
 10
39.99999999999694
 20
63.94000000000047
 40
0.5
  0
CIRCLE
  5
192
100
AcDbEntity
  8
universal board
  6
ByLayer
 62
  256
370
   -1
100
AcDbCircle
 10
39.99999999999694
 20
66.48000000000049
 40
0.5
  0
CIRCLE
  5
193
100
AcDbEntity
  8
universal board
  6
ByLayer
 62
  256
370
   -1
100
AcDbCircle
 10
42.53999999999682
 20
61.40000000000045
 40
0.5
  0
CIRCLE
  5
194
100
AcDbEntity
  8
universal board
  6
ByLayer
 62
  256
370
   -1
100
AcDbCircle
 10
42.53999999999682
 20
63.94000000000048
 40
0.5
  0
CIRCLE
  5
195
100
AcDbEntity
  8
universal board
  6
ByLayer
 62
  256
370
   -1
100
AcDbCircle
 10
42.53999999999682
 20
66.4800000000005
 40
0.5
  0
CIRCLE
  5
196
100
AcDbEntity
  8
universal board
  6
ByLayer
 62
  256
370
   -1
100
AcDbCircle
 10
24.75999999999769
 20
58.86000000000031
 40
0.5
  0
CIRCLE
  5
197
100
AcDbEntity
  8
universal board
  6
ByLayer
 62
  256
370
   -1
100
AcDbCircle
 10
27.29999999999757
 20
58.86000000000033
 40
0.5
  0
CIRCLE
  5
198
100
AcDbEntity
  8
universal board
  6
ByLayer
 62
  256
370
   -1
100
AcDbCircle
 10
29.83999999999745
 20
58.86000000000034
 40
0.5
  0
CIRCLE
  5
199
100
AcDbEntity
  8
universal board
  6
ByLayer
 62
  256
370
   -1
100
AcDbCircle
 10
32.37999999999732
 20
58.86000000000035
 40
0.5
  0
CIRCLE
  5
19A
100
AcDbEntity
  8
universal board
  6
ByLayer
 62
  256
370
   -1
100
AcDbCircle
 10
34.9199999999972
 20
58.86000000000037
 40
0.5
  0
CIRCLE
  5
19B
100
AcDbEntity
  8
universal board
  6
ByLayer
 62
  256
370
   -1
100
AcDbCircle
 10
37.45999999999708
 20
58.86000000000038
 40
0.5
  0
CIRCLE
  5
19C
100
AcDbEntity
  8
universal board
  6
ByLayer
 62
  256
370
   -1
100
AcDbCircle
 10
39.99999999999696
 20
58.8600000000004
 40
0.5
  0
CIRCLE
  5
19D
100
AcDbEntity
  8
universal board
  6
ByLayer
 62
  256
370
   -1
100
AcDbCircle
 10
42.53999999999684
 20
58.86000000000041
 40
0.5
  0
LINE
  5
19E
100
AcDbEntity
  8
pin socket
  6
ByLayer
 62
  256
370
   -1
100
AcDbLine
 10
23.48999999999786
 20
65.20999999999994
 11
23.48999999999786
 21
67.75000000000037
  0
LINE
  5
19F
100
AcDbEntity
  8
pin socket
  6
ByLayer
 62
  256
370
   -1
100
AcDbLine
 10
23.48999999999732
 20
65.20999999999994
 11
26.02999999999774
 21
65.20999999999994
  0
LINE
  5
1A0
100
AcDbEntity
  8
pin socket
  6
ByLayer
 62
  256
370
   -1
100
AcDbLine
 10
26.02999999999774
 20
65.20999999999994
 11
26.02999999999774
 21
67.75000000000037
  0
LINE
  5
1A1
100
AcDbEntity
  8
pin socket
  6
ByLayer
 62
  256
370
   -1
100
AcDbLine
 10
23.48999999999732
 20
67.74999999999983
 11
26.02999999999774
 21
67.74999999999983
  0
LINE
  5
1A2
100
AcDbEntity
  8
pin socket
  6
ByLayer
 62
  256
370
   -1
100
AcDbLine
 10
23.48999999999786
 20
62.66999999999992
 11
23.48999999999786
 21
65.21000000000035
  0
LINE
  5
1A3
100
AcDbEntity
  8
pin socket
  6
ByLayer
 62
  256
370
   -1
100
AcDbLine
 10
23.48999999999732
 20
62.66999999999992
 11
26.02999999999774
 21
62.66999999999992
  0
LINE
  5
1A4
100
AcDbEntity
  8
pin socket
  6
ByLayer
 62
  256
370
   -1
100
AcDbLine
 10
26.02999999999774
 20
62.66999999999992
 11
26.02999999999774
 21
65.21000000000035
  0
LINE
  5
1A5
100
AcDbEntity
  8
pin socket
  6
ByLayer
 62
  256
370
   -1
100
AcDbLine
 10
23.48999999999732
 20
65.20999999999981
 11
26.02999999999774
 21
65.20999999999981
  0
LINE
  5
1A6
100
AcDbEntity
  8
pin socket
  6
ByLayer
 62
  256
370
   -1
100
AcDbLine
 10
23.48999999999786
 20
60.1299999999999
 11
23.48999999999786
 21
62.67000000000033
  0
LINE
  5
1A7
100
AcDbEntity
  8
pin socket
  6
ByLayer
 62
  256
370
   -1
100
AcDbLine
 10
23.48999999999732
 20
60.1299999999999
 11
26.02999999999774
 21
60.1299999999999
  0
LINE
  5
1A8
100
AcDbEntity
  8
pin socket
  6
ByLayer
 62
  256
370
   -1
100
AcDbLine
 10
26.02999999999774
 20
60.1299999999999
 11
26.02999999999774
 21
62.67000000000033
  0
LINE
  5
1A9
100
AcDbEntity
  8
pin socket
  6
ByLayer
 62
  256
370
   -1
100
AcDbLine
 10
23.48999999999732
 20
62.66999999999979
 11
26.02999999999774
 21
62.66999999999979
  0
LINE
  5
1AA
100
AcDbEntity
  8
pin socket
  6
ByLayer
 62
  256
370
   -1
100
AcDbLine
 10
23.48999999999786
 20
57.58999999999988
 11
23.48999999999786
 21
60.13000000000031
  0
LINE
  5
1AB
100
AcDbEntity
  8
pin socket
  6
ByLayer
 62
  256
370
   -1
100
AcDbLine
 10
23.48999999999732
 20
57.58999999999988
 11
26.02999999999774
 21
57.58999999999988
  0
LINE
  5
1AC
100
AcDbEntity
  8
pin socket
  6
ByLayer
 62
  256
370
   -1
100
AcDbLine
 10
26.02999999999774
 20
57.58999999999988
 11
26.02999999999774
 21
60.13000000000031
  0
LINE
  5
1AD
100
AcDbEntity
  8
pin socket
  6
ByLayer
 62
  256
370
   -1
100
AcDbLine
 10
23.48999999999732
 20
60.12999999999977
 11
26.02999999999774
 21
60.12999999999977
  0
LINE
  5
1AE
100
AcDbEntity
  8
0_wire
  6
ByLayer
 62
  256
370
   -1
100
AcDbLine
 10
24.75999999999767
 20
63.94000000000037
 11
27.29999999999755
 21
63.94000000000038
  0
LINE
  5
1AF
100
AcDbEntity
  8
0_wire
  6
ByLayer
 62
  256
370
   -1
100
AcDbLine
 10
24.75999999999767
 20
61.40000000000035
 11
27.29999999999755
 21
61.40000000000036
  0
LINE
  5
1B0
100
AcDbEntity
  8
pin socket
  6
ByLayer
 62
  256
370
   -1
100
AcDbLine
 10
41.269999999997
 20
65.21000000000004
 11
41.269999999997
 21
67.75000000000047
  0
LINE
  5
1B1
100
AcDbEntity
  8
pin socket
  6
ByLayer
 62
  256
370
   -1
100
AcDbLine
 10
41.26999999999647
 20
65.21000000000004
 11
43.80999999999689
 21
65.21000000000004
  0
LINE
  5
1B2
100
AcDbEntity
  8
pin socket
  6
ByLayer
 62
  256
370
   -1
100
AcDbLine
 10
43.80999999999689
 20
65.21000000000004
 11
43.80999999999689
 21
67.75000000000047
  0
LINE
  5
1B3
100
AcDbEntity
  8
pin socket
  6
ByLayer
 62
  256
370
   -1
100
AcDbLine
 10
41.26999999999647
 20
67.74999999999993
 11
43.80999999999689
 21
67.74999999999993
  0
LINE
  5
1B4
100
AcDbEntity
  8
pin socket
  6
ByLayer
 62
  256
370
   -1
100
AcDbLine
 10
41.269999999997
 20
62.67000000000002
 11
41.269999999997
 21
65.21000000000045
  0
LINE
  5
1B5
100
AcDbEntity
  8
pin socket
  6
ByLayer
 62
  256
370
   -1
100
AcDbLine
 10
41.26999999999647
 20
62.67000000000002
 11
43.80999999999689
 21
62.67000000000002
  0
LINE
  5
1B6
100
AcDbEntity
  8
pin socket
  6
ByLayer
 62
  256
370
   -1
100
AcDbLine
 10
43.80999999999689
 20
62.67000000000002
 11
43.80999999999689
 21
65.21000000000045
  0
LINE
  5
1B7
100
AcDbEntity
  8
pin socket
  6
ByLayer
 62
  256
370
   -1
100
AcDbLine
 10
41.26999999999647
 20
65.20999999999991
 11
43.80999999999689
 21
65.20999999999991
  0
LINE
  5
1B8
100
AcDbEntity
  8
pin socket
  6
ByLayer
 62
  256
370
   -1
100
AcDbLine
 10
41.269999999997
 20
60.13
 11
41.269999999997
 21
62.67000000000043
  0
LINE
  5
1B9
100
AcDbEntity
  8
pin socket
  6
ByLayer
 62
  256
370
   -1
100
AcDbLine
 10
41.26999999999647
 20
60.13
 11
43.80999999999689
 21
60.13
  0
LINE
  5
1BA
100
AcDbEntity
  8
pin socket
  6
ByLayer
 62
  256
370
   -1
100
AcDbLine
 10
43.80999999999689
 20
60.13
 11
43.80999999999689
 21
62.67000000000043
  0
LINE
  5
1BB
100
AcDbEntity
  8
pin socket
  6
ByLayer
 62
  256
370
   -1
100
AcDbLine
 10
41.26999999999647
 20
62.66999999999989
 11
43.80999999999689
 21
62.66999999999989
  0
LINE
  5
1BC
100
AcDbEntity
  8
pin socket
  6
ByLayer
 62
  256
370
   -1
100
AcDbLine
 10
41.269999999997
 20
57.58999999999997
 11
41.269999999997
 21
60.13000000000041
  0
LINE
  5
1BD
100
AcDbEntity
  8
pin socket
  6
ByLayer
 62
  256
370
   -1
100
AcDbLine
 10
41.26999999999647
 20
57.58999999999997
 11
43.80999999999689
 21
57.58999999999997
  0
LINE
  5
1BE
100
AcDbEntity
  8
pin socket
  6
ByLayer
 62
  256
370
   -1
100
AcDbLine
 10
43.80999999999689
 20
57.58999999999997
 11
43.80999999999689
 21
60.13000000000041
  0
LINE
  5
1BF
100
AcDbEntity
  8
pin socket
  6
ByLayer
 62
  256
370
   -1
100
AcDbLine
 10
41.26999999999647
 20
60.12999999999987
 11
43.80999999999689
 21
60.12999999999987
  0
MTEXT
  5
1C0
100
AcDbEntity
  8
pin socket
  6
ByLayer
 62
  256
370
   -1
100
AcDbMText
 10
44.06694402498153
 20
62.47372572149153
 30
0
 40
1
 41
2.444444020440146
 71
    4
 72
    1
  1
VSS\PRA0\PRA1\PRA2
  7
iso
210
0
220
0
230
1
 50
0
 73
    2
 44
1.54
  0
LINE
  5
1C1
100
AcDbEntity
  8
resister
  6
ByLayer
 62
  256
370
   -1
100
AcDbLine
 10
38.89999999999707
 20
65.47000000000051
 11
38.89999999999707
 21
59.87000000000049
  0
LINE
  5
1C2
100
AcDbEntity
  8
resister
  6
ByLayer
 62
  256
370
   -1
100
AcDbLine
 10
38.89999999999707
 20
59.87000000000049
 11
41.09999999999673
 21
59.87000000000049
  0
LINE
  5
1C3
100
AcDbEntity
  8
resister
  6
ByLayer
 62
  256
370
   -1
100
AcDbLine
 10
41.09999999999673
 20
59.87000000000049
 11
41.09999999999673
 21
65.47000000000051
  0
LINE
  5
1C4
100
AcDbEntity
  8
resister
  6
ByLayer
 62
  256
370
   -1
100
AcDbLine
 10
41.09999999999673
 20
65.47000000000051
 11
38.89999999999707
 21
65.47000000000051
  0
LINE
  5
1C5
100
AcDbEntity
  8
resister
  6
ByLayer
 62
  256
370
   -1
100
AcDbLine
 10
39.99999999999691
 20
66.48000000000047
 11
39.99999999999691
 21
65.47000000000051
  0
LINE
  5
1C6
100
AcDbEntity
  8
resister
  6
ByLayer
 62
  256
370
   -1
100
AcDbLine
 10
39.99999999999691
 20
59.87000000000049
 11
39.99999999999691
 21
58.86000000000043
  0
LINE
  5
1C7
100
AcDbEntity
  8
0_wire
  6
ByLayer
 62
  256
370
   -1
100
AcDbLine
 10
42.53999999999682
 20
58.86000000000043
 11
39.99999999999694
 21
58.86000000000041
  0
LINE
  5
1C8
100
AcDbEntity
  8
0_wire
  6
ByLayer
 62
  256
370
   -1
100
AcDbLine
 10
39.99999999999694
 20
66.48000000000047
 11
34.91999999999719
 21
66.48000000000044
  0
CIRCLE
  5
1C9
100
AcDbEntity
  8
0_wire
  6
ByLayer
 62
  256
370
   -1
100
AcDbCircle
 10
42.53999999999682
 20
63.94000000000048
 40
0.635
  0
MTEXT
  5
1CA
100
AcDbEntity
  8
pin socket
  6
ByLayer
 62
  256
370
   -1
100
AcDbMText
 10
21.76745310362306
 20
68.42189711781116
 30
0
 40
1
 41
2.222222222222222
 71
    4
 72
    1
  1
PH2
  7
iso
210
0
220
0
230
1
 50
0
 73
    2
 44
1.54
  0
MTEXT
  5
1CB
100
AcDbEntity
  8
pin socket
  6
ByLayer
 62
  256
370
   -1
100
AcDbMText
 10
43.57844111345337
 20
68.4654320240184
 30
0
 40
1
 41
2.222222222222284
 71
    4
 72
    1
  1
PH3
  7
iso
210
0
220
0
230
1
 50
0
 73
    2
 44
1.54
  0
LINE
  5
1CC
100
AcDbEntity
  8
switch
  6
ByLayer
 62
  256
370
   -1
100
AcDbLine
 10
36.10999999999786
 20
59.9400000000014
 11
36.10999999999786
 21
68.94000000000176
  0
LINE
  5
1CD
100
AcDbEntity
  8
switch
  6
ByLayer
 62
  256
370
   -1
100
AcDbLine
 10
36.10999999999786
 20
68.94000000000176
 11
26.10999999999835
 21
68.94000000000176
  0
LINE
  5
1CE
100
AcDbEntity
  8
switch
  6
ByLayer
 62
  256
370
   -1
100
AcDbLine
 10
26.10999999999835
 20
68.94000000000176
 11
26.10999999999835
 21
58.94000000000156
  0
LINE
  5
1CF
100
AcDbEntity
  8
switch
  6
ByLayer
 62
  256
370
   -1
100
AcDbLine
 10
26.10999999999835
 20
58.94000000000156
 11
35.10999999999997
 21
58.94000000000156
  0
LINE
  5
1D0
100
AcDbEntity
  8
switch
  6
ByLayer
 62
  256
370
   -1
100
AcDbLine
 10
35.10999999999997
 20
58.94000000000156
 11
36.10999999999786
 21
59.9400000000014
  0
LINE
  5
1D1
100
AcDbEntity
  8
switch
  6
ByLayer
 62
  256
370
   -1
100
AcDbLine
 10
32.10999999999775
 20
68.94000000000176
 11
31.1099999999981
 21
67.94000000000169
  0
LINE
  5
1D2
100
AcDbEntity
  8
switch
  6
ByLayer
 62
  256
370
   -1
100
AcDbLine
 10
31.1099999999981
 20
67.94000000000169
 11
30.10999999999846
 21
68.94000000000177
  0
CIRCLE
  5
1D3
100
AcDbEntity
  8
switch
  6
ByLayer
 62
  256
370
   -1
100
AcDbCircle
 10
34.91999999999722
 20
61.40000000000038
 40
0.3
  0
CIRCLE
  5
1D4
100
AcDbEntity
  8
switch
  6
ByLayer
 62
  256
370
   -1
100
AcDbCircle
 10
34.91999999999722
 20
63.9400000000004
 40
0.3
  0
CIRCLE
  5
1D5
100
AcDbEntity
  8
switch
  6
ByLayer
 62
  256
370
   -1
100
AcDbCircle
 10
34.91999999999722
 20
66.48000000000042
 40
0.3
  0
CIRCLE
  5
1D6
100
AcDbEntity
  8
switch
  6
ByLayer
 62
  256
370
   -1
100
AcDbCircle
 10
27.29999999999755
 20
61.40000000000038
 40
0.3
  0
CIRCLE
  5
1D7
100
AcDbEntity
  8
switch
  6
ByLayer
 62
  256
370
   -1
100
AcDbCircle
 10
27.29999999999755
 20
66.48000000000042
 40
0.3
  0
MTEXT
  5
1D8
100
AcDbEntity
  8
switch
  6
ByLayer
 62
  256
370
   -1
100
AcDbMText
 10
28.24562015137433
 20
63.87524438926584
 30
0
 40
1
 41
0.5555555555555556
 71
    4
 72
    1
  1
8\P\P4
  7
iso
210
0
220
0
230
1
 50
0
 73
    2
 44
1.54
  0
MTEXT
  5
1D9
100
AcDbEntity
  8
switch
  6
ByLayer
 62
  256
370
   -1
100
AcDbMText
 10
33.15920078395062
 20
64.32574520090822
 30
0
 40
1
 41
0.8888888888888888
 71
    4
 72
    1
  1
2\PIN\P1
  7
iso
210
0
220
0
230
1
 50
0
 73
    2
 44
1.54
  0
MTEXT
  5
1DA
100
AcDbEntity
  8
switch
  6
ByLayer
 62
  256
370
   -1
100
AcDbMText
 10
30.92205881963435
 20
60.31620414465148
 30
0
 40
1
 41
2.555555343553406
 71
    4
 72
    1
  1
SW2
  7
iso
210
0
220
0
230
1
 50
0
 73
    2
 44
1.54
  0
CIRCLE
  5
1DB
100
AcDbEntity
  8
universal board
  6
ByLayer
 62
  256
370
   -1
100
AcDbCircle
 10
24.75999999999767
 20
69.02000000000042
 40
0.5
  0
CIRCLE
  5
1DC
100
AcDbEntity
  8
universal board
  6
ByLayer
 62
  256
370
   -1
100
AcDbCircle
 10
27.29999999999755
 20
69.02000000000044
 40
0.5
  0
CIRCLE
  5
1DD
100
AcDbEntity
  8
universal board
  6
ByLayer
 62
  256
370
   -1
100
AcDbCircle
 10
29.83999999999742
 20
69.02000000000045
 40
0.5
  0
CIRCLE
  5
1DE
100
AcDbEntity
  8
universal board
  6
ByLayer
 62
  256
370
   -1
100
AcDbCircle
 10
32.3799999999973
 20
69.02000000000046
 40
0.5
  0
CIRCLE
  5
1DF
100
AcDbEntity
  8
universal board
  6
ByLayer
 62
  256
370
   -1
100
AcDbCircle
 10
34.91999999999718
 20
69.02000000000048
 40
0.5
  0
CIRCLE
  5
1E0
100
AcDbEntity
  8
universal board
  6
ByLayer
 62
  256
370
   -1
100
AcDbCircle
 10
37.45999999999706
 20
69.02000000000049
 40
0.5
  0
CIRCLE
  5
1E1
100
AcDbEntity
  8
universal board
  6
ByLayer
 62
  256
370
   -1
100
AcDbCircle
 10
39.99999999999694
 20
69.02000000000051
 40
0.5
  0
CIRCLE
  5
1E2
100
AcDbEntity
  8
universal board
  6
ByLayer
 62
  256
370
   -1
100
AcDbCircle
 10
42.53999999999682
 20
69.02000000000052
 40
0.5
  0
LINE
  5
1E3
100
AcDbEntity
  8
universal board
  6
ByLayer
 62
  256
370
   -1
100
AcDbLine
 10
23.48999999999777
 20
70.29000000000021
 11
43.80999999999679
 21
70.29000000000021
  0
MTEXT
  5
1E4
100
AcDbEntity
  8
universal board
  6
ByLayer
 62
  256
370
   -1
100
AcDbMText
 10
24.8485925555346
 20
71.67482474186076
 30
0
 40
1
 41
2.222222222222222
 71
    4
 72
    1
  1
UB2
  7
iso
210
0
220
0
230
1
 50
0
 73
    2
 44
1.54
  0
LINE
  5
1E5
100
AcDbEntity
  8
5V line
  6
ByLayer
 62
  256
370
   -1
100
AcDbLine
 10
24.75999999999767
 20
66.4800000000004
 11
24.75999999999767
 21
69.02000000000042
  0
LINE
  5
1E6
100
AcDbEntity
  8
5V line
  6
ByLayer
 62
  256
370
   -1
100
AcDbLine
 10
24.75999999999767
 20
69.02000000000042
 11
32.3799999999973
 21
69.02000000000046
  0
LINE
  5
1E7
100
AcDbEntity
  8
0_wire
  6
ByLayer
 62
  256
370
   -1
100
AcDbLine
 10
27.29999999999755
 20
63.9400000000004
 11
27.29999999999755
 21
66.48000000000042
  0
LINE
  5
1E8
100
AcDbEntity
  8
0_wire
  6
ByLayer
 62
  256
370
   -1
100
AcDbLine
 10
42.53999999999682
 20
61.40000000000045
 11
34.91999999999718
 21
61.4000000000004
  0
LINE
  5
1E9
100
AcDbEntity
  8
5V line
  6
ByLayer
 62
  256
370
   -1
100
AcDbLine
 10
34.91999999999718
 20
63.94000000000044
 11
32.3799999999973
 21
63.94000000000042
  0
LINE
  5
1EA
100
AcDbEntity
  8
5V line
  6
ByLayer
 62
  256
370
   -1
100
AcDbLine
 10
32.37999999999731
 20
69.02000000000046
 11
32.37999999999731
 21
63.94000000000042
  0
CIRCLE
  5
1EB
100
AcDbEntity
  8
universal board
  6
ByLayer
 62
  256
370
   -1
100
AcDbCircle
 10
24.7599999999977
 20
56.32000000000028
 40
0.5
  0
CIRCLE
  5
1EC
100
AcDbEntity
  8
universal board
  6
ByLayer
 62
  256
370
   -1
100
AcDbCircle
 10
27.29999999999758
 20
56.32000000000029
 40
0.5
  0
CIRCLE
  5
1ED
100
AcDbEntity
  8
universal board
  6
ByLayer
 62
  256
370
   -1
100
AcDbCircle
 10
29.83999999999746
 20
56.32000000000031
 40
0.5
  0
CIRCLE
  5
1EE
100
AcDbEntity
  8
universal board
  6
ByLayer
 62
  256
370
   -1
100
AcDbCircle
 10
32.37999999999734
 20
56.32000000000032
 40
0.5
  0
CIRCLE
  5
1EF
100
AcDbEntity
  8
universal board
  6
ByLayer
 62
  256
370
   -1
100
AcDbCircle
 10
34.91999999999722
 20
56.32000000000033
 40
0.5
  0
CIRCLE
  5
1F0
100
AcDbEntity
  8
universal board
  6
ByLayer
 62
  256
370
   -1
100
AcDbCircle
 10
37.45999999999709
 20
56.32000000000035
 40
0.5
  0
CIRCLE
  5
1F1
100
AcDbEntity
  8
universal board
  6
ByLayer
 62
  256
370
   -1
100
AcDbCircle
 10
39.99999999999697
 20
56.32000000000036
 40
0.5
  0
CIRCLE
  5
1F2
100
AcDbEntity
  8
universal board
  6
ByLayer
 62
  256
370
   -1
100
AcDbCircle
 10
42.53999999999685
 20
56.32000000000038
 40
0.5
  0
CIRCLE
  5
1F3
100
AcDbEntity
  8
universal board
  6
ByLayer
 62
  256
370
   -1
100
AcDbCircle
 10
24.75999999999772
 20
53.78000000000024
 40
0.5
  0
CIRCLE
  5
1F4
100
AcDbEntity
  8
universal board
  6
ByLayer
 62
  256
370
   -1
100
AcDbCircle
 10
27.2999999999976
 20
53.78000000000026
 40
0.5
  0
CIRCLE
  5
1F5
100
AcDbEntity
  8
universal board
  6
ByLayer
 62
  256
370
   -1
100
AcDbCircle
 10
29.83999999999747
 20
53.78000000000027
 40
0.5
  0
CIRCLE
  5
1F6
100
AcDbEntity
  8
universal board
  6
ByLayer
 62
  256
370
   -1
100
AcDbCircle
 10
32.37999999999735
 20
53.78000000000029
 40
0.5
  0
CIRCLE
  5
1F7
100
AcDbEntity
  8
universal board
  6
ByLayer
 62
  256
370
   -1
100
AcDbCircle
 10
34.91999999999723
 20
53.7800000000003
 40
0.5
  0
CIRCLE
  5
1F8
100
AcDbEntity
  8
universal board
  6
ByLayer
 62
  256
370
   -1
100
AcDbCircle
 10
37.45999999999711
 20
53.78000000000031
 40
0.5
  0
CIRCLE
  5
1F9
100
AcDbEntity
  8
universal board
  6
ByLayer
 62
  256
370
   -1
100
AcDbCircle
 10
39.99999999999699
 20
53.78000000000033
 40
0.5
  0
CIRCLE
  5
1FA
100
AcDbEntity
  8
universal board
  6
ByLayer
 62
  256
370
   -1
100
AcDbCircle
 10
42.53999999999687
 20
53.78000000000034
 40
0.5
  0
LINE
  5
1FB
100
AcDbEntity
  8
universal board
  6
ByLayer
 62
  256
370
   -1
100
AcDbLine
 10
23.4899999999978
 20
52.51
 11
43.80999999999682
 21
52.51000000000001
  0
LINE
  5
1FC
100
AcDbEntity
  8
universal board
  6
ByLayer
 62
  256
370
   -1
100
AcDbLine
 10
23.48999999999776
 20
52.50999999999999
 11
23.48999999999777
 21
70.29000000000021
  0
LINE
  5
1FD
100
AcDbEntity
  8
universal board
  6
ByLayer
 62
  256
370
   -1
100
AcDbLine
 10
43.80999999999679
 20
52.51000000000001
 11
43.80999999999679
 21
70.29000000000021
  0
LINE
  5
1FE
100
AcDbEntity
  8
0_GND
  6
ByLayer
 62
  256
370
   -1
100
AcDbLine
 10
42.53999999999682
 20
66.4800000000005
 11
42.53999999999682
 21
69.02000000000052
  0
LINE
  5
1FF
100
AcDbEntity
  8
0_GND
  6
ByLayer
 62
  256
370
   -1
100
AcDbLine
 10
42.53999999999682
 20
69.02000000000052
 11
37.45999999999706
 21
69.02000000000049
  0
LINE
  5
200
100
AcDbEntity
  8
0_GND
  6
ByLayer
 62
  256
370
   -1
100
AcDbLine
 10
37.45999999999709
 20
56.32000000000035
 11
37.45999999999708
 21
58.86000000000038
  0
LINE
  5
201
100
AcDbEntity
  8
resister
  6
ByLayer
 62
  256
370
   -1
100
AcDbLine
 10
36.35999999999719
 20
66.73999999999953
 11
36.35999999999719
 21
61.1399999999995
  0
LINE
  5
202
100
AcDbEntity
  8
resister
  6
ByLayer
 62
  256
370
   -1
100
AcDbLine
 10
36.35999999999719
 20
61.1399999999995
 11
38.55999999999685
 21
61.1399999999995
  0
LINE
  5
203
100
AcDbEntity
  8
resister
  6
ByLayer
 62
  256
370
   -1
100
AcDbLine
 10
38.55999999999685
 20
61.1399999999995
 11
38.55999999999685
 21
66.73999999999953
  0
LINE
  5
204
100
AcDbEntity
  8
resister
  6
ByLayer
 62
  256
370
   -1
100
AcDbLine
 10
38.55999999999685
 20
66.73999999999953
 11
36.35999999999719
 21
66.73999999999953
  0
LINE
  5
205
100
AcDbEntity
  8
resister
  6
ByLayer
 62
  256
370
   -1
100
AcDbLine
 10
37.45999999999703
 20
61.1399999999995
 11
37.45999999999703
 21
58.8600000000004
  0
LINE
  5
206
100
AcDbEntity
  8
resister
  6
ByLayer
 62
  256
370
   -1
100
AcDbLine
 10
37.45999999999703
 20
69.02000000000049
 11
37.45999999999703
 21
66.73999999999953
  0
MTEXT
  5
207
100
AcDbEntity
  8
resister
  6
ByLayer
 62
  256
370
   -1
100
AcDbMText
 10
36.51713667948164
 20
62.77084257229284
 30
0
 40
1
 41
1.77777777777784
 71
    4
 72
    1
  1
JR1
  7
iso
210
0
220
0
230
1
 50
0
 73
    2
 44
1.54
  0
LINE
  5
208
100
AcDbEntity
  8
0_wire
  6
ByLayer
 62
  256
370
   -1
100
AcDbLine
 10
32.37999999999728
 20
81.72000000000064
 11
24.7599999999976
 21
81.72000000000061
  0
LINE
  5
209
100
AcDbEntity
  8
resister
  6
ByLayer
 62
  256
370
   -1
100
AcDbLine
 10
41.5299999999968
 20
80.28000000000053
 11
35.92999999999678
 21
80.28000000000053
  0
LINE
  5
20A
100
AcDbEntity
  8
resister
  6
ByLayer
 62
  256
370
   -1
100
AcDbLine
 10
35.92999999999678
 20
80.28000000000053
 11
35.92999999999678
 21
78.08000000000088
  0
LINE
  5
20B
100
AcDbEntity
  8
resister
  6
ByLayer
 62
  256
370
   -1
100
AcDbLine
 10
35.92999999999678
 20
78.08000000000088
 11
41.5299999999968
 21
78.08000000000088
  0
LINE
  5
20C
100
AcDbEntity
  8
resister
  6
ByLayer
 62
  256
370
   -1
100
AcDbLine
 10
41.5299999999968
 20
78.08000000000088
 11
41.5299999999968
 21
80.28000000000053
  0
LINE
  5
20D
100
AcDbEntity
  8
resister
  6
ByLayer
 62
  256
370
   -1
100
AcDbLine
 10
42.53999999999677
 20
79.18000000000069
 11
41.5299999999968
 21
79.18000000000069
  0
LINE
  5
20E
100
AcDbEntity
  8
resister
  6
ByLayer
 62
  256
370
   -1
100
AcDbLine
 10
35.92999999999678
 20
79.18000000000069
 11
34.91999999999672
 21
79.18000000000069
  0
LINE
  5
20F
100
AcDbEntity
  8
0_GND
  6
ByLayer
 62
  256
370
   -1
100
AcDbLine
 10
34.91999999999713
 20
79.18000000000063
 11
34.91999999999713
 21
76.6400000000006
  0
LINE
  5
210
100
AcDbEntity
  8
resister
  6
ByLayer
 62
  256
370
   -1
100
AcDbLine
 10
28.73999999999749
 20
85.79000000000075
 11
28.73999999999749
 21
80.19000000000072
  0
LINE
  5
211
100
AcDbEntity
  8
resister
  6
ByLayer
 62
  256
370
   -1
100
AcDbLine
 10
28.73999999999749
 20
80.19000000000072
 11
30.93999999999714
 21
80.19000000000072
  0
LINE
  5
212
100
AcDbEntity
  8
resister
  6
ByLayer
 62
  256
370
   -1
100
AcDbLine
 10
30.93999999999714
 20
80.19000000000072
 11
30.93999999999714
 21
85.79000000000075
  0
LINE
  5
213
100
AcDbEntity
  8
resister
  6
ByLayer
 62
  256
370
   -1
100
AcDbLine
 10
30.93999999999714
 20
85.79000000000075
 11
28.73999999999749
 21
85.79000000000075
  0
LINE
  5
214
100
AcDbEntity
  8
resister
  6
ByLayer
 62
  256
370
   -1
100
AcDbLine
 10
29.83999999999732
 20
86.80000000000071
 11
29.83999999999732
 21
85.79000000000075
  0
LINE
  5
215
100
AcDbEntity
  8
resister
  6
ByLayer
 62
  256
370
   -1
100
AcDbLine
 10
29.83999999999732
 20
80.19000000000072
 11
29.83999999999732
 21
79.18000000000066
  0
LINE
  5
216
100
AcDbEntity
  8
0_GND
  6
ByLayer
 62
  256
370
   -1
100
AcDbLine
 10
29.83999999999737
 20
79.18000000000069
 11
29.83999999999737
 21
76.64000000000058
  0
LINE
  5
217
100
AcDbEntity
  8
switch
  6
ByLayer
 62
  256
370
   -1
100
AcDbLine
 10
36.49999999999741
 20
57.30000000000021
 11
36.49999999999741
 21
52.80000000000095
  0
LINE
  5
218
100
AcDbEntity
  8
switch
  6
ByLayer
 62
  256
370
   -1
100
AcDbLine
 10
36.49999999999741
 20
52.80000000000095
 11
43.49999999999754
 21
52.80000000000095
  0
LINE
  5
219
100
AcDbEntity
  8
switch
  6
ByLayer
 62
  256
370
   -1
100
AcDbLine
 10
43.49999999999754
 20
52.80000000000095
 11
43.49999999999754
 21
57.30000000000021
  0
LINE
  5
21A
100
AcDbEntity
  8
switch
  6
ByLayer
 62
  256
370
   -1
100
AcDbLine
 10
43.49999999999754
 20
57.30000000000021
 11
36.49999999999741
 21
57.30000000000021
  0
CIRCLE
  5
21B
100
AcDbEntity
  8
switch
  6
ByLayer
 62
  256
370
   -1
100
AcDbCircle
 10
37.45999999999712
 20
53.7800000000003
 40
0.3
  0
CIRCLE
  5
21C
100
AcDbEntity
  8
switch
  6
ByLayer
 62
  256
370
   -1
100
AcDbCircle
 10
42.53999999999691
 20
53.7800000000003
 40
0.3
  0
CIRCLE
  5
21D
100
AcDbEntity
  8
switch
  6
ByLayer
 62
  256
370
   -1
100
AcDbCircle
 10
37.45999999999712
 20
56.32000000000032
 40
0.3
  0
CIRCLE
  5
21E
100
AcDbEntity
  8
switch
  6
ByLayer
 62
  256
370
   -1
100
AcDbCircle
 10
42.53999999999691
 20
56.32000000000032
 40
0.3
  0
CIRCLE
  5
21F
100
AcDbEntity
  8
switch
  6
ByLayer
 62
  256
370
   -1
100
AcDbCircle
 10
39.999999999997
 20
56.32000000000032
 40
0.3
  0
MTEXT
  5
220
100
AcDbEntity
  8
switch
  6
ByLayer
 62
  256
370
   -1
100
AcDbMText
 10
38.78575730052975
 20
54.80766408745754
 30
0
 40
1
 41
2.333333121331184
 71
    4
 72
    1
  1
SW1
  7
iso
210
0
220
0
230
1
 50
0
 73
    2
 44
1.54
  0
CIRCLE
  5
221
100
AcDbEntity
  8
0_wire
  6
ByLayer
 62
  256
370
   -1
100
AcDbCircle
 10
42.53999999999689
 20
53.78000000000031
 40
0.635
  0
CIRCLE
  5
222
100
AcDbEntity
  8
0_wire
  6
ByLayer
 62
  256
370
   -1
100
AcDbCircle
 10
42.53999999999685
 20
56.32000000000038
 40
0.635
  0
LINE
  5
223
100
AcDbEntity
  8
0_wire
  6
ByLayer
 62
  256
370
   -1
100
AcDbLine
 10
24.75999999999769
 20
58.86000000000031
 11
24.75999999999772
 21
53.78000000000024
  0
LINE
  5
224
100
AcDbEntity
  8
0_wire
  6
ByLayer
 62
  256
370
   -1
100
AcDbLine
 10
24.75999999999772
 20
53.78000000000024
 11
37.45999999999711
 21
53.78000000000031
  0
LINE
  5
225
100
AcDbEntity
  8
0_wire
  6
ByLayer
 62
  256
370
   -1
100
AcDbLine
 10
37.45999999999711
 20
53.78000000000031
 11
39.99999999999699
 21
53.78000000000033
  0
LINE
  5
226
100
AcDbEntity
  8
0_wire
  6
ByLayer
 62
  256
370
   -1
100
AcDbLine
 10
39.99999999999699
 20
53.78000000000033
 11
39.999999999997
 21
56.32000000000032
  0
MTEXT
  5
227
100
AcDbEntity
  8
resister
  6
ByLayer
 62
  256
370
   -1
100
AcDbMText
 10
39.2275622823572
 20
79.13049149066605
 30
0
 40
1
 41
1.333333333333395
 71
    4
 72
    1
  1
R3
  7
iso
210
0
220
0
230
1
 50
0
 73
    2
 44
1.54
  0
MTEXT
  5
228
100
AcDbEntity
  8
resister
  6
ByLayer
 62
  256
370
   -1
100
AcDbMText
 10
29.32218070173329
 20
82.95757073772528
 30
0
 40
1
 41
1.333333333333395
 71
    4
 72
    1
  1
R5
  7
iso
210
0
220
0
230
1
 50
0
 73
    2
 44
1.54
  0
MTEXT
  5
229
100
AcDbEntity
  8
resister
  6
ByLayer
 62
  256
370
   -1
100
AcDbMText
 10
39.34012343668248
 20
62.80912411350164
 30
0
 40
1
 41
2.000000000000062
 71
    4
 72
    1
  1
JR2
  7
iso
210
0
220
0
230
1
 50
0
 73
    2
 44
1.54
  0
MTEXT
  5
22A
100
AcDbEntity
  8
0
  6
ByLayer
 62
  256
370
   -1
100
AcDbMText
 10
1.779214073774332
 20
76.11010342732133
 30
0
 40
1
 41
19.72222273650973
 71
    4
 72
    1
  3
Lower part\PC1   : 0.1uF\PIS1  : IC socket 8P\PM    : PIC12F1840\PPH1  : Pin header 3P\PPS1,2: Pin socket 4P\PR1   : Volume 500 ohm\PR2-5 : 300 ohm\PUB1  : Universal board 12x7\PXH1  : XH header 2P\P\PUpper part\PJR1,2: Jumper register 0 ohm\PPH2,3: 
  1
Pin header 4P\PSW1  : Toggle switch\PSW2  : Rotary switch\PUB2  : Universal board 8x7
  7
iso
210
0
220
0
230
1
 50
0
 73
    2
 44
1.54
  0
CIRCLE
  5
22B
100
AcDbEntity
  8
universal board
  6
ByLayer
 62
  256
370
   -1
100
AcDbCircle
 10
60.31999999999586
 20
91.88000000000095
 40
0.5
  0
CIRCLE
  5
22C
100
AcDbEntity
  8
universal board
  6
ByLayer
 62
  256
370
   -1
100
AcDbCircle
 10
62.85999999999574
 20
91.88000000000096
 40
0.5
  0
CIRCLE
  5
22D
100
AcDbEntity
  8
universal board
  6
ByLayer
 62
  256
370
   -1
100
AcDbCircle
 10
65.39999999999561
 20
91.88000000000098
 40
0.5
  0
CIRCLE
  5
22E
100
AcDbEntity
  8
universal board
  6
ByLayer
 62
  256
370
   -1
100
AcDbCircle
 10
67.93999999999549
 20
91.88000000000099
 40
0.5
  0
CIRCLE
  5
22F
100
AcDbEntity
  8
universal board
  6
ByLayer
 62
  256
370
   -1
100
AcDbCircle
 10
70.47999999999537
 20
91.880000000001
 40
0.5
  0
CIRCLE
  5
230
100
AcDbEntity
  8
universal board
  6
ByLayer
 62
  256
370
   -1
100
AcDbCircle
 10
73.01999999999525
 20
91.88000000000102
 40
0.5
  0
CIRCLE
  5
231
100
AcDbEntity
  8
universal board
  6
ByLayer
 62
  256
370
   -1
100
AcDbCircle
 10
75.55999999999513
 20
91.88000000000103
 40
0.5
  0
CIRCLE
  5
232
100
AcDbEntity
  8
universal board
  6
ByLayer
 62
  256
370
   -1
100
AcDbCircle
 10
78.09999999999501
 20
91.88000000000105
 40
0.5
  0
CIRCLE
  5
233
100
AcDbEntity
  8
universal board
  6
ByLayer
 62
  256
370
   -1
100
AcDbCircle
 10
80.63999999999488
 20
91.88000000000106
 40
0.5
  0
CIRCLE
  5
234
100
AcDbEntity
  8
universal board
  6
ByLayer
 62
  256
370
   -1
100
AcDbCircle
 10
83.17999999999476
 20
91.88000000000108
 40
0.5
  0
CIRCLE
  5
235
100
AcDbEntity
  8
universal board
  6
ByLayer
 62
  256
370
   -1
100
AcDbCircle
 10
85.71999999999464
 20
91.88000000000109
 40
0.5
  0
CIRCLE
  5
236
100
AcDbEntity
  8
universal board
  6
ByLayer
 62
  256
370
   -1
100
AcDbCircle
 10
88.25999999999452
 20
91.8800000000011
 40
0.5
  0
CIRCLE
  5
237
100
AcDbEntity
  8
universal board
  6
ByLayer
 62
  256
370
   -1
100
AcDbCircle
 10
60.31999999999587
 20
89.34000000000091
 40
0.5
  0
CIRCLE
  5
238
100
AcDbEntity
  8
universal board
  6
ByLayer
 62
  256
370
   -1
100
AcDbCircle
 10
62.85999999999575
 20
89.34000000000093
 40
0.5
  0
CIRCLE
  5
239
100
AcDbEntity
  8
universal board
  6
ByLayer
 62
  256
370
   -1
100
AcDbCircle
 10
65.39999999999563
 20
89.34000000000094
 40
0.5
  0
CIRCLE
  5
23A
100
AcDbEntity
  8
universal board
  6
ByLayer
 62
  256
370
   -1
100
AcDbCircle
 10
67.93999999999551
 20
89.34000000000096
 40
0.5
  0
CIRCLE
  5
23B
100
AcDbEntity
  8
universal board
  6
ByLayer
 62
  256
370
   -1
100
AcDbCircle
 10
70.47999999999539
 20
89.34000000000097
 40
0.5
  0
CIRCLE
  5
23C
100
AcDbEntity
  8
universal board
  6
ByLayer
 62
  256
370
   -1
100
AcDbCircle
 10
73.01999999999526
 20
89.34000000000098
 40
0.5
  0
CIRCLE
  5
23D
100
AcDbEntity
  8
universal board
  6
ByLayer
 62
  256
370
   -1
100
AcDbCircle
 10
75.55999999999514
 20
89.340000000001
 40
0.5
  0
CIRCLE
  5
23E
100
AcDbEntity
  8
universal board
  6
ByLayer
 62
  256
370
   -1
100
AcDbCircle
 10
78.09999999999502
 20
89.34000000000101
 40
0.5
  0
CIRCLE
  5
23F
100
AcDbEntity
  8
universal board
  6
ByLayer
 62
  256
370
   -1
100
AcDbCircle
 10
80.6399999999949
 20
89.34000000000103
 40
0.5
  0
CIRCLE
  5
240
100
AcDbEntity
  8
universal board
  6
ByLayer
 62
  256
370
   -1
100
AcDbCircle
 10
83.17999999999478
 20
89.34000000000104
 40
0.5
  0
CIRCLE
  5
241
100
AcDbEntity
  8
universal board
  6
ByLayer
 62
  256
370
   -1
100
AcDbCircle
 10
85.71999999999466
 20
89.34000000000106
 40
0.5
  0
CIRCLE
  5
242
100
AcDbEntity
  8
universal board
  6
ByLayer
 62
  256
370
   -1
100
AcDbCircle
 10
88.25999999999453
 20
89.34000000000107
 40
0.5
  0
CIRCLE
  5
243
100
AcDbEntity
  8
universal board
  6
ByLayer
 62
  256
370
   -1
100
AcDbCircle
 10
60.31999999999588
 20
86.80000000000088
 40
0.5
  0
CIRCLE
  5
244
100
AcDbEntity
  8
universal board
  6
ByLayer
 62
  256
370
   -1
100
AcDbCircle
 10
62.85999999999576
 20
86.80000000000089
 40
0.5
  0
CIRCLE
  5
245
100
AcDbEntity
  8
universal board
  6
ByLayer
 62
  256
370
   -1
100
AcDbCircle
 10
65.39999999999563
 20
86.80000000000091
 40
0.5
  0
CIRCLE
  5
246
100
AcDbEntity
  8
universal board
  6
ByLayer
 62
  256
370
   -1
100
AcDbCircle
 10
67.93999999999551
 20
86.80000000000092
 40
0.5
  0
CIRCLE
  5
247
100
AcDbEntity
  8
universal board
  6
ByLayer
 62
  256
370
   -1
100
AcDbCircle
 10
70.47999999999539
 20
86.80000000000094
 40
0.5
  0
CIRCLE
  5
248
100
AcDbEntity
  8
universal board
  6
ByLayer
 62
  256
370
   -1
100
AcDbCircle
 10
73.01999999999526
 20
86.80000000000095
 40
0.5
  0
CIRCLE
  5
249
100
AcDbEntity
  8
universal board
  6
ByLayer
 62
  256
370
   -1
100
AcDbCircle
 10
75.55999999999514
 20
86.80000000000096
 40
0.5
  0
CIRCLE
  5
24A
100
AcDbEntity
  8
universal board
  6
ByLayer
 62
  256
370
   -1
100
AcDbCircle
 10
78.09999999999502
 20
86.80000000000098
 40
0.5
  0
CIRCLE
  5
24B
100
AcDbEntity
  8
universal board
  6
ByLayer
 62
  256
370
   -1
100
AcDbCircle
 10
80.6399999999949
 20
86.80000000000099
 40
0.5
  0
CIRCLE
  5
24C
100
AcDbEntity
  8
universal board
  6
ByLayer
 62
  256
370
   -1
100
AcDbCircle
 10
83.17999999999478
 20
86.80000000000101
 40
0.5
  0
CIRCLE
  5
24D
100
AcDbEntity
  8
universal board
  6
ByLayer
 62
  256
370
   -1
100
AcDbCircle
 10
85.71999999999466
 20
86.80000000000102
 40
0.5
  0
CIRCLE
  5
24E
100
AcDbEntity
  8
universal board
  6
ByLayer
 62
  256
370
   -1
100
AcDbCircle
 10
88.25999999999453
 20
86.80000000000103
 40
0.5
  0
CIRCLE
  5
24F
100
AcDbEntity
  8
universal board
  6
ByLayer
 62
  256
370
   -1
100
AcDbCircle
 10
60.31999999999589
 20
84.26000000000084
 40
0.5
  0
CIRCLE
  5
250
100
AcDbEntity
  8
universal board
  6
ByLayer
 62
  256
370
   -1
100
AcDbCircle
 10
62.85999999999576
 20
84.26000000000086
 40
0.5
  0
CIRCLE
  5
251
100
AcDbEntity
  8
universal board
  6
ByLayer
 62
  256
370
   -1
100
AcDbCircle
 10
65.39999999999564
 20
84.26000000000087
 40
0.5
  0
CIRCLE
  5
252
100
AcDbEntity
  8
universal board
  6
ByLayer
 62
  256
370
   -1
100
AcDbCircle
 10
67.93999999999552
 20
84.26000000000089
 40
0.5
  0
CIRCLE
  5
253
100
AcDbEntity
  8
universal board
  6
ByLayer
 62
  256
370
   -1
100
AcDbCircle
 10
70.4799999999954
 20
84.2600000000009
 40
0.5
  0
CIRCLE
  5
254
100
AcDbEntity
  8
universal board
  6
ByLayer
 62
  256
370
   -1
100
AcDbCircle
 10
73.01999999999528
 20
84.26000000000091
 40
0.5
  0
CIRCLE
  5
255
100
AcDbEntity
  8
universal board
  6
ByLayer
 62
  256
370
   -1
100
AcDbCircle
 10
75.55999999999516
 20
84.26000000000093
 40
0.5
  0
CIRCLE
  5
256
100
AcDbEntity
  8
universal board
  6
ByLayer
 62
  256
370
   -1
100
AcDbCircle
 10
78.09999999999503
 20
84.26000000000094
 40
0.5
  0
CIRCLE
  5
257
100
AcDbEntity
  8
universal board
  6
ByLayer
 62
  256
370
   -1
100
AcDbCircle
 10
80.63999999999491
 20
84.26000000000096
 40
0.5
  0
CIRCLE
  5
258
100
AcDbEntity
  8
universal board
  6
ByLayer
 62
  256
370
   -1
100
AcDbCircle
 10
83.17999999999479
 20
84.26000000000097
 40
0.5
  0
CIRCLE
  5
259
100
AcDbEntity
  8
universal board
  6
ByLayer
 62
  256
370
   -1
100
AcDbCircle
 10
85.71999999999467
 20
84.26000000000099
 40
0.5
  0
CIRCLE
  5
25A
100
AcDbEntity
  8
universal board
  6
ByLayer
 62
  256
370
   -1
100
AcDbCircle
 10
88.25999999999455
 20
84.260000000001
 40
0.5
  0
CIRCLE
  5
25B
100
AcDbEntity
  8
universal board
  6
ByLayer
 62
  256
370
   -1
100
AcDbCircle
 10
60.3199999999959
 20
81.72000000000081
 40
0.5
  0
CIRCLE
  5
25C
100
AcDbEntity
  8
universal board
  6
ByLayer
 62
  256
370
   -1
100
AcDbCircle
 10
62.85999999999578
 20
81.72000000000082
 40
0.5
  0
CIRCLE
  5
25D
100
AcDbEntity
  8
universal board
  6
ByLayer
 62
  256
370
   -1
100
AcDbCircle
 10
65.39999999999566
 20
81.72000000000084
 40
0.5
  0
CIRCLE
  5
25E
100
AcDbEntity
  8
universal board
  6
ByLayer
 62
  256
370
   -1
100
AcDbCircle
 10
67.93999999999554
 20
81.72000000000085
 40
0.5
  0
CIRCLE
  5
25F
100
AcDbEntity
  8
universal board
  6
ByLayer
 62
  256
370
   -1
100
AcDbCircle
 10
70.47999999999541
 20
81.72000000000087
 40
0.5
  0
CIRCLE
  5
260
100
AcDbEntity
  8
universal board
  6
ByLayer
 62
  256
370
   -1
100
AcDbCircle
 10
73.01999999999529
 20
81.72000000000088
 40
0.5
  0
CIRCLE
  5
261
100
AcDbEntity
  8
universal board
  6
ByLayer
 62
  256
370
   -1
100
AcDbCircle
 10
75.55999999999517
 20
81.72000000000089
 40
0.5
  0
CIRCLE
  5
262
100
AcDbEntity
  8
universal board
  6
ByLayer
 62
  256
370
   -1
100
AcDbCircle
 10
78.09999999999505
 20
81.72000000000091
 40
0.5
  0
CIRCLE
  5
263
100
AcDbEntity
  8
universal board
  6
ByLayer
 62
  256
370
   -1
100
AcDbCircle
 10
80.63999999999493
 20
81.72000000000092
 40
0.5
  0
CIRCLE
  5
264
100
AcDbEntity
  8
universal board
  6
ByLayer
 62
  256
370
   -1
100
AcDbCircle
 10
83.17999999999481
 20
81.72000000000094
 40
0.5
  0
CIRCLE
  5
265
100
AcDbEntity
  8
universal board
  6
ByLayer
 62
  256
370
   -1
100
AcDbCircle
 10
85.71999999999468
 20
81.72000000000095
 40
0.5
  0
CIRCLE
  5
266
100
AcDbEntity
  8
universal board
  6
ByLayer
 62
  256
370
   -1
100
AcDbCircle
 10
88.25999999999456
 20
81.72000000000097
 40
0.5
  0
CIRCLE
  5
267
100
AcDbEntity
  8
universal board
  6
ByLayer
 62
  256
370
   -1
100
AcDbCircle
 10
60.31999999999591
 20
79.18000000000077
 40
0.5
  0
CIRCLE
  5
268
100
AcDbEntity
  8
universal board
  6
ByLayer
 62
  256
370
   -1
100
AcDbCircle
 10
62.85999999999579
 20
79.18000000000079
 40
0.5
  0
CIRCLE
  5
269
100
AcDbEntity
  8
universal board
  6
ByLayer
 62
  256
370
   -1
100
AcDbCircle
 10
65.39999999999567
 20
79.1800000000008
 40
0.5
  0
CIRCLE
  5
26A
100
AcDbEntity
  8
universal board
  6
ByLayer
 62
  256
370
   -1
100
AcDbCircle
 10
67.93999999999555
 20
79.18000000000082
 40
0.5
  0
CIRCLE
  5
26B
100
AcDbEntity
  8
universal board
  6
ByLayer
 62
  256
370
   -1
100
AcDbCircle
 10
70.47999999999543
 20
79.18000000000083
 40
0.5
  0
CIRCLE
  5
26C
100
AcDbEntity
  8
universal board
  6
ByLayer
 62
  256
370
   -1
100
AcDbCircle
 10
73.01999999999531
 20
79.18000000000085
 40
0.5
  0
CIRCLE
  5
26D
100
AcDbEntity
  8
universal board
  6
ByLayer
 62
  256
370
   -1
100
AcDbCircle
 10
75.55999999999518
 20
79.18000000000086
 40
0.5
  0
CIRCLE
  5
26E
100
AcDbEntity
  8
universal board
  6
ByLayer
 62
  256
370
   -1
100
AcDbCircle
 10
78.09999999999506
 20
79.18000000000087
 40
0.5
  0
CIRCLE
  5
26F
100
AcDbEntity
  8
universal board
  6
ByLayer
 62
  256
370
   -1
100
AcDbCircle
 10
80.63999999999494
 20
79.18000000000089
 40
0.5
  0
CIRCLE
  5
270
100
AcDbEntity
  8
universal board
  6
ByLayer
 62
  256
370
   -1
100
AcDbCircle
 10
83.17999999999482
 20
79.1800000000009
 40
0.5
  0
CIRCLE
  5
271
100
AcDbEntity
  8
universal board
  6
ByLayer
 62
  256
370
   -1
100
AcDbCircle
 10
85.7199999999947
 20
79.18000000000092
 40
0.5
  0
CIRCLE
  5
272
100
AcDbEntity
  8
universal board
  6
ByLayer
 62
  256
370
   -1
100
AcDbCircle
 10
88.25999999999458
 20
79.18000000000093
 40
0.5
  0
CIRCLE
  5
273
100
AcDbEntity
  8
universal board
  6
ByLayer
 62
  256
370
   -1
100
AcDbCircle
 10
60.31999999999592
 20
76.64000000000074
 40
0.5
  0
CIRCLE
  5
274
100
AcDbEntity
  8
universal board
  6
ByLayer
 62
  256
370
   -1
100
AcDbCircle
 10
62.8599999999958
 20
76.64000000000075
 40
0.5
  0
CIRCLE
  5
275
100
AcDbEntity
  8
universal board
  6
ByLayer
 62
  256
370
   -1
100
AcDbCircle
 10
65.39999999999569
 20
76.64000000000077
 40
0.5
  0
CIRCLE
  5
276
100
AcDbEntity
  8
universal board
  6
ByLayer
 62
  256
370
   -1
100
AcDbCircle
 10
67.93999999999555
 20
76.64000000000078
 40
0.5
  0
CIRCLE
  5
277
100
AcDbEntity
  8
universal board
  6
ByLayer
 62
  256
370
   -1
100
AcDbCircle
 10
70.47999999999543
 20
76.6400000000008
 40
0.5
  0
CIRCLE
  5
278
100
AcDbEntity
  8
universal board
  6
ByLayer
 62
  256
370
   -1
100
AcDbCircle
 10
73.01999999999531
 20
76.64000000000081
 40
0.5
  0
CIRCLE
  5
279
100
AcDbEntity
  8
universal board
  6
ByLayer
 62
  256
370
   -1
100
AcDbCircle
 10
75.55999999999518
 20
76.64000000000082
 40
0.5
  0
CIRCLE
  5
27A
100
AcDbEntity
  8
universal board
  6
ByLayer
 62
  256
370
   -1
100
AcDbCircle
 10
78.09999999999506
 20
76.64000000000084
 40
0.5
  0
CIRCLE
  5
27B
100
AcDbEntity
  8
universal board
  6
ByLayer
 62
  256
370
   -1
100
AcDbCircle
 10
80.63999999999494
 20
76.64000000000085
 40
0.5
  0
CIRCLE
  5
27C
100
AcDbEntity
  8
universal board
  6
ByLayer
 62
  256
370
   -1
100
AcDbCircle
 10
83.17999999999482
 20
76.64000000000087
 40
0.5
  0
CIRCLE
  5
27D
100
AcDbEntity
  8
universal board
  6
ByLayer
 62
  256
370
   -1
100
AcDbCircle
 10
85.7199999999947
 20
76.64000000000088
 40
0.5
  0
CIRCLE
  5
27E
100
AcDbEntity
  8
universal board
  6
ByLayer
 62
  256
370
   -1
100
AcDbCircle
 10
88.25999999999458
 20
76.6400000000009
 40
0.5
  0
LINE
  5
27F
100
AcDbEntity
  8
universal board
  6
ByLayer
 62
  256
370
   -1
100
AcDbLine
 10
59.0499999999959
 20
93.15000000000073
 11
89.52999999999453
 21
93.15000000000076
  0
LINE
  5
280
100
AcDbEntity
  8
universal board
  6
ByLayer
 62
  256
370
   -1
100
AcDbLine
 10
59.0499999999959
 20
75.3700000000005
 11
89.5299999999946
 21
75.37000000000052
  0
LINE
  5
281
100
AcDbEntity
  8
universal board
  6
ByLayer
 62
  256
370
   -1
100
AcDbLine
 10
89.52999999999444
 20
75.37000000000106
 11
89.52999999999443
 21
93.15000000000076
  0
LINE
  5
282
100
AcDbEntity
  8
universal board
  6
ByLayer
 62
  256
370
   -1
100
AcDbLine
 10
59.04999999999597
 20
75.3700000000005
 11
59.04999999999597
 21
93.15000000000072
  0
MTEXT
  5
283
100
AcDbEntity
  8
universal board
  6
ByLayer
 62
  256
370
   -1
100
AcDbMText
 10
59.91360067195635
 20
94.23207959756294
 30
0
 40
1
 41
2
 71
    4
 72
    1
  1
UB1
  7
iso
210
0
220
0
230
1
 50
0
 73
    2
 44
1.54
  0
CIRCLE
  5
284
100
AcDbEntity
  8
universal board
  6
ByLayer
 62
  256
370
   -1
100
AcDbCircle
 10
60.31999999999597
 20
61.40000000000055
 40
0.5
  0
CIRCLE
  5
285
100
AcDbEntity
  8
universal board
  6
ByLayer
 62
  256
370
   -1
100
AcDbCircle
 10
60.31999999999596
 20
63.94000000000058
 40
0.5
  0
CIRCLE
  5
286
100
AcDbEntity
  8
universal board
  6
ByLayer
 62
  256
370
   -1
100
AcDbCircle
 10
60.31999999999596
 20
66.4800000000006
 40
0.5
  0
CIRCLE
  5
287
100
AcDbEntity
  8
universal board
  6
ByLayer
 62
  256
370
   -1
100
AcDbCircle
 10
62.85999999999585
 20
61.40000000000056
 40
0.5
  0
CIRCLE
  5
288
100
AcDbEntity
  8
universal board
  6
ByLayer
 62
  256
370
   -1
100
AcDbCircle
 10
62.85999999999584
 20
63.94000000000059
 40
0.5
  0
CIRCLE
  5
289
100
AcDbEntity
  8
universal board
  6
ByLayer
 62
  256
370
   -1
100
AcDbCircle
 10
62.85999999999584
 20
66.48000000000062
 40
0.5
  0
CIRCLE
  5
28A
100
AcDbEntity
  8
universal board
  6
ByLayer
 62
  256
370
   -1
100
AcDbCircle
 10
65.39999999999573
 20
61.40000000000057
 40
0.5
  0
CIRCLE
  5
28B
100
AcDbEntity
  8
universal board
  6
ByLayer
 62
  256
370
   -1
100
AcDbCircle
 10
65.39999999999571
 20
63.94000000000061
 40
0.5
  0
CIRCLE
  5
28C
100
AcDbEntity
  8
universal board
  6
ByLayer
 62
  256
370
   -1
100
AcDbCircle
 10
65.39999999999571
 20
66.48000000000063
 40
0.5
  0
CIRCLE
  5
28D
100
AcDbEntity
  8
universal board
  6
ByLayer
 62
  256
370
   -1
100
AcDbCircle
 10
67.93999999999561
 20
61.40000000000059
 40
0.5
  0
CIRCLE
  5
28E
100
AcDbEntity
  8
universal board
  6
ByLayer
 62
  256
370
   -1
100
AcDbCircle
 10
67.93999999999559
 20
63.94000000000062
 40
0.5
  0
CIRCLE
  5
28F
100
AcDbEntity
  8
universal board
  6
ByLayer
 62
  256
370
   -1
100
AcDbCircle
 10
67.93999999999559
 20
66.48000000000064
 40
0.5
  0
CIRCLE
  5
290
100
AcDbEntity
  8
universal board
  6
ByLayer
 62
  256
370
   -1
100
AcDbCircle
 10
70.47999999999548
 20
61.4000000000006
 40
0.5
  0
CIRCLE
  5
291
100
AcDbEntity
  8
universal board
  6
ByLayer
 62
  256
370
   -1
100
AcDbCircle
 10
70.47999999999547
 20
63.94000000000064
 40
0.5
  0
CIRCLE
  5
292
100
AcDbEntity
  8
universal board
  6
ByLayer
 62
  256
370
   -1
100
AcDbCircle
 10
70.47999999999547
 20
66.48000000000066
 40
0.5
  0
CIRCLE
  5
293
100
AcDbEntity
  8
universal board
  6
ByLayer
 62
  256
370
   -1
100
AcDbCircle
 10
73.01999999999536
 20
61.40000000000062
 40
0.5
  0
CIRCLE
  5
294
100
AcDbEntity
  8
universal board
  6
ByLayer
 62
  256
370
   -1
100
AcDbCircle
 10
73.01999999999535
 20
63.94000000000065
 40
0.5
  0
CIRCLE
  5
295
100
AcDbEntity
  8
universal board
  6
ByLayer
 62
  256
370
   -1
100
AcDbCircle
 10
73.01999999999535
 20
66.48000000000067
 40
0.5
  0
CIRCLE
  5
296
100
AcDbEntity
  8
universal board
  6
ByLayer
 62
  256
370
   -1
100
AcDbCircle
 10
75.55999999999524
 20
61.40000000000063
 40
0.5
  0
CIRCLE
  5
297
100
AcDbEntity
  8
universal board
  6
ByLayer
 62
  256
370
   -1
100
AcDbCircle
 10
75.55999999999523
 20
63.94000000000067
 40
0.5
  0
CIRCLE
  5
298
100
AcDbEntity
  8
universal board
  6
ByLayer
 62
  256
370
   -1
100
AcDbCircle
 10
75.55999999999523
 20
66.48000000000069
 40
0.5
  0
CIRCLE
  5
299
100
AcDbEntity
  8
universal board
  6
ByLayer
 62
  256
370
   -1
100
AcDbCircle
 10
78.09999999999512
 20
61.40000000000065
 40
0.5
  0
CIRCLE
  5
29A
100
AcDbEntity
  8
universal board
  6
ByLayer
 62
  256
370
   -1
100
AcDbCircle
 10
78.09999999999511
 20
63.94000000000068
 40
0.5
  0
CIRCLE
  5
29B
100
AcDbEntity
  8
universal board
  6
ByLayer
 62
  256
370
   -1
100
AcDbCircle
 10
78.09999999999511
 20
66.4800000000007
 40
0.5
  0
CIRCLE
  5
29C
100
AcDbEntity
  8
universal board
  6
ByLayer
 62
  256
370
   -1
100
AcDbCircle
 10
60.31999999999599
 20
58.86000000000051
 40
0.5
  0
CIRCLE
  5
29D
100
AcDbEntity
  8
universal board
  6
ByLayer
 62
  256
370
   -1
100
AcDbCircle
 10
62.85999999999586
 20
58.86000000000053
 40
0.5
  0
CIRCLE
  5
29E
100
AcDbEntity
  8
universal board
  6
ByLayer
 62
  256
370
   -1
100
AcDbCircle
 10
65.39999999999574
 20
58.86000000000054
 40
0.5
  0
CIRCLE
  5
29F
100
AcDbEntity
  8
universal board
  6
ByLayer
 62
  256
370
   -1
100
AcDbCircle
 10
67.93999999999562
 20
58.86000000000055
 40
0.5
  0
CIRCLE
  5
2A0
100
AcDbEntity
  8
universal board
  6
ByLayer
 62
  256
370
   -1
100
AcDbCircle
 10
70.4799999999955
 20
58.86000000000057
 40
0.5
  0
CIRCLE
  5
2A1
100
AcDbEntity
  8
universal board
  6
ByLayer
 62
  256
370
   -1
100
AcDbCircle
 10
73.01999999999538
 20
58.86000000000058
 40
0.5
  0
CIRCLE
  5
2A2
100
AcDbEntity
  8
universal board
  6
ByLayer
 62
  256
370
   -1
100
AcDbCircle
 10
75.55999999999526
 20
58.8600000000006
 40
0.5
  0
CIRCLE
  5
2A3
100
AcDbEntity
  8
universal board
  6
ByLayer
 62
  256
370
   -1
100
AcDbCircle
 10
78.09999999999513
 20
58.86000000000061
 40
0.5
  0
CIRCLE
  5
2A4
100
AcDbEntity
  8
universal board
  6
ByLayer
 62
  256
370
   -1
100
AcDbCircle
 10
60.31999999999596
 20
69.02000000000062
 40
0.5
  0
CIRCLE
  5
2A5
100
AcDbEntity
  8
universal board
  6
ByLayer
 62
  256
370
   -1
100
AcDbCircle
 10
62.85999999999584
 20
69.02000000000064
 40
0.5
  0
CIRCLE
  5
2A6
100
AcDbEntity
  8
universal board
  6
ByLayer
 62
  256
370
   -1
100
AcDbCircle
 10
65.39999999999571
 20
69.02000000000065
 40
0.5
  0
CIRCLE
  5
2A7
100
AcDbEntity
  8
universal board
  6
ByLayer
 62
  256
370
   -1
100
AcDbCircle
 10
67.93999999999559
 20
69.02000000000066
 40
0.5
  0
CIRCLE
  5
2A8
100
AcDbEntity
  8
universal board
  6
ByLayer
 62
  256
370
   -1
100
AcDbCircle
 10
70.47999999999547
 20
69.02000000000068
 40
0.5
  0
CIRCLE
  5
2A9
100
AcDbEntity
  8
universal board
  6
ByLayer
 62
  256
370
   -1
100
AcDbCircle
 10
73.01999999999535
 20
69.02000000000069
 40
0.5
  0
CIRCLE
  5
2AA
100
AcDbEntity
  8
universal board
  6
ByLayer
 62
  256
370
   -1
100
AcDbCircle
 10
75.55999999999523
 20
69.02000000000071
 40
0.5
  0
CIRCLE
  5
2AB
100
AcDbEntity
  8
universal board
  6
ByLayer
 62
  256
370
   -1
100
AcDbCircle
 10
78.09999999999511
 20
69.02000000000072
 40
0.5
  0
LINE
  5
2AC
100
AcDbEntity
  8
universal board
  6
ByLayer
 62
  256
370
   -1
100
AcDbLine
 10
59.04999999999606
 20
70.2900000000004
 11
79.36999999999509
 21
70.2900000000004
  0
MTEXT
  5
2AD
100
AcDbEntity
  8
universal board
  6
ByLayer
 62
  256
370
   -1
100
AcDbMText
 10
60.4085925555329
 20
71.67482474186096
 30
0
 40
1
 41
2.222222222222222
 71
    4
 72
    1
  1
UB2
  7
iso
210
0
220
0
230
1
 50
0
 73
    2
 44
1.54
  0
CIRCLE
  5
2AE
100
AcDbEntity
  8
universal board
  6
ByLayer
 62
  256
370
   -1
100
AcDbCircle
 10
60.319999999996
 20
56.32000000000048
 40
0.5
  0
CIRCLE
  5
2AF
100
AcDbEntity
  8
universal board
  6
ByLayer
 62
  256
370
   -1
100
AcDbCircle
 10
62.85999999999588
 20
56.32000000000049
 40
0.5
  0
CIRCLE
  5
2B0
100
AcDbEntity
  8
universal board
  6
ByLayer
 62
  256
370
   -1
100
AcDbCircle
 10
65.39999999999576
 20
56.3200000000005
 40
0.5
  0
CIRCLE
  5
2B1
100
AcDbEntity
  8
universal board
  6
ByLayer
 62
  256
370
   -1
100
AcDbCircle
 10
67.93999999999563
 20
56.32000000000052
 40
0.5
  0
CIRCLE
  5
2B2
100
AcDbEntity
  8
universal board
  6
ByLayer
 62
  256
370
   -1
100
AcDbCircle
 10
70.47999999999551
 20
56.32000000000053
 40
0.5
  0
CIRCLE
  5
2B3
100
AcDbEntity
  8
universal board
  6
ByLayer
 62
  256
370
   -1
100
AcDbCircle
 10
73.01999999999539
 20
56.32000000000055
 40
0.5
  0
CIRCLE
  5
2B4
100
AcDbEntity
  8
universal board
  6
ByLayer
 62
  256
370
   -1
100
AcDbCircle
 10
75.55999999999527
 20
56.32000000000056
 40
0.5
  0
CIRCLE
  5
2B5
100
AcDbEntity
  8
universal board
  6
ByLayer
 62
  256
370
   -1
100
AcDbCircle
 10
78.09999999999515
 20
56.32000000000058
 40
0.5
  0
CIRCLE
  5
2B6
100
AcDbEntity
  8
universal board
  6
ByLayer
 62
  256
370
   -1
100
AcDbCircle
 10
60.31999999999601
 20
53.78000000000044
 40
0.5
  0
CIRCLE
  5
2B7
100
AcDbEntity
  8
universal board
  6
ByLayer
 62
  256
370
   -1
100
AcDbCircle
 10
62.85999999999589
 20
53.78000000000046
 40
0.5
  0
CIRCLE
  5
2B8
100
AcDbEntity
  8
universal board
  6
ByLayer
 62
  256
370
   -1
100
AcDbCircle
 10
65.39999999999577
 20
53.78000000000047
 40
0.5
  0
CIRCLE
  5
2B9
100
AcDbEntity
  8
universal board
  6
ByLayer
 62
  256
370
   -1
100
AcDbCircle
 10
67.93999999999565
 20
53.78000000000048
 40
0.5
  0
CIRCLE
  5
2BA
100
AcDbEntity
  8
universal board
  6
ByLayer
 62
  256
370
   -1
100
AcDbCircle
 10
70.47999999999553
 20
53.7800000000005
 40
0.5
  0
CIRCLE
  5
2BB
100
AcDbEntity
  8
universal board
  6
ByLayer
 62
  256
370
   -1
100
AcDbCircle
 10
73.01999999999541
 20
53.78000000000051
 40
0.5
  0
CIRCLE
  5
2BC
100
AcDbEntity
  8
universal board
  6
ByLayer
 62
  256
370
   -1
100
AcDbCircle
 10
75.55999999999528
 20
53.78000000000053
 40
0.5
  0
CIRCLE
  5
2BD
100
AcDbEntity
  8
universal board
  6
ByLayer
 62
  256
370
   -1
100
AcDbCircle
 10
78.09999999999516
 20
53.78000000000054
 40
0.5
  0
LINE
  5
2BE
100
AcDbEntity
  8
universal board
  6
ByLayer
 62
  256
370
   -1
100
AcDbLine
 10
59.04999999999609
 20
52.5100000000002
 11
79.36999999999512
 21
52.51000000000021
  0
LINE
  5
2BF
100
AcDbEntity
  8
universal board
  6
ByLayer
 62
  256
370
   -1
100
AcDbLine
 10
59.04999999999606
 20
52.51000000000019
 11
59.04999999999606
 21
70.2900000000004
  0
LINE
  5
2C0
100
AcDbEntity
  8
universal board
  6
ByLayer
 62
  256
370
   -1
100
AcDbLine
 10
79.36999999999509
 20
52.51000000000021
 11
79.36999999999509
 21
70.2900000000004
  0
LINE
  5
2C1
100
AcDbEntity
  8
5V line
  6
ByLayer
 62
  256
370
  200
100
AcDbLine
 10
80.63999999999486
 20
89.34000000000096
 11
88.25999999999453
 21
89.34000000000101
  0
LINE
  5
2C2
100
AcDbEntity
  8
0_wire
  6
ByLayer
 62
  256
370
  200
100
AcDbLine
 10
80.63999999999487
 20
84.26000000000091
 11
88.25999999999455
 21
84.26000000000094
  0
LINE
  5
2C3
100
AcDbEntity
  8
0_GND
  6
ByLayer
 62
  256
370
  200
100
AcDbLine
 10
73.01999999999526
 20
89.34000000000098
 11
70.47999999999539
 21
89.34000000000097
  0
LINE
  5
2C4
100
AcDbEntity
  8
0_wire
  6
ByLayer
 62
  256
370
  200
100
AcDbLine
 10
73.01999999999526
 20
86.80000000000095
 11
70.47999999999539
 21
86.80000000000094
  0
LINE
  5
2C5
100
AcDbEntity
  8
0_wire
  6
ByLayer
 62
  256
370
  200
100
AcDbLine
 10
73.01999999999528
 20
84.26000000000091
 11
70.4799999999954
 21
84.2600000000009
  0
LINE
  5
2C6
100
AcDbEntity
  8
0_wire
  6
ByLayer
 62
  256
370
  200
100
AcDbLine
 10
73.01999999999529
 20
81.72000000000088
 11
70.47999999999541
 21
81.72000000000087
  0
LINE
  5
2C7
100
AcDbEntity
  8
5V line
  6
ByLayer
 62
  256
370
  200
100
AcDbLine
 10
78.09999999999501
 20
91.88000000000102
 11
78.09999999999502
 21
89.34000000000098
  0
LINE
  5
2C8
100
AcDbEntity
  8
5V line
  6
ByLayer
 62
  256
370
  200
100
AcDbLine
 10
78.09999999999502
 20
89.34000000000098
 11
80.63999999999486
 21
89.34000000000096
  0
LINE
  5
2C9
100
AcDbEntity
  8
5V line
  6
ByLayer
 62
  256
370
  200
100
AcDbLine
 10
62.85999999999572
 20
91.88000000000099
 11
78.09999999999501
 21
91.88000000000102
  0
LINE
  5
2CA
100
AcDbEntity
  8
0_GND
  6
ByLayer
 62
  256
370
  200
100
AcDbLine
 10
70.47999999999539
 20
89.34000000000097
 11
62.85999999999575
 21
89.34000000000096
  0
LINE
  5
2CB
100
AcDbEntity
  8
0_wire
  6
ByLayer
 62
  256
370
  200
100
AcDbLine
 10
70.47999999999539
 20
86.80000000000094
 11
65.39999999999563
 21
86.80000000000094
  0
LINE
  5
2CC
100
AcDbEntity
  8
0_GND
  6
ByLayer
 62
  256
370
  200
100
AcDbLine
 10
73.01999999999526
 20
89.34000000000098
 11
75.55999999999514
 21
89.340000000001
  0
LINE
  5
2CD
100
AcDbEntity
  8
0_GND
  6
ByLayer
 62
  256
370
  200
100
AcDbLine
 10
75.55999999999514
 20
89.340000000001
 11
75.55999999999518
 21
76.64000000000082
  0
LINE
  5
2CE
100
AcDbEntity
  8
0_GND
  6
ByLayer
 62
  256
370
  200
100
AcDbLine
 10
75.55999999999518
 20
76.64000000000082
 11
65.39999999999567
 21
76.6400000000008
  0
LINE
  5
2CF
100
AcDbEntity
  8
0_wire
  6
ByLayer
 62
  256
370
  200
100
AcDbLine
 10
60.31999999999589
 20
79.18000000000083
 11
60.31999999999591
 21
76.6400000000008
  0
LINE
  5
2D0
100
AcDbEntity
  8
0_wire
  6
ByLayer
 62
  256
370
  200
100
AcDbLine
 10
70.47999999999541
 20
81.72000000000087
 11
70.4799999999954
 21
79.18000000000083
  0
LINE
  5
2D1
100
AcDbEntity
  8
0_GND
  6
ByLayer
 62
  256
370
  200
100
AcDbLine
 10
78.09999999999503
 20
76.6400000000008
 11
83.17999999999482
 21
76.64000000000085
  0
LINE
  5
2D2
100
AcDbEntity
  8
0_GND
  6
ByLayer
 62
  256
370
  200
100
AcDbLine
 10
78.09999999999506
 20
76.64000000000081
 11
75.55999999999518
 21
76.64000000000082
  0
LINE
  5
2D3
100
AcDbEntity
  8
0_GND
  6
ByLayer
 62
  256
370
  200
100
AcDbLine
 10
83.17999999999482
 20
76.64000000000085
 11
85.71999999999468
 21
76.64000000000082
  0
LINE
  5
2D4
100
AcDbEntity
  8
0_wire
  6
ByLayer
 62
  256
370
  200
100
AcDbLine
 10
70.4799999999954
 20
84.2600000000009
 11
67.93999999999552
 21
84.26000000000091
  0
LINE
  5
2D5
100
AcDbEntity
  8
0_wire
  6
ByLayer
 62
  256
370
  200
100
AcDbLine
 10
65.39999999999563
 20
86.80000000000094
 11
65.3999999999958
 21
79.180000000001
  0
LINE
  5
2D6
100
AcDbEntity
  8
0_wire
  6
ByLayer
 62
  256
370
  200
100
AcDbLine
 10
62.85999999999578
 20
81.72000000000085
 11
60.3199999999959
 21
81.72000000000087
  0
LINE
  5
2D7
100
AcDbEntity
  8
0_wire
  6
ByLayer
 62
  256
370
  200
100
AcDbLine
 10
60.3199999999959
 20
81.72000000000087
 11
60.31999999999589
 21
79.18000000000083
  0
LINE
  5
2D8
100
AcDbEntity
  8
0_wire
  6
ByLayer
 62
  256
370
  200
100
AcDbLine
 10
80.63999999999486
 20
86.80000000000094
 11
88.25999999999453
 21
86.80000000000098
  0
LINE
  5
2D9
100
AcDbEntity
  8
0_wire
  6
ByLayer
 62
  256
370
  200
100
AcDbLine
 10
80.63999999999488
 20
81.72000000000088
 11
88.25999999999456
 21
81.72000000000091
  0
LINE
  5
2DA
100
AcDbEntity
  8
0_GND
  6
ByLayer
 62
  256
370
  200
100
AcDbLine
 10
78.09999999999503
 20
79.18000000000085
 11
78.09999999999506
 21
76.64000000000081
  0
LINE
  5
2DB
100
AcDbEntity
  8
0_GND
  6
ByLayer
 62
  256
370
  200
100
AcDbLine
 10
83.17999999999479
 20
79.18000000000093
 11
83.17999999999482
 21
76.64000000000085
  0
LINE
  5
2DC
100
AcDbEntity
  8
0_wire
  6
ByLayer
 62
  256
370
  200
100
AcDbLine
 10
78.09999999999512
 20
63.94000000000062
 11
75.55999999999524
 21
63.94000000000062
  0
LINE
  5
2DD
100
AcDbEntity
  8
0_wire
  6
ByLayer
 62
  256
370
  200
100
AcDbLine
 10
78.09999999999515
 20
61.40000000000062
 11
75.55999999999527
 21
61.4000000000006
  0
LINE
  5
2DE
100
AcDbEntity
  8
0_wire
  6
ByLayer
 62
  256
370
  200
100
AcDbLine
 10
60.31999999999603
 20
58.86000000000055
 11
62.85999999999591
 21
58.86000000000057
  0
LINE
  5
2DF
100
AcDbEntity
  8
0_wire
  6
ByLayer
 62
  256
370
  200
100
AcDbLine
 10
62.85999999999585
 20
66.48000000000063
 11
67.93999999999561
 21
66.48000000000063
  0
LINE
  5
2E0
100
AcDbEntity
  8
5V line
  6
ByLayer
 62
  256
370
  200
100
AcDbLine
 10
78.09999999999513
 20
66.48000000000067
 11
78.09999999999511
 21
69.02000000000069
  0
LINE
  5
2E1
100
AcDbEntity
  8
5V line
  6
ByLayer
 62
  256
370
  200
100
AcDbLine
 10
78.09999999999511
 20
69.02000000000069
 11
70.47999999999547
 21
69.02000000000068
  0
LINE
  5
2E2
100
AcDbEntity
  8
0_wire
  6
ByLayer
 62
  256
370
  200
100
AcDbLine
 10
75.55999999999526
 20
63.94000000000064
 11
75.55999999999526
 21
66.48000000000066
  0
LINE
  5
2E3
100
AcDbEntity
  8
0_wire
  6
ByLayer
 62
  256
370
  200
100
AcDbLine
 10
60.319999999996
 20
61.40000000000057
 11
67.93999999999565
 21
61.40000000000058
  0
LINE
  5
2E4
100
AcDbEntity
  8
5V line
  6
ByLayer
 62
  256
370
  200
100
AcDbLine
 10
67.93999999999562
 20
63.94000000000062
 11
70.4799999999955
 21
63.94000000000062
  0
LINE
  5
2E5
100
AcDbEntity
  8
5V line
  6
ByLayer
 62
  256
370
  200
100
AcDbLine
 10
70.47999999999546
 20
69.02000000000068
 11
70.47999999999548
 21
63.94000000000062
  0
LINE
  5
2E6
100
AcDbEntity
  8
0_GND
  6
ByLayer
 62
  256
370
  200
100
AcDbLine
 10
60.31999999999599
 20
66.48000000000063
 11
60.31999999999596
 21
69.02000000000065
  0
LINE
  5
2E7
100
AcDbEntity
  8
0_GND
  6
ByLayer
 62
  256
370
  200
100
AcDbLine
 10
60.31999999999596
 20
69.02000000000065
 11
65.39999999999571
 21
69.02000000000065
  0
LINE
  5
2E8
100
AcDbEntity
  8
0_GND
  6
ByLayer
 62
  256
370
  200
100
AcDbLine
 10
65.39999999999576
 20
56.32000000000052
 11
65.39999999999577
 21
58.86000000000055
  0
LINE
  5
2E9
100
AcDbEntity
  8
0_wire
  6
ByLayer
 62
  256
370
  200
100
AcDbLine
 10
78.09999999999516
 20
58.86000000000057
 11
78.09999999999516
 21
53.7800000000005
  0
LINE
  5
2EA
100
AcDbEntity
  8
0_wire
  6
ByLayer
 62
  256
370
  200
100
AcDbLine
 10
78.09999999999516
 20
53.7800000000005
 11
65.39999999999577
 21
53.78000000000048
  0
LINE
  5
2EB
100
AcDbEntity
  8
0_wire
  6
ByLayer
 62
  256
370
  200
100
AcDbLine
 10
65.39999999999577
 20
53.78000000000048
 11
62.85999999999589
 21
53.78000000000048
  0
LINE
  5
2EC
100
AcDbEntity
  8
0_wire
  6
ByLayer
 62
  256
370
  200
100
AcDbLine
 10
62.85999999999589
 20
53.78000000000048
 11
62.85999999999585
 21
56.32000000000048
  0
CIRCLE
  5
2ED
100
AcDbEntity
  8
0_wire
  6
ByLayer
 62
  256
370
  140
100
AcDbCircle
 10
62.85999999999579
 20
76.64000000000078
 40
0.635
  0
CIRCLE
  5
2EE
100
AcDbEntity
  8
0_wire
  6
ByLayer
 62
  256
370
  140
100
AcDbCircle
 10
60.31999999999599
 20
63.94000000000061
 40
0.635
  0
CIRCLE
  5
2EF
100
AcDbEntity
  8
0_wire
  6
ByLayer
 62
  256
370
  140
100
AcDbCircle
 10
60.31999999999599
 20
53.78000000000044
 40
0.635
  0
CIRCLE
  5
2F0
100
AcDbEntity
  8
0_wire
  6
ByLayer
 62
  256
370
  140
100
AcDbCircle
 10
60.319999999996
 20
56.3200000000005
 40
0.635
  0
LINE
  5
2F1
100
AcDbEntity
  8
universal board
  6
ByLayer
 62
  256
370
   -1
100
AcDbLine
 10
61.58999999999585
 20
75.37000000000052
 11
61.58999999999585
 21
93.15000000000073
  0
LINE
  5
2F2
100
AcDbEntity
  8
universal board
  6
ByLayer
 62
  256
370
   -1
100
AcDbLine
 10
61.58999999999594
 20
52.5100000000002
 11
61.58999999999594
 21
70.29000000000042
  0
LINE
  5
2F3
100
AcDbEntity
  8
universal board
  6
ByLayer
 62
  256
370
   -1
100
AcDbLine
 10
64.12999999999573
 20
75.37000000000053
 11
64.12999999999573
 21
93.15000000000074
  0
LINE
  5
2F4
100
AcDbEntity
  8
universal board
  6
ByLayer
 62
  256
370
   -1
100
AcDbLine
 10
64.12999999999582
 20
52.51000000000022
 11
64.12999999999582
 21
70.29000000000043
  0
LINE
  5
2F5
100
AcDbEntity
  8
universal board
  6
ByLayer
 62
  256
370
   -1
100
AcDbLine
 10
66.66999999999561
 20
75.37000000000054
 11
66.66999999999561
 21
93.15000000000076
  0
LINE
  5
2F6
100
AcDbEntity
  8
universal board
  6
ByLayer
 62
  256
370
   -1
100
AcDbLine
 10
66.6699999999957
 20
52.51000000000023
 11
66.6699999999957
 21
70.29000000000045
  0
LINE
  5
2F7
100
AcDbEntity
  8
universal board
  6
ByLayer
 62
  256
370
   -1
100
AcDbLine
 10
69.20999999999549
 20
75.37000000000056
 11
69.20999999999549
 21
93.15000000000077
  0
LINE
  5
2F8
100
AcDbEntity
  8
universal board
  6
ByLayer
 62
  256
370
   -1
100
AcDbLine
 10
69.20999999999557
 20
52.51000000000025
 11
69.20999999999557
 21
70.29000000000046
  0
LINE
  5
2F9
100
AcDbEntity
  8
universal board
  6
ByLayer
 62
  256
370
   -1
100
AcDbLine
 10
71.74999999999537
 20
75.37000000000057
 11
71.74999999999537
 21
93.15000000000079
  0
LINE
  5
2FA
100
AcDbEntity
  8
universal board
  6
ByLayer
 62
  256
370
   -1
100
AcDbLine
 10
71.74999999999545
 20
52.51000000000026
 11
71.74999999999545
 21
70.29000000000048
  0
LINE
  5
2FB
100
AcDbEntity
  8
universal board
  6
ByLayer
 62
  256
370
   -1
100
AcDbLine
 10
74.28999999999525
 20
75.37000000000059
 11
74.28999999999525
 21
93.1500000000008
  0
LINE
  5
2FC
100
AcDbEntity
  8
universal board
  6
ByLayer
 62
  256
370
   -1
100
AcDbLine
 10
74.28999999999533
 20
52.51000000000028
 11
74.28999999999533
 21
70.29000000000049
  0
LINE
  5
2FD
100
AcDbEntity
  8
universal board
  6
ByLayer
 62
  256
370
   -1
100
AcDbLine
 10
76.82999999999512
 20
75.3700000000006
 11
76.82999999999512
 21
93.15000000000082
  0
LINE
  5
2FE
100
AcDbEntity
  8
universal board
  6
ByLayer
 62
  256
370
   -1
100
AcDbLine
 10
76.82999999999521
 20
52.51000000000029
 11
76.82999999999521
 21
70.2900000000005
  0
LINE
  5
2FF
100
AcDbEntity
  8
universal board
  6
ByLayer
 62
  256
370
   -1
100
AcDbLine
 10
79.369999999995
 20
75.37000000000062
 11
79.369999999995
 21
93.15000000000083
  0
LINE
  5
300
100
AcDbEntity
  8
universal board
  6
ByLayer
 62
  256
370
   -1
100
AcDbLine
 10
81.90999999999488
 20
75.37000000000063
 11
81.90999999999488
 21
93.15000000000084
  0
LINE
  5
301
100
AcDbEntity
  8
universal board
  6
ByLayer
 62
  256
370
   -1
100
AcDbLine
 10
84.44999999999476
 20
75.37000000000064
 11
84.44999999999476
 21
93.15000000000086
  0
LINE
  5
302
100
AcDbEntity
  8
universal board
  6
ByLayer
 62
  256
370
   -1
100
AcDbLine
 10
86.98999999999464
 20
75.37000000000066
 11
86.98999999999464
 21
93.15000000000087
  0
LINE
  5
303
100
AcDbEntity
  8
universal board
  6
ByLayer
 62
  256
370
   -1
100
AcDbLine
 10
59.04999999999592
 20
90.6100000000007
 11
89.52999999999454
 21
90.61000000000072
  0
LINE
  5
304
100
AcDbEntity
  8
universal board
  6
ByLayer
 62
  256
370
   -1
100
AcDbLine
 10
59.04999999999607
 20
67.75000000000037
 11
79.3699999999951
 21
67.75000000000037
  0
LINE
  5
305
100
AcDbEntity
  8
universal board
  6
ByLayer
 62
  256
370
   -1
100
AcDbLine
 10
59.04999999999593
 20
88.07000000000066
 11
89.52999999999456
 21
88.07000000000069
  0
LINE
  5
306
100
AcDbEntity
  8
universal board
  6
ByLayer
 62
  256
370
   -1
100
AcDbLine
 10
59.04999999999609
 20
65.21000000000033
 11
79.36999999999512
 21
65.21000000000033
  0
LINE
  5
307
100
AcDbEntity
  8
universal board
  6
ByLayer
 62
  256
370
   -1
100
AcDbLine
 10
59.04999999999595
 20
85.53000000000063
 11
89.52999999999457
 21
85.53000000000065
  0
LINE
  5
308
100
AcDbEntity
  8
universal board
  6
ByLayer
 62
  256
370
   -1
100
AcDbLine
 10
59.0499999999961
 20
62.6700000000003
 11
79.36999999999513
 21
62.6700000000003
  0
LINE
  5
309
100
AcDbEntity
  8
universal board
  6
ByLayer
 62
  256
370
   -1
100
AcDbLine
 10
59.04999999999596
 20
82.99000000000059
 11
89.52999999999459
 21
82.99000000000062
  0
LINE
  5
30A
100
AcDbEntity
  8
universal board
  6
ByLayer
 62
  256
370
   -1
100
AcDbLine
 10
59.04999999999612
 20
60.13000000000027
 11
79.36999999999514
 21
60.13000000000027
  0
LINE
  5
30B
100
AcDbEntity
  8
universal board
  6
ByLayer
 62
  256
370
   -1
100
AcDbLine
 10
59.04999999999598
 20
80.45000000000056
 11
89.5299999999946
 21
80.45000000000059
  0
LINE
  5
30C
100
AcDbEntity
  8
universal board
  6
ByLayer
 62
  256
370
   -1
100
AcDbLine
 10
59.04999999999613
 20
57.59000000000023
 11
79.36999999999516
 21
57.59000000000023
  0
LINE
  5
30D
100
AcDbEntity
  8
universal board
  6
ByLayer
 62
  256
370
   -1
100
AcDbLine
 10
59.04999999999599
 20
77.91000000000052
 11
89.52999999999462
 21
77.91000000000055
  0
LINE
  5
30E
100
AcDbEntity
  8
universal board
  6
ByLayer
 62
  256
370
   -1
100
AcDbLine
 10
59.04999999999615
 20
55.0500000000002
 11
79.36999999999517
 21
55.0500000000002
  0
LINE
  5
30F
100
AcDbEntity
  8
5V line
  6
ByLayer
 62
  256
370
   -1
100
AcDbLine
 10
78.09999999999501
 20
91.88000000000105
 11
88.25999999999452
 21
91.8800000000011
  0
LINE
  5
310
100
AcDbEntity
  8
0_GND
  6
ByLayer
 62
  256
370
   -1
100
AcDbLine
 10
75.55999999999514
 20
86.80000000000096
 11
78.09999999999502
 21
86.80000000000098
  0
LINE
  5
311
100
AcDbEntity
  8
0_GND
  6
ByLayer
 62
  256
370
   -1
100
AcDbLine
 10
78.09999999999502
 20
86.80000000000098
 11
78.09999999999506
 21
79.18000000000087
  0
LINE
  5
312
100
AcDbEntity
  8
0_GND
  6
ByLayer
 62
  256
370
   -1
100
AcDbLine
 10
73.01999999999531
 20
79.18000000000085
 11
75.55999999999518
 21
79.18000000000086
  0
LINE
  5
313
100
AcDbEntity
  8
0_GND
  6
ByLayer
 62
  256
370
   -1
100
AcDbLine
 10
80.63999999999494
 20
79.18000000000089
 11
83.17999999999482
 21
79.1800000000009
  0
LINE
  5
314
100
AcDbEntity
  8
0_GND
  6
ByLayer
 62
  256
370
   -1
100
AcDbLine
 10
83.17999999999482
 20
79.1800000000009
 11
88.25999999999458
 21
79.18000000000093
  0
LINE
  5
315
100
AcDbEntity
  8
0_GND
  6
ByLayer
 62
  256
370
   -1
100
AcDbLine
 10
88.25999999999458
 20
79.18000000000093
 11
88.25999999999458
 21
76.6400000000009
  0
LINE
  5
316
100
AcDbEntity
  8
0_GND
  6
ByLayer
 62
  256
370
   -1
100
AcDbLine
 10
67.93999999999555
 20
76.64000000000078
 11
67.93999999999554
 21
81.72000000000085
  0
LINE
  5
317
100
AcDbEntity
  8
0_GND
  6
ByLayer
 62
  256
370
   -1
100
AcDbLine
 10
60.31999999999589
 20
84.26000000000084
 11
60.31999999999586
 21
91.88000000000095
  0
LINE
  5
318
100
AcDbEntity
  8
0_GND
  6
ByLayer
 62
  256
370
   -1
100
AcDbLine
 10
60.31999999999589
 20
84.26000000000084
 11
62.85999999999576
 21
84.26000000000086
  0
LINE
  5
319
100
AcDbEntity
  8
0_GND
  6
ByLayer
 62
  256
370
   -1
100
AcDbLine
 10
62.85999999999576
 20
84.26000000000086
 11
62.85999999999576
 21
86.80000000000089
  0
LINE
  5
31A
100
AcDbEntity
  8
0_GND
  6
ByLayer
 62
  256
370
   -1
100
AcDbLine
 10
65.39999999999571
 20
69.02000000000065
 11
67.93999999999559
 21
69.02000000000066
  0
LINE
  5
31B
100
AcDbEntity
  8
0_GND
  6
ByLayer
 62
  256
370
   -1
100
AcDbLine
 10
65.39999999999576
 20
56.3200000000005
 11
75.55999999999527
 21
56.32000000000056
  0
LINE
  5
31C
100
AcDbEntity
  8
0_GND
  6
ByLayer
 62
  256
370
   -1
100
AcDbLine
 10
75.55999999999527
 20
56.32000000000056
 11
75.55999999999526
 21
58.8600000000006
  0
LINE
  5
31D
100
AcDbEntity
  8
0_GND
  6
ByLayer
 62
  256
370
   -1
100
AcDbLine
 10
75.55999999999526
 20
58.8600000000006
 11
65.39999999999574
 21
58.86000000000054
  0
LINE
  5
31E
100
AcDbEntity
  8
0_GND
  6
ByLayer
 62
  256
370
   -1
100
AcDbLine
 10
70.4799999999955
 20
58.86000000000057
 11
70.47999999999548
 21
61.4000000000006
  0
LINE
  5
31F
100
AcDbEntity
  8
0_GND
  6
ByLayer
 62
  256
370
   -1
100
AcDbLine
 10
70.47999999999548
 20
61.4000000000006
 11
73.01999999999536
 21
61.40000000000062
  0
LINE
  5
320
100
AcDbEntity
  8
0_GND
  6
ByLayer
 62
  256
370
   -1
100
AcDbLine
 10
73.01999999999536
 20
61.40000000000062
 11
73.01999999999535
 21
66.48000000000067
  0
LINE
  5
321
100
AcDbEntity
  8
5V line
  6
ByLayer
 62
  256
370
   -1
100
AcDbLine
 10
67.93999999999559
 20
63.94000000000062
 11
62.85999999999584
 21
63.94000000000059
  0
ENDSEC
  0
SECTION
  2
OBJECTS
  0
DICTIONARY
  5
C
330
0
100
AcDbDictionary
281
    1
  3
ACAD_GROUP
350
D
  0
DICTIONARY
  5
D
330
C
100
AcDbDictionary
281
    1
  0
PLOTSETTINGS
  5
322
100
AcDbPlotSettings
  6
1x1
 40
0
 41
0
 42
0
 43
0
  0
ENDSEC
  0
EOF
