999
dxfrw 0.6.3
  0
SECTION
  2
HEADER
  9
$ACADVER
  1
AC1021
  9
$DWGCODEPAGE
  3
ANSI_1252
  9
$INSBASE
 10
0
 20
0
 30
0
  9
$EXTMIN
 10
5.849358893066197
 20
43.24602458418035
 30
0
  9
$EXTMAX
 10
84.69758184293829
 20
72.13237419311567
 30
0
  9
$LIMMIN
 10
0
 20
0
  9
$LIMMAX
 10
420
 20
297
  9
$ORTHOMODE
 70
    0
  9
$REGENMODE
 70
    1
  9
$FILLMODE
 70
    1
  9
$QTEXTMODE
 70
    0
  9
$MIRRTEXT
 70
    0
  9
$LTSCALE
 40
1
  9
$ATTMODE
 70
    0
  9
$TEXTSIZE
 40
2.5
  9
$TRACEWID
 40
15.68
  9
$TEXTSTYLE
  7
STANDARD
  9
$CLAYER
  8
0_GND
  9
$CELTYPE
  6
BYLAYER
  9
$CECOLOR
 62
  256
  9
$CELTSCALE
 40
1
  9
$DISPSILH
 70
    0
  9
$DIMSCALE
 40
1
  9
$DIMASZ
 40
2.5
  9
$DIMEXO
 40
0.625
  9
$DIMDLI
 40
3.75
  9
$DIMRND
 40
0
  9
$DIMDLE
 40
0
  9
$DIMEXE
 40
1.25
  9
$DIMTP
 40
0
  9
$DIMTM
 40
0
  9
$DIMTXT
 40
2.5
  9
$DIMCEN
 40
2.5
  9
$DIMTSZ
 40
0
  9
$DIMTOL
 70
    0
  9
$DIMLIM
 70
    0
  9
$DIMTIH
 70
    0
  9
$DIMTOH
 70
    0
  9
$DIMSE1
 70
    0
  9
$DIMSE2
 70
    0
  9
$DIMTAD
 70
    1
  9
$DIMZIN
 70
    8
  9
$DIMBLK
  1

  9
$DIMASO
 70
    1
  9
$DIMSHO
 70
    1
  9
$DIMPOST
  1

  9
$DIMAPOST
  1

  9
$DIMALT
 70
    0
  9
$DIMALTD
 70
    3
  9
$DIMALTF
 40
0.03937
  9
$DIMLFAC
 40
1
  9
$DIMTOFL
 70
    1
  9
$DIMTVP
 40
0
  9
$DIMTIX
 70
    0
  9
$DIMSOXD
 70
    0
  9
$DIMSAH
 70
    0
  9
$DIMBLK1
  1

  9
$DIMBLK2
  1

  9
$DIMSTYLE
  2
STANDARD
  9
$DIMCLRD
 70
    0
  9
$DIMCLRE
 70
    0
  9
$DIMCLRT
 70
    0
  9
$DIMTFAC
 40
1
  9
$DIMGAP
 40
0.625
  9
$DIMJUST
 70
    0
  9
$DIMSD1
 70
    0
  9
$DIMSD2
 70
    0
  9
$DIMTOLJ
 70
    0
  9
$DIMTZIN
 70
    8
  9
$DIMALTZ
 70
    0
  9
$DIMALTTZ
 70
    0
  9
$DIMUPT
 70
    0
  9
$DIMDEC
 70
    2
  9
$DIMTDEC
 70
    2
  9
$DIMALTU
 70
    2
  9
$DIMALTTD
 70
    3
  9
$DIMTXSTY
  7
STANDARD
  9
$DIMAUNIT
 70
    0
  9
$DIMADEC
 70
    0
  9
$DIMALTRND
 40
0
  9
$DIMAZIN
 70
    0
  9
$DIMDSEP
 70
   44
  9
$DIMATFIT
 70
    3
  9
$DIMFRAC
 70
    0
  9
$DIMLDRBLK
  1
STANDARD
  9
$DIMLUNIT
 70
    2
  9
$DIMLWD
 70
   -2
  9
$DIMLWE
 70
   -2
  9
$DIMTMOVE
 70
    0
  9
$DIMFXL
 40
1
  9
$DIMFXLON
 70
    0
  9
$DIMJOGANG
 40
0.7854
  9
$DIMTFILL
 70
    0
  9
$DIMTFILLCLR
 70
    0
  9
$DIMARCSYM
 70
    0
  9
$DIMLTYPE
  6

  9
$DIMLTEX1
  6

  9
$DIMLTEX2
  6

  9
$LUNITS
 70
    2
  9
$LUPREC
 70
    4
  9
$SKETCHINC
 40
1
  9
$FILLETRAD
 40
0
  9
$AUNITS
 70
    0
  9
$AUPREC
 70
    2
  9
$MENU
  1
.
  9
$ELEVATION
 40
0
  9
$PELEVATION
 40
0
  9
$THICKNESS
 40
0
  9
$LIMCHECK
 70
    0
  9
$CHAMFERA
 40
0
  9
$CHAMFERB
 40
0
  9
$CHAMFERC
 40
0
  9
$CHAMFERD
 40
0
  9
$SKPOLY
 70
    0
  9
$USRTIMER
 70
    1
  9
$ANGBASE
 50
0
  9
$ANGDIR
 70
    0
  9
$PDMODE
 70
   34
  9
$PDSIZE
 40
0
  9
$PLINEWID
 40
0
  9
$SPLFRAME
 70
    0
  9
$SPLINETYPE
 70
    2
  9
$SPLINESEGS
 70
    8
  9
$HANDSEED
  5
20000
  9
$SURFTAB1
 70
    6
  9
$SURFTAB2
 70
    6
  9
$SURFTYPE
 70
    6
  9
$SURFU
 70
    6
  9
$SURFV
 70
    6
  9
$UCSBASE
  2

  9
$UCSNAME
  2

  9
$UCSORG
 10
0
 20
0
 30
0
  9
$UCSXDIR
 10
1
 20
0
 30
0
  9
$UCSYDIR
 10
0
 20
1
 30
0
  9
$UCSORTHOREF
  2

  9
$UCSORTHOVIEW
 70
    0
  9
$UCSORGTOP
 10
0
 20
0
 30
0
  9
$UCSORGBOTTOM
 10
0
 20
0
 30
0
  9
$UCSORGLEFT
 10
0
 20
0
 30
0
  9
$UCSORGRIGHT
 10
0
 20
0
 30
0
  9
$UCSORGFRONT
 10
0
 20
0
 30
0
  9
$UCSORGBACK
 10
0
 20
0
 30
0
  9
$PUCSBASE
  2

  9
$PUCSNAME
  2

  9
$PUCSORG
 10
0
 20
0
 30
0
  9
$PUCSXDIR
 10
1
 20
0
 30
0
  9
$PUCSYDIR
 10
0
 20
1
 30
0
  9
$PUCSORTHOREF
  2

  9
$PUCSORTHOVIEW
 70
    0
  9
$PUCSORGTOP
 10
0
 20
0
 30
0
  9
$PUCSORGBOTTOM
 10
0
 20
0
 30
0
  9
$PUCSORGLEFT
 10
0
 20
0
 30
0
  9
$PUCSORGRIGHT
 10
0
 20
0
 30
0
  9
$PUCSORGFRONT
 10
0
 20
0
 30
0
  9
$PUCSORGBACK
 10
0
 20
0
 30
0
  9
$USERI1
 70
    0
  9
$USERI2
 70
    0
  9
$USERI3
 70
    0
  9
$USERI4
 70
    0
  9
$USERI5
 70
    0
  9
$USERR1
 40
0
  9
$USERR2
 40
0
  9
$USERR3
 40
0
  9
$USERR4
 40
0
  9
$USERR5
 40
0
  9
$WORLDVIEW
 70
    1
  9
$SHADEDGE
 70
    3
  9
$SHADEDIF
 70
   70
  9
$TILEMODE
 70
    1
  9
$MAXACTVP
 70
   64
  9
$PINSBASE
 10
201.9375
 20
0
 30
0
  9
$PLIMCHECK
 70
    0
  9
$PEXTMIN
 10
0
 20
0
 30
0
  9
$PEXTMAX
 10
0
 20
0
 30
0
  9
$GRIDMODE
 70
    0
  9
$SNAPSTYLE
 70
    0
  9
$PLIMMIN
 10
0
 20
0
  9
$PLIMMAX
 10
210
 20
297
  9
$UNITMODE
 70
    0
  9
$VISRETAIN
 70
    1
  9
$PLINEGEN
 70
    0
  9
$PSLTSCALE
 70
    1
  9
$TREEDEPTH
 70
 3020
  9
$CMLSTYLE
  2
Standard
  9
$CMLJUST
 70
    0
  9
$CMLSCALE
 40
20
  9
$PROXYGRAPHICS
 70
    1
  9
$MEASUREMENT
 70
    1
  9
$CELWEIGHT
370
   -1
  9
$ENDCAPS
280
    0
  9
$JOINSTYLE
280
    0
  9
$LWDISPLAY
290
    0
  9
$INSUNITS
 70
    0
  9
$HYPERLINKBASE
  1

  9
$STYLESHEET
  1

  9
$XEDIT
290
    1
  9
$CEPSNTYPE
380
    0
  9
$PSTYLEMODE
290
    1
  9
$EXTNAMES
290
    1
  9
$PSVPSCALE
 40
4.125
  9
$OLESTARTUP
290
    0
  9
$SORTENTS
280
  127
  9
$INDEXCTL
280
    0
  9
$HIDETEXT
280
    1
  9
$XCLIPFRAME
290
    0
  9
$HALOGAP
280
    0
  9
$OBSCOLOR
 70
  257
  9
$OBSLTYPE
280
    0
  9
$INTERSECTIONDISPLAY
280
    0
  9
$INTERSECTIONCOLOR
 70
  257
  9
$DIMASSOC
280
    1
  9
$PROJECTNAME
  1

  9
$CAMERADISPLAY
290
    0
  9
$LENSLENGTH
 40
50
  9
$CAMERAHEIGHT
 40
0
  9
$STEPSPERSEC
 40
2
  9
$STEPSIZE
 40
50
  9
$3DDWFPREC
 40
2
  9
$PSOLWIDTH
 40
5
  9
$PSOLHEIGHT
 40
80
  9
$LOFTANG1
 40
1.570796326794897
  9
$LOFTANG2
 40
1.570796326794897
  9
$LOFTMAG1
 40
0
  9
$LOFTMAG2
 40
0
  9
$LOFTPARAM
 70
    7
  9
$LOFTNORMALS
280
    1
  9
$LATITUDE
 40
1
  9
$LONGITUDE
 40
1
  9
$NORTHDIRECTION
 40
0
  9
$TIMEZONE
 70
-8000
  9
$LIGHTGLYPHDISPLAY
280
    1
  9
$TILEMODELIGHTSYNCH
280
    1
  9
$SOLIDHIST
280
    1
  9
$SHOWHIST
280
    1
  9
$DWFFRAME
280
    2
  9
$DGNFRAME
280
    0
  9
$REALWORLDSCALE
290
    1
  9
$INTERFERECOLOR
 62
    1
  9
$CSHADOW
280
    0
  9
$SHADOWPLANELOCATION
 40
0
  0
ENDSEC
  0
SECTION
  2
CLASSES
  0
ENDSEC
  0
SECTION
  2
TABLES
  0
TABLE
  2
VPORT
  5
8
330
0
100
AcDbSymbolTable
 70
    1
  0
VPORT
  5
31
330
2
100
AcDbSymbolTableRecord
100
AcDbViewportTableRecord
  2
*ACTIVE
 70
    0
 10
0
 20
0
 11
1
 21
1
 12
37.29331912986265
 22
38.79661571494238
 13
0
 23
0
 14
10
 24
10
 15
10
 25
10
 16
0
 26
0
 36
1
 17
0
 27
0
 37
0
 40
38.19915168753889
 41
1.513622603430878
 42
50
 43
0
 44
0
 50
0
 51
0
 71
    0
 72
  100
 73
    1
 74
    3
 75
    0
 76
    0
 77
    0
 78
    0
281
    0
 65
    1
110
0
120
0
130
0
111
1
121
0
131
0
112
0
122
1
132
0
 79
    0
146
0
348
10020
 60
    7
 61
    5
292
1
282
    1
141
0
142
0
 63
  250
421
3358443
  0
ENDTAB
  0
TABLE
  2
LTYPE
  5
5
330
0
100
AcDbSymbolTable
 70
    4
  0
LTYPE
  5
14
330
5
100
AcDbSymbolTableRecord
100
AcDbLinetypeTableRecord
  2
ByBlock
 70
    0
  3

 72
   65
 73
    0
 40
0
  0
LTYPE
  5
15
330
5
100
AcDbSymbolTableRecord
100
AcDbLinetypeTableRecord
  2
ByLayer
 70
    0
  3

 72
   65
 73
    0
 40
0
  0
LTYPE
  5
16
330
5
100
AcDbSymbolTableRecord
100
AcDbLinetypeTableRecord
  2
Continuous
 70
    0
  3
Solid line
 72
   65
 73
    0
 40
0
  0
LTYPE
  5
32
330
5
100
AcDbSymbolTableRecord
100
AcDbLinetypeTableRecord
  2
DOT
 70
    0
  3
Dot . . . . . . . . . . . . . . . . . . . . . .
 72
   65
 73
    2
 40
6.35
 49
0
 74
    0
 49
-6.35
 74
    0
  0
LTYPE
  5
33
330
5
100
AcDbSymbolTableRecord
100
AcDbLinetypeTableRecord
  2
DOTTINY
 70
    0
  3
Dot (.15x) .....................................
 72
   65
 73
    2
 40
0.9525
 49
0
 74
    0
 49
-0.9525
 74
    0
  0
LTYPE
  5
34
330
5
100
AcDbSymbolTableRecord
100
AcDbLinetypeTableRecord
  2
DOT2
 70
    0
  3
Dot (.5x) .....................................
 72
   65
 73
    2
 40
3.175
 49
0
 74
    0
 49
-3.175
 74
    0
  0
LTYPE
  5
35
330
5
100
AcDbSymbolTableRecord
100
AcDbLinetypeTableRecord
  2
DOTX2
 70
    0
  3
Dot (2x) .  .  .  .  .  .  .  .  .  .  .  .  .
 72
   65
 73
    2
 40
12.7
 49
0
 74
    0
 49
-12.7
 74
    0
  0
LTYPE
  5
36
330
5
100
AcDbSymbolTableRecord
100
AcDbLinetypeTableRecord
  2
DASHED
 70
    0
  3
Dashed _ _ _ _ _ _ _ _ _ _ _ _ _ _ _ _ _
 72
   65
 73
    2
 40
19.05
 49
12.7
 74
    0
 49
-6.35
 74
    0
  0
LTYPE
  5
37
330
5
100
AcDbSymbolTableRecord
100
AcDbLinetypeTableRecord
  2
DASHEDTINY
 70
    0
  3
Dashed (.15x) _ _ _ _ _ _ _ _ _ _ _ _ _ _ _ _ _
 72
   65
 73
    2
 40
2.8575
 49
1.905
 74
    0
 49
-0.9525
 74
    0
  0
LTYPE
  5
38
330
5
100
AcDbSymbolTableRecord
100
AcDbLinetypeTableRecord
  2
DASHED2
 70
    0
  3
Dashed (.5x) _ _ _ _ _ _ _ _ _ _ _ _ _ _ _ _ _
 72
   65
 73
    2
 40
9.524999999999999
 49
6.35
 74
    0
 49
-3.175
 74
    0
  0
LTYPE
  5
39
330
5
100
AcDbSymbolTableRecord
100
AcDbLinetypeTableRecord
  2
DASHEDX2
 70
    0
  3
Dashed (2x) ____  ____  ____  ____  ____  ___
 72
   65
 73
    2
 40
38.09999999999999
 49
25.4
 74
    0
 49
-12.7
 74
    0
  0
LTYPE
  5
3A
330
5
100
AcDbSymbolTableRecord
100
AcDbLinetypeTableRecord
  2
DASHDOT
 70
    0
  3
Dash dot __ . __ . __ . __ . __ . __ . __ . __
 72
   65
 73
    4
 40
25.4
 49
12.7
 74
    0
 49
-6.35
 74
    0
 49
0
 74
    0
 49
-6.35
 74
    0
  0
LTYPE
  5
3B
330
5
100
AcDbSymbolTableRecord
100
AcDbLinetypeTableRecord
  2
DASHDOTTINY
 70
    0
  3
Dash dot (.15x) _._._._._._._._._._._._._._._.
 72
   65
 73
    4
 40
3.81
 49
1.905
 74
    0
 49
-0.9525
 74
    0
 49
0
 74
    0
 49
-0.9525
 74
    0
  0
LTYPE
  5
3C
330
5
100
AcDbSymbolTableRecord
100
AcDbLinetypeTableRecord
  2
DASHDOT2
 70
    0
  3
Dash dot (.5x) _._._._._._._._._._._._._._._.
 72
   65
 73
    4
 40
12.7
 49
6.35
 74
    0
 49
-3.175
 74
    0
 49
0
 74
    0
 49
-3.175
 74
    0
  0
LTYPE
  5
3D
330
5
100
AcDbSymbolTableRecord
100
AcDbLinetypeTableRecord
  2
DASHDOTX2
 70
    0
  3
Dash dot (2x) ____  .  ____  .  ____  .  ___
 72
   65
 73
    4
 40
50.8
 49
25.4
 74
    0
 49
-12.7
 74
    0
 49
0
 74
    0
 49
-12.7
 74
    0
  0
LTYPE
  5
3E
330
5
100
AcDbSymbolTableRecord
100
AcDbLinetypeTableRecord
  2
DIVIDE
 70
    0
  3
Divide ____ . . ____ . . ____ . . ____ . . ____
 72
   65
 73
    6
 40
31.75
 49
12.7
 74
    0
 49
-6.35
 74
    0
 49
0
 74
    0
 49
-6.35
 74
    0
 49
0
 74
    0
 49
-6.35
 74
    0
  0
LTYPE
  5
3F
330
5
100
AcDbSymbolTableRecord
100
AcDbLinetypeTableRecord
  2
DIVIDETINY
 70
    0
  3
Divide (.15x) __..__..__..__..__..__..__..__.._
 72
   65
 73
    6
 40
4.7625
 49
1.905
 74
    0
 49
-0.9525
 74
    0
 49
0
 74
    0
 49
-0.9525
 74
    0
 49
0
 74
    0
 49
-0.9525
 74
    0
  0
LTYPE
  5
40
330
5
100
AcDbSymbolTableRecord
100
AcDbLinetypeTableRecord
  2
DIVIDE2
 70
    0
  3
Divide (.5x) __..__..__..__..__..__..__..__.._
 72
   65
 73
    6
 40
15.875
 49
6.35
 74
    0
 49
-3.175
 74
    0
 49
0
 74
    0
 49
-3.175
 74
    0
 49
0
 74
    0
 49
-3.175
 74
    0
  0
LTYPE
  5
41
330
5
100
AcDbSymbolTableRecord
100
AcDbLinetypeTableRecord
  2
DIVIDEX2
 70
    0
  3
Divide (2x) ________  .  .  ________  .  .  _
 72
   65
 73
    6
 40
63.5
 49
25.4
 74
    0
 49
-12.7
 74
    0
 49
0
 74
    0
 49
-12.7
 74
    0
 49
0
 74
    0
 49
-12.7
 74
    0
  0
LTYPE
  5
42
330
5
100
AcDbSymbolTableRecord
100
AcDbLinetypeTableRecord
  2
BORDER
 70
    0
  3
Border __ __ . __ __ . __ __ . __ __ . __ __ .
 72
   65
 73
    6
 40
44.45
 49
12.7
 74
    0
 49
-6.35
 74
    0
 49
12.7
 74
    0
 49
-6.35
 74
    0
 49
0
 74
    0
 49
-6.35
 74
    0
  0
LTYPE
  5
43
330
5
100
AcDbSymbolTableRecord
100
AcDbLinetypeTableRecord
  2
BORDERTINY
 70
    0
  3
Border (.15x) __.__.__.__.__.__.__.__.__.__.__.
 72
   65
 73
    6
 40
6.6675
 49
1.905
 74
    0
 49
-0.9525
 74
    0
 49
1.905
 74
    0
 49
-0.9525
 74
    0
 49
0
 74
    0
 49
-0.9525
 74
    0
  0
LTYPE
  5
44
330
5
100
AcDbSymbolTableRecord
100
AcDbLinetypeTableRecord
  2
BORDER2
 70
    0
  3
Border (.5x) __.__.__.__.__.__.__.__.__.__.__.
 72
   65
 73
    6
 40
22.225
 49
6.35
 74
    0
 49
-3.175
 74
    0
 49
6.35
 74
    0
 49
-3.175
 74
    0
 49
0
 74
    0
 49
-3.175
 74
    0
  0
LTYPE
  5
45
330
5
100
AcDbSymbolTableRecord
100
AcDbLinetypeTableRecord
  2
BORDERX2
 70
    0
  3
Border (2x) ____  ____  .  ____  ____  .  ___
 72
   65
 73
    6
 40
88.89999999999999
 49
25.4
 74
    0
 49
-12.7
 74
    0
 49
25.4
 74
    0
 49
-12.7
 74
    0
 49
0
 74
    0
 49
-12.7
 74
    0
  0
LTYPE
  5
46
330
5
100
AcDbSymbolTableRecord
100
AcDbLinetypeTableRecord
  2
CENTER
 70
    0
  3
Center ____ _ ____ _ ____ _ ____ _ ____ _ ____
 72
   65
 73
    4
 40
50.8
 49
31.75
 74
    0
 49
-6.35
 74
    0
 49
6.35
 74
    0
 49
-6.35
 74
    0
  0
LTYPE
  5
47
330
5
100
AcDbSymbolTableRecord
100
AcDbLinetypeTableRecord
  2
CENTERTINY
 70
    0
  3
Center (.15x) ___ _ ___ _ ___ _ ___ _ ___ _ ___
 72
   65
 73
    4
 40
7.619999999999999
 49
4.7625
 74
    0
 49
-0.9525
 74
    0
 49
0.9525
 74
    0
 49
-0.9525
 74
    0
  0
LTYPE
  5
48
330
5
100
AcDbSymbolTableRecord
100
AcDbLinetypeTableRecord
  2
CENTER2
 70
    0
  3
Center (.5x) ___ _ ___ _ ___ _ ___ _ ___ _ ___
 72
   65
 73
    4
 40
28.575
 49
19.05
 74
    0
 49
-3.175
 74
    0
 49
3.175
 74
    0
 49
-3.175
 74
    0
  0
LTYPE
  5
49
330
5
100
AcDbSymbolTableRecord
100
AcDbLinetypeTableRecord
  2
CENTERX2
 70
    0
  3
Center (2x) ________  __  ________  __  _____
 72
   65
 73
    4
 40
101.6
 49
63.5
 74
    0
 49
-12.7
 74
    0
 49
12.7
 74
    0
 49
-12.7
 74
    0
  0
ENDTAB
  0
TABLE
  2
LAYER
  5
2
330
0
100
AcDbSymbolTable
 70
    1
  0
LAYER
  5
10
330
2
100
AcDbSymbolTableRecord
100
AcDbLayerTableRecord
  2
0
 70
    0
 62
    7
  6
CONTINUOUS
370
   13
390
F
  0
LAYER
  5
4A
330
2
100
AcDbSymbolTableRecord
100
AcDbLayerTableRecord
  2
0_GND
 70
    0
 62
    7
  6
CONTINUOUS
370
   15
390
F
  0
LAYER
  5
4B
330
2
100
AcDbSymbolTableRecord
100
AcDbLayerTableRecord
  2
0__draft
 70
    0
 62
    7
  6
DOTTINY
370
   -3
390
F
1001
LibreCad
1070
    1
  0
LAYER
  5
4C
330
2
100
AcDbSymbolTableRecord
100
AcDbLayerTableRecord
  2
0_wire
 70
    0
 62
    3
  6
CONTINUOUS
370
   15
390
F
  0
LAYER
  5
4D
330
2
100
AcDbSymbolTableRecord
100
AcDbLayerTableRecord
  2
12V line
 70
    0
 62
    2
  6
CONTINUOUS
370
   15
390
F
  0
LAYER
  5
4E
330
2
100
AcDbSymbolTableRecord
100
AcDbLayerTableRecord
  2
3.3V line
 70
    0
 62
   40
420
16755200
  6
CONTINUOUS
370
   15
390
F
  0
LAYER
  5
4F
330
2
100
AcDbSymbolTableRecord
100
AcDbLayerTableRecord
  2
5V line
 70
    0
 62
    1
  6
CONTINUOUS
370
   15
390
F
  0
LAYER
  5
50
330
2
100
AcDbSymbolTableRecord
100
AcDbLayerTableRecord
  2
Regulator
 70
    0
 62
  162
420
18906
  6
CONTINUOUS
370
   15
390
F
  0
LAYER
  5
51
330
2
100
AcDbSymbolTableRecord
100
AcDbLayerTableRecord
  2
condenser
 70
    0
 62
    5
  6
CONTINUOUS
370
   15
390
F
  0
LAYER
  5
52
330
2
100
AcDbSymbolTableRecord
100
AcDbLayerTableRecord
  2
micon
 70
    0
 62
  216
420
8388736
  6
CONTINUOUS
370
   15
390
F
  0
LAYER
  5
53
330
2
100
AcDbSymbolTableRecord
100
AcDbLayerTableRecord
  2
pin socket
 70
    0
 62
   56
420
8421376
  6
CONTINUOUS
370
   15
390
F
  0
LAYER
  5
54
330
2
100
AcDbSymbolTableRecord
100
AcDbLayerTableRecord
  2
resister
 70
    0
 62
    4
  6
CONTINUOUS
370
   18
390
F
  0
LAYER
  5
55
330
2
100
AcDbSymbolTableRecord
100
AcDbLayerTableRecord
  2
switch
 70
    0
 62
  136
420
32896
  6
CONTINUOUS
370
   15
390
F
  0
LAYER
  5
56
330
2
100
AcDbSymbolTableRecord
100
AcDbLayerTableRecord
  2
terminal
 70
    0
 62
   16
420
8388608
  6
CONTINUOUS
370
   15
390
F
  0
LAYER
  5
57
330
2
100
AcDbSymbolTableRecord
100
AcDbLayerTableRecord
  2
z_UniversalBoard
 70
    4
 62
  253
420
10526884
  6
CONTINUOUS
370
   13
390
F
  0
ENDTAB
  0
TABLE
  2
STYLE
  5
3
330
0
100
AcDbSymbolTable
 70
    3
  0
STYLE
  5
58
330
2
100
AcDbSymbolTableRecord
100
AcDbTextStyleTableRecord
  2
STANDARD
 70
    0
 40
0
 41
1
 50
0
 71
    0
 42
1
  3
STANDARD
  4

  0
STYLE
  5
59
330
2
100
AcDbSymbolTableRecord
100
AcDbTextStyleTableRecord
  2
azomix
 70
    0
 40
0
 41
1
 50
0
 71
    0
 42
1
  3
azomix
  4

  0
STYLE
  5
5A
330
2
100
AcDbSymbolTableRecord
100
AcDbTextStyleTableRecord
  2
unicode
 70
    0
 40
0
 41
1
 50
0
 71
    0
 42
1
  3
unicode
  4

  0
STYLE
  5
5B
330
2
100
AcDbSymbolTableRecord
100
AcDbTextStyleTableRecord
  2
iso
 70
    0
 40
0
 41
1
 50
0
 71
    0
 42
1
  3
iso
  4

  0
ENDTAB
  0
TABLE
  2
VIEW
  5
6
330
0
100
AcDbSymbolTable
 70
    0
  0
ENDTAB
  0
TABLE
  2
UCS
  5
7
330
0
100
AcDbSymbolTable
 70
    0
  0
ENDTAB
  0
TABLE
  2
APPID
  5
9
330
0
100
AcDbSymbolTable
 70
    1
  0
APPID
  5
12
330
9
100
AcDbSymbolTableRecord
100
AcDbRegAppTableRecord
  2
ACAD
 70
    0
  0
APPID
  5
5C
330
9
100
AcDbSymbolTableRecord
100
AcDbRegAppTableRecord
  2
LibreCad
 70
    0
  0
ENDTAB
  0
TABLE
  2
DIMSTYLE
  5
A
330
0
100
AcDbSymbolTable
 70
    1
100
AcDbDimStyleTable
 71
    1
  0
DIMSTYLE
105
5D
330
A
100
AcDbSymbolTableRecord
100
AcDbDimStyleTableRecord
  2
Standard
 70
    0
 40
1
 41
2.5
 42
0.625
 43
0.38
 44
1.25
 45
0
 46
0
 47
0
 48
0
 49
1
140
2.5
141
0.09
142
0
143
25.4
144
1
145
0
146
1
147
0.625
148
0
 71
    0
 72
    0
 73
    0
 74
    1
 75
    0
 76
    0
 77
    0
 78
    8
 79
    0
170
    0
171
    2
172
    0
173
    0
174
    0
175
    0
176
    0
177
    0
178
    0
179
    0
271
    2
272
    4
273
    2
274
    2
275
    0
276
    0
277
    2
278
   44
279
    0
280
    0
281
    0
282
    0
283
    1
284
    0
285
    0
286
    0
288
    0
289
    3
340
STANDARD
341

371
   -2
372
   -2
  0
ENDTAB
  0
TABLE
  2
BLOCK_RECORD
  5
1
330
0
100
AcDbSymbolTable
 70
    2
  0
BLOCK_RECORD
  5
1F
330
1
100
AcDbSymbolTableRecord
100
AcDbBlockTableRecord
  2
*Model_Space
 70
    0
280
    1
281
    0
  0
BLOCK_RECORD
  5
1E
330
1
100
AcDbSymbolTableRecord
100
AcDbBlockTableRecord
  2
*Paper_Space
 70
    0
280
    1
281
    0
  0
BLOCK_RECORD
  5
5E
330
1
100
AcDbSymbolTableRecord
100
AcDbBlockTableRecord
  2
2227MC-08-03
 70
    0
280
    1
281
    0
  0
BLOCK_RECORD
  5
61
330
1
100
AcDbSymbolTableRecord
100
AcDbBlockTableRecord
  2
PIC16F15325
 70
    0
280
    1
281
    0
  0
BLOCK_RECORD
  5
64
330
1
100
AcDbSymbolTableRecord
100
AcDbBlockTableRecord
  2
2227MC-28-03
 70
    0
280
    1
281
    0
  0
BLOCK_RECORD
  5
67
330
1
100
AcDbSymbolTableRecord
100
AcDbBlockTableRecord
  2
HUSG-16.000-20
 70
    0
280
    1
281
    0
  0
BLOCK_RECORD
  5
6A
330
1
100
AcDbSymbolTableRecord
100
AcDbBlockTableRecord
  2
ATmega328P
 70
    0
280
    1
281
    0
  0
BLOCK_RECORD
  5
6D
330
1
100
AcDbSymbolTableRecord
100
AcDbBlockTableRecord
  2
DTS-63-N-V-BLK
 70
    0
280
    1
281
    0
  0
BLOCK_RECORD
  5
70
330
1
100
AcDbSymbolTableRecord
100
AcDbBlockTableRecord
  2
2227MC-14-03
 70
    0
280
    1
281
    0
  0
BLOCK_RECORD
  5
73
330
1
100
AcDbSymbolTableRecord
100
AcDbBlockTableRecord
  2
C_0.01uF
 70
    0
280
    1
281
    0
  0
BLOCK_RECORD
  5
76
330
1
100
AcDbSymbolTableRecord
100
AcDbBlockTableRecord
  2
R300
 70
    0
280
    1
281
    0
  0
BLOCK_RECORD
  5
79
330
1
100
AcDbSymbolTableRecord
100
AcDbBlockTableRecord
  2
R10k
 70
    0
280
    1
281
    0
  0
BLOCK_RECORD
  5
7C
330
1
100
AcDbSymbolTableRecord
100
AcDbBlockTableRecord
  2
R0
 70
    0
280
    1
281
    0
  0
ENDTAB
  0
ENDSEC
  0
SECTION
  2
BLOCKS
  0
BLOCK
  5
20
330
1F
100
AcDbEntity
  8
0
100
AcDbBlockBegin
  2
*Model_Space
 70
    0
 10
0
 20
0
 30
0
  3
*Model_Space
  1

  0
ENDBLK
  5
21
330
1F
100
AcDbEntity
  8
0
100
AcDbBlockEnd
  0
BLOCK
  5
1C
330
1B
100
AcDbEntity
  8
0
100
AcDbBlockBegin
  2
*Paper_Space
 70
    0
 10
0
 20
0
 30
0
  3
*Paper_Space
  1

  0
ENDBLK
  5
1D
330
1F
100
AcDbEntity
  8
0
100
AcDbBlockEnd
  0
BLOCK
  5
5F
330
5E
100
AcDbEntity
  8
0
100
AcDbBlockBegin
  2
2227MC-08-03
 70
    0
 10
0
 20
0
  3
2227MC-08-03
  1

  0
LINE
  5
7F
100
AcDbEntity
  8
pin socket
  6
ByLayer
 62
  256
370
   -1
100
AcDbLine
 10
-1.270000000000131
 20
-8.890000110779171
 11
-1.270000000000131
 21
1.269999889220831
  0
LINE
  5
80
100
AcDbEntity
  8
pin socket
  6
ByLayer
 62
  256
370
   -1
100
AcDbLine
 10
-1.270000000000131
 20
1.269999889220831
 11
8.890000394687402
 21
1.269999889220831
  0
LINE
  5
81
100
AcDbEntity
  8
pin socket
  6
ByLayer
 62
  256
370
   -1
100
AcDbLine
 10
8.890000394687402
 20
1.269999889220831
 11
8.88999999999989
 21
-8.890000110779171
  0
LINE
  5
82
100
AcDbEntity
  8
pin socket
  6
ByLayer
 62
  256
370
   -1
100
AcDbLine
 10
8.88999999999989
 20
-8.890000110779171
 11
-1.270000000000131
 21
-8.890000110779171
  0
CIRCLE
  5
83
100
AcDbEntity
  8
pin socket
  6
ByLayer
 62
  256
370
   -1
100
AcDbCircle
 10
2.539999999999878
 20
1.06581410364015e-14
 40
0.6
  0
CIRCLE
  5
84
100
AcDbEntity
  8
pin socket
  6
ByLayer
 62
  256
370
   -1
100
AcDbCircle
 10
2.539999999999893
 20
-7.620000000000061
 40
0.6
  0
CIRCLE
  5
85
100
AcDbEntity
  8
pin socket
  6
ByLayer
 62
  256
370
   -1
100
AcDbCircle
 10
0
 20
0
 40
0.6
  0
CIRCLE
  5
86
100
AcDbEntity
  8
pin socket
  6
ByLayer
 62
  256
370
   -1
100
AcDbCircle
 10
7.105427357601002e-15
 20
-7.620000000000072
 40
0.6
  0
CIRCLE
  5
87
100
AcDbEntity
  8
pin socket
  6
ByLayer
 62
  256
370
   -1
100
AcDbCircle
 10
5.079999999999757
 20
2.842170943040401e-14
 40
0.6
  0
CIRCLE
  5
88
100
AcDbEntity
  8
pin socket
  6
ByLayer
 62
  256
370
   -1
100
AcDbCircle
 10
5.079999999999771
 20
-7.620000000000051
 40
0.6
  0
CIRCLE
  5
89
100
AcDbEntity
  8
pin socket
  6
ByLayer
 62
  256
370
   -1
100
AcDbCircle
 10
7.619999999999639
 20
3.907985046680551e-14
 40
0.6
  0
CIRCLE
  5
8A
100
AcDbEntity
  8
pin socket
  6
ByLayer
 62
  256
370
   -1
100
AcDbCircle
 10
7.61999999999966
 20
-7.62000000000004
 40
0.6
  0
MTEXT
  5
8B
100
AcDbEntity
  8
pin socket
  6
ByLayer
 62
  256
370
   -1
100
AcDbMText
 10
3.950796119092651
 20
-1.713679173150673
 30
0
 40
1
 41
9.222222222222284
 71
    5
 72
    1
  1
2227MC-08-03
  7
STANDARD
210
0
220
0
230
1
 50
0
 73
    2
 44
1
  0
ENDBLK
  5
60
330
5E
100
AcDbEntity
  8
0
100
AcDbBlockEnd
  0
BLOCK
  5
62
330
61
100
AcDbEntity
  8
0
100
AcDbBlockBegin
  2
PIC16F15325
 70
    0
 10
0
 20
0
  3
PIC16F15325
  1

  0
ENDBLK
  5
63
330
61
100
AcDbEntity
  8
0
100
AcDbBlockEnd
  0
BLOCK
  5
65
330
64
100
AcDbEntity
  8
0
100
AcDbBlockBegin
  2
2227MC-28-03
 70
    0
 10
0
 20
0
  3
2227MC-28-03
  1

  0
ENDBLK
  5
66
330
64
100
AcDbEntity
  8
0
100
AcDbBlockEnd
  0
BLOCK
  5
68
330
67
100
AcDbEntity
  8
0
100
AcDbBlockBegin
  2
HUSG-16.000-20
 70
    0
 10
0
 20
0
  3
HUSG-16.000-20
  1

  0
ENDBLK
  5
69
330
67
100
AcDbEntity
  8
0
100
AcDbBlockEnd
  0
BLOCK
  5
6B
330
6A
100
AcDbEntity
  8
0
100
AcDbBlockBegin
  2
ATmega328P
 70
    0
 10
0
 20
0
  3
ATmega328P
  1

  0
ENDBLK
  5
6C
330
6A
100
AcDbEntity
  8
0
100
AcDbBlockEnd
  0
BLOCK
  5
6E
330
6D
100
AcDbEntity
  8
0
100
AcDbBlockBegin
  2
DTS-63-N-V-BLK
 70
    0
 10
0
 20
0
  3
DTS-63-N-V-BLK
  1

  0
ENDBLK
  5
6F
330
6D
100
AcDbEntity
  8
0
100
AcDbBlockEnd
  0
BLOCK
  5
71
330
70
100
AcDbEntity
  8
0
100
AcDbBlockBegin
  2
2227MC-14-03
 70
    0
 10
0
 20
0
  3
2227MC-14-03
  1

  0
ENDBLK
  5
72
330
70
100
AcDbEntity
  8
0
100
AcDbBlockEnd
  0
BLOCK
  5
74
330
73
100
AcDbEntity
  8
0
100
AcDbBlockBegin
  2
C_0.01uF
 70
    0
 10
0
 20
0
  3
C_0.01uF
  1

  0
LWPOLYLINE
  5
8C
100
AcDbEntity
  8
condenser
  6
ByLayer
 62
  256
370
   -1
100
AcDbPolyline
 90
    4
 70
    1
 43
0
 10
1.499999999999972
 20
5.039999999999822
 10
1.499999999999972
 20
0.03999999999992099
 10
-1.50000000000005
 20
0.03999999999992099
 10
-1.50000000000005
 20
5.039999999999822
  0
MTEXT
  5
8D
100
AcDbEntity
  8
condenser
  6
ByLayer
 62
  256
370
   -1
100
AcDbMText
 10
2.336701583810211
 20
2.491803864245341
 30
0
 40
1
 41
3.666666666666667
 71
    5
 72
    1
  1
0.01uF
  7
STANDARD
210
0
220
0
230
1
 50
270
 73
    2
 44
1
  0
CIRCLE
  5
8E
100
AcDbEntity
  8
condenser
  6
ByLayer
 62
  256
370
   -1
100
AcDbCircle
 10
0
 20
0
 40
0.4
  0
CIRCLE
  5
8F
100
AcDbEntity
  8
condenser
  6
ByLayer
 62
  256
370
   -1
100
AcDbCircle
 10
-6.927791673660977e-14
 20
5.080000000000041
 40
0.4
  0
ENDBLK
  5
75
330
73
100
AcDbEntity
  8
0
100
AcDbBlockEnd
  0
BLOCK
  5
77
330
76
100
AcDbEntity
  8
0
100
AcDbBlockBegin
  2
R300
 70
    0
 10
0
 20
0
  3
R300
  1

  0
LWPOLYLINE
  5
90
100
AcDbEntity
  8
resister
  6
ByLayer
 62
  256
370
   -1
100
AcDbPolyline
 90
    4
 70
    1
 43
0
 10
-1.150000000000091
 20
0.6599999999995898
 10
-1.15000000000008
 20
6.959999999999511
 10
1.150000000000126
 20
6.959999999999511
 10
1.150000000000119
 20
0.6599999999995898
  0
CIRCLE
  5
91
100
AcDbEntity
  8
resister
  6
ByLayer
 62
  256
370
   -1
100
AcDbCircle
 10
1.953992523340276e-14
 20
7.619999999999639
 40
0.3
  0
LINE
  5
92
100
AcDbEntity
  8
resister
  6
ByLayer
 62
  256
370
   -1
100
AcDbLine
 10
1.953992523340276e-14
 20
0.2999999999998604
 11
1.031014139840636e-06
 21
0.6599999999995898
  0
LINE
  5
93
100
AcDbEntity
  8
resister
  6
ByLayer
 62
  256
370
   -1
100
AcDbLine
 10
3.907985046680551e-14
 20
6.959999999999511
 11
3.907985046680551e-14
 21
7.320000000000348
  0
MTEXT
  5
94
100
AcDbEntity
  8
resister
  6
ByLayer
 62
  256
370
   -1
100
AcDbMText
 10
-0.02409769535478112
 20
3.951579464078229
 30
0
 40
1
 41
2.888888888888951
 71
    5
 72
    1
  1
R300
  7
STANDARD
210
0
220
0
230
1
 50
90
 73
    2
 44
1
  0
CIRCLE
  5
95
100
AcDbEntity
  8
resister
  6
ByLayer
 62
  256
370
   -1
100
AcDbCircle
 10
0
 20
0
 40
0.25
  0
ENDBLK
  5
78
330
76
100
AcDbEntity
  8
0
100
AcDbBlockEnd
  0
BLOCK
  5
7A
330
79
100
AcDbEntity
  8
0
100
AcDbBlockBegin
  2
R10k
 70
    0
 10
0
 20
0
  3
R10k
  1

  0
CIRCLE
  5
96
100
AcDbEntity
  8
resister
  6
ByLayer
 62
  256
370
   -1
100
AcDbCircle
 10
0
 20
0
 40
0.3
  0
LINE
  5
97
100
AcDbEntity
  8
resister
  6
ByLayer
 62
  256
370
   -1
100
AcDbLine
 10
-0.659999999999485
 20
1.150000000000098
 11
-0.659999999999485
 21
-1.150000000000059
  0
LINE
  5
98
100
AcDbEntity
  8
resister
  6
ByLayer
 62
  256
370
   -1
100
AcDbLine
 10
-6.959999999999557
 20
-1.150000000000041
 11
-0.659999999999485
 21
-1.150000000000059
  0
LINE
  5
99
100
AcDbEntity
  8
resister
  6
ByLayer
 62
  256
370
   -1
100
AcDbLine
 10
-0.659999999999485
 20
1.150000000000098
 11
-6.959999999999557
 21
1.150000000000098
  0
LINE
  5
9A
100
AcDbEntity
  8
resister
  6
ByLayer
 62
  256
370
   -1
100
AcDbLine
 10
-6.959999999999557
 20
1.150000000000098
 11
-6.959999999999557
 21
-1.150000000000041
  0
CIRCLE
  5
9B
100
AcDbEntity
  8
resister
  6
ByLayer
 62
  256
370
   -1
100
AcDbCircle
 10
-7.619999999999408
 20
2.131628207280301e-14
 40
0.25
  0
MTEXT
  5
9C
100
AcDbEntity
  8
resister
  6
ByLayer
 62
  256
370
   -1
100
AcDbMText
 10
-3.991855261194459
 20
0.08749576228997924
 30
0
 40
1
 41
2.666666666666667
 71
    5
 72
    1
  1
R10k
  7
unicode
210
0
220
0
230
1
 50
0
 73
    2
 44
1
  0
LINE
  5
9D
100
AcDbEntity
  8
resister
  6
ByLayer
 62
  256
370
   -1
100
AcDbLine
 10
-0.2499999999985789
 20
2.131628207280301e-14
 11
-0.659999999999485
 21
2.131628207280301e-14
  0
LINE
  5
9E
100
AcDbEntity
  8
resister
  6
ByLayer
 62
  256
370
   -1
100
AcDbLine
 10
-7.369999999999898
 20
1.06581410364015e-14
 11
-6.959999999999557
 21
1.06581410364015e-14
  0
ENDBLK
  5
7B
330
79
100
AcDbEntity
  8
0
100
AcDbBlockEnd
  0
BLOCK
  5
7D
330
7C
100
AcDbEntity
  8
0
100
AcDbBlockBegin
  2
R0
 70
    0
 10
0
 20
0
  3
R0
  1

  0
LINE
  5
9F
100
AcDbEntity
  8
resister
  6
ByLayer
 62
  256
370
   -1
100
AcDbLine
 10
-0.6599999999999611
 20
1.149999999999959
 11
-0.6599999999999611
 21
-1.14999999999997
  0
LINE
  5
A0
100
AcDbEntity
  8
resister
  6
ByLayer
 62
  256
370
   -1
100
AcDbLine
 10
-0.6599999999999611
 20
-1.14999999999997
 11
-6.959999999999834
 21
-1.14999999999997
  0
LINE
  5
A1
100
AcDbEntity
  8
resister
  6
ByLayer
 62
  256
370
   -1
100
AcDbLine
 10
-6.959999999999834
 20
-1.14999999999997
 11
-6.95999999999982
 21
1.149999999999959
  0
LINE
  5
A2
100
AcDbEntity
  8
resister
  6
ByLayer
 62
  256
370
   -1
100
AcDbLine
 10
-6.95999999999982
 20
1.149999999999959
 11
-0.6599999999999611
 21
1.149999999999959
  0
LINE
  5
A3
100
AcDbEntity
  8
resister
  6
ByLayer
 62
  256
370
   -1
100
AcDbLine
 10
-6.95999999999982
 20
0
 11
-7.61999999999966
 21
0
  0
LINE
  5
A4
100
AcDbEntity
  8
resister
  6
ByLayer
 62
  256
370
   -1
100
AcDbLine
 10
3.694822225952521e-13
 20
0
 11
-0.6599999999999611
 21
0
  0
MTEXT
  5
A5
100
AcDbEntity
  8
resister
  6
ByLayer
 62
  256
370
   -1
100
AcDbMText
 10
-4.132042899777453
 20
0.05377778633712005
 30
0
 40
1
 41
1.333333333333333
 71
    5
 72
    1
  1
R0
  7
STANDARD
210
0
220
0
230
1
 50
270
 73
    2
 44
1
  0
ENDBLK
  5
7E
330
7C
100
AcDbEntity
  8
0
100
AcDbBlockEnd
  0
ENDSEC
  0
SECTION
  2
ENTITIES
  0
CIRCLE
  5
A6
100
AcDbEntity
  8
z_UniversalBoard
  6
ByLayer
 62
  256
370
   -1
100
AcDbCircle
 10
9.519999999998458
 20
46.16000000000015
 40
0.5
  0
CIRCLE
  5
A7
100
AcDbEntity
  8
z_UniversalBoard
  6
ByLayer
 62
  256
370
   -1
100
AcDbCircle
 10
9.519999999998447
 20
48.70000000000017
 40
0.5
  0
CIRCLE
  5
A8
100
AcDbEntity
  8
z_UniversalBoard
  6
ByLayer
 62
  256
370
   -1
100
AcDbCircle
 10
9.519999999998447
 20
51.24000000000019
 40
0.5
  0
CIRCLE
  5
A9
100
AcDbEntity
  8
z_UniversalBoard
  6
ByLayer
 62
  256
370
   -1
100
AcDbCircle
 10
9.51999999999844
 20
53.78000000000021
 40
0.5
  0
CIRCLE
  5
AA
100
AcDbEntity
  8
z_UniversalBoard
  6
ByLayer
 62
  256
370
   -1
100
AcDbCircle
 10
9.519999999998427
 20
56.32000000000023
 40
0.5
  0
CIRCLE
  5
AB
100
AcDbEntity
  8
z_UniversalBoard
  6
ByLayer
 62
  256
370
   -1
100
AcDbCircle
 10
9.519999999998415
 20
58.86000000000024
 40
0.5
  0
CIRCLE
  5
AC
100
AcDbEntity
  8
z_UniversalBoard
  6
ByLayer
 62
  256
370
   -1
100
AcDbCircle
 10
9.519999999998415
 20
61.40000000000026
 40
0.5
  0
CIRCLE
  5
AD
100
AcDbEntity
  8
z_UniversalBoard
  6
ByLayer
 62
  256
370
   -1
100
AcDbCircle
 10
9.519999999998408
 20
63.94000000000028
 40
0.5
  0
CIRCLE
  5
AE
100
AcDbEntity
  8
z_UniversalBoard
  6
ByLayer
 62
  256
370
   -1
100
AcDbCircle
 10
9.519999999998397
 20
66.48000000000032
 40
0.5
  0
CIRCLE
  5
AF
100
AcDbEntity
  8
z_UniversalBoard
  6
ByLayer
 62
  256
370
   -1
100
AcDbCircle
 10
12.05999999999834
 20
46.16000000000016
 40
0.5
  0
CIRCLE
  5
B0
100
AcDbEntity
  8
z_UniversalBoard
  6
ByLayer
 62
  256
370
   -1
100
AcDbCircle
 10
12.05999999999833
 20
48.70000000000018
 40
0.5
  0
CIRCLE
  5
B1
100
AcDbEntity
  8
z_UniversalBoard
  6
ByLayer
 62
  256
370
   -1
100
AcDbCircle
 10
12.05999999999833
 20
51.2400000000002
 40
0.5
  0
CIRCLE
  5
B2
100
AcDbEntity
  8
z_UniversalBoard
  6
ByLayer
 62
  256
370
   -1
100
AcDbCircle
 10
12.05999999999832
 20
53.78000000000022
 40
0.5
  0
CIRCLE
  5
B3
100
AcDbEntity
  8
z_UniversalBoard
  6
ByLayer
 62
  256
370
   -1
100
AcDbCircle
 10
12.05999999999831
 20
56.32000000000024
 40
0.5
  0
CIRCLE
  5
B4
100
AcDbEntity
  8
z_UniversalBoard
  6
ByLayer
 62
  256
370
   -1
100
AcDbCircle
 10
12.05999999999829
 20
58.86000000000026
 40
0.5
  0
CIRCLE
  5
B5
100
AcDbEntity
  8
z_UniversalBoard
  6
ByLayer
 62
  256
370
   -1
100
AcDbCircle
 10
12.05999999999829
 20
61.40000000000028
 40
0.5
  0
CIRCLE
  5
B6
100
AcDbEntity
  8
z_UniversalBoard
  6
ByLayer
 62
  256
370
   -1
100
AcDbCircle
 10
12.05999999999829
 20
63.9400000000003
 40
0.5
  0
CIRCLE
  5
B7
100
AcDbEntity
  8
z_UniversalBoard
  6
ByLayer
 62
  256
370
   -1
100
AcDbCircle
 10
12.05999999999828
 20
66.48000000000033
 40
0.5
  0
CIRCLE
  5
B8
100
AcDbEntity
  8
z_UniversalBoard
  6
ByLayer
 62
  256
370
   -1
100
AcDbCircle
 10
14.59999999999821
 20
46.16000000000017
 40
0.5
  0
CIRCLE
  5
B9
100
AcDbEntity
  8
z_UniversalBoard
  6
ByLayer
 62
  256
370
   -1
100
AcDbCircle
 10
14.5999999999982
 20
48.70000000000019
 40
0.5
  0
CIRCLE
  5
BA
100
AcDbEntity
  8
z_UniversalBoard
  6
ByLayer
 62
  256
370
   -1
100
AcDbCircle
 10
14.5999999999982
 20
51.24000000000022
 40
0.5
  0
CIRCLE
  5
BB
100
AcDbEntity
  8
z_UniversalBoard
  6
ByLayer
 62
  256
370
   -1
100
AcDbCircle
 10
14.5999999999982
 20
53.78000000000024
 40
0.5
  0
CIRCLE
  5
BC
100
AcDbEntity
  8
z_UniversalBoard
  6
ByLayer
 62
  256
370
   -1
100
AcDbCircle
 10
14.59999999999818
 20
56.32000000000026
 40
0.5
  0
CIRCLE
  5
BD
100
AcDbEntity
  8
z_UniversalBoard
  6
ByLayer
 62
  256
370
   -1
100
AcDbCircle
 10
14.59999999999817
 20
58.86000000000027
 40
0.5
  0
CIRCLE
  5
BE
100
AcDbEntity
  8
z_UniversalBoard
  6
ByLayer
 62
  256
370
   -1
100
AcDbCircle
 10
14.59999999999817
 20
61.40000000000029
 40
0.5
  0
CIRCLE
  5
BF
100
AcDbEntity
  8
z_UniversalBoard
  6
ByLayer
 62
  256
370
   -1
100
AcDbCircle
 10
14.59999999999816
 20
63.94000000000031
 40
0.5
  0
CIRCLE
  5
C0
100
AcDbEntity
  8
z_UniversalBoard
  6
ByLayer
 62
  256
370
   -1
100
AcDbCircle
 10
14.59999999999815
 20
66.48000000000035
 40
0.5
  0
CIRCLE
  5
C1
100
AcDbEntity
  8
z_UniversalBoard
  6
ByLayer
 62
  256
370
   -1
100
AcDbCircle
 10
17.13999999999809
 20
46.16000000000019
 40
0.5
  0
CIRCLE
  5
C2
100
AcDbEntity
  8
z_UniversalBoard
  6
ByLayer
 62
  256
370
   -1
100
AcDbCircle
 10
17.13999999999808
 20
48.70000000000021
 40
0.5
  0
CIRCLE
  5
C3
100
AcDbEntity
  8
z_UniversalBoard
  6
ByLayer
 62
  256
370
   -1
100
AcDbCircle
 10
17.13999999999808
 20
51.24000000000023
 40
0.5
  0
CIRCLE
  5
C4
100
AcDbEntity
  8
z_UniversalBoard
  6
ByLayer
 62
  256
370
   -1
100
AcDbCircle
 10
17.13999999999807
 20
53.78000000000025
 40
0.5
  0
CIRCLE
  5
C5
100
AcDbEntity
  8
z_UniversalBoard
  6
ByLayer
 62
  256
370
   -1
100
AcDbCircle
 10
17.13999999999806
 20
56.32000000000027
 40
0.5
  0
CIRCLE
  5
C6
100
AcDbEntity
  8
z_UniversalBoard
  6
ByLayer
 62
  256
370
   -1
100
AcDbCircle
 10
17.13999999999805
 20
58.86000000000028
 40
0.5
  0
CIRCLE
  5
C7
100
AcDbEntity
  8
z_UniversalBoard
  6
ByLayer
 62
  256
370
   -1
100
AcDbCircle
 10
17.13999999999805
 20
61.4000000000003
 40
0.5
  0
CIRCLE
  5
C8
100
AcDbEntity
  8
z_UniversalBoard
  6
ByLayer
 62
  256
370
   -1
100
AcDbCircle
 10
17.13999999999804
 20
63.94000000000032
 40
0.5
  0
CIRCLE
  5
C9
100
AcDbEntity
  8
z_UniversalBoard
  6
ByLayer
 62
  256
370
   -1
100
AcDbCircle
 10
17.13999999999803
 20
66.48000000000036
 40
0.5
  0
CIRCLE
  5
CA
100
AcDbEntity
  8
z_UniversalBoard
  6
ByLayer
 62
  256
370
   -1
100
AcDbCircle
 10
19.67999999999797
 20
46.1600000000002
 40
0.5
  0
CIRCLE
  5
CB
100
AcDbEntity
  8
z_UniversalBoard
  6
ByLayer
 62
  256
370
   -1
100
AcDbCircle
 10
19.67999999999796
 20
48.70000000000022
 40
0.5
  0
CIRCLE
  5
CC
100
AcDbEntity
  8
z_UniversalBoard
  6
ByLayer
 62
  256
370
   -1
100
AcDbCircle
 10
19.67999999999796
 20
51.24000000000024
 40
0.5
  0
CIRCLE
  5
CD
100
AcDbEntity
  8
z_UniversalBoard
  6
ByLayer
 62
  256
370
   -1
100
AcDbCircle
 10
19.67999999999795
 20
53.78000000000026
 40
0.5
  0
CIRCLE
  5
CE
100
AcDbEntity
  8
z_UniversalBoard
  6
ByLayer
 62
  256
370
   -1
100
AcDbCircle
 10
19.67999999999794
 20
56.32000000000028
 40
0.5
  0
CIRCLE
  5
CF
100
AcDbEntity
  8
z_UniversalBoard
  6
ByLayer
 62
  256
370
   -1
100
AcDbCircle
 10
19.67999999999793
 20
58.8600000000003
 40
0.5
  0
CIRCLE
  5
D0
100
AcDbEntity
  8
z_UniversalBoard
  6
ByLayer
 62
  256
370
   -1
100
AcDbCircle
 10
19.67999999999793
 20
61.40000000000032
 40
0.5
  0
CIRCLE
  5
D1
100
AcDbEntity
  8
z_UniversalBoard
  6
ByLayer
 62
  256
370
   -1
100
AcDbCircle
 10
19.67999999999792
 20
63.94000000000034
 40
0.5
  0
CIRCLE
  5
D2
100
AcDbEntity
  8
z_UniversalBoard
  6
ByLayer
 62
  256
370
   -1
100
AcDbCircle
 10
19.67999999999791
 20
66.48000000000037
 40
0.5
  0
CIRCLE
  5
D3
100
AcDbEntity
  8
z_UniversalBoard
  6
ByLayer
 62
  256
370
   -1
100
AcDbCircle
 10
22.21999999999785
 20
46.16000000000022
 40
0.5
  0
CIRCLE
  5
D4
100
AcDbEntity
  8
z_UniversalBoard
  6
ByLayer
 62
  256
370
   -1
100
AcDbCircle
 10
22.21999999999784
 20
48.70000000000024
 40
0.5
  0
CIRCLE
  5
D5
100
AcDbEntity
  8
z_UniversalBoard
  6
ByLayer
 62
  256
370
   -1
100
AcDbCircle
 10
22.21999999999784
 20
51.24000000000026
 40
0.5
  0
CIRCLE
  5
D6
100
AcDbEntity
  8
z_UniversalBoard
  6
ByLayer
 62
  256
370
   -1
100
AcDbCircle
 10
22.21999999999783
 20
53.78000000000028
 40
0.5
  0
CIRCLE
  5
D7
100
AcDbEntity
  8
z_UniversalBoard
  6
ByLayer
 62
  256
370
   -1
100
AcDbCircle
 10
22.21999999999782
 20
56.3200000000003
 40
0.5
  0
CIRCLE
  5
D8
100
AcDbEntity
  8
z_UniversalBoard
  6
ByLayer
 62
  256
370
   -1
100
AcDbCircle
 10
22.21999999999781
 20
58.86000000000031
 40
0.5
  0
CIRCLE
  5
D9
100
AcDbEntity
  8
z_UniversalBoard
  6
ByLayer
 62
  256
370
   -1
100
AcDbCircle
 10
22.21999999999781
 20
61.40000000000033
 40
0.5
  0
CIRCLE
  5
DA
100
AcDbEntity
  8
z_UniversalBoard
  6
ByLayer
 62
  256
370
   -1
100
AcDbCircle
 10
22.2199999999978
 20
63.94000000000035
 40
0.5
  0
CIRCLE
  5
DB
100
AcDbEntity
  8
z_UniversalBoard
  6
ByLayer
 62
  256
370
   -1
100
AcDbCircle
 10
22.21999999999779
 20
66.48000000000039
 40
0.5
  0
CIRCLE
  5
DC
100
AcDbEntity
  8
z_UniversalBoard
  6
ByLayer
 62
  256
370
   -1
100
AcDbCircle
 10
24.75999999999773
 20
46.16000000000023
 40
0.5
  0
CIRCLE
  5
DD
100
AcDbEntity
  8
z_UniversalBoard
  6
ByLayer
 62
  256
370
   -1
100
AcDbCircle
 10
24.75999999999772
 20
48.70000000000025
 40
0.5
  0
CIRCLE
  5
DE
100
AcDbEntity
  8
z_UniversalBoard
  6
ByLayer
 62
  256
370
   -1
100
AcDbCircle
 10
24.75999999999772
 20
51.24000000000027
 40
0.5
  0
CIRCLE
  5
DF
100
AcDbEntity
  8
z_UniversalBoard
  6
ByLayer
 62
  256
370
   -1
100
AcDbCircle
 10
24.75999999999771
 20
53.78000000000029
 40
0.5
  0
CIRCLE
  5
E0
100
AcDbEntity
  8
z_UniversalBoard
  6
ByLayer
 62
  256
370
   -1
100
AcDbCircle
 10
24.7599999999977
 20
56.32000000000031
 40
0.5
  0
CIRCLE
  5
E1
100
AcDbEntity
  8
z_UniversalBoard
  6
ByLayer
 62
  256
370
   -1
100
AcDbCircle
 10
24.75999999999769
 20
58.86000000000033
 40
0.5
  0
CIRCLE
  5
E2
100
AcDbEntity
  8
z_UniversalBoard
  6
ByLayer
 62
  256
370
   -1
100
AcDbCircle
 10
24.75999999999769
 20
61.40000000000035
 40
0.5
  0
CIRCLE
  5
E3
100
AcDbEntity
  8
z_UniversalBoard
  6
ByLayer
 62
  256
370
   -1
100
AcDbCircle
 10
24.75999999999768
 20
63.94000000000037
 40
0.5
  0
CIRCLE
  5
E4
100
AcDbEntity
  8
z_UniversalBoard
  6
ByLayer
 62
  256
370
   -1
100
AcDbCircle
 10
24.75999999999767
 20
66.4800000000004
 40
0.5
  0
CIRCLE
  5
E5
100
AcDbEntity
  8
z_UniversalBoard
  6
ByLayer
 62
  256
370
   -1
100
AcDbCircle
 10
27.29999999999761
 20
46.16000000000025
 40
0.5
  0
CIRCLE
  5
E6
100
AcDbEntity
  8
z_UniversalBoard
  6
ByLayer
 62
  256
370
   -1
100
AcDbCircle
 10
27.2999999999976
 20
48.70000000000027
 40
0.5
  0
CIRCLE
  5
E7
100
AcDbEntity
  8
z_UniversalBoard
  6
ByLayer
 62
  256
370
   -1
100
AcDbCircle
 10
27.2999999999976
 20
51.24000000000029
 40
0.5
  0
CIRCLE
  5
E8
100
AcDbEntity
  8
z_UniversalBoard
  6
ByLayer
 62
  256
370
   -1
100
AcDbCircle
 10
27.29999999999759
 20
53.78000000000031
 40
0.5
  0
CIRCLE
  5
E9
100
AcDbEntity
  8
z_UniversalBoard
  6
ByLayer
 62
  256
370
   -1
100
AcDbCircle
 10
27.29999999999757
 20
56.32000000000033
 40
0.5
  0
CIRCLE
  5
EA
100
AcDbEntity
  8
z_UniversalBoard
  6
ByLayer
 62
  256
370
   -1
100
AcDbCircle
 10
27.29999999999756
 20
58.86000000000034
 40
0.5
  0
CIRCLE
  5
EB
100
AcDbEntity
  8
z_UniversalBoard
  6
ByLayer
 62
  256
370
   -1
100
AcDbCircle
 10
27.29999999999756
 20
61.40000000000036
 40
0.5
  0
CIRCLE
  5
EC
100
AcDbEntity
  8
z_UniversalBoard
  6
ByLayer
 62
  256
370
   -1
100
AcDbCircle
 10
27.29999999999756
 20
63.94000000000038
 40
0.5
  0
CIRCLE
  5
ED
100
AcDbEntity
  8
z_UniversalBoard
  6
ByLayer
 62
  256
370
   -1
100
AcDbCircle
 10
27.29999999999755
 20
66.48000000000042
 40
0.5
  0
CIRCLE
  5
EE
100
AcDbEntity
  8
z_UniversalBoard
  6
ByLayer
 62
  256
370
   -1
100
AcDbCircle
 10
29.83999999999748
 20
46.16000000000026
 40
0.5
  0
CIRCLE
  5
EF
100
AcDbEntity
  8
z_UniversalBoard
  6
ByLayer
 62
  256
370
   -1
100
AcDbCircle
 10
29.83999999999747
 20
48.70000000000028
 40
0.5
  0
CIRCLE
  5
F0
100
AcDbEntity
  8
z_UniversalBoard
  6
ByLayer
 62
  256
370
   -1
100
AcDbCircle
 10
29.83999999999747
 20
51.2400000000003
 40
0.5
  0
CIRCLE
  5
F1
100
AcDbEntity
  8
z_UniversalBoard
  6
ByLayer
 62
  256
370
   -1
100
AcDbCircle
 10
29.83999999999747
 20
53.78000000000032
 40
0.5
  0
CIRCLE
  5
F2
100
AcDbEntity
  8
z_UniversalBoard
  6
ByLayer
 62
  256
370
   -1
100
AcDbCircle
 10
29.83999999999745
 20
56.32000000000034
 40
0.5
  0
CIRCLE
  5
F3
100
AcDbEntity
  8
z_UniversalBoard
  6
ByLayer
 62
  256
370
   -1
100
AcDbCircle
 10
29.83999999999744
 20
58.86000000000035
 40
0.5
  0
CIRCLE
  5
F4
100
AcDbEntity
  8
z_UniversalBoard
  6
ByLayer
 62
  256
370
   -1
100
AcDbCircle
 10
29.83999999999744
 20
61.40000000000038
 40
0.5
  0
CIRCLE
  5
F5
100
AcDbEntity
  8
z_UniversalBoard
  6
ByLayer
 62
  256
370
   -1
100
AcDbCircle
 10
29.83999999999743
 20
63.9400000000004
 40
0.5
  0
CIRCLE
  5
F6
100
AcDbEntity
  8
z_UniversalBoard
  6
ByLayer
 62
  256
370
   -1
100
AcDbCircle
 10
29.83999999999742
 20
66.48000000000043
 40
0.5
  0
CIRCLE
  5
F7
100
AcDbEntity
  8
z_UniversalBoard
  6
ByLayer
 62
  256
370
   -1
100
AcDbCircle
 10
32.37999999999737
 20
46.16000000000027
 40
0.5
  0
CIRCLE
  5
F8
100
AcDbEntity
  8
z_UniversalBoard
  6
ByLayer
 62
  256
370
   -1
100
AcDbCircle
 10
32.37999999999735
 20
48.70000000000029
 40
0.5
  0
CIRCLE
  5
F9
100
AcDbEntity
  8
z_UniversalBoard
  6
ByLayer
 62
  256
370
   -1
100
AcDbCircle
 10
32.37999999999735
 20
51.24000000000031
 40
0.5
  0
CIRCLE
  5
FA
100
AcDbEntity
  8
z_UniversalBoard
  6
ByLayer
 62
  256
370
   -1
100
AcDbCircle
 10
32.37999999999735
 20
53.78000000000034
 40
0.5
  0
CIRCLE
  5
FB
100
AcDbEntity
  8
z_UniversalBoard
  6
ByLayer
 62
  256
370
   -1
100
AcDbCircle
 10
32.37999999999733
 20
56.32000000000036
 40
0.5
  0
CIRCLE
  5
FC
100
AcDbEntity
  8
z_UniversalBoard
  6
ByLayer
 62
  256
370
   -1
100
AcDbCircle
 10
32.37999999999732
 20
58.86000000000037
 40
0.5
  0
CIRCLE
  5
FD
100
AcDbEntity
  8
z_UniversalBoard
  6
ByLayer
 62
  256
370
   -1
100
AcDbCircle
 10
32.37999999999732
 20
61.40000000000039
 40
0.5
  0
CIRCLE
  5
FE
100
AcDbEntity
  8
z_UniversalBoard
  6
ByLayer
 62
  256
370
   -1
100
AcDbCircle
 10
32.37999999999731
 20
63.94000000000041
 40
0.5
  0
CIRCLE
  5
FF
100
AcDbEntity
  8
z_UniversalBoard
  6
ByLayer
 62
  256
370
   -1
100
AcDbCircle
 10
32.3799999999973
 20
66.48000000000044
 40
0.5
  0
CIRCLE
  5
100
100
AcDbEntity
  8
z_UniversalBoard
  6
ByLayer
 62
  256
370
   -1
100
AcDbCircle
 10
34.91999999999724
 20
46.16000000000029
 40
0.5
  0
CIRCLE
  5
101
100
AcDbEntity
  8
z_UniversalBoard
  6
ByLayer
 62
  256
370
   -1
100
AcDbCircle
 10
34.91999999999723
 20
48.70000000000031
 40
0.5
  0
CIRCLE
  5
102
100
AcDbEntity
  8
z_UniversalBoard
  6
ByLayer
 62
  256
370
   -1
100
AcDbCircle
 10
34.91999999999723
 20
51.24000000000033
 40
0.5
  0
CIRCLE
  5
103
100
AcDbEntity
  8
z_UniversalBoard
  6
ByLayer
 62
  256
370
   -1
100
AcDbCircle
 10
34.91999999999722
 20
53.78000000000035
 40
0.5
  0
CIRCLE
  5
104
100
AcDbEntity
  8
z_UniversalBoard
  6
ByLayer
 62
  256
370
   -1
100
AcDbCircle
 10
34.91999999999721
 20
56.32000000000037
 40
0.5
  0
CIRCLE
  5
105
100
AcDbEntity
  8
z_UniversalBoard
  6
ByLayer
 62
  256
370
   -1
100
AcDbCircle
 10
34.9199999999972
 20
58.86000000000038
 40
0.5
  0
CIRCLE
  5
106
100
AcDbEntity
  8
z_UniversalBoard
  6
ByLayer
 62
  256
370
   -1
100
AcDbCircle
 10
34.9199999999972
 20
61.4000000000004
 40
0.5
  0
CIRCLE
  5
107
100
AcDbEntity
  8
z_UniversalBoard
  6
ByLayer
 62
  256
370
   -1
100
AcDbCircle
 10
34.91999999999719
 20
63.94000000000042
 40
0.5
  0
CIRCLE
  5
108
100
AcDbEntity
  8
z_UniversalBoard
  6
ByLayer
 62
  256
370
   -1
100
AcDbCircle
 10
34.91999999999718
 20
66.48000000000046
 40
0.5
  0
CIRCLE
  5
109
100
AcDbEntity
  8
z_UniversalBoard
  6
ByLayer
 62
  256
370
   -1
100
AcDbCircle
 10
37.45999999999712
 20
46.1600000000003
 40
0.5
  0
CIRCLE
  5
10A
100
AcDbEntity
  8
z_UniversalBoard
  6
ByLayer
 62
  256
370
   -1
100
AcDbCircle
 10
37.45999999999711
 20
48.70000000000032
 40
0.5
  0
CIRCLE
  5
10B
100
AcDbEntity
  8
z_UniversalBoard
  6
ByLayer
 62
  256
370
   -1
100
AcDbCircle
 10
37.45999999999711
 20
51.24000000000034
 40
0.5
  0
CIRCLE
  5
10C
100
AcDbEntity
  8
z_UniversalBoard
  6
ByLayer
 62
  256
370
   -1
100
AcDbCircle
 10
37.4599999999971
 20
53.78000000000036
 40
0.5
  0
CIRCLE
  5
10D
100
AcDbEntity
  8
z_UniversalBoard
  6
ByLayer
 62
  256
370
   -1
100
AcDbCircle
 10
37.45999999999709
 20
56.32000000000038
 40
0.5
  0
CIRCLE
  5
10E
100
AcDbEntity
  8
z_UniversalBoard
  6
ByLayer
 62
  256
370
   -1
100
AcDbCircle
 10
37.45999999999708
 20
58.8600000000004
 40
0.5
  0
CIRCLE
  5
10F
100
AcDbEntity
  8
z_UniversalBoard
  6
ByLayer
 62
  256
370
   -1
100
AcDbCircle
 10
37.45999999999708
 20
61.40000000000042
 40
0.5
  0
CIRCLE
  5
110
100
AcDbEntity
  8
z_UniversalBoard
  6
ByLayer
 62
  256
370
   -1
100
AcDbCircle
 10
37.45999999999707
 20
63.94000000000044
 40
0.5
  0
CIRCLE
  5
111
100
AcDbEntity
  8
z_UniversalBoard
  6
ByLayer
 62
  256
370
   -1
100
AcDbCircle
 10
37.45999999999706
 20
66.48000000000047
 40
0.5
  0
CIRCLE
  5
112
100
AcDbEntity
  8
z_UniversalBoard
  6
ByLayer
 62
  256
370
   -1
100
AcDbCircle
 10
39.999999999997
 20
46.16000000000032
 40
0.5
  0
CIRCLE
  5
113
100
AcDbEntity
  8
z_UniversalBoard
  6
ByLayer
 62
  256
370
   -1
100
AcDbCircle
 10
39.99999999999699
 20
48.70000000000034
 40
0.5
  0
CIRCLE
  5
114
100
AcDbEntity
  8
z_UniversalBoard
  6
ByLayer
 62
  256
370
   -1
100
AcDbCircle
 10
39.99999999999699
 20
51.24000000000036
 40
0.5
  0
CIRCLE
  5
115
100
AcDbEntity
  8
z_UniversalBoard
  6
ByLayer
 62
  256
370
   -1
100
AcDbCircle
 10
39.99999999999698
 20
53.78000000000038
 40
0.5
  0
CIRCLE
  5
116
100
AcDbEntity
  8
z_UniversalBoard
  6
ByLayer
 62
  256
370
   -1
100
AcDbCircle
 10
39.99999999999697
 20
56.3200000000004
 40
0.5
  0
CIRCLE
  5
117
100
AcDbEntity
  8
z_UniversalBoard
  6
ByLayer
 62
  256
370
   -1
100
AcDbCircle
 10
39.99999999999696
 20
58.86000000000041
 40
0.5
  0
CIRCLE
  5
118
100
AcDbEntity
  8
z_UniversalBoard
  6
ByLayer
 62
  256
370
   -1
100
AcDbCircle
 10
39.99999999999696
 20
61.40000000000043
 40
0.5
  0
CIRCLE
  5
119
100
AcDbEntity
  8
z_UniversalBoard
  6
ByLayer
 62
  256
370
   -1
100
AcDbCircle
 10
39.99999999999694
 20
63.94000000000045
 40
0.5
  0
CIRCLE
  5
11A
100
AcDbEntity
  8
z_UniversalBoard
  6
ByLayer
 62
  256
370
   -1
100
AcDbCircle
 10
39.99999999999694
 20
66.48000000000049
 40
0.5
  0
CIRCLE
  5
11B
100
AcDbEntity
  8
z_UniversalBoard
  6
ByLayer
 62
  256
370
   -1
100
AcDbCircle
 10
42.53999999999688
 20
46.16000000000033
 40
0.5
  0
CIRCLE
  5
11C
100
AcDbEntity
  8
z_UniversalBoard
  6
ByLayer
 62
  256
370
   -1
100
AcDbCircle
 10
42.53999999999687
 20
48.70000000000035
 40
0.5
  0
CIRCLE
  5
11D
100
AcDbEntity
  8
z_UniversalBoard
  6
ByLayer
 62
  256
370
   -1
100
AcDbCircle
 10
42.53999999999687
 20
51.24000000000037
 40
0.5
  0
CIRCLE
  5
11E
100
AcDbEntity
  8
z_UniversalBoard
  6
ByLayer
 62
  256
370
   -1
100
AcDbCircle
 10
42.53999999999686
 20
53.78000000000039
 40
0.5
  0
CIRCLE
  5
11F
100
AcDbEntity
  8
z_UniversalBoard
  6
ByLayer
 62
  256
370
   -1
100
AcDbCircle
 10
42.53999999999684
 20
56.32000000000041
 40
0.5
  0
CIRCLE
  5
120
100
AcDbEntity
  8
z_UniversalBoard
  6
ByLayer
 62
  256
370
   -1
100
AcDbCircle
 10
42.53999999999684
 20
58.86000000000043
 40
0.5
  0
CIRCLE
  5
121
100
AcDbEntity
  8
z_UniversalBoard
  6
ByLayer
 62
  256
370
   -1
100
AcDbCircle
 10
42.53999999999684
 20
61.40000000000045
 40
0.5
  0
CIRCLE
  5
122
100
AcDbEntity
  8
z_UniversalBoard
  6
ByLayer
 62
  256
370
   -1
100
AcDbCircle
 10
42.53999999999682
 20
63.94000000000047
 40
0.5
  0
CIRCLE
  5
123
100
AcDbEntity
  8
z_UniversalBoard
  6
ByLayer
 62
  256
370
   -1
100
AcDbCircle
 10
42.53999999999682
 20
66.4800000000005
 40
0.5
  0
CIRCLE
  5
124
100
AcDbEntity
  8
z_UniversalBoard
  6
ByLayer
 62
  256
370
   -1
100
AcDbCircle
 10
45.07999999999676
 20
46.16000000000034
 40
0.5
  0
CIRCLE
  5
125
100
AcDbEntity
  8
z_UniversalBoard
  6
ByLayer
 62
  256
370
   -1
100
AcDbCircle
 10
45.07999999999674
 20
48.70000000000037
 40
0.5
  0
CIRCLE
  5
126
100
AcDbEntity
  8
z_UniversalBoard
  6
ByLayer
 62
  256
370
   -1
100
AcDbCircle
 10
45.07999999999674
 20
51.24000000000039
 40
0.5
  0
CIRCLE
  5
127
100
AcDbEntity
  8
z_UniversalBoard
  6
ByLayer
 62
  256
370
   -1
100
AcDbCircle
 10
45.07999999999674
 20
53.78000000000041
 40
0.5
  0
CIRCLE
  5
128
100
AcDbEntity
  8
z_UniversalBoard
  6
ByLayer
 62
  256
370
   -1
100
AcDbCircle
 10
45.07999999999672
 20
56.32000000000043
 40
0.5
  0
CIRCLE
  5
129
100
AcDbEntity
  8
z_UniversalBoard
  6
ByLayer
 62
  256
370
   -1
100
AcDbCircle
 10
45.07999999999672
 20
58.86000000000044
 40
0.5
  0
CIRCLE
  5
12A
100
AcDbEntity
  8
z_UniversalBoard
  6
ByLayer
 62
  256
370
   -1
100
AcDbCircle
 10
45.07999999999672
 20
61.40000000000046
 40
0.5
  0
CIRCLE
  5
12B
100
AcDbEntity
  8
z_UniversalBoard
  6
ByLayer
 62
  256
370
   -1
100
AcDbCircle
 10
45.0799999999967
 20
63.94000000000048
 40
0.5
  0
CIRCLE
  5
12C
100
AcDbEntity
  8
z_UniversalBoard
  6
ByLayer
 62
  256
370
   -1
100
AcDbCircle
 10
45.07999999999669
 20
66.48000000000052
 40
0.5
  0
LINE
  5
12D
100
AcDbEntity
  8
pin socket
  6
ByLayer
 62
  256
370
   -1
100
AcDbLine
 10
8.249999999998352
 20
47.43000000000039
 11
10.78999999999854
 21
47.43000000000039
  0
LINE
  5
12E
100
AcDbEntity
  8
pin socket
  6
ByLayer
 62
  256
370
   -1
100
AcDbLine
 10
10.78999999999854
 20
44.89000000000038
 11
10.78999999999854
 21
47.42999999999991
  0
LINE
  5
12F
100
AcDbEntity
  8
pin socket
  6
ByLayer
 62
  256
370
   -1
100
AcDbLine
 10
8.249999999998352
 20
47.42999999999991
 11
8.249999999998352
 21
44.89000000000038
  0
LINE
  5
130
100
AcDbEntity
  8
pin socket
  6
ByLayer
 62
  256
370
   -1
100
AcDbLine
 10
8.249999999998352
 20
44.89000000000038
 11
10.78999999999854
 21
44.89000000000038
  0
CIRCLE
  5
131
100
AcDbEntity
  8
pin socket
  6
ByLayer
 62
  256
370
   -1
100
AcDbCircle
 10
9.519999999998454
 20
46.16000000000014
 40
0.45
  0
LINE
  5
132
100
AcDbEntity
  8
pin socket
  6
ByLayer
 62
  256
370
   -1
100
AcDbLine
 10
8.249999999998344
 20
49.97000000000043
 11
10.78999999999853
 21
49.97000000000043
  0
LINE
  5
133
100
AcDbEntity
  8
pin socket
  6
ByLayer
 62
  256
370
   -1
100
AcDbLine
 10
10.78999999999853
 20
47.43000000000042
 11
10.78999999999853
 21
49.96999999999994
  0
LINE
  5
134
100
AcDbEntity
  8
pin socket
  6
ByLayer
 62
  256
370
   -1
100
AcDbLine
 10
8.249999999998344
 20
49.96999999999994
 11
8.249999999998344
 21
47.43000000000042
  0
LINE
  5
135
100
AcDbEntity
  8
pin socket
  6
ByLayer
 62
  256
370
   -1
100
AcDbLine
 10
8.249999999998344
 20
47.43000000000042
 11
10.78999999999853
 21
47.43000000000042
  0
CIRCLE
  5
136
100
AcDbEntity
  8
pin socket
  6
ByLayer
 62
  256
370
   -1
100
AcDbCircle
 10
9.51999999999844
 20
48.70000000000017
 40
0.45
  0
LINE
  5
137
100
AcDbEntity
  8
pin socket
  6
ByLayer
 62
  256
370
   -1
100
AcDbLine
 10
8.249999999998344
 20
52.51000000000047
 11
10.78999999999853
 21
52.51000000000047
  0
LINE
  5
138
100
AcDbEntity
  8
pin socket
  6
ByLayer
 62
  256
370
   -1
100
AcDbLine
 10
10.78999999999853
 20
49.97000000000045
 11
10.78999999999853
 21
52.50999999999998
  0
LINE
  5
139
100
AcDbEntity
  8
pin socket
  6
ByLayer
 62
  256
370
   -1
100
AcDbLine
 10
8.249999999998344
 20
52.50999999999998
 11
8.249999999998344
 21
49.97000000000045
  0
LINE
  5
13A
100
AcDbEntity
  8
pin socket
  6
ByLayer
 62
  256
370
   -1
100
AcDbLine
 10
8.249999999998344
 20
49.97000000000045
 11
10.78999999999853
 21
49.97000000000045
  0
CIRCLE
  5
13B
100
AcDbEntity
  8
pin socket
  6
ByLayer
 62
  256
370
   -1
100
AcDbCircle
 10
9.519999999998433
 20
51.2400000000002
 40
0.45
  0
LINE
  5
13C
100
AcDbEntity
  8
pin socket
  6
ByLayer
 62
  256
370
   -1
100
AcDbLine
 10
8.24999999999833
 20
55.05000000000049
 11
10.78999999999852
 21
55.05000000000049
  0
LINE
  5
13D
100
AcDbEntity
  8
pin socket
  6
ByLayer
 62
  256
370
   -1
100
AcDbLine
 10
10.78999999999852
 20
52.51000000000048
 11
10.78999999999852
 21
55.05000000000001
  0
LINE
  5
13E
100
AcDbEntity
  8
pin socket
  6
ByLayer
 62
  256
370
   -1
100
AcDbLine
 10
8.24999999999833
 20
55.05000000000001
 11
8.24999999999833
 21
52.51000000000048
  0
LINE
  5
13F
100
AcDbEntity
  8
pin socket
  6
ByLayer
 62
  256
370
   -1
100
AcDbLine
 10
8.24999999999833
 20
52.51000000000048
 11
10.78999999999852
 21
52.51000000000048
  0
CIRCLE
  5
140
100
AcDbEntity
  8
pin socket
  6
ByLayer
 62
  256
370
   -1
100
AcDbCircle
 10
9.519999999998419
 20
53.78000000000024
 40
0.45
  0
MTEXT
  5
141
100
AcDbEntity
  8
pin socket
  6
ByLayer
 62
  256
370
   -1
100
AcDbMText
 10
7.360069694211823
 20
49.90780568556183
 30
0
 40
1
 41
1.333333333333457
 71
    5
 72
    1
  1
D8\PD7\PD6\PD5
  7
iso
210
0
220
0
230
1
 50
180
 73
    2
 44
1.54
  0
LINE
  5
142
100
AcDbEntity
  8
pin socket
  6
ByLayer
 62
  256
370
   -1
100
AcDbLine
 10
43.80999999999661
 20
65.21000000000075
 11
46.34999999999679
 21
65.21000000000075
  0
LINE
  5
143
100
AcDbEntity
  8
pin socket
  6
ByLayer
 62
  256
370
   -1
100
AcDbLine
 10
46.34999999999679
 20
62.67000000000073
 11
46.34999999999679
 21
65.21000000000025
  0
LINE
  5
144
100
AcDbEntity
  8
pin socket
  6
ByLayer
 62
  256
370
   -1
100
AcDbLine
 10
43.80999999999661
 20
65.21000000000025
 11
43.80999999999661
 21
62.67000000000073
  0
LINE
  5
145
100
AcDbEntity
  8
pin socket
  6
ByLayer
 62
  256
370
   -1
100
AcDbLine
 10
43.80999999999661
 20
62.67000000000073
 11
46.34999999999679
 21
62.67000000000073
  0
CIRCLE
  5
146
100
AcDbEntity
  8
pin socket
  6
ByLayer
 62
  256
370
   -1
100
AcDbCircle
 10
45.07999999999669
 20
63.94000000000048
 40
0.45
  0
LINE
  5
147
100
AcDbEntity
  8
pin socket
  6
ByLayer
 62
  256
370
   -1
100
AcDbLine
 10
43.80999999999659
 20
67.75000000000077
 11
46.34999999999678
 21
67.75000000000077
  0
LINE
  5
148
100
AcDbEntity
  8
pin socket
  6
ByLayer
 62
  256
370
   -1
100
AcDbLine
 10
46.34999999999678
 20
65.21000000000075
 11
46.34999999999678
 21
67.75000000000027
  0
LINE
  5
149
100
AcDbEntity
  8
pin socket
  6
ByLayer
 62
  256
370
   -1
100
AcDbLine
 10
43.80999999999659
 20
67.75000000000027
 11
43.80999999999659
 21
65.21000000000075
  0
LINE
  5
14A
100
AcDbEntity
  8
pin socket
  6
ByLayer
 62
  256
370
   -1
100
AcDbLine
 10
43.80999999999659
 20
65.21000000000075
 11
46.34999999999678
 21
65.21000000000075
  0
CIRCLE
  5
14B
100
AcDbEntity
  8
pin socket
  6
ByLayer
 62
  256
370
   -1
100
AcDbCircle
 10
45.07999999999669
 20
66.4800000000005
 40
0.45
  0
LINE
  5
14C
100
AcDbEntity
  8
pin socket
  6
ByLayer
 62
  256
370
   -1
100
AcDbLine
 10
43.80999999999665
 20
47.43000000000059
 11
46.34999999999684
 21
47.43000000000059
  0
LINE
  5
14D
100
AcDbEntity
  8
pin socket
  6
ByLayer
 62
  256
370
   -1
100
AcDbLine
 10
46.34999999999684
 20
44.89000000000058
 11
46.34999999999684
 21
47.43000000000011
  0
LINE
  5
14E
100
AcDbEntity
  8
pin socket
  6
ByLayer
 62
  256
370
   -1
100
AcDbLine
 10
43.80999999999665
 20
47.43000000000011
 11
43.80999999999665
 21
44.89000000000058
  0
LINE
  5
14F
100
AcDbEntity
  8
pin socket
  6
ByLayer
 62
  256
370
   -1
100
AcDbLine
 10
43.80999999999665
 20
44.89000000000058
 11
46.34999999999684
 21
44.89000000000058
  0
CIRCLE
  5
150
100
AcDbEntity
  8
pin socket
  6
ByLayer
 62
  256
370
   -1
100
AcDbCircle
 10
45.07999999999674
 20
46.16000000000034
 40
0.45
  0
LINE
  5
151
100
AcDbEntity
  8
pin socket
  6
ByLayer
 62
  256
370
   -1
100
AcDbLine
 10
43.80999999999664
 20
49.97000000000062
 11
46.34999999999683
 21
49.97000000000062
  0
LINE
  5
152
100
AcDbEntity
  8
pin socket
  6
ByLayer
 62
  256
370
   -1
100
AcDbLine
 10
46.34999999999683
 20
47.4300000000006
 11
46.34999999999683
 21
49.97000000000013
  0
LINE
  5
153
100
AcDbEntity
  8
pin socket
  6
ByLayer
 62
  256
370
   -1
100
AcDbLine
 10
43.80999999999664
 20
49.97000000000013
 11
43.80999999999664
 21
47.4300000000006
  0
LINE
  5
154
100
AcDbEntity
  8
pin socket
  6
ByLayer
 62
  256
370
   -1
100
AcDbLine
 10
43.80999999999664
 20
47.4300000000006
 11
46.34999999999683
 21
47.4300000000006
  0
CIRCLE
  5
155
100
AcDbEntity
  8
pin socket
  6
ByLayer
 62
  256
370
   -1
100
AcDbCircle
 10
45.07999999999673
 20
48.70000000000035
 40
0.45
  0
CIRCLE
  5
156
100
AcDbEntity
  8
resister
  6
ByLayer
 62
  256
370
   -1
100
AcDbCircle
 10
14.59999999999821
 20
46.16000000000017
 40
0.25
  0
LINE
  5
157
100
AcDbEntity
  8
resister
  6
ByLayer
 62
  256
370
   -1
100
AcDbLine
 10
15.60999999999817
 20
45.06000000000033
 11
21.20999999999819
 21
45.06000000000033
  0
LINE
  5
158
100
AcDbEntity
  8
resister
  6
ByLayer
 62
  256
370
   -1
100
AcDbLine
 10
21.20999999999819
 20
45.06000000000033
 11
21.20999999999819
 21
47.25999999999999
  0
LINE
  5
159
100
AcDbEntity
  8
resister
  6
ByLayer
 62
  256
370
   -1
100
AcDbLine
 10
21.20999999999819
 20
47.25999999999999
 11
15.60999999999817
 21
47.25999999999999
  0
LINE
  5
15A
100
AcDbEntity
  8
resister
  6
ByLayer
 62
  256
370
   -1
100
AcDbLine
 10
15.60999999999817
 20
47.25999999999999
 11
15.60999999999817
 21
45.06000000000033
  0
CIRCLE
  5
15B
100
AcDbEntity
  8
resister
  6
ByLayer
 62
  256
370
   -1
100
AcDbCircle
 10
22.21999999999825
 20
46.16000000000017
 40
0.25
  0
LINE
  5
15C
100
AcDbEntity
  8
resister
  6
ByLayer
 62
  256
370
   -1
100
AcDbLine
 10
14.59999999999821
 20
46.16000000000017
 11
15.60999999999817
 21
46.16000000000017
  0
LINE
  5
15D
100
AcDbEntity
  8
resister
  6
ByLayer
 62
  256
370
   -1
100
AcDbLine
 10
21.20999999999819
 20
46.16000000000017
 11
22.21999999999825
 21
46.16000000000017
  0
CIRCLE
  5
15E
100
AcDbEntity
  8
resister
  6
ByLayer
 62
  256
370
   -1
100
AcDbCircle
 10
14.5999999999982
 20
48.7000000000002
 40
0.25
  0
LINE
  5
15F
100
AcDbEntity
  8
resister
  6
ByLayer
 62
  256
370
   -1
100
AcDbLine
 10
15.60999999999816
 20
47.60000000000036
 11
21.20999999999819
 21
47.60000000000036
  0
LINE
  5
160
100
AcDbEntity
  8
resister
  6
ByLayer
 62
  256
370
   -1
100
AcDbLine
 10
21.20999999999819
 20
47.60000000000036
 11
21.20999999999819
 21
49.80000000000003
  0
LINE
  5
161
100
AcDbEntity
  8
resister
  6
ByLayer
 62
  256
370
   -1
100
AcDbLine
 10
21.20999999999819
 20
49.80000000000003
 11
15.60999999999816
 21
49.80000000000003
  0
LINE
  5
162
100
AcDbEntity
  8
resister
  6
ByLayer
 62
  256
370
   -1
100
AcDbLine
 10
15.60999999999816
 20
49.80000000000003
 11
15.60999999999816
 21
47.60000000000036
  0
CIRCLE
  5
163
100
AcDbEntity
  8
resister
  6
ByLayer
 62
  256
370
   -1
100
AcDbCircle
 10
22.21999999999824
 20
48.7000000000002
 40
0.25
  0
LINE
  5
164
100
AcDbEntity
  8
resister
  6
ByLayer
 62
  256
370
   -1
100
AcDbLine
 10
14.5999999999982
 20
48.7000000000002
 11
15.60999999999816
 21
48.7000000000002
  0
LINE
  5
165
100
AcDbEntity
  8
resister
  6
ByLayer
 62
  256
370
   -1
100
AcDbLine
 10
21.20999999999819
 20
48.7000000000002
 11
22.21999999999824
 21
48.7000000000002
  0
CIRCLE
  5
166
100
AcDbEntity
  8
resister
  6
ByLayer
 62
  256
370
   -1
100
AcDbCircle
 10
14.5999999999982
 20
51.24000000000024
 40
0.25
  0
LINE
  5
167
100
AcDbEntity
  8
resister
  6
ByLayer
 62
  256
370
   -1
100
AcDbLine
 10
15.60999999999816
 20
50.14000000000039
 11
21.20999999999818
 21
50.14000000000039
  0
LINE
  5
168
100
AcDbEntity
  8
resister
  6
ByLayer
 62
  256
370
   -1
100
AcDbLine
 10
21.20999999999818
 20
50.14000000000039
 11
21.20999999999818
 21
52.34000000000007
  0
LINE
  5
169
100
AcDbEntity
  8
resister
  6
ByLayer
 62
  256
370
   -1
100
AcDbLine
 10
21.20999999999818
 20
52.34000000000007
 11
15.60999999999816
 21
52.34000000000007
  0
LINE
  5
16A
100
AcDbEntity
  8
resister
  6
ByLayer
 62
  256
370
   -1
100
AcDbLine
 10
15.60999999999816
 20
52.34000000000007
 11
15.60999999999816
 21
50.14000000000039
  0
CIRCLE
  5
16B
100
AcDbEntity
  8
resister
  6
ByLayer
 62
  256
370
   -1
100
AcDbCircle
 10
22.21999999999824
 20
51.24000000000024
 40
0.25
  0
LINE
  5
16C
100
AcDbEntity
  8
resister
  6
ByLayer
 62
  256
370
   -1
100
AcDbLine
 10
14.5999999999982
 20
51.24000000000024
 11
15.60999999999816
 21
51.24000000000024
  0
LINE
  5
16D
100
AcDbEntity
  8
resister
  6
ByLayer
 62
  256
370
   -1
100
AcDbLine
 10
21.20999999999818
 20
51.24000000000024
 11
22.21999999999824
 21
51.24000000000024
  0
CIRCLE
  5
16E
100
AcDbEntity
  8
resister
  6
ByLayer
 62
  256
370
   -1
100
AcDbCircle
 10
14.59999999999819
 20
53.78000000000027
 40
0.25
  0
LINE
  5
16F
100
AcDbEntity
  8
resister
  6
ByLayer
 62
  256
370
   -1
100
AcDbLine
 10
15.60999999999815
 20
52.68000000000043
 11
21.20999999999817
 21
52.68000000000043
  0
LINE
  5
170
100
AcDbEntity
  8
resister
  6
ByLayer
 62
  256
370
   -1
100
AcDbLine
 10
21.20999999999817
 20
52.68000000000043
 11
21.20999999999817
 21
54.88000000000009
  0
LINE
  5
171
100
AcDbEntity
  8
resister
  6
ByLayer
 62
  256
370
   -1
100
AcDbLine
 10
21.20999999999817
 20
54.88000000000009
 11
15.60999999999815
 21
54.88000000000009
  0
LINE
  5
172
100
AcDbEntity
  8
resister
  6
ByLayer
 62
  256
370
   -1
100
AcDbLine
 10
15.60999999999815
 20
54.88000000000009
 11
15.60999999999815
 21
52.68000000000043
  0
CIRCLE
  5
173
100
AcDbEntity
  8
resister
  6
ByLayer
 62
  256
370
   -1
100
AcDbCircle
 10
22.21999999999823
 20
53.78000000000027
 40
0.25
  0
LINE
  5
174
100
AcDbEntity
  8
resister
  6
ByLayer
 62
  256
370
   -1
100
AcDbLine
 10
14.59999999999819
 20
53.78000000000027
 11
15.60999999999815
 21
53.78000000000027
  0
LINE
  5
175
100
AcDbEntity
  8
resister
  6
ByLayer
 62
  256
370
   -1
100
AcDbLine
 10
21.20999999999817
 20
53.78000000000027
 11
22.21999999999823
 21
53.78000000000027
  0
MTEXT
  5
176
100
AcDbEntity
  8
resister
  6
ByLayer
 62
  256
370
   -1
100
AcDbMText
 10
18.279630466091
 20
48.57362421284665
 30
0
 40
1
 41
1.333333333333395
 71
    5
 72
    1
  1
R3
  7
STANDARD
210
0
220
0
230
1
 50
180
 73
    2
 44
1
  0
MTEXT
  5
177
100
AcDbEntity
  8
resister
  6
ByLayer
 62
  256
370
   -1
100
AcDbMText
 10
18.27963046609099
 20
51.11362421284669
 30
0
 40
1
 41
1.333333333333333
 71
    5
 72
    1
  1
R2
  7
STANDARD
210
0
220
0
230
1
 50
180
 73
    2
 44
1
  0
LINE
  5
178
100
AcDbEntity
  8
0_wire
  6
ByLayer
 62
  256
370
   -1
100
AcDbLine
 10
9.519999999998454
 20
46.16000000000014
 11
14.5999999999982
 21
46.16000000000017
  0
LINE
  5
179
100
AcDbEntity
  8
0_wire
  6
ByLayer
 62
  256
370
   -1
100
AcDbLine
 10
9.51999999999844
 20
48.70000000000017
 11
14.5999999999982
 21
48.7000000000002
  0
LINE
  5
17A
100
AcDbEntity
  8
0_wire
  6
ByLayer
 62
  256
370
   -1
100
AcDbLine
 10
9.519999999998433
 20
51.2400000000002
 11
14.5999999999982
 21
51.24000000000024
  0
LINE
  5
17B
100
AcDbEntity
  8
0_wire
  6
ByLayer
 62
  256
370
   -1
100
AcDbLine
 10
9.519999999998419
 20
53.78000000000024
 11
14.59999999999819
 21
53.78000000000027
  0
MTEXT
  5
17C
100
AcDbEntity
  8
resister
  6
ByLayer
 62
  256
370
   -1
100
AcDbMText
 10
18.27963046609098
 20
53.65362421284672
 30
0
 40
1
 41
1.111111111111111
 71
    5
 72
    1
  1
R1
  7
STANDARD
210
0
220
0
230
1
 50
180
 73
    2
 44
1
  0
MTEXT
  5
17D
100
AcDbEntity
  8
resister
  6
ByLayer
 62
  256
370
   -1
100
AcDbMText
 10
18.27963046609101
 20
46.03362421284662
 30
0
 40
1
 41
1.444444444444444
 71
    5
 72
    1
  1
R4
  7
STANDARD
210
0
220
0
230
1
 50
180
 73
    2
 44
1
  0
LINE
  5
17E
100
AcDbEntity
  8
pin socket
  6
ByLayer
 62
  256
370
   -1
100
AcDbLine
 10
8.249999999998309
 20
65.21000000000053
 11
10.7899999999985
 21
65.21000000000053
  0
LINE
  5
17F
100
AcDbEntity
  8
pin socket
  6
ByLayer
 62
  256
370
   -1
100
AcDbLine
 10
10.7899999999985
 20
62.67000000000053
 11
10.7899999999985
 21
65.21000000000006
  0
LINE
  5
180
100
AcDbEntity
  8
pin socket
  6
ByLayer
 62
  256
370
   -1
100
AcDbLine
 10
8.249999999998309
 20
65.21000000000006
 11
8.249999999998309
 21
62.67000000000053
  0
LINE
  5
181
100
AcDbEntity
  8
pin socket
  6
ByLayer
 62
  256
370
   -1
100
AcDbLine
 10
8.249999999998309
 20
62.67000000000053
 11
10.7899999999985
 21
62.67000000000053
  0
CIRCLE
  5
182
100
AcDbEntity
  8
pin socket
  6
ByLayer
 62
  256
370
   -1
100
AcDbCircle
 10
9.519999999998404
 20
63.94000000000028
 40
0.45
  0
LINE
  5
183
100
AcDbEntity
  8
pin socket
  6
ByLayer
 62
  256
370
   -1
100
AcDbLine
 10
8.249999999998302
 20
67.75000000000057
 11
10.78999999999849
 21
67.75000000000057
  0
LINE
  5
184
100
AcDbEntity
  8
pin socket
  6
ByLayer
 62
  256
370
   -1
100
AcDbLine
 10
10.78999999999849
 20
65.21000000000055
 11
10.78999999999849
 21
67.75000000000007
  0
LINE
  5
185
100
AcDbEntity
  8
pin socket
  6
ByLayer
 62
  256
370
   -1
100
AcDbLine
 10
8.249999999998302
 20
67.75000000000007
 11
8.249999999998302
 21
65.21000000000055
  0
LINE
  5
186
100
AcDbEntity
  8
pin socket
  6
ByLayer
 62
  256
370
   -1
100
AcDbLine
 10
8.249999999998302
 20
65.21000000000055
 11
10.78999999999849
 21
65.21000000000055
  0
CIRCLE
  5
187
100
AcDbEntity
  8
pin socket
  6
ByLayer
 62
  256
370
   -1
100
AcDbCircle
 10
9.519999999998404
 20
66.4800000000003
 40
0.45
  0
MTEXT
  5
188
100
AcDbEntity
  8
pin socket
  6
ByLayer
 62
  256
370
   -1
100
AcDbMText
 10
8.071581115288481
 20
66.7066799993589
 30
0
 40
1
 41
2.222222222222284
 71
    4
 72
    1
  1
PH3
  7
iso
210
0
220
0
230
1
 50
180
 73
    2
 44
1.54
  0
MTEXT
  5
189
100
AcDbEntity
  8
pin socket
  6
ByLayer
 62
  256
370
   -1
100
AcDbMText
 10
10.20827358015413
 20
43.74602458418035
 30
0
 40
1
 41
2.333333333333333
 71
    4
 72
    1
  1
PH4
  7
iso
210
0
220
0
230
1
 50
180
 73
    2
 44
1.54
  0
CIRCLE
  5
18A
100
AcDbEntity
  8
z_UniversalBoard
  6
ByLayer
 62
  256
370
   -1
100
AcDbCircle
 10
9.519999999998387
 20
69.02000000000035
 40
0.5
  0
CIRCLE
  5
18B
100
AcDbEntity
  8
z_UniversalBoard
  6
ByLayer
 62
  256
370
   -1
100
AcDbCircle
 10
12.05999999999827
 20
69.02000000000035
 40
0.5
  0
CIRCLE
  5
18C
100
AcDbEntity
  8
z_UniversalBoard
  6
ByLayer
 62
  256
370
   -1
100
AcDbCircle
 10
14.59999999999814
 20
69.02000000000038
 40
0.5
  0
CIRCLE
  5
18D
100
AcDbEntity
  8
z_UniversalBoard
  6
ByLayer
 62
  256
370
   -1
100
AcDbCircle
 10
17.13999999999802
 20
69.02000000000038
 40
0.5
  0
CIRCLE
  5
18E
100
AcDbEntity
  8
z_UniversalBoard
  6
ByLayer
 62
  256
370
   -1
100
AcDbCircle
 10
19.6799999999979
 20
69.02000000000041
 40
0.5
  0
CIRCLE
  5
18F
100
AcDbEntity
  8
z_UniversalBoard
  6
ByLayer
 62
  256
370
   -1
100
AcDbCircle
 10
22.21999999999778
 20
69.02000000000041
 40
0.5
  0
CIRCLE
  5
190
100
AcDbEntity
  8
z_UniversalBoard
  6
ByLayer
 62
  256
370
   -1
100
AcDbCircle
 10
24.75999999999766
 20
69.02000000000044
 40
0.5
  0
CIRCLE
  5
191
100
AcDbEntity
  8
z_UniversalBoard
  6
ByLayer
 62
  256
370
   -1
100
AcDbCircle
 10
27.29999999999754
 20
69.02000000000044
 40
0.5
  0
CIRCLE
  5
192
100
AcDbEntity
  8
z_UniversalBoard
  6
ByLayer
 62
  256
370
   -1
100
AcDbCircle
 10
29.83999999999741
 20
69.02000000000046
 40
0.5
  0
CIRCLE
  5
193
100
AcDbEntity
  8
z_UniversalBoard
  6
ByLayer
 62
  256
370
   -1
100
AcDbCircle
 10
32.3799999999973
 20
69.02000000000046
 40
0.5
  0
CIRCLE
  5
194
100
AcDbEntity
  8
z_UniversalBoard
  6
ByLayer
 62
  256
370
   -1
100
AcDbCircle
 10
34.91999999999717
 20
69.02000000000049
 40
0.5
  0
CIRCLE
  5
195
100
AcDbEntity
  8
z_UniversalBoard
  6
ByLayer
 62
  256
370
   -1
100
AcDbCircle
 10
37.45999999999705
 20
69.02000000000049
 40
0.5
  0
CIRCLE
  5
196
100
AcDbEntity
  8
z_UniversalBoard
  6
ByLayer
 62
  256
370
   -1
100
AcDbCircle
 10
39.99999999999693
 20
69.02000000000052
 40
0.5
  0
CIRCLE
  5
197
100
AcDbEntity
  8
z_UniversalBoard
  6
ByLayer
 62
  256
370
   -1
100
AcDbCircle
 10
42.53999999999681
 20
69.02000000000052
 40
0.5
  0
CIRCLE
  5
198
100
AcDbEntity
  8
z_UniversalBoard
  6
ByLayer
 62
  256
370
   -1
100
AcDbCircle
 10
45.07999999999667
 20
69.02000000000055
 40
0.5
  0
MTEXT
  5
199
100
AcDbEntity
  8
z_UniversalBoard
  6
ByLayer
 62
  256
370
   -1
100
AcDbMText
 10
9.622340698825857
 20
71.63237419311567
 30
0
 40
1
 41
2
 71
    5
 72
    1
  1
UB1
  7
iso
210
0
220
0
230
1
 50
0
 73
    2
 44
1.54
  0
LINE
  5
19A
100
AcDbEntity
  8
z_UniversalBoard
  6
ByLayer
 62
  256
370
   -1
100
AcDbLine
 10
8.249999999997542
 20
70.2900000000003
 11
8.249999999997542
 21
44.88999999999989
  0
LINE
  5
19B
100
AcDbEntity
  8
pin socket
  6
ByLayer
 62
  256
370
   -1
100
AcDbLine
 10
43.80999999999658
 20
70.2900000000008
 11
46.34999999999677
 21
70.2900000000008
  0
LINE
  5
19C
100
AcDbEntity
  8
pin socket
  6
ByLayer
 62
  256
370
   -1
100
AcDbLine
 10
46.34999999999677
 20
67.75000000000078
 11
46.34999999999677
 21
70.2900000000003
  0
LINE
  5
19D
100
AcDbEntity
  8
pin socket
  6
ByLayer
 62
  256
370
   -1
100
AcDbLine
 10
43.80999999999658
 20
70.2900000000003
 11
43.80999999999658
 21
67.75000000000078
  0
LINE
  5
19E
100
AcDbEntity
  8
pin socket
  6
ByLayer
 62
  256
370
   -1
100
AcDbLine
 10
43.80999999999658
 20
67.75000000000078
 11
46.34999999999677
 21
67.75000000000078
  0
LINE
  5
19F
100
AcDbEntity
  8
pin socket
  6
ByLayer
 62
  256
370
   -1
100
AcDbLine
 10
43.80999999999663
 20
60.13000000000069
 11
46.34999999999682
 21
60.13000000000069
  0
LINE
  5
1A0
100
AcDbEntity
  8
pin socket
  6
ByLayer
 62
  256
370
   -1
100
AcDbLine
 10
46.34999999999682
 20
57.59000000000067
 11
46.34999999999682
 21
60.13000000000019
  0
LINE
  5
1A1
100
AcDbEntity
  8
pin socket
  6
ByLayer
 62
  256
370
   -1
100
AcDbLine
 10
43.80999999999663
 20
60.13000000000019
 11
43.80999999999663
 21
57.59000000000067
  0
LINE
  5
1A2
100
AcDbEntity
  8
pin socket
  6
ByLayer
 62
  256
370
   -1
100
AcDbLine
 10
43.80999999999663
 20
57.59000000000067
 11
46.34999999999682
 21
57.59000000000067
  0
LINE
  5
1A3
100
AcDbEntity
  8
pin socket
  6
ByLayer
 62
  256
370
   -1
100
AcDbLine
 10
43.80999999999663
 20
57.59000000000067
 11
46.34999999999682
 21
57.59000000000067
  0
LINE
  5
1A4
100
AcDbEntity
  8
pin socket
  6
ByLayer
 62
  256
370
   -1
100
AcDbLine
 10
46.34999999999682
 20
55.05000000000065
 11
46.34999999999682
 21
57.59000000000017
  0
LINE
  5
1A5
100
AcDbEntity
  8
pin socket
  6
ByLayer
 62
  256
370
   -1
100
AcDbLine
 10
43.80999999999663
 20
57.59000000000017
 11
43.80999999999663
 21
55.05000000000065
  0
LINE
  5
1A6
100
AcDbEntity
  8
pin socket
  6
ByLayer
 62
  256
370
   -1
100
AcDbLine
 10
43.80999999999663
 20
55.05000000000065
 11
46.34999999999682
 21
55.05000000000065
  0
LINE
  5
1A7
100
AcDbEntity
  8
pin socket
  6
ByLayer
 62
  256
370
   -1
100
AcDbLine
 10
43.80999999999663
 20
55.05000000000065
 11
46.34999999999682
 21
55.05000000000065
  0
LINE
  5
1A8
100
AcDbEntity
  8
pin socket
  6
ByLayer
 62
  256
370
   -1
100
AcDbLine
 10
46.34999999999682
 20
52.51000000000063
 11
46.34999999999682
 21
55.05000000000015
  0
LINE
  5
1A9
100
AcDbEntity
  8
pin socket
  6
ByLayer
 62
  256
370
   -1
100
AcDbLine
 10
43.80999999999663
 20
55.05000000000015
 11
43.80999999999663
 21
52.51000000000063
  0
LINE
  5
1AA
100
AcDbEntity
  8
pin socket
  6
ByLayer
 62
  256
370
   -1
100
AcDbLine
 10
43.80999999999663
 20
52.51000000000063
 11
46.34999999999682
 21
52.51000000000063
  0
LINE
  5
1AB
100
AcDbEntity
  8
pin socket
  6
ByLayer
 62
  256
370
   -1
100
AcDbLine
 10
43.80999999999663
 20
52.51000000000063
 11
46.34999999999682
 21
52.51000000000063
  0
LINE
  5
1AC
100
AcDbEntity
  8
pin socket
  6
ByLayer
 62
  256
370
   -1
100
AcDbLine
 10
46.34999999999682
 20
49.97000000000061
 11
46.34999999999682
 21
52.51000000000013
  0
LINE
  5
1AD
100
AcDbEntity
  8
pin socket
  6
ByLayer
 62
  256
370
   -1
100
AcDbLine
 10
43.80999999999663
 20
52.51000000000013
 11
43.80999999999663
 21
49.97000000000061
  0
LINE
  5
1AE
100
AcDbEntity
  8
pin socket
  6
ByLayer
 62
  256
370
   -1
100
AcDbLine
 10
43.80999999999663
 20
49.97000000000061
 11
46.34999999999682
 21
49.97000000000061
  0
CIRCLE
  5
1AF
100
AcDbEntity
  8
z_UniversalBoard
  6
ByLayer
 62
  256
370
   -1
100
AcDbCircle
 10
47.61999999999664
 20
46.16000000000034
 40
0.5
  0
CIRCLE
  5
1B0
100
AcDbEntity
  8
z_UniversalBoard
  6
ByLayer
 62
  256
370
   -1
100
AcDbCircle
 10
47.61999999999662
 20
48.70000000000038
 40
0.5
  0
CIRCLE
  5
1B1
100
AcDbEntity
  8
z_UniversalBoard
  6
ByLayer
 62
  256
370
   -1
100
AcDbCircle
 10
47.61999999999662
 20
51.2400000000004
 40
0.5
  0
CIRCLE
  5
1B2
100
AcDbEntity
  8
z_UniversalBoard
  6
ByLayer
 62
  256
370
   -1
100
AcDbCircle
 10
47.61999999999662
 20
53.78000000000042
 40
0.5
  0
CIRCLE
  5
1B3
100
AcDbEntity
  8
z_UniversalBoard
  6
ByLayer
 62
  256
370
   -1
100
AcDbCircle
 10
47.6199999999966
 20
56.32000000000043
 40
0.5
  0
CIRCLE
  5
1B4
100
AcDbEntity
  8
z_UniversalBoard
  6
ByLayer
 62
  256
370
   -1
100
AcDbCircle
 10
47.6199999999966
 20
58.86000000000045
 40
0.5
  0
CIRCLE
  5
1B5
100
AcDbEntity
  8
z_UniversalBoard
  6
ByLayer
 62
  256
370
   -1
100
AcDbCircle
 10
47.6199999999966
 20
61.40000000000047
 40
0.5
  0
CIRCLE
  5
1B6
100
AcDbEntity
  8
z_UniversalBoard
  6
ByLayer
 62
  256
370
   -1
100
AcDbCircle
 10
47.61999999999658
 20
63.94000000000049
 40
0.5
  0
CIRCLE
  5
1B7
100
AcDbEntity
  8
z_UniversalBoard
  6
ByLayer
 62
  256
370
   -1
100
AcDbCircle
 10
47.61999999999657
 20
66.48000000000053
 40
0.5
  0
CIRCLE
  5
1B8
100
AcDbEntity
  8
z_UniversalBoard
  6
ByLayer
 62
  256
370
   -1
100
AcDbCircle
 10
47.61999999999655
 20
69.02000000000055
 40
0.5
  0
CIRCLE
  5
1B9
100
AcDbEntity
  8
z_UniversalBoard
  6
ByLayer
 62
  256
370
   -1
100
AcDbCircle
 10
50.15999999999651
 20
46.16000000000035
 40
0.5
  0
CIRCLE
  5
1BA
100
AcDbEntity
  8
z_UniversalBoard
  6
ByLayer
 62
  256
370
   -1
100
AcDbCircle
 10
50.15999999999649
 20
48.70000000000039
 40
0.5
  0
CIRCLE
  5
1BB
100
AcDbEntity
  8
z_UniversalBoard
  6
ByLayer
 62
  256
370
   -1
100
AcDbCircle
 10
50.15999999999649
 20
51.24000000000041
 40
0.5
  0
CIRCLE
  5
1BC
100
AcDbEntity
  8
z_UniversalBoard
  6
ByLayer
 62
  256
370
   -1
100
AcDbCircle
 10
50.15999999999649
 20
53.78000000000043
 40
0.5
  0
CIRCLE
  5
1BD
100
AcDbEntity
  8
z_UniversalBoard
  6
ByLayer
 62
  256
370
   -1
100
AcDbCircle
 10
50.15999999999648
 20
56.32000000000044
 40
0.5
  0
CIRCLE
  5
1BE
100
AcDbEntity
  8
z_UniversalBoard
  6
ByLayer
 62
  256
370
   -1
100
AcDbCircle
 10
50.15999999999648
 20
58.86000000000045
 40
0.5
  0
CIRCLE
  5
1BF
100
AcDbEntity
  8
z_UniversalBoard
  6
ByLayer
 62
  256
370
   -1
100
AcDbCircle
 10
50.15999999999648
 20
61.40000000000047
 40
0.5
  0
CIRCLE
  5
1C0
100
AcDbEntity
  8
z_UniversalBoard
  6
ByLayer
 62
  256
370
   -1
100
AcDbCircle
 10
50.15999999999646
 20
63.9400000000005
 40
0.5
  0
CIRCLE
  5
1C1
100
AcDbEntity
  8
z_UniversalBoard
  6
ByLayer
 62
  256
370
   -1
100
AcDbCircle
 10
50.15999999999644
 20
66.48000000000053
 40
0.5
  0
CIRCLE
  5
1C2
100
AcDbEntity
  8
z_UniversalBoard
  6
ByLayer
 62
  256
370
   -1
100
AcDbCircle
 10
50.15999999999643
 20
69.02000000000056
 40
0.5
  0
CIRCLE
  5
1C3
100
AcDbEntity
  8
z_UniversalBoard
  6
ByLayer
 62
  256
370
   -1
100
AcDbCircle
 10
52.69999999999639
 20
46.16000000000036
 40
0.5
  0
CIRCLE
  5
1C4
100
AcDbEntity
  8
z_UniversalBoard
  6
ByLayer
 62
  256
370
   -1
100
AcDbCircle
 10
52.69999999999637
 20
48.70000000000039
 40
0.5
  0
CIRCLE
  5
1C5
100
AcDbEntity
  8
z_UniversalBoard
  6
ByLayer
 62
  256
370
   -1
100
AcDbCircle
 10
52.69999999999637
 20
51.24000000000041
 40
0.5
  0
CIRCLE
  5
1C6
100
AcDbEntity
  8
z_UniversalBoard
  6
ByLayer
 62
  256
370
   -1
100
AcDbCircle
 10
52.69999999999637
 20
53.78000000000043
 40
0.5
  0
CIRCLE
  5
1C7
100
AcDbEntity
  8
z_UniversalBoard
  6
ByLayer
 62
  256
370
   -1
100
AcDbCircle
 10
52.69999999999636
 20
56.32000000000045
 40
0.5
  0
CIRCLE
  5
1C8
100
AcDbEntity
  8
z_UniversalBoard
  6
ByLayer
 62
  256
370
   -1
100
AcDbCircle
 10
52.69999999999636
 20
58.86000000000046
 40
0.5
  0
CIRCLE
  5
1C9
100
AcDbEntity
  8
z_UniversalBoard
  6
ByLayer
 62
  256
370
   -1
100
AcDbCircle
 10
52.69999999999636
 20
61.40000000000048
 40
0.5
  0
CIRCLE
  5
1CA
100
AcDbEntity
  8
z_UniversalBoard
  6
ByLayer
 62
  256
370
   -1
100
AcDbCircle
 10
52.69999999999634
 20
63.9400000000005
 40
0.5
  0
CIRCLE
  5
1CB
100
AcDbEntity
  8
z_UniversalBoard
  6
ByLayer
 62
  256
370
   -1
100
AcDbCircle
 10
52.69999999999632
 20
66.48000000000053
 40
0.5
  0
CIRCLE
  5
1CC
100
AcDbEntity
  8
z_UniversalBoard
  6
ByLayer
 62
  256
370
   -1
100
AcDbCircle
 10
52.69999999999631
 20
69.02000000000058
 40
0.5
  0
CIRCLE
  5
1CD
100
AcDbEntity
  8
z_UniversalBoard
  6
ByLayer
 62
  256
370
   -1
100
AcDbCircle
 10
55.23999999999627
 20
46.16000000000037
 40
0.5
  0
CIRCLE
  5
1CE
100
AcDbEntity
  8
z_UniversalBoard
  6
ByLayer
 62
  256
370
   -1
100
AcDbCircle
 10
55.23999999999625
 20
48.7000000000004
 40
0.5
  0
CIRCLE
  5
1CF
100
AcDbEntity
  8
z_UniversalBoard
  6
ByLayer
 62
  256
370
   -1
100
AcDbCircle
 10
55.23999999999625
 20
51.24000000000042
 40
0.5
  0
CIRCLE
  5
1D0
100
AcDbEntity
  8
z_UniversalBoard
  6
ByLayer
 62
  256
370
   -1
100
AcDbCircle
 10
55.23999999999625
 20
53.78000000000044
 40
0.5
  0
CIRCLE
  5
1D1
100
AcDbEntity
  8
z_UniversalBoard
  6
ByLayer
 62
  256
370
   -1
100
AcDbCircle
 10
55.23999999999624
 20
56.32000000000046
 40
0.5
  0
CIRCLE
  5
1D2
100
AcDbEntity
  8
z_UniversalBoard
  6
ByLayer
 62
  256
370
   -1
100
AcDbCircle
 10
55.23999999999624
 20
58.86000000000047
 40
0.5
  0
CIRCLE
  5
1D3
100
AcDbEntity
  8
z_UniversalBoard
  6
ByLayer
 62
  256
370
   -1
100
AcDbCircle
 10
55.23999999999624
 20
61.40000000000049
 40
0.5
  0
CIRCLE
  5
1D4
100
AcDbEntity
  8
z_UniversalBoard
  6
ByLayer
 62
  256
370
   -1
100
AcDbCircle
 10
55.23999999999621
 20
63.94000000000051
 40
0.5
  0
CIRCLE
  5
1D5
100
AcDbEntity
  8
z_UniversalBoard
  6
ByLayer
 62
  256
370
   -1
100
AcDbCircle
 10
55.2399999999962
 20
66.48000000000054
 40
0.5
  0
CIRCLE
  5
1D6
100
AcDbEntity
  8
z_UniversalBoard
  6
ByLayer
 62
  256
370
   -1
100
AcDbCircle
 10
55.23999999999619
 20
69.02000000000058
 40
0.5
  0
CIRCLE
  5
1D7
100
AcDbEntity
  8
z_UniversalBoard
  6
ByLayer
 62
  256
370
   -1
100
AcDbCircle
 10
57.77999999999615
 20
46.16000000000037
 40
0.5
  0
CIRCLE
  5
1D8
100
AcDbEntity
  8
z_UniversalBoard
  6
ByLayer
 62
  256
370
   -1
100
AcDbCircle
 10
57.77999999999613
 20
48.70000000000041
 40
0.5
  0
CIRCLE
  5
1D9
100
AcDbEntity
  8
z_UniversalBoard
  6
ByLayer
 62
  256
370
   -1
100
AcDbCircle
 10
57.77999999999613
 20
51.24000000000043
 40
0.5
  0
CIRCLE
  5
1DA
100
AcDbEntity
  8
z_UniversalBoard
  6
ByLayer
 62
  256
370
   -1
100
AcDbCircle
 10
57.77999999999613
 20
53.78000000000045
 40
0.5
  0
CIRCLE
  5
1DB
100
AcDbEntity
  8
z_UniversalBoard
  6
ByLayer
 62
  256
370
   -1
100
AcDbCircle
 10
57.77999999999611
 20
56.32000000000046
 40
0.5
  0
CIRCLE
  5
1DC
100
AcDbEntity
  8
z_UniversalBoard
  6
ByLayer
 62
  256
370
   -1
100
AcDbCircle
 10
57.77999999999611
 20
58.86000000000048
 40
0.5
  0
CIRCLE
  5
1DD
100
AcDbEntity
  8
z_UniversalBoard
  6
ByLayer
 62
  256
370
   -1
100
AcDbCircle
 10
57.77999999999611
 20
61.4000000000005
 40
0.5
  0
CIRCLE
  5
1DE
100
AcDbEntity
  8
z_UniversalBoard
  6
ByLayer
 62
  256
370
   -1
100
AcDbCircle
 10
57.77999999999609
 20
63.94000000000052
 40
0.5
  0
CIRCLE
  5
1DF
100
AcDbEntity
  8
z_UniversalBoard
  6
ByLayer
 62
  256
370
   -1
100
AcDbCircle
 10
57.77999999999608
 20
66.48000000000056
 40
0.5
  0
CIRCLE
  5
1E0
100
AcDbEntity
  8
z_UniversalBoard
  6
ByLayer
 62
  256
370
   -1
100
AcDbCircle
 10
57.77999999999606
 20
69.02000000000058
 40
0.5
  0
LINE
  5
1E1
100
AcDbEntity
  8
resister
  6
ByLayer
 62
  256
370
   -1
100
AcDbLine
 10
40.85999999999709
 20
54.64000000000009
 11
34.05999999999744
 21
54.64000000000009
  0
LINE
  5
1E2
100
AcDbEntity
  8
resister
  6
ByLayer
 62
  256
370
   -1
100
AcDbLine
 10
34.05999999999744
 20
54.64000000000009
 11
34.05999999999744
 21
47.84000000000054
  0
LINE
  5
1E3
100
AcDbEntity
  8
resister
  6
ByLayer
 62
  256
370
   -1
100
AcDbLine
 10
34.05999999999744
 20
47.84000000000054
 11
40.85999999999709
 21
47.84000000000054
  0
LINE
  5
1E4
100
AcDbEntity
  8
resister
  6
ByLayer
 62
  256
370
   -1
100
AcDbLine
 10
40.85999999999709
 20
47.84000000000054
 11
40.85999999999709
 21
54.64000000000009
  0
CIRCLE
  5
1E5
100
AcDbEntity
  8
resister
  6
ByLayer
 62
  256
370
   -1
100
AcDbCircle
 10
39.99999999999731
 20
51.24000000000031
 40
0.25
  0
CIRCLE
  5
1E6
100
AcDbEntity
  8
resister
  6
ByLayer
 62
  256
370
   -1
100
AcDbCircle
 10
37.45999999999729
 20
48.70000000000046
 40
0.25
  0
MTEXT
  5
1E7
100
AcDbEntity
  8
resister
  6
ByLayer
 62
  256
370
   -1
100
AcDbMText
 10
38.4149118381403
 20
51.17258217400269
 30
0
 40
1
 41
0.4522222222222222
 71
    5
 72
    1
  1
1\P2\P3
  7
azomix
210
0
220
0
230
1
 50
0
 73
    2
 44
1.54
  0
CIRCLE
  5
1E8
100
AcDbEntity
  8
resister
  6
ByLayer
 62
  256
370
   -1
100
AcDbCircle
 10
37.45999999999727
 20
53.7800000000002
 40
0.25
  0
LINE
  5
1E9
100
AcDbEntity
  8
0_wire
  6
ByLayer
 62
  256
370
   -1
100
AcDbLine
 10
45.07999999999674
 20
53.78000000000041
 11
47.61999999999662
 21
53.78000000000042
  0
LINE
  5
1EA
100
AcDbEntity
  8
0_wire
  6
ByLayer
 62
  256
370
   -1
100
AcDbLine
 10
45.07999999999674
 20
46.16000000000034
 11
47.61999999999664
 21
46.16000000000034
  0
LINE
  5
1EB
100
AcDbEntity
  8
5V line
  6
ByLayer
 62
  256
370
   -1
100
AcDbLine
 10
45.07999999999672
 20
58.86000000000044
 11
37.45999999999708
 21
58.8600000000004
  0
LINE
  5
1EC
100
AcDbEntity
  8
5V line
  6
ByLayer
 62
  256
370
   -1
100
AcDbLine
 10
37.45999999999708
 20
58.8600000000004
 11
37.4599999999971
 21
53.78000000000036
  0
LINE
  5
1ED
100
AcDbEntity
  8
5V line
  6
ByLayer
 62
  256
370
   -1
100
AcDbLine
 10
45.07999999999672
 20
58.86000000000044
 11
47.6199999999966
 21
58.86000000000045
  0
LINE
  5
1EE
100
AcDbEntity
  8
pin socket
  6
ByLayer
 62
  256
370
   -1
100
AcDbLine
 10
53.96999999999608
 20
67.75000000000023
 11
56.50999999999651
 21
67.75000000000023
  0
LINE
  5
1EF
100
AcDbEntity
  8
pin socket
  6
ByLayer
 62
  256
370
   -1
100
AcDbLine
 10
56.50999999999652
 20
65.21000000000021
 11
56.50999999999652
 21
67.75000000000063
  0
LINE
  5
1F0
100
AcDbEntity
  8
pin socket
  6
ByLayer
 62
  256
370
   -1
100
AcDbLine
 10
53.96999999999609
 20
67.75000000000063
 11
53.96999999999609
 21
65.21000000000021
  0
LINE
  5
1F1
100
AcDbEntity
  8
pin socket
  6
ByLayer
 62
  256
370
   -1
100
AcDbLine
 10
53.96999999999609
 20
65.21000000000021
 11
56.50999999999652
 21
65.21000000000021
  0
LINE
  5
1F2
100
AcDbEntity
  8
pin socket
  6
ByLayer
 62
  256
370
   -1
100
AcDbLine
 10
51.4299999999962
 20
67.75000000000023
 11
53.96999999999663
 21
67.75000000000023
  0
LINE
  5
1F3
100
AcDbEntity
  8
pin socket
  6
ByLayer
 62
  256
370
   -1
100
AcDbLine
 10
53.96999999999665
 20
65.21000000000021
 11
53.96999999999665
 21
67.75000000000063
  0
LINE
  5
1F4
100
AcDbEntity
  8
pin socket
  6
ByLayer
 62
  256
370
   -1
100
AcDbLine
 10
51.42999999999621
 20
67.75000000000063
 11
51.42999999999621
 21
65.21000000000021
  0
LINE
  5
1F5
100
AcDbEntity
  8
pin socket
  6
ByLayer
 62
  256
370
   -1
100
AcDbLine
 10
51.42999999999621
 20
65.21000000000021
 11
53.96999999999665
 21
65.21000000000021
  0
LINE
  5
1F6
100
AcDbEntity
  8
pin socket
  6
ByLayer
 62
  256
370
   -1
100
AcDbLine
 10
53.96999999999608
 20
65.21000000000022
 11
56.50999999999651
 21
65.21000000000022
  0
LINE
  5
1F7
100
AcDbEntity
  8
pin socket
  6
ByLayer
 62
  256
370
   -1
100
AcDbLine
 10
56.50999999999652
 20
62.6700000000002
 11
56.50999999999652
 21
65.21000000000062
  0
LINE
  5
1F8
100
AcDbEntity
  8
pin socket
  6
ByLayer
 62
  256
370
   -1
100
AcDbLine
 10
53.96999999999609
 20
65.21000000000062
 11
53.96999999999609
 21
62.6700000000002
  0
LINE
  5
1F9
100
AcDbEntity
  8
pin socket
  6
ByLayer
 62
  256
370
   -1
100
AcDbLine
 10
51.4299999999962
 20
65.21000000000022
 11
53.96999999999663
 21
65.21000000000022
  0
LINE
  5
1FA
100
AcDbEntity
  8
pin socket
  6
ByLayer
 62
  256
370
   -1
100
AcDbLine
 10
53.96999999999665
 20
62.6700000000002
 11
53.96999999999665
 21
65.21000000000062
  0
LINE
  5
1FB
100
AcDbEntity
  8
pin socket
  6
ByLayer
 62
  256
370
   -1
100
AcDbLine
 10
51.42999999999621
 20
65.21000000000062
 11
51.42999999999621
 21
62.6700000000002
  0
LINE
  5
1FC
100
AcDbEntity
  8
pin socket
  6
ByLayer
 62
  256
370
   -1
100
AcDbLine
 10
53.96999999999608
 20
62.67000000000023
 11
56.50999999999651
 21
62.67000000000023
  0
LINE
  5
1FD
100
AcDbEntity
  8
pin socket
  6
ByLayer
 62
  256
370
   -1
100
AcDbLine
 10
51.4299999999962
 20
62.67000000000023
 11
53.96999999999663
 21
62.67000000000023
  0
LINE
  5
1FE
100
AcDbEntity
  8
pin socket
  6
ByLayer
 62
  256
370
   -1
100
AcDbLine
 10
53.96999999999609
 20
57.5900000000002
 11
56.50999999999652
 21
57.5900000000002
  0
LINE
  5
1FF
100
AcDbEntity
  8
pin socket
  6
ByLayer
 62
  256
370
   -1
100
AcDbLine
 10
56.50999999999652
 20
55.0500000000002
 11
56.50999999999652
 21
57.59000000000063
  0
LINE
  5
200
100
AcDbEntity
  8
pin socket
  6
ByLayer
 62
  256
370
   -1
100
AcDbLine
 10
53.96999999999609
 20
57.59000000000063
 11
53.96999999999609
 21
55.0500000000002
  0
LINE
  5
201
100
AcDbEntity
  8
pin socket
  6
ByLayer
 62
  256
370
   -1
100
AcDbLine
 10
53.96999999999609
 20
55.0500000000002
 11
56.50999999999652
 21
55.0500000000002
  0
LINE
  5
202
100
AcDbEntity
  8
pin socket
  6
ByLayer
 62
  256
370
   -1
100
AcDbLine
 10
51.4299999999962
 20
57.59000000000022
 11
53.96999999999663
 21
57.59000000000022
  0
LINE
  5
203
100
AcDbEntity
  8
pin socket
  6
ByLayer
 62
  256
370
   -1
100
AcDbLine
 10
53.96999999999665
 20
55.0500000000002
 11
53.96999999999665
 21
57.59000000000063
  0
LINE
  5
204
100
AcDbEntity
  8
pin socket
  6
ByLayer
 62
  256
370
   -1
100
AcDbLine
 10
51.42999999999621
 20
57.59000000000063
 11
51.42999999999621
 21
55.0500000000002
  0
LINE
  5
205
100
AcDbEntity
  8
pin socket
  6
ByLayer
 62
  256
370
   -1
100
AcDbLine
 10
51.42999999999621
 20
55.0500000000002
 11
53.96999999999665
 21
55.0500000000002
  0
LINE
  5
206
100
AcDbEntity
  8
pin socket
  6
ByLayer
 62
  256
370
   -1
100
AcDbLine
 10
53.96999999999608
 20
55.05000000000022
 11
56.50999999999651
 21
55.05000000000022
  0
LINE
  5
207
100
AcDbEntity
  8
pin socket
  6
ByLayer
 62
  256
370
   -1
100
AcDbLine
 10
56.50999999999652
 20
52.5100000000002
 11
56.50999999999652
 21
55.05000000000064
  0
LINE
  5
208
100
AcDbEntity
  8
pin socket
  6
ByLayer
 62
  256
370
   -1
100
AcDbLine
 10
53.96999999999609
 20
55.05000000000064
 11
53.96999999999609
 21
52.5100000000002
  0
LINE
  5
209
100
AcDbEntity
  8
pin socket
  6
ByLayer
 62
  256
370
   -1
100
AcDbLine
 10
53.96999999999609
 20
52.5100000000002
 11
56.50999999999652
 21
52.5100000000002
  0
LINE
  5
20A
100
AcDbEntity
  8
pin socket
  6
ByLayer
 62
  256
370
   -1
100
AcDbLine
 10
51.4299999999962
 20
55.05000000000022
 11
53.96999999999663
 21
55.05000000000022
  0
LINE
  5
20B
100
AcDbEntity
  8
pin socket
  6
ByLayer
 62
  256
370
   -1
100
AcDbLine
 10
53.96999999999665
 20
52.5100000000002
 11
53.96999999999665
 21
55.05000000000064
  0
LINE
  5
20C
100
AcDbEntity
  8
pin socket
  6
ByLayer
 62
  256
370
   -1
100
AcDbLine
 10
51.42999999999621
 20
55.05000000000064
 11
51.42999999999621
 21
52.5100000000002
  0
LINE
  5
20D
100
AcDbEntity
  8
pin socket
  6
ByLayer
 62
  256
370
   -1
100
AcDbLine
 10
51.42999999999621
 20
52.5100000000002
 11
53.96999999999665
 21
52.5100000000002
  0
LINE
  5
20E
100
AcDbEntity
  8
pin socket
  6
ByLayer
 62
  256
370
   -1
100
AcDbLine
 10
53.96999999999608
 20
52.51000000000023
 11
56.50999999999651
 21
52.51000000000023
  0
LINE
  5
20F
100
AcDbEntity
  8
pin socket
  6
ByLayer
 62
  256
370
   -1
100
AcDbLine
 10
56.50999999999652
 20
49.9700000000002
 11
56.50999999999652
 21
52.51000000000063
  0
LINE
  5
210
100
AcDbEntity
  8
pin socket
  6
ByLayer
 62
  256
370
   -1
100
AcDbLine
 10
53.96999999999609
 20
52.51000000000063
 11
53.96999999999609
 21
49.9700000000002
  0
LINE
  5
211
100
AcDbEntity
  8
pin socket
  6
ByLayer
 62
  256
370
   -1
100
AcDbLine
 10
53.96999999999609
 20
49.9700000000002
 11
56.50999999999652
 21
49.9700000000002
  0
LINE
  5
212
100
AcDbEntity
  8
pin socket
  6
ByLayer
 62
  256
370
   -1
100
AcDbLine
 10
51.4299999999962
 20
52.51000000000023
 11
53.96999999999663
 21
52.51000000000023
  0
LINE
  5
213
100
AcDbEntity
  8
pin socket
  6
ByLayer
 62
  256
370
   -1
100
AcDbLine
 10
53.96999999999665
 20
49.9700000000002
 11
53.96999999999665
 21
52.51000000000063
  0
LINE
  5
214
100
AcDbEntity
  8
pin socket
  6
ByLayer
 62
  256
370
   -1
100
AcDbLine
 10
51.42999999999621
 20
52.51000000000063
 11
51.42999999999621
 21
49.9700000000002
  0
LINE
  5
215
100
AcDbEntity
  8
pin socket
  6
ByLayer
 62
  256
370
   -1
100
AcDbLine
 10
51.42999999999621
 20
49.9700000000002
 11
53.96999999999665
 21
49.9700000000002
  0
MTEXT
  5
216
100
AcDbEntity
  8
pin socket
  6
ByLayer
 62
  256
370
   -1
100
AcDbMText
 10
55.2399999999962
 20
58.86000000000045
 30
0
 40
1
 41
2.583333333333333
 71
    5
 72
    1
  1
DB6\PDB4\P-\P-\PR/W\PVLC\PVss
  7
azomix
210
0
220
0
230
1
 50
0
 73
    2
 44
1.54
  0
MTEXT
  5
217
100
AcDbEntity
  8
pin socket
  6
ByLayer
 62
  256
370
   -1
100
AcDbMText
 10
51.41590387344963
 20
58.87181196857465
 30
0
 40
1
 41
2.478888888888889
 71
    5
 72
    1
  1
DB7\PDB5\P-\P-\PE\PRS\PVdd
  7
azomix
210
0
220
0
230
1
 50
0
 73
    2
 44
1.54
  0
LINE
  5
218
100
AcDbEntity
  8
0_wire
  6
ByLayer
 62
  256
370
   -1
100
AcDbLine
 10
45.07999999999667
 20
69.02000000000055
 11
55.23999999999619
 21
69.02000000000058
  0
LINE
  5
219
100
AcDbEntity
  8
0_wire
  6
ByLayer
 62
  256
370
   -1
100
AcDbLine
 10
55.23999999999619
 20
69.02000000000058
 11
55.2399999999962
 21
66.48000000000054
  0
LINE
  5
21A
100
AcDbEntity
  8
0_wire
  6
ByLayer
 62
  256
370
   -1
100
AcDbLine
 10
42.53999999999681
 20
69.02000000000052
 11
39.99999999999693
 21
69.02000000000052
  0
SPLINE
  5
21B
100
AcDbEntity
  8
resister
  6
ByLayer
 62
  256
370
   -1
100
AcDbSpline
210
0
220
0
230
0
 70
    8
 71
    2
 72
   10
 73
    7
 74
    0
 42
1e-07
 43
1e-07
 40
0
 40
0
 40
0
 40
0.2
 40
0.4
 40
0.6
 40
0.8
 40
1
 40
1
 40
1
 10
42.53999999999681
 20
69.02000000000052
 30
0
 10
44.73368327502491
 20
69.98946781240568
 30
0
 10
47.99238234178779
 20
70.10533322485668
 30
0
 10
50.52099747240822
 20
69.99248708915475
 30
0
 10
52.9913205562315
 20
69.93188698631181
 30
0
 10
55.93293443260304
 20
69.82313742913279
 30
0
 10
57.77999999999606
 20
69.02000000000058
 30
0
  0
LINE
  5
21C
100
AcDbEntity
  8
0_wire
  6
ByLayer
 62
  256
370
   -1
100
AcDbLine
 10
57.77999999999606
 20
69.02000000000058
 11
57.77999999999609
 21
63.94000000000052
  0
LINE
  5
21D
100
AcDbEntity
  8
0_wire
  6
ByLayer
 62
  256
370
   -1
100
AcDbLine
 10
57.77999999999609
 20
63.94000000000052
 11
55.23999999999621
 21
63.94000000000051
  0
LINE
  5
21E
100
AcDbEntity
  8
0_wire
  6
ByLayer
 62
  256
370
   -1
100
AcDbLine
 10
45.07999999999672
 20
56.32000000000043
 11
52.69999999999636
 21
56.32000000000045
  0
LINE
  5
21F
100
AcDbEntity
  8
0_wire
  6
ByLayer
 62
  256
370
   -1
100
AcDbLine
 10
47.61999999999662
 20
51.2400000000004
 11
45.07999999999674
 21
51.24000000000039
  0
LINE
  5
220
100
AcDbEntity
  8
0_wire
  6
ByLayer
 62
  256
370
   -1
100
AcDbLine
 10
45.07999999999673
 20
48.70000000000035
 11
42.53999999999687
 21
48.70000000000035
  0
LINE
  5
221
100
AcDbEntity
  8
0_wire
  6
ByLayer
 62
  256
370
   -1
100
AcDbLine
 10
42.53999999999687
 20
48.70000000000035
 11
42.53999999999686
 21
53.78000000000039
  0
LINE
  5
222
100
AcDbEntity
  8
0_wire
  6
ByLayer
 62
  256
370
   -1
100
AcDbLine
 10
42.53999999999686
 20
53.78000000000039
 11
39.99999999999698
 21
53.78000000000038
  0
LINE
  5
223
100
AcDbEntity
  8
0_wire
  6
ByLayer
 62
  256
370
   -1
100
AcDbLine
 10
39.99999999999698
 20
53.78000000000038
 11
39.99999999999697
 21
56.3200000000004
  0
SPLINE
  5
224
100
AcDbEntity
  8
resister
  6
ByLayer
 62
  256
370
   -1
100
AcDbSpline
210
0
220
0
230
0
 70
    8
 71
    2
 72
    9
 73
    6
 74
    0
 42
1e-07
 43
1e-07
 40
0
 40
0
 40
0
 40
0.25
 40
0.5
 40
0.75
 40
1
 40
1
 40
1
 10
39.99999999999697
 20
56.3200000000004
 30
0
 10
40.92737404635164
 20
58.48487307303719
 30
0
 10
40.76572495366826
 20
61.81201949905829
 30
0
 10
40.76603490772968
 20
64.0442361293936
 30
0
 10
40.88987534406156
 20
66.96120874761824
 30
0
 10
39.99999999999693
 20
69.02000000000052
 30
0
  0
LINE
  5
225
100
AcDbEntity
  8
0_wire
  6
ByLayer
 62
  256
370
   -1
100
AcDbLine
 10
52.69999999999637
 20
53.78000000000043
 11
47.61999999999662
 21
53.78000000000042
  0
LINE
  5
226
100
AcDbEntity
  8
0_wire
  6
ByLayer
 62
  256
370
   -1
100
AcDbLine
 10
47.61999999999664
 20
46.16000000000034
 11
47.61999999999662
 21
48.70000000000038
  0
LINE
  5
227
100
AcDbEntity
  8
5V line
  6
ByLayer
 62
  256
370
   -1
100
AcDbLine
 10
47.6199999999966
 20
58.86000000000045
 11
50.15999999999648
 21
58.86000000000045
  0
SPLINE
  5
228
100
AcDbEntity
  8
resister
  6
ByLayer
 62
  256
370
   -1
100
AcDbSpline
210
0
220
0
230
0
 70
    8
 71
    2
 72
    7
 73
    4
 74
    0
 42
1e-07
 43
1e-07
 40
0
 40
0
 40
0
 40
0.5
 40
1
 40
1
 40
1
 10
50.15999999999648
 20
58.86000000000045
 30
0
 10
50.81973153768767
 20
57.00355029288804
 30
0
 10
51.18057456434745
 20
53.04194989822392
 30
0
 10
50.15999999999649
 20
51.24000000000041
 30
0
  0
LINE
  5
229
100
AcDbEntity
  8
5V line
  6
ByLayer
 62
  256
370
   -1
100
AcDbLine
 10
52.69999999999637
 20
51.24000000000041
 11
50.15999999999649
 21
51.24000000000041
  0
LINE
  5
22A
100
AcDbEntity
  8
0_wire
  6
ByLayer
 62
  256
370
   -1
100
AcDbLine
 10
52.69999999999634
 20
63.9400000000005
 11
50.15999999999646
 21
63.9400000000005
  0
LINE
  5
22B
100
AcDbEntity
  8
0_GND
  6
ByLayer
 62
  256
370
   -1
100
AcDbLine
 10
45.0799999999967
 20
63.94000000000048
 11
47.61999999999658
 21
63.94000000000049
  0
LINE
  5
22C
100
AcDbEntity
  8
0_GND
  6
ByLayer
 62
  256
370
   -1
100
AcDbLine
 10
47.61999999999658
 20
63.94000000000049
 11
47.6199999999966
 21
61.40000000000047
  0
LINE
  5
22D
100
AcDbEntity
  8
0_GND
  6
ByLayer
 62
  256
370
   -1
100
AcDbLine
 10
47.6199999999966
 20
61.40000000000047
 11
55.23999999999624
 21
61.40000000000049
  0
LINE
  5
22E
100
AcDbEntity
  8
0_GND
  6
ByLayer
 62
  256
370
   -1
100
AcDbLine
 10
55.23999999999624
 20
61.40000000000049
 11
55.23999999999624
 21
56.32000000000046
  0
LINE
  5
22F
100
AcDbEntity
  8
0_wire
  6
ByLayer
 62
  256
370
   -1
100
AcDbLine
 10
39.99999999999699
 20
51.24000000000036
 11
39.999999999997
 21
46.16000000000032
  0
LINE
  5
230
100
AcDbEntity
  8
0_wire
  6
ByLayer
 62
  256
370
   -1
100
AcDbLine
 10
39.999999999997
 20
46.16000000000032
 11
42.53999999999688
 21
46.16000000000033
  0
LINE
  5
231
100
AcDbEntity
  8
0_GND
  6
ByLayer
 62
  256
370
   -1
100
AcDbLine
 10
37.45999999999711
 20
48.70000000000032
 11
37.45999999999712
 21
46.1600000000003
  0
LINE
  5
232
100
AcDbEntity
  8
0_GND
  6
ByLayer
 62
  256
370
   -1
100
AcDbLine
 10
55.23999999999625
 20
51.24000000000042
 11
55.23999999999627
 21
46.16000000000037
  0
SPLINE
  5
233
100
AcDbEntity
  8
resister
  6
ByLayer
 62
  256
370
   -1
100
AcDbSpline
210
0
220
0
230
0
 70
    8
 71
    2
 72
    6
 73
    3
 74
    0
 42
1e-07
 43
1e-07
 40
0
 40
0
 40
0
 40
1
 40
1
 40
1
 10
52.69999999999637
 20
48.70000000000039
 30
0
 10
55.2338078607416
 20
50.13245058308606
 30
0
 10
57.77999999999613
 20
48.70000000000041
 30
0
  0
LINE
  5
234
100
AcDbEntity
  8
0_wire
  6
ByLayer
 62
  256
370
   -1
100
AcDbLine
 10
55.23999999999625
 20
53.78000000000044
 11
57.77999999999613
 21
53.78000000000045
  0
LINE
  5
235
100
AcDbEntity
  8
0_wire
  6
ByLayer
 62
  256
370
   -1
100
AcDbLine
 10
57.77999999999613
 20
53.78000000000045
 11
57.77999999999613
 21
48.70000000000041
  0
SPLINE
  5
236
100
AcDbEntity
  8
resister
  6
ByLayer
 62
  256
370
   -1
100
AcDbSpline
210
0
220
0
230
0
 70
    8
 71
    2
 72
   11
 73
    8
 74
    0
 42
1e-07
 43
1e-07
 40
0
 40
0
 40
0
 40
0.1666666666666667
 40
0.3333333333333333
 40
0.5
 40
0.6666666666666666
 40
0.8333333333333334
 40
1
 40
1
 40
1
 10
37.45999999999712
 20
46.1600000000003
 30
0
 10
39.69884516006508
 20
45.31907531041851
 30
0
 10
42.98449112013508
 20
45.50103658296473
 30
0
 10
45.43974824275525
 20
45.54301610391546
 30
0
 10
48.02294703051568
 20
45.42752169738364
 30
0
 10
50.32709302619875
 20
45.45280005709656
 30
0
 10
53.20334956915977
 20
45.4240574009869
 30
0
 10
55.23999999999627
 20
46.16000000000037
 30
0
  0
LINE
  5
237
100
AcDbEntity
  8
0_wire
  6
ByLayer
 62
  256
370
   -1
100
AcDbLine
 10
52.69999999999637
 20
48.70000000000039
 11
52.69999999999639
 21
46.16000000000036
  0
LINE
  5
238
100
AcDbEntity
  8
0_wire
  6
ByLayer
 62
  256
370
   -1
100
AcDbLine
 10
47.61999999999662
 20
48.70000000000038
 11
50.15999999999649
 21
48.70000000000039
  0
SPLINE
  5
239
100
AcDbEntity
  8
resister
  6
ByLayer
 62
  256
370
   -1
100
AcDbSpline
210
0
220
0
230
0
 70
    8
 71
    2
 72
    9
 73
    6
 74
    0
 42
1e-07
 43
1e-07
 40
0
 40
0
 40
0
 40
0.25
 40
0.5
 40
0.75
 40
1
 40
1
 40
1
 10
47.61999999999662
 20
51.2400000000004
 30
0
 10
48.37699346231067
 20
53.29488362662392
 30
0
 10
48.37523318014938
 20
57.29856724947834
 30
0
 10
48.37071006310067
 20
61.01035258857666
 30
0
 10
48.57081876499359
 20
64.77929608290151
 30
0
 10
47.61999999999657
 20
66.48000000000053
 30
0
  0
LINE
  5
23A
100
AcDbEntity
  8
0_wire
  6
ByLayer
 62
  256
370
   -1
100
AcDbLine
 10
52.69999999999632
 20
66.48000000000053
 11
47.61999999999657
 21
66.48000000000053
  0
LINE
  5
23B
100
AcDbEntity
  8
0_wire
  6
ByLayer
 62
  256
370
   -1
100
AcDbLine
 10
52.69999999999639
 20
46.16000000000036
 11
50.15999999999651
 21
46.16000000000035
  0
SPLINE
  5
23C
100
AcDbEntity
  8
resister
  6
ByLayer
 62
  256
370
   -1
100
AcDbSpline
210
0
220
0
230
0
 70
    8
 71
    2
 72
    7
 73
    4
 74
    0
 42
1e-07
 43
1e-07
 40
0
 40
0
 40
0
 40
0.5
 40
1
 40
1
 40
1
 10
42.53999999999688
 20
46.16000000000033
 30
0
 10
44.46777971149451
 20
46.93799926663103
 30
0
 10
48.41490878878502
 20
46.95862330819208
 30
0
 10
50.15999999999651
 20
46.16000000000035
 30
0
  0
SPLINE
  5
23D
100
AcDbEntity
  8
resister
  6
ByLayer
 62
  256
370
   -1
100
AcDbSpline
210
0
220
0
230
0
 70
    8
 71
    2
 72
   10
 73
    7
 74
    0
 42
1e-07
 43
1e-07
 40
0
 40
0
 40
0
 40
0.2
 40
0.4
 40
0.6
 40
0.8
 40
1
 40
1
 40
1
 10
50.15999999999649
 20
48.70000000000039
 30
0
 10
51.09733382863679
 20
50.85637416330167
 30
0
 10
51.55466408380746
 20
54.00072439686941
 30
0
 10
51.51870598997885
 20
56.36880181677454
 30
0
 10
51.30509774888397
 20
58.78235943225157
 30
0
 10
51.38519579801411
 20
62.00474167308279
 30
0
 10
50.15999999999646
 20
63.9400000000005
 30
0
  0
LINE
  5
23E
100
AcDbEntity
  8
z_UniversalBoard
  6
ByLayer
 62
  256
370
   -1
100
AcDbLine
 10
59.0499999999962
 20
44.88999999999992
 11
59.0499999999962
 21
70.29000000000033
  0
LINE
  5
23F
100
AcDbEntity
  8
z_UniversalBoard
  6
ByLayer
 62
  256
370
   -1
100
AcDbLine
 10
59.0499999999962
 20
70.2900000000003
 11
8.249999999997531
 21
70.2900000000003
  0
LINE
  5
240
100
AcDbEntity
  8
z_UniversalBoard
  6
ByLayer
 62
  256
370
   -1
100
AcDbLine
 10
8.249999999997542
 20
44.88999999999989
 11
59.0499999999962
 21
44.88999999999989
  0
MTEXT
  5
241
100
AcDbEntity
  8
0
  6
ByLayer
 62
  256
370
   -1
100
AcDbMText
 10
64.20202628738275
 20
56.82858701547698
 30
0
 40
1
 41
20.18333333333333
 71
    4
 72
    1
  1
R1:    1k ohm\PR2:    100k ohm\PR3:    10M ohm\PR4:    300 ohm\PPH1-3: Pin header 2 pins\PPH4:   Pin header 4 pins\PUB1:    20x10P\PXH1:   XH 2pin header
  7
azomix
210
0
220
0
230
1
 50
0
 73
    2
 44
1.54
  0
LINE
  5
242
100
AcDbEntity
  8
0_wire
  6
ByLayer
 62
  256
370
   -1
100
AcDbLine
 10
22.21999999999785
 20
46.16000000000022
 11
22.21999999999824
 21
48.7000000000002
  0
LINE
  5
243
100
AcDbEntity
  8
0_wire
  6
ByLayer
 62
  256
370
   -1
100
AcDbLine
 10
22.21999999999824
 20
48.7000000000002
 11
22.21999999999824
 21
51.24000000000024
  0
LINE
  5
244
100
AcDbEntity
  8
0_wire
  6
ByLayer
 62
  256
370
   -1
100
AcDbLine
 10
22.21999999999824
 20
51.24000000000024
 11
22.21999999999823
 21
53.78000000000027
  0
CIRCLE
  5
245
100
AcDbEntity
  8
0__draft
  6
ByLayer
 62
  256
370
   -1
100
AcDbCircle
 10
9.519999999998404
 20
66.4800000000003
 40
0.4
  0
CIRCLE
  5
246
100
AcDbEntity
  8
0_wire
  6
ByLayer
 62
  256
370
   -1
100
AcDbCircle
 10
9.519999999998404
 20
66.4800000000003
 40
0.4
  0
CIRCLE
  5
247
100
AcDbEntity
  8
0_wire
  6
ByLayer
 62
  256
370
   -1
100
AcDbCircle
 10
9.519999999998408
 20
63.94000000000028
 40
0.4
  0
LINE
  5
248
100
AcDbEntity
  8
terminal
  6
ByLayer
 62
  256
370
   -1
100
AcDbLine
 10
27.16499999999693
 20
61.20000000000005
 11
19.77499999999705
 21
61.20000000000007
  0
LINE
  5
249
100
AcDbEntity
  8
terminal
  6
ByLayer
 62
  256
370
   -1
100
AcDbLine
 10
19.77499999999705
 20
61.20000000000007
 11
19.77499999999704
 21
55.46000000000014
  0
LINE
  5
24A
100
AcDbEntity
  8
terminal
  6
ByLayer
 62
  256
370
   -1
100
AcDbLine
 10
19.77499999999704
 20
55.46000000000014
 11
27.16499999999692
 21
55.46000000000012
  0
LINE
  5
24B
100
AcDbEntity
  8
terminal
  6
ByLayer
 62
  256
370
   -1
100
AcDbLine
 10
27.16499999999692
 20
55.46000000000012
 11
27.16499999999693
 21
61.20000000000005
  0
MTEXT
  5
24C
100
AcDbEntity
  8
terminal
  6
ByLayer
 62
  256
370
   -1
100
AcDbMText
 10
24.75999999999769
 20
56.32000000000033
 30
0
 40
1
 41
2.111111111111111
 71
    5
 72
    1
  1
XH1
  7
iso
210
0
220
0
230
1
 50
180
 73
    2
 44
1.54
  0
CIRCLE
  5
24D
100
AcDbEntity
  8
terminal
  6
ByLayer
 62
  256
370
   -1
100
AcDbCircle
 10
22.21999999999781
 20
58.86000000000031
 40
0.5
  0
CIRCLE
  5
24E
100
AcDbEntity
  8
terminal
  6
ByLayer
 62
  256
370
   -1
100
AcDbCircle
 10
24.75999999999769
 20
58.86000000000033
 40
0.5
  0
LINE
  5
24F
100
AcDbEntity
  8
0_wire
  6
ByLayer
 62
  256
370
   -1
100
AcDbLine
 10
22.21999999999783
 20
53.78000000000028
 11
22.21999999999781
 21
58.86000000000031
  0
LINE
  5
250
100
AcDbEntity
  8
0_wire
  6
ByLayer
 62
  256
370
   -1
100
AcDbLine
 10
22.21999999999781
 20
58.86000000000031
 11
22.21999999999779
 21
66.48000000000039
  0
LINE
  5
251
100
AcDbEntity
  8
0_wire
  6
ByLayer
 62
  256
370
   -1
100
AcDbLine
 10
45.07999999999669
 20
66.4800000000005
 11
22.21999999999779
 21
66.48000000000037
  0
LINE
  5
252
100
AcDbEntity
  8
0_GND
  6
ByLayer
 62
  256
370
   -1
100
AcDbLine
 10
24.75999999999768
 20
63.94000000000037
 11
24.75999999999769
 21
58.86000000000033
  0
LINE
  5
253
100
AcDbEntity
  8
0_GND
  6
ByLayer
 62
  256
370
   -1
100
AcDbLine
 10
24.75999999999769
 20
58.86000000000033
 11
24.75999999999773
 21
46.16000000000023
  0
LINE
  5
254
100
AcDbEntity
  8
0_GND
  6
ByLayer
 62
  256
370
   -1
100
AcDbLine
 10
45.07999999999669
 20
63.94000000000048
 11
24.75999999999768
 21
63.94000000000037
  0
LINE
  5
255
100
AcDbEntity
  8
0_GND
  6
ByLayer
 62
  256
370
   -1
100
AcDbLine
 10
24.7599999999977
 20
48.70000000000023
 11
37.45999999999711
 21
48.70000000000032
  0
MTEXT
  5
256
100
AcDbEntity
  8
pin socket
  6
ByLayer
 62
  256
370
   -1
100
AcDbMText
 10
44.035499883358
 20
58.26514295355567
 30
0
 40
1
 41
3.492222222222222
 71
    5
 72
    1
  1
A1\PA0\PGND\P\PAVCC\P13\P12\P11\P10\P9
  7
azomix
210
0
220
0
230
1
 50
0
 73
    2
 44
1.54
  0
ENDSEC
  0
SECTION
  2
OBJECTS
  0
DICTIONARY
  5
C
330
0
100
AcDbDictionary
281
    1
  3
ACAD_GROUP
350
D
  0
DICTIONARY
  5
D
330
C
100
AcDbDictionary
281
    1
  0
PLOTSETTINGS
  5
257
100
AcDbPlotSettings
  6
1x1
 40
0
 41
0
 42
0
 43
0
  0
ENDSEC
  0
EOF
