999
dxfrw 0.6.3
  0
SECTION
  2
HEADER
  9
$ACADVER
  1
AC1021
  9
$DWGCODEPAGE
  3
ANSI_1252
  9
$INSBASE
 10
0
 20
0
 30
0
  9
$EXTMIN
 10
-13.40063046663444
 20
67.74999999999652
 30
0
  9
$EXTMAX
 10
48.24468132771028
 20
135.1733897375578
 30
0
  9
$LIMMIN
 10
0
 20
0
  9
$LIMMAX
 10
420
 20
297
  9
$ORTHOMODE
 70
    0
  9
$REGENMODE
 70
    1
  9
$FILLMODE
 70
    1
  9
$QTEXTMODE
 70
    0
  9
$MIRRTEXT
 70
    0
  9
$LTSCALE
 40
1
  9
$ATTMODE
 70
    0
  9
$TEXTSIZE
 40
2.5
  9
$TRACEWID
 40
15.68
  9
$TEXTSTYLE
  7
STANDARD
  9
$CLAYER
  8
resister
  9
$CELTYPE
  6
BYLAYER
  9
$CECOLOR
 62
  256
  9
$CELTSCALE
 40
1
  9
$DISPSILH
 70
    0
  9
$DIMSCALE
 40
1
  9
$DIMASZ
 40
2.5
  9
$DIMEXO
 40
0.625
  9
$DIMDLI
 40
3.75
  9
$DIMRND
 40
0
  9
$DIMDLE
 40
0
  9
$DIMEXE
 40
1.25
  9
$DIMTP
 40
0
  9
$DIMTM
 40
0
  9
$DIMTXT
 40
2.5
  9
$DIMCEN
 40
2.5
  9
$DIMTSZ
 40
0
  9
$DIMTOL
 70
    0
  9
$DIMLIM
 70
    0
  9
$DIMTIH
 70
    0
  9
$DIMTOH
 70
    0
  9
$DIMSE1
 70
    0
  9
$DIMSE2
 70
    0
  9
$DIMTAD
 70
    1
  9
$DIMZIN
 70
    8
  9
$DIMBLK
  1

  9
$DIMASO
 70
    1
  9
$DIMSHO
 70
    1
  9
$DIMPOST
  1

  9
$DIMAPOST
  1

  9
$DIMALT
 70
    0
  9
$DIMALTD
 70
    3
  9
$DIMALTF
 40
0.03937
  9
$DIMLFAC
 40
1
  9
$DIMTOFL
 70
    1
  9
$DIMTVP
 40
0
  9
$DIMTIX
 70
    0
  9
$DIMSOXD
 70
    0
  9
$DIMSAH
 70
    0
  9
$DIMBLK1
  1

  9
$DIMBLK2
  1

  9
$DIMSTYLE
  2
STANDARD
  9
$DIMCLRD
 70
    0
  9
$DIMCLRE
 70
    0
  9
$DIMCLRT
 70
    0
  9
$DIMTFAC
 40
1
  9
$DIMGAP
 40
0.625
  9
$DIMJUST
 70
    0
  9
$DIMSD1
 70
    0
  9
$DIMSD2
 70
    0
  9
$DIMTOLJ
 70
    0
  9
$DIMTZIN
 70
    8
  9
$DIMALTZ
 70
    0
  9
$DIMALTTZ
 70
    0
  9
$DIMUPT
 70
    0
  9
$DIMDEC
 70
    2
  9
$DIMTDEC
 70
    2
  9
$DIMALTU
 70
    2
  9
$DIMALTTD
 70
    3
  9
$DIMTXSTY
  7
standard
  9
$DIMAUNIT
 70
    0
  9
$DIMADEC
 70
    0
  9
$DIMALTRND
 40
0
  9
$DIMAZIN
 70
    0
  9
$DIMDSEP
 70
   44
  9
$DIMATFIT
 70
    3
  9
$DIMFRAC
 70
    0
  9
$DIMLDRBLK
  1
STANDARD
  9
$DIMLUNIT
 70
    2
  9
$DIMLWD
 70
   -2
  9
$DIMLWE
 70
   -2
  9
$DIMTMOVE
 70
    0
  9
$DIMFXL
 40
1
  9
$DIMFXLON
 70
    0
  9
$DIMJOGANG
 40
0.7854
  9
$DIMTFILL
 70
    0
  9
$DIMTFILLCLR
 70
    0
  9
$DIMARCSYM
 70
    0
  9
$DIMLTYPE
  6

  9
$DIMLTEX1
  6

  9
$DIMLTEX2
  6

  9
$LUNITS
 70
    2
  9
$LUPREC
 70
    4
  9
$SKETCHINC
 40
1
  9
$FILLETRAD
 40
0
  9
$AUNITS
 70
    0
  9
$AUPREC
 70
    2
  9
$MENU
  1
.
  9
$ELEVATION
 40
0
  9
$PELEVATION
 40
0
  9
$THICKNESS
 40
0
  9
$LIMCHECK
 70
    0
  9
$CHAMFERA
 40
0
  9
$CHAMFERB
 40
0
  9
$CHAMFERC
 40
0
  9
$CHAMFERD
 40
0
  9
$SKPOLY
 70
    0
  9
$USRTIMER
 70
    1
  9
$ANGBASE
 50
0
  9
$ANGDIR
 70
    0
  9
$PDMODE
 70
   34
  9
$PDSIZE
 40
0
  9
$PLINEWID
 40
0
  9
$SPLFRAME
 70
    0
  9
$SPLINETYPE
 70
    2
  9
$SPLINESEGS
 70
    8
  9
$HANDSEED
  5
20000
  9
$SURFTAB1
 70
    6
  9
$SURFTAB2
 70
    6
  9
$SURFTYPE
 70
    6
  9
$SURFU
 70
    6
  9
$SURFV
 70
    6
  9
$UCSBASE
  2

  9
$UCSNAME
  2

  9
$UCSORG
 10
0
 20
0
 30
0
  9
$UCSXDIR
 10
1
 20
0
 30
0
  9
$UCSYDIR
 10
0
 20
1
 30
0
  9
$UCSORTHOREF
  2

  9
$UCSORTHOVIEW
 70
    0
  9
$UCSORGTOP
 10
0
 20
0
 30
0
  9
$UCSORGBOTTOM
 10
0
 20
0
 30
0
  9
$UCSORGLEFT
 10
0
 20
0
 30
0
  9
$UCSORGRIGHT
 10
0
 20
0
 30
0
  9
$UCSORGFRONT
 10
0
 20
0
 30
0
  9
$UCSORGBACK
 10
0
 20
0
 30
0
  9
$PUCSBASE
  2

  9
$PUCSNAME
  2

  9
$PUCSORG
 10
0
 20
0
 30
0
  9
$PUCSXDIR
 10
1
 20
0
 30
0
  9
$PUCSYDIR
 10
0
 20
1
 30
0
  9
$PUCSORTHOREF
  2

  9
$PUCSORTHOVIEW
 70
    0
  9
$PUCSORGTOP
 10
0
 20
0
 30
0
  9
$PUCSORGBOTTOM
 10
0
 20
0
 30
0
  9
$PUCSORGLEFT
 10
0
 20
0
 30
0
  9
$PUCSORGRIGHT
 10
0
 20
0
 30
0
  9
$PUCSORGFRONT
 10
0
 20
0
 30
0
  9
$PUCSORGBACK
 10
0
 20
0
 30
0
  9
$USERI1
 70
    0
  9
$USERI2
 70
    0
  9
$USERI3
 70
    0
  9
$USERI4
 70
    0
  9
$USERI5
 70
    0
  9
$USERR1
 40
0
  9
$USERR2
 40
0
  9
$USERR3
 40
0
  9
$USERR4
 40
0
  9
$USERR5
 40
0
  9
$WORLDVIEW
 70
    1
  9
$SHADEDGE
 70
    3
  9
$SHADEDIF
 70
   70
  9
$TILEMODE
 70
    1
  9
$MAXACTVP
 70
   64
  9
$PINSBASE
 10
96.82052942353869
 20
-195.9688337050584
 30
0
  9
$PLIMCHECK
 70
    0
  9
$PEXTMIN
 10
0
 20
0
 30
0
  9
$PEXTMAX
 10
0
 20
0
 30
0
  9
$GRIDMODE
 70
    0
  9
$SNAPSTYLE
 70
    0
  9
$GRIDUNIT
 10
0
 20
0
  9
$PLIMMIN
 10
0
 20
0
  9
$PLIMMAX
 10
297
 20
210
  9
$UNITMODE
 70
    0
  9
$VISRETAIN
 70
    1
  9
$PLINEGEN
 70
    0
  9
$PSLTSCALE
 70
    1
  9
$TREEDEPTH
 70
 3020
  9
$CMLSTYLE
  2
Standard
  9
$CMLJUST
 70
    0
  9
$CMLSCALE
 40
20
  9
$PROXYGRAPHICS
 70
    1
  9
$MEASUREMENT
 70
    1
  9
$CELWEIGHT
370
   -1
  9
$ENDCAPS
280
    0
  9
$JOINSTYLE
280
    0
  9
$LWDISPLAY
290
    0
  9
$INSUNITS
 70
    0
  9
$HYPERLINKBASE
  1

  9
$STYLESHEET
  1

  9
$XEDIT
290
    1
  9
$CEPSNTYPE
380
    0
  9
$PSTYLEMODE
290
    1
  9
$EXTNAMES
290
    1
  9
$PSVPSCALE
 40
2.966329648783303
  9
$OLESTARTUP
290
    0
  9
$SORTENTS
280
  127
  9
$INDEXCTL
280
    0
  9
$HIDETEXT
280
    1
  9
$XCLIPFRAME
290
    0
  9
$HALOGAP
280
    0
  9
$OBSCOLOR
 70
  257
  9
$OBSLTYPE
280
    0
  9
$INTERSECTIONDISPLAY
280
    0
  9
$INTERSECTIONCOLOR
 70
  257
  9
$DIMASSOC
280
    1
  9
$PROJECTNAME
  1

  9
$CAMERADISPLAY
290
    0
  9
$LENSLENGTH
 40
50
  9
$CAMERAHEIGHT
 40
0
  9
$STEPSPERSEC
 40
2
  9
$STEPSIZE
 40
50
  9
$3DDWFPREC
 40
2
  9
$PSOLWIDTH
 40
5
  9
$PSOLHEIGHT
 40
80
  9
$LOFTANG1
 40
1.570796326794897
  9
$LOFTANG2
 40
1.570796326794897
  9
$LOFTMAG1
 40
0
  9
$LOFTMAG2
 40
0
  9
$LOFTPARAM
 70
    7
  9
$LOFTNORMALS
280
    1
  9
$LATITUDE
 40
1
  9
$LONGITUDE
 40
1
  9
$NORTHDIRECTION
 40
0
  9
$TIMEZONE
 70
-8000
  9
$LIGHTGLYPHDISPLAY
280
    1
  9
$TILEMODELIGHTSYNCH
280
    1
  9
$SOLIDHIST
280
    1
  9
$SHOWHIST
280
    1
  9
$DWFFRAME
280
    2
  9
$DGNFRAME
280
    0
  9
$REALWORLDSCALE
290
    1
  9
$INTERFERECOLOR
 62
    1
  9
$CSHADOW
280
    0
  9
$SHADOWPLANELOCATION
 40
0
  0
ENDSEC
  0
SECTION
  2
CLASSES
  0
ENDSEC
  0
SECTION
  2
TABLES
  0
TABLE
  2
VPORT
  5
8
330
0
100
AcDbSymbolTable
 70
    1
  0
VPORT
  5
31
330
2
100
AcDbSymbolTableRecord
100
AcDbViewportTableRecord
  2
*ACTIVE
 70
    0
 10
0
 20
0
 11
1
 21
1
 12
35.29290210180645
 22
73.43554164040474
 13
0
 23
0
 14
10
 24
10
 15
10
 25
10
 16
0
 26
0
 36
1
 17
0
 27
0
 37
0
 40
105.2210745892366
 41
1.626041666666667
 42
50
 43
0
 44
0
 50
0
 51
0
 71
    0
 72
  100
 73
    1
 74
    3
 75
    0
 76
    0
 77
    0
 78
    0
281
    0
 65
    1
110
0
120
0
130
0
111
1
121
0
131
0
112
0
122
1
132
0
 79
    0
146
0
348
10020
 60
    7
 61
    5
292
1
282
    1
141
0
142
0
 63
  250
421
3358443
  0
ENDTAB
  0
TABLE
  2
LTYPE
  5
5
330
0
100
AcDbSymbolTable
 70
    4
  0
LTYPE
  5
14
330
5
100
AcDbSymbolTableRecord
100
AcDbLinetypeTableRecord
  2
ByBlock
 70
    0
  3

 72
   65
 73
    0
 40
0
  0
LTYPE
  5
15
330
5
100
AcDbSymbolTableRecord
100
AcDbLinetypeTableRecord
  2
ByLayer
 70
    0
  3

 72
   65
 73
    0
 40
0
  0
LTYPE
  5
16
330
5
100
AcDbSymbolTableRecord
100
AcDbLinetypeTableRecord
  2
Continuous
 70
    0
  3
Solid line
 72
   65
 73
    0
 40
0
  0
LTYPE
  5
32
330
5
100
AcDbSymbolTableRecord
100
AcDbLinetypeTableRecord
  2
DOT
 70
    0
  3
Dot . . . . . . . . . . . . . . . . . . . . . .
 72
   65
 73
    2
 40
6.35
 49
0
 74
    0
 49
-6.35
 74
    0
  0
LTYPE
  5
33
330
5
100
AcDbSymbolTableRecord
100
AcDbLinetypeTableRecord
  2
DOTTINY
 70
    0
  3
Dot (.15x) .....................................
 72
   65
 73
    2
 40
0.9525
 49
0
 74
    0
 49
-0.9525
 74
    0
  0
LTYPE
  5
34
330
5
100
AcDbSymbolTableRecord
100
AcDbLinetypeTableRecord
  2
DOT2
 70
    0
  3
Dot (.5x) .....................................
 72
   65
 73
    2
 40
3.175
 49
0
 74
    0
 49
-3.175
 74
    0
  0
LTYPE
  5
35
330
5
100
AcDbSymbolTableRecord
100
AcDbLinetypeTableRecord
  2
DOTX2
 70
    0
  3
Dot (2x) .  .  .  .  .  .  .  .  .  .  .  .  .
 72
   65
 73
    2
 40
12.7
 49
0
 74
    0
 49
-12.7
 74
    0
  0
LTYPE
  5
36
330
5
100
AcDbSymbolTableRecord
100
AcDbLinetypeTableRecord
  2
DASHED
 70
    0
  3
Dashed _ _ _ _ _ _ _ _ _ _ _ _ _ _ _ _ _
 72
   65
 73
    2
 40
19.05
 49
12.7
 74
    0
 49
-6.35
 74
    0
  0
LTYPE
  5
37
330
5
100
AcDbSymbolTableRecord
100
AcDbLinetypeTableRecord
  2
DASHEDTINY
 70
    0
  3
Dashed (.15x) _ _ _ _ _ _ _ _ _ _ _ _ _ _ _ _ _
 72
   65
 73
    2
 40
2.8575
 49
1.905
 74
    0
 49
-0.9525
 74
    0
  0
LTYPE
  5
38
330
5
100
AcDbSymbolTableRecord
100
AcDbLinetypeTableRecord
  2
DASHED2
 70
    0
  3
Dashed (.5x) _ _ _ _ _ _ _ _ _ _ _ _ _ _ _ _ _
 72
   65
 73
    2
 40
9.524999999999999
 49
6.35
 74
    0
 49
-3.175
 74
    0
  0
LTYPE
  5
39
330
5
100
AcDbSymbolTableRecord
100
AcDbLinetypeTableRecord
  2
DASHEDX2
 70
    0
  3
Dashed (2x) ____  ____  ____  ____  ____  ___
 72
   65
 73
    2
 40
38.09999999999999
 49
25.4
 74
    0
 49
-12.7
 74
    0
  0
LTYPE
  5
3A
330
5
100
AcDbSymbolTableRecord
100
AcDbLinetypeTableRecord
  2
DASHDOT
 70
    0
  3
Dash dot __ . __ . __ . __ . __ . __ . __ . __
 72
   65
 73
    4
 40
25.4
 49
12.7
 74
    0
 49
-6.35
 74
    0
 49
0
 74
    0
 49
-6.35
 74
    0
  0
LTYPE
  5
3B
330
5
100
AcDbSymbolTableRecord
100
AcDbLinetypeTableRecord
  2
DASHDOTTINY
 70
    0
  3
Dash dot (.15x) _._._._._._._._._._._._._._._.
 72
   65
 73
    4
 40
3.81
 49
1.905
 74
    0
 49
-0.9525
 74
    0
 49
0
 74
    0
 49
-0.9525
 74
    0
  0
LTYPE
  5
3C
330
5
100
AcDbSymbolTableRecord
100
AcDbLinetypeTableRecord
  2
DASHDOT2
 70
    0
  3
Dash dot (.5x) _._._._._._._._._._._._._._._.
 72
   65
 73
    4
 40
12.7
 49
6.35
 74
    0
 49
-3.175
 74
    0
 49
0
 74
    0
 49
-3.175
 74
    0
  0
LTYPE
  5
3D
330
5
100
AcDbSymbolTableRecord
100
AcDbLinetypeTableRecord
  2
DASHDOTX2
 70
    0
  3
Dash dot (2x) ____  .  ____  .  ____  .  ___
 72
   65
 73
    4
 40
50.8
 49
25.4
 74
    0
 49
-12.7
 74
    0
 49
0
 74
    0
 49
-12.7
 74
    0
  0
LTYPE
  5
3E
330
5
100
AcDbSymbolTableRecord
100
AcDbLinetypeTableRecord
  2
DIVIDE
 70
    0
  3
Divide ____ . . ____ . . ____ . . ____ . . ____
 72
   65
 73
    6
 40
31.75
 49
12.7
 74
    0
 49
-6.35
 74
    0
 49
0
 74
    0
 49
-6.35
 74
    0
 49
0
 74
    0
 49
-6.35
 74
    0
  0
LTYPE
  5
3F
330
5
100
AcDbSymbolTableRecord
100
AcDbLinetypeTableRecord
  2
DIVIDETINY
 70
    0
  3
Divide (.15x) __..__..__..__..__..__..__..__.._
 72
   65
 73
    6
 40
4.7625
 49
1.905
 74
    0
 49
-0.9525
 74
    0
 49
0
 74
    0
 49
-0.9525
 74
    0
 49
0
 74
    0
 49
-0.9525
 74
    0
  0
LTYPE
  5
40
330
5
100
AcDbSymbolTableRecord
100
AcDbLinetypeTableRecord
  2
DIVIDE2
 70
    0
  3
Divide (.5x) __..__..__..__..__..__..__..__.._
 72
   65
 73
    6
 40
15.875
 49
6.35
 74
    0
 49
-3.175
 74
    0
 49
0
 74
    0
 49
-3.175
 74
    0
 49
0
 74
    0
 49
-3.175
 74
    0
  0
LTYPE
  5
41
330
5
100
AcDbSymbolTableRecord
100
AcDbLinetypeTableRecord
  2
DIVIDEX2
 70
    0
  3
Divide (2x) ________  .  .  ________  .  .  _
 72
   65
 73
    6
 40
63.5
 49
25.4
 74
    0
 49
-12.7
 74
    0
 49
0
 74
    0
 49
-12.7
 74
    0
 49
0
 74
    0
 49
-12.7
 74
    0
  0
LTYPE
  5
42
330
5
100
AcDbSymbolTableRecord
100
AcDbLinetypeTableRecord
  2
BORDER
 70
    0
  3
Border __ __ . __ __ . __ __ . __ __ . __ __ .
 72
   65
 73
    6
 40
44.45
 49
12.7
 74
    0
 49
-6.35
 74
    0
 49
12.7
 74
    0
 49
-6.35
 74
    0
 49
0
 74
    0
 49
-6.35
 74
    0
  0
LTYPE
  5
43
330
5
100
AcDbSymbolTableRecord
100
AcDbLinetypeTableRecord
  2
BORDERTINY
 70
    0
  3
Border (.15x) __.__.__.__.__.__.__.__.__.__.__.
 72
   65
 73
    6
 40
6.6675
 49
1.905
 74
    0
 49
-0.9525
 74
    0
 49
1.905
 74
    0
 49
-0.9525
 74
    0
 49
0
 74
    0
 49
-0.9525
 74
    0
  0
LTYPE
  5
44
330
5
100
AcDbSymbolTableRecord
100
AcDbLinetypeTableRecord
  2
BORDER2
 70
    0
  3
Border (.5x) __.__.__.__.__.__.__.__.__.__.__.
 72
   65
 73
    6
 40
22.225
 49
6.35
 74
    0
 49
-3.175
 74
    0
 49
6.35
 74
    0
 49
-3.175
 74
    0
 49
0
 74
    0
 49
-3.175
 74
    0
  0
LTYPE
  5
45
330
5
100
AcDbSymbolTableRecord
100
AcDbLinetypeTableRecord
  2
BORDERX2
 70
    0
  3
Border (2x) ____  ____  .  ____  ____  .  ___
 72
   65
 73
    6
 40
88.89999999999999
 49
25.4
 74
    0
 49
-12.7
 74
    0
 49
25.4
 74
    0
 49
-12.7
 74
    0
 49
0
 74
    0
 49
-12.7
 74
    0
  0
LTYPE
  5
46
330
5
100
AcDbSymbolTableRecord
100
AcDbLinetypeTableRecord
  2
CENTER
 70
    0
  3
Center ____ _ ____ _ ____ _ ____ _ ____ _ ____
 72
   65
 73
    4
 40
50.8
 49
31.75
 74
    0
 49
-6.35
 74
    0
 49
6.35
 74
    0
 49
-6.35
 74
    0
  0
LTYPE
  5
47
330
5
100
AcDbSymbolTableRecord
100
AcDbLinetypeTableRecord
  2
CENTERTINY
 70
    0
  3
Center (.15x) ___ _ ___ _ ___ _ ___ _ ___ _ ___
 72
   65
 73
    4
 40
7.619999999999999
 49
4.7625
 74
    0
 49
-0.9525
 74
    0
 49
0.9525
 74
    0
 49
-0.9525
 74
    0
  0
LTYPE
  5
48
330
5
100
AcDbSymbolTableRecord
100
AcDbLinetypeTableRecord
  2
CENTER2
 70
    0
  3
Center (.5x) ___ _ ___ _ ___ _ ___ _ ___ _ ___
 72
   65
 73
    4
 40
28.575
 49
19.05
 74
    0
 49
-3.175
 74
    0
 49
3.175
 74
    0
 49
-3.175
 74
    0
  0
LTYPE
  5
49
330
5
100
AcDbSymbolTableRecord
100
AcDbLinetypeTableRecord
  2
CENTERX2
 70
    0
  3
Center (2x) ________  __  ________  __  _____
 72
   65
 73
    4
 40
101.6
 49
63.5
 74
    0
 49
-12.7
 74
    0
 49
12.7
 74
    0
 49
-12.7
 74
    0
  0
ENDTAB
  0
TABLE
  2
LAYER
  5
2
330
0
100
AcDbSymbolTable
 70
    1
  0
LAYER
  5
10
330
2
100
AcDbSymbolTableRecord
100
AcDbLayerTableRecord
  2
0
 70
    0
 62
    7
  6
CONTINUOUS
370
    9
390
F
  0
LAYER
  5
4A
330
2
100
AcDbSymbolTableRecord
100
AcDbLayerTableRecord
  2
0_GND
 70
    0
 62
    7
  6
CONTINUOUS
370
   15
390
F
  0
LAYER
  5
4B
330
2
100
AcDbSymbolTableRecord
100
AcDbLayerTableRecord
  2
0_draft
 70
    0
 62
    7
  6
DOTTINY
370
   -3
390
F
1001
LibreCad
1070
    1
  0
LAYER
  5
4C
330
2
100
AcDbSymbolTableRecord
100
AcDbLayerTableRecord
  2
0_wire
 70
    0
 62
   92
420
51200
  6
CONTINUOUS
370
   15
390
F
  0
LAYER
  5
4D
330
2
100
AcDbSymbolTableRecord
100
AcDbLayerTableRecord
  2
1_wire
 70
    0
 62
    2
  6
CONTINUOUS
370
   15
390
F
  0
LAYER
  5
4E
330
2
100
AcDbSymbolTableRecord
100
AcDbLayerTableRecord
  2
3.3V line
 70
    0
 62
   40
420
16755200
  6
CONTINUOUS
370
   15
390
F
  0
LAYER
  5
4F
330
2
100
AcDbSymbolTableRecord
100
AcDbLayerTableRecord
  2
5V line
 70
    0
 62
    1
  6
CONTINUOUS
370
   15
390
F
  0
LAYER
  5
50
330
2
100
AcDbSymbolTableRecord
100
AcDbLayerTableRecord
  2
condenser
 70
    0
 62
    5
  6
CONTINUOUS
370
   15
390
F
  0
LAYER
  5
51
330
2
100
AcDbSymbolTableRecord
100
AcDbLayerTableRecord
  2
crystal
 70
    0
 62
   96
420
32768
  6
CONTINUOUS
370
   15
390
F
  0
LAYER
  5
52
330
2
100
AcDbSymbolTableRecord
100
AcDbLayerTableRecord
  2
diode
 70
    0
 62
  212
420
14549214
  6
CONTINUOUS
370
   15
390
F
  0
LAYER
  5
53
330
2
100
AcDbSymbolTableRecord
100
AcDbLayerTableRecord
  2
kakou
 70
    0
 62
  176
420
  128
  6
CONTINUOUS
370
   15
390
F
  0
LAYER
  5
54
330
2
100
AcDbSymbolTableRecord
100
AcDbLayerTableRecord
  2
micon
 70
    0
 62
  216
420
8388736
  6
CONTINUOUS
370
   15
390
F
  0
LAYER
  5
55
330
2
100
AcDbSymbolTableRecord
100
AcDbLayerTableRecord
  2
resister
 70
    0
 62
  132
420
57054
  6
CONTINUOUS
370
   15
390
F
  0
LAYER
  5
56
330
2
100
AcDbSymbolTableRecord
100
AcDbLayerTableRecord
  2
socket_header
 70
    0
 62
   56
420
8421376
  6
CONTINUOUS
370
   15
390
F
  0
LAYER
  5
57
330
2
100
AcDbSymbolTableRecord
100
AcDbLayerTableRecord
  2
switch
 70
    0
 62
  136
420
32896
  6
CONTINUOUS
370
   15
390
F
  0
LAYER
  5
58
330
2
100
AcDbSymbolTableRecord
100
AcDbLayerTableRecord
  2
terminal
 70
    0
 62
   16
420
8388608
  6
CONTINUOUS
370
   15
390
F
  0
LAYER
  5
59
330
2
100
AcDbSymbolTableRecord
100
AcDbLayerTableRecord
  2
universal_board
 70
    4
 62
  253
420
10526884
  6
CONTINUOUS
370
   15
390
F
  0
ENDTAB
  0
TABLE
  2
STYLE
  5
3
330
0
100
AcDbSymbolTable
 70
    3
  0
STYLE
  5
5A
330
2
100
AcDbSymbolTableRecord
100
AcDbTextStyleTableRecord
  2
kst32b
 70
    0
 40
0
 41
1
 50
0
 71
    0
 42
1
  3
kst32b
  4

  0
STYLE
  5
5B
330
2
100
AcDbSymbolTableRecord
100
AcDbTextStyleTableRecord
  2
unicode
 70
    0
 40
0
 41
1
 50
0
 71
    0
 42
1
  3
unicode
  4

  0
STYLE
  5
5C
330
2
100
AcDbSymbolTableRecord
100
AcDbTextStyleTableRecord
  2
STANDARD
 70
    0
 40
0
 41
1
 50
0
 71
    0
 42
1
  3
STANDARD
  4

  0
ENDTAB
  0
TABLE
  2
VIEW
  5
6
330
0
100
AcDbSymbolTable
 70
    0
  0
ENDTAB
  0
TABLE
  2
UCS
  5
7
330
0
100
AcDbSymbolTable
 70
    0
  0
ENDTAB
  0
TABLE
  2
APPID
  5
9
330
0
100
AcDbSymbolTable
 70
    1
  0
APPID
  5
12
330
9
100
AcDbSymbolTableRecord
100
AcDbRegAppTableRecord
  2
ACAD
 70
    0
  0
APPID
  5
5D
330
9
100
AcDbSymbolTableRecord
100
AcDbRegAppTableRecord
  2
LibreCad
 70
    0
  0
ENDTAB
  0
TABLE
  2
DIMSTYLE
  5
A
330
0
100
AcDbSymbolTable
 70
    1
100
AcDbDimStyleTable
 71
    1
  0
DIMSTYLE
105
5E
330
A
100
AcDbSymbolTableRecord
100
AcDbDimStyleTableRecord
  2
Standard
 70
    0
 40
1
 41
2.5
 42
0.625
 43
0.38
 44
1.25
 45
0
 46
0
 47
0
 48
0
 49
1
140
2.5
141
0.09
142
0
143
25.4
144
1
145
0
146
1
147
0.625
148
0
 71
    0
 72
    0
 73
    0
 74
    1
 75
    0
 76
    0
 77
    0
 78
    8
 79
    0
170
    0
171
    2
172
    0
173
    0
174
    0
175
    0
176
    0
177
    0
178
    0
179
    0
271
    2
272
    4
273
    2
274
    2
275
    0
276
    0
277
    2
278
   44
279
    0
280
    0
281
    0
282
    0
283
    1
284
    0
285
    0
286
    0
288
    0
289
    3
340
5C
  0
ENDTAB
  0
TABLE
  2
BLOCK_RECORD
  5
1
330
0
100
AcDbSymbolTable
 70
    2
  0
BLOCK_RECORD
  5
1F
330
1
100
AcDbSymbolTableRecord
100
AcDbBlockTableRecord
  2
*Model_Space
 70
    0
280
    1
281
    0
  0
BLOCK_RECORD
  5
1E
330
1
100
AcDbSymbolTableRecord
100
AcDbBlockTableRecord
  2
*Paper_Space
 70
    0
280
    1
281
    0
  0
BLOCK_RECORD
  5
5F
330
1
100
AcDbSymbolTableRecord
100
AcDbBlockTableRecord
  2
2227MC-08-03
 70
    0
280
    1
281
    0
  0
BLOCK_RECORD
  5
62
330
1
100
AcDbSymbolTableRecord
100
AcDbBlockTableRecord
  2
PIC16F15325
 70
    0
280
    1
281
    0
  0
BLOCK_RECORD
  5
65
330
1
100
AcDbSymbolTableRecord
100
AcDbBlockTableRecord
  2
2227MC-28-03
 70
    0
280
    1
281
    0
  0
BLOCK_RECORD
  5
68
330
1
100
AcDbSymbolTableRecord
100
AcDbBlockTableRecord
  2
HUSG-16.000-20
 70
    0
280
    1
281
    0
  0
BLOCK_RECORD
  5
6B
330
1
100
AcDbSymbolTableRecord
100
AcDbBlockTableRecord
  2
ATmega328P
 70
    0
280
    1
281
    0
  0
BLOCK_RECORD
  5
6E
330
1
100
AcDbSymbolTableRecord
100
AcDbBlockTableRecord
  2
DTS-63-N-V-BLK
 70
    0
280
    1
281
    0
  0
BLOCK_RECORD
  5
71
330
1
100
AcDbSymbolTableRecord
100
AcDbBlockTableRecord
  2
2227MC-14-03
 70
    0
280
    1
281
    0
  0
BLOCK_RECORD
  5
74
330
1
100
AcDbSymbolTableRecord
100
AcDbBlockTableRecord
  2
C_0.01uF
 70
    0
280
    1
281
    0
  0
BLOCK_RECORD
  5
77
330
1
100
AcDbSymbolTableRecord
100
AcDbBlockTableRecord
  2
R300
 70
    0
280
    1
281
    0
  0
BLOCK_RECORD
  5
7A
330
1
100
AcDbSymbolTableRecord
100
AcDbBlockTableRecord
  2
R10k
 70
    0
280
    1
281
    0
  0
BLOCK_RECORD
  5
7D
330
1
100
AcDbSymbolTableRecord
100
AcDbBlockTableRecord
  2
R0
 70
    0
280
    1
281
    0
  0
ENDTAB
  0
ENDSEC
  0
SECTION
  2
BLOCKS
  0
BLOCK
  5
20
330
1F
100
AcDbEntity
  8
0
100
AcDbBlockBegin
  2
*Model_Space
 70
    0
 10
0
 20
0
 30
0
  3
*Model_Space
  1

  0
ENDBLK
  5
21
330
1F
100
AcDbEntity
  8
0
100
AcDbBlockEnd
  0
BLOCK
  5
1C
330
1B
100
AcDbEntity
  8
0
100
AcDbBlockBegin
  2
*Paper_Space
 70
    0
 10
0
 20
0
 30
0
  3
*Paper_Space
  1

  0
ENDBLK
  5
1D
330
1F
100
AcDbEntity
  8
0
100
AcDbBlockEnd
  0
BLOCK
  5
60
330
5F
100
AcDbEntity
  8
0
100
AcDbBlockBegin
  2
2227MC-08-03
 70
    0
 10
0
 20
0
  3
2227MC-08-03
  1

  0
LINE
  5
80
100
AcDbEntity
  8
socket_header
  6
ByLayer
 62
  256
370
   -1
100
AcDbLine
 10
-1.270000000000131
 20
-8.890000110779171
 11
-1.270000000000131
 21
1.269999889220831
  0
LINE
  5
81
100
AcDbEntity
  8
socket_header
  6
ByLayer
 62
  256
370
   -1
100
AcDbLine
 10
-1.270000000000131
 20
1.269999889220831
 11
8.890000394687402
 21
1.269999889220831
  0
LINE
  5
82
100
AcDbEntity
  8
socket_header
  6
ByLayer
 62
  256
370
   -1
100
AcDbLine
 10
8.890000394687402
 20
1.269999889220831
 11
8.88999999999989
 21
-8.890000110779171
  0
LINE
  5
83
100
AcDbEntity
  8
socket_header
  6
ByLayer
 62
  256
370
   -1
100
AcDbLine
 10
8.88999999999989
 20
-8.890000110779171
 11
-1.270000000000131
 21
-8.890000110779171
  0
CIRCLE
  5
84
100
AcDbEntity
  8
socket_header
  6
ByLayer
 62
  256
370
   -1
100
AcDbCircle
 10
2.539999999999878
 20
1.06581410364015e-14
 40
0.6
  0
CIRCLE
  5
85
100
AcDbEntity
  8
socket_header
  6
ByLayer
 62
  256
370
   -1
100
AcDbCircle
 10
2.539999999999893
 20
-7.620000000000061
 40
0.6
  0
CIRCLE
  5
86
100
AcDbEntity
  8
socket_header
  6
ByLayer
 62
  256
370
   -1
100
AcDbCircle
 10
0
 20
0
 40
0.6
  0
CIRCLE
  5
87
100
AcDbEntity
  8
socket_header
  6
ByLayer
 62
  256
370
   -1
100
AcDbCircle
 10
7.105427357601002e-15
 20
-7.620000000000072
 40
0.6
  0
CIRCLE
  5
88
100
AcDbEntity
  8
socket_header
  6
ByLayer
 62
  256
370
   -1
100
AcDbCircle
 10
5.079999999999757
 20
2.842170943040401e-14
 40
0.6
  0
CIRCLE
  5
89
100
AcDbEntity
  8
socket_header
  6
ByLayer
 62
  256
370
   -1
100
AcDbCircle
 10
5.079999999999771
 20
-7.620000000000051
 40
0.6
  0
CIRCLE
  5
8A
100
AcDbEntity
  8
socket_header
  6
ByLayer
 62
  256
370
   -1
100
AcDbCircle
 10
7.619999999999639
 20
3.907985046680551e-14
 40
0.6
  0
CIRCLE
  5
8B
100
AcDbEntity
  8
socket_header
  6
ByLayer
 62
  256
370
   -1
100
AcDbCircle
 10
7.61999999999966
 20
-7.62000000000004
 40
0.6
  0
MTEXT
  5
8C
100
AcDbEntity
  8
socket_header
  6
ByLayer
 62
  256
370
   -1
100
AcDbMText
 10
3.950796119092651
 20
-1.713679173150673
 30
0
 40
1
 41
9.222222222222346
 71
    5
 72
    1
  1
2227MC-08-03
  7
STANDARD
210
0
220
0
230
1
 50
0
 73
    2
 44
1
  0
ENDBLK
  5
61
330
5F
100
AcDbEntity
  8
0
100
AcDbBlockEnd
  0
BLOCK
  5
63
330
62
100
AcDbEntity
  8
0
100
AcDbBlockBegin
  2
PIC16F15325
 70
    0
 10
0
 20
0
  3
PIC16F15325
  1

  0
ENDBLK
  5
64
330
62
100
AcDbEntity
  8
0
100
AcDbBlockEnd
  0
BLOCK
  5
66
330
65
100
AcDbEntity
  8
0
100
AcDbBlockBegin
  2
2227MC-28-03
 70
    0
 10
0
 20
0
  3
2227MC-28-03
  1

  0
ENDBLK
  5
67
330
65
100
AcDbEntity
  8
0
100
AcDbBlockEnd
  0
BLOCK
  5
69
330
68
100
AcDbEntity
  8
0
100
AcDbBlockBegin
  2
HUSG-16.000-20
 70
    0
 10
0
 20
0
  3
HUSG-16.000-20
  1

  0
ENDBLK
  5
6A
330
68
100
AcDbEntity
  8
0
100
AcDbBlockEnd
  0
BLOCK
  5
6C
330
6B
100
AcDbEntity
  8
0
100
AcDbBlockBegin
  2
ATmega328P
 70
    0
 10
0
 20
0
  3
ATmega328P
  1

  0
ENDBLK
  5
6D
330
6B
100
AcDbEntity
  8
0
100
AcDbBlockEnd
  0
BLOCK
  5
6F
330
6E
100
AcDbEntity
  8
0
100
AcDbBlockBegin
  2
DTS-63-N-V-BLK
 70
    0
 10
0
 20
0
  3
DTS-63-N-V-BLK
  1

  0
ENDBLK
  5
70
330
6E
100
AcDbEntity
  8
0
100
AcDbBlockEnd
  0
BLOCK
  5
72
330
71
100
AcDbEntity
  8
0
100
AcDbBlockBegin
  2
2227MC-14-03
 70
    0
 10
0
 20
0
  3
2227MC-14-03
  1

  0
ENDBLK
  5
73
330
71
100
AcDbEntity
  8
0
100
AcDbBlockEnd
  0
BLOCK
  5
75
330
74
100
AcDbEntity
  8
0
100
AcDbBlockBegin
  2
C_0.01uF
 70
    0
 10
0
 20
0
  3
C_0.01uF
  1

  0
LWPOLYLINE
  5
8D
100
AcDbEntity
  8
condenser
  6
ByLayer
 62
  256
370
   -1
100
AcDbPolyline
 90
    4
 70
    1
 43
0
 10
1.499999999999972
 20
5.039999999999822
 10
1.499999999999972
 20
0.03999999999992099
 10
-1.50000000000005
 20
0.03999999999992099
 10
-1.50000000000005
 20
5.039999999999822
  0
MTEXT
  5
8E
100
AcDbEntity
  8
condenser
  6
ByLayer
 62
  256
370
   -1
100
AcDbMText
 10
2.336701583810211
 20
2.491803864245341
 30
0
 40
1
 41
3.666666666666713
 71
    5
 72
    1
  1
0.01uF
  7
STANDARD
210
0
220
0
230
1
 50
270
 73
    2
 44
1
  0
CIRCLE
  5
8F
100
AcDbEntity
  8
condenser
  6
ByLayer
 62
  256
370
   -1
100
AcDbCircle
 10
0
 20
0
 40
0.4
  0
CIRCLE
  5
90
100
AcDbEntity
  8
condenser
  6
ByLayer
 62
  256
370
   -1
100
AcDbCircle
 10
-6.927791673660977e-14
 20
5.080000000000041
 40
0.4
  0
ENDBLK
  5
76
330
74
100
AcDbEntity
  8
0
100
AcDbBlockEnd
  0
BLOCK
  5
78
330
77
100
AcDbEntity
  8
0
100
AcDbBlockBegin
  2
R300
 70
    0
 10
0
 20
0
  3
R300
  1

  0
LWPOLYLINE
  5
91
100
AcDbEntity
  8
resister
  6
ByLayer
 62
  256
370
   -1
100
AcDbPolyline
 90
    4
 70
    1
 43
0
 10
-1.150000000000091
 20
0.6599999999995898
 10
-1.15000000000008
 20
6.959999999999511
 10
1.150000000000126
 20
6.959999999999511
 10
1.150000000000119
 20
0.6599999999995898
  0
CIRCLE
  5
92
100
AcDbEntity
  8
resister
  6
ByLayer
 62
  256
370
   -1
100
AcDbCircle
 10
1.953992523340276e-14
 20
7.619999999999639
 40
0.3
  0
LINE
  5
93
100
AcDbEntity
  8
resister
  6
ByLayer
 62
  256
370
   -1
100
AcDbLine
 10
1.953992523340276e-14
 20
0.2999999999998604
 11
1.031014139840636e-06
 21
0.6599999999995898
  0
LINE
  5
94
100
AcDbEntity
  8
resister
  6
ByLayer
 62
  256
370
   -1
100
AcDbLine
 10
3.907985046680551e-14
 20
6.959999999999511
 11
3.907985046680551e-14
 21
7.320000000000348
  0
MTEXT
  5
95
100
AcDbEntity
  8
resister
  6
ByLayer
 62
  256
370
   -1
100
AcDbMText
 10
-0.02409769535478112
 20
3.951579464078229
 30
0
 40
1
 41
2.888888888888951
 71
    5
 72
    1
  1
R300
  7
STANDARD
210
0
220
0
230
1
 50
90
 73
    2
 44
1
  0
CIRCLE
  5
96
100
AcDbEntity
  8
resister
  6
ByLayer
 62
  256
370
   -1
100
AcDbCircle
 10
0
 20
0
 40
0.25
  0
ENDBLK
  5
79
330
77
100
AcDbEntity
  8
0
100
AcDbBlockEnd
  0
BLOCK
  5
7B
330
7A
100
AcDbEntity
  8
0
100
AcDbBlockBegin
  2
R10k
 70
    0
 10
0
 20
0
  3
R10k
  1

  0
CIRCLE
  5
97
100
AcDbEntity
  8
resister
  6
ByLayer
 62
  256
370
   -1
100
AcDbCircle
 10
0
 20
0
 40
0.3
  0
LINE
  5
98
100
AcDbEntity
  8
resister
  6
ByLayer
 62
  256
370
   -1
100
AcDbLine
 10
-0.659999999999485
 20
1.150000000000098
 11
-0.659999999999485
 21
-1.150000000000059
  0
LINE
  5
99
100
AcDbEntity
  8
resister
  6
ByLayer
 62
  256
370
   -1
100
AcDbLine
 10
-6.959999999999557
 20
-1.150000000000041
 11
-0.659999999999485
 21
-1.150000000000059
  0
LINE
  5
9A
100
AcDbEntity
  8
resister
  6
ByLayer
 62
  256
370
   -1
100
AcDbLine
 10
-0.659999999999485
 20
1.150000000000098
 11
-6.959999999999557
 21
1.150000000000098
  0
LINE
  5
9B
100
AcDbEntity
  8
resister
  6
ByLayer
 62
  256
370
   -1
100
AcDbLine
 10
-6.959999999999557
 20
1.150000000000098
 11
-6.959999999999557
 21
-1.150000000000041
  0
CIRCLE
  5
9C
100
AcDbEntity
  8
resister
  6
ByLayer
 62
  256
370
   -1
100
AcDbCircle
 10
-7.619999999999408
 20
2.131628207280301e-14
 40
0.25
  0
MTEXT
  5
9D
100
AcDbEntity
  8
resister
  6
ByLayer
 62
  256
370
   -1
100
AcDbMText
 10
-3.991855261194459
 20
0.08749576228997924
 30
0
 40
1
 41
2.666666666666667
 71
    5
 72
    1
  1
R10k
  7
unicode
210
0
220
0
230
1
 50
0
 73
    2
 44
1
  0
LINE
  5
9E
100
AcDbEntity
  8
resister
  6
ByLayer
 62
  256
370
   -1
100
AcDbLine
 10
-0.2499999999985789
 20
2.131628207280301e-14
 11
-0.659999999999485
 21
2.131628207280301e-14
  0
LINE
  5
9F
100
AcDbEntity
  8
resister
  6
ByLayer
 62
  256
370
   -1
100
AcDbLine
 10
-7.369999999999898
 20
1.06581410364015e-14
 11
-6.959999999999557
 21
1.06581410364015e-14
  0
ENDBLK
  5
7C
330
7A
100
AcDbEntity
  8
0
100
AcDbBlockEnd
  0
BLOCK
  5
7E
330
7D
100
AcDbEntity
  8
0
100
AcDbBlockBegin
  2
R0
 70
    0
 10
0
 20
0
  3
R0
  1

  0
LINE
  5
A0
100
AcDbEntity
  8
resister
  6
ByLayer
 62
  256
370
   -1
100
AcDbLine
 10
-0.6599999999999611
 20
1.149999999999959
 11
-0.6599999999999611
 21
-1.14999999999997
  0
LINE
  5
A1
100
AcDbEntity
  8
resister
  6
ByLayer
 62
  256
370
   -1
100
AcDbLine
 10
-0.6599999999999611
 20
-1.14999999999997
 11
-6.959999999999834
 21
-1.14999999999997
  0
LINE
  5
A2
100
AcDbEntity
  8
resister
  6
ByLayer
 62
  256
370
   -1
100
AcDbLine
 10
-6.959999999999834
 20
-1.14999999999997
 11
-6.95999999999982
 21
1.149999999999959
  0
LINE
  5
A3
100
AcDbEntity
  8
resister
  6
ByLayer
 62
  256
370
   -1
100
AcDbLine
 10
-6.95999999999982
 20
1.149999999999959
 11
-0.6599999999999611
 21
1.149999999999959
  0
LINE
  5
A4
100
AcDbEntity
  8
resister
  6
ByLayer
 62
  256
370
   -1
100
AcDbLine
 10
-6.95999999999982
 20
0
 11
-7.61999999999966
 21
0
  0
LINE
  5
A5
100
AcDbEntity
  8
resister
  6
ByLayer
 62
  256
370
   -1
100
AcDbLine
 10
3.694822225952521e-13
 20
0
 11
-0.6599999999999611
 21
0
  0
MTEXT
  5
A6
100
AcDbEntity
  8
resister
  6
ByLayer
 62
  256
370
   -1
100
AcDbMText
 10
-4.132042899777453
 20
0.05377778633712005
 30
0
 40
1
 41
1.333333333333333
 71
    5
 72
    1
  1
R0
  7
STANDARD
210
0
220
0
230
1
 50
270
 73
    2
 44
1
  0
ENDBLK
  5
7F
330
7D
100
AcDbEntity
  8
0
100
AcDbBlockEnd
  0
ENDSEC
  0
SECTION
  2
ENTITIES
  0
CIRCLE
  5
A7
100
AcDbEntity
  8
universal_board
  6
ByLayer
 62
  256
370
   -1
100
AcDbCircle
 10
9.519999999998509
 20
104.58
 40
0.5
  0
CIRCLE
  5
A8
100
AcDbEntity
  8
universal_board
  6
ByLayer
 62
  256
370
   -1
100
AcDbCircle
 10
9.5199999999985
 20
107.12
 40
0.5
  0
CIRCLE
  5
A9
100
AcDbEntity
  8
universal_board
  6
ByLayer
 62
  256
370
   -1
100
AcDbCircle
 10
9.51999999999849
 20
109.66
 40
0.5
  0
CIRCLE
  5
AA
100
AcDbEntity
  8
universal_board
  6
ByLayer
 62
  256
370
   -1
100
AcDbCircle
 10
9.51999999999849
 20
112.2000000000001
 40
0.5
  0
CIRCLE
  5
AB
100
AcDbEntity
  8
universal_board
  6
ByLayer
 62
  256
370
   -1
100
AcDbCircle
 10
9.519999999998479
 20
114.7400000000001
 40
0.5
  0
CIRCLE
  5
AC
100
AcDbEntity
  8
universal_board
  6
ByLayer
 62
  256
370
   -1
100
AcDbCircle
 10
9.51999999999847
 20
117.2800000000001
 40
0.5
  0
CIRCLE
  5
AD
100
AcDbEntity
  8
universal_board
  6
ByLayer
 62
  256
370
   -1
100
AcDbCircle
 10
9.519999999998461
 20
119.8200000000001
 40
0.5
  0
CIRCLE
  5
AE
100
AcDbEntity
  8
universal_board
  6
ByLayer
 62
  256
370
   -1
100
AcDbCircle
 10
9.519999999998461
 20
122.3600000000002
 40
0.5
  0
CIRCLE
  5
AF
100
AcDbEntity
  8
universal_board
  6
ByLayer
 62
  256
370
   -1
100
AcDbCircle
 10
9.519999999998451
 20
124.9000000000002
 40
0.5
  0
CIRCLE
  5
B0
100
AcDbEntity
  8
universal_board
  6
ByLayer
 62
  256
370
   -1
100
AcDbCircle
 10
9.519999999998451
 20
127.4400000000002
 40
0.5
  0
CIRCLE
  5
B1
100
AcDbEntity
  8
universal_board
  6
ByLayer
 62
  256
370
   -1
100
AcDbCircle
 10
9.519999999998451
 20
129.9800000000002
 40
0.5
  0
CIRCLE
  5
B2
100
AcDbEntity
  8
universal_board
  6
ByLayer
 62
  256
370
   -1
100
AcDbCircle
 10
9.519999999998451
 20
132.5200000000002
 40
0.5
  0
CIRCLE
  5
B3
100
AcDbEntity
  8
universal_board
  6
ByLayer
 62
  256
370
   -1
100
AcDbCircle
 10
12.05999999999845
 20
104.5799999999999
 40
0.5
  0
CIRCLE
  5
B4
100
AcDbEntity
  8
universal_board
  6
ByLayer
 62
  256
370
   -1
100
AcDbCircle
 10
12.05999999999844
 20
107.1199999999999
 40
0.5
  0
CIRCLE
  5
B5
100
AcDbEntity
  8
universal_board
  6
ByLayer
 62
  256
370
   -1
100
AcDbCircle
 10
12.05999999999843
 20
109.6599999999999
 40
0.5
  0
CIRCLE
  5
B6
100
AcDbEntity
  8
universal_board
  6
ByLayer
 62
  256
370
   -1
100
AcDbCircle
 10
12.05999999999843
 20
112.2
 40
0.5
  0
CIRCLE
  5
B7
100
AcDbEntity
  8
universal_board
  6
ByLayer
 62
  256
370
   -1
100
AcDbCircle
 10
12.05999999999842
 20
114.74
 40
0.5
  0
CIRCLE
  5
B8
100
AcDbEntity
  8
universal_board
  6
ByLayer
 62
  256
370
   -1
100
AcDbCircle
 10
12.05999999999841
 20
117.28
 40
0.5
  0
CIRCLE
  5
B9
100
AcDbEntity
  8
universal_board
  6
ByLayer
 62
  256
370
   -1
100
AcDbCircle
 10
12.0599999999984
 20
119.82
 40
0.5
  0
CIRCLE
  5
BA
100
AcDbEntity
  8
universal_board
  6
ByLayer
 62
  256
370
   -1
100
AcDbCircle
 10
12.0599999999984
 20
122.3600000000001
 40
0.5
  0
CIRCLE
  5
BB
100
AcDbEntity
  8
universal_board
  6
ByLayer
 62
  256
370
   -1
100
AcDbCircle
 10
12.05999999999839
 20
124.9000000000001
 40
0.5
  0
CIRCLE
  5
BC
100
AcDbEntity
  8
universal_board
  6
ByLayer
 62
  256
370
   -1
100
AcDbCircle
 10
12.05999999999839
 20
127.4400000000001
 40
0.5
  0
CIRCLE
  5
BD
100
AcDbEntity
  8
universal_board
  6
ByLayer
 62
  256
370
   -1
100
AcDbCircle
 10
12.05999999999839
 20
129.9800000000001
 40
0.5
  0
CIRCLE
  5
BE
100
AcDbEntity
  8
universal_board
  6
ByLayer
 62
  256
370
   -1
100
AcDbCircle
 10
12.05999999999839
 20
132.5200000000001
 40
0.5
  0
CIRCLE
  5
BF
100
AcDbEntity
  8
universal_board
  6
ByLayer
 62
  256
370
   -1
100
AcDbCircle
 10
14.59999999999839
 20
104.5799999999998
 40
0.5
  0
CIRCLE
  5
C0
100
AcDbEntity
  8
universal_board
  6
ByLayer
 62
  256
370
   -1
100
AcDbCircle
 10
14.59999999999838
 20
107.1199999999998
 40
0.5
  0
CIRCLE
  5
C1
100
AcDbEntity
  8
universal_board
  6
ByLayer
 62
  256
370
   -1
100
AcDbCircle
 10
14.59999999999837
 20
109.6599999999998
 40
0.5
  0
CIRCLE
  5
C2
100
AcDbEntity
  8
universal_board
  6
ByLayer
 62
  256
370
   -1
100
AcDbCircle
 10
14.59999999999837
 20
112.1999999999999
 40
0.5
  0
CIRCLE
  5
C3
100
AcDbEntity
  8
universal_board
  6
ByLayer
 62
  256
370
   -1
100
AcDbCircle
 10
14.59999999999836
 20
114.7399999999999
 40
0.5
  0
CIRCLE
  5
C4
100
AcDbEntity
  8
universal_board
  6
ByLayer
 62
  256
370
   -1
100
AcDbCircle
 10
14.59999999999835
 20
117.2799999999999
 40
0.5
  0
CIRCLE
  5
C5
100
AcDbEntity
  8
universal_board
  6
ByLayer
 62
  256
370
   -1
100
AcDbCircle
 10
14.59999999999834
 20
119.8199999999999
 40
0.5
  0
CIRCLE
  5
C6
100
AcDbEntity
  8
universal_board
  6
ByLayer
 62
  256
370
   -1
100
AcDbCircle
 10
14.59999999999834
 20
122.36
 40
0.5
  0
CIRCLE
  5
C7
100
AcDbEntity
  8
universal_board
  6
ByLayer
 62
  256
370
   -1
100
AcDbCircle
 10
14.59999999999833
 20
124.9
 40
0.5
  0
CIRCLE
  5
C8
100
AcDbEntity
  8
universal_board
  6
ByLayer
 62
  256
370
   -1
100
AcDbCircle
 10
14.59999999999833
 20
127.44
 40
0.5
  0
CIRCLE
  5
C9
100
AcDbEntity
  8
universal_board
  6
ByLayer
 62
  256
370
   -1
100
AcDbCircle
 10
14.59999999999833
 20
129.98
 40
0.5
  0
CIRCLE
  5
CA
100
AcDbEntity
  8
universal_board
  6
ByLayer
 62
  256
370
   -1
100
AcDbCircle
 10
14.59999999999833
 20
132.52
 40
0.5
  0
CIRCLE
  5
CB
100
AcDbEntity
  8
universal_board
  6
ByLayer
 62
  256
370
   -1
100
AcDbCircle
 10
17.13999999999833
 20
104.5799999999997
 40
0.5
  0
CIRCLE
  5
CC
100
AcDbEntity
  8
universal_board
  6
ByLayer
 62
  256
370
   -1
100
AcDbCircle
 10
17.13999999999832
 20
107.1199999999997
 40
0.5
  0
CIRCLE
  5
CD
100
AcDbEntity
  8
universal_board
  6
ByLayer
 62
  256
370
   -1
100
AcDbCircle
 10
17.13999999999831
 20
109.6599999999997
 40
0.5
  0
CIRCLE
  5
CE
100
AcDbEntity
  8
universal_board
  6
ByLayer
 62
  256
370
   -1
100
AcDbCircle
 10
17.13999999999831
 20
112.1999999999998
 40
0.5
  0
CIRCLE
  5
CF
100
AcDbEntity
  8
universal_board
  6
ByLayer
 62
  256
370
   -1
100
AcDbCircle
 10
17.1399999999983
 20
114.7399999999998
 40
0.5
  0
CIRCLE
  5
D0
100
AcDbEntity
  8
universal_board
  6
ByLayer
 62
  256
370
   -1
100
AcDbCircle
 10
17.13999999999829
 20
117.2799999999998
 40
0.5
  0
CIRCLE
  5
D1
100
AcDbEntity
  8
universal_board
  6
ByLayer
 62
  256
370
   -1
100
AcDbCircle
 10
17.13999999999828
 20
119.8199999999998
 40
0.5
  0
CIRCLE
  5
D2
100
AcDbEntity
  8
universal_board
  6
ByLayer
 62
  256
370
   -1
100
AcDbCircle
 10
17.13999999999828
 20
122.3599999999999
 40
0.5
  0
CIRCLE
  5
D3
100
AcDbEntity
  8
universal_board
  6
ByLayer
 62
  256
370
   -1
100
AcDbCircle
 10
17.13999999999827
 20
124.8999999999999
 40
0.5
  0
CIRCLE
  5
D4
100
AcDbEntity
  8
universal_board
  6
ByLayer
 62
  256
370
   -1
100
AcDbCircle
 10
17.13999999999827
 20
127.4399999999999
 40
0.5
  0
CIRCLE
  5
D5
100
AcDbEntity
  8
universal_board
  6
ByLayer
 62
  256
370
   -1
100
AcDbCircle
 10
17.13999999999827
 20
129.9799999999999
 40
0.5
  0
CIRCLE
  5
D6
100
AcDbEntity
  8
universal_board
  6
ByLayer
 62
  256
370
   -1
100
AcDbCircle
 10
17.13999999999827
 20
132.5199999999999
 40
0.5
  0
CIRCLE
  5
D7
100
AcDbEntity
  8
universal_board
  6
ByLayer
 62
  256
370
   -1
100
AcDbCircle
 10
19.67999999999827
 20
104.5799999999996
 40
0.5
  0
CIRCLE
  5
D8
100
AcDbEntity
  8
universal_board
  6
ByLayer
 62
  256
370
   -1
100
AcDbCircle
 10
19.67999999999826
 20
107.1199999999996
 40
0.5
  0
CIRCLE
  5
D9
100
AcDbEntity
  8
universal_board
  6
ByLayer
 62
  256
370
   -1
100
AcDbCircle
 10
19.67999999999826
 20
109.6599999999996
 40
0.5
  0
CIRCLE
  5
DA
100
AcDbEntity
  8
universal_board
  6
ByLayer
 62
  256
370
   -1
100
AcDbCircle
 10
19.67999999999826
 20
112.1999999999997
 40
0.5
  0
CIRCLE
  5
DB
100
AcDbEntity
  8
universal_board
  6
ByLayer
 62
  256
370
   -1
100
AcDbCircle
 10
19.67999999999824
 20
114.7399999999997
 40
0.5
  0
CIRCLE
  5
DC
100
AcDbEntity
  8
universal_board
  6
ByLayer
 62
  256
370
   -1
100
AcDbCircle
 10
19.67999999999823
 20
117.2799999999997
 40
0.5
  0
CIRCLE
  5
DD
100
AcDbEntity
  8
universal_board
  6
ByLayer
 62
  256
370
   -1
100
AcDbCircle
 10
19.67999999999822
 20
119.8199999999997
 40
0.5
  0
CIRCLE
  5
DE
100
AcDbEntity
  8
universal_board
  6
ByLayer
 62
  256
370
   -1
100
AcDbCircle
 10
19.67999999999822
 20
122.3599999999998
 40
0.5
  0
CIRCLE
  5
DF
100
AcDbEntity
  8
universal_board
  6
ByLayer
 62
  256
370
   -1
100
AcDbCircle
 10
19.67999999999821
 20
124.8999999999998
 40
0.5
  0
CIRCLE
  5
E0
100
AcDbEntity
  8
universal_board
  6
ByLayer
 62
  256
370
   -1
100
AcDbCircle
 10
19.67999999999821
 20
127.4399999999998
 40
0.5
  0
CIRCLE
  5
E1
100
AcDbEntity
  8
universal_board
  6
ByLayer
 62
  256
370
   -1
100
AcDbCircle
 10
19.67999999999821
 20
129.9799999999998
 40
0.5
  0
CIRCLE
  5
E2
100
AcDbEntity
  8
universal_board
  6
ByLayer
 62
  256
370
   -1
100
AcDbCircle
 10
19.67999999999821
 20
132.5199999999998
 40
0.5
  0
CIRCLE
  5
E3
100
AcDbEntity
  8
universal_board
  6
ByLayer
 62
  256
370
   -1
100
AcDbCircle
 10
22.21999999999821
 20
104.5799999999995
 40
0.5
  0
CIRCLE
  5
E4
100
AcDbEntity
  8
universal_board
  6
ByLayer
 62
  256
370
   -1
100
AcDbCircle
 10
22.2199999999982
 20
107.1199999999995
 40
0.5
  0
CIRCLE
  5
E5
100
AcDbEntity
  8
universal_board
  6
ByLayer
 62
  256
370
   -1
100
AcDbCircle
 10
22.21999999999819
 20
109.6599999999995
 40
0.5
  0
CIRCLE
  5
E6
100
AcDbEntity
  8
universal_board
  6
ByLayer
 62
  256
370
   -1
100
AcDbCircle
 10
22.21999999999819
 20
112.1999999999996
 40
0.5
  0
CIRCLE
  5
E7
100
AcDbEntity
  8
universal_board
  6
ByLayer
 62
  256
370
   -1
100
AcDbCircle
 10
22.21999999999818
 20
114.7399999999996
 40
0.5
  0
CIRCLE
  5
E8
100
AcDbEntity
  8
universal_board
  6
ByLayer
 62
  256
370
   -1
100
AcDbCircle
 10
22.21999999999817
 20
117.2799999999996
 40
0.5
  0
CIRCLE
  5
E9
100
AcDbEntity
  8
universal_board
  6
ByLayer
 62
  256
370
   -1
100
AcDbCircle
 10
22.21999999999816
 20
119.8199999999996
 40
0.5
  0
CIRCLE
  5
EA
100
AcDbEntity
  8
universal_board
  6
ByLayer
 62
  256
370
   -1
100
AcDbCircle
 10
22.21999999999816
 20
122.3599999999997
 40
0.5
  0
CIRCLE
  5
EB
100
AcDbEntity
  8
universal_board
  6
ByLayer
 62
  256
370
   -1
100
AcDbCircle
 10
22.21999999999815
 20
124.8999999999997
 40
0.5
  0
CIRCLE
  5
EC
100
AcDbEntity
  8
universal_board
  6
ByLayer
 62
  256
370
   -1
100
AcDbCircle
 10
22.21999999999815
 20
127.4399999999997
 40
0.5
  0
CIRCLE
  5
ED
100
AcDbEntity
  8
universal_board
  6
ByLayer
 62
  256
370
   -1
100
AcDbCircle
 10
22.21999999999815
 20
129.9799999999997
 40
0.5
  0
CIRCLE
  5
EE
100
AcDbEntity
  8
universal_board
  6
ByLayer
 62
  256
370
   -1
100
AcDbCircle
 10
22.21999999999815
 20
132.5199999999997
 40
0.5
  0
CIRCLE
  5
EF
100
AcDbEntity
  8
universal_board
  6
ByLayer
 62
  256
370
   -1
100
AcDbCircle
 10
24.75999999999815
 20
104.5799999999994
 40
0.5
  0
CIRCLE
  5
F0
100
AcDbEntity
  8
universal_board
  6
ByLayer
 62
  256
370
   -1
100
AcDbCircle
 10
24.75999999999814
 20
107.1199999999994
 40
0.5
  0
CIRCLE
  5
F1
100
AcDbEntity
  8
universal_board
  6
ByLayer
 62
  256
370
   -1
100
AcDbCircle
 10
24.75999999999813
 20
109.6599999999994
 40
0.5
  0
CIRCLE
  5
F2
100
AcDbEntity
  8
universal_board
  6
ByLayer
 62
  256
370
   -1
100
AcDbCircle
 10
24.75999999999813
 20
112.1999999999995
 40
0.5
  0
CIRCLE
  5
F3
100
AcDbEntity
  8
universal_board
  6
ByLayer
 62
  256
370
   -1
100
AcDbCircle
 10
24.75999999999812
 20
114.7399999999995
 40
0.5
  0
CIRCLE
  5
F4
100
AcDbEntity
  8
universal_board
  6
ByLayer
 62
  256
370
   -1
100
AcDbCircle
 10
24.75999999999811
 20
117.2799999999995
 40
0.5
  0
CIRCLE
  5
F5
100
AcDbEntity
  8
universal_board
  6
ByLayer
 62
  256
370
   -1
100
AcDbCircle
 10
24.7599999999981
 20
119.8199999999995
 40
0.5
  0
CIRCLE
  5
F6
100
AcDbEntity
  8
universal_board
  6
ByLayer
 62
  256
370
   -1
100
AcDbCircle
 10
24.7599999999981
 20
122.3599999999996
 40
0.5
  0
CIRCLE
  5
F7
100
AcDbEntity
  8
universal_board
  6
ByLayer
 62
  256
370
   -1
100
AcDbCircle
 10
24.75999999999809
 20
124.8999999999996
 40
0.5
  0
CIRCLE
  5
F8
100
AcDbEntity
  8
universal_board
  6
ByLayer
 62
  256
370
   -1
100
AcDbCircle
 10
24.75999999999809
 20
127.4399999999996
 40
0.5
  0
CIRCLE
  5
F9
100
AcDbEntity
  8
universal_board
  6
ByLayer
 62
  256
370
   -1
100
AcDbCircle
 10
24.75999999999809
 20
129.9799999999996
 40
0.5
  0
CIRCLE
  5
FA
100
AcDbEntity
  8
universal_board
  6
ByLayer
 62
  256
370
   -1
100
AcDbCircle
 10
24.75999999999809
 20
132.5199999999996
 40
0.5
  0
CIRCLE
  5
FB
100
AcDbEntity
  8
universal_board
  6
ByLayer
 62
  256
370
   -1
100
AcDbCircle
 10
27.29999999999809
 20
104.5799999999993
 40
0.5
  0
CIRCLE
  5
FC
100
AcDbEntity
  8
universal_board
  6
ByLayer
 62
  256
370
   -1
100
AcDbCircle
 10
27.29999999999808
 20
107.1199999999993
 40
0.5
  0
CIRCLE
  5
FD
100
AcDbEntity
  8
universal_board
  6
ByLayer
 62
  256
370
   -1
100
AcDbCircle
 10
27.29999999999808
 20
109.6599999999993
 40
0.5
  0
CIRCLE
  5
FE
100
AcDbEntity
  8
universal_board
  6
ByLayer
 62
  256
370
   -1
100
AcDbCircle
 10
27.29999999999808
 20
112.1999999999994
 40
0.5
  0
CIRCLE
  5
FF
100
AcDbEntity
  8
universal_board
  6
ByLayer
 62
  256
370
   -1
100
AcDbCircle
 10
27.29999999999806
 20
114.7399999999994
 40
0.5
  0
CIRCLE
  5
100
100
AcDbEntity
  8
universal_board
  6
ByLayer
 62
  256
370
   -1
100
AcDbCircle
 10
27.29999999999805
 20
117.2799999999994
 40
0.5
  0
CIRCLE
  5
101
100
AcDbEntity
  8
universal_board
  6
ByLayer
 62
  256
370
   -1
100
AcDbCircle
 10
27.29999999999804
 20
119.8199999999994
 40
0.5
  0
CIRCLE
  5
102
100
AcDbEntity
  8
universal_board
  6
ByLayer
 62
  256
370
   -1
100
AcDbCircle
 10
27.29999999999804
 20
122.3599999999995
 40
0.5
  0
CIRCLE
  5
103
100
AcDbEntity
  8
universal_board
  6
ByLayer
 62
  256
370
   -1
100
AcDbCircle
 10
27.29999999999803
 20
124.8999999999995
 40
0.5
  0
CIRCLE
  5
104
100
AcDbEntity
  8
universal_board
  6
ByLayer
 62
  256
370
   -1
100
AcDbCircle
 10
27.29999999999803
 20
127.4399999999995
 40
0.5
  0
CIRCLE
  5
105
100
AcDbEntity
  8
universal_board
  6
ByLayer
 62
  256
370
   -1
100
AcDbCircle
 10
27.29999999999803
 20
129.9799999999995
 40
0.5
  0
CIRCLE
  5
106
100
AcDbEntity
  8
universal_board
  6
ByLayer
 62
  256
370
   -1
100
AcDbCircle
 10
27.29999999999803
 20
132.5199999999995
 40
0.5
  0
CIRCLE
  5
107
100
AcDbEntity
  8
universal_board
  6
ByLayer
 62
  256
370
   -1
100
AcDbCircle
 10
29.83999999999804
 20
104.5799999999992
 40
0.5
  0
CIRCLE
  5
108
100
AcDbEntity
  8
universal_board
  6
ByLayer
 62
  256
370
   -1
100
AcDbCircle
 10
29.83999999999802
 20
107.1199999999992
 40
0.5
  0
CIRCLE
  5
109
100
AcDbEntity
  8
universal_board
  6
ByLayer
 62
  256
370
   -1
100
AcDbCircle
 10
29.83999999999802
 20
109.6599999999992
 40
0.5
  0
CIRCLE
  5
10A
100
AcDbEntity
  8
universal_board
  6
ByLayer
 62
  256
370
   -1
100
AcDbCircle
 10
29.83999999999802
 20
112.1999999999993
 40
0.5
  0
CIRCLE
  5
10B
100
AcDbEntity
  8
universal_board
  6
ByLayer
 62
  256
370
   -1
100
AcDbCircle
 10
29.83999999999801
 20
114.7399999999993
 40
0.5
  0
CIRCLE
  5
10C
100
AcDbEntity
  8
universal_board
  6
ByLayer
 62
  256
370
   -1
100
AcDbCircle
 10
29.839999999998
 20
117.2799999999993
 40
0.5
  0
CIRCLE
  5
10D
100
AcDbEntity
  8
universal_board
  6
ByLayer
 62
  256
370
   -1
100
AcDbCircle
 10
29.83999999999799
 20
119.8199999999993
 40
0.5
  0
CIRCLE
  5
10E
100
AcDbEntity
  8
universal_board
  6
ByLayer
 62
  256
370
   -1
100
AcDbCircle
 10
29.83999999999799
 20
122.3599999999994
 40
0.5
  0
CIRCLE
  5
10F
100
AcDbEntity
  8
universal_board
  6
ByLayer
 62
  256
370
   -1
100
AcDbCircle
 10
29.83999999999797
 20
124.8999999999994
 40
0.5
  0
CIRCLE
  5
110
100
AcDbEntity
  8
universal_board
  6
ByLayer
 62
  256
370
   -1
100
AcDbCircle
 10
29.83999999999797
 20
127.4399999999994
 40
0.5
  0
CIRCLE
  5
111
100
AcDbEntity
  8
universal_board
  6
ByLayer
 62
  256
370
   -1
100
AcDbCircle
 10
29.83999999999797
 20
129.9799999999994
 40
0.5
  0
CIRCLE
  5
112
100
AcDbEntity
  8
universal_board
  6
ByLayer
 62
  256
370
   -1
100
AcDbCircle
 10
29.83999999999797
 20
132.5199999999994
 40
0.5
  0
CIRCLE
  5
113
100
AcDbEntity
  8
universal_board
  6
ByLayer
 62
  256
370
   -1
100
AcDbCircle
 10
32.37999999999797
 20
104.5799999999991
 40
0.5
  0
CIRCLE
  5
114
100
AcDbEntity
  8
universal_board
  6
ByLayer
 62
  256
370
   -1
100
AcDbCircle
 10
32.37999999999796
 20
107.1199999999991
 40
0.5
  0
CIRCLE
  5
115
100
AcDbEntity
  8
universal_board
  6
ByLayer
 62
  256
370
   -1
100
AcDbCircle
 10
32.37999999999795
 20
109.6599999999991
 40
0.5
  0
CIRCLE
  5
116
100
AcDbEntity
  8
universal_board
  6
ByLayer
 62
  256
370
   -1
100
AcDbCircle
 10
32.37999999999795
 20
112.1999999999992
 40
0.5
  0
CIRCLE
  5
117
100
AcDbEntity
  8
universal_board
  6
ByLayer
 62
  256
370
   -1
100
AcDbCircle
 10
32.37999999999794
 20
114.7399999999992
 40
0.5
  0
CIRCLE
  5
118
100
AcDbEntity
  8
universal_board
  6
ByLayer
 62
  256
370
   -1
100
AcDbCircle
 10
32.37999999999793
 20
117.2799999999992
 40
0.5
  0
CIRCLE
  5
119
100
AcDbEntity
  8
universal_board
  6
ByLayer
 62
  256
370
   -1
100
AcDbCircle
 10
32.37999999999792
 20
119.8199999999992
 40
0.5
  0
CIRCLE
  5
11A
100
AcDbEntity
  8
universal_board
  6
ByLayer
 62
  256
370
   -1
100
AcDbCircle
 10
32.37999999999792
 20
122.3599999999993
 40
0.5
  0
CIRCLE
  5
11B
100
AcDbEntity
  8
universal_board
  6
ByLayer
 62
  256
370
   -1
100
AcDbCircle
 10
32.37999999999791
 20
124.8999999999993
 40
0.5
  0
CIRCLE
  5
11C
100
AcDbEntity
  8
universal_board
  6
ByLayer
 62
  256
370
   -1
100
AcDbCircle
 10
32.37999999999791
 20
127.4399999999993
 40
0.5
  0
CIRCLE
  5
11D
100
AcDbEntity
  8
universal_board
  6
ByLayer
 62
  256
370
   -1
100
AcDbCircle
 10
32.37999999999791
 20
129.9799999999993
 40
0.5
  0
CIRCLE
  5
11E
100
AcDbEntity
  8
universal_board
  6
ByLayer
 62
  256
370
   -1
100
AcDbCircle
 10
32.37999999999791
 20
132.5199999999993
 40
0.5
  0
CIRCLE
  5
11F
100
AcDbEntity
  8
universal_board
  6
ByLayer
 62
  256
370
   -1
100
AcDbCircle
 10
34.91999999999791
 20
104.579999999999
 40
0.5
  0
CIRCLE
  5
120
100
AcDbEntity
  8
universal_board
  6
ByLayer
 62
  256
370
   -1
100
AcDbCircle
 10
34.91999999999791
 20
107.119999999999
 40
0.5
  0
CIRCLE
  5
121
100
AcDbEntity
  8
universal_board
  6
ByLayer
 62
  256
370
   -1
100
AcDbCircle
 10
34.91999999999789
 20
109.659999999999
 40
0.5
  0
CIRCLE
  5
122
100
AcDbEntity
  8
universal_board
  6
ByLayer
 62
  256
370
   -1
100
AcDbCircle
 10
34.91999999999789
 20
112.1999999999991
 40
0.5
  0
CIRCLE
  5
123
100
AcDbEntity
  8
universal_board
  6
ByLayer
 62
  256
370
   -1
100
AcDbCircle
 10
34.91999999999788
 20
114.7399999999991
 40
0.5
  0
CIRCLE
  5
124
100
AcDbEntity
  8
universal_board
  6
ByLayer
 62
  256
370
   -1
100
AcDbCircle
 10
34.91999999999787
 20
117.2799999999991
 40
0.5
  0
CIRCLE
  5
125
100
AcDbEntity
  8
universal_board
  6
ByLayer
 62
  256
370
   -1
100
AcDbCircle
 10
34.91999999999786
 20
119.8199999999991
 40
0.5
  0
CIRCLE
  5
126
100
AcDbEntity
  8
universal_board
  6
ByLayer
 62
  256
370
   -1
100
AcDbCircle
 10
34.91999999999786
 20
122.3599999999992
 40
0.5
  0
CIRCLE
  5
127
100
AcDbEntity
  8
universal_board
  6
ByLayer
 62
  256
370
   -1
100
AcDbCircle
 10
34.91999999999786
 20
124.8999999999992
 40
0.5
  0
CIRCLE
  5
128
100
AcDbEntity
  8
universal_board
  6
ByLayer
 62
  256
370
   -1
100
AcDbCircle
 10
34.91999999999786
 20
127.4399999999992
 40
0.5
  0
CIRCLE
  5
129
100
AcDbEntity
  8
universal_board
  6
ByLayer
 62
  256
370
   -1
100
AcDbCircle
 10
34.91999999999786
 20
129.9799999999992
 40
0.5
  0
CIRCLE
  5
12A
100
AcDbEntity
  8
universal_board
  6
ByLayer
 62
  256
370
   -1
100
AcDbCircle
 10
34.91999999999786
 20
132.5199999999992
 40
0.5
  0
CIRCLE
  5
12B
100
AcDbEntity
  8
universal_board
  6
ByLayer
 62
  256
370
   -1
100
AcDbCircle
 10
37.45999999999786
 20
104.5799999999989
 40
0.5
  0
CIRCLE
  5
12C
100
AcDbEntity
  8
universal_board
  6
ByLayer
 62
  256
370
   -1
100
AcDbCircle
 10
37.45999999999785
 20
107.1199999999989
 40
0.5
  0
CIRCLE
  5
12D
100
AcDbEntity
  8
universal_board
  6
ByLayer
 62
  256
370
   -1
100
AcDbCircle
 10
37.45999999999783
 20
109.6599999999989
 40
0.5
  0
CIRCLE
  5
12E
100
AcDbEntity
  8
universal_board
  6
ByLayer
 62
  256
370
   -1
100
AcDbCircle
 10
37.45999999999783
 20
112.199999999999
 40
0.5
  0
CIRCLE
  5
12F
100
AcDbEntity
  8
universal_board
  6
ByLayer
 62
  256
370
   -1
100
AcDbCircle
 10
37.45999999999783
 20
114.739999999999
 40
0.5
  0
CIRCLE
  5
130
100
AcDbEntity
  8
universal_board
  6
ByLayer
 62
  256
370
   -1
100
AcDbCircle
 10
37.45999999999781
 20
117.279999999999
 40
0.5
  0
CIRCLE
  5
131
100
AcDbEntity
  8
universal_board
  6
ByLayer
 62
  256
370
   -1
100
AcDbCircle
 10
37.45999999999781
 20
119.819999999999
 40
0.5
  0
CIRCLE
  5
132
100
AcDbEntity
  8
universal_board
  6
ByLayer
 62
  256
370
   -1
100
AcDbCircle
 10
37.45999999999781
 20
122.3599999999991
 40
0.5
  0
CIRCLE
  5
133
100
AcDbEntity
  8
universal_board
  6
ByLayer
 62
  256
370
   -1
100
AcDbCircle
 10
37.4599999999978
 20
124.8999999999991
 40
0.5
  0
CIRCLE
  5
134
100
AcDbEntity
  8
universal_board
  6
ByLayer
 62
  256
370
   -1
100
AcDbCircle
 10
37.4599999999978
 20
127.4399999999991
 40
0.5
  0
CIRCLE
  5
135
100
AcDbEntity
  8
universal_board
  6
ByLayer
 62
  256
370
   -1
100
AcDbCircle
 10
37.4599999999978
 20
129.9799999999991
 40
0.5
  0
CIRCLE
  5
136
100
AcDbEntity
  8
universal_board
  6
ByLayer
 62
  256
370
   -1
100
AcDbCircle
 10
37.4599999999978
 20
132.5199999999991
 40
0.5
  0
CIRCLE
  5
137
100
AcDbEntity
  8
universal_board
  6
ByLayer
 62
  256
370
   -1
100
AcDbCircle
 10
39.9999999999978
 20
104.5799999999988
 40
0.5
  0
CIRCLE
  5
138
100
AcDbEntity
  8
universal_board
  6
ByLayer
 62
  256
370
   -1
100
AcDbCircle
 10
39.99999999999779
 20
107.1199999999988
 40
0.5
  0
CIRCLE
  5
139
100
AcDbEntity
  8
universal_board
  6
ByLayer
 62
  256
370
   -1
100
AcDbCircle
 10
39.99999999999778
 20
109.6599999999988
 40
0.5
  0
CIRCLE
  5
13A
100
AcDbEntity
  8
universal_board
  6
ByLayer
 62
  256
370
   -1
100
AcDbCircle
 10
39.99999999999778
 20
112.1999999999989
 40
0.5
  0
CIRCLE
  5
13B
100
AcDbEntity
  8
universal_board
  6
ByLayer
 62
  256
370
   -1
100
AcDbCircle
 10
39.99999999999777
 20
114.7399999999989
 40
0.5
  0
CIRCLE
  5
13C
100
AcDbEntity
  8
universal_board
  6
ByLayer
 62
  256
370
   -1
100
AcDbCircle
 10
39.99999999999775
 20
117.2799999999989
 40
0.5
  0
CIRCLE
  5
13D
100
AcDbEntity
  8
universal_board
  6
ByLayer
 62
  256
370
   -1
100
AcDbCircle
 10
39.99999999999775
 20
119.8199999999989
 40
0.5
  0
CIRCLE
  5
13E
100
AcDbEntity
  8
universal_board
  6
ByLayer
 62
  256
370
   -1
100
AcDbCircle
 10
39.99999999999775
 20
122.359999999999
 40
0.5
  0
CIRCLE
  5
13F
100
AcDbEntity
  8
universal_board
  6
ByLayer
 62
  256
370
   -1
100
AcDbCircle
 10
39.99999999999774
 20
124.899999999999
 40
0.5
  0
CIRCLE
  5
140
100
AcDbEntity
  8
universal_board
  6
ByLayer
 62
  256
370
   -1
100
AcDbCircle
 10
39.99999999999774
 20
127.439999999999
 40
0.5
  0
CIRCLE
  5
141
100
AcDbEntity
  8
universal_board
  6
ByLayer
 62
  256
370
   -1
100
AcDbCircle
 10
39.99999999999774
 20
129.979999999999
 40
0.5
  0
CIRCLE
  5
142
100
AcDbEntity
  8
universal_board
  6
ByLayer
 62
  256
370
   -1
100
AcDbCircle
 10
39.99999999999774
 20
132.519999999999
 40
0.5
  0
CIRCLE
  5
143
100
AcDbEntity
  8
universal_board
  6
ByLayer
 62
  256
370
   -1
100
AcDbCircle
 10
42.53999999999774
 20
104.5799999999987
 40
0.5
  0
CIRCLE
  5
144
100
AcDbEntity
  8
universal_board
  6
ByLayer
 62
  256
370
   -1
100
AcDbCircle
 10
42.53999999999773
 20
107.1199999999987
 40
0.5
  0
CIRCLE
  5
145
100
AcDbEntity
  8
universal_board
  6
ByLayer
 62
  256
370
   -1
100
AcDbCircle
 10
42.53999999999772
 20
109.6599999999987
 40
0.5
  0
CIRCLE
  5
146
100
AcDbEntity
  8
universal_board
  6
ByLayer
 62
  256
370
   -1
100
AcDbCircle
 10
42.53999999999772
 20
112.1999999999988
 40
0.5
  0
CIRCLE
  5
147
100
AcDbEntity
  8
universal_board
  6
ByLayer
 62
  256
370
   -1
100
AcDbCircle
 10
42.53999999999771
 20
114.7399999999988
 40
0.5
  0
CIRCLE
  5
148
100
AcDbEntity
  8
universal_board
  6
ByLayer
 62
  256
370
   -1
100
AcDbCircle
 10
42.5399999999977
 20
117.2799999999988
 40
0.5
  0
CIRCLE
  5
149
100
AcDbEntity
  8
universal_board
  6
ByLayer
 62
  256
370
   -1
100
AcDbCircle
 10
42.53999999999769
 20
119.8199999999988
 40
0.5
  0
CIRCLE
  5
14A
100
AcDbEntity
  8
universal_board
  6
ByLayer
 62
  256
370
   -1
100
AcDbCircle
 10
42.53999999999769
 20
122.3599999999989
 40
0.5
  0
CIRCLE
  5
14B
100
AcDbEntity
  8
universal_board
  6
ByLayer
 62
  256
370
   -1
100
AcDbCircle
 10
42.53999999999768
 20
124.8999999999989
 40
0.5
  0
CIRCLE
  5
14C
100
AcDbEntity
  8
universal_board
  6
ByLayer
 62
  256
370
   -1
100
AcDbCircle
 10
42.53999999999768
 20
127.4399999999989
 40
0.5
  0
CIRCLE
  5
14D
100
AcDbEntity
  8
universal_board
  6
ByLayer
 62
  256
370
   -1
100
AcDbCircle
 10
42.53999999999768
 20
129.9799999999989
 40
0.5
  0
CIRCLE
  5
14E
100
AcDbEntity
  8
universal_board
  6
ByLayer
 62
  256
370
   -1
100
AcDbCircle
 10
42.53999999999768
 20
132.5199999999989
 40
0.5
  0
CIRCLE
  5
14F
100
AcDbEntity
  8
universal_board
  6
ByLayer
 62
  256
370
   -1
100
AcDbCircle
 10
45.07999999999767
 20
104.5799999999986
 40
0.5
  0
CIRCLE
  5
150
100
AcDbEntity
  8
universal_board
  6
ByLayer
 62
  256
370
   -1
100
AcDbCircle
 10
45.07999999999767
 20
107.1199999999986
 40
0.5
  0
CIRCLE
  5
151
100
AcDbEntity
  8
universal_board
  6
ByLayer
 62
  256
370
   -1
100
AcDbCircle
 10
45.07999999999765
 20
109.6599999999986
 40
0.5
  0
CIRCLE
  5
152
100
AcDbEntity
  8
universal_board
  6
ByLayer
 62
  256
370
   -1
100
AcDbCircle
 10
45.07999999999765
 20
112.1999999999987
 40
0.5
  0
CIRCLE
  5
153
100
AcDbEntity
  8
universal_board
  6
ByLayer
 62
  256
370
   -1
100
AcDbCircle
 10
45.07999999999765
 20
114.7399999999987
 40
0.5
  0
CIRCLE
  5
154
100
AcDbEntity
  8
universal_board
  6
ByLayer
 62
  256
370
   -1
100
AcDbCircle
 10
45.07999999999763
 20
117.2799999999987
 40
0.5
  0
CIRCLE
  5
155
100
AcDbEntity
  8
universal_board
  6
ByLayer
 62
  256
370
   -1
100
AcDbCircle
 10
45.07999999999763
 20
119.8199999999987
 40
0.5
  0
CIRCLE
  5
156
100
AcDbEntity
  8
universal_board
  6
ByLayer
 62
  256
370
   -1
100
AcDbCircle
 10
45.07999999999763
 20
122.3599999999988
 40
0.5
  0
CIRCLE
  5
157
100
AcDbEntity
  8
universal_board
  6
ByLayer
 62
  256
370
   -1
100
AcDbCircle
 10
45.07999999999762
 20
124.8999999999988
 40
0.5
  0
CIRCLE
  5
158
100
AcDbEntity
  8
universal_board
  6
ByLayer
 62
  256
370
   -1
100
AcDbCircle
 10
45.07999999999762
 20
127.4399999999988
 40
0.5
  0
CIRCLE
  5
159
100
AcDbEntity
  8
universal_board
  6
ByLayer
 62
  256
370
   -1
100
AcDbCircle
 10
45.07999999999762
 20
129.9799999999988
 40
0.5
  0
CIRCLE
  5
15A
100
AcDbEntity
  8
universal_board
  6
ByLayer
 62
  256
370
   -1
100
AcDbCircle
 10
45.07999999999762
 20
132.5199999999988
 40
0.5
  0
LINE
  5
15B
100
AcDbEntity
  8
socket_header
  6
ByLayer
 62
  256
370
   -1
100
AcDbLine
 10
10.78999999999862
 20
131.2500000000004
 11
8.249999999998181
 21
131.2500000000004
  0
LINE
  5
15C
100
AcDbEntity
  8
socket_header
  6
ByLayer
 62
  256
370
   -1
100
AcDbLine
 10
8.249999999998167
 20
133.7900000000004
 11
8.249999999998167
 21
131.25
  0
LINE
  5
15D
100
AcDbEntity
  8
socket_header
  6
ByLayer
 62
  256
370
   -1
100
AcDbLine
 10
10.78999999999859
 20
131.25
 11
10.78999999999859
 21
133.7900000000004
  0
LINE
  5
15E
100
AcDbEntity
  8
socket_header
  6
ByLayer
 62
  256
370
   -1
100
AcDbLine
 10
10.78999999999859
 20
133.7900000000004
 11
8.249999999998167
 21
133.7900000000004
  0
LINE
  5
15F
100
AcDbEntity
  8
socket_header
  6
ByLayer
 62
  256
370
   -1
100
AcDbLine
 10
43.80999999999654
 20
133.7900000000005
 11
43.80999999999654
 21
131.2500000000001
  0
LINE
  5
160
100
AcDbEntity
  8
socket_header
  6
ByLayer
 62
  256
370
   -1
100
AcDbLine
 10
46.34999999999699
 20
131.2500000000001
 11
46.34999999999699
 21
133.7900000000005
  0
LINE
  5
161
100
AcDbEntity
  8
socket_header
  6
ByLayer
 62
  256
370
   -1
100
AcDbLine
 10
46.34999999999699
 20
133.7900000000005
 11
43.80999999999654
 21
133.7900000000005
  0
LINE
  5
162
100
AcDbEntity
  8
socket_header
  6
ByLayer
 62
  256
370
   -1
100
AcDbLine
 10
46.34999999999699
 20
131.2500000000005
 11
43.80999999999654
 21
131.2500000000005
  0
LINE
  5
163
100
AcDbEntity
  8
socket_header
  6
ByLayer
 62
  256
370
   -1
100
AcDbLine
 10
10.78999999999862
 20
128.7100000000004
 11
8.249999999998181
 21
128.7100000000004
  0
LINE
  5
164
100
AcDbEntity
  8
socket_header
  6
ByLayer
 62
  256
370
   -1
100
AcDbLine
 10
8.249999999998167
 20
131.2500000000004
 11
8.249999999998167
 21
128.71
  0
LINE
  5
165
100
AcDbEntity
  8
socket_header
  6
ByLayer
 62
  256
370
   -1
100
AcDbLine
 10
10.78999999999859
 20
128.71
 11
10.78999999999859
 21
131.2500000000004
  0
LINE
  5
166
100
AcDbEntity
  8
socket_header
  6
ByLayer
 62
  256
370
   -1
100
AcDbLine
 10
10.78999999999859
 20
131.2500000000004
 11
8.249999999998167
 21
131.2500000000004
  0
LINE
  5
167
100
AcDbEntity
  8
socket_header
  6
ByLayer
 62
  256
370
   -1
100
AcDbLine
 10
10.78999999999862
 20
126.1700000000004
 11
8.249999999998181
 21
126.1700000000004
  0
LINE
  5
168
100
AcDbEntity
  8
socket_header
  6
ByLayer
 62
  256
370
   -1
100
AcDbLine
 10
8.249999999998167
 20
128.7100000000004
 11
8.249999999998167
 21
126.17
  0
LINE
  5
169
100
AcDbEntity
  8
socket_header
  6
ByLayer
 62
  256
370
   -1
100
AcDbLine
 10
10.78999999999859
 20
126.17
 11
10.78999999999859
 21
128.7100000000004
  0
LINE
  5
16A
100
AcDbEntity
  8
socket_header
  6
ByLayer
 62
  256
370
   -1
100
AcDbLine
 10
10.78999999999859
 20
128.7100000000004
 11
8.249999999998167
 21
128.7100000000004
  0
LINE
  5
16B
100
AcDbEntity
  8
socket_header
  6
ByLayer
 62
  256
370
   -1
100
AcDbLine
 10
10.78999999999862
 20
123.6300000000004
 11
8.249999999998181
 21
123.6300000000004
  0
LINE
  5
16C
100
AcDbEntity
  8
socket_header
  6
ByLayer
 62
  256
370
   -1
100
AcDbLine
 10
8.249999999998167
 20
126.1700000000004
 11
8.249999999998167
 21
123.63
  0
LINE
  5
16D
100
AcDbEntity
  8
socket_header
  6
ByLayer
 62
  256
370
   -1
100
AcDbLine
 10
10.78999999999859
 20
123.63
 11
10.78999999999859
 21
126.1700000000004
  0
LINE
  5
16E
100
AcDbEntity
  8
socket_header
  6
ByLayer
 62
  256
370
   -1
100
AcDbLine
 10
10.78999999999859
 20
126.1700000000004
 11
8.249999999998167
 21
126.1700000000004
  0
LINE
  5
16F
100
AcDbEntity
  8
socket_header
  6
ByLayer
 62
  256
370
   -1
100
AcDbLine
 10
10.78999999999862
 20
121.0900000000003
 11
8.249999999998181
 21
121.0900000000003
  0
LINE
  5
170
100
AcDbEntity
  8
socket_header
  6
ByLayer
 62
  256
370
   -1
100
AcDbLine
 10
8.249999999998167
 20
123.6300000000003
 11
8.249999999998167
 21
121.0899999999999
  0
LINE
  5
171
100
AcDbEntity
  8
socket_header
  6
ByLayer
 62
  256
370
   -1
100
AcDbLine
 10
10.78999999999859
 20
121.0899999999999
 11
10.78999999999859
 21
123.6300000000003
  0
LINE
  5
172
100
AcDbEntity
  8
socket_header
  6
ByLayer
 62
  256
370
   -1
100
AcDbLine
 10
10.78999999999859
 20
123.6300000000003
 11
8.249999999998167
 21
123.6300000000003
  0
LINE
  5
173
100
AcDbEntity
  8
socket_header
  6
ByLayer
 62
  256
370
   -1
100
AcDbLine
 10
10.78999999999864
 20
113.4700000000003
 11
8.249999999998199
 21
113.4700000000003
  0
LINE
  5
174
100
AcDbEntity
  8
socket_header
  6
ByLayer
 62
  256
370
   -1
100
AcDbLine
 10
8.249999999998185
 20
116.0100000000002
 11
8.249999999998185
 21
113.4699999999999
  0
LINE
  5
175
100
AcDbEntity
  8
socket_header
  6
ByLayer
 62
  256
370
   -1
100
AcDbLine
 10
10.78999999999861
 20
113.4699999999999
 11
10.78999999999861
 21
116.0100000000002
  0
LINE
  5
176
100
AcDbEntity
  8
socket_header
  6
ByLayer
 62
  256
370
   -1
100
AcDbLine
 10
10.78999999999861
 20
116.0100000000002
 11
8.249999999998185
 21
116.0100000000002
  0
LINE
  5
177
100
AcDbEntity
  8
socket_header
  6
ByLayer
 62
  256
370
   -1
100
AcDbLine
 10
10.78999999999865
 20
110.9300000000002
 11
8.249999999998209
 21
110.9300000000002
  0
LINE
  5
178
100
AcDbEntity
  8
socket_header
  6
ByLayer
 62
  256
370
   -1
100
AcDbLine
 10
8.249999999998195
 20
113.4700000000002
 11
8.249999999998195
 21
110.9299999999999
  0
LINE
  5
179
100
AcDbEntity
  8
socket_header
  6
ByLayer
 62
  256
370
   -1
100
AcDbLine
 10
10.78999999999862
 20
110.9299999999999
 11
10.78999999999862
 21
113.4700000000002
  0
LINE
  5
17A
100
AcDbEntity
  8
socket_header
  6
ByLayer
 62
  256
370
   -1
100
AcDbLine
 10
10.78999999999862
 20
113.4700000000002
 11
8.249999999998195
 21
113.4700000000002
  0
LINE
  5
17B
100
AcDbEntity
  8
socket_header
  6
ByLayer
 62
  256
370
   -1
100
AcDbLine
 10
10.78999999999866
 20
108.3900000000002
 11
8.24999999999822
 21
108.3900000000002
  0
LINE
  5
17C
100
AcDbEntity
  8
socket_header
  6
ByLayer
 62
  256
370
   -1
100
AcDbLine
 10
8.249999999998206
 20
110.9300000000002
 11
8.249999999998206
 21
108.3899999999998
  0
LINE
  5
17D
100
AcDbEntity
  8
socket_header
  6
ByLayer
 62
  256
370
   -1
100
AcDbLine
 10
10.78999999999863
 20
108.3899999999998
 11
10.78999999999863
 21
110.9300000000002
  0
LINE
  5
17E
100
AcDbEntity
  8
socket_header
  6
ByLayer
 62
  256
370
   -1
100
AcDbLine
 10
10.78999999999863
 20
110.9300000000002
 11
8.249999999998206
 21
110.9300000000002
  0
LINE
  5
17F
100
AcDbEntity
  8
socket_header
  6
ByLayer
 62
  256
370
   -1
100
AcDbLine
 10
10.78999999999867
 20
105.8500000000002
 11
8.249999999998231
 21
105.8500000000002
  0
LINE
  5
180
100
AcDbEntity
  8
socket_header
  6
ByLayer
 62
  256
370
   -1
100
AcDbLine
 10
8.249999999998217
 20
108.3900000000002
 11
8.249999999998217
 21
105.8499999999998
  0
LINE
  5
181
100
AcDbEntity
  8
socket_header
  6
ByLayer
 62
  256
370
   -1
100
AcDbLine
 10
10.78999999999864
 20
105.8499999999998
 11
10.78999999999864
 21
108.3900000000002
  0
LINE
  5
182
100
AcDbEntity
  8
socket_header
  6
ByLayer
 62
  256
370
   -1
100
AcDbLine
 10
10.78999999999864
 20
108.3900000000002
 11
8.249999999998217
 21
108.3900000000002
  0
LINE
  5
183
100
AcDbEntity
  8
socket_header
  6
ByLayer
 62
  256
370
   -1
100
AcDbLine
 10
8.249999999998227
 20
105.8500000000002
 11
8.249999999998227
 21
103.3099999999998
  0
LINE
  5
184
100
AcDbEntity
  8
socket_header
  6
ByLayer
 62
  256
370
   -1
100
AcDbLine
 10
10.78999999999865
 20
103.3099999999998
 11
10.78999999999865
 21
105.8500000000002
  0
LINE
  5
185
100
AcDbEntity
  8
socket_header
  6
ByLayer
 62
  256
370
   -1
100
AcDbLine
 10
10.78999999999865
 20
105.8500000000002
 11
8.249999999998227
 21
105.8500000000002
  0
LINE
  5
186
100
AcDbEntity
  8
socket_header
  6
ByLayer
 62
  256
370
   -1
100
AcDbLine
 10
10.78999999999866
 20
103.3100000000002
 11
8.249999999998238
 21
103.3100000000002
  0
MTEXT
  5
187
100
AcDbEntity
  8
socket_header
  6
ByLayer
 62
  256
370
   -1
100
AcDbMText
 10
6.245123572871135
 20
119.0004558675428
 30
0
 40
1
 41
2.021111111111111
 71
    4
 72
    1
  1
D9\PD10\PD11\PD12\PD13\P-\P-\PGND\PA0\PA1\PA2\PA3
  7
kst32b
210
0
220
0
230
1
 50
0
 73
    2
 44
1.54
  0
LINE
  5
188
100
AcDbEntity
  8
socket_header
  6
ByLayer
 62
  256
370
   -1
100
AcDbLine
 10
43.80999999999654
 20
131.2500000000005
 11
43.80999999999654
 21
128.7100000000002
  0
LINE
  5
189
100
AcDbEntity
  8
socket_header
  6
ByLayer
 62
  256
370
   -1
100
AcDbLine
 10
46.34999999999699
 20
128.7100000000002
 11
46.34999999999699
 21
131.2500000000005
  0
LINE
  5
18A
100
AcDbEntity
  8
socket_header
  6
ByLayer
 62
  256
370
   -1
100
AcDbLine
 10
46.34999999999699
 20
131.2500000000005
 11
43.80999999999654
 21
131.2500000000005
  0
LINE
  5
18B
100
AcDbEntity
  8
socket_header
  6
ByLayer
 62
  256
370
   -1
100
AcDbLine
 10
46.34999999999699
 20
128.7100000000005
 11
43.80999999999654
 21
128.7100000000005
  0
LINE
  5
18C
100
AcDbEntity
  8
socket_header
  6
ByLayer
 62
  256
370
   -1
100
AcDbLine
 10
43.80999999999654
 20
128.7100000000006
 11
43.80999999999654
 21
126.1700000000002
  0
LINE
  5
18D
100
AcDbEntity
  8
socket_header
  6
ByLayer
 62
  256
370
   -1
100
AcDbLine
 10
46.34999999999699
 20
126.1700000000002
 11
46.34999999999699
 21
128.7100000000006
  0
LINE
  5
18E
100
AcDbEntity
  8
socket_header
  6
ByLayer
 62
  256
370
   -1
100
AcDbLine
 10
46.34999999999699
 20
128.7100000000006
 11
43.80999999999654
 21
128.7100000000006
  0
LINE
  5
18F
100
AcDbEntity
  8
socket_header
  6
ByLayer
 62
  256
370
   -1
100
AcDbLine
 10
46.34999999999699
 20
126.1700000000006
 11
43.80999999999654
 21
126.1700000000006
  0
LINE
  5
190
100
AcDbEntity
  8
socket_header
  6
ByLayer
 62
  256
370
   -1
100
AcDbLine
 10
46.349999999997
 20
118.5500000000005
 11
43.80999999999655
 21
118.5500000000005
  0
LINE
  5
191
100
AcDbEntity
  8
socket_header
  6
ByLayer
 62
  256
370
   -1
100
AcDbLine
 10
43.80999999999656
 20
118.5500000000005
 11
43.80999999999656
 21
116.0100000000001
  0
LINE
  5
192
100
AcDbEntity
  8
socket_header
  6
ByLayer
 62
  256
370
   -1
100
AcDbLine
 10
46.349999999997
 20
116.0100000000001
 11
46.349999999997
 21
118.5500000000005
  0
LINE
  5
193
100
AcDbEntity
  8
socket_header
  6
ByLayer
 62
  256
370
   -1
100
AcDbLine
 10
46.349999999997
 20
116.0100000000005
 11
43.80999999999656
 21
116.0100000000005
  0
LINE
  5
194
100
AcDbEntity
  8
socket_header
  6
ByLayer
 62
  256
370
   -1
100
AcDbLine
 10
46.34999999999702
 20
113.4700000000005
 11
43.80999999999658
 21
113.4700000000005
  0
LINE
  5
195
100
AcDbEntity
  8
socket_header
  6
ByLayer
 62
  256
370
   -1
100
AcDbLine
 10
43.80999999999658
 20
113.4700000000005
 11
43.80999999999658
 21
110.9300000000001
  0
LINE
  5
196
100
AcDbEntity
  8
socket_header
  6
ByLayer
 62
  256
370
   -1
100
AcDbLine
 10
46.34999999999702
 20
110.9300000000001
 11
46.34999999999702
 21
113.4700000000005
  0
LINE
  5
197
100
AcDbEntity
  8
socket_header
  6
ByLayer
 62
  256
370
   -1
100
AcDbLine
 10
46.34999999999702
 20
110.9300000000005
 11
43.80999999999658
 21
110.9300000000005
  0
LINE
  5
198
100
AcDbEntity
  8
socket_header
  6
ByLayer
 62
  256
370
   -1
100
AcDbLine
 10
46.34999999999702
 20
110.9300000000003
 11
43.80999999999658
 21
110.9300000000003
  0
LINE
  5
199
100
AcDbEntity
  8
socket_header
  6
ByLayer
 62
  256
370
   -1
100
AcDbLine
 10
43.80999999999658
 20
110.9300000000004
 11
43.80999999999658
 21
108.39
  0
LINE
  5
19A
100
AcDbEntity
  8
socket_header
  6
ByLayer
 62
  256
370
   -1
100
AcDbLine
 10
46.34999999999702
 20
108.39
 11
46.34999999999702
 21
110.9300000000004
  0
LINE
  5
19B
100
AcDbEntity
  8
socket_header
  6
ByLayer
 62
  256
370
   -1
100
AcDbLine
 10
46.34999999999702
 20
108.3900000000004
 11
43.80999999999658
 21
108.3900000000004
  0
LINE
  5
19C
100
AcDbEntity
  8
socket_header
  6
ByLayer
 62
  256
370
   -1
100
AcDbLine
 10
46.34999999999702
 20
108.3900000000002
 11
43.80999999999658
 21
108.3900000000002
  0
LINE
  5
19D
100
AcDbEntity
  8
socket_header
  6
ByLayer
 62
  256
370
   -1
100
AcDbLine
 10
43.80999999999658
 20
108.3900000000003
 11
43.80999999999658
 21
105.8499999999999
  0
LINE
  5
19E
100
AcDbEntity
  8
socket_header
  6
ByLayer
 62
  256
370
   -1
100
AcDbLine
 10
46.34999999999702
 20
105.8499999999999
 11
46.34999999999702
 21
108.3900000000003
  0
LINE
  5
19F
100
AcDbEntity
  8
socket_header
  6
ByLayer
 62
  256
370
   -1
100
AcDbLine
 10
46.34999999999702
 20
105.8500000000003
 11
43.80999999999658
 21
105.8500000000003
  0
LINE
  5
1A0
100
AcDbEntity
  8
socket_header
  6
ByLayer
 62
  256
370
   -1
100
AcDbLine
 10
46.34999999999699
 20
126.1700000000006
 11
43.80999999999654
 21
126.1700000000006
  0
LINE
  5
1A1
100
AcDbEntity
  8
socket_header
  6
ByLayer
 62
  256
370
   -1
100
AcDbLine
 10
43.80999999999654
 20
126.1700000000006
 11
43.80999999999654
 21
123.6300000000002
  0
LINE
  5
1A2
100
AcDbEntity
  8
socket_header
  6
ByLayer
 62
  256
370
   -1
100
AcDbLine
 10
46.34999999999699
 20
123.6300000000002
 11
46.34999999999699
 21
126.1700000000006
  0
LINE
  5
1A3
100
AcDbEntity
  8
socket_header
  6
ByLayer
 62
  256
370
   -1
100
AcDbLine
 10
46.34999999999699
 20
123.6300000000006
 11
43.80999999999654
 21
123.6300000000006
  0
LINE
  5
1A4
100
AcDbEntity
  8
socket_header
  6
ByLayer
 62
  256
370
   -1
100
AcDbLine
 10
46.34999999999699
 20
121.0900000000005
 11
43.80999999999654
 21
121.0900000000005
  0
LINE
  5
1A5
100
AcDbEntity
  8
socket_header
  6
ByLayer
 62
  256
370
   -1
100
AcDbLine
 10
43.80999999999655
 20
121.0900000000005
 11
43.80999999999655
 21
118.5500000000001
  0
LINE
  5
1A6
100
AcDbEntity
  8
socket_header
  6
ByLayer
 62
  256
370
   -1
100
AcDbLine
 10
46.349999999997
 20
118.5500000000001
 11
46.349999999997
 21
121.0900000000005
  0
LINE
  5
1A7
100
AcDbEntity
  8
socket_header
  6
ByLayer
 62
  256
370
   -1
100
AcDbLine
 10
46.349999999997
 20
118.5500000000005
 11
43.80999999999655
 21
118.5500000000005
  0
MTEXT
  5
1A8
100
AcDbEntity
  8
socket_header
  6
ByLayer
 62
  256
370
   -1
100
AcDbMText
 10
47.23412577215473
 20
120.0860503617654
 30
0
 40
1
 41
2.021111111111111
 71
    5
 72
    1
  1
D8\PD7\PD6\PD5\P-\PGND\PGND\P-\PD4\PD3\PD2
  7
kst32b
210
0
220
0
230
1
 50
0
 73
    2
 44
1.54
  0
LINE
  5
1A9
100
AcDbEntity
  8
diode
  6
ByLayer
 62
  256
370
   -1
100
AcDbLine
 10
15.27999999999779
 20
134.0699999999994
 11
11.37999999999821
 21
134.0699999999994
  0
LINE
  5
1AA
100
AcDbEntity
  8
diode
  6
ByLayer
 62
  256
370
   -1
100
AcDbLine
 10
11.37999999999821
 20
134.0699999999994
 11
11.37999999999821
 21
130.9700000000007
  0
LINE
  5
1AB
100
AcDbEntity
  8
diode
  6
ByLayer
 62
  256
370
   -1
100
AcDbLine
 10
11.37999999999821
 20
130.9700000000007
 11
15.27999999999779
 21
130.9700000000007
  0
LINE
  5
1AC
100
AcDbEntity
  8
diode
  6
ByLayer
 62
  256
370
   -1
100
AcDbLine
 10
15.27999999999779
 20
130.9700000000007
 11
15.27999999999779
 21
134.0699999999994
  0
LINE
  5
1AD
100
AcDbEntity
  8
diode
  6
ByLayer
 62
  256
370
   -1
100
AcDbLine
 10
14.5999999999985
 20
132.5200000000001
 11
15.27999999999779
 21
132.5200000000001
  0
LINE
  5
1AE
100
AcDbEntity
  8
diode
  6
ByLayer
 62
  256
370
   -1
100
AcDbLine
 10
12.05999999999839
 20
132.5200000000001
 11
11.37999999999821
 21
132.5200000000001
  0
MTEXT
  5
1AF
100
AcDbEntity
  8
diode
  6
ByLayer
 62
  256
370
   -1
100
AcDbMText
 10
12.05738920965099
 20
133.4782879861777
 30
0
 40
1
 41
0.4166666666666666
 71
    4
 72
    1
  1
+
  7
kst32b
210
0
220
0
230
1
 50
0
 73
    2
 44
1.54
  0
MTEXT
  5
1B0
100
AcDbEntity
  8
diode
  6
ByLayer
 62
  256
370
   -1
100
AcDbMText
 10
14.49876140499355
 20
133.5281119085316
 30
0
 40
1
 41
0.4166666666666666
 71
    4
 72
    1
  1
-
  7
kst32b
210
0
220
0
230
1
 50
0
 73
    2
 44
1.54
  0
LINE
  5
1B1
100
AcDbEntity
  8
diode
  6
ByLayer
 62
  256
370
   -1
100
AcDbLine
 10
15.27999999999779
 20
128.9899999999994
 11
11.37999999999821
 21
128.9899999999994
  0
LINE
  5
1B2
100
AcDbEntity
  8
diode
  6
ByLayer
 62
  256
370
   -1
100
AcDbLine
 10
11.37999999999821
 20
128.9899999999994
 11
11.37999999999821
 21
125.8900000000007
  0
LINE
  5
1B3
100
AcDbEntity
  8
diode
  6
ByLayer
 62
  256
370
   -1
100
AcDbLine
 10
11.37999999999821
 20
125.8900000000007
 11
15.27999999999779
 21
125.8900000000007
  0
LINE
  5
1B4
100
AcDbEntity
  8
diode
  6
ByLayer
 62
  256
370
   -1
100
AcDbLine
 10
15.27999999999779
 20
125.8900000000007
 11
15.27999999999779
 21
128.9899999999994
  0
LINE
  5
1B5
100
AcDbEntity
  8
diode
  6
ByLayer
 62
  256
370
   -1
100
AcDbLine
 10
14.5999999999985
 20
127.4400000000001
 11
15.27999999999779
 21
127.4400000000001
  0
LINE
  5
1B6
100
AcDbEntity
  8
diode
  6
ByLayer
 62
  256
370
   -1
100
AcDbLine
 10
12.05999999999839
 20
127.4400000000001
 11
11.37999999999821
 21
127.4400000000001
  0
MTEXT
  5
1B7
100
AcDbEntity
  8
diode
  6
ByLayer
 62
  256
370
   -1
100
AcDbMText
 10
12.05738920965099
 20
128.3982879861777
 30
0
 40
1
 41
0.4166666666666666
 71
    4
 72
    1
  1
+
  7
kst32b
210
0
220
0
230
1
 50
0
 73
    2
 44
1.54
  0
MTEXT
  5
1B8
100
AcDbEntity
  8
diode
  6
ByLayer
 62
  256
370
   -1
100
AcDbMText
 10
14.49876140499355
 20
128.4481119085316
 30
0
 40
1
 41
0.4166666666666666
 71
    4
 72
    1
  1
-
  7
kst32b
210
0
220
0
230
1
 50
0
 73
    2
 44
1.54
  0
LINE
  5
1B9
100
AcDbEntity
  8
diode
  6
ByLayer
 62
  256
370
   -1
100
AcDbLine
 10
15.2799999999978
 20
123.9099999999994
 11
11.37999999999822
 21
123.9099999999994
  0
LINE
  5
1BA
100
AcDbEntity
  8
diode
  6
ByLayer
 62
  256
370
   -1
100
AcDbLine
 10
11.37999999999822
 20
123.9099999999994
 11
11.37999999999822
 21
120.8100000000007
  0
LINE
  5
1BB
100
AcDbEntity
  8
diode
  6
ByLayer
 62
  256
370
   -1
100
AcDbLine
 10
11.37999999999822
 20
120.8100000000007
 11
15.2799999999978
 21
120.8100000000007
  0
LINE
  5
1BC
100
AcDbEntity
  8
diode
  6
ByLayer
 62
  256
370
   -1
100
AcDbLine
 10
15.2799999999978
 20
120.8100000000007
 11
15.2799999999978
 21
123.9099999999994
  0
LINE
  5
1BD
100
AcDbEntity
  8
diode
  6
ByLayer
 62
  256
370
   -1
100
AcDbLine
 10
14.59999999999851
 20
122.3600000000001
 11
15.2799999999978
 21
122.3600000000001
  0
LINE
  5
1BE
100
AcDbEntity
  8
diode
  6
ByLayer
 62
  256
370
   -1
100
AcDbLine
 10
12.0599999999984
 20
122.3600000000001
 11
11.37999999999822
 21
122.3600000000001
  0
MTEXT
  5
1BF
100
AcDbEntity
  8
diode
  6
ByLayer
 62
  256
370
   -1
100
AcDbMText
 10
12.057389209651
 20
123.3182879861777
 30
0
 40
1
 41
0.4166666666666666
 71
    4
 72
    1
  1
+
  7
kst32b
210
0
220
0
230
1
 50
0
 73
    2
 44
1.54
  0
MTEXT
  5
1C0
100
AcDbEntity
  8
diode
  6
ByLayer
 62
  256
370
   -1
100
AcDbMText
 10
14.49876140499356
 20
123.3681119085316
 30
0
 40
1
 41
0.4166666666666666
 71
    4
 72
    1
  1
-
  7
kst32b
210
0
220
0
230
1
 50
0
 73
    2
 44
1.54
  0
LINE
  5
1C1
100
AcDbEntity
  8
diode
  6
ByLayer
 62
  256
370
   -1
100
AcDbLine
 10
20.35999999999767
 20
131.5299999999992
 11
16.45999999999809
 21
131.5299999999992
  0
LINE
  5
1C2
100
AcDbEntity
  8
diode
  6
ByLayer
 62
  256
370
   -1
100
AcDbLine
 10
16.45999999999809
 20
131.5299999999992
 11
16.45999999999809
 21
128.4300000000005
  0
LINE
  5
1C3
100
AcDbEntity
  8
diode
  6
ByLayer
 62
  256
370
   -1
100
AcDbLine
 10
16.45999999999809
 20
128.4300000000005
 11
20.35999999999767
 21
128.4300000000005
  0
LINE
  5
1C4
100
AcDbEntity
  8
diode
  6
ByLayer
 62
  256
370
   -1
100
AcDbLine
 10
20.35999999999767
 20
128.4300000000005
 11
20.35999999999767
 21
131.5299999999992
  0
LINE
  5
1C5
100
AcDbEntity
  8
diode
  6
ByLayer
 62
  256
370
   -1
100
AcDbLine
 10
19.67999999999838
 20
129.9799999999999
 11
20.35999999999767
 21
129.9799999999999
  0
LINE
  5
1C6
100
AcDbEntity
  8
diode
  6
ByLayer
 62
  256
370
   -1
100
AcDbLine
 10
17.13999999999827
 20
129.9799999999999
 11
16.45999999999809
 21
129.9799999999999
  0
LINE
  5
1C7
100
AcDbEntity
  8
resister
  6
ByLayer
 62
  256
370
   -1
100
AcDbLine
 10
26.28999999999983
 20
133.6200000000006
 11
20.68999999999982
 21
133.6200000000006
  0
LINE
  5
1C8
100
AcDbEntity
  8
resister
  6
ByLayer
 62
  256
370
   -1
100
AcDbLine
 10
20.68999999999982
 20
133.6200000000006
 11
20.68999999999982
 21
131.420000000001
  0
LINE
  5
1C9
100
AcDbEntity
  8
resister
  6
ByLayer
 62
  256
370
   -1
100
AcDbLine
 10
20.68999999999982
 20
131.420000000001
 11
26.28999999999983
 21
131.420000000001
  0
LINE
  5
1CA
100
AcDbEntity
  8
resister
  6
ByLayer
 62
  256
370
   -1
100
AcDbLine
 10
26.28999999999983
 20
131.420000000001
 11
26.28999999999983
 21
133.6200000000006
  0
LINE
  5
1CB
100
AcDbEntity
  8
resister
  6
ByLayer
 62
  256
370
   -1
100
AcDbLine
 10
20.68999999999982
 20
132.5199999999998
 11
22.21999999999815
 21
132.5199999999998
  0
LINE
  5
1CC
100
AcDbEntity
  8
resister
  6
ByLayer
 62
  256
370
   -1
100
AcDbLine
 10
26.28999999999983
 20
132.5199999999998
 11
24.75999999999809
 21
132.5199999999998
  0
LINE
  5
1CD
100
AcDbEntity
  8
diode
  6
ByLayer
 62
  256
370
   -1
100
AcDbLine
 10
20.35999999999767
 20
126.4499999999992
 11
16.45999999999809
 21
126.4499999999992
  0
LINE
  5
1CE
100
AcDbEntity
  8
diode
  6
ByLayer
 62
  256
370
   -1
100
AcDbLine
 10
16.45999999999809
 20
126.4499999999992
 11
16.45999999999809
 21
123.3500000000005
  0
LINE
  5
1CF
100
AcDbEntity
  8
diode
  6
ByLayer
 62
  256
370
   -1
100
AcDbLine
 10
16.45999999999809
 20
123.3500000000005
 11
20.35999999999767
 21
123.3500000000005
  0
LINE
  5
1D0
100
AcDbEntity
  8
diode
  6
ByLayer
 62
  256
370
   -1
100
AcDbLine
 10
20.35999999999767
 20
123.3500000000005
 11
20.35999999999767
 21
126.4499999999992
  0
LINE
  5
1D1
100
AcDbEntity
  8
diode
  6
ByLayer
 62
  256
370
   -1
100
AcDbLine
 10
19.67999999999838
 20
124.8999999999999
 11
20.35999999999767
 21
124.8999999999999
  0
LINE
  5
1D2
100
AcDbEntity
  8
diode
  6
ByLayer
 62
  256
370
   -1
100
AcDbLine
 10
17.13999999999827
 20
124.8999999999999
 11
16.45999999999809
 21
124.8999999999999
  0
LINE
  5
1D3
100
AcDbEntity
  8
resister
  6
ByLayer
 62
  256
370
   -1
100
AcDbLine
 10
26.28999999999983
 20
128.5400000000006
 11
20.68999999999982
 21
128.5400000000006
  0
LINE
  5
1D4
100
AcDbEntity
  8
resister
  6
ByLayer
 62
  256
370
   -1
100
AcDbLine
 10
20.68999999999982
 20
128.5400000000006
 11
20.68999999999982
 21
126.340000000001
  0
LINE
  5
1D5
100
AcDbEntity
  8
resister
  6
ByLayer
 62
  256
370
   -1
100
AcDbLine
 10
20.68999999999982
 20
126.340000000001
 11
26.28999999999983
 21
126.340000000001
  0
LINE
  5
1D6
100
AcDbEntity
  8
resister
  6
ByLayer
 62
  256
370
   -1
100
AcDbLine
 10
26.28999999999983
 20
126.340000000001
 11
26.28999999999983
 21
128.5400000000006
  0
LINE
  5
1D7
100
AcDbEntity
  8
resister
  6
ByLayer
 62
  256
370
   -1
100
AcDbLine
 10
20.68999999999982
 20
127.4399999999998
 11
22.21999999999815
 21
127.4399999999998
  0
LINE
  5
1D8
100
AcDbEntity
  8
resister
  6
ByLayer
 62
  256
370
   -1
100
AcDbLine
 10
26.28999999999983
 20
127.4399999999998
 11
24.75999999999809
 21
127.4399999999998
  0
LINE
  5
1D9
100
AcDbEntity
  8
0_wire
  6
ByLayer
 62
  256
370
   -1
100
AcDbLine
 10
9.519999999998451
 20
132.5200000000002
 11
12.05999999999839
 21
132.5200000000001
  0
LINE
  5
1DA
100
AcDbEntity
  8
0_wire
  6
ByLayer
 62
  256
370
   -1
100
AcDbLine
 10
14.59999999999833
 20
132.52
 11
22.21999999999815
 21
132.5199999999997
  0
LINE
  5
1DB
100
AcDbEntity
  8
0_GND
  6
ByLayer
 62
  256
370
   -1
100
AcDbLine
 10
9.519999999998479
 20
114.7400000000001
 11
24.75999999999812
 21
114.7399999999995
  0
LINE
  5
1DC
100
AcDbEntity
  8
0_GND
  6
ByLayer
 62
  256
370
   -1
100
AcDbLine
 10
24.75999999999812
 20
114.7399999999995
 11
24.75999999999809
 21
132.5199999999996
  0
LINE
  5
1DD
100
AcDbEntity
  8
0_wire
  6
ByLayer
 62
  256
370
   -1
100
AcDbLine
 10
9.519999999998451
 20
129.9800000000002
 11
17.13999999999827
 21
129.9799999999999
  0
LINE
  5
1DE
100
AcDbEntity
  8
resister
  6
ByLayer
 62
  256
370
   -1
100
AcDbLine
 10
26.28999999999983
 20
131.0800000000006
 11
20.68999999999982
 21
131.0800000000006
  0
LINE
  5
1DF
100
AcDbEntity
  8
resister
  6
ByLayer
 62
  256
370
   -1
100
AcDbLine
 10
20.68999999999982
 20
131.0800000000006
 11
20.68999999999982
 21
128.880000000001
  0
LINE
  5
1E0
100
AcDbEntity
  8
resister
  6
ByLayer
 62
  256
370
   -1
100
AcDbLine
 10
20.68999999999982
 20
128.880000000001
 11
26.28999999999983
 21
128.880000000001
  0
LINE
  5
1E1
100
AcDbEntity
  8
resister
  6
ByLayer
 62
  256
370
   -1
100
AcDbLine
 10
26.28999999999983
 20
128.880000000001
 11
26.28999999999983
 21
131.0800000000006
  0
LINE
  5
1E2
100
AcDbEntity
  8
resister
  6
ByLayer
 62
  256
370
   -1
100
AcDbLine
 10
20.68999999999982
 20
129.9799999999998
 11
22.21999999999815
 21
129.9799999999998
  0
LINE
  5
1E3
100
AcDbEntity
  8
resister
  6
ByLayer
 62
  256
370
   -1
100
AcDbLine
 10
26.28999999999983
 20
129.9799999999998
 11
24.75999999999809
 21
129.9799999999998
  0
LINE
  5
1E4
100
AcDbEntity
  8
resister
  6
ByLayer
 62
  256
370
   -1
100
AcDbLine
 10
26.28999999999983
 20
126.0000000000006
 11
20.68999999999982
 21
126.0000000000006
  0
LINE
  5
1E5
100
AcDbEntity
  8
resister
  6
ByLayer
 62
  256
370
   -1
100
AcDbLine
 10
20.68999999999982
 20
126.0000000000006
 11
20.68999999999982
 21
123.800000000001
  0
LINE
  5
1E6
100
AcDbEntity
  8
resister
  6
ByLayer
 62
  256
370
   -1
100
AcDbLine
 10
20.68999999999982
 20
123.800000000001
 11
26.28999999999983
 21
123.800000000001
  0
LINE
  5
1E7
100
AcDbEntity
  8
resister
  6
ByLayer
 62
  256
370
   -1
100
AcDbLine
 10
26.28999999999983
 20
123.800000000001
 11
26.28999999999983
 21
126.0000000000006
  0
LINE
  5
1E8
100
AcDbEntity
  8
resister
  6
ByLayer
 62
  256
370
   -1
100
AcDbLine
 10
20.68999999999982
 20
124.8999999999998
 11
22.21999999999815
 21
124.8999999999998
  0
LINE
  5
1E9
100
AcDbEntity
  8
resister
  6
ByLayer
 62
  256
370
   -1
100
AcDbLine
 10
26.28999999999983
 20
124.8999999999998
 11
24.75999999999809
 21
124.8999999999998
  0
LINE
  5
1EA
100
AcDbEntity
  8
resister
  6
ByLayer
 62
  256
370
   -1
100
AcDbLine
 10
26.28999999999983
 20
123.4600000000006
 11
20.68999999999982
 21
123.4600000000006
  0
LINE
  5
1EB
100
AcDbEntity
  8
resister
  6
ByLayer
 62
  256
370
   -1
100
AcDbLine
 10
20.68999999999982
 20
123.4600000000006
 11
20.68999999999982
 21
121.260000000001
  0
LINE
  5
1EC
100
AcDbEntity
  8
resister
  6
ByLayer
 62
  256
370
   -1
100
AcDbLine
 10
20.68999999999982
 20
121.260000000001
 11
26.28999999999983
 21
121.260000000001
  0
LINE
  5
1ED
100
AcDbEntity
  8
resister
  6
ByLayer
 62
  256
370
   -1
100
AcDbLine
 10
26.28999999999983
 20
121.260000000001
 11
26.28999999999983
 21
123.4600000000006
  0
LINE
  5
1EE
100
AcDbEntity
  8
resister
  6
ByLayer
 62
  256
370
   -1
100
AcDbLine
 10
20.68999999999982
 20
122.3599999999998
 11
22.21999999999815
 21
122.3599999999998
  0
LINE
  5
1EF
100
AcDbEntity
  8
resister
  6
ByLayer
 62
  256
370
   -1
100
AcDbLine
 10
26.28999999999983
 20
122.3599999999998
 11
24.75999999999809
 21
122.3599999999998
  0
LINE
  5
1F0
100
AcDbEntity
  8
0_wire
  6
ByLayer
 62
  256
370
   -1
100
AcDbLine
 10
19.67999999999821
 20
129.9799999999998
 11
22.21999999999815
 21
129.9799999999997
  0
LINE
  5
1F1
100
AcDbEntity
  8
0_wire
  6
ByLayer
 62
  256
370
   -1
100
AcDbLine
 10
9.519999999998451
 20
127.4400000000002
 11
12.05999999999839
 21
127.4400000000001
  0
LINE
  5
1F2
100
AcDbEntity
  8
0_wire
  6
ByLayer
 62
  256
370
   -1
100
AcDbLine
 10
14.59999999999833
 20
127.44
 11
22.21999999999815
 21
127.4399999999997
  0
LINE
  5
1F3
100
AcDbEntity
  8
0_wire
  6
ByLayer
 62
  256
370
   -1
100
AcDbLine
 10
9.519999999998451
 20
124.9000000000002
 11
17.13999999999827
 21
124.8999999999999
  0
LINE
  5
1F4
100
AcDbEntity
  8
0_wire
  6
ByLayer
 62
  256
370
   -1
100
AcDbLine
 10
19.67999999999821
 20
124.8999999999998
 11
22.21999999999815
 21
124.8999999999997
  0
LINE
  5
1F5
100
AcDbEntity
  8
0_wire
  6
ByLayer
 62
  256
370
   -1
100
AcDbLine
 10
9.519999999998461
 20
122.3600000000002
 11
12.0599999999984
 21
122.3600000000001
  0
LINE
  5
1F6
100
AcDbEntity
  8
0_wire
  6
ByLayer
 62
  256
370
   -1
100
AcDbLine
 10
14.59999999999834
 20
122.36
 11
22.21999999999816
 21
122.3599999999997
  0
LINE
  5
1F7
100
AcDbEntity
  8
socket_header
  6
ByLayer
 62
  256
370
   -1
100
AcDbLine
 10
10.78999999999864
 20
110.9299999999998
 11
10.78999999999864
 21
113.4700000000002
  0
LINE
  5
1F8
100
AcDbEntity
  8
socket_header
  6
ByLayer
 62
  256
370
   -1
100
AcDbLine
 10
10.78999999999864
 20
108.3899999999998
 11
10.78999999999864
 21
110.9300000000002
  0
LINE
  5
1F9
100
AcDbEntity
  8
socket_header
  6
ByLayer
 62
  256
370
   -1
100
AcDbLine
 10
10.78999999999864
 20
105.8499999999998
 11
10.78999999999864
 21
108.3900000000002
  0
LINE
  5
1FA
100
AcDbEntity
  8
socket_header
  6
ByLayer
 62
  256
370
   -1
100
AcDbLine
 10
10.78999999999864
 20
103.3099999999997
 11
10.78999999999864
 21
105.8500000000001
  0
LINE
  5
1FB
100
AcDbEntity
  8
diode
  6
ByLayer
 62
  256
370
   -1
100
AcDbLine
 10
15.27999999999784
 20
111.2099999999992
 11
11.37999999999826
 21
111.2099999999992
  0
LINE
  5
1FC
100
AcDbEntity
  8
diode
  6
ByLayer
 62
  256
370
   -1
100
AcDbLine
 10
11.37999999999826
 20
111.2099999999992
 11
11.37999999999826
 21
108.1100000000005
  0
LINE
  5
1FD
100
AcDbEntity
  8
diode
  6
ByLayer
 62
  256
370
   -1
100
AcDbLine
 10
11.37999999999826
 20
108.1100000000005
 11
15.27999999999784
 21
108.1100000000005
  0
LINE
  5
1FE
100
AcDbEntity
  8
diode
  6
ByLayer
 62
  256
370
   -1
100
AcDbLine
 10
15.27999999999784
 20
108.1100000000005
 11
15.27999999999784
 21
111.2099999999992
  0
LINE
  5
1FF
100
AcDbEntity
  8
diode
  6
ByLayer
 62
  256
370
   -1
100
AcDbLine
 10
14.59999999999854
 20
109.6599999999999
 11
15.27999999999784
 21
109.6599999999999
  0
LINE
  5
200
100
AcDbEntity
  8
diode
  6
ByLayer
 62
  256
370
   -1
100
AcDbLine
 10
12.05999999999844
 20
109.6599999999999
 11
11.37999999999826
 21
109.6599999999999
  0
MTEXT
  5
201
100
AcDbEntity
  8
diode
  6
ByLayer
 62
  256
370
   -1
100
AcDbMText
 10
12.05738920965104
 20
110.6182879861775
 30
0
 40
1
 41
0.4166666666666666
 71
    4
 72
    1
  1
+
  7
kst32b
210
0
220
0
230
1
 50
0
 73
    2
 44
1.54
  0
MTEXT
  5
202
100
AcDbEntity
  8
diode
  6
ByLayer
 62
  256
370
   -1
100
AcDbMText
 10
14.49876140499359
 20
110.6681119085314
 30
0
 40
1
 41
0.4166666666666666
 71
    4
 72
    1
  1
-
  7
kst32b
210
0
220
0
230
1
 50
0
 73
    2
 44
1.54
  0
LINE
  5
203
100
AcDbEntity
  8
diode
  6
ByLayer
 62
  256
370
   -1
100
AcDbLine
 10
15.27999999999785
 20
106.1299999999992
 11
11.37999999999827
 21
106.1299999999992
  0
LINE
  5
204
100
AcDbEntity
  8
diode
  6
ByLayer
 62
  256
370
   -1
100
AcDbLine
 10
11.37999999999827
 20
106.1299999999992
 11
11.37999999999827
 21
103.0300000000005
  0
LINE
  5
205
100
AcDbEntity
  8
diode
  6
ByLayer
 62
  256
370
   -1
100
AcDbLine
 10
11.37999999999827
 20
103.0300000000005
 11
15.27999999999785
 21
103.0300000000005
  0
LINE
  5
206
100
AcDbEntity
  8
diode
  6
ByLayer
 62
  256
370
   -1
100
AcDbLine
 10
15.27999999999785
 20
103.0300000000005
 11
15.27999999999785
 21
106.1299999999992
  0
LINE
  5
207
100
AcDbEntity
  8
diode
  6
ByLayer
 62
  256
370
   -1
100
AcDbLine
 10
14.59999999999856
 20
104.5799999999999
 11
15.27999999999785
 21
104.5799999999999
  0
LINE
  5
208
100
AcDbEntity
  8
diode
  6
ByLayer
 62
  256
370
   -1
100
AcDbLine
 10
12.05999999999845
 20
104.5799999999999
 11
11.37999999999827
 21
104.5799999999999
  0
MTEXT
  5
209
100
AcDbEntity
  8
diode
  6
ByLayer
 62
  256
370
   -1
100
AcDbMText
 10
12.05738920965105
 20
105.5382879861775
 30
0
 40
1
 41
0.4166666666666666
 71
    4
 72
    1
  1
+
  7
kst32b
210
0
220
0
230
1
 50
0
 73
    2
 44
1.54
  0
MTEXT
  5
20A
100
AcDbEntity
  8
diode
  6
ByLayer
 62
  256
370
   -1
100
AcDbMText
 10
14.49876140499361
 20
105.5881119085314
 30
0
 40
1
 41
0.4166666666666666
 71
    4
 72
    1
  1
-
  7
kst32b
210
0
220
0
230
1
 50
0
 73
    2
 44
1.54
  0
LINE
  5
20B
100
AcDbEntity
  8
diode
  6
ByLayer
 62
  256
370
   -1
100
AcDbLine
 10
20.35999999999772
 20
113.749999999999
 11
16.45999999999814
 21
113.749999999999
  0
LINE
  5
20C
100
AcDbEntity
  8
diode
  6
ByLayer
 62
  256
370
   -1
100
AcDbLine
 10
16.45999999999814
 20
113.749999999999
 11
16.45999999999814
 21
110.6500000000003
  0
LINE
  5
20D
100
AcDbEntity
  8
diode
  6
ByLayer
 62
  256
370
   -1
100
AcDbLine
 10
16.45999999999814
 20
110.6500000000003
 11
20.35999999999772
 21
110.6500000000003
  0
LINE
  5
20E
100
AcDbEntity
  8
diode
  6
ByLayer
 62
  256
370
   -1
100
AcDbLine
 10
20.35999999999772
 20
110.6500000000003
 11
20.35999999999772
 21
113.749999999999
  0
LINE
  5
20F
100
AcDbEntity
  8
diode
  6
ByLayer
 62
  256
370
   -1
100
AcDbLine
 10
19.67999999999842
 20
112.1999999999997
 11
20.35999999999772
 21
112.1999999999997
  0
LINE
  5
210
100
AcDbEntity
  8
diode
  6
ByLayer
 62
  256
370
   -1
100
AcDbLine
 10
17.13999999999832
 20
112.1999999999997
 11
16.45999999999814
 21
112.1999999999997
  0
LINE
  5
211
100
AcDbEntity
  8
diode
  6
ByLayer
 62
  256
370
   -1
100
AcDbLine
 10
20.35999999999772
 20
108.669999999999
 11
16.45999999999814
 21
108.669999999999
  0
LINE
  5
212
100
AcDbEntity
  8
diode
  6
ByLayer
 62
  256
370
   -1
100
AcDbLine
 10
16.45999999999814
 20
108.669999999999
 11
16.45999999999814
 21
105.5700000000003
  0
LINE
  5
213
100
AcDbEntity
  8
diode
  6
ByLayer
 62
  256
370
   -1
100
AcDbLine
 10
16.45999999999814
 20
105.5700000000003
 11
20.35999999999772
 21
105.5700000000003
  0
LINE
  5
214
100
AcDbEntity
  8
diode
  6
ByLayer
 62
  256
370
   -1
100
AcDbLine
 10
20.35999999999772
 20
105.5700000000003
 11
20.35999999999772
 21
108.669999999999
  0
LINE
  5
215
100
AcDbEntity
  8
diode
  6
ByLayer
 62
  256
370
   -1
100
AcDbLine
 10
19.67999999999842
 20
107.1199999999997
 11
20.35999999999772
 21
107.1199999999997
  0
LINE
  5
216
100
AcDbEntity
  8
diode
  6
ByLayer
 62
  256
370
   -1
100
AcDbLine
 10
17.13999999999832
 20
107.1199999999997
 11
16.45999999999814
 21
107.1199999999997
  0
LINE
  5
217
100
AcDbEntity
  8
resister
  6
ByLayer
 62
  256
370
   -1
100
AcDbLine
 10
26.28999999999988
 20
110.7600000000004
 11
20.68999999999987
 21
110.7600000000004
  0
LINE
  5
218
100
AcDbEntity
  8
resister
  6
ByLayer
 62
  256
370
   -1
100
AcDbLine
 10
20.68999999999987
 20
110.7600000000004
 11
20.68999999999987
 21
108.5600000000008
  0
LINE
  5
219
100
AcDbEntity
  8
resister
  6
ByLayer
 62
  256
370
   -1
100
AcDbLine
 10
20.68999999999987
 20
108.5600000000008
 11
26.28999999999988
 21
108.5600000000008
  0
LINE
  5
21A
100
AcDbEntity
  8
resister
  6
ByLayer
 62
  256
370
   -1
100
AcDbLine
 10
26.28999999999988
 20
108.5600000000008
 11
26.28999999999988
 21
110.7600000000004
  0
LINE
  5
21B
100
AcDbEntity
  8
resister
  6
ByLayer
 62
  256
370
   -1
100
AcDbLine
 10
20.68999999999987
 20
109.6599999999996
 11
22.2199999999982
 21
109.6599999999996
  0
LINE
  5
21C
100
AcDbEntity
  8
resister
  6
ByLayer
 62
  256
370
   -1
100
AcDbLine
 10
26.28999999999988
 20
109.6599999999996
 11
24.75999999999814
 21
109.6599999999996
  0
LINE
  5
21D
100
AcDbEntity
  8
resister
  6
ByLayer
 62
  256
370
   -1
100
AcDbLine
 10
26.28999999999988
 20
113.3000000000004
 11
20.68999999999987
 21
113.3000000000004
  0
LINE
  5
21E
100
AcDbEntity
  8
resister
  6
ByLayer
 62
  256
370
   -1
100
AcDbLine
 10
20.68999999999987
 20
113.3000000000004
 11
20.68999999999987
 21
111.1000000000008
  0
LINE
  5
21F
100
AcDbEntity
  8
resister
  6
ByLayer
 62
  256
370
   -1
100
AcDbLine
 10
20.68999999999987
 20
111.1000000000008
 11
26.28999999999988
 21
111.1000000000008
  0
LINE
  5
220
100
AcDbEntity
  8
resister
  6
ByLayer
 62
  256
370
   -1
100
AcDbLine
 10
26.28999999999988
 20
111.1000000000008
 11
26.28999999999988
 21
113.3000000000004
  0
LINE
  5
221
100
AcDbEntity
  8
resister
  6
ByLayer
 62
  256
370
   -1
100
AcDbLine
 10
20.68999999999987
 20
112.1999999999996
 11
22.2199999999982
 21
112.1999999999996
  0
LINE
  5
222
100
AcDbEntity
  8
resister
  6
ByLayer
 62
  256
370
   -1
100
AcDbLine
 10
26.28999999999988
 20
112.1999999999996
 11
24.75999999999814
 21
112.1999999999996
  0
LINE
  5
223
100
AcDbEntity
  8
resister
  6
ByLayer
 62
  256
370
   -1
100
AcDbLine
 10
26.28999999999988
 20
108.2200000000004
 11
20.68999999999987
 21
108.2200000000004
  0
LINE
  5
224
100
AcDbEntity
  8
resister
  6
ByLayer
 62
  256
370
   -1
100
AcDbLine
 10
20.68999999999987
 20
108.2200000000004
 11
20.68999999999987
 21
106.0200000000008
  0
LINE
  5
225
100
AcDbEntity
  8
resister
  6
ByLayer
 62
  256
370
   -1
100
AcDbLine
 10
20.68999999999987
 20
106.0200000000008
 11
26.28999999999988
 21
106.0200000000008
  0
LINE
  5
226
100
AcDbEntity
  8
resister
  6
ByLayer
 62
  256
370
   -1
100
AcDbLine
 10
26.28999999999988
 20
106.0200000000008
 11
26.28999999999988
 21
108.2200000000004
  0
LINE
  5
227
100
AcDbEntity
  8
resister
  6
ByLayer
 62
  256
370
   -1
100
AcDbLine
 10
20.68999999999987
 20
107.1199999999996
 11
22.2199999999982
 21
107.1199999999996
  0
LINE
  5
228
100
AcDbEntity
  8
resister
  6
ByLayer
 62
  256
370
   -1
100
AcDbLine
 10
26.28999999999988
 20
107.1199999999996
 11
24.75999999999814
 21
107.1199999999996
  0
LINE
  5
229
100
AcDbEntity
  8
resister
  6
ByLayer
 62
  256
370
   -1
100
AcDbLine
 10
26.28999999999988
 20
105.6800000000004
 11
20.68999999999987
 21
105.6800000000004
  0
LINE
  5
22A
100
AcDbEntity
  8
resister
  6
ByLayer
 62
  256
370
   -1
100
AcDbLine
 10
20.68999999999987
 20
105.6800000000004
 11
20.68999999999987
 21
103.4800000000008
  0
LINE
  5
22B
100
AcDbEntity
  8
resister
  6
ByLayer
 62
  256
370
   -1
100
AcDbLine
 10
20.68999999999987
 20
103.4800000000008
 11
26.28999999999988
 21
103.4800000000008
  0
LINE
  5
22C
100
AcDbEntity
  8
resister
  6
ByLayer
 62
  256
370
   -1
100
AcDbLine
 10
26.28999999999988
 20
103.4800000000008
 11
26.28999999999988
 21
105.6800000000004
  0
LINE
  5
22D
100
AcDbEntity
  8
resister
  6
ByLayer
 62
  256
370
   -1
100
AcDbLine
 10
20.68999999999987
 20
104.5799999999996
 11
22.2199999999982
 21
104.5799999999996
  0
LINE
  5
22E
100
AcDbEntity
  8
resister
  6
ByLayer
 62
  256
370
   -1
100
AcDbLine
 10
26.28999999999988
 20
104.5799999999996
 11
24.75999999999814
 21
104.5799999999996
  0
LINE
  5
22F
100
AcDbEntity
  8
0_wire
  6
ByLayer
 62
  256
370
   -1
100
AcDbLine
 10
9.51999999999849
 20
112.2000000000001
 11
17.13999999999831
 21
112.1999999999998
  0
LINE
  5
230
100
AcDbEntity
  8
0_wire
  6
ByLayer
 62
  256
370
   -1
100
AcDbLine
 10
19.67999999999826
 20
112.1999999999997
 11
22.21999999999819
 21
112.1999999999996
  0
LINE
  5
231
100
AcDbEntity
  8
0_wire
  6
ByLayer
 62
  256
370
   -1
100
AcDbLine
 10
22.21999999999819
 20
109.6599999999995
 11
14.59999999999837
 21
109.6599999999998
  0
LINE
  5
232
100
AcDbEntity
  8
0_wire
  6
ByLayer
 62
  256
370
   -1
100
AcDbLine
 10
12.05999999999843
 20
109.6599999999999
 11
9.51999999999849
 21
109.66
  0
LINE
  5
233
100
AcDbEntity
  8
0_wire
  6
ByLayer
 62
  256
370
   -1
100
AcDbLine
 10
9.5199999999985
 20
107.12
 11
17.13999999999832
 21
107.1199999999997
  0
LINE
  5
234
100
AcDbEntity
  8
0_wire
  6
ByLayer
 62
  256
370
   -1
100
AcDbLine
 10
19.67999999999826
 20
107.1199999999996
 11
22.2199999999982
 21
107.1199999999995
  0
LINE
  5
235
100
AcDbEntity
  8
0_wire
  6
ByLayer
 62
  256
370
   -1
100
AcDbLine
 10
22.21999999999821
 20
104.5799999999995
 11
14.59999999999839
 21
104.5799999999998
  0
LINE
  5
236
100
AcDbEntity
  8
0_wire
  6
ByLayer
 62
  256
370
   -1
100
AcDbLine
 10
12.05999999999845
 20
104.5799999999999
 11
9.519999999998509
 21
104.58
  0
LINE
  5
237
100
AcDbEntity
  8
0_GND
  6
ByLayer
 62
  256
370
   -1
100
AcDbLine
 10
24.75999999999812
 20
114.7399999999995
 11
24.75999999999815
 21
104.5799999999994
  0
LINE
  5
238
100
AcDbEntity
  8
diode
  6
ByLayer
 62
  256
370
   -1
100
AcDbLine
 10
38.13999999999731
 20
108.6699999999984
 11
34.23999999999773
 21
108.6699999999984
  0
LINE
  5
239
100
AcDbEntity
  8
diode
  6
ByLayer
 62
  256
370
   -1
100
AcDbLine
 10
34.23999999999773
 20
108.6699999999984
 11
34.23999999999773
 21
105.5699999999996
  0
LINE
  5
23A
100
AcDbEntity
  8
diode
  6
ByLayer
 62
  256
370
   -1
100
AcDbLine
 10
34.23999999999773
 20
105.5699999999996
 11
38.13999999999731
 21
105.5699999999996
  0
LINE
  5
23B
100
AcDbEntity
  8
diode
  6
ByLayer
 62
  256
370
   -1
100
AcDbLine
 10
38.13999999999731
 20
105.5699999999996
 11
38.13999999999731
 21
108.6699999999984
  0
LINE
  5
23C
100
AcDbEntity
  8
diode
  6
ByLayer
 62
  256
370
   -1
100
AcDbLine
 10
37.45999999999801
 20
107.119999999999
 11
38.13999999999731
 21
107.119999999999
  0
LINE
  5
23D
100
AcDbEntity
  8
diode
  6
ByLayer
 62
  256
370
   -1
100
AcDbLine
 10
34.91999999999791
 20
107.119999999999
 11
34.23999999999773
 21
107.119999999999
  0
MTEXT
  5
23E
100
AcDbEntity
  8
diode
  6
ByLayer
 62
  256
370
   -1
100
AcDbMText
 10
34.91738920965051
 20
108.0782879861766
 30
0
 40
1
 41
0.4166666666666666
 71
    4
 72
    1
  1
-
  7
kst32b
210
0
220
0
230
1
 50
0
 73
    2
 44
1.54
  0
MTEXT
  5
23F
100
AcDbEntity
  8
diode
  6
ByLayer
 62
  256
370
   -1
100
AcDbMText
 10
37.35876140499306
 20
108.1281119085306
 30
0
 40
1
 41
0.4166666666666666
 71
    4
 72
    1
  1
+
  7
kst32b
210
0
220
0
230
1
 50
0
 73
    2
 44
1.54
  0
LINE
  5
240
100
AcDbEntity
  8
diode
  6
ByLayer
 62
  256
370
   -1
100
AcDbLine
 10
43.21999999999718
 20
111.2099999999981
 11
39.3199999999976
 21
111.2099999999981
  0
LINE
  5
241
100
AcDbEntity
  8
diode
  6
ByLayer
 62
  256
370
   -1
100
AcDbLine
 10
39.3199999999976
 20
111.2099999999981
 11
39.3199999999976
 21
108.1099999999994
  0
LINE
  5
242
100
AcDbEntity
  8
diode
  6
ByLayer
 62
  256
370
   -1
100
AcDbLine
 10
39.3199999999976
 20
108.1099999999994
 11
43.21999999999718
 21
108.1099999999994
  0
LINE
  5
243
100
AcDbEntity
  8
diode
  6
ByLayer
 62
  256
370
   -1
100
AcDbLine
 10
43.21999999999718
 20
108.1099999999994
 11
43.21999999999718
 21
111.2099999999981
  0
LINE
  5
244
100
AcDbEntity
  8
diode
  6
ByLayer
 62
  256
370
   -1
100
AcDbLine
 10
42.53999999999788
 20
109.6599999999988
 11
43.21999999999718
 21
109.6599999999988
  0
LINE
  5
245
100
AcDbEntity
  8
diode
  6
ByLayer
 62
  256
370
   -1
100
AcDbLine
 10
39.99999999999778
 20
109.6599999999988
 11
39.3199999999976
 21
109.6599999999988
  0
MTEXT
  5
246
100
AcDbEntity
  8
diode
  6
ByLayer
 62
  256
370
   -1
100
AcDbMText
 10
39.99738920965038
 20
110.6182879861764
 30
0
 40
1
 41
0.4166666666666666
 71
    4
 72
    1
  1
-
  7
kst32b
210
0
220
0
230
1
 50
0
 73
    2
 44
1.54
  0
MTEXT
  5
247
100
AcDbEntity
  8
diode
  6
ByLayer
 62
  256
370
   -1
100
AcDbMText
 10
42.43876140499293
 20
110.6681119085303
 30
0
 40
1
 41
0.4166666666666666
 71
    4
 72
    1
  1
+
  7
kst32b
210
0
220
0
230
1
 50
0
 73
    2
 44
1.54
  0
LINE
  5
248
100
AcDbEntity
  8
diode
  6
ByLayer
 62
  256
370
   -1
100
AcDbLine
 10
38.13999999999729
 20
113.7499999999985
 11
34.23999999999771
 21
113.7499999999985
  0
LINE
  5
249
100
AcDbEntity
  8
diode
  6
ByLayer
 62
  256
370
   -1
100
AcDbLine
 10
34.23999999999771
 20
113.7499999999985
 11
34.23999999999771
 21
110.6499999999997
  0
LINE
  5
24A
100
AcDbEntity
  8
diode
  6
ByLayer
 62
  256
370
   -1
100
AcDbLine
 10
34.23999999999771
 20
110.6499999999997
 11
38.13999999999729
 21
110.6499999999997
  0
LINE
  5
24B
100
AcDbEntity
  8
diode
  6
ByLayer
 62
  256
370
   -1
100
AcDbLine
 10
38.13999999999729
 20
110.6499999999997
 11
38.13999999999729
 21
113.7499999999985
  0
LINE
  5
24C
100
AcDbEntity
  8
diode
  6
ByLayer
 62
  256
370
   -1
100
AcDbLine
 10
37.459999999998
 20
112.1999999999991
 11
38.13999999999729
 21
112.1999999999991
  0
LINE
  5
24D
100
AcDbEntity
  8
diode
  6
ByLayer
 62
  256
370
   -1
100
AcDbLine
 10
34.91999999999789
 20
112.1999999999991
 11
34.23999999999771
 21
112.1999999999991
  0
MTEXT
  5
24E
100
AcDbEntity
  8
diode
  6
ByLayer
 62
  256
370
   -1
100
AcDbMText
 10
34.91738920965049
 20
113.1582879861767
 30
0
 40
1
 41
0.4166666666666666
 71
    4
 72
    1
  1
-
  7
kst32b
210
0
220
0
230
1
 50
0
 73
    2
 44
1.54
  0
MTEXT
  5
24F
100
AcDbEntity
  8
diode
  6
ByLayer
 62
  256
370
   -1
100
AcDbMText
 10
37.35876140499305
 20
113.2081119085307
 30
0
 40
1
 41
0.4166666666666666
 71
    4
 72
    1
  1
+
  7
kst32b
210
0
220
0
230
1
 50
0
 73
    2
 44
1.54
  0
LINE
  5
250
100
AcDbEntity
  8
resister
  6
ByLayer
 62
  256
370
   -1
100
AcDbLine
 10
33.9099999999997
 20
110.7600000000001
 11
28.30999999999969
 21
110.7600000000001
  0
LINE
  5
251
100
AcDbEntity
  8
resister
  6
ByLayer
 62
  256
370
   -1
100
AcDbLine
 10
28.30999999999969
 20
110.7600000000001
 11
28.30999999999969
 21
108.5600000000005
  0
LINE
  5
252
100
AcDbEntity
  8
resister
  6
ByLayer
 62
  256
370
   -1
100
AcDbLine
 10
28.30999999999969
 20
108.5600000000005
 11
33.9099999999997
 21
108.5600000000005
  0
LINE
  5
253
100
AcDbEntity
  8
resister
  6
ByLayer
 62
  256
370
   -1
100
AcDbLine
 10
33.9099999999997
 20
108.5600000000005
 11
33.9099999999997
 21
110.7600000000001
  0
LINE
  5
254
100
AcDbEntity
  8
resister
  6
ByLayer
 62
  256
370
   -1
100
AcDbLine
 10
28.30999999999969
 20
109.6599999999993
 11
29.83999999999802
 21
109.6599999999993
  0
LINE
  5
255
100
AcDbEntity
  8
resister
  6
ByLayer
 62
  256
370
   -1
100
AcDbLine
 10
33.9099999999997
 20
109.6599999999993
 11
32.37999999999795
 21
109.6599999999993
  0
LINE
  5
256
100
AcDbEntity
  8
resister
  6
ByLayer
 62
  256
370
   -1
100
AcDbLine
 10
33.9099999999997
 20
113.3000000000001
 11
28.30999999999969
 21
113.3000000000001
  0
LINE
  5
257
100
AcDbEntity
  8
resister
  6
ByLayer
 62
  256
370
   -1
100
AcDbLine
 10
28.30999999999969
 20
113.3000000000001
 11
28.30999999999969
 21
111.1000000000005
  0
LINE
  5
258
100
AcDbEntity
  8
resister
  6
ByLayer
 62
  256
370
   -1
100
AcDbLine
 10
28.30999999999969
 20
111.1000000000005
 11
33.9099999999997
 21
111.1000000000005
  0
LINE
  5
259
100
AcDbEntity
  8
resister
  6
ByLayer
 62
  256
370
   -1
100
AcDbLine
 10
33.9099999999997
 20
111.1000000000005
 11
33.9099999999997
 21
113.3000000000001
  0
LINE
  5
25A
100
AcDbEntity
  8
resister
  6
ByLayer
 62
  256
370
   -1
100
AcDbLine
 10
28.30999999999969
 20
112.1999999999993
 11
29.83999999999802
 21
112.1999999999993
  0
LINE
  5
25B
100
AcDbEntity
  8
resister
  6
ByLayer
 62
  256
370
   -1
100
AcDbLine
 10
33.9099999999997
 20
112.1999999999993
 11
32.37999999999795
 21
112.1999999999993
  0
LINE
  5
25C
100
AcDbEntity
  8
resister
  6
ByLayer
 62
  256
370
   -1
100
AcDbLine
 10
33.9099999999997
 20
108.2200000000001
 11
28.30999999999969
 21
108.2200000000001
  0
LINE
  5
25D
100
AcDbEntity
  8
resister
  6
ByLayer
 62
  256
370
   -1
100
AcDbLine
 10
28.30999999999969
 20
108.2200000000001
 11
28.30999999999969
 21
106.0200000000005
  0
LINE
  5
25E
100
AcDbEntity
  8
resister
  6
ByLayer
 62
  256
370
   -1
100
AcDbLine
 10
28.30999999999969
 20
106.0200000000005
 11
33.9099999999997
 21
106.0200000000005
  0
LINE
  5
25F
100
AcDbEntity
  8
resister
  6
ByLayer
 62
  256
370
   -1
100
AcDbLine
 10
33.9099999999997
 20
106.0200000000005
 11
33.9099999999997
 21
108.2200000000001
  0
LINE
  5
260
100
AcDbEntity
  8
resister
  6
ByLayer
 62
  256
370
   -1
100
AcDbLine
 10
28.30999999999969
 20
107.1199999999993
 11
29.83999999999802
 21
107.1199999999993
  0
LINE
  5
261
100
AcDbEntity
  8
resister
  6
ByLayer
 62
  256
370
   -1
100
AcDbLine
 10
33.9099999999997
 20
107.1199999999993
 11
32.37999999999795
 21
107.1199999999993
  0
LINE
  5
262
100
AcDbEntity
  8
0_wire
  6
ByLayer
 62
  256
370
   -1
100
AcDbLine
 10
45.07999999999767
 20
107.1199999999986
 11
37.45999999999785
 21
107.1199999999989
  0
LINE
  5
263
100
AcDbEntity
  8
0_wire
  6
ByLayer
 62
  256
370
   -1
100
AcDbLine
 10
34.91999999999791
 20
107.119999999999
 11
32.37999999999796
 21
107.1199999999991
  0
LINE
  5
264
100
AcDbEntity
  8
0_wire
  6
ByLayer
 62
  256
370
   -1
100
AcDbLine
 10
32.37999999999795
 20
109.6599999999991
 11
39.99999999999778
 21
109.6599999999988
  0
LINE
  5
265
100
AcDbEntity
  8
0_wire
  6
ByLayer
 62
  256
370
   -1
100
AcDbLine
 10
42.53999999999772
 20
109.6599999999987
 11
45.07999999999765
 21
109.6599999999986
  0
LINE
  5
266
100
AcDbEntity
  8
0_wire
  6
ByLayer
 62
  256
370
   -1
100
AcDbLine
 10
45.07999999999765
 20
112.1999999999987
 11
37.45999999999783
 21
112.199999999999
  0
LINE
  5
267
100
AcDbEntity
  8
0_wire
  6
ByLayer
 62
  256
370
   -1
100
AcDbLine
 10
34.91999999999789
 20
112.1999999999991
 11
32.37999999999795
 21
112.1999999999992
  0
LINE
  5
268
100
AcDbEntity
  8
0_GND
  6
ByLayer
 62
  256
370
   -1
100
AcDbLine
 10
29.83999999999802
 20
107.1199999999992
 11
29.83999999999802
 21
109.6599999999992
  0
LINE
  5
269
100
AcDbEntity
  8
0_GND
  6
ByLayer
 62
  256
370
   -1
100
AcDbLine
 10
29.83999999999802
 20
109.6599999999992
 11
29.83999999999802
 21
112.1999999999993
  0
LINE
  5
26A
100
AcDbEntity
  8
0_GND
  6
ByLayer
 62
  256
370
   -1
100
AcDbLine
 10
29.83999999999802
 20
112.1999999999993
 11
29.839999999998
 21
117.2799999999993
  0
LINE
  5
26B
100
AcDbEntity
  8
0_GND
  6
ByLayer
 62
  256
370
   -1
100
AcDbLine
 10
29.839999999998
 20
117.2799999999993
 11
45.07999999999763
 21
117.2799999999987
  0
LINE
  5
26C
100
AcDbEntity
  8
0_GND
  6
ByLayer
 62
  256
370
   -1
100
AcDbLine
 10
45.07999999999763
 20
117.2799999999987
 11
45.07999999999763
 21
119.8199999999987
  0
LINE
  5
26D
100
AcDbEntity
  8
diode
  6
ByLayer
 62
  256
370
   -1
100
AcDbLine
 10
43.21999999999714
 20
126.4499999999984
 11
39.31999999999756
 21
126.4499999999984
  0
LINE
  5
26E
100
AcDbEntity
  8
diode
  6
ByLayer
 62
  256
370
   -1
100
AcDbLine
 10
39.31999999999756
 20
126.4499999999984
 11
39.31999999999756
 21
123.3499999999996
  0
LINE
  5
26F
100
AcDbEntity
  8
diode
  6
ByLayer
 62
  256
370
   -1
100
AcDbLine
 10
39.31999999999756
 20
123.3499999999996
 11
43.21999999999714
 21
123.3499999999996
  0
LINE
  5
270
100
AcDbEntity
  8
diode
  6
ByLayer
 62
  256
370
   -1
100
AcDbLine
 10
43.21999999999714
 20
123.3499999999996
 11
43.21999999999714
 21
126.4499999999984
  0
LINE
  5
271
100
AcDbEntity
  8
diode
  6
ByLayer
 62
  256
370
   -1
100
AcDbLine
 10
42.53999999999785
 20
124.899999999999
 11
43.21999999999714
 21
124.899999999999
  0
LINE
  5
272
100
AcDbEntity
  8
diode
  6
ByLayer
 62
  256
370
   -1
100
AcDbLine
 10
39.99999999999774
 20
124.899999999999
 11
39.31999999999756
 21
124.899999999999
  0
MTEXT
  5
273
100
AcDbEntity
  8
diode
  6
ByLayer
 62
  256
370
   -1
100
AcDbMText
 10
39.99738920965034
 20
125.8582879861766
 30
0
 40
1
 41
0.4166666666666666
 71
    4
 72
    1
  1
-
  7
kst32b
210
0
220
0
230
1
 50
0
 73
    2
 44
1.54
  0
MTEXT
  5
274
100
AcDbEntity
  8
diode
  6
ByLayer
 62
  256
370
   -1
100
AcDbMText
 10
42.4387614049929
 20
125.9081119085306
 30
0
 40
1
 41
0.4166666666666666
 71
    4
 72
    1
  1
+
  7
kst32b
210
0
220
0
230
1
 50
0
 73
    2
 44
1.54
  0
LINE
  5
275
100
AcDbEntity
  8
diode
  6
ByLayer
 62
  256
370
   -1
100
AcDbLine
 10
38.13999999999726
 20
128.9899999999986
 11
34.23999999999768
 21
128.9899999999986
  0
LINE
  5
276
100
AcDbEntity
  8
diode
  6
ByLayer
 62
  256
370
   -1
100
AcDbLine
 10
34.23999999999768
 20
128.9899999999986
 11
34.23999999999768
 21
125.8899999999999
  0
LINE
  5
277
100
AcDbEntity
  8
diode
  6
ByLayer
 62
  256
370
   -1
100
AcDbLine
 10
34.23999999999768
 20
125.8899999999999
 11
38.13999999999726
 21
125.8899999999999
  0
LINE
  5
278
100
AcDbEntity
  8
diode
  6
ByLayer
 62
  256
370
   -1
100
AcDbLine
 10
38.13999999999726
 20
125.8899999999999
 11
38.13999999999726
 21
128.9899999999986
  0
LINE
  5
279
100
AcDbEntity
  8
diode
  6
ByLayer
 62
  256
370
   -1
100
AcDbLine
 10
37.45999999999796
 20
127.4399999999993
 11
38.13999999999726
 21
127.4399999999993
  0
LINE
  5
27A
100
AcDbEntity
  8
diode
  6
ByLayer
 62
  256
370
   -1
100
AcDbLine
 10
34.91999999999786
 20
127.4399999999993
 11
34.23999999999768
 21
127.4399999999993
  0
MTEXT
  5
27B
100
AcDbEntity
  8
diode
  6
ByLayer
 62
  256
370
   -1
100
AcDbMText
 10
34.91738920965046
 20
128.3982879861769
 30
0
 40
1
 41
0.4166666666666666
 71
    4
 72
    1
  1
-
  7
kst32b
210
0
220
0
230
1
 50
0
 73
    2
 44
1.54
  0
MTEXT
  5
27C
100
AcDbEntity
  8
diode
  6
ByLayer
 62
  256
370
   -1
100
AcDbMText
 10
37.35876140499301
 20
128.4481119085308
 30
0
 40
1
 41
0.4166666666666666
 71
    4
 72
    1
  1
+
  7
kst32b
210
0
220
0
230
1
 50
0
 73
    2
 44
1.54
  0
LINE
  5
27D
100
AcDbEntity
  8
resister
  6
ByLayer
 62
  256
370
   -1
100
AcDbLine
 10
33.90999999999966
 20
126.0000000000003
 11
28.30999999999965
 21
126.0000000000003
  0
LINE
  5
27E
100
AcDbEntity
  8
resister
  6
ByLayer
 62
  256
370
   -1
100
AcDbLine
 10
28.30999999999965
 20
126.0000000000003
 11
28.30999999999965
 21
123.8000000000007
  0
LINE
  5
27F
100
AcDbEntity
  8
resister
  6
ByLayer
 62
  256
370
   -1
100
AcDbLine
 10
28.30999999999965
 20
123.8000000000007
 11
33.90999999999966
 21
123.8000000000007
  0
LINE
  5
280
100
AcDbEntity
  8
resister
  6
ByLayer
 62
  256
370
   -1
100
AcDbLine
 10
33.90999999999966
 20
123.8000000000007
 11
33.90999999999966
 21
126.0000000000003
  0
LINE
  5
281
100
AcDbEntity
  8
resister
  6
ByLayer
 62
  256
370
   -1
100
AcDbLine
 10
28.30999999999965
 20
124.8999999999995
 11
29.83999999999798
 21
124.8999999999995
  0
LINE
  5
282
100
AcDbEntity
  8
resister
  6
ByLayer
 62
  256
370
   -1
100
AcDbLine
 10
33.90999999999966
 20
124.8999999999995
 11
32.37999999999791
 21
124.8999999999995
  0
LINE
  5
283
100
AcDbEntity
  8
resister
  6
ByLayer
 62
  256
370
   -1
100
AcDbLine
 10
33.90999999999966
 20
128.5400000000003
 11
28.30999999999965
 21
128.5400000000003
  0
LINE
  5
284
100
AcDbEntity
  8
resister
  6
ByLayer
 62
  256
370
   -1
100
AcDbLine
 10
28.30999999999965
 20
128.5400000000003
 11
28.30999999999965
 21
126.3400000000007
  0
LINE
  5
285
100
AcDbEntity
  8
resister
  6
ByLayer
 62
  256
370
   -1
100
AcDbLine
 10
28.30999999999965
 20
126.3400000000007
 11
33.90999999999966
 21
126.3400000000007
  0
LINE
  5
286
100
AcDbEntity
  8
resister
  6
ByLayer
 62
  256
370
   -1
100
AcDbLine
 10
33.90999999999966
 20
126.3400000000007
 11
33.90999999999966
 21
128.5400000000003
  0
LINE
  5
287
100
AcDbEntity
  8
resister
  6
ByLayer
 62
  256
370
   -1
100
AcDbLine
 10
28.30999999999965
 20
127.4399999999995
 11
29.83999999999798
 21
127.4399999999995
  0
LINE
  5
288
100
AcDbEntity
  8
resister
  6
ByLayer
 62
  256
370
   -1
100
AcDbLine
 10
33.90999999999966
 20
127.4399999999995
 11
32.37999999999791
 21
127.4399999999995
  0
MTEXT
  5
289
100
AcDbEntity
  8
diode
  6
ByLayer
 62
  256
370
   -1
100
AcDbMText
 10
37.35876140499303
 20
128.4481119085308
 30
0
 40
1
 41
0.4166666666666666
 71
    4
 72
    1
  1
+
  7
kst32b
210
0
220
0
230
1
 50
0
 73
    2
 44
1.54
  0
LINE
  5
28A
100
AcDbEntity
  8
diode
  6
ByLayer
 62
  256
370
   -1
100
AcDbLine
 10
43.21999999999714
 20
131.5299999999984
 11
39.31999999999756
 21
131.5299999999984
  0
LINE
  5
28B
100
AcDbEntity
  8
diode
  6
ByLayer
 62
  256
370
   -1
100
AcDbLine
 10
39.31999999999756
 20
131.5299999999984
 11
39.31999999999756
 21
128.4299999999996
  0
LINE
  5
28C
100
AcDbEntity
  8
diode
  6
ByLayer
 62
  256
370
   -1
100
AcDbLine
 10
39.31999999999756
 20
128.4299999999996
 11
43.21999999999714
 21
128.4299999999996
  0
LINE
  5
28D
100
AcDbEntity
  8
diode
  6
ByLayer
 62
  256
370
   -1
100
AcDbLine
 10
43.21999999999714
 20
128.4299999999996
 11
43.21999999999714
 21
131.5299999999984
  0
LINE
  5
28E
100
AcDbEntity
  8
diode
  6
ByLayer
 62
  256
370
   -1
100
AcDbLine
 10
42.53999999999785
 20
129.979999999999
 11
43.21999999999714
 21
129.979999999999
  0
LINE
  5
28F
100
AcDbEntity
  8
diode
  6
ByLayer
 62
  256
370
   -1
100
AcDbLine
 10
39.99999999999774
 20
129.979999999999
 11
39.31999999999756
 21
129.979999999999
  0
MTEXT
  5
290
100
AcDbEntity
  8
diode
  6
ByLayer
 62
  256
370
   -1
100
AcDbMText
 10
39.99738920965034
 20
130.9382879861766
 30
0
 40
1
 41
0.4166666666666666
 71
    4
 72
    1
  1
-
  7
kst32b
210
0
220
0
230
1
 50
0
 73
    2
 44
1.54
  0
MTEXT
  5
291
100
AcDbEntity
  8
diode
  6
ByLayer
 62
  256
370
   -1
100
AcDbMText
 10
42.4387614049929
 20
130.9881119085306
 30
0
 40
1
 41
0.4166666666666666
 71
    4
 72
    1
  1
+
  7
kst32b
210
0
220
0
230
1
 50
0
 73
    2
 44
1.54
  0
LINE
  5
292
100
AcDbEntity
  8
diode
  6
ByLayer
 62
  256
370
   -1
100
AcDbLine
 10
38.13999999999726
 20
134.0699999999986
 11
34.23999999999768
 21
134.0699999999986
  0
LINE
  5
293
100
AcDbEntity
  8
diode
  6
ByLayer
 62
  256
370
   -1
100
AcDbLine
 10
34.23999999999768
 20
134.0699999999986
 11
34.23999999999768
 21
130.9699999999999
  0
LINE
  5
294
100
AcDbEntity
  8
diode
  6
ByLayer
 62
  256
370
   -1
100
AcDbLine
 10
34.23999999999768
 20
130.9699999999999
 11
38.13999999999726
 21
130.9699999999999
  0
LINE
  5
295
100
AcDbEntity
  8
diode
  6
ByLayer
 62
  256
370
   -1
100
AcDbLine
 10
38.13999999999726
 20
130.9699999999999
 11
38.13999999999726
 21
134.0699999999986
  0
LINE
  5
296
100
AcDbEntity
  8
diode
  6
ByLayer
 62
  256
370
   -1
100
AcDbLine
 10
37.45999999999796
 20
132.5199999999993
 11
38.13999999999726
 21
132.5199999999993
  0
LINE
  5
297
100
AcDbEntity
  8
diode
  6
ByLayer
 62
  256
370
   -1
100
AcDbLine
 10
34.91999999999786
 20
132.5199999999993
 11
34.23999999999768
 21
132.5199999999993
  0
MTEXT
  5
298
100
AcDbEntity
  8
diode
  6
ByLayer
 62
  256
370
   -1
100
AcDbMText
 10
34.91738920965046
 20
133.4782879861769
 30
0
 40
1
 41
0.4166666666666666
 71
    4
 72
    1
  1
-
  7
kst32b
210
0
220
0
230
1
 50
0
 73
    2
 44
1.54
  0
MTEXT
  5
299
100
AcDbEntity
  8
diode
  6
ByLayer
 62
  256
370
   -1
100
AcDbMText
 10
37.35876140499301
 20
133.5281119085308
 30
0
 40
1
 41
0.4166666666666666
 71
    4
 72
    1
  1
+
  7
kst32b
210
0
220
0
230
1
 50
0
 73
    2
 44
1.54
  0
LINE
  5
29A
100
AcDbEntity
  8
resister
  6
ByLayer
 62
  256
370
   -1
100
AcDbLine
 10
33.90999999999966
 20
131.0800000000003
 11
28.30999999999965
 21
131.0800000000003
  0
LINE
  5
29B
100
AcDbEntity
  8
resister
  6
ByLayer
 62
  256
370
   -1
100
AcDbLine
 10
28.30999999999965
 20
131.0800000000003
 11
28.30999999999965
 21
128.8800000000007
  0
LINE
  5
29C
100
AcDbEntity
  8
resister
  6
ByLayer
 62
  256
370
   -1
100
AcDbLine
 10
28.30999999999965
 20
128.8800000000007
 11
33.90999999999966
 21
128.8800000000007
  0
LINE
  5
29D
100
AcDbEntity
  8
resister
  6
ByLayer
 62
  256
370
   -1
100
AcDbLine
 10
33.90999999999966
 20
128.8800000000007
 11
33.90999999999966
 21
131.0800000000003
  0
LINE
  5
29E
100
AcDbEntity
  8
resister
  6
ByLayer
 62
  256
370
   -1
100
AcDbLine
 10
28.30999999999965
 20
129.9799999999995
 11
29.83999999999798
 21
129.9799999999995
  0
LINE
  5
29F
100
AcDbEntity
  8
resister
  6
ByLayer
 62
  256
370
   -1
100
AcDbLine
 10
33.90999999999966
 20
129.9799999999995
 11
32.37999999999791
 21
129.9799999999995
  0
LINE
  5
2A0
100
AcDbEntity
  8
resister
  6
ByLayer
 62
  256
370
   -1
100
AcDbLine
 10
33.90999999999966
 20
133.6200000000003
 11
28.30999999999965
 21
133.6200000000003
  0
LINE
  5
2A1
100
AcDbEntity
  8
resister
  6
ByLayer
 62
  256
370
   -1
100
AcDbLine
 10
28.30999999999965
 20
133.6200000000003
 11
28.30999999999965
 21
131.4200000000007
  0
LINE
  5
2A2
100
AcDbEntity
  8
resister
  6
ByLayer
 62
  256
370
   -1
100
AcDbLine
 10
28.30999999999965
 20
131.4200000000007
 11
33.90999999999966
 21
131.4200000000007
  0
LINE
  5
2A3
100
AcDbEntity
  8
resister
  6
ByLayer
 62
  256
370
   -1
100
AcDbLine
 10
33.90999999999966
 20
131.4200000000007
 11
33.90999999999966
 21
133.6200000000003
  0
LINE
  5
2A4
100
AcDbEntity
  8
resister
  6
ByLayer
 62
  256
370
   -1
100
AcDbLine
 10
28.30999999999965
 20
132.5199999999995
 11
29.83999999999798
 21
132.5199999999995
  0
LINE
  5
2A5
100
AcDbEntity
  8
resister
  6
ByLayer
 62
  256
370
   -1
100
AcDbLine
 10
33.90999999999966
 20
132.5199999999995
 11
32.37999999999791
 21
132.5199999999995
  0
LINE
  5
2A6
100
AcDbEntity
  8
0_wire
  6
ByLayer
 62
  256
370
   -1
100
AcDbLine
 10
45.07999999999762
 20
124.8999999999988
 11
42.53999999999768
 21
124.8999999999989
  0
LINE
  5
2A7
100
AcDbEntity
  8
0_wire
  6
ByLayer
 62
  256
370
   -1
100
AcDbLine
 10
39.99999999999774
 20
124.899999999999
 11
32.37999999999791
 21
124.8999999999993
  0
LINE
  5
2A8
100
AcDbEntity
  8
0_wire
  6
ByLayer
 62
  256
370
   -1
100
AcDbLine
 10
34.91999999999786
 20
127.4399999999992
 11
32.37999999999791
 21
127.4399999999993
  0
LINE
  5
2A9
100
AcDbEntity
  8
0_wire
  6
ByLayer
 62
  256
370
   -1
100
AcDbLine
 10
37.4599999999978
 20
127.4399999999991
 11
45.07999999999762
 21
127.4399999999988
  0
LINE
  5
2AA
100
AcDbEntity
  8
0_wire
  6
ByLayer
 62
  256
370
   -1
100
AcDbLine
 10
45.07999999999762
 20
129.9799999999988
 11
42.53999999999768
 21
129.9799999999989
  0
LINE
  5
2AB
100
AcDbEntity
  8
0_wire
  6
ByLayer
 62
  256
370
   -1
100
AcDbLine
 10
39.99999999999774
 20
129.979999999999
 11
32.37999999999791
 21
129.9799999999993
  0
LINE
  5
2AC
100
AcDbEntity
  8
0_wire
  6
ByLayer
 62
  256
370
   -1
100
AcDbLine
 10
32.37999999999791
 20
132.5199999999993
 11
34.91999999999786
 21
132.5199999999992
  0
LINE
  5
2AD
100
AcDbEntity
  8
0_wire
  6
ByLayer
 62
  256
370
   -1
100
AcDbLine
 10
37.4599999999978
 20
132.5199999999991
 11
45.07999999999762
 21
132.5199999999988
  0
LINE
  5
2AE
100
AcDbEntity
  8
0_GND
  6
ByLayer
 62
  256
370
   -1
100
AcDbLine
 10
29.83999999999797
 20
132.5199999999994
 11
29.83999999999797
 21
129.9799999999994
  0
LINE
  5
2AF
100
AcDbEntity
  8
0_GND
  6
ByLayer
 62
  256
370
   -1
100
AcDbLine
 10
29.83999999999797
 20
129.9799999999994
 11
29.83999999999797
 21
127.4399999999994
  0
LINE
  5
2B0
100
AcDbEntity
  8
0_GND
  6
ByLayer
 62
  256
370
   -1
100
AcDbLine
 10
29.83999999999797
 20
127.4399999999994
 11
29.83999999999797
 21
124.8999999999994
  0
LINE
  5
2B1
100
AcDbEntity
  8
0_GND
  6
ByLayer
 62
  256
370
   -1
100
AcDbLine
 10
29.83999999999797
 20
124.8999999999994
 11
29.83999999999799
 21
119.8199999999993
  0
LINE
  5
2B2
100
AcDbEntity
  8
0_GND
  6
ByLayer
 62
  256
370
   -1
100
AcDbLine
 10
29.83999999999799
 20
119.8199999999993
 11
45.07999999999763
 21
119.8199999999987
  0
LINE
  5
2B3
100
AcDbEntity
  8
universal_board
  6
ByLayer
 62
  256
370
   -1
100
AcDbLine
 10
8.249999999999325
 20
133.7899999999986
 11
46.34999999999771
 21
133.7899999999987
  0
LINE
  5
2B4
100
AcDbEntity
  8
universal_board
  6
ByLayer
 62
  256
370
   -1
100
AcDbLine
 10
8.249999999999382
 20
103.3099999999984
 11
46.34999999999777
 21
103.3099999999985
  0
LINE
  5
2B5
100
AcDbEntity
  8
universal_board
  6
ByLayer
 62
  256
370
   -1
100
AcDbLine
 10
8.249999999998607
 20
133.7900000000002
 11
8.249999999998607
 21
103.3099999999984
  0
LINE
  5
2B6
100
AcDbEntity
  8
universal_board
  6
ByLayer
 62
  256
370
   -1
100
AcDbLine
 10
46.34999999999771
 20
133.7899999999987
 11
46.34999999999771
 21
103.3099999999985
  0
MTEXT
  5
2B7
100
AcDbEntity
  8
diode
  6
ByLayer
 62
  256
370
   -1
100
AcDbMText
 10
17.13738920965087
 20
130.9382879861775
 30
0
 40
1
 41
0.4166666666666666
 71
    4
 72
    1
  1
+
  7
kst32b
210
0
220
0
230
1
 50
0
 73
    2
 44
1.54
  0
MTEXT
  5
2B8
100
AcDbEntity
  8
diode
  6
ByLayer
 62
  256
370
   -1
100
AcDbMText
 10
19.57876140499343
 20
130.9881119085314
 30
0
 40
1
 41
0.4166666666666666
 71
    4
 72
    1
  1
-
  7
kst32b
210
0
220
0
230
1
 50
0
 73
    2
 44
1.54
  0
MTEXT
  5
2B9
100
AcDbEntity
  8
diode
  6
ByLayer
 62
  256
370
   -1
100
AcDbMText
 10
17.13738920965087
 20
125.8582879861775
 30
0
 40
1
 41
0.4166666666666666
 71
    4
 72
    1
  1
+
  7
kst32b
210
0
220
0
230
1
 50
0
 73
    2
 44
1.54
  0
MTEXT
  5
2BA
100
AcDbEntity
  8
diode
  6
ByLayer
 62
  256
370
   -1
100
AcDbMText
 10
19.57876140499343
 20
125.9081119085314
 30
0
 40
1
 41
0.4166666666666666
 71
    4
 72
    1
  1
-
  7
kst32b
210
0
220
0
230
1
 50
0
 73
    2
 44
1.54
  0
MTEXT
  5
2BB
100
AcDbEntity
  8
diode
  6
ByLayer
 62
  256
370
   -1
100
AcDbMText
 10
17.13738920965091
 20
113.1582879861774
 30
0
 40
1
 41
0.4166666666666666
 71
    4
 72
    1
  1
+
  7
kst32b
210
0
220
0
230
1
 50
0
 73
    2
 44
1.54
  0
MTEXT
  5
2BC
100
AcDbEntity
  8
diode
  6
ByLayer
 62
  256
370
   -1
100
AcDbMText
 10
19.57876140499347
 20
113.2081119085313
 30
0
 40
1
 41
0.4166666666666666
 71
    4
 72
    1
  1
-
  7
kst32b
210
0
220
0
230
1
 50
0
 73
    2
 44
1.54
  0
MTEXT
  5
2BD
100
AcDbEntity
  8
diode
  6
ByLayer
 62
  256
370
   -1
100
AcDbMText
 10
17.13738920965091
 20
108.0782879861774
 30
0
 40
1
 41
0.4166666666666666
 71
    4
 72
    1
  1
+
  7
kst32b
210
0
220
0
230
1
 50
0
 73
    2
 44
1.54
  0
MTEXT
  5
2BE
100
AcDbEntity
  8
diode
  6
ByLayer
 62
  256
370
   -1
100
AcDbMText
 10
19.57876140499347
 20
108.1281119085313
 30
0
 40
1
 41
0.4166666666666666
 71
    4
 72
    1
  1
-
  7
kst32b
210
0
220
0
230
1
 50
0
 73
    2
 44
1.54
  0
MTEXT
  5
2BF
100
AcDbEntity
  8
universal_board
  6
ByLayer
 62
  256
370
   -1
100
AcDbMText
 10
42.52077265389694
 20
102.264019855962
 30
0
 40
1
 41
1.202222222222222
 71
    4
 72
    1
  1
B1
  7
kst32b
210
0
220
0
230
1
 50
0
 73
    2
 44
1.54
  0
MTEXT
  5
2C0
100
AcDbEntity
  8
socket_header
  6
ByLayer
 62
  256
370
   -1
100
AcDbMText
 10
8.298912606112101
 20
134.5226962764945
 30
0
 40
1
 41
1.097777777777778
 71
    4
 72
    1
  1
H1
  7
kst32b
210
0
220
0
230
1
 50
0
 73
    2
 44
1.54
  0
MTEXT
  5
2C1
100
AcDbEntity
  8
socket_header
  6
ByLayer
 62
  256
370
   -1
100
AcDbMText
 10
8.700472893504621
 20
116.6755723923825
 30
0
 40
1
 41
1.202222222222222
 71
    4
 72
    1
  1
H2
  7
kst32b
210
0
220
0
230
1
 50
0
 73
    2
 44
1.54
  0
MTEXT
  5
2C2
100
AcDbEntity
  8
socket_header
  6
ByLayer
 62
  256
370
   -1
100
AcDbMText
 10
44.88551656854179
 20
134.3888428473637
 30
0
 40
1
 41
1.166666666666667
 71
    4
 72
    1
  1
H3
  7
kst32b
210
0
220
0
230
1
 50
0
 73
    2
 44
1.54
  0
MTEXT
  5
2C3
100
AcDbEntity
  8
socket_header
  6
ByLayer
 62
  256
370
   -1
100
AcDbMText
 10
44.75166313941094
 20
121.6281492702236
 30
0
 40
1
 41
1.202222222222222
 71
    4
 72
    1
  1
H4
  7
kst32b
210
0
220
0
230
1
 50
0
 73
    2
 44
1.54
  0
MTEXT
  5
2C4
100
AcDbEntity
  8
socket_header
  6
ByLayer
 62
  256
370
   -1
100
AcDbMText
 10
44.97475218796234
 20
104.8964706288685
 30
0
 40
1
 41
1.166666666666667
 71
    4
 72
    1
  1
H5
  7
kst32b
210
0
220
0
230
1
 50
0
 73
    2
 44
1.54
  0
MTEXT
  5
2C5
100
AcDbEntity
  8
diode
  6
ByLayer
 62
  256
370
   -1
100
AcDbMText
 10
12.22527986061675
 20
134.7011675153356
 30
0
 40
1
 41
0.451111111111111
 71
    4
 72
    1
  1
D
  7
kst32b
210
0
220
0
230
1
 50
0
 73
    2
 44
1.54
  0
MTEXT
  5
2C6
100
AcDbEntity
  8
resister
  6
ByLayer
 62
  256
370
   -1
100
AcDbMText
 10
21.05960618325221
 20
134.3442250376534
 30
0
 40
1
 41
0.4866666666666666
 71
    4
 72
    1
  1
R
  7
kst32b
210
0
220
0
230
1
 50
0
 73
    2
 44
1.54
  0
MTEXT
  5
2C7
100
AcDbEntity
  8
0
  6
ByLayer
 62
  256
370
   -1
100
AcDbMText
 10
-13.40063046663444
 20
125.2725622464728
 30
0
 40
1
 41
18.8
 71
    4
 72
    1
  1
B1:  15x12P\PD:  16\PH1,2:  5P x2\PH3:  4P\PH4:  2P\PH5:  3P\PR:  16
  7
kst32b
210
0
220
0
230
1
 50
0
 73
    2
 44
1.54
  0
CIRCLE
  5
2C8
100
AcDbEntity
  8
universal_board
  6
ByLayer
 62
  256
370
   -1
100
AcDbCircle
 10
9.519999999998587
 20
69.01999999999968
 40
0.5
  0
CIRCLE
  5
2C9
100
AcDbEntity
  8
universal_board
  6
ByLayer
 62
  256
370
   -1
100
AcDbCircle
 10
9.519999999998578
 20
71.55999999999969
 40
0.5
  0
CIRCLE
  5
2CA
100
AcDbEntity
  8
universal_board
  6
ByLayer
 62
  256
370
   -1
100
AcDbCircle
 10
9.519999999998568
 20
74.09999999999968
 40
0.5
  0
CIRCLE
  5
2CB
100
AcDbEntity
  8
universal_board
  6
ByLayer
 62
  256
370
   -1
100
AcDbCircle
 10
9.519999999998568
 20
76.63999999999979
 40
0.5
  0
CIRCLE
  5
2CC
100
AcDbEntity
  8
universal_board
  6
ByLayer
 62
  256
370
   -1
100
AcDbCircle
 10
9.519999999998557
 20
79.17999999999979
 40
0.5
  0
CIRCLE
  5
2CD
100
AcDbEntity
  8
universal_board
  6
ByLayer
 62
  256
370
   -1
100
AcDbCircle
 10
9.519999999998548
 20
81.71999999999979
 40
0.5
  0
CIRCLE
  5
2CE
100
AcDbEntity
  8
universal_board
  6
ByLayer
 62
  256
370
   -1
100
AcDbCircle
 10
9.519999999998539
 20
84.25999999999979
 40
0.5
  0
CIRCLE
  5
2CF
100
AcDbEntity
  8
universal_board
  6
ByLayer
 62
  256
370
   -1
100
AcDbCircle
 10
9.519999999998539
 20
86.79999999999988
 40
0.5
  0
CIRCLE
  5
2D0
100
AcDbEntity
  8
universal_board
  6
ByLayer
 62
  256
370
   -1
100
AcDbCircle
 10
9.519999999998529
 20
89.33999999999989
 40
0.5
  0
CIRCLE
  5
2D1
100
AcDbEntity
  8
universal_board
  6
ByLayer
 62
  256
370
   -1
100
AcDbCircle
 10
9.519999999998529
 20
91.87999999999988
 40
0.5
  0
CIRCLE
  5
2D2
100
AcDbEntity
  8
universal_board
  6
ByLayer
 62
  256
370
   -1
100
AcDbCircle
 10
9.519999999998529
 20
94.41999999999987
 40
0.5
  0
CIRCLE
  5
2D3
100
AcDbEntity
  8
universal_board
  6
ByLayer
 62
  256
370
   -1
100
AcDbCircle
 10
9.519999999998529
 20
96.95999999999989
 40
0.5
  0
CIRCLE
  5
2D4
100
AcDbEntity
  8
universal_board
  6
ByLayer
 62
  256
370
   -1
100
AcDbCircle
 10
12.05999999999853
 20
69.01999999999958
 40
0.5
  0
CIRCLE
  5
2D5
100
AcDbEntity
  8
universal_board
  6
ByLayer
 62
  256
370
   -1
100
AcDbCircle
 10
12.05999999999852
 20
71.55999999999959
 40
0.5
  0
CIRCLE
  5
2D6
100
AcDbEntity
  8
universal_board
  6
ByLayer
 62
  256
370
   -1
100
AcDbCircle
 10
12.05999999999851
 20
74.09999999999958
 40
0.5
  0
CIRCLE
  5
2D7
100
AcDbEntity
  8
universal_board
  6
ByLayer
 62
  256
370
   -1
100
AcDbCircle
 10
12.05999999999851
 20
76.63999999999969
 40
0.5
  0
CIRCLE
  5
2D8
100
AcDbEntity
  8
universal_board
  6
ByLayer
 62
  256
370
   -1
100
AcDbCircle
 10
12.0599999999985
 20
79.17999999999969
 40
0.5
  0
CIRCLE
  5
2D9
100
AcDbEntity
  8
universal_board
  6
ByLayer
 62
  256
370
   -1
100
AcDbCircle
 10
12.05999999999849
 20
81.71999999999969
 40
0.5
  0
CIRCLE
  5
2DA
100
AcDbEntity
  8
universal_board
  6
ByLayer
 62
  256
370
   -1
100
AcDbCircle
 10
12.05999999999848
 20
84.25999999999969
 40
0.5
  0
CIRCLE
  5
2DB
100
AcDbEntity
  8
universal_board
  6
ByLayer
 62
  256
370
   -1
100
AcDbCircle
 10
12.05999999999848
 20
86.79999999999978
 40
0.5
  0
CIRCLE
  5
2DC
100
AcDbEntity
  8
universal_board
  6
ByLayer
 62
  256
370
   -1
100
AcDbCircle
 10
12.05999999999847
 20
89.33999999999979
 40
0.5
  0
CIRCLE
  5
2DD
100
AcDbEntity
  8
universal_board
  6
ByLayer
 62
  256
370
   -1
100
AcDbCircle
 10
12.05999999999847
 20
91.87999999999978
 40
0.5
  0
CIRCLE
  5
2DE
100
AcDbEntity
  8
universal_board
  6
ByLayer
 62
  256
370
   -1
100
AcDbCircle
 10
12.05999999999847
 20
94.41999999999979
 40
0.5
  0
CIRCLE
  5
2DF
100
AcDbEntity
  8
universal_board
  6
ByLayer
 62
  256
370
   -1
100
AcDbCircle
 10
12.05999999999847
 20
96.95999999999978
 40
0.5
  0
CIRCLE
  5
2E0
100
AcDbEntity
  8
universal_board
  6
ByLayer
 62
  256
370
   -1
100
AcDbCircle
 10
14.59999999999847
 20
69.01999999999948
 40
0.5
  0
CIRCLE
  5
2E1
100
AcDbEntity
  8
universal_board
  6
ByLayer
 62
  256
370
   -1
100
AcDbCircle
 10
14.59999999999846
 20
71.55999999999949
 40
0.5
  0
CIRCLE
  5
2E2
100
AcDbEntity
  8
universal_board
  6
ByLayer
 62
  256
370
   -1
100
AcDbCircle
 10
14.59999999999845
 20
74.09999999999948
 40
0.5
  0
CIRCLE
  5
2E3
100
AcDbEntity
  8
universal_board
  6
ByLayer
 62
  256
370
   -1
100
AcDbCircle
 10
14.59999999999845
 20
76.63999999999959
 40
0.5
  0
CIRCLE
  5
2E4
100
AcDbEntity
  8
universal_board
  6
ByLayer
 62
  256
370
   -1
100
AcDbCircle
 10
14.59999999999844
 20
79.17999999999959
 40
0.5
  0
CIRCLE
  5
2E5
100
AcDbEntity
  8
universal_board
  6
ByLayer
 62
  256
370
   -1
100
AcDbCircle
 10
14.59999999999843
 20
81.71999999999959
 40
0.5
  0
CIRCLE
  5
2E6
100
AcDbEntity
  8
universal_board
  6
ByLayer
 62
  256
370
   -1
100
AcDbCircle
 10
14.59999999999842
 20
84.25999999999959
 40
0.5
  0
CIRCLE
  5
2E7
100
AcDbEntity
  8
universal_board
  6
ByLayer
 62
  256
370
   -1
100
AcDbCircle
 10
14.59999999999842
 20
86.79999999999968
 40
0.5
  0
CIRCLE
  5
2E8
100
AcDbEntity
  8
universal_board
  6
ByLayer
 62
  256
370
   -1
100
AcDbCircle
 10
14.59999999999841
 20
89.33999999999969
 40
0.5
  0
CIRCLE
  5
2E9
100
AcDbEntity
  8
universal_board
  6
ByLayer
 62
  256
370
   -1
100
AcDbCircle
 10
14.59999999999841
 20
91.87999999999968
 40
0.5
  0
CIRCLE
  5
2EA
100
AcDbEntity
  8
universal_board
  6
ByLayer
 62
  256
370
   -1
100
AcDbCircle
 10
14.59999999999841
 20
94.4199999999997
 40
0.5
  0
CIRCLE
  5
2EB
100
AcDbEntity
  8
universal_board
  6
ByLayer
 62
  256
370
   -1
100
AcDbCircle
 10
14.59999999999841
 20
96.95999999999967
 40
0.5
  0
CIRCLE
  5
2EC
100
AcDbEntity
  8
universal_board
  6
ByLayer
 62
  256
370
   -1
100
AcDbCircle
 10
17.13999999999841
 20
69.01999999999938
 40
0.5
  0
CIRCLE
  5
2ED
100
AcDbEntity
  8
universal_board
  6
ByLayer
 62
  256
370
   -1
100
AcDbCircle
 10
17.1399999999984
 20
71.55999999999939
 40
0.5
  0
CIRCLE
  5
2EE
100
AcDbEntity
  8
universal_board
  6
ByLayer
 62
  256
370
   -1
100
AcDbCircle
 10
17.13999999999839
 20
74.09999999999938
 40
0.5
  0
CIRCLE
  5
2EF
100
AcDbEntity
  8
universal_board
  6
ByLayer
 62
  256
370
   -1
100
AcDbCircle
 10
17.13999999999839
 20
76.63999999999949
 40
0.5
  0
CIRCLE
  5
2F0
100
AcDbEntity
  8
universal_board
  6
ByLayer
 62
  256
370
   -1
100
AcDbCircle
 10
17.13999999999838
 20
79.1799999999995
 40
0.5
  0
CIRCLE
  5
2F1
100
AcDbEntity
  8
universal_board
  6
ByLayer
 62
  256
370
   -1
100
AcDbCircle
 10
17.13999999999837
 20
81.71999999999949
 40
0.5
  0
CIRCLE
  5
2F2
100
AcDbEntity
  8
universal_board
  6
ByLayer
 62
  256
370
   -1
100
AcDbCircle
 10
17.13999999999836
 20
84.25999999999949
 40
0.5
  0
CIRCLE
  5
2F3
100
AcDbEntity
  8
universal_board
  6
ByLayer
 62
  256
370
   -1
100
AcDbCircle
 10
17.13999999999836
 20
86.79999999999959
 40
0.5
  0
CIRCLE
  5
2F4
100
AcDbEntity
  8
universal_board
  6
ByLayer
 62
  256
370
   -1
100
AcDbCircle
 10
17.13999999999835
 20
89.33999999999959
 40
0.5
  0
CIRCLE
  5
2F5
100
AcDbEntity
  8
universal_board
  6
ByLayer
 62
  256
370
   -1
100
AcDbCircle
 10
17.13999999999835
 20
91.87999999999958
 40
0.5
  0
CIRCLE
  5
2F6
100
AcDbEntity
  8
universal_board
  6
ByLayer
 62
  256
370
   -1
100
AcDbCircle
 10
17.13999999999835
 20
94.41999999999959
 40
0.5
  0
CIRCLE
  5
2F7
100
AcDbEntity
  8
universal_board
  6
ByLayer
 62
  256
370
   -1
100
AcDbCircle
 10
17.13999999999835
 20
96.95999999999958
 40
0.5
  0
CIRCLE
  5
2F8
100
AcDbEntity
  8
universal_board
  6
ByLayer
 62
  256
370
   -1
100
AcDbCircle
 10
19.67999999999835
 20
69.01999999999929
 40
0.5
  0
CIRCLE
  5
2F9
100
AcDbEntity
  8
universal_board
  6
ByLayer
 62
  256
370
   -1
100
AcDbCircle
 10
19.67999999999834
 20
71.55999999999929
 40
0.5
  0
CIRCLE
  5
2FA
100
AcDbEntity
  8
universal_board
  6
ByLayer
 62
  256
370
   -1
100
AcDbCircle
 10
19.67999999999834
 20
74.09999999999928
 40
0.5
  0
CIRCLE
  5
2FB
100
AcDbEntity
  8
universal_board
  6
ByLayer
 62
  256
370
   -1
100
AcDbCircle
 10
19.67999999999834
 20
76.63999999999939
 40
0.5
  0
CIRCLE
  5
2FC
100
AcDbEntity
  8
universal_board
  6
ByLayer
 62
  256
370
   -1
100
AcDbCircle
 10
19.67999999999832
 20
79.1799999999994
 40
0.5
  0
CIRCLE
  5
2FD
100
AcDbEntity
  8
universal_board
  6
ByLayer
 62
  256
370
   -1
100
AcDbCircle
 10
19.67999999999832
 20
81.71999999999939
 40
0.5
  0
CIRCLE
  5
2FE
100
AcDbEntity
  8
universal_board
  6
ByLayer
 62
  256
370
   -1
100
AcDbCircle
 10
19.6799999999983
 20
84.25999999999939
 40
0.5
  0
CIRCLE
  5
2FF
100
AcDbEntity
  8
universal_board
  6
ByLayer
 62
  256
370
   -1
100
AcDbCircle
 10
19.6799999999983
 20
86.79999999999949
 40
0.5
  0
CIRCLE
  5
300
100
AcDbEntity
  8
universal_board
  6
ByLayer
 62
  256
370
   -1
100
AcDbCircle
 10
19.67999999999829
 20
89.33999999999949
 40
0.5
  0
CIRCLE
  5
301
100
AcDbEntity
  8
universal_board
  6
ByLayer
 62
  256
370
   -1
100
AcDbCircle
 10
19.67999999999829
 20
91.87999999999948
 40
0.5
  0
CIRCLE
  5
302
100
AcDbEntity
  8
universal_board
  6
ByLayer
 62
  256
370
   -1
100
AcDbCircle
 10
19.67999999999829
 20
94.41999999999948
 40
0.5
  0
CIRCLE
  5
303
100
AcDbEntity
  8
universal_board
  6
ByLayer
 62
  256
370
   -1
100
AcDbCircle
 10
19.67999999999829
 20
96.9599999999995
 40
0.5
  0
CIRCLE
  5
304
100
AcDbEntity
  8
universal_board
  6
ByLayer
 62
  256
370
   -1
100
AcDbCircle
 10
22.21999999999829
 20
69.01999999999919
 40
0.5
  0
CIRCLE
  5
305
100
AcDbEntity
  8
universal_board
  6
ByLayer
 62
  256
370
   -1
100
AcDbCircle
 10
22.21999999999828
 20
71.55999999999919
 40
0.5
  0
CIRCLE
  5
306
100
AcDbEntity
  8
universal_board
  6
ByLayer
 62
  256
370
   -1
100
AcDbCircle
 10
22.21999999999827
 20
74.09999999999918
 40
0.5
  0
CIRCLE
  5
307
100
AcDbEntity
  8
universal_board
  6
ByLayer
 62
  256
370
   -1
100
AcDbCircle
 10
22.21999999999827
 20
76.63999999999929
 40
0.5
  0
CIRCLE
  5
308
100
AcDbEntity
  8
universal_board
  6
ByLayer
 62
  256
370
   -1
100
AcDbCircle
 10
22.21999999999827
 20
79.1799999999993
 40
0.5
  0
CIRCLE
  5
309
100
AcDbEntity
  8
universal_board
  6
ByLayer
 62
  256
370
   -1
100
AcDbCircle
 10
22.21999999999825
 20
81.71999999999929
 40
0.5
  0
CIRCLE
  5
30A
100
AcDbEntity
  8
universal_board
  6
ByLayer
 62
  256
370
   -1
100
AcDbCircle
 10
22.21999999999824
 20
84.25999999999929
 40
0.5
  0
CIRCLE
  5
30B
100
AcDbEntity
  8
universal_board
  6
ByLayer
 62
  256
370
   -1
100
AcDbCircle
 10
22.21999999999824
 20
86.79999999999939
 40
0.5
  0
CIRCLE
  5
30C
100
AcDbEntity
  8
universal_board
  6
ByLayer
 62
  256
370
   -1
100
AcDbCircle
 10
22.21999999999823
 20
89.33999999999939
 40
0.5
  0
CIRCLE
  5
30D
100
AcDbEntity
  8
universal_board
  6
ByLayer
 62
  256
370
   -1
100
AcDbCircle
 10
22.21999999999823
 20
91.87999999999938
 40
0.5
  0
CIRCLE
  5
30E
100
AcDbEntity
  8
universal_board
  6
ByLayer
 62
  256
370
   -1
100
AcDbCircle
 10
22.21999999999823
 20
94.41999999999939
 40
0.5
  0
CIRCLE
  5
30F
100
AcDbEntity
  8
universal_board
  6
ByLayer
 62
  256
370
   -1
100
AcDbCircle
 10
22.21999999999823
 20
96.95999999999938
 40
0.5
  0
CIRCLE
  5
310
100
AcDbEntity
  8
universal_board
  6
ByLayer
 62
  256
370
   -1
100
AcDbCircle
 10
24.75999999999823
 20
69.01999999999909
 40
0.5
  0
CIRCLE
  5
311
100
AcDbEntity
  8
universal_board
  6
ByLayer
 62
  256
370
   -1
100
AcDbCircle
 10
24.75999999999822
 20
71.55999999999909
 40
0.5
  0
CIRCLE
  5
312
100
AcDbEntity
  8
universal_board
  6
ByLayer
 62
  256
370
   -1
100
AcDbCircle
 10
24.75999999999821
 20
74.09999999999908
 40
0.5
  0
CIRCLE
  5
313
100
AcDbEntity
  8
universal_board
  6
ByLayer
 62
  256
370
   -1
100
AcDbCircle
 10
24.75999999999821
 20
76.63999999999919
 40
0.5
  0
CIRCLE
  5
314
100
AcDbEntity
  8
universal_board
  6
ByLayer
 62
  256
370
   -1
100
AcDbCircle
 10
24.7599999999982
 20
79.1799999999992
 40
0.5
  0
CIRCLE
  5
315
100
AcDbEntity
  8
universal_board
  6
ByLayer
 62
  256
370
   -1
100
AcDbCircle
 10
24.75999999999819
 20
81.71999999999919
 40
0.5
  0
CIRCLE
  5
316
100
AcDbEntity
  8
universal_board
  6
ByLayer
 62
  256
370
   -1
100
AcDbCircle
 10
24.75999999999818
 20
84.2599999999992
 40
0.5
  0
CIRCLE
  5
317
100
AcDbEntity
  8
universal_board
  6
ByLayer
 62
  256
370
   -1
100
AcDbCircle
 10
24.75999999999818
 20
86.79999999999929
 40
0.5
  0
CIRCLE
  5
318
100
AcDbEntity
  8
universal_board
  6
ByLayer
 62
  256
370
   -1
100
AcDbCircle
 10
24.75999999999817
 20
89.33999999999929
 40
0.5
  0
CIRCLE
  5
319
100
AcDbEntity
  8
universal_board
  6
ByLayer
 62
  256
370
   -1
100
AcDbCircle
 10
24.75999999999817
 20
91.87999999999928
 40
0.5
  0
CIRCLE
  5
31A
100
AcDbEntity
  8
universal_board
  6
ByLayer
 62
  256
370
   -1
100
AcDbCircle
 10
24.75999999999817
 20
94.41999999999931
 40
0.5
  0
CIRCLE
  5
31B
100
AcDbEntity
  8
universal_board
  6
ByLayer
 62
  256
370
   -1
100
AcDbCircle
 10
24.75999999999817
 20
96.95999999999927
 40
0.5
  0
CIRCLE
  5
31C
100
AcDbEntity
  8
universal_board
  6
ByLayer
 62
  256
370
   -1
100
AcDbCircle
 10
27.29999999999817
 20
69.01999999999899
 40
0.5
  0
CIRCLE
  5
31D
100
AcDbEntity
  8
universal_board
  6
ByLayer
 62
  256
370
   -1
100
AcDbCircle
 10
27.29999999999816
 20
71.55999999999899
 40
0.5
  0
CIRCLE
  5
31E
100
AcDbEntity
  8
universal_board
  6
ByLayer
 62
  256
370
   -1
100
AcDbCircle
 10
27.29999999999816
 20
74.09999999999899
 40
0.5
  0
CIRCLE
  5
31F
100
AcDbEntity
  8
universal_board
  6
ByLayer
 62
  256
370
   -1
100
AcDbCircle
 10
27.29999999999816
 20
76.63999999999909
 40
0.5
  0
CIRCLE
  5
320
100
AcDbEntity
  8
universal_board
  6
ByLayer
 62
  256
370
   -1
100
AcDbCircle
 10
27.29999999999814
 20
79.1799999999991
 40
0.5
  0
CIRCLE
  5
321
100
AcDbEntity
  8
universal_board
  6
ByLayer
 62
  256
370
   -1
100
AcDbCircle
 10
27.29999999999814
 20
81.71999999999909
 40
0.5
  0
CIRCLE
  5
322
100
AcDbEntity
  8
universal_board
  6
ByLayer
 62
  256
370
   -1
100
AcDbCircle
 10
27.29999999999812
 20
84.2599999999991
 40
0.5
  0
CIRCLE
  5
323
100
AcDbEntity
  8
universal_board
  6
ByLayer
 62
  256
370
   -1
100
AcDbCircle
 10
27.29999999999812
 20
86.79999999999919
 40
0.5
  0
CIRCLE
  5
324
100
AcDbEntity
  8
universal_board
  6
ByLayer
 62
  256
370
   -1
100
AcDbCircle
 10
27.29999999999811
 20
89.33999999999919
 40
0.5
  0
CIRCLE
  5
325
100
AcDbEntity
  8
universal_board
  6
ByLayer
 62
  256
370
   -1
100
AcDbCircle
 10
27.29999999999811
 20
91.87999999999919
 40
0.5
  0
CIRCLE
  5
326
100
AcDbEntity
  8
universal_board
  6
ByLayer
 62
  256
370
   -1
100
AcDbCircle
 10
27.29999999999811
 20
94.41999999999919
 40
0.5
  0
CIRCLE
  5
327
100
AcDbEntity
  8
universal_board
  6
ByLayer
 62
  256
370
   -1
100
AcDbCircle
 10
27.29999999999811
 20
96.95999999999918
 40
0.5
  0
CIRCLE
  5
328
100
AcDbEntity
  8
universal_board
  6
ByLayer
 62
  256
370
   -1
100
AcDbCircle
 10
29.83999999999811
 20
69.01999999999889
 40
0.5
  0
CIRCLE
  5
329
100
AcDbEntity
  8
universal_board
  6
ByLayer
 62
  256
370
   -1
100
AcDbCircle
 10
29.83999999999811
 20
71.55999999999889
 40
0.5
  0
CIRCLE
  5
32A
100
AcDbEntity
  8
universal_board
  6
ByLayer
 62
  256
370
   -1
100
AcDbCircle
 10
29.8399999999981
 20
74.09999999999889
 40
0.5
  0
CIRCLE
  5
32B
100
AcDbEntity
  8
universal_board
  6
ByLayer
 62
  256
370
   -1
100
AcDbCircle
 10
29.8399999999981
 20
76.63999999999899
 40
0.5
  0
CIRCLE
  5
32C
100
AcDbEntity
  8
universal_board
  6
ByLayer
 62
  256
370
   -1
100
AcDbCircle
 10
29.83999999999808
 20
79.179999999999
 40
0.5
  0
CIRCLE
  5
32D
100
AcDbEntity
  8
universal_board
  6
ByLayer
 62
  256
370
   -1
100
AcDbCircle
 10
29.83999999999808
 20
81.71999999999899
 40
0.5
  0
CIRCLE
  5
32E
100
AcDbEntity
  8
universal_board
  6
ByLayer
 62
  256
370
   -1
100
AcDbCircle
 10
29.83999999999806
 20
84.259999999999
 40
0.5
  0
CIRCLE
  5
32F
100
AcDbEntity
  8
universal_board
  6
ByLayer
 62
  256
370
   -1
100
AcDbCircle
 10
29.83999999999806
 20
86.79999999999909
 40
0.5
  0
CIRCLE
  5
330
100
AcDbEntity
  8
universal_board
  6
ByLayer
 62
  256
370
   -1
100
AcDbCircle
 10
29.83999999999806
 20
89.33999999999909
 40
0.5
  0
CIRCLE
  5
331
100
AcDbEntity
  8
universal_board
  6
ByLayer
 62
  256
370
   -1
100
AcDbCircle
 10
29.83999999999806
 20
91.87999999999909
 40
0.5
  0
CIRCLE
  5
332
100
AcDbEntity
  8
universal_board
  6
ByLayer
 62
  256
370
   -1
100
AcDbCircle
 10
29.83999999999806
 20
94.41999999999908
 40
0.5
  0
CIRCLE
  5
333
100
AcDbEntity
  8
universal_board
  6
ByLayer
 62
  256
370
   -1
100
AcDbCircle
 10
29.83999999999806
 20
96.9599999999991
 40
0.5
  0
CIRCLE
  5
334
100
AcDbEntity
  8
universal_board
  6
ByLayer
 62
  256
370
   -1
100
AcDbCircle
 10
32.37999999999805
 20
69.01999999999879
 40
0.5
  0
CIRCLE
  5
335
100
AcDbEntity
  8
universal_board
  6
ByLayer
 62
  256
370
   -1
100
AcDbCircle
 10
32.37999999999804
 20
71.55999999999879
 40
0.5
  0
CIRCLE
  5
336
100
AcDbEntity
  8
universal_board
  6
ByLayer
 62
  256
370
   -1
100
AcDbCircle
 10
32.37999999999803
 20
74.09999999999879
 40
0.5
  0
CIRCLE
  5
337
100
AcDbEntity
  8
universal_board
  6
ByLayer
 62
  256
370
   -1
100
AcDbCircle
 10
32.37999999999803
 20
76.63999999999889
 40
0.5
  0
CIRCLE
  5
338
100
AcDbEntity
  8
universal_board
  6
ByLayer
 62
  256
370
   -1
100
AcDbCircle
 10
32.37999999999802
 20
79.1799999999989
 40
0.5
  0
CIRCLE
  5
339
100
AcDbEntity
  8
universal_board
  6
ByLayer
 62
  256
370
   -1
100
AcDbCircle
 10
32.37999999999801
 20
81.71999999999889
 40
0.5
  0
CIRCLE
  5
33A
100
AcDbEntity
  8
universal_board
  6
ByLayer
 62
  256
370
   -1
100
AcDbCircle
 10
32.379999999998
 20
84.2599999999989
 40
0.5
  0
CIRCLE
  5
33B
100
AcDbEntity
  8
universal_board
  6
ByLayer
 62
  256
370
   -1
100
AcDbCircle
 10
32.379999999998
 20
86.79999999999899
 40
0.5
  0
CIRCLE
  5
33C
100
AcDbEntity
  8
universal_board
  6
ByLayer
 62
  256
370
   -1
100
AcDbCircle
 10
32.37999999999799
 20
89.33999999999899
 40
0.5
  0
CIRCLE
  5
33D
100
AcDbEntity
  8
universal_board
  6
ByLayer
 62
  256
370
   -1
100
AcDbCircle
 10
32.37999999999799
 20
91.87999999999899
 40
0.5
  0
CIRCLE
  5
33E
100
AcDbEntity
  8
universal_board
  6
ByLayer
 62
  256
370
   -1
100
AcDbCircle
 10
32.37999999999799
 20
94.41999999999899
 40
0.5
  0
CIRCLE
  5
33F
100
AcDbEntity
  8
universal_board
  6
ByLayer
 62
  256
370
   -1
100
AcDbCircle
 10
32.37999999999799
 20
96.95999999999898
 40
0.5
  0
CIRCLE
  5
340
100
AcDbEntity
  8
universal_board
  6
ByLayer
 62
  256
370
   -1
100
AcDbCircle
 10
34.91999999999799
 20
69.01999999999869
 40
0.5
  0
CIRCLE
  5
341
100
AcDbEntity
  8
universal_board
  6
ByLayer
 62
  256
370
   -1
100
AcDbCircle
 10
34.91999999999798
 20
71.55999999999869
 40
0.5
  0
CIRCLE
  5
342
100
AcDbEntity
  8
universal_board
  6
ByLayer
 62
  256
370
   -1
100
AcDbCircle
 10
34.91999999999797
 20
74.09999999999869
 40
0.5
  0
CIRCLE
  5
343
100
AcDbEntity
  8
universal_board
  6
ByLayer
 62
  256
370
   -1
100
AcDbCircle
 10
34.91999999999797
 20
76.63999999999879
 40
0.5
  0
CIRCLE
  5
344
100
AcDbEntity
  8
universal_board
  6
ByLayer
 62
  256
370
   -1
100
AcDbCircle
 10
34.91999999999796
 20
79.1799999999988
 40
0.5
  0
CIRCLE
  5
345
100
AcDbEntity
  8
universal_board
  6
ByLayer
 62
  256
370
   -1
100
AcDbCircle
 10
34.91999999999795
 20
81.71999999999879
 40
0.5
  0
CIRCLE
  5
346
100
AcDbEntity
  8
universal_board
  6
ByLayer
 62
  256
370
   -1
100
AcDbCircle
 10
34.91999999999794
 20
84.2599999999988
 40
0.5
  0
CIRCLE
  5
347
100
AcDbEntity
  8
universal_board
  6
ByLayer
 62
  256
370
   -1
100
AcDbCircle
 10
34.91999999999794
 20
86.79999999999889
 40
0.5
  0
CIRCLE
  5
348
100
AcDbEntity
  8
universal_board
  6
ByLayer
 62
  256
370
   -1
100
AcDbCircle
 10
34.91999999999793
 20
89.33999999999889
 40
0.5
  0
CIRCLE
  5
349
100
AcDbEntity
  8
universal_board
  6
ByLayer
 62
  256
370
   -1
100
AcDbCircle
 10
34.91999999999793
 20
91.87999999999889
 40
0.5
  0
CIRCLE
  5
34A
100
AcDbEntity
  8
universal_board
  6
ByLayer
 62
  256
370
   -1
100
AcDbCircle
 10
34.91999999999793
 20
94.41999999999891
 40
0.5
  0
CIRCLE
  5
34B
100
AcDbEntity
  8
universal_board
  6
ByLayer
 62
  256
370
   -1
100
AcDbCircle
 10
34.91999999999793
 20
96.95999999999887
 40
0.5
  0
CIRCLE
  5
34C
100
AcDbEntity
  8
universal_board
  6
ByLayer
 62
  256
370
   -1
100
AcDbCircle
 10
37.45999999999793
 20
69.01999999999859
 40
0.5
  0
CIRCLE
  5
34D
100
AcDbEntity
  8
universal_board
  6
ByLayer
 62
  256
370
   -1
100
AcDbCircle
 10
37.45999999999793
 20
71.5599999999986
 40
0.5
  0
CIRCLE
  5
34E
100
AcDbEntity
  8
universal_board
  6
ByLayer
 62
  256
370
   -1
100
AcDbCircle
 10
37.45999999999791
 20
74.09999999999859
 40
0.5
  0
CIRCLE
  5
34F
100
AcDbEntity
  8
universal_board
  6
ByLayer
 62
  256
370
   -1
100
AcDbCircle
 10
37.45999999999791
 20
76.63999999999869
 40
0.5
  0
CIRCLE
  5
350
100
AcDbEntity
  8
universal_board
  6
ByLayer
 62
  256
370
   -1
100
AcDbCircle
 10
37.4599999999979
 20
79.1799999999987
 40
0.5
  0
CIRCLE
  5
351
100
AcDbEntity
  8
universal_board
  6
ByLayer
 62
  256
370
   -1
100
AcDbCircle
 10
37.45999999999789
 20
81.71999999999869
 40
0.5
  0
CIRCLE
  5
352
100
AcDbEntity
  8
universal_board
  6
ByLayer
 62
  256
370
   -1
100
AcDbCircle
 10
37.45999999999788
 20
84.2599999999987
 40
0.5
  0
CIRCLE
  5
353
100
AcDbEntity
  8
universal_board
  6
ByLayer
 62
  256
370
   -1
100
AcDbCircle
 10
37.45999999999788
 20
86.79999999999879
 40
0.5
  0
CIRCLE
  5
354
100
AcDbEntity
  8
universal_board
  6
ByLayer
 62
  256
370
   -1
100
AcDbCircle
 10
37.45999999999788
 20
89.3399999999988
 40
0.5
  0
CIRCLE
  5
355
100
AcDbEntity
  8
universal_board
  6
ByLayer
 62
  256
370
   -1
100
AcDbCircle
 10
37.45999999999788
 20
91.87999999999879
 40
0.5
  0
CIRCLE
  5
356
100
AcDbEntity
  8
universal_board
  6
ByLayer
 62
  256
370
   -1
100
AcDbCircle
 10
37.45999999999788
 20
94.41999999999879
 40
0.5
  0
CIRCLE
  5
357
100
AcDbEntity
  8
universal_board
  6
ByLayer
 62
  256
370
   -1
100
AcDbCircle
 10
37.45999999999788
 20
96.95999999999879
 40
0.5
  0
CIRCLE
  5
358
100
AcDbEntity
  8
universal_board
  6
ByLayer
 62
  256
370
   -1
100
AcDbCircle
 10
39.99999999999788
 20
69.01999999999849
 40
0.5
  0
CIRCLE
  5
359
100
AcDbEntity
  8
universal_board
  6
ByLayer
 62
  256
370
   -1
100
AcDbCircle
 10
39.99999999999787
 20
71.5599999999985
 40
0.5
  0
CIRCLE
  5
35A
100
AcDbEntity
  8
universal_board
  6
ByLayer
 62
  256
370
   -1
100
AcDbCircle
 10
39.99999999999785
 20
74.09999999999849
 40
0.5
  0
CIRCLE
  5
35B
100
AcDbEntity
  8
universal_board
  6
ByLayer
 62
  256
370
   -1
100
AcDbCircle
 10
39.99999999999785
 20
76.63999999999859
 40
0.5
  0
CIRCLE
  5
35C
100
AcDbEntity
  8
universal_board
  6
ByLayer
 62
  256
370
   -1
100
AcDbCircle
 10
39.99999999999785
 20
79.1799999999986
 40
0.5
  0
CIRCLE
  5
35D
100
AcDbEntity
  8
universal_board
  6
ByLayer
 62
  256
370
   -1
100
AcDbCircle
 10
39.99999999999783
 20
81.71999999999859
 40
0.5
  0
CIRCLE
  5
35E
100
AcDbEntity
  8
universal_board
  6
ByLayer
 62
  256
370
   -1
100
AcDbCircle
 10
39.99999999999783
 20
84.2599999999986
 40
0.5
  0
CIRCLE
  5
35F
100
AcDbEntity
  8
universal_board
  6
ByLayer
 62
  256
370
   -1
100
AcDbCircle
 10
39.99999999999783
 20
86.79999999999869
 40
0.5
  0
CIRCLE
  5
360
100
AcDbEntity
  8
universal_board
  6
ByLayer
 62
  256
370
   -1
100
AcDbCircle
 10
39.99999999999782
 20
89.3399999999987
 40
0.5
  0
CIRCLE
  5
361
100
AcDbEntity
  8
universal_board
  6
ByLayer
 62
  256
370
   -1
100
AcDbCircle
 10
39.99999999999782
 20
91.87999999999869
 40
0.5
  0
CIRCLE
  5
362
100
AcDbEntity
  8
universal_board
  6
ByLayer
 62
  256
370
   -1
100
AcDbCircle
 10
39.99999999999782
 20
94.41999999999868
 40
0.5
  0
CIRCLE
  5
363
100
AcDbEntity
  8
universal_board
  6
ByLayer
 62
  256
370
   -1
100
AcDbCircle
 10
39.99999999999782
 20
96.9599999999987
 40
0.5
  0
CIRCLE
  5
364
100
AcDbEntity
  8
universal_board
  6
ByLayer
 62
  256
370
   -1
100
AcDbCircle
 10
42.53999999999782
 20
69.01999999999839
 40
0.5
  0
CIRCLE
  5
365
100
AcDbEntity
  8
universal_board
  6
ByLayer
 62
  256
370
   -1
100
AcDbCircle
 10
42.53999999999781
 20
71.5599999999984
 40
0.5
  0
CIRCLE
  5
366
100
AcDbEntity
  8
universal_board
  6
ByLayer
 62
  256
370
   -1
100
AcDbCircle
 10
42.5399999999978
 20
74.09999999999839
 40
0.5
  0
CIRCLE
  5
367
100
AcDbEntity
  8
universal_board
  6
ByLayer
 62
  256
370
   -1
100
AcDbCircle
 10
42.5399999999978
 20
76.63999999999849
 40
0.5
  0
CIRCLE
  5
368
100
AcDbEntity
  8
universal_board
  6
ByLayer
 62
  256
370
   -1
100
AcDbCircle
 10
42.53999999999779
 20
79.1799999999985
 40
0.5
  0
CIRCLE
  5
369
100
AcDbEntity
  8
universal_board
  6
ByLayer
 62
  256
370
   -1
100
AcDbCircle
 10
42.53999999999778
 20
81.71999999999849
 40
0.5
  0
CIRCLE
  5
36A
100
AcDbEntity
  8
universal_board
  6
ByLayer
 62
  256
370
   -1
100
AcDbCircle
 10
42.53999999999777
 20
84.2599999999985
 40
0.5
  0
CIRCLE
  5
36B
100
AcDbEntity
  8
universal_board
  6
ByLayer
 62
  256
370
   -1
100
AcDbCircle
 10
42.53999999999777
 20
86.79999999999859
 40
0.5
  0
CIRCLE
  5
36C
100
AcDbEntity
  8
universal_board
  6
ByLayer
 62
  256
370
   -1
100
AcDbCircle
 10
42.53999999999776
 20
89.3399999999986
 40
0.5
  0
CIRCLE
  5
36D
100
AcDbEntity
  8
universal_board
  6
ByLayer
 62
  256
370
   -1
100
AcDbCircle
 10
42.53999999999776
 20
91.87999999999859
 40
0.5
  0
CIRCLE
  5
36E
100
AcDbEntity
  8
universal_board
  6
ByLayer
 62
  256
370
   -1
100
AcDbCircle
 10
42.53999999999776
 20
94.41999999999859
 40
0.5
  0
CIRCLE
  5
36F
100
AcDbEntity
  8
universal_board
  6
ByLayer
 62
  256
370
   -1
100
AcDbCircle
 10
42.53999999999776
 20
96.95999999999859
 40
0.5
  0
CIRCLE
  5
370
100
AcDbEntity
  8
universal_board
  6
ByLayer
 62
  256
370
   -1
100
AcDbCircle
 10
45.07999999999775
 20
69.01999999999829
 40
0.5
  0
CIRCLE
  5
371
100
AcDbEntity
  8
universal_board
  6
ByLayer
 62
  256
370
   -1
100
AcDbCircle
 10
45.07999999999775
 20
71.5599999999983
 40
0.5
  0
CIRCLE
  5
372
100
AcDbEntity
  8
universal_board
  6
ByLayer
 62
  256
370
   -1
100
AcDbCircle
 10
45.07999999999773
 20
74.09999999999829
 40
0.5
  0
CIRCLE
  5
373
100
AcDbEntity
  8
universal_board
  6
ByLayer
 62
  256
370
   -1
100
AcDbCircle
 10
45.07999999999773
 20
76.63999999999839
 40
0.5
  0
CIRCLE
  5
374
100
AcDbEntity
  8
universal_board
  6
ByLayer
 62
  256
370
   -1
100
AcDbCircle
 10
45.07999999999772
 20
79.1799999999984
 40
0.5
  0
CIRCLE
  5
375
100
AcDbEntity
  8
universal_board
  6
ByLayer
 62
  256
370
   -1
100
AcDbCircle
 10
45.07999999999771
 20
81.71999999999839
 40
0.5
  0
CIRCLE
  5
376
100
AcDbEntity
  8
universal_board
  6
ByLayer
 62
  256
370
   -1
100
AcDbCircle
 10
45.0799999999977
 20
84.2599999999984
 40
0.5
  0
CIRCLE
  5
377
100
AcDbEntity
  8
universal_board
  6
ByLayer
 62
  256
370
   -1
100
AcDbCircle
 10
45.0799999999977
 20
86.79999999999849
 40
0.5
  0
CIRCLE
  5
378
100
AcDbEntity
  8
universal_board
  6
ByLayer
 62
  256
370
   -1
100
AcDbCircle
 10
45.0799999999977
 20
89.3399999999985
 40
0.5
  0
CIRCLE
  5
379
100
AcDbEntity
  8
universal_board
  6
ByLayer
 62
  256
370
   -1
100
AcDbCircle
 10
45.0799999999977
 20
91.87999999999849
 40
0.5
  0
CIRCLE
  5
37A
100
AcDbEntity
  8
universal_board
  6
ByLayer
 62
  256
370
   -1
100
AcDbCircle
 10
45.0799999999977
 20
94.41999999999851
 40
0.5
  0
CIRCLE
  5
37B
100
AcDbEntity
  8
universal_board
  6
ByLayer
 62
  256
370
   -1
100
AcDbCircle
 10
45.0799999999977
 20
96.95999999999847
 40
0.5
  0
LINE
  5
37C
100
AcDbEntity
  8
universal_board
  6
ByLayer
 62
  256
370
   -1
100
AcDbLine
 10
8.249999999999403
 20
98.22999999999828
 11
46.34999999999779
 21
98.22999999999837
  0
LINE
  5
37D
100
AcDbEntity
  8
universal_board
  6
ByLayer
 62
  256
370
   -1
100
AcDbLine
 10
8.24999999999946
 20
67.74999999999811
 11
46.34999999999785
 21
67.7499999999982
  0
LINE
  5
37E
100
AcDbEntity
  8
universal_board
  6
ByLayer
 62
  256
370
   -1
100
AcDbLine
 10
8.249999999998685
 20
98.22999999999988
 11
8.249999999998685
 21
67.74999999999811
  0
LINE
  5
37F
100
AcDbEntity
  8
universal_board
  6
ByLayer
 62
  256
370
   -1
100
AcDbLine
 10
46.34999999999779
 20
98.2299999999984
 11
46.34999999999779
 21
67.7499999999982
  0
LINE
  5
380
100
AcDbEntity
  8
0_wire
  6
ByLayer
 62
  256
370
  200
100
AcDbLine
 10
45.0799999999977
 20
96.95999999999998
 11
42.53999999999776
 21
96.95999999999984
  0
LINE
  5
381
100
AcDbEntity
  8
0_wire
  6
ByLayer
 62
  256
370
  200
100
AcDbLine
 10
39.99999999999783
 20
96.95999999999972
 11
32.379999999998
 21
96.95999999999941
  0
LINE
  5
382
100
AcDbEntity
  8
0_GND
  6
ByLayer
 62
  256
370
  200
100
AcDbLine
 10
45.07999999999774
 20
79.17999999999988
 11
29.8399999999981
 21
79.17999999999923
  0
LINE
  5
383
100
AcDbEntity
  8
0_GND
  6
ByLayer
 62
  256
370
  200
100
AcDbLine
 10
29.8399999999981
 20
79.17999999999923
 11
29.83999999999806
 21
96.95999999999927
  0
LINE
  5
384
100
AcDbEntity
  8
0_wire
  6
ByLayer
 62
  256
370
  200
100
AcDbLine
 10
45.07999999999771
 20
94.41999999999996
 11
37.45999999999788
 21
94.41999999999962
  0
LINE
  5
385
100
AcDbEntity
  8
0_wire
  6
ByLayer
 62
  256
370
  200
100
AcDbLine
 10
34.91999999999794
 20
94.4199999999995
 11
32.37999999999801
 21
94.41999999999942
  0
LINE
  5
386
100
AcDbEntity
  8
0_wire
  6
ByLayer
 62
  256
370
  200
100
AcDbLine
 10
45.07999999999772
 20
91.87999999999997
 11
42.53999999999778
 21
91.87999999999984
  0
LINE
  5
387
100
AcDbEntity
  8
0_wire
  6
ByLayer
 62
  256
370
  200
100
AcDbLine
 10
39.99999999999784
 20
91.87999999999974
 11
32.37999999999802
 21
91.87999999999941
  0
LINE
  5
388
100
AcDbEntity
  8
0_wire
  6
ByLayer
 62
  256
370
  200
100
AcDbLine
 10
45.07999999999772
 20
89.33999999999997
 11
37.4599999999979
 21
89.33999999999962
  0
LINE
  5
389
100
AcDbEntity
  8
0_wire
  6
ByLayer
 62
  256
370
  200
100
AcDbLine
 10
34.91999999999796
 20
89.33999999999952
 11
32.37999999999803
 21
89.33999999999942
  0
LINE
  5
38A
100
AcDbEntity
  8
0_wire
  6
ByLayer
 62
  256
370
  200
100
AcDbLine
 10
45.07999999999773
 20
86.79999999999997
 11
42.53999999999779
 21
86.79999999999984
  0
LINE
  5
38B
100
AcDbEntity
  8
0_wire
  6
ByLayer
 62
  256
370
  200
100
AcDbLine
 10
39.99999999999785
 20
86.79999999999974
 11
32.37999999999803
 21
86.79999999999941
  0
LINE
  5
38C
100
AcDbEntity
  8
0_wire
  6
ByLayer
 62
  256
370
  200
100
AcDbLine
 10
45.07999999999775
 20
76.63999999999987
 11
37.45999999999792
 21
76.63999999999952
  0
LINE
  5
38D
100
AcDbEntity
  8
0_wire
  6
ByLayer
 62
  256
370
  200
100
AcDbLine
 10
34.91999999999798
 20
76.63999999999942
 11
32.37999999999804
 21
76.63999999999932
  0
LINE
  5
38E
100
AcDbEntity
  8
0_wire
  6
ByLayer
 62
  256
370
  200
100
AcDbLine
 10
32.37999999999805
 20
74.09999999999921
 11
39.99999999999787
 21
74.09999999999954
  0
LINE
  5
38F
100
AcDbEntity
  8
0_wire
  6
ByLayer
 62
  256
370
  200
100
AcDbLine
 10
42.53999999999781
 20
74.09999999999967
 11
45.07999999999775
 21
74.09999999999974
  0
LINE
  5
390
100
AcDbEntity
  8
0_wire
  6
ByLayer
 62
  256
370
  200
100
AcDbLine
 10
45.07999999999775
 20
71.55999999999975
 11
37.45999999999793
 21
71.55999999999942
  0
LINE
  5
391
100
AcDbEntity
  8
0_wire
  6
ByLayer
 62
  256
370
  200
100
AcDbLine
 10
34.91999999999799
 20
71.55999999999932
 11
32.37999999999806
 21
71.55999999999922
  0
LINE
  5
392
100
AcDbEntity
  8
0_wire
  6
ByLayer
 62
  256
370
  200
100
AcDbLine
 10
32.37999999999805
 20
69.01999999999921
 11
39.99999999999788
 21
69.01999999999951
  0
LINE
  5
393
100
AcDbEntity
  8
0_wire
  6
ByLayer
 62
  256
370
  200
100
AcDbLine
 10
42.53999999999782
 20
69.01999999999964
 11
45.07999999999775
 21
69.01999999999977
  0
LINE
  5
394
100
AcDbEntity
  8
0_GND
  6
ByLayer
 62
  256
370
  200
100
AcDbLine
 10
29.8399999999981
 20
79.17999999999923
 11
29.83999999999811
 21
69.01999999999911
  0
LINE
  5
395
100
AcDbEntity
  8
0_wire
  6
ByLayer
 62
  256
370
  200
100
AcDbLine
 10
9.519999999998589
 20
71.55999999999824
 11
17.13999999999841
 21
71.55999999999857
  0
LINE
  5
396
100
AcDbEntity
  8
0_wire
  6
ByLayer
 62
  256
370
  200
100
AcDbLine
 10
19.67999999999835
 20
71.55999999999867
 11
22.21999999999829
 21
71.55999999999877
  0
LINE
  5
397
100
AcDbEntity
  8
0_wire
  6
ByLayer
 62
  256
370
  200
100
AcDbLine
 10
22.21999999999829
 20
74.09999999999876
 11
14.59999999999847
 21
74.09999999999843
  0
LINE
  5
398
100
AcDbEntity
  8
0_wire
  6
ByLayer
 62
  256
370
  200
100
AcDbLine
 10
12.05999999999852
 20
74.09999999999833
 11
9.519999999998589
 21
74.0999999999982
  0
LINE
  5
399
100
AcDbEntity
  8
0_wire
  6
ByLayer
 62
  256
370
  200
100
AcDbLine
 10
9.519999999998582
 20
76.63999999999831
 11
17.1399999999984
 21
76.63999999999866
  0
LINE
  5
39A
100
AcDbEntity
  8
0_wire
  6
ByLayer
 62
  256
370
  200
100
AcDbLine
 10
19.67999999999834
 20
76.63999999999876
 11
22.21999999999829
 21
76.63999999999886
  0
LINE
  5
39B
100
AcDbEntity
  8
0_GND
  6
ByLayer
 62
  256
370
  200
100
AcDbLine
 10
24.75999999999823
 20
71.55999999999889
 11
24.75999999999822
 21
74.09999999999889
  0
LINE
  5
39C
100
AcDbEntity
  8
0_GND
  6
ByLayer
 62
  256
370
  200
100
AcDbLine
 10
24.75999999999822
 20
74.09999999999889
 11
24.75999999999821
 21
76.63999999999899
  0
LINE
  5
39D
100
AcDbEntity
  8
0_GND
  6
ByLayer
 62
  256
370
  200
100
AcDbLine
 10
24.75999999999821
 20
76.63999999999899
 11
24.75999999999821
 21
81.71999999999896
  0
LINE
  5
39E
100
AcDbEntity
  8
0_GND
  6
ByLayer
 62
  256
370
  200
100
AcDbLine
 10
24.75999999999821
 20
81.71999999999896
 11
9.519999999998582
 21
81.71999999999831
  0
LINE
  5
39F
100
AcDbEntity
  8
0_GND
  6
ByLayer
 62
  256
370
  200
100
AcDbLine
 10
9.519999999998582
 20
81.71999999999831
 11
9.519999999998575
 21
84.25999999999831
  0
LINE
  5
3A0
100
AcDbEntity
  8
0_wire
  6
ByLayer
 62
  256
370
  200
100
AcDbLine
 10
9.519999999998561
 20
89.33999999999844
 11
12.0599999999985
 21
89.33999999999854
  0
LINE
  5
3A1
100
AcDbEntity
  8
0_wire
  6
ByLayer
 62
  256
370
  200
100
AcDbLine
 10
14.59999999999844
 20
89.33999999999864
 11
22.21999999999827
 21
89.33999999999897
  0
LINE
  5
3A2
100
AcDbEntity
  8
0_wire
  6
ByLayer
 62
  256
370
  200
100
AcDbLine
 10
19.67999999999832
 20
91.87999999999886
 11
22.21999999999826
 21
91.87999999999896
  0
LINE
  5
3A3
100
AcDbEntity
  8
0_wire
  6
ByLayer
 62
  256
370
  200
100
AcDbLine
 10
17.13999999999837
 20
91.87999999999876
 11
9.519999999998554
 21
91.8799999999984
  0
LINE
  5
3A4
100
AcDbEntity
  8
0_wire
  6
ByLayer
 62
  256
370
  200
100
AcDbLine
 10
9.519999999998539
 20
94.41999999999842
 11
12.05999999999847
 21
94.41999999999854
  0
LINE
  5
3A5
100
AcDbEntity
  8
0_wire
  6
ByLayer
 62
  256
370
  200
100
AcDbLine
 10
14.59999999999842
 20
94.41999999999862
 11
22.21999999999824
 21
94.41999999999896
  0
LINE
  5
3A6
100
AcDbEntity
  8
0_wire
  6
ByLayer
 62
  256
370
  200
100
AcDbLine
 10
22.21999999999824
 20
96.95999999999896
 11
19.67999999999829
 21
96.95999999999884
  0
LINE
  5
3A7
100
AcDbEntity
  8
0_wire
  6
ByLayer
 62
  256
370
  200
100
AcDbLine
 10
17.13999999999835
 20
96.95999999999876
 11
9.519999999998532
 21
96.95999999999839
  0
LINE
  5
3A8
100
AcDbEntity
  8
0_GND
  6
ByLayer
 62
  256
370
  200
100
AcDbLine
 10
24.75999999999817
 20
96.9599999999991
 11
24.75999999999818
 21
94.41999999999908
  0
LINE
  5
3A9
100
AcDbEntity
  8
0_GND
  6
ByLayer
 62
  256
370
  200
100
AcDbLine
 10
24.75999999999818
 20
94.41999999999908
 11
24.75999999999819
 21
91.87999999999909
  0
LINE
  5
3AA
100
AcDbEntity
  8
0_GND
  6
ByLayer
 62
  256
370
  200
100
AcDbLine
 10
24.75999999999819
 20
91.87999999999909
 11
24.7599999999982
 21
89.33999999999909
  0
LINE
  5
3AB
100
AcDbEntity
  8
0_GND
  6
ByLayer
 62
  256
370
  200
100
AcDbLine
 10
24.7599999999982
 20
89.33999999999909
 11
24.75999999999821
 21
84.259999999999
  0
LINE
  5
3AC
100
AcDbEntity
  8
0_GND
  6
ByLayer
 62
  256
370
  200
100
AcDbLine
 10
24.75999999999821
 20
84.259999999999
 11
9.519999999998575
 21
84.25999999999831
  0
LINE
  5
3AD
100
AcDbEntity
  8
universal_board
  6
ByLayer
 62
  256
370
   -1
100
AcDbLine
 10
10.78999999999863
 20
98.22999999999976
 11
10.78999999999863
 21
67.749999999998
  0
LINE
  5
3AE
100
AcDbEntity
  8
universal_board
  6
ByLayer
 62
  256
370
   -1
100
AcDbLine
 10
13.32999999999857
 20
98.22999999999965
 11
13.32999999999857
 21
67.74999999999788
  0
LINE
  5
3AF
100
AcDbEntity
  8
universal_board
  6
ByLayer
 62
  256
370
   -1
100
AcDbLine
 10
15.86999999999851
 20
98.22999999999954
 11
15.86999999999851
 21
67.74999999999777
  0
LINE
  5
3B0
100
AcDbEntity
  8
universal_board
  6
ByLayer
 62
  256
370
   -1
100
AcDbLine
 10
18.40999999999845
 20
98.22999999999942
 11
18.40999999999845
 21
67.74999999999766
  0
LINE
  5
3B1
100
AcDbEntity
  8
universal_board
  6
ByLayer
 62
  256
370
   -1
100
AcDbLine
 10
20.94999999999839
 20
98.22999999999931
 11
20.94999999999839
 21
67.74999999999754
  0
LINE
  5
3B2
100
AcDbEntity
  8
universal_board
  6
ByLayer
 62
  256
370
   -1
100
AcDbLine
 10
23.48999999999833
 20
98.22999999999919
 11
23.48999999999833
 21
67.74999999999743
  0
LINE
  5
3B3
100
AcDbEntity
  8
universal_board
  6
ByLayer
 62
  256
370
   -1
100
AcDbLine
 10
26.02999999999827
 20
98.22999999999908
 11
26.02999999999827
 21
67.74999999999731
  0
LINE
  5
3B4
100
AcDbEntity
  8
universal_board
  6
ByLayer
 62
  256
370
   -1
100
AcDbLine
 10
28.56999999999821
 20
98.22999999999897
 11
28.56999999999821
 21
67.7499999999972
  0
LINE
  5
3B5
100
AcDbEntity
  8
universal_board
  6
ByLayer
 62
  256
370
   -1
100
AcDbLine
 10
31.10999999999815
 20
98.22999999999885
 11
31.10999999999815
 21
67.74999999999709
  0
LINE
  5
3B6
100
AcDbEntity
  8
universal_board
  6
ByLayer
 62
  256
370
   -1
100
AcDbLine
 10
33.64999999999809
 20
98.22999999999874
 11
33.64999999999809
 21
67.74999999999697
  0
LINE
  5
3B7
100
AcDbEntity
  8
universal_board
  6
ByLayer
 62
  256
370
   -1
100
AcDbLine
 10
36.18999999999803
 20
98.22999999999863
 11
36.18999999999803
 21
67.74999999999686
  0
LINE
  5
3B8
100
AcDbEntity
  8
universal_board
  6
ByLayer
 62
  256
370
   -1
100
AcDbLine
 10
38.72999999999797
 20
98.22999999999851
 11
38.72999999999797
 21
67.74999999999675
  0
LINE
  5
3B9
100
AcDbEntity
  8
universal_board
  6
ByLayer
 62
  256
370
   -1
100
AcDbLine
 10
41.26999999999791
 20
98.2299999999984
 11
41.26999999999791
 21
67.74999999999663
  0
LINE
  5
3BA
100
AcDbEntity
  8
universal_board
  6
ByLayer
 62
  256
370
   -1
100
AcDbLine
 10
43.80999999999785
 20
98.22999999999828
 11
43.80999999999785
 21
67.74999999999652
  0
LINE
  5
3BB
100
AcDbEntity
  8
universal_board
  6
ByLayer
 62
  256
370
   -1
100
AcDbLine
 10
8.249999999999451
 20
70.28999999999812
 11
46.34999999999784
 21
70.2899999999982
  0
LINE
  5
3BC
100
AcDbEntity
  8
universal_board
  6
ByLayer
 62
  256
370
   -1
100
AcDbLine
 10
8.249999999999442
 20
72.82999999999812
 11
46.34999999999783
 21
72.82999999999821
  0
LINE
  5
3BD
100
AcDbEntity
  8
universal_board
  6
ByLayer
 62
  256
370
   -1
100
AcDbLine
 10
8.249999999999433
 20
75.36999999999813
 11
46.34999999999782
 21
75.36999999999821
  0
LINE
  5
3BE
100
AcDbEntity
  8
universal_board
  6
ByLayer
 62
  256
370
   -1
100
AcDbLine
 10
8.249999999999424
 20
77.90999999999813
 11
46.34999999999781
 21
77.90999999999822
  0
LINE
  5
3BF
100
AcDbEntity
  8
universal_board
  6
ByLayer
 62
  256
370
   -1
100
AcDbLine
 10
8.249999999999416
 20
80.44999999999814
 11
46.34999999999781
 21
80.44999999999823
  0
LINE
  5
3C0
100
AcDbEntity
  8
universal_board
  6
ByLayer
 62
  256
370
   -1
100
AcDbLine
 10
8.249999999999407
 20
82.98999999999815
 11
46.34999999999779
 21
82.98999999999823
  0
LINE
  5
3C1
100
AcDbEntity
  8
universal_board
  6
ByLayer
 62
  256
370
   -1
100
AcDbLine
 10
8.249999999999398
 20
85.52999999999815
 11
46.34999999999778
 21
85.52999999999824
  0
LINE
  5
3C2
100
AcDbEntity
  8
universal_board
  6
ByLayer
 62
  256
370
   -1
100
AcDbLine
 10
8.249999999999389
 20
88.06999999999816
 11
46.34999999999778
 21
88.06999999999825
  0
LINE
  5
3C3
100
AcDbEntity
  8
universal_board
  6
ByLayer
 62
  256
370
   -1
100
AcDbLine
 10
8.24999999999938
 20
90.60999999999817
 11
46.34999999999777
 21
90.60999999999825
  0
LINE
  5
3C4
100
AcDbEntity
  8
universal_board
  6
ByLayer
 62
  256
370
   -1
100
AcDbLine
 10
8.249999999999371
 20
93.14999999999817
 11
46.34999999999776
 21
93.14999999999826
  0
LINE
  5
3C5
100
AcDbEntity
  8
universal_board
  6
ByLayer
 62
  256
370
   -1
100
AcDbLine
 10
8.249999999999362
 20
95.68999999999818
 11
46.34999999999775
 21
95.68999999999826
  0
ENDSEC
  0
SECTION
  2
OBJECTS
  0
DICTIONARY
  5
C
330
0
100
AcDbDictionary
281
    1
  3
ACAD_GROUP
350
D
  0
DICTIONARY
  5
D
330
C
100
AcDbDictionary
281
    1
  0
PLOTSETTINGS
  5
3C6
100
AcDbPlotSettings
  6
1x1
 40
5
 41
5
 42
5
 43
5
  0
ENDSEC
  0
EOF
