999
dxfrw 0.6.3
  0
SECTION
  2
HEADER
  9
$ACADVER
  1
AC1021
  9
$DWGCODEPAGE
  3
ANSI_1252
  9
$INSBASE
 10
0
 20
0
 30
0
  9
$EXTMIN
 10
-26.86000000000018
 20
103.0800000000005
 30
0
  9
$EXTMAX
 10
12.05999999999857
 20
160.7400000000009
 30
0
  9
$LIMMIN
 10
0
 20
0
  9
$LIMMAX
 10
420
 20
297
  9
$ORTHOMODE
 70
    0
  9
$REGENMODE
 70
    1
  9
$FILLMODE
 70
    1
  9
$QTEXTMODE
 70
    0
  9
$MIRRTEXT
 70
    0
  9
$LTSCALE
 40
1
  9
$ATTMODE
 70
    0
  9
$TEXTSIZE
 40
2.5
  9
$TRACEWID
 40
15.68
  9
$TEXTSTYLE
  7
STANDARD
  9
$CLAYER
  8
5V line
  9
$CELTYPE
  6
BYLAYER
  9
$CECOLOR
 62
  256
  9
$CELTSCALE
 40
1
  9
$DISPSILH
 70
    0
  9
$DIMSCALE
 40
1
  9
$DIMASZ
 40
2.5
  9
$DIMEXO
 40
0.625
  9
$DIMDLI
 40
3.75
  9
$DIMRND
 40
0
  9
$DIMDLE
 40
0
  9
$DIMEXE
 40
1.25
  9
$DIMTP
 40
0
  9
$DIMTM
 40
0
  9
$DIMTXT
 40
2.5
  9
$DIMCEN
 40
2.5
  9
$DIMTSZ
 40
0
  9
$DIMTOL
 70
    0
  9
$DIMLIM
 70
    0
  9
$DIMTIH
 70
    0
  9
$DIMTOH
 70
    0
  9
$DIMSE1
 70
    0
  9
$DIMSE2
 70
    0
  9
$DIMTAD
 70
    1
  9
$DIMZIN
 70
    8
  9
$DIMBLK
  1

  9
$DIMASO
 70
    1
  9
$DIMSHO
 70
    1
  9
$DIMPOST
  1

  9
$DIMAPOST
  1

  9
$DIMALT
 70
    0
  9
$DIMALTD
 70
    3
  9
$DIMALTF
 40
0.03937
  9
$DIMLFAC
 40
1
  9
$DIMTOFL
 70
    1
  9
$DIMTVP
 40
0
  9
$DIMTIX
 70
    0
  9
$DIMSOXD
 70
    0
  9
$DIMSAH
 70
    0
  9
$DIMBLK1
  1

  9
$DIMBLK2
  1

  9
$DIMSTYLE
  2
STANDARD
  9
$DIMCLRD
 70
    0
  9
$DIMCLRE
 70
    0
  9
$DIMCLRT
 70
    0
  9
$DIMTFAC
 40
1
  9
$DIMGAP
 40
0.625
  9
$DIMJUST
 70
    0
  9
$DIMSD1
 70
    0
  9
$DIMSD2
 70
    0
  9
$DIMTOLJ
 70
    0
  9
$DIMTZIN
 70
    8
  9
$DIMALTZ
 70
    0
  9
$DIMALTTZ
 70
    0
  9
$DIMUPT
 70
    0
  9
$DIMDEC
 70
    2
  9
$DIMTDEC
 70
    2
  9
$DIMALTU
 70
    2
  9
$DIMALTTD
 70
    3
  9
$DIMTXSTY
  7
standard
  9
$DIMAUNIT
 70
    0
  9
$DIMADEC
 70
    0
  9
$DIMALTRND
 40
0
  9
$DIMAZIN
 70
    0
  9
$DIMDSEP
 70
   44
  9
$DIMATFIT
 70
    3
  9
$DIMFRAC
 70
    0
  9
$DIMLDRBLK
  1
STANDARD
  9
$DIMLUNIT
 70
    2
  9
$DIMLWD
 70
   -2
  9
$DIMLWE
 70
   -2
  9
$DIMTMOVE
 70
    0
  9
$DIMFXL
 40
1
  9
$DIMFXLON
 70
    0
  9
$DIMJOGANG
 40
0.7854
  9
$DIMTFILL
 70
    0
  9
$DIMTFILLCLR
 70
    0
  9
$DIMARCSYM
 70
    0
  9
$DIMLTYPE
  6

  9
$DIMLTEX1
  6

  9
$DIMLTEX2
  6

  9
$LUNITS
 70
    2
  9
$LUPREC
 70
    4
  9
$SKETCHINC
 40
1
  9
$FILLETRAD
 40
0
  9
$AUNITS
 70
    0
  9
$AUPREC
 70
    2
  9
$MENU
  1
.
  9
$ELEVATION
 40
0
  9
$PELEVATION
 40
0
  9
$THICKNESS
 40
0
  9
$LIMCHECK
 70
    0
  9
$CHAMFERA
 40
0
  9
$CHAMFERB
 40
0
  9
$CHAMFERC
 40
0
  9
$CHAMFERD
 40
0
  9
$SKPOLY
 70
    0
  9
$USRTIMER
 70
    1
  9
$ANGBASE
 50
0
  9
$ANGDIR
 70
    0
  9
$PDMODE
 70
   34
  9
$PDSIZE
 40
0
  9
$PLINEWID
 40
0
  9
$SPLFRAME
 70
    0
  9
$SPLINETYPE
 70
    2
  9
$SPLINESEGS
 70
    8
  9
$HANDSEED
  5
20000
  9
$SURFTAB1
 70
    6
  9
$SURFTAB2
 70
    6
  9
$SURFTYPE
 70
    6
  9
$SURFU
 70
    6
  9
$SURFV
 70
    6
  9
$UCSBASE
  2

  9
$UCSNAME
  2

  9
$UCSORG
 10
0
 20
0
 30
0
  9
$UCSXDIR
 10
1
 20
0
 30
0
  9
$UCSYDIR
 10
0
 20
1
 30
0
  9
$UCSORTHOREF
  2

  9
$UCSORTHOVIEW
 70
    0
  9
$UCSORGTOP
 10
0
 20
0
 30
0
  9
$UCSORGBOTTOM
 10
0
 20
0
 30
0
  9
$UCSORGLEFT
 10
0
 20
0
 30
0
  9
$UCSORGRIGHT
 10
0
 20
0
 30
0
  9
$UCSORGFRONT
 10
0
 20
0
 30
0
  9
$UCSORGBACK
 10
0
 20
0
 30
0
  9
$PUCSBASE
  2

  9
$PUCSNAME
  2

  9
$PUCSORG
 10
0
 20
0
 30
0
  9
$PUCSXDIR
 10
1
 20
0
 30
0
  9
$PUCSYDIR
 10
0
 20
1
 30
0
  9
$PUCSORTHOREF
  2

  9
$PUCSORTHOVIEW
 70
    0
  9
$PUCSORGTOP
 10
0
 20
0
 30
0
  9
$PUCSORGBOTTOM
 10
0
 20
0
 30
0
  9
$PUCSORGLEFT
 10
0
 20
0
 30
0
  9
$PUCSORGRIGHT
 10
0
 20
0
 30
0
  9
$PUCSORGFRONT
 10
0
 20
0
 30
0
  9
$PUCSORGBACK
 10
0
 20
0
 30
0
  9
$USERI1
 70
    0
  9
$USERI2
 70
    0
  9
$USERI3
 70
    0
  9
$USERI4
 70
    0
  9
$USERI5
 70
    0
  9
$USERR1
 40
0
  9
$USERR2
 40
0
  9
$USERR3
 40
0
  9
$USERR4
 40
0
  9
$USERR5
 40
0
  9
$WORLDVIEW
 70
    1
  9
$SHADEDGE
 70
    3
  9
$SHADEDIF
 70
   70
  9
$TILEMODE
 70
    1
  9
$MAXACTVP
 70
   64
  9
$PINSBASE
 10
92.07512364400246
 20
16.84249902916665
 30
0
  9
$PLIMCHECK
 70
    0
  9
$PEXTMIN
 10
0
 20
0
 30
0
  9
$PEXTMAX
 10
0
 20
0
 30
0
  9
$GRIDMODE
 70
    0
  9
$SNAPSTYLE
 70
    0
  9
$GRIDUNIT
 10
0
 20
0
  9
$PLIMMIN
 10
0
 20
0
  9
$PLIMMAX
 10
210
 20
297
  9
$UNITMODE
 70
    0
  9
$VISRETAIN
 70
    1
  9
$PLINEGEN
 70
    0
  9
$PSLTSCALE
 70
    1
  9
$TREEDEPTH
 70
 3020
  9
$CMLSTYLE
  2
Standard
  9
$CMLJUST
 70
    0
  9
$CMLSCALE
 40
20
  9
$PROXYGRAPHICS
 70
    1
  9
$MEASUREMENT
 70
    1
  9
$CELWEIGHT
370
   -1
  9
$ENDCAPS
280
    0
  9
$JOINSTYLE
280
    0
  9
$LWDISPLAY
290
    0
  9
$INSUNITS
 70
    0
  9
$HYPERLINKBASE
  1

  9
$STYLESHEET
  1

  9
$XEDIT
290
    1
  9
$CEPSNTYPE
380
    0
  9
$PSTYLEMODE
290
    1
  9
$EXTNAMES
290
    1
  9
$PSVPSCALE
 40
1.4698
  9
$OLESTARTUP
290
    0
  9
$SORTENTS
280
  127
  9
$INDEXCTL
280
    0
  9
$HIDETEXT
280
    1
  9
$XCLIPFRAME
290
    0
  9
$HALOGAP
280
    0
  9
$OBSCOLOR
 70
  257
  9
$OBSLTYPE
280
    0
  9
$INTERSECTIONDISPLAY
280
    0
  9
$INTERSECTIONCOLOR
 70
  257
  9
$DIMASSOC
280
    1
  9
$PROJECTNAME
  1

  9
$CAMERADISPLAY
290
    0
  9
$LENSLENGTH
 40
50
  9
$CAMERAHEIGHT
 40
0
  9
$STEPSPERSEC
 40
2
  9
$STEPSIZE
 40
50
  9
$3DDWFPREC
 40
2
  9
$PSOLWIDTH
 40
5
  9
$PSOLHEIGHT
 40
80
  9
$LOFTANG1
 40
1.570796326794897
  9
$LOFTANG2
 40
1.570796326794897
  9
$LOFTMAG1
 40
0
  9
$LOFTMAG2
 40
0
  9
$LOFTPARAM
 70
    7
  9
$LOFTNORMALS
280
    1
  9
$LATITUDE
 40
1
  9
$LONGITUDE
 40
1
  9
$NORTHDIRECTION
 40
0
  9
$TIMEZONE
 70
-8000
  9
$LIGHTGLYPHDISPLAY
280
    1
  9
$TILEMODELIGHTSYNCH
280
    1
  9
$SOLIDHIST
280
    1
  9
$SHOWHIST
280
    1
  9
$DWFFRAME
280
    2
  9
$DGNFRAME
280
    0
  9
$REALWORLDSCALE
290
    1
  9
$INTERFERECOLOR
 62
    1
  9
$CSHADOW
280
    0
  9
$SHADOWPLANELOCATION
 40
0
  0
ENDSEC
  0
SECTION
  2
CLASSES
  0
ENDSEC
  0
SECTION
  2
TABLES
  0
TABLE
  2
VPORT
  5
8
330
0
100
AcDbSymbolTable
 70
    1
  0
VPORT
  5
31
330
2
100
AcDbSymbolTableRecord
100
AcDbViewportTableRecord
  2
*ACTIVE
 70
    0
 10
0
 20
0
 11
1
 21
1
 12
26.76304680934878
 22
72.9149992644253
 13
0
 23
0
 14
10
 24
10
 15
10
 25
10
 16
0
 26
0
 36
1
 17
0
 27
0
 37
0
 40
62.74377007322387
 41
1.564336372847011
 42
50
 43
0
 44
0
 50
0
 51
0
 71
    0
 72
  100
 73
    1
 74
    3
 75
    0
 76
    0
 77
    0
 78
    0
281
    0
 65
    1
110
0
120
0
130
0
111
1
121
0
131
0
112
0
122
1
132
0
 79
    0
146
0
348
10020
 60
    7
 61
    5
292
1
282
    1
141
0
142
0
 63
  250
421
3358443
  0
ENDTAB
  0
TABLE
  2
LTYPE
  5
5
330
0
100
AcDbSymbolTable
 70
    4
  0
LTYPE
  5
14
330
5
100
AcDbSymbolTableRecord
100
AcDbLinetypeTableRecord
  2
ByBlock
 70
    0
  3

 72
   65
 73
    0
 40
0
  0
LTYPE
  5
15
330
5
100
AcDbSymbolTableRecord
100
AcDbLinetypeTableRecord
  2
ByLayer
 70
    0
  3

 72
   65
 73
    0
 40
0
  0
LTYPE
  5
16
330
5
100
AcDbSymbolTableRecord
100
AcDbLinetypeTableRecord
  2
Continuous
 70
    0
  3
Solid line
 72
   65
 73
    0
 40
0
  0
LTYPE
  5
32
330
5
100
AcDbSymbolTableRecord
100
AcDbLinetypeTableRecord
  2
DOT
 70
    0
  3
Dot . . . . . . . . . . . . . . . . . . . . . .
 72
   65
 73
    2
 40
6.35
 49
0
 74
    0
 49
-6.35
 74
    0
  0
LTYPE
  5
33
330
5
100
AcDbSymbolTableRecord
100
AcDbLinetypeTableRecord
  2
DOTTINY
 70
    0
  3
Dot (.15x) .....................................
 72
   65
 73
    2
 40
0.9525
 49
0
 74
    0
 49
-0.9525
 74
    0
  0
LTYPE
  5
34
330
5
100
AcDbSymbolTableRecord
100
AcDbLinetypeTableRecord
  2
DOT2
 70
    0
  3
Dot (.5x) .....................................
 72
   65
 73
    2
 40
3.175
 49
0
 74
    0
 49
-3.175
 74
    0
  0
LTYPE
  5
35
330
5
100
AcDbSymbolTableRecord
100
AcDbLinetypeTableRecord
  2
DOTX2
 70
    0
  3
Dot (2x) .  .  .  .  .  .  .  .  .  .  .  .  .
 72
   65
 73
    2
 40
12.7
 49
0
 74
    0
 49
-12.7
 74
    0
  0
LTYPE
  5
36
330
5
100
AcDbSymbolTableRecord
100
AcDbLinetypeTableRecord
  2
DASHED
 70
    0
  3
Dashed _ _ _ _ _ _ _ _ _ _ _ _ _ _ _ _ _
 72
   65
 73
    2
 40
19.05
 49
12.7
 74
    0
 49
-6.35
 74
    0
  0
LTYPE
  5
37
330
5
100
AcDbSymbolTableRecord
100
AcDbLinetypeTableRecord
  2
DASHEDTINY
 70
    0
  3
Dashed (.15x) _ _ _ _ _ _ _ _ _ _ _ _ _ _ _ _ _
 72
   65
 73
    2
 40
2.8575
 49
1.905
 74
    0
 49
-0.9525
 74
    0
  0
LTYPE
  5
38
330
5
100
AcDbSymbolTableRecord
100
AcDbLinetypeTableRecord
  2
DASHED2
 70
    0
  3
Dashed (.5x) _ _ _ _ _ _ _ _ _ _ _ _ _ _ _ _ _
 72
   65
 73
    2
 40
9.524999999999999
 49
6.35
 74
    0
 49
-3.175
 74
    0
  0
LTYPE
  5
39
330
5
100
AcDbSymbolTableRecord
100
AcDbLinetypeTableRecord
  2
DASHEDX2
 70
    0
  3
Dashed (2x) ____  ____  ____  ____  ____  ___
 72
   65
 73
    2
 40
38.09999999999999
 49
25.4
 74
    0
 49
-12.7
 74
    0
  0
LTYPE
  5
3A
330
5
100
AcDbSymbolTableRecord
100
AcDbLinetypeTableRecord
  2
DASHDOT
 70
    0
  3
Dash dot __ . __ . __ . __ . __ . __ . __ . __
 72
   65
 73
    4
 40
25.4
 49
12.7
 74
    0
 49
-6.35
 74
    0
 49
0
 74
    0
 49
-6.35
 74
    0
  0
LTYPE
  5
3B
330
5
100
AcDbSymbolTableRecord
100
AcDbLinetypeTableRecord
  2
DASHDOTTINY
 70
    0
  3
Dash dot (.15x) _._._._._._._._._._._._._._._.
 72
   65
 73
    4
 40
3.81
 49
1.905
 74
    0
 49
-0.9525
 74
    0
 49
0
 74
    0
 49
-0.9525
 74
    0
  0
LTYPE
  5
3C
330
5
100
AcDbSymbolTableRecord
100
AcDbLinetypeTableRecord
  2
DASHDOT2
 70
    0
  3
Dash dot (.5x) _._._._._._._._._._._._._._._.
 72
   65
 73
    4
 40
12.7
 49
6.35
 74
    0
 49
-3.175
 74
    0
 49
0
 74
    0
 49
-3.175
 74
    0
  0
LTYPE
  5
3D
330
5
100
AcDbSymbolTableRecord
100
AcDbLinetypeTableRecord
  2
DASHDOTX2
 70
    0
  3
Dash dot (2x) ____  .  ____  .  ____  .  ___
 72
   65
 73
    4
 40
50.8
 49
25.4
 74
    0
 49
-12.7
 74
    0
 49
0
 74
    0
 49
-12.7
 74
    0
  0
LTYPE
  5
3E
330
5
100
AcDbSymbolTableRecord
100
AcDbLinetypeTableRecord
  2
DIVIDE
 70
    0
  3
Divide ____ . . ____ . . ____ . . ____ . . ____
 72
   65
 73
    6
 40
31.75
 49
12.7
 74
    0
 49
-6.35
 74
    0
 49
0
 74
    0
 49
-6.35
 74
    0
 49
0
 74
    0
 49
-6.35
 74
    0
  0
LTYPE
  5
3F
330
5
100
AcDbSymbolTableRecord
100
AcDbLinetypeTableRecord
  2
DIVIDETINY
 70
    0
  3
Divide (.15x) __..__..__..__..__..__..__..__.._
 72
   65
 73
    6
 40
4.7625
 49
1.905
 74
    0
 49
-0.9525
 74
    0
 49
0
 74
    0
 49
-0.9525
 74
    0
 49
0
 74
    0
 49
-0.9525
 74
    0
  0
LTYPE
  5
40
330
5
100
AcDbSymbolTableRecord
100
AcDbLinetypeTableRecord
  2
DIVIDE2
 70
    0
  3
Divide (.5x) __..__..__..__..__..__..__..__.._
 72
   65
 73
    6
 40
15.875
 49
6.35
 74
    0
 49
-3.175
 74
    0
 49
0
 74
    0
 49
-3.175
 74
    0
 49
0
 74
    0
 49
-3.175
 74
    0
  0
LTYPE
  5
41
330
5
100
AcDbSymbolTableRecord
100
AcDbLinetypeTableRecord
  2
DIVIDEX2
 70
    0
  3
Divide (2x) ________  .  .  ________  .  .  _
 72
   65
 73
    6
 40
63.5
 49
25.4
 74
    0
 49
-12.7
 74
    0
 49
0
 74
    0
 49
-12.7
 74
    0
 49
0
 74
    0
 49
-12.7
 74
    0
  0
LTYPE
  5
42
330
5
100
AcDbSymbolTableRecord
100
AcDbLinetypeTableRecord
  2
BORDER
 70
    0
  3
Border __ __ . __ __ . __ __ . __ __ . __ __ .
 72
   65
 73
    6
 40
44.45
 49
12.7
 74
    0
 49
-6.35
 74
    0
 49
12.7
 74
    0
 49
-6.35
 74
    0
 49
0
 74
    0
 49
-6.35
 74
    0
  0
LTYPE
  5
43
330
5
100
AcDbSymbolTableRecord
100
AcDbLinetypeTableRecord
  2
BORDERTINY
 70
    0
  3
Border (.15x) __.__.__.__.__.__.__.__.__.__.__.
 72
   65
 73
    6
 40
6.6675
 49
1.905
 74
    0
 49
-0.9525
 74
    0
 49
1.905
 74
    0
 49
-0.9525
 74
    0
 49
0
 74
    0
 49
-0.9525
 74
    0
  0
LTYPE
  5
44
330
5
100
AcDbSymbolTableRecord
100
AcDbLinetypeTableRecord
  2
BORDER2
 70
    0
  3
Border (.5x) __.__.__.__.__.__.__.__.__.__.__.
 72
   65
 73
    6
 40
22.225
 49
6.35
 74
    0
 49
-3.175
 74
    0
 49
6.35
 74
    0
 49
-3.175
 74
    0
 49
0
 74
    0
 49
-3.175
 74
    0
  0
LTYPE
  5
45
330
5
100
AcDbSymbolTableRecord
100
AcDbLinetypeTableRecord
  2
BORDERX2
 70
    0
  3
Border (2x) ____  ____  .  ____  ____  .  ___
 72
   65
 73
    6
 40
88.89999999999999
 49
25.4
 74
    0
 49
-12.7
 74
    0
 49
25.4
 74
    0
 49
-12.7
 74
    0
 49
0
 74
    0
 49
-12.7
 74
    0
  0
LTYPE
  5
46
330
5
100
AcDbSymbolTableRecord
100
AcDbLinetypeTableRecord
  2
CENTER
 70
    0
  3
Center ____ _ ____ _ ____ _ ____ _ ____ _ ____
 72
   65
 73
    4
 40
50.8
 49
31.75
 74
    0
 49
-6.35
 74
    0
 49
6.35
 74
    0
 49
-6.35
 74
    0
  0
LTYPE
  5
47
330
5
100
AcDbSymbolTableRecord
100
AcDbLinetypeTableRecord
  2
CENTERTINY
 70
    0
  3
Center (.15x) ___ _ ___ _ ___ _ ___ _ ___ _ ___
 72
   65
 73
    4
 40
7.619999999999999
 49
4.7625
 74
    0
 49
-0.9525
 74
    0
 49
0.9525
 74
    0
 49
-0.9525
 74
    0
  0
LTYPE
  5
48
330
5
100
AcDbSymbolTableRecord
100
AcDbLinetypeTableRecord
  2
CENTER2
 70
    0
  3
Center (.5x) ___ _ ___ _ ___ _ ___ _ ___ _ ___
 72
   65
 73
    4
 40
28.575
 49
19.05
 74
    0
 49
-3.175
 74
    0
 49
3.175
 74
    0
 49
-3.175
 74
    0
  0
LTYPE
  5
49
330
5
100
AcDbSymbolTableRecord
100
AcDbLinetypeTableRecord
  2
CENTERX2
 70
    0
  3
Center (2x) ________  __  ________  __  _____
 72
   65
 73
    4
 40
101.6
 49
63.5
 74
    0
 49
-12.7
 74
    0
 49
12.7
 74
    0
 49
-12.7
 74
    0
  0
ENDTAB
  0
TABLE
  2
LAYER
  5
2
330
0
100
AcDbSymbolTable
 70
    1
  0
LAYER
  5
10
330
2
100
AcDbSymbolTableRecord
100
AcDbLayerTableRecord
  2
0
 70
    0
 62
    7
  6
CONTINUOUS
370
    9
390
F
  0
LAYER
  5
4A
330
2
100
AcDbSymbolTableRecord
100
AcDbLayerTableRecord
  2
0_GND
 70
    0
 62
    7
  6
CONTINUOUS
370
   15
390
F
  0
LAYER
  5
4B
330
2
100
AcDbSymbolTableRecord
100
AcDbLayerTableRecord
  2
0_draft
 70
    0
 62
    7
  6
DOTTINY
370
   -3
390
F
1001
LibreCad
1070
    1
  0
LAYER
  5
4C
330
2
100
AcDbSymbolTableRecord
100
AcDbLayerTableRecord
  2
0_wire
 70
    0
 62
    3
  6
CONTINUOUS
370
   15
390
F
  0
LAYER
  5
4D
330
2
100
AcDbSymbolTableRecord
100
AcDbLayerTableRecord
  2
1_wire
 70
    0
 62
    2
  6
CONTINUOUS
370
   15
390
F
  0
LAYER
  5
4E
330
2
100
AcDbSymbolTableRecord
100
AcDbLayerTableRecord
  2
3.3V line
 70
    0
 62
   40
420
16755200
  6
CONTINUOUS
370
   15
390
F
  0
LAYER
  5
4F
330
2
100
AcDbSymbolTableRecord
100
AcDbLayerTableRecord
  2
5V line
 70
    0
 62
    1
  6
CONTINUOUS
370
   15
390
F
  0
LAYER
  5
50
330
2
100
AcDbSymbolTableRecord
100
AcDbLayerTableRecord
  2
condenser
 70
    0
 62
    5
  6
CONTINUOUS
370
   15
390
F
  0
LAYER
  5
51
330
2
100
AcDbSymbolTableRecord
100
AcDbLayerTableRecord
  2
crystal
 70
    0
 62
   96
420
32768
  6
CONTINUOUS
370
   15
390
F
  0
LAYER
  5
52
330
2
100
AcDbSymbolTableRecord
100
AcDbLayerTableRecord
  2
diode
 70
    0
 62
    6
  6
CONTINUOUS
370
   15
390
F
  0
LAYER
  5
53
330
2
100
AcDbSymbolTableRecord
100
AcDbLayerTableRecord
  2
kakou
 70
    0
 62
  176
420
  128
  6
CONTINUOUS
370
   15
390
F
  0
LAYER
  5
54
330
2
100
AcDbSymbolTableRecord
100
AcDbLayerTableRecord
  2
micon
 70
    0
 62
  216
420
8388736
  6
CONTINUOUS
370
   15
390
F
  0
LAYER
  5
55
330
2
100
AcDbSymbolTableRecord
100
AcDbLayerTableRecord
  2
resister
 70
    0
 62
    4
  6
CONTINUOUS
370
   18
390
F
  0
LAYER
  5
56
330
2
100
AcDbSymbolTableRecord
100
AcDbLayerTableRecord
  2
socket_header
 70
    0
 62
   56
420
8421376
  6
CONTINUOUS
370
   15
390
F
  0
LAYER
  5
57
330
2
100
AcDbSymbolTableRecord
100
AcDbLayerTableRecord
  2
switch
 70
    0
 62
  136
420
32896
  6
CONTINUOUS
370
   15
390
F
  0
LAYER
  5
58
330
2
100
AcDbSymbolTableRecord
100
AcDbLayerTableRecord
  2
terminal
 70
    0
 62
   16
420
8388608
  6
CONTINUOUS
370
   15
390
F
  0
LAYER
  5
59
330
2
100
AcDbSymbolTableRecord
100
AcDbLayerTableRecord
  2
universal_board
 70
    4
 62
  253
420
10526884
  6
CONTINUOUS
370
   15
390
F
  0
ENDTAB
  0
TABLE
  2
STYLE
  5
3
330
0
100
AcDbSymbolTable
 70
    3
  0
STYLE
  5
5A
330
2
100
AcDbSymbolTableRecord
100
AcDbTextStyleTableRecord
  2
STANDARD
 70
    0
 40
0
 41
1
 50
0
 71
    0
 42
1
  3
STANDARD
  4

  0
STYLE
  5
5B
330
2
100
AcDbSymbolTableRecord
100
AcDbTextStyleTableRecord
  2
iso
 70
    0
 40
0
 41
1
 50
0
 71
    0
 42
1
  3
iso
  4

  0
STYLE
  5
5C
330
2
100
AcDbSymbolTableRecord
100
AcDbTextStyleTableRecord
  2
unicode
 70
    0
 40
0
 41
1
 50
0
 71
    0
 42
1
  3
unicode
  4

  0
STYLE
  5
5D
330
2
100
AcDbSymbolTableRecord
100
AcDbTextStyleTableRecord
  2
azomix
 70
    0
 40
0
 41
1
 50
0
 71
    0
 42
1
  3
azomix
  4

  0
ENDTAB
  0
TABLE
  2
VIEW
  5
6
330
0
100
AcDbSymbolTable
 70
    0
  0
ENDTAB
  0
TABLE
  2
UCS
  5
7
330
0
100
AcDbSymbolTable
 70
    0
  0
ENDTAB
  0
TABLE
  2
APPID
  5
9
330
0
100
AcDbSymbolTable
 70
    1
  0
APPID
  5
12
330
9
100
AcDbSymbolTableRecord
100
AcDbRegAppTableRecord
  2
ACAD
 70
    0
  0
APPID
  5
5E
330
9
100
AcDbSymbolTableRecord
100
AcDbRegAppTableRecord
  2
LibreCad
 70
    0
  0
ENDTAB
  0
TABLE
  2
DIMSTYLE
  5
A
330
0
100
AcDbSymbolTable
 70
    1
100
AcDbDimStyleTable
 71
    1
  0
DIMSTYLE
105
5F
330
A
100
AcDbSymbolTableRecord
100
AcDbDimStyleTableRecord
  2
Standard
 70
    0
 40
1
 41
2.5
 42
0.625
 43
0.38
 44
1.25
 45
0
 46
0
 47
0
 48
0
 49
1
140
2.5
141
0.09
142
0
143
25.4
144
1
145
0
146
1
147
0.625
148
0
 71
    0
 72
    0
 73
    0
 74
    1
 75
    0
 76
    0
 77
    0
 78
    8
 79
    0
170
    0
171
    2
172
    0
173
    0
174
    0
175
    0
176
    0
177
    0
178
    0
179
    0
271
    2
272
    4
273
    2
274
    2
275
    0
276
    0
277
    2
278
   44
279
    0
280
    0
281
    0
282
    0
283
    1
284
    0
285
    0
286
    0
288
    0
289
    3
340
standard
341

371
   -2
372
   -2
  0
ENDTAB
  0
TABLE
  2
BLOCK_RECORD
  5
1
330
0
100
AcDbSymbolTable
 70
    2
  0
BLOCK_RECORD
  5
1F
330
1
100
AcDbSymbolTableRecord
100
AcDbBlockTableRecord
  2
*Model_Space
 70
    0
280
    1
281
    0
  0
BLOCK_RECORD
  5
1E
330
1
100
AcDbSymbolTableRecord
100
AcDbBlockTableRecord
  2
*Paper_Space
 70
    0
280
    1
281
    0
  0
BLOCK_RECORD
  5
60
330
1
100
AcDbSymbolTableRecord
100
AcDbBlockTableRecord
  2
2227MC-08-03
 70
    0
280
    1
281
    0
  0
BLOCK_RECORD
  5
63
330
1
100
AcDbSymbolTableRecord
100
AcDbBlockTableRecord
  2
PIC16F15325
 70
    0
280
    1
281
    0
  0
BLOCK_RECORD
  5
66
330
1
100
AcDbSymbolTableRecord
100
AcDbBlockTableRecord
  2
2227MC-28-03
 70
    0
280
    1
281
    0
  0
BLOCK_RECORD
  5
69
330
1
100
AcDbSymbolTableRecord
100
AcDbBlockTableRecord
  2
HUSG-16.000-20
 70
    0
280
    1
281
    0
  0
BLOCK_RECORD
  5
6C
330
1
100
AcDbSymbolTableRecord
100
AcDbBlockTableRecord
  2
ATmega328P
 70
    0
280
    1
281
    0
  0
BLOCK_RECORD
  5
6F
330
1
100
AcDbSymbolTableRecord
100
AcDbBlockTableRecord
  2
DTS-63-N-V-BLK
 70
    0
280
    1
281
    0
  0
BLOCK_RECORD
  5
72
330
1
100
AcDbSymbolTableRecord
100
AcDbBlockTableRecord
  2
2227MC-14-03
 70
    0
280
    1
281
    0
  0
BLOCK_RECORD
  5
75
330
1
100
AcDbSymbolTableRecord
100
AcDbBlockTableRecord
  2
C_0.01uF
 70
    0
280
    1
281
    0
  0
BLOCK_RECORD
  5
78
330
1
100
AcDbSymbolTableRecord
100
AcDbBlockTableRecord
  2
R300
 70
    0
280
    1
281
    0
  0
BLOCK_RECORD
  5
7B
330
1
100
AcDbSymbolTableRecord
100
AcDbBlockTableRecord
  2
R10k
 70
    0
280
    1
281
    0
  0
BLOCK_RECORD
  5
7E
330
1
100
AcDbSymbolTableRecord
100
AcDbBlockTableRecord
  2
R0
 70
    0
280
    1
281
    0
  0
ENDTAB
  0
ENDSEC
  0
SECTION
  2
BLOCKS
  0
BLOCK
  5
20
330
1F
100
AcDbEntity
  8
0
100
AcDbBlockBegin
  2
*Model_Space
 70
    0
 10
0
 20
0
 30
0
  3
*Model_Space
  1

  0
ENDBLK
  5
21
330
1F
100
AcDbEntity
  8
0
100
AcDbBlockEnd
  0
BLOCK
  5
1C
330
1B
100
AcDbEntity
  8
0
100
AcDbBlockBegin
  2
*Paper_Space
 70
    0
 10
0
 20
0
 30
0
  3
*Paper_Space
  1

  0
ENDBLK
  5
1D
330
1F
100
AcDbEntity
  8
0
100
AcDbBlockEnd
  0
BLOCK
  5
61
330
60
100
AcDbEntity
  8
0
100
AcDbBlockBegin
  2
2227MC-08-03
 70
    0
 10
0
 20
0
  3
2227MC-08-03
  1

  0
LINE
  5
81
100
AcDbEntity
  8
socket_header
  6
ByLayer
 62
  256
370
   -1
100
AcDbLine
 10
-1.270000000000131
 20
-8.890000110779171
 11
-1.270000000000131
 21
1.269999889220831
  0
LINE
  5
82
100
AcDbEntity
  8
socket_header
  6
ByLayer
 62
  256
370
   -1
100
AcDbLine
 10
-1.270000000000131
 20
1.269999889220831
 11
8.890000394687402
 21
1.269999889220831
  0
LINE
  5
83
100
AcDbEntity
  8
socket_header
  6
ByLayer
 62
  256
370
   -1
100
AcDbLine
 10
8.890000394687402
 20
1.269999889220831
 11
8.88999999999989
 21
-8.890000110779171
  0
LINE
  5
84
100
AcDbEntity
  8
socket_header
  6
ByLayer
 62
  256
370
   -1
100
AcDbLine
 10
8.88999999999989
 20
-8.890000110779171
 11
-1.270000000000131
 21
-8.890000110779171
  0
CIRCLE
  5
85
100
AcDbEntity
  8
socket_header
  6
ByLayer
 62
  256
370
   -1
100
AcDbCircle
 10
2.539999999999878
 20
1.06581410364015e-14
 40
0.6
  0
CIRCLE
  5
86
100
AcDbEntity
  8
socket_header
  6
ByLayer
 62
  256
370
   -1
100
AcDbCircle
 10
2.539999999999893
 20
-7.620000000000061
 40
0.6
  0
CIRCLE
  5
87
100
AcDbEntity
  8
socket_header
  6
ByLayer
 62
  256
370
   -1
100
AcDbCircle
 10
0
 20
0
 40
0.6
  0
CIRCLE
  5
88
100
AcDbEntity
  8
socket_header
  6
ByLayer
 62
  256
370
   -1
100
AcDbCircle
 10
7.105427357601002e-15
 20
-7.620000000000072
 40
0.6
  0
CIRCLE
  5
89
100
AcDbEntity
  8
socket_header
  6
ByLayer
 62
  256
370
   -1
100
AcDbCircle
 10
5.079999999999757
 20
2.842170943040401e-14
 40
0.6
  0
CIRCLE
  5
8A
100
AcDbEntity
  8
socket_header
  6
ByLayer
 62
  256
370
   -1
100
AcDbCircle
 10
5.079999999999771
 20
-7.620000000000051
 40
0.6
  0
CIRCLE
  5
8B
100
AcDbEntity
  8
socket_header
  6
ByLayer
 62
  256
370
   -1
100
AcDbCircle
 10
7.619999999999639
 20
3.907985046680551e-14
 40
0.6
  0
CIRCLE
  5
8C
100
AcDbEntity
  8
socket_header
  6
ByLayer
 62
  256
370
   -1
100
AcDbCircle
 10
7.61999999999966
 20
-7.62000000000004
 40
0.6
  0
MTEXT
  5
8D
100
AcDbEntity
  8
socket_header
  6
ByLayer
 62
  256
370
   -1
100
AcDbMText
 10
3.950796119092651
 20
-1.713679173150673
 30
0
 40
1
 41
9.222222222222284
 71
    5
 72
    1
  1
2227MC-08-03
  7
STANDARD
210
0
220
0
230
1
 50
0
 73
    2
 44
1
  0
ENDBLK
  5
62
330
60
100
AcDbEntity
  8
0
100
AcDbBlockEnd
  0
BLOCK
  5
64
330
63
100
AcDbEntity
  8
0
100
AcDbBlockBegin
  2
PIC16F15325
 70
    0
 10
0
 20
0
  3
PIC16F15325
  1

  0
ENDBLK
  5
65
330
63
100
AcDbEntity
  8
0
100
AcDbBlockEnd
  0
BLOCK
  5
67
330
66
100
AcDbEntity
  8
0
100
AcDbBlockBegin
  2
2227MC-28-03
 70
    0
 10
0
 20
0
  3
2227MC-28-03
  1

  0
ENDBLK
  5
68
330
66
100
AcDbEntity
  8
0
100
AcDbBlockEnd
  0
BLOCK
  5
6A
330
69
100
AcDbEntity
  8
0
100
AcDbBlockBegin
  2
HUSG-16.000-20
 70
    0
 10
0
 20
0
  3
HUSG-16.000-20
  1

  0
ENDBLK
  5
6B
330
69
100
AcDbEntity
  8
0
100
AcDbBlockEnd
  0
BLOCK
  5
6D
330
6C
100
AcDbEntity
  8
0
100
AcDbBlockBegin
  2
ATmega328P
 70
    0
 10
0
 20
0
  3
ATmega328P
  1

  0
ENDBLK
  5
6E
330
6C
100
AcDbEntity
  8
0
100
AcDbBlockEnd
  0
BLOCK
  5
70
330
6F
100
AcDbEntity
  8
0
100
AcDbBlockBegin
  2
DTS-63-N-V-BLK
 70
    0
 10
0
 20
0
  3
DTS-63-N-V-BLK
  1

  0
ENDBLK
  5
71
330
6F
100
AcDbEntity
  8
0
100
AcDbBlockEnd
  0
BLOCK
  5
73
330
72
100
AcDbEntity
  8
0
100
AcDbBlockBegin
  2
2227MC-14-03
 70
    0
 10
0
 20
0
  3
2227MC-14-03
  1

  0
ENDBLK
  5
74
330
72
100
AcDbEntity
  8
0
100
AcDbBlockEnd
  0
BLOCK
  5
76
330
75
100
AcDbEntity
  8
0
100
AcDbBlockBegin
  2
C_0.01uF
 70
    0
 10
0
 20
0
  3
C_0.01uF
  1

  0
LWPOLYLINE
  5
8E
100
AcDbEntity
  8
condenser
  6
ByLayer
 62
  256
370
   -1
100
AcDbPolyline
 90
    4
 70
    1
 43
0
 10
1.499999999999972
 20
5.039999999999822
 10
1.499999999999972
 20
0.03999999999992099
 10
-1.50000000000005
 20
0.03999999999992099
 10
-1.50000000000005
 20
5.039999999999822
  0
MTEXT
  5
8F
100
AcDbEntity
  8
condenser
  6
ByLayer
 62
  256
370
   -1
100
AcDbMText
 10
2.336701583810211
 20
2.491803864245341
 30
0
 40
1
 41
3.666666666666667
 71
    5
 72
    1
  1
0.01uF
  7
STANDARD
210
0
220
0
230
1
 50
270
 73
    2
 44
1
  0
CIRCLE
  5
90
100
AcDbEntity
  8
condenser
  6
ByLayer
 62
  256
370
   -1
100
AcDbCircle
 10
0
 20
0
 40
0.4
  0
CIRCLE
  5
91
100
AcDbEntity
  8
condenser
  6
ByLayer
 62
  256
370
   -1
100
AcDbCircle
 10
-6.927791673660977e-14
 20
5.080000000000041
 40
0.4
  0
ENDBLK
  5
77
330
75
100
AcDbEntity
  8
0
100
AcDbBlockEnd
  0
BLOCK
  5
79
330
78
100
AcDbEntity
  8
0
100
AcDbBlockBegin
  2
R300
 70
    0
 10
0
 20
0
  3
R300
  1

  0
LWPOLYLINE
  5
92
100
AcDbEntity
  8
resister
  6
ByLayer
 62
  256
370
   -1
100
AcDbPolyline
 90
    4
 70
    1
 43
0
 10
-1.150000000000091
 20
0.6599999999995898
 10
-1.15000000000008
 20
6.959999999999511
 10
1.150000000000126
 20
6.959999999999511
 10
1.150000000000119
 20
0.6599999999995898
  0
CIRCLE
  5
93
100
AcDbEntity
  8
resister
  6
ByLayer
 62
  256
370
   -1
100
AcDbCircle
 10
1.953992523340276e-14
 20
7.619999999999639
 40
0.3
  0
LINE
  5
94
100
AcDbEntity
  8
resister
  6
ByLayer
 62
  256
370
   -1
100
AcDbLine
 10
1.953992523340276e-14
 20
0.2999999999998604
 11
1.031014139840636e-06
 21
0.6599999999995898
  0
LINE
  5
95
100
AcDbEntity
  8
resister
  6
ByLayer
 62
  256
370
   -1
100
AcDbLine
 10
3.907985046680551e-14
 20
6.959999999999511
 11
3.907985046680551e-14
 21
7.320000000000348
  0
MTEXT
  5
96
100
AcDbEntity
  8
resister
  6
ByLayer
 62
  256
370
   -1
100
AcDbMText
 10
-0.02409769535478112
 20
3.951579464078229
 30
0
 40
1
 41
2.888888888888951
 71
    5
 72
    1
  1
R300
  7
STANDARD
210
0
220
0
230
1
 50
90
 73
    2
 44
1
  0
CIRCLE
  5
97
100
AcDbEntity
  8
resister
  6
ByLayer
 62
  256
370
   -1
100
AcDbCircle
 10
0
 20
0
 40
0.25
  0
ENDBLK
  5
7A
330
78
100
AcDbEntity
  8
0
100
AcDbBlockEnd
  0
BLOCK
  5
7C
330
7B
100
AcDbEntity
  8
0
100
AcDbBlockBegin
  2
R10k
 70
    0
 10
0
 20
0
  3
R10k
  1

  0
CIRCLE
  5
98
100
AcDbEntity
  8
resister
  6
ByLayer
 62
  256
370
   -1
100
AcDbCircle
 10
0
 20
0
 40
0.3
  0
LINE
  5
99
100
AcDbEntity
  8
resister
  6
ByLayer
 62
  256
370
   -1
100
AcDbLine
 10
-0.659999999999485
 20
1.150000000000098
 11
-0.659999999999485
 21
-1.150000000000059
  0
LINE
  5
9A
100
AcDbEntity
  8
resister
  6
ByLayer
 62
  256
370
   -1
100
AcDbLine
 10
-6.959999999999557
 20
-1.150000000000041
 11
-0.659999999999485
 21
-1.150000000000059
  0
LINE
  5
9B
100
AcDbEntity
  8
resister
  6
ByLayer
 62
  256
370
   -1
100
AcDbLine
 10
-0.659999999999485
 20
1.150000000000098
 11
-6.959999999999557
 21
1.150000000000098
  0
LINE
  5
9C
100
AcDbEntity
  8
resister
  6
ByLayer
 62
  256
370
   -1
100
AcDbLine
 10
-6.959999999999557
 20
1.150000000000098
 11
-6.959999999999557
 21
-1.150000000000041
  0
CIRCLE
  5
9D
100
AcDbEntity
  8
resister
  6
ByLayer
 62
  256
370
   -1
100
AcDbCircle
 10
-7.619999999999408
 20
2.131628207280301e-14
 40
0.25
  0
MTEXT
  5
9E
100
AcDbEntity
  8
resister
  6
ByLayer
 62
  256
370
   -1
100
AcDbMText
 10
-3.991855261194459
 20
0.08749576228997924
 30
0
 40
1
 41
2.666666666666667
 71
    5
 72
    1
  1
R10k
  7
unicode
210
0
220
0
230
1
 50
0
 73
    2
 44
1
  0
LINE
  5
9F
100
AcDbEntity
  8
resister
  6
ByLayer
 62
  256
370
   -1
100
AcDbLine
 10
-0.2499999999985789
 20
2.131628207280301e-14
 11
-0.659999999999485
 21
2.131628207280301e-14
  0
LINE
  5
A0
100
AcDbEntity
  8
resister
  6
ByLayer
 62
  256
370
   -1
100
AcDbLine
 10
-7.369999999999898
 20
1.06581410364015e-14
 11
-6.959999999999557
 21
1.06581410364015e-14
  0
ENDBLK
  5
7D
330
7B
100
AcDbEntity
  8
0
100
AcDbBlockEnd
  0
BLOCK
  5
7F
330
7E
100
AcDbEntity
  8
0
100
AcDbBlockBegin
  2
R0
 70
    0
 10
0
 20
0
  3
R0
  1

  0
LINE
  5
A1
100
AcDbEntity
  8
resister
  6
ByLayer
 62
  256
370
   -1
100
AcDbLine
 10
-0.6599999999999611
 20
1.149999999999959
 11
-0.6599999999999611
 21
-1.14999999999997
  0
LINE
  5
A2
100
AcDbEntity
  8
resister
  6
ByLayer
 62
  256
370
   -1
100
AcDbLine
 10
-0.6599999999999611
 20
-1.14999999999997
 11
-6.959999999999834
 21
-1.14999999999997
  0
LINE
  5
A3
100
AcDbEntity
  8
resister
  6
ByLayer
 62
  256
370
   -1
100
AcDbLine
 10
-6.959999999999834
 20
-1.14999999999997
 11
-6.95999999999982
 21
1.149999999999959
  0
LINE
  5
A4
100
AcDbEntity
  8
resister
  6
ByLayer
 62
  256
370
   -1
100
AcDbLine
 10
-6.95999999999982
 20
1.149999999999959
 11
-0.6599999999999611
 21
1.149999999999959
  0
LINE
  5
A5
100
AcDbEntity
  8
resister
  6
ByLayer
 62
  256
370
   -1
100
AcDbLine
 10
-6.95999999999982
 20
0
 11
-7.61999999999966
 21
0
  0
LINE
  5
A6
100
AcDbEntity
  8
resister
  6
ByLayer
 62
  256
370
   -1
100
AcDbLine
 10
3.694822225952521e-13
 20
0
 11
-0.6599999999999611
 21
0
  0
MTEXT
  5
A7
100
AcDbEntity
  8
resister
  6
ByLayer
 62
  256
370
   -1
100
AcDbMText
 10
-4.132042899777453
 20
0.05377778633712005
 30
0
 40
1
 41
1.333333333333333
 71
    5
 72
    1
  1
R0
  7
STANDARD
210
0
220
0
230
1
 50
270
 73
    2
 44
1
  0
ENDBLK
  5
80
330
7E
100
AcDbEntity
  8
0
100
AcDbBlockEnd
  0
ENDSEC
  0
SECTION
  2
ENTITIES
  0
CIRCLE
  5
A8
100
AcDbEntity
  8
universal_board
  6
ByLayer
 62
  256
370
   -1
100
AcDbCircle
 10
-23.50000000000009
 20
102.0400000000005
 40
0.5
  0
CIRCLE
  5
A9
100
AcDbEntity
  8
universal_board
  6
ByLayer
 62
  256
370
   -1
100
AcDbCircle
 10
-26.03999999999998
 20
102.0400000000005
 40
0.5
  0
CIRCLE
  5
AA
100
AcDbEntity
  8
universal_board
  6
ByLayer
 62
  256
370
   -1
100
AcDbCircle
 10
-28.57999999999987
 20
102.0400000000005
 40
0.5
  0
CIRCLE
  5
AB
100
AcDbEntity
  8
universal_board
  6
ByLayer
 62
  256
370
   -1
100
AcDbCircle
 10
-20.96000000000021
 20
102.0400000000005
 40
0.5
  0
CIRCLE
  5
AC
100
AcDbEntity
  8
universal_board
  6
ByLayer
 62
  256
370
   -1
100
AcDbCircle
 10
-18.42000000000033
 20
102.0400000000005
 40
0.5
  0
CIRCLE
  5
AD
100
AcDbEntity
  8
universal_board
  6
ByLayer
 62
  256
370
   -1
100
AcDbCircle
 10
-15.88000000000045
 20
102.0400000000005
 40
0.5
  0
CIRCLE
  5
AE
100
AcDbEntity
  8
universal_board
  6
ByLayer
 62
  256
370
   -1
100
AcDbCircle
 10
-13.34000000000057
 20
102.0400000000005
 40
0.5
  0
CIRCLE
  5
AF
100
AcDbEntity
  8
universal_board
  6
ByLayer
 62
  256
370
   -1
100
AcDbCircle
 10
-10.80000000000069
 20
102.0400000000005
 40
0.5
  0
CIRCLE
  5
B0
100
AcDbEntity
  8
universal_board
  6
ByLayer
 62
  256
370
   -1
100
AcDbCircle
 10
1.899999999998769
 20
102.0400000000005
 40
0.5
  0
LINE
  5
B1
100
AcDbEntity
  8
0_draft
  6
ByLayer
 62
  256
370
   -1
100
AcDbLine
 10
-10.80000000000061
 20
20.75999999999996
 11
-0.80000000000061
 21
20.75999999999996
  0
LINE
  5
B2
100
AcDbEntity
  8
0_draft
  6
ByLayer
 62
  256
370
   -1
100
AcDbLine
 10
-10.80000000000061
 20
18.40999999999995
 11
-0.8000000000006082
 21
18.40999999999995
  0
LINE
  5
B3
100
AcDbEntity
  8
0_draft
  6
ByLayer
 62
  256
370
   -1
100
AcDbLine
 10
-10.80000000000061
 20
24.15999999999996
 11
-0.8000000000006118
 21
24.15999999999996
  0
CIRCLE
  5
B4
100
AcDbEntity
  8
0_draft
  6
ByLayer
 62
  256
370
   -1
100
AcDbCircle
 10
12.05999999999833
 20
49.97000000000011
 40
0.5
  0
CIRCLE
  5
B5
100
AcDbEntity
  8
0_draft
  6
ByLayer
 62
  256
370
   -1
100
AcDbCircle
 10
12.05999999999833
 20
49.97000000000011
 40
1.25
  0
LINE
  5
B6
100
AcDbEntity
  8
0_draft
  6
ByLayer
 62
  256
370
   -1
100
AcDbLine
 10
66.66999999999592
 20
77.91000000000065
 11
66.66999999999592
 21
87.91000000000065
  0
LINE
  5
B7
100
AcDbEntity
  8
0_draft
  6
ByLayer
 62
  256
370
   -1
100
AcDbLine
 10
69.2099999999958
 20
77.91000000000066
 11
69.2099999999958
 21
87.91000000000066
  0
LINE
  5
B8
100
AcDbEntity
  8
0_draft
  6
ByLayer
 62
  256
370
   -1
100
AcDbLine
 10
71.74999999999568
 20
77.91000000000068
 11
71.74999999999568
 21
87.91000000000068
  0
LINE
  5
B9
100
AcDbEntity
  8
0_draft
  6
ByLayer
 62
  256
370
   -1
100
AcDbLine
 10
74.28999999999556
 20
77.91000000000069
 11
74.28999999999556
 21
87.91000000000069
  0
LINE
  5
BA
100
AcDbEntity
  8
0_draft
  6
ByLayer
 62
  256
370
   -1
100
AcDbLine
 10
76.82999999999544
 20
77.91000000000071
 11
76.82999999999544
 21
87.91000000000071
  0
LINE
  5
BB
100
AcDbEntity
  8
0_draft
  6
ByLayer
 62
  256
370
   -1
100
AcDbLine
 10
23.48999999999799
 20
39.81000000000017
 11
33.48999999999799
 21
39.81000000000017
  0
LINE
  5
BC
100
AcDbEntity
  8
0_draft
  6
ByLayer
 62
  256
370
   -1
100
AcDbLine
 10
23.48999999999799
 20
42.35000000000019
 11
33.48999999999799
 21
42.35000000000019
  0
LINE
  5
BD
100
AcDbEntity
  8
0_draft
  6
ByLayer
 62
  256
370
   -1
100
AcDbLine
 10
23.48999999999799
 20
44.89000000000021
 11
33.48999999999799
 21
44.89000000000021
  0
LINE
  5
BE
100
AcDbEntity
  8
0_draft
  6
ByLayer
 62
  256
370
   -1
100
AcDbLine
 10
23.48999999999799
 20
47.43000000000023
 11
33.48999999999799
 21
47.43000000000023
  0
LINE
  5
BF
100
AcDbEntity
  8
0_draft
  6
ByLayer
 62
  256
370
   -1
100
AcDbLine
 10
23.48999999999799
 20
49.97000000000025
 11
33.48999999999799
 21
49.97000000000025
  0
LINE
  5
C0
100
AcDbEntity
  8
0_draft
  6
ByLayer
 62
  256
370
   -1
100
AcDbLine
 10
23.48999999999799
 20
52.51000000000027
 11
33.48999999999799
 21
52.51000000000027
  0
LINE
  5
C1
100
AcDbEntity
  8
0_draft
  6
ByLayer
 62
  256
370
   -1
100
AcDbLine
 10
23.48999999999799
 20
55.05000000000029
 11
33.48999999999799
 21
55.05000000000029
  0
LINE
  5
C2
100
AcDbEntity
  8
0_draft
  6
ByLayer
 62
  256
370
   -1
100
AcDbLine
 10
23.48999999999799
 20
57.59000000000031
 11
33.48999999999799
 21
57.59000000000031
  0
LINE
  5
C3
100
AcDbEntity
  8
0_draft
  6
ByLayer
 62
  256
370
   -1
100
AcDbLine
 10
23.48999999999799
 20
60.13000000000033
 11
33.48999999999799
 21
60.13000000000033
  0
LINE
  5
C4
100
AcDbEntity
  8
0_draft
  6
ByLayer
 62
  256
370
   -1
100
AcDbLine
 10
23.48999999999799
 20
62.67000000000035
 11
33.48999999999799
 21
62.67000000000035
  0
CIRCLE
  5
C5
100
AcDbEntity
  8
universal_board
  6
ByLayer
 62
  256
370
   -1
100
AcDbCircle
 10
-23.50000000000009
 20
104.5800000000005
 40
0.5
  0
CIRCLE
  5
C6
100
AcDbEntity
  8
universal_board
  6
ByLayer
 62
  256
370
   -1
100
AcDbCircle
 10
-26.03999999999998
 20
104.5800000000005
 40
0.5
  0
CIRCLE
  5
C7
100
AcDbEntity
  8
universal_board
  6
ByLayer
 62
  256
370
   -1
100
AcDbCircle
 10
-28.57999999999987
 20
104.5800000000005
 40
0.5
  0
CIRCLE
  5
C8
100
AcDbEntity
  8
universal_board
  6
ByLayer
 62
  256
370
   -1
100
AcDbCircle
 10
-20.96000000000021
 20
104.5800000000005
 40
0.5
  0
CIRCLE
  5
C9
100
AcDbEntity
  8
universal_board
  6
ByLayer
 62
  256
370
   -1
100
AcDbCircle
 10
-18.42000000000033
 20
104.5800000000005
 40
0.5
  0
CIRCLE
  5
CA
100
AcDbEntity
  8
universal_board
  6
ByLayer
 62
  256
370
   -1
100
AcDbCircle
 10
-15.88000000000045
 20
104.5800000000005
 40
0.5
  0
CIRCLE
  5
CB
100
AcDbEntity
  8
universal_board
  6
ByLayer
 62
  256
370
   -1
100
AcDbCircle
 10
-13.34000000000057
 20
104.5800000000005
 40
0.5
  0
CIRCLE
  5
CC
100
AcDbEntity
  8
universal_board
  6
ByLayer
 62
  256
370
   -1
100
AcDbCircle
 10
-10.80000000000069
 20
104.5800000000005
 40
0.5
  0
CIRCLE
  5
CD
100
AcDbEntity
  8
universal_board
  6
ByLayer
 62
  256
370
   -1
100
AcDbCircle
 10
1.899999999998769
 20
104.5800000000005
 40
0.5
  0
CIRCLE
  5
CE
100
AcDbEntity
  8
universal_board
  6
ByLayer
 62
  256
370
   -1
100
AcDbCircle
 10
-23.50000000000009
 20
107.1200000000005
 40
0.5
  0
CIRCLE
  5
CF
100
AcDbEntity
  8
universal_board
  6
ByLayer
 62
  256
370
   -1
100
AcDbCircle
 10
-26.03999999999998
 20
107.1200000000005
 40
0.5
  0
CIRCLE
  5
D0
100
AcDbEntity
  8
universal_board
  6
ByLayer
 62
  256
370
   -1
100
AcDbCircle
 10
-28.57999999999987
 20
107.1200000000005
 40
0.5
  0
CIRCLE
  5
D1
100
AcDbEntity
  8
universal_board
  6
ByLayer
 62
  256
370
   -1
100
AcDbCircle
 10
-20.96000000000021
 20
107.1200000000005
 40
0.5
  0
CIRCLE
  5
D2
100
AcDbEntity
  8
universal_board
  6
ByLayer
 62
  256
370
   -1
100
AcDbCircle
 10
-18.42000000000033
 20
107.1200000000005
 40
0.5
  0
CIRCLE
  5
D3
100
AcDbEntity
  8
universal_board
  6
ByLayer
 62
  256
370
   -1
100
AcDbCircle
 10
-15.88000000000045
 20
107.1200000000005
 40
0.5
  0
CIRCLE
  5
D4
100
AcDbEntity
  8
universal_board
  6
ByLayer
 62
  256
370
   -1
100
AcDbCircle
 10
-13.34000000000057
 20
107.1200000000005
 40
0.5
  0
CIRCLE
  5
D5
100
AcDbEntity
  8
universal_board
  6
ByLayer
 62
  256
370
   -1
100
AcDbCircle
 10
-10.80000000000069
 20
107.1200000000005
 40
0.5
  0
CIRCLE
  5
D6
100
AcDbEntity
  8
universal_board
  6
ByLayer
 62
  256
370
   -1
100
AcDbCircle
 10
1.899999999998769
 20
107.1200000000005
 40
0.5
  0
CIRCLE
  5
D7
100
AcDbEntity
  8
universal_board
  6
ByLayer
 62
  256
370
   -1
100
AcDbCircle
 10
-23.50000000000009
 20
109.6600000000006
 40
0.5
  0
CIRCLE
  5
D8
100
AcDbEntity
  8
universal_board
  6
ByLayer
 62
  256
370
   -1
100
AcDbCircle
 10
-26.03999999999998
 20
109.6600000000006
 40
0.5
  0
CIRCLE
  5
D9
100
AcDbEntity
  8
universal_board
  6
ByLayer
 62
  256
370
   -1
100
AcDbCircle
 10
-28.57999999999987
 20
109.6600000000006
 40
0.5
  0
CIRCLE
  5
DA
100
AcDbEntity
  8
universal_board
  6
ByLayer
 62
  256
370
   -1
100
AcDbCircle
 10
-20.96000000000021
 20
109.6600000000006
 40
0.5
  0
CIRCLE
  5
DB
100
AcDbEntity
  8
universal_board
  6
ByLayer
 62
  256
370
   -1
100
AcDbCircle
 10
-18.42000000000033
 20
109.6600000000006
 40
0.5
  0
CIRCLE
  5
DC
100
AcDbEntity
  8
universal_board
  6
ByLayer
 62
  256
370
   -1
100
AcDbCircle
 10
-15.88000000000045
 20
109.6600000000006
 40
0.5
  0
CIRCLE
  5
DD
100
AcDbEntity
  8
universal_board
  6
ByLayer
 62
  256
370
   -1
100
AcDbCircle
 10
-13.34000000000057
 20
109.6600000000006
 40
0.5
  0
CIRCLE
  5
DE
100
AcDbEntity
  8
universal_board
  6
ByLayer
 62
  256
370
   -1
100
AcDbCircle
 10
-10.80000000000069
 20
109.6600000000006
 40
0.5
  0
CIRCLE
  5
DF
100
AcDbEntity
  8
universal_board
  6
ByLayer
 62
  256
370
   -1
100
AcDbCircle
 10
1.899999999998769
 20
109.6600000000006
 40
0.5
  0
CIRCLE
  5
E0
100
AcDbEntity
  8
universal_board
  6
ByLayer
 62
  256
370
   -1
100
AcDbCircle
 10
-23.50000000000009
 20
112.2000000000006
 40
0.5
  0
CIRCLE
  5
E1
100
AcDbEntity
  8
universal_board
  6
ByLayer
 62
  256
370
   -1
100
AcDbCircle
 10
-26.03999999999998
 20
112.2000000000006
 40
0.5
  0
CIRCLE
  5
E2
100
AcDbEntity
  8
universal_board
  6
ByLayer
 62
  256
370
   -1
100
AcDbCircle
 10
-28.57999999999987
 20
112.2000000000006
 40
0.5
  0
CIRCLE
  5
E3
100
AcDbEntity
  8
universal_board
  6
ByLayer
 62
  256
370
   -1
100
AcDbCircle
 10
-20.96000000000021
 20
112.2000000000006
 40
0.5
  0
CIRCLE
  5
E4
100
AcDbEntity
  8
universal_board
  6
ByLayer
 62
  256
370
   -1
100
AcDbCircle
 10
-18.42000000000033
 20
112.2000000000006
 40
0.5
  0
CIRCLE
  5
E5
100
AcDbEntity
  8
universal_board
  6
ByLayer
 62
  256
370
   -1
100
AcDbCircle
 10
-15.88000000000045
 20
112.2000000000006
 40
0.5
  0
CIRCLE
  5
E6
100
AcDbEntity
  8
universal_board
  6
ByLayer
 62
  256
370
   -1
100
AcDbCircle
 10
-13.34000000000057
 20
112.2000000000006
 40
0.5
  0
CIRCLE
  5
E7
100
AcDbEntity
  8
universal_board
  6
ByLayer
 62
  256
370
   -1
100
AcDbCircle
 10
-10.80000000000069
 20
112.2000000000006
 40
0.5
  0
CIRCLE
  5
E8
100
AcDbEntity
  8
universal_board
  6
ByLayer
 62
  256
370
   -1
100
AcDbCircle
 10
1.899999999998769
 20
112.2000000000006
 40
0.5
  0
CIRCLE
  5
E9
100
AcDbEntity
  8
universal_board
  6
ByLayer
 62
  256
370
   -1
100
AcDbCircle
 10
-23.50000000000009
 20
114.7400000000006
 40
0.5
  0
CIRCLE
  5
EA
100
AcDbEntity
  8
universal_board
  6
ByLayer
 62
  256
370
   -1
100
AcDbCircle
 10
-26.03999999999998
 20
114.7400000000006
 40
0.5
  0
CIRCLE
  5
EB
100
AcDbEntity
  8
universal_board
  6
ByLayer
 62
  256
370
   -1
100
AcDbCircle
 10
-28.57999999999987
 20
114.7400000000006
 40
0.5
  0
CIRCLE
  5
EC
100
AcDbEntity
  8
universal_board
  6
ByLayer
 62
  256
370
   -1
100
AcDbCircle
 10
-20.96000000000021
 20
114.7400000000006
 40
0.5
  0
CIRCLE
  5
ED
100
AcDbEntity
  8
universal_board
  6
ByLayer
 62
  256
370
   -1
100
AcDbCircle
 10
-18.42000000000033
 20
114.7400000000006
 40
0.5
  0
CIRCLE
  5
EE
100
AcDbEntity
  8
universal_board
  6
ByLayer
 62
  256
370
   -1
100
AcDbCircle
 10
-15.88000000000045
 20
114.7400000000006
 40
0.5
  0
CIRCLE
  5
EF
100
AcDbEntity
  8
universal_board
  6
ByLayer
 62
  256
370
   -1
100
AcDbCircle
 10
-13.34000000000057
 20
114.7400000000006
 40
0.5
  0
CIRCLE
  5
F0
100
AcDbEntity
  8
universal_board
  6
ByLayer
 62
  256
370
   -1
100
AcDbCircle
 10
-10.80000000000069
 20
114.7400000000006
 40
0.5
  0
CIRCLE
  5
F1
100
AcDbEntity
  8
universal_board
  6
ByLayer
 62
  256
370
   -1
100
AcDbCircle
 10
1.899999999998769
 20
114.7400000000006
 40
0.5
  0
CIRCLE
  5
F2
100
AcDbEntity
  8
universal_board
  6
ByLayer
 62
  256
370
   -1
100
AcDbCircle
 10
-23.50000000000009
 20
117.2800000000006
 40
0.5
  0
CIRCLE
  5
F3
100
AcDbEntity
  8
universal_board
  6
ByLayer
 62
  256
370
   -1
100
AcDbCircle
 10
-26.03999999999998
 20
117.2800000000006
 40
0.5
  0
CIRCLE
  5
F4
100
AcDbEntity
  8
universal_board
  6
ByLayer
 62
  256
370
   -1
100
AcDbCircle
 10
-28.57999999999987
 20
117.2800000000006
 40
0.5
  0
CIRCLE
  5
F5
100
AcDbEntity
  8
universal_board
  6
ByLayer
 62
  256
370
   -1
100
AcDbCircle
 10
-20.96000000000021
 20
117.2800000000006
 40
0.5
  0
CIRCLE
  5
F6
100
AcDbEntity
  8
universal_board
  6
ByLayer
 62
  256
370
   -1
100
AcDbCircle
 10
-18.42000000000033
 20
117.2800000000006
 40
0.5
  0
CIRCLE
  5
F7
100
AcDbEntity
  8
universal_board
  6
ByLayer
 62
  256
370
   -1
100
AcDbCircle
 10
-15.88000000000045
 20
117.2800000000006
 40
0.5
  0
CIRCLE
  5
F8
100
AcDbEntity
  8
universal_board
  6
ByLayer
 62
  256
370
   -1
100
AcDbCircle
 10
-13.34000000000057
 20
117.2800000000006
 40
0.5
  0
CIRCLE
  5
F9
100
AcDbEntity
  8
universal_board
  6
ByLayer
 62
  256
370
   -1
100
AcDbCircle
 10
-10.80000000000069
 20
117.2800000000006
 40
0.5
  0
CIRCLE
  5
FA
100
AcDbEntity
  8
universal_board
  6
ByLayer
 62
  256
370
   -1
100
AcDbCircle
 10
1.899999999998769
 20
117.2800000000006
 40
0.5
  0
CIRCLE
  5
FB
100
AcDbEntity
  8
universal_board
  6
ByLayer
 62
  256
370
   -1
100
AcDbCircle
 10
-23.50000000000009
 20
124.9000000000007
 40
0.5
  0
CIRCLE
  5
FC
100
AcDbEntity
  8
universal_board
  6
ByLayer
 62
  256
370
   -1
100
AcDbCircle
 10
-26.03999999999998
 20
124.9000000000007
 40
0.5
  0
CIRCLE
  5
FD
100
AcDbEntity
  8
universal_board
  6
ByLayer
 62
  256
370
   -1
100
AcDbCircle
 10
-28.57999999999987
 20
124.9000000000007
 40
0.5
  0
CIRCLE
  5
FE
100
AcDbEntity
  8
universal_board
  6
ByLayer
 62
  256
370
   -1
100
AcDbCircle
 10
-20.96000000000021
 20
124.9000000000007
 40
0.5
  0
CIRCLE
  5
FF
100
AcDbEntity
  8
universal_board
  6
ByLayer
 62
  256
370
   -1
100
AcDbCircle
 10
-18.42000000000033
 20
124.9000000000007
 40
0.5
  0
CIRCLE
  5
100
100
AcDbEntity
  8
universal_board
  6
ByLayer
 62
  256
370
   -1
100
AcDbCircle
 10
-15.88000000000045
 20
124.9000000000007
 40
0.5
  0
CIRCLE
  5
101
100
AcDbEntity
  8
universal_board
  6
ByLayer
 62
  256
370
   -1
100
AcDbCircle
 10
-13.34000000000057
 20
124.9000000000007
 40
0.5
  0
CIRCLE
  5
102
100
AcDbEntity
  8
universal_board
  6
ByLayer
 62
  256
370
   -1
100
AcDbCircle
 10
-10.80000000000069
 20
124.9000000000007
 40
0.5
  0
CIRCLE
  5
103
100
AcDbEntity
  8
universal_board
  6
ByLayer
 62
  256
370
   -1
100
AcDbCircle
 10
1.899999999998769
 20
124.9000000000007
 40
0.5
  0
CIRCLE
  5
104
100
AcDbEntity
  8
universal_board
  6
ByLayer
 62
  256
370
   -1
100
AcDbCircle
 10
-23.50000000000009
 20
127.4400000000007
 40
0.5
  0
CIRCLE
  5
105
100
AcDbEntity
  8
universal_board
  6
ByLayer
 62
  256
370
   -1
100
AcDbCircle
 10
-26.03999999999998
 20
127.4400000000007
 40
0.5
  0
CIRCLE
  5
106
100
AcDbEntity
  8
universal_board
  6
ByLayer
 62
  256
370
   -1
100
AcDbCircle
 10
-28.57999999999987
 20
127.4400000000007
 40
0.5
  0
CIRCLE
  5
107
100
AcDbEntity
  8
universal_board
  6
ByLayer
 62
  256
370
   -1
100
AcDbCircle
 10
-20.96000000000021
 20
127.4400000000007
 40
0.5
  0
CIRCLE
  5
108
100
AcDbEntity
  8
universal_board
  6
ByLayer
 62
  256
370
   -1
100
AcDbCircle
 10
-18.42000000000033
 20
127.4400000000007
 40
0.5
  0
CIRCLE
  5
109
100
AcDbEntity
  8
universal_board
  6
ByLayer
 62
  256
370
   -1
100
AcDbCircle
 10
-15.88000000000045
 20
127.4400000000007
 40
0.5
  0
CIRCLE
  5
10A
100
AcDbEntity
  8
universal_board
  6
ByLayer
 62
  256
370
   -1
100
AcDbCircle
 10
-13.34000000000057
 20
127.4400000000007
 40
0.5
  0
CIRCLE
  5
10B
100
AcDbEntity
  8
universal_board
  6
ByLayer
 62
  256
370
   -1
100
AcDbCircle
 10
-10.80000000000069
 20
127.4400000000007
 40
0.5
  0
CIRCLE
  5
10C
100
AcDbEntity
  8
universal_board
  6
ByLayer
 62
  256
370
   -1
100
AcDbCircle
 10
1.899999999998769
 20
127.4400000000007
 40
0.5
  0
CIRCLE
  5
10D
100
AcDbEntity
  8
universal_board
  6
ByLayer
 62
  256
370
   -1
100
AcDbCircle
 10
-23.50000000000009
 20
129.9800000000007
 40
0.5
  0
CIRCLE
  5
10E
100
AcDbEntity
  8
universal_board
  6
ByLayer
 62
  256
370
   -1
100
AcDbCircle
 10
-26.03999999999998
 20
129.9800000000007
 40
0.5
  0
CIRCLE
  5
10F
100
AcDbEntity
  8
universal_board
  6
ByLayer
 62
  256
370
   -1
100
AcDbCircle
 10
-28.57999999999987
 20
129.9800000000007
 40
0.5
  0
CIRCLE
  5
110
100
AcDbEntity
  8
universal_board
  6
ByLayer
 62
  256
370
   -1
100
AcDbCircle
 10
-20.96000000000021
 20
129.9800000000007
 40
0.5
  0
CIRCLE
  5
111
100
AcDbEntity
  8
universal_board
  6
ByLayer
 62
  256
370
   -1
100
AcDbCircle
 10
-18.42000000000033
 20
129.9800000000007
 40
0.5
  0
CIRCLE
  5
112
100
AcDbEntity
  8
universal_board
  6
ByLayer
 62
  256
370
   -1
100
AcDbCircle
 10
-15.88000000000045
 20
129.9800000000007
 40
0.5
  0
CIRCLE
  5
113
100
AcDbEntity
  8
universal_board
  6
ByLayer
 62
  256
370
   -1
100
AcDbCircle
 10
-13.34000000000057
 20
129.9800000000007
 40
0.5
  0
CIRCLE
  5
114
100
AcDbEntity
  8
universal_board
  6
ByLayer
 62
  256
370
   -1
100
AcDbCircle
 10
-10.80000000000069
 20
129.9800000000007
 40
0.5
  0
CIRCLE
  5
115
100
AcDbEntity
  8
universal_board
  6
ByLayer
 62
  256
370
   -1
100
AcDbCircle
 10
1.899999999998769
 20
129.9800000000007
 40
0.5
  0
CIRCLE
  5
116
100
AcDbEntity
  8
universal_board
  6
ByLayer
 62
  256
370
   -1
100
AcDbCircle
 10
-23.50000000000009
 20
132.5200000000007
 40
0.5
  0
CIRCLE
  5
117
100
AcDbEntity
  8
universal_board
  6
ByLayer
 62
  256
370
   -1
100
AcDbCircle
 10
-26.03999999999998
 20
132.5200000000007
 40
0.5
  0
CIRCLE
  5
118
100
AcDbEntity
  8
universal_board
  6
ByLayer
 62
  256
370
   -1
100
AcDbCircle
 10
-28.57999999999987
 20
132.5200000000007
 40
0.5
  0
CIRCLE
  5
119
100
AcDbEntity
  8
universal_board
  6
ByLayer
 62
  256
370
   -1
100
AcDbCircle
 10
-20.96000000000021
 20
132.5200000000007
 40
0.5
  0
CIRCLE
  5
11A
100
AcDbEntity
  8
universal_board
  6
ByLayer
 62
  256
370
   -1
100
AcDbCircle
 10
-18.42000000000033
 20
132.5200000000007
 40
0.5
  0
CIRCLE
  5
11B
100
AcDbEntity
  8
universal_board
  6
ByLayer
 62
  256
370
   -1
100
AcDbCircle
 10
-15.88000000000045
 20
132.5200000000007
 40
0.5
  0
CIRCLE
  5
11C
100
AcDbEntity
  8
universal_board
  6
ByLayer
 62
  256
370
   -1
100
AcDbCircle
 10
-13.34000000000057
 20
132.5200000000007
 40
0.5
  0
CIRCLE
  5
11D
100
AcDbEntity
  8
universal_board
  6
ByLayer
 62
  256
370
   -1
100
AcDbCircle
 10
-10.80000000000069
 20
132.5200000000007
 40
0.5
  0
CIRCLE
  5
11E
100
AcDbEntity
  8
universal_board
  6
ByLayer
 62
  256
370
   -1
100
AcDbCircle
 10
1.899999999998769
 20
132.5200000000007
 40
0.5
  0
CIRCLE
  5
11F
100
AcDbEntity
  8
universal_board
  6
ByLayer
 62
  256
370
   -1
100
AcDbCircle
 10
-23.50000000000009
 20
135.0600000000008
 40
0.5
  0
CIRCLE
  5
120
100
AcDbEntity
  8
universal_board
  6
ByLayer
 62
  256
370
   -1
100
AcDbCircle
 10
-26.03999999999998
 20
135.0600000000008
 40
0.5
  0
CIRCLE
  5
121
100
AcDbEntity
  8
universal_board
  6
ByLayer
 62
  256
370
   -1
100
AcDbCircle
 10
-28.57999999999987
 20
135.0600000000008
 40
0.5
  0
CIRCLE
  5
122
100
AcDbEntity
  8
universal_board
  6
ByLayer
 62
  256
370
   -1
100
AcDbCircle
 10
-20.96000000000021
 20
135.0600000000008
 40
0.5
  0
CIRCLE
  5
123
100
AcDbEntity
  8
universal_board
  6
ByLayer
 62
  256
370
   -1
100
AcDbCircle
 10
-18.42000000000033
 20
135.0600000000008
 40
0.5
  0
CIRCLE
  5
124
100
AcDbEntity
  8
universal_board
  6
ByLayer
 62
  256
370
   -1
100
AcDbCircle
 10
-15.88000000000045
 20
135.0600000000008
 40
0.5
  0
CIRCLE
  5
125
100
AcDbEntity
  8
universal_board
  6
ByLayer
 62
  256
370
   -1
100
AcDbCircle
 10
-13.34000000000057
 20
135.0600000000008
 40
0.5
  0
CIRCLE
  5
126
100
AcDbEntity
  8
universal_board
  6
ByLayer
 62
  256
370
   -1
100
AcDbCircle
 10
-10.80000000000069
 20
135.0600000000008
 40
0.5
  0
CIRCLE
  5
127
100
AcDbEntity
  8
universal_board
  6
ByLayer
 62
  256
370
   -1
100
AcDbCircle
 10
1.899999999998769
 20
135.0600000000008
 40
0.5
  0
CIRCLE
  5
128
100
AcDbEntity
  8
universal_board
  6
ByLayer
 62
  256
370
   -1
100
AcDbCircle
 10
-23.50000000000009
 20
137.6000000000008
 40
0.5
  0
CIRCLE
  5
129
100
AcDbEntity
  8
universal_board
  6
ByLayer
 62
  256
370
   -1
100
AcDbCircle
 10
-26.03999999999998
 20
137.6000000000008
 40
0.5
  0
CIRCLE
  5
12A
100
AcDbEntity
  8
universal_board
  6
ByLayer
 62
  256
370
   -1
100
AcDbCircle
 10
-28.57999999999987
 20
137.6000000000008
 40
0.5
  0
CIRCLE
  5
12B
100
AcDbEntity
  8
universal_board
  6
ByLayer
 62
  256
370
   -1
100
AcDbCircle
 10
-20.96000000000021
 20
137.6000000000008
 40
0.5
  0
CIRCLE
  5
12C
100
AcDbEntity
  8
universal_board
  6
ByLayer
 62
  256
370
   -1
100
AcDbCircle
 10
-18.42000000000033
 20
137.6000000000008
 40
0.5
  0
CIRCLE
  5
12D
100
AcDbEntity
  8
universal_board
  6
ByLayer
 62
  256
370
   -1
100
AcDbCircle
 10
-15.88000000000045
 20
137.6000000000008
 40
0.5
  0
CIRCLE
  5
12E
100
AcDbEntity
  8
universal_board
  6
ByLayer
 62
  256
370
   -1
100
AcDbCircle
 10
-13.34000000000057
 20
137.6000000000008
 40
0.5
  0
CIRCLE
  5
12F
100
AcDbEntity
  8
universal_board
  6
ByLayer
 62
  256
370
   -1
100
AcDbCircle
 10
-10.80000000000069
 20
137.6000000000008
 40
0.5
  0
CIRCLE
  5
130
100
AcDbEntity
  8
universal_board
  6
ByLayer
 62
  256
370
   -1
100
AcDbCircle
 10
1.899999999998769
 20
137.6000000000008
 40
0.5
  0
CIRCLE
  5
131
100
AcDbEntity
  8
universal_board
  6
ByLayer
 62
  256
370
   -1
100
AcDbCircle
 10
-23.50000000000009
 20
140.1400000000008
 40
0.5
  0
CIRCLE
  5
132
100
AcDbEntity
  8
universal_board
  6
ByLayer
 62
  256
370
   -1
100
AcDbCircle
 10
-26.03999999999998
 20
140.1400000000008
 40
0.5
  0
CIRCLE
  5
133
100
AcDbEntity
  8
universal_board
  6
ByLayer
 62
  256
370
   -1
100
AcDbCircle
 10
-28.57999999999987
 20
140.1400000000008
 40
0.5
  0
CIRCLE
  5
134
100
AcDbEntity
  8
universal_board
  6
ByLayer
 62
  256
370
   -1
100
AcDbCircle
 10
-20.96000000000021
 20
140.1400000000008
 40
0.5
  0
CIRCLE
  5
135
100
AcDbEntity
  8
universal_board
  6
ByLayer
 62
  256
370
   -1
100
AcDbCircle
 10
-18.42000000000033
 20
140.1400000000008
 40
0.5
  0
CIRCLE
  5
136
100
AcDbEntity
  8
universal_board
  6
ByLayer
 62
  256
370
   -1
100
AcDbCircle
 10
-15.88000000000045
 20
140.1400000000008
 40
0.5
  0
CIRCLE
  5
137
100
AcDbEntity
  8
universal_board
  6
ByLayer
 62
  256
370
   -1
100
AcDbCircle
 10
-13.34000000000057
 20
140.1400000000008
 40
0.5
  0
CIRCLE
  5
138
100
AcDbEntity
  8
universal_board
  6
ByLayer
 62
  256
370
   -1
100
AcDbCircle
 10
-10.80000000000069
 20
140.1400000000008
 40
0.5
  0
CIRCLE
  5
139
100
AcDbEntity
  8
universal_board
  6
ByLayer
 62
  256
370
   -1
100
AcDbCircle
 10
1.899999999998769
 20
140.1400000000008
 40
0.5
  0
CIRCLE
  5
13A
100
AcDbEntity
  8
universal_board
  6
ByLayer
 62
  256
370
   -1
100
AcDbCircle
 10
-23.50000000000009
 20
142.6800000000008
 40
0.5
  0
CIRCLE
  5
13B
100
AcDbEntity
  8
universal_board
  6
ByLayer
 62
  256
370
   -1
100
AcDbCircle
 10
-26.03999999999998
 20
142.6800000000008
 40
0.5
  0
CIRCLE
  5
13C
100
AcDbEntity
  8
universal_board
  6
ByLayer
 62
  256
370
   -1
100
AcDbCircle
 10
-28.57999999999987
 20
142.6800000000008
 40
0.5
  0
CIRCLE
  5
13D
100
AcDbEntity
  8
universal_board
  6
ByLayer
 62
  256
370
   -1
100
AcDbCircle
 10
-20.96000000000021
 20
142.6800000000008
 40
0.5
  0
CIRCLE
  5
13E
100
AcDbEntity
  8
universal_board
  6
ByLayer
 62
  256
370
   -1
100
AcDbCircle
 10
-18.42000000000033
 20
142.6800000000008
 40
0.5
  0
CIRCLE
  5
13F
100
AcDbEntity
  8
universal_board
  6
ByLayer
 62
  256
370
   -1
100
AcDbCircle
 10
-15.88000000000045
 20
142.6800000000008
 40
0.5
  0
CIRCLE
  5
140
100
AcDbEntity
  8
universal_board
  6
ByLayer
 62
  256
370
   -1
100
AcDbCircle
 10
-13.34000000000057
 20
142.6800000000008
 40
0.5
  0
CIRCLE
  5
141
100
AcDbEntity
  8
universal_board
  6
ByLayer
 62
  256
370
   -1
100
AcDbCircle
 10
-10.80000000000069
 20
142.6800000000008
 40
0.5
  0
CIRCLE
  5
142
100
AcDbEntity
  8
universal_board
  6
ByLayer
 62
  256
370
   -1
100
AcDbCircle
 10
1.899999999998769
 20
142.6800000000008
 40
0.5
  0
CIRCLE
  5
143
100
AcDbEntity
  8
universal_board
  6
ByLayer
 62
  256
370
   -1
100
AcDbCircle
 10
-23.50000000000009
 20
145.2200000000009
 40
0.5
  0
CIRCLE
  5
144
100
AcDbEntity
  8
universal_board
  6
ByLayer
 62
  256
370
   -1
100
AcDbCircle
 10
-26.03999999999998
 20
145.2200000000009
 40
0.5
  0
CIRCLE
  5
145
100
AcDbEntity
  8
universal_board
  6
ByLayer
 62
  256
370
   -1
100
AcDbCircle
 10
-28.57999999999987
 20
145.2200000000009
 40
0.5
  0
CIRCLE
  5
146
100
AcDbEntity
  8
universal_board
  6
ByLayer
 62
  256
370
   -1
100
AcDbCircle
 10
-20.96000000000021
 20
145.2200000000009
 40
0.5
  0
CIRCLE
  5
147
100
AcDbEntity
  8
universal_board
  6
ByLayer
 62
  256
370
   -1
100
AcDbCircle
 10
-18.42000000000033
 20
145.2200000000009
 40
0.5
  0
CIRCLE
  5
148
100
AcDbEntity
  8
universal_board
  6
ByLayer
 62
  256
370
   -1
100
AcDbCircle
 10
-15.88000000000045
 20
145.2200000000009
 40
0.5
  0
CIRCLE
  5
149
100
AcDbEntity
  8
universal_board
  6
ByLayer
 62
  256
370
   -1
100
AcDbCircle
 10
-13.34000000000057
 20
145.2200000000009
 40
0.5
  0
CIRCLE
  5
14A
100
AcDbEntity
  8
universal_board
  6
ByLayer
 62
  256
370
   -1
100
AcDbCircle
 10
-10.80000000000069
 20
145.2200000000009
 40
0.5
  0
CIRCLE
  5
14B
100
AcDbEntity
  8
universal_board
  6
ByLayer
 62
  256
370
   -1
100
AcDbCircle
 10
1.899999999998769
 20
145.2200000000009
 40
0.5
  0
CIRCLE
  5
14C
100
AcDbEntity
  8
universal_board
  6
ByLayer
 62
  256
370
   -1
100
AcDbCircle
 10
-23.50000000000009
 20
147.7600000000009
 40
0.5
  0
CIRCLE
  5
14D
100
AcDbEntity
  8
universal_board
  6
ByLayer
 62
  256
370
   -1
100
AcDbCircle
 10
-26.03999999999998
 20
147.7600000000009
 40
0.5
  0
CIRCLE
  5
14E
100
AcDbEntity
  8
universal_board
  6
ByLayer
 62
  256
370
   -1
100
AcDbCircle
 10
-28.57999999999987
 20
147.7600000000009
 40
0.5
  0
CIRCLE
  5
14F
100
AcDbEntity
  8
universal_board
  6
ByLayer
 62
  256
370
   -1
100
AcDbCircle
 10
-20.96000000000021
 20
147.7600000000009
 40
0.5
  0
CIRCLE
  5
150
100
AcDbEntity
  8
universal_board
  6
ByLayer
 62
  256
370
   -1
100
AcDbCircle
 10
-18.42000000000033
 20
147.7600000000009
 40
0.5
  0
CIRCLE
  5
151
100
AcDbEntity
  8
universal_board
  6
ByLayer
 62
  256
370
   -1
100
AcDbCircle
 10
-15.88000000000045
 20
147.7600000000009
 40
0.5
  0
CIRCLE
  5
152
100
AcDbEntity
  8
universal_board
  6
ByLayer
 62
  256
370
   -1
100
AcDbCircle
 10
-13.34000000000057
 20
147.7600000000009
 40
0.5
  0
CIRCLE
  5
153
100
AcDbEntity
  8
universal_board
  6
ByLayer
 62
  256
370
   -1
100
AcDbCircle
 10
-10.80000000000069
 20
147.7600000000009
 40
0.5
  0
CIRCLE
  5
154
100
AcDbEntity
  8
universal_board
  6
ByLayer
 62
  256
370
   -1
100
AcDbCircle
 10
1.899999999998769
 20
147.7600000000009
 40
0.5
  0
CIRCLE
  5
155
100
AcDbEntity
  8
universal_board
  6
ByLayer
 62
  256
370
   -1
100
AcDbCircle
 10
-23.50000000000009
 20
150.3000000000009
 40
0.5
  0
CIRCLE
  5
156
100
AcDbEntity
  8
universal_board
  6
ByLayer
 62
  256
370
   -1
100
AcDbCircle
 10
-26.03999999999998
 20
150.3000000000009
 40
0.5
  0
CIRCLE
  5
157
100
AcDbEntity
  8
universal_board
  6
ByLayer
 62
  256
370
   -1
100
AcDbCircle
 10
-28.57999999999987
 20
150.3000000000009
 40
0.5
  0
CIRCLE
  5
158
100
AcDbEntity
  8
universal_board
  6
ByLayer
 62
  256
370
   -1
100
AcDbCircle
 10
-20.96000000000021
 20
150.3000000000009
 40
0.5
  0
CIRCLE
  5
159
100
AcDbEntity
  8
universal_board
  6
ByLayer
 62
  256
370
   -1
100
AcDbCircle
 10
-18.42000000000033
 20
150.3000000000009
 40
0.5
  0
CIRCLE
  5
15A
100
AcDbEntity
  8
universal_board
  6
ByLayer
 62
  256
370
   -1
100
AcDbCircle
 10
-15.88000000000045
 20
150.3000000000009
 40
0.5
  0
CIRCLE
  5
15B
100
AcDbEntity
  8
universal_board
  6
ByLayer
 62
  256
370
   -1
100
AcDbCircle
 10
-13.34000000000057
 20
150.3000000000009
 40
0.5
  0
CIRCLE
  5
15C
100
AcDbEntity
  8
universal_board
  6
ByLayer
 62
  256
370
   -1
100
AcDbCircle
 10
-10.80000000000069
 20
150.3000000000009
 40
0.5
  0
CIRCLE
  5
15D
100
AcDbEntity
  8
universal_board
  6
ByLayer
 62
  256
370
   -1
100
AcDbCircle
 10
1.899999999998769
 20
150.3000000000009
 40
0.5
  0
CIRCLE
  5
15E
100
AcDbEntity
  8
universal_board
  6
ByLayer
 62
  256
370
   -1
100
AcDbCircle
 10
-23.50000000000009
 20
152.8400000000009
 40
0.5
  0
CIRCLE
  5
15F
100
AcDbEntity
  8
universal_board
  6
ByLayer
 62
  256
370
   -1
100
AcDbCircle
 10
-26.03999999999998
 20
152.8400000000009
 40
0.5
  0
CIRCLE
  5
160
100
AcDbEntity
  8
universal_board
  6
ByLayer
 62
  256
370
   -1
100
AcDbCircle
 10
-28.57999999999987
 20
152.8400000000009
 40
0.5
  0
CIRCLE
  5
161
100
AcDbEntity
  8
universal_board
  6
ByLayer
 62
  256
370
   -1
100
AcDbCircle
 10
-20.96000000000021
 20
152.8400000000009
 40
0.5
  0
CIRCLE
  5
162
100
AcDbEntity
  8
universal_board
  6
ByLayer
 62
  256
370
   -1
100
AcDbCircle
 10
-18.42000000000033
 20
152.8400000000009
 40
0.5
  0
CIRCLE
  5
163
100
AcDbEntity
  8
universal_board
  6
ByLayer
 62
  256
370
   -1
100
AcDbCircle
 10
-15.88000000000045
 20
152.8400000000009
 40
0.5
  0
CIRCLE
  5
164
100
AcDbEntity
  8
universal_board
  6
ByLayer
 62
  256
370
   -1
100
AcDbCircle
 10
-13.34000000000057
 20
152.8400000000009
 40
0.5
  0
CIRCLE
  5
165
100
AcDbEntity
  8
universal_board
  6
ByLayer
 62
  256
370
   -1
100
AcDbCircle
 10
-10.80000000000069
 20
152.8400000000009
 40
0.5
  0
CIRCLE
  5
166
100
AcDbEntity
  8
universal_board
  6
ByLayer
 62
  256
370
   -1
100
AcDbCircle
 10
1.899999999998769
 20
152.8400000000009
 40
0.5
  0
CIRCLE
  5
167
100
AcDbEntity
  8
terminal
  6
ByLayer
 62
  256
370
   -1
100
AcDbCircle
 10
-20.94000000000163
 20
145.7600000000001
 40
0.46
  0
CIRCLE
  5
168
100
AcDbEntity
  8
terminal
  6
ByLayer
 62
  256
370
   -1
100
AcDbCircle
 10
-18.43999999999955
 20
145.7599998922259
 40
0.46
  0
CIRCLE
  5
169
100
AcDbEntity
  8
terminal
  6
ByLayer
 62
  256
370
   -1
100
AcDbCircle
 10
-20.94000000000163
 20
147.7600000000009
 40
0.46
  0
CIRCLE
  5
16A
100
AcDbEntity
  8
terminal
  6
ByLayer
 62
  256
370
   -1
100
AcDbCircle
 10
-18.43999999999955
 20
147.7599998922267
 40
0.46
  0
CIRCLE
  5
16B
100
AcDbEntity
  8
terminal
  6
ByLayer
 62
  256
370
   -1
100
AcDbCircle
 10
-25.71000000000018
 20
150.4600000000009
 40
1.15
  0
CIRCLE
  5
16C
100
AcDbEntity
  8
terminal
  6
ByLayer
 62
  256
370
   -1
100
AcDbCircle
 10
-13.67000000000103
 20
150.4600000000009
 40
1.15
  0
LINE
  5
16D
100
AcDbEntity
  8
terminal
  6
ByLayer
 62
  256
370
   -1
100
AcDbLine
 10
-25.7099984701359
 20
160.7400000000009
 11
-25.7099984701359
 21
144.7400000000009
  0
LINE
  5
16E
100
AcDbEntity
  8
terminal
  6
ByLayer
 62
  256
370
   -1
100
AcDbLine
 10
-25.7099984701359
 20
144.7400000000009
 11
-13.66999847013637
 21
144.7400000000009
  0
LINE
  5
16F
100
AcDbEntity
  8
terminal
  6
ByLayer
 62
  256
370
   -1
100
AcDbLine
 10
-13.66999847013637
 20
144.7400000000009
 11
-13.66999847013637
 21
160.7400000000009
  0
LINE
  5
170
100
AcDbEntity
  8
terminal
  6
ByLayer
 62
  256
370
   -1
100
AcDbLine
 10
-13.66999847013637
 20
160.7400000000009
 11
-25.7099984701359
 21
160.7400000000009
  0
CIRCLE
  5
171
100
AcDbEntity
  8
kakou
  6
ByLayer
 62
  256
370
   -1
100
AcDbCircle
 10
-20.96000000000021
 20
145.2200000000009
 40
1
  0
CIRCLE
  5
172
100
AcDbEntity
  8
kakou
  6
ByLayer
 62
  256
370
   -1
100
AcDbCircle
 10
-18.42000000000033
 20
145.2200000000009
 40
1
  0
CIRCLE
  5
173
100
AcDbEntity
  8
kakou
  6
ByLayer
 62
  256
370
   -1
100
AcDbCircle
 10
-26.03999999999997
 20
150.3000000000009
 40
1.4
  0
CIRCLE
  5
174
100
AcDbEntity
  8
kakou
  6
ByLayer
 62
  256
370
   -1
100
AcDbCircle
 10
-13.34000000000057
 20
150.3000000000009
 40
1.4
  0
LINE
  5
175
100
AcDbEntity
  8
micon
  6
ByLayer
 62
  256
370
   -1
100
AcDbLine
 10
-16.5150000000019
 20
142.0450000000009
 11
-16.5150000000019
 21
122.9950000000006
  0
LINE
  5
176
100
AcDbEntity
  8
micon
  6
ByLayer
 62
  256
370
   -1
100
AcDbLine
 10
-22.86500000000209
 20
122.9950000000006
 11
-22.86500000000209
 21
142.0450000000009
  0
LINE
  5
177
100
AcDbEntity
  8
micon
  6
ByLayer
 62
  256
370
   -1
100
AcDbLine
 10
-23.50000000000009
 20
140.1400000000008
 11
-22.86500000000209
 21
140.1400000000008
  0
LINE
  5
178
100
AcDbEntity
  8
micon
  6
ByLayer
 62
  256
370
   -1
100
AcDbLine
 10
-23.50000000000009
 20
137.6000000000008
 11
-22.86500000000209
 21
137.6000000000008
  0
LINE
  5
179
100
AcDbEntity
  8
micon
  6
ByLayer
 62
  256
370
   -1
100
AcDbLine
 10
-23.50000000000009
 20
135.0600000000008
 11
-22.86500000000209
 21
135.0600000000008
  0
LINE
  5
17A
100
AcDbEntity
  8
micon
  6
ByLayer
 62
  256
370
   -1
100
AcDbLine
 10
-23.50000000000009
 20
132.5200000000007
 11
-22.86500000000209
 21
132.5200000000007
  0
LINE
  5
17B
100
AcDbEntity
  8
micon
  6
ByLayer
 62
  256
370
   -1
100
AcDbLine
 10
-23.50000000000009
 20
129.9800000000007
 11
-22.86500000000209
 21
129.9800000000007
  0
LINE
  5
17C
100
AcDbEntity
  8
micon
  6
ByLayer
 62
  256
370
   -1
100
AcDbLine
 10
-23.50000000000009
 20
127.4400000000007
 11
-22.86500000000209
 21
127.4400000000007
  0
LINE
  5
17D
100
AcDbEntity
  8
micon
  6
ByLayer
 62
  256
370
   -1
100
AcDbLine
 10
-23.50000000000009
 20
124.9000000000007
 11
-22.86500000000209
 21
124.9000000000007
  0
LINE
  5
17E
100
AcDbEntity
  8
micon
  6
ByLayer
 62
  256
370
   -1
100
AcDbLine
 10
-16.5150000000019
 20
124.9000000000007
 11
-15.88000000000045
 21
124.9000000000007
  0
LINE
  5
17F
100
AcDbEntity
  8
micon
  6
ByLayer
 62
  256
370
   -1
100
AcDbLine
 10
-16.5150000000019
 20
127.4400000000007
 11
-15.88000000000045
 21
127.4400000000007
  0
LINE
  5
180
100
AcDbEntity
  8
micon
  6
ByLayer
 62
  256
370
   -1
100
AcDbLine
 10
-16.5150000000019
 20
129.9800000000007
 11
-15.88000000000045
 21
129.9800000000007
  0
LINE
  5
181
100
AcDbEntity
  8
micon
  6
ByLayer
 62
  256
370
   -1
100
AcDbLine
 10
-16.5150000000019
 20
132.5200000000007
 11
-15.88000000000045
 21
132.5200000000007
  0
LINE
  5
182
100
AcDbEntity
  8
micon
  6
ByLayer
 62
  256
370
   -1
100
AcDbLine
 10
-16.5150000000019
 20
135.0600000000008
 11
-15.88000000000045
 21
135.0600000000008
  0
LINE
  5
183
100
AcDbEntity
  8
micon
  6
ByLayer
 62
  256
370
   -1
100
AcDbLine
 10
-16.5150000000019
 20
137.6000000000008
 11
-15.88000000000045
 21
137.6000000000008
  0
LINE
  5
184
100
AcDbEntity
  8
micon
  6
ByLayer
 62
  256
370
   -1
100
AcDbLine
 10
-16.5150000000019
 20
140.1400000000008
 11
-15.88000000000045
 21
140.1400000000008
  0
ARC
  5
185
100
AcDbEntity
  8
micon
  6
ByLayer
 62
  256
370
   -1
100
AcDbCircle
 10
-19.69000000000199
 20
142.0450000000009
 40
1.27
100
AcDbArc
 50
179.9999999999987
 51
0
  0
MTEXT
  5
186
100
AcDbEntity
  8
micon
  6
ByLayer
 62
  256
370
   -1
100
AcDbMText
 10
-22.52087288283456
 20
141.2726733104399
 30
0
 40
1
 41
1.222222222222222
 71
    4
 72
    1
  1
M1
  7
iso
210
0
220
0
230
1
 50
0
 73
    2
 44
1.54
  0
LINE
  5
187
100
AcDbEntity
  8
socket_header
  6
ByLayer
 62
  256
370
   -1
100
AcDbLine
 10
-24.7700000000013
 20
141.4100000000001
 11
-24.7700000000013
 21
123.63
  0
LINE
  5
188
100
AcDbEntity
  8
socket_header
  6
ByLayer
 62
  256
370
   -1
100
AcDbLine
 10
-24.7700000000013
 20
123.63
 11
-14.61000000000178
 21
123.63
  0
LINE
  5
189
100
AcDbEntity
  8
socket_header
  6
ByLayer
 62
  256
370
   -1
100
AcDbLine
 10
-14.61000000000178
 20
123.63
 11
-14.61000000000178
 21
141.4100000000001
  0
LINE
  5
18A
100
AcDbEntity
  8
socket_header
  6
ByLayer
 62
  256
370
   -1
100
AcDbLine
 10
-14.61000000000178
 20
141.4100000000001
 11
-24.7700000000013
 21
141.4100000000001
  0
LINE
  5
18B
100
AcDbEntity
  8
socket_header
  6
ByLayer
 62
  256
370
   -1
100
AcDbLine
 10
-22.23000000000142
 20
141.4100000000001
 11
-22.23000000000142
 21
123.63
  0
LINE
  5
18C
100
AcDbEntity
  8
socket_header
  6
ByLayer
 62
  256
370
   -1
100
AcDbLine
 10
-17.15000000000165
 20
123.63
 11
-17.15000000000165
 21
141.4100000000001
  0
LINE
  5
18D
100
AcDbEntity
  8
socket_header
  6
ByLayer
 62
  256
370
   -1
100
AcDbLine
 10
-22.23000000000142
 20
138.8700000000001
 11
-24.7700000000013
 21
138.8700000000001
  0
LINE
  5
18E
100
AcDbEntity
  8
socket_header
  6
ByLayer
 62
  256
370
   -1
100
AcDbLine
 10
-22.23000000000142
 20
136.3300000000001
 11
-24.7700000000013
 21
136.3300000000001
  0
LINE
  5
18F
100
AcDbEntity
  8
socket_header
  6
ByLayer
 62
  256
370
   -1
100
AcDbLine
 10
-22.23000000000142
 20
133.7900000000001
 11
-24.7700000000013
 21
133.7900000000001
  0
LINE
  5
190
100
AcDbEntity
  8
socket_header
  6
ByLayer
 62
  256
370
   -1
100
AcDbLine
 10
-22.23000000000142
 20
131.2500000000001
 11
-24.7700000000013
 21
131.2500000000001
  0
LINE
  5
191
100
AcDbEntity
  8
socket_header
  6
ByLayer
 62
  256
370
   -1
100
AcDbLine
 10
-22.23000000000142
 20
128.71
 11
-24.7700000000013
 21
128.71
  0
LINE
  5
192
100
AcDbEntity
  8
socket_header
  6
ByLayer
 62
  256
370
   -1
100
AcDbLine
 10
-22.23000000000142
 20
126.17
 11
-24.7700000000013
 21
126.17
  0
LINE
  5
193
100
AcDbEntity
  8
socket_header
  6
ByLayer
 62
  256
370
   -1
100
AcDbLine
 10
-14.61000000000178
 20
138.8700000000001
 11
-17.15000000000166
 21
138.8700000000001
  0
LINE
  5
194
100
AcDbEntity
  8
socket_header
  6
ByLayer
 62
  256
370
   -1
100
AcDbLine
 10
-14.61000000000178
 20
136.3300000000001
 11
-17.15000000000166
 21
136.3300000000001
  0
LINE
  5
195
100
AcDbEntity
  8
socket_header
  6
ByLayer
 62
  256
370
   -1
100
AcDbLine
 10
-14.61000000000178
 20
133.7900000000001
 11
-17.15000000000166
 21
133.7900000000001
  0
LINE
  5
196
100
AcDbEntity
  8
socket_header
  6
ByLayer
 62
  256
370
   -1
100
AcDbLine
 10
-14.61000000000178
 20
131.2500000000001
 11
-17.15000000000166
 21
131.2500000000001
  0
LINE
  5
197
100
AcDbEntity
  8
socket_header
  6
ByLayer
 62
  256
370
   -1
100
AcDbLine
 10
-14.61000000000178
 20
128.71
 11
-17.15000000000166
 21
128.71
  0
LINE
  5
198
100
AcDbEntity
  8
socket_header
  6
ByLayer
 62
  256
370
   -1
100
AcDbLine
 10
-14.61000000000178
 20
126.17
 11
-17.15000000000166
 21
126.17
  0
LINE
  5
199
100
AcDbEntity
  8
socket_header
  6
ByLayer
 62
  256
370
   -1
100
AcDbLine
 10
-27.3100000000012
 20
138.8700000000001
 11
-29.85000000000108
 21
138.8700000000001
  0
LINE
  5
19A
100
AcDbEntity
  8
socket_header
  6
ByLayer
 62
  256
370
   -1
100
AcDbLine
 10
-27.3100000000012
 20
136.3300000000001
 11
-29.85000000000108
 21
136.3300000000001
  0
LINE
  5
19B
100
AcDbEntity
  8
socket_header
  6
ByLayer
 62
  256
370
   -1
100
AcDbLine
 10
-27.3100000000012
 20
133.7900000000001
 11
-29.85000000000108
 21
133.7900000000001
  0
LINE
  5
19C
100
AcDbEntity
  8
socket_header
  6
ByLayer
 62
  256
370
   -1
100
AcDbLine
 10
-27.3100000000012
 20
128.71
 11
-29.85000000000108
 21
128.71
  0
LINE
  5
19D
100
AcDbEntity
  8
socket_header
  6
ByLayer
 62
  256
370
   -1
100
AcDbLine
 10
-27.3100000000012
 20
126.17
 11
-29.85000000000108
 21
126.17
  0
LINE
  5
19E
100
AcDbEntity
  8
socket_header
  6
ByLayer
 62
  256
370
   -1
100
AcDbLine
 10
-9.530000000002019
 20
138.8700000000001
 11
-12.0700000000019
 21
138.8700000000001
  0
LINE
  5
19F
100
AcDbEntity
  8
socket_header
  6
ByLayer
 62
  256
370
   -1
100
AcDbLine
 10
-9.530000000002019
 20
136.3300000000001
 11
-12.0700000000019
 21
136.3300000000001
  0
LINE
  5
1A0
100
AcDbEntity
  8
socket_header
  6
ByLayer
 62
  256
370
   -1
100
AcDbLine
 10
-9.530000000002019
 20
128.71
 11
-12.0700000000019
 21
128.71
  0
LINE
  5
1A1
100
AcDbEntity
  8
socket_header
  6
ByLayer
 62
  256
370
   -1
100
AcDbLine
 10
-9.530000000002019
 20
126.17
 11
-12.0700000000019
 21
126.17
  0
LINE
  5
1A2
100
AcDbEntity
  8
socket_header
  6
ByLayer
 62
  256
370
   -1
100
AcDbLine
 10
-27.3100000000012
 20
141.4100000000001
 11
-29.85000000000108
 21
141.4100000000001
  0
LINE
  5
1A3
100
AcDbEntity
  8
socket_header
  6
ByLayer
 62
  256
370
   -1
100
AcDbLine
 10
-9.530000000002019
 20
141.4100000000001
 11
-12.0700000000019
 21
141.4100000000001
  0
LINE
  5
1A4
100
AcDbEntity
  8
socket_header
  6
ByLayer
 62
  256
370
   -1
100
AcDbLine
 10
-27.3100000000012
 20
123.63
 11
-29.85000000000108
 21
123.63
  0
LINE
  5
1A5
100
AcDbEntity
  8
socket_header
  6
ByLayer
 62
  256
370
   -1
100
AcDbLine
 10
-9.530000000002019
 20
123.63
 11
-12.0700000000019
 21
123.63
  0
MTEXT
  5
1A6
100
AcDbEntity
  8
terminal
  6
ByLayer
 62
  256
370
   -1
100
AcDbMText
 10
-23.80970149042462
 20
146.9426957156343
 30
0
 40
1
 41
4.777777777777839
 71
    5
 72
    1
  1
4_GND\P1_V
  7
iso
210
0
220
0
230
1
 50
0
 73
    2
 44
1.54
  0
MTEXT
  5
1A7
100
AcDbEntity
  8
terminal
  6
ByLayer
 62
  256
370
   -1
100
AcDbMText
 10
-15.6185261355035
 20
147.0910865735133
 30
0
 40
1
 41
3.66666666666679
 71
    5
 72
    1
  1
3_D+\P2_D-
  7
iso
210
0
220
0
230
1
 50
0
 73
    2
 44
1.54
  0
LINE
  5
1A8
100
AcDbEntity
  8
micon
  6
ByLayer
 62
  256
370
   -1
100
AcDbLine
 10
-22.86500000000209
 20
142.0450000000009
 11
-16.5150000000019
 21
142.0450000000009
  0
LINE
  5
1A9
100
AcDbEntity
  8
5V line
  6
ByLayer
 62
  256
370
   -1
100
AcDbLine
 10
-20.96000000000021
 20
145.2200000000009
 11
-20.96000000000021
 21
140.1400000000008
  0
LINE
  5
1AA
100
AcDbEntity
  8
5V line
  6
ByLayer
 62
  256
370
   -1
100
AcDbLine
 10
-20.96000000000021
 20
140.1400000000008
 11
-23.50000000000009
 21
140.1400000000008
  0
LINE
  5
1AB
100
AcDbEntity
  8
0_wire
  6
ByLayer
 62
  256
370
   -1
100
AcDbLine
 10
-18.42000000000033
 20
145.2200000000009
 11
-18.42000000000033
 21
135.0600000000008
  0
LINE
  5
1AC
100
AcDbEntity
  8
0_wire
  6
ByLayer
 62
  256
370
   -1
100
AcDbLine
 10
-18.42000000000033
 20
135.0600000000008
 11
-15.88000000000045
 21
135.0600000000008
  0
LINE
  5
1AD
100
AcDbEntity
  8
0_wire
  6
ByLayer
 62
  256
370
   -1
100
AcDbLine
 10
-13.34000000000057
 20
137.6000000000008
 11
-15.88000000000045
 21
137.6000000000008
  0
LINE
  5
1AE
100
AcDbEntity
  8
5V line
  6
ByLayer
 62
  256
370
   -1
100
AcDbLine
 10
-23.50000000000009
 20
140.1400000000008
 11
-28.57999999999987
 21
140.1400000000008
  0
LINE
  5
1AF
100
AcDbEntity
  8
0_GND
  6
ByLayer
 62
  256
370
   -1
100
AcDbLine
 10
-15.88000000000045
 20
140.1400000000008
 11
-10.80000000000069
 21
140.1400000000008
  0
LINE
  5
1B0
100
AcDbEntity
  8
0_GND
  6
ByLayer
 62
  256
370
   -1
100
AcDbLine
 10
-20.94000000000163
 20
147.7600000000009
 11
-20.96000000000021
 21
150.3000000000009
  0
LINE
  5
1B1
100
AcDbEntity
  8
0_GND
  6
ByLayer
 62
  256
370
   -1
100
AcDbLine
 10
-20.96000000000021
 20
150.3000000000009
 11
-26.03999999999998
 21
150.3000000000009
  0
LINE
  5
1B2
100
AcDbEntity
  8
0_GND
  6
ByLayer
 62
  256
370
   -1
100
AcDbLine
 10
-20.96000000000021
 20
150.3000000000009
 11
-13.34000000000057
 21
150.3000000000009
  0
LINE
  5
1B3
100
AcDbEntity
  8
0_GND
  6
ByLayer
 62
  256
370
   -1
100
AcDbLine
 10
-20.96000000000021
 20
150.3000000000009
 11
-20.96000000000021
 21
152.8400000000009
  0
LINE
  5
1B4
100
AcDbEntity
  8
0_GND
  6
ByLayer
 62
  256
370
   -1
100
AcDbLine
 10
-20.96000000000021
 20
152.8400000000009
 11
-10.80000000000069
 21
152.8400000000009
  0
LINE
  5
1B5
100
AcDbEntity
  8
0_GND
  6
ByLayer
 62
  256
370
   -1
100
AcDbLine
 10
-10.80000000000069
 20
152.8400000000009
 11
-10.80000000000069
 21
140.1400000000008
  0
LINE
  5
1B6
100
AcDbEntity
  8
0_wire
  6
ByLayer
 62
  256
370
   -1
100
AcDbLine
 10
-23.50000000000009
 20
127.4400000000007
 11
-28.57999999999987
 21
127.4400000000007
  0
CIRCLE
  5
1B7
100
AcDbEntity
  8
universal_board
  6
ByLayer
 62
  256
370
   -1
100
AcDbCircle
 10
4.439999999998719
 20
124.9000000000007
 40
0.5
  0
CIRCLE
  5
1B8
100
AcDbEntity
  8
universal_board
  6
ByLayer
 62
  256
370
   -1
100
AcDbCircle
 10
4.439999999998719
 20
127.4400000000007
 40
0.5
  0
CIRCLE
  5
1B9
100
AcDbEntity
  8
universal_board
  6
ByLayer
 62
  256
370
   -1
100
AcDbCircle
 10
4.439999999998719
 20
129.9800000000007
 40
0.5
  0
CIRCLE
  5
1BA
100
AcDbEntity
  8
universal_board
  6
ByLayer
 62
  256
370
   -1
100
AcDbCircle
 10
4.439999999998719
 20
132.5200000000007
 40
0.5
  0
CIRCLE
  5
1BB
100
AcDbEntity
  8
universal_board
  6
ByLayer
 62
  256
370
   -1
100
AcDbCircle
 10
4.439999999998719
 20
135.0600000000008
 40
0.5
  0
CIRCLE
  5
1BC
100
AcDbEntity
  8
universal_board
  6
ByLayer
 62
  256
370
   -1
100
AcDbCircle
 10
4.439999999998719
 20
137.6000000000008
 40
0.5
  0
CIRCLE
  5
1BD
100
AcDbEntity
  8
universal_board
  6
ByLayer
 62
  256
370
   -1
100
AcDbCircle
 10
4.439999999998719
 20
140.1400000000008
 40
0.5
  0
CIRCLE
  5
1BE
100
AcDbEntity
  8
universal_board
  6
ByLayer
 62
  256
370
   -1
100
AcDbCircle
 10
4.439999999998719
 20
142.6800000000008
 40
0.5
  0
CIRCLE
  5
1BF
100
AcDbEntity
  8
universal_board
  6
ByLayer
 62
  256
370
   -1
100
AcDbCircle
 10
4.439999999998719
 20
145.2200000000009
 40
0.5
  0
CIRCLE
  5
1C0
100
AcDbEntity
  8
universal_board
  6
ByLayer
 62
  256
370
   -1
100
AcDbCircle
 10
4.439999999998719
 20
147.7600000000009
 40
0.5
  0
CIRCLE
  5
1C1
100
AcDbEntity
  8
universal_board
  6
ByLayer
 62
  256
370
   -1
100
AcDbCircle
 10
4.439999999998719
 20
150.3000000000009
 40
0.5
  0
CIRCLE
  5
1C2
100
AcDbEntity
  8
universal_board
  6
ByLayer
 62
  256
370
   -1
100
AcDbCircle
 10
4.439999999998719
 20
152.8400000000009
 40
0.5
  0
CIRCLE
  5
1C3
100
AcDbEntity
  8
universal_board
  6
ByLayer
 62
  256
370
   -1
100
AcDbCircle
 10
6.979999999998668
 20
124.9000000000007
 40
0.5
  0
CIRCLE
  5
1C4
100
AcDbEntity
  8
universal_board
  6
ByLayer
 62
  256
370
   -1
100
AcDbCircle
 10
6.979999999998668
 20
127.4400000000007
 40
0.5
  0
CIRCLE
  5
1C5
100
AcDbEntity
  8
universal_board
  6
ByLayer
 62
  256
370
   -1
100
AcDbCircle
 10
6.979999999998668
 20
129.9800000000007
 40
0.5
  0
CIRCLE
  5
1C6
100
AcDbEntity
  8
universal_board
  6
ByLayer
 62
  256
370
   -1
100
AcDbCircle
 10
6.979999999998668
 20
132.5200000000007
 40
0.5
  0
CIRCLE
  5
1C7
100
AcDbEntity
  8
universal_board
  6
ByLayer
 62
  256
370
   -1
100
AcDbCircle
 10
6.979999999998668
 20
135.0600000000008
 40
0.5
  0
CIRCLE
  5
1C8
100
AcDbEntity
  8
universal_board
  6
ByLayer
 62
  256
370
   -1
100
AcDbCircle
 10
6.979999999998668
 20
137.6000000000008
 40
0.5
  0
CIRCLE
  5
1C9
100
AcDbEntity
  8
universal_board
  6
ByLayer
 62
  256
370
   -1
100
AcDbCircle
 10
6.979999999998668
 20
140.1400000000008
 40
0.5
  0
CIRCLE
  5
1CA
100
AcDbEntity
  8
universal_board
  6
ByLayer
 62
  256
370
   -1
100
AcDbCircle
 10
6.979999999998668
 20
142.6800000000008
 40
0.5
  0
CIRCLE
  5
1CB
100
AcDbEntity
  8
universal_board
  6
ByLayer
 62
  256
370
   -1
100
AcDbCircle
 10
6.979999999998668
 20
145.2200000000009
 40
0.5
  0
CIRCLE
  5
1CC
100
AcDbEntity
  8
universal_board
  6
ByLayer
 62
  256
370
   -1
100
AcDbCircle
 10
6.979999999998668
 20
147.7600000000009
 40
0.5
  0
CIRCLE
  5
1CD
100
AcDbEntity
  8
universal_board
  6
ByLayer
 62
  256
370
   -1
100
AcDbCircle
 10
6.979999999998668
 20
150.3000000000009
 40
0.5
  0
CIRCLE
  5
1CE
100
AcDbEntity
  8
universal_board
  6
ByLayer
 62
  256
370
   -1
100
AcDbCircle
 10
6.979999999998668
 20
152.8400000000009
 40
0.5
  0
CIRCLE
  5
1CF
100
AcDbEntity
  8
universal_board
  6
ByLayer
 62
  256
370
   -1
100
AcDbCircle
 10
9.519999999998618
 20
124.9000000000007
 40
0.5
  0
CIRCLE
  5
1D0
100
AcDbEntity
  8
universal_board
  6
ByLayer
 62
  256
370
   -1
100
AcDbCircle
 10
9.519999999998618
 20
127.4400000000007
 40
0.5
  0
CIRCLE
  5
1D1
100
AcDbEntity
  8
universal_board
  6
ByLayer
 62
  256
370
   -1
100
AcDbCircle
 10
9.519999999998618
 20
129.9800000000007
 40
0.5
  0
CIRCLE
  5
1D2
100
AcDbEntity
  8
universal_board
  6
ByLayer
 62
  256
370
   -1
100
AcDbCircle
 10
9.519999999998618
 20
132.5200000000007
 40
0.5
  0
CIRCLE
  5
1D3
100
AcDbEntity
  8
universal_board
  6
ByLayer
 62
  256
370
   -1
100
AcDbCircle
 10
9.519999999998618
 20
135.0600000000008
 40
0.5
  0
CIRCLE
  5
1D4
100
AcDbEntity
  8
universal_board
  6
ByLayer
 62
  256
370
   -1
100
AcDbCircle
 10
9.519999999998618
 20
137.6000000000008
 40
0.5
  0
CIRCLE
  5
1D5
100
AcDbEntity
  8
universal_board
  6
ByLayer
 62
  256
370
   -1
100
AcDbCircle
 10
9.519999999998618
 20
140.1400000000008
 40
0.5
  0
CIRCLE
  5
1D6
100
AcDbEntity
  8
universal_board
  6
ByLayer
 62
  256
370
   -1
100
AcDbCircle
 10
9.519999999998618
 20
142.6800000000008
 40
0.5
  0
CIRCLE
  5
1D7
100
AcDbEntity
  8
universal_board
  6
ByLayer
 62
  256
370
   -1
100
AcDbCircle
 10
9.519999999998618
 20
145.2200000000009
 40
0.5
  0
CIRCLE
  5
1D8
100
AcDbEntity
  8
universal_board
  6
ByLayer
 62
  256
370
   -1
100
AcDbCircle
 10
9.519999999998618
 20
147.7600000000009
 40
0.5
  0
CIRCLE
  5
1D9
100
AcDbEntity
  8
universal_board
  6
ByLayer
 62
  256
370
   -1
100
AcDbCircle
 10
9.519999999998618
 20
150.3000000000009
 40
0.5
  0
CIRCLE
  5
1DA
100
AcDbEntity
  8
universal_board
  6
ByLayer
 62
  256
370
   -1
100
AcDbCircle
 10
9.519999999998618
 20
152.8400000000009
 40
0.5
  0
CIRCLE
  5
1DB
100
AcDbEntity
  8
universal_board
  6
ByLayer
 62
  256
370
   -1
100
AcDbCircle
 10
12.05999999999857
 20
124.9000000000007
 40
0.5
  0
CIRCLE
  5
1DC
100
AcDbEntity
  8
universal_board
  6
ByLayer
 62
  256
370
   -1
100
AcDbCircle
 10
12.05999999999857
 20
127.4400000000007
 40
0.5
  0
CIRCLE
  5
1DD
100
AcDbEntity
  8
universal_board
  6
ByLayer
 62
  256
370
   -1
100
AcDbCircle
 10
12.05999999999857
 20
129.9800000000007
 40
0.5
  0
CIRCLE
  5
1DE
100
AcDbEntity
  8
universal_board
  6
ByLayer
 62
  256
370
   -1
100
AcDbCircle
 10
12.05999999999857
 20
132.5200000000007
 40
0.5
  0
CIRCLE
  5
1DF
100
AcDbEntity
  8
universal_board
  6
ByLayer
 62
  256
370
   -1
100
AcDbCircle
 10
12.05999999999857
 20
135.0600000000008
 40
0.5
  0
CIRCLE
  5
1E0
100
AcDbEntity
  8
universal_board
  6
ByLayer
 62
  256
370
   -1
100
AcDbCircle
 10
12.05999999999857
 20
137.6000000000008
 40
0.5
  0
CIRCLE
  5
1E1
100
AcDbEntity
  8
universal_board
  6
ByLayer
 62
  256
370
   -1
100
AcDbCircle
 10
12.05999999999857
 20
140.1400000000008
 40
0.5
  0
CIRCLE
  5
1E2
100
AcDbEntity
  8
universal_board
  6
ByLayer
 62
  256
370
   -1
100
AcDbCircle
 10
12.05999999999857
 20
142.6800000000008
 40
0.5
  0
CIRCLE
  5
1E3
100
AcDbEntity
  8
universal_board
  6
ByLayer
 62
  256
370
   -1
100
AcDbCircle
 10
12.05999999999857
 20
145.2200000000009
 40
0.5
  0
CIRCLE
  5
1E4
100
AcDbEntity
  8
universal_board
  6
ByLayer
 62
  256
370
   -1
100
AcDbCircle
 10
12.05999999999857
 20
147.7600000000009
 40
0.5
  0
CIRCLE
  5
1E5
100
AcDbEntity
  8
universal_board
  6
ByLayer
 62
  256
370
   -1
100
AcDbCircle
 10
12.05999999999857
 20
150.3000000000009
 40
0.5
  0
CIRCLE
  5
1E6
100
AcDbEntity
  8
universal_board
  6
ByLayer
 62
  256
370
   -1
100
AcDbCircle
 10
12.05999999999857
 20
152.8400000000009
 40
0.5
  0
CIRCLE
  5
1E7
100
AcDbEntity
  8
universal_board
  6
ByLayer
 62
  256
370
   -1
100
AcDbCircle
 10
14.59999999999852
 20
124.9000000000007
 40
0.5
  0
CIRCLE
  5
1E8
100
AcDbEntity
  8
universal_board
  6
ByLayer
 62
  256
370
   -1
100
AcDbCircle
 10
14.59999999999852
 20
127.4400000000007
 40
0.5
  0
CIRCLE
  5
1E9
100
AcDbEntity
  8
universal_board
  6
ByLayer
 62
  256
370
   -1
100
AcDbCircle
 10
14.59999999999852
 20
129.9800000000007
 40
0.5
  0
CIRCLE
  5
1EA
100
AcDbEntity
  8
universal_board
  6
ByLayer
 62
  256
370
   -1
100
AcDbCircle
 10
14.59999999999852
 20
132.5200000000007
 40
0.5
  0
CIRCLE
  5
1EB
100
AcDbEntity
  8
universal_board
  6
ByLayer
 62
  256
370
   -1
100
AcDbCircle
 10
14.59999999999852
 20
135.0600000000008
 40
0.5
  0
CIRCLE
  5
1EC
100
AcDbEntity
  8
universal_board
  6
ByLayer
 62
  256
370
   -1
100
AcDbCircle
 10
14.59999999999852
 20
137.6000000000008
 40
0.5
  0
CIRCLE
  5
1ED
100
AcDbEntity
  8
universal_board
  6
ByLayer
 62
  256
370
   -1
100
AcDbCircle
 10
14.59999999999852
 20
140.1400000000008
 40
0.5
  0
CIRCLE
  5
1EE
100
AcDbEntity
  8
universal_board
  6
ByLayer
 62
  256
370
   -1
100
AcDbCircle
 10
14.59999999999852
 20
142.6800000000008
 40
0.5
  0
CIRCLE
  5
1EF
100
AcDbEntity
  8
universal_board
  6
ByLayer
 62
  256
370
   -1
100
AcDbCircle
 10
14.59999999999852
 20
145.2200000000009
 40
0.5
  0
CIRCLE
  5
1F0
100
AcDbEntity
  8
universal_board
  6
ByLayer
 62
  256
370
   -1
100
AcDbCircle
 10
14.59999999999852
 20
147.7600000000009
 40
0.5
  0
CIRCLE
  5
1F1
100
AcDbEntity
  8
universal_board
  6
ByLayer
 62
  256
370
   -1
100
AcDbCircle
 10
14.59999999999852
 20
150.3000000000009
 40
0.5
  0
CIRCLE
  5
1F2
100
AcDbEntity
  8
universal_board
  6
ByLayer
 62
  256
370
   -1
100
AcDbCircle
 10
14.59999999999852
 20
152.8400000000009
 40
0.5
  0
CIRCLE
  5
1F3
100
AcDbEntity
  8
universal_board
  6
ByLayer
 62
  256
370
   -1
100
AcDbCircle
 10
17.13999999999847
 20
124.9000000000007
 40
0.5
  0
CIRCLE
  5
1F4
100
AcDbEntity
  8
universal_board
  6
ByLayer
 62
  256
370
   -1
100
AcDbCircle
 10
17.13999999999847
 20
127.4400000000007
 40
0.5
  0
CIRCLE
  5
1F5
100
AcDbEntity
  8
universal_board
  6
ByLayer
 62
  256
370
   -1
100
AcDbCircle
 10
17.13999999999847
 20
129.9800000000007
 40
0.5
  0
CIRCLE
  5
1F6
100
AcDbEntity
  8
universal_board
  6
ByLayer
 62
  256
370
   -1
100
AcDbCircle
 10
17.13999999999847
 20
132.5200000000007
 40
0.5
  0
CIRCLE
  5
1F7
100
AcDbEntity
  8
universal_board
  6
ByLayer
 62
  256
370
   -1
100
AcDbCircle
 10
17.13999999999847
 20
135.0600000000008
 40
0.5
  0
CIRCLE
  5
1F8
100
AcDbEntity
  8
universal_board
  6
ByLayer
 62
  256
370
   -1
100
AcDbCircle
 10
17.13999999999847
 20
137.6000000000008
 40
0.5
  0
CIRCLE
  5
1F9
100
AcDbEntity
  8
universal_board
  6
ByLayer
 62
  256
370
   -1
100
AcDbCircle
 10
17.13999999999847
 20
140.1400000000008
 40
0.5
  0
CIRCLE
  5
1FA
100
AcDbEntity
  8
universal_board
  6
ByLayer
 62
  256
370
   -1
100
AcDbCircle
 10
17.13999999999847
 20
142.6800000000008
 40
0.5
  0
CIRCLE
  5
1FB
100
AcDbEntity
  8
universal_board
  6
ByLayer
 62
  256
370
   -1
100
AcDbCircle
 10
17.13999999999847
 20
145.2200000000009
 40
0.5
  0
CIRCLE
  5
1FC
100
AcDbEntity
  8
universal_board
  6
ByLayer
 62
  256
370
   -1
100
AcDbCircle
 10
17.13999999999847
 20
147.7600000000009
 40
0.5
  0
CIRCLE
  5
1FD
100
AcDbEntity
  8
universal_board
  6
ByLayer
 62
  256
370
   -1
100
AcDbCircle
 10
17.13999999999847
 20
150.3000000000009
 40
0.5
  0
CIRCLE
  5
1FE
100
AcDbEntity
  8
universal_board
  6
ByLayer
 62
  256
370
   -1
100
AcDbCircle
 10
17.13999999999847
 20
152.8400000000009
 40
0.5
  0
CIRCLE
  5
1FF
100
AcDbEntity
  8
universal_board
  6
ByLayer
 62
  256
370
   -1
100
AcDbCircle
 10
19.67999999999842
 20
124.9000000000007
 40
0.5
  0
CIRCLE
  5
200
100
AcDbEntity
  8
universal_board
  6
ByLayer
 62
  256
370
   -1
100
AcDbCircle
 10
19.67999999999842
 20
127.4400000000007
 40
0.5
  0
CIRCLE
  5
201
100
AcDbEntity
  8
universal_board
  6
ByLayer
 62
  256
370
   -1
100
AcDbCircle
 10
19.67999999999842
 20
129.9800000000007
 40
0.5
  0
CIRCLE
  5
202
100
AcDbEntity
  8
universal_board
  6
ByLayer
 62
  256
370
   -1
100
AcDbCircle
 10
19.67999999999842
 20
132.5200000000007
 40
0.5
  0
CIRCLE
  5
203
100
AcDbEntity
  8
universal_board
  6
ByLayer
 62
  256
370
   -1
100
AcDbCircle
 10
19.67999999999842
 20
135.0600000000008
 40
0.5
  0
CIRCLE
  5
204
100
AcDbEntity
  8
universal_board
  6
ByLayer
 62
  256
370
   -1
100
AcDbCircle
 10
19.67999999999842
 20
137.6000000000008
 40
0.5
  0
CIRCLE
  5
205
100
AcDbEntity
  8
universal_board
  6
ByLayer
 62
  256
370
   -1
100
AcDbCircle
 10
19.67999999999842
 20
140.1400000000008
 40
0.5
  0
CIRCLE
  5
206
100
AcDbEntity
  8
universal_board
  6
ByLayer
 62
  256
370
   -1
100
AcDbCircle
 10
19.67999999999842
 20
142.6800000000008
 40
0.5
  0
CIRCLE
  5
207
100
AcDbEntity
  8
universal_board
  6
ByLayer
 62
  256
370
   -1
100
AcDbCircle
 10
19.67999999999842
 20
145.2200000000009
 40
0.5
  0
CIRCLE
  5
208
100
AcDbEntity
  8
universal_board
  6
ByLayer
 62
  256
370
   -1
100
AcDbCircle
 10
19.67999999999842
 20
147.7600000000009
 40
0.5
  0
CIRCLE
  5
209
100
AcDbEntity
  8
universal_board
  6
ByLayer
 62
  256
370
   -1
100
AcDbCircle
 10
19.67999999999842
 20
150.3000000000009
 40
0.5
  0
CIRCLE
  5
20A
100
AcDbEntity
  8
universal_board
  6
ByLayer
 62
  256
370
   -1
100
AcDbCircle
 10
19.67999999999842
 20
152.8400000000009
 40
0.5
  0
LINE
  5
20B
100
AcDbEntity
  8
universal_board
  6
ByLayer
 62
  256
370
   -1
100
AcDbLine
 10
-29.85000000000108
 20
154.1100000000002
 11
-29.85000000000108
 21
123.63
  0
LINE
  5
20C
100
AcDbEntity
  8
universal_board
  6
ByLayer
 62
  256
370
   -1
100
AcDbLine
 10
-29.85000000000108
 20
123.63
 11
-9.530000000002016
 21
123.63
  0
LINE
  5
20D
100
AcDbEntity
  8
universal_board
  6
ByLayer
 62
  256
370
   -1
100
AcDbLine
 10
-9.530000000002016
 20
123.63
 11
-9.530000000002016
 21
154.1100000000002
  0
LINE
  5
20E
100
AcDbEntity
  8
universal_board
  6
ByLayer
 62
  256
370
   -1
100
AcDbLine
 10
-9.530000000002016
 20
154.1100000000002
 11
-29.85000000000108
 21
154.1100000000002
  0
LINE
  5
20F
100
AcDbEntity
  8
universal_board
  6
ByLayer
 62
  256
370
   -1
100
AcDbLine
 10
0.6299999999975583
 20
154.1100000000002
 11
0.6299999999975583
 21
123.63
  0
LINE
  5
210
100
AcDbEntity
  8
universal_board
  6
ByLayer
 62
  256
370
   -1
100
AcDbLine
 10
0.6299999999975583
 20
123.63
 11
20.94999999999662
 21
123.63
  0
LINE
  5
211
100
AcDbEntity
  8
universal_board
  6
ByLayer
 62
  256
370
   -1
100
AcDbLine
 10
20.94999999999662
 20
123.63
 11
20.94999999999662
 21
154.1100000000002
  0
LINE
  5
212
100
AcDbEntity
  8
universal_board
  6
ByLayer
 62
  256
370
   -1
100
AcDbLine
 10
20.94999999999662
 20
154.1100000000002
 11
0.6299999999975583
 21
154.1100000000002
  0
MTEXT
  5
213
100
AcDbEntity
  8
universal_board
  6
ByLayer
 62
  256
370
   -1
100
AcDbMText
 10
-29.26892841959361
 20
155.14223907958
 30
0
 40
1
 41
2
 71
    4
 72
    1
  1
UB1
  7
iso
210
0
220
0
230
1
 50
0
 73
    2
 44
1.54
  0
LINE
  5
214
100
AcDbEntity
  8
socket_header
  6
ByLayer
 62
  256
370
   -1
100
AcDbLine
 10
-27.3100000000012
 20
116.0099999999999
 11
-29.85000000000108
 21
116.0099999999999
  0
LINE
  5
215
100
AcDbEntity
  8
socket_header
  6
ByLayer
 62
  256
370
   -1
100
AcDbLine
 10
-27.3100000000012
 20
113.4699999999999
 11
-29.85000000000108
 21
113.4699999999999
  0
LINE
  5
216
100
AcDbEntity
  8
socket_header
  6
ByLayer
 62
  256
370
   -1
100
AcDbLine
 10
-27.3100000000012
 20
110.9299999999999
 11
-29.85000000000108
 21
110.9299999999999
  0
LINE
  5
217
100
AcDbEntity
  8
socket_header
  6
ByLayer
 62
  256
370
   -1
100
AcDbLine
 10
-27.3100000000012
 20
105.8499999999999
 11
-29.85000000000108
 21
105.8499999999999
  0
LINE
  5
218
100
AcDbEntity
  8
socket_header
  6
ByLayer
 62
  256
370
   -1
100
AcDbLine
 10
-27.3100000000012
 20
103.3099999999998
 11
-29.85000000000108
 21
103.3099999999998
  0
LINE
  5
219
100
AcDbEntity
  8
socket_header
  6
ByLayer
 62
  256
370
   -1
100
AcDbLine
 10
-9.530000000002019
 20
116.0099999999999
 11
-12.0700000000019
 21
116.0099999999999
  0
LINE
  5
21A
100
AcDbEntity
  8
socket_header
  6
ByLayer
 62
  256
370
   -1
100
AcDbLine
 10
-9.530000000002019
 20
113.4699999999999
 11
-12.0700000000019
 21
113.4699999999999
  0
LINE
  5
21B
100
AcDbEntity
  8
socket_header
  6
ByLayer
 62
  256
370
   -1
100
AcDbLine
 10
-9.530000000002019
 20
105.8499999999999
 11
-12.0700000000019
 21
105.8499999999999
  0
LINE
  5
21C
100
AcDbEntity
  8
socket_header
  6
ByLayer
 62
  256
370
   -1
100
AcDbLine
 10
-9.530000000002019
 20
103.3099999999998
 11
-12.0700000000019
 21
103.3099999999998
  0
LINE
  5
21D
100
AcDbEntity
  8
socket_header
  6
ByLayer
 62
  256
370
   -1
100
AcDbLine
 10
-27.3100000000012
 20
118.55
 11
-29.85000000000108
 21
118.55
  0
LINE
  5
21E
100
AcDbEntity
  8
socket_header
  6
ByLayer
 62
  256
370
   -1
100
AcDbLine
 10
-9.530000000002019
 20
118.55
 11
-12.0700000000019
 21
118.55
  0
LINE
  5
21F
100
AcDbEntity
  8
socket_header
  6
ByLayer
 62
  256
370
   -1
100
AcDbLine
 10
-27.3100000000012
 20
100.7699999999998
 11
-29.85000000000108
 21
100.7699999999998
  0
LINE
  5
220
100
AcDbEntity
  8
socket_header
  6
ByLayer
 62
  256
370
   -1
100
AcDbLine
 10
-9.530000000002019
 20
100.7699999999998
 11
-12.0700000000019
 21
100.7699999999998
  0
CIRCLE
  5
221
100
AcDbEntity
  8
socket_header
  6
ByLayer
 62
  256
370
   -1
100
AcDbCircle
 10
-28.57999999999987
 20
117.2800000000006
 40
0.5
  0
CIRCLE
  5
222
100
AcDbEntity
  8
socket_header
  6
ByLayer
 62
  256
370
   -1
100
AcDbCircle
 10
-28.57999999999987
 20
114.7400000000006
 40
0.5
  0
CIRCLE
  5
223
100
AcDbEntity
  8
socket_header
  6
ByLayer
 62
  256
370
   -1
100
AcDbCircle
 10
-28.57999999999987
 20
112.2000000000006
 40
0.5
  0
CIRCLE
  5
224
100
AcDbEntity
  8
socket_header
  6
ByLayer
 62
  256
370
   -1
100
AcDbCircle
 10
-28.57999999999987
 20
104.5800000000005
 40
0.5
  0
CIRCLE
  5
225
100
AcDbEntity
  8
socket_header
  6
ByLayer
 62
  256
370
   -1
100
AcDbCircle
 10
-28.57999999999987
 20
102.0400000000005
 40
0.5
  0
CIRCLE
  5
226
100
AcDbEntity
  8
socket_header
  6
ByLayer
 62
  256
370
   -1
100
AcDbCircle
 10
-10.80000000000069
 20
102.0400000000005
 40
0.5
  0
CIRCLE
  5
227
100
AcDbEntity
  8
socket_header
  6
ByLayer
 62
  256
370
   -1
100
AcDbCircle
 10
-10.80000000000069
 20
104.5800000000005
 40
0.5
  0
CIRCLE
  5
228
100
AcDbEntity
  8
socket_header
  6
ByLayer
 62
  256
370
   -1
100
AcDbCircle
 10
-10.80000000000069
 20
114.7400000000006
 40
0.5
  0
CIRCLE
  5
229
100
AcDbEntity
  8
socket_header
  6
ByLayer
 62
  256
370
   -1
100
AcDbCircle
 10
-10.80000000000069
 20
117.2800000000006
 40
0.5
  0
LINE
  5
22A
100
AcDbEntity
  8
universal_board
  6
ByLayer
 62
  256
370
   -1
100
AcDbLine
 10
-29.85000000000108
 20
118.55
 11
-9.530000000002016
 21
118.5499999999999
  0
LINE
  5
22B
100
AcDbEntity
  8
universal_board
  6
ByLayer
 62
  256
370
   -1
100
AcDbLine
 10
-29.85000000000108
 20
100.7699999999998
 11
-9.530000000002016
 21
100.7699999999998
  0
CIRCLE
  5
22C
100
AcDbEntity
  8
universal_board
  6
ByLayer
 62
  256
370
   -1
100
AcDbCircle
 10
4.439999999998649
 20
102.0400000000005
 40
0.5
  0
CIRCLE
  5
22D
100
AcDbEntity
  8
universal_board
  6
ByLayer
 62
  256
370
   -1
100
AcDbCircle
 10
4.439999999998649
 20
104.5800000000005
 40
0.5
  0
CIRCLE
  5
22E
100
AcDbEntity
  8
universal_board
  6
ByLayer
 62
  256
370
   -1
100
AcDbCircle
 10
4.439999999998649
 20
107.1200000000005
 40
0.5
  0
CIRCLE
  5
22F
100
AcDbEntity
  8
universal_board
  6
ByLayer
 62
  256
370
   -1
100
AcDbCircle
 10
4.439999999998649
 20
109.6600000000006
 40
0.5
  0
CIRCLE
  5
230
100
AcDbEntity
  8
universal_board
  6
ByLayer
 62
  256
370
   -1
100
AcDbCircle
 10
4.439999999998649
 20
112.2000000000006
 40
0.5
  0
CIRCLE
  5
231
100
AcDbEntity
  8
universal_board
  6
ByLayer
 62
  256
370
   -1
100
AcDbCircle
 10
4.439999999998649
 20
114.7400000000006
 40
0.5
  0
CIRCLE
  5
232
100
AcDbEntity
  8
universal_board
  6
ByLayer
 62
  256
370
   -1
100
AcDbCircle
 10
4.439999999998649
 20
117.2800000000006
 40
0.5
  0
CIRCLE
  5
233
100
AcDbEntity
  8
universal_board
  6
ByLayer
 62
  256
370
   -1
100
AcDbCircle
 10
6.979999999998528
 20
102.0400000000005
 40
0.5
  0
CIRCLE
  5
234
100
AcDbEntity
  8
universal_board
  6
ByLayer
 62
  256
370
   -1
100
AcDbCircle
 10
6.979999999998528
 20
104.5800000000005
 40
0.5
  0
CIRCLE
  5
235
100
AcDbEntity
  8
universal_board
  6
ByLayer
 62
  256
370
   -1
100
AcDbCircle
 10
6.979999999998528
 20
107.1200000000005
 40
0.5
  0
CIRCLE
  5
236
100
AcDbEntity
  8
universal_board
  6
ByLayer
 62
  256
370
   -1
100
AcDbCircle
 10
6.979999999998528
 20
109.6600000000006
 40
0.5
  0
CIRCLE
  5
237
100
AcDbEntity
  8
universal_board
  6
ByLayer
 62
  256
370
   -1
100
AcDbCircle
 10
6.979999999998528
 20
112.2000000000006
 40
0.5
  0
CIRCLE
  5
238
100
AcDbEntity
  8
universal_board
  6
ByLayer
 62
  256
370
   -1
100
AcDbCircle
 10
6.979999999998528
 20
114.7400000000006
 40
0.5
  0
CIRCLE
  5
239
100
AcDbEntity
  8
universal_board
  6
ByLayer
 62
  256
370
   -1
100
AcDbCircle
 10
6.979999999998528
 20
117.2800000000006
 40
0.5
  0
CIRCLE
  5
23A
100
AcDbEntity
  8
universal_board
  6
ByLayer
 62
  256
370
   -1
100
AcDbCircle
 10
9.519999999998408
 20
102.0400000000005
 40
0.5
  0
CIRCLE
  5
23B
100
AcDbEntity
  8
universal_board
  6
ByLayer
 62
  256
370
   -1
100
AcDbCircle
 10
9.519999999998408
 20
104.5800000000005
 40
0.5
  0
CIRCLE
  5
23C
100
AcDbEntity
  8
universal_board
  6
ByLayer
 62
  256
370
   -1
100
AcDbCircle
 10
9.519999999998408
 20
107.1200000000005
 40
0.5
  0
CIRCLE
  5
23D
100
AcDbEntity
  8
universal_board
  6
ByLayer
 62
  256
370
   -1
100
AcDbCircle
 10
9.519999999998408
 20
109.6600000000006
 40
0.5
  0
CIRCLE
  5
23E
100
AcDbEntity
  8
universal_board
  6
ByLayer
 62
  256
370
   -1
100
AcDbCircle
 10
9.519999999998408
 20
112.2000000000006
 40
0.5
  0
CIRCLE
  5
23F
100
AcDbEntity
  8
universal_board
  6
ByLayer
 62
  256
370
   -1
100
AcDbCircle
 10
9.519999999998408
 20
114.7400000000006
 40
0.5
  0
CIRCLE
  5
240
100
AcDbEntity
  8
universal_board
  6
ByLayer
 62
  256
370
   -1
100
AcDbCircle
 10
9.519999999998408
 20
117.2800000000006
 40
0.5
  0
CIRCLE
  5
241
100
AcDbEntity
  8
universal_board
  6
ByLayer
 62
  256
370
   -1
100
AcDbCircle
 10
12.05999999999829
 20
102.0400000000005
 40
0.5
  0
CIRCLE
  5
242
100
AcDbEntity
  8
universal_board
  6
ByLayer
 62
  256
370
   -1
100
AcDbCircle
 10
12.05999999999829
 20
104.5800000000005
 40
0.5
  0
CIRCLE
  5
243
100
AcDbEntity
  8
universal_board
  6
ByLayer
 62
  256
370
   -1
100
AcDbCircle
 10
12.05999999999829
 20
107.1200000000005
 40
0.5
  0
CIRCLE
  5
244
100
AcDbEntity
  8
universal_board
  6
ByLayer
 62
  256
370
   -1
100
AcDbCircle
 10
12.05999999999829
 20
109.6600000000006
 40
0.5
  0
CIRCLE
  5
245
100
AcDbEntity
  8
universal_board
  6
ByLayer
 62
  256
370
   -1
100
AcDbCircle
 10
12.05999999999829
 20
112.2000000000006
 40
0.5
  0
CIRCLE
  5
246
100
AcDbEntity
  8
universal_board
  6
ByLayer
 62
  256
370
   -1
100
AcDbCircle
 10
12.05999999999829
 20
114.7400000000006
 40
0.5
  0
CIRCLE
  5
247
100
AcDbEntity
  8
universal_board
  6
ByLayer
 62
  256
370
   -1
100
AcDbCircle
 10
12.05999999999829
 20
117.2800000000006
 40
0.5
  0
CIRCLE
  5
248
100
AcDbEntity
  8
universal_board
  6
ByLayer
 62
  256
370
   -1
100
AcDbCircle
 10
14.59999999999817
 20
102.0400000000005
 40
0.5
  0
CIRCLE
  5
249
100
AcDbEntity
  8
universal_board
  6
ByLayer
 62
  256
370
   -1
100
AcDbCircle
 10
14.59999999999817
 20
104.5800000000005
 40
0.5
  0
CIRCLE
  5
24A
100
AcDbEntity
  8
universal_board
  6
ByLayer
 62
  256
370
   -1
100
AcDbCircle
 10
14.59999999999817
 20
107.1200000000005
 40
0.5
  0
CIRCLE
  5
24B
100
AcDbEntity
  8
universal_board
  6
ByLayer
 62
  256
370
   -1
100
AcDbCircle
 10
14.59999999999817
 20
109.6600000000006
 40
0.5
  0
CIRCLE
  5
24C
100
AcDbEntity
  8
universal_board
  6
ByLayer
 62
  256
370
   -1
100
AcDbCircle
 10
14.59999999999817
 20
112.2000000000006
 40
0.5
  0
CIRCLE
  5
24D
100
AcDbEntity
  8
universal_board
  6
ByLayer
 62
  256
370
   -1
100
AcDbCircle
 10
14.59999999999817
 20
114.7400000000006
 40
0.5
  0
CIRCLE
  5
24E
100
AcDbEntity
  8
universal_board
  6
ByLayer
 62
  256
370
   -1
100
AcDbCircle
 10
14.59999999999817
 20
117.2800000000006
 40
0.5
  0
CIRCLE
  5
24F
100
AcDbEntity
  8
universal_board
  6
ByLayer
 62
  256
370
   -1
100
AcDbCircle
 10
17.13999999999805
 20
102.0400000000005
 40
0.5
  0
CIRCLE
  5
250
100
AcDbEntity
  8
universal_board
  6
ByLayer
 62
  256
370
   -1
100
AcDbCircle
 10
17.13999999999805
 20
104.5800000000005
 40
0.5
  0
CIRCLE
  5
251
100
AcDbEntity
  8
universal_board
  6
ByLayer
 62
  256
370
   -1
100
AcDbCircle
 10
17.13999999999805
 20
107.1200000000005
 40
0.5
  0
CIRCLE
  5
252
100
AcDbEntity
  8
universal_board
  6
ByLayer
 62
  256
370
   -1
100
AcDbCircle
 10
17.13999999999805
 20
109.6600000000006
 40
0.5
  0
CIRCLE
  5
253
100
AcDbEntity
  8
universal_board
  6
ByLayer
 62
  256
370
   -1
100
AcDbCircle
 10
17.13999999999805
 20
112.2000000000006
 40
0.5
  0
CIRCLE
  5
254
100
AcDbEntity
  8
universal_board
  6
ByLayer
 62
  256
370
   -1
100
AcDbCircle
 10
17.13999999999805
 20
114.7400000000006
 40
0.5
  0
CIRCLE
  5
255
100
AcDbEntity
  8
universal_board
  6
ByLayer
 62
  256
370
   -1
100
AcDbCircle
 10
17.13999999999805
 20
117.2800000000006
 40
0.5
  0
CIRCLE
  5
256
100
AcDbEntity
  8
universal_board
  6
ByLayer
 62
  256
370
   -1
100
AcDbCircle
 10
19.67999999999793
 20
102.0400000000005
 40
0.5
  0
CIRCLE
  5
257
100
AcDbEntity
  8
universal_board
  6
ByLayer
 62
  256
370
   -1
100
AcDbCircle
 10
19.67999999999793
 20
104.5800000000005
 40
0.5
  0
CIRCLE
  5
258
100
AcDbEntity
  8
universal_board
  6
ByLayer
 62
  256
370
   -1
100
AcDbCircle
 10
19.67999999999793
 20
107.1200000000005
 40
0.5
  0
CIRCLE
  5
259
100
AcDbEntity
  8
universal_board
  6
ByLayer
 62
  256
370
   -1
100
AcDbCircle
 10
19.67999999999793
 20
109.6600000000006
 40
0.5
  0
CIRCLE
  5
25A
100
AcDbEntity
  8
universal_board
  6
ByLayer
 62
  256
370
   -1
100
AcDbCircle
 10
19.67999999999793
 20
112.2000000000006
 40
0.5
  0
CIRCLE
  5
25B
100
AcDbEntity
  8
universal_board
  6
ByLayer
 62
  256
370
   -1
100
AcDbCircle
 10
19.67999999999793
 20
114.7400000000006
 40
0.5
  0
CIRCLE
  5
25C
100
AcDbEntity
  8
universal_board
  6
ByLayer
 62
  256
370
   -1
100
AcDbCircle
 10
19.67999999999793
 20
117.2800000000006
 40
0.5
  0
LINE
  5
25D
100
AcDbEntity
  8
universal_board
  6
ByLayer
 62
  256
370
   -1
100
AcDbLine
 10
0.629999999997537
 20
118.55
 11
20.9499999999966
 21
118.5499999999999
  0
LINE
  5
25E
100
AcDbEntity
  8
universal_board
  6
ByLayer
 62
  256
370
   -1
100
AcDbLine
 10
0.629999999997537
 20
100.7699999999998
 11
20.9499999999966
 21
100.7699999999998
  0
LINE
  5
25F
100
AcDbEntity
  8
universal_board
  6
ByLayer
 62
  256
370
   -1
100
AcDbLine
 10
0.6299999999984465
 20
118.55
 11
0.6299999999984465
 21
100.7699999999998
  0
LINE
  5
260
100
AcDbEntity
  8
universal_board
  6
ByLayer
 62
  256
370
   -1
100
AcDbLine
 10
20.94999999999804
 20
118.5499999999999
 11
20.94999999999804
 21
100.7699999999998
  0
MTEXT
  5
261
100
AcDbEntity
  8
terminal
  6
ByLayer
 62
  256
370
   -1
100
AcDbMText
 10
-18.93216512717931
 20
159.616292963278
 30
0
 40
1
 41
1.888888888888889
 71
    5
 72
    1
  1
UC1
  7
iso
210
0
220
0
230
1
 50
0
 73
    2
 44
1.54
  0
MTEXT
  5
262
100
AcDbEntity
  8
socket_header
  6
ByLayer
 62
  256
370
   -1
100
AcDbMText
 10
-32.6526195663678
 20
140.817946558239
 30
0
 40
1
 41
1.99999978799785
 71
    4
 72
    1
  1
PS1
  7
iso
210
0
220
0
230
1
 50
0
 73
    2
 44
1.54
  0
MTEXT
  5
263
100
AcDbEntity
  8
socket_header
  6
ByLayer
 62
  256
370
   -1
100
AcDbMText
 10
-25.82884242037384
 20
142.284212721841
 30
0
 40
1
 41
1.444444232442295
 71
    4
 72
    1
  1
IS1
  7
iso
210
0
220
0
230
1
 50
0
 73
    2
 44
1.54
  0
MTEXT
  5
264
100
AcDbEntity
  8
socket_header
  6
ByLayer
 62
  256
370
   -1
100
AcDbMText
 10
-31.0577502428783
 20
119.7837644343874
 30
0
 40
1
 41
2
 71
    4
 72
    1
  1
PH1
  7
iso
210
0
220
0
230
1
 50
0
 73
    2
 44
1.54
  0
LINE
  5
265
100
AcDbEntity
  8
micon
  6
ByLayer
 62
  256
370
   -1
100
AcDbLine
 10
-22.86500000000209
 20
122.9950000000006
 11
-16.5150000000019
 21
122.9950000000006
  0
LINE
  5
266
100
AcDbEntity
  8
condenser
  6
ByLayer
 62
  256
370
   -1
100
AcDbLine
 10
-27.67999999999988
 20
145.7000000000014
 11
-29.48000000000065
 21
145.7000000000014
  0
LINE
  5
267
100
AcDbEntity
  8
condenser
  6
ByLayer
 62
  256
370
   -1
100
AcDbLine
 10
-29.48000000000065
 20
145.7000000000014
 11
-29.48000000000065
 21
142.2000000000009
  0
LINE
  5
268
100
AcDbEntity
  8
condenser
  6
ByLayer
 62
  256
370
   -1
100
AcDbLine
 10
-29.48000000000065
 20
142.2000000000009
 11
-27.67999999999988
 21
142.2000000000009
  0
LINE
  5
269
100
AcDbEntity
  8
condenser
  6
ByLayer
 62
  256
370
   -1
100
AcDbLine
 10
-27.67999999999988
 20
142.2000000000009
 11
-27.67999999999988
 21
145.7000000000014
  0
LINE
  5
26A
100
AcDbEntity
  8
condenser
  6
ByLayer
 62
  256
370
   -1
100
AcDbLine
 10
-28.57999999999994
 20
142.6800000000011
 11
-28.57999999999994
 21
142.2000000000009
  0
LINE
  5
26B
100
AcDbEntity
  8
condenser
  6
ByLayer
 62
  256
370
   -1
100
AcDbLine
 10
-28.57999999999994
 20
145.7000000000014
 11
-28.57999999999994
 21
145.2200000000009
  0
MTEXT
  5
26C
100
AcDbEntity
  8
condenser
  6
ByLayer
 62
  256
370
   -1
100
AcDbMText
 10
-28.83500259285214
 20
144.0005197564371
 30
0
 40
1
 41
1.000000000000062
 71
    4
 72
    1
  1
C1
  7
iso
210
0
220
0
230
1
 50
0
 73
    2
 44
1.54
  0
LINE
  5
26D
100
AcDbEntity
  8
5V line
  6
ByLayer
 62
  256
370
   -1
100
AcDbLine
 10
-28.57999999999987
 20
140.1400000000008
 11
-28.57999999999987
 21
142.6800000000008
  0
LINE
  5
26E
100
AcDbEntity
  8
0_GND
  6
ByLayer
 62
  256
370
   -1
100
AcDbLine
 10
-20.96000000000021
 20
147.7600000000009
 11
-28.57999999999987
 21
147.7600000000009
  0
LINE
  5
26F
100
AcDbEntity
  8
0_GND
  6
ByLayer
 62
  256
370
   -1
100
AcDbLine
 10
-28.57999999999987
 20
147.7600000000009
 11
-28.57999999999987
 21
145.2200000000009
  0
LINE
  5
270
100
AcDbEntity
  8
universal_board
  6
ByLayer
 62
  256
370
   -1
100
AcDbLine
 10
0.6299999999975583
 20
126.17
 11
20.94999999999662
 21
126.17
  0
LINE
  5
271
100
AcDbEntity
  8
universal_board
  6
ByLayer
 62
  256
370
   -1
100
AcDbLine
 10
0.6299999999975583
 20
128.71
 11
20.94999999999662
 21
128.71
  0
LINE
  5
272
100
AcDbEntity
  8
universal_board
  6
ByLayer
 62
  256
370
   -1
100
AcDbLine
 10
0.6299999999975583
 20
131.25
 11
20.94999999999662
 21
131.25
  0
LINE
  5
273
100
AcDbEntity
  8
universal_board
  6
ByLayer
 62
  256
370
   -1
100
AcDbLine
 10
0.6299999999975583
 20
133.79
 11
20.94999999999662
 21
133.79
  0
LINE
  5
274
100
AcDbEntity
  8
universal_board
  6
ByLayer
 62
  256
370
   -1
100
AcDbLine
 10
0.6299999999975583
 20
136.33
 11
20.94999999999662
 21
136.33
  0
LINE
  5
275
100
AcDbEntity
  8
universal_board
  6
ByLayer
 62
  256
370
   -1
100
AcDbLine
 10
0.6299999999975583
 20
138.8699999999999
 11
20.94999999999662
 21
138.8699999999999
  0
LINE
  5
276
100
AcDbEntity
  8
universal_board
  6
ByLayer
 62
  256
370
   -1
100
AcDbLine
 10
0.6299999999975583
 20
141.4099999999999
 11
20.94999999999662
 21
141.4099999999999
  0
LINE
  5
277
100
AcDbEntity
  8
universal_board
  6
ByLayer
 62
  256
370
   -1
100
AcDbLine
 10
0.6299999999975583
 20
143.9499999999999
 11
20.94999999999662
 21
143.9499999999999
  0
LINE
  5
278
100
AcDbEntity
  8
universal_board
  6
ByLayer
 62
  256
370
   -1
100
AcDbLine
 10
0.6299999999975583
 20
146.4899999999999
 11
20.94999999999662
 21
146.4899999999999
  0
LINE
  5
279
100
AcDbEntity
  8
universal_board
  6
ByLayer
 62
  256
370
   -1
100
AcDbLine
 10
0.6299999999975583
 20
149.0299999999999
 11
20.94999999999662
 21
149.0299999999999
  0
LINE
  5
27A
100
AcDbEntity
  8
universal_board
  6
ByLayer
 62
  256
370
   -1
100
AcDbLine
 10
0.6299999999975583
 20
151.5699999999999
 11
20.94999999999662
 21
151.5699999999999
  0
LINE
  5
27B
100
AcDbEntity
  8
universal_board
  6
ByLayer
 62
  256
370
   -1
100
AcDbLine
 10
3.169999999997508
 20
154.1100000000002
 11
3.169999999997508
 21
123.63
  0
LINE
  5
27C
100
AcDbEntity
  8
universal_board
  6
ByLayer
 62
  256
370
   -1
100
AcDbLine
 10
5.709999999997458
 20
154.1100000000002
 11
5.709999999997458
 21
123.63
  0
LINE
  5
27D
100
AcDbEntity
  8
universal_board
  6
ByLayer
 62
  256
370
   -1
100
AcDbLine
 10
8.249999999997408
 20
154.1100000000002
 11
8.249999999997408
 21
123.63
  0
LINE
  5
27E
100
AcDbEntity
  8
universal_board
  6
ByLayer
 62
  256
370
   -1
100
AcDbLine
 10
10.78999999999736
 20
154.1100000000002
 11
10.78999999999736
 21
123.63
  0
LINE
  5
27F
100
AcDbEntity
  8
universal_board
  6
ByLayer
 62
  256
370
   -1
100
AcDbLine
 10
13.32999999999731
 20
154.1100000000002
 11
13.32999999999731
 21
123.63
  0
LINE
  5
280
100
AcDbEntity
  8
universal_board
  6
ByLayer
 62
  256
370
   -1
100
AcDbLine
 10
15.86999999999726
 20
154.1100000000002
 11
15.86999999999726
 21
123.63
  0
LINE
  5
281
100
AcDbEntity
  8
universal_board
  6
ByLayer
 62
  256
370
   -1
100
AcDbLine
 10
18.40999999999721
 20
154.1100000000002
 11
18.40999999999721
 21
123.63
  0
LINE
  5
282
100
AcDbEntity
  8
universal_board
  6
ByLayer
 62
  256
370
   -1
100
AcDbLine
 10
0.629999999997537
 20
103.3099999999998
 11
20.9499999999966
 21
103.3099999999998
  0
LINE
  5
283
100
AcDbEntity
  8
universal_board
  6
ByLayer
 62
  256
370
   -1
100
AcDbLine
 10
0.629999999997537
 20
105.8499999999998
 11
20.9499999999966
 21
105.8499999999998
  0
LINE
  5
284
100
AcDbEntity
  8
universal_board
  6
ByLayer
 62
  256
370
   -1
100
AcDbLine
 10
0.629999999997537
 20
108.3899999999998
 11
20.9499999999966
 21
108.3899999999998
  0
LINE
  5
285
100
AcDbEntity
  8
universal_board
  6
ByLayer
 62
  256
370
   -1
100
AcDbLine
 10
0.629999999997537
 20
110.9299999999998
 11
20.9499999999966
 21
110.9299999999998
  0
LINE
  5
286
100
AcDbEntity
  8
universal_board
  6
ByLayer
 62
  256
370
   -1
100
AcDbLine
 10
0.629999999997537
 20
113.4699999999998
 11
20.9499999999966
 21
113.4699999999998
  0
LINE
  5
287
100
AcDbEntity
  8
universal_board
  6
ByLayer
 62
  256
370
   -1
100
AcDbLine
 10
0.629999999997537
 20
116.0099999999997
 11
20.9499999999966
 21
116.0099999999997
  0
LINE
  5
288
100
AcDbEntity
  8
universal_board
  6
ByLayer
 62
  256
370
   -1
100
AcDbLine
 10
3.169999999998326
 20
118.55
 11
3.169999999998326
 21
100.7699999999998
  0
LINE
  5
289
100
AcDbEntity
  8
universal_board
  6
ByLayer
 62
  256
370
   -1
100
AcDbLine
 10
5.709999999998206
 20
118.55
 11
5.709999999998206
 21
100.7699999999998
  0
LINE
  5
28A
100
AcDbEntity
  8
universal_board
  6
ByLayer
 62
  256
370
   -1
100
AcDbLine
 10
8.249999999998085
 20
118.55
 11
8.249999999998085
 21
100.7699999999998
  0
LINE
  5
28B
100
AcDbEntity
  8
universal_board
  6
ByLayer
 62
  256
370
   -1
100
AcDbLine
 10
10.78999999999797
 20
118.55
 11
10.78999999999797
 21
100.7699999999998
  0
LINE
  5
28C
100
AcDbEntity
  8
universal_board
  6
ByLayer
 62
  256
370
   -1
100
AcDbLine
 10
13.32999999999785
 20
118.55
 11
13.32999999999785
 21
100.7699999999998
  0
LINE
  5
28D
100
AcDbEntity
  8
universal_board
  6
ByLayer
 62
  256
370
   -1
100
AcDbLine
 10
15.86999999999772
 20
118.55
 11
15.86999999999772
 21
100.7699999999998
  0
LINE
  5
28E
100
AcDbEntity
  8
universal_board
  6
ByLayer
 62
  256
370
   -1
100
AcDbLine
 10
18.40999999999761
 20
118.55
 11
18.40999999999761
 21
100.7699999999998
  0
MTEXT
  5
28F
100
AcDbEntity
  8
resister
  6
ByLayer
 62
  256
370
   -1
100
AcDbMText
 10
-14.21150281645023
 20
140.7029252134269
 30
0
 40
1
 41
1.77777777777784
 71
    4
 72
    1
  1
JR1
  7
iso
210
0
220
0
230
1
 50
0
 73
    2
 44
1.54
  0
LINE
  5
290
100
AcDbEntity
  8
0_wire
  6
ByLayer
 62
  256
370
   -1
100
AcDbLine
 10
-18.42000000000033
 20
147.7600000000009
 11
-15.88000000000045
 21
147.7600000000009
  0
LINE
  5
291
100
AcDbEntity
  8
0_wire
  6
ByLayer
 62
  256
370
   -1
100
AcDbLine
 10
-13.34000000000057
 20
142.6800000000008
 11
-15.88000000000045
 21
142.6800000000008
  0
LINE
  5
292
100
AcDbEntity
  8
0_wire
  6
ByLayer
 62
  256
370
   -1
100
AcDbLine
 10
-15.88000000000045
 20
147.7600000000009
 11
-15.88000000000045
 21
142.6800000000008
  0
LINE
  5
293
100
AcDbEntity
  8
0_GND
  6
ByLayer
 62
  256
370
   -1
100
AcDbLine
 10
-13.34000000000057
 20
117.2800000000006
 11
-13.34000000000057
 21
114.7400000000006
  0
LINE
  5
294
100
AcDbEntity
  8
universal_board
  6
ByLayer
 62
  256
370
   -1
100
AcDbLine
 10
-29.85000000000019
 20
118.55
 11
-29.85000000000019
 21
100.7699999999998
  0
LINE
  5
295
100
AcDbEntity
  8
universal_board
  6
ByLayer
 62
  256
370
   -1
100
AcDbLine
 10
-9.530000000001133
 20
118.55
 11
-9.530000000001133
 21
100.7699999999998
  0
LINE
  5
296
100
AcDbEntity
  8
5V line
  6
ByLayer
 62
  256
370
   -1
100
AcDbLine
 10
-28.57999999999987
 20
117.2800000000006
 11
-23.50000000000009
 21
117.2800000000006
  0
LINE
  5
297
100
AcDbEntity
  8
0_GND
  6
ByLayer
 62
  256
370
   -1
100
AcDbLine
 10
-13.34000000000057
 20
112.2000000000006
 11
-13.34000000000057
 21
114.7400000000006
  0
LINE
  5
298
100
AcDbEntity
  8
0_GND
  6
ByLayer
 62
  256
370
   -1
100
AcDbLine
 10
-10.80000000000069
 20
117.2800000000006
 11
-13.34000000000057
 21
117.2800000000006
  0
LINE
  5
299
100
AcDbEntity
  8
5V line
  6
ByLayer
 62
  256
370
   -1
100
AcDbLine
 10
-23.50000000000009
 20
117.2800000000006
 11
-15.88000000000045
 21
117.2800000000006
  0
MTEXT
  5
29A
100
AcDbEntity
  8
universal_board
  6
ByLayer
 62
  256
370
   -1
100
AcDbMText
 10
-27.36609419606504
 20
119.779755971247
 30
0
 40
1
 41
2.222222222222222
 71
    4
 72
    1
  1
UB2
  7
iso
210
0
220
0
230
1
 50
0
 73
    2
 44
1.54
  0
MTEXT
  5
29B
100
AcDbEntity
  8
micon
  6
ByLayer
 62
  256
370
   -1
100
AcDbMText
 10
-19.16441220168295
 20
132.568884414109
 30
0
 40
1
 41
3.111110888889013
 71
    4
 72
    1
  1
VSS\PD+\PD-\P(3V3)\P(RC0)\P(RC1)\P(RC2)
  7
iso
210
0
220
0
230
1
 50
0
 73
    2
 44
1.54
  0
LINE
  5
29C
100
AcDbEntity
  8
0_wire
  6
ByLayer
 62
  256
370
   -1
100
AcDbLine
 10
-23.50000000000009
 20
137.6000000000008
 11
-28.57999999999987
 21
137.6000000000008
  0
LINE
  5
29D
100
AcDbEntity
  8
0_wire
  6
ByLayer
 62
  256
370
   -1
100
AcDbLine
 10
-23.50000000000009
 20
135.0600000000008
 11
-28.57999999999987
 21
135.0600000000008
  0
MTEXT
  5
29E
100
AcDbEntity
  8
socket_header
  6
ByLayer
 62
  256
370
   -1
100
AcDbMText
 10
-30.68623846302161
 20
110.6477378158651
 30
0
 40
1
 41
1.333333333333333
 71
    4
 72
    1
  1
V\PD\PC\P\P\PTx
  7
iso
210
0
220
0
230
1
 50
0
 73
    2
 44
1.54
  0
MTEXT
  5
29F
100
AcDbEntity
  8
socket_header
  6
ByLayer
 62
  256
370
   -1
100
AcDbMText
 10
-9.048975406677624
 20
117.3064996173513
 30
0
 40
1
 41
0.5555555555556175
 71
    4
 72
    1
  1
G
  7
iso
210
0
220
0
230
1
 50
0
 73
    2
 44
1.54
  0
MTEXT
  5
2A0
100
AcDbEntity
  8
terminal
  6
ByLayer
 62
  256
370
   -1
100
AcDbMText
 10
-20.50072432213564
 20
105.4202518579139
 30
0
 40
1
 41
2.111111111111111
 71
    4
 72
    1
  1
XH1
  7
iso
210
0
220
0
230
1
 50
0
 73
    2
 44
1.54
  0
MTEXT
  5
2A1
100
AcDbEntity
  8
terminal
  6
ByLayer
 62
  256
370
   -1
100
AcDbMText
 10
-23.1297055664582
 20
110.790662694318
 30
0
 40
1
 41
0.6588888888888887
 71
    4
 72
    1
  1
V\PG\PD\PC
  7
azomix
210
0
220
0
230
1
 50
0
 73
    2
 44
1.54
  0
LINE
  5
2A2
100
AcDbEntity
  8
5V line
  6
ByLayer
 62
  256
370
   -1
100
AcDbLine
 10
-20.96000000000021
 20
117.2800000000006
 11
-20.96000000000021
 21
114.7400000000006
  0
LINE
  5
2A3
100
AcDbEntity
  8
0_GND
  6
ByLayer
 62
  256
370
   -1
100
AcDbLine
 10
-20.96000000000021
 20
112.2000000000006
 11
-13.34000000000057
 21
112.2000000000006
  0
LINE
  5
2A4
100
AcDbEntity
  8
0_wire
  6
ByLayer
 62
  256
370
   -1
100
AcDbLine
 10
-28.57999999999987
 20
112.2000000000006
 11
-26.03999999999998
 21
112.2000000000006
  0
LINE
  5
2A5
100
AcDbEntity
  8
0_wire
  6
ByLayer
 62
  256
370
   -1
100
AcDbLine
 10
-26.03999999999998
 20
112.2000000000006
 11
-26.03999999999998
 21
107.1200000000005
  0
LINE
  5
2A6
100
AcDbEntity
  8
0_wire
  6
ByLayer
 62
  256
370
   -1
100
AcDbLine
 10
-26.03999999999998
 20
107.1200000000005
 11
-20.96000000000021
 21
107.1200000000005
  0
LINE
  5
2A7
100
AcDbEntity
  8
0_wire
  6
ByLayer
 62
  256
370
   -1
100
AcDbLine
 10
-28.57999999999987
 20
114.7400000000006
 11
-23.50000000000009
 21
114.7400000000006
  0
LINE
  5
2A8
100
AcDbEntity
  8
0_wire
  6
ByLayer
 62
  256
370
   -1
100
AcDbLine
 10
-23.50000000000009
 20
114.7400000000006
 11
-23.50000000000009
 21
109.6600000000006
  0
LINE
  5
2A9
100
AcDbEntity
  8
0_wire
  6
ByLayer
 62
  256
370
   -1
100
AcDbLine
 10
-23.50000000000009
 20
109.6600000000006
 11
-20.96000000000021
 21
109.6600000000006
  0
CIRCLE
  5
2AA
100
AcDbEntity
  8
condenser
  6
ByLayer
 62
  256
370
   -1
100
AcDbCircle
 10
-14.61000000000057
 20
114.7400000000006
 40
1.6
  0
CIRCLE
  5
2AB
100
AcDbEntity
  8
condenser
  6
ByLayer
 62
  256
370
   -1
100
AcDbCircle
 10
-15.88000000000045
 20
114.7400000000006
 40
0.15
  0
CIRCLE
  5
2AC
100
AcDbEntity
  8
condenser
  6
ByLayer
 62
  256
370
   -1
100
AcDbCircle
 10
-13.34000000000057
 20
114.7400000000006
 40
0.15
  0
LINE
  5
2AD
100
AcDbEntity
  8
5V line
  6
ByLayer
 62
  256
370
   -1
100
AcDbLine
 10
-15.88000000000045
 20
117.2800000000006
 11
-15.88000000000045
 21
114.7400000000006
  0
CIRCLE
  5
2AE
100
AcDbEntity
  8
terminal
  6
ByLayer
 62
  256
370
   -1
100
AcDbCircle
 10
-15.88000000000045
 20
104.5800000000005
 40
1.5
  0
LINE
  5
2AF
100
AcDbEntity
  8
0_wire
  6
ByLayer
 62
  256
370
   -1
100
AcDbLine
 10
-28.57999999999987
 20
104.5800000000005
 11
-15.88000000000045
 21
104.5800000000005
  0
LINE
  5
2B0
100
AcDbEntity
  8
socket_header
  6
ByLayer
 62
  256
370
   -1
100
AcDbLine
 10
-29.85000000000108
 20
118.55
 11
-29.85000000000108
 21
110.9299999999999
  0
LINE
  5
2B1
100
AcDbEntity
  8
socket_header
  6
ByLayer
 62
  256
370
   -1
100
AcDbLine
 10
-27.3100000000012
 20
118.55
 11
-27.3100000000012
 21
110.9299999999999
  0
LINE
  5
2B2
100
AcDbEntity
  8
socket_header
  6
ByLayer
 62
  256
370
   -1
100
AcDbLine
 10
-29.85000000000108
 20
105.8499999999999
 11
-29.85000000000108
 21
103.3099999999998
  0
LINE
  5
2B3
100
AcDbEntity
  8
socket_header
  6
ByLayer
 62
  256
370
   -1
100
AcDbLine
 10
-29.85000000000108
 20
103.3099999999998
 11
-29.85000000000108
 21
100.7699999999998
  0
LINE
  5
2B4
100
AcDbEntity
  8
socket_header
  6
ByLayer
 62
  256
370
   -1
100
AcDbLine
 10
-27.3100000000012
 20
105.8499999999999
 11
-27.3100000000012
 21
103.3099999999998
  0
LINE
  5
2B5
100
AcDbEntity
  8
socket_header
  6
ByLayer
 62
  256
370
   -1
100
AcDbLine
 10
-27.3100000000012
 20
103.3099999999998
 11
-27.3100000000012
 21
100.7699999999998
  0
LINE
  5
2B6
100
AcDbEntity
  8
socket_header
  6
ByLayer
 62
  256
370
   -1
100
AcDbLine
 10
-12.07000000000189
 20
113.4699999999999
 11
-12.07000000000189
 21
118.55
  0
LINE
  5
2B7
100
AcDbEntity
  8
socket_header
  6
ByLayer
 62
  256
370
   -1
100
AcDbLine
 10
-9.530000000002016
 20
113.4699999999999
 11
-9.530000000002016
 21
118.55
  0
LINE
  5
2B8
100
AcDbEntity
  8
socket_header
  6
ByLayer
 62
  256
370
   -1
100
AcDbLine
 10
-12.0700000000019
 20
105.8499999999999
 11
-12.0700000000019
 21
103.3099999999998
  0
LINE
  5
2B9
100
AcDbEntity
  8
socket_header
  6
ByLayer
 62
  256
370
   -1
100
AcDbLine
 10
-12.0700000000019
 20
103.3099999999998
 11
-12.0700000000019
 21
100.7699999999998
  0
LINE
  5
2BA
100
AcDbEntity
  8
socket_header
  6
ByLayer
 62
  256
370
   -1
100
AcDbLine
 10
-9.530000000002019
 20
100.7699999999998
 11
-9.530000000002019
 21
103.3099999999998
  0
LINE
  5
2BB
100
AcDbEntity
  8
socket_header
  6
ByLayer
 62
  256
370
   -1
100
AcDbLine
 10
-9.530000000002019
 20
103.3099999999998
 11
-9.530000000002019
 21
105.8499999999999
  0
LINE
  5
2BC
100
AcDbEntity
  8
socket_header
  6
ByLayer
 62
  256
370
   -1
100
AcDbLine
 10
-29.85000000000108
 20
141.4100000000001
 11
-29.85000000000108
 21
133.7900000000001
  0
LINE
  5
2BD
100
AcDbEntity
  8
socket_header
  6
ByLayer
 62
  256
370
   -1
100
AcDbLine
 10
-27.3100000000012
 20
141.4100000000001
 11
-27.3100000000012
 21
133.7900000000001
  0
LINE
  5
2BE
100
AcDbEntity
  8
socket_header
  6
ByLayer
 62
  256
370
   -1
100
AcDbLine
 10
-29.85000000000108
 20
128.71
 11
-29.85000000000108
 21
126.17
  0
LINE
  5
2BF
100
AcDbEntity
  8
socket_header
  6
ByLayer
 62
  256
370
   -1
100
AcDbLine
 10
-29.85000000000108
 20
126.17
 11
-29.85000000000108
 21
123.63
  0
LINE
  5
2C0
100
AcDbEntity
  8
socket_header
  6
ByLayer
 62
  256
370
   -1
100
AcDbLine
 10
-27.3100000000012
 20
123.63
 11
-27.3100000000012
 21
126.17
  0
LINE
  5
2C1
100
AcDbEntity
  8
socket_header
  6
ByLayer
 62
  256
370
   -1
100
AcDbLine
 10
-27.3100000000012
 20
126.17
 11
-27.3100000000012
 21
128.71
  0
LINE
  5
2C2
100
AcDbEntity
  8
resister
  6
ByLayer
 62
  256
370
   -1
100
AcDbLine
 10
-12.23999999999972
 20
137.340000000003
 11
-12.23999999999972
 21
142.9400000000031
  0
LINE
  5
2C3
100
AcDbEntity
  8
resister
  6
ByLayer
 62
  256
370
   -1
100
AcDbLine
 10
-12.23999999999972
 20
142.9400000000031
 11
-14.4399999999994
 21
142.9400000000031
  0
LINE
  5
2C4
100
AcDbEntity
  8
resister
  6
ByLayer
 62
  256
370
   -1
100
AcDbLine
 10
-14.4399999999994
 20
142.9400000000031
 11
-14.4399999999994
 21
137.340000000003
  0
LINE
  5
2C5
100
AcDbEntity
  8
resister
  6
ByLayer
 62
  256
370
   -1
100
AcDbLine
 10
-14.4399999999994
 20
137.340000000003
 11
-12.23999999999972
 21
137.340000000003
  0
LINE
  5
2C6
100
AcDbEntity
  8
resister
  6
ByLayer
 62
  256
370
   -1
100
AcDbLine
 10
-13.3400000000006
 20
137.6000000000008
 11
-13.3400000000006
 21
137.340000000003
  0
LINE
  5
2C7
100
AcDbEntity
  8
resister
  6
ByLayer
 62
  256
370
   -1
100
AcDbLine
 10
-13.3400000000006
 20
142.6800000000008
 11
-13.3400000000006
 21
142.9400000000031
  0
LINE
  5
2C8
100
AcDbEntity
  8
socket_header
  6
ByLayer
 62
  256
370
   -1
100
AcDbLine
 10
-12.07000000000189
 20
136.3300000000001
 11
-12.07000000000189
 21
141.4100000000001
  0
LINE
  5
2C9
100
AcDbEntity
  8
socket_header
  6
ByLayer
 62
  256
370
   -1
100
AcDbLine
 10
-9.530000000002016
 20
136.3300000000001
 11
-9.530000000002016
 21
141.4100000000001
  0
LINE
  5
2CA
100
AcDbEntity
  8
socket_header
  6
ByLayer
 62
  256
370
   -1
100
AcDbLine
 10
-12.0700000000019
 20
128.71
 11
-12.0700000000019
 21
126.17
  0
LINE
  5
2CB
100
AcDbEntity
  8
socket_header
  6
ByLayer
 62
  256
370
   -1
100
AcDbLine
 10
-12.0700000000019
 20
126.17
 11
-12.0700000000019
 21
123.63
  0
LINE
  5
2CC
100
AcDbEntity
  8
socket_header
  6
ByLayer
 62
  256
370
   -1
100
AcDbLine
 10
-9.530000000002019
 20
123.63
 11
-9.530000000002019
 21
126.17
  0
LINE
  5
2CD
100
AcDbEntity
  8
socket_header
  6
ByLayer
 62
  256
370
   -1
100
AcDbLine
 10
-9.530000000002019
 20
126.17
 11
-9.530000000002019
 21
128.71
  0
MTEXT
  5
2CE
100
AcDbEntity
  8
micon
  6
ByLayer
 62
  256
370
   -1
100
AcDbMText
 10
-22.60425264880404
 20
132.4061190926083
 30
0
 40
1
 41
3.999999777777778
 71
    4
 72
    1
  1
VDD\PRA5\PRA4\P(MCLR)\P(RX)\PTX\P(RC3)
  7
iso
210
0
220
0
230
1
 50
0
 73
    2
 44
1.54
  0
CIRCLE
  5
2CF
100
AcDbEntity
  8
0_wire
  6
ByLayer
 62
  256
370
   -1
100
AcDbCircle
 10
-10.80000000000069
 20
137.6000000000008
 40
0.4
  0
CIRCLE
  5
2D0
100
AcDbEntity
  8
0_wire
  6
ByLayer
 62
  256
370
   -1
100
AcDbCircle
 10
-10.80000000000069
 20
127.4400000000007
 40
0.4
  0
CIRCLE
  5
2D1
100
AcDbEntity
  8
0_wire
  6
ByLayer
 62
  256
370
   -1
100
AcDbCircle
 10
-10.80000000000069
 20
124.9000000000007
 40
0.4
  0
CIRCLE
  5
2D2
100
AcDbEntity
  8
0_wire
  6
ByLayer
 62
  256
370
   -1
100
AcDbCircle
 10
-15.88000000000045
 20
124.9000000000007
 40
0.4
  0
CIRCLE
  5
2D3
100
AcDbEntity
  8
0_wire
  6
ByLayer
 62
  256
370
   -1
100
AcDbCircle
 10
-15.88000000000045
 20
127.4400000000007
 40
0.4
  0
CIRCLE
  5
2D4
100
AcDbEntity
  8
0_wire
  6
ByLayer
 62
  256
370
   -1
100
AcDbCircle
 10
-15.88000000000045
 20
129.9800000000007
 40
0.4
  0
CIRCLE
  5
2D5
100
AcDbEntity
  8
0_wire
  6
ByLayer
 62
  256
370
   -1
100
AcDbCircle
 10
-15.88000000000045
 20
132.5200000000007
 40
0.4
  0
CIRCLE
  5
2D6
100
AcDbEntity
  8
0_wire
  6
ByLayer
 62
  256
370
   -1
100
AcDbCircle
 10
-23.50000000000009
 20
132.5200000000007
 40
0.4
  0
CIRCLE
  5
2D7
100
AcDbEntity
  8
0_wire
  6
ByLayer
 62
  256
370
   -1
100
AcDbCircle
 10
-23.50000000000009
 20
129.9800000000007
 40
0.4
  0
CIRCLE
  5
2D8
100
AcDbEntity
  8
0_wire
  6
ByLayer
 62
  256
370
   -1
100
AcDbCircle
 10
-23.50000000000009
 20
124.9000000000007
 40
0.4
  0
CIRCLE
  5
2D9
100
AcDbEntity
  8
0_wire
  6
ByLayer
 62
  256
370
   -1
100
AcDbCircle
 10
-28.57999999999987
 20
124.9000000000007
 40
0.4
  0
CIRCLE
  5
2DA
100
AcDbEntity
  8
0_wire
  6
ByLayer
 62
  256
370
   -1
100
AcDbCircle
 10
-10.80000000000069
 20
114.7400000000006
 40
0.4
  0
CIRCLE
  5
2DB
100
AcDbEntity
  8
0_wire
  6
ByLayer
 62
  256
370
   -1
100
AcDbCircle
 10
-10.80000000000069
 20
104.5800000000005
 40
0.4
  0
CIRCLE
  5
2DC
100
AcDbEntity
  8
0_wire
  6
ByLayer
 62
  256
370
   -1
100
AcDbCircle
 10
-10.80000000000069
 20
102.0400000000005
 40
0.4
  0
CIRCLE
  5
2DD
100
AcDbEntity
  8
0_wire
  6
ByLayer
 62
  256
370
   -1
100
AcDbCircle
 10
-28.57999999999987
 20
102.0400000000005
 40
0.4
  0
LINE
  5
2DE
100
AcDbEntity
  8
5V line
  6
ByLayer
 62
  256
370
  200
100
AcDbLine
 10
12.05999999999649
 20
145.220000000001
 11
12.05999999999661
 21
140.1400000000009
  0
LINE
  5
2DF
100
AcDbEntity
  8
5V line
  6
ByLayer
 62
  256
370
  200
100
AcDbLine
 10
12.05999999999661
 20
140.1400000000009
 11
14.59999999999649
 21
140.1400000000009
  0
LINE
  5
2E0
100
AcDbEntity
  8
0_wire
  6
ByLayer
 62
  256
370
  200
100
AcDbLine
 10
9.51999999999661
 20
145.2200000000009
 11
9.519999999996845
 21
135.0600000000008
  0
LINE
  5
2E1
100
AcDbEntity
  8
0_wire
  6
ByLayer
 62
  256
370
  200
100
AcDbLine
 10
9.519999999996845
 20
135.0600000000008
 11
6.979999999996966
 21
135.0600000000007
  0
LINE
  5
2E2
100
AcDbEntity
  8
0_wire
  6
ByLayer
 62
  256
370
  200
100
AcDbLine
 10
4.439999999997028
 20
137.6000000000006
 11
6.979999999996906
 21
137.6000000000007
  0
LINE
  5
2E3
100
AcDbEntity
  8
5V line
  6
ByLayer
 62
  256
370
  200
100
AcDbLine
 10
14.59999999999649
 20
140.1400000000009
 11
19.67999999999627
 21
140.140000000001
  0
LINE
  5
2E4
100
AcDbEntity
  8
0_GND
  6
ByLayer
 62
  256
370
  200
100
AcDbLine
 10
6.979999999996849
 20
140.1400000000008
 11
1.899999999997089
 21
140.1400000000006
  0
LINE
  5
2E5
100
AcDbEntity
  8
0_GND
  6
ByLayer
 62
  256
370
  200
100
AcDbLine
 10
12.03999999999785
 20
147.7600000000009
 11
12.05999999999638
 21
150.3000000000009
  0
LINE
  5
2E6
100
AcDbEntity
  8
0_GND
  6
ByLayer
 62
  256
370
  200
100
AcDbLine
 10
12.05999999999638
 20
150.3000000000009
 11
17.13999999999615
 21
150.3000000000011
  0
LINE
  5
2E7
100
AcDbEntity
  8
0_GND
  6
ByLayer
 62
  256
370
  200
100
AcDbLine
 10
12.05999999999638
 20
150.3000000000009
 11
4.43999999999674
 21
150.3000000000007
  0
LINE
  5
2E8
100
AcDbEntity
  8
0_GND
  6
ByLayer
 62
  256
370
  200
100
AcDbLine
 10
12.05999999999638
 20
150.3000000000009
 11
12.05999999999632
 21
152.840000000001
  0
LINE
  5
2E9
100
AcDbEntity
  8
0_GND
  6
ByLayer
 62
  256
370
  200
100
AcDbLine
 10
12.05999999999632
 20
152.840000000001
 11
1.899999999996798
 21
152.8400000000007
  0
LINE
  5
2EA
100
AcDbEntity
  8
0_GND
  6
ByLayer
 62
  256
370
  200
100
AcDbLine
 10
1.899999999996798
 20
152.8400000000007
 11
1.899999999997089
 21
140.1400000000006
  0
LINE
  5
2EB
100
AcDbEntity
  8
0_wire
  6
ByLayer
 62
  256
370
  200
100
AcDbLine
 10
14.59999999999678
 20
127.4400000000008
 11
19.67999999999656
 21
127.4400000000009
  0
LINE
  5
2EC
100
AcDbEntity
  8
5V line
  6
ByLayer
 62
  256
370
  200
100
AcDbLine
 10
19.67999999999627
 20
140.140000000001
 11
19.67999999999621
 21
142.680000000001
  0
LINE
  5
2ED
100
AcDbEntity
  8
0_GND
  6
ByLayer
 62
  256
370
  200
100
AcDbLine
 10
12.05999999999644
 20
147.7600000000009
 11
19.6799999999961
 21
147.7600000000011
  0
LINE
  5
2EE
100
AcDbEntity
  8
0_GND
  6
ByLayer
 62
  256
370
  200
100
AcDbLine
 10
19.6799999999961
 20
147.7600000000011
 11
19.67999999999615
 21
145.2200000000011
  0
LINE
  5
2EF
100
AcDbEntity
  8
0_wire
  6
ByLayer
 62
  256
370
  200
100
AcDbLine
 10
9.519999999996553
 20
147.7600000000008
 11
6.979999999996675
 21
147.7600000000008
  0
LINE
  5
2F0
100
AcDbEntity
  8
0_wire
  6
ByLayer
 62
  256
370
  200
100
AcDbLine
 10
4.439999999996914
 20
142.6800000000006
 11
6.979999999996792
 21
142.6800000000007
  0
LINE
  5
2F1
100
AcDbEntity
  8
0_wire
  6
ByLayer
 62
  256
370
  200
100
AcDbLine
 10
6.979999999996675
 20
147.7600000000008
 11
6.979999999996792
 21
142.6800000000007
  0
LINE
  5
2F2
100
AcDbEntity
  8
0_GND
  6
ByLayer
 62
  256
370
  200
100
AcDbLine
 10
4.439999999997497
 20
117.2800000000005
 11
4.439999999997553
 21
114.7400000000004
  0
LINE
  5
2F3
100
AcDbEntity
  8
5V line
  6
ByLayer
 62
  256
370
  200
100
AcDbLine
 10
19.6799999999968
 20
117.2800000000008
 11
14.59999999999701
 21
117.2800000000007
  0
LINE
  5
2F4
100
AcDbEntity
  8
0_GND
  6
ByLayer
 62
  256
370
  200
100
AcDbLine
 10
4.43999999999761
 20
112.2000000000004
 11
4.439999999997553
 21
114.7400000000004
  0
LINE
  5
2F5
100
AcDbEntity
  8
0_GND
  6
ByLayer
 62
  256
370
  200
100
AcDbLine
 10
1.899999999997615
 20
117.2800000000004
 11
4.439999999997497
 21
117.2800000000005
  0
LINE
  5
2F6
100
AcDbEntity
  8
5V line
  6
ByLayer
 62
  256
370
  200
100
AcDbLine
 10
14.59999999999701
 20
117.2800000000007
 11
6.979999999997375
 21
117.2800000000005
  0
LINE
  5
2F7
100
AcDbEntity
  8
0_wire
  6
ByLayer
 62
  256
370
  200
100
AcDbLine
 10
14.59999999999654
 20
137.6000000000008
 11
19.67999999999633
 21
137.600000000001
  0
LINE
  5
2F8
100
AcDbEntity
  8
0_wire
  6
ByLayer
 62
  256
370
  200
100
AcDbLine
 10
14.59999999999661
 20
135.0600000000009
 11
19.67999999999639
 21
135.060000000001
  0
LINE
  5
2F9
100
AcDbEntity
  8
5V line
  6
ByLayer
 62
  256
370
  200
100
AcDbLine
 10
12.05999999999714
 20
117.2800000000006
 11
12.05999999999719
 21
114.7400000000006
  0
LINE
  5
2FA
100
AcDbEntity
  8
0_GND
  6
ByLayer
 62
  256
370
  200
100
AcDbLine
 10
12.05999999999725
 20
112.2000000000006
 11
4.43999999999761
 21
112.2000000000004
  0
LINE
  5
2FB
100
AcDbEntity
  8
0_wire
  6
ByLayer
 62
  256
370
  200
100
AcDbLine
 10
19.67999999999691
 20
112.2000000000008
 11
17.13999999999702
 21
112.2000000000007
  0
LINE
  5
2FC
100
AcDbEntity
  8
0_wire
  6
ByLayer
 62
  256
370
  200
100
AcDbLine
 10
17.13999999999702
 20
112.2000000000007
 11
17.13999999999714
 21
107.1200000000006
  0
LINE
  5
2FD
100
AcDbEntity
  8
0_wire
  6
ByLayer
 62
  256
370
  200
100
AcDbLine
 10
17.13999999999714
 20
107.1200000000006
 11
12.05999999999737
 21
107.1200000000005
  0
LINE
  5
2FE
100
AcDbEntity
  8
0_wire
  6
ByLayer
 62
  256
370
  200
100
AcDbLine
 10
19.67999999999685
 20
114.7400000000008
 11
14.59999999999707
 21
114.7400000000007
  0
LINE
  5
2FF
100
AcDbEntity
  8
0_wire
  6
ByLayer
 62
  256
370
  200
100
AcDbLine
 10
14.59999999999707
 20
114.7400000000007
 11
14.59999999999719
 21
109.6600000000007
  0
LINE
  5
300
100
AcDbEntity
  8
0_wire
  6
ByLayer
 62
  256
370
  200
100
AcDbLine
 10
14.59999999999719
 20
109.6600000000007
 11
12.05999999999731
 21
109.6600000000006
  0
LINE
  5
301
100
AcDbEntity
  8
5V line
  6
ByLayer
 62
  256
370
  200
100
AcDbLine
 10
6.979999999997375
 20
117.2800000000005
 11
6.979999999997432
 21
114.7400000000005
  0
LINE
  5
302
100
AcDbEntity
  8
0_wire
  6
ByLayer
 62
  256
370
  200
100
AcDbLine
 10
19.67999999999708
 20
104.5800000000007
 11
6.979999999997663
 21
104.5800000000004
  0
CIRCLE
  5
303
100
AcDbEntity
  8
0_wire
  6
ByLayer
 62
  256
370
  200
100
AcDbCircle
 10
1.899999999997146
 20
137.6000000000006
 40
0.4
  0
CIRCLE
  5
304
100
AcDbEntity
  8
0_wire
  6
ByLayer
 62
  256
370
  200
100
AcDbCircle
 10
1.89999999999738
 20
127.4400000000005
 40
0.4
  0
CIRCLE
  5
305
100
AcDbEntity
  8
0_wire
  6
ByLayer
 62
  256
370
  200
100
AcDbCircle
 10
1.899999999997437
 20
124.9000000000005
 40
0.4
  0
CIRCLE
  5
306
100
AcDbEntity
  8
0_wire
  6
ByLayer
 62
  256
370
  200
100
AcDbCircle
 10
6.979999999997197
 20
124.9000000000006
 40
0.4
  0
CIRCLE
  5
307
100
AcDbEntity
  8
0_wire
  6
ByLayer
 62
  256
370
  200
100
AcDbCircle
 10
6.97999999999714
 20
127.4400000000006
 40
0.4
  0
CIRCLE
  5
308
100
AcDbEntity
  8
0_wire
  6
ByLayer
 62
  256
370
  200
100
AcDbCircle
 10
6.979999999997084
 20
129.9800000000006
 40
0.4
  0
CIRCLE
  5
309
100
AcDbEntity
  8
0_wire
  6
ByLayer
 62
  256
370
  200
100
AcDbCircle
 10
6.979999999997023
 20
132.5200000000006
 40
0.4
  0
CIRCLE
  5
30A
100
AcDbEntity
  8
0_wire
  6
ByLayer
 62
  256
370
  200
100
AcDbCircle
 10
14.59999999999666
 20
132.5200000000007
 40
0.4
  0
CIRCLE
  5
30B
100
AcDbEntity
  8
0_wire
  6
ByLayer
 62
  256
370
  200
100
AcDbCircle
 10
14.59999999999672
 20
129.9800000000008
 40
0.4
  0
CIRCLE
  5
30C
100
AcDbEntity
  8
0_wire
  6
ByLayer
 62
  256
370
  200
100
AcDbCircle
 10
14.59999999999684
 20
124.9000000000008
 40
0.4
  0
CIRCLE
  5
30D
100
AcDbEntity
  8
0_wire
  6
ByLayer
 62
  256
370
  200
100
AcDbCircle
 10
19.67999999999662
 20
124.9000000000009
 40
0.4
  0
CIRCLE
  5
30E
100
AcDbEntity
  8
0_wire
  6
ByLayer
 62
  256
370
  200
100
AcDbCircle
 10
1.899999999997672
 20
114.7400000000004
 40
0.4
  0
CIRCLE
  5
30F
100
AcDbEntity
  8
0_wire
  6
ByLayer
 62
  256
370
  200
100
AcDbCircle
 10
1.899999999997902
 20
104.5800000000003
 40
0.4
  0
CIRCLE
  5
310
100
AcDbEntity
  8
0_wire
  6
ByLayer
 62
  256
370
  200
100
AcDbCircle
 10
1.899999999997963
 20
102.0400000000003
 40
0.4
  0
CIRCLE
  5
311
100
AcDbEntity
  8
0_wire
  6
ByLayer
 62
  256
370
  200
100
AcDbCircle
 10
19.67999999999714
 20
102.0400000000007
 40
0.4
  0
LINE
  5
312
100
AcDbEntity
  8
0_GND
  6
ByLayer
 62
  256
370
   -1
100
AcDbLine
 10
12.05999999999857
 20
152.8400000000009
 11
19.67999999999842
 21
152.8400000000009
  0
LINE
  5
313
100
AcDbEntity
  8
0_GND
  6
ByLayer
 62
  256
370
   -1
100
AcDbLine
 10
4.439999999998719
 20
150.3000000000009
 11
4.439999999998719
 21
145.2200000000009
  0
LINE
  5
314
100
AcDbEntity
  8
0_GND
  6
ByLayer
 62
  256
370
   -1
100
AcDbLine
 10
14.59999999999852
 20
147.7600000000009
 11
14.59999999999852
 21
142.6800000000008
  0
LINE
  5
315
100
AcDbEntity
  8
0_GND
  6
ByLayer
 62
  256
370
   -1
100
AcDbLine
 10
14.59999999999852
 20
142.6800000000008
 11
17.13999999999847
 21
142.6800000000008
  0
LINE
  5
316
100
AcDbEntity
  8
0_GND
  6
ByLayer
 62
  256
370
   -1
100
AcDbLine
 10
17.13999999999847
 20
142.6800000000008
 11
17.13999999999847
 21
147.7600000000009
  0
LINE
  5
317
100
AcDbEntity
  8
0_GND
  6
ByLayer
 62
  256
370
   -1
100
AcDbLine
 10
9.519999999998408
 20
112.2000000000006
 11
9.519999999998408
 21
114.7400000000006
  0
LINE
  5
318
100
AcDbEntity
  8
0_GND
  6
ByLayer
 62
  256
370
   -1
100
AcDbLine
 10
4.439999999998649
 20
112.2000000000006
 11
1.899999999998769
 21
112.2000000000006
  0
LINE
  5
319
100
AcDbEntity
  8
0_GND
  6
ByLayer
 62
  256
370
   -1
100
AcDbLine
 10
1.899999999998769
 20
112.2000000000006
 11
1.899999999998769
 21
107.1200000000005
  0
LINE
  5
31A
100
AcDbEntity
  8
0_GND
  6
ByLayer
 62
  256
370
   -1
100
AcDbLine
 10
1.899999999998769
 20
107.1200000000005
 11
4.439999999998649
 21
107.1200000000005
  0
LINE
  5
31B
100
AcDbEntity
  8
0_GND
  6
ByLayer
 62
  256
370
   -1
100
AcDbLine
 10
4.439999999998649
 20
107.1200000000005
 11
4.439999999998649
 21
102.0400000000005
  0
LINE
  5
31C
100
AcDbEntity
  8
0_GND
  6
ByLayer
 62
  256
370
   -1
100
AcDbLine
 10
4.439999999998649
 20
102.0400000000005
 11
17.13999999999805
 21
102.0400000000005
  0
LINE
  5
31D
100
AcDbEntity
  8
0_GND
  6
ByLayer
 62
  256
370
   -1
100
AcDbLine
 10
4.439999999998649
 20
107.1200000000005
 11
9.519999999998408
 21
107.1200000000005
  0
LINE
  5
31E
100
AcDbEntity
  8
0_GND
  6
ByLayer
 62
  256
370
   -1
100
AcDbLine
 10
9.519999999998408
 20
107.1200000000005
 11
9.519999999998408
 21
109.6600000000006
  0
LINE
  5
31F
100
AcDbEntity
  8
0_GND
  6
ByLayer
 62
  256
370
   -1
100
AcDbLine
 10
9.519999999998408
 20
109.6600000000006
 11
4.439999999998649
 21
109.6600000000006
  0
LINE
  5
320
100
AcDbEntity
  8
0_GND
  6
ByLayer
 62
  256
370
   -1
100
AcDbLine
 10
4.439999999998649
 20
109.6600000000006
 11
4.439999999998649
 21
112.2000000000006
  0
MTEXT
  5
321
100
AcDbEntity
  8
socket_header
  6
ByLayer
 62
  256
370
   -1
100
AcDbMText
 10
-33.00921339836016
 20
124.8160881625493
 30
0
 40
1
 41
2.41
 71
    4
 72
    1
  1
PS2
  7
azomix
210
0
220
0
230
1
 50
0
 73
    2
 44
1.54
  0
MTEXT
  5
322
100
AcDbEntity
  8
socket_header
  6
ByLayer
 62
  256
370
   -1
100
AcDbMText
 10
-9.162483866088941
 20
140.3498356441306
 30
0
 40
1
 41
2.41
 71
    4
 72
    1
  1
PS3
  7
azomix
210
0
220
0
230
1
 50
0
 73
    2
 44
1.54
  0
MTEXT
  5
323
100
AcDbEntity
  8
socket_header
  6
ByLayer
 62
  256
370
   -1
100
AcDbMText
 10
-8.677054257289527
 20
125.2408390702488
 30
0
 40
1
 41
2.478888888888889
 71
    4
 72
    1
  1
PS4
  7
azomix
210
0
220
0
230
1
 50
0
 73
    2
 44
1.54
  0
MTEXT
  5
324
100
AcDbEntity
  8
0
  6
ByLayer
 62
  256
370
   -1
100
AcDbMText
 10
-59.24276355617188
 20
136.2989330616361
 30
0
 40
1
 41
23.6666676952413
 71
    4
 72
    1
  1
C1:    0.1uF\PIS1:   IC socket, 14pins\PJR1:   Jumper\PM1:    PIC14F1455\PPS1: Pin socket 3P\PPS2-4: Pin socket 2P\PUB1:   Universal board, 12x8 holes\PUC1:   USB-B, XM7B-0442, Omron
  7
iso
210
0
220
0
230
1
 50
0
 73
    2
 44
1.54
  0
MTEXT
  5
325
100
AcDbEntity
  8
socket_header
  6
ByLayer
 62
  256
370
   -1
100
AcDbMText
 10
-32.68452826525051
 20
101.8334308368777
 30
0
 40
1
 41
2.222222222222222
 71
    4
 72
    1
  1
PH2
  7
iso
210
0
220
0
230
1
 50
0
 73
    2
 44
1.54
  0
MTEXT
  5
326
100
AcDbEntity
  8
socket_header
  6
ByLayer
 62
  256
370
   -1
100
AcDbMText
 10
-8.616375556189601
 20
114.6220663777617
 30
0
 40
1
 41
2.41
 71
    4
 72
    1
  1
PH3
  7
azomix
210
0
220
0
230
1
 50
0
 73
    2
 44
1.54
  0
MTEXT
  5
327
100
AcDbEntity
  8
socket_header
  6
ByLayer
 62
  256
370
   -1
100
AcDbMText
 10
-8.677054257289527
 20
102.3649687555764
 30
0
 40
1
 41
2.41
 71
    4
 72
    1
  1
Ph4
  7
azomix
210
0
220
0
230
1
 50
0
 73
    2
 44
1.54
  0
MTEXT
  5
328
100
AcDbEntity
  8
condenser
  6
ByLayer
 62
  256
370
   -1
100
AcDbMText
 10
-15.77646228598096
 20
113.8332432634626
 30
0
 40
1
 41
1.362222222222222
 71
    4
 72
    1
  1
C2
  7
azomix
210
0
220
0
230
1
 50
0
 73
    2
 44
1.54
  0
MTEXT
  5
329
100
AcDbEntity
  8
terminal
  6
ByLayer
 62
  256
370
   -1
100
AcDbMText
 10
-15.35171137828147
 20
106.5517991314714
 30
0
 40
1
 41
1.117777777777778
 71
    4
 72
    1
  1
J1
  7
azomix
210
0
220
0
230
1
 50
0
 73
    2
 44
1.54
  0
MTEXT
  5
32A
100
AcDbEntity
  8
0
  6
ByLayer
 62
  256
370
   -1
100
AcDbMText
 10
-58.46225976914383
 20
109.5821433571909
 30
0
 40
1
 41
23.33333436190797
 71
    4
 72
    1
  1
C2  : 1uF chemical\PJ1: Check terminal\PPH1: Pin header 3p\PPH2-4: Pin header 2P\PUB2:   Universal board, 8x7 holes\PXH1:   XH header, 4p
  7
iso
210
0
220
0
230
1
 50
0
 73
    2
 44
1.54
  0
CIRCLE
  5
32B
100
AcDbEntity
  8
terminal
  6
ByLayer
 62
  256
370
   -1
100
AcDbCircle
 10
-20.96000000000021
 20
114.7400000000006
 40
0.5
  0
CIRCLE
  5
32C
100
AcDbEntity
  8
terminal
  6
ByLayer
 62
  256
370
   -1
100
AcDbCircle
 10
-20.96000000000021
 20
112.2000000000006
 40
0.5
  0
CIRCLE
  5
32D
100
AcDbEntity
  8
terminal
  6
ByLayer
 62
  256
370
   -1
100
AcDbCircle
 10
-20.96000000000021
 20
109.6600000000006
 40
0.5
  0
CIRCLE
  5
32E
100
AcDbEntity
  8
terminal
  6
ByLayer
 62
  256
370
   -1
100
AcDbCircle
 10
-20.96000000000021
 20
107.1200000000005
 40
0.5
  0
LINE
  5
32F
100
AcDbEntity
  8
terminal
  6
ByLayer
 62
  256
370
   -1
100
AcDbLine
 10
-23.31000000000023
 20
117.0899999999995
 11
-17.56000000000013
 21
117.0899999999995
  0
LINE
  5
330
100
AcDbEntity
  8
terminal
  6
ByLayer
 62
  256
370
   -1
100
AcDbLine
 10
-17.56000000000013
 20
104.7699999999994
 11
-23.31000000000023
 21
104.7699999999994
  0
LINE
  5
331
100
AcDbEntity
  8
terminal
  6
ByLayer
 62
  256
370
   -1
100
AcDbLine
 10
-23.31000000000023
 20
104.7699999999994
 11
-23.31000000000023
 21
117.0899999999995
  0
LINE
  5
332
100
AcDbEntity
  8
terminal
  6
ByLayer
 62
  256
370
   -1
100
AcDbLine
 10
-17.56000000000013
 20
117.0899999999995
 11
-17.56000000000013
 21
104.7699999999994
  0
LINE
  5
333
100
AcDbEntity
  8
5V line
  6
ByLayer
 62
  256
370
   -1
100
AcDbLine
 10
12.05999999999857
 20
140.1400000000008
 11
12.05999999999857
 21
124.9000000000007
  0
LINE
  5
334
100
AcDbEntity
  8
5V line
  6
ByLayer
 62
  256
370
   -1
100
AcDbLine
 10
12.05999999999857
 20
124.9000000000007
 11
9.519999999998618
 21
124.9000000000007
  0
LINE
  5
335
100
AcDbEntity
  8
5V line
  6
ByLayer
 62
  256
370
   -1
100
AcDbLine
 10
9.519999999998618
 20
124.9000000000007
 11
9.519999999998618
 21
132.5200000000007
  0
ENDSEC
  0
SECTION
  2
OBJECTS
  0
DICTIONARY
  5
C
330
0
100
AcDbDictionary
281
    1
  3
ACAD_GROUP
350
D
  0
DICTIONARY
  5
D
330
C
100
AcDbDictionary
281
    1
  0
PLOTSETTINGS
  5
336
100
AcDbPlotSettings
  6
1x1
 40
5
 41
5
 42
5
 43
5
  0
ENDSEC
  0
EOF
