999
dxfrw 0.6.3
  0
SECTION
  2
HEADER
  9
$ACADVER
  1
AC1021
  9
$DWGCODEPAGE
  3
ANSI_1252
  9
$INSBASE
 10
0
 20
0
 30
0
  9
$EXTMIN
 10
-22.20882226732322
 20
-13.97000000000031
 30
0
  9
$EXTMAX
 10
39.37000000000138
 20
18.06000000000015
 30
0
  9
$LIMMIN
 10
0
 20
0
  9
$LIMMAX
 10
420
 20
297
  9
$ORTHOMODE
 70
    0
  9
$REGENMODE
 70
    1
  9
$FILLMODE
 70
    1
  9
$QTEXTMODE
 70
    0
  9
$MIRRTEXT
 70
    0
  9
$LTSCALE
 40
1
  9
$ATTMODE
 70
    0
  9
$TEXTSIZE
 40
2.5
  9
$TRACEWID
 40
15.68
  9
$TEXTSTYLE
  7
STANDARD
  9
$CLAYER
  8
resister
  9
$CELTYPE
  6
BYLAYER
  9
$CECOLOR
 62
  256
  9
$CELTSCALE
 40
1
  9
$DISPSILH
 70
    0
  9
$DIMSCALE
 40
1
  9
$DIMASZ
 40
2.5
  9
$DIMEXO
 40
0.625
  9
$DIMDLI
 40
3.75
  9
$DIMRND
 40
0
  9
$DIMDLE
 40
0
  9
$DIMEXE
 40
1.25
  9
$DIMTP
 40
0
  9
$DIMTM
 40
0
  9
$DIMTXT
 40
2.5
  9
$DIMCEN
 40
2.5
  9
$DIMTSZ
 40
0
  9
$DIMTOL
 70
    0
  9
$DIMLIM
 70
    0
  9
$DIMTIH
 70
    0
  9
$DIMTOH
 70
    0
  9
$DIMSE1
 70
    0
  9
$DIMSE2
 70
    0
  9
$DIMTAD
 70
    1
  9
$DIMZIN
 70
    8
  9
$DIMBLK
  1

  9
$DIMASO
 70
    1
  9
$DIMSHO
 70
    1
  9
$DIMPOST
  1

  9
$DIMAPOST
  1

  9
$DIMALT
 70
    0
  9
$DIMALTD
 70
    3
  9
$DIMALTF
 40
0.03937
  9
$DIMLFAC
 40
1
  9
$DIMTOFL
 70
    1
  9
$DIMTVP
 40
0
  9
$DIMTIX
 70
    0
  9
$DIMSOXD
 70
    0
  9
$DIMSAH
 70
    0
  9
$DIMBLK1
  1

  9
$DIMBLK2
  1

  9
$DIMSTYLE
  2
STANDARD
  9
$DIMCLRD
 70
    0
  9
$DIMCLRE
 70
    0
  9
$DIMCLRT
 70
    0
  9
$DIMTFAC
 40
1
  9
$DIMGAP
 40
0.625
  9
$DIMJUST
 70
    0
  9
$DIMSD1
 70
    0
  9
$DIMSD2
 70
    0
  9
$DIMTOLJ
 70
    0
  9
$DIMTZIN
 70
    8
  9
$DIMALTZ
 70
    0
  9
$DIMALTTZ
 70
    0
  9
$DIMUPT
 70
    0
  9
$DIMDEC
 70
    2
  9
$DIMTDEC
 70
    2
  9
$DIMALTU
 70
    2
  9
$DIMALTTD
 70
    3
  9
$DIMTXSTY
  7
standard
  9
$DIMAUNIT
 70
    0
  9
$DIMADEC
 70
    0
  9
$DIMALTRND
 40
0
  9
$DIMAZIN
 70
    0
  9
$DIMDSEP
 70
   44
  9
$DIMATFIT
 70
    3
  9
$DIMFRAC
 70
    0
  9
$DIMLDRBLK
  1
STANDARD
  9
$DIMLUNIT
 70
    2
  9
$DIMLWD
 70
   -2
  9
$DIMLWE
 70
   -2
  9
$DIMTMOVE
 70
    0
  9
$DIMFXL
 40
1
  9
$DIMFXLON
 70
    0
  9
$DIMJOGANG
 40
0.7854
  9
$DIMTFILL
 70
    0
  9
$DIMTFILLCLR
 70
    0
  9
$DIMARCSYM
 70
    0
  9
$DIMLTYPE
  6

  9
$DIMLTEX1
  6

  9
$DIMLTEX2
  6

  9
$LUNITS
 70
    2
  9
$LUPREC
 70
    4
  9
$SKETCHINC
 40
1
  9
$FILLETRAD
 40
0
  9
$AUNITS
 70
    0
  9
$AUPREC
 70
    2
  9
$MENU
  1
.
  9
$ELEVATION
 40
0
  9
$PELEVATION
 40
0
  9
$THICKNESS
 40
0
  9
$LIMCHECK
 70
    0
  9
$CHAMFERA
 40
0
  9
$CHAMFERB
 40
0
  9
$CHAMFERC
 40
0
  9
$CHAMFERD
 40
0
  9
$SKPOLY
 70
    0
  9
$USRTIMER
 70
    1
  9
$ANGBASE
 50
0
  9
$ANGDIR
 70
    0
  9
$PDMODE
 70
   34
  9
$PDSIZE
 40
0
  9
$PLINEWID
 40
0
  9
$SPLFRAME
 70
    0
  9
$SPLINETYPE
 70
    2
  9
$SPLINESEGS
 70
    8
  9
$HANDSEED
  5
20000
  9
$SURFTAB1
 70
    6
  9
$SURFTAB2
 70
    6
  9
$SURFTYPE
 70
    6
  9
$SURFU
 70
    6
  9
$SURFV
 70
    6
  9
$UCSBASE
  2

  9
$UCSNAME
  2

  9
$UCSORG
 10
0
 20
0
 30
0
  9
$UCSXDIR
 10
1
 20
0
 30
0
  9
$UCSYDIR
 10
0
 20
1
 30
0
  9
$UCSORTHOREF
  2

  9
$UCSORTHOVIEW
 70
    0
  9
$UCSORGTOP
 10
0
 20
0
 30
0
  9
$UCSORGBOTTOM
 10
0
 20
0
 30
0
  9
$UCSORGLEFT
 10
0
 20
0
 30
0
  9
$UCSORGRIGHT
 10
0
 20
0
 30
0
  9
$UCSORGFRONT
 10
0
 20
0
 30
0
  9
$UCSORGBACK
 10
0
 20
0
 30
0
  9
$PUCSBASE
  2

  9
$PUCSNAME
  2

  9
$PUCSORG
 10
0
 20
0
 30
0
  9
$PUCSXDIR
 10
1
 20
0
 30
0
  9
$PUCSYDIR
 10
0
 20
1
 30
0
  9
$PUCSORTHOREF
  2

  9
$PUCSORTHOVIEW
 70
    0
  9
$PUCSORGTOP
 10
0
 20
0
 30
0
  9
$PUCSORGBOTTOM
 10
0
 20
0
 30
0
  9
$PUCSORGLEFT
 10
0
 20
0
 30
0
  9
$PUCSORGRIGHT
 10
0
 20
0
 30
0
  9
$PUCSORGFRONT
 10
0
 20
0
 30
0
  9
$PUCSORGBACK
 10
0
 20
0
 30
0
  9
$USERI1
 70
    0
  9
$USERI2
 70
    0
  9
$USERI3
 70
    0
  9
$USERI4
 70
    0
  9
$USERI5
 70
    0
  9
$USERR1
 40
0
  9
$USERR2
 40
0
  9
$USERR3
 40
0
  9
$USERR4
 40
0
  9
$USERR5
 40
0
  9
$WORLDVIEW
 70
    1
  9
$SHADEDGE
 70
    3
  9
$SHADEDIF
 70
   70
  9
$TILEMODE
 70
    1
  9
$MAXACTVP
 70
   64
  9
$PINSBASE
 10
43.79526033288661
 20
68.47742214498571
 30
0
  9
$PLIMCHECK
 70
    0
  9
$PEXTMIN
 10
0
 20
0
 30
0
  9
$PEXTMAX
 10
0
 20
0
 30
0
  9
$GRIDMODE
 70
    0
  9
$SNAPSTYLE
 70
    0
  9
$GRIDUNIT
 10
0
 20
0
  9
$PLIMMIN
 10
0
 20
0
  9
$PLIMMAX
 10
297
 20
210
  9
$UNITMODE
 70
    0
  9
$VISRETAIN
 70
    1
  9
$PLINEGEN
 70
    0
  9
$PSLTSCALE
 70
    1
  9
$TREEDEPTH
 70
 3020
  9
$CMLSTYLE
  2
Standard
  9
$CMLJUST
 70
    0
  9
$CMLSCALE
 40
20
  9
$PROXYGRAPHICS
 70
    1
  9
$MEASUREMENT
 70
    1
  9
$CELWEIGHT
370
   -1
  9
$ENDCAPS
280
    0
  9
$JOINSTYLE
280
    0
  9
$LWDISPLAY
290
    0
  9
$INSUNITS
 70
    0
  9
$HYPERLINKBASE
  1

  9
$STYLESHEET
  1

  9
$XEDIT
290
    1
  9
$CEPSNTYPE
380
    0
  9
$PSTYLEMODE
290
    1
  9
$EXTNAMES
290
    1
  9
$PSVPSCALE
 40
4.099777112763159
  9
$OLESTARTUP
290
    0
  9
$SORTENTS
280
  127
  9
$INDEXCTL
280
    0
  9
$HIDETEXT
280
    1
  9
$XCLIPFRAME
290
    0
  9
$HALOGAP
280
    0
  9
$OBSCOLOR
 70
  257
  9
$OBSLTYPE
280
    0
  9
$INTERSECTIONDISPLAY
280
    0
  9
$INTERSECTIONCOLOR
 70
  257
  9
$DIMASSOC
280
    1
  9
$PROJECTNAME
  1

  9
$CAMERADISPLAY
290
    0
  9
$LENSLENGTH
 40
50
  9
$CAMERAHEIGHT
 40
0
  9
$STEPSPERSEC
 40
2
  9
$STEPSIZE
 40
50
  9
$3DDWFPREC
 40
2
  9
$PSOLWIDTH
 40
5
  9
$PSOLHEIGHT
 40
80
  9
$LOFTANG1
 40
1.570796326794897
  9
$LOFTANG2
 40
1.570796326794897
  9
$LOFTMAG1
 40
0
  9
$LOFTMAG2
 40
0
  9
$LOFTPARAM
 70
    7
  9
$LOFTNORMALS
280
    1
  9
$LATITUDE
 40
1
  9
$LONGITUDE
 40
1
  9
$NORTHDIRECTION
 40
0
  9
$TIMEZONE
 70
-8000
  9
$LIGHTGLYPHDISPLAY
280
    1
  9
$TILEMODELIGHTSYNCH
280
    1
  9
$SOLIDHIST
280
    1
  9
$SHOWHIST
280
    1
  9
$DWFFRAME
280
    2
  9
$DGNFRAME
280
    0
  9
$REALWORLDSCALE
290
    1
  9
$INTERFERECOLOR
 62
    1
  9
$CSHADOW
280
    0
  9
$SHADOWPLANELOCATION
 40
0
  0
ENDSEC
  0
SECTION
  2
CLASSES
  0
ENDSEC
  0
SECTION
  2
TABLES
  0
TABLE
  2
VPORT
  5
8
330
0
100
AcDbSymbolTable
 70
    1
  0
VPORT
  5
31
330
2
100
AcDbSymbolTableRecord
100
AcDbViewportTableRecord
  2
*ACTIVE
 70
    0
 10
0
 20
0
 11
1
 21
1
 12
24.61693626840358
 22
12.39611744950129
 13
0
 23
0
 14
10
 24
10
 15
10
 25
10
 16
0
 26
0
 36
1
 17
0
 27
0
 37
0
 40
48.08191010715652
 41
1.626041666666667
 42
50
 43
0
 44
0
 50
0
 51
0
 71
    0
 72
  100
 73
    1
 74
    3
 75
    0
 76
    0
 77
    0
 78
    0
281
    0
 65
    1
110
0
120
0
130
0
111
1
121
0
131
0
112
0
122
1
132
0
 79
    0
146
0
348
10020
 60
    7
 61
    5
292
1
282
    1
141
0
142
0
 63
  250
421
3358443
  0
ENDTAB
  0
TABLE
  2
LTYPE
  5
5
330
0
100
AcDbSymbolTable
 70
    4
  0
LTYPE
  5
14
330
5
100
AcDbSymbolTableRecord
100
AcDbLinetypeTableRecord
  2
ByBlock
 70
    0
  3

 72
   65
 73
    0
 40
0
  0
LTYPE
  5
15
330
5
100
AcDbSymbolTableRecord
100
AcDbLinetypeTableRecord
  2
ByLayer
 70
    0
  3

 72
   65
 73
    0
 40
0
  0
LTYPE
  5
16
330
5
100
AcDbSymbolTableRecord
100
AcDbLinetypeTableRecord
  2
Continuous
 70
    0
  3
Solid line
 72
   65
 73
    0
 40
0
  0
LTYPE
  5
32
330
5
100
AcDbSymbolTableRecord
100
AcDbLinetypeTableRecord
  2
DOT
 70
    0
  3
Dot . . . . . . . . . . . . . . . . . . . . . .
 72
   65
 73
    2
 40
6.35
 49
0
 74
    0
 49
-6.35
 74
    0
  0
LTYPE
  5
33
330
5
100
AcDbSymbolTableRecord
100
AcDbLinetypeTableRecord
  2
DOTTINY
 70
    0
  3
Dot (.15x) .....................................
 72
   65
 73
    2
 40
0.9525
 49
0
 74
    0
 49
-0.9525
 74
    0
  0
LTYPE
  5
34
330
5
100
AcDbSymbolTableRecord
100
AcDbLinetypeTableRecord
  2
DOT2
 70
    0
  3
Dot (.5x) .....................................
 72
   65
 73
    2
 40
3.175
 49
0
 74
    0
 49
-3.175
 74
    0
  0
LTYPE
  5
35
330
5
100
AcDbSymbolTableRecord
100
AcDbLinetypeTableRecord
  2
DOTX2
 70
    0
  3
Dot (2x) .  .  .  .  .  .  .  .  .  .  .  .  .
 72
   65
 73
    2
 40
12.7
 49
0
 74
    0
 49
-12.7
 74
    0
  0
LTYPE
  5
36
330
5
100
AcDbSymbolTableRecord
100
AcDbLinetypeTableRecord
  2
DASHED
 70
    0
  3
Dashed _ _ _ _ _ _ _ _ _ _ _ _ _ _ _ _ _
 72
   65
 73
    2
 40
19.05
 49
12.7
 74
    0
 49
-6.35
 74
    0
  0
LTYPE
  5
37
330
5
100
AcDbSymbolTableRecord
100
AcDbLinetypeTableRecord
  2
DASHEDTINY
 70
    0
  3
Dashed (.15x) _ _ _ _ _ _ _ _ _ _ _ _ _ _ _ _ _
 72
   65
 73
    2
 40
2.8575
 49
1.905
 74
    0
 49
-0.9525
 74
    0
  0
LTYPE
  5
38
330
5
100
AcDbSymbolTableRecord
100
AcDbLinetypeTableRecord
  2
DASHED2
 70
    0
  3
Dashed (.5x) _ _ _ _ _ _ _ _ _ _ _ _ _ _ _ _ _
 72
   65
 73
    2
 40
9.524999999999999
 49
6.35
 74
    0
 49
-3.175
 74
    0
  0
LTYPE
  5
39
330
5
100
AcDbSymbolTableRecord
100
AcDbLinetypeTableRecord
  2
DASHEDX2
 70
    0
  3
Dashed (2x) ____  ____  ____  ____  ____  ___
 72
   65
 73
    2
 40
38.09999999999999
 49
25.4
 74
    0
 49
-12.7
 74
    0
  0
LTYPE
  5
3A
330
5
100
AcDbSymbolTableRecord
100
AcDbLinetypeTableRecord
  2
DASHDOT
 70
    0
  3
Dash dot __ . __ . __ . __ . __ . __ . __ . __
 72
   65
 73
    4
 40
25.4
 49
12.7
 74
    0
 49
-6.35
 74
    0
 49
0
 74
    0
 49
-6.35
 74
    0
  0
LTYPE
  5
3B
330
5
100
AcDbSymbolTableRecord
100
AcDbLinetypeTableRecord
  2
DASHDOTTINY
 70
    0
  3
Dash dot (.15x) _._._._._._._._._._._._._._._.
 72
   65
 73
    4
 40
3.81
 49
1.905
 74
    0
 49
-0.9525
 74
    0
 49
0
 74
    0
 49
-0.9525
 74
    0
  0
LTYPE
  5
3C
330
5
100
AcDbSymbolTableRecord
100
AcDbLinetypeTableRecord
  2
DASHDOT2
 70
    0
  3
Dash dot (.5x) _._._._._._._._._._._._._._._.
 72
   65
 73
    4
 40
12.7
 49
6.35
 74
    0
 49
-3.175
 74
    0
 49
0
 74
    0
 49
-3.175
 74
    0
  0
LTYPE
  5
3D
330
5
100
AcDbSymbolTableRecord
100
AcDbLinetypeTableRecord
  2
DASHDOTX2
 70
    0
  3
Dash dot (2x) ____  .  ____  .  ____  .  ___
 72
   65
 73
    4
 40
50.8
 49
25.4
 74
    0
 49
-12.7
 74
    0
 49
0
 74
    0
 49
-12.7
 74
    0
  0
LTYPE
  5
3E
330
5
100
AcDbSymbolTableRecord
100
AcDbLinetypeTableRecord
  2
DIVIDE
 70
    0
  3
Divide ____ . . ____ . . ____ . . ____ . . ____
 72
   65
 73
    6
 40
31.75
 49
12.7
 74
    0
 49
-6.35
 74
    0
 49
0
 74
    0
 49
-6.35
 74
    0
 49
0
 74
    0
 49
-6.35
 74
    0
  0
LTYPE
  5
3F
330
5
100
AcDbSymbolTableRecord
100
AcDbLinetypeTableRecord
  2
DIVIDETINY
 70
    0
  3
Divide (.15x) __..__..__..__..__..__..__..__.._
 72
   65
 73
    6
 40
4.7625
 49
1.905
 74
    0
 49
-0.9525
 74
    0
 49
0
 74
    0
 49
-0.9525
 74
    0
 49
0
 74
    0
 49
-0.9525
 74
    0
  0
LTYPE
  5
40
330
5
100
AcDbSymbolTableRecord
100
AcDbLinetypeTableRecord
  2
DIVIDE2
 70
    0
  3
Divide (.5x) __..__..__..__..__..__..__..__.._
 72
   65
 73
    6
 40
15.875
 49
6.35
 74
    0
 49
-3.175
 74
    0
 49
0
 74
    0
 49
-3.175
 74
    0
 49
0
 74
    0
 49
-3.175
 74
    0
  0
LTYPE
  5
41
330
5
100
AcDbSymbolTableRecord
100
AcDbLinetypeTableRecord
  2
DIVIDEX2
 70
    0
  3
Divide (2x) ________  .  .  ________  .  .  _
 72
   65
 73
    6
 40
63.5
 49
25.4
 74
    0
 49
-12.7
 74
    0
 49
0
 74
    0
 49
-12.7
 74
    0
 49
0
 74
    0
 49
-12.7
 74
    0
  0
LTYPE
  5
42
330
5
100
AcDbSymbolTableRecord
100
AcDbLinetypeTableRecord
  2
BORDER
 70
    0
  3
Border __ __ . __ __ . __ __ . __ __ . __ __ .
 72
   65
 73
    6
 40
44.45
 49
12.7
 74
    0
 49
-6.35
 74
    0
 49
12.7
 74
    0
 49
-6.35
 74
    0
 49
0
 74
    0
 49
-6.35
 74
    0
  0
LTYPE
  5
43
330
5
100
AcDbSymbolTableRecord
100
AcDbLinetypeTableRecord
  2
BORDERTINY
 70
    0
  3
Border (.15x) __.__.__.__.__.__.__.__.__.__.__.
 72
   65
 73
    6
 40
6.6675
 49
1.905
 74
    0
 49
-0.9525
 74
    0
 49
1.905
 74
    0
 49
-0.9525
 74
    0
 49
0
 74
    0
 49
-0.9525
 74
    0
  0
LTYPE
  5
44
330
5
100
AcDbSymbolTableRecord
100
AcDbLinetypeTableRecord
  2
BORDER2
 70
    0
  3
Border (.5x) __.__.__.__.__.__.__.__.__.__.__.
 72
   65
 73
    6
 40
22.225
 49
6.35
 74
    0
 49
-3.175
 74
    0
 49
6.35
 74
    0
 49
-3.175
 74
    0
 49
0
 74
    0
 49
-3.175
 74
    0
  0
LTYPE
  5
45
330
5
100
AcDbSymbolTableRecord
100
AcDbLinetypeTableRecord
  2
BORDERX2
 70
    0
  3
Border (2x) ____  ____  .  ____  ____  .  ___
 72
   65
 73
    6
 40
88.89999999999999
 49
25.4
 74
    0
 49
-12.7
 74
    0
 49
25.4
 74
    0
 49
-12.7
 74
    0
 49
0
 74
    0
 49
-12.7
 74
    0
  0
LTYPE
  5
46
330
5
100
AcDbSymbolTableRecord
100
AcDbLinetypeTableRecord
  2
CENTER
 70
    0
  3
Center ____ _ ____ _ ____ _ ____ _ ____ _ ____
 72
   65
 73
    4
 40
50.8
 49
31.75
 74
    0
 49
-6.35
 74
    0
 49
6.35
 74
    0
 49
-6.35
 74
    0
  0
LTYPE
  5
47
330
5
100
AcDbSymbolTableRecord
100
AcDbLinetypeTableRecord
  2
CENTERTINY
 70
    0
  3
Center (.15x) ___ _ ___ _ ___ _ ___ _ ___ _ ___
 72
   65
 73
    4
 40
7.619999999999999
 49
4.7625
 74
    0
 49
-0.9525
 74
    0
 49
0.9525
 74
    0
 49
-0.9525
 74
    0
  0
LTYPE
  5
48
330
5
100
AcDbSymbolTableRecord
100
AcDbLinetypeTableRecord
  2
CENTER2
 70
    0
  3
Center (.5x) ___ _ ___ _ ___ _ ___ _ ___ _ ___
 72
   65
 73
    4
 40
28.575
 49
19.05
 74
    0
 49
-3.175
 74
    0
 49
3.175
 74
    0
 49
-3.175
 74
    0
  0
LTYPE
  5
49
330
5
100
AcDbSymbolTableRecord
100
AcDbLinetypeTableRecord
  2
CENTERX2
 70
    0
  3
Center (2x) ________  __  ________  __  _____
 72
   65
 73
    4
 40
101.6
 49
63.5
 74
    0
 49
-12.7
 74
    0
 49
12.7
 74
    0
 49
-12.7
 74
    0
  0
ENDTAB
  0
TABLE
  2
LAYER
  5
2
330
0
100
AcDbSymbolTable
 70
    1
  0
LAYER
  5
10
330
2
100
AcDbSymbolTableRecord
100
AcDbLayerTableRecord
  2
0
 70
    0
 62
    7
  6
CONTINUOUS
370
    9
390
F
  0
LAYER
  5
4A
330
2
100
AcDbSymbolTableRecord
100
AcDbLayerTableRecord
  2
0_GND
 70
    0
 62
    7
  6
CONTINUOUS
370
   15
390
F
  0
LAYER
  5
4B
330
2
100
AcDbSymbolTableRecord
100
AcDbLayerTableRecord
  2
0_draft
 70
    0
 62
    7
  6
DOTTINY
370
   -3
390
F
1001
LibreCad
1070
    1
  0
LAYER
  5
4C
330
2
100
AcDbSymbolTableRecord
100
AcDbLayerTableRecord
  2
0_wire
 70
    0
 62
   92
420
51200
  6
CONTINUOUS
370
   15
390
F
  0
LAYER
  5
4D
330
2
100
AcDbSymbolTableRecord
100
AcDbLayerTableRecord
  2
1_wire
 70
    0
 62
    2
  6
CONTINUOUS
370
   15
390
F
  0
LAYER
  5
4E
330
2
100
AcDbSymbolTableRecord
100
AcDbLayerTableRecord
  2
3.3V line
 70
    0
 62
   40
420
16755200
  6
CONTINUOUS
370
   15
390
F
  0
LAYER
  5
4F
330
2
100
AcDbSymbolTableRecord
100
AcDbLayerTableRecord
  2
5V line
 70
    0
 62
    1
  6
CONTINUOUS
370
   15
390
F
  0
LAYER
  5
50
330
2
100
AcDbSymbolTableRecord
100
AcDbLayerTableRecord
  2
condenser
 70
    0
 62
    5
  6
CONTINUOUS
370
   15
390
F
  0
LAYER
  5
51
330
2
100
AcDbSymbolTableRecord
100
AcDbLayerTableRecord
  2
crystal
 70
    0
 62
   96
420
32768
  6
CONTINUOUS
370
   15
390
F
  0
LAYER
  5
52
330
2
100
AcDbSymbolTableRecord
100
AcDbLayerTableRecord
  2
diode
 70
    0
 62
  212
420
14549214
  6
CONTINUOUS
370
   15
390
F
  0
LAYER
  5
53
330
2
100
AcDbSymbolTableRecord
100
AcDbLayerTableRecord
  2
kakou
 70
    0
 62
  176
420
  128
  6
CONTINUOUS
370
   15
390
F
  0
LAYER
  5
54
330
2
100
AcDbSymbolTableRecord
100
AcDbLayerTableRecord
  2
micon
 70
    0
 62
  216
420
8388736
  6
CONTINUOUS
370
   15
390
F
  0
LAYER
  5
55
330
2
100
AcDbSymbolTableRecord
100
AcDbLayerTableRecord
  2
resister
 70
    0
 62
  134
420
45489
  6
CONTINUOUS
370
   15
390
F
  0
LAYER
  5
56
330
2
100
AcDbSymbolTableRecord
100
AcDbLayerTableRecord
  2
socket_header
 70
    0
 62
   56
420
8421376
  6
CONTINUOUS
370
   15
390
F
  0
LAYER
  5
57
330
2
100
AcDbSymbolTableRecord
100
AcDbLayerTableRecord
  2
switch
 70
    0
 62
  136
420
32896
  6
CONTINUOUS
370
   15
390
F
  0
LAYER
  5
58
330
2
100
AcDbSymbolTableRecord
100
AcDbLayerTableRecord
  2
terminal
 70
    0
 62
   16
420
8388608
  6
CONTINUOUS
370
   15
390
F
  0
LAYER
  5
59
330
2
100
AcDbSymbolTableRecord
100
AcDbLayerTableRecord
  2
universal_board
 70
    4
 62
  253
420
10526884
  6
CONTINUOUS
370
   15
390
F
  0
ENDTAB
  0
TABLE
  2
STYLE
  5
3
330
0
100
AcDbSymbolTable
 70
    3
  0
STYLE
  5
5A
330
2
100
AcDbSymbolTableRecord
100
AcDbTextStyleTableRecord
  2
kst32b
 70
    0
 40
0
 41
1
 50
0
 71
    0
 42
1
  3
kst32b
  4

  0
STYLE
  5
5B
330
2
100
AcDbSymbolTableRecord
100
AcDbTextStyleTableRecord
  2
iso
 70
    0
 40
0
 41
1
 50
0
 71
    0
 42
1
  3
iso
  4

  0
STYLE
  5
5C
330
2
100
AcDbSymbolTableRecord
100
AcDbTextStyleTableRecord
  2
Standard
 70
    0
 40
0
 41
1
 50
0
 71
    0
 42
1
  3
txt
  4

  0
ENDTAB
  0
TABLE
  2
VIEW
  5
6
330
0
100
AcDbSymbolTable
 70
    0
  0
ENDTAB
  0
TABLE
  2
UCS
  5
7
330
0
100
AcDbSymbolTable
 70
    0
  0
ENDTAB
  0
TABLE
  2
APPID
  5
9
330
0
100
AcDbSymbolTable
 70
    1
  0
APPID
  5
12
330
9
100
AcDbSymbolTableRecord
100
AcDbRegAppTableRecord
  2
ACAD
 70
    0
  0
APPID
  5
5D
330
9
100
AcDbSymbolTableRecord
100
AcDbRegAppTableRecord
  2
LibreCad
 70
    0
  0
ENDTAB
  0
TABLE
  2
DIMSTYLE
  5
A
330
0
100
AcDbSymbolTable
 70
    1
100
AcDbDimStyleTable
 71
    1
  0
DIMSTYLE
105
5E
330
A
100
AcDbSymbolTableRecord
100
AcDbDimStyleTableRecord
  2
Standard
 70
    0
 40
1
 41
2.5
 42
0.625
 43
0.38
 44
1.25
 45
0
 46
0
 47
0
 48
0
 49
1
140
2.5
141
0.09
142
0
143
25.4
144
1
145
0
146
1
147
0.625
148
0
 71
    0
 72
    0
 73
    0
 74
    1
 75
    0
 76
    0
 77
    0
 78
    8
 79
    0
170
    0
171
    2
172
    0
173
    0
174
    0
175
    0
176
    0
177
    0
178
    0
179
    0
271
    2
272
    4
273
    2
274
    2
275
    0
276
    0
277
    2
278
   44
279
    0
280
    0
281
    0
282
    0
283
    1
284
    0
285
    0
286
    0
288
    0
289
    3
340
5C
  0
ENDTAB
  0
TABLE
  2
BLOCK_RECORD
  5
1
330
0
100
AcDbSymbolTable
 70
    2
  0
BLOCK_RECORD
  5
1F
330
1
100
AcDbSymbolTableRecord
100
AcDbBlockTableRecord
  2
*Model_Space
 70
    0
280
    1
281
    0
  0
BLOCK_RECORD
  5
1E
330
1
100
AcDbSymbolTableRecord
100
AcDbBlockTableRecord
  2
*Paper_Space
 70
    0
280
    1
281
    0
  0
ENDTAB
  0
ENDSEC
  0
SECTION
  2
BLOCKS
  0
BLOCK
  5
20
330
1F
100
AcDbEntity
  8
0
100
AcDbBlockBegin
  2
*Model_Space
 70
    0
 10
0
 20
0
 30
0
  3
*Model_Space
  1

  0
ENDBLK
  5
21
330
1F
100
AcDbEntity
  8
0
100
AcDbBlockEnd
  0
BLOCK
  5
1C
330
1B
100
AcDbEntity
  8
0
100
AcDbBlockBegin
  2
*Paper_Space
 70
    0
 10
0
 20
0
 30
0
  3
*Paper_Space
  1

  0
ENDBLK
  5
1D
330
1F
100
AcDbEntity
  8
0
100
AcDbBlockEnd
  0
ENDSEC
  0
SECTION
  2
ENTITIES
  0
CIRCLE
  5
5F
100
AcDbEntity
  8
universal_board
  6
ByLayer
 62
  256
370
   -1
100
AcDbCircle
 10
-5.080000000000149
 20
-10.16000000000008
 40
0.5
  0
CIRCLE
  5
60
100
AcDbEntity
  8
universal_board
  6
ByLayer
 62
  256
370
   -1
100
AcDbCircle
 10
-5.080000000000149
 20
-12.7000000000001
 40
0.5
  0
CIRCLE
  5
61
100
AcDbEntity
  8
universal_board
  6
ByLayer
 62
  256
370
   -1
100
AcDbCircle
 10
-2.54000000000007
 20
-10.16000000000008
 40
0.5
  0
CIRCLE
  5
62
100
AcDbEntity
  8
universal_board
  6
ByLayer
 62
  256
370
   -1
100
AcDbCircle
 10
-2.54000000000007
 20
-12.7000000000001
 40
0.5
  0
CIRCLE
  5
63
100
AcDbEntity
  8
universal_board
  6
ByLayer
 62
  256
370
   -1
100
AcDbCircle
 10
0
 20
-10.16000000000008
 40
0.5
  0
CIRCLE
  5
64
100
AcDbEntity
  8
universal_board
  6
ByLayer
 62
  256
370
   -1
100
AcDbCircle
 10
0
 20
-12.7000000000001
 40
0.5
  0
CIRCLE
  5
65
100
AcDbEntity
  8
universal_board
  6
ByLayer
 62
  256
370
   -1
100
AcDbCircle
 10
2.540000000000081
 20
-10.16000000000008
 40
0.5
  0
CIRCLE
  5
66
100
AcDbEntity
  8
universal_board
  6
ByLayer
 62
  256
370
   -1
100
AcDbCircle
 10
2.540000000000081
 20
-12.7000000000001
 40
0.5
  0
CIRCLE
  5
67
100
AcDbEntity
  8
universal_board
  6
ByLayer
 62
  256
370
   -1
100
AcDbCircle
 10
5.080000000000162
 20
-10.16000000000008
 40
0.5
  0
CIRCLE
  5
68
100
AcDbEntity
  8
universal_board
  6
ByLayer
 62
  256
370
   -1
100
AcDbCircle
 10
5.080000000000162
 20
-12.7000000000001
 40
0.5
  0
CIRCLE
  5
69
100
AcDbEntity
  8
universal_board
  6
ByLayer
 62
  256
370
   -1
100
AcDbCircle
 10
7.620000000000239
 20
-10.16000000000008
 40
0.5
  0
CIRCLE
  5
6A
100
AcDbEntity
  8
universal_board
  6
ByLayer
 62
  256
370
   -1
100
AcDbCircle
 10
7.620000000000239
 20
-12.7000000000001
 40
0.5
  0
CIRCLE
  5
6B
100
AcDbEntity
  8
universal_board
  6
ByLayer
 62
  256
370
   -1
100
AcDbCircle
 10
10.16000000000031
 20
-10.16000000000008
 40
0.5
  0
CIRCLE
  5
6C
100
AcDbEntity
  8
universal_board
  6
ByLayer
 62
  256
370
   -1
100
AcDbCircle
 10
10.16000000000031
 20
-12.7000000000001
 40
0.5
  0
CIRCLE
  5
6D
100
AcDbEntity
  8
universal_board
  6
ByLayer
 62
  256
370
   -1
100
AcDbCircle
 10
12.70000000000039
 20
-10.16000000000008
 40
0.5
  0
CIRCLE
  5
6E
100
AcDbEntity
  8
universal_board
  6
ByLayer
 62
  256
370
   -1
100
AcDbCircle
 10
12.70000000000039
 20
-12.7000000000001
 40
0.5
  0
CIRCLE
  5
6F
100
AcDbEntity
  8
universal_board
  6
ByLayer
 62
  256
370
   -1
100
AcDbCircle
 10
-5.080000000000149
 20
-7.620000000000058
 40
0.5
  0
CIRCLE
  5
70
100
AcDbEntity
  8
universal_board
  6
ByLayer
 62
  256
370
   -1
100
AcDbCircle
 10
-2.54000000000007
 20
-7.620000000000058
 40
0.5
  0
CIRCLE
  5
71
100
AcDbEntity
  8
universal_board
  6
ByLayer
 62
  256
370
   -1
100
AcDbCircle
 10
0
 20
-7.620000000000058
 40
0.5
  0
CIRCLE
  5
72
100
AcDbEntity
  8
universal_board
  6
ByLayer
 62
  256
370
   -1
100
AcDbCircle
 10
2.540000000000081
 20
-7.620000000000058
 40
0.5
  0
CIRCLE
  5
73
100
AcDbEntity
  8
universal_board
  6
ByLayer
 62
  256
370
   -1
100
AcDbCircle
 10
5.080000000000162
 20
-7.620000000000058
 40
0.5
  0
CIRCLE
  5
74
100
AcDbEntity
  8
universal_board
  6
ByLayer
 62
  256
370
   -1
100
AcDbCircle
 10
7.620000000000239
 20
-7.620000000000058
 40
0.5
  0
CIRCLE
  5
75
100
AcDbEntity
  8
universal_board
  6
ByLayer
 62
  256
370
   -1
100
AcDbCircle
 10
10.16000000000031
 20
-7.620000000000058
 40
0.5
  0
CIRCLE
  5
76
100
AcDbEntity
  8
universal_board
  6
ByLayer
 62
  256
370
   -1
100
AcDbCircle
 10
12.70000000000039
 20
-7.620000000000058
 40
0.5
  0
CIRCLE
  5
77
100
AcDbEntity
  8
universal_board
  6
ByLayer
 62
  256
370
   -1
100
AcDbCircle
 10
-5.080000000000149
 20
-5.080000000000039
 40
0.5
  0
CIRCLE
  5
78
100
AcDbEntity
  8
universal_board
  6
ByLayer
 62
  256
370
   -1
100
AcDbCircle
 10
-2.54000000000007
 20
-5.080000000000039
 40
0.5
  0
CIRCLE
  5
79
100
AcDbEntity
  8
universal_board
  6
ByLayer
 62
  256
370
   -1
100
AcDbCircle
 10
0
 20
-5.080000000000039
 40
0.5
  0
CIRCLE
  5
7A
100
AcDbEntity
  8
universal_board
  6
ByLayer
 62
  256
370
   -1
100
AcDbCircle
 10
2.540000000000081
 20
-5.080000000000039
 40
0.5
  0
CIRCLE
  5
7B
100
AcDbEntity
  8
universal_board
  6
ByLayer
 62
  256
370
   -1
100
AcDbCircle
 10
5.080000000000162
 20
-5.080000000000039
 40
0.5
  0
CIRCLE
  5
7C
100
AcDbEntity
  8
universal_board
  6
ByLayer
 62
  256
370
   -1
100
AcDbCircle
 10
7.620000000000239
 20
-5.080000000000039
 40
0.5
  0
CIRCLE
  5
7D
100
AcDbEntity
  8
universal_board
  6
ByLayer
 62
  256
370
   -1
100
AcDbCircle
 10
10.16000000000031
 20
-5.080000000000039
 40
0.5
  0
CIRCLE
  5
7E
100
AcDbEntity
  8
universal_board
  6
ByLayer
 62
  256
370
   -1
100
AcDbCircle
 10
12.70000000000039
 20
-5.080000000000039
 40
0.5
  0
CIRCLE
  5
7F
100
AcDbEntity
  8
universal_board
  6
ByLayer
 62
  256
370
   -1
100
AcDbCircle
 10
-5.080000000000149
 20
-2.540000000000019
 40
0.5
  0
CIRCLE
  5
80
100
AcDbEntity
  8
universal_board
  6
ByLayer
 62
  256
370
   -1
100
AcDbCircle
 10
-2.54000000000007
 20
-2.540000000000019
 40
0.5
  0
CIRCLE
  5
81
100
AcDbEntity
  8
universal_board
  6
ByLayer
 62
  256
370
   -1
100
AcDbCircle
 10
0
 20
-2.540000000000019
 40
0.5
  0
CIRCLE
  5
82
100
AcDbEntity
  8
universal_board
  6
ByLayer
 62
  256
370
   -1
100
AcDbCircle
 10
2.540000000000081
 20
-2.540000000000019
 40
0.5
  0
CIRCLE
  5
83
100
AcDbEntity
  8
universal_board
  6
ByLayer
 62
  256
370
   -1
100
AcDbCircle
 10
5.080000000000162
 20
-2.540000000000019
 40
0.5
  0
CIRCLE
  5
84
100
AcDbEntity
  8
universal_board
  6
ByLayer
 62
  256
370
   -1
100
AcDbCircle
 10
7.620000000000239
 20
-2.540000000000019
 40
0.5
  0
CIRCLE
  5
85
100
AcDbEntity
  8
universal_board
  6
ByLayer
 62
  256
370
   -1
100
AcDbCircle
 10
10.16000000000031
 20
-2.540000000000019
 40
0.5
  0
CIRCLE
  5
86
100
AcDbEntity
  8
universal_board
  6
ByLayer
 62
  256
370
   -1
100
AcDbCircle
 10
12.70000000000039
 20
-2.540000000000019
 40
0.5
  0
CIRCLE
  5
87
100
AcDbEntity
  8
universal_board
  6
ByLayer
 62
  256
370
   -1
100
AcDbCircle
 10
-5.080000000000149
 20
0
 40
0.5
  0
CIRCLE
  5
88
100
AcDbEntity
  8
universal_board
  6
ByLayer
 62
  256
370
   -1
100
AcDbCircle
 10
-2.54000000000007
 20
0
 40
0.5
  0
CIRCLE
  5
89
100
AcDbEntity
  8
universal_board
  6
ByLayer
 62
  256
370
   -1
100
AcDbCircle
 10
0
 20
0
 40
0.5
  0
CIRCLE
  5
8A
100
AcDbEntity
  8
universal_board
  6
ByLayer
 62
  256
370
   -1
100
AcDbCircle
 10
2.540000000000081
 20
0
 40
0.5
  0
CIRCLE
  5
8B
100
AcDbEntity
  8
universal_board
  6
ByLayer
 62
  256
370
   -1
100
AcDbCircle
 10
5.080000000000162
 20
0
 40
0.5
  0
CIRCLE
  5
8C
100
AcDbEntity
  8
universal_board
  6
ByLayer
 62
  256
370
   -1
100
AcDbCircle
 10
7.620000000000239
 20
0
 40
0.5
  0
CIRCLE
  5
8D
100
AcDbEntity
  8
universal_board
  6
ByLayer
 62
  256
370
   -1
100
AcDbCircle
 10
10.16000000000031
 20
0
 40
0.5
  0
CIRCLE
  5
8E
100
AcDbEntity
  8
universal_board
  6
ByLayer
 62
  256
370
   -1
100
AcDbCircle
 10
12.70000000000039
 20
0
 40
0.5
  0
CIRCLE
  5
8F
100
AcDbEntity
  8
universal_board
  6
ByLayer
 62
  256
370
   -1
100
AcDbCircle
 10
-5.080000000000149
 20
2.54000000000002
 40
0.5
  0
CIRCLE
  5
90
100
AcDbEntity
  8
universal_board
  6
ByLayer
 62
  256
370
   -1
100
AcDbCircle
 10
-2.54000000000007
 20
2.54000000000002
 40
0.5
  0
CIRCLE
  5
91
100
AcDbEntity
  8
universal_board
  6
ByLayer
 62
  256
370
   -1
100
AcDbCircle
 10
0
 20
2.54000000000002
 40
0.5
  0
CIRCLE
  5
92
100
AcDbEntity
  8
universal_board
  6
ByLayer
 62
  256
370
   -1
100
AcDbCircle
 10
2.540000000000081
 20
2.54000000000002
 40
0.5
  0
CIRCLE
  5
93
100
AcDbEntity
  8
universal_board
  6
ByLayer
 62
  256
370
   -1
100
AcDbCircle
 10
5.080000000000162
 20
2.54000000000002
 40
0.5
  0
CIRCLE
  5
94
100
AcDbEntity
  8
universal_board
  6
ByLayer
 62
  256
370
   -1
100
AcDbCircle
 10
7.620000000000239
 20
2.54000000000002
 40
0.5
  0
CIRCLE
  5
95
100
AcDbEntity
  8
universal_board
  6
ByLayer
 62
  256
370
   -1
100
AcDbCircle
 10
10.16000000000031
 20
2.54000000000002
 40
0.5
  0
CIRCLE
  5
96
100
AcDbEntity
  8
universal_board
  6
ByLayer
 62
  256
370
   -1
100
AcDbCircle
 10
12.70000000000039
 20
2.54000000000002
 40
0.5
  0
CIRCLE
  5
97
100
AcDbEntity
  8
universal_board
  6
ByLayer
 62
  256
370
   -1
100
AcDbCircle
 10
-5.080000000000149
 20
5.080000000000041
 40
0.5
  0
CIRCLE
  5
98
100
AcDbEntity
  8
universal_board
  6
ByLayer
 62
  256
370
   -1
100
AcDbCircle
 10
-2.54000000000007
 20
5.080000000000041
 40
0.5
  0
CIRCLE
  5
99
100
AcDbEntity
  8
universal_board
  6
ByLayer
 62
  256
370
   -1
100
AcDbCircle
 10
0
 20
5.080000000000041
 40
0.5
  0
CIRCLE
  5
9A
100
AcDbEntity
  8
universal_board
  6
ByLayer
 62
  256
370
   -1
100
AcDbCircle
 10
2.540000000000081
 20
5.080000000000041
 40
0.5
  0
CIRCLE
  5
9B
100
AcDbEntity
  8
universal_board
  6
ByLayer
 62
  256
370
   -1
100
AcDbCircle
 10
5.080000000000162
 20
5.080000000000041
 40
0.5
  0
CIRCLE
  5
9C
100
AcDbEntity
  8
universal_board
  6
ByLayer
 62
  256
370
   -1
100
AcDbCircle
 10
7.620000000000239
 20
5.080000000000041
 40
0.5
  0
CIRCLE
  5
9D
100
AcDbEntity
  8
universal_board
  6
ByLayer
 62
  256
370
   -1
100
AcDbCircle
 10
10.16000000000031
 20
5.080000000000041
 40
0.5
  0
CIRCLE
  5
9E
100
AcDbEntity
  8
universal_board
  6
ByLayer
 62
  256
370
   -1
100
AcDbCircle
 10
12.70000000000039
 20
5.080000000000041
 40
0.5
  0
CIRCLE
  5
9F
100
AcDbEntity
  8
universal_board
  6
ByLayer
 62
  256
370
   -1
100
AcDbCircle
 10
-5.080000000000149
 20
7.620000000000061
 40
0.5
  0
CIRCLE
  5
A0
100
AcDbEntity
  8
universal_board
  6
ByLayer
 62
  256
370
   -1
100
AcDbCircle
 10
0
 20
7.620000000000061
 40
0.5
  0
CIRCLE
  5
A1
100
AcDbEntity
  8
universal_board
  6
ByLayer
 62
  256
370
   -1
100
AcDbCircle
 10
2.540000000000081
 20
7.620000000000061
 40
0.5
  0
CIRCLE
  5
A2
100
AcDbEntity
  8
universal_board
  6
ByLayer
 62
  256
370
   -1
100
AcDbCircle
 10
5.080000000000162
 20
7.620000000000061
 40
0.5
  0
CIRCLE
  5
A3
100
AcDbEntity
  8
universal_board
  6
ByLayer
 62
  256
370
   -1
100
AcDbCircle
 10
7.620000000000239
 20
7.620000000000061
 40
0.5
  0
CIRCLE
  5
A4
100
AcDbEntity
  8
universal_board
  6
ByLayer
 62
  256
370
   -1
100
AcDbCircle
 10
12.70000000000039
 20
7.620000000000061
 40
0.5
  0
CIRCLE
  5
A5
100
AcDbEntity
  8
universal_board
  6
ByLayer
 62
  256
370
   -1
100
AcDbCircle
 10
-5.080000000000149
 20
10.16000000000008
 40
0.5
  0
CIRCLE
  5
A6
100
AcDbEntity
  8
universal_board
  6
ByLayer
 62
  256
370
   -1
100
AcDbCircle
 10
-2.54000000000007
 20
10.16000000000008
 40
0.5
  0
CIRCLE
  5
A7
100
AcDbEntity
  8
universal_board
  6
ByLayer
 62
  256
370
   -1
100
AcDbCircle
 10
0
 20
10.16000000000008
 40
0.5
  0
CIRCLE
  5
A8
100
AcDbEntity
  8
universal_board
  6
ByLayer
 62
  256
370
   -1
100
AcDbCircle
 10
2.540000000000081
 20
10.16000000000008
 40
0.5
  0
CIRCLE
  5
A9
100
AcDbEntity
  8
universal_board
  6
ByLayer
 62
  256
370
   -1
100
AcDbCircle
 10
5.080000000000162
 20
10.16000000000008
 40
0.5
  0
CIRCLE
  5
AA
100
AcDbEntity
  8
universal_board
  6
ByLayer
 62
  256
370
   -1
100
AcDbCircle
 10
7.620000000000239
 20
10.16000000000008
 40
0.5
  0
CIRCLE
  5
AB
100
AcDbEntity
  8
universal_board
  6
ByLayer
 62
  256
370
   -1
100
AcDbCircle
 10
10.16000000000031
 20
10.16000000000008
 40
0.5
  0
CIRCLE
  5
AC
100
AcDbEntity
  8
universal_board
  6
ByLayer
 62
  256
370
   -1
100
AcDbCircle
 10
12.70000000000039
 20
10.16000000000008
 40
0.5
  0
CIRCLE
  5
AD
100
AcDbEntity
  8
terminal
  6
ByLayer
 62
  256
370
   -1
100
AcDbCircle
 10
2.559999999998752
 20
3.07999999999933
 40
0.46
  0
CIRCLE
  5
AE
100
AcDbEntity
  8
terminal
  6
ByLayer
 62
  256
370
   -1
100
AcDbCircle
 10
5.060000000000741
 20
3.079999892225121
 40
0.46
  0
CIRCLE
  5
AF
100
AcDbEntity
  8
terminal
  6
ByLayer
 62
  256
370
   -1
100
AcDbCircle
 10
2.559999999998752
 20
5.080000000000162
 40
0.46
  0
CIRCLE
  5
B0
100
AcDbEntity
  8
terminal
  6
ByLayer
 62
  256
370
   -1
100
AcDbCircle
 10
5.060000000000741
 20
5.079999892225942
 40
0.46
  0
CIRCLE
  5
B1
100
AcDbEntity
  8
terminal
  6
ByLayer
 62
  256
370
   -1
100
AcDbCircle
 10
-2.209999999999859
 20
7.78000000000015
 40
1.15
  0
CIRCLE
  5
B2
100
AcDbEntity
  8
terminal
  6
ByLayer
 62
  256
370
   -1
100
AcDbCircle
 10
9.829999999999359
 20
7.78000000000015
 40
1.15
  0
LINE
  5
B3
100
AcDbEntity
  8
terminal
  6
ByLayer
 62
  256
370
   -1
100
AcDbLine
 10
-2.209998470135531
 20
18.06000000000015
 11
-2.209998470135531
 21
2.060000000000151
  0
LINE
  5
B4
100
AcDbEntity
  8
terminal
  6
ByLayer
 62
  256
370
   -1
100
AcDbLine
 10
-2.209998470135531
 20
2.060000000000151
 11
9.830001529863981
 21
2.060000000000151
  0
LINE
  5
B5
100
AcDbEntity
  8
terminal
  6
ByLayer
 62
  256
370
   -1
100
AcDbLine
 10
9.830001529863981
 20
2.060000000000151
 11
9.830001529863981
 21
18.06000000000015
  0
LINE
  5
B6
100
AcDbEntity
  8
terminal
  6
ByLayer
 62
  256
370
   -1
100
AcDbLine
 10
9.830001529863981
 20
18.06000000000015
 11
-2.209998470135531
 21
18.06000000000015
  0
MTEXT
  5
B7
100
AcDbEntity
  8
terminal
  6
ByLayer
 62
  256
370
   -1
100
AcDbMText
 10
-0.3097014904242883
 20
4.26269571563353
 30
0
 40
1
 41
2.333333333333519
 71
    5
 72
    1
  1
GND\PV
  7
iso
210
0
220
0
230
1
 50
0
 73
    2
 44
1.54
  0
MTEXT
  5
B8
100
AcDbEntity
  8
terminal
  6
ByLayer
 62
  256
370
   -1
100
AcDbMText
 10
7.881473864496861
 20
4.411086573512542
 30
0
 40
1
 41
1.333333333333395
 71
    5
 72
    1
  1
D+\PD-
  7
iso
210
0
220
0
230
1
 50
0
 73
    2
 44
1.54
  0
LINE
  5
B9
100
AcDbEntity
  8
socket_header
  6
ByLayer
 62
  256
370
   -1
100
AcDbLine
 10
-6.35000000000016
 20
-6.350000000000147
 11
-6.35000000000016
 21
-3.80999999999964
  0
LINE
  5
BA
100
AcDbEntity
  8
socket_header
  6
ByLayer
 62
  256
370
   -1
100
AcDbLine
 10
-3.810000000000059
 20
-3.80999999999964
 11
-6.350000000000639
 21
-3.80999999999964
  0
LINE
  5
BB
100
AcDbEntity
  8
socket_header
  6
ByLayer
 62
  256
370
   -1
100
AcDbLine
 10
-3.810000000000059
 20
-6.350000000000147
 11
-3.810000000000059
 21
-3.80999999999964
  0
LINE
  5
BC
100
AcDbEntity
  8
socket_header
  6
ByLayer
 62
  256
370
   -1
100
AcDbLine
 10
-3.810000000000059
 20
-6.34999999999965
 11
-6.350000000000559
 21
-6.34999999999965
  0
LINE
  5
BD
100
AcDbEntity
  8
socket_header
  6
ByLayer
 62
  256
370
   -1
100
AcDbLine
 10
-6.35000000000016
 20
-8.890000000000168
 11
-6.35000000000016
 21
-6.349999999999664
  0
LINE
  5
BE
100
AcDbEntity
  8
socket_header
  6
ByLayer
 62
  256
370
   -1
100
AcDbLine
 10
-3.810000000000059
 20
-6.349999999999664
 11
-6.350000000000639
 21
-6.349999999999664
  0
LINE
  5
BF
100
AcDbEntity
  8
socket_header
  6
ByLayer
 62
  256
370
   -1
100
AcDbLine
 10
-3.810000000000059
 20
-8.890000000000168
 11
-3.810000000000059
 21
-6.349999999999664
  0
LINE
  5
C0
100
AcDbEntity
  8
socket_header
  6
ByLayer
 62
  256
370
   -1
100
AcDbLine
 10
-3.810000000000059
 20
-8.88999999999967
 11
-6.350000000000559
 21
-8.88999999999967
  0
LINE
  5
C1
100
AcDbEntity
  8
socket_header
  6
ByLayer
 62
  256
370
   -1
100
AcDbLine
 10
-6.35000000000016
 20
-11.43000000000019
 11
-6.35000000000016
 21
-8.889999999999684
  0
LINE
  5
C2
100
AcDbEntity
  8
socket_header
  6
ByLayer
 62
  256
370
   -1
100
AcDbLine
 10
-3.810000000000059
 20
-8.889999999999684
 11
-6.350000000000639
 21
-8.889999999999684
  0
LINE
  5
C3
100
AcDbEntity
  8
socket_header
  6
ByLayer
 62
  256
370
   -1
100
AcDbLine
 10
-3.810000000000059
 20
-11.43000000000019
 11
-3.810000000000059
 21
-8.889999999999684
  0
LINE
  5
C4
100
AcDbEntity
  8
socket_header
  6
ByLayer
 62
  256
370
   -1
100
AcDbLine
 10
-3.810000000000059
 20
-11.42999999999969
 11
-6.350000000000559
 21
-11.42999999999969
  0
LINE
  5
C5
100
AcDbEntity
  8
socket_header
  6
ByLayer
 62
  256
370
   -1
100
AcDbLine
 10
-6.35000000000016
 20
-13.97000000000021
 11
-6.35000000000016
 21
-11.4299999999997
  0
LINE
  5
C6
100
AcDbEntity
  8
socket_header
  6
ByLayer
 62
  256
370
   -1
100
AcDbLine
 10
-3.810000000000059
 20
-11.4299999999997
 11
-6.350000000000639
 21
-11.4299999999997
  0
LINE
  5
C7
100
AcDbEntity
  8
socket_header
  6
ByLayer
 62
  256
370
   -1
100
AcDbLine
 10
-3.810000000000059
 20
-13.97000000000021
 11
-3.810000000000059
 21
-11.4299999999997
  0
LINE
  5
C8
100
AcDbEntity
  8
socket_header
  6
ByLayer
 62
  256
370
   -1
100
AcDbLine
 10
-3.810000000000059
 20
-13.96999999999973
 11
-6.350000000000639
 21
-13.96999999999973
  0
LINE
  5
C9
100
AcDbEntity
  8
socket_header
  6
ByLayer
 62
  256
370
   -1
100
AcDbLine
 10
13.97000000000049
 20
-1.27000000000011
 11
13.97000000000049
 21
1.270000000000401
  0
LINE
  5
CA
100
AcDbEntity
  8
socket_header
  6
ByLayer
 62
  256
370
   -1
100
AcDbLine
 10
11.43000000000038
 20
-6.350000000000147
 11
11.43000000000038
 21
-3.80999999999964
  0
LINE
  5
CB
100
AcDbEntity
  8
socket_header
  6
ByLayer
 62
  256
370
   -1
100
AcDbLine
 10
13.97000000000049
 20
-3.80999999999964
 11
11.4299999999999
 21
-3.80999999999964
  0
LINE
  5
CC
100
AcDbEntity
  8
socket_header
  6
ByLayer
 62
  256
370
   -1
100
AcDbLine
 10
13.97000000000049
 20
-6.350000000000147
 11
13.97000000000049
 21
-3.80999999999964
  0
LINE
  5
CD
100
AcDbEntity
  8
socket_header
  6
ByLayer
 62
  256
370
   -1
100
AcDbLine
 10
13.97000000000049
 20
-6.34999999999965
 11
11.42999999999998
 21
-6.34999999999965
  0
LINE
  5
CE
100
AcDbEntity
  8
socket_header
  6
ByLayer
 62
  256
370
   -1
100
AcDbLine
 10
11.43000000000038
 20
-8.890000000000168
 11
11.43000000000038
 21
-6.349999999999664
  0
LINE
  5
CF
100
AcDbEntity
  8
socket_header
  6
ByLayer
 62
  256
370
   -1
100
AcDbLine
 10
13.97000000000049
 20
-6.349999999999664
 11
11.4299999999999
 21
-6.349999999999664
  0
LINE
  5
D0
100
AcDbEntity
  8
socket_header
  6
ByLayer
 62
  256
370
   -1
100
AcDbLine
 10
13.97000000000049
 20
-8.890000000000168
 11
13.97000000000049
 21
-6.349999999999664
  0
LINE
  5
D1
100
AcDbEntity
  8
socket_header
  6
ByLayer
 62
  256
370
   -1
100
AcDbLine
 10
13.97000000000049
 20
-8.88999999999967
 11
11.42999999999998
 21
-8.88999999999967
  0
LINE
  5
D2
100
AcDbEntity
  8
socket_header
  6
ByLayer
 62
  256
370
   -1
100
AcDbLine
 10
11.43000000000038
 20
-11.43000000000019
 11
11.43000000000038
 21
-8.889999999999684
  0
LINE
  5
D3
100
AcDbEntity
  8
socket_header
  6
ByLayer
 62
  256
370
   -1
100
AcDbLine
 10
13.97000000000049
 20
-8.889999999999684
 11
11.4299999999999
 21
-8.889999999999684
  0
LINE
  5
D4
100
AcDbEntity
  8
socket_header
  6
ByLayer
 62
  256
370
   -1
100
AcDbLine
 10
13.97000000000049
 20
-11.43000000000019
 11
13.97000000000049
 21
-8.889999999999684
  0
LINE
  5
D5
100
AcDbEntity
  8
socket_header
  6
ByLayer
 62
  256
370
   -1
100
AcDbLine
 10
13.97000000000049
 20
-11.42999999999969
 11
11.42999999999998
 21
-11.42999999999969
  0
LINE
  5
D6
100
AcDbEntity
  8
socket_header
  6
ByLayer
 62
  256
370
   -1
100
AcDbLine
 10
11.43000000000038
 20
-13.97000000000021
 11
11.43000000000038
 21
-11.4299999999997
  0
LINE
  5
D7
100
AcDbEntity
  8
socket_header
  6
ByLayer
 62
  256
370
   -1
100
AcDbLine
 10
13.97000000000049
 20
-11.4299999999997
 11
11.4299999999999
 21
-11.4299999999997
  0
LINE
  5
D8
100
AcDbEntity
  8
socket_header
  6
ByLayer
 62
  256
370
   -1
100
AcDbLine
 10
13.97000000000049
 20
-13.97000000000021
 11
13.97000000000049
 21
-11.4299999999997
  0
LINE
  5
D9
100
AcDbEntity
  8
socket_header
  6
ByLayer
 62
  256
370
   -1
100
AcDbLine
 10
13.97000000000049
 20
-13.96999999999973
 11
11.4299999999999
 21
-13.96999999999973
  0
LINE
  5
DA
100
AcDbEntity
  8
0_GND
  6
ByLayer
 62
  256
370
   -1
100
AcDbLine
 10
2.540000000000081
 20
5.080000000000041
 11
0
 21
5.080000000000041
  0
CIRCLE
  5
DB
100
AcDbEntity
  8
0_wire
  6
ByLayer
 62
  256
370
   -1
100
AcDbCircle
 10
5.080000000000162
 20
5.080000000000041
 40
0.4
  0
LINE
  5
DC
100
AcDbEntity
  8
0_GND
  6
ByLayer
 62
  256
370
   -1
100
AcDbLine
 10
0
 20
5.080000000000041
 11
-5.080000000000149
 21
5.080000000000041
  0
LINE
  5
DD
100
AcDbEntity
  8
0_GND
  6
ByLayer
 62
  256
370
   -1
100
AcDbLine
 10
-5.080000000000149
 20
5.080000000000041
 11
-5.080000000000149
 21
10.16000000000008
  0
LINE
  5
DE
100
AcDbEntity
  8
0_GND
  6
ByLayer
 62
  256
370
   -1
100
AcDbLine
 10
-5.080000000000149
 20
10.16000000000008
 11
12.70000000000039
 21
10.16000000000008
  0
LINE
  5
DF
100
AcDbEntity
  8
0_GND
  6
ByLayer
 62
  256
370
   -1
100
AcDbLine
 10
12.70000000000039
 20
10.16000000000008
 11
12.70000000000039
 21
5.080000000000041
  0
LINE
  5
E0
100
AcDbEntity
  8
0_GND
  6
ByLayer
 62
  256
370
   -1
100
AcDbLine
 10
12.70000000000039
 20
5.080000000000041
 11
10.16000000000031
 21
5.080000000000041
  0
LINE
  5
E1
100
AcDbEntity
  8
0_wire
  6
ByLayer
 62
  256
370
   -1
100
AcDbLine
 10
-2.54000000000007
 20
-7.620000000000056
 11
-5.080000000000149
 21
-7.620000000000056
  0
LINE
  5
E2
100
AcDbEntity
  8
0_wire
  6
ByLayer
 62
  256
370
   -1
100
AcDbLine
 10
-2.54000000000007
 20
-10.16000000000007
 11
-5.080000000000149
 21
-10.16000000000007
  0
LINE
  5
E3
100
AcDbEntity
  8
0_wire
  6
ByLayer
 62
  256
370
   -1
100
AcDbLine
 10
-2.54000000000007
 20
-12.70000000000009
 11
-5.080000000000149
 21
-12.70000000000009
  0
LINE
  5
E4
100
AcDbEntity
  8
universal_board
  6
ByLayer
 62
  256
370
   -1
100
AcDbLine
 10
-6.35000000000025
 20
11.42999999999989
 11
13.97000000000054
 21
11.42999999999989
  0
MTEXT
  5
E5
100
AcDbEntity
  8
universal_board
  6
ByLayer
 62
  256
370
   -1
100
AcDbMText
 10
-5.9199827659895
 20
12.12757202065959
 30
0
 40
1
 41
1.202222222222222
 71
    4
 72
    1
  1
B1
  7
kst32b
210
0
220
0
230
1
 50
0
 73
    2
 44
1.54
  0
MTEXT
  5
E6
100
AcDbEntity
  8
terminal
  6
ByLayer
 62
  256
370
   -1
100
AcDbMText
 10
-0.7589935670099912
 20
16.05761029278474
 30
0
 40
1
 41
1.132222222222222
 71
    4
 72
    1
  1
J1
  7
kst32b
210
0
220
0
230
1
 50
0
 73
    2
 44
1.54
  0
LINE
  5
E7
100
AcDbEntity
  8
micon
  6
ByLayer
 62
  256
370
   -1
100
AcDbLine
 10
1.809999999988712
 20
-10.89000000001547
 11
5.809999999979869
 21
-10.89000000001547
  0
LINE
  5
E8
100
AcDbEntity
  8
micon
  6
ByLayer
 62
  256
370
   -1
100
AcDbLine
 10
5.809999999979869
 20
-10.89000000001547
 11
5.809999999979869
 21
-6.890000000018647
  0
LINE
  5
E9
100
AcDbEntity
  8
micon
  6
ByLayer
 62
  256
370
   -1
100
AcDbLine
 10
5.809999999979869
 20
-6.890000000018647
 11
1.809999999988719
 21
-6.890000000018647
  0
LINE
  5
EA
100
AcDbEntity
  8
micon
  6
ByLayer
 62
  256
370
   -1
100
AcDbLine
 10
1.809999999988719
 20
-6.890000000018647
 11
1.809999999988712
 21
-10.89000000001547
  0
LINE
  5
EB
100
AcDbEntity
  8
micon
  6
ByLayer
 62
  256
370
   -1
100
AcDbLine
 10
3.560000000006671
 20
-6.890000000018617
 11
3.560000000006621
 21
-7.290000000028687
  0
LINE
  5
EC
100
AcDbEntity
  8
micon
  6
ByLayer
 62
  256
370
   -1
100
AcDbLine
 10
3.060000000025092
 20
-6.890000000018597
 11
3.060000000025081
 21
-7.290000000028657
  0
LINE
  5
ED
100
AcDbEntity
  8
micon
  6
ByLayer
 62
  256
370
   -1
100
AcDbLine
 10
2.560000000043551
 20
-6.890000000018563
 11
2.560000000043509
 21
-7.290000000028636
  0
LINE
  5
EE
100
AcDbEntity
  8
micon
  6
ByLayer
 62
  256
370
   -1
100
AcDbLine
 10
4.059999999988221
 20
-6.89000000001862
 11
4.05999999998819
 21
-7.290000000028682
  0
LINE
  5
EF
100
AcDbEntity
  8
micon
  6
ByLayer
 62
  256
370
   -1
100
AcDbLine
 10
4.559999999969779
 20
-6.89000000001862
 11
4.55999999996974
 21
-7.290000000028685
  0
LINE
  5
F0
100
AcDbEntity
  8
micon
  6
ByLayer
 62
  256
370
   -1
100
AcDbLine
 10
5.05999999995133
 20
-6.89000000001862
 11
5.059999999951291
 21
-7.290000000028685
  0
LINE
  5
F1
100
AcDbEntity
  8
micon
  6
ByLayer
 62
  256
370
   -1
100
AcDbLine
 10
1.809999999985809
 20
-9.139999999994686
 11
2.209999999995862
 21
-9.139999999994718
  0
LINE
  5
F2
100
AcDbEntity
  8
micon
  6
ByLayer
 62
  256
370
   -1
100
AcDbLine
 10
1.80999999998577
 20
-9.639999999976242
 11
2.20999999999583
 21
-9.639999999976283
  0
LINE
  5
F3
100
AcDbEntity
  8
micon
  6
ByLayer
 62
  256
370
   -1
100
AcDbLine
 10
1.809999999985731
 20
-10.13999999995781
 11
2.209999999995809
 21
-10.13999999995782
  0
LINE
  5
F4
100
AcDbEntity
  8
micon
  6
ByLayer
 62
  256
370
   -1
100
AcDbLine
 10
1.809999999985809
 20
-8.640000000013131
 11
2.209999999995862
 21
-8.640000000013163
  0
LINE
  5
F5
100
AcDbEntity
  8
micon
  6
ByLayer
 62
  256
370
   -1
100
AcDbLine
 10
1.809999999985802
 20
-8.140000000031581
 11
2.209999999995862
 21
-8.140000000031611
  0
LINE
  5
F6
100
AcDbEntity
  8
micon
  6
ByLayer
 62
  256
370
   -1
100
AcDbLine
 10
1.809999999985802
 20
-7.640000000050025
 11
2.209999999995862
 21
-7.640000000050056
  0
LINE
  5
F7
100
AcDbEntity
  8
micon
  6
ByLayer
 62
  256
370
   -1
100
AcDbLine
 10
4.05999999996185
 20
-10.89000000001556
 11
4.059999999961899
 21
-10.49000000000549
  0
LINE
  5
F8
100
AcDbEntity
  8
micon
  6
ByLayer
 62
  256
370
   -1
100
AcDbLine
 10
4.559999999943429
 20
-10.89000000001558
 11
4.55999999994344
 21
-10.49000000000552
  0
LINE
  5
F9
100
AcDbEntity
  8
micon
  6
ByLayer
 62
  256
370
   -1
100
AcDbLine
 10
5.05999999992498
 20
-10.8900000000156
 11
5.059999999925012
 21
-10.49000000000554
  0
LINE
  5
FA
100
AcDbEntity
  8
micon
  6
ByLayer
 62
  256
370
   -1
100
AcDbLine
 10
3.559999999980299
 20
-10.89000000001556
 11
3.559999999980342
 21
-10.49000000000549
  0
LINE
  5
FB
100
AcDbEntity
  8
micon
  6
ByLayer
 62
  256
370
   -1
100
AcDbLine
 10
3.059999999998741
 20
-10.89000000001555
 11
3.059999999998791
 21
-10.49000000000548
  0
LINE
  5
FC
100
AcDbEntity
  8
micon
  6
ByLayer
 62
  256
370
   -1
100
AcDbLine
 10
2.56000000001719
 20
-10.89000000001555
 11
2.560000000017229
 21
-10.49000000000548
  0
LINE
  5
FD
100
AcDbEntity
  8
micon
  6
ByLayer
 62
  256
370
   -1
100
AcDbLine
 10
5.809999999982722
 20
-8.64000000003948
 11
5.409999999972669
 21
-8.64000000003945
  0
LINE
  5
FE
100
AcDbEntity
  8
micon
  6
ByLayer
 62
  256
370
   -1
100
AcDbLine
 10
5.809999999982761
 20
-8.140000000057926
 11
5.40999999997269
 21
-8.140000000057885
  0
LINE
  5
FF
100
AcDbEntity
  8
micon
  6
ByLayer
 62
  256
370
   -1
100
AcDbLine
 10
5.809999999982789
 20
-7.640000000076361
 11
5.409999999972712
 21
-7.640000000076353
  0
LINE
  5
100
100
AcDbEntity
  8
micon
  6
ByLayer
 62
  256
370
   -1
100
AcDbLine
 10
5.809999999982722
 20
-9.140000000021034
 11
5.409999999972669
 21
-9.140000000021004
  0
LINE
  5
101
100
AcDbEntity
  8
micon
  6
ByLayer
 62
  256
370
   -1
100
AcDbLine
 10
5.809999999982722
 20
-9.64000000000259
 11
5.409999999972669
 21
-9.640000000002559
  0
LINE
  5
102
100
AcDbEntity
  8
micon
  6
ByLayer
 62
  256
370
   -1
100
AcDbLine
 10
5.809999999982722
 20
-10.13999999998415
 11
5.409999999972662
 21
-10.13999999998412
  0
LINE
  5
103
100
AcDbEntity
  8
micon
  6
ByLayer
 62
  256
370
   -1
100
AcDbLine
 10
2.459999999985449
 20
-7.789999999997422
 11
2.459999999985449
 21
-10.24000000001823
  0
LINE
  5
104
100
AcDbEntity
  8
micon
  6
ByLayer
 62
  256
370
   -1
100
AcDbLine
 10
2.459999999985449
 20
-10.24000000001823
 11
5.15999999998305
 21
-10.24000000001821
  0
LINE
  5
105
100
AcDbEntity
  8
micon
  6
ByLayer
 62
  256
370
   -1
100
AcDbLine
 10
5.15999999998305
 20
-10.24000000001821
 11
5.159999999983039
 21
-7.540000000015953
  0
LINE
  5
106
100
AcDbEntity
  8
micon
  6
ByLayer
 62
  256
370
   -1
100
AcDbLine
 10
5.159999999983039
 20
-7.540000000015953
 11
2.709999999995961
 21
-7.540000000015953
  0
LINE
  5
107
100
AcDbEntity
  8
micon
  6
ByLayer
 62
  256
370
   -1
100
AcDbLine
 10
2.709999999995961
 20
-7.540000000015953
 11
2.459999999985449
 21
-7.789999999997422
  0
MTEXT
  5
108
100
AcDbEntity
  8
micon
  6
ByLayer
 62
  256
370
   -1
100
AcDbMText
 10
2.267972587710869
 20
-6.41595223850674
 30
0
 40
0.47
 41
0.1305555555555556
 71
    4
 72
    1
  1
1
  7
kst32b
210
0
220
0
230
1
 50
0
 73
    2
 44
1.54
  0
MTEXT
  5
109
100
AcDbEntity
  8
micon
  6
ByLayer
 62
  256
370
   -1
100
AcDbMText
 10
0.9772206447551106
 20
-7.3606958666011
 30
0
 40
0.47
 41
0.6141333333333333
 71
    4
 72
    1
  1
24
  7
kst32b
210
0
220
0
230
1
 50
0
 73
    2
 44
1.54
  0
LWPOLYLINE
  5
10A
100
AcDbEntity
  8
resister
  6
ByLayer
 62
  256
370
   -1
100
AcDbPolyline
 90
    3
 70
    0
 43
0
 10
3.060000000025092
 20
-6.890000000018647
 10
3.004910397396582
 20
-4.559646291718279
 10
0
 20
-2.540000000000019
  0
LWPOLYLINE
  5
10B
100
AcDbEntity
  8
resister
  6
ByLayer
 62
  256
370
   -1
100
AcDbPolyline
 90
    3
 70
    0
 43
0
 10
2.540000000000081
 20
-2.540000000000019
 10
3.557342485755981
 20
-4.52895562014276
 10
3.560000000006671
 20
-6.890000000018647
  0
LWPOLYLINE
  5
10C
100
AcDbEntity
  8
resister
  6
ByLayer
 62
  256
370
   -1
100
AcDbPolyline
 90
    3
 70
    0
 43
0
 10
5.080000000000162
 20
-2.540000000000019
 10
4.079083902539871
 20
-4.375502262265149
 10
4.059999999988221
 20
-6.890000000018647
  0
LINE
  5
10D
100
AcDbEntity
  8
0_wire
  6
ByLayer
 62
  256
370
   -1
100
AcDbLine
 10
5.080000000000162
 20
2.54000000000002
 11
5.080000000000162
 21
-2.540000000000019
  0
LWPOLYLINE
  5
10E
100
AcDbEntity
  8
resister
  6
ByLayer
 62
  256
370
   -1
100
AcDbPolyline
 90
    3
 70
    0
 43
0
 10
7.620000000000239
 20
-2.540000000000019
 10
4.56034432351565
 20
-4.31777310903159
 10
4.559999999969779
 20
-6.890000000018647
  0
LWPOLYLINE
  5
10F
100
AcDbEntity
  8
resister
  6
ByLayer
 62
  256
370
   -1
100
AcDbPolyline
 90
    3
 70
    0
 43
0
 10
10.16000000000031
 20
-2.540000000000019
 10
5.153257407683171
 20
-4.498264948567229
 10
5.05999999995133
 20
-6.890000000018647
  0
LINE
  5
110
100
AcDbEntity
  8
3.3V line
  6
ByLayer
 62
  256
370
   -1
100
AcDbLine
 10
7.620000000000239
 20
-2.540000000000019
 11
10.16000000000031
 21
-2.540000000000019
  0
LINE
  5
111
100
AcDbEntity
  8
condenser
  6
ByLayer
 62
  256
370
   -1
100
AcDbLine
 10
10.64000000000056
 20
-0.899999999999979
 11
10.64000000000056
 21
0.9000000000008299
  0
LINE
  5
112
100
AcDbEntity
  8
condenser
  6
ByLayer
 62
  256
370
   -1
100
AcDbLine
 10
10.64000000000056
 20
0.9000000000008299
 11
7.140000000000221
 21
0.9000000000008299
  0
LINE
  5
113
100
AcDbEntity
  8
condenser
  6
ByLayer
 62
  256
370
   -1
100
AcDbLine
 10
7.140000000000221
 20
0.9000000000008299
 11
7.140000000000221
 21
-0.899999999999979
  0
LINE
  5
114
100
AcDbEntity
  8
condenser
  6
ByLayer
 62
  256
370
   -1
100
AcDbLine
 10
7.140000000000221
 20
-0.899999999999979
 11
10.64000000000056
 21
-0.899999999999979
  0
LINE
  5
115
100
AcDbEntity
  8
condenser
  6
ByLayer
 62
  256
370
   -1
100
AcDbLine
 10
7.620000000000239
 20
1.101341240428155e-13
 11
7.140000000000221
 21
1.101341240428155e-13
  0
LINE
  5
116
100
AcDbEntity
  8
condenser
  6
ByLayer
 62
  256
370
   -1
100
AcDbLine
 10
10.64000000000056
 20
1.101341240428155e-13
 11
10.16000000000031
 21
1.101341240428155e-13
  0
MTEXT
  5
117
100
AcDbEntity
  8
condenser
  6
ByLayer
 62
  256
370
   -1
100
AcDbMText
 10
8.149077515515881
 20
0.02880817478860997
 30
0
 40
1
 41
1.202222222222222
 71
    4
 72
    1
  1
C1
  7
kst32b
210
0
220
0
230
1
 50
0
 73
    2
 44
1.54
  0
LINE
  5
118
100
AcDbEntity
  8
3.3V line
  6
ByLayer
 62
  256
370
   -1
100
AcDbLine
 10
7.620000000000239
 20
-2.540000000000019
 11
7.620000000000239
 21
0
  0
LINE
  5
119
100
AcDbEntity
  8
0_GND
  6
ByLayer
 62
  256
370
   -1
100
AcDbLine
 10
10.16000000000031
 20
5.080000000000041
 11
10.16000000000031
 21
0
  0
LWPOLYLINE
  5
11A
100
AcDbEntity
  8
resister
  6
ByLayer
 62
  256
370
   -1
100
AcDbPolyline
 90
    3
 70
    0
 43
0
 10
10.16000000000031
 20
-5.080000000000039
 10
8.222324565235429
 20
-7.567332106119484
 10
5.809999999979869
 20
-7.640000000076361
  0
LWPOLYLINE
  5
11B
100
AcDbEntity
  8
resister
  6
ByLayer
 62
  256
370
   -1
100
AcDbPolyline
 90
    3
 70
    0
 43
0
 10
10.16000000000031
 20
-7.620000000000058
 10
8.406468594688569
 20
-8.11976419447889
 10
5.809999999979869
 20
-8.140000000057926
  0
LINE
  5
11C
100
AcDbEntity
  8
5V line
  6
ByLayer
 62
  256
370
   -1
100
AcDbLine
 10
10.16000000000031
 20
-5.080000000000039
 11
10.16000000000031
 21
-7.620000000000058
  0
LWPOLYLINE
  5
11D
100
AcDbEntity
  8
resister
  6
ByLayer
 62
  256
370
   -1
100
AcDbPolyline
 90
    3
 70
    0
 43
0
 10
10.16000000000031
 20
-10.16000000000008
 10
8.28370590838648
 20
-8.641505611262772
 10
5.809999999979869
 20
-8.64000000003948
  0
LINE
  5
11E
100
AcDbEntity
  8
resister
  6
ByLayer
 62
  256
370
   -1
100
AcDbLine
 10
9.150000000001661
 20
-11.5999999999994
 11
3.550000000001642
 21
-11.5999999999994
  0
LINE
  5
11F
100
AcDbEntity
  8
resister
  6
ByLayer
 62
  256
370
   -1
100
AcDbLine
 10
3.550000000001642
 20
-11.5999999999994
 11
3.550000000001642
 21
-13.79999999999899
  0
LINE
  5
120
100
AcDbEntity
  8
resister
  6
ByLayer
 62
  256
370
   -1
100
AcDbLine
 10
3.550000000001642
 20
-13.79999999999899
 11
9.150000000001661
 21
-13.79999999999899
  0
LINE
  5
121
100
AcDbEntity
  8
resister
  6
ByLayer
 62
  256
370
   -1
100
AcDbLine
 10
9.150000000001722
 20
-13.79999999999899
 11
9.150000000001722
 21
-11.5999999999994
  0
LINE
  5
122
100
AcDbEntity
  8
resister
  6
ByLayer
 62
  256
370
   -1
100
AcDbLine
 10
9.150000000001722
 20
-12.7000000000001
 11
7.620000000000239
 21
-12.7000000000001
  0
LINE
  5
123
100
AcDbEntity
  8
resister
  6
ByLayer
 62
  256
370
   -1
100
AcDbLine
 10
3.550000000001642
 20
-12.7000000000001
 11
5.080000000000162
 21
-12.7000000000001
  0
MTEXT
  5
124
100
AcDbEntity
  8
resister
  6
ByLayer
 62
  256
370
   -1
100
AcDbMText
 10
5.890128531641611
 20
-12.31004079764018
 30
0
 40
1
 41
1.202222222222222
 71
    4
 72
    1
  1
R1
  7
kst32b
210
0
220
0
230
1
 50
0
 73
    2
 44
1.54
  0
LINE
  5
125
100
AcDbEntity
  8
0_wire
  6
ByLayer
 62
  256
370
   -1
100
AcDbLine
 10
10.16000000000031
 20
-10.16000000000008
 11
10.16000000000031
 21
-12.7000000000001
  0
LINE
  5
126
100
AcDbEntity
  8
0_wire
  6
ByLayer
 62
  256
370
   -1
100
AcDbLine
 10
10.16000000000031
 20
-12.7000000000001
 11
7.620000000000239
 21
-12.7000000000001
  0
LINE
  5
127
100
AcDbEntity
  8
3.3V line
  6
ByLayer
 62
  256
370
   -1
100
AcDbLine
 10
7.620000000000239
 20
-2.540000000000019
 11
7.620000000000239
 21
-10.16000000000008
  0
LINE
  5
128
100
AcDbEntity
  8
3.3V line
  6
ByLayer
 62
  256
370
   -1
100
AcDbLine
 10
7.620000000000239
 20
-10.16000000000008
 11
5.080000000000162
 21
-10.16000000000008
  0
LINE
  5
129
100
AcDbEntity
  8
3.3V line
  6
ByLayer
 62
  256
370
   -1
100
AcDbLine
 10
5.080000000000162
 20
-10.16000000000008
 11
5.080000000000162
 21
-12.7000000000001
  0
LWPOLYLINE
  5
12A
100
AcDbEntity
  8
resister
  6
ByLayer
 62
  256
370
   -1
100
AcDbPolyline
 90
    3
 70
    0
 43
0
 10
-2.54000000000007
 20
-12.7000000000001
 10
-0.9184610358143601
 20
-9.68536716771778
 10
1.809999999988712
 20
-9.639999999976242
  0
LWPOLYLINE
  5
12B
100
AcDbEntity
  8
resister
  6
ByLayer
 62
  256
370
   -1
100
AcDbPolyline
 90
    3
 70
    0
 43
0
 10
-2.54000000000007
 20
-10.16000000000008
 10
-0.9978129334183983
 20
-9.09022793568753
 10
1.809999999988712
 20
-9.139999999994686
  0
LWPOLYLINE
  5
12C
100
AcDbEntity
  8
resister
  6
ByLayer
 62
  256
370
   -1
100
AcDbPolyline
 90
    3
 70
    0
 43
0
 10
1.809999999988719
 20
-8.140000000031581
 10
-0.8391091382103291
 20
-8.217357062043163
 10
-2.54000000000007
 20
-7.620000000000058
  0
LWPOLYLINE
  5
12D
100
AcDbEntity
  8
resister
  6
ByLayer
 62
  256
370
   -1
100
AcDbPolyline
 90
    3
 70
    0
 43
0
 10
3.207837639595379
 20
-8.574440601261312
 10
-0.3233218037841112
 20
-3.49591915460317
 10
-2.54000000000007
 20
-2.540000000000019
  0
LINE
  5
12E
100
AcDbEntity
  8
0_GND
  6
ByLayer
 62
  256
370
   -1
100
AcDbLine
 10
0
 20
-2.540000000000019
 11
-2.54000000000007
 21
-2.540000000000019
  0
LINE
  5
12F
100
AcDbEntity
  8
0_GND
  6
ByLayer
 62
  256
370
   -1
100
AcDbLine
 10
-2.54000000000007
 20
-2.540000000000019
 11
-5.080000000000149
 21
-2.540000000000019
  0
LINE
  5
130
100
AcDbEntity
  8
0_GND
  6
ByLayer
 62
  256
370
   -1
100
AcDbLine
 10
-5.080000000000149
 20
-2.540000000000019
 11
-5.080000000000149
 21
-5.080000000000039
  0
LINE
  5
131
100
AcDbEntity
  8
5V line
  6
ByLayer
 62
  256
370
   -1
100
AcDbLine
 10
12.70000000000039
 20
-7.620000000000058
 11
10.16000000000031
 21
-7.620000000000058
  0
LINE
  5
132
100
AcDbEntity
  8
3.3V line
  6
ByLayer
 62
  256
370
   -1
100
AcDbLine
 10
10.16000000000031
 20
-2.540000000000019
 11
12.70000000000039
 21
-2.540000000000019
  0
LINE
  5
133
100
AcDbEntity
  8
0_wire
  6
ByLayer
 62
  256
370
   -1
100
AcDbLine
 10
12.70000000000039
 20
-12.7000000000001
 11
10.16000000000031
 21
-12.7000000000001
  0
LINE
  5
134
100
AcDbEntity
  8
universal_board
  6
ByLayer
 62
  256
370
   -1
100
AcDbLine
 10
-6.350000000000311
 20
-13.97000000000031
 11
13.97000000000061
 21
-13.97000000000031
  0
LINE
  5
135
100
AcDbEntity
  8
universal_board
  6
ByLayer
 62
  256
370
   -1
100
AcDbLine
 10
-6.35000000000025
 20
11.42999999999989
 11
-6.35000000000025
 21
-13.9700000000003
  0
LINE
  5
136
100
AcDbEntity
  8
universal_board
  6
ByLayer
 62
  256
370
   -1
100
AcDbLine
 10
13.97000000000054
 20
11.42999999999989
 11
13.97000000000054
 21
-13.9700000000003
  0
LINE
  5
137
100
AcDbEntity
  8
condenser
  6
ByLayer
 62
  256
370
   -1
100
AcDbLine
 10
-3.119999999996878
 20
-1.150000000001459
 11
0.5800000000029719
 21
-1.150000000001459
  0
LINE
  5
138
100
AcDbEntity
  8
condenser
  6
ByLayer
 62
  256
370
   -1
100
AcDbLine
 10
0.5800000000029719
 20
-1.150000000001459
 11
0.5800000000029719
 21
1.150000000001281
  0
LINE
  5
139
100
AcDbEntity
  8
condenser
  6
ByLayer
 62
  256
370
   -1
100
AcDbLine
 10
0.5800000000029719
 20
1.150000000001281
 11
-3.11999999999685
 21
1.150000000001281
  0
LINE
  5
13A
100
AcDbEntity
  8
condenser
  6
ByLayer
 62
  256
370
   -1
100
AcDbLine
 10
-3.11999999999685
 20
1.150000000001281
 11
-3.119999999996878
 21
-1.150000000001459
  0
LINE
  5
13B
100
AcDbEntity
  8
condenser
  6
ByLayer
 62
  256
370
   -1
100
AcDbLine
 10
-4.973799150320701e-14
 20
0
 11
0.5800000000029719
 21
0
  0
LINE
  5
13C
100
AcDbEntity
  8
condenser
  6
ByLayer
 62
  256
370
   -1
100
AcDbLine
 10
-3.11999999999685
 20
-1.190159082398168e-13
 11
-2.54000000000007
 21
-1.190159082398168e-13
  0
MTEXT
  5
13D
100
AcDbEntity
  8
condenser
  6
ByLayer
 62
  256
370
   -1
100
AcDbMText
 10
-1.727763297384971
 20
-0.5192428794887398
 30
0
 40
1
 41
1.306666666666667
 71
    4
 72
    1
  1
C2
  7
kst32b
210
0
220
0
230
1
 50
0
 73
    2
 44
1.54
  0
LINE
  5
13E
100
AcDbEntity
  8
5V line
  6
ByLayer
 62
  256
370
   -1
100
AcDbLine
 10
2.540000000000081
 20
2.54000000000002
 11
0
 21
2.54000000000002
  0
LINE
  5
13F
100
AcDbEntity
  8
5V line
  6
ByLayer
 62
  256
370
   -1
100
AcDbLine
 10
0
 20
2.54000000000002
 11
0
 21
0
  0
LINE
  5
140
100
AcDbEntity
  8
0_GND
  6
ByLayer
 62
  256
370
   -1
100
AcDbLine
 10
-2.54000000000007
 20
5.080000000000041
 11
-2.54000000000007
 21
0
  0
LINE
  5
141
100
AcDbEntity
  8
0_GND
  6
ByLayer
 62
  256
370
   -1
100
AcDbLine
 10
-2.54000000000007
 20
0
 11
-2.54000000000007
 21
-2.540000000000019
  0
LINE
  5
142
100
AcDbEntity
  8
0_wire
  6
ByLayer
 62
  256
370
   -1
100
AcDbLine
 10
2.540000000000081
 20
0
 11
2.540000000000081
 21
-2.540000000000019
  0
LWPOLYLINE
  5
143
100
AcDbEntity
  8
resister
  6
DOTTINY
 62
  256
370
   -1
100
AcDbPolyline
 90
    4
 70
    0
 43
0
 10
2.540000000000081
 20
0
 10
3.443694928911881
 20
1.02120680891792
 10
3.792647864725581
 20
4.126887937659781
 10
5.080000000000162
 20
5.080000000000041
  0
CIRCLE
  5
144
100
AcDbEntity
  8
universal_board
  6
ByLayer
 62
  256
370
   -1
100
AcDbCircle
 10
20.32000000000062
 20
-10.16000000000008
 40
0.5
  0
CIRCLE
  5
145
100
AcDbEntity
  8
universal_board
  6
ByLayer
 62
  256
370
   -1
100
AcDbCircle
 10
20.32000000000062
 20
-12.7000000000001
 40
0.5
  0
CIRCLE
  5
146
100
AcDbEntity
  8
universal_board
  6
ByLayer
 62
  256
370
   -1
100
AcDbCircle
 10
22.8600000000007
 20
-10.16000000000008
 40
0.5
  0
CIRCLE
  5
147
100
AcDbEntity
  8
universal_board
  6
ByLayer
 62
  256
370
   -1
100
AcDbCircle
 10
22.8600000000007
 20
-12.7000000000001
 40
0.5
  0
CIRCLE
  5
148
100
AcDbEntity
  8
universal_board
  6
ByLayer
 62
  256
370
   -1
100
AcDbCircle
 10
25.40000000000077
 20
-10.16000000000008
 40
0.5
  0
CIRCLE
  5
149
100
AcDbEntity
  8
universal_board
  6
ByLayer
 62
  256
370
   -1
100
AcDbCircle
 10
25.40000000000077
 20
-12.7000000000001
 40
0.5
  0
CIRCLE
  5
14A
100
AcDbEntity
  8
universal_board
  6
ByLayer
 62
  256
370
   -1
100
AcDbCircle
 10
27.94000000000085
 20
-10.16000000000008
 40
0.5
  0
CIRCLE
  5
14B
100
AcDbEntity
  8
universal_board
  6
ByLayer
 62
  256
370
   -1
100
AcDbCircle
 10
27.94000000000085
 20
-12.7000000000001
 40
0.5
  0
CIRCLE
  5
14C
100
AcDbEntity
  8
universal_board
  6
ByLayer
 62
  256
370
   -1
100
AcDbCircle
 10
30.48000000000093
 20
-10.16000000000008
 40
0.5
  0
CIRCLE
  5
14D
100
AcDbEntity
  8
universal_board
  6
ByLayer
 62
  256
370
   -1
100
AcDbCircle
 10
30.48000000000093
 20
-12.7000000000001
 40
0.5
  0
CIRCLE
  5
14E
100
AcDbEntity
  8
universal_board
  6
ByLayer
 62
  256
370
   -1
100
AcDbCircle
 10
33.02000000000101
 20
-10.16000000000008
 40
0.5
  0
CIRCLE
  5
14F
100
AcDbEntity
  8
universal_board
  6
ByLayer
 62
  256
370
   -1
100
AcDbCircle
 10
33.02000000000101
 20
-12.7000000000001
 40
0.5
  0
CIRCLE
  5
150
100
AcDbEntity
  8
universal_board
  6
ByLayer
 62
  256
370
   -1
100
AcDbCircle
 10
35.56000000000108
 20
-10.16000000000008
 40
0.5
  0
CIRCLE
  5
151
100
AcDbEntity
  8
universal_board
  6
ByLayer
 62
  256
370
   -1
100
AcDbCircle
 10
35.56000000000108
 20
-12.7000000000001
 40
0.5
  0
CIRCLE
  5
152
100
AcDbEntity
  8
universal_board
  6
ByLayer
 62
  256
370
   -1
100
AcDbCircle
 10
38.10000000000116
 20
-10.16000000000008
 40
0.5
  0
CIRCLE
  5
153
100
AcDbEntity
  8
universal_board
  6
ByLayer
 62
  256
370
   -1
100
AcDbCircle
 10
38.10000000000116
 20
-12.7000000000001
 40
0.5
  0
CIRCLE
  5
154
100
AcDbEntity
  8
universal_board
  6
ByLayer
 62
  256
370
   -1
100
AcDbCircle
 10
20.32000000000062
 20
-7.620000000000058
 40
0.5
  0
CIRCLE
  5
155
100
AcDbEntity
  8
universal_board
  6
ByLayer
 62
  256
370
   -1
100
AcDbCircle
 10
22.8600000000007
 20
-7.620000000000058
 40
0.5
  0
CIRCLE
  5
156
100
AcDbEntity
  8
universal_board
  6
ByLayer
 62
  256
370
   -1
100
AcDbCircle
 10
25.40000000000077
 20
-7.620000000000058
 40
0.5
  0
CIRCLE
  5
157
100
AcDbEntity
  8
universal_board
  6
ByLayer
 62
  256
370
   -1
100
AcDbCircle
 10
27.94000000000085
 20
-7.620000000000058
 40
0.5
  0
CIRCLE
  5
158
100
AcDbEntity
  8
universal_board
  6
ByLayer
 62
  256
370
   -1
100
AcDbCircle
 10
30.48000000000093
 20
-7.620000000000058
 40
0.5
  0
CIRCLE
  5
159
100
AcDbEntity
  8
universal_board
  6
ByLayer
 62
  256
370
   -1
100
AcDbCircle
 10
33.02000000000101
 20
-7.620000000000058
 40
0.5
  0
CIRCLE
  5
15A
100
AcDbEntity
  8
universal_board
  6
ByLayer
 62
  256
370
   -1
100
AcDbCircle
 10
35.56000000000108
 20
-7.620000000000058
 40
0.5
  0
CIRCLE
  5
15B
100
AcDbEntity
  8
universal_board
  6
ByLayer
 62
  256
370
   -1
100
AcDbCircle
 10
38.10000000000116
 20
-7.620000000000058
 40
0.5
  0
CIRCLE
  5
15C
100
AcDbEntity
  8
universal_board
  6
ByLayer
 62
  256
370
   -1
100
AcDbCircle
 10
20.32000000000062
 20
-5.080000000000039
 40
0.5
  0
CIRCLE
  5
15D
100
AcDbEntity
  8
universal_board
  6
ByLayer
 62
  256
370
   -1
100
AcDbCircle
 10
22.8600000000007
 20
-5.080000000000039
 40
0.5
  0
CIRCLE
  5
15E
100
AcDbEntity
  8
universal_board
  6
ByLayer
 62
  256
370
   -1
100
AcDbCircle
 10
25.40000000000077
 20
-5.080000000000039
 40
0.5
  0
CIRCLE
  5
15F
100
AcDbEntity
  8
universal_board
  6
ByLayer
 62
  256
370
   -1
100
AcDbCircle
 10
27.94000000000085
 20
-5.080000000000039
 40
0.5
  0
CIRCLE
  5
160
100
AcDbEntity
  8
universal_board
  6
ByLayer
 62
  256
370
   -1
100
AcDbCircle
 10
30.48000000000093
 20
-5.080000000000039
 40
0.5
  0
CIRCLE
  5
161
100
AcDbEntity
  8
universal_board
  6
ByLayer
 62
  256
370
   -1
100
AcDbCircle
 10
33.02000000000101
 20
-5.080000000000039
 40
0.5
  0
CIRCLE
  5
162
100
AcDbEntity
  8
universal_board
  6
ByLayer
 62
  256
370
   -1
100
AcDbCircle
 10
35.56000000000108
 20
-5.080000000000039
 40
0.5
  0
CIRCLE
  5
163
100
AcDbEntity
  8
universal_board
  6
ByLayer
 62
  256
370
   -1
100
AcDbCircle
 10
38.10000000000116
 20
-5.080000000000039
 40
0.5
  0
CIRCLE
  5
164
100
AcDbEntity
  8
universal_board
  6
ByLayer
 62
  256
370
   -1
100
AcDbCircle
 10
20.32000000000062
 20
-2.540000000000019
 40
0.5
  0
CIRCLE
  5
165
100
AcDbEntity
  8
universal_board
  6
ByLayer
 62
  256
370
   -1
100
AcDbCircle
 10
22.8600000000007
 20
-2.540000000000019
 40
0.5
  0
CIRCLE
  5
166
100
AcDbEntity
  8
universal_board
  6
ByLayer
 62
  256
370
   -1
100
AcDbCircle
 10
25.40000000000077
 20
-2.540000000000019
 40
0.5
  0
CIRCLE
  5
167
100
AcDbEntity
  8
universal_board
  6
ByLayer
 62
  256
370
   -1
100
AcDbCircle
 10
27.94000000000085
 20
-2.540000000000019
 40
0.5
  0
CIRCLE
  5
168
100
AcDbEntity
  8
universal_board
  6
ByLayer
 62
  256
370
   -1
100
AcDbCircle
 10
30.48000000000093
 20
-2.540000000000019
 40
0.5
  0
CIRCLE
  5
169
100
AcDbEntity
  8
universal_board
  6
ByLayer
 62
  256
370
   -1
100
AcDbCircle
 10
33.02000000000101
 20
-2.540000000000019
 40
0.5
  0
CIRCLE
  5
16A
100
AcDbEntity
  8
universal_board
  6
ByLayer
 62
  256
370
   -1
100
AcDbCircle
 10
35.56000000000108
 20
-2.540000000000019
 40
0.5
  0
CIRCLE
  5
16B
100
AcDbEntity
  8
universal_board
  6
ByLayer
 62
  256
370
   -1
100
AcDbCircle
 10
38.10000000000116
 20
-2.540000000000019
 40
0.5
  0
CIRCLE
  5
16C
100
AcDbEntity
  8
universal_board
  6
ByLayer
 62
  256
370
   -1
100
AcDbCircle
 10
20.32000000000062
 20
0
 40
0.5
  0
CIRCLE
  5
16D
100
AcDbEntity
  8
universal_board
  6
ByLayer
 62
  256
370
   -1
100
AcDbCircle
 10
22.8600000000007
 20
0
 40
0.5
  0
CIRCLE
  5
16E
100
AcDbEntity
  8
universal_board
  6
ByLayer
 62
  256
370
   -1
100
AcDbCircle
 10
25.40000000000077
 20
0
 40
0.5
  0
CIRCLE
  5
16F
100
AcDbEntity
  8
universal_board
  6
ByLayer
 62
  256
370
   -1
100
AcDbCircle
 10
27.94000000000085
 20
0
 40
0.5
  0
CIRCLE
  5
170
100
AcDbEntity
  8
universal_board
  6
ByLayer
 62
  256
370
   -1
100
AcDbCircle
 10
30.48000000000093
 20
0
 40
0.5
  0
CIRCLE
  5
171
100
AcDbEntity
  8
universal_board
  6
ByLayer
 62
  256
370
   -1
100
AcDbCircle
 10
33.02000000000101
 20
0
 40
0.5
  0
CIRCLE
  5
172
100
AcDbEntity
  8
universal_board
  6
ByLayer
 62
  256
370
   -1
100
AcDbCircle
 10
35.56000000000108
 20
0
 40
0.5
  0
CIRCLE
  5
173
100
AcDbEntity
  8
universal_board
  6
ByLayer
 62
  256
370
   -1
100
AcDbCircle
 10
38.10000000000116
 20
0
 40
0.5
  0
CIRCLE
  5
174
100
AcDbEntity
  8
universal_board
  6
ByLayer
 62
  256
370
   -1
100
AcDbCircle
 10
20.32000000000062
 20
2.54000000000002
 40
0.5
  0
CIRCLE
  5
175
100
AcDbEntity
  8
universal_board
  6
ByLayer
 62
  256
370
   -1
100
AcDbCircle
 10
22.8600000000007
 20
2.54000000000002
 40
0.5
  0
CIRCLE
  5
176
100
AcDbEntity
  8
universal_board
  6
ByLayer
 62
  256
370
   -1
100
AcDbCircle
 10
25.40000000000077
 20
2.54000000000002
 40
0.5
  0
CIRCLE
  5
177
100
AcDbEntity
  8
universal_board
  6
ByLayer
 62
  256
370
   -1
100
AcDbCircle
 10
27.94000000000085
 20
2.54000000000002
 40
0.5
  0
CIRCLE
  5
178
100
AcDbEntity
  8
universal_board
  6
ByLayer
 62
  256
370
   -1
100
AcDbCircle
 10
30.48000000000093
 20
2.54000000000002
 40
0.5
  0
CIRCLE
  5
179
100
AcDbEntity
  8
universal_board
  6
ByLayer
 62
  256
370
   -1
100
AcDbCircle
 10
33.02000000000101
 20
2.54000000000002
 40
0.5
  0
CIRCLE
  5
17A
100
AcDbEntity
  8
universal_board
  6
ByLayer
 62
  256
370
   -1
100
AcDbCircle
 10
35.56000000000108
 20
2.54000000000002
 40
0.5
  0
CIRCLE
  5
17B
100
AcDbEntity
  8
universal_board
  6
ByLayer
 62
  256
370
   -1
100
AcDbCircle
 10
38.10000000000116
 20
2.54000000000002
 40
0.5
  0
CIRCLE
  5
17C
100
AcDbEntity
  8
universal_board
  6
ByLayer
 62
  256
370
   -1
100
AcDbCircle
 10
20.32000000000062
 20
5.080000000000041
 40
0.5
  0
CIRCLE
  5
17D
100
AcDbEntity
  8
universal_board
  6
ByLayer
 62
  256
370
   -1
100
AcDbCircle
 10
22.8600000000007
 20
5.080000000000041
 40
0.5
  0
CIRCLE
  5
17E
100
AcDbEntity
  8
universal_board
  6
ByLayer
 62
  256
370
   -1
100
AcDbCircle
 10
25.40000000000077
 20
5.080000000000041
 40
0.5
  0
CIRCLE
  5
17F
100
AcDbEntity
  8
universal_board
  6
ByLayer
 62
  256
370
   -1
100
AcDbCircle
 10
27.94000000000085
 20
5.080000000000041
 40
0.5
  0
CIRCLE
  5
180
100
AcDbEntity
  8
universal_board
  6
ByLayer
 62
  256
370
   -1
100
AcDbCircle
 10
30.48000000000093
 20
5.080000000000041
 40
0.5
  0
CIRCLE
  5
181
100
AcDbEntity
  8
universal_board
  6
ByLayer
 62
  256
370
   -1
100
AcDbCircle
 10
33.02000000000101
 20
5.080000000000041
 40
0.5
  0
CIRCLE
  5
182
100
AcDbEntity
  8
universal_board
  6
ByLayer
 62
  256
370
   -1
100
AcDbCircle
 10
35.56000000000108
 20
5.080000000000041
 40
0.5
  0
CIRCLE
  5
183
100
AcDbEntity
  8
universal_board
  6
ByLayer
 62
  256
370
   -1
100
AcDbCircle
 10
38.10000000000116
 20
5.080000000000041
 40
0.5
  0
CIRCLE
  5
184
100
AcDbEntity
  8
universal_board
  6
ByLayer
 62
  256
370
   -1
100
AcDbCircle
 10
20.32000000000062
 20
7.620000000000061
 40
0.5
  0
CIRCLE
  5
185
100
AcDbEntity
  8
universal_board
  6
ByLayer
 62
  256
370
   -1
100
AcDbCircle
 10
25.40000000000077
 20
7.620000000000061
 40
0.5
  0
CIRCLE
  5
186
100
AcDbEntity
  8
universal_board
  6
ByLayer
 62
  256
370
   -1
100
AcDbCircle
 10
27.94000000000085
 20
7.620000000000061
 40
0.5
  0
CIRCLE
  5
187
100
AcDbEntity
  8
universal_board
  6
ByLayer
 62
  256
370
   -1
100
AcDbCircle
 10
30.48000000000093
 20
7.620000000000061
 40
0.5
  0
CIRCLE
  5
188
100
AcDbEntity
  8
universal_board
  6
ByLayer
 62
  256
370
   -1
100
AcDbCircle
 10
33.02000000000101
 20
7.620000000000061
 40
0.5
  0
CIRCLE
  5
189
100
AcDbEntity
  8
universal_board
  6
ByLayer
 62
  256
370
   -1
100
AcDbCircle
 10
38.10000000000116
 20
7.620000000000061
 40
0.5
  0
CIRCLE
  5
18A
100
AcDbEntity
  8
universal_board
  6
ByLayer
 62
  256
370
   -1
100
AcDbCircle
 10
20.32000000000062
 20
10.16000000000008
 40
0.5
  0
CIRCLE
  5
18B
100
AcDbEntity
  8
universal_board
  6
ByLayer
 62
  256
370
   -1
100
AcDbCircle
 10
22.8600000000007
 20
10.16000000000008
 40
0.5
  0
CIRCLE
  5
18C
100
AcDbEntity
  8
universal_board
  6
ByLayer
 62
  256
370
   -1
100
AcDbCircle
 10
25.40000000000077
 20
10.16000000000008
 40
0.5
  0
CIRCLE
  5
18D
100
AcDbEntity
  8
universal_board
  6
ByLayer
 62
  256
370
   -1
100
AcDbCircle
 10
27.94000000000085
 20
10.16000000000008
 40
0.5
  0
CIRCLE
  5
18E
100
AcDbEntity
  8
universal_board
  6
ByLayer
 62
  256
370
   -1
100
AcDbCircle
 10
30.48000000000093
 20
10.16000000000008
 40
0.5
  0
CIRCLE
  5
18F
100
AcDbEntity
  8
universal_board
  6
ByLayer
 62
  256
370
   -1
100
AcDbCircle
 10
33.02000000000101
 20
10.16000000000008
 40
0.5
  0
CIRCLE
  5
190
100
AcDbEntity
  8
universal_board
  6
ByLayer
 62
  256
370
   -1
100
AcDbCircle
 10
35.56000000000108
 20
10.16000000000008
 40
0.5
  0
CIRCLE
  5
191
100
AcDbEntity
  8
universal_board
  6
ByLayer
 62
  256
370
   -1
100
AcDbCircle
 10
38.10000000000116
 20
10.16000000000008
 40
0.5
  0
LINE
  5
192
100
AcDbEntity
  8
universal_board
  6
ByLayer
 62
  256
370
   -1
100
AcDbLine
 10
19.05000000000052
 20
11.42999999999989
 11
39.37000000000131
 21
11.42999999999989
  0
LINE
  5
193
100
AcDbEntity
  8
universal_board
  6
ByLayer
 62
  256
370
   -1
100
AcDbLine
 10
19.05000000000046
 20
-13.97000000000031
 11
39.37000000000138
 21
-13.97000000000031
  0
LINE
  5
194
100
AcDbEntity
  8
universal_board
  6
ByLayer
 62
  256
370
   -1
100
AcDbLine
 10
19.05000000000052
 20
11.42999999999989
 11
19.05000000000052
 21
-13.9700000000003
  0
LINE
  5
195
100
AcDbEntity
  8
universal_board
  6
ByLayer
 62
  256
370
   -1
100
AcDbLine
 10
39.37000000000131
 20
11.42999999999989
 11
39.37000000000131
 21
-13.9700000000003
  0
LINE
  5
196
100
AcDbEntity
  8
universal_board
  6
ByLayer
 62
  256
370
   -1
100
AcDbLine
 10
19.05000000000046
 20
-11.43000000000029
 11
39.37000000000138
 21
-11.43000000000029
  0
LINE
  5
197
100
AcDbEntity
  8
universal_board
  6
ByLayer
 62
  256
370
   -1
100
AcDbLine
 10
19.05000000000046
 20
-8.890000000000267
 11
39.37000000000138
 21
-8.890000000000267
  0
LINE
  5
198
100
AcDbEntity
  8
universal_board
  6
ByLayer
 62
  256
370
   -1
100
AcDbLine
 10
19.05000000000046
 20
-6.350000000000247
 11
39.37000000000138
 21
-6.350000000000247
  0
LINE
  5
199
100
AcDbEntity
  8
universal_board
  6
ByLayer
 62
  256
370
   -1
100
AcDbLine
 10
19.05000000000046
 20
-3.810000000000226
 11
39.37000000000138
 21
-3.810000000000226
  0
LINE
  5
19A
100
AcDbEntity
  8
universal_board
  6
ByLayer
 62
  256
370
   -1
100
AcDbLine
 10
19.05000000000046
 20
-1.270000000000206
 11
39.37000000000138
 21
-1.270000000000206
  0
LINE
  5
19B
100
AcDbEntity
  8
universal_board
  6
ByLayer
 62
  256
370
   -1
100
AcDbLine
 10
19.05000000000046
 20
1.269999999999815
 11
39.37000000000138
 21
1.269999999999815
  0
LINE
  5
19C
100
AcDbEntity
  8
universal_board
  6
ByLayer
 62
  256
370
   -1
100
AcDbLine
 10
19.05000000000046
 20
3.809999999999835
 11
39.37000000000138
 21
3.809999999999835
  0
LINE
  5
19D
100
AcDbEntity
  8
universal_board
  6
ByLayer
 62
  256
370
   -1
100
AcDbLine
 10
19.05000000000046
 20
6.349999999999856
 11
39.37000000000138
 21
6.349999999999856
  0
LINE
  5
19E
100
AcDbEntity
  8
universal_board
  6
ByLayer
 62
  256
370
   -1
100
AcDbLine
 10
19.05000000000046
 20
8.889999999999876
 11
39.37000000000138
 21
8.889999999999876
  0
LINE
  5
19F
100
AcDbEntity
  8
universal_board
  6
ByLayer
 62
  256
370
   -1
100
AcDbLine
 10
21.5900000000006
 20
11.42999999999989
 11
21.5900000000006
 21
-13.9700000000003
  0
LINE
  5
1A0
100
AcDbEntity
  8
universal_board
  6
ByLayer
 62
  256
370
   -1
100
AcDbLine
 10
24.13000000000068
 20
11.42999999999989
 11
24.13000000000068
 21
-13.9700000000003
  0
LINE
  5
1A1
100
AcDbEntity
  8
universal_board
  6
ByLayer
 62
  256
370
   -1
100
AcDbLine
 10
26.67000000000077
 20
11.42999999999989
 11
26.67000000000077
 21
-13.9700000000003
  0
LINE
  5
1A2
100
AcDbEntity
  8
universal_board
  6
ByLayer
 62
  256
370
   -1
100
AcDbLine
 10
29.21000000000085
 20
11.42999999999989
 11
29.21000000000085
 21
-13.9700000000003
  0
LINE
  5
1A3
100
AcDbEntity
  8
universal_board
  6
ByLayer
 62
  256
370
   -1
100
AcDbLine
 10
31.75000000000093
 20
11.42999999999989
 11
31.75000000000093
 21
-13.9700000000003
  0
LINE
  5
1A4
100
AcDbEntity
  8
universal_board
  6
ByLayer
 62
  256
370
   -1
100
AcDbLine
 10
34.29000000000101
 20
11.42999999999989
 11
34.29000000000101
 21
-13.9700000000003
  0
LINE
  5
1A5
100
AcDbEntity
  8
universal_board
  6
ByLayer
 62
  256
370
   -1
100
AcDbLine
 10
36.83000000000109
 20
11.42999999999989
 11
36.83000000000109
 21
-13.9700000000003
  0
MTEXT
  5
1A6
100
AcDbEntity
  8
micon
  6
ByLayer
 62
  256
370
   -1
100
AcDbMText
 10
3.443799423167898
 20
-9.030696872340569
 30
0
 40
1
 41
1.097777777777778
 71
    4
 72
    1
  1
U1
  7
kst32b
210
0
220
0
230
1
 50
0
 73
    2
 44
1.54
  0
LINE
  5
1A7
100
AcDbEntity
  8
5V line
  6
ByLayer
 62
  256
370
   -1
100
AcDbLine
 10
12.70000000000039
 20
-7.620000000000058
 11
12.70000000000039
 21
-10.16000000000008
  0
LINE
  5
1A8
100
AcDbEntity
  8
3.3V line
  6
ByLayer
 62
  256
370
   -1
100
AcDbLine
 10
12.70000000000039
 20
-2.540000000000019
 11
12.70000000000039
 21
-5.080000000000039
  0
LWPOLYLINE
  5
1A9
100
AcDbEntity
  8
resister
  6
DOTTINY
 62
  256
370
   -1
100
AcDbPolyline
 90
    5
 70
    0
 43
0
 10
12.70000000000039
 20
-7.620000000000058
 10
11.96641357476745
 20
-8.302687832713099
 10
1.68689530569409
 20
-8.276330093561629
 10
1.818684001451441
 20
1.924114958057321
 10
2.540000000000081
 20
2.54000000000002
  0
LINE
  5
1AA
100
AcDbEntity
  8
0_GND
  6
ByLayer
 62
  256
370
  200
100
AcDbLine
 10
30.48000000000094
 20
5.080000000000039
 11
33.02000000000102
 21
5.080000000000039
  0
CIRCLE
  5
1AB
100
AcDbEntity
  8
0_wire
  6
ByLayer
 62
  256
370
  200
100
AcDbCircle
 10
27.94000000000086
 20
5.080000000000039
 40
0.4
  0
LINE
  5
1AC
100
AcDbEntity
  8
0_GND
  6
ByLayer
 62
  256
370
  200
100
AcDbLine
 10
33.02000000000102
 20
5.080000000000039
 11
38.10000000000117
 21
5.080000000000039
  0
LINE
  5
1AD
100
AcDbEntity
  8
0_GND
  6
ByLayer
 62
  256
370
  200
100
AcDbLine
 10
38.10000000000117
 20
5.080000000000039
 11
38.10000000000117
 21
10.16000000000008
  0
LINE
  5
1AE
100
AcDbEntity
  8
0_GND
  6
ByLayer
 62
  256
370
  200
100
AcDbLine
 10
38.10000000000117
 20
10.16000000000008
 11
20.32000000000063
 21
10.16000000000008
  0
LINE
  5
1AF
100
AcDbEntity
  8
0_GND
  6
ByLayer
 62
  256
370
  200
100
AcDbLine
 10
20.32000000000063
 20
10.16000000000008
 11
20.32000000000063
 21
5.080000000000039
  0
LINE
  5
1B0
100
AcDbEntity
  8
0_GND
  6
ByLayer
 62
  256
370
  200
100
AcDbLine
 10
20.32000000000063
 20
5.080000000000039
 11
22.86000000000071
 21
5.080000000000039
  0
LINE
  5
1B1
100
AcDbEntity
  8
0_wire
  6
ByLayer
 62
  256
370
  200
100
AcDbLine
 10
35.56000000000109
 20
-7.620000000000053
 11
38.10000000000117
 21
-7.620000000000053
  0
LINE
  5
1B2
100
AcDbEntity
  8
0_wire
  6
ByLayer
 62
  256
370
  200
100
AcDbLine
 10
35.56000000000109
 20
-10.16000000000008
 11
38.10000000000117
 21
-10.16000000000008
  0
LINE
  5
1B3
100
AcDbEntity
  8
0_wire
  6
ByLayer
 62
  256
370
  200
100
AcDbLine
 10
35.56000000000109
 20
-12.7000000000001
 11
38.10000000000117
 21
-12.7000000000001
  0
LINE
  5
1B4
100
AcDbEntity
  8
0_wire
  6
ByLayer
 62
  256
370
  200
100
AcDbLine
 10
27.94000000000086
 20
2.540000000000019
 11
27.94000000000086
 21
-2.540000000000022
  0
LINE
  5
1B5
100
AcDbEntity
  8
3.3V line
  6
ByLayer
 62
  256
370
  200
100
AcDbLine
 10
25.40000000000078
 20
-2.540000000000022
 11
22.86000000000071
 21
-2.540000000000022
  0
LINE
  5
1B6
100
AcDbEntity
  8
3.3V line
  6
ByLayer
 62
  256
370
  200
100
AcDbLine
 10
25.40000000000078
 20
-2.540000000000022
 11
25.40000000000078
 21
-3.552713678800501e-15
  0
LINE
  5
1B7
100
AcDbEntity
  8
0_GND
  6
ByLayer
 62
  256
370
  200
100
AcDbLine
 10
22.86000000000071
 20
5.080000000000039
 11
22.86000000000071
 21
-3.552713678800501e-15
  0
LINE
  5
1B8
100
AcDbEntity
  8
5V line
  6
ByLayer
 62
  256
370
  200
100
AcDbLine
 10
22.86000000000071
 20
-5.080000000000039
 11
22.86000000000071
 21
-7.620000000000058
  0
LINE
  5
1B9
100
AcDbEntity
  8
0_wire
  6
ByLayer
 62
  256
370
  200
100
AcDbLine
 10
22.86000000000071
 20
-10.16000000000009
 11
22.86000000000071
 21
-12.7000000000001
  0
LINE
  5
1BA
100
AcDbEntity
  8
0_wire
  6
ByLayer
 62
  256
370
  200
100
AcDbLine
 10
22.86000000000071
 20
-12.7000000000001
 11
25.40000000000078
 21
-12.7000000000001
  0
LINE
  5
1BB
100
AcDbEntity
  8
3.3V line
  6
ByLayer
 62
  256
370
  200
100
AcDbLine
 10
25.40000000000078
 20
-2.540000000000022
 11
25.40000000000078
 21
-10.16000000000009
  0
LINE
  5
1BC
100
AcDbEntity
  8
3.3V line
  6
ByLayer
 62
  256
370
  200
100
AcDbLine
 10
25.40000000000078
 20
-10.16000000000009
 11
27.94000000000086
 21
-10.16000000000009
  0
LINE
  5
1BD
100
AcDbEntity
  8
3.3V line
  6
ByLayer
 62
  256
370
  200
100
AcDbLine
 10
27.94000000000086
 20
-10.16000000000009
 11
27.94000000000086
 21
-12.7000000000001
  0
LINE
  5
1BE
100
AcDbEntity
  8
0_GND
  6
ByLayer
 62
  256
370
  200
100
AcDbLine
 10
33.02000000000102
 20
-2.540000000000022
 11
35.56000000000109
 21
-2.540000000000022
  0
LINE
  5
1BF
100
AcDbEntity
  8
0_GND
  6
ByLayer
 62
  256
370
  200
100
AcDbLine
 10
35.56000000000109
 20
-2.540000000000022
 11
38.10000000000117
 21
-2.540000000000022
  0
LINE
  5
1C0
100
AcDbEntity
  8
0_GND
  6
ByLayer
 62
  256
370
  200
100
AcDbLine
 10
38.10000000000117
 20
-2.540000000000022
 11
38.10000000000117
 21
-5.080000000000039
  0
LINE
  5
1C1
100
AcDbEntity
  8
5V line
  6
ByLayer
 62
  256
370
  200
100
AcDbLine
 10
20.32000000000063
 20
-7.620000000000058
 11
22.86000000000071
 21
-7.620000000000058
  0
LINE
  5
1C2
100
AcDbEntity
  8
3.3V line
  6
ByLayer
 62
  256
370
  200
100
AcDbLine
 10
22.86000000000071
 20
-2.540000000000022
 11
20.32000000000063
 21
-2.540000000000022
  0
LINE
  5
1C3
100
AcDbEntity
  8
0_wire
  6
ByLayer
 62
  256
370
  200
100
AcDbLine
 10
20.32000000000063
 20
-12.7000000000001
 11
22.86000000000071
 21
-12.7000000000001
  0
LINE
  5
1C4
100
AcDbEntity
  8
5V line
  6
ByLayer
 62
  256
370
  200
100
AcDbLine
 10
30.48000000000094
 20
2.540000000000019
 11
33.02000000000102
 21
2.540000000000019
  0
LINE
  5
1C5
100
AcDbEntity
  8
5V line
  6
ByLayer
 62
  256
370
  200
100
AcDbLine
 10
33.02000000000102
 20
2.540000000000019
 11
33.02000000000102
 21
-3.552713678800501e-15
  0
LINE
  5
1C6
100
AcDbEntity
  8
0_GND
  6
ByLayer
 62
  256
370
  200
100
AcDbLine
 10
35.56000000000109
 20
5.080000000000039
 11
35.56000000000109
 21
-3.552713678800501e-15
  0
LINE
  5
1C7
100
AcDbEntity
  8
0_GND
  6
ByLayer
 62
  256
370
  200
100
AcDbLine
 10
35.56000000000109
 20
-3.552713678800501e-15
 11
35.56000000000109
 21
-2.540000000000022
  0
LINE
  5
1C8
100
AcDbEntity
  8
0_wire
  6
ByLayer
 62
  256
370
  200
100
AcDbLine
 10
30.48000000000094
 20
-3.552713678800501e-15
 11
30.48000000000094
 21
-2.540000000000022
  0
LINE
  5
1C9
100
AcDbEntity
  8
5V line
  6
ByLayer
 62
  256
370
  200
100
AcDbLine
 10
20.32000000000063
 20
-7.620000000000058
 11
20.32000000000063
 21
-10.16000000000009
  0
LINE
  5
1CA
100
AcDbEntity
  8
3.3V line
  6
ByLayer
 62
  256
370
  200
100
AcDbLine
 10
20.32000000000063
 20
-2.540000000000022
 11
20.32000000000063
 21
-5.080000000000039
  0
MTEXT
  5
1CB
100
AcDbEntity
  8
socket_header
  6
ByLayer
 62
  256
370
   -1
100
AcDbMText
 10
-6.28062903769782
 20
-13.33824311098712
 30
0
 40
1
 41
1.236666666666667
 71
    4
 72
    1
  1
J2
  7
kst32b
210
0
220
0
230
1
 50
0
 73
    2
 44
1.54
  0
MTEXT
  5
1CC
100
AcDbEntity
  8
socket_header
  6
ByLayer
 62
  256
370
   -1
100
AcDbMText
 10
12.56125807539564
 20
-13.46774061691904
 30
0
 40
1
 41
1.201111111111111
 71
    4
 72
    1
  1
J3
  7
kst32b
210
0
220
0
230
1
 50
0
 73
    2
 44
1.54
  0
MTEXT
  5
1CD
100
AcDbEntity
  8
0
  6
ByLayer
 62
  256
370
   -1
100
AcDbMText
 10
-22.20882226732322
 20
0.0647487529659569
 30
0
 40
1
 41
13.58666666666666
 71
    4
 72
    1
  1
B1:  8x10P\PC1: 0.22uF\PC2: 1.5uF\PJ1: USB-B \PJ2,3:  4P\PR1: 10k\PU1: UP2104
  7
kst32b
210
0
220
0
230
1
 50
0
 73
    2
 44
1.54
  0
LINE
  5
1CE
100
AcDbEntity
  8
resister
  6
DOTTINY
 62
  256
370
   -1
100
AcDbLine
 10
-5.080000000000149
 20
7.620000000000061
 11
-2.209999999999859
 21
7.78000000000015
  0
LINE
  5
1CF
100
AcDbEntity
  8
resister
  6
DOTTINY
 62
  256
370
   -1
100
AcDbLine
 10
9.829999999999359
 20
7.78000000000015
 11
12.70000000000039
 21
7.620000000000061
  0
ENDSEC
  0
SECTION
  2
OBJECTS
  0
DICTIONARY
  5
C
330
0
100
AcDbDictionary
281
    1
  3
ACAD_GROUP
350
D
  0
DICTIONARY
  5
D
330
C
100
AcDbDictionary
281
    1
  0
PLOTSETTINGS
  5
1D0
100
AcDbPlotSettings
  6
1x1
 40
5
 41
5
 42
5
 43
5
  0
ENDSEC
  0
EOF
